  0
SECTION
  2
HEADER
  9
$ANGBASE
  50
0.0
  9
$ANGDIR
  70
1
  9
$MEASUREMENT
  70
0
  0
ENDSEC
  0
SECTION
  2
TABLES
  0
TABLE
  2
LTYPE
  70
4
  0
LTYPE
  5
40F
  2
CONTINUOUS
  70
0
  3
Solid line
  72
65
  73
0
  40
0.0
  0
LTYPE
  5
410
  2
DASHDOT
 70
0
  3
Dash Dot ____ _ ____ _
 72
65
 73
4
 40
2.0
 49
1.25
 49
-0.25
 49
0.25
 49
-0.25
  0
LTYPE
  5
411
  2
DASHED
 70
0
  3
Dashed __ __ __ __ __
 72
65
 73
2
 40
0.75
 49
0.5
 49
-0.25
  0
LTYPE
  5
43B
  2
DOTTED
 70
0
  3
Dotted .  .  .  .
 72
65
 73
2
 40
0.2
 49
0.0
 49
-0.2
  0
ENDTAB
  0
TABLE
  2
STYLE
  70
4
  0
STYLE
  2
KICAD
  70
0
  40
0
  41
1
  42
1
  50
0
  71
0
  3
isocp.shx
  0
STYLE
  2
KICADB
  70
0
  40
0
  41
1
  42
1
  50
0
  71
0
  3
isocp.shx
  0
STYLE
  2
KICADI
  70
0
  40
0
  41
1
  42
1
  50
15
  71
0
  3
isocp.shx
  0
STYLE
  2
KICADBI
  70
0
  40
0
  41
1
  42
1
  50
15
  71
0
  3
isocp.shx
  0
ENDTAB
  0
TABLE
  2
LAYER
  70
1
  0
LAYER
  2
BLACK
  70
0
  62
7
  6
CONTINUOUS
  0
ENDTAB
  0
ENDSEC
  0
SECTION
  2
ENTITIES
0
CIRCLE
8
BLACK
10
1.2476574803149607
20
2.2792204724409446
40
0.0068897637795276
0
CIRCLE
8
BLACK
10
1.0508070866141732
20
2.2792204724409446
40
0.0068897637795276
0
CIRCLE
8
BLACK
10
1.2476574803149607
20
2.4762204724409447
40
0.0068897637795276
0
CIRCLE
8
BLACK
10
1.0508070866141732
20
2.4762204724409447
40
0.0068897637795276
0
CIRCLE
8
BLACK
10
1.6850000000000001
20
0.508
40
0.0068897637795276
0
CIRCLE
8
BLACK
10
1.6850000000000001
20
0.408
40
0.0068897637795276
0
CIRCLE
8
BLACK
10
1.585
20
0.508
40
0.0068897637795276
0
CIRCLE
8
BLACK
10
1.585
20
0.408
40
0.0068897637795276
0
CIRCLE
8
BLACK
10
1.4849999999999999
20
0.508
40
0.0068897637795276
0
CIRCLE
8
BLACK
10
1.4849999999999999
20
0.408
40
0.0068897637795276
0
CIRCLE
8
BLACK
10
1.385
20
0.508
40
0.0068897637795276
0
CIRCLE
8
BLACK
10
1.385
20
0.408
40
0.0068897637795276
0
CIRCLE
8
BLACK
10
1.6599999999999999
20
2.2799999999999998
40
0.0068897637795276
0
CIRCLE
8
BLACK
10
1.6599999999999999
20
2.3799999999999999
40
0.0068897637795276
0
CIRCLE
8
BLACK
10
1.5600000000000001
20
2.2799999999999998
40
0.0068897637795276
0
CIRCLE
8
BLACK
10
1.5600000000000001
20
2.3799999999999999
40
0.0068897637795276
0
CIRCLE
8
BLACK
10
0.7856496062992125
20
0.3276771653543307
40
0.0068897637795276
0
CIRCLE
8
BLACK
10
0.9824999999999999
20
0.3276771653543307
40
0.0068897637795276
0
CIRCLE
8
BLACK
10
1.8599999999999999
20
2.2799999999999998
40
0.0068897637795276
0
CIRCLE
8
BLACK
10
1.8599999999999999
20
2.3799999999999999
40
0.0068897637795276
0
CIRCLE
8
BLACK
10
1.96
20
2.2799999999999998
40
0.0068897637795276
0
CIRCLE
8
BLACK
10
1.96
20
2.3799999999999999
40
0.0068897637795276
0
CIRCLE
8
BLACK
10
2.5699999999999998
20
2.27
40
0.0068897637795276
0
CIRCLE
8
BLACK
10
2.5699999999999998
20
2.3700000000000001
40
0.0068897637795276
0
CIRCLE
8
BLACK
10
2.6699999999999999
20
2.27
40
0.0068897637795276
0
CIRCLE
8
BLACK
10
2.6699999999999999
20
2.3700000000000001
40
0.0068897637795276
0
CIRCLE
8
BLACK
10
2.77
20
2.27
40
0.0068897637795276
0
CIRCLE
8
BLACK
10
2.77
20
2.3700000000000001
40
0.0068897637795276
0
CIRCLE
8
BLACK
10
2.8700000000000001
20
2.27
40
0.0068897637795276
0
CIRCLE
8
BLACK
10
2.8700000000000001
20
2.3700000000000001
40
0.0068897637795276
0
CIRCLE
8
BLACK
10
2.9699999999999998
20
2.27
40
0.0068897637795276
0
CIRCLE
8
BLACK
10
2.9699999999999998
20
2.3700000000000001
40
0.0068897637795276
0
CIRCLE
8
BLACK
10
0.7856496062992125
20
0.5226771653543307
40
0.0068897637795276
0
CIRCLE
8
BLACK
10
0.9824999999999999
20
0.5226771653543307
40
0.0068897637795276
0
CIRCLE
8
BLACK
10
2.1459842519685037
20
2.4785826771653543
40
0.0068897637795276
0
CIRCLE
8
BLACK
10
2.3940157480314959
20
2.4785826771653543
40
0.0068897637795276
0
CIRCLE
8
BLACK
10
2.1459842519685037
20
2.3014173228346455
40
0.0068897637795276
0
CIRCLE
8
BLACK
10
2.3940157480314959
20
2.3014173228346455
40
0.0068897637795276
0
CIRCLE
8
BLACK
10
2.0859842519685037
20
0.5235826771653543
40
0.0068897637795276
0
CIRCLE
8
BLACK
10
2.3340157480314958
20
0.5235826771653543
40
0.0068897637795276
0
CIRCLE
8
BLACK
10
2.0859842519685037
20
0.3464173228346457
40
0.0068897637795276
0
CIRCLE
8
BLACK
10
2.3340157480314958
20
0.3464173228346457
40
0.0068897637795276
0
CIRCLE
8
BLACK
10
1.76
20
2.2799999999999998
40
0.0068897637795276
0
CIRCLE
8
BLACK
10
1.76
20
2.3799999999999999
40
0.0068897637795276
0
CIRCLE
8
BLACK
10
1.8379999999999999
20
0.51
40
0.0068897637795276
0
CIRCLE
8
BLACK
10
1.9379999999999999
20
0.51
40
0.0068897637795276
0
CIRCLE
8
BLACK
10
1.8379999999999999
20
0.41
40
0.0068897637795276
0
CIRCLE
8
BLACK
10
1.9379999999999999
20
0.41
40
0.0068897637795276
0
CIRCLE
8
BLACK
10
1.8379999999999999
20
0.31
40
0.0068897637795276
0
CIRCLE
8
BLACK
10
1.9379999999999999
20
0.31
40
0.0068897637795276
0
CIRCLE
8
BLACK
10
3.1999999999999997
20
2.3999999999999999
40
0.0068897637795276
0
CIRCLE
8
BLACK
10
0.4
20
0.4
40
0.0068897637795276
0
CIRCLE
8
BLACK
10
0.3728346456692913
20
1.7799212598425196
40
0.0068897637795276
0
CIRCLE
8
BLACK
10
3.2271653543307086
20
1.7799212598425196
40
0.0068897637795276
0
CIRCLE
8
BLACK
10
0.3728346456692913
20
1.0200787401574802
40
0.0068897637795276
0
CIRCLE
8
BLACK
10
3.2271653543307086
20
1.0200787401574802
40
0.0068897637795276
0
CIRCLE
8
BLACK
10
3.1999999999999997
20
0.4
40
0.0068897637795276
0
CIRCLE
8
BLACK
10
0.4
20
2.3999999999999999
40
0.0068897637795276
0
CIRCLE
8
BLACK
10
2.48
20
0.39
40
0.0068897637795276
0
CIRCLE
8
BLACK
10
1.2110000000000001
20
0.412
40
0.0068897637795276
0
CIRCLE
8
BLACK
10
2.6012499999999998
20
0.39
40
0.0068897637795276
0
CIRCLE
8
BLACK
10
2.84375
20
0.39
40
0.0068897637795276
0
CIRCLE
8
BLACK
10
2.9649999999999999
20
0.39
40
0.0068897637795276
0
CIRCLE
8
BLACK
10
0.4598818897637795
20
1.286220472440945
40
0.0068897637795276
0
CIRCLE
8
BLACK
10
0.4598818897637795
20
1.5137795275590551
40
0.0068897637795276
0
LINE
8
BLACK
6
CONTINUOUS
10
0.3322896850393701
20
1.2416312204724409
11
0.3352679133858268
21
1.2408332283464567
0
LINE
8
BLACK
6
CONTINUOUS
10
0.3352679133858268
20
1.2408332283464567
11
0.3379381102362204
21
1.2392915748031497
0
LINE
8
BLACK
6
CONTINUOUS
10
0.3379381102362204
20
1.2392915748031497
11
0.3401183464566929
21
1.2371113385826771
0
LINE
8
BLACK
6
CONTINUOUS
10
0.3401183464566929
20
1.2371113385826771
11
0.34166
21
1.2344411417322834
0
LINE
8
BLACK
6
CONTINUOUS
10
0.34166
20
1.2344411417322834
11
0.3424579921259843
21
1.2314629133858268
0
LINE
8
BLACK
6
CONTINUOUS
10
0.3424579921259843
20
1.2314629133858268
11
0.3424579921259843
21
1.2283796062992125
0
LINE
8
BLACK
6
CONTINUOUS
10
0.3424579921259843
20
1.2283796062992125
11
0.34166
21
1.2254013779527559
0
LINE
8
BLACK
6
CONTINUOUS
10
0.34166
20
1.2254013779527559
11
0.3401183464566929
21
1.2227311811023622
0
LINE
8
BLACK
6
CONTINUOUS
10
0.3401183464566929
20
1.2227311811023622
11
0.3379381102362204
21
1.2205509448818896
0
LINE
8
BLACK
6
CONTINUOUS
10
0.3379381102362204
20
1.2205509448818896
11
0.3352679133858268
21
1.2190092913385826
0
LINE
8
BLACK
6
CONTINUOUS
10
0.3352679133858268
20
1.2190092913385826
11
0.3322896850393701
21
1.2182112992125984
0
LINE
8
BLACK
6
CONTINUOUS
10
0.3322896850393701
20
1.2182112992125984
11
0.330748031496063
21
1.2181102362204723
0
LINE
8
BLACK
6
CONTINUOUS
10
0.330748031496063
20
1.2181102362204723
11
0.299251968503937
21
1.2181102362204723
0
LINE
8
BLACK
6
CONTINUOUS
10
0.299251968503937
20
1.2181102362204723
11
0.2977103149606299
21
1.2182112992125984
0
LINE
8
BLACK
6
CONTINUOUS
10
0.2977103149606299
20
1.2182112992125984
11
0.2947320866141732
21
1.2190092913385826
0
LINE
8
BLACK
6
CONTINUOUS
10
0.2947320866141732
20
1.2190092913385826
11
0.2920618897637795
21
1.2205509448818896
0
LINE
8
BLACK
6
CONTINUOUS
10
0.2920618897637795
20
1.2205509448818896
11
0.2898816535433071
21
1.2227311811023622
0
LINE
8
BLACK
6
CONTINUOUS
10
0.2898816535433071
20
1.2227311811023622
11
0.28834
21
1.2254013779527559
0
LINE
8
BLACK
6
CONTINUOUS
10
0.28834
20
1.2254013779527559
11
0.2875420078740157
21
1.2283796062992125
0
LINE
8
BLACK
6
CONTINUOUS
10
0.2875420078740157
20
1.2283796062992125
11
0.2875420078740157
21
1.2314629133858268
0
LINE
8
BLACK
6
CONTINUOUS
10
0.2875420078740157
20
1.2314629133858268
11
0.28834
21
1.2344411417322834
0
LINE
8
BLACK
6
CONTINUOUS
10
0.28834
20
1.2344411417322834
11
0.2898816535433071
21
1.2371113385826771
0
LINE
8
BLACK
6
CONTINUOUS
10
0.2898816535433071
20
1.2371113385826771
11
0.2920618897637795
21
1.2392915748031497
0
LINE
8
BLACK
6
CONTINUOUS
10
0.2920618897637795
20
1.2392915748031497
11
0.2947320866141732
21
1.2408332283464567
0
LINE
8
BLACK
6
CONTINUOUS
10
0.2947320866141732
20
1.2408332283464567
11
0.2977103149606299
21
1.2416312204724409
0
LINE
8
BLACK
6
CONTINUOUS
10
0.2977103149606299
20
1.2416312204724409
11
0.299251968503937
21
1.241732283464567
0
LINE
8
BLACK
6
CONTINUOUS
10
0.299251968503937
20
1.241732283464567
11
0.330748031496063
21
1.241732283464567
0
LINE
8
BLACK
6
CONTINUOUS
10
0.330748031496063
20
1.241732283464567
11
0.3322896850393701
21
1.2416312204724409
0
LINE
8
BLACK
6
CONTINUOUS
10
0.3322896850393701
20
1.5817887007874016
11
0.3352679133858268
21
1.5809907086614172
0
LINE
8
BLACK
6
CONTINUOUS
10
0.3352679133858268
20
1.5809907086614172
11
0.3379381102362204
21
1.5794490551181102
0
LINE
8
BLACK
6
CONTINUOUS
10
0.3379381102362204
20
1.5794490551181102
11
0.3401183464566929
21
1.5772688188976378
0
LINE
8
BLACK
6
CONTINUOUS
10
0.3401183464566929
20
1.5772688188976378
11
0.34166
21
1.5745986220472441
0
LINE
8
BLACK
6
CONTINUOUS
10
0.34166
20
1.5745986220472441
11
0.3424579921259843
21
1.5716203937007873
0
LINE
8
BLACK
6
CONTINUOUS
10
0.3424579921259843
20
1.5716203937007873
11
0.3424579921259843
21
1.5685370866141732
0
LINE
8
BLACK
6
CONTINUOUS
10
0.3424579921259843
20
1.5685370866141732
11
0.34166
21
1.5655588582677165
0
LINE
8
BLACK
6
CONTINUOUS
10
0.34166
20
1.5655588582677165
11
0.3401183464566929
21
1.5628886614173227
0
LINE
8
BLACK
6
CONTINUOUS
10
0.3401183464566929
20
1.5628886614173227
11
0.3379381102362204
21
1.5607084251968504
0
LINE
8
BLACK
6
CONTINUOUS
10
0.3379381102362204
20
1.5607084251968504
11
0.3352679133858268
21
1.5591667716535433
0
LINE
8
BLACK
6
CONTINUOUS
10
0.3352679133858268
20
1.5591667716535433
11
0.3322896850393701
21
1.5583687795275589
0
LINE
8
BLACK
6
CONTINUOUS
10
0.3322896850393701
20
1.5583687795275589
11
0.330748031496063
21
1.5582677165354331
0
LINE
8
BLACK
6
CONTINUOUS
10
0.330748031496063
20
1.5582677165354331
11
0.299251968503937
21
1.5582677165354331
0
LINE
8
BLACK
6
CONTINUOUS
10
0.299251968503937
20
1.5582677165354331
11
0.2977103149606299
21
1.5583687795275589
0
LINE
8
BLACK
6
CONTINUOUS
10
0.2977103149606299
20
1.5583687795275589
11
0.2947320866141732
21
1.5591667716535433
0
LINE
8
BLACK
6
CONTINUOUS
10
0.2947320866141732
20
1.5591667716535433
11
0.2920618897637795
21
1.5607084251968504
0
LINE
8
BLACK
6
CONTINUOUS
10
0.2920618897637795
20
1.5607084251968504
11
0.2898816535433071
21
1.5628886614173227
0
LINE
8
BLACK
6
CONTINUOUS
10
0.2898816535433071
20
1.5628886614173227
11
0.28834
21
1.5655588582677165
0
LINE
8
BLACK
6
CONTINUOUS
10
0.28834
20
1.5655588582677165
11
0.2875420078740157
21
1.5685370866141732
0
LINE
8
BLACK
6
CONTINUOUS
10
0.2875420078740157
20
1.5685370866141732
11
0.2875420078740157
21
1.5716203937007873
0
LINE
8
BLACK
6
CONTINUOUS
10
0.2875420078740157
20
1.5716203937007873
11
0.28834
21
1.5745986220472441
0
LINE
8
BLACK
6
CONTINUOUS
10
0.28834
20
1.5745986220472441
11
0.2898816535433071
21
1.5772688188976378
0
LINE
8
BLACK
6
CONTINUOUS
10
0.2898816535433071
20
1.5772688188976378
11
0.2920618897637795
21
1.5794490551181102
0
LINE
8
BLACK
6
CONTINUOUS
10
0.2920618897637795
20
1.5794490551181102
11
0.2947320866141732
21
1.5809907086614172
0
LINE
8
BLACK
6
CONTINUOUS
10
0.2947320866141732
20
1.5809907086614172
11
0.2977103149606299
21
1.5817887007874016
0
LINE
8
BLACK
6
CONTINUOUS
10
0.2977103149606299
20
1.5817887007874016
11
0.299251968503937
21
1.5818897637795275
0
LINE
8
BLACK
6
CONTINUOUS
10
0.299251968503937
20
1.5818897637795275
11
0.330748031496063
21
1.5818897637795275
0
LINE
8
BLACK
6
CONTINUOUS
10
0.330748031496063
20
1.5818897637795275
11
0.3322896850393701
21
1.5817887007874016
0
LINE
8
BLACK
6
CONTINUOUS
10
0.502762125984252
20
1.2416312204724409
11
0.5057403543307086
21
1.2408332283464567
0
LINE
8
BLACK
6
CONTINUOUS
10
0.5057403543307086
20
1.2408332283464567
11
0.5084105511811023
21
1.2392915748031497
0
LINE
8
BLACK
6
CONTINUOUS
10
0.5084105511811023
20
1.2392915748031497
11
0.5105907874015748
21
1.2371113385826771
0
LINE
8
BLACK
6
CONTINUOUS
10
0.5105907874015748
20
1.2371113385826771
11
0.5121324409448819
21
1.2344411417322834
0
LINE
8
BLACK
6
CONTINUOUS
10
0.5121324409448819
20
1.2344411417322834
11
0.5129304330708662
21
1.2314629133858268
0
LINE
8
BLACK
6
CONTINUOUS
10
0.5129304330708662
20
1.2314629133858268
11
0.5129304330708662
21
1.2283796062992125
0
LINE
8
BLACK
6
CONTINUOUS
10
0.5129304330708662
20
1.2283796062992125
11
0.5121324409448819
21
1.2254013779527559
0
LINE
8
BLACK
6
CONTINUOUS
10
0.5121324409448819
20
1.2254013779527559
11
0.5105907874015748
21
1.2227311811023622
0
LINE
8
BLACK
6
CONTINUOUS
10
0.5105907874015748
20
1.2227311811023622
11
0.5084105511811023
21
1.2205509448818896
0
LINE
8
BLACK
6
CONTINUOUS
10
0.5084105511811023
20
1.2205509448818896
11
0.5057403543307086
21
1.2190092913385826
0
LINE
8
BLACK
6
CONTINUOUS
10
0.5057403543307086
20
1.2190092913385826
11
0.502762125984252
21
1.2182112992125984
0
LINE
8
BLACK
6
CONTINUOUS
10
0.502762125984252
20
1.2182112992125984
11
0.5012204724409449
21
1.2181102362204723
0
LINE
8
BLACK
6
CONTINUOUS
10
0.5012204724409449
20
1.2181102362204723
11
0.4579133858267717
21
1.2181102362204723
0
LINE
8
BLACK
6
CONTINUOUS
10
0.4579133858267717
20
1.2181102362204723
11
0.4563717322834646
21
1.2182112992125984
0
LINE
8
BLACK
6
CONTINUOUS
10
0.4563717322834646
20
1.2182112992125984
11
0.4533935039370079
21
1.2190092913385826
0
LINE
8
BLACK
6
CONTINUOUS
10
0.4533935039370079
20
1.2190092913385826
11
0.4507233070866142
21
1.2205509448818896
0
LINE
8
BLACK
6
CONTINUOUS
10
0.4507233070866142
20
1.2205509448818896
11
0.4485430708661417
21
1.2227311811023622
0
LINE
8
BLACK
6
CONTINUOUS
10
0.4485430708661417
20
1.2227311811023622
11
0.4470014173228347
21
1.2254013779527559
0
LINE
8
BLACK
6
CONTINUOUS
10
0.4470014173228347
20
1.2254013779527559
11
0.4462034251968504
21
1.2283796062992125
0
LINE
8
BLACK
6
CONTINUOUS
10
0.4462034251968504
20
1.2283796062992125
11
0.4462034251968504
21
1.2314629133858268
0
LINE
8
BLACK
6
CONTINUOUS
10
0.4462034251968504
20
1.2314629133858268
11
0.4470014173228347
21
1.2344411417322834
0
LINE
8
BLACK
6
CONTINUOUS
10
0.4470014173228347
20
1.2344411417322834
11
0.4485430708661417
21
1.2371113385826771
0
LINE
8
BLACK
6
CONTINUOUS
10
0.4485430708661417
20
1.2371113385826771
11
0.4507233070866142
21
1.2392915748031497
0
LINE
8
BLACK
6
CONTINUOUS
10
0.4507233070866142
20
1.2392915748031497
11
0.4533935039370079
21
1.2408332283464567
0
LINE
8
BLACK
6
CONTINUOUS
10
0.4533935039370079
20
1.2408332283464567
11
0.4563717322834646
21
1.2416312204724409
0
LINE
8
BLACK
6
CONTINUOUS
10
0.4563717322834646
20
1.2416312204724409
11
0.4579133858267717
21
1.241732283464567
0
LINE
8
BLACK
6
CONTINUOUS
10
0.4579133858267717
20
1.241732283464567
11
0.5012204724409449
21
1.241732283464567
0
LINE
8
BLACK
6
CONTINUOUS
10
0.5012204724409449
20
1.241732283464567
11
0.502762125984252
21
1.2416312204724409
0
LINE
8
BLACK
6
CONTINUOUS
10
0.502762125984252
20
1.5817887007874016
11
0.5057403543307086
21
1.5809907086614172
0
LINE
8
BLACK
6
CONTINUOUS
10
0.5057403543307086
20
1.5809907086614172
11
0.5084105511811023
21
1.5794490551181102
0
LINE
8
BLACK
6
CONTINUOUS
10
0.5084105511811023
20
1.5794490551181102
11
0.5105907874015748
21
1.5772688188976378
0
LINE
8
BLACK
6
CONTINUOUS
10
0.5105907874015748
20
1.5772688188976378
11
0.5121324409448819
21
1.5745986220472441
0
LINE
8
BLACK
6
CONTINUOUS
10
0.5121324409448819
20
1.5745986220472441
11
0.5129304330708662
21
1.5716203937007873
0
LINE
8
BLACK
6
CONTINUOUS
10
0.5129304330708662
20
1.5716203937007873
11
0.5129304330708662
21
1.5685370866141732
0
LINE
8
BLACK
6
CONTINUOUS
10
0.5129304330708662
20
1.5685370866141732
11
0.5121324409448819
21
1.5655588582677165
0
LINE
8
BLACK
6
CONTINUOUS
10
0.5121324409448819
20
1.5655588582677165
11
0.5105907874015748
21
1.5628886614173227
0
LINE
8
BLACK
6
CONTINUOUS
10
0.5105907874015748
20
1.5628886614173227
11
0.5084105511811023
21
1.5607084251968504
0
LINE
8
BLACK
6
CONTINUOUS
10
0.5084105511811023
20
1.5607084251968504
11
0.5057403543307086
21
1.5591667716535433
0
LINE
8
BLACK
6
CONTINUOUS
10
0.5057403543307086
20
1.5591667716535433
11
0.502762125984252
21
1.5583687795275589
0
LINE
8
BLACK
6
CONTINUOUS
10
0.502762125984252
20
1.5583687795275589
11
0.5012204724409449
21
1.5582677165354331
0
LINE
8
BLACK
6
CONTINUOUS
10
0.5012204724409449
20
1.5582677165354331
11
0.4579133858267717
21
1.5582677165354331
0
LINE
8
BLACK
6
CONTINUOUS
10
0.4579133858267717
20
1.5582677165354331
11
0.4563717322834646
21
1.5583687795275589
0
LINE
8
BLACK
6
CONTINUOUS
10
0.4563717322834646
20
1.5583687795275589
11
0.4533935039370079
21
1.5591667716535433
0
LINE
8
BLACK
6
CONTINUOUS
10
0.4533935039370079
20
1.5591667716535433
11
0.4507233070866142
21
1.5607084251968504
0
LINE
8
BLACK
6
CONTINUOUS
10
0.4507233070866142
20
1.5607084251968504
11
0.4485430708661417
21
1.5628886614173227
0
LINE
8
BLACK
6
CONTINUOUS
10
0.4485430708661417
20
1.5628886614173227
11
0.4470014173228347
21
1.5655588582677165
0
LINE
8
BLACK
6
CONTINUOUS
10
0.4470014173228347
20
1.5655588582677165
11
0.4462034251968504
21
1.5685370866141732
0
LINE
8
BLACK
6
CONTINUOUS
10
0.4462034251968504
20
1.5685370866141732
11
0.4462034251968504
21
1.5716203937007873
0
LINE
8
BLACK
6
CONTINUOUS
10
0.4462034251968504
20
1.5716203937007873
11
0.4470014173228347
21
1.5745986220472441
0
LINE
8
BLACK
6
CONTINUOUS
10
0.4470014173228347
20
1.5745986220472441
11
0.4485430708661417
21
1.5772688188976378
0
LINE
8
BLACK
6
CONTINUOUS
10
0.4485430708661417
20
1.5772688188976378
11
0.4507233070866142
21
1.5794490551181102
0
LINE
8
BLACK
6
CONTINUOUS
10
0.4507233070866142
20
1.5794490551181102
11
0.4533935039370079
21
1.5809907086614172
0
LINE
8
BLACK
6
CONTINUOUS
10
0.4533935039370079
20
1.5809907086614172
11
0.4563717322834646
21
1.5817887007874016
0
LINE
8
BLACK
6
CONTINUOUS
10
0.4563717322834646
20
1.5817887007874016
11
0.4579133858267717
21
1.5818897637795275
0
LINE
8
BLACK
6
CONTINUOUS
10
0.4579133858267717
20
1.5818897637795275
11
0.5012204724409449
21
1.5818897637795275
0
LINE
8
BLACK
6
CONTINUOUS
10
0.5012204724409449
20
1.5818897637795275
11
0.502762125984252
21
1.5817887007874016
0
CIRCLE
8
BLACK
10
2.4339411023622048
20
1.4249411023622047
40
0.0039370078740157
0
CIRCLE
8
BLACK
10
2.7225000000000001
20
0.39
40
0.0068897637795276
0
CIRCLE
8
BLACK
10
2.0304409448818896
20
1.082244094488189
40
0.0039370078740157
0
CIRCLE
8
BLACK
10
2.0304409448818896
20
1.0349999999999999
40
0.0039370078740157
0
CIRCLE
8
BLACK
10
2.0304409448818896
20
0.987755905511811
40
0.0039370078740157
0
CIRCLE
8
BLACK
10
2.08555905511811
20
1.082244094488189
40
0.0039370078740157
0
CIRCLE
8
BLACK
10
2.08555905511811
20
1.0349999999999999
40
0.0039370078740157
0
CIRCLE
8
BLACK
10
2.08555905511811
20
0.987755905511811
40
0.0039370078740157
  0
ENDSEC
  0
EOF
