  0
SECTION
  2
HEADER
  9
$ANGBASE
  50
0.0
  9
$ANGDIR
  70
1
  9
$MEASUREMENT
  70
0
  0
ENDSEC
  0
SECTION
  2
TABLES
  0
TABLE
  2
LTYPE
  70
4
  0
LTYPE
  5
40F
  2
CONTINUOUS
  70
0
  3
Solid line
  72
65
  73
0
  40
0.0
  0
LTYPE
  5
410
  2
DASHDOT
 70
0
  3
Dash Dot ____ _ ____ _
 72
65
 73
4
 40
2.0
 49
1.25
 49
-0.25
 49
0.25
 49
-0.25
  0
LTYPE
  5
411
  2
DASHED
 70
0
  3
Dashed __ __ __ __ __
 72
65
 73
2
 40
0.75
 49
0.5
 49
-0.25
  0
LTYPE
  5
43B
  2
DOTTED
 70
0
  3
Dotted .  .  .  .
 72
65
 73
2
 40
0.2
 49
0.0
 49
-0.2
  0
ENDTAB
  0
TABLE
  2
STYLE
  70
4
  0
STYLE
  2
KICAD
  70
0
  40
0
  41
1
  42
1
  50
0
  71
0
  3
isocp.shx
  0
STYLE
  2
KICADB
  70
0
  40
0
  41
1
  42
1
  50
0
  71
0
  3
isocp.shx
  0
STYLE
  2
KICADI
  70
0
  40
0
  41
1
  42
1
  50
15
  71
0
  3
isocp.shx
  0
STYLE
  2
KICADBI
  70
0
  40
0
  41
1
  42
1
  50
15
  71
0
  3
isocp.shx
  0
ENDTAB
  0
TABLE
  2
LAYER
  70
1
  0
LAYER
  2
BLACK
  70
0
  62
7
  6
CONTINUOUS
  0
ENDTAB
  0
ENDSEC
  0
SECTION
  2
ENTITIES
0
LINE
8
BLACK
6
CONTINUOUS
10
2.9615183858267717
20
1.058310905511811
11
2.9620510629921259
21
1.0577782283464567
0
LINE
8
BLACK
6
CONTINUOUS
10
2.9620510629921259
20
1.0577782283464567
11
2.9621259842519683
21
0.9825984251968504
0
LINE
8
BLACK
6
CONTINUOUS
10
2.9621259842519683
20
0.9825984251968504
11
2.9620510629921259
21
0.9822217716535433
0
LINE
8
BLACK
6
CONTINUOUS
10
2.9620510629921259
20
0.9822217716535433
11
2.9615183858267717
21
0.981689094488189
0
LINE
8
BLACK
6
CONTINUOUS
10
2.9615183858267717
20
0.981689094488189
11
2.8288582677165355
21
0.9816141732283464
0
LINE
8
BLACK
6
CONTINUOUS
10
2.8288582677165355
20
0.9816141732283464
11
2.8284816141732283
21
0.981689094488189
0
LINE
8
BLACK
6
CONTINUOUS
10
2.8284816141732283
20
0.981689094488189
11
2.8279489370078741
21
0.9822217716535433
0
LINE
8
BLACK
6
CONTINUOUS
10
2.8279489370078741
20
0.9822217716535433
11
2.8278740157480313
21
1.0574015748031496
0
LINE
8
BLACK
6
CONTINUOUS
10
2.8278740157480313
20
1.0574015748031496
11
2.8279489370078741
21
1.0577782283464567
0
LINE
8
BLACK
6
CONTINUOUS
10
2.8279489370078741
20
1.0577782283464567
11
2.8284816141732283
21
1.058310905511811
0
LINE
8
BLACK
6
CONTINUOUS
10
2.8284816141732283
20
1.058310905511811
11
2.9611417322834646
21
1.0583858267716535
0
LINE
8
BLACK
6
CONTINUOUS
10
2.9611417322834646
20
1.0583858267716535
11
2.9615183858267717
21
1.058310905511811
0
LINE
8
BLACK
6
CONTINUOUS
10
2.829768937007874
20
1.0564178740157479
11
2.8298415748031496
21
0.9835085433070866
0
LINE
8
BLACK
6
CONTINUOUS
10
2.8298415748031496
20
0.9835085433070866
11
2.9602310236220473
21
0.9835821653543307
0
LINE
8
BLACK
6
CONTINUOUS
10
2.9602310236220473
20
0.9835821653543307
11
2.9601583858267717
21
1.0564914960629921
0
LINE
8
BLACK
6
CONTINUOUS
10
2.9601583858267717
20
1.0564914960629921
11
2.829768937007874
21
1.0564178740157479
0
LINE
8
BLACK
6
CONTINUOUS
10
2.9625183858267716
20
1.816310905511811
11
2.9630510629921258
21
1.8157782283464567
0
LINE
8
BLACK
6
CONTINUOUS
10
2.9630510629921258
20
1.8157782283464567
11
2.9631259842519686
21
1.7405984251968503
0
LINE
8
BLACK
6
CONTINUOUS
10
2.9631259842519686
20
1.7405984251968503
11
2.9630510629921258
21
1.7402217716535433
0
LINE
8
BLACK
6
CONTINUOUS
10
2.9630510629921258
20
1.7402217716535433
11
2.9625183858267716
21
1.7396890944881889
0
LINE
8
BLACK
6
CONTINUOUS
10
2.9625183858267716
20
1.7396890944881889
11
2.8298582677165354
21
1.7396141732283463
0
LINE
8
BLACK
6
CONTINUOUS
10
2.8298582677165354
20
1.7396141732283463
11
2.8294816141732282
21
1.7396890944881889
0
LINE
8
BLACK
6
CONTINUOUS
10
2.8294816141732282
20
1.7396890944881889
11
2.828948937007874
21
1.7402217716535433
0
LINE
8
BLACK
6
CONTINUOUS
10
2.828948937007874
20
1.7402217716535433
11
2.8288740157480312
21
1.8154015748031496
0
LINE
8
BLACK
6
CONTINUOUS
10
2.8288740157480312
20
1.8154015748031496
11
2.828948937007874
21
1.8157782283464567
0
LINE
8
BLACK
6
CONTINUOUS
10
2.828948937007874
20
1.8157782283464567
11
2.8294816141732282
21
1.816310905511811
0
LINE
8
BLACK
6
CONTINUOUS
10
2.8294816141732282
20
1.816310905511811
11
2.9621417322834644
21
1.8163858267716535
0
LINE
8
BLACK
6
CONTINUOUS
10
2.9621417322834644
20
1.8163858267716535
11
2.9625183858267716
21
1.816310905511811
0
LINE
8
BLACK
6
CONTINUOUS
10
2.8307689370078739
20
1.8144178740157479
11
2.8308415748031495
21
1.7415085433070865
0
LINE
8
BLACK
6
CONTINUOUS
10
2.8308415748031495
20
1.7415085433070865
11
2.9612310236220472
21
1.7415821653543306
0
LINE
8
BLACK
6
CONTINUOUS
10
2.9612310236220472
20
1.7415821653543306
11
2.9611583858267716
21
1.8144914960629921
0
LINE
8
BLACK
6
CONTINUOUS
10
2.9611583858267716
20
1.8144914960629921
11
2.8307689370078739
21
1.8144178740157479
  0
ENDSEC
  0
EOF
