  0
SECTION
  2
HEADER
  9
$ANGBASE
  50
0.0
  9
$ANGDIR
  70
1
  9
$MEASUREMENT
  70
0
  0
ENDSEC
  0
SECTION
  2
TABLES
  0
TABLE
  2
LTYPE
  70
4
  0
LTYPE
  5
40F
  2
CONTINUOUS
  70
0
  3
Solid line
  72
65
  73
0
  40
0.0
  0
LTYPE
  5
410
  2
DASHDOT
 70
0
  3
Dash Dot ____ _ ____ _
 72
65
 73
4
 40
2.0
 49
1.25
 49
-0.25
 49
0.25
 49
-0.25
  0
LTYPE
  5
411
  2
DASHED
 70
0
  3
Dashed __ __ __ __ __
 72
65
 73
2
 40
0.75
 49
0.5
 49
-0.25
  0
LTYPE
  5
43B
  2
DOTTED
 70
0
  3
Dotted .  .  .  .
 72
65
 73
2
 40
0.2
 49
0.0
 49
-0.2
  0
ENDTAB
  0
TABLE
  2
STYLE
  70
4
  0
STYLE
  2
KICAD
  70
0
  40
0
  41
1
  42
1
  50
0
  71
0
  3
isocp.shx
  0
STYLE
  2
KICADB
  70
0
  40
0
  41
1
  42
1
  50
0
  71
0
  3
isocp.shx
  0
STYLE
  2
KICADI
  70
0
  40
0
  41
1
  42
1
  50
15
  71
0
  3
isocp.shx
  0
STYLE
  2
KICADBI
  70
0
  40
0
  41
1
  42
1
  50
15
  71
0
  3
isocp.shx
  0
ENDTAB
  0
TABLE
  2
LAYER
  70
1
  0
LAYER
  2
BLACK
  70
0
  62
7
  6
CONTINUOUS
  0
ENDTAB
  0
ENDSEC
  0
SECTION
  2
ENTITIES
0
LINE
8
BLACK
6
CONTINUOUS
10
4.5922270472440943
20
-5.7265709842519685
11
4.5927597244094489
21
-5.7271036614173223
0
LINE
8
BLACK
6
CONTINUOUS
10
4.5927597244094489
20
-5.7271036614173223
11
4.5928346456692912
21
-5.8046456692913386
0
LINE
8
BLACK
6
CONTINUOUS
10
4.5928346456692912
20
-5.8046456692913386
11
4.5927597244094489
21
-5.8050223228346454
0
LINE
8
BLACK
6
CONTINUOUS
10
4.5927597244094489
20
-5.8050223228346454
11
4.5922270472440943
21
-5.805555
0
LINE
8
BLACK
6
CONTINUOUS
10
4.5922270472440943
20
-5.805555
11
4.4579921259842514
21
-5.8056299212598423
0
LINE
8
BLACK
6
CONTINUOUS
10
4.4579921259842514
20
-5.8056299212598423
11
4.4576154724409447
21
-5.805555
0
LINE
8
BLACK
6
CONTINUOUS
10
4.4576154724409447
20
-5.805555
11
4.45708279527559
21
-5.8050223228346454
0
LINE
8
BLACK
6
CONTINUOUS
10
4.45708279527559
20
-5.8050223228346454
11
4.4570078740157477
21
-5.7274803149606299
0
LINE
8
BLACK
6
CONTINUOUS
10
4.4570078740157477
20
-5.7274803149606299
11
4.45708279527559
21
-5.7271036614173223
0
LINE
8
BLACK
6
CONTINUOUS
10
4.45708279527559
20
-5.7271036614173223
11
4.4576154724409447
21
-5.7265709842519685
0
LINE
8
BLACK
6
CONTINUOUS
10
4.4576154724409447
20
-5.7265709842519685
11
4.5918503937007875
21
-5.7264960629921262
0
LINE
8
BLACK
6
CONTINUOUS
10
4.5918503937007875
20
-5.7264960629921262
11
4.5922270472440943
21
-5.7265709842519685
0
LINE
8
BLACK
6
CONTINUOUS
10
4.4589027559055117
20
-5.7284640551181099
11
4.4589754724409447
21
-5.8037355511811022
0
LINE
8
BLACK
6
CONTINUOUS
10
4.4589754724409447
20
-5.8037355511811022
11
4.5909397244094485
21
-5.8036618897637791
0
LINE
8
BLACK
6
CONTINUOUS
10
4.5909397244094485
20
-5.8036618897637791
11
4.5908670078740155
21
-5.7283903937007876
0
LINE
8
BLACK
6
CONTINUOUS
10
4.5908670078740155
20
-5.7283903937007876
11
4.4589027559055117
21
-5.7284640551181099
0
LINE
8
BLACK
6
CONTINUOUS
10
4.2974173622047243
20
-5.6725342519685036
11
4.305869133858268
21
-5.6747988976377952
0
LINE
8
BLACK
6
CONTINUOUS
10
4.305869133858268
20
-5.6747988976377952
11
4.3137992125984255
21
-5.6784967716535428
0
LINE
8
BLACK
6
CONTINUOUS
10
4.3137992125984255
20
-5.6784967716535428
11
4.3209666929133856
21
-5.6835154724409449
0
LINE
8
BLACK
6
CONTINUOUS
10
4.3209666929133856
20
-5.6835154724409449
11
4.3271538188976377
21
-5.689702598425197
0
LINE
8
BLACK
6
CONTINUOUS
10
4.3271538188976377
20
-5.689702598425197
11
4.3321725196850389
21
-5.6968700787401572
0
LINE
8
BLACK
6
CONTINUOUS
10
4.3321725196850389
20
-5.6968700787401572
11
4.3358703937007874
21
-5.7048001574803147
0
LINE
8
BLACK
6
CONTINUOUS
10
4.3358703937007874
20
-5.7048001574803147
11
4.338135039370079
21
-5.7132519291338584
0
LINE
8
BLACK
6
CONTINUOUS
10
4.338135039370079
20
-5.7132519291338584
11
4.3388976377952755
21
-5.7219685039370081
0
LINE
8
BLACK
6
CONTINUOUS
10
4.3388976377952755
20
-5.7219685039370081
11
4.338135039370079
21
-5.7306850787401578
0
LINE
8
BLACK
6
CONTINUOUS
10
4.338135039370079
20
-5.7306850787401578
11
4.3358703937007874
21
-5.7391368503937006
0
LINE
8
BLACK
6
CONTINUOUS
10
4.3358703937007874
20
-5.7391368503937006
11
4.3321725196850389
21
-5.7470669291338581
0
LINE
8
BLACK
6
CONTINUOUS
10
4.3321725196850389
20
-5.7470669291338581
11
4.3271538188976377
21
-5.7542344094488191
0
LINE
8
BLACK
6
CONTINUOUS
10
4.3271538188976377
20
-5.7542344094488191
11
4.3209666929133856
21
-5.7604215354330703
0
LINE
8
BLACK
6
CONTINUOUS
10
4.3209666929133856
20
-5.7604215354330703
11
4.3137992125984255
21
-5.7654402362204724
0
LINE
8
BLACK
6
CONTINUOUS
10
4.3137992125984255
20
-5.7654402362204724
11
4.305869133858268
21
-5.76913811023622
0
LINE
8
BLACK
6
CONTINUOUS
10
4.305869133858268
20
-5.76913811023622
11
4.2974173622047243
21
-5.7714027559055117
0
LINE
8
BLACK
6
CONTINUOUS
10
4.2974173622047243
20
-5.7714027559055117
11
4.2887007874015746
21
-5.7721653543307081
0
LINE
8
BLACK
6
CONTINUOUS
10
4.2887007874015746
20
-5.7721653543307081
11
4.2799842125984249
21
-5.7714027559055117
0
LINE
8
BLACK
6
CONTINUOUS
10
4.2799842125984249
20
-5.7714027559055117
11
4.271532440944882
21
-5.76913811023622
0
LINE
8
BLACK
6
CONTINUOUS
10
4.271532440944882
20
-5.76913811023622
11
4.2636023622047245
21
-5.7654402362204724
0
LINE
8
BLACK
6
CONTINUOUS
10
4.2636023622047245
20
-5.7654402362204724
11
4.2564348818897635
21
-5.7604215354330703
0
LINE
8
BLACK
6
CONTINUOUS
10
4.2564348818897635
20
-5.7604215354330703
11
4.2502477559055114
21
-5.7542344094488191
0
LINE
8
BLACK
6
CONTINUOUS
10
4.2502477559055114
20
-5.7542344094488191
11
4.2452290551181102
21
-5.7470669291338581
0
LINE
8
BLACK
6
CONTINUOUS
10
4.2452290551181102
20
-5.7470669291338581
11
4.2415311811023617
21
-5.7391368503937006
0
LINE
8
BLACK
6
CONTINUOUS
10
4.2415311811023617
20
-5.7391368503937006
11
4.239266535433071
21
-5.7306850787401578
0
LINE
8
BLACK
6
CONTINUOUS
10
4.239266535433071
20
-5.7306850787401578
11
4.2385039370078736
21
-5.7219685039370081
0
LINE
8
BLACK
6
CONTINUOUS
10
4.2385039370078736
20
-5.7219685039370081
11
4.239266535433071
21
-5.7132519291338584
0
LINE
8
BLACK
6
CONTINUOUS
10
4.239266535433071
20
-5.7132519291338584
11
4.2415311811023617
21
-5.7048001574803147
0
LINE
8
BLACK
6
CONTINUOUS
10
4.2415311811023617
20
-5.7048001574803147
11
4.2452290551181102
21
-5.6968700787401572
0
LINE
8
BLACK
6
CONTINUOUS
10
4.2452290551181102
20
-5.6968700787401572
11
4.2502477559055114
21
-5.689702598425197
0
LINE
8
BLACK
6
CONTINUOUS
10
4.2502477559055114
20
-5.689702598425197
11
4.2564348818897635
21
-5.6835154724409449
0
LINE
8
BLACK
6
CONTINUOUS
10
4.2564348818897635
20
-5.6835154724409449
11
4.2636023622047245
21
-5.6784967716535428
0
LINE
8
BLACK
6
CONTINUOUS
10
4.2636023622047245
20
-5.6784967716535428
11
4.271532440944882
21
-5.6747988976377952
0
LINE
8
BLACK
6
CONTINUOUS
10
4.271532440944882
20
-5.6747988976377952
11
4.2799842125984249
21
-5.6725342519685036
0
LINE
8
BLACK
6
CONTINUOUS
10
4.2799842125984249
20
-5.6725342519685036
11
4.2887007874015746
21
-5.6717716535433071
0
LINE
8
BLACK
6
CONTINUOUS
10
4.2887007874015746
20
-5.6717716535433071
11
4.2974173622047243
21
-5.6725342519685036
0
LINE
8
BLACK
6
CONTINUOUS
10
4.2410237401574804
20
-5.7303752755905508
11
4.2432078740157477
21
-5.7385265748031493
0
LINE
8
BLACK
6
CONTINUOUS
10
4.2432078740157477
20
-5.7385265748031493
11
4.2467742913385829
21
-5.7461748031496063
0
LINE
8
BLACK
6
CONTINUOUS
10
4.2467742913385829
20
-5.7461748031496063
11
4.2516146062992126
21
-5.7530874803149601
0
LINE
8
BLACK
6
CONTINUOUS
10
4.2516146062992126
20
-5.7530874803149601
11
4.2575818110236217
21
-5.75905468503937
0
LINE
8
BLACK
6
CONTINUOUS
10
4.2575818110236217
20
-5.75905468503937
11
4.2644944881889764
21
-5.7638949999999998
0
LINE
8
BLACK
6
CONTINUOUS
10
4.2644944881889764
20
-5.7638949999999998
11
4.2721427165354333
21
-5.7674614173228349
0
LINE
8
BLACK
6
CONTINUOUS
10
4.2721427165354333
20
-5.7674614173228349
11
4.2802940157480318
21
-5.7696455511811022
0
LINE
8
BLACK
6
CONTINUOUS
10
4.2802940157480318
20
-5.7696455511811022
11
4.2887007874015746
21
-5.7703810629921257
0
LINE
8
BLACK
6
CONTINUOUS
10
4.2887007874015746
20
-5.7703810629921257
11
4.2971075590551182
21
-5.7696455511811022
0
LINE
8
BLACK
6
CONTINUOUS
10
4.2971075590551182
20
-5.7696455511811022
11
4.3052588582677167
21
-5.7674614173228349
0
LINE
8
BLACK
6
CONTINUOUS
10
4.3052588582677167
20
-5.7674614173228349
11
4.3129070866141728
21
-5.7638949999999998
0
LINE
8
BLACK
6
CONTINUOUS
10
4.3129070866141728
20
-5.7638949999999998
11
4.3198197637795275
21
-5.75905468503937
0
LINE
8
BLACK
6
CONTINUOUS
10
4.3198197637795275
20
-5.75905468503937
11
4.3257869685039365
21
-5.7530874803149601
0
LINE
8
BLACK
6
CONTINUOUS
10
4.3257869685039365
20
-5.7530874803149601
11
4.3306272834645672
21
-5.7461748031496063
0
LINE
8
BLACK
6
CONTINUOUS
10
4.3306272834645672
20
-5.7461748031496063
11
4.3341937007874014
21
-5.7385265748031493
0
LINE
8
BLACK
6
CONTINUOUS
10
4.3341937007874014
20
-5.7385265748031493
11
4.3363778346456696
21
-5.7303752755905508
0
LINE
8
BLACK
6
CONTINUOUS
10
4.3363778346456696
20
-5.7303752755905508
11
4.3371133464566931
21
-5.7219685039370081
0
LINE
8
BLACK
6
CONTINUOUS
10
4.3371133464566931
20
-5.7219685039370081
11
4.3363778346456696
21
-5.7135617322834644
0
LINE
8
BLACK
6
CONTINUOUS
10
4.3363778346456696
20
-5.7135617322834644
11
4.3341937007874014
21
-5.7054104330708659
0
LINE
8
BLACK
6
CONTINUOUS
10
4.3341937007874014
20
-5.7054104330708659
11
4.3306272834645672
21
-5.6977622440944877
0
LINE
8
BLACK
6
CONTINUOUS
10
4.3306272834645672
20
-5.6977622440944877
11
4.3257869685039365
21
-5.6908495275590552
0
LINE
8
BLACK
6
CONTINUOUS
10
4.3257869685039365
20
-5.6908495275590552
11
4.3198197637795275
21
-5.6848823228346452
0
LINE
8
BLACK
6
CONTINUOUS
10
4.3198197637795275
20
-5.6848823228346452
11
4.3129070866141728
21
-5.6800420078740155
0
LINE
8
BLACK
6
CONTINUOUS
10
4.3129070866141728
20
-5.6800420078740155
11
4.3052588582677167
21
-5.6764755905511812
0
LINE
8
BLACK
6
CONTINUOUS
10
4.3052588582677167
20
-5.6764755905511812
11
4.2971075590551182
21
-5.674291456692913
0
LINE
8
BLACK
6
CONTINUOUS
10
4.2971075590551182
20
-5.674291456692913
11
4.2887007874015746
21
-5.6735559448818895
0
LINE
8
BLACK
6
CONTINUOUS
10
4.2887007874015746
20
-5.6735559448818895
11
4.2802940157480318
21
-5.674291456692913
0
LINE
8
BLACK
6
CONTINUOUS
10
4.2802940157480318
20
-5.674291456692913
11
4.2721427165354333
21
-5.6764755905511812
0
LINE
8
BLACK
6
CONTINUOUS
10
4.2721427165354333
20
-5.6764755905511812
11
4.2644945275590551
21
-5.6800420078740155
0
LINE
8
BLACK
6
CONTINUOUS
10
4.2644945275590551
20
-5.6800420078740155
11
4.2575818110236217
21
-5.6848823228346452
0
LINE
8
BLACK
6
CONTINUOUS
10
4.2575818110236217
20
-5.6848823228346452
11
4.2516146062992126
21
-5.6908495275590552
0
LINE
8
BLACK
6
CONTINUOUS
10
4.2516146062992126
20
-5.6908495275590552
11
4.2467742913385829
21
-5.6977622440944877
0
LINE
8
BLACK
6
CONTINUOUS
10
4.2467742913385829
20
-5.6977622440944877
11
4.2432078740157477
21
-5.7054104330708659
0
LINE
8
BLACK
6
CONTINUOUS
10
4.2432078740157477
20
-5.7054104330708659
11
4.2410237401574804
21
-5.7135617322834644
0
LINE
8
BLACK
6
CONTINUOUS
10
4.2410237401574804
20
-5.7135617322834644
11
4.2402882283464569
21
-5.7219685039370081
0
LINE
8
BLACK
6
CONTINUOUS
10
4.2402882283464569
20
-5.7219685039370081
11
4.2410237401574804
21
-5.7303752755905508
0
LINE
8
BLACK
6
CONTINUOUS
10
4.5922270472440943
20
-5.6080670472440941
11
4.5927597244094489
21
-5.6085997244094488
0
LINE
8
BLACK
6
CONTINUOUS
10
4.5927597244094489
20
-5.6085997244094488
11
4.5928346456692912
21
-5.6861417322834642
0
LINE
8
BLACK
6
CONTINUOUS
10
4.5928346456692912
20
-5.6861417322834642
11
4.5927597244094489
21
-5.6865183858267718
0
LINE
8
BLACK
6
CONTINUOUS
10
4.5927597244094489
20
-5.6865183858267718
11
4.5922270472440943
21
-5.6870510629921256
0
LINE
8
BLACK
6
CONTINUOUS
10
4.5922270472440943
20
-5.6870510629921256
11
4.4579921259842514
21
-5.6871259842519688
0
LINE
8
BLACK
6
CONTINUOUS
10
4.4579921259842514
20
-5.6871259842519688
11
4.4576154724409447
21
-5.6870510629921256
0
LINE
8
BLACK
6
CONTINUOUS
10
4.4576154724409447
20
-5.6870510629921256
11
4.45708279527559
21
-5.6865183858267718
0
LINE
8
BLACK
6
CONTINUOUS
10
4.45708279527559
20
-5.6865183858267718
11
4.4570078740157477
21
-5.6089763779527555
0
LINE
8
BLACK
6
CONTINUOUS
10
4.4570078740157477
20
-5.6089763779527555
11
4.45708279527559
21
-5.6085997244094488
0
LINE
8
BLACK
6
CONTINUOUS
10
4.45708279527559
20
-5.6085997244094488
11
4.4576154724409447
21
-5.6080670472440941
0
LINE
8
BLACK
6
CONTINUOUS
10
4.4576154724409447
20
-5.6080670472440941
11
4.5918503937007875
21
-5.6079921259842518
0
LINE
8
BLACK
6
CONTINUOUS
10
4.5918503937007875
20
-5.6079921259842518
11
4.5922270472440943
21
-5.6080670472440941
0
LINE
8
BLACK
6
CONTINUOUS
10
4.4589027559055117
20
-5.6099601181102363
11
4.4589754724409447
21
-5.6852316141732286
0
LINE
8
BLACK
6
CONTINUOUS
10
4.4589754724409447
20
-5.6852316141732286
11
4.5909397244094485
21
-5.6851579527559055
0
LINE
8
BLACK
6
CONTINUOUS
10
4.5909397244094485
20
-5.6851579527559055
11
4.5908670078740155
21
-5.6098864566929132
0
LINE
8
BLACK
6
CONTINUOUS
10
4.5908670078740155
20
-5.6098864566929132
11
4.4589027559055117
21
-5.6099601181102363
0
LINE
8
BLACK
6
CONTINUOUS
10
4.2974173622047243
20
-5.5327704724409443
11
4.305869133858268
21
-5.535035118110236
0
LINE
8
BLACK
6
CONTINUOUS
10
4.305869133858268
20
-5.535035118110236
11
4.3137992125984255
21
-5.5387329921259845
0
LINE
8
BLACK
6
CONTINUOUS
10
4.3137992125984255
20
-5.5387329921259845
11
4.3209666929133856
21
-5.5437516929133857
0
LINE
8
BLACK
6
CONTINUOUS
10
4.3209666929133856
20
-5.5437516929133857
11
4.3271538188976377
21
-5.5499388188976377
0
LINE
8
BLACK
6
CONTINUOUS
10
4.3271538188976377
20
-5.5499388188976377
11
4.3321725196850389
21
-5.5571062992125979
0
LINE
8
BLACK
6
CONTINUOUS
10
4.3321725196850389
20
-5.5571062992125979
11
4.3358703937007874
21
-5.5650363779527554
0
LINE
8
BLACK
6
CONTINUOUS
10
4.3358703937007874
20
-5.5650363779527554
11
4.338135039370079
21
-5.5734881496062991
0
LINE
8
BLACK
6
CONTINUOUS
10
4.338135039370079
20
-5.5734881496062991
11
4.3388976377952755
21
-5.5822047244094488
0
LINE
8
BLACK
6
CONTINUOUS
10
4.3388976377952755
20
-5.5822047244094488
11
4.338135039370079
21
-5.5909212992125985
0
LINE
8
BLACK
6
CONTINUOUS
10
4.338135039370079
20
-5.5909212992125985
11
4.3358703937007874
21
-5.5993730708661413
0
LINE
8
BLACK
6
CONTINUOUS
10
4.3358703937007874
20
-5.5993730708661413
11
4.3321725196850389
21
-5.6073031496062988
0
LINE
8
BLACK
6
CONTINUOUS
10
4.3321725196850389
20
-5.6073031496062988
11
4.3271538188976377
21
-5.6144706299212599
0
LINE
8
BLACK
6
CONTINUOUS
10
4.3271538188976377
20
-5.6144706299212599
11
4.3209666929133856
21
-5.620657755905512
0
LINE
8
BLACK
6
CONTINUOUS
10
4.3209666929133856
20
-5.620657755905512
11
4.3137992125984255
21
-5.6256764566929132
0
LINE
8
BLACK
6
CONTINUOUS
10
4.3137992125984255
20
-5.6256764566929132
11
4.305869133858268
21
-5.6293743307086617
0
LINE
8
BLACK
6
CONTINUOUS
10
4.305869133858268
20
-5.6293743307086617
11
4.2974173622047243
21
-5.6316389763779524
0
LINE
8
BLACK
6
CONTINUOUS
10
4.2974173622047243
20
-5.6316389763779524
11
4.2887007874015746
21
-5.6324015748031497
0
LINE
8
BLACK
6
CONTINUOUS
10
4.2887007874015746
20
-5.6324015748031497
11
4.2799842125984249
21
-5.6316389763779524
0
LINE
8
BLACK
6
CONTINUOUS
10
4.2799842125984249
20
-5.6316389763779524
11
4.271532440944882
21
-5.6293743307086617
0
LINE
8
BLACK
6
CONTINUOUS
10
4.271532440944882
20
-5.6293743307086617
11
4.2636023622047245
21
-5.6256764566929132
0
LINE
8
BLACK
6
CONTINUOUS
10
4.2636023622047245
20
-5.6256764566929132
11
4.2564348818897635
21
-5.620657755905512
0
LINE
8
BLACK
6
CONTINUOUS
10
4.2564348818897635
20
-5.620657755905512
11
4.2502477559055114
21
-5.6144706299212599
0
LINE
8
BLACK
6
CONTINUOUS
10
4.2502477559055114
20
-5.6144706299212599
11
4.2452290551181102
21
-5.6073031496062988
0
LINE
8
BLACK
6
CONTINUOUS
10
4.2452290551181102
20
-5.6073031496062988
11
4.2415311811023617
21
-5.5993730708661413
0
LINE
8
BLACK
6
CONTINUOUS
10
4.2415311811023617
20
-5.5993730708661413
11
4.239266535433071
21
-5.5909212992125985
0
LINE
8
BLACK
6
CONTINUOUS
10
4.239266535433071
20
-5.5909212992125985
11
4.2385039370078736
21
-5.5822047244094488
0
LINE
8
BLACK
6
CONTINUOUS
10
4.2385039370078736
20
-5.5822047244094488
11
4.239266535433071
21
-5.5734881496062991
0
LINE
8
BLACK
6
CONTINUOUS
10
4.239266535433071
20
-5.5734881496062991
11
4.2415311811023617
21
-5.5650363779527554
0
LINE
8
BLACK
6
CONTINUOUS
10
4.2415311811023617
20
-5.5650363779527554
11
4.2452290551181102
21
-5.5571062992125979
0
LINE
8
BLACK
6
CONTINUOUS
10
4.2452290551181102
20
-5.5571062992125979
11
4.2502477559055114
21
-5.5499388188976377
0
LINE
8
BLACK
6
CONTINUOUS
10
4.2502477559055114
20
-5.5499388188976377
11
4.2564348818897635
21
-5.5437516929133857
0
LINE
8
BLACK
6
CONTINUOUS
10
4.2564348818897635
20
-5.5437516929133857
11
4.2636023622047245
21
-5.5387329921259845
0
LINE
8
BLACK
6
CONTINUOUS
10
4.2636023622047245
20
-5.5387329921259845
11
4.271532440944882
21
-5.535035118110236
0
LINE
8
BLACK
6
CONTINUOUS
10
4.271532440944882
20
-5.535035118110236
11
4.2799842125984249
21
-5.5327704724409443
0
LINE
8
BLACK
6
CONTINUOUS
10
4.2799842125984249
20
-5.5327704724409443
11
4.2887007874015746
21
-5.5320078740157479
0
LINE
8
BLACK
6
CONTINUOUS
10
4.2887007874015746
20
-5.5320078740157479
11
4.2974173622047243
21
-5.5327704724409443
0
LINE
8
BLACK
6
CONTINUOUS
10
4.2410237401574804
20
-5.5906114960629916
11
4.2432078740157477
21
-5.5987627952755901
0
LINE
8
BLACK
6
CONTINUOUS
10
4.2432078740157477
20
-5.5987627952755901
11
4.2467742913385829
21
-5.606411023622047
0
LINE
8
BLACK
6
CONTINUOUS
10
4.2467742913385829
20
-5.606411023622047
11
4.2516146062992126
21
-5.6133237007874017
0
LINE
8
BLACK
6
CONTINUOUS
10
4.2516146062992126
20
-5.6133237007874017
11
4.2575818110236217
21
-5.6192909055118108
0
LINE
8
BLACK
6
CONTINUOUS
10
4.2575818110236217
20
-5.6192909055118108
11
4.2644944881889764
21
-5.6241312204724405
0
LINE
8
BLACK
6
CONTINUOUS
10
4.2644944881889764
20
-5.6241312204724405
11
4.2721427165354333
21
-5.6276976377952757
0
LINE
8
BLACK
6
CONTINUOUS
10
4.2721427165354333
20
-5.6276976377952757
11
4.2802940157480318
21
-5.629881771653543
0
LINE
8
BLACK
6
CONTINUOUS
10
4.2802940157480318
20
-5.629881771653543
11
4.2887007874015746
21
-5.6306172834645665
0
LINE
8
BLACK
6
CONTINUOUS
10
4.2887007874015746
20
-5.6306172834645665
11
4.2971075590551182
21
-5.629881771653543
0
LINE
8
BLACK
6
CONTINUOUS
10
4.2971075590551182
20
-5.629881771653543
11
4.3052588582677167
21
-5.6276976377952757
0
LINE
8
BLACK
6
CONTINUOUS
10
4.3052588582677167
20
-5.6276976377952757
11
4.3129070866141728
21
-5.6241312204724405
0
LINE
8
BLACK
6
CONTINUOUS
10
4.3129070866141728
20
-5.6241312204724405
11
4.3198197637795275
21
-5.6192909055118108
0
LINE
8
BLACK
6
CONTINUOUS
10
4.3198197637795275
20
-5.6192909055118108
11
4.3257869685039365
21
-5.6133237007874017
0
LINE
8
BLACK
6
CONTINUOUS
10
4.3257869685039365
20
-5.6133237007874017
11
4.3306272834645672
21
-5.606411023622047
0
LINE
8
BLACK
6
CONTINUOUS
10
4.3306272834645672
20
-5.606411023622047
11
4.3341937007874014
21
-5.5987627952755901
0
LINE
8
BLACK
6
CONTINUOUS
10
4.3341937007874014
20
-5.5987627952755901
11
4.3363778346456696
21
-5.5906114960629916
0
LINE
8
BLACK
6
CONTINUOUS
10
4.3363778346456696
20
-5.5906114960629916
11
4.3371133464566931
21
-5.5822047244094488
0
LINE
8
BLACK
6
CONTINUOUS
10
4.3371133464566931
20
-5.5822047244094488
11
4.3363778346456696
21
-5.5737979527559052
0
LINE
8
BLACK
6
CONTINUOUS
10
4.3363778346456696
20
-5.5737979527559052
11
4.3341937007874014
21
-5.5656466535433067
0
LINE
8
BLACK
6
CONTINUOUS
10
4.3341937007874014
20
-5.5656466535433067
11
4.3306272834645672
21
-5.5579984645669294
0
LINE
8
BLACK
6
CONTINUOUS
10
4.3306272834645672
20
-5.5579984645669294
11
4.3257869685039365
21
-5.5510857480314959
0
LINE
8
BLACK
6
CONTINUOUS
10
4.3257869685039365
20
-5.5510857480314959
11
4.3198197637795275
21
-5.5451185433070869
0
LINE
8
BLACK
6
CONTINUOUS
10
4.3198197637795275
20
-5.5451185433070869
11
4.3129070866141728
21
-5.5402782283464562
0
LINE
8
BLACK
6
CONTINUOUS
10
4.3129070866141728
20
-5.5402782283464562
11
4.3052588582677167
21
-5.536711811023622
0
LINE
8
BLACK
6
CONTINUOUS
10
4.3052588582677167
20
-5.536711811023622
11
4.2971075590551182
21
-5.5345276771653538
0
LINE
8
BLACK
6
CONTINUOUS
10
4.2971075590551182
20
-5.5345276771653538
11
4.2887007874015746
21
-5.5337921653543303
0
LINE
8
BLACK
6
CONTINUOUS
10
4.2887007874015746
20
-5.5337921653543303
11
4.2802940157480318
21
-5.5345276771653538
0
LINE
8
BLACK
6
CONTINUOUS
10
4.2802940157480318
20
-5.5345276771653538
11
4.2721427165354333
21
-5.536711811023622
0
LINE
8
BLACK
6
CONTINUOUS
10
4.2721427165354333
20
-5.536711811023622
11
4.2644945275590551
21
-5.5402782283464562
0
LINE
8
BLACK
6
CONTINUOUS
10
4.2644945275590551
20
-5.5402782283464562
11
4.2575818110236217
21
-5.5451185433070869
0
LINE
8
BLACK
6
CONTINUOUS
10
4.2575818110236217
20
-5.5451185433070869
11
4.2516146062992126
21
-5.5510857480314959
0
LINE
8
BLACK
6
CONTINUOUS
10
4.2516146062992126
20
-5.5510857480314959
11
4.2467742913385829
21
-5.5579984645669294
0
LINE
8
BLACK
6
CONTINUOUS
10
4.2467742913385829
20
-5.5579984645669294
11
4.2432078740157477
21
-5.5656466535433067
0
LINE
8
BLACK
6
CONTINUOUS
10
4.2432078740157477
20
-5.5656466535433067
11
4.2410237401574804
21
-5.5737979527559052
0
LINE
8
BLACK
6
CONTINUOUS
10
4.2410237401574804
20
-5.5737979527559052
11
4.2402882283464569
21
-5.5822047244094488
0
LINE
8
BLACK
6
CONTINUOUS
10
4.2402882283464569
20
-5.5822047244094488
11
4.2410237401574804
21
-5.5906114960629916
0
LINE
8
BLACK
6
CONTINUOUS
10
4.5922270472440943
20
-5.4895631102362206
11
4.5927597244094489
21
-5.4900957874015743
0
LINE
8
BLACK
6
CONTINUOUS
10
4.5927597244094489
20
-5.4900957874015743
11
4.5928346456692912
21
-5.5676377952755907
0
LINE
8
BLACK
6
CONTINUOUS
10
4.5928346456692912
20
-5.5676377952755907
11
4.5927597244094489
21
-5.5680144488188974
0
LINE
8
BLACK
6
CONTINUOUS
10
4.5927597244094489
20
-5.5680144488188974
11
4.5922270472440943
21
-5.5685471259842521
0
LINE
8
BLACK
6
CONTINUOUS
10
4.5922270472440943
20
-5.5685471259842521
11
4.4579921259842514
21
-5.5686220472440944
0
LINE
8
BLACK
6
CONTINUOUS
10
4.4579921259842514
20
-5.5686220472440944
11
4.4576154724409447
21
-5.5685471259842521
0
LINE
8
BLACK
6
CONTINUOUS
10
4.4576154724409447
20
-5.5685471259842521
11
4.45708279527559
21
-5.5680144488188974
0
LINE
8
BLACK
6
CONTINUOUS
10
4.45708279527559
20
-5.5680144488188974
11
4.4570078740157477
21
-5.490472440944882
0
LINE
8
BLACK
6
CONTINUOUS
10
4.4570078740157477
20
-5.490472440944882
11
4.45708279527559
21
-5.4900957874015743
0
LINE
8
BLACK
6
CONTINUOUS
10
4.45708279527559
20
-5.4900957874015743
11
4.4576154724409447
21
-5.4895631102362206
0
LINE
8
BLACK
6
CONTINUOUS
10
4.4576154724409447
20
-5.4895631102362206
11
4.5918503937007875
21
-5.4894881889763782
0
LINE
8
BLACK
6
CONTINUOUS
10
4.5918503937007875
20
-5.4894881889763782
11
4.5922270472440943
21
-5.4895631102362206
0
LINE
8
BLACK
6
CONTINUOUS
10
4.4589027559055117
20
-5.4914561811023619
11
4.4589754724409447
21
-5.5667276771653542
0
LINE
8
BLACK
6
CONTINUOUS
10
4.4589754724409447
20
-5.5667276771653542
11
4.5909397244094485
21
-5.5666540157480311
0
LINE
8
BLACK
6
CONTINUOUS
10
4.5909397244094485
20
-5.5666540157480311
11
4.5908670078740155
21
-5.4913825196850397
0
LINE
8
BLACK
6
CONTINUOUS
10
4.5908670078740155
20
-5.4913825196850397
11
4.4589027559055117
21
-5.4914561811023619
0
LINE
8
BLACK
6
CONTINUOUS
10
4.7052191732283459
20
-5.4675158661417322
11
4.7057518503937006
21
-5.4680485433070869
0
LINE
8
BLACK
6
CONTINUOUS
10
4.7057518503937006
20
-5.4680485433070869
11
4.7058267716535429
21
-5.5046456692913388
0
LINE
8
BLACK
6
CONTINUOUS
10
4.7058267716535429
20
-5.5046456692913388
11
4.7057518503937006
21
-5.5050223228346455
0
LINE
8
BLACK
6
CONTINUOUS
10
4.7057518503937006
20
-5.5050223228346455
11
4.7052191732283459
21
-5.5055550000000002
0
LINE
8
BLACK
6
CONTINUOUS
10
4.7052191732283459
20
-5.5055550000000002
11
4.6331889763779524
21
-5.5056299212598425
0
LINE
8
BLACK
6
CONTINUOUS
10
4.6331889763779524
20
-5.5056299212598425
11
4.6328123228346456
21
-5.5055550000000002
0
LINE
8
BLACK
6
CONTINUOUS
10
4.6328123228346456
20
-5.5055550000000002
11
4.632279645669291
21
-5.5050223228346455
0
LINE
8
BLACK
6
CONTINUOUS
10
4.632279645669291
20
-5.5050223228346455
11
4.6322047244094486
21
-5.4684251968503936
0
LINE
8
BLACK
6
CONTINUOUS
10
4.6322047244094486
20
-5.4684251968503936
11
4.632279645669291
21
-5.4680485433070869
0
LINE
8
BLACK
6
CONTINUOUS
10
4.632279645669291
20
-5.4680485433070869
11
4.6328123228346456
21
-5.4675158661417322
0
LINE
8
BLACK
6
CONTINUOUS
10
4.6328123228346456
20
-5.4675158661417322
11
4.7048425196850392
21
-5.4674409448818899
0
LINE
8
BLACK
6
CONTINUOUS
10
4.7048425196850392
20
-5.4674409448818899
11
4.7052191732283459
21
-5.4675158661417322
0
LINE
8
BLACK
6
CONTINUOUS
10
4.6341010629921255
20
-5.4694084645669294
11
4.6341713385826768
21
-5.5037349212598423
0
LINE
8
BLACK
6
CONTINUOUS
10
4.6341713385826768
20
-5.5037349212598423
11
4.7039303937007872
21
-5.5036623622047243
0
LINE
8
BLACK
6
CONTINUOUS
10
4.7039303937007872
20
-5.5036623622047243
11
4.703860118110236
21
-5.4693359055118105
0
LINE
8
BLACK
6
CONTINUOUS
10
4.703860118110236
20
-5.4693359055118105
11
4.6341010629921255
21
-5.4694084645669294
0
LINE
8
BLACK
6
CONTINUOUS
10
4.2974173622047243
20
-5.393006692913386
11
4.305869133858268
21
-5.3952713385826767
0
LINE
8
BLACK
6
CONTINUOUS
10
4.305869133858268
20
-5.3952713385826767
11
4.3137992125984255
21
-5.3989692125984252
0
LINE
8
BLACK
6
CONTINUOUS
10
4.3137992125984255
20
-5.3989692125984252
11
4.3209666929133856
21
-5.4039879133858264
0
LINE
8
BLACK
6
CONTINUOUS
10
4.3209666929133856
20
-5.4039879133858264
11
4.3271538188976377
21
-5.4101750393700785
0
LINE
8
BLACK
6
CONTINUOUS
10
4.3271538188976377
20
-5.4101750393700785
11
4.3321725196850389
21
-5.4173425196850395
0
LINE
8
BLACK
6
CONTINUOUS
10
4.3321725196850389
20
-5.4173425196850395
11
4.3358703937007874
21
-5.425272598425197
0
LINE
8
BLACK
6
CONTINUOUS
10
4.3358703937007874
20
-5.425272598425197
11
4.338135039370079
21
-5.4337243700787399
0
LINE
8
BLACK
6
CONTINUOUS
10
4.338135039370079
20
-5.4337243700787399
11
4.3388976377952755
21
-5.4424409448818896
0
LINE
8
BLACK
6
CONTINUOUS
10
4.3388976377952755
20
-5.4424409448818896
11
4.338135039370079
21
-5.4511575196850393
0
LINE
8
BLACK
6
CONTINUOUS
10
4.338135039370079
20
-5.4511575196850393
11
4.3358703937007874
21
-5.459609291338583
0
LINE
8
BLACK
6
CONTINUOUS
10
4.3358703937007874
20
-5.459609291338583
11
4.3321725196850389
21
-5.4675393700787405
0
LINE
8
BLACK
6
CONTINUOUS
10
4.3321725196850389
20
-5.4675393700787405
11
4.3271538188976377
21
-5.4747068503937006
0
LINE
8
BLACK
6
CONTINUOUS
10
4.3271538188976377
20
-5.4747068503937006
11
4.3209666929133856
21
-5.4808939763779527
0
LINE
8
BLACK
6
CONTINUOUS
10
4.3209666929133856
20
-5.4808939763779527
11
4.3137992125984255
21
-5.4859126771653539
0
LINE
8
BLACK
6
CONTINUOUS
10
4.3137992125984255
20
-5.4859126771653539
11
4.305869133858268
21
-5.4896105511811024
0
LINE
8
BLACK
6
CONTINUOUS
10
4.305869133858268
20
-5.4896105511811024
11
4.2974173622047243
21
-5.4918751968503932
0
LINE
8
BLACK
6
CONTINUOUS
10
4.2974173622047243
20
-5.4918751968503932
11
4.2887007874015746
21
-5.4926377952755905
0
LINE
8
BLACK
6
CONTINUOUS
10
4.2887007874015746
20
-5.4926377952755905
11
4.2799842125984249
21
-5.4918751968503932
0
LINE
8
BLACK
6
CONTINUOUS
10
4.2799842125984249
20
-5.4918751968503932
11
4.271532440944882
21
-5.4896105511811024
0
LINE
8
BLACK
6
CONTINUOUS
10
4.271532440944882
20
-5.4896105511811024
11
4.2636023622047245
21
-5.4859126771653539
0
LINE
8
BLACK
6
CONTINUOUS
10
4.2636023622047245
20
-5.4859126771653539
11
4.2564348818897635
21
-5.4808939763779527
0
LINE
8
BLACK
6
CONTINUOUS
10
4.2564348818897635
20
-5.4808939763779527
11
4.2502477559055114
21
-5.4747068503937006
0
LINE
8
BLACK
6
CONTINUOUS
10
4.2502477559055114
20
-5.4747068503937006
11
4.2452290551181102
21
-5.4675393700787405
0
LINE
8
BLACK
6
CONTINUOUS
10
4.2452290551181102
20
-5.4675393700787405
11
4.2415311811023617
21
-5.459609291338583
0
LINE
8
BLACK
6
CONTINUOUS
10
4.2415311811023617
20
-5.459609291338583
11
4.239266535433071
21
-5.4511575196850393
0
LINE
8
BLACK
6
CONTINUOUS
10
4.239266535433071
20
-5.4511575196850393
11
4.2385039370078736
21
-5.4424409448818896
0
LINE
8
BLACK
6
CONTINUOUS
10
4.2385039370078736
20
-5.4424409448818896
11
4.239266535433071
21
-5.4337243700787399
0
LINE
8
BLACK
6
CONTINUOUS
10
4.239266535433071
20
-5.4337243700787399
11
4.2415311811023617
21
-5.425272598425197
0
LINE
8
BLACK
6
CONTINUOUS
10
4.2415311811023617
20
-5.425272598425197
11
4.2452290551181102
21
-5.4173425196850395
0
LINE
8
BLACK
6
CONTINUOUS
10
4.2452290551181102
20
-5.4173425196850395
11
4.2502477559055114
21
-5.4101750393700785
0
LINE
8
BLACK
6
CONTINUOUS
10
4.2502477559055114
20
-5.4101750393700785
11
4.2564348818897635
21
-5.4039879133858264
0
LINE
8
BLACK
6
CONTINUOUS
10
4.2564348818897635
20
-5.4039879133858264
11
4.2636023622047245
21
-5.3989692125984252
0
LINE
8
BLACK
6
CONTINUOUS
10
4.2636023622047245
20
-5.3989692125984252
11
4.271532440944882
21
-5.3952713385826767
0
LINE
8
BLACK
6
CONTINUOUS
10
4.271532440944882
20
-5.3952713385826767
11
4.2799842125984249
21
-5.393006692913386
0
LINE
8
BLACK
6
CONTINUOUS
10
4.2799842125984249
20
-5.393006692913386
11
4.2887007874015746
21
-5.3922440944881886
0
LINE
8
BLACK
6
CONTINUOUS
10
4.2887007874015746
20
-5.3922440944881886
11
4.2974173622047243
21
-5.393006692913386
0
LINE
8
BLACK
6
CONTINUOUS
10
4.2410237401574804
20
-5.4508477165354332
11
4.2432078740157477
21
-5.4589990157480317
0
LINE
8
BLACK
6
CONTINUOUS
10
4.2432078740157477
20
-5.4589990157480317
11
4.2467742913385829
21
-5.4666472440944878
0
LINE
8
BLACK
6
CONTINUOUS
10
4.2467742913385829
20
-5.4666472440944878
11
4.2516146062992126
21
-5.4735599212598425
0
LINE
8
BLACK
6
CONTINUOUS
10
4.2516146062992126
20
-5.4735599212598425
11
4.2575818110236217
21
-5.4795271259842515
0
LINE
8
BLACK
6
CONTINUOUS
10
4.2575818110236217
20
-5.4795271259842515
11
4.2644944881889764
21
-5.4843674409448822
0
LINE
8
BLACK
6
CONTINUOUS
10
4.2644944881889764
20
-5.4843674409448822
11
4.2721427165354333
21
-5.4879338582677164
0
LINE
8
BLACK
6
CONTINUOUS
10
4.2721427165354333
20
-5.4879338582677164
11
4.2802940157480318
21
-5.4901179921259837
0
LINE
8
BLACK
6
CONTINUOUS
10
4.2802940157480318
20
-5.4901179921259837
11
4.2887007874015746
21
-5.4908535039370081
0
LINE
8
BLACK
6
CONTINUOUS
10
4.2887007874015746
20
-5.4908535039370081
11
4.2971075590551182
21
-5.4901179921259837
0
LINE
8
BLACK
6
CONTINUOUS
10
4.2971075590551182
20
-5.4901179921259837
11
4.3052588582677167
21
-5.4879338582677164
0
LINE
8
BLACK
6
CONTINUOUS
10
4.3052588582677167
20
-5.4879338582677164
11
4.3129070866141728
21
-5.4843674409448822
0
LINE
8
BLACK
6
CONTINUOUS
10
4.3129070866141728
20
-5.4843674409448822
11
4.3198197637795275
21
-5.4795271259842515
0
LINE
8
BLACK
6
CONTINUOUS
10
4.3198197637795275
20
-5.4795271259842515
11
4.3257869685039365
21
-5.4735599212598425
0
LINE
8
BLACK
6
CONTINUOUS
10
4.3257869685039365
20
-5.4735599212598425
11
4.3306272834645672
21
-5.4666472440944878
0
LINE
8
BLACK
6
CONTINUOUS
10
4.3306272834645672
20
-5.4666472440944878
11
4.3341937007874014
21
-5.4589990157480317
0
LINE
8
BLACK
6
CONTINUOUS
10
4.3341937007874014
20
-5.4589990157480317
11
4.3363778346456696
21
-5.4508477165354332
0
LINE
8
BLACK
6
CONTINUOUS
10
4.3363778346456696
20
-5.4508477165354332
11
4.3371133464566931
21
-5.4424409448818896
0
LINE
8
BLACK
6
CONTINUOUS
10
4.3371133464566931
20
-5.4424409448818896
11
4.3363778346456696
21
-5.4340341732283459
0
LINE
8
BLACK
6
CONTINUOUS
10
4.3363778346456696
20
-5.4340341732283459
11
4.3341937007874014
21
-5.4258828740157483
0
LINE
8
BLACK
6
CONTINUOUS
10
4.3341937007874014
20
-5.4258828740157483
11
4.3306272834645672
21
-5.4182346850393701
0
LINE
8
BLACK
6
CONTINUOUS
10
4.3306272834645672
20
-5.4182346850393701
11
4.3257869685039365
21
-5.4113219685039367
0
LINE
8
BLACK
6
CONTINUOUS
10
4.3257869685039365
20
-5.4113219685039367
11
4.3198197637795275
21
-5.4053547637795276
0
LINE
8
BLACK
6
CONTINUOUS
10
4.3198197637795275
20
-5.4053547637795276
11
4.3129070866141728
21
-5.4005144488188979
0
LINE
8
BLACK
6
CONTINUOUS
10
4.3129070866141728
20
-5.4005144488188979
11
4.3052588582677167
21
-5.3969480314960627
0
LINE
8
BLACK
6
CONTINUOUS
10
4.3052588582677167
20
-5.3969480314960627
11
4.2971075590551182
21
-5.3947638976377954
0
LINE
8
BLACK
6
CONTINUOUS
10
4.2971075590551182
20
-5.3947638976377954
11
4.2887007874015746
21
-5.3940283858267719
0
LINE
8
BLACK
6
CONTINUOUS
10
4.2887007874015746
20
-5.3940283858267719
11
4.2802940157480318
21
-5.3947638976377954
0
LINE
8
BLACK
6
CONTINUOUS
10
4.2802940157480318
20
-5.3947638976377954
11
4.2721427165354333
21
-5.3969480314960627
0
LINE
8
BLACK
6
CONTINUOUS
10
4.2721427165354333
20
-5.3969480314960627
11
4.2644945275590551
21
-5.4005144488188979
0
LINE
8
BLACK
6
CONTINUOUS
10
4.2644945275590551
20
-5.4005144488188979
11
4.2575818110236217
21
-5.4053547637795276
0
LINE
8
BLACK
6
CONTINUOUS
10
4.2575818110236217
20
-5.4053547637795276
11
4.2516146062992126
21
-5.4113219685039367
0
LINE
8
BLACK
6
CONTINUOUS
10
4.2516146062992126
20
-5.4113219685039367
11
4.2467742913385829
21
-5.4182346850393701
0
LINE
8
BLACK
6
CONTINUOUS
10
4.2467742913385829
20
-5.4182346850393701
11
4.2432078740157477
21
-5.4258828740157483
0
LINE
8
BLACK
6
CONTINUOUS
10
4.2432078740157477
20
-5.4258828740157483
11
4.2410237401574804
21
-5.4340341732283459
0
LINE
8
BLACK
6
CONTINUOUS
10
4.2410237401574804
20
-5.4340341732283459
11
4.2402882283464569
21
-5.4424409448818896
0
LINE
8
BLACK
6
CONTINUOUS
10
4.2402882283464569
20
-5.4424409448818896
11
4.2410237401574804
21
-5.4508477165354332
0
LINE
8
BLACK
6
CONTINUOUS
10
4.5922270472440943
20
-5.3710591732283461
11
4.5927597244094489
21
-5.3715918503937008
0
LINE
8
BLACK
6
CONTINUOUS
10
4.5927597244094489
20
-5.3715918503937008
11
4.5928346456692912
21
-5.4491338582677162
0
LINE
8
BLACK
6
CONTINUOUS
10
4.5928346456692912
20
-5.4491338582677162
11
4.5927597244094489
21
-5.4495105118110239
0
LINE
8
BLACK
6
CONTINUOUS
10
4.5927597244094489
20
-5.4495105118110239
11
4.5922270472440943
21
-5.4500431889763776
0
LINE
8
BLACK
6
CONTINUOUS
10
4.5922270472440943
20
-5.4500431889763776
11
4.4579921259842514
21
-5.4501181102362199
0
LINE
8
BLACK
6
CONTINUOUS
10
4.4579921259842514
20
-5.4501181102362199
11
4.4576154724409447
21
-5.4500431889763776
0
LINE
8
BLACK
6
CONTINUOUS
10
4.4576154724409447
20
-5.4500431889763776
11
4.45708279527559
21
-5.4495105118110239
0
LINE
8
BLACK
6
CONTINUOUS
10
4.45708279527559
20
-5.4495105118110239
11
4.4570078740157477
21
-5.3719685039370075
0
LINE
8
BLACK
6
CONTINUOUS
10
4.4570078740157477
20
-5.3719685039370075
11
4.45708279527559
21
-5.3715918503937008
0
LINE
8
BLACK
6
CONTINUOUS
10
4.45708279527559
20
-5.3715918503937008
11
4.4576154724409447
21
-5.3710591732283461
0
LINE
8
BLACK
6
CONTINUOUS
10
4.4576154724409447
20
-5.3710591732283461
11
4.5918503937007875
21
-5.3709842519685038
0
LINE
8
BLACK
6
CONTINUOUS
10
4.5918503937007875
20
-5.3709842519685038
11
4.5922270472440943
21
-5.3710591732283461
0
LINE
8
BLACK
6
CONTINUOUS
10
4.4589027559055117
20
-5.3729522440944883
11
4.4589754724409447
21
-5.4482237401574798
0
LINE
8
BLACK
6
CONTINUOUS
10
4.4589754724409447
20
-5.4482237401574798
11
4.5909397244094485
21
-5.4481500787401576
0
LINE
8
BLACK
6
CONTINUOUS
10
4.5909397244094485
20
-5.4481500787401576
11
4.5908670078740155
21
-5.3728785826771652
0
LINE
8
BLACK
6
CONTINUOUS
10
4.5908670078740155
20
-5.3728785826771652
11
4.4589027559055117
21
-5.3729522440944883
0
LINE
8
BLACK
6
CONTINUOUS
10
4.7501010629921261
20
-5.3686969685039365
11
4.7506337401574799
21
-5.3692296456692912
0
LINE
8
BLACK
6
CONTINUOUS
10
4.7506337401574799
20
-5.3692296456692912
11
4.7507086614173231
21
-5.4270866141732279
0
LINE
8
BLACK
6
CONTINUOUS
10
4.7507086614173231
20
-5.4270866141732279
11
4.7506337401574799
21
-5.4274632677165355
0
LINE
8
BLACK
6
CONTINUOUS
10
4.7506337401574799
20
-5.4274632677165355
11
4.7501010629921261
21
-5.4279959448818893
0
LINE
8
BLACK
6
CONTINUOUS
10
4.7501010629921261
20
-5.4279959448818893
11
4.6331889763779524
21
-5.4280708661417325
0
LINE
8
BLACK
6
CONTINUOUS
10
4.6331889763779524
20
-5.4280708661417325
11
4.6328123228346456
21
-5.4279959448818893
0
LINE
8
BLACK
6
CONTINUOUS
10
4.6328123228346456
20
-5.4279959448818893
11
4.632279645669291
21
-5.4274632677165355
0
LINE
8
BLACK
6
CONTINUOUS
10
4.632279645669291
20
-5.4274632677165355
11
4.6322047244094486
21
-5.3696062992125979
0
LINE
8
BLACK
6
CONTINUOUS
10
4.6322047244094486
20
-5.3696062992125979
11
4.632279645669291
21
-5.3692296456692912
0
LINE
8
BLACK
6
CONTINUOUS
10
4.632279645669291
20
-5.3692296456692912
11
4.6328123228346456
21
-5.3686969685039365
0
LINE
8
BLACK
6
CONTINUOUS
10
4.6328123228346456
20
-5.3686969685039365
11
4.7497244094488185
21
-5.3686220472440942
0
LINE
8
BLACK
6
CONTINUOUS
10
4.7497244094488185
20
-5.3686220472440942
11
4.7501010629921261
21
-5.3686969685039365
0
LINE
8
BLACK
6
CONTINUOUS
10
4.6341000393700789
20
-5.3705899606299212
11
4.6341720472440944
21
-5.4261763779527561
0
LINE
8
BLACK
6
CONTINUOUS
10
4.6341720472440944
20
-5.4261763779527561
11
4.7488133070866141
21
-5.4261029133858267
0
LINE
8
BLACK
6
CONTINUOUS
10
4.7488133070866141
20
-5.4261029133858267
11
4.7487412992125986
21
-5.3705164960629919
0
LINE
8
BLACK
6
CONTINUOUS
10
4.7487412992125986
20
-5.3705164960629919
11
4.6341000393700789
21
-5.3705899606299212
0
LINE
8
BLACK
6
CONTINUOUS
10
4.2974173622047243
20
-5.2532429133858267
11
4.305869133858268
21
-5.2555075590551183
0
LINE
8
BLACK
6
CONTINUOUS
10
4.305869133858268
20
-5.2555075590551183
11
4.3137992125984255
21
-5.259205433070866
0
LINE
8
BLACK
6
CONTINUOUS
10
4.3137992125984255
20
-5.259205433070866
11
4.3209666929133856
21
-5.264224133858268
0
LINE
8
BLACK
6
CONTINUOUS
10
4.3209666929133856
20
-5.264224133858268
11
4.3271538188976377
21
-5.2704112598425192
0
LINE
8
BLACK
6
CONTINUOUS
10
4.3271538188976377
20
-5.2704112598425192
11
4.3321725196850389
21
-5.2775787401574803
0
LINE
8
BLACK
6
CONTINUOUS
10
4.3321725196850389
20
-5.2775787401574803
11
4.3358703937007874
21
-5.2855088188976378
0
LINE
8
BLACK
6
CONTINUOUS
10
4.3358703937007874
20
-5.2855088188976378
11
4.338135039370079
21
-5.2939605905511806
0
LINE
8
BLACK
6
CONTINUOUS
10
4.338135039370079
20
-5.2939605905511806
11
4.3388976377952755
21
-5.3026771653543303
0
LINE
8
BLACK
6
CONTINUOUS
10
4.3388976377952755
20
-5.3026771653543303
11
4.338135039370079
21
-5.31139374015748
0
LINE
8
BLACK
6
CONTINUOUS
10
4.338135039370079
20
-5.31139374015748
11
4.3358703937007874
21
-5.3198455118110237
0
LINE
8
BLACK
6
CONTINUOUS
10
4.3358703937007874
20
-5.3198455118110237
11
4.3321725196850389
21
-5.3277755905511812
0
LINE
8
BLACK
6
CONTINUOUS
10
4.3321725196850389
20
-5.3277755905511812
11
4.3271538188976377
21
-5.3349430708661414
0
LINE
8
BLACK
6
CONTINUOUS
10
4.3271538188976377
20
-5.3349430708661414
11
4.3209666929133856
21
-5.3411301968503935
0
LINE
8
BLACK
6
CONTINUOUS
10
4.3209666929133856
20
-5.3411301968503935
11
4.3137992125984255
21
-5.3461488976377955
0
LINE
8
BLACK
6
CONTINUOUS
10
4.3137992125984255
20
-5.3461488976377955
11
4.305869133858268
21
-5.3498467716535432
0
LINE
8
BLACK
6
CONTINUOUS
10
4.305869133858268
20
-5.3498467716535432
11
4.2974173622047243
21
-5.3521114173228348
0
LINE
8
BLACK
6
CONTINUOUS
10
4.2974173622047243
20
-5.3521114173228348
11
4.2887007874015746
21
-5.3528740157480312
0
LINE
8
BLACK
6
CONTINUOUS
10
4.2887007874015746
20
-5.3528740157480312
11
4.2799842125984249
21
-5.3521114173228348
0
LINE
8
BLACK
6
CONTINUOUS
10
4.2799842125984249
20
-5.3521114173228348
11
4.271532440944882
21
-5.3498467716535432
0
LINE
8
BLACK
6
CONTINUOUS
10
4.271532440944882
20
-5.3498467716535432
11
4.2636023622047245
21
-5.3461488976377955
0
LINE
8
BLACK
6
CONTINUOUS
10
4.2636023622047245
20
-5.3461488976377955
11
4.2564348818897635
21
-5.3411301968503935
0
LINE
8
BLACK
6
CONTINUOUS
10
4.2564348818897635
20
-5.3411301968503935
11
4.2502477559055114
21
-5.3349430708661414
0
LINE
8
BLACK
6
CONTINUOUS
10
4.2502477559055114
20
-5.3349430708661414
11
4.2452290551181102
21
-5.3277755905511812
0
LINE
8
BLACK
6
CONTINUOUS
10
4.2452290551181102
20
-5.3277755905511812
11
4.2415311811023617
21
-5.3198455118110237
0
LINE
8
BLACK
6
CONTINUOUS
10
4.2415311811023617
20
-5.3198455118110237
11
4.239266535433071
21
-5.31139374015748
0
LINE
8
BLACK
6
CONTINUOUS
10
4.239266535433071
20
-5.31139374015748
11
4.2385039370078736
21
-5.3026771653543303
0
LINE
8
BLACK
6
CONTINUOUS
10
4.2385039370078736
20
-5.3026771653543303
11
4.239266535433071
21
-5.2939605905511806
0
LINE
8
BLACK
6
CONTINUOUS
10
4.239266535433071
20
-5.2939605905511806
11
4.2415311811023617
21
-5.2855088188976378
0
LINE
8
BLACK
6
CONTINUOUS
10
4.2415311811023617
20
-5.2855088188976378
11
4.2452290551181102
21
-5.2775787401574803
0
LINE
8
BLACK
6
CONTINUOUS
10
4.2452290551181102
20
-5.2775787401574803
11
4.2502477559055114
21
-5.2704112598425192
0
LINE
8
BLACK
6
CONTINUOUS
10
4.2502477559055114
20
-5.2704112598425192
11
4.2564348818897635
21
-5.264224133858268
0
LINE
8
BLACK
6
CONTINUOUS
10
4.2564348818897635
20
-5.264224133858268
11
4.2636023622047245
21
-5.259205433070866
0
LINE
8
BLACK
6
CONTINUOUS
10
4.2636023622047245
20
-5.259205433070866
11
4.271532440944882
21
-5.2555075590551183
0
LINE
8
BLACK
6
CONTINUOUS
10
4.271532440944882
20
-5.2555075590551183
11
4.2799842125984249
21
-5.2532429133858267
0
LINE
8
BLACK
6
CONTINUOUS
10
4.2799842125984249
20
-5.2532429133858267
11
4.2887007874015746
21
-5.2524803149606294
0
LINE
8
BLACK
6
CONTINUOUS
10
4.2887007874015746
20
-5.2524803149606294
11
4.2974173622047243
21
-5.2532429133858267
0
LINE
8
BLACK
6
CONTINUOUS
10
4.2410237401574804
20
-5.311083937007874
11
4.2432078740157477
21
-5.3192352362204725
0
LINE
8
BLACK
6
CONTINUOUS
10
4.2432078740157477
20
-5.3192352362204725
11
4.2467742913385829
21
-5.3268834645669294
0
LINE
8
BLACK
6
CONTINUOUS
10
4.2467742913385829
20
-5.3268834645669294
11
4.2516146062992126
21
-5.3337961417322832
0
LINE
8
BLACK
6
CONTINUOUS
10
4.2516146062992126
20
-5.3337961417322832
11
4.2575818110236217
21
-5.3397633464566931
0
LINE
8
BLACK
6
CONTINUOUS
10
4.2575818110236217
20
-5.3397633464566931
11
4.2644944881889764
21
-5.3446036614173229
0
LINE
8
BLACK
6
CONTINUOUS
10
4.2644944881889764
20
-5.3446036614173229
11
4.2721427165354333
21
-5.3481700787401572
0
LINE
8
BLACK
6
CONTINUOUS
10
4.2721427165354333
20
-5.3481700787401572
11
4.2802940157480318
21
-5.3503542125984254
0
LINE
8
BLACK
6
CONTINUOUS
10
4.2802940157480318
20
-5.3503542125984254
11
4.2887007874015746
21
-5.3510897244094489
0
LINE
8
BLACK
6
CONTINUOUS
10
4.2887007874015746
20
-5.3510897244094489
11
4.2971075590551182
21
-5.3503542125984254
0
LINE
8
BLACK
6
CONTINUOUS
10
4.2971075590551182
20
-5.3503542125984254
11
4.3052588582677167
21
-5.3481700787401572
0
LINE
8
BLACK
6
CONTINUOUS
10
4.3052588582677167
20
-5.3481700787401572
11
4.3129070866141728
21
-5.3446036614173229
0
LINE
8
BLACK
6
CONTINUOUS
10
4.3129070866141728
20
-5.3446036614173229
11
4.3198197637795275
21
-5.3397633464566931
0
LINE
8
BLACK
6
CONTINUOUS
10
4.3198197637795275
20
-5.3397633464566931
11
4.3257869685039365
21
-5.3337961417322832
0
LINE
8
BLACK
6
CONTINUOUS
10
4.3257869685039365
20
-5.3337961417322832
11
4.3306272834645672
21
-5.3268834645669294
0
LINE
8
BLACK
6
CONTINUOUS
10
4.3306272834645672
20
-5.3268834645669294
11
4.3341937007874014
21
-5.3192352362204725
0
LINE
8
BLACK
6
CONTINUOUS
10
4.3341937007874014
20
-5.3192352362204725
11
4.3363778346456696
21
-5.311083937007874
0
LINE
8
BLACK
6
CONTINUOUS
10
4.3363778346456696
20
-5.311083937007874
11
4.3371133464566931
21
-5.3026771653543303
0
LINE
8
BLACK
6
CONTINUOUS
10
4.3371133464566931
20
-5.3026771653543303
11
4.3363778346456696
21
-5.2942703937007876
0
LINE
8
BLACK
6
CONTINUOUS
10
4.3363778346456696
20
-5.2942703937007876
11
4.3341937007874014
21
-5.2861190944881891
0
LINE
8
BLACK
6
CONTINUOUS
10
4.3341937007874014
20
-5.2861190944881891
11
4.3306272834645672
21
-5.2784709055118109
0
LINE
8
BLACK
6
CONTINUOUS
10
4.3306272834645672
20
-5.2784709055118109
11
4.3257869685039365
21
-5.2715581889763774
0
LINE
8
BLACK
6
CONTINUOUS
10
4.3257869685039365
20
-5.2715581889763774
11
4.3198197637795275
21
-5.2655909842519684
0
LINE
8
BLACK
6
CONTINUOUS
10
4.3198197637795275
20
-5.2655909842519684
11
4.3129070866141728
21
-5.2607506692913386
0
LINE
8
BLACK
6
CONTINUOUS
10
4.3129070866141728
20
-5.2607506692913386
11
4.3052588582677167
21
-5.2571842519685035
0
LINE
8
BLACK
6
CONTINUOUS
10
4.3052588582677167
20
-5.2571842519685035
11
4.2971075590551182
21
-5.2550001181102362
0
LINE
8
BLACK
6
CONTINUOUS
10
4.2971075590551182
20
-5.2550001181102362
11
4.2887007874015746
21
-5.2542646062992127
0
LINE
8
BLACK
6
CONTINUOUS
10
4.2887007874015746
20
-5.2542646062992127
11
4.2802940157480318
21
-5.2550001181102362
0
LINE
8
BLACK
6
CONTINUOUS
10
4.2802940157480318
20
-5.2550001181102362
11
4.2721427165354333
21
-5.2571842519685035
0
LINE
8
BLACK
6
CONTINUOUS
10
4.2721427165354333
20
-5.2571842519685035
11
4.2644945275590551
21
-5.2607506692913386
0
LINE
8
BLACK
6
CONTINUOUS
10
4.2644945275590551
20
-5.2607506692913386
11
4.2575818110236217
21
-5.2655909842519684
0
LINE
8
BLACK
6
CONTINUOUS
10
4.2575818110236217
20
-5.2655909842519684
11
4.2516146062992126
21
-5.2715581889763774
0
LINE
8
BLACK
6
CONTINUOUS
10
4.2516146062992126
20
-5.2715581889763774
11
4.2467742913385829
21
-5.2784709055118109
0
LINE
8
BLACK
6
CONTINUOUS
10
4.2467742913385829
20
-5.2784709055118109
11
4.2432078740157477
21
-5.2861190944881891
0
LINE
8
BLACK
6
CONTINUOUS
10
4.2432078740157477
20
-5.2861190944881891
11
4.2410237401574804
21
-5.2942703937007876
0
LINE
8
BLACK
6
CONTINUOUS
10
4.2410237401574804
20
-5.2942703937007876
11
4.2402882283464569
21
-5.3026771653543303
0
LINE
8
BLACK
6
CONTINUOUS
10
4.2402882283464569
20
-5.3026771653543303
11
4.2410237401574804
21
-5.311083937007874
0
LINE
8
BLACK
6
CONTINUOUS
10
4.5922270472440943
20
-5.2525552362204726
11
4.5927597244094489
21
-5.2530879133858264
0
LINE
8
BLACK
6
CONTINUOUS
10
4.5927597244094489
20
-5.2530879133858264
11
4.5928346456692912
21
-5.3306299212598427
0
LINE
8
BLACK
6
CONTINUOUS
10
4.5928346456692912
20
-5.3306299212598427
11
4.5927597244094489
21
-5.3310065748031494
0
LINE
8
BLACK
6
CONTINUOUS
10
4.5927597244094489
20
-5.3310065748031494
11
4.5922270472440943
21
-5.3315392519685041
0
LINE
8
BLACK
6
CONTINUOUS
10
4.5922270472440943
20
-5.3315392519685041
11
4.4579921259842514
21
-5.3316141732283464
0
LINE
8
BLACK
6
CONTINUOUS
10
4.4579921259842514
20
-5.3316141732283464
11
4.4576154724409447
21
-5.3315392519685041
0
LINE
8
BLACK
6
CONTINUOUS
10
4.4576154724409447
20
-5.3315392519685041
11
4.45708279527559
21
-5.3310065748031494
0
LINE
8
BLACK
6
CONTINUOUS
10
4.45708279527559
20
-5.3310065748031494
11
4.4570078740157477
21
-5.253464566929134
0
LINE
8
BLACK
6
CONTINUOUS
10
4.4570078740157477
20
-5.253464566929134
11
4.45708279527559
21
-5.2530879133858264
0
LINE
8
BLACK
6
CONTINUOUS
10
4.45708279527559
20
-5.2530879133858264
11
4.4576154724409447
21
-5.2525552362204726
0
LINE
8
BLACK
6
CONTINUOUS
10
4.4576154724409447
20
-5.2525552362204726
11
4.5918503937007875
21
-5.2524803149606294
0
LINE
8
BLACK
6
CONTINUOUS
10
4.5918503937007875
20
-5.2524803149606294
11
4.5922270472440943
21
-5.2525552362204726
0
LINE
8
BLACK
6
CONTINUOUS
10
4.4589027559055117
20
-5.2544483070866139
11
4.4589754724409447
21
-5.3297198031496062
0
LINE
8
BLACK
6
CONTINUOUS
10
4.4589754724409447
20
-5.3297198031496062
11
4.5909397244094485
21
-5.3296461417322831
0
LINE
8
BLACK
6
CONTINUOUS
10
4.5909397244094485
20
-5.3296461417322831
11
4.5908670078740155
21
-5.2543746456692908
0
LINE
8
BLACK
6
CONTINUOUS
10
4.5908670078740155
20
-5.2543746456692908
11
4.4589027559055117
21
-5.2544483070866139
0
LINE
8
BLACK
6
CONTINUOUS
10
4.7658490944881891
20
-5.2525552362204726
11
4.7663817716535428
21
-5.2530879133858264
0
LINE
8
BLACK
6
CONTINUOUS
10
4.7663817716535428
20
-5.2530879133858264
11
4.766456692913386
21
-5.3282677165354331
0
LINE
8
BLACK
6
CONTINUOUS
10
4.766456692913386
20
-5.3282677165354331
11
4.7663817716535428
21
-5.3286443700787398
0
LINE
8
BLACK
6
CONTINUOUS
10
4.7663817716535428
20
-5.3286443700787398
11
4.7658490944881891
21
-5.3291770472440945
0
LINE
8
BLACK
6
CONTINUOUS
10
4.7658490944881891
20
-5.3291770472440945
11
4.6331889763779524
21
-5.3292519685039368
0
LINE
8
BLACK
6
CONTINUOUS
10
4.6331889763779524
20
-5.3292519685039368
11
4.6328123228346456
21
-5.3291770472440945
0
LINE
8
BLACK
6
CONTINUOUS
10
4.6328123228346456
20
-5.3291770472440945
11
4.632279645669291
21
-5.3286443700787398
0
LINE
8
BLACK
6
CONTINUOUS
10
4.632279645669291
20
-5.3286443700787398
11
4.6322047244094486
21
-5.253464566929134
0
LINE
8
BLACK
6
CONTINUOUS
10
4.6322047244094486
20
-5.253464566929134
11
4.632279645669291
21
-5.2530879133858264
0
LINE
8
BLACK
6
CONTINUOUS
10
4.632279645669291
20
-5.2530879133858264
11
4.6328123228346456
21
-5.2525552362204726
0
LINE
8
BLACK
6
CONTINUOUS
10
4.6328123228346456
20
-5.2525552362204726
11
4.7654724409448814
21
-5.2524803149606294
0
LINE
8
BLACK
6
CONTINUOUS
10
4.7654724409448814
20
-5.2524803149606294
11
4.7658490944881891
21
-5.2525552362204726
0
LINE
8
BLACK
6
CONTINUOUS
10
4.6340996456692913
20
-5.2544482677165352
11
4.6341722834645669
21
-5.3273575984251966
0
LINE
8
BLACK
6
CONTINUOUS
10
4.6341722834645669
20
-5.3273575984251966
11
4.7645617322834646
21
-5.3272839763779523
0
LINE
8
BLACK
6
CONTINUOUS
10
4.7645617322834646
20
-5.3272839763779523
11
4.764489094488189
21
-5.2543746456692908
0
LINE
8
BLACK
6
CONTINUOUS
10
4.764489094488189
20
-5.2543746456692908
11
4.6340996456692913
21
-5.2544482677165352
0
LINE
8
BLACK
6
CONTINUOUS
10
4.854825472440945
20
-5.0568859448818895
11
4.8553581496062987
21
-5.0574186220472441
0
LINE
8
BLACK
6
CONTINUOUS
10
4.8553581496062987
20
-5.0574186220472441
11
4.855433070866142
21
-5.1325984251968499
0
LINE
8
BLACK
6
CONTINUOUS
10
4.855433070866142
20
-5.1325984251968499
11
4.8553581496062987
21
-5.1329750787401576
0
LINE
8
BLACK
6
CONTINUOUS
10
4.8553581496062987
20
-5.1329750787401576
11
4.854825472440945
21
-5.1335077559055113
0
LINE
8
BLACK
6
CONTINUOUS
10
4.854825472440945
20
-5.1335077559055113
11
4.7221653543307083
21
-5.1335826771653545
0
LINE
8
BLACK
6
CONTINUOUS
10
4.7221653543307083
20
-5.1335826771653545
11
4.7217887007874015
21
-5.1335077559055113
0
LINE
8
BLACK
6
CONTINUOUS
10
4.7217887007874015
20
-5.1335077559055113
11
4.7212560236220469
21
-5.1329750787401576
0
LINE
8
BLACK
6
CONTINUOUS
10
4.7212560236220469
20
-5.1329750787401576
11
4.7211811023622046
21
-5.0577952755905509
0
LINE
8
BLACK
6
CONTINUOUS
10
4.7211811023622046
20
-5.0577952755905509
11
4.7212560236220469
21
-5.0574186220472441
0
LINE
8
BLACK
6
CONTINUOUS
10
4.7212560236220469
20
-5.0574186220472441
11
4.7217887007874015
21
-5.0568859448818895
0
LINE
8
BLACK
6
CONTINUOUS
10
4.7217887007874015
20
-5.0568859448818895
11
4.8544488188976374
21
-5.0568110236220472
0
LINE
8
BLACK
6
CONTINUOUS
10
4.8544488188976374
20
-5.0568110236220472
11
4.854825472440945
21
-5.0568859448818895
0
LINE
8
BLACK
6
CONTINUOUS
10
4.7230760236220473
20
-5.0587789763779529
11
4.7231486614173228
21
-5.1316883070866144
0
LINE
8
BLACK
6
CONTINUOUS
10
4.7231486614173228
20
-5.1316883070866144
11
4.8535381102362205
21
-5.13161468503937
0
LINE
8
BLACK
6
CONTINUOUS
10
4.8535381102362205
20
-5.13161468503937
11
4.8534654724409449
21
-5.0587053543307086
0
LINE
8
BLACK
6
CONTINUOUS
10
4.8534654724409449
20
-5.0587053543307086
11
4.7230760236220473
21
-5.0587789763779529
0
LINE
8
BLACK
6
CONTINUOUS
10
4.9882900393700789
20
-5.0694843700787402
11
4.9888227165354326
21
-5.070017047244094
0
LINE
8
BLACK
6
CONTINUOUS
10
4.9888227165354326
20
-5.070017047244094
11
4.9888976377952758
21
-5.1074015748031494
0
LINE
8
BLACK
6
CONTINUOUS
10
4.9888976377952758
20
-5.1074015748031494
11
4.9888227165354326
21
-5.107778228346457
0
LINE
8
BLACK
6
CONTINUOUS
10
4.9888227165354326
20
-5.107778228346457
11
4.9882900393700789
21
-5.1083109055118108
0
LINE
8
BLACK
6
CONTINUOUS
10
4.9882900393700789
20
-5.1083109055118108
11
4.9146850393700783
21
-5.1083858267716531
0
LINE
8
BLACK
6
CONTINUOUS
10
4.9146850393700783
20
-5.1083858267716531
11
4.9143083858267715
21
-5.1083109055118108
0
LINE
8
BLACK
6
CONTINUOUS
10
4.9143083858267715
20
-5.1083109055118108
11
4.9137757086614169
21
-5.107778228346457
0
LINE
8
BLACK
6
CONTINUOUS
10
4.9137757086614169
20
-5.107778228346457
11
4.9137007874015746
21
-5.0703937007874016
0
LINE
8
BLACK
6
CONTINUOUS
10
4.9137007874015746
20
-5.0703937007874016
11
4.9137757086614169
21
-5.070017047244094
0
LINE
8
BLACK
6
CONTINUOUS
10
4.9137757086614169
20
-5.070017047244094
11
4.9143083858267715
21
-5.0694843700787402
0
LINE
8
BLACK
6
CONTINUOUS
10
4.9143083858267715
20
-5.0694843700787402
11
4.9879133858267712
21
-5.0694094488188979
0
LINE
8
BLACK
6
CONTINUOUS
10
4.9879133858267712
20
-5.0694094488188979
11
4.9882900393700789
21
-5.0694843700787402
0
LINE
8
BLACK
6
CONTINUOUS
10
4.9155970866141727
20
-5.0713770078740152
11
4.9156674409448815
21
-5.1064908267716538
0
LINE
8
BLACK
6
CONTINUOUS
10
4.9156674409448815
20
-5.1064908267716538
11
4.987001299212598
21
-5.106418228346457
0
LINE
8
BLACK
6
CONTINUOUS
10
4.987001299212598
20
-5.106418228346457
11
4.9869309448818893
21
-5.0713044094488184
0
LINE
8
BLACK
6
CONTINUOUS
10
4.9869309448818893
20
-5.0713044094488184
11
4.9155970866141727
21
-5.0713770078740152
0
LINE
8
BLACK
6
CONTINUOUS
10
4.9882900393700789
20
-4.9911379133858267
11
4.9888227165354326
21
-4.9916705905511813
0
LINE
8
BLACK
6
CONTINUOUS
10
4.9888227165354326
20
-4.9916705905511813
11
4.9888976377952758
21
-5.0290551181102359
0
LINE
8
BLACK
6
CONTINUOUS
10
4.9888976377952758
20
-5.0290551181102359
11
4.9888227165354326
21
-5.0294317716535435
0
LINE
8
BLACK
6
CONTINUOUS
10
4.9888227165354326
20
-5.0294317716535435
11
4.9882900393700789
21
-5.0299644488188973
0
LINE
8
BLACK
6
CONTINUOUS
10
4.9882900393700789
20
-5.0299644488188973
11
4.9146850393700783
21
-5.0300393700787405
0
LINE
8
BLACK
6
CONTINUOUS
10
4.9146850393700783
20
-5.0300393700787405
11
4.9143083858267715
21
-5.0299644488188973
0
LINE
8
BLACK
6
CONTINUOUS
10
4.9143083858267715
20
-5.0299644488188973
11
4.9137757086614169
21
-5.0294317716535435
0
LINE
8
BLACK
6
CONTINUOUS
10
4.9137757086614169
20
-5.0294317716535435
11
4.9137007874015746
21
-4.9920472440944881
0
LINE
8
BLACK
6
CONTINUOUS
10
4.9137007874015746
20
-4.9920472440944881
11
4.9137757086614169
21
-4.9916705905511813
0
LINE
8
BLACK
6
CONTINUOUS
10
4.9137757086614169
20
-4.9916705905511813
11
4.9143083858267715
21
-4.9911379133858267
0
LINE
8
BLACK
6
CONTINUOUS
10
4.9143083858267715
20
-4.9911379133858267
11
4.9879133858267712
21
-4.9910629921259844
0
LINE
8
BLACK
6
CONTINUOUS
10
4.9879133858267712
20
-4.9910629921259844
11
4.9882900393700789
21
-4.9911379133858267
0
LINE
8
BLACK
6
CONTINUOUS
10
4.9155970866141727
20
-4.9930305511811026
11
4.9156674409448815
21
-5.0281443700787403
0
LINE
8
BLACK
6
CONTINUOUS
10
4.9156674409448815
20
-5.0281443700787403
11
4.987001299212598
21
-5.0280717716535435
0
LINE
8
BLACK
6
CONTINUOUS
10
4.987001299212598
20
-5.0280717716535435
11
4.9869309448818893
21
-4.9929579527559058
0
LINE
8
BLACK
6
CONTINUOUS
10
4.9869309448818893
20
-4.9929579527559058
11
4.9155970866141727
21
-4.9930305511811026
0
LINE
8
BLACK
6
CONTINUOUS
10
4.8737231102362202
20
-4.8818859448818896
11
4.8742557874015748
21
-4.8824186220472443
0
LINE
8
BLACK
6
CONTINUOUS
10
4.8742557874015748
20
-4.8824186220472443
11
4.8743307086614172
21
-5.0166535433070862
0
LINE
8
BLACK
6
CONTINUOUS
10
4.8743307086614172
20
-5.0166535433070862
11
4.8742557874015748
21
-5.0170301968503939
0
LINE
8
BLACK
6
CONTINUOUS
10
4.8742557874015748
20
-5.0170301968503939
11
4.8737231102362202
21
-5.0175628740157476
0
LINE
8
BLACK
6
CONTINUOUS
10
4.8737231102362202
20
-5.0175628740157476
11
4.7221653543307083
21
-5.0176377952755908
0
LINE
8
BLACK
6
CONTINUOUS
10
4.7221653543307083
20
-5.0176377952755908
11
4.7217887007874015
21
-5.0175628740157476
0
LINE
8
BLACK
6
CONTINUOUS
10
4.7217887007874015
20
-5.0175628740157476
11
4.7212560236220469
21
-5.0170301968503939
0
LINE
8
BLACK
6
CONTINUOUS
10
4.7212560236220469
20
-5.0170301968503939
11
4.7211811023622046
21
-4.882795275590551
0
LINE
8
BLACK
6
CONTINUOUS
10
4.7211811023622046
20
-4.882795275590551
11
4.7212560236220469
21
-4.8824186220472443
0
LINE
8
BLACK
6
CONTINUOUS
10
4.7212560236220469
20
-4.8824186220472443
11
4.7217887007874015
21
-4.8818859448818896
0
LINE
8
BLACK
6
CONTINUOUS
10
4.7217887007874015
20
-4.8818859448818896
11
4.8733464566929134
21
-4.8818110236220473
0
LINE
8
BLACK
6
CONTINUOUS
10
4.8733464566929134
20
-4.8818110236220473
11
4.8737231102362202
21
-4.8818859448818896
0
LINE
8
BLACK
6
CONTINUOUS
10
4.723075433070866
20
-4.8837790551181097
11
4.7231490944881891
21
-5.0157435039370082
0
LINE
8
BLACK
6
CONTINUOUS
10
4.7231490944881891
20
-5.0157435039370082
11
4.872436338582677
21
-5.0156697244094488
0
LINE
8
BLACK
6
CONTINUOUS
10
4.872436338582677
20
-5.0156697244094488
11
4.8723626771653539
21
-4.8837052755905512
0
LINE
8
BLACK
6
CONTINUOUS
10
4.8723626771653539
20
-4.8837052755905512
11
4.723075433070866
21
-4.8837790551181097
0
LINE
8
BLACK
6
CONTINUOUS
10
5.0428175984251968
20
-4.8749961811023619
11
5.0433502755905515
21
-4.8755288582677165
0
LINE
8
BLACK
6
CONTINUOUS
10
5.0433502755905515
20
-4.8755288582677165
11
5.0434251968503938
21
-4.9507086614173224
0
LINE
8
BLACK
6
CONTINUOUS
10
5.0434251968503938
20
-4.9507086614173224
11
5.0433502755905515
21
-4.95108531496063
0
LINE
8
BLACK
6
CONTINUOUS
10
5.0433502755905515
20
-4.95108531496063
11
5.0428175984251968
21
-4.9516179921259837
0
LINE
8
BLACK
6
CONTINUOUS
10
5.0428175984251968
20
-4.9516179921259837
11
4.9164566929133855
21
-4.951692913385827
0
LINE
8
BLACK
6
CONTINUOUS
10
4.9164566929133855
20
-4.951692913385827
11
4.9160800393700788
21
-4.9516179921259837
0
LINE
8
BLACK
6
CONTINUOUS
10
4.9160800393700788
20
-4.9516179921259837
11
4.9155473622047241
21
-4.95108531496063
0
LINE
8
BLACK
6
CONTINUOUS
10
4.9155473622047241
20
-4.95108531496063
11
4.9154724409448818
21
-4.8759055118110233
0
LINE
8
BLACK
6
CONTINUOUS
10
4.9154724409448818
20
-4.8759055118110233
11
4.9155473622047241
21
-4.8755288582677165
0
LINE
8
BLACK
6
CONTINUOUS
10
4.9155473622047241
20
-4.8755288582677165
11
4.9160800393700788
21
-4.8749961811023619
0
LINE
8
BLACK
6
CONTINUOUS
10
4.9160800393700788
20
-4.8749961811023619
11
5.0424409448818892
21
-4.8749212598425196
0
LINE
8
BLACK
6
CONTINUOUS
10
5.0424409448818892
20
-4.8749212598425196
11
5.0428175984251968
21
-4.8749961811023619
0
LINE
8
BLACK
6
CONTINUOUS
10
4.9173673622047245
20
-4.8768892125984253
11
4.91744
21
-4.949798503937008
0
LINE
8
BLACK
6
CONTINUOUS
10
4.91744
20
-4.949798503937008
11
5.0415302362204724
21
-4.9497249212598424
0
LINE
8
BLACK
6
CONTINUOUS
10
5.0415302362204724
20
-4.9497249212598424
11
5.0414575984251968
21
-4.8768156299212597
0
LINE
8
BLACK
6
CONTINUOUS
10
5.0414575984251968
20
-4.8768156299212597
11
4.9173673622047245
21
-4.8768892125984253
0
LINE
8
BLACK
6
CONTINUOUS
10
5.1556128740157483
20
-4.8749961811023619
11
5.1561455511811021
21
-4.8755288582677165
0
LINE
8
BLACK
6
CONTINUOUS
10
5.1561455511811021
20
-4.8755288582677165
11
5.1562204724409444
21
-4.9121259842519684
0
LINE
8
BLACK
6
CONTINUOUS
10
5.1562204724409444
20
-4.9121259842519684
11
5.1561455511811021
21
-4.9125026377952752
0
LINE
8
BLACK
6
CONTINUOUS
10
5.1561455511811021
20
-4.9125026377952752
11
5.1556128740157483
21
-4.9130353149606298
0
LINE
8
BLACK
6
CONTINUOUS
10
5.1556128740157483
20
-4.9130353149606298
11
5.0835826771653538
21
-4.9131102362204722
0
LINE
8
BLACK
6
CONTINUOUS
10
5.0835826771653538
20
-4.9131102362204722
11
5.0832060236220471
21
-4.9130353149606298
0
LINE
8
BLACK
6
CONTINUOUS
10
5.0832060236220471
20
-4.9130353149606298
11
5.0826733464566924
21
-4.9125026377952752
0
LINE
8
BLACK
6
CONTINUOUS
10
5.0826733464566924
20
-4.9125026377952752
11
5.0825984251968501
21
-4.8759055118110233
0
LINE
8
BLACK
6
CONTINUOUS
10
5.0825984251968501
20
-4.8759055118110233
11
5.0826733464566924
21
-4.8755288582677165
0
LINE
8
BLACK
6
CONTINUOUS
10
5.0826733464566924
20
-4.8755288582677165
11
5.0832060236220471
21
-4.8749961811023619
0
LINE
8
BLACK
6
CONTINUOUS
10
5.0832060236220471
20
-4.8749961811023619
11
5.1552362204724407
21
-4.8749212598425196
0
LINE
8
BLACK
6
CONTINUOUS
10
5.1552362204724407
20
-4.8749212598425196
11
5.1556128740157483
21
-4.8749961811023619
0
LINE
8
BLACK
6
CONTINUOUS
10
5.084494763779527
20
-4.8768887795275591
11
5.0845650393700783
21
-4.911215236220472
0
LINE
8
BLACK
6
CONTINUOUS
10
5.0845650393700783
20
-4.911215236220472
11
5.1543240944881887
21
-4.9111426771653539
0
LINE
8
BLACK
6
CONTINUOUS
10
5.1543240944881887
20
-4.9111426771653539
11
5.1542538188976375
21
-4.876816220472441
0
LINE
8
BLACK
6
CONTINUOUS
10
5.1542538188976375
20
-4.876816220472441
11
5.084494763779527
21
-4.8768887795275591
0
LINE
8
BLACK
6
CONTINUOUS
10
6.6771404330708659
20
-4.3759961811023622
11
6.6776731102362206
21
-4.3765288582677169
0
LINE
8
BLACK
6
CONTINUOUS
10
6.6776731102362206
20
-4.3765288582677169
11
6.6777480314960629
21
-4.465094488188976
0
LINE
8
BLACK
6
CONTINUOUS
10
6.6777480314960629
20
-4.465094488188976
11
6.6776731102362206
21
-4.4654711417322837
0
LINE
8
BLACK
6
CONTINUOUS
10
6.6776731102362206
20
-4.4654711417322837
11
6.6771404330708659
21
-4.4660038188976374
0
LINE
8
BLACK
6
CONTINUOUS
10
6.6771404330708659
20
-4.4660038188976374
11
6.4972362204724412
21
-4.4660787401574806
0
LINE
8
BLACK
6
CONTINUOUS
10
6.4972362204724412
20
-4.4660787401574806
11
6.4968595669291336
21
-4.4660038188976374
0
LINE
8
BLACK
6
CONTINUOUS
10
6.4968595669291336
20
-4.4660038188976374
11
6.4963268897637798
21
-4.4654711417322837
0
LINE
8
BLACK
6
CONTINUOUS
10
6.4963268897637798
20
-4.4654711417322837
11
6.4962519685039366
21
-4.3769055118110236
0
LINE
8
BLACK
6
CONTINUOUS
10
6.4962519685039366
20
-4.3769055118110236
11
6.4963268897637798
21
-4.3765288582677169
0
LINE
8
BLACK
6
CONTINUOUS
10
6.4963268897637798
20
-4.3765288582677169
11
6.4968595669291336
21
-4.3759961811023622
0
LINE
8
BLACK
6
CONTINUOUS
10
6.4968595669291336
20
-4.3759961811023622
11
6.6767637795275592
21
-4.3759212598425199
0
LINE
8
BLACK
6
CONTINUOUS
10
6.6767637795275592
20
-4.3759212598425199
11
6.6771404330708659
21
-4.3759961811023622
0
LINE
8
BLACK
6
CONTINUOUS
10
6.4981466929133855
20
-4.3778893700787398
11
6.4982196850393699
21
-4.4641845669291333
0
LINE
8
BLACK
6
CONTINUOUS
10
6.4982196850393699
20
-4.4641845669291333
11
6.6758532677165352
21
-4.4641105905511811
0
LINE
8
BLACK
6
CONTINUOUS
10
6.6758532677165352
20
-4.4641105905511811
11
6.6757802755905509
21
-4.3778153937007875
0
LINE
8
BLACK
6
CONTINUOUS
10
6.6757802755905509
20
-4.3778153937007875
11
6.4981466929133855
21
-4.3778893700787398
0
LINE
8
BLACK
6
CONTINUOUS
10
4.7320616929133861
20
-2.8493032677165355
11
4.7325943700787398
21
-2.8498359448818897
0
LINE
8
BLACK
6
CONTINUOUS
10
4.7325943700787398
20
-2.8498359448818897
11
4.7326692913385822
21
-3.2517874015748029
0
LINE
8
BLACK
6
CONTINUOUS
10
4.7326692913385822
20
-3.2517874015748029
11
4.7325943700787398
21
-3.2521640551181101
0
LINE
8
BLACK
6
CONTINUOUS
10
4.7325943700787398
20
-3.2521640551181101
11
4.7320616929133861
21
-3.2526967322834643
0
LINE
8
BLACK
6
CONTINUOUS
10
4.7320616929133861
20
-3.2526967322834643
11
4.3997952755905514
21
-3.2527716535433071
0
LINE
8
BLACK
6
CONTINUOUS
10
4.3997952755905514
20
-3.2527716535433071
11
4.3994186220472438
21
-3.2526967322834643
0
LINE
8
BLACK
6
CONTINUOUS
10
4.3994186220472438
20
-3.2526967322834643
11
4.39888594488189
21
-3.2521640551181101
0
LINE
8
BLACK
6
CONTINUOUS
10
4.39888594488189
20
-3.2521640551181101
11
4.3988110236220468
21
-2.8502125984251969
0
LINE
8
BLACK
6
CONTINUOUS
10
4.3988110236220468
20
-2.8502125984251969
11
4.39888594488189
21
-2.8498359448818897
0
LINE
8
BLACK
6
CONTINUOUS
10
4.39888594488189
20
-2.8498359448818897
11
4.3994186220472438
21
-2.8493032677165355
0
LINE
8
BLACK
6
CONTINUOUS
10
4.3994186220472438
20
-2.8493032677165355
11
4.7316850393700784
21
-2.8492283464566928
0
LINE
8
BLACK
6
CONTINUOUS
10
4.7316850393700784
20
-2.8492283464566928
11
4.7320616929133861
21
-2.8493032677165355
0
LINE
8
BLACK
6
CONTINUOUS
10
4.4007048425196853
20
-2.8511966141732281
11
4.4007793307086613
21
-3.2508777559055115
0
LINE
8
BLACK
6
CONTINUOUS
10
4.4007793307086613
20
-3.2508777559055115
11
4.7307754330708658
21
-3.250803346456693
0
LINE
8
BLACK
6
CONTINUOUS
10
4.7307754330708658
20
-3.250803346456693
11
4.7307009448818897
21
-2.8511222047244096
0
LINE
8
BLACK
6
CONTINUOUS
10
4.7307009448818897
20
-2.8511222047244096
11
4.4007048425196853
21
-2.8511966141732281
0
LINE
8
BLACK
6
CONTINUOUS
10
5.9231640551181099
20
-2.8404056299212597
11
5.9236967322834646
21
-2.8409383070866143
0
LINE
8
BLACK
6
CONTINUOUS
10
5.9236967322834646
20
-2.8409383070866143
11
5.9237716535433069
21
-3.1732047244094486
0
LINE
8
BLACK
6
CONTINUOUS
10
5.9237716535433069
20
-3.1732047244094486
11
5.9236967322834646
21
-3.1735813779527557
0
LINE
8
BLACK
6
CONTINUOUS
10
5.9236967322834646
20
-3.1735813779527557
11
5.9231640551181099
21
-3.17411405511811
0
LINE
8
BLACK
6
CONTINUOUS
10
5.9231640551181099
20
-3.17411405511811
11
5.5212125984251967
21
-3.1741889763779527
0
LINE
8
BLACK
6
CONTINUOUS
10
5.5212125984251967
20
-3.1741889763779527
11
5.52083594488189
21
-3.17411405511811
0
LINE
8
BLACK
6
CONTINUOUS
10
5.52083594488189
20
-3.17411405511811
11
5.5203032677165353
21
-3.1735813779527557
0
LINE
8
BLACK
6
CONTINUOUS
10
5.5203032677165353
20
-3.1735813779527557
11
5.520228346456693
21
-2.8413149606299211
0
LINE
8
BLACK
6
CONTINUOUS
10
5.520228346456693
20
-2.8413149606299211
11
5.5203032677165353
21
-2.8409383070866143
0
LINE
8
BLACK
6
CONTINUOUS
10
5.5203032677165353
20
-2.8409383070866143
11
5.52083594488189
21
-2.8404056299212597
0
LINE
8
BLACK
6
CONTINUOUS
10
5.52083594488189
20
-2.8404056299212597
11
5.9227874015748032
21
-2.8403307086614173
0
LINE
8
BLACK
6
CONTINUOUS
10
5.9227874015748032
20
-2.8403307086614173
11
5.9231640551181099
21
-2.8404056299212597
0
LINE
8
BLACK
6
CONTINUOUS
10
5.5221222047244094
20
-2.8422990157480315
11
5.5221966141732279
21
-3.1722951181102363
0
LINE
8
BLACK
6
CONTINUOUS
10
5.5221966141732279
20
-3.1722951181102363
11
5.9218777559055118
21
-3.1722206299212599
0
LINE
8
BLACK
6
CONTINUOUS
10
5.9218777559055118
20
-3.1722206299212599
11
5.9218033464566924
21
-2.842224527559055
0
LINE
8
BLACK
6
CONTINUOUS
10
5.9218033464566924
20
-2.842224527559055
11
5.5221222047244094
21
-2.8422990157480315
  0
ENDSEC
  0
EOF
