  0
SECTION
  2
HEADER
  9
$ANGBASE
  50
0.0
  9
$ANGDIR
  70
1
  9
$MEASUREMENT
  70
0
  0
ENDSEC
  0
SECTION
  2
TABLES
  0
TABLE
  2
LTYPE
  70
4
  0
LTYPE
  5
40F
  2
CONTINUOUS
  70
0
  3
Solid line
  72
65
  73
0
  40
0.0
  0
LTYPE
  5
410
  2
DASHDOT
 70
0
  3
Dash Dot ____ _ ____ _
 72
65
 73
4
 40
2.0
 49
1.25
 49
-0.25
 49
0.25
 49
-0.25
  0
LTYPE
  5
411
  2
DASHED
 70
0
  3
Dashed __ __ __ __ __
 72
65
 73
2
 40
0.75
 49
0.5
 49
-0.25
  0
LTYPE
  5
43B
  2
DOTTED
 70
0
  3
Dotted .  .  .  .
 72
65
 73
2
 40
0.2
 49
0.0
 49
-0.2
  0
ENDTAB
  0
TABLE
  2
STYLE
  70
4
  0
STYLE
  2
KICAD
  70
0
  40
0
  41
1
  42
1
  50
0
  71
0
  3
isocp.shx
  0
STYLE
  2
KICADB
  70
0
  40
0
  41
1
  42
1
  50
0
  71
0
  3
isocp.shx
  0
STYLE
  2
KICADI
  70
0
  40
0
  41
1
  42
1
  50
15
  71
0
  3
isocp.shx
  0
STYLE
  2
KICADBI
  70
0
  40
0
  41
1
  42
1
  50
15
  71
0
  3
isocp.shx
  0
ENDTAB
  0
TABLE
  2
LAYER
  70
1
  0
LAYER
  2
BLACK
  70
0
  62
7
  6
CONTINUOUS
  0
ENDTAB
  0
ENDSEC
  0
SECTION
  2
ENTITIES
0
LINE
8
BLACK
6
CONTINUOUS
10
0.5357165748031496
20
0.6314342519685039
11
0.5441683464566929
21
0.6291696062992126
0
LINE
8
BLACK
6
CONTINUOUS
10
0.5441683464566929
20
0.6291696062992126
11
0.5520984251968504
21
0.6254717322834645
0
LINE
8
BLACK
6
CONTINUOUS
10
0.5520984251968504
20
0.6254717322834645
11
0.559265905511811
21
0.620453031496063
0
LINE
8
BLACK
6
CONTINUOUS
10
0.559265905511811
20
0.620453031496063
11
0.565453031496063
21
0.614265905511811
0
LINE
8
BLACK
6
CONTINUOUS
10
0.565453031496063
20
0.614265905511811
11
0.5704717322834646
21
0.6070984251968504
0
LINE
8
BLACK
6
CONTINUOUS
10
0.5704717322834646
20
0.6070984251968504
11
0.5741696062992125
21
0.5991683464566929
0
LINE
8
BLACK
6
CONTINUOUS
10
0.5741696062992125
20
0.5991683464566929
11
0.576434251968504
21
0.5907165748031495
0
LINE
8
BLACK
6
CONTINUOUS
10
0.576434251968504
20
0.5907165748031495
11
0.5771968503937007
21
0.582
0
LINE
8
BLACK
6
CONTINUOUS
10
0.5771968503937007
20
0.582
11
0.576434251968504
21
0.5732834251968504
0
LINE
8
BLACK
6
CONTINUOUS
10
0.576434251968504
20
0.5732834251968504
11
0.5741696062992125
21
0.5648316535433071
0
LINE
8
BLACK
6
CONTINUOUS
10
0.5741696062992125
20
0.5648316535433071
11
0.5704717322834646
21
0.5569015748031496
0
LINE
8
BLACK
6
CONTINUOUS
10
0.5704717322834646
20
0.5569015748031496
11
0.565453031496063
21
0.549734094488189
0
LINE
8
BLACK
6
CONTINUOUS
10
0.565453031496063
20
0.549734094488189
11
0.559265905511811
21
0.543546968503937
0
LINE
8
BLACK
6
CONTINUOUS
10
0.559265905511811
20
0.543546968503937
11
0.5520984251968504
21
0.5385282677165354
0
LINE
8
BLACK
6
CONTINUOUS
10
0.5520984251968504
20
0.5385282677165354
11
0.5441683464566929
21
0.5348303937007874
0
LINE
8
BLACK
6
CONTINUOUS
10
0.5441683464566929
20
0.5348303937007874
11
0.5357165748031496
21
0.532565748031496
0
LINE
8
BLACK
6
CONTINUOUS
10
0.5357165748031496
20
0.532565748031496
11
0.527
21
0.5318031496062992
0
LINE
8
BLACK
6
CONTINUOUS
10
0.527
20
0.5318031496062992
11
0.5182834251968503
21
0.532565748031496
0
LINE
8
BLACK
6
CONTINUOUS
10
0.5182834251968503
20
0.532565748031496
11
0.5098316535433071
21
0.5348303937007874
0
LINE
8
BLACK
6
CONTINUOUS
10
0.5098316535433071
20
0.5348303937007874
11
0.5019015748031496
21
0.5385282677165354
0
LINE
8
BLACK
6
CONTINUOUS
10
0.5019015748031496
20
0.5385282677165354
11
0.4947340944881889
21
0.543546968503937
0
LINE
8
BLACK
6
CONTINUOUS
10
0.4947340944881889
20
0.543546968503937
11
0.488546968503937
21
0.549734094488189
0
LINE
8
BLACK
6
CONTINUOUS
10
0.488546968503937
20
0.549734094488189
11
0.4835282677165354
21
0.5569015748031496
0
LINE
8
BLACK
6
CONTINUOUS
10
0.4835282677165354
20
0.5569015748031496
11
0.4798303937007874
21
0.5648316535433071
0
LINE
8
BLACK
6
CONTINUOUS
10
0.4798303937007874
20
0.5648316535433071
11
0.477565748031496
21
0.5732834251968504
0
LINE
8
BLACK
6
CONTINUOUS
10
0.477565748031496
20
0.5732834251968504
11
0.4768031496062992
21
0.582
0
LINE
8
BLACK
6
CONTINUOUS
10
0.4768031496062992
20
0.582
11
0.477565748031496
21
0.5907165748031495
0
LINE
8
BLACK
6
CONTINUOUS
10
0.477565748031496
20
0.5907165748031495
11
0.4798303937007874
21
0.5991683464566929
0
LINE
8
BLACK
6
CONTINUOUS
10
0.4798303937007874
20
0.5991683464566929
11
0.4835282677165354
21
0.6070984251968504
0
LINE
8
BLACK
6
CONTINUOUS
10
0.4835282677165354
20
0.6070984251968504
11
0.488546968503937
21
0.614265905511811
0
LINE
8
BLACK
6
CONTINUOUS
10
0.488546968503937
20
0.614265905511811
11
0.4947340944881889
21
0.620453031496063
0
LINE
8
BLACK
6
CONTINUOUS
10
0.4947340944881889
20
0.620453031496063
11
0.5019015748031496
21
0.6254717322834645
0
LINE
8
BLACK
6
CONTINUOUS
10
0.5019015748031496
20
0.6254717322834645
11
0.5098316535433071
21
0.6291696062992126
0
LINE
8
BLACK
6
CONTINUOUS
10
0.5098316535433071
20
0.6291696062992126
11
0.5182834251968503
21
0.6314342519685039
0
LINE
8
BLACK
6
CONTINUOUS
10
0.5182834251968503
20
0.6314342519685039
11
0.527
21
0.6321968503937008
0
LINE
8
BLACK
6
CONTINUOUS
10
0.527
20
0.6321968503937008
11
0.5357165748031496
21
0.6314342519685039
0
LINE
8
BLACK
6
CONTINUOUS
10
0.4793229527559055
20
0.5735932283464567
11
0.4815070866141732
21
0.5654419291338583
0
LINE
8
BLACK
6
CONTINUOUS
10
0.4815070866141732
20
0.5654419291338583
11
0.4850735039370079
21
0.5577937007874015
0
LINE
8
BLACK
6
CONTINUOUS
10
0.4850735039370079
20
0.5577937007874015
11
0.4899138188976378
21
0.5508810236220473
0
LINE
8
BLACK
6
CONTINUOUS
10
0.4899138188976378
20
0.5508810236220473
11
0.4958810236220472
21
0.5449138188976378
0
LINE
8
BLACK
6
CONTINUOUS
10
0.4958810236220472
20
0.5449138188976378
11
0.5027937007874016
21
0.5400735039370078
0
LINE
8
BLACK
6
CONTINUOUS
10
0.5027937007874016
20
0.5400735039370078
11
0.5104419291338582
21
0.5365070866141732
0
LINE
8
BLACK
6
CONTINUOUS
10
0.5104419291338582
20
0.5365070866141732
11
0.5185932283464567
21
0.5343229527559055
0
LINE
8
BLACK
6
CONTINUOUS
10
0.5185932283464567
20
0.5343229527559055
11
0.527
21
0.5335874409448819
0
LINE
8
BLACK
6
CONTINUOUS
10
0.527
20
0.5335874409448819
11
0.5354067716535433
21
0.5343229527559055
0
LINE
8
BLACK
6
CONTINUOUS
10
0.5354067716535433
20
0.5343229527559055
11
0.5435580708661417
21
0.5365070866141732
0
LINE
8
BLACK
6
CONTINUOUS
10
0.5435580708661417
20
0.5365070866141732
11
0.5512062992125984
21
0.5400735039370078
0
LINE
8
BLACK
6
CONTINUOUS
10
0.5512062992125984
20
0.5400735039370078
11
0.5581189763779527
21
0.5449138188976378
0
LINE
8
BLACK
6
CONTINUOUS
10
0.5581189763779527
20
0.5449138188976378
11
0.5640861811023622
21
0.5508810236220473
0
LINE
8
BLACK
6
CONTINUOUS
10
0.5640861811023622
20
0.5508810236220473
11
0.5689264960629921
21
0.5577937007874015
0
LINE
8
BLACK
6
CONTINUOUS
10
0.5689264960629921
20
0.5577937007874015
11
0.5724929133858268
21
0.5654419291338583
0
LINE
8
BLACK
6
CONTINUOUS
10
0.5724929133858268
20
0.5654419291338583
11
0.5746770472440945
21
0.5735932283464567
0
LINE
8
BLACK
6
CONTINUOUS
10
0.5746770472440945
20
0.5735932283464567
11
0.5754125590551181
21
0.582
0
LINE
8
BLACK
6
CONTINUOUS
10
0.5754125590551181
20
0.582
11
0.5746770472440945
21
0.5904067716535433
0
LINE
8
BLACK
6
CONTINUOUS
10
0.5746770472440945
20
0.5904067716535433
11
0.5724929133858268
21
0.5985580708661418
0
LINE
8
BLACK
6
CONTINUOUS
10
0.5724929133858268
20
0.5985580708661418
11
0.5689264960629921
21
0.6062062598425196
0
LINE
8
BLACK
6
CONTINUOUS
10
0.5689264960629921
20
0.6062062598425196
11
0.5640861811023622
21
0.6131189763779528
0
LINE
8
BLACK
6
CONTINUOUS
10
0.5640861811023622
20
0.6131189763779528
11
0.5581189763779527
21
0.6190861811023622
0
LINE
8
BLACK
6
CONTINUOUS
10
0.5581189763779527
20
0.6190861811023622
11
0.5512062992125984
21
0.6239264960629921
0
LINE
8
BLACK
6
CONTINUOUS
10
0.5512062992125984
20
0.6239264960629921
11
0.5435580708661417
21
0.6274929133858268
0
LINE
8
BLACK
6
CONTINUOUS
10
0.5435580708661417
20
0.6274929133858268
11
0.5354067716535433
21
0.6296770472440945
0
LINE
8
BLACK
6
CONTINUOUS
10
0.5354067716535433
20
0.6296770472440945
11
0.527
21
0.6304125590551181
0
LINE
8
BLACK
6
CONTINUOUS
10
0.527
20
0.6304125590551181
11
0.5185932283464567
21
0.6296770472440945
0
LINE
8
BLACK
6
CONTINUOUS
10
0.5185932283464567
20
0.6296770472440945
11
0.5104419291338582
21
0.6274929133858268
0
LINE
8
BLACK
6
CONTINUOUS
10
0.5104419291338582
20
0.6274929133858268
11
0.5027937401574804
21
0.6239264960629921
0
LINE
8
BLACK
6
CONTINUOUS
10
0.5027937401574804
20
0.6239264960629921
11
0.4958810236220472
21
0.6190861811023622
0
LINE
8
BLACK
6
CONTINUOUS
10
0.4958810236220472
20
0.6190861811023622
11
0.4899138188976378
21
0.6131189763779528
0
LINE
8
BLACK
6
CONTINUOUS
10
0.4899138188976378
20
0.6131189763779528
11
0.4850735039370079
21
0.6062062598425196
0
LINE
8
BLACK
6
CONTINUOUS
10
0.4850735039370079
20
0.6062062598425196
11
0.4815070866141732
21
0.5985580708661418
0
LINE
8
BLACK
6
CONTINUOUS
10
0.4815070866141732
20
0.5985580708661418
11
0.4793229527559055
21
0.5904067716535433
0
LINE
8
BLACK
6
CONTINUOUS
10
0.4793229527559055
20
0.5904067716535433
11
0.4785874409448819
21
0.582
0
LINE
8
BLACK
6
CONTINUOUS
10
0.4785874409448819
20
0.582
11
0.4793229527559055
21
0.5735932283464567
0
LINE
8
BLACK
6
CONTINUOUS
10
2.2875892519685039
20
0.7181455511811023
11
2.2881219291338581
21
0.717612874015748
0
LINE
8
BLACK
6
CONTINUOUS
10
2.2881219291338581
20
0.717612874015748
11
2.2881968503937009
21
0.5833779527559055
0
LINE
8
BLACK
6
CONTINUOUS
10
2.2881968503937009
20
0.5833779527559055
11
2.2881219291338581
21
0.5830012992125985
0
LINE
8
BLACK
6
CONTINUOUS
10
2.2881219291338581
20
0.5830012992125985
11
2.2875892519685039
21
0.582468622047244
0
LINE
8
BLACK
6
CONTINUOUS
10
2.2875892519685039
20
0.582468622047244
11
2.2100472440944881
21
0.5823937007874016
0
LINE
8
BLACK
6
CONTINUOUS
10
2.2100472440944881
20
0.5823937007874016
11
2.2096705905511809
21
0.582468622047244
0
LINE
8
BLACK
6
CONTINUOUS
10
2.2096705905511809
20
0.582468622047244
11
2.2091379133858267
21
0.5830012992125985
0
LINE
8
BLACK
6
CONTINUOUS
10
2.2091379133858267
20
0.5830012992125985
11
2.2090629921259843
21
0.717236220472441
0
LINE
8
BLACK
6
CONTINUOUS
10
2.2090629921259843
20
0.717236220472441
11
2.2091379133858267
21
0.717612874015748
0
LINE
8
BLACK
6
CONTINUOUS
10
2.2091379133858267
20
0.717612874015748
11
2.2096705905511809
21
0.7181455511811023
0
LINE
8
BLACK
6
CONTINUOUS
10
2.2096705905511809
20
0.7181455511811023
11
2.2872125984251968
21
0.7182204724409449
0
LINE
8
BLACK
6
CONTINUOUS
10
2.2872125984251968
20
0.7182204724409449
11
2.2875892519685039
21
0.7181455511811023
0
LINE
8
BLACK
6
CONTINUOUS
10
2.2109573228346457
20
0.716252874015748
11
2.2110309842519684
21
0.5842886220472441
0
LINE
8
BLACK
6
CONTINUOUS
10
2.2110309842519684
20
0.5842886220472441
11
2.2863024803149608
21
0.5843613385826771
0
LINE
8
BLACK
6
CONTINUOUS
10
2.2863024803149608
20
0.5843613385826771
11
2.2862288188976376
21
0.7163255905511811
0
LINE
8
BLACK
6
CONTINUOUS
10
2.2862288188976376
20
0.7163255905511811
11
2.2109573228346457
21
0.716252874015748
0
LINE
8
BLACK
6
CONTINUOUS
10
2.5332427952755907
20
0.9149172047244094
11
2.5337754724409449
21
0.9143845275590551
0
LINE
8
BLACK
6
CONTINUOUS
10
2.5337754724409449
20
0.9143845275590551
11
2.5338503937007872
21
0.6266062992125984
0
LINE
8
BLACK
6
CONTINUOUS
10
2.5338503937007872
20
0.6266062992125984
11
2.5337754724409449
21
0.6262296456692913
0
LINE
8
BLACK
6
CONTINUOUS
10
2.5337754724409449
20
0.6262296456692913
11
2.5332427952755907
21
0.625696968503937
0
LINE
8
BLACK
6
CONTINUOUS
10
2.5332427952755907
20
0.625696968503937
11
2.3123937007874016
21
0.6256220472440944
0
LINE
8
BLACK
6
CONTINUOUS
10
2.3123937007874016
20
0.6256220472440944
11
2.3120170472440944
21
0.625696968503937
0
LINE
8
BLACK
6
CONTINUOUS
10
2.3120170472440944
20
0.625696968503937
11
2.3114843700787402
21
0.6262296456692913
0
LINE
8
BLACK
6
CONTINUOUS
10
2.3114843700787402
20
0.6262296456692913
11
2.3114094488188974
21
0.914007874015748
0
LINE
8
BLACK
6
CONTINUOUS
10
2.3114094488188974
20
0.914007874015748
11
2.3114843700787402
21
0.9143845275590551
0
LINE
8
BLACK
6
CONTINUOUS
10
2.3114843700787402
20
0.9143845275590551
11
2.3120170472440944
21
0.9149172047244094
0
LINE
8
BLACK
6
CONTINUOUS
10
2.3120170472440944
20
0.9149172047244094
11
2.5328661417322835
21
0.9149921259842519
0
LINE
8
BLACK
6
CONTINUOUS
10
2.5328661417322835
20
0.9149921259842519
11
2.5332427952755907
21
0.9149172047244094
0
LINE
8
BLACK
6
CONTINUOUS
10
2.313303346456693
20
0.913023937007874
11
2.3133776771653545
21
0.6275161023622047
0
LINE
8
BLACK
6
CONTINUOUS
10
2.3133776771653545
20
0.6275161023622047
11
2.5319564566929134
21
0.6275902755905511
0
LINE
8
BLACK
6
CONTINUOUS
10
2.5319564566929134
20
0.6275902755905511
11
2.5318821259842519
21
0.9130981102362205
0
LINE
8
BLACK
6
CONTINUOUS
10
2.5318821259842519
20
0.9130981102362205
11
2.313303346456693
21
0.913023937007874
0
LINE
8
BLACK
6
CONTINUOUS
10
0.8873057874015747
20
0.7194920078740157
11
0.8878384645669292
21
0.7189593307086614
0
LINE
8
BLACK
6
CONTINUOUS
10
0.8878384645669292
20
0.7189593307086614
11
0.8879133858267716
21
0.6414173228346457
0
LINE
8
BLACK
6
CONTINUOUS
10
0.8879133858267716
20
0.6414173228346457
11
0.8878384645669292
21
0.6410406692913385
0
LINE
8
BLACK
6
CONTINUOUS
10
0.8878384645669292
20
0.6410406692913385
11
0.8873057874015747
21
0.6405079921259842
0
LINE
8
BLACK
6
CONTINUOUS
10
0.8873057874015747
20
0.6405079921259842
11
0.7530708661417322
21
0.6404330708661418
0
LINE
8
BLACK
6
CONTINUOUS
10
0.7530708661417322
20
0.6404330708661418
11
0.7526942125984252
21
0.6405079921259842
0
LINE
8
BLACK
6
CONTINUOUS
10
0.7526942125984252
20
0.6405079921259842
11
0.7521615354330708
21
0.6410406692913385
0
LINE
8
BLACK
6
CONTINUOUS
10
0.7521615354330708
20
0.6410406692913385
11
0.7520866141732283
21
0.7185826771653543
0
LINE
8
BLACK
6
CONTINUOUS
10
0.7520866141732283
20
0.7185826771653543
11
0.7521615354330708
21
0.7189593307086614
0
LINE
8
BLACK
6
CONTINUOUS
10
0.7521615354330708
20
0.7189593307086614
11
0.7526942125984252
21
0.7194920078740157
0
LINE
8
BLACK
6
CONTINUOUS
10
0.7526942125984252
20
0.7194920078740157
11
0.8869291338582677
21
0.7195669291338582
0
LINE
8
BLACK
6
CONTINUOUS
10
0.8869291338582677
20
0.7195669291338582
11
0.8873057874015747
21
0.7194920078740157
0
LINE
8
BLACK
6
CONTINUOUS
10
0.7539814960629921
20
0.717598937007874
11
0.7540542125984252
21
0.6423274409448819
0
LINE
8
BLACK
6
CONTINUOUS
10
0.7540542125984252
20
0.6423274409448819
11
0.8860184645669291
21
0.6424011023622047
0
LINE
8
BLACK
6
CONTINUOUS
10
0.8860184645669291
20
0.6424011023622047
11
0.8859457480314961
21
0.7176725984251968
0
LINE
8
BLACK
6
CONTINUOUS
10
0.8859457480314961
20
0.7176725984251968
11
0.7539814960629921
21
0.717598937007874
0
LINE
8
BLACK
6
CONTINUOUS
10
2.1379357086614172
20
0.7227990944881889
11
2.1384683858267715
21
0.7222664173228346
0
LINE
8
BLACK
6
CONTINUOUS
10
2.1384683858267715
20
0.7222664173228346
11
2.1385433070866142
21
0.6447244094488189
0
LINE
8
BLACK
6
CONTINUOUS
10
2.1385433070866142
20
0.6447244094488189
11
2.1384683858267715
21
0.6443477559055117
0
LINE
8
BLACK
6
CONTINUOUS
10
2.1384683858267715
20
0.6443477559055117
11
2.1379357086614172
21
0.6438150787401574
0
LINE
8
BLACK
6
CONTINUOUS
10
2.1379357086614172
20
0.6438150787401574
11
2.0037007874015749
21
0.643740157480315
0
LINE
8
BLACK
6
CONTINUOUS
10
2.0037007874015749
20
0.643740157480315
11
2.0033241338582677
21
0.6438150787401574
0
LINE
8
BLACK
6
CONTINUOUS
10
2.0033241338582677
20
0.6438150787401574
11
2.0027914566929135
21
0.6443477559055117
0
LINE
8
BLACK
6
CONTINUOUS
10
2.0027914566929135
20
0.6443477559055117
11
2.0027165354330707
21
0.7218897637795275
0
LINE
8
BLACK
6
CONTINUOUS
10
2.0027165354330707
20
0.7218897637795275
11
2.0027914566929135
21
0.7222664173228346
0
LINE
8
BLACK
6
CONTINUOUS
10
2.0027914566929135
20
0.7222664173228346
11
2.0033241338582677
21
0.7227990944881889
0
LINE
8
BLACK
6
CONTINUOUS
10
2.0033241338582677
20
0.7227990944881889
11
2.1375590551181101
21
0.7228740157480315
0
LINE
8
BLACK
6
CONTINUOUS
10
2.1375590551181101
20
0.7228740157480315
11
2.1379357086614172
21
0.7227990944881889
0
LINE
8
BLACK
6
CONTINUOUS
10
2.0046114173228347
20
0.7209060236220473
11
2.0046841338582677
21
0.6456345275590551
0
LINE
8
BLACK
6
CONTINUOUS
10
2.0046841338582677
20
0.6456345275590551
11
2.1366483858267715
21
0.6457081889763779
0
LINE
8
BLACK
6
CONTINUOUS
10
2.1366483858267715
20
0.6457081889763779
11
2.1365756692913385
21
0.72097968503937
0
LINE
8
BLACK
6
CONTINUOUS
10
2.1365756692913385
20
0.72097968503937
11
2.0046114173228347
21
0.7209060236220473
0
LINE
8
BLACK
6
CONTINUOUS
10
1.3777664173228346
20
0.8861455511811024
11
1.378299094488189
21
0.8856128740157481
0
LINE
8
BLACK
6
CONTINUOUS
10
1.378299094488189
20
0.8856128740157481
11
1.3783740157480315
21
0.6647637795275591
0
LINE
8
BLACK
6
CONTINUOUS
10
1.3783740157480315
20
0.6647637795275591
11
1.378299094488189
21
0.664387125984252
0
LINE
8
BLACK
6
CONTINUOUS
10
1.378299094488189
20
0.664387125984252
11
1.3777664173228346
21
0.6638544488188977
0
LINE
8
BLACK
6
CONTINUOUS
10
1.3777664173228346
20
0.6638544488188977
11
1.0899881889763778
21
0.6637795275590551
0
LINE
8
BLACK
6
CONTINUOUS
10
1.0899881889763778
20
0.6637795275590551
11
1.0896115354330709
21
0.6638544488188977
0
LINE
8
BLACK
6
CONTINUOUS
10
1.0896115354330709
20
0.6638544488188977
11
1.0890788582677164
21
0.664387125984252
0
LINE
8
BLACK
6
CONTINUOUS
10
1.0890788582677164
20
0.664387125984252
11
1.0890039370078739
21
0.8852362204724409
0
LINE
8
BLACK
6
CONTINUOUS
10
1.0890039370078739
20
0.8852362204724409
11
1.0890788582677164
21
0.8856128740157481
0
LINE
8
BLACK
6
CONTINUOUS
10
1.0890788582677164
20
0.8856128740157481
11
1.0896115354330709
21
0.8861455511811024
0
LINE
8
BLACK
6
CONTINUOUS
10
1.0896115354330709
20
0.8861455511811024
11
1.3773897637795276
21
0.8862204724409448
0
LINE
8
BLACK
6
CONTINUOUS
10
1.3773897637795276
20
0.8862204724409448
11
1.3777664173228346
21
0.8861455511811024
0
LINE
8
BLACK
6
CONTINUOUS
10
1.0908979527559055
20
0.8842522440944882
11
1.090972125984252
21
0.6656734645669291
0
LINE
8
BLACK
6
CONTINUOUS
10
1.090972125984252
20
0.6656734645669291
11
1.3764799606299212
21
0.6657477952755906
0
LINE
8
BLACK
6
CONTINUOUS
10
1.3764799606299212
20
0.6657477952755906
11
1.3764057874015747
21
0.8843265748031496
0
LINE
8
BLACK
6
CONTINUOUS
10
1.3764057874015747
20
0.8843265748031496
11
1.0908979527559055
21
0.8842522440944882
0
LINE
8
BLACK
6
CONTINUOUS
10
2.303612874015748
20
0.9139801968503937
11
2.3041455511811022
21
0.9134475196850393
0
LINE
8
BLACK
6
CONTINUOUS
10
2.3041455511811022
20
0.9134475196850393
11
2.304220472440945
21
0.7335433070866142
0
LINE
8
BLACK
6
CONTINUOUS
10
2.304220472440945
20
0.7335433070866142
11
2.3041455511811022
21
0.7331666535433071
0
LINE
8
BLACK
6
CONTINUOUS
10
2.3041455511811022
20
0.7331666535433071
11
2.303612874015748
21
0.7326339763779527
0
LINE
8
BLACK
6
CONTINUOUS
10
2.303612874015748
20
0.7326339763779527
11
2.0036299212598423
21
0.7325590551181103
0
LINE
8
BLACK
6
CONTINUOUS
10
2.0036299212598423
20
0.7325590551181103
11
2.0032532677165356
21
0.7326339763779527
0
LINE
8
BLACK
6
CONTINUOUS
10
2.0032532677165356
20
0.7326339763779527
11
2.0027205905511809
21
0.7331666535433071
0
LINE
8
BLACK
6
CONTINUOUS
10
2.0027205905511809
20
0.7331666535433071
11
2.0026456692913386
21
0.9130708661417323
0
LINE
8
BLACK
6
CONTINUOUS
10
2.0026456692913386
20
0.9130708661417323
11
2.0027205905511809
21
0.9134475196850393
0
LINE
8
BLACK
6
CONTINUOUS
10
2.0027205905511809
20
0.9134475196850393
11
2.0032532677165356
21
0.9139801968503937
0
LINE
8
BLACK
6
CONTINUOUS
10
2.0032532677165356
20
0.9139801968503937
11
2.3032362204724408
21
0.9140551181102362
0
LINE
8
BLACK
6
CONTINUOUS
10
2.3032362204724408
20
0.9140551181102362
11
2.303612874015748
21
0.9139801968503937
0
LINE
8
BLACK
6
CONTINUOUS
10
2.0045398031496062
20
0.9120868503937007
11
2.0046137795275589
21
0.7344529921259842
0
LINE
8
BLACK
6
CONTINUOUS
10
2.0046137795275589
20
0.7344529921259842
11
2.3023262992125986
21
0.7345273622047244
0
LINE
8
BLACK
6
CONTINUOUS
10
2.3023262992125986
20
0.7345273622047244
11
2.3022523228346454
21
0.912161220472441
0
LINE
8
BLACK
6
CONTINUOUS
10
2.3022523228346454
20
0.912161220472441
11
2.0045398031496062
21
0.9120868503937007
0
LINE
8
BLACK
6
CONTINUOUS
10
1.9915892519685039
20
0.9151455511811023
11
1.9921219291338583
21
0.914612874015748
0
LINE
8
BLACK
6
CONTINUOUS
10
1.9921219291338583
20
0.914612874015748
11
1.9921968503937006
21
0.7803779527559055
0
LINE
8
BLACK
6
CONTINUOUS
10
1.9921968503937006
20
0.7803779527559055
11
1.9921219291338583
21
0.7800012992125984
0
LINE
8
BLACK
6
CONTINUOUS
10
1.9921219291338583
20
0.7800012992125984
11
1.9915892519685039
21
0.7794686220472441
0
LINE
8
BLACK
6
CONTINUOUS
10
1.9915892519685039
20
0.7794686220472441
11
1.9140472440944882
21
0.7793937007874016
0
LINE
8
BLACK
6
CONTINUOUS
10
1.9140472440944882
20
0.7793937007874016
11
1.913670590551181
21
0.7794686220472441
0
LINE
8
BLACK
6
CONTINUOUS
10
1.913670590551181
20
0.7794686220472441
11
1.9131379133858268
21
0.7800012992125984
0
LINE
8
BLACK
6
CONTINUOUS
10
1.9131379133858268
20
0.7800012992125984
11
1.9130629921259843
21
0.9142362204724409
0
LINE
8
BLACK
6
CONTINUOUS
10
1.9130629921259843
20
0.9142362204724409
11
1.9131379133858268
21
0.914612874015748
0
LINE
8
BLACK
6
CONTINUOUS
10
1.9131379133858268
20
0.914612874015748
11
1.913670590551181
21
0.9151455511811023
0
LINE
8
BLACK
6
CONTINUOUS
10
1.913670590551181
20
0.9151455511811023
11
1.9912125984251967
21
0.9152204724409448
0
LINE
8
BLACK
6
CONTINUOUS
10
1.9912125984251967
20
0.9152204724409448
11
1.9915892519685039
21
0.9151455511811023
0
LINE
8
BLACK
6
CONTINUOUS
10
1.9149573228346457
20
0.9132528740157481
11
1.9150309842519684
21
0.781288622047244
0
LINE
8
BLACK
6
CONTINUOUS
10
1.9150309842519684
20
0.781288622047244
11
1.9903024803149605
21
0.7813613385826772
0
LINE
8
BLACK
6
CONTINUOUS
10
1.9903024803149605
20
0.7813613385826772
11
1.9902288188976378
21
0.9133255905511811
0
LINE
8
BLACK
6
CONTINUOUS
10
1.9902288188976378
20
0.9133255905511811
11
1.9149573228346457
21
0.9132528740157481
0
LINE
8
BLACK
6
CONTINUOUS
10
0.9389593307086614
20
1.0278384645669292
11
0.9394920078740158
21
1.0273057874015747
0
LINE
8
BLACK
6
CONTINUOUS
10
0.9394920078740158
20
1.0273057874015747
11
0.9395669291338582
21
0.8930708661417323
0
LINE
8
BLACK
6
CONTINUOUS
10
0.9395669291338582
20
0.8930708661417323
11
0.9394920078740158
21
0.8926942125984252
0
LINE
8
BLACK
6
CONTINUOUS
10
0.9394920078740158
20
0.8926942125984252
11
0.9389593307086614
21
0.8921615354330709
0
LINE
8
BLACK
6
CONTINUOUS
10
0.9389593307086614
20
0.8921615354330709
11
0.8614173228346457
21
0.8920866141732283
0
LINE
8
BLACK
6
CONTINUOUS
10
0.8614173228346457
20
0.8920866141732283
11
0.8610406692913386
21
0.8921615354330709
0
LINE
8
BLACK
6
CONTINUOUS
10
0.8610406692913386
20
0.8921615354330709
11
0.8605079921259843
21
0.8926942125984252
0
LINE
8
BLACK
6
CONTINUOUS
10
0.8605079921259843
20
0.8926942125984252
11
0.8604330708661417
21
1.0269291338582678
0
LINE
8
BLACK
6
CONTINUOUS
10
0.8604330708661417
20
1.0269291338582678
11
0.8605079921259843
21
1.0273057874015747
0
LINE
8
BLACK
6
CONTINUOUS
10
0.8605079921259843
20
1.0273057874015747
11
0.8610406692913386
21
1.0278384645669292
0
LINE
8
BLACK
6
CONTINUOUS
10
0.8610406692913386
20
1.0278384645669292
11
0.9385826771653543
21
1.0279133858267717
0
LINE
8
BLACK
6
CONTINUOUS
10
0.9385826771653543
20
1.0279133858267717
11
0.9389593307086614
21
1.0278384645669292
0
LINE
8
BLACK
6
CONTINUOUS
10
0.8623274015748031
20
1.0259457874015747
11
0.8624010629921259
21
0.8939815354330708
0
LINE
8
BLACK
6
CONTINUOUS
10
0.8624010629921259
20
0.8939815354330708
11
0.937672559055118
21
0.894054251968504
0
LINE
8
BLACK
6
CONTINUOUS
10
0.937672559055118
20
0.894054251968504
11
0.9375988976377952
21
1.0260185039370078
0
LINE
8
BLACK
6
CONTINUOUS
10
0.9375988976377952
20
1.0260185039370078
11
0.8623274015748031
21
1.0259457874015747
0
LINE
8
BLACK
6
CONTINUOUS
10
1.0239593307086614
20
1.0278384645669292
11
1.0244920078740156
21
1.0273057874015747
0
LINE
8
BLACK
6
CONTINUOUS
10
1.0244920078740156
20
1.0273057874015747
11
1.0245669291338582
21
0.8930708661417323
0
LINE
8
BLACK
6
CONTINUOUS
10
1.0245669291338582
20
0.8930708661417323
11
1.0244920078740156
21
0.8926942125984252
0
LINE
8
BLACK
6
CONTINUOUS
10
1.0244920078740156
20
0.8926942125984252
11
1.0239593307086614
21
0.8921615354330709
0
LINE
8
BLACK
6
CONTINUOUS
10
1.0239593307086614
20
0.8921615354330709
11
0.9464173228346456
21
0.8920866141732283
0
LINE
8
BLACK
6
CONTINUOUS
10
0.9464173228346456
20
0.8920866141732283
11
0.9460406692913386
21
0.8921615354330709
0
LINE
8
BLACK
6
CONTINUOUS
10
0.9460406692913386
20
0.8921615354330709
11
0.9455079921259842
21
0.8926942125984252
0
LINE
8
BLACK
6
CONTINUOUS
10
0.9455079921259842
20
0.8926942125984252
11
0.9454330708661417
21
1.0269291338582678
0
LINE
8
BLACK
6
CONTINUOUS
10
0.9454330708661417
20
1.0269291338582678
11
0.9455079921259842
21
1.0273057874015747
0
LINE
8
BLACK
6
CONTINUOUS
10
0.9455079921259842
20
1.0273057874015747
11
0.9460406692913386
21
1.0278384645669292
0
LINE
8
BLACK
6
CONTINUOUS
10
0.9460406692913386
20
1.0278384645669292
11
1.0235826771653542
21
1.0279133858267717
0
LINE
8
BLACK
6
CONTINUOUS
10
1.0235826771653542
20
1.0279133858267717
11
1.0239593307086614
21
1.0278384645669292
0
LINE
8
BLACK
6
CONTINUOUS
10
0.9473274015748031
20
1.0259457874015747
11
0.947401062992126
21
0.8939815354330708
0
LINE
8
BLACK
6
CONTINUOUS
10
0.947401062992126
20
0.8939815354330708
11
1.022672559055118
21
0.894054251968504
0
LINE
8
BLACK
6
CONTINUOUS
10
1.022672559055118
20
0.894054251968504
11
1.0225988976377953
21
1.0260185039370078
0
LINE
8
BLACK
6
CONTINUOUS
10
1.0225988976377953
20
1.0260185039370078
11
0.9473274015748031
21
1.0259457874015747
0
LINE
8
BLACK
6
CONTINUOUS
10
1.1089593307086614
20
1.0278384645669292
11
1.1094920078740158
21
1.0273057874015747
0
LINE
8
BLACK
6
CONTINUOUS
10
1.1094920078740158
20
1.0273057874015747
11
1.1095669291338583
21
0.8930708661417323
0
LINE
8
BLACK
6
CONTINUOUS
10
1.1095669291338583
20
0.8930708661417323
11
1.1094920078740158
21
0.8926942125984252
0
LINE
8
BLACK
6
CONTINUOUS
10
1.1094920078740158
20
0.8926942125984252
11
1.1089593307086614
21
0.8921615354330709
0
LINE
8
BLACK
6
CONTINUOUS
10
1.1089593307086614
20
0.8921615354330709
11
1.0314173228346457
21
0.8920866141732283
0
LINE
8
BLACK
6
CONTINUOUS
10
1.0314173228346457
20
0.8920866141732283
11
1.0310406692913385
21
0.8921615354330709
0
LINE
8
BLACK
6
CONTINUOUS
10
1.0310406692913385
20
0.8921615354330709
11
1.0305079921259843
21
0.8926942125984252
0
LINE
8
BLACK
6
CONTINUOUS
10
1.0305079921259843
20
0.8926942125984252
11
1.0304330708661418
21
1.0269291338582678
0
LINE
8
BLACK
6
CONTINUOUS
10
1.0304330708661418
20
1.0269291338582678
11
1.0305079921259843
21
1.0273057874015747
0
LINE
8
BLACK
6
CONTINUOUS
10
1.0305079921259843
20
1.0273057874015747
11
1.0310406692913385
21
1.0278384645669292
0
LINE
8
BLACK
6
CONTINUOUS
10
1.0310406692913385
20
1.0278384645669292
11
1.1085826771653544
21
1.0279133858267717
0
LINE
8
BLACK
6
CONTINUOUS
10
1.1085826771653544
20
1.0279133858267717
11
1.1089593307086614
21
1.0278384645669292
0
LINE
8
BLACK
6
CONTINUOUS
10
1.0323274015748032
20
1.0259457874015747
11
1.0324010629921259
21
0.8939815354330708
0
LINE
8
BLACK
6
CONTINUOUS
10
1.0324010629921259
20
0.8939815354330708
11
1.1076725590551182
21
0.894054251968504
0
LINE
8
BLACK
6
CONTINUOUS
10
1.1076725590551182
20
0.894054251968504
11
1.1075988976377953
21
1.0260185039370078
0
LINE
8
BLACK
6
CONTINUOUS
10
1.1075988976377953
20
1.0260185039370078
11
1.0323274015748032
21
1.0259457874015747
0
LINE
8
BLACK
6
CONTINUOUS
10
1.811589251968504
20
1.0311455511811023
11
1.8121219291338582
21
1.0306128740157481
0
LINE
8
BLACK
6
CONTINUOUS
10
1.8121219291338582
20
1.0306128740157481
11
1.8121968503937007
21
0.8963779527559055
0
LINE
8
BLACK
6
CONTINUOUS
10
1.8121968503937007
20
0.8963779527559055
11
1.8121219291338582
21
0.8960012992125984
0
LINE
8
BLACK
6
CONTINUOUS
10
1.8121219291338582
20
0.8960012992125984
11
1.811589251968504
21
0.8954686220472441
0
LINE
8
BLACK
6
CONTINUOUS
10
1.811589251968504
20
0.8954686220472441
11
1.7340472440944881
21
0.8953937007874015
0
LINE
8
BLACK
6
CONTINUOUS
10
1.7340472440944881
20
0.8953937007874015
11
1.7336705905511811
21
0.8954686220472441
0
LINE
8
BLACK
6
CONTINUOUS
10
1.7336705905511811
20
0.8954686220472441
11
1.7331379133858267
21
0.8960012992125984
0
LINE
8
BLACK
6
CONTINUOUS
10
1.7331379133858267
20
0.8960012992125984
11
1.7330629921259841
21
1.0302362204724409
0
LINE
8
BLACK
6
CONTINUOUS
10
1.7330629921259841
20
1.0302362204724409
11
1.7331379133858267
21
1.0306128740157481
0
LINE
8
BLACK
6
CONTINUOUS
10
1.7331379133858267
20
1.0306128740157481
11
1.7336705905511811
21
1.0311455511811023
0
LINE
8
BLACK
6
CONTINUOUS
10
1.7336705905511811
20
1.0311455511811023
11
1.8112125984251968
21
1.0312204724409448
0
LINE
8
BLACK
6
CONTINUOUS
10
1.8112125984251968
20
1.0312204724409448
11
1.811589251968504
21
1.0311455511811023
0
LINE
8
BLACK
6
CONTINUOUS
10
1.7349573228346455
20
1.0292528740157481
11
1.7350309842519684
21
0.897288622047244
0
LINE
8
BLACK
6
CONTINUOUS
10
1.7350309842519684
20
0.897288622047244
11
1.8103024803149605
21
0.8973613385826772
0
LINE
8
BLACK
6
CONTINUOUS
10
1.8103024803149605
20
0.8973613385826772
11
1.8102288188976376
21
1.0293255905511811
0
LINE
8
BLACK
6
CONTINUOUS
10
1.8102288188976376
20
1.0293255905511811
11
1.7349573228346455
21
1.0292528740157481
0
LINE
8
BLACK
6
CONTINUOUS
10
1.8965892519685039
20
1.0311455511811023
11
1.8971219291338581
21
1.0306128740157481
0
LINE
8
BLACK
6
CONTINUOUS
10
1.8971219291338581
20
1.0306128740157481
11
1.8971968503937007
21
0.8963779527559055
0
LINE
8
BLACK
6
CONTINUOUS
10
1.8971968503937007
20
0.8963779527559055
11
1.8971219291338581
21
0.8960012992125984
0
LINE
8
BLACK
6
CONTINUOUS
10
1.8971219291338581
20
0.8960012992125984
11
1.8965892519685039
21
0.8954686220472441
0
LINE
8
BLACK
6
CONTINUOUS
10
1.8965892519685039
20
0.8954686220472441
11
1.8190472440944883
21
0.8953937007874015
0
LINE
8
BLACK
6
CONTINUOUS
10
1.8190472440944883
20
0.8953937007874015
11
1.8186705905511811
21
0.8954686220472441
0
LINE
8
BLACK
6
CONTINUOUS
10
1.8186705905511811
20
0.8954686220472441
11
1.8181379133858266
21
0.8960012992125984
0
LINE
8
BLACK
6
CONTINUOUS
10
1.8181379133858266
20
0.8960012992125984
11
1.8180629921259841
21
1.0302362204724409
0
LINE
8
BLACK
6
CONTINUOUS
10
1.8180629921259841
20
1.0302362204724409
11
1.8181379133858266
21
1.0306128740157481
0
LINE
8
BLACK
6
CONTINUOUS
10
1.8181379133858266
20
1.0306128740157481
11
1.8186705905511811
21
1.0311455511811023
0
LINE
8
BLACK
6
CONTINUOUS
10
1.8186705905511811
20
1.0311455511811023
11
1.8962125984251967
21
1.0312204724409448
0
LINE
8
BLACK
6
CONTINUOUS
10
1.8962125984251967
20
1.0312204724409448
11
1.8965892519685039
21
1.0311455511811023
0
LINE
8
BLACK
6
CONTINUOUS
10
1.8199573228346457
20
1.0292528740157481
11
1.8200309842519684
21
0.897288622047244
0
LINE
8
BLACK
6
CONTINUOUS
10
1.8200309842519684
20
0.897288622047244
11
1.8953024803149605
21
0.8973613385826772
0
LINE
8
BLACK
6
CONTINUOUS
10
1.8953024803149605
20
0.8973613385826772
11
1.8952288188976378
21
1.0293255905511811
0
LINE
8
BLACK
6
CONTINUOUS
10
1.8952288188976378
20
1.0293255905511811
11
1.8199573228346457
21
1.0292528740157481
0
LINE
8
BLACK
6
CONTINUOUS
10
1.4389593307086614
20
1.0328384645669291
11
1.4394920078740157
21
1.0323057874015749
0
LINE
8
BLACK
6
CONTINUOUS
10
1.4394920078740157
20
1.0323057874015749
11
1.4395669291338582
21
0.8980708661417323
0
LINE
8
BLACK
6
CONTINUOUS
10
1.4395669291338582
20
0.8980708661417323
11
1.4394920078740157
21
0.8976942125984252
0
LINE
8
BLACK
6
CONTINUOUS
10
1.4394920078740157
20
0.8976942125984252
11
1.4389593307086614
21
0.8971615354330709
0
LINE
8
BLACK
6
CONTINUOUS
10
1.4389593307086614
20
0.8971615354330709
11
1.3614173228346456
21
0.8970866141732283
0
LINE
8
BLACK
6
CONTINUOUS
10
1.3614173228346456
20
0.8970866141732283
11
1.3610406692913386
21
0.8971615354330709
0
LINE
8
BLACK
6
CONTINUOUS
10
1.3610406692913386
20
0.8971615354330709
11
1.3605079921259842
21
0.8976942125984252
0
LINE
8
BLACK
6
CONTINUOUS
10
1.3605079921259842
20
0.8976942125984252
11
1.3604330708661416
21
1.0319291338582677
0
LINE
8
BLACK
6
CONTINUOUS
10
1.3604330708661416
20
1.0319291338582677
11
1.3605079921259842
21
1.0323057874015749
0
LINE
8
BLACK
6
CONTINUOUS
10
1.3605079921259842
20
1.0323057874015749
11
1.3610406692913386
21
1.0328384645669291
0
LINE
8
BLACK
6
CONTINUOUS
10
1.3610406692913386
20
1.0328384645669291
11
1.4385826771653543
21
1.0329133858267716
0
LINE
8
BLACK
6
CONTINUOUS
10
1.4385826771653543
20
1.0329133858267716
11
1.4389593307086614
21
1.0328384645669291
0
LINE
8
BLACK
6
CONTINUOUS
10
1.362327401574803
20
1.0309457874015748
11
1.3624010629921259
21
0.8989815354330708
0
LINE
8
BLACK
6
CONTINUOUS
10
1.3624010629921259
20
0.8989815354330708
11
1.437672559055118
21
0.899054251968504
0
LINE
8
BLACK
6
CONTINUOUS
10
1.437672559055118
20
0.899054251968504
11
1.4375988976377951
21
1.0310185039370079
0
LINE
8
BLACK
6
CONTINUOUS
10
1.4375988976377951
20
1.0310185039370079
11
1.362327401574803
21
1.0309457874015748
0
LINE
8
BLACK
6
CONTINUOUS
10
1.5239593307086614
20
1.0328384645669291
11
1.5244920078740156
21
1.0323057874015749
0
LINE
8
BLACK
6
CONTINUOUS
10
1.5244920078740156
20
1.0323057874015749
11
1.5245669291338582
21
0.8980708661417323
0
LINE
8
BLACK
6
CONTINUOUS
10
1.5245669291338582
20
0.8980708661417323
11
1.5244920078740156
21
0.8976942125984252
0
LINE
8
BLACK
6
CONTINUOUS
10
1.5244920078740156
20
0.8976942125984252
11
1.5239593307086614
21
0.8971615354330709
0
LINE
8
BLACK
6
CONTINUOUS
10
1.5239593307086614
20
0.8971615354330709
11
1.4464173228346457
21
0.8970866141732283
0
LINE
8
BLACK
6
CONTINUOUS
10
1.4464173228346457
20
0.8970866141732283
11
1.4460406692913386
21
0.8971615354330709
0
LINE
8
BLACK
6
CONTINUOUS
10
1.4460406692913386
20
0.8971615354330709
11
1.4455079921259841
21
0.8976942125984252
0
LINE
8
BLACK
6
CONTINUOUS
10
1.4455079921259841
20
0.8976942125984252
11
1.4454330708661416
21
1.0319291338582677
0
LINE
8
BLACK
6
CONTINUOUS
10
1.4454330708661416
20
1.0319291338582677
11
1.4455079921259841
21
1.0323057874015749
0
LINE
8
BLACK
6
CONTINUOUS
10
1.4455079921259841
20
1.0323057874015749
11
1.4460406692913386
21
1.0328384645669291
0
LINE
8
BLACK
6
CONTINUOUS
10
1.4460406692913386
20
1.0328384645669291
11
1.5235826771653542
21
1.0329133858267716
0
LINE
8
BLACK
6
CONTINUOUS
10
1.5235826771653542
20
1.0329133858267716
11
1.5239593307086614
21
1.0328384645669291
0
LINE
8
BLACK
6
CONTINUOUS
10
1.4473274015748032
20
1.0309457874015748
11
1.4474010629921259
21
0.8989815354330708
0
LINE
8
BLACK
6
CONTINUOUS
10
1.4474010629921259
20
0.8989815354330708
11
1.522672559055118
21
0.899054251968504
0
LINE
8
BLACK
6
CONTINUOUS
10
1.522672559055118
20
0.899054251968504
11
1.5225988976377953
21
1.0310185039370079
0
LINE
8
BLACK
6
CONTINUOUS
10
1.5225988976377953
20
1.0310185039370079
11
1.4473274015748032
21
1.0309457874015748
0
LINE
8
BLACK
6
CONTINUOUS
10
1.6089593307086614
20
1.0328384645669291
11
1.6094920078740158
21
1.0323057874015749
0
LINE
8
BLACK
6
CONTINUOUS
10
1.6094920078740158
20
1.0323057874015749
11
1.6095669291338581
21
0.8980708661417323
0
LINE
8
BLACK
6
CONTINUOUS
10
1.6095669291338581
20
0.8980708661417323
11
1.6094920078740158
21
0.8976942125984252
0
LINE
8
BLACK
6
CONTINUOUS
10
1.6094920078740158
20
0.8976942125984252
11
1.6089593307086614
21
0.8971615354330709
0
LINE
8
BLACK
6
CONTINUOUS
10
1.6089593307086614
20
0.8971615354330709
11
1.5314173228346457
21
0.8970866141732283
0
LINE
8
BLACK
6
CONTINUOUS
10
1.5314173228346457
20
0.8970866141732283
11
1.5310406692913385
21
0.8971615354330709
0
LINE
8
BLACK
6
CONTINUOUS
10
1.5310406692913385
20
0.8971615354330709
11
1.5305079921259843
21
0.8976942125984252
0
LINE
8
BLACK
6
CONTINUOUS
10
1.5305079921259843
20
0.8976942125984252
11
1.5304330708661418
21
1.0319291338582677
0
LINE
8
BLACK
6
CONTINUOUS
10
1.5304330708661418
20
1.0319291338582677
11
1.5305079921259843
21
1.0323057874015749
0
LINE
8
BLACK
6
CONTINUOUS
10
1.5305079921259843
20
1.0323057874015749
11
1.5310406692913385
21
1.0328384645669291
0
LINE
8
BLACK
6
CONTINUOUS
10
1.5310406692913385
20
1.0328384645669291
11
1.6085826771653542
21
1.0329133858267716
0
LINE
8
BLACK
6
CONTINUOUS
10
1.6085826771653542
20
1.0329133858267716
11
1.6089593307086614
21
1.0328384645669291
0
LINE
8
BLACK
6
CONTINUOUS
10
1.5323274015748032
20
1.0309457874015748
11
1.5324010629921259
21
0.8989815354330708
0
LINE
8
BLACK
6
CONTINUOUS
10
1.5324010629921259
20
0.8989815354330708
11
1.607672559055118
21
0.899054251968504
0
LINE
8
BLACK
6
CONTINUOUS
10
1.607672559055118
20
0.899054251968504
11
1.6075988976377953
21
1.0310185039370079
0
LINE
8
BLACK
6
CONTINUOUS
10
1.6075988976377953
20
1.0310185039370079
11
1.5323274015748032
21
1.0309457874015748
0
LINE
8
BLACK
6
CONTINUOUS
10
2.2040459448818899
20
1.1422085433070865
11
2.2045786220472441
21
1.1416758661417323
0
LINE
8
BLACK
6
CONTINUOUS
10
2.2045786220472441
20
1.1416758661417323
11
2.2046535433070864
21
0.9287007874015748
0
LINE
8
BLACK
6
CONTINUOUS
10
2.2046535433070864
20
0.9287007874015748
11
2.2045786220472441
21
0.9283241338582677
0
LINE
8
BLACK
6
CONTINUOUS
10
2.2045786220472441
20
0.9283241338582677
11
2.2040459448818899
21
0.9277914566929134
0
LINE
8
BLACK
6
CONTINUOUS
10
2.2040459448818899
20
0.9277914566929134
11
1.9123307086614172
21
0.9277165354330709
0
LINE
8
BLACK
6
CONTINUOUS
10
1.9123307086614172
20
0.9277165354330709
11
1.9119540551181102
21
0.9277914566929134
0
LINE
8
BLACK
6
CONTINUOUS
10
1.9119540551181102
20
0.9277914566929134
11
1.9114213779527558
21
0.9283241338582677
0
LINE
8
BLACK
6
CONTINUOUS
10
1.9114213779527558
20
0.9283241338582677
11
1.9113464566929133
21
1.1412992125984252
0
LINE
8
BLACK
6
CONTINUOUS
10
1.9113464566929133
20
1.1412992125984252
11
1.9114213779527558
21
1.1416758661417323
0
LINE
8
BLACK
6
CONTINUOUS
10
1.9114213779527558
20
1.1416758661417323
11
1.9119540551181102
21
1.1422085433070865
0
LINE
8
BLACK
6
CONTINUOUS
10
1.9119540551181102
20
1.1422085433070865
11
2.2036692913385827
21
1.1422834645669291
0
LINE
8
BLACK
6
CONTINUOUS
10
2.2036692913385827
20
1.1422834645669291
11
2.2040459448818899
21
1.1422085433070865
0
LINE
8
BLACK
6
CONTINUOUS
10
1.9132405118110236
20
1.1403151968503937
11
1.9133146062992126
21
0.9296104724409449
0
LINE
8
BLACK
6
CONTINUOUS
10
1.9133146062992126
20
0.9296104724409449
11
2.2027594488188975
21
0.929684842519685
0
LINE
8
BLACK
6
CONTINUOUS
10
2.2027594488188975
20
0.929684842519685
11
2.2026853543307086
21
1.1403895669291337
0
LINE
8
BLACK
6
CONTINUOUS
10
2.2026853543307086
20
1.1403895669291337
11
1.9132405118110236
21
1.1403151968503937
0
LINE
8
BLACK
6
CONTINUOUS
10
2.2979593307086614
20
1.0668384645669291
11
2.2984920078740156
21
1.0663057874015749
0
LINE
8
BLACK
6
CONTINUOUS
10
2.2984920078740156
20
1.0663057874015749
11
2.2985669291338584
21
0.9320708661417323
0
LINE
8
BLACK
6
CONTINUOUS
10
2.2985669291338584
20
0.9320708661417323
11
2.2984920078740156
21
0.9316942125984252
0
LINE
8
BLACK
6
CONTINUOUS
10
2.2984920078740156
20
0.9316942125984252
11
2.2979593307086614
21
0.9311615354330709
0
LINE
8
BLACK
6
CONTINUOUS
10
2.2979593307086614
20
0.9311615354330709
11
2.2204173228346455
21
0.9310866141732284
0
LINE
8
BLACK
6
CONTINUOUS
10
2.2204173228346455
20
0.9310866141732284
11
2.2200406692913384
21
0.9311615354330709
0
LINE
8
BLACK
6
CONTINUOUS
10
2.2200406692913384
20
0.9311615354330709
11
2.2195079921259842
21
0.9316942125984252
0
LINE
8
BLACK
6
CONTINUOUS
10
2.2195079921259842
20
0.9316942125984252
11
2.2194330708661418
21
1.0659291338582677
0
LINE
8
BLACK
6
CONTINUOUS
10
2.2194330708661418
20
1.0659291338582677
11
2.2195079921259842
21
1.0663057874015749
0
LINE
8
BLACK
6
CONTINUOUS
10
2.2195079921259842
20
1.0663057874015749
11
2.2200406692913384
21
1.0668384645669291
0
LINE
8
BLACK
6
CONTINUOUS
10
2.2200406692913384
20
1.0668384645669291
11
2.2975826771653542
21
1.0669133858267716
0
LINE
8
BLACK
6
CONTINUOUS
10
2.2975826771653542
20
1.0669133858267716
11
2.2979593307086614
21
1.0668384645669291
0
LINE
8
BLACK
6
CONTINUOUS
10
2.2213274015748032
20
1.0649457874015749
11
2.2214010629921259
21
0.9329815354330708
0
LINE
8
BLACK
6
CONTINUOUS
10
2.2214010629921259
20
0.9329815354330708
11
2.2966725590551182
21
0.9330542519685039
0
LINE
8
BLACK
6
CONTINUOUS
10
2.2966725590551182
20
0.9330542519685039
11
2.2965988976377951
21
1.0650185039370079
0
LINE
8
BLACK
6
CONTINUOUS
10
2.2965988976377951
20
1.0650185039370079
11
2.2213274015748032
21
1.0649457874015749
0
LINE
8
BLACK
6
CONTINUOUS
10
2.7927165748031495
20
1.0504342519685039
11
2.8011683464566928
21
1.0481696062992125
0
LINE
8
BLACK
6
CONTINUOUS
10
2.8011683464566928
20
1.0481696062992125
11
2.8090984251968503
21
1.0444717322834645
0
LINE
8
BLACK
6
CONTINUOUS
10
2.8090984251968503
20
1.0444717322834645
11
2.8162659055118109
21
1.0394530314960631
0
LINE
8
BLACK
6
CONTINUOUS
10
2.8162659055118109
20
1.0394530314960631
11
2.822453031496063
21
1.033265905511811
0
LINE
8
BLACK
6
CONTINUOUS
10
2.822453031496063
20
1.033265905511811
11
2.8274717322834646
21
1.0260984251968504
0
LINE
8
BLACK
6
CONTINUOUS
10
2.8274717322834646
20
1.0260984251968504
11
2.8311696062992127
21
1.0181683464566929
0
LINE
8
BLACK
6
CONTINUOUS
10
2.8311696062992127
20
1.0181683464566929
11
2.8334342519685038
21
1.0097165748031496
0
LINE
8
BLACK
6
CONTINUOUS
10
2.8334342519685038
20
1.0097165748031496
11
2.8341968503937007
21
1.0009999999999999
0
LINE
8
BLACK
6
CONTINUOUS
10
2.8341968503937007
20
1.0009999999999999
11
2.8334342519685038
21
0.9922834251968504
0
LINE
8
BLACK
6
CONTINUOUS
10
2.8334342519685038
20
0.9922834251968504
11
2.8311696062992127
21
0.983831653543307
0
LINE
8
BLACK
6
CONTINUOUS
10
2.8311696062992127
20
0.983831653543307
11
2.8274717322834646
21
0.9759015748031495
0
LINE
8
BLACK
6
CONTINUOUS
10
2.8274717322834646
20
0.9759015748031495
11
2.822453031496063
21
0.9687340944881889
0
LINE
8
BLACK
6
CONTINUOUS
10
2.822453031496063
20
0.9687340944881889
11
2.8162659055118109
21
0.962546968503937
0
LINE
8
BLACK
6
CONTINUOUS
10
2.8162659055118109
20
0.962546968503937
11
2.8090984251968503
21
0.9575282677165354
0
LINE
8
BLACK
6
CONTINUOUS
10
2.8090984251968503
20
0.9575282677165354
11
2.8011683464566928
21
0.9538303937007874
0
LINE
8
BLACK
6
CONTINUOUS
10
2.8011683464566928
20
0.9538303937007874
11
2.7927165748031495
21
0.9515657480314961
0
LINE
8
BLACK
6
CONTINUOUS
10
2.7927165748031495
20
0.9515657480314961
11
2.7839999999999998
21
0.9508031496062992
0
LINE
8
BLACK
6
CONTINUOUS
10
2.7839999999999998
20
0.9508031496062992
11
2.7752834251968501
21
0.9515657480314961
0
LINE
8
BLACK
6
CONTINUOUS
10
2.7752834251968501
20
0.9515657480314961
11
2.7668316535433068
21
0.9538303937007874
0
LINE
8
BLACK
6
CONTINUOUS
10
2.7668316535433068
20
0.9538303937007874
11
2.7589015748031493
21
0.9575282677165354
0
LINE
8
BLACK
6
CONTINUOUS
10
2.7589015748031493
20
0.9575282677165354
11
2.7517340944881887
21
0.962546968503937
0
LINE
8
BLACK
6
CONTINUOUS
10
2.7517340944881887
20
0.962546968503937
11
2.7455469685039371
21
0.9687340944881889
0
LINE
8
BLACK
6
CONTINUOUS
10
2.7455469685039371
20
0.9687340944881889
11
2.7405282677165355
21
0.9759015748031495
0
LINE
8
BLACK
6
CONTINUOUS
10
2.7405282677165355
20
0.9759015748031495
11
2.7368303937007874
21
0.983831653543307
0
LINE
8
BLACK
6
CONTINUOUS
10
2.7368303937007874
20
0.983831653543307
11
2.7345657480314962
21
0.9922834251968504
0
LINE
8
BLACK
6
CONTINUOUS
10
2.7345657480314962
20
0.9922834251968504
11
2.7338031496062993
21
1.0009999999999999
0
LINE
8
BLACK
6
CONTINUOUS
10
2.7338031496062993
20
1.0009999999999999
11
2.7345657480314962
21
1.0097165748031496
0
LINE
8
BLACK
6
CONTINUOUS
10
2.7345657480314962
20
1.0097165748031496
11
2.7368303937007874
21
1.0181683464566929
0
LINE
8
BLACK
6
CONTINUOUS
10
2.7368303937007874
20
1.0181683464566929
11
2.7405282677165355
21
1.0260984251968504
0
LINE
8
BLACK
6
CONTINUOUS
10
2.7405282677165355
20
1.0260984251968504
11
2.7455469685039371
21
1.033265905511811
0
LINE
8
BLACK
6
CONTINUOUS
10
2.7455469685039371
20
1.033265905511811
11
2.7517340944881887
21
1.0394530314960631
0
LINE
8
BLACK
6
CONTINUOUS
10
2.7517340944881887
20
1.0394530314960631
11
2.7589015748031493
21
1.0444717322834645
0
LINE
8
BLACK
6
CONTINUOUS
10
2.7589015748031493
20
1.0444717322834645
11
2.7668316535433068
21
1.0481696062992125
0
LINE
8
BLACK
6
CONTINUOUS
10
2.7668316535433068
20
1.0481696062992125
11
2.7752834251968501
21
1.0504342519685039
0
LINE
8
BLACK
6
CONTINUOUS
10
2.7752834251968501
20
1.0504342519685039
11
2.7839999999999998
21
1.0511968503937008
0
LINE
8
BLACK
6
CONTINUOUS
10
2.7839999999999998
20
1.0511968503937008
11
2.7927165748031495
21
1.0504342519685039
0
LINE
8
BLACK
6
CONTINUOUS
10
2.7363229527559056
20
0.9925932283464567
11
2.738507086614173
21
0.9844419291338582
0
LINE
8
BLACK
6
CONTINUOUS
10
2.738507086614173
20
0.9844419291338582
11
2.7420735039370077
21
0.9767937007874016
0
LINE
8
BLACK
6
CONTINUOUS
10
2.7420735039370077
20
0.9767937007874016
11
2.7469138188976379
21
0.9698810236220472
0
LINE
8
BLACK
6
CONTINUOUS
10
2.7469138188976379
20
0.9698810236220472
11
2.7528810236220473
21
0.9639138188976377
0
LINE
8
BLACK
6
CONTINUOUS
10
2.7528810236220473
20
0.9639138188976377
11
2.7597937007874016
21
0.9590735039370079
0
LINE
8
BLACK
6
CONTINUOUS
10
2.7597937007874016
20
0.9590735039370079
11
2.7674419291338581
21
0.9555070866141732
0
LINE
8
BLACK
6
CONTINUOUS
10
2.7674419291338581
20
0.9555070866141732
11
2.7755932283464566
21
0.9533229527559055
0
LINE
8
BLACK
6
CONTINUOUS
10
2.7755932283464566
20
0.9533229527559055
11
2.7839999999999998
21
0.9525874409448819
0
LINE
8
BLACK
6
CONTINUOUS
10
2.7839999999999998
20
0.9525874409448819
11
2.7924067716535435
21
0.9533229527559055
0
LINE
8
BLACK
6
CONTINUOUS
10
2.7924067716535435
20
0.9533229527559055
11
2.8005580708661415
21
0.9555070866141732
0
LINE
8
BLACK
6
CONTINUOUS
10
2.8005580708661415
20
0.9555070866141732
11
2.8082062992125985
21
0.9590735039370079
0
LINE
8
BLACK
6
CONTINUOUS
10
2.8082062992125985
20
0.9590735039370079
11
2.8151189763779527
21
0.9639138188976377
0
LINE
8
BLACK
6
CONTINUOUS
10
2.8151189763779527
20
0.9639138188976377
11
2.8210861811023622
21
0.9698810236220472
0
LINE
8
BLACK
6
CONTINUOUS
10
2.8210861811023622
20
0.9698810236220472
11
2.825926496062992
21
0.9767937007874016
0
LINE
8
BLACK
6
CONTINUOUS
10
2.825926496062992
20
0.9767937007874016
11
2.8294929133858266
21
0.9844419291338582
0
LINE
8
BLACK
6
CONTINUOUS
10
2.8294929133858266
20
0.9844419291338582
11
2.8316770472440944
21
0.9925932283464567
0
LINE
8
BLACK
6
CONTINUOUS
10
2.8316770472440944
20
0.9925932283464567
11
2.8324125590551179
21
1.0009999999999999
0
LINE
8
BLACK
6
CONTINUOUS
10
2.8324125590551179
20
1.0009999999999999
11
2.8316770472440944
21
1.0094067716535433
0
LINE
8
BLACK
6
CONTINUOUS
10
2.8316770472440944
20
1.0094067716535433
11
2.8294929133858266
21
1.0175580708661418
0
LINE
8
BLACK
6
CONTINUOUS
10
2.8294929133858266
20
1.0175580708661418
11
2.825926496062992
21
1.0252062598425196
0
LINE
8
BLACK
6
CONTINUOUS
10
2.825926496062992
20
1.0252062598425196
11
2.8210861811023622
21
1.0321189763779528
0
LINE
8
BLACK
6
CONTINUOUS
10
2.8210861811023622
20
1.0321189763779528
11
2.8151189763779527
21
1.0380861811023623
0
LINE
8
BLACK
6
CONTINUOUS
10
2.8151189763779527
20
1.0380861811023623
11
2.8082062992125985
21
1.042926496062992
0
LINE
8
BLACK
6
CONTINUOUS
10
2.8082062992125985
20
1.042926496062992
11
2.8005580708661415
21
1.0464929133858267
0
LINE
8
BLACK
6
CONTINUOUS
10
2.8005580708661415
20
1.0464929133858267
11
2.7924067716535435
21
1.0486770472440945
0
LINE
8
BLACK
6
CONTINUOUS
10
2.7924067716535435
20
1.0486770472440945
11
2.7839999999999998
21
1.049412559055118
0
LINE
8
BLACK
6
CONTINUOUS
10
2.7839999999999998
20
1.049412559055118
11
2.7755932283464566
21
1.0486770472440945
0
LINE
8
BLACK
6
CONTINUOUS
10
2.7755932283464566
20
1.0486770472440945
11
2.7674419291338581
21
1.0464929133858267
0
LINE
8
BLACK
6
CONTINUOUS
10
2.7674419291338581
20
1.0464929133858267
11
2.7597937401574804
21
1.042926496062992
0
LINE
8
BLACK
6
CONTINUOUS
10
2.7597937401574804
20
1.042926496062992
11
2.7528810236220473
21
1.0380861811023623
0
LINE
8
BLACK
6
CONTINUOUS
10
2.7528810236220473
20
1.0380861811023623
11
2.7469138188976379
21
1.0321189763779528
0
LINE
8
BLACK
6
CONTINUOUS
10
2.7469138188976379
20
1.0321189763779528
11
2.7420735039370077
21
1.0252062598425196
0
LINE
8
BLACK
6
CONTINUOUS
10
2.7420735039370077
20
1.0252062598425196
11
2.738507086614173
21
1.0175580708661418
0
LINE
8
BLACK
6
CONTINUOUS
10
2.738507086614173
20
1.0175580708661418
11
2.7363229527559056
21
1.0094067716535433
0
LINE
8
BLACK
6
CONTINUOUS
10
2.7363229527559056
20
1.0094067716535433
11
2.7355874409448817
21
1.0009999999999999
0
LINE
8
BLACK
6
CONTINUOUS
10
2.7355874409448817
20
1.0009999999999999
11
2.7363229527559056
21
0.9925932283464567
0
LINE
8
BLACK
6
CONTINUOUS
10
1.2336443700787401
20
1.0296494881889764
11
1.2341770472440945
21
1.029116811023622
0
LINE
8
BLACK
6
CONTINUOUS
10
1.2341770472440945
20
1.029116811023622
11
1.234251968503937
21
0.971259842519685
0
LINE
8
BLACK
6
CONTINUOUS
10
1.234251968503937
20
0.971259842519685
11
1.2341770472440945
21
0.9708831889763779
0
LINE
8
BLACK
6
CONTINUOUS
10
1.2341770472440945
20
0.9708831889763779
11
1.2336443700787401
21
0.9703505118110236
0
LINE
8
BLACK
6
CONTINUOUS
10
1.2336443700787401
20
0.9703505118110236
11
1.116732283464567
21
0.9702755905511811
0
LINE
8
BLACK
6
CONTINUOUS
10
1.116732283464567
20
0.9702755905511811
11
1.1163556299212598
21
0.9703505118110236
0
LINE
8
BLACK
6
CONTINUOUS
10
1.1163556299212598
20
0.9703505118110236
11
1.1158229527559056
21
0.9708831889763779
0
LINE
8
BLACK
6
CONTINUOUS
10
1.1158229527559056
20
0.9708831889763779
11
1.1157480314960631
21
1.028740157480315
0
LINE
8
BLACK
6
CONTINUOUS
10
1.1157480314960631
20
1.028740157480315
11
1.1158229527559056
21
1.029116811023622
0
LINE
8
BLACK
6
CONTINUOUS
10
1.1158229527559056
20
1.029116811023622
11
1.1163556299212598
21
1.0296494881889764
0
LINE
8
BLACK
6
CONTINUOUS
10
1.1163556299212598
20
1.0296494881889764
11
1.2332677165354331
21
1.0297244094488189
0
LINE
8
BLACK
6
CONTINUOUS
10
1.2332677165354331
20
1.0297244094488189
11
1.2336443700787401
21
1.0296494881889764
0
LINE
8
BLACK
6
CONTINUOUS
10
1.1176433464566928
20
1.0277564960629921
11
1.1177153543307086
21
0.9721700787401575
0
LINE
8
BLACK
6
CONTINUOUS
10
1.1177153543307086
20
0.9721700787401575
11
1.2323566141732283
21
0.9722435433070866
0
LINE
8
BLACK
6
CONTINUOUS
10
1.2323566141732283
20
0.9722435433070866
11
1.2322846062992125
21
1.0278299606299213
0
LINE
8
BLACK
6
CONTINUOUS
10
1.2322846062992125
20
1.0278299606299213
11
1.1176433464566928
21
1.0277564960629921
0
LINE
8
BLACK
6
CONTINUOUS
10
1.3536443700787402
20
1.0296494881889764
11
1.3541770472440944
21
1.029116811023622
0
LINE
8
BLACK
6
CONTINUOUS
10
1.3541770472440944
20
1.029116811023622
11
1.3542519685039369
21
0.971259842519685
0
LINE
8
BLACK
6
CONTINUOUS
10
1.3542519685039369
20
0.971259842519685
11
1.3541770472440944
21
0.9708831889763779
0
LINE
8
BLACK
6
CONTINUOUS
10
1.3541770472440944
20
0.9708831889763779
11
1.3536443700787402
21
0.9703505118110236
0
LINE
8
BLACK
6
CONTINUOUS
10
1.3536443700787402
20
0.9703505118110236
11
1.2367322834645669
21
0.9702755905511811
0
LINE
8
BLACK
6
CONTINUOUS
10
1.2367322834645669
20
0.9702755905511811
11
1.2363556299212599
21
0.9703505118110236
0
LINE
8
BLACK
6
CONTINUOUS
10
1.2363556299212599
20
0.9703505118110236
11
1.2358229527559055
21
0.9708831889763779
0
LINE
8
BLACK
6
CONTINUOUS
10
1.2358229527559055
20
0.9708831889763779
11
1.2357480314960629
21
1.028740157480315
0
LINE
8
BLACK
6
CONTINUOUS
10
1.2357480314960629
20
1.028740157480315
11
1.2358229527559055
21
1.029116811023622
0
LINE
8
BLACK
6
CONTINUOUS
10
1.2358229527559055
20
1.029116811023622
11
1.2363556299212599
21
1.0296494881889764
0
LINE
8
BLACK
6
CONTINUOUS
10
1.2363556299212599
20
1.0296494881889764
11
1.353267716535433
21
1.0297244094488189
0
LINE
8
BLACK
6
CONTINUOUS
10
1.353267716535433
20
1.0297244094488189
11
1.3536443700787402
21
1.0296494881889764
0
LINE
8
BLACK
6
CONTINUOUS
10
1.2376433464566929
20
1.0277564960629921
11
1.2377153543307087
21
0.9721700787401575
0
LINE
8
BLACK
6
CONTINUOUS
10
1.2377153543307087
20
0.9721700787401575
11
1.3523566141732284
21
0.9722435433070866
0
LINE
8
BLACK
6
CONTINUOUS
10
1.3523566141732284
20
0.9722435433070866
11
1.3522846062992127
21
1.0278299606299213
0
LINE
8
BLACK
6
CONTINUOUS
10
1.3522846062992127
20
1.0278299606299213
11
1.2376433464566929
21
1.0277564960629921
0
LINE
8
BLACK
6
CONTINUOUS
10
0.6115183858267716
20
1.058310905511811
11
0.612051062992126
21
1.0577782283464567
0
LINE
8
BLACK
6
CONTINUOUS
10
0.612051062992126
20
1.0577782283464567
11
0.6121259842519685
21
0.9825984251968504
0
LINE
8
BLACK
6
CONTINUOUS
10
0.6121259842519685
20
0.9825984251968504
11
0.612051062992126
21
0.9822217716535433
0
LINE
8
BLACK
6
CONTINUOUS
10
0.612051062992126
20
0.9822217716535433
11
0.6115183858267716
21
0.981689094488189
0
LINE
8
BLACK
6
CONTINUOUS
10
0.6115183858267716
20
0.981689094488189
11
0.4788582677165354
21
0.9816141732283464
0
LINE
8
BLACK
6
CONTINUOUS
10
0.4788582677165354
20
0.9816141732283464
11
0.4784816141732283
21
0.981689094488189
0
LINE
8
BLACK
6
CONTINUOUS
10
0.4784816141732283
20
0.981689094488189
11
0.477948937007874
21
0.9822217716535433
0
LINE
8
BLACK
6
CONTINUOUS
10
0.477948937007874
20
0.9822217716535433
11
0.4778740157480315
21
1.0574015748031496
0
LINE
8
BLACK
6
CONTINUOUS
10
0.4778740157480315
20
1.0574015748031496
11
0.477948937007874
21
1.0577782283464567
0
LINE
8
BLACK
6
CONTINUOUS
10
0.477948937007874
20
1.0577782283464567
11
0.4784816141732283
21
1.058310905511811
0
LINE
8
BLACK
6
CONTINUOUS
10
0.4784816141732283
20
1.058310905511811
11
0.6111417322834646
21
1.0583858267716535
0
LINE
8
BLACK
6
CONTINUOUS
10
0.6111417322834646
20
1.0583858267716535
11
0.6115183858267716
21
1.058310905511811
0
LINE
8
BLACK
6
CONTINUOUS
10
0.479768937007874
20
1.0564178740157479
11
0.4798415748031496
21
0.9835085433070866
0
LINE
8
BLACK
6
CONTINUOUS
10
0.4798415748031496
20
0.9835085433070866
11
0.6102310236220472
21
0.9835821653543307
0
LINE
8
BLACK
6
CONTINUOUS
10
0.6102310236220472
20
0.9835821653543307
11
0.6101583858267716
21
1.0564914960629921
0
LINE
8
BLACK
6
CONTINUOUS
10
0.6101583858267716
20
1.0564914960629921
11
0.479768937007874
21
1.0564178740157479
0
LINE
8
BLACK
6
CONTINUOUS
10
2.3787782283464565
20
1.1300510629921259
11
2.3793109055118111
21
1.1295183858267717
0
LINE
8
BLACK
6
CONTINUOUS
10
2.3793109055118111
20
1.1295183858267717
11
2.3793858267716534
21
0.9968582677165354
0
LINE
8
BLACK
6
CONTINUOUS
10
2.3793858267716534
20
0.9968582677165354
11
2.3793109055118111
21
0.9964816141732283
0
LINE
8
BLACK
6
CONTINUOUS
10
2.3793109055118111
20
0.9964816141732283
11
2.3787782283464565
21
0.995948937007874
0
LINE
8
BLACK
6
CONTINUOUS
10
2.3787782283464565
20
0.995948937007874
11
2.3035984251968502
21
0.9958740157480315
0
LINE
8
BLACK
6
CONTINUOUS
10
2.3035984251968502
20
0.9958740157480315
11
2.3032217716535435
21
0.995948937007874
0
LINE
8
BLACK
6
CONTINUOUS
10
2.3032217716535435
20
0.995948937007874
11
2.3026890944881888
21
0.9964816141732283
0
LINE
8
BLACK
6
CONTINUOUS
10
2.3026890944881888
20
0.9964816141732283
11
2.3026141732283465
21
1.1291417322834645
0
LINE
8
BLACK
6
CONTINUOUS
10
2.3026141732283465
20
1.1291417322834645
11
2.3026890944881888
21
1.1295183858267717
0
LINE
8
BLACK
6
CONTINUOUS
10
2.3026890944881888
20
1.1295183858267717
11
2.3032217716535435
21
1.1300510629921259
0
LINE
8
BLACK
6
CONTINUOUS
10
2.3032217716535435
20
1.1300510629921259
11
2.3784015748031497
21
1.1301259842519684
0
LINE
8
BLACK
6
CONTINUOUS
10
2.3784015748031497
20
1.1301259842519684
11
2.3787782283464565
21
1.1300510629921259
0
LINE
8
BLACK
6
CONTINUOUS
10
2.3045085039370079
20
1.1281584251968504
11
2.3045821259842518
21
0.9977689763779527
0
LINE
8
BLACK
6
CONTINUOUS
10
2.3045821259842518
20
0.9977689763779527
11
2.3774914566929133
21
0.9978416141732284
0
LINE
8
BLACK
6
CONTINUOUS
10
2.3774914566929133
20
0.9978416141732284
11
2.3774178346456694
21
1.1282310629921259
0
LINE
8
BLACK
6
CONTINUOUS
10
2.3774178346456694
20
1.1282310629921259
11
2.3045085039370079
21
1.1281584251968504
0
LINE
8
BLACK
6
CONTINUOUS
10
1.8125892519685038
20
1.1751455511811024
11
1.8131219291338583
21
1.174612874015748
0
LINE
8
BLACK
6
CONTINUOUS
10
1.8131219291338583
20
1.174612874015748
11
1.8131968503937008
21
1.0403779527559054
0
LINE
8
BLACK
6
CONTINUOUS
10
1.8131968503937008
20
1.0403779527559054
11
1.8131219291338583
21
1.0400012992125984
0
LINE
8
BLACK
6
CONTINUOUS
10
1.8131219291338583
20
1.0400012992125984
11
1.8125892519685038
21
1.039468622047244
0
LINE
8
BLACK
6
CONTINUOUS
10
1.8125892519685038
20
1.039468622047244
11
1.7350472440944882
21
1.0393937007874015
0
LINE
8
BLACK
6
CONTINUOUS
10
1.7350472440944882
20
1.0393937007874015
11
1.734670590551181
21
1.039468622047244
0
LINE
8
BLACK
6
CONTINUOUS
10
1.734670590551181
20
1.039468622047244
11
1.7341379133858268
21
1.0400012992125984
0
LINE
8
BLACK
6
CONTINUOUS
10
1.7341379133858268
20
1.0400012992125984
11
1.7340629921259842
21
1.174236220472441
0
LINE
8
BLACK
6
CONTINUOUS
10
1.7340629921259842
20
1.174236220472441
11
1.7341379133858268
21
1.174612874015748
0
LINE
8
BLACK
6
CONTINUOUS
10
1.7341379133858268
20
1.174612874015748
11
1.734670590551181
21
1.1751455511811024
0
LINE
8
BLACK
6
CONTINUOUS
10
1.734670590551181
20
1.1751455511811024
11
1.8122125984251969
21
1.175220472440945
0
LINE
8
BLACK
6
CONTINUOUS
10
1.8122125984251969
20
1.175220472440945
11
1.8125892519685038
21
1.1751455511811024
0
LINE
8
BLACK
6
CONTINUOUS
10
1.7359573228346457
20
1.173252874015748
11
1.7360309842519686
21
1.0412886220472442
0
LINE
8
BLACK
6
CONTINUOUS
10
1.7360309842519686
20
1.0412886220472442
11
1.8113024803149607
21
1.0413613385826772
0
LINE
8
BLACK
6
CONTINUOUS
10
1.8113024803149607
20
1.0413613385826772
11
1.8112288188976378
21
1.173325590551181
0
LINE
8
BLACK
6
CONTINUOUS
10
1.8112288188976378
20
1.173325590551181
11
1.7359573228346457
21
1.173252874015748
0
LINE
8
BLACK
6
CONTINUOUS
10
1.8965892519685039
20
1.1761455511811023
11
1.8971219291338581
21
1.1756128740157481
0
LINE
8
BLACK
6
CONTINUOUS
10
1.8971219291338581
20
1.1756128740157481
11
1.8971968503937007
21
1.0413779527559055
0
LINE
8
BLACK
6
CONTINUOUS
10
1.8971968503937007
20
1.0413779527559055
11
1.8971219291338581
21
1.0410012992125983
0
LINE
8
BLACK
6
CONTINUOUS
10
1.8971219291338581
20
1.0410012992125983
11
1.8965892519685039
21
1.0404686220472441
0
LINE
8
BLACK
6
CONTINUOUS
10
1.8965892519685039
20
1.0404686220472441
11
1.8190472440944883
21
1.0403937007874016
0
LINE
8
BLACK
6
CONTINUOUS
10
1.8190472440944883
20
1.0403937007874016
11
1.8186705905511811
21
1.0404686220472441
0
LINE
8
BLACK
6
CONTINUOUS
10
1.8186705905511811
20
1.0404686220472441
11
1.8181379133858266
21
1.0410012992125983
0
LINE
8
BLACK
6
CONTINUOUS
10
1.8181379133858266
20
1.0410012992125983
11
1.8180629921259841
21
1.1752362204724409
0
LINE
8
BLACK
6
CONTINUOUS
10
1.8180629921259841
20
1.1752362204724409
11
1.8181379133858266
21
1.1756128740157481
0
LINE
8
BLACK
6
CONTINUOUS
10
1.8181379133858266
20
1.1756128740157481
11
1.8186705905511811
21
1.1761455511811023
0
LINE
8
BLACK
6
CONTINUOUS
10
1.8186705905511811
20
1.1761455511811023
11
1.8962125984251967
21
1.1762204724409449
0
LINE
8
BLACK
6
CONTINUOUS
10
1.8962125984251967
20
1.1762204724409449
11
1.8965892519685039
21
1.1761455511811023
0
LINE
8
BLACK
6
CONTINUOUS
10
1.8199573228346457
20
1.1742528740157481
11
1.8200309842519684
21
1.042288622047244
0
LINE
8
BLACK
6
CONTINUOUS
10
1.8200309842519684
20
1.042288622047244
11
1.8953024803149605
21
1.0423613385826771
0
LINE
8
BLACK
6
CONTINUOUS
10
1.8953024803149605
20
1.0423613385826771
11
1.8952288188976378
21
1.1743255905511811
0
LINE
8
BLACK
6
CONTINUOUS
10
1.8952288188976378
20
1.1743255905511811
11
1.8199573228346457
21
1.1742528740157481
0
LINE
8
BLACK
6
CONTINUOUS
10
0.8477782283464567
20
1.1800510629921259
11
0.848310905511811
21
1.1795183858267717
0
LINE
8
BLACK
6
CONTINUOUS
10
0.848310905511811
20
1.1795183858267717
11
0.8483858267716535
21
1.0468582677165355
0
LINE
8
BLACK
6
CONTINUOUS
10
0.8483858267716535
20
1.0468582677165355
11
0.848310905511811
21
1.0464816141732283
0
LINE
8
BLACK
6
CONTINUOUS
10
0.848310905511811
20
1.0464816141732283
11
0.8477782283464567
21
1.0459489370078741
0
LINE
8
BLACK
6
CONTINUOUS
10
0.8477782283464567
20
1.0459489370078741
11
0.7725984251968504
21
1.0458740157480315
0
LINE
8
BLACK
6
CONTINUOUS
10
0.7725984251968504
20
1.0458740157480315
11
0.7722217716535433
21
1.0459489370078741
0
LINE
8
BLACK
6
CONTINUOUS
10
0.7722217716535433
20
1.0459489370078741
11
0.771689094488189
21
1.0464816141732283
0
LINE
8
BLACK
6
CONTINUOUS
10
0.771689094488189
20
1.0464816141732283
11
0.771689094488189
21
1.0464929133858267
0
LINE
8
BLACK
6
CONTINUOUS
10
0.771689094488189
20
1.0464929133858267
11
0.7716141732283465
21
1.1791417322834645
0
LINE
8
BLACK
6
CONTINUOUS
10
0.7716141732283465
20
1.1791417322834645
11
0.771689094488189
21
1.1795183858267717
0
LINE
8
BLACK
6
CONTINUOUS
10
0.771689094488189
20
1.1795183858267717
11
0.7722217716535433
21
1.1800510629921259
0
LINE
8
BLACK
6
CONTINUOUS
10
0.7722217716535433
20
1.1800510629921259
11
0.8474015748031496
21
1.1801259842519685
0
LINE
8
BLACK
6
CONTINUOUS
10
0.8474015748031496
20
1.1801259842519685
11
0.8477782283464567
21
1.1800510629921259
0
LINE
8
BLACK
6
CONTINUOUS
10
0.7735085039370079
20
1.1781584251968504
11
0.7735821259842519
21
1.0477689763779527
0
LINE
8
BLACK
6
CONTINUOUS
10
0.7735821259842519
20
1.0477689763779527
11
0.8464914566929134
21
1.0478416141732283
0
LINE
8
BLACK
6
CONTINUOUS
10
0.8464914566929134
20
1.0478416141732283
11
0.8464178346456692
21
1.178231062992126
0
LINE
8
BLACK
6
CONTINUOUS
10
0.8464178346456692
20
1.178231062992126
11
0.7735085039370079
21
1.1781584251968504
0
LINE
8
BLACK
6
CONTINUOUS
10
1.0739593307086615
20
1.1878384645669291
11
1.0744920078740157
21
1.1873057874015749
0
LINE
8
BLACK
6
CONTINUOUS
10
1.0744920078740157
20
1.1873057874015749
11
1.0745669291338582
21
1.0530708661417323
0
LINE
8
BLACK
6
CONTINUOUS
10
1.0745669291338582
20
1.0530708661417323
11
1.0744920078740157
21
1.0526942125984251
0
LINE
8
BLACK
6
CONTINUOUS
10
1.0744920078740157
20
1.0526942125984251
11
1.0739593307086615
21
1.0521615354330709
0
LINE
8
BLACK
6
CONTINUOUS
10
1.0739593307086615
20
1.0521615354330709
11
0.9964173228346457
21
1.0520866141732284
0
LINE
8
BLACK
6
CONTINUOUS
10
0.9964173228346457
20
1.0520866141732284
11
0.9960406692913386
21
1.0521615354330709
0
LINE
8
BLACK
6
CONTINUOUS
10
0.9960406692913386
20
1.0521615354330709
11
0.9955079921259842
21
1.0526942125984251
0
LINE
8
BLACK
6
CONTINUOUS
10
0.9955079921259842
20
1.0526942125984251
11
0.9954330708661417
21
1.1869291338582677
0
LINE
8
BLACK
6
CONTINUOUS
10
0.9954330708661417
20
1.1869291338582677
11
0.9955079921259842
21
1.1873057874015749
0
LINE
8
BLACK
6
CONTINUOUS
10
0.9955079921259842
20
1.1873057874015749
11
0.9960406692913386
21
1.1878384645669291
0
LINE
8
BLACK
6
CONTINUOUS
10
0.9960406692913386
20
1.1878384645669291
11
1.0735826771653543
21
1.1879133858267716
0
LINE
8
BLACK
6
CONTINUOUS
10
1.0735826771653543
20
1.1879133858267716
11
1.0739593307086615
21
1.1878384645669291
0
LINE
8
BLACK
6
CONTINUOUS
10
0.9973274015748032
20
1.1859457874015749
11
0.9974010629921259
21
1.0539815354330708
0
LINE
8
BLACK
6
CONTINUOUS
10
0.9974010629921259
20
1.0539815354330708
11
1.072672559055118
21
1.0540542519685039
0
LINE
8
BLACK
6
CONTINUOUS
10
1.072672559055118
20
1.0540542519685039
11
1.0725988976377951
21
1.1860185039370079
0
LINE
8
BLACK
6
CONTINUOUS
10
1.0725988976377951
20
1.1860185039370079
11
0.9973274015748032
21
1.1859457874015749
0
LINE
8
BLACK
6
CONTINUOUS
10
2.5215183858267718
20
1.1353109055118109
11
2.522051062992126
21
1.1347782283464567
0
LINE
8
BLACK
6
CONTINUOUS
10
2.522051062992126
20
1.1347782283464567
11
2.5221259842519683
21
1.0595984251968504
0
LINE
8
BLACK
6
CONTINUOUS
10
2.5221259842519683
20
1.0595984251968504
11
2.522051062992126
21
1.0592217716535433
0
LINE
8
BLACK
6
CONTINUOUS
10
2.522051062992126
20
1.0592217716535433
11
2.5215183858267718
21
1.058689094488189
0
LINE
8
BLACK
6
CONTINUOUS
10
2.5215183858267718
20
1.058689094488189
11
2.3888582677165355
21
1.0586141732283465
0
LINE
8
BLACK
6
CONTINUOUS
10
2.3888582677165355
20
1.0586141732283465
11
2.3884816141732284
21
1.058689094488189
0
LINE
8
BLACK
6
CONTINUOUS
10
2.3884816141732284
20
1.058689094488189
11
2.3879489370078741
21
1.0592217716535433
0
LINE
8
BLACK
6
CONTINUOUS
10
2.3879489370078741
20
1.0592217716535433
11
2.3878740157480314
21
1.1344015748031495
0
LINE
8
BLACK
6
CONTINUOUS
10
2.3878740157480314
20
1.1344015748031495
11
2.3879489370078741
21
1.1347782283464567
0
LINE
8
BLACK
6
CONTINUOUS
10
2.3879489370078741
20
1.1347782283464567
11
2.3884816141732284
21
1.1353109055118109
0
LINE
8
BLACK
6
CONTINUOUS
10
2.3884816141732284
20
1.1353109055118109
11
2.5211417322834646
21
1.1353858267716535
0
LINE
8
BLACK
6
CONTINUOUS
10
2.5211417322834646
20
1.1353858267716535
11
2.5215183858267718
21
1.1353109055118109
0
LINE
8
BLACK
6
CONTINUOUS
10
2.3897689370078741
20
1.1334178740157479
11
2.3898415748031496
21
1.0605085433070867
0
LINE
8
BLACK
6
CONTINUOUS
10
2.3898415748031496
20
1.0605085433070867
11
2.5202310236220473
21
1.0605821653543306
0
LINE
8
BLACK
6
CONTINUOUS
10
2.5202310236220473
20
1.0605821653543306
11
2.5201583858267718
21
1.133491496062992
0
LINE
8
BLACK
6
CONTINUOUS
10
2.5201583858267718
20
1.133491496062992
11
2.3897689370078741
21
1.1334178740157479
0
LINE
8
BLACK
6
CONTINUOUS
10
0.9873057874015748
20
1.1394920078740158
11
0.9878384645669291
21
1.1389593307086614
0
LINE
8
BLACK
6
CONTINUOUS
10
0.9878384645669291
20
1.1389593307086614
11
0.9879133858267717
21
1.0614173228346457
0
LINE
8
BLACK
6
CONTINUOUS
10
0.9879133858267717
20
1.0614173228346457
11
0.9878384645669291
21
1.0610406692913386
0
LINE
8
BLACK
6
CONTINUOUS
10
0.9878384645669291
20
1.0610406692913386
11
0.9873057874015748
21
1.0605079921259841
0
LINE
8
BLACK
6
CONTINUOUS
10
0.9873057874015748
20
1.0605079921259841
11
0.8530708661417322
21
1.0604330708661418
0
LINE
8
BLACK
6
CONTINUOUS
10
0.8530708661417322
20
1.0604330708661418
11
0.8526942125984251
21
1.0605079921259841
0
LINE
8
BLACK
6
CONTINUOUS
10
0.8526942125984251
20
1.0605079921259841
11
0.8521615354330708
21
1.0610406692913386
0
LINE
8
BLACK
6
CONTINUOUS
10
0.8521615354330708
20
1.0610406692913386
11
0.8520866141732283
21
1.1385826771653542
0
LINE
8
BLACK
6
CONTINUOUS
10
0.8520866141732283
20
1.1385826771653542
11
0.8521615354330708
21
1.1389593307086614
0
LINE
8
BLACK
6
CONTINUOUS
10
0.8521615354330708
20
1.1389593307086614
11
0.8526942125984251
21
1.1394920078740158
0
LINE
8
BLACK
6
CONTINUOUS
10
0.8526942125984251
20
1.1394920078740158
11
0.9869291338582677
21
1.1395669291338582
0
LINE
8
BLACK
6
CONTINUOUS
10
0.9869291338582677
20
1.1395669291338582
11
0.9873057874015748
21
1.1394920078740158
0
LINE
8
BLACK
6
CONTINUOUS
10
0.8539814960629921
20
1.1375989370078741
11
0.8540542125984252
21
1.062327440944882
0
LINE
8
BLACK
6
CONTINUOUS
10
0.8540542125984252
20
1.062327440944882
11
0.9860184645669291
21
1.0624011023622046
0
LINE
8
BLACK
6
CONTINUOUS
10
0.9860184645669291
20
1.0624011023622046
11
0.985945748031496
21
1.1376725984251967
0
LINE
8
BLACK
6
CONTINUOUS
10
0.985945748031496
20
1.1376725984251967
11
0.8539814960629921
21
1.1375989370078741
0
LINE
8
BLACK
6
CONTINUOUS
10
1.3251441338582677
20
1.2552335826771652
11
1.3264225590551182
21
1.2539551574803149
0
LINE
8
BLACK
6
CONTINUOUS
10
1.3264225590551182
20
1.2539551574803149
11
1.3266023622047243
21
1.0719488188976378
0
LINE
8
BLACK
6
CONTINUOUS
10
1.3266023622047243
20
1.0719488188976378
11
1.3264225590551182
21
1.071044842519685
0
LINE
8
BLACK
6
CONTINUOUS
10
1.3264225590551182
20
1.071044842519685
11
1.3251441338582677
21
1.0697664173228347
0
LINE
8
BLACK
6
CONTINUOUS
10
1.3251441338582677
20
1.0697664173228347
11
1.1431377952755906
21
1.0695866141732284
0
LINE
8
BLACK
6
CONTINUOUS
10
1.1431377952755906
20
1.0695866141732284
11
1.1422338188976378
21
1.0697664173228347
0
LINE
8
BLACK
6
CONTINUOUS
10
1.1422338188976378
20
1.0697664173228347
11
1.1409553937007875
21
1.071044842519685
0
LINE
8
BLACK
6
CONTINUOUS
10
1.1409553937007875
20
1.071044842519685
11
1.1407755905511812
21
1.2530511811023621
0
LINE
8
BLACK
6
CONTINUOUS
10
1.1407755905511812
20
1.2530511811023621
11
1.1409553937007875
21
1.2539551574803149
0
LINE
8
BLACK
6
CONTINUOUS
10
1.1409553937007875
20
1.2539551574803149
11
1.1422338188976378
21
1.2552335826771652
0
LINE
8
BLACK
6
CONTINUOUS
10
1.1422338188976378
20
1.2552335826771652
11
1.3242401574803149
21
1.2554133858267715
0
LINE
8
BLACK
6
CONTINUOUS
10
1.3242401574803149
20
1.2554133858267715
11
1.3251441338582677
21
1.2552335826771652
0
LINE
8
BLACK
6
CONTINUOUS
10
1.1453233858267717
20
1.2506911417322835
11
1.1454978346456692
21
1.0741344488188975
0
LINE
8
BLACK
6
CONTINUOUS
10
1.1454978346456692
20
1.0741344488188975
11
1.3220545275590552
21
1.0743088976377952
0
LINE
8
BLACK
6
CONTINUOUS
10
1.3220545275590552
20
1.0743088976377952
11
1.3218800787401574
21
1.2508655905511812
0
LINE
8
BLACK
6
CONTINUOUS
10
1.3218800787401574
20
1.2508655905511812
11
1.1453233858267717
21
1.2506911417322835
0
LINE
8
BLACK
6
CONTINUOUS
10
1.4459593307086613
20
1.212838464566929
11
1.4464920078740158
21
1.2123057874015748
0
LINE
8
BLACK
6
CONTINUOUS
10
1.4464920078740158
20
1.2123057874015748
11
1.4465669291338583
21
1.0780708661417322
0
LINE
8
BLACK
6
CONTINUOUS
10
1.4465669291338583
20
1.0780708661417322
11
1.4464920078740158
21
1.0776942125984252
0
LINE
8
BLACK
6
CONTINUOUS
10
1.4464920078740158
20
1.0776942125984252
11
1.4459593307086613
21
1.0771615354330708
0
LINE
8
BLACK
6
CONTINUOUS
10
1.4459593307086613
20
1.0771615354330708
11
1.3684173228346457
21
1.0770866141732283
0
LINE
8
BLACK
6
CONTINUOUS
10
1.3684173228346457
20
1.0770866141732283
11
1.3680406692913385
21
1.0771615354330708
0
LINE
8
BLACK
6
CONTINUOUS
10
1.3680406692913385
20
1.0771615354330708
11
1.3675079921259843
21
1.0776942125984252
0
LINE
8
BLACK
6
CONTINUOUS
10
1.3675079921259843
20
1.0776942125984252
11
1.3674330708661417
21
1.2119291338582676
0
LINE
8
BLACK
6
CONTINUOUS
10
1.3674330708661417
20
1.2119291338582676
11
1.3675079921259843
21
1.2123057874015748
0
LINE
8
BLACK
6
CONTINUOUS
10
1.3675079921259843
20
1.2123057874015748
11
1.3680406692913385
21
1.212838464566929
0
LINE
8
BLACK
6
CONTINUOUS
10
1.3680406692913385
20
1.212838464566929
11
1.4455826771653544
21
1.2129133858267716
0
LINE
8
BLACK
6
CONTINUOUS
10
1.4455826771653544
20
1.2129133858267716
11
1.4459593307086613
21
1.212838464566929
0
LINE
8
BLACK
6
CONTINUOUS
10
1.3693274015748031
20
1.2109457874015748
11
1.3694010629921261
21
1.0789815354330707
0
LINE
8
BLACK
6
CONTINUOUS
10
1.3694010629921261
20
1.0789815354330707
11
1.4446725590551182
21
1.079054251968504
0
LINE
8
BLACK
6
CONTINUOUS
10
1.4446725590551182
20
1.079054251968504
11
1.4445988976377953
21
1.2110185039370078
0
LINE
8
BLACK
6
CONTINUOUS
10
1.4445988976377953
20
1.2110185039370078
11
1.3693274015748031
21
1.2109457874015748
0
LINE
8
BLACK
6
CONTINUOUS
10
1.5815183858267716
20
1.1633109055118109
11
1.5820510629921261
21
1.1627782283464567
0
LINE
8
BLACK
6
CONTINUOUS
10
1.5820510629921261
20
1.1627782283464567
11
1.5821259842519684
21
1.0875984251968505
0
LINE
8
BLACK
6
CONTINUOUS
10
1.5821259842519684
20
1.0875984251968505
11
1.5820510629921261
21
1.0872217716535433
0
LINE
8
BLACK
6
CONTINUOUS
10
1.5820510629921261
20
1.0872217716535433
11
1.5815183858267716
21
1.0866890944881888
0
LINE
8
BLACK
6
CONTINUOUS
10
1.5815183858267716
20
1.0866890944881888
11
1.4488582677165354
21
1.0866141732283465
0
LINE
8
BLACK
6
CONTINUOUS
10
1.4488582677165354
20
1.0866141732283465
11
1.4484816141732284
21
1.0866890944881888
0
LINE
8
BLACK
6
CONTINUOUS
10
1.4484816141732284
20
1.0866890944881888
11
1.447948937007874
21
1.0872217716535433
0
LINE
8
BLACK
6
CONTINUOUS
10
1.447948937007874
20
1.0872217716535433
11
1.4478740157480314
21
1.1624015748031495
0
LINE
8
BLACK
6
CONTINUOUS
10
1.4478740157480314
20
1.1624015748031495
11
1.447948937007874
21
1.1627782283464567
0
LINE
8
BLACK
6
CONTINUOUS
10
1.447948937007874
20
1.1627782283464567
11
1.4484816141732284
21
1.1633109055118109
0
LINE
8
BLACK
6
CONTINUOUS
10
1.4484816141732284
20
1.1633109055118109
11
1.5811417322834644
21
1.1633858267716535
0
LINE
8
BLACK
6
CONTINUOUS
10
1.5811417322834644
20
1.1633858267716535
11
1.5815183858267716
21
1.1633109055118109
0
LINE
8
BLACK
6
CONTINUOUS
10
1.4497689370078739
20
1.1614178740157479
11
1.4498415748031497
21
1.0885085433070867
0
LINE
8
BLACK
6
CONTINUOUS
10
1.4498415748031497
20
1.0885085433070867
11
1.5802310236220471
21
1.0885821653543306
0
LINE
8
BLACK
6
CONTINUOUS
10
1.5802310236220471
20
1.0885821653543306
11
1.5801583858267716
21
1.1614914960629921
0
LINE
8
BLACK
6
CONTINUOUS
10
1.5801583858267716
20
1.1614914960629921
11
1.4497689370078739
21
1.1614178740157479
0
LINE
8
BLACK
6
CONTINUOUS
10
3.3009672047244094
20
1.4313030314960629
11
3.3014998818897636
21
1.4307703543307086
0
LINE
8
BLACK
6
CONTINUOUS
10
3.3014998818897636
20
1.4307703543307086
11
3.3015748031496064
21
1.1296062992125984
0
LINE
8
BLACK
6
CONTINUOUS
10
3.3015748031496064
20
1.1296062992125984
11
3.3014998818897636
21
1.1292296456692914
0
LINE
8
BLACK
6
CONTINUOUS
10
3.3014998818897636
20
1.1292296456692914
11
3.3009672047244094
21
1.128696968503937
0
LINE
8
BLACK
6
CONTINUOUS
10
3.3009672047244094
20
1.128696968503937
11
3.1494094488188975
21
1.1286220472440944
0
LINE
8
BLACK
6
CONTINUOUS
10
3.1494094488188975
20
1.1286220472440944
11
3.1490327952755903
21
1.128696968503937
0
LINE
8
BLACK
6
CONTINUOUS
10
3.1490327952755903
20
1.128696968503937
11
3.1485001181102361
21
1.1292296456692914
0
LINE
8
BLACK
6
CONTINUOUS
10
3.1485001181102361
20
1.1292296456692914
11
3.1484251968503938
21
1.4303937007874015
0
LINE
8
BLACK
6
CONTINUOUS
10
3.1484251968503938
20
1.4303937007874015
11
3.1485001181102361
21
1.4307703543307086
0
LINE
8
BLACK
6
CONTINUOUS
10
3.1485001181102361
20
1.4307703543307086
11
3.1490327952755903
21
1.4313030314960629
0
LINE
8
BLACK
6
CONTINUOUS
10
3.1490327952755903
20
1.4313030314960629
11
3.3005905511811022
21
1.4313779527559054
0
LINE
8
BLACK
6
CONTINUOUS
10
3.3005905511811022
20
1.4313779527559054
11
3.3009672047244094
21
1.4313030314960629
0
LINE
8
BLACK
6
CONTINUOUS
10
3.1503190944881889
20
1.4294099212598426
11
3.1503934645669291
21
1.1305163385826771
0
LINE
8
BLACK
6
CONTINUOUS
10
3.1503934645669291
20
1.1305163385826771
11
3.2996808661417321
21
1.1305901181102362
0
LINE
8
BLACK
6
CONTINUOUS
10
3.2996808661417321
20
1.1305901181102362
11
3.2996064960629918
21
1.4294837007874015
0
LINE
8
BLACK
6
CONTINUOUS
10
3.2996064960629918
20
1.4294837007874015
11
3.1503190944881889
21
1.4294099212598426
0
LINE
8
BLACK
6
CONTINUOUS
10
2.0651483070866141
20
1.2276179921259842
11
2.0656809842519683
21
1.22708531496063
0
LINE
8
BLACK
6
CONTINUOUS
10
2.0656809842519683
20
1.22708531496063
11
2.0657559055118111
21
1.1519055118110235
0
LINE
8
BLACK
6
CONTINUOUS
10
2.0657559055118111
20
1.1519055118110235
11
2.0656809842519683
21
1.1515288582677166
0
LINE
8
BLACK
6
CONTINUOUS
10
2.0656809842519683
20
1.1515288582677166
11
2.0651483070866141
21
1.1509961811023621
0
LINE
8
BLACK
6
CONTINUOUS
10
2.0651483070866141
20
1.1509961811023621
11
1.9324881889763779
21
1.1509212598425196
0
LINE
8
BLACK
6
CONTINUOUS
10
1.9324881889763779
20
1.1509212598425196
11
1.9321115354330709
21
1.1509961811023621
0
LINE
8
BLACK
6
CONTINUOUS
10
1.9321115354330709
20
1.1509961811023621
11
1.9315788582677165
21
1.1515288582677166
0
LINE
8
BLACK
6
CONTINUOUS
10
1.9315788582677165
20
1.1515288582677166
11
1.9315039370078739
21
1.2267086614173228
0
LINE
8
BLACK
6
CONTINUOUS
10
1.9315039370078739
20
1.2267086614173228
11
1.9315788582677165
21
1.22708531496063
0
LINE
8
BLACK
6
CONTINUOUS
10
1.9315788582677165
20
1.22708531496063
11
1.9321115354330709
21
1.2276179921259842
0
LINE
8
BLACK
6
CONTINUOUS
10
1.9321115354330709
20
1.2276179921259842
11
2.0647716535433069
21
1.2276929133858268
0
LINE
8
BLACK
6
CONTINUOUS
10
2.0647716535433069
20
1.2276929133858268
11
2.0651483070866141
21
1.2276179921259842
0
LINE
8
BLACK
6
CONTINUOUS
10
1.9333988582677164
20
1.2257249606299212
11
1.9334714960629922
21
1.1528156299212597
0
LINE
8
BLACK
6
CONTINUOUS
10
1.9334714960629922
20
1.1528156299212597
11
2.0638609448818896
21
1.1528892519685039
0
LINE
8
BLACK
6
CONTINUOUS
10
2.0638609448818896
20
1.1528892519685039
11
2.0637883070866141
21
1.2257985826771653
0
LINE
8
BLACK
6
CONTINUOUS
10
2.0637883070866141
20
1.2257985826771653
11
1.9333988582677164
21
1.2257249606299212
0
LINE
8
BLACK
6
CONTINUOUS
10
1.6523057874015747
20
1.2444920078740158
11
1.6528384645669292
21
1.2439593307086614
0
LINE
8
BLACK
6
CONTINUOUS
10
1.6528384645669292
20
1.2439593307086614
11
1.6529133858267717
21
1.1664173228346457
0
LINE
8
BLACK
6
CONTINUOUS
10
1.6529133858267717
20
1.1664173228346457
11
1.6528384645669292
21
1.1660406692913385
0
LINE
8
BLACK
6
CONTINUOUS
10
1.6528384645669292
20
1.1660406692913385
11
1.6523057874015747
21
1.1655079921259843
0
LINE
8
BLACK
6
CONTINUOUS
10
1.6523057874015747
20
1.1655079921259843
11
1.5180708661417321
21
1.1654330708661418
0
LINE
8
BLACK
6
CONTINUOUS
10
1.5180708661417321
20
1.1654330708661418
11
1.5176942125984252
21
1.1655079921259843
0
LINE
8
BLACK
6
CONTINUOUS
10
1.5176942125984252
20
1.1655079921259843
11
1.5171615354330708
21
1.1660406692913385
0
LINE
8
BLACK
6
CONTINUOUS
10
1.5171615354330708
20
1.1660406692913385
11
1.5170866141732282
21
1.2435826771653542
0
LINE
8
BLACK
6
CONTINUOUS
10
1.5170866141732282
20
1.2435826771653542
11
1.5171615354330708
21
1.2439593307086614
0
LINE
8
BLACK
6
CONTINUOUS
10
1.5171615354330708
20
1.2439593307086614
11
1.5176942125984252
21
1.2444920078740158
0
LINE
8
BLACK
6
CONTINUOUS
10
1.5176942125984252
20
1.2444920078740158
11
1.6519291338582678
21
1.2445669291338581
0
LINE
8
BLACK
6
CONTINUOUS
10
1.6519291338582678
20
1.2445669291338581
11
1.6523057874015747
21
1.2444920078740158
0
LINE
8
BLACK
6
CONTINUOUS
10
1.5189814960629922
20
1.242598937007874
11
1.5190542125984252
21
1.1673274409448819
0
LINE
8
BLACK
6
CONTINUOUS
10
1.5190542125984252
20
1.1673274409448819
11
1.651018464566929
21
1.1674011023622046
0
LINE
8
BLACK
6
CONTINUOUS
10
1.651018464566929
20
1.1674011023622046
11
1.650945748031496
21
1.2426725984251967
0
LINE
8
BLACK
6
CONTINUOUS
10
1.650945748031496
20
1.2426725984251967
11
1.5189814960629922
21
1.242598937007874
0
LINE
8
BLACK
6
CONTINUOUS
10
1.0123057874015748
20
1.2744920078740156
11
1.0128384645669291
21
1.2739593307086614
0
LINE
8
BLACK
6
CONTINUOUS
10
1.0128384645669291
20
1.2739593307086614
11
1.0129133858267716
21
1.1964173228346457
0
LINE
8
BLACK
6
CONTINUOUS
10
1.0129133858267716
20
1.1964173228346457
11
1.0128384645669291
21
1.1960406692913386
0
LINE
8
BLACK
6
CONTINUOUS
10
1.0128384645669291
20
1.1960406692913386
11
1.0123057874015748
21
1.1955079921259841
0
LINE
8
BLACK
6
CONTINUOUS
10
1.0123057874015748
20
1.1955079921259841
11
0.8780708661417322
21
1.1954330708661418
0
LINE
8
BLACK
6
CONTINUOUS
10
0.8780708661417322
20
1.1954330708661418
11
0.8776942125984252
21
1.1955079921259841
0
LINE
8
BLACK
6
CONTINUOUS
10
0.8776942125984252
20
1.1955079921259841
11
0.8771615354330708
21
1.1960406692913386
0
LINE
8
BLACK
6
CONTINUOUS
10
0.8771615354330708
20
1.1960406692913386
11
0.8770866141732283
21
1.2735826771653542
0
LINE
8
BLACK
6
CONTINUOUS
10
0.8770866141732283
20
1.2735826771653542
11
0.8771615354330708
21
1.2739593307086614
0
LINE
8
BLACK
6
CONTINUOUS
10
0.8771615354330708
20
1.2739593307086614
11
0.8776942125984252
21
1.2744920078740156
0
LINE
8
BLACK
6
CONTINUOUS
10
0.8776942125984252
20
1.2744920078740156
11
1.0119291338582677
21
1.2745669291338582
0
LINE
8
BLACK
6
CONTINUOUS
10
1.0119291338582677
20
1.2745669291338582
11
1.0123057874015748
21
1.2744920078740156
0
LINE
8
BLACK
6
CONTINUOUS
10
0.8789814960629921
20
1.2725989370078741
11
0.8790542125984252
21
1.197327440944882
0
LINE
8
BLACK
6
CONTINUOUS
10
0.8790542125984252
20
1.197327440944882
11
1.0110184645669291
21
1.1974011023622047
0
LINE
8
BLACK
6
CONTINUOUS
10
1.0110184645669291
20
1.1974011023622047
11
1.0109457480314961
21
1.2726725984251968
0
LINE
8
BLACK
6
CONTINUOUS
10
1.0109457480314961
20
1.2726725984251968
11
0.8789814960629921
21
1.2725989370078741
0
LINE
8
BLACK
6
CONTINUOUS
10
3.1365183858267716
20
1.273310905511811
11
3.1370510629921258
21
1.2727782283464566
0
LINE
8
BLACK
6
CONTINUOUS
10
3.1370510629921258
20
1.2727782283464566
11
3.1371259842519685
21
1.1975984251968503
0
LINE
8
BLACK
6
CONTINUOUS
10
3.1371259842519685
20
1.1975984251968503
11
3.1370510629921258
21
1.1972217716535434
0
LINE
8
BLACK
6
CONTINUOUS
10
3.1370510629921258
20
1.1972217716535434
11
3.1365183858267716
21
1.1966890944881889
0
LINE
8
BLACK
6
CONTINUOUS
10
3.1365183858267716
20
1.1966890944881889
11
3.0038582677165353
21
1.1966141732283464
0
LINE
8
BLACK
6
CONTINUOUS
10
3.0038582677165353
20
1.1966141732283464
11
3.0034816141732281
21
1.1966890944881889
0
LINE
8
BLACK
6
CONTINUOUS
10
3.0034816141732281
20
1.1966890944881889
11
3.0029489370078739
21
1.1972217716535434
0
LINE
8
BLACK
6
CONTINUOUS
10
3.0029489370078739
20
1.1972217716535434
11
3.0028740157480316
21
1.2724015748031496
0
LINE
8
BLACK
6
CONTINUOUS
10
3.0028740157480316
20
1.2724015748031496
11
3.0029489370078739
21
1.2727782283464566
0
LINE
8
BLACK
6
CONTINUOUS
10
3.0029489370078739
20
1.2727782283464566
11
3.0034816141732281
21
1.273310905511811
0
LINE
8
BLACK
6
CONTINUOUS
10
3.0034816141732281
20
1.273310905511811
11
3.1361417322834644
21
1.2733858267716536
0
LINE
8
BLACK
6
CONTINUOUS
10
3.1361417322834644
20
1.2733858267716536
11
3.1365183858267716
21
1.273310905511811
0
LINE
8
BLACK
6
CONTINUOUS
10
3.0047689370078738
20
1.271417874015748
11
3.0048415748031494
21
1.1985085433070866
0
LINE
8
BLACK
6
CONTINUOUS
10
3.0048415748031494
20
1.1985085433070866
11
3.1352310236220471
21
1.1985821653543307
0
LINE
8
BLACK
6
CONTINUOUS
10
3.1352310236220471
20
1.1985821653543307
11
3.1351583858267715
21
1.2714914960629922
0
LINE
8
BLACK
6
CONTINUOUS
10
3.1351583858267715
20
1.2714914960629922
11
3.0047689370078738
21
1.271417874015748
0
LINE
8
BLACK
6
CONTINUOUS
10
0.5350616929133858
20
1.6016967322834645
11
0.5355943700787401
21
1.6011640551181101
0
LINE
8
BLACK
6
CONTINUOUS
10
0.5355943700787401
20
1.6011640551181101
11
0.5356692913385827
21
1.1992125984251969
0
LINE
8
BLACK
6
CONTINUOUS
10
0.5356692913385827
20
1.1992125984251969
11
0.5355943700787401
21
1.1988359448818897
0
LINE
8
BLACK
6
CONTINUOUS
10
0.5355943700787401
20
1.1988359448818897
11
0.5350616929133858
21
1.1983032677165355
0
LINE
8
BLACK
6
CONTINUOUS
10
0.5350616929133858
20
1.1983032677165355
11
0.2027952755905512
21
1.198228346456693
0
LINE
8
BLACK
6
CONTINUOUS
10
0.2027952755905512
20
1.198228346456693
11
0.2024186220472441
21
1.1983032677165355
0
LINE
8
BLACK
6
CONTINUOUS
10
0.2024186220472441
20
1.1983032677165355
11
0.2018859448818898
21
1.1988359448818897
0
LINE
8
BLACK
6
CONTINUOUS
10
0.2018859448818898
20
1.1988359448818897
11
0.2018110236220473
21
1.6007874015748031
0
LINE
8
BLACK
6
CONTINUOUS
10
0.2018110236220473
20
1.6007874015748031
11
0.2018859448818898
21
1.6011640551181101
0
LINE
8
BLACK
6
CONTINUOUS
10
0.2018859448818898
20
1.6011640551181101
11
0.2024186220472441
21
1.6016967322834645
0
LINE
8
BLACK
6
CONTINUOUS
10
0.2024186220472441
20
1.6016967322834645
11
0.5346850393700787
21
1.6017716535433071
0
LINE
8
BLACK
6
CONTINUOUS
10
0.5346850393700787
20
1.6017716535433071
11
0.5350616929133858
21
1.6016967322834645
0
LINE
8
BLACK
6
CONTINUOUS
10
0.203704842519685
20
1.5998033858267715
11
0.2037793307086614
21
1.2001222440944881
0
LINE
8
BLACK
6
CONTINUOUS
10
0.2037793307086614
20
1.2001222440944881
11
0.5337754330708662
21
1.2001966535433071
0
LINE
8
BLACK
6
CONTINUOUS
10
0.5337754330708662
20
1.2001966535433071
11
0.5337009448818898
21
1.5998777952755905
0
LINE
8
BLACK
6
CONTINUOUS
10
0.5337009448818898
20
1.5998777952755905
11
0.203704842519685
21
1.5998033858267715
0
LINE
8
BLACK
6
CONTINUOUS
10
2.9839593307086614
20
1.3428384645669291
11
2.9844920078740156
21
1.3423057874015747
0
LINE
8
BLACK
6
CONTINUOUS
10
2.9844920078740156
20
1.3423057874015747
11
2.9845669291338583
21
1.2080708661417323
0
LINE
8
BLACK
6
CONTINUOUS
10
2.9845669291338583
20
1.2080708661417323
11
2.9844920078740156
21
1.2076942125984251
0
LINE
8
BLACK
6
CONTINUOUS
10
2.9844920078740156
20
1.2076942125984251
11
2.9839593307086614
21
1.2071615354330709
0
LINE
8
BLACK
6
CONTINUOUS
10
2.9839593307086614
20
1.2071615354330709
11
2.9064173228346455
21
1.2070866141732284
0
LINE
8
BLACK
6
CONTINUOUS
10
2.9064173228346455
20
1.2070866141732284
11
2.9060406692913383
21
1.2071615354330709
0
LINE
8
BLACK
6
CONTINUOUS
10
2.9060406692913383
20
1.2071615354330709
11
2.9055079921259841
21
1.2076942125984251
0
LINE
8
BLACK
6
CONTINUOUS
10
2.9055079921259841
20
1.2076942125984251
11
2.9054330708661418
21
1.3419291338582677
0
LINE
8
BLACK
6
CONTINUOUS
10
2.9054330708661418
20
1.3419291338582677
11
2.9055079921259841
21
1.3423057874015747
0
LINE
8
BLACK
6
CONTINUOUS
10
2.9055079921259841
20
1.3423057874015747
11
2.9060406692913383
21
1.3428384645669291
0
LINE
8
BLACK
6
CONTINUOUS
10
2.9060406692913383
20
1.3428384645669291
11
2.9835826771653542
21
1.3429133858267717
0
LINE
8
BLACK
6
CONTINUOUS
10
2.9835826771653542
20
1.3429133858267717
11
2.9839593307086614
21
1.3428384645669291
0
LINE
8
BLACK
6
CONTINUOUS
10
2.9073274015748032
20
1.3409457874015747
11
2.9074010629921259
21
1.2089815354330709
0
LINE
8
BLACK
6
CONTINUOUS
10
2.9074010629921259
20
1.2089815354330709
11
2.9826725590551182
21
1.2090542519685039
0
LINE
8
BLACK
6
CONTINUOUS
10
2.9826725590551182
20
1.2090542519685039
11
2.9825988976377951
21
1.3410185039370079
0
LINE
8
BLACK
6
CONTINUOUS
10
2.9825988976377951
20
1.3410185039370079
11
2.9073274015748032
21
1.3409457874015747
0
LINE
8
BLACK
6
CONTINUOUS
10
0.6527782283464567
20
1.367051062992126
11
0.653310905511811
21
1.3665183858267715
0
LINE
8
BLACK
6
CONTINUOUS
10
0.653310905511811
20
1.3665183858267715
11
0.6533858267716536
21
1.2338582677165355
0
LINE
8
BLACK
6
CONTINUOUS
10
0.6533858267716536
20
1.2338582677165355
11
0.653310905511811
21
1.2334816141732283
0
LINE
8
BLACK
6
CONTINUOUS
10
0.653310905511811
20
1.2334816141732283
11
0.6527782283464567
21
1.2329489370078739
0
LINE
8
BLACK
6
CONTINUOUS
10
0.6527782283464567
20
1.2329489370078739
11
0.5775984251968503
21
1.2328740157480316
0
LINE
8
BLACK
6
CONTINUOUS
10
0.5775984251968503
20
1.2328740157480316
11
0.5772217716535433
21
1.2329489370078739
0
LINE
8
BLACK
6
CONTINUOUS
10
0.5772217716535433
20
1.2329489370078739
11
0.5766890944881889
21
1.2334816141732283
0
LINE
8
BLACK
6
CONTINUOUS
10
0.5766890944881889
20
1.2334816141732283
11
0.5766141732283464
21
1.3661417322834646
0
LINE
8
BLACK
6
CONTINUOUS
10
0.5766141732283464
20
1.3661417322834646
11
0.5766890944881889
21
1.3665183858267715
0
LINE
8
BLACK
6
CONTINUOUS
10
0.5766890944881889
20
1.3665183858267715
11
0.5772217716535433
21
1.367051062992126
0
LINE
8
BLACK
6
CONTINUOUS
10
0.5772217716535433
20
1.367051062992126
11
0.6524015748031496
21
1.3671259842519685
0
LINE
8
BLACK
6
CONTINUOUS
10
0.6524015748031496
20
1.3671259842519685
11
0.6527782283464567
21
1.367051062992126
0
LINE
8
BLACK
6
CONTINUOUS
10
0.5785085039370078
20
1.3651584251968503
11
0.578582125984252
21
1.2347689763779528
0
LINE
8
BLACK
6
CONTINUOUS
10
0.578582125984252
20
1.2347689763779528
11
0.6514914566929134
21
1.2348416141732284
0
LINE
8
BLACK
6
CONTINUOUS
10
0.6514914566929134
20
1.2348416141732284
11
0.6514178346456693
21
1.365231062992126
0
LINE
8
BLACK
6
CONTINUOUS
10
0.6514178346456693
20
1.365231062992126
11
0.5785085039370078
21
1.3651584251968503
0
LINE
8
BLACK
6
CONTINUOUS
10
1.6523057874015747
20
1.3244920078740157
11
1.6528384645669292
21
1.3239593307086615
0
LINE
8
BLACK
6
CONTINUOUS
10
1.6528384645669292
20
1.3239593307086615
11
1.6529133858267717
21
1.2464173228346456
0
LINE
8
BLACK
6
CONTINUOUS
10
1.6529133858267717
20
1.2464173228346456
11
1.6528384645669292
21
1.2460406692913386
0
LINE
8
BLACK
6
CONTINUOUS
10
1.6528384645669292
20
1.2460406692913386
11
1.6523057874015747
21
1.2455079921259842
0
LINE
8
BLACK
6
CONTINUOUS
10
1.6523057874015747
20
1.2455079921259842
11
1.5180708661417321
21
1.2454330708661416
0
LINE
8
BLACK
6
CONTINUOUS
10
1.5180708661417321
20
1.2454330708661416
11
1.5176942125984252
21
1.2455079921259842
0
LINE
8
BLACK
6
CONTINUOUS
10
1.5176942125984252
20
1.2455079921259842
11
1.5171615354330708
21
1.2460406692913386
0
LINE
8
BLACK
6
CONTINUOUS
10
1.5171615354330708
20
1.2460406692913386
11
1.5170866141732282
21
1.3235826771653543
0
LINE
8
BLACK
6
CONTINUOUS
10
1.5170866141732282
20
1.3235826771653543
11
1.5171615354330708
21
1.3239593307086615
0
LINE
8
BLACK
6
CONTINUOUS
10
1.5171615354330708
20
1.3239593307086615
11
1.5176942125984252
21
1.3244920078740157
0
LINE
8
BLACK
6
CONTINUOUS
10
1.5176942125984252
20
1.3244920078740157
11
1.6519291338582678
21
1.3245669291338582
0
LINE
8
BLACK
6
CONTINUOUS
10
1.6519291338582678
20
1.3245669291338582
11
1.6523057874015747
21
1.3244920078740157
0
LINE
8
BLACK
6
CONTINUOUS
10
1.5189814960629922
20
1.3225989370078739
11
1.5190542125984252
21
1.2473274409448818
0
LINE
8
BLACK
6
CONTINUOUS
10
1.5190542125984252
20
1.2473274409448818
11
1.651018464566929
21
1.2474011023622047
0
LINE
8
BLACK
6
CONTINUOUS
10
1.651018464566929
20
1.2474011023622047
11
1.650945748031496
21
1.3226725984251968
0
LINE
8
BLACK
6
CONTINUOUS
10
1.650945748031496
20
1.3226725984251968
11
1.5189814960629922
21
1.3225989370078739
0
LINE
8
BLACK
6
CONTINUOUS
10
3.1365183858267716
20
1.358310905511811
11
3.1370510629921258
21
1.3577782283464566
0
LINE
8
BLACK
6
CONTINUOUS
10
3.1370510629921258
20
1.3577782283464566
11
3.1371259842519685
21
1.2825984251968503
0
LINE
8
BLACK
6
CONTINUOUS
10
3.1371259842519685
20
1.2825984251968503
11
3.1370510629921258
21
1.2822217716535433
0
LINE
8
BLACK
6
CONTINUOUS
10
3.1370510629921258
20
1.2822217716535433
11
3.1365183858267716
21
1.2816890944881889
0
LINE
8
BLACK
6
CONTINUOUS
10
3.1365183858267716
20
1.2816890944881889
11
3.0038582677165353
21
1.2816141732283464
0
LINE
8
BLACK
6
CONTINUOUS
10
3.0038582677165353
20
1.2816141732283464
11
3.0034816141732281
21
1.2816890944881889
0
LINE
8
BLACK
6
CONTINUOUS
10
3.0034816141732281
20
1.2816890944881889
11
3.0029489370078739
21
1.2822217716535433
0
LINE
8
BLACK
6
CONTINUOUS
10
3.0029489370078739
20
1.2822217716535433
11
3.0028740157480316
21
1.3574015748031496
0
LINE
8
BLACK
6
CONTINUOUS
10
3.0028740157480316
20
1.3574015748031496
11
3.0029489370078739
21
1.3577782283464566
0
LINE
8
BLACK
6
CONTINUOUS
10
3.0029489370078739
20
1.3577782283464566
11
3.0034816141732281
21
1.358310905511811
0
LINE
8
BLACK
6
CONTINUOUS
10
3.0034816141732281
20
1.358310905511811
11
3.1361417322834644
21
1.3583858267716535
0
LINE
8
BLACK
6
CONTINUOUS
10
3.1361417322834644
20
1.3583858267716535
11
3.1365183858267716
21
1.358310905511811
0
LINE
8
BLACK
6
CONTINUOUS
10
3.0047689370078738
20
1.356417874015748
11
3.0048415748031494
21
1.2835085433070865
0
LINE
8
BLACK
6
CONTINUOUS
10
3.0048415748031494
20
1.2835085433070865
11
3.1352310236220471
21
1.2835821653543307
0
LINE
8
BLACK
6
CONTINUOUS
10
3.1352310236220471
20
1.2835821653543307
11
3.1351583858267715
21
1.3564914960629921
0
LINE
8
BLACK
6
CONTINUOUS
10
3.1351583858267715
20
1.3564914960629921
11
3.0047689370078738
21
1.356417874015748
0
LINE
8
BLACK
6
CONTINUOUS
10
1.1389593307086614
20
1.4278384645669291
11
1.1394920078740158
21
1.4273057874015749
0
LINE
8
BLACK
6
CONTINUOUS
10
1.1394920078740158
20
1.4273057874015749
11
1.1395669291338582
21
1.2930708661417323
0
LINE
8
BLACK
6
CONTINUOUS
10
1.1395669291338582
20
1.2930708661417323
11
1.1394920078740158
21
1.2926942125984251
0
LINE
8
BLACK
6
CONTINUOUS
10
1.1394920078740158
20
1.2926942125984251
11
1.1389593307086614
21
1.2921615354330709
0
LINE
8
BLACK
6
CONTINUOUS
10
1.1389593307086614
20
1.2921615354330709
11
1.0614173228346457
21
1.2920866141732283
0
LINE
8
BLACK
6
CONTINUOUS
10
1.0614173228346457
20
1.2920866141732283
11
1.0610406692913386
21
1.2921615354330709
0
LINE
8
BLACK
6
CONTINUOUS
10
1.0610406692913386
20
1.2921615354330709
11
1.0605079921259841
21
1.2926942125984251
0
LINE
8
BLACK
6
CONTINUOUS
10
1.0605079921259841
20
1.2926942125984251
11
1.0604330708661418
21
1.4269291338582677
0
LINE
8
BLACK
6
CONTINUOUS
10
1.0604330708661418
20
1.4269291338582677
11
1.0605079921259841
21
1.4273057874015749
0
LINE
8
BLACK
6
CONTINUOUS
10
1.0605079921259841
20
1.4273057874015749
11
1.0610406692913386
21
1.4278384645669291
0
LINE
8
BLACK
6
CONTINUOUS
10
1.0610406692913386
20
1.4278384645669291
11
1.1385826771653542
21
1.4279133858267716
0
LINE
8
BLACK
6
CONTINUOUS
10
1.1385826771653542
20
1.4279133858267716
11
1.1389593307086614
21
1.4278384645669291
0
LINE
8
BLACK
6
CONTINUOUS
10
1.0623274015748032
20
1.4259457874015748
11
1.0624010629921259
21
1.2939815354330708
0
LINE
8
BLACK
6
CONTINUOUS
10
1.0624010629921259
20
1.2939815354330708
11
1.137672559055118
21
1.2940542519685039
0
LINE
8
BLACK
6
CONTINUOUS
10
1.137672559055118
20
1.2940542519685039
11
1.1375988976377953
21
1.4260185039370079
0
LINE
8
BLACK
6
CONTINUOUS
10
1.1375988976377953
20
1.4260185039370079
11
1.0623274015748032
21
1.4259457874015748
0
LINE
8
BLACK
6
CONTINUOUS
10
1.2189593307086615
20
1.4278384645669291
11
1.2194920078740157
21
1.4273057874015749
0
LINE
8
BLACK
6
CONTINUOUS
10
1.2194920078740157
20
1.4273057874015749
11
1.2195669291338582
21
1.2930708661417323
0
LINE
8
BLACK
6
CONTINUOUS
10
1.2195669291338582
20
1.2930708661417323
11
1.2194920078740157
21
1.2926942125984251
0
LINE
8
BLACK
6
CONTINUOUS
10
1.2194920078740157
20
1.2926942125984251
11
1.2189593307086615
21
1.2921615354330709
0
LINE
8
BLACK
6
CONTINUOUS
10
1.2189593307086615
20
1.2921615354330709
11
1.1414173228346456
21
1.2920866141732283
0
LINE
8
BLACK
6
CONTINUOUS
10
1.1414173228346456
20
1.2920866141732283
11
1.1410406692913386
21
1.2921615354330709
0
LINE
8
BLACK
6
CONTINUOUS
10
1.1410406692913386
20
1.2921615354330709
11
1.1405079921259842
21
1.2926942125984251
0
LINE
8
BLACK
6
CONTINUOUS
10
1.1405079921259842
20
1.2926942125984251
11
1.1404330708661417
21
1.4269291338582677
0
LINE
8
BLACK
6
CONTINUOUS
10
1.1404330708661417
20
1.4269291338582677
11
1.1405079921259842
21
1.4273057874015749
0
LINE
8
BLACK
6
CONTINUOUS
10
1.1405079921259842
20
1.4273057874015749
11
1.1410406692913386
21
1.4278384645669291
0
LINE
8
BLACK
6
CONTINUOUS
10
1.1410406692913386
20
1.4278384645669291
11
1.2185826771653543
21
1.4279133858267716
0
LINE
8
BLACK
6
CONTINUOUS
10
1.2185826771653543
20
1.4279133858267716
11
1.2189593307086615
21
1.4278384645669291
0
LINE
8
BLACK
6
CONTINUOUS
10
1.1423274015748031
20
1.4259457874015748
11
1.142401062992126
21
1.2939815354330708
0
LINE
8
BLACK
6
CONTINUOUS
10
1.142401062992126
20
1.2939815354330708
11
1.2176725590551181
21
1.2940542519685039
0
LINE
8
BLACK
6
CONTINUOUS
10
1.2176725590551181
20
1.2940542519685039
11
1.2175988976377952
21
1.4260185039370079
0
LINE
8
BLACK
6
CONTINUOUS
10
1.2175988976377952
20
1.4260185039370079
11
1.1423274015748031
21
1.4259457874015748
0
LINE
8
BLACK
6
CONTINUOUS
10
1.8447782283464567
20
1.445051062992126
11
1.8453109055118109
21
1.4445183858267716
0
LINE
8
BLACK
6
CONTINUOUS
10
1.8453109055118109
20
1.4445183858267716
11
1.8453858267716534
21
1.3118582677165354
0
LINE
8
BLACK
6
CONTINUOUS
10
1.8453858267716534
20
1.3118582677165354
11
1.8453109055118109
21
1.3114816141732284
0
LINE
8
BLACK
6
CONTINUOUS
10
1.8453109055118109
20
1.3114816141732284
11
1.8447782283464567
21
1.310948937007874
0
LINE
8
BLACK
6
CONTINUOUS
10
1.8447782283464567
20
1.310948937007874
11
1.7695984251968504
21
1.3108740157480314
0
LINE
8
BLACK
6
CONTINUOUS
10
1.7695984251968504
20
1.3108740157480314
11
1.7692217716535432
21
1.310948937007874
0
LINE
8
BLACK
6
CONTINUOUS
10
1.7692217716535432
20
1.310948937007874
11
1.768689094488189
21
1.3114816141732284
0
LINE
8
BLACK
6
CONTINUOUS
10
1.768689094488189
20
1.3114816141732284
11
1.7686141732283465
21
1.4441417322834644
0
LINE
8
BLACK
6
CONTINUOUS
10
1.7686141732283465
20
1.4441417322834644
11
1.768689094488189
21
1.4445183858267716
0
LINE
8
BLACK
6
CONTINUOUS
10
1.768689094488189
20
1.4445183858267716
11
1.7692217716535432
21
1.445051062992126
0
LINE
8
BLACK
6
CONTINUOUS
10
1.7692217716535432
20
1.445051062992126
11
1.8444015748031495
21
1.4451259842519684
0
LINE
8
BLACK
6
CONTINUOUS
10
1.8444015748031495
20
1.4451259842519684
11
1.8447782283464567
21
1.445051062992126
0
LINE
8
BLACK
6
CONTINUOUS
10
1.7705085039370079
20
1.4431584251968503
11
1.770582125984252
21
1.3127689763779526
0
LINE
8
BLACK
6
CONTINUOUS
10
1.770582125984252
20
1.3127689763779526
11
1.8434914566929133
21
1.3128416141732284
0
LINE
8
BLACK
6
CONTINUOUS
10
1.8434914566929133
20
1.3128416141732284
11
1.8434178346456693
21
1.4432310629921259
0
LINE
8
BLACK
6
CONTINUOUS
10
1.8434178346456693
20
1.4432310629921259
11
1.7705085039370079
21
1.4431584251968503
0
LINE
8
BLACK
6
CONTINUOUS
10
2.5366799606299213
20
1.5282126377952756
11
2.5372126377952755
21
1.5276799606299212
0
LINE
8
BLACK
6
CONTINUOUS
10
2.5372126377952755
20
1.5276799606299212
11
2.5372875590551183
21
1.3225788976377952
0
LINE
8
BLACK
6
CONTINUOUS
10
2.5372875590551183
20
1.3225788976377952
11
2.5372126377952755
21
1.3222022440944881
0
LINE
8
BLACK
6
CONTINUOUS
10
2.5372126377952755
20
1.3222022440944881
11
2.5366799606299213
21
1.3216695669291338
0
LINE
8
BLACK
6
CONTINUOUS
10
2.5366799606299213
20
1.3216695669291338
11
2.3315788976377951
21
1.3215946456692913
0
LINE
8
BLACK
6
CONTINUOUS
10
2.3315788976377951
20
1.3215946456692913
11
2.331202244094488
21
1.3216695669291338
0
LINE
8
BLACK
6
CONTINUOUS
10
2.331202244094488
20
1.3216695669291338
11
2.3306695669291337
21
1.3222022440944881
0
LINE
8
BLACK
6
CONTINUOUS
10
2.3306695669291337
20
1.3222022440944881
11
2.3305946456692914
21
1.5273033070866142
0
LINE
8
BLACK
6
CONTINUOUS
10
2.3305946456692914
20
1.5273033070866142
11
2.3306695669291337
21
1.5276799606299212
0
LINE
8
BLACK
6
CONTINUOUS
10
2.3306695669291337
20
1.5276799606299212
11
2.331202244094488
21
1.5282126377952756
0
LINE
8
BLACK
6
CONTINUOUS
10
2.331202244094488
20
1.5282126377952756
11
2.5363033070866141
21
1.5282875590551181
0
LINE
8
BLACK
6
CONTINUOUS
10
2.5363033070866141
20
1.5282875590551181
11
2.5366799606299213
21
1.5282126377952756
0
LINE
8
BLACK
6
CONTINUOUS
10
2.3324887007874016
20
1.5263194094488188
11
2.3325627952755905
21
1.3234887401574802
0
LINE
8
BLACK
6
CONTINUOUS
10
2.3325627952755905
20
1.3234887401574802
11
2.5353934645669289
21
1.3235628346456692
0
LINE
8
BLACK
6
CONTINUOUS
10
2.5353934645669289
20
1.3235628346456692
11
2.53531937007874
21
1.5263935039370078
0
LINE
8
BLACK
6
CONTINUOUS
10
2.53531937007874
20
1.5263935039370078
11
2.3324887007874016
21
1.5263194094488188
0
LINE
8
BLACK
6
CONTINUOUS
10
1.4415183858267717
20
1.4233109055118109
11
1.4420510629921259
21
1.4227782283464567
0
LINE
8
BLACK
6
CONTINUOUS
10
1.4420510629921259
20
1.4227782283464567
11
1.4421259842519685
21
1.3475984251968505
0
LINE
8
BLACK
6
CONTINUOUS
10
1.4421259842519685
20
1.3475984251968505
11
1.4420510629921259
21
1.3472217716535433
0
LINE
8
BLACK
6
CONTINUOUS
10
1.4420510629921259
20
1.3472217716535433
11
1.4415183858267717
21
1.3466890944881889
0
LINE
8
BLACK
6
CONTINUOUS
10
1.4415183858267717
20
1.3466890944881889
11
1.3088582677165355
21
1.3466141732283465
0
LINE
8
BLACK
6
CONTINUOUS
10
1.3088582677165355
20
1.3466141732283465
11
1.3084816141732283
21
1.3466890944881889
0
LINE
8
BLACK
6
CONTINUOUS
10
1.3084816141732283
20
1.3466890944881889
11
1.3079489370078741
21
1.3472217716535433
0
LINE
8
BLACK
6
CONTINUOUS
10
1.3079489370078741
20
1.3472217716535433
11
1.3078740157480315
21
1.4224015748031495
0
LINE
8
BLACK
6
CONTINUOUS
10
1.3078740157480315
20
1.4224015748031495
11
1.3079489370078741
21
1.4227782283464567
0
LINE
8
BLACK
6
CONTINUOUS
10
1.3079489370078741
20
1.4227782283464567
11
1.3084816141732283
21
1.4233109055118109
0
LINE
8
BLACK
6
CONTINUOUS
10
1.3084816141732283
20
1.4233109055118109
11
1.4411417322834645
21
1.4233858267716535
0
LINE
8
BLACK
6
CONTINUOUS
10
1.4411417322834645
20
1.4233858267716535
11
1.4415183858267717
21
1.4233109055118109
0
LINE
8
BLACK
6
CONTINUOUS
10
1.309768937007874
20
1.4214178740157479
11
1.3098415748031496
21
1.3485085433070867
0
LINE
8
BLACK
6
CONTINUOUS
10
1.3098415748031496
20
1.3485085433070867
11
1.4402310236220472
21
1.3485821653543306
0
LINE
8
BLACK
6
CONTINUOUS
10
1.4402310236220472
20
1.3485821653543306
11
1.4401583858267717
21
1.4214914960629921
0
LINE
8
BLACK
6
CONTINUOUS
10
1.4401583858267717
20
1.4214914960629921
11
1.309768937007874
21
1.4214178740157479
0
LINE
8
BLACK
6
CONTINUOUS
10
1.5815183858267716
20
1.4233109055118109
11
1.5820510629921261
21
1.4227782283464567
0
LINE
8
BLACK
6
CONTINUOUS
10
1.5820510629921261
20
1.4227782283464567
11
1.5821259842519684
21
1.3475984251968505
0
LINE
8
BLACK
6
CONTINUOUS
10
1.5821259842519684
20
1.3475984251968505
11
1.5820510629921261
21
1.3472217716535433
0
LINE
8
BLACK
6
CONTINUOUS
10
1.5820510629921261
20
1.3472217716535433
11
1.5815183858267716
21
1.3466890944881889
0
LINE
8
BLACK
6
CONTINUOUS
10
1.5815183858267716
20
1.3466890944881889
11
1.4488582677165354
21
1.3466141732283465
0
LINE
8
BLACK
6
CONTINUOUS
10
1.4488582677165354
20
1.3466141732283465
11
1.4484816141732284
21
1.3466890944881889
0
LINE
8
BLACK
6
CONTINUOUS
10
1.4484816141732284
20
1.3466890944881889
11
1.447948937007874
21
1.3472217716535433
0
LINE
8
BLACK
6
CONTINUOUS
10
1.447948937007874
20
1.3472217716535433
11
1.4478740157480314
21
1.4224015748031495
0
LINE
8
BLACK
6
CONTINUOUS
10
1.4478740157480314
20
1.4224015748031495
11
1.447948937007874
21
1.4227782283464567
0
LINE
8
BLACK
6
CONTINUOUS
10
1.447948937007874
20
1.4227782283464567
11
1.4484816141732284
21
1.4233109055118109
0
LINE
8
BLACK
6
CONTINUOUS
10
1.4484816141732284
20
1.4233109055118109
11
1.5811417322834644
21
1.4233858267716535
0
LINE
8
BLACK
6
CONTINUOUS
10
1.5811417322834644
20
1.4233858267716535
11
1.5815183858267716
21
1.4233109055118109
0
LINE
8
BLACK
6
CONTINUOUS
10
1.4497689370078739
20
1.4214178740157479
11
1.4498415748031497
21
1.3485085433070867
0
LINE
8
BLACK
6
CONTINUOUS
10
1.4498415748031497
20
1.3485085433070867
11
1.5802310236220471
21
1.3485821653543306
0
LINE
8
BLACK
6
CONTINUOUS
10
1.5802310236220471
20
1.3485821653543306
11
1.5801583858267716
21
1.4214914960629921
0
LINE
8
BLACK
6
CONTINUOUS
10
1.5801583858267716
20
1.4214914960629921
11
1.4497689370078739
21
1.4214178740157479
0
LINE
8
BLACK
6
CONTINUOUS
10
1.7165183858267716
20
1.4233109055118109
11
1.7170510629921258
21
1.4227782283464567
0
LINE
8
BLACK
6
CONTINUOUS
10
1.7170510629921258
20
1.4227782283464567
11
1.7171259842519684
21
1.3475984251968505
0
LINE
8
BLACK
6
CONTINUOUS
10
1.7171259842519684
20
1.3475984251968505
11
1.7170510629921258
21
1.3472217716535433
0
LINE
8
BLACK
6
CONTINUOUS
10
1.7170510629921258
20
1.3472217716535433
11
1.7165183858267716
21
1.3466890944881889
0
LINE
8
BLACK
6
CONTINUOUS
10
1.7165183858267716
20
1.3466890944881889
11
1.5838582677165354
21
1.3466141732283465
0
LINE
8
BLACK
6
CONTINUOUS
10
1.5838582677165354
20
1.3466141732283465
11
1.5834816141732284
21
1.3466890944881889
0
LINE
8
BLACK
6
CONTINUOUS
10
1.5834816141732284
20
1.3466890944881889
11
1.582948937007874
21
1.3472217716535433
0
LINE
8
BLACK
6
CONTINUOUS
10
1.582948937007874
20
1.3472217716535433
11
1.5828740157480314
21
1.4224015748031495
0
LINE
8
BLACK
6
CONTINUOUS
10
1.5828740157480314
20
1.4224015748031495
11
1.582948937007874
21
1.4227782283464567
0
LINE
8
BLACK
6
CONTINUOUS
10
1.582948937007874
20
1.4227782283464567
11
1.5834816141732284
21
1.4233109055118109
0
LINE
8
BLACK
6
CONTINUOUS
10
1.5834816141732284
20
1.4233109055118109
11
1.7161417322834644
21
1.4233858267716535
0
LINE
8
BLACK
6
CONTINUOUS
10
1.7161417322834644
20
1.4233858267716535
11
1.7165183858267716
21
1.4233109055118109
0
LINE
8
BLACK
6
CONTINUOUS
10
1.5847689370078739
20
1.4214178740157479
11
1.5848415748031495
21
1.3485085433070867
0
LINE
8
BLACK
6
CONTINUOUS
10
1.5848415748031495
20
1.3485085433070867
11
1.7152310236220472
21
1.3485821653543306
0
LINE
8
BLACK
6
CONTINUOUS
10
1.7152310236220472
20
1.3485821653543306
11
1.7151583858267716
21
1.4214914960629921
0
LINE
8
BLACK
6
CONTINUOUS
10
1.7151583858267716
20
1.4214914960629921
11
1.5847689370078739
21
1.4214178740157479
0
LINE
8
BLACK
6
CONTINUOUS
10
2.7579004330708661
20
1.5227795669291337
11
2.7584331102362203
21
1.5222468897637795
0
LINE
8
BLACK
6
CONTINUOUS
10
2.7584331102362203
20
1.5222468897637795
11
2.7585080314960631
21
1.3880119685039369
0
LINE
8
BLACK
6
CONTINUOUS
10
2.7585080314960631
20
1.3880119685039369
11
2.7584331102362203
21
1.38763531496063
0
LINE
8
BLACK
6
CONTINUOUS
10
2.7584331102362203
20
1.38763531496063
11
2.7579004330708661
21
1.3871026377952755
0
LINE
8
BLACK
6
CONTINUOUS
10
2.7579004330708661
20
1.3871026377952755
11
2.6803584251968502
21
1.387027716535433
0
LINE
8
BLACK
6
CONTINUOUS
10
2.6803584251968502
20
1.387027716535433
11
2.6799817716535435
21
1.3871026377952755
0
LINE
8
BLACK
6
CONTINUOUS
10
2.6799817716535435
20
1.3871026377952755
11
2.6794490944881888
21
1.38763531496063
0
LINE
8
BLACK
6
CONTINUOUS
10
2.6794490944881888
20
1.38763531496063
11
2.6793741732283465
21
1.5218702362204723
0
LINE
8
BLACK
6
CONTINUOUS
10
2.6793741732283465
20
1.5218702362204723
11
2.6794490944881888
21
1.5222468897637795
0
LINE
8
BLACK
6
CONTINUOUS
10
2.6794490944881888
20
1.5222468897637795
11
2.6799817716535435
21
1.5227795669291337
0
LINE
8
BLACK
6
CONTINUOUS
10
2.6799817716535435
20
1.5227795669291337
11
2.7575237795275589
21
1.5228544881889763
0
LINE
8
BLACK
6
CONTINUOUS
10
2.7575237795275589
20
1.5228544881889763
11
2.7579004330708661
21
1.5227795669291337
0
LINE
8
BLACK
6
CONTINUOUS
10
2.6812685039370079
20
1.5208868897637795
11
2.6813421653543306
21
1.3889226377952755
0
LINE
8
BLACK
6
CONTINUOUS
10
2.6813421653543306
20
1.3889226377952755
11
2.7566136614173229
21
1.3889953543307085
0
LINE
8
BLACK
6
CONTINUOUS
10
2.7566136614173229
20
1.3889953543307085
11
2.7565399999999998
21
1.5209596062992126
0
LINE
8
BLACK
6
CONTINUOUS
10
2.7565399999999998
20
1.5209596062992126
11
2.6812685039370079
21
1.5208868897637795
0
LINE
8
BLACK
6
CONTINUOUS
10
2.6714004330708661
20
1.5236772047244094
11
2.6719331102362203
21
1.5231445275590552
0
LINE
8
BLACK
6
CONTINUOUS
10
2.6719331102362203
20
1.5231445275590552
11
2.672008031496063
21
1.3889096062992126
0
LINE
8
BLACK
6
CONTINUOUS
10
2.672008031496063
20
1.3889096062992126
11
2.6719331102362203
21
1.3885329527559054
0
LINE
8
BLACK
6
CONTINUOUS
10
2.6719331102362203
20
1.3885329527559054
11
2.6714004330708661
21
1.3880002755905512
0
LINE
8
BLACK
6
CONTINUOUS
10
2.6714004330708661
20
1.3880002755905512
11
2.5938584251968502
21
1.3879253543307086
0
LINE
8
BLACK
6
CONTINUOUS
10
2.5938584251968502
20
1.3879253543307086
11
2.5934817716535434
21
1.3880002755905512
0
LINE
8
BLACK
6
CONTINUOUS
10
2.5934817716535434
20
1.3880002755905512
11
2.5929490944881888
21
1.3885329527559054
0
LINE
8
BLACK
6
CONTINUOUS
10
2.5929490944881888
20
1.3885329527559054
11
2.5928741732283465
21
1.522767874015748
0
LINE
8
BLACK
6
CONTINUOUS
10
2.5928741732283465
20
1.522767874015748
11
2.5929490944881888
21
1.5231445275590552
0
LINE
8
BLACK
6
CONTINUOUS
10
2.5929490944881888
20
1.5231445275590552
11
2.5934817716535434
21
1.5236772047244094
0
LINE
8
BLACK
6
CONTINUOUS
10
2.5934817716535434
20
1.5236772047244094
11
2.6710237795275589
21
1.5237521259842519
0
LINE
8
BLACK
6
CONTINUOUS
10
2.6710237795275589
20
1.5237521259842519
11
2.6714004330708661
21
1.5236772047244094
0
LINE
8
BLACK
6
CONTINUOUS
10
2.5947685039370079
20
1.5217845275590551
11
2.5948421653543305
21
1.3898202755905511
0
LINE
8
BLACK
6
CONTINUOUS
10
2.5948421653543305
20
1.3898202755905511
11
2.6701136614173229
21
1.3898929921259842
0
LINE
8
BLACK
6
CONTINUOUS
10
2.6701136614173229
20
1.3898929921259842
11
2.6700399999999997
21
1.5218572440944882
0
LINE
8
BLACK
6
CONTINUOUS
10
2.6700399999999997
20
1.5218572440944882
11
2.5947685039370079
21
1.5217845275590551
0
LINE
8
BLACK
6
CONTINUOUS
10
0.7215183858267716
20
1.4983109055118109
11
0.722051062992126
21
1.4977782283464567
0
LINE
8
BLACK
6
CONTINUOUS
10
0.722051062992126
20
1.4977782283464567
11
0.7221259842519685
21
1.4225984251968504
0
LINE
8
BLACK
6
CONTINUOUS
10
0.7221259842519685
20
1.4225984251968504
11
0.722051062992126
21
1.4222217716535432
0
LINE
8
BLACK
6
CONTINUOUS
10
0.722051062992126
20
1.4222217716535432
11
0.7215183858267716
21
1.421689094488189
0
LINE
8
BLACK
6
CONTINUOUS
10
0.7215183858267716
20
1.421689094488189
11
0.5888582677165354
21
1.4216141732283465
0
LINE
8
BLACK
6
CONTINUOUS
10
0.5888582677165354
20
1.4216141732283465
11
0.5884816141732283
21
1.421689094488189
0
LINE
8
BLACK
6
CONTINUOUS
10
0.5884816141732283
20
1.421689094488189
11
0.587948937007874
21
1.4222217716535432
0
LINE
8
BLACK
6
CONTINUOUS
10
0.587948937007874
20
1.4222217716535432
11
0.5878740157480314
21
1.4974015748031495
0
LINE
8
BLACK
6
CONTINUOUS
10
0.5878740157480314
20
1.4974015748031495
11
0.587948937007874
21
1.4977782283464567
0
LINE
8
BLACK
6
CONTINUOUS
10
0.587948937007874
20
1.4977782283464567
11
0.5884816141732283
21
1.4983109055118109
0
LINE
8
BLACK
6
CONTINUOUS
10
0.5884816141732283
20
1.4983109055118109
11
0.7211417322834646
21
1.4983858267716534
0
LINE
8
BLACK
6
CONTINUOUS
10
0.7211417322834646
20
1.4983858267716534
11
0.7215183858267716
21
1.4983109055118109
0
LINE
8
BLACK
6
CONTINUOUS
10
0.589768937007874
20
1.4964178740157481
11
0.5898415748031496
21
1.4235085433070866
0
LINE
8
BLACK
6
CONTINUOUS
10
0.5898415748031496
20
1.4235085433070866
11
0.7202310236220473
21
1.4235821653543306
0
LINE
8
BLACK
6
CONTINUOUS
10
0.7202310236220473
20
1.4235821653543306
11
0.7201583858267716
21
1.496491496062992
0
LINE
8
BLACK
6
CONTINUOUS
10
0.7201583858267716
20
1.496491496062992
11
0.589768937007874
21
1.4964178740157481
0
LINE
8
BLACK
6
CONTINUOUS
10
1.4415183858267717
20
1.5083109055118109
11
1.4420510629921259
21
1.5077782283464567
0
LINE
8
BLACK
6
CONTINUOUS
10
1.4420510629921259
20
1.5077782283464567
11
1.4421259842519685
21
1.4325984251968504
0
LINE
8
BLACK
6
CONTINUOUS
10
1.4421259842519685
20
1.4325984251968504
11
1.4420510629921259
21
1.4322217716535433
0
LINE
8
BLACK
6
CONTINUOUS
10
1.4420510629921259
20
1.4322217716535433
11
1.4415183858267717
21
1.431689094488189
0
LINE
8
BLACK
6
CONTINUOUS
10
1.4415183858267717
20
1.431689094488189
11
1.3088582677165355
21
1.4316141732283465
0
LINE
8
BLACK
6
CONTINUOUS
10
1.3088582677165355
20
1.4316141732283465
11
1.3084816141732283
21
1.431689094488189
0
LINE
8
BLACK
6
CONTINUOUS
10
1.3084816141732283
20
1.431689094488189
11
1.3079489370078741
21
1.4322217716535433
0
LINE
8
BLACK
6
CONTINUOUS
10
1.3079489370078741
20
1.4322217716535433
11
1.3078740157480315
21
1.5074015748031495
0
LINE
8
BLACK
6
CONTINUOUS
10
1.3078740157480315
20
1.5074015748031495
11
1.3079489370078741
21
1.5077782283464567
0
LINE
8
BLACK
6
CONTINUOUS
10
1.3079489370078741
20
1.5077782283464567
11
1.3084816141732283
21
1.5083109055118109
0
LINE
8
BLACK
6
CONTINUOUS
10
1.3084816141732283
20
1.5083109055118109
11
1.4411417322834645
21
1.5083858267716534
0
LINE
8
BLACK
6
CONTINUOUS
10
1.4411417322834645
20
1.5083858267716534
11
1.4415183858267717
21
1.5083109055118109
0
LINE
8
BLACK
6
CONTINUOUS
10
1.309768937007874
20
1.5064178740157479
11
1.3098415748031496
21
1.4335085433070867
0
LINE
8
BLACK
6
CONTINUOUS
10
1.3098415748031496
20
1.4335085433070867
11
1.4402310236220472
21
1.4335821653543306
0
LINE
8
BLACK
6
CONTINUOUS
10
1.4402310236220472
20
1.4335821653543306
11
1.4401583858267717
21
1.506491496062992
0
LINE
8
BLACK
6
CONTINUOUS
10
1.4401583858267717
20
1.506491496062992
11
1.309768937007874
21
1.5064178740157479
0
LINE
8
BLACK
6
CONTINUOUS
10
0.8139593307086614
20
1.6128384645669291
11
0.8144920078740158
21
1.6123057874015747
0
LINE
8
BLACK
6
CONTINUOUS
10
0.8144920078740158
20
1.6123057874015747
11
0.8145669291338582
21
1.4780708661417323
0
LINE
8
BLACK
6
CONTINUOUS
10
0.8145669291338582
20
1.4780708661417323
11
0.8144920078740158
21
1.4776942125984251
0
LINE
8
BLACK
6
CONTINUOUS
10
0.8144920078740158
20
1.4776942125984251
11
0.8139593307086614
21
1.4771615354330709
0
LINE
8
BLACK
6
CONTINUOUS
10
0.8139593307086614
20
1.4771615354330709
11
0.7364173228346457
21
1.4770866141732284
0
LINE
8
BLACK
6
CONTINUOUS
10
0.7364173228346457
20
1.4770866141732284
11
0.7360406692913386
21
1.4771615354330709
0
LINE
8
BLACK
6
CONTINUOUS
10
0.7360406692913386
20
1.4771615354330709
11
0.7355079921259843
21
1.4776942125984251
0
LINE
8
BLACK
6
CONTINUOUS
10
0.7355079921259843
20
1.4776942125984251
11
0.7354330708661417
21
1.6119291338582677
0
LINE
8
BLACK
6
CONTINUOUS
10
0.7354330708661417
20
1.6119291338582677
11
0.7355079921259843
21
1.6123057874015747
0
LINE
8
BLACK
6
CONTINUOUS
10
0.7355079921259843
20
1.6123057874015747
11
0.7360406692913386
21
1.6128384645669291
0
LINE
8
BLACK
6
CONTINUOUS
10
0.7360406692913386
20
1.6128384645669291
11
0.8135826771653543
21
1.6129133858267717
0
LINE
8
BLACK
6
CONTINUOUS
10
0.8135826771653543
20
1.6129133858267717
11
0.8139593307086614
21
1.6128384645669291
0
LINE
8
BLACK
6
CONTINUOUS
10
0.7373274015748031
20
1.6109457874015747
11
0.7374010629921259
21
1.4789815354330709
0
LINE
8
BLACK
6
CONTINUOUS
10
0.7374010629921259
20
1.4789815354330709
11
0.812672559055118
21
1.4790542519685039
0
LINE
8
BLACK
6
CONTINUOUS
10
0.812672559055118
20
1.4790542519685039
11
0.8125988976377952
21
1.6110185039370077
0
LINE
8
BLACK
6
CONTINUOUS
10
0.8125988976377952
20
1.6110185039370077
11
0.7373274015748031
21
1.6109457874015747
0
LINE
8
BLACK
6
CONTINUOUS
10
1.4427782283464567
20
1.647051062992126
11
1.443310905511811
21
1.6465183858267716
0
LINE
8
BLACK
6
CONTINUOUS
10
1.443310905511811
20
1.6465183858267716
11
1.4433858267716535
21
1.5138582677165353
0
LINE
8
BLACK
6
CONTINUOUS
10
1.4433858267716535
20
1.5138582677165353
11
1.443310905511811
21
1.5134816141732284
0
LINE
8
BLACK
6
CONTINUOUS
10
1.443310905511811
20
1.5134816141732284
11
1.4427782283464567
21
1.5129489370078739
0
LINE
8
BLACK
6
CONTINUOUS
10
1.4427782283464567
20
1.5129489370078739
11
1.3675984251968503
21
1.5128740157480314
0
LINE
8
BLACK
6
CONTINUOUS
10
1.3675984251968503
20
1.5128740157480314
11
1.3672217716535433
21
1.5129489370078739
0
LINE
8
BLACK
6
CONTINUOUS
10
1.3672217716535433
20
1.5129489370078739
11
1.3666890944881889
21
1.5134816141732284
0
LINE
8
BLACK
6
CONTINUOUS
10
1.3666890944881889
20
1.5134816141732284
11
1.3666141732283463
21
1.6461417322834646
0
LINE
8
BLACK
6
CONTINUOUS
10
1.3666141732283463
20
1.6461417322834646
11
1.3666890944881889
21
1.6465183858267716
0
LINE
8
BLACK
6
CONTINUOUS
10
1.3666890944881889
20
1.6465183858267716
11
1.3672217716535433
21
1.647051062992126
0
LINE
8
BLACK
6
CONTINUOUS
10
1.3672217716535433
20
1.647051062992126
11
1.4424015748031496
21
1.6471259842519685
0
LINE
8
BLACK
6
CONTINUOUS
10
1.4424015748031496
20
1.6471259842519685
11
1.4427782283464567
21
1.647051062992126
0
LINE
8
BLACK
6
CONTINUOUS
10
1.3685085039370077
20
1.6451584251968503
11
1.3685821259842519
21
1.5147689763779528
0
LINE
8
BLACK
6
CONTINUOUS
10
1.3685821259842519
20
1.5147689763779528
11
1.4414914566929133
21
1.5148416141732284
0
LINE
8
BLACK
6
CONTINUOUS
10
1.4414914566929133
20
1.5148416141732284
11
1.4414178346456692
21
1.6452310629921258
0
LINE
8
BLACK
6
CONTINUOUS
10
1.4414178346456692
20
1.6452310629921258
11
1.3685085039370077
21
1.6451584251968503
0
LINE
8
BLACK
6
CONTINUOUS
10
1.5227782283464566
20
1.647051062992126
11
1.523310905511811
21
1.6465183858267716
0
LINE
8
BLACK
6
CONTINUOUS
10
1.523310905511811
20
1.6465183858267716
11
1.5233858267716536
21
1.5138582677165353
0
LINE
8
BLACK
6
CONTINUOUS
10
1.5233858267716536
20
1.5138582677165353
11
1.523310905511811
21
1.5134816141732284
0
LINE
8
BLACK
6
CONTINUOUS
10
1.523310905511811
20
1.5134816141732284
11
1.5227782283464566
21
1.5129489370078739
0
LINE
8
BLACK
6
CONTINUOUS
10
1.5227782283464566
20
1.5129489370078739
11
1.4475984251968503
21
1.5128740157480314
0
LINE
8
BLACK
6
CONTINUOUS
10
1.4475984251968503
20
1.5128740157480314
11
1.4472217716535434
21
1.5129489370078739
0
LINE
8
BLACK
6
CONTINUOUS
10
1.4472217716535434
20
1.5129489370078739
11
1.4466890944881889
21
1.5134816141732284
0
LINE
8
BLACK
6
CONTINUOUS
10
1.4466890944881889
20
1.5134816141732284
11
1.4466141732283464
21
1.6461417322834646
0
LINE
8
BLACK
6
CONTINUOUS
10
1.4466141732283464
20
1.6461417322834646
11
1.4466890944881889
21
1.6465183858267716
0
LINE
8
BLACK
6
CONTINUOUS
10
1.4466890944881889
20
1.6465183858267716
11
1.4472217716535434
21
1.647051062992126
0
LINE
8
BLACK
6
CONTINUOUS
10
1.4472217716535434
20
1.647051062992126
11
1.5224015748031496
21
1.6471259842519685
0
LINE
8
BLACK
6
CONTINUOUS
10
1.5224015748031496
20
1.6471259842519685
11
1.5227782283464566
21
1.647051062992126
0
LINE
8
BLACK
6
CONTINUOUS
10
1.4485085039370078
20
1.6451584251968503
11
1.448582125984252
21
1.5147689763779528
0
LINE
8
BLACK
6
CONTINUOUS
10
1.448582125984252
20
1.5147689763779528
11
1.5214914566929134
21
1.5148416141732284
0
LINE
8
BLACK
6
CONTINUOUS
10
1.5214914566929134
20
1.5148416141732284
11
1.5214178346456693
21
1.6452310629921258
0
LINE
8
BLACK
6
CONTINUOUS
10
1.5214178346456693
20
1.6452310629921258
11
1.4485085039370078
21
1.6451584251968503
0
LINE
8
BLACK
6
CONTINUOUS
10
2.6862468897637797
20
1.6244331102362204
11
2.6867795669291339
21
1.6239004330708662
0
LINE
8
BLACK
6
CONTINUOUS
10
2.6867795669291339
20
1.6239004330708662
11
2.6868544881889762
21
1.5463584251968503
0
LINE
8
BLACK
6
CONTINUOUS
10
2.6868544881889762
20
1.5463584251968503
11
2.6867795669291339
21
1.5459817716535433
0
LINE
8
BLACK
6
CONTINUOUS
10
2.6867795669291339
20
1.5459817716535433
11
2.6862468897637797
21
1.5454490944881889
0
LINE
8
BLACK
6
CONTINUOUS
10
2.6862468897637797
20
1.5454490944881889
11
2.5520119685039369
21
1.5453741732283464
0
LINE
8
BLACK
6
CONTINUOUS
10
2.5520119685039369
20
1.5453741732283464
11
2.5516353149606297
21
1.5454490944881889
0
LINE
8
BLACK
6
CONTINUOUS
10
2.5516353149606297
20
1.5454490944881889
11
2.5511026377952755
21
1.5459817716535433
0
LINE
8
BLACK
6
CONTINUOUS
10
2.5511026377952755
20
1.5459817716535433
11
2.5510277165354331
21
1.623523779527559
0
LINE
8
BLACK
6
CONTINUOUS
10
2.5510277165354331
20
1.623523779527559
11
2.5511026377952755
21
1.6239004330708662
0
LINE
8
BLACK
6
CONTINUOUS
10
2.5511026377952755
20
1.6239004330708662
11
2.5516353149606297
21
1.6244331102362204
0
LINE
8
BLACK
6
CONTINUOUS
10
2.5516353149606297
20
1.6244331102362204
11
2.6858702362204725
21
1.6245080314960629
0
LINE
8
BLACK
6
CONTINUOUS
10
2.6858702362204725
20
1.6245080314960629
11
2.6862468897637797
21
1.6244331102362204
0
LINE
8
BLACK
6
CONTINUOUS
10
2.5529225984251966
20
1.6225400393700786
11
2.5529953149606297
21
1.5472685433070865
0
LINE
8
BLACK
6
CONTINUOUS
10
2.5529953149606297
20
1.5472685433070865
11
2.684959566929134
21
1.5473422047244094
0
LINE
8
BLACK
6
CONTINUOUS
10
2.684959566929134
20
1.5473422047244094
11
2.6848868503937009
21
1.6226137007874015
0
LINE
8
BLACK
6
CONTINUOUS
10
2.6848868503937009
20
1.6226137007874015
11
2.5529225984251966
21
1.6225400393700786
0
LINE
8
BLACK
6
CONTINUOUS
10
2.2967193307086613
20
1.6869921653543307
11
2.2972520078740155
21
1.6864594881889763
0
LINE
8
BLACK
6
CONTINUOUS
10
2.2972520078740155
20
1.6864594881889763
11
2.2973269291338583
21
1.55379937007874
0
LINE
8
BLACK
6
CONTINUOUS
10
2.2973269291338583
20
1.55379937007874
11
2.2972520078740155
21
1.5534227165354331
0
LINE
8
BLACK
6
CONTINUOUS
10
2.2972520078740155
20
1.5534227165354331
11
2.2967193307086613
21
1.5528900393700786
0
LINE
8
BLACK
6
CONTINUOUS
10
2.2967193307086613
20
1.5528900393700786
11
2.221539527559055
21
1.5528151181102361
0
LINE
8
BLACK
6
CONTINUOUS
10
2.221539527559055
20
1.5528151181102361
11
2.2211628740157479
21
1.5528900393700786
0
LINE
8
BLACK
6
CONTINUOUS
10
2.2211628740157479
20
1.5528900393700786
11
2.2206301968503936
21
1.5534227165354331
0
LINE
8
BLACK
6
CONTINUOUS
10
2.2206301968503936
20
1.5534227165354331
11
2.2205552755905513
21
1.6860828346456693
0
LINE
8
BLACK
6
CONTINUOUS
10
2.2205552755905513
20
1.6860828346456693
11
2.2206301968503936
21
1.6864594881889763
0
LINE
8
BLACK
6
CONTINUOUS
10
2.2206301968503936
20
1.6864594881889763
11
2.2211628740157479
21
1.6869921653543307
0
LINE
8
BLACK
6
CONTINUOUS
10
2.2211628740157479
20
1.6869921653543307
11
2.2963426771653541
21
1.6870670866141733
0
LINE
8
BLACK
6
CONTINUOUS
10
2.2963426771653541
20
1.6870670866141733
11
2.2967193307086613
21
1.6869921653543307
0
LINE
8
BLACK
6
CONTINUOUS
10
2.2224496062992127
20
1.685099527559055
11
2.2225232283464567
21
1.5547100787401575
0
LINE
8
BLACK
6
CONTINUOUS
10
2.2225232283464567
20
1.5547100787401575
11
2.2954325590551181
21
1.5547827165354331
0
LINE
8
BLACK
6
CONTINUOUS
10
2.2954325590551181
20
1.5547827165354331
11
2.2953589370078737
21
1.6851721653543306
0
LINE
8
BLACK
6
CONTINUOUS
10
2.2953589370078737
20
1.6851721653543306
11
2.2224496062992127
21
1.685099527559055
0
LINE
8
BLACK
6
CONTINUOUS
10
2.3867193307086612
20
1.6869921653543307
11
2.3872520078740158
21
1.6864594881889763
0
LINE
8
BLACK
6
CONTINUOUS
10
2.3872520078740158
20
1.6864594881889763
11
2.3873269291338581
21
1.55379937007874
0
LINE
8
BLACK
6
CONTINUOUS
10
2.3873269291338581
20
1.55379937007874
11
2.3872520078740158
21
1.5534227165354331
0
LINE
8
BLACK
6
CONTINUOUS
10
2.3872520078740158
20
1.5534227165354331
11
2.3867193307086612
21
1.5528900393700786
0
LINE
8
BLACK
6
CONTINUOUS
10
2.3867193307086612
20
1.5528900393700786
11
2.3115395275590549
21
1.5528151181102361
0
LINE
8
BLACK
6
CONTINUOUS
10
2.3115395275590549
20
1.5528151181102361
11
2.3111628740157482
21
1.5528900393700786
0
LINE
8
BLACK
6
CONTINUOUS
10
2.3111628740157482
20
1.5528900393700786
11
2.3106301968503935
21
1.5534227165354331
0
LINE
8
BLACK
6
CONTINUOUS
10
2.3106301968503935
20
1.5534227165354331
11
2.3105552755905512
21
1.6860828346456693
0
LINE
8
BLACK
6
CONTINUOUS
10
2.3105552755905512
20
1.6860828346456693
11
2.3106301968503935
21
1.6864594881889763
0
LINE
8
BLACK
6
CONTINUOUS
10
2.3106301968503935
20
1.6864594881889763
11
2.3111628740157482
21
1.6869921653543307
0
LINE
8
BLACK
6
CONTINUOUS
10
2.3111628740157482
20
1.6869921653543307
11
2.3863426771653544
21
1.6870670866141733
0
LINE
8
BLACK
6
CONTINUOUS
10
2.3863426771653544
20
1.6870670866141733
11
2.3867193307086612
21
1.6869921653543307
0
LINE
8
BLACK
6
CONTINUOUS
10
2.3124496062992126
20
1.685099527559055
11
2.3125232283464565
21
1.5547100787401575
0
LINE
8
BLACK
6
CONTINUOUS
10
2.3125232283464565
20
1.5547100787401575
11
2.385432559055118
21
1.5547827165354331
0
LINE
8
BLACK
6
CONTINUOUS
10
2.385432559055118
20
1.5547827165354331
11
2.385358937007874
21
1.6851721653543306
0
LINE
8
BLACK
6
CONTINUOUS
10
2.385358937007874
20
1.6851721653543306
11
2.3124496062992126
21
1.685099527559055
0
LINE
8
BLACK
6
CONTINUOUS
10
2.1285183858267716
20
1.6653109055118109
11
2.1290510629921258
21
1.6647782283464567
0
LINE
8
BLACK
6
CONTINUOUS
10
2.1290510629921258
20
1.6647782283464567
11
2.1291259842519685
21
1.5895984251968505
0
LINE
8
BLACK
6
CONTINUOUS
10
2.1291259842519685
20
1.5895984251968505
11
2.1290510629921258
21
1.5892217716535433
0
LINE
8
BLACK
6
CONTINUOUS
10
2.1290510629921258
20
1.5892217716535433
11
2.1285183858267716
21
1.5886890944881888
0
LINE
8
BLACK
6
CONTINUOUS
10
2.1285183858267716
20
1.5886890944881888
11
1.9958582677165353
21
1.5886141732283465
0
LINE
8
BLACK
6
CONTINUOUS
10
1.9958582677165353
20
1.5886141732283465
11
1.9954816141732283
21
1.5886890944881888
0
LINE
8
BLACK
6
CONTINUOUS
10
1.9954816141732283
20
1.5886890944881888
11
1.9949489370078739
21
1.5892217716535433
0
LINE
8
BLACK
6
CONTINUOUS
10
1.9949489370078739
20
1.5892217716535433
11
1.9948740157480314
21
1.6644015748031495
0
LINE
8
BLACK
6
CONTINUOUS
10
1.9948740157480314
20
1.6644015748031495
11
1.9949489370078739
21
1.6647782283464567
0
LINE
8
BLACK
6
CONTINUOUS
10
1.9949489370078739
20
1.6647782283464567
11
1.9954816141732283
21
1.6653109055118109
0
LINE
8
BLACK
6
CONTINUOUS
10
1.9954816141732283
20
1.6653109055118109
11
2.1281417322834644
21
1.6653858267716535
0
LINE
8
BLACK
6
CONTINUOUS
10
2.1281417322834644
20
1.6653858267716535
11
2.1285183858267716
21
1.6653109055118109
0
LINE
8
BLACK
6
CONTINUOUS
10
1.9967689370078741
20
1.6634178740157479
11
1.9968415748031496
21
1.5905085433070867
0
LINE
8
BLACK
6
CONTINUOUS
10
1.9968415748031496
20
1.5905085433070867
11
2.1272310236220471
21
1.5905821653543306
0
LINE
8
BLACK
6
CONTINUOUS
10
2.1272310236220471
20
1.5905821653543306
11
2.1271583858267715
21
1.6634914960629921
0
LINE
8
BLACK
6
CONTINUOUS
10
2.1271583858267715
20
1.6634914960629921
11
1.9967689370078741
21
1.6634178740157479
0
LINE
8
BLACK
6
CONTINUOUS
10
1.0259672047244095
20
1.8428384645669291
11
1.0264998818897637
21
1.8423057874015747
0
LINE
8
BLACK
6
CONTINUOUS
10
1.0264998818897637
20
1.8423057874015747
11
1.0265748031496063
21
1.7080708661417323
0
LINE
8
BLACK
6
CONTINUOUS
10
1.0265748031496063
20
1.7080708661417323
11
1.0264998818897637
21
1.7076942125984251
0
LINE
8
BLACK
6
CONTINUOUS
10
1.0264998818897637
20
1.7076942125984251
11
1.0259672047244095
21
1.7071615354330709
0
LINE
8
BLACK
6
CONTINUOUS
10
1.0259672047244095
20
1.7071615354330709
11
0.8744094488188976
21
1.7070866141732284
0
LINE
8
BLACK
6
CONTINUOUS
10
0.8744094488188976
20
1.7070866141732284
11
0.8740327952755905
21
1.7071615354330709
0
LINE
8
BLACK
6
CONTINUOUS
10
0.8740327952755905
20
1.7071615354330709
11
0.8735001181102362
21
1.7076942125984251
0
LINE
8
BLACK
6
CONTINUOUS
10
0.8735001181102362
20
1.7076942125984251
11
0.8734251968503937
21
1.8419291338582677
0
LINE
8
BLACK
6
CONTINUOUS
10
0.8734251968503937
20
1.8419291338582677
11
0.8735001181102362
21
1.8423057874015747
0
LINE
8
BLACK
6
CONTINUOUS
10
0.8735001181102362
20
1.8423057874015747
11
0.8740327952755905
21
1.8428384645669291
0
LINE
8
BLACK
6
CONTINUOUS
10
0.8740327952755905
20
1.8428384645669291
11
1.0255905511811023
21
1.8429133858267717
0
LINE
8
BLACK
6
CONTINUOUS
10
1.0255905511811023
20
1.8429133858267717
11
1.0259672047244095
21
1.8428384645669291
0
LINE
8
BLACK
6
CONTINUOUS
10
0.8753195275590551
20
1.8409453543307086
11
0.875393188976378
21
1.708980905511811
0
LINE
8
BLACK
6
CONTINUOUS
10
0.875393188976378
20
1.708980905511811
11
1.0246804330708661
21
1.70905468503937
0
LINE
8
BLACK
6
CONTINUOUS
10
1.0246804330708661
20
1.70905468503937
11
1.0246067716535432
21
1.8410191338582678
0
LINE
8
BLACK
6
CONTINUOUS
10
1.0246067716535432
20
1.8410191338582678
11
0.8753195275590551
21
1.8409453543307086
0
LINE
8
BLACK
6
CONTINUOUS
10
0.8477782283464567
20
1.867051062992126
11
0.848310905511811
21
1.8665183858267715
0
LINE
8
BLACK
6
CONTINUOUS
10
0.848310905511811
20
1.8665183858267715
11
0.8483858267716535
21
1.7338582677165353
0
LINE
8
BLACK
6
CONTINUOUS
10
0.8483858267716535
20
1.7338582677165353
11
0.848310905511811
21
1.7334816141732283
0
LINE
8
BLACK
6
CONTINUOUS
10
0.848310905511811
20
1.7334816141732283
11
0.8477782283464567
21
1.7329489370078739
0
LINE
8
BLACK
6
CONTINUOUS
10
0.8477782283464567
20
1.7329489370078739
11
0.7725984251968504
21
1.7328740157480313
0
LINE
8
BLACK
6
CONTINUOUS
10
0.7725984251968504
20
1.7328740157480313
11
0.7722217716535433
21
1.7329489370078739
0
LINE
8
BLACK
6
CONTINUOUS
10
0.7722217716535433
20
1.7329489370078739
11
0.771689094488189
21
1.7334816141732283
0
LINE
8
BLACK
6
CONTINUOUS
10
0.771689094488189
20
1.7334816141732283
11
0.7716141732283465
21
1.8661417322834646
0
LINE
8
BLACK
6
CONTINUOUS
10
0.7716141732283465
20
1.8661417322834646
11
0.771689094488189
21
1.8665183858267715
0
LINE
8
BLACK
6
CONTINUOUS
10
0.771689094488189
20
1.8665183858267715
11
0.7722217716535433
21
1.867051062992126
0
LINE
8
BLACK
6
CONTINUOUS
10
0.7722217716535433
20
1.867051062992126
11
0.8474015748031496
21
1.8671259842519685
0
LINE
8
BLACK
6
CONTINUOUS
10
0.8474015748031496
20
1.8671259842519685
11
0.8477782283464567
21
1.867051062992126
0
LINE
8
BLACK
6
CONTINUOUS
10
0.7735085039370079
20
1.8651584251968503
11
0.7735821259842519
21
1.7347689763779528
0
LINE
8
BLACK
6
CONTINUOUS
10
0.7735821259842519
20
1.7347689763779528
11
0.8464914566929134
21
1.7348416141732284
0
LINE
8
BLACK
6
CONTINUOUS
10
0.8464914566929134
20
1.7348416141732284
11
0.8464178346456692
21
1.865231062992126
0
LINE
8
BLACK
6
CONTINUOUS
10
0.8464178346456692
20
1.865231062992126
11
0.7735085039370079
21
1.8651584251968503
0
LINE
8
BLACK
6
CONTINUOUS
10
0.6025183858267716
20
1.8113109055118111
11
0.603051062992126
21
1.8107782283464566
0
LINE
8
BLACK
6
CONTINUOUS
10
0.603051062992126
20
1.8107782283464566
11
0.6031259842519685
21
1.7355984251968504
0
LINE
8
BLACK
6
CONTINUOUS
10
0.6031259842519685
20
1.7355984251968504
11
0.603051062992126
21
1.7352217716535432
0
LINE
8
BLACK
6
CONTINUOUS
10
0.603051062992126
20
1.7352217716535432
11
0.6025183858267716
21
1.734689094488189
0
LINE
8
BLACK
6
CONTINUOUS
10
0.6025183858267716
20
1.734689094488189
11
0.4698582677165354
21
1.7346141732283464
0
LINE
8
BLACK
6
CONTINUOUS
10
0.4698582677165354
20
1.7346141732283464
11
0.4694816141732283
21
1.734689094488189
0
LINE
8
BLACK
6
CONTINUOUS
10
0.4694816141732283
20
1.734689094488189
11
0.468948937007874
21
1.7352217716535432
0
LINE
8
BLACK
6
CONTINUOUS
10
0.468948937007874
20
1.7352217716535432
11
0.4688740157480315
21
1.8104015748031497
0
LINE
8
BLACK
6
CONTINUOUS
10
0.4688740157480315
20
1.8104015748031497
11
0.468948937007874
21
1.8107782283464566
0
LINE
8
BLACK
6
CONTINUOUS
10
0.468948937007874
20
1.8107782283464566
11
0.4694816141732283
21
1.8113109055118111
0
LINE
8
BLACK
6
CONTINUOUS
10
0.4694816141732283
20
1.8113109055118111
11
0.6021417322834646
21
1.8113858267716536
0
LINE
8
BLACK
6
CONTINUOUS
10
0.6021417322834646
20
1.8113858267716536
11
0.6025183858267716
21
1.8113109055118111
0
LINE
8
BLACK
6
CONTINUOUS
10
0.470768937007874
20
1.8094178740157481
11
0.4708415748031496
21
1.7365085433070866
0
LINE
8
BLACK
6
CONTINUOUS
10
0.4708415748031496
20
1.7365085433070866
11
0.6012310236220473
21
1.7365821653543307
0
LINE
8
BLACK
6
CONTINUOUS
10
0.6012310236220473
20
1.7365821653543307
11
0.6011583858267716
21
1.809491496062992
0
LINE
8
BLACK
6
CONTINUOUS
10
0.6011583858267716
20
1.809491496062992
11
0.470768937007874
21
1.8094178740157481
0
LINE
8
BLACK
6
CONTINUOUS
10
1.1715183858267717
20
1.8433109055118109
11
1.1720510629921259
21
1.8427782283464567
0
LINE
8
BLACK
6
CONTINUOUS
10
1.1720510629921259
20
1.8427782283464567
11
1.1721259842519685
21
1.7675984251968504
0
LINE
8
BLACK
6
CONTINUOUS
10
1.1721259842519685
20
1.7675984251968504
11
1.1720510629921259
21
1.7672217716535432
0
LINE
8
BLACK
6
CONTINUOUS
10
1.1720510629921259
20
1.7672217716535432
11
1.1715183858267717
21
1.766689094488189
0
LINE
8
BLACK
6
CONTINUOUS
10
1.1715183858267717
20
1.766689094488189
11
1.0388582677165354
21
1.7666141732283465
0
LINE
8
BLACK
6
CONTINUOUS
10
1.0388582677165354
20
1.7666141732283465
11
1.0384816141732283
21
1.766689094488189
0
LINE
8
BLACK
6
CONTINUOUS
10
1.0384816141732283
20
1.766689094488189
11
1.0379489370078741
21
1.7672217716535432
0
LINE
8
BLACK
6
CONTINUOUS
10
1.0379489370078741
20
1.7672217716535432
11
1.0378740157480315
21
1.8424015748031495
0
LINE
8
BLACK
6
CONTINUOUS
10
1.0378740157480315
20
1.8424015748031495
11
1.0379489370078741
21
1.8427782283464567
0
LINE
8
BLACK
6
CONTINUOUS
10
1.0379489370078741
20
1.8427782283464567
11
1.0384816141732283
21
1.8433109055118109
0
LINE
8
BLACK
6
CONTINUOUS
10
1.0384816141732283
20
1.8433109055118109
11
1.1711417322834645
21
1.8433858267716534
0
LINE
8
BLACK
6
CONTINUOUS
10
1.1711417322834645
20
1.8433858267716534
11
1.1715183858267717
21
1.8433109055118109
0
LINE
8
BLACK
6
CONTINUOUS
10
1.039768937007874
20
1.8414178740157481
11
1.0398415748031495
21
1.7685085433070866
0
LINE
8
BLACK
6
CONTINUOUS
10
1.0398415748031495
20
1.7685085433070866
11
1.1702310236220472
21
1.7685821653543308
0
LINE
8
BLACK
6
CONTINUOUS
10
1.1702310236220472
20
1.7685821653543308
11
1.1701583858267717
21
1.841491496062992
0
LINE
8
BLACK
6
CONTINUOUS
10
1.1701583858267717
20
1.841491496062992
11
1.039768937007874
21
1.8414178740157481
0
LINE
8
BLACK
6
CONTINUOUS
10
1.5665183858267717
20
1.8533109055118109
11
1.5670510629921259
21
1.8527782283464567
0
LINE
8
BLACK
6
CONTINUOUS
10
1.5670510629921259
20
1.8527782283464567
11
1.5671259842519685
21
1.7775984251968504
0
LINE
8
BLACK
6
CONTINUOUS
10
1.5671259842519685
20
1.7775984251968504
11
1.5670510629921259
21
1.7772217716535432
0
LINE
8
BLACK
6
CONTINUOUS
10
1.5670510629921259
20
1.7772217716535432
11
1.5665183858267717
21
1.776689094488189
0
LINE
8
BLACK
6
CONTINUOUS
10
1.5665183858267717
20
1.776689094488189
11
1.4338582677165355
21
1.7766141732283465
0
LINE
8
BLACK
6
CONTINUOUS
10
1.4338582677165355
20
1.7766141732283465
11
1.4334816141732283
21
1.776689094488189
0
LINE
8
BLACK
6
CONTINUOUS
10
1.4334816141732283
20
1.776689094488189
11
1.4329489370078741
21
1.7772217716535432
0
LINE
8
BLACK
6
CONTINUOUS
10
1.4329489370078741
20
1.7772217716535432
11
1.4328740157480315
21
1.8524015748031495
0
LINE
8
BLACK
6
CONTINUOUS
10
1.4328740157480315
20
1.8524015748031495
11
1.4329489370078741
21
1.8527782283464567
0
LINE
8
BLACK
6
CONTINUOUS
10
1.4329489370078741
20
1.8527782283464567
11
1.4334816141732283
21
1.8533109055118109
0
LINE
8
BLACK
6
CONTINUOUS
10
1.4334816141732283
20
1.8533109055118109
11
1.5661417322834645
21
1.8533858267716534
0
LINE
8
BLACK
6
CONTINUOUS
10
1.5661417322834645
20
1.8533858267716534
11
1.5665183858267717
21
1.8533109055118109
0
LINE
8
BLACK
6
CONTINUOUS
10
1.434768937007874
20
1.8514178740157481
11
1.4348415748031496
21
1.7785085433070866
0
LINE
8
BLACK
6
CONTINUOUS
10
1.4348415748031496
20
1.7785085433070866
11
1.5652310236220472
21
1.7785821653543306
0
LINE
8
BLACK
6
CONTINUOUS
10
1.5652310236220472
20
1.7785821653543306
11
1.5651583858267717
21
1.851491496062992
0
LINE
8
BLACK
6
CONTINUOUS
10
1.5651583858267717
20
1.851491496062992
11
1.434768937007874
21
1.8514178740157481
0
LINE
8
BLACK
6
CONTINUOUS
10
1.0165183858267717
20
1.9283109055118111
11
1.0170510629921259
21
1.9277782283464566
0
LINE
8
BLACK
6
CONTINUOUS
10
1.0170510629921259
20
1.9277782283464566
11
1.0171259842519684
21
1.8525984251968504
0
LINE
8
BLACK
6
CONTINUOUS
10
1.0171259842519684
20
1.8525984251968504
11
1.0170510629921259
21
1.8522217716535432
0
LINE
8
BLACK
6
CONTINUOUS
10
1.0170510629921259
20
1.8522217716535432
11
1.0165183858267717
21
1.851689094488189
0
LINE
8
BLACK
6
CONTINUOUS
10
1.0165183858267717
20
1.851689094488189
11
0.8838582677165354
21
1.8516141732283464
0
LINE
8
BLACK
6
CONTINUOUS
10
0.8838582677165354
20
1.8516141732283464
11
0.8834816141732283
21
1.851689094488189
0
LINE
8
BLACK
6
CONTINUOUS
10
0.8834816141732283
20
1.851689094488189
11
0.882948937007874
21
1.8522217716535432
0
LINE
8
BLACK
6
CONTINUOUS
10
0.882948937007874
20
1.8522217716535432
11
0.8828740157480315
21
1.9274015748031497
0
LINE
8
BLACK
6
CONTINUOUS
10
0.8828740157480315
20
1.9274015748031497
11
0.882948937007874
21
1.9277782283464566
0
LINE
8
BLACK
6
CONTINUOUS
10
0.882948937007874
20
1.9277782283464566
11
0.8834816141732283
21
1.9283109055118111
0
LINE
8
BLACK
6
CONTINUOUS
10
0.8834816141732283
20
1.9283109055118111
11
1.0161417322834645
21
1.9283858267716536
0
LINE
8
BLACK
6
CONTINUOUS
10
1.0161417322834645
20
1.9283858267716536
11
1.0165183858267717
21
1.9283109055118111
0
LINE
8
BLACK
6
CONTINUOUS
10
0.884768937007874
20
1.926417874015748
11
0.8848415748031496
21
1.8535085433070866
0
LINE
8
BLACK
6
CONTINUOUS
10
0.8848415748031496
20
1.8535085433070866
11
1.0152310236220472
21
1.8535821653543307
0
LINE
8
BLACK
6
CONTINUOUS
10
1.0152310236220472
20
1.8535821653543307
11
1.0151583858267716
21
1.9264914960629922
0
LINE
8
BLACK
6
CONTINUOUS
10
1.0151583858267716
20
1.9264914960629922
11
0.884768937007874
21
1.926417874015748
0
LINE
8
BLACK
6
CONTINUOUS
10
0.7044711417322834
20
2.0356731102362202
11
0.7050038188976377
21
2.035140433070866
0
LINE
8
BLACK
6
CONTINUOUS
10
0.7050038188976377
20
2.035140433070866
11
0.7050787401574803
21
1.8552362204724409
0
LINE
8
BLACK
6
CONTINUOUS
10
0.7050787401574803
20
1.8552362204724409
11
0.7050038188976377
21
1.8548595669291339
0
LINE
8
BLACK
6
CONTINUOUS
10
0.7050038188976377
20
1.8548595669291339
11
0.7044711417322834
21
1.8543268897637795
0
LINE
8
BLACK
6
CONTINUOUS
10
0.7044711417322834
20
1.8543268897637795
11
0.6159055118110236
21
1.8542519685039369
0
LINE
8
BLACK
6
CONTINUOUS
10
0.6159055118110236
20
1.8542519685039369
11
0.6155288582677165
21
1.8543268897637795
0
LINE
8
BLACK
6
CONTINUOUS
10
0.6155288582677165
20
1.8543268897637795
11
0.6149961811023622
21
1.8548595669291339
0
LINE
8
BLACK
6
CONTINUOUS
10
0.6149961811023622
20
1.8548595669291339
11
0.6149212598425197
21
2.0347637795275588
0
LINE
8
BLACK
6
CONTINUOUS
10
0.6149212598425197
20
2.0347637795275588
11
0.6149961811023622
21
2.035140433070866
0
LINE
8
BLACK
6
CONTINUOUS
10
0.6149961811023622
20
2.035140433070866
11
0.6155288582677165
21
2.0356731102362202
0
LINE
8
BLACK
6
CONTINUOUS
10
0.6155288582677165
20
2.0356731102362202
11
0.7040944881889764
21
2.035748031496063
0
LINE
8
BLACK
6
CONTINUOUS
10
0.7040944881889764
20
2.035748031496063
11
0.7044711417322834
21
2.0356731102362202
0
LINE
8
BLACK
6
CONTINUOUS
10
0.6168153937007874
20
2.0337803149606297
11
0.6168893700787401
21
1.8561467322834646
0
LINE
8
BLACK
6
CONTINUOUS
10
0.6168893700787401
20
1.8561467322834646
11
0.7031845669291339
21
1.8562197244094487
0
LINE
8
BLACK
6
CONTINUOUS
10
0.7031845669291339
20
1.8562197244094487
11
0.7031105905511811
21
2.033853307086614
0
LINE
8
BLACK
6
CONTINUOUS
10
0.7031105905511811
20
2.033853307086614
11
0.6168153937007874
21
2.0337803149606297
0
LINE
8
BLACK
6
CONTINUOUS
10
1.6245498818897637
20
2.1747675984251966
11
1.6250825590551181
21
2.1742349212598424
0
LINE
8
BLACK
6
CONTINUOUS
10
1.6250825590551181
20
2.1742349212598424
11
1.6251574803149607
21
1.9061417322834646
0
LINE
8
BLACK
6
CONTINUOUS
10
1.6251574803149607
20
1.9061417322834646
11
1.6250825590551181
21
1.9057650787401574
0
LINE
8
BLACK
6
CONTINUOUS
10
1.6250825590551181
20
1.9057650787401574
11
1.6245498818897637
21
1.905232401574803
0
LINE
8
BLACK
6
CONTINUOUS
10
1.6245498818897637
20
1.905232401574803
11
1.3958267716535433
21
1.9051574803149607
0
LINE
8
BLACK
6
CONTINUOUS
10
1.3958267716535433
20
1.9051574803149607
11
1.3954501181102361
21
1.905232401574803
0
LINE
8
BLACK
6
CONTINUOUS
10
1.3954501181102361
20
1.905232401574803
11
1.3949174409448819
21
1.9057650787401574
0
LINE
8
BLACK
6
CONTINUOUS
10
1.3949174409448819
20
1.9057650787401574
11
1.3948425196850394
21
2.1738582677165352
0
LINE
8
BLACK
6
CONTINUOUS
10
1.3948425196850394
20
2.1738582677165352
11
1.3949174409448819
21
2.1742349212598424
0
LINE
8
BLACK
6
CONTINUOUS
10
1.3949174409448819
20
2.1742349212598424
11
1.3954501181102361
21
2.1747675984251966
0
LINE
8
BLACK
6
CONTINUOUS
10
1.3954501181102361
20
2.1747675984251966
11
1.6241732283464567
21
2.1748425196850394
0
LINE
8
BLACK
6
CONTINUOUS
10
1.6241732283464567
20
2.1748425196850394
11
1.6245498818897637
21
2.1747675984251966
0
LINE
8
BLACK
6
CONTINUOUS
10
1.3967364566929135
20
2.1728743307086615
11
1.396810748031496
21
1.9070515354330708
0
LINE
8
BLACK
6
CONTINUOUS
10
1.396810748031496
20
1.9070515354330708
11
1.6232635039370078
21
1.9071257086614173
0
LINE
8
BLACK
6
CONTINUOUS
10
1.6232635039370078
20
1.9071257086614173
11
1.6231892125984251
21
2.172948503937008
0
LINE
8
BLACK
6
CONTINUOUS
10
1.6231892125984251
20
2.172948503937008
11
1.3967364566929135
21
2.1728743307086615
0
LINE
8
BLACK
6
CONTINUOUS
10
1.3677782283464566
20
2.0670510629921259
11
1.368310905511811
21
2.0665183858267717
0
LINE
8
BLACK
6
CONTINUOUS
10
1.368310905511811
20
2.0665183858267717
11
1.3683858267716535
21
1.9338582677165355
0
LINE
8
BLACK
6
CONTINUOUS
10
1.3683858267716535
20
1.9338582677165355
11
1.368310905511811
21
1.9334816141732283
0
LINE
8
BLACK
6
CONTINUOUS
10
1.368310905511811
20
1.9334816141732283
11
1.3677782283464566
21
1.9329489370078741
0
LINE
8
BLACK
6
CONTINUOUS
10
1.3677782283464566
20
1.9329489370078741
11
1.2925984251968503
21
1.9328740157480315
0
LINE
8
BLACK
6
CONTINUOUS
10
1.2925984251968503
20
1.9328740157480315
11
1.2922217716535433
21
1.9329489370078741
0
LINE
8
BLACK
6
CONTINUOUS
10
1.2922217716535433
20
1.9329489370078741
11
1.2916890944881889
21
1.9334816141732283
0
LINE
8
BLACK
6
CONTINUOUS
10
1.2916890944881889
20
1.9334816141732283
11
1.2916141732283464
21
2.0661417322834645
0
LINE
8
BLACK
6
CONTINUOUS
10
1.2916141732283464
20
2.0661417322834645
11
1.2916890944881889
21
2.0665183858267717
0
LINE
8
BLACK
6
CONTINUOUS
10
1.2916890944881889
20
2.0665183858267717
11
1.2922217716535433
21
2.0670510629921259
0
LINE
8
BLACK
6
CONTINUOUS
10
1.2922217716535433
20
2.0670510629921259
11
1.3674015748031496
21
2.0671259842519683
0
LINE
8
BLACK
6
CONTINUOUS
10
1.3674015748031496
20
2.0671259842519683
11
1.3677782283464566
21
2.0670510629921259
0
LINE
8
BLACK
6
CONTINUOUS
10
1.2935085039370078
20
2.0651584251968504
11
1.2935821259842519
21
1.9347689763779528
0
LINE
8
BLACK
6
CONTINUOUS
10
1.2935821259842519
20
1.9347689763779528
11
1.3664914566929134
21
1.9348416141732283
0
LINE
8
BLACK
6
CONTINUOUS
10
1.3664914566929134
20
1.9348416141732283
11
1.3664178346456692
21
2.065231062992126
0
LINE
8
BLACK
6
CONTINUOUS
10
1.3664178346456692
20
2.065231062992126
11
1.2935085039370078
21
2.0651584251968504
0
LINE
8
BLACK
6
CONTINUOUS
10
0.9892349212598425
20
2.1650825590551181
11
0.9897675984251968
21
2.1645498818897639
0
LINE
8
BLACK
6
CONTINUOUS
10
0.9897675984251968
20
2.1645498818897639
11
0.9898425196850393
21
1.9358267716535433
0
LINE
8
BLACK
6
CONTINUOUS
10
0.9898425196850393
20
1.9358267716535433
11
0.9897675984251968
21
1.9354501181102362
0
LINE
8
BLACK
6
CONTINUOUS
10
0.9897675984251968
20
1.9354501181102362
11
0.9892349212598425
21
1.9349174409448819
0
LINE
8
BLACK
6
CONTINUOUS
10
0.9892349212598425
20
1.9349174409448819
11
0.7211417322834646
21
1.9348425196850394
0
LINE
8
BLACK
6
CONTINUOUS
10
0.7211417322834646
20
1.9348425196850394
11
0.7207650787401575
21
1.9349174409448819
0
LINE
8
BLACK
6
CONTINUOUS
10
0.7207650787401575
20
1.9349174409448819
11
0.7202324015748032
21
1.9354501181102362
0
LINE
8
BLACK
6
CONTINUOUS
10
0.7202324015748032
20
1.9354501181102362
11
0.7201574803149606
21
2.1641732283464568
0
LINE
8
BLACK
6
CONTINUOUS
10
0.7201574803149606
20
2.1641732283464568
11
0.7202324015748032
21
2.1645498818897639
0
LINE
8
BLACK
6
CONTINUOUS
10
0.7202324015748032
20
2.1645498818897639
11
0.7207650787401575
21
2.1650825590551181
0
LINE
8
BLACK
6
CONTINUOUS
10
0.7207650787401575
20
2.1650825590551181
11
0.9888582677165354
21
2.1651574803149605
0
LINE
8
BLACK
6
CONTINUOUS
10
0.9888582677165354
20
2.1651574803149605
11
0.9892349212598425
21
2.1650825590551181
0
LINE
8
BLACK
6
CONTINUOUS
10
0.7220514960629921
20
2.1631892519685039
11
0.7221256692913386
21
1.936736496062992
0
LINE
8
BLACK
6
CONTINUOUS
10
0.7221256692913386
20
1.936736496062992
11
0.9879484645669291
21
1.9368107874015748
0
LINE
8
BLACK
6
CONTINUOUS
10
0.9879484645669291
20
1.9368107874015748
11
0.9878742913385826
21
2.1632635433070866
0
LINE
8
BLACK
6
CONTINUOUS
10
0.9878742913385826
20
2.1632635433070866
11
0.7220514960629921
21
2.1631892519685039
0
LINE
8
BLACK
6
CONTINUOUS
10
1.2792349212598424
20
2.1650825590551181
11
1.2797675984251968
21
2.1645498818897639
0
LINE
8
BLACK
6
CONTINUOUS
10
1.2797675984251968
20
2.1645498818897639
11
1.2798425196850394
21
1.9358267716535433
0
LINE
8
BLACK
6
CONTINUOUS
10
1.2798425196850394
20
1.9358267716535433
11
1.2797675984251968
21
1.9354501181102362
0
LINE
8
BLACK
6
CONTINUOUS
10
1.2797675984251968
20
1.9354501181102362
11
1.2792349212598424
21
1.9349174409448819
0
LINE
8
BLACK
6
CONTINUOUS
10
1.2792349212598424
20
1.9349174409448819
11
1.0111417322834646
21
1.9348425196850394
0
LINE
8
BLACK
6
CONTINUOUS
10
1.0111417322834646
20
1.9348425196850394
11
1.0107650787401574
21
1.9349174409448819
0
LINE
8
BLACK
6
CONTINUOUS
10
1.0107650787401574
20
1.9349174409448819
11
1.0102324015748032
21
1.9354501181102362
0
LINE
8
BLACK
6
CONTINUOUS
10
1.0102324015748032
20
1.9354501181102362
11
1.0101574803149607
21
2.1641732283464568
0
LINE
8
BLACK
6
CONTINUOUS
10
1.0101574803149607
20
2.1641732283464568
11
1.0102324015748032
21
2.1645498818897639
0
LINE
8
BLACK
6
CONTINUOUS
10
1.0102324015748032
20
2.1645498818897639
11
1.0107650787401574
21
2.1650825590551181
0
LINE
8
BLACK
6
CONTINUOUS
10
1.0107650787401574
20
2.1650825590551181
11
1.2788582677165354
21
2.1651574803149605
0
LINE
8
BLACK
6
CONTINUOUS
10
1.2788582677165354
20
2.1651574803149605
11
1.2792349212598424
21
2.1650825590551181
0
LINE
8
BLACK
6
CONTINUOUS
10
1.0120514960629921
20
2.1631892519685039
11
1.0121256692913385
21
1.936736496062992
0
LINE
8
BLACK
6
CONTINUOUS
10
1.0121256692913385
20
1.936736496062992
11
1.277948464566929
21
1.9368107874015748
0
LINE
8
BLACK
6
CONTINUOUS
10
1.277948464566929
20
1.9368107874015748
11
1.2778742913385825
21
2.1632635433070866
0
LINE
8
BLACK
6
CONTINUOUS
10
1.2778742913385825
20
2.1632635433070866
11
1.0120514960629921
21
2.1631892519685039
0
LINE
8
BLACK
6
CONTINUOUS
10
3.1857165748031497
20
2.1204342519685038
11
3.194168346456693
21
2.1181696062992126
0
LINE
8
BLACK
6
CONTINUOUS
10
3.194168346456693
20
2.1181696062992126
11
3.2020984251968505
21
2.1144717322834645
0
LINE
8
BLACK
6
CONTINUOUS
10
3.2020984251968505
20
2.1144717322834645
11
3.2092659055118111
21
2.1094530314960629
0
LINE
8
BLACK
6
CONTINUOUS
10
3.2092659055118111
20
2.1094530314960629
11
3.2154530314960628
21
2.1032659055118108
0
LINE
8
BLACK
6
CONTINUOUS
10
3.2154530314960628
20
2.1032659055118108
11
3.2204717322834644
21
2.0960984251968502
0
LINE
8
BLACK
6
CONTINUOUS
10
3.2204717322834644
20
2.0960984251968502
11
3.2241696062992125
21
2.0881683464566927
0
LINE
8
BLACK
6
CONTINUOUS
10
3.2241696062992125
20
2.0881683464566927
11
3.2264342519685041
21
2.0797165748031494
0
LINE
8
BLACK
6
CONTINUOUS
10
3.2264342519685041
20
2.0797165748031494
11
3.2271968503937005
21
2.0710000000000002
0
LINE
8
BLACK
6
CONTINUOUS
10
3.2271968503937005
20
2.0710000000000002
11
3.2264342519685041
21
2.0622834251968505
0
LINE
8
BLACK
6
CONTINUOUS
10
3.2264342519685041
20
2.0622834251968505
11
3.2241696062992125
21
2.0538316535433072
0
LINE
8
BLACK
6
CONTINUOUS
10
3.2241696062992125
20
2.0538316535433072
11
3.2204717322834644
21
2.0459015748031497
0
LINE
8
BLACK
6
CONTINUOUS
10
3.2204717322834644
20
2.0459015748031497
11
3.2154530314960628
21
2.0387340944881891
0
LINE
8
BLACK
6
CONTINUOUS
10
3.2154530314960628
20
2.0387340944881891
11
3.2092659055118111
21
2.032546968503937
0
LINE
8
BLACK
6
CONTINUOUS
10
3.2092659055118111
20
2.032546968503937
11
3.2020984251968505
21
2.0275282677165354
0
LINE
8
BLACK
6
CONTINUOUS
10
3.2020984251968505
20
2.0275282677165354
11
3.194168346456693
21
2.0238303937007873
0
LINE
8
BLACK
6
CONTINUOUS
10
3.194168346456693
20
2.0238303937007873
11
3.1857165748031497
21
2.0215657480314961
0
LINE
8
BLACK
6
CONTINUOUS
10
3.1857165748031497
20
2.0215657480314961
11
3.177
21
2.0208031496062993
0
LINE
8
BLACK
6
CONTINUOUS
10
3.177
20
2.0208031496062993
11
3.1682834251968504
21
2.0215657480314961
0
LINE
8
BLACK
6
CONTINUOUS
10
3.1682834251968504
20
2.0215657480314961
11
3.1598316535433071
21
2.0238303937007873
0
LINE
8
BLACK
6
CONTINUOUS
10
3.1598316535433071
20
2.0238303937007873
11
3.1519015748031496
21
2.0275282677165354
0
LINE
8
BLACK
6
CONTINUOUS
10
3.1519015748031496
20
2.0275282677165354
11
3.144734094488189
21
2.032546968503937
0
LINE
8
BLACK
6
CONTINUOUS
10
3.144734094488189
20
2.032546968503937
11
3.1385469685039369
21
2.0387340944881891
0
LINE
8
BLACK
6
CONTINUOUS
10
3.1385469685039369
20
2.0387340944881891
11
3.1335282677165353
21
2.0459015748031497
0
LINE
8
BLACK
6
CONTINUOUS
10
3.1335282677165353
20
2.0459015748031497
11
3.1298303937007872
21
2.0538316535433072
0
LINE
8
BLACK
6
CONTINUOUS
10
3.1298303937007872
20
2.0538316535433072
11
3.127565748031496
21
2.0622834251968505
0
LINE
8
BLACK
6
CONTINUOUS
10
3.127565748031496
20
2.0622834251968505
11
3.1268031496062991
21
2.0710000000000002
0
LINE
8
BLACK
6
CONTINUOUS
10
3.1268031496062991
20
2.0710000000000002
11
3.127565748031496
21
2.0797165748031494
0
LINE
8
BLACK
6
CONTINUOUS
10
3.127565748031496
20
2.0797165748031494
11
3.1298303937007872
21
2.0881683464566927
0
LINE
8
BLACK
6
CONTINUOUS
10
3.1298303937007872
20
2.0881683464566927
11
3.1335282677165353
21
2.0960984251968502
0
LINE
8
BLACK
6
CONTINUOUS
10
3.1335282677165353
20
2.0960984251968502
11
3.1385469685039369
21
2.1032659055118108
0
LINE
8
BLACK
6
CONTINUOUS
10
3.1385469685039369
20
2.1032659055118108
11
3.144734094488189
21
2.1094530314960629
0
LINE
8
BLACK
6
CONTINUOUS
10
3.144734094488189
20
2.1094530314960629
11
3.1519015748031496
21
2.1144717322834645
0
LINE
8
BLACK
6
CONTINUOUS
10
3.1519015748031496
20
2.1144717322834645
11
3.1598316535433071
21
2.1181696062992126
0
LINE
8
BLACK
6
CONTINUOUS
10
3.1598316535433071
20
2.1181696062992126
11
3.1682834251968504
21
2.1204342519685038
0
LINE
8
BLACK
6
CONTINUOUS
10
3.1682834251968504
20
2.1204342519685038
11
3.177
21
2.1211968503937007
0
LINE
8
BLACK
6
CONTINUOUS
10
3.177
20
2.1211968503937007
11
3.1857165748031497
21
2.1204342519685038
0
LINE
8
BLACK
6
CONTINUOUS
10
3.1293229527559054
20
2.0625932283464565
11
3.1315070866141732
21
2.054441929133858
0
LINE
8
BLACK
6
CONTINUOUS
10
3.1315070866141732
20
2.054441929133858
11
3.1350735039370079
21
2.0467937007874015
0
LINE
8
BLACK
6
CONTINUOUS
10
3.1350735039370079
20
2.0467937007874015
11
3.1399138188976377
21
2.0398810236220473
0
LINE
8
BLACK
6
CONTINUOUS
10
3.1399138188976377
20
2.0398810236220473
11
3.1458810236220471
21
2.0339138188976378
0
LINE
8
BLACK
6
CONTINUOUS
10
3.1458810236220471
20
2.0339138188976378
11
3.1527937007874014
21
2.029073503937008
0
LINE
8
BLACK
6
CONTINUOUS
10
3.1527937007874014
20
2.029073503937008
11
3.1604419291338584
21
2.0255070866141733
0
LINE
8
BLACK
6
CONTINUOUS
10
3.1604419291338584
20
2.0255070866141733
11
3.1685932283464564
21
2.0233229527559056
0
LINE
8
BLACK
6
CONTINUOUS
10
3.1685932283464564
20
2.0233229527559056
11
3.177
21
2.0225874409448816
0
LINE
8
BLACK
6
CONTINUOUS
10
3.177
20
2.0225874409448816
11
3.1854067716535432
21
2.0233229527559056
0
LINE
8
BLACK
6
CONTINUOUS
10
3.1854067716535432
20
2.0233229527559056
11
3.1935580708661417
21
2.0255070866141733
0
LINE
8
BLACK
6
CONTINUOUS
10
3.1935580708661417
20
2.0255070866141733
11
3.2012062992125982
21
2.029073503937008
0
LINE
8
BLACK
6
CONTINUOUS
10
3.2012062992125982
20
2.029073503937008
11
3.2081189763779525
21
2.0339138188976378
0
LINE
8
BLACK
6
CONTINUOUS
10
3.2081189763779525
20
2.0339138188976378
11
3.214086181102362
21
2.0398810236220473
0
LINE
8
BLACK
6
CONTINUOUS
10
3.214086181102362
20
2.0398810236220473
11
3.2189264960629922
21
2.0467937007874015
0
LINE
8
BLACK
6
CONTINUOUS
10
3.2189264960629922
20
2.0467937007874015
11
3.2224929133858269
21
2.054441929133858
0
LINE
8
BLACK
6
CONTINUOUS
10
3.2224929133858269
20
2.054441929133858
11
3.2246770472440942
21
2.0625932283464565
0
LINE
8
BLACK
6
CONTINUOUS
10
3.2246770472440942
20
2.0625932283464565
11
3.2254125590551181
21
2.0710000000000002
0
LINE
8
BLACK
6
CONTINUOUS
10
3.2254125590551181
20
2.0710000000000002
11
3.2246770472440942
21
2.0794067716535434
0
LINE
8
BLACK
6
CONTINUOUS
10
3.2246770472440942
20
2.0794067716535434
11
3.2224929133858269
21
2.0875580708661419
0
LINE
8
BLACK
6
CONTINUOUS
10
3.2224929133858269
20
2.0875580708661419
11
3.2189264960629922
21
2.0952062598425196
0
LINE
8
BLACK
6
CONTINUOUS
10
3.2189264960629922
20
2.0952062598425196
11
3.214086181102362
21
2.1021189763779526
0
LINE
8
BLACK
6
CONTINUOUS
10
3.214086181102362
20
2.1021189763779526
11
3.2081189763779525
21
2.1080861811023621
0
LINE
8
BLACK
6
CONTINUOUS
10
3.2081189763779525
20
2.1080861811023621
11
3.2012062992125982
21
2.1129264960629919
0
LINE
8
BLACK
6
CONTINUOUS
10
3.2012062992125982
20
2.1129264960629919
11
3.1935580708661417
21
2.1164929133858266
0
LINE
8
BLACK
6
CONTINUOUS
10
3.1935580708661417
20
2.1164929133858266
11
3.1854067716535432
21
2.1186770472440943
0
LINE
8
BLACK
6
CONTINUOUS
10
3.1854067716535432
20
2.1186770472440943
11
3.177
21
2.1194125590551183
0
LINE
8
BLACK
6
CONTINUOUS
10
3.177
20
2.1194125590551183
11
3.1685932283464564
21
2.1186770472440943
0
LINE
8
BLACK
6
CONTINUOUS
10
3.1685932283464564
20
2.1186770472440943
11
3.1604419291338584
21
2.1164929133858266
0
LINE
8
BLACK
6
CONTINUOUS
10
3.1604419291338584
20
2.1164929133858266
11
3.1527937401574802
21
2.1129264960629919
0
LINE
8
BLACK
6
CONTINUOUS
10
3.1527937401574802
20
2.1129264960629919
11
3.1458810236220471
21
2.1080861811023621
0
LINE
8
BLACK
6
CONTINUOUS
10
3.1458810236220471
20
2.1080861811023621
11
3.1399138188976377
21
2.1021189763779526
0
LINE
8
BLACK
6
CONTINUOUS
10
3.1399138188976377
20
2.1021189763779526
11
3.1350735039370079
21
2.0952062598425196
0
LINE
8
BLACK
6
CONTINUOUS
10
3.1350735039370079
20
2.0952062598425196
11
3.1315070866141732
21
2.0875580708661419
0
LINE
8
BLACK
6
CONTINUOUS
10
3.1315070866141732
20
2.0875580708661419
11
3.1293229527559054
21
2.0794067716535434
0
LINE
8
BLACK
6
CONTINUOUS
10
3.1293229527559054
20
2.0794067716535434
11
3.1285874409448819
21
2.0710000000000002
0
LINE
8
BLACK
6
CONTINUOUS
10
3.1285874409448819
20
2.0710000000000002
11
3.1293229527559054
21
2.0625932283464565
0
LINE
8
BLACK
6
CONTINUOUS
10
0.6977782283464566
20
2.1720510629921259
11
0.698310905511811
21
2.1715183858267717
0
LINE
8
BLACK
6
CONTINUOUS
10
0.698310905511811
20
2.1715183858267717
11
0.6983858267716535
21
2.0388582677165354
0
LINE
8
BLACK
6
CONTINUOUS
10
0.6983858267716535
20
2.0388582677165354
11
0.698310905511811
21
2.0384816141732283
0
LINE
8
BLACK
6
CONTINUOUS
10
0.698310905511811
20
2.0384816141732283
11
0.6977782283464566
21
2.0379489370078741
0
LINE
8
BLACK
6
CONTINUOUS
10
0.6977782283464566
20
2.0379489370078741
11
0.6225984251968504
21
2.0378740157480313
0
LINE
8
BLACK
6
CONTINUOUS
10
0.6225984251968504
20
2.0378740157480313
11
0.6222217716535433
21
2.0379489370078741
0
LINE
8
BLACK
6
CONTINUOUS
10
0.6222217716535433
20
2.0379489370078741
11
0.621689094488189
21
2.0384816141732283
0
LINE
8
BLACK
6
CONTINUOUS
10
0.621689094488189
20
2.0384816141732283
11
0.6216141732283464
21
2.1711417322834645
0
LINE
8
BLACK
6
CONTINUOUS
10
0.6216141732283464
20
2.1711417322834645
11
0.621689094488189
21
2.1715183858267717
0
LINE
8
BLACK
6
CONTINUOUS
10
0.621689094488189
20
2.1715183858267717
11
0.6222217716535433
21
2.1720510629921259
0
LINE
8
BLACK
6
CONTINUOUS
10
0.6222217716535433
20
2.1720510629921259
11
0.6974015748031496
21
2.1721259842519682
0
LINE
8
BLACK
6
CONTINUOUS
10
0.6974015748031496
20
2.1721259842519682
11
0.6977782283464566
21
2.1720510629921259
0
LINE
8
BLACK
6
CONTINUOUS
10
0.6235085039370079
20
2.1701584251968504
11
0.623582125984252
21
2.0397689763779527
0
LINE
8
BLACK
6
CONTINUOUS
10
0.623582125984252
20
2.0397689763779527
11
0.6964914566929133
21
2.0398416141732283
0
LINE
8
BLACK
6
CONTINUOUS
10
0.6964914566929133
20
2.0398416141732283
11
0.6964178346456693
21
2.170231062992126
0
LINE
8
BLACK
6
CONTINUOUS
10
0.6964178346456693
20
2.170231062992126
11
0.6235085039370079
21
2.1701584251968504
0
LINE
8
BLACK
6
CONTINUOUS
10
0.6637165748031496
20
2.3814342519685039
11
0.6721683464566929
21
2.3791696062992127
0
LINE
8
BLACK
6
CONTINUOUS
10
0.6721683464566929
20
2.3791696062992127
11
0.6800984251968504
21
2.3754717322834646
0
LINE
8
BLACK
6
CONTINUOUS
10
0.6800984251968504
20
2.3754717322834646
11
0.687265905511811
21
2.370453031496063
0
LINE
8
BLACK
6
CONTINUOUS
10
0.687265905511811
20
2.370453031496063
11
0.693453031496063
21
2.3642659055118109
0
LINE
8
BLACK
6
CONTINUOUS
10
0.693453031496063
20
2.3642659055118109
11
0.6984717322834646
21
2.3570984251968503
0
LINE
8
BLACK
6
CONTINUOUS
10
0.6984717322834646
20
2.3570984251968503
11
0.7021696062992125
21
2.3491683464566928
0
LINE
8
BLACK
6
CONTINUOUS
10
0.7021696062992125
20
2.3491683464566928
11
0.704434251968504
21
2.3407165748031495
0
LINE
8
BLACK
6
CONTINUOUS
10
0.704434251968504
20
2.3407165748031495
11
0.7051968503937007
21
2.3319999999999999
0
LINE
8
BLACK
6
CONTINUOUS
10
0.7051968503937007
20
2.3319999999999999
11
0.704434251968504
21
2.3232834251968502
0
LINE
8
BLACK
6
CONTINUOUS
10
0.704434251968504
20
2.3232834251968502
11
0.7021696062992125
21
2.3148316535433069
0
LINE
8
BLACK
6
CONTINUOUS
10
0.7021696062992125
20
2.3148316535433069
11
0.6984717322834646
21
2.3069015748031494
0
LINE
8
BLACK
6
CONTINUOUS
10
0.6984717322834646
20
2.3069015748031494
11
0.693453031496063
21
2.2997340944881888
0
LINE
8
BLACK
6
CONTINUOUS
10
0.693453031496063
20
2.2997340944881888
11
0.687265905511811
21
2.2935469685039371
0
LINE
8
BLACK
6
CONTINUOUS
10
0.687265905511811
20
2.2935469685039371
11
0.6800984251968504
21
2.2885282677165355
0
LINE
8
BLACK
6
CONTINUOUS
10
0.6800984251968504
20
2.2885282677165355
11
0.6721683464566929
21
2.2848303937007874
0
LINE
8
BLACK
6
CONTINUOUS
10
0.6721683464566929
20
2.2848303937007874
11
0.6637165748031496
21
2.2825657480314958
0
LINE
8
BLACK
6
CONTINUOUS
10
0.6637165748031496
20
2.2825657480314958
11
0.655
21
2.2818031496062994
0
LINE
8
BLACK
6
CONTINUOUS
10
0.655
20
2.2818031496062994
11
0.6462834251968503
21
2.2825657480314958
0
LINE
8
BLACK
6
CONTINUOUS
10
0.6462834251968503
20
2.2825657480314958
11
0.6378316535433071
21
2.2848303937007874
0
LINE
8
BLACK
6
CONTINUOUS
10
0.6378316535433071
20
2.2848303937007874
11
0.6299015748031496
21
2.2885282677165355
0
LINE
8
BLACK
6
CONTINUOUS
10
0.6299015748031496
20
2.2885282677165355
11
0.6227340944881889
21
2.2935469685039371
0
LINE
8
BLACK
6
CONTINUOUS
10
0.6227340944881889
20
2.2935469685039371
11
0.616546968503937
21
2.2997340944881888
0
LINE
8
BLACK
6
CONTINUOUS
10
0.616546968503937
20
2.2997340944881888
11
0.6115282677165355
21
2.3069015748031494
0
LINE
8
BLACK
6
CONTINUOUS
10
0.6115282677165355
20
2.3069015748031494
11
0.6078303937007874
21
2.3148316535433069
0
LINE
8
BLACK
6
CONTINUOUS
10
0.6078303937007874
20
2.3148316535433069
11
0.6055657480314961
21
2.3232834251968502
0
LINE
8
BLACK
6
CONTINUOUS
10
0.6055657480314961
20
2.3232834251968502
11
0.6048031496062992
21
2.3319999999999999
0
LINE
8
BLACK
6
CONTINUOUS
10
0.6048031496062992
20
2.3319999999999999
11
0.6055657480314961
21
2.3407165748031495
0
LINE
8
BLACK
6
CONTINUOUS
10
0.6055657480314961
20
2.3407165748031495
11
0.6078303937007874
21
2.3491683464566928
0
LINE
8
BLACK
6
CONTINUOUS
10
0.6078303937007874
20
2.3491683464566928
11
0.6115282677165355
21
2.3570984251968503
0
LINE
8
BLACK
6
CONTINUOUS
10
0.6115282677165355
20
2.3570984251968503
11
0.616546968503937
21
2.3642659055118109
0
LINE
8
BLACK
6
CONTINUOUS
10
0.616546968503937
20
2.3642659055118109
11
0.6227340944881889
21
2.370453031496063
0
LINE
8
BLACK
6
CONTINUOUS
10
0.6227340944881889
20
2.370453031496063
11
0.6299015748031496
21
2.3754717322834646
0
LINE
8
BLACK
6
CONTINUOUS
10
0.6299015748031496
20
2.3754717322834646
11
0.6378316535433071
21
2.3791696062992127
0
LINE
8
BLACK
6
CONTINUOUS
10
0.6378316535433071
20
2.3791696062992127
11
0.6462834251968503
21
2.3814342519685039
0
LINE
8
BLACK
6
CONTINUOUS
10
0.6462834251968503
20
2.3814342519685039
11
0.655
21
2.3821968503937008
0
LINE
8
BLACK
6
CONTINUOUS
10
0.655
20
2.3821968503937008
11
0.6637165748031496
21
2.3814342519685039
0
LINE
8
BLACK
6
CONTINUOUS
10
0.6073229527559055
20
2.3235932283464567
11
0.6095070866141732
21
2.3154419291338582
0
LINE
8
BLACK
6
CONTINUOUS
10
0.6095070866141732
20
2.3154419291338582
11
0.6130735039370079
21
2.3077937007874016
0
LINE
8
BLACK
6
CONTINUOUS
10
0.6130735039370079
20
2.3077937007874016
11
0.6179138188976377
21
2.3008810236220474
0
LINE
8
BLACK
6
CONTINUOUS
10
0.6179138188976377
20
2.3008810236220474
11
0.6238810236220472
21
2.2949138188976379
0
LINE
8
BLACK
6
CONTINUOUS
10
0.6238810236220472
20
2.2949138188976379
11
0.6307937007874016
21
2.2900735039370077
0
LINE
8
BLACK
6
CONTINUOUS
10
0.6307937007874016
20
2.2900735039370077
11
0.6384419291338582
21
2.286507086614173
0
LINE
8
BLACK
6
CONTINUOUS
10
0.6384419291338582
20
2.286507086614173
11
0.6465932283464567
21
2.2843229527559052
0
LINE
8
BLACK
6
CONTINUOUS
10
0.6465932283464567
20
2.2843229527559052
11
0.655
21
2.2835874409448818
0
LINE
8
BLACK
6
CONTINUOUS
10
0.655
20
2.2835874409448818
11
0.6634067716535433
21
2.2843229527559052
0
LINE
8
BLACK
6
CONTINUOUS
10
0.6634067716535433
20
2.2843229527559052
11
0.6715580708661417
21
2.286507086614173
0
LINE
8
BLACK
6
CONTINUOUS
10
0.6715580708661417
20
2.286507086614173
11
0.6792062992125985
21
2.2900735039370077
0
LINE
8
BLACK
6
CONTINUOUS
10
0.6792062992125985
20
2.2900735039370077
11
0.6861189763779527
21
2.2949138188976379
0
LINE
8
BLACK
6
CONTINUOUS
10
0.6861189763779527
20
2.2949138188976379
11
0.6920861811023622
21
2.3008810236220474
0
LINE
8
BLACK
6
CONTINUOUS
10
0.6920861811023622
20
2.3008810236220474
11
0.6969264960629921
21
2.3077937007874016
0
LINE
8
BLACK
6
CONTINUOUS
10
0.6969264960629921
20
2.3077937007874016
11
0.7004929133858268
21
2.3154419291338582
0
LINE
8
BLACK
6
CONTINUOUS
10
0.7004929133858268
20
2.3154419291338582
11
0.7026770472440945
21
2.3235932283464567
0
LINE
8
BLACK
6
CONTINUOUS
10
0.7026770472440945
20
2.3235932283464567
11
0.7034125590551181
21
2.3319999999999999
0
LINE
8
BLACK
6
CONTINUOUS
10
0.7034125590551181
20
2.3319999999999999
11
0.7026770472440945
21
2.340406771653543
0
LINE
8
BLACK
6
CONTINUOUS
10
0.7026770472440945
20
2.340406771653543
11
0.7004929133858268
21
2.3485580708661415
0
LINE
8
BLACK
6
CONTINUOUS
10
0.7004929133858268
20
2.3485580708661415
11
0.6969264960629921
21
2.3562062598425197
0
LINE
8
BLACK
6
CONTINUOUS
10
0.6969264960629921
20
2.3562062598425197
11
0.6920861811023622
21
2.3631189763779528
0
LINE
8
BLACK
6
CONTINUOUS
10
0.6920861811023622
20
2.3631189763779528
11
0.6861189763779527
21
2.3690861811023622
0
LINE
8
BLACK
6
CONTINUOUS
10
0.6861189763779527
20
2.3690861811023622
11
0.6792062992125985
21
2.373926496062992
0
LINE
8
BLACK
6
CONTINUOUS
10
0.6792062992125985
20
2.373926496062992
11
0.6715580708661417
21
2.3774929133858267
0
LINE
8
BLACK
6
CONTINUOUS
10
0.6715580708661417
20
2.3774929133858267
11
0.6634067716535433
21
2.3796770472440945
0
LINE
8
BLACK
6
CONTINUOUS
10
0.6634067716535433
20
2.3796770472440945
11
0.655
21
2.3804125590551179
0
LINE
8
BLACK
6
CONTINUOUS
10
0.655
20
2.3804125590551179
11
0.6465932283464567
21
2.3796770472440945
0
LINE
8
BLACK
6
CONTINUOUS
10
0.6465932283464567
20
2.3796770472440945
11
0.6384419291338582
21
2.3774929133858267
0
LINE
8
BLACK
6
CONTINUOUS
10
0.6384419291338582
20
2.3774929133858267
11
0.6307937401574804
21
2.373926496062992
0
LINE
8
BLACK
6
CONTINUOUS
10
0.6307937401574804
20
2.373926496062992
11
0.6238810236220472
21
2.3690861811023622
0
LINE
8
BLACK
6
CONTINUOUS
10
0.6238810236220472
20
2.3690861811023622
11
0.6179138188976377
21
2.3631189763779528
0
LINE
8
BLACK
6
CONTINUOUS
10
0.6179138188976377
20
2.3631189763779528
11
0.6130735039370079
21
2.3562062598425197
0
LINE
8
BLACK
6
CONTINUOUS
10
0.6130735039370079
20
2.3562062598425197
11
0.6095070866141732
21
2.3485580708661415
0
LINE
8
BLACK
6
CONTINUOUS
10
0.6095070866141732
20
2.3485580708661415
11
0.6073229527559055
21
2.340406771653543
0
LINE
8
BLACK
6
CONTINUOUS
10
0.6073229527559055
20
2.340406771653543
11
0.6065874409448819
21
2.3319999999999999
0
LINE
8
BLACK
6
CONTINUOUS
10
0.6065874409448819
20
2.3319999999999999
11
0.6073229527559055
21
2.3235932283464567
0
LINE
8
BLACK
6
CONTINUOUS
10
1.7665183858267717
20
2.513310905511811
11
1.7670510629921259
21
2.5127782283464568
0
LINE
8
BLACK
6
CONTINUOUS
10
1.7670510629921259
20
2.5127782283464568
11
1.7671259842519684
21
2.4375984251968505
0
LINE
8
BLACK
6
CONTINUOUS
10
1.7671259842519684
20
2.4375984251968505
11
1.7670510629921259
21
2.4372217716535434
0
LINE
8
BLACK
6
CONTINUOUS
10
1.7670510629921259
20
2.4372217716535434
11
1.7665183858267717
21
2.4366890944881887
0
LINE
8
BLACK
6
CONTINUOUS
10
1.7665183858267717
20
2.4366890944881887
11
1.6338582677165354
21
2.4366141732283464
0
LINE
8
BLACK
6
CONTINUOUS
10
1.6338582677165354
20
2.4366141732283464
11
1.6334816141732282
21
2.4366890944881887
0
LINE
8
BLACK
6
CONTINUOUS
10
1.6334816141732282
20
2.4366890944881887
11
1.632948937007874
21
2.4372217716535434
0
LINE
8
BLACK
6
CONTINUOUS
10
1.632948937007874
20
2.4372217716535434
11
1.6328740157480315
21
2.5124015748031496
0
LINE
8
BLACK
6
CONTINUOUS
10
1.6328740157480315
20
2.5124015748031496
11
1.632948937007874
21
2.5127782283464568
0
LINE
8
BLACK
6
CONTINUOUS
10
1.632948937007874
20
2.5127782283464568
11
1.6334816141732282
21
2.513310905511811
0
LINE
8
BLACK
6
CONTINUOUS
10
1.6334816141732282
20
2.513310905511811
11
1.7661417322834645
21
2.5133858267716533
0
LINE
8
BLACK
6
CONTINUOUS
10
1.7661417322834645
20
2.5133858267716533
11
1.7665183858267717
21
2.513310905511811
0
LINE
8
BLACK
6
CONTINUOUS
10
1.634768937007874
20
2.511417874015748
11
1.6348415748031495
21
2.4385085433070866
0
LINE
8
BLACK
6
CONTINUOUS
10
1.6348415748031495
20
2.4385085433070866
11
1.7652310236220472
21
2.4385821653543305
0
LINE
8
BLACK
6
CONTINUOUS
10
1.7652310236220472
20
2.4385821653543305
11
1.7651583858267716
21
2.5114914960629919
0
LINE
8
BLACK
6
CONTINUOUS
10
1.7651583858267716
20
2.5114914960629919
11
1.634768937007874
21
2.511417874015748
0
LINE
8
BLACK
6
CONTINUOUS
10
2.7365183858267716
20
2.5183109055118109
11
2.7370510629921259
21
2.5177782283464567
0
LINE
8
BLACK
6
CONTINUOUS
10
2.7370510629921259
20
2.5177782283464567
11
2.7371259842519686
21
2.4425984251968504
0
LINE
8
BLACK
6
CONTINUOUS
10
2.7371259842519686
20
2.4425984251968504
11
2.7370510629921259
21
2.4422217716535433
0
LINE
8
BLACK
6
CONTINUOUS
10
2.7370510629921259
20
2.4422217716535433
11
2.7365183858267716
21
2.441689094488189
0
LINE
8
BLACK
6
CONTINUOUS
10
2.7365183858267716
20
2.441689094488189
11
2.6038582677165354
21
2.4416141732283463
0
LINE
8
BLACK
6
CONTINUOUS
10
2.6038582677165354
20
2.4416141732283463
11
2.6034816141732282
21
2.441689094488189
0
LINE
8
BLACK
6
CONTINUOUS
10
2.6034816141732282
20
2.441689094488189
11
2.602948937007874
21
2.4422217716535433
0
LINE
8
BLACK
6
CONTINUOUS
10
2.602948937007874
20
2.4422217716535433
11
2.6028740157480312
21
2.5174015748031495
0
LINE
8
BLACK
6
CONTINUOUS
10
2.6028740157480312
20
2.5174015748031495
11
2.602948937007874
21
2.5177782283464567
0
LINE
8
BLACK
6
CONTINUOUS
10
2.602948937007874
20
2.5177782283464567
11
2.6034816141732282
21
2.5183109055118109
0
LINE
8
BLACK
6
CONTINUOUS
10
2.6034816141732282
20
2.5183109055118109
11
2.7361417322834645
21
2.5183858267716537
0
LINE
8
BLACK
6
CONTINUOUS
10
2.7361417322834645
20
2.5183858267716537
11
2.7365183858267716
21
2.5183109055118109
0
LINE
8
BLACK
6
CONTINUOUS
10
2.6047689370078739
20
2.5164178740157479
11
2.6048415748031495
21
2.4435085433070864
0
LINE
8
BLACK
6
CONTINUOUS
10
2.6048415748031495
20
2.4435085433070864
11
2.7352310236220472
21
2.4435821653543308
0
LINE
8
BLACK
6
CONTINUOUS
10
2.7352310236220472
20
2.4435821653543308
11
2.7351583858267716
21
2.5164914960629923
0
LINE
8
BLACK
6
CONTINUOUS
10
2.7351583858267716
20
2.5164914960629923
11
2.6047689370078739
21
2.5164178740157479
0
LINE
8
BLACK
6
CONTINUOUS
10
2.8965183858267718
20
2.5183109055118109
11
2.897051062992126
21
2.5177782283464567
0
LINE
8
BLACK
6
CONTINUOUS
10
2.897051062992126
20
2.5177782283464567
11
2.8971259842519683
21
2.4425984251968504
0
LINE
8
BLACK
6
CONTINUOUS
10
2.8971259842519683
20
2.4425984251968504
11
2.897051062992126
21
2.4422217716535433
0
LINE
8
BLACK
6
CONTINUOUS
10
2.897051062992126
20
2.4422217716535433
11
2.8965183858267718
21
2.441689094488189
0
LINE
8
BLACK
6
CONTINUOUS
10
2.8965183858267718
20
2.441689094488189
11
2.7638582677165355
21
2.4416141732283463
0
LINE
8
BLACK
6
CONTINUOUS
10
2.7638582677165355
20
2.4416141732283463
11
2.7634816141732284
21
2.441689094488189
0
LINE
8
BLACK
6
CONTINUOUS
10
2.7634816141732284
20
2.441689094488189
11
2.7629489370078741
21
2.4422217716535433
0
LINE
8
BLACK
6
CONTINUOUS
10
2.7629489370078741
20
2.4422217716535433
11
2.7628740157480314
21
2.5174015748031495
0
LINE
8
BLACK
6
CONTINUOUS
10
2.7628740157480314
20
2.5174015748031495
11
2.7629489370078741
21
2.5177782283464567
0
LINE
8
BLACK
6
CONTINUOUS
10
2.7629489370078741
20
2.5177782283464567
11
2.7634816141732284
21
2.5183109055118109
0
LINE
8
BLACK
6
CONTINUOUS
10
2.7634816141732284
20
2.5183109055118109
11
2.8961417322834646
21
2.5183858267716537
0
LINE
8
BLACK
6
CONTINUOUS
10
2.8961417322834646
20
2.5183858267716537
11
2.8965183858267718
21
2.5183109055118109
0
LINE
8
BLACK
6
CONTINUOUS
10
2.7647689370078741
20
2.5164178740157479
11
2.7648415748031496
21
2.4435085433070864
0
LINE
8
BLACK
6
CONTINUOUS
10
2.7648415748031496
20
2.4435085433070864
11
2.8952310236220473
21
2.4435821653543308
0
LINE
8
BLACK
6
CONTINUOUS
10
2.8952310236220473
20
2.4435821653543308
11
2.8951583858267718
21
2.5164914960629923
0
LINE
8
BLACK
6
CONTINUOUS
10
2.8951583858267718
20
2.5164914960629923
11
2.7647689370078741
21
2.5164178740157479
  0
ENDSEC
  0
EOF
