  0
SECTION
  2
HEADER
  9
$ANGBASE
  50
0.0
  9
$ANGDIR
  70
1
  9
$MEASUREMENT
  70
0
  0
ENDSEC
  0
SECTION
  2
TABLES
  0
TABLE
  2
LTYPE
  70
4
  0
LTYPE
  5
40F
  2
CONTINUOUS
  70
0
  3
Solid line
  72
65
  73
0
  40
0.0
  0
LTYPE
  5
410
  2
DASHDOT
 70
0
  3
Dash Dot ____ _ ____ _
 72
65
 73
4
 40
2.0
 49
1.25
 49
-0.25
 49
0.25
 49
-0.25
  0
LTYPE
  5
411
  2
DASHED
 70
0
  3
Dashed __ __ __ __ __
 72
65
 73
2
 40
0.75
 49
0.5
 49
-0.25
  0
LTYPE
  5
43B
  2
DOTTED
 70
0
  3
Dotted .  .  .  .
 72
65
 73
2
 40
0.2
 49
0.0
 49
-0.2
  0
ENDTAB
  0
TABLE
  2
STYLE
  70
4
  0
STYLE
  2
KICAD
  70
0
  40
0
  41
1
  42
1
  50
0
  71
0
  3
isocp.shx
  0
STYLE
  2
KICADB
  70
0
  40
0
  41
1
  42
1
  50
0
  71
0
  3
isocp.shx
  0
STYLE
  2
KICADI
  70
0
  40
0
  41
1
  42
1
  50
15
  71
0
  3
isocp.shx
  0
STYLE
  2
KICADBI
  70
0
  40
0
  41
1
  42
1
  50
15
  71
0
  3
isocp.shx
  0
ENDTAB
  0
TABLE
  2
LAYER
  70
1
  0
LAYER
  2
BLACK
  70
0
  62
7
  6
CONTINUOUS
  0
ENDTAB
  0
ENDSEC
  0
SECTION
  2
ENTITIES
0
LINE
8
BLACK
6
CONTINUOUS
10
2.2986184251968504
20
-0.1884194488188976
11
2.3026237401574803
21
-0.1907319291338583
0
LINE
8
BLACK
6
CONTINUOUS
10
2.3026237401574803
20
-0.1907319291338583
11
2.30589405511811
21
-0.1940022440944882
0
LINE
8
BLACK
6
CONTINUOUS
10
2.30589405511811
20
-0.1940022440944882
11
2.308206535433071
21
-0.1980075590551181
0
LINE
8
BLACK
6
CONTINUOUS
10
2.308206535433071
20
-0.1980075590551181
11
2.3094035433070865
21
-0.2024749212598425
0
LINE
8
BLACK
6
CONTINUOUS
10
2.3094035433070865
20
-0.2024749212598425
11
2.3095551181102363
21
-0.2205354330708661
0
LINE
8
BLACK
6
CONTINUOUS
10
2.3095551181102363
20
-0.2205354330708661
11
2.3094035433070865
21
-0.2228479133858268
0
LINE
8
BLACK
6
CONTINUOUS
10
2.3094035433070865
20
-0.2228479133858268
11
2.308206535433071
21
-0.2273152755905512
0
LINE
8
BLACK
6
CONTINUOUS
10
2.308206535433071
20
-0.2273152755905512
11
2.30589405511811
21
-0.2313205905511811
0
LINE
8
BLACK
6
CONTINUOUS
10
2.30589405511811
20
-0.2313205905511811
11
2.3026237401574803
21
-0.234590905511811
0
LINE
8
BLACK
6
CONTINUOUS
10
2.3026237401574803
20
-0.234590905511811
11
2.2996921653543305
21
-0.2362834645669291
0
LINE
8
BLACK
6
CONTINUOUS
10
2.2996921653543305
20
-0.2362834645669291
11
2.3193976377952756
21
-0.2362834645669291
0
LINE
8
BLACK
6
CONTINUOUS
10
2.3193976377952756
20
-0.2362834645669291
11
2.3227875590551181
21
-0.2369577559055118
0
LINE
8
BLACK
6
CONTINUOUS
10
2.3227875590551181
20
-0.2369577559055118
11
2.325661377952756
21
-0.2388779921259842
0
LINE
8
BLACK
6
CONTINUOUS
10
2.325661377952756
20
-0.2388779921259842
11
2.3275816141732282
21
-0.241751811023622
0
LINE
8
BLACK
6
CONTINUOUS
10
2.3275816141732282
20
-0.241751811023622
11
2.3282559055118108
21
-0.2451417322834646
0
LINE
8
BLACK
6
CONTINUOUS
10
2.3282559055118108
20
-0.2451417322834646
11
2.3282559055118108
21
-0.2628582677165354
0
LINE
8
BLACK
6
CONTINUOUS
10
2.3282559055118108
20
-0.2628582677165354
11
2.3275816141732282
21
-0.2662481889763779
0
LINE
8
BLACK
6
CONTINUOUS
10
2.3275816141732282
20
-0.2662481889763779
11
2.325661377952756
21
-0.2691220078740157
0
LINE
8
BLACK
6
CONTINUOUS
10
2.325661377952756
20
-0.2691220078740157
11
2.3227875590551181
21
-0.2710422440944882
0
LINE
8
BLACK
6
CONTINUOUS
10
2.3227875590551181
20
-0.2710422440944882
11
2.3193976377952756
21
-0.2717165354330708
0
LINE
8
BLACK
6
CONTINUOUS
10
2.3193976377952756
20
-0.2717165354330708
11
2.2859330708661418
21
-0.2717165354330708
0
LINE
8
BLACK
6
CONTINUOUS
10
2.2859330708661418
20
-0.2717165354330708
11
2.2825431496062993
21
-0.2710422440944882
0
LINE
8
BLACK
6
CONTINUOUS
10
2.2825431496062993
20
-0.2710422440944882
11
2.2796693307086615
21
-0.2691220078740157
0
LINE
8
BLACK
6
CONTINUOUS
10
2.2796693307086615
20
-0.2691220078740157
11
2.2777490944881889
21
-0.2662481889763779
0
LINE
8
BLACK
6
CONTINUOUS
10
2.2777490944881889
20
-0.2662481889763779
11
2.2770748031496062
21
-0.2628582677165354
0
LINE
8
BLACK
6
CONTINUOUS
10
2.2770748031496062
20
-0.2628582677165354
11
2.2770748031496062
21
-0.2451417322834646
0
LINE
8
BLACK
6
CONTINUOUS
10
2.2770748031496062
20
-0.2451417322834646
11
2.2777490944881889
21
-0.241751811023622
0
LINE
8
BLACK
6
CONTINUOUS
10
2.2777490944881889
20
-0.241751811023622
11
2.2796693307086615
21
-0.2388779921259842
0
LINE
8
BLACK
6
CONTINUOUS
10
2.2796693307086615
20
-0.2388779921259842
11
2.2825431496062993
21
-0.2369577559055118
0
LINE
8
BLACK
6
CONTINUOUS
10
2.2825431496062993
20
-0.2369577559055118
11
2.2844841732283463
21
-0.2365716535433071
0
LINE
8
BLACK
6
CONTINUOUS
10
2.2844841732283463
20
-0.2365716535433071
11
2.2810534251968502
21
-0.234590905511811
0
LINE
8
BLACK
6
CONTINUOUS
10
2.2810534251968502
20
-0.234590905511811
11
2.2777831102362205
21
-0.2313205905511811
0
LINE
8
BLACK
6
CONTINUOUS
10
2.2777831102362205
20
-0.2313205905511811
11
2.2754706299212599
21
-0.2273152755905512
0
LINE
8
BLACK
6
CONTINUOUS
10
2.2754706299212599
20
-0.2273152755905512
11
2.2742736220472439
21
-0.2228479133858268
0
LINE
8
BLACK
6
CONTINUOUS
10
2.2742736220472439
20
-0.2228479133858268
11
2.2741220472440946
21
-0.2047874015748032
0
LINE
8
BLACK
6
CONTINUOUS
10
2.2741220472440946
20
-0.2047874015748032
11
2.2742736220472439
21
-0.2024749212598425
0
LINE
8
BLACK
6
CONTINUOUS
10
2.2742736220472439
20
-0.2024749212598425
11
2.2754706299212599
21
-0.1980075590551181
0
LINE
8
BLACK
6
CONTINUOUS
10
2.2754706299212599
20
-0.1980075590551181
11
2.2777831102362205
21
-0.1940022440944882
0
LINE
8
BLACK
6
CONTINUOUS
10
2.2777831102362205
20
-0.1940022440944882
11
2.2810534251968502
21
-0.1907319291338583
0
LINE
8
BLACK
6
CONTINUOUS
10
2.2810534251968502
20
-0.1907319291338583
11
2.2850587401574805
21
-0.1884194488188976
0
LINE
8
BLACK
6
CONTINUOUS
10
2.2850587401574805
20
-0.1884194488188976
11
2.2895261023622049
21
-0.1872224409448819
0
LINE
8
BLACK
6
CONTINUOUS
10
2.2895261023622049
20
-0.1872224409448819
11
2.294151062992126
21
-0.1872224409448819
0
LINE
8
BLACK
6
CONTINUOUS
10
2.294151062992126
20
-0.1872224409448819
11
2.2986184251968504
21
-0.1884194488188976
0
LINE
8
BLACK
6
CONTINUOUS
10
2.4659412598425194
20
-0.1884194488188976
11
2.4699465748031497
21
-0.1907319291338583
0
LINE
8
BLACK
6
CONTINUOUS
10
2.4699465748031497
20
-0.1907319291338583
11
2.4732168897637794
21
-0.1940022440944882
0
LINE
8
BLACK
6
CONTINUOUS
10
2.4732168897637794
20
-0.1940022440944882
11
2.47552937007874
21
-0.1980075590551181
0
LINE
8
BLACK
6
CONTINUOUS
10
2.47552937007874
20
-0.1980075590551181
11
2.476726377952756
21
-0.2024749212598425
0
LINE
8
BLACK
6
CONTINUOUS
10
2.476726377952756
20
-0.2024749212598425
11
2.4768779527559053
21
-0.2205354330708661
0
LINE
8
BLACK
6
CONTINUOUS
10
2.4768779527559053
20
-0.2205354330708661
11
2.476726377952756
21
-0.2228479133858268
0
LINE
8
BLACK
6
CONTINUOUS
10
2.476726377952756
20
-0.2228479133858268
11
2.47552937007874
21
-0.2273152755905512
0
LINE
8
BLACK
6
CONTINUOUS
10
2.47552937007874
20
-0.2273152755905512
11
2.4732168897637794
21
-0.2313205905511811
0
LINE
8
BLACK
6
CONTINUOUS
10
2.4732168897637794
20
-0.2313205905511811
11
2.4699465748031497
21
-0.234590905511811
0
LINE
8
BLACK
6
CONTINUOUS
10
2.4699465748031497
20
-0.234590905511811
11
2.4665157874015748
21
-0.2365716535433071
0
LINE
8
BLACK
6
CONTINUOUS
10
2.4665157874015748
20
-0.2365716535433071
11
2.4684568503937006
21
-0.2369577559055118
0
LINE
8
BLACK
6
CONTINUOUS
10
2.4684568503937006
20
-0.2369577559055118
11
2.4713306692913384
21
-0.2388779921259842
0
LINE
8
BLACK
6
CONTINUOUS
10
2.4713306692913384
20
-0.2388779921259842
11
2.473250905511811
21
-0.241751811023622
0
LINE
8
BLACK
6
CONTINUOUS
10
2.473250905511811
20
-0.241751811023622
11
2.4739251968503937
21
-0.2451417322834646
0
LINE
8
BLACK
6
CONTINUOUS
10
2.4739251968503937
20
-0.2451417322834646
11
2.4739251968503937
21
-0.2628582677165354
0
LINE
8
BLACK
6
CONTINUOUS
10
2.4739251968503937
20
-0.2628582677165354
11
2.473250905511811
21
-0.2662481889763779
0
LINE
8
BLACK
6
CONTINUOUS
10
2.473250905511811
20
-0.2662481889763779
11
2.4713306692913384
21
-0.2691220078740157
0
LINE
8
BLACK
6
CONTINUOUS
10
2.4713306692913384
20
-0.2691220078740157
11
2.4684568503937006
21
-0.2710422440944882
0
LINE
8
BLACK
6
CONTINUOUS
10
2.4684568503937006
20
-0.2710422440944882
11
2.4650669291338581
21
-0.2717165354330708
0
LINE
8
BLACK
6
CONTINUOUS
10
2.4650669291338581
20
-0.2717165354330708
11
2.4316023622047243
21
-0.2717165354330708
0
LINE
8
BLACK
6
CONTINUOUS
10
2.4316023622047243
20
-0.2717165354330708
11
2.4282124409448818
21
-0.2710422440944882
0
LINE
8
BLACK
6
CONTINUOUS
10
2.4282124409448818
20
-0.2710422440944882
11
2.4253386220472439
21
-0.2691220078740157
0
LINE
8
BLACK
6
CONTINUOUS
10
2.4253386220472439
20
-0.2691220078740157
11
2.4234183858267717
21
-0.2662481889763779
0
LINE
8
BLACK
6
CONTINUOUS
10
2.4234183858267717
20
-0.2662481889763779
11
2.4227440944881891
21
-0.2628582677165354
0
LINE
8
BLACK
6
CONTINUOUS
10
2.4227440944881891
20
-0.2628582677165354
11
2.4227440944881891
21
-0.2451417322834646
0
LINE
8
BLACK
6
CONTINUOUS
10
2.4227440944881891
20
-0.2451417322834646
11
2.4234183858267717
21
-0.241751811023622
0
LINE
8
BLACK
6
CONTINUOUS
10
2.4234183858267717
20
-0.241751811023622
11
2.4253386220472439
21
-0.2388779921259842
0
LINE
8
BLACK
6
CONTINUOUS
10
2.4253386220472439
20
-0.2388779921259842
11
2.4282124409448818
21
-0.2369577559055118
0
LINE
8
BLACK
6
CONTINUOUS
10
2.4282124409448818
20
-0.2369577559055118
11
2.4316023622047243
21
-0.2362834645669291
0
LINE
8
BLACK
6
CONTINUOUS
10
2.4316023622047243
20
-0.2362834645669291
11
2.4513078346456694
21
-0.2362834645669291
0
LINE
8
BLACK
6
CONTINUOUS
10
2.4513078346456694
20
-0.2362834645669291
11
2.4483762598425196
21
-0.234590905511811
0
LINE
8
BLACK
6
CONTINUOUS
10
2.4483762598425196
20
-0.234590905511811
11
2.4451059448818899
21
-0.2313205905511811
0
LINE
8
BLACK
6
CONTINUOUS
10
2.4451059448818899
20
-0.2313205905511811
11
2.4427934645669289
21
-0.2273152755905512
0
LINE
8
BLACK
6
CONTINUOUS
10
2.4427934645669289
20
-0.2273152755905512
11
2.4415964566929134
21
-0.2228479133858268
0
LINE
8
BLACK
6
CONTINUOUS
10
2.4415964566929134
20
-0.2228479133858268
11
2.4414448818897636
21
-0.2047874015748032
0
LINE
8
BLACK
6
CONTINUOUS
10
2.4414448818897636
20
-0.2047874015748032
11
2.4415964566929134
21
-0.2024749212598425
0
LINE
8
BLACK
6
CONTINUOUS
10
2.4415964566929134
20
-0.2024749212598425
11
2.4427934645669289
21
-0.1980075590551181
0
LINE
8
BLACK
6
CONTINUOUS
10
2.4427934645669289
20
-0.1980075590551181
11
2.4451059448818899
21
-0.1940022440944882
0
LINE
8
BLACK
6
CONTINUOUS
10
2.4451059448818899
20
-0.1940022440944882
11
2.4483762598425196
21
-0.1907319291338583
0
LINE
8
BLACK
6
CONTINUOUS
10
2.4483762598425196
20
-0.1907319291338583
11
2.4523815748031494
21
-0.1884194488188976
0
LINE
8
BLACK
6
CONTINUOUS
10
2.4523815748031494
20
-0.1884194488188976
11
2.4568489370078739
21
-0.1872224409448819
0
LINE
8
BLACK
6
CONTINUOUS
10
2.4568489370078739
20
-0.1872224409448819
11
2.461473897637795
21
-0.1872224409448819
0
LINE
8
BLACK
6
CONTINUOUS
10
2.461473897637795
20
-0.1872224409448819
11
2.4659412598425194
21
-0.1884194488188976
0
LINE
8
BLACK
6
CONTINUOUS
10
1.925783779527559
20
-0.174521811023622
11
1.929789094488189
21
-0.1768342913385827
0
LINE
8
BLACK
6
CONTINUOUS
10
1.929789094488189
20
-0.1768342913385827
11
1.9330594094488189
21
-0.1801046062992126
0
LINE
8
BLACK
6
CONTINUOUS
10
1.9330594094488189
20
-0.1801046062992126
11
1.9353718897637795
21
-0.1841099212598425
0
LINE
8
BLACK
6
CONTINUOUS
10
1.9353718897637795
20
-0.1841099212598425
11
1.9365688976377953
21
-0.1885772834645669
0
LINE
8
BLACK
6
CONTINUOUS
10
1.9365688976377953
20
-0.1885772834645669
11
1.9367204724409448
21
-0.2066377952755905
0
LINE
8
BLACK
6
CONTINUOUS
10
1.9367204724409448
20
-0.2066377952755905
11
1.9365688976377953
21
-0.2089502755905512
0
LINE
8
BLACK
6
CONTINUOUS
10
1.9365688976377953
20
-0.2089502755905512
11
1.9353718897637795
21
-0.2134176377952756
0
LINE
8
BLACK
6
CONTINUOUS
10
1.9353718897637795
20
-0.2134176377952756
11
1.9330594094488189
21
-0.2174229527559055
0
LINE
8
BLACK
6
CONTINUOUS
10
1.9330594094488189
20
-0.2174229527559055
11
1.929789094488189
21
-0.2206932677165354
0
LINE
8
BLACK
6
CONTINUOUS
10
1.929789094488189
20
-0.2206932677165354
11
1.9268575196850393
21
-0.2223858267716535
0
LINE
8
BLACK
6
CONTINUOUS
10
1.9268575196850393
20
-0.2223858267716535
11
1.9465629921259842
21
-0.2223858267716535
0
LINE
8
BLACK
6
CONTINUOUS
10
1.9465629921259842
20
-0.2223858267716535
11
1.9499529133858267
21
-0.2230601181102362
0
LINE
8
BLACK
6
CONTINUOUS
10
1.9499529133858267
20
-0.2230601181102362
11
1.9528267322834645
21
-0.2249803543307086
0
LINE
8
BLACK
6
CONTINUOUS
10
1.9528267322834645
20
-0.2249803543307086
11
1.9547469685039369
21
-0.2278541732283464
0
LINE
8
BLACK
6
CONTINUOUS
10
1.9547469685039369
20
-0.2278541732283464
11
1.9554212598425196
21
-0.231244094488189
0
LINE
8
BLACK
6
CONTINUOUS
10
1.9554212598425196
20
-0.231244094488189
11
1.9554212598425196
21
-0.2489606299212598
0
LINE
8
BLACK
6
CONTINUOUS
10
1.9554212598425196
20
-0.2489606299212598
11
1.9547469685039369
21
-0.2523505511811023
0
LINE
8
BLACK
6
CONTINUOUS
10
1.9547469685039369
20
-0.2523505511811023
11
1.9528267322834645
21
-0.2552243700787402
0
LINE
8
BLACK
6
CONTINUOUS
10
1.9528267322834645
20
-0.2552243700787402
11
1.9499529133858267
21
-0.2571446062992126
0
LINE
8
BLACK
6
CONTINUOUS
10
1.9499529133858267
20
-0.2571446062992126
11
1.9465629921259842
21
-0.2578188976377953
0
LINE
8
BLACK
6
CONTINUOUS
10
1.9465629921259842
20
-0.2578188976377953
11
1.9130984251968504
21
-0.2578188976377953
0
LINE
8
BLACK
6
CONTINUOUS
10
1.9130984251968504
20
-0.2578188976377953
11
1.9097085039370079
21
-0.2571446062992126
0
LINE
8
BLACK
6
CONTINUOUS
10
1.9097085039370079
20
-0.2571446062992126
11
1.90683468503937
21
-0.2552243700787402
0
LINE
8
BLACK
6
CONTINUOUS
10
1.90683468503937
20
-0.2552243700787402
11
1.9049144488188976
21
-0.2523505511811023
0
LINE
8
BLACK
6
CONTINUOUS
10
1.9049144488188976
20
-0.2523505511811023
11
1.9042401574803149
21
-0.2489606299212598
0
LINE
8
BLACK
6
CONTINUOUS
10
1.9042401574803149
20
-0.2489606299212598
11
1.9042401574803149
21
-0.231244094488189
0
LINE
8
BLACK
6
CONTINUOUS
10
1.9042401574803149
20
-0.231244094488189
11
1.9049144488188976
21
-0.2278541732283464
0
LINE
8
BLACK
6
CONTINUOUS
10
1.9049144488188976
20
-0.2278541732283464
11
1.90683468503937
21
-0.2249803543307086
0
LINE
8
BLACK
6
CONTINUOUS
10
1.90683468503937
20
-0.2249803543307086
11
1.9097085039370079
21
-0.2230601181102362
0
LINE
8
BLACK
6
CONTINUOUS
10
1.9097085039370079
20
-0.2230601181102362
11
1.911649527559055
21
-0.2226740157480315
0
LINE
8
BLACK
6
CONTINUOUS
10
1.911649527559055
20
-0.2226740157480315
11
1.9082187795275589
21
-0.2206932677165354
0
LINE
8
BLACK
6
CONTINUOUS
10
1.9082187795275589
20
-0.2206932677165354
11
1.904948464566929
21
-0.2174229527559055
0
LINE
8
BLACK
6
CONTINUOUS
10
1.904948464566929
20
-0.2174229527559055
11
1.9026359842519684
21
-0.2134176377952756
0
LINE
8
BLACK
6
CONTINUOUS
10
1.9026359842519684
20
-0.2134176377952756
11
1.9014389763779527
21
-0.2089502755905512
0
LINE
8
BLACK
6
CONTINUOUS
10
1.9014389763779527
20
-0.2089502755905512
11
1.9012874015748031
21
-0.1908897637795275
0
LINE
8
BLACK
6
CONTINUOUS
10
1.9012874015748031
20
-0.1908897637795275
11
1.9014389763779527
21
-0.1885772834645669
0
LINE
8
BLACK
6
CONTINUOUS
10
1.9014389763779527
20
-0.1885772834645669
11
1.9026359842519684
21
-0.1841099212598425
0
LINE
8
BLACK
6
CONTINUOUS
10
1.9026359842519684
20
-0.1841099212598425
11
1.904948464566929
21
-0.1801046062992126
0
LINE
8
BLACK
6
CONTINUOUS
10
1.904948464566929
20
-0.1801046062992126
11
1.9082187795275589
21
-0.1768342913385827
0
LINE
8
BLACK
6
CONTINUOUS
10
1.9082187795275589
20
-0.1768342913385827
11
1.912224094488189
21
-0.174521811023622
0
LINE
8
BLACK
6
CONTINUOUS
10
1.912224094488189
20
-0.174521811023622
11
1.9166914566929134
21
-0.1733248031496063
0
LINE
8
BLACK
6
CONTINUOUS
10
1.9166914566929134
20
-0.1733248031496063
11
1.9213164173228345
21
-0.1733248031496063
0
LINE
8
BLACK
6
CONTINUOUS
10
1.9213164173228345
20
-0.1733248031496063
11
1.925783779527559
21
-0.174521811023622
0
LINE
8
BLACK
6
CONTINUOUS
10
2.0931066141732284
20
-0.174521811023622
11
2.0971119291338582
21
-0.1768342913385827
0
LINE
8
BLACK
6
CONTINUOUS
10
2.0971119291338582
20
-0.1768342913385827
11
2.1003822440944879
21
-0.1801046062992126
0
LINE
8
BLACK
6
CONTINUOUS
10
2.1003822440944879
20
-0.1801046062992126
11
2.1026947244094489
21
-0.1841099212598425
0
LINE
8
BLACK
6
CONTINUOUS
10
2.1026947244094489
20
-0.1841099212598425
11
2.1038917322834645
21
-0.1885772834645669
0
LINE
8
BLACK
6
CONTINUOUS
10
2.1038917322834645
20
-0.1885772834645669
11
2.1040433070866142
21
-0.2066377952755905
0
LINE
8
BLACK
6
CONTINUOUS
10
2.1040433070866142
20
-0.2066377952755905
11
2.1038917322834645
21
-0.2089502755905512
0
LINE
8
BLACK
6
CONTINUOUS
10
2.1038917322834645
20
-0.2089502755905512
11
2.1026947244094489
21
-0.2134176377952756
0
LINE
8
BLACK
6
CONTINUOUS
10
2.1026947244094489
20
-0.2134176377952756
11
2.1003822440944879
21
-0.2174229527559055
0
LINE
8
BLACK
6
CONTINUOUS
10
2.1003822440944879
20
-0.2174229527559055
11
2.0971119291338582
21
-0.2206932677165354
0
LINE
8
BLACK
6
CONTINUOUS
10
2.0971119291338582
20
-0.2206932677165354
11
2.0936811417322834
21
-0.2226740157480315
0
LINE
8
BLACK
6
CONTINUOUS
10
2.0936811417322834
20
-0.2226740157480315
11
2.0956222047244095
21
-0.2230601181102362
0
LINE
8
BLACK
6
CONTINUOUS
10
2.0956222047244095
20
-0.2230601181102362
11
2.0984960236220473
21
-0.2249803543307086
0
LINE
8
BLACK
6
CONTINUOUS
10
2.0984960236220473
20
-0.2249803543307086
11
2.1004162598425196
21
-0.2278541732283464
0
LINE
8
BLACK
6
CONTINUOUS
10
2.1004162598425196
20
-0.2278541732283464
11
2.1010905511811022
21
-0.231244094488189
0
LINE
8
BLACK
6
CONTINUOUS
10
2.1010905511811022
20
-0.231244094488189
11
2.1010905511811022
21
-0.2489606299212598
0
LINE
8
BLACK
6
CONTINUOUS
10
2.1010905511811022
20
-0.2489606299212598
11
2.1004162598425196
21
-0.2523505511811023
0
LINE
8
BLACK
6
CONTINUOUS
10
2.1004162598425196
20
-0.2523505511811023
11
2.0984960236220473
21
-0.2552243700787402
0
LINE
8
BLACK
6
CONTINUOUS
10
2.0984960236220473
20
-0.2552243700787402
11
2.0956222047244095
21
-0.2571446062992126
0
LINE
8
BLACK
6
CONTINUOUS
10
2.0956222047244095
20
-0.2571446062992126
11
2.092232283464567
21
-0.2578188976377953
0
LINE
8
BLACK
6
CONTINUOUS
10
2.092232283464567
20
-0.2578188976377953
11
2.0587677165354332
21
-0.2578188976377953
0
LINE
8
BLACK
6
CONTINUOUS
10
2.0587677165354332
20
-0.2578188976377953
11
2.0553777952755907
21
-0.2571446062992126
0
LINE
8
BLACK
6
CONTINUOUS
10
2.0553777952755907
20
-0.2571446062992126
11
2.0525039763779529
21
-0.2552243700787402
0
LINE
8
BLACK
6
CONTINUOUS
10
2.0525039763779529
20
-0.2552243700787402
11
2.0505837401574802
21
-0.2523505511811023
0
LINE
8
BLACK
6
CONTINUOUS
10
2.0505837401574802
20
-0.2523505511811023
11
2.0499094488188976
21
-0.2489606299212598
0
LINE
8
BLACK
6
CONTINUOUS
10
2.0499094488188976
20
-0.2489606299212598
11
2.0499094488188976
21
-0.231244094488189
0
LINE
8
BLACK
6
CONTINUOUS
10
2.0499094488188976
20
-0.231244094488189
11
2.0505837401574802
21
-0.2278541732283464
0
LINE
8
BLACK
6
CONTINUOUS
10
2.0505837401574802
20
-0.2278541732283464
11
2.0525039763779529
21
-0.2249803543307086
0
LINE
8
BLACK
6
CONTINUOUS
10
2.0525039763779529
20
-0.2249803543307086
11
2.0553777952755907
21
-0.2230601181102362
0
LINE
8
BLACK
6
CONTINUOUS
10
2.0553777952755907
20
-0.2230601181102362
11
2.0587677165354332
21
-0.2223858267716535
0
LINE
8
BLACK
6
CONTINUOUS
10
2.0587677165354332
20
-0.2223858267716535
11
2.0784731889763779
21
-0.2223858267716535
0
LINE
8
BLACK
6
CONTINUOUS
10
2.0784731889763779
20
-0.2223858267716535
11
2.0755416141732281
21
-0.2206932677165354
0
LINE
8
BLACK
6
CONTINUOUS
10
2.0755416141732281
20
-0.2206932677165354
11
2.0722712992125984
21
-0.2174229527559055
0
LINE
8
BLACK
6
CONTINUOUS
10
2.0722712992125984
20
-0.2174229527559055
11
2.0699588188976379
21
-0.2134176377952756
0
LINE
8
BLACK
6
CONTINUOUS
10
2.0699588188976379
20
-0.2134176377952756
11
2.0687618110236219
21
-0.2089502755905512
0
LINE
8
BLACK
6
CONTINUOUS
10
2.0687618110236219
20
-0.2089502755905512
11
2.0686102362204726
21
-0.1908897637795275
0
LINE
8
BLACK
6
CONTINUOUS
10
2.0686102362204726
20
-0.1908897637795275
11
2.0687618110236219
21
-0.1885772834645669
0
LINE
8
BLACK
6
CONTINUOUS
10
2.0687618110236219
20
-0.1885772834645669
11
2.0699588188976379
21
-0.1841099212598425
0
LINE
8
BLACK
6
CONTINUOUS
10
2.0699588188976379
20
-0.1841099212598425
11
2.0722712992125984
21
-0.1801046062992126
0
LINE
8
BLACK
6
CONTINUOUS
10
2.0722712992125984
20
-0.1801046062992126
11
2.0755416141732281
21
-0.1768342913385827
0
LINE
8
BLACK
6
CONTINUOUS
10
2.0755416141732281
20
-0.1768342913385827
11
2.0795469291338584
21
-0.174521811023622
0
LINE
8
BLACK
6
CONTINUOUS
10
2.0795469291338584
20
-0.174521811023622
11
2.0840142913385828
21
-0.1733248031496063
0
LINE
8
BLACK
6
CONTINUOUS
10
2.0840142913385828
20
-0.1733248031496063
11
2.088639251968504
21
-0.1733248031496063
0
LINE
8
BLACK
6
CONTINUOUS
10
2.088639251968504
20
-0.1733248031496063
11
2.0931066141732284
21
-0.174521811023622
0
LINE
8
BLACK
6
CONTINUOUS
10
2.3374784645669289
20
-0.1423572047244094
11
2.339873346456693
21
-0.1439573622047244
0
LINE
8
BLACK
6
CONTINUOUS
10
2.339873346456693
20
-0.1439573622047244
11
2.3414735039370078
21
-0.1463522440944882
0
LINE
8
BLACK
6
CONTINUOUS
10
2.3414735039370078
20
-0.1463522440944882
11
2.3420354330708659
21
-0.1491771653543307
0
LINE
8
BLACK
6
CONTINUOUS
10
2.3420354330708659
20
-0.1491771653543307
11
2.3420354330708659
21
-0.2052795275590551
0
LINE
8
BLACK
6
CONTINUOUS
10
2.3420354330708659
20
-0.2052795275590551
11
2.3414735039370078
21
-0.2081044488188976
0
LINE
8
BLACK
6
CONTINUOUS
10
2.3414735039370078
20
-0.2081044488188976
11
2.339873346456693
21
-0.2104993307086614
0
LINE
8
BLACK
6
CONTINUOUS
10
2.339873346456693
20
-0.2104993307086614
11
2.3374784645669289
21
-0.2120994881889764
0
LINE
8
BLACK
6
CONTINUOUS
10
2.3374784645669289
20
-0.2120994881889764
11
2.3346535433070867
21
-0.2126614173228346
0
LINE
8
BLACK
6
CONTINUOUS
10
2.3346535433070867
20
-0.2126614173228346
11
2.3198897637795275
21
-0.2126614173228346
0
LINE
8
BLACK
6
CONTINUOUS
10
2.3198897637795275
20
-0.2126614173228346
11
2.3170648425196849
21
-0.2120994881889764
0
LINE
8
BLACK
6
CONTINUOUS
10
2.3170648425196849
20
-0.2120994881889764
11
2.3146699606299213
21
-0.2104993307086614
0
LINE
8
BLACK
6
CONTINUOUS
10
2.3146699606299213
20
-0.2104993307086614
11
2.3130698031496064
21
-0.2081044488188976
0
LINE
8
BLACK
6
CONTINUOUS
10
2.3130698031496064
20
-0.2081044488188976
11
2.3125078740157479
21
-0.2052795275590551
0
LINE
8
BLACK
6
CONTINUOUS
10
2.3125078740157479
20
-0.2052795275590551
11
2.3125078740157479
21
-0.1491771653543307
0
LINE
8
BLACK
6
CONTINUOUS
10
2.3125078740157479
20
-0.1491771653543307
11
2.3130698031496064
21
-0.1463522440944882
0
LINE
8
BLACK
6
CONTINUOUS
10
2.3130698031496064
20
-0.1463522440944882
11
2.3146699606299213
21
-0.1439573622047244
0
LINE
8
BLACK
6
CONTINUOUS
10
2.3146699606299213
20
-0.1439573622047244
11
2.3170648425196849
21
-0.1423572047244094
0
LINE
8
BLACK
6
CONTINUOUS
10
2.3170648425196849
20
-0.1423572047244094
11
2.3198897637795275
21
-0.1417952755905512
0
LINE
8
BLACK
6
CONTINUOUS
10
2.3198897637795275
20
-0.1417952755905512
11
2.3346535433070867
21
-0.1417952755905512
0
LINE
8
BLACK
6
CONTINUOUS
10
2.3346535433070867
20
-0.1417952755905512
11
2.3374784645669289
21
-0.1423572047244094
0
LINE
8
BLACK
6
CONTINUOUS
10
2.3836654724409447
20
-0.1422448031496063
11
2.3855813385826772
21
-0.1435249606299213
0
LINE
8
BLACK
6
CONTINUOUS
10
2.3855813385826772
20
-0.1435249606299213
11
2.3868614960629921
21
-0.1454408267716535
0
LINE
8
BLACK
6
CONTINUOUS
10
2.3868614960629921
20
-0.1454408267716535
11
2.3873110236220474
21
-0.1477007874015748
0
LINE
8
BLACK
6
CONTINUOUS
10
2.3873110236220474
20
-0.1477007874015748
11
2.3873110236220474
21
-0.206755905511811
0
LINE
8
BLACK
6
CONTINUOUS
10
2.3873110236220474
20
-0.206755905511811
11
2.3868614960629921
21
-0.2090158661417323
0
LINE
8
BLACK
6
CONTINUOUS
10
2.3868614960629921
20
-0.2090158661417323
11
2.3855813385826772
21
-0.2109317322834646
0
LINE
8
BLACK
6
CONTINUOUS
10
2.3855813385826772
20
-0.2109317322834646
11
2.3836654724409447
21
-0.2122118897637795
0
LINE
8
BLACK
6
CONTINUOUS
10
2.3836654724409447
20
-0.2122118897637795
11
2.3814055118110238
21
-0.2126614173228346
0
LINE
8
BLACK
6
CONTINUOUS
10
2.3814055118110238
20
-0.2126614173228346
11
2.3695944881889761
21
-0.2126614173228346
0
LINE
8
BLACK
6
CONTINUOUS
10
2.3695944881889761
20
-0.2126614173228346
11
2.3673345275590552
21
-0.2122118897637795
0
LINE
8
BLACK
6
CONTINUOUS
10
2.3673345275590552
20
-0.2122118897637795
11
2.3654186614173227
21
-0.2109317322834646
0
LINE
8
BLACK
6
CONTINUOUS
10
2.3654186614173227
20
-0.2109317322834646
11
2.3641385039370078
21
-0.2090158661417323
0
LINE
8
BLACK
6
CONTINUOUS
10
2.3641385039370078
20
-0.2090158661417323
11
2.3636889763779525
21
-0.206755905511811
0
LINE
8
BLACK
6
CONTINUOUS
10
2.3636889763779525
20
-0.206755905511811
11
2.3636889763779525
21
-0.1477007874015748
0
LINE
8
BLACK
6
CONTINUOUS
10
2.3636889763779525
20
-0.1477007874015748
11
2.3641385039370078
21
-0.1454408267716535
0
LINE
8
BLACK
6
CONTINUOUS
10
2.3641385039370078
20
-0.1454408267716535
11
2.3654186614173227
21
-0.1435249606299213
0
LINE
8
BLACK
6
CONTINUOUS
10
2.3654186614173227
20
-0.1435249606299213
11
2.3673345275590552
21
-0.1422448031496063
0
LINE
8
BLACK
6
CONTINUOUS
10
2.3673345275590552
20
-0.1422448031496063
11
2.3695944881889761
21
-0.1417952755905512
0
LINE
8
BLACK
6
CONTINUOUS
10
2.3695944881889761
20
-0.1417952755905512
11
2.3814055118110238
21
-0.1417952755905512
0
LINE
8
BLACK
6
CONTINUOUS
10
2.3814055118110238
20
-0.1417952755905512
11
2.3836654724409447
21
-0.1422448031496063
0
LINE
8
BLACK
6
CONTINUOUS
10
2.433935157480315
20
-0.1423572047244094
11
2.4363300393700786
21
-0.1439573622047244
0
LINE
8
BLACK
6
CONTINUOUS
10
2.4363300393700786
20
-0.1439573622047244
11
2.4379301968503935
21
-0.1463522440944882
0
LINE
8
BLACK
6
CONTINUOUS
10
2.4379301968503935
20
-0.1463522440944882
11
2.438492125984252
21
-0.1491771653543307
0
LINE
8
BLACK
6
CONTINUOUS
10
2.438492125984252
20
-0.1491771653543307
11
2.438492125984252
21
-0.2052795275590551
0
LINE
8
BLACK
6
CONTINUOUS
10
2.438492125984252
20
-0.2052795275590551
11
2.4379301968503935
21
-0.2081044488188976
0
LINE
8
BLACK
6
CONTINUOUS
10
2.4379301968503935
20
-0.2081044488188976
11
2.4363300393700786
21
-0.2104993307086614
0
LINE
8
BLACK
6
CONTINUOUS
10
2.4363300393700786
20
-0.2104993307086614
11
2.433935157480315
21
-0.2120994881889764
0
LINE
8
BLACK
6
CONTINUOUS
10
2.433935157480315
20
-0.2120994881889764
11
2.4311102362204724
21
-0.2126614173228346
0
LINE
8
BLACK
6
CONTINUOUS
10
2.4311102362204724
20
-0.2126614173228346
11
2.4163464566929131
21
-0.2126614173228346
0
LINE
8
BLACK
6
CONTINUOUS
10
2.4163464566929131
20
-0.2126614173228346
11
2.413521535433071
21
-0.2120994881889764
0
LINE
8
BLACK
6
CONTINUOUS
10
2.413521535433071
20
-0.2120994881889764
11
2.4111266535433069
21
-0.2104993307086614
0
LINE
8
BLACK
6
CONTINUOUS
10
2.4111266535433069
20
-0.2104993307086614
11
2.4095264960629921
21
-0.2081044488188976
0
LINE
8
BLACK
6
CONTINUOUS
10
2.4095264960629921
20
-0.2081044488188976
11
2.408964566929134
21
-0.2052795275590551
0
LINE
8
BLACK
6
CONTINUOUS
10
2.408964566929134
20
-0.2052795275590551
11
2.408964566929134
21
-0.1491771653543307
0
LINE
8
BLACK
6
CONTINUOUS
10
2.408964566929134
20
-0.1491771653543307
11
2.4095264960629921
21
-0.1463522440944882
0
LINE
8
BLACK
6
CONTINUOUS
10
2.4095264960629921
20
-0.1463522440944882
11
2.4111266535433069
21
-0.1439573622047244
0
LINE
8
BLACK
6
CONTINUOUS
10
2.4111266535433069
20
-0.1439573622047244
11
2.413521535433071
21
-0.1423572047244094
0
LINE
8
BLACK
6
CONTINUOUS
10
2.413521535433071
20
-0.1423572047244094
11
2.4163464566929131
21
-0.1417952755905512
0
LINE
8
BLACK
6
CONTINUOUS
10
2.4163464566929131
20
-0.1417952755905512
11
2.4311102362204724
21
-0.1417952755905512
0
LINE
8
BLACK
6
CONTINUOUS
10
2.4311102362204724
20
-0.1417952755905512
11
2.433935157480315
21
-0.1423572047244094
0
LINE
8
BLACK
6
CONTINUOUS
10
1.5897293307086613
20
-0.1057602362204724
11
1.5986782283464567
21
-0.1081580708661417
0
LINE
8
BLACK
6
CONTINUOUS
10
1.5986782283464567
20
-0.1081580708661417
11
1.6070748031496063
21
-0.1120734645669291
0
LINE
8
BLACK
6
CONTINUOUS
10
1.6070748031496063
20
-0.1120734645669291
11
1.6146638976377952
21
-0.1173874015748032
0
LINE
8
BLACK
6
CONTINUOUS
10
1.6146638976377952
20
-0.1173874015748032
11
1.6212149606299213
21
-0.1239384645669291
0
LINE
8
BLACK
6
CONTINUOUS
10
1.6212149606299213
20
-0.1239384645669291
11
1.6265288976377952
21
-0.1315275590551181
0
LINE
8
BLACK
6
CONTINUOUS
10
1.6265288976377952
20
-0.1315275590551181
11
1.6304442913385826
21
-0.1399241338582677
0
LINE
8
BLACK
6
CONTINUOUS
10
1.6304442913385826
20
-0.1399241338582677
11
1.6328421259842518
21
-0.148873031496063
0
LINE
8
BLACK
6
CONTINUOUS
10
1.6328421259842518
20
-0.148873031496063
11
1.6336496062992125
21
-0.1581023622047244
0
LINE
8
BLACK
6
CONTINUOUS
10
1.6336496062992125
20
-0.1581023622047244
11
1.6328421259842518
21
-0.1673316929133858
0
LINE
8
BLACK
6
CONTINUOUS
10
1.6328421259842518
20
-0.1673316929133858
11
1.6304442913385826
21
-0.1762805905511811
0
LINE
8
BLACK
6
CONTINUOUS
10
1.6304442913385826
20
-0.1762805905511811
11
1.6265288976377952
21
-0.1846771653543307
0
LINE
8
BLACK
6
CONTINUOUS
10
1.6265288976377952
20
-0.1846771653543307
11
1.6212149606299213
21
-0.1922662598425197
0
LINE
8
BLACK
6
CONTINUOUS
10
1.6212149606299213
20
-0.1922662598425197
11
1.6146638976377952
21
-0.1988173228346457
0
LINE
8
BLACK
6
CONTINUOUS
10
1.6146638976377952
20
-0.1988173228346457
11
1.6070748031496063
21
-0.2041312598425197
0
LINE
8
BLACK
6
CONTINUOUS
10
1.6070748031496063
20
-0.2041312598425197
11
1.5986782283464567
21
-0.2080466535433071
0
LINE
8
BLACK
6
CONTINUOUS
10
1.5986782283464567
20
-0.2080466535433071
11
1.5897293307086613
21
-0.2104444881889764
0
LINE
8
BLACK
6
CONTINUOUS
10
1.5897293307086613
20
-0.2104444881889764
11
1.5805
21
-0.211251968503937
0
LINE
8
BLACK
6
CONTINUOUS
10
1.5805
20
-0.211251968503937
11
1.5712706692913385
21
-0.2104444881889764
0
LINE
8
BLACK
6
CONTINUOUS
10
1.5712706692913385
20
-0.2104444881889764
11
1.5623217716535434
21
-0.2080466535433071
0
LINE
8
BLACK
6
CONTINUOUS
10
1.5623217716535434
20
-0.2080466535433071
11
1.5539251968503938
21
-0.2041312598425197
0
LINE
8
BLACK
6
CONTINUOUS
10
1.5539251968503938
20
-0.2041312598425197
11
1.5463361023622046
21
-0.1988173228346457
0
LINE
8
BLACK
6
CONTINUOUS
10
1.5463361023622046
20
-0.1988173228346457
11
1.5397850393700787
21
-0.1922662598425197
0
LINE
8
BLACK
6
CONTINUOUS
10
1.5397850393700787
20
-0.1922662598425197
11
1.5344711023622046
21
-0.1846771653543307
0
LINE
8
BLACK
6
CONTINUOUS
10
1.5344711023622046
20
-0.1846771653543307
11
1.5305557086614172
21
-0.1762805905511811
0
LINE
8
BLACK
6
CONTINUOUS
10
1.5305557086614172
20
-0.1762805905511811
11
1.528157874015748
21
-0.1673316929133858
0
LINE
8
BLACK
6
CONTINUOUS
10
1.528157874015748
20
-0.1673316929133858
11
1.5273503937007873
21
-0.1581023622047244
0
LINE
8
BLACK
6
CONTINUOUS
10
1.5273503937007873
20
-0.1581023622047244
11
1.528157874015748
21
-0.148873031496063
0
LINE
8
BLACK
6
CONTINUOUS
10
1.528157874015748
20
-0.148873031496063
11
1.5305557086614172
21
-0.1399241338582677
0
LINE
8
BLACK
6
CONTINUOUS
10
1.5305557086614172
20
-0.1399241338582677
11
1.5344711023622046
21
-0.1315275590551181
0
LINE
8
BLACK
6
CONTINUOUS
10
1.5344711023622046
20
-0.1315275590551181
11
1.5397850393700787
21
-0.1239384645669291
0
LINE
8
BLACK
6
CONTINUOUS
10
1.5397850393700787
20
-0.1239384645669291
11
1.5463361023622046
21
-0.1173874015748032
0
LINE
8
BLACK
6
CONTINUOUS
10
1.5463361023622046
20
-0.1173874015748032
11
1.5539251968503938
21
-0.1120734645669291
0
LINE
8
BLACK
6
CONTINUOUS
10
1.5539251968503938
20
-0.1120734645669291
11
1.5623217716535434
21
-0.1081580708661417
0
LINE
8
BLACK
6
CONTINUOUS
10
1.5623217716535434
20
-0.1081580708661417
11
1.5712706692913385
21
-0.1057602362204724
0
LINE
8
BLACK
6
CONTINUOUS
10
1.5712706692913385
20
-0.1057602362204724
11
1.5805
21
-0.1049527559055118
0
LINE
8
BLACK
6
CONTINUOUS
10
1.5805
20
-0.1049527559055118
11
1.5897293307086613
21
-0.1057602362204724
0
LINE
8
BLACK
6
CONTINUOUS
10
1.9646438188976378
20
-0.1284595669291339
11
1.9670387007874015
21
-0.1300597244094488
0
LINE
8
BLACK
6
CONTINUOUS
10
1.9670387007874015
20
-0.1300597244094488
11
1.9686388582677166
21
-0.1324546062992126
0
LINE
8
BLACK
6
CONTINUOUS
10
1.9686388582677166
20
-0.1324546062992126
11
1.9692007874015747
21
-0.1352795275590551
0
LINE
8
BLACK
6
CONTINUOUS
10
1.9692007874015747
20
-0.1352795275590551
11
1.9692007874015747
21
-0.1913818897637795
0
LINE
8
BLACK
6
CONTINUOUS
10
1.9692007874015747
20
-0.1913818897637795
11
1.9686388582677166
21
-0.1942068110236221
0
LINE
8
BLACK
6
CONTINUOUS
10
1.9686388582677166
20
-0.1942068110236221
11
1.9670387007874015
21
-0.1966016929133858
0
LINE
8
BLACK
6
CONTINUOUS
10
1.9670387007874015
20
-0.1966016929133858
11
1.9646438188976378
21
-0.1982018503937008
0
LINE
8
BLACK
6
CONTINUOUS
10
1.9646438188976378
20
-0.1982018503937008
11
1.9618188976377953
21
-0.1987637795275591
0
LINE
8
BLACK
6
CONTINUOUS
10
1.9618188976377953
20
-0.1987637795275591
11
1.9470551181102362
21
-0.1987637795275591
0
LINE
8
BLACK
6
CONTINUOUS
10
1.9470551181102362
20
-0.1987637795275591
11
1.9442301968503937
21
-0.1982018503937008
0
LINE
8
BLACK
6
CONTINUOUS
10
1.9442301968503937
20
-0.1982018503937008
11
1.9418353149606298
21
-0.1966016929133858
0
LINE
8
BLACK
6
CONTINUOUS
10
1.9418353149606298
20
-0.1966016929133858
11
1.9402351574803149
21
-0.1942068110236221
0
LINE
8
BLACK
6
CONTINUOUS
10
1.9402351574803149
20
-0.1942068110236221
11
1.9396732283464566
21
-0.1913818897637795
0
LINE
8
BLACK
6
CONTINUOUS
10
1.9396732283464566
20
-0.1913818897637795
11
1.9396732283464566
21
-0.1352795275590551
0
LINE
8
BLACK
6
CONTINUOUS
10
1.9396732283464566
20
-0.1352795275590551
11
1.9402351574803149
21
-0.1324546062992126
0
LINE
8
BLACK
6
CONTINUOUS
10
1.9402351574803149
20
-0.1324546062992126
11
1.9418353149606298
21
-0.1300597244094488
0
LINE
8
BLACK
6
CONTINUOUS
10
1.9418353149606298
20
-0.1300597244094488
11
1.9442301968503937
21
-0.1284595669291339
0
LINE
8
BLACK
6
CONTINUOUS
10
1.9442301968503937
20
-0.1284595669291339
11
1.9470551181102362
21
-0.1278976377952756
0
LINE
8
BLACK
6
CONTINUOUS
10
1.9470551181102362
20
-0.1278976377952756
11
1.9618188976377953
21
-0.1278976377952756
0
LINE
8
BLACK
6
CONTINUOUS
10
1.9618188976377953
20
-0.1278976377952756
11
1.9646438188976378
21
-0.1284595669291339
0
LINE
8
BLACK
6
CONTINUOUS
10
2.0108308267716537
20
-0.1283471653543307
11
2.0127466929133857
21
-0.1296273228346457
0
LINE
8
BLACK
6
CONTINUOUS
10
2.0127466929133857
20
-0.1296273228346457
11
2.0140268503937007
21
-0.131543188976378
0
LINE
8
BLACK
6
CONTINUOUS
10
2.0140268503937007
20
-0.131543188976378
11
2.0144763779527559
21
-0.1338031496062992
0
LINE
8
BLACK
6
CONTINUOUS
10
2.0144763779527559
20
-0.1338031496062992
11
2.0144763779527559
21
-0.1928582677165354
0
LINE
8
BLACK
6
CONTINUOUS
10
2.0144763779527559
20
-0.1928582677165354
11
2.0140268503937007
21
-0.1951182283464567
0
LINE
8
BLACK
6
CONTINUOUS
10
2.0140268503937007
20
-0.1951182283464567
11
2.0127466929133857
21
-0.197034094488189
0
LINE
8
BLACK
6
CONTINUOUS
10
2.0127466929133857
20
-0.197034094488189
11
2.0108308267716537
21
-0.1983142519685039
0
LINE
8
BLACK
6
CONTINUOUS
10
2.0108308267716537
20
-0.1983142519685039
11
2.0085708661417323
21
-0.1987637795275591
0
LINE
8
BLACK
6
CONTINUOUS
10
2.0085708661417323
20
-0.1987637795275591
11
1.9967598425196851
21
-0.1987637795275591
0
LINE
8
BLACK
6
CONTINUOUS
10
1.9967598425196851
20
-0.1987637795275591
11
1.9944998818897637
21
-0.1983142519685039
0
LINE
8
BLACK
6
CONTINUOUS
10
1.9944998818897637
20
-0.1983142519685039
11
1.9925840157480315
21
-0.197034094488189
0
LINE
8
BLACK
6
CONTINUOUS
10
1.9925840157480315
20
-0.197034094488189
11
1.9913038582677165
21
-0.1951182283464567
0
LINE
8
BLACK
6
CONTINUOUS
10
1.9913038582677165
20
-0.1951182283464567
11
1.9908543307086615
21
-0.1928582677165354
0
LINE
8
BLACK
6
CONTINUOUS
10
1.9908543307086615
20
-0.1928582677165354
11
1.9908543307086615
21
-0.1338031496062992
0
LINE
8
BLACK
6
CONTINUOUS
10
1.9908543307086615
20
-0.1338031496062992
11
1.9913038582677165
21
-0.131543188976378
0
LINE
8
BLACK
6
CONTINUOUS
10
1.9913038582677165
20
-0.131543188976378
11
1.9925840157480315
21
-0.1296273228346457
0
LINE
8
BLACK
6
CONTINUOUS
10
1.9925840157480315
20
-0.1296273228346457
11
1.9944998818897637
21
-0.1283471653543307
0
LINE
8
BLACK
6
CONTINUOUS
10
1.9944998818897637
20
-0.1283471653543307
11
1.9967598425196851
21
-0.1278976377952756
0
LINE
8
BLACK
6
CONTINUOUS
10
1.9967598425196851
20
-0.1278976377952756
11
2.0085708661417323
21
-0.1278976377952756
0
LINE
8
BLACK
6
CONTINUOUS
10
2.0085708661417323
20
-0.1278976377952756
11
2.0108308267716537
21
-0.1283471653543307
0
LINE
8
BLACK
6
CONTINUOUS
10
2.0611005118110235
20
-0.1284595669291339
11
2.0634953937007872
21
-0.1300597244094488
0
LINE
8
BLACK
6
CONTINUOUS
10
2.0634953937007872
20
-0.1300597244094488
11
2.0650955511811024
21
-0.1324546062992126
0
LINE
8
BLACK
6
CONTINUOUS
10
2.0650955511811024
20
-0.1324546062992126
11
2.0656574803149605
21
-0.1352795275590551
0
LINE
8
BLACK
6
CONTINUOUS
10
2.0656574803149605
20
-0.1352795275590551
11
2.0656574803149605
21
-0.1913818897637795
0
LINE
8
BLACK
6
CONTINUOUS
10
2.0656574803149605
20
-0.1913818897637795
11
2.0650955511811024
21
-0.1942068110236221
0
LINE
8
BLACK
6
CONTINUOUS
10
2.0650955511811024
20
-0.1942068110236221
11
2.0634953937007872
21
-0.1966016929133858
0
LINE
8
BLACK
6
CONTINUOUS
10
2.0634953937007872
20
-0.1966016929133858
11
2.0611005118110235
21
-0.1982018503937008
0
LINE
8
BLACK
6
CONTINUOUS
10
2.0611005118110235
20
-0.1982018503937008
11
2.0582755905511809
21
-0.1987637795275591
0
LINE
8
BLACK
6
CONTINUOUS
10
2.0582755905511809
20
-0.1987637795275591
11
2.0435118110236221
21
-0.1987637795275591
0
LINE
8
BLACK
6
CONTINUOUS
10
2.0435118110236221
20
-0.1987637795275591
11
2.0406868897637795
21
-0.1982018503937008
0
LINE
8
BLACK
6
CONTINUOUS
10
2.0406868897637795
20
-0.1982018503937008
11
2.0382920078740159
21
-0.1966016929133858
0
LINE
8
BLACK
6
CONTINUOUS
10
2.0382920078740159
20
-0.1966016929133858
11
2.0366918503937006
21
-0.1942068110236221
0
LINE
8
BLACK
6
CONTINUOUS
10
2.0366918503937006
20
-0.1942068110236221
11
2.0361299212598425
21
-0.1913818897637795
0
LINE
8
BLACK
6
CONTINUOUS
10
2.0361299212598425
20
-0.1913818897637795
11
2.0361299212598425
21
-0.1352795275590551
0
LINE
8
BLACK
6
CONTINUOUS
10
2.0361299212598425
20
-0.1352795275590551
11
2.0366918503937006
21
-0.1324546062992126
0
LINE
8
BLACK
6
CONTINUOUS
10
2.0366918503937006
20
-0.1324546062992126
11
2.0382920078740159
21
-0.1300597244094488
0
LINE
8
BLACK
6
CONTINUOUS
10
2.0382920078740159
20
-0.1300597244094488
11
2.0406868897637795
21
-0.1284595669291339
0
LINE
8
BLACK
6
CONTINUOUS
10
2.0406868897637795
20
-0.1284595669291339
11
2.0435118110236221
21
-0.1278976377952756
0
LINE
8
BLACK
6
CONTINUOUS
10
2.0435118110236221
20
-0.1278976377952756
11
2.0582755905511809
21
-0.1278976377952756
0
LINE
8
BLACK
6
CONTINUOUS
10
2.0582755905511809
20
-0.1278976377952756
11
2.0611005118110235
21
-0.1284595669291339
0
LINE
8
BLACK
6
CONTINUOUS
10
0.8606496062992126
20
0.2526771653543307
11
0.7106496062992126
21
0.2526771653543307
0
LINE
8
BLACK
6
CONTINUOUS
10
0.7106496062992126
20
0.2526771653543307
11
0.7106496062992126
21
0.4026771653543307
0
LINE
8
BLACK
6
CONTINUOUS
10
0.7106496062992126
20
0.4026771653543307
11
0.8606496062992126
21
0.4026771653543307
0
LINE
8
BLACK
6
CONTINUOUS
10
0.8606496062992126
20
0.4026771653543307
11
0.8606496062992126
21
0.2526771653543307
0
LINE
8
BLACK
6
CONTINUOUS
10
1.0574999999999999
20
0.2526771653543307
11
0.9075
21
0.2526771653543307
0
LINE
8
BLACK
6
CONTINUOUS
10
0.9075
20
0.2526771653543307
11
0.9075
21
0.4026771653543307
0
LINE
8
BLACK
6
CONTINUOUS
10
0.9075
20
0.4026771653543307
11
1.0574999999999999
21
0.4026771653543307
0
LINE
8
BLACK
6
CONTINUOUS
10
1.0574999999999999
20
0.4026771653543307
11
1.0574999999999999
21
0.2526771653543307
0
LINE
8
BLACK
6
CONTINUOUS
10
0.4205096456692913
20
0.5163158661417323
11
0.4338744094488189
21
0.5131483858267717
0
LINE
8
BLACK
6
CONTINUOUS
10
0.4338744094488189
20
0.5131483858267717
11
0.446781062992126
21
0.5084507086614173
0
LINE
8
BLACK
6
CONTINUOUS
10
0.446781062992126
20
0.5084507086614173
11
0.4590551181102362
21
0.5022864566929134
0
LINE
8
BLACK
6
CONTINUOUS
10
0.4590551181102362
20
0.5022864566929134
11
0.4705305511811024
21
0.4947389763779527
0
LINE
8
BLACK
6
CONTINUOUS
10
0.4705305511811024
20
0.4947389763779527
11
0.4810521653543307
21
0.4859102755905512
0
LINE
8
BLACK
6
CONTINUOUS
10
0.4810521653543307
20
0.4859102755905512
11
0.4904776771653543
21
0.4759198031496063
0
LINE
8
BLACK
6
CONTINUOUS
10
0.4904776771653543
20
0.4759198031496063
11
0.4986796456692913
21
0.4649026377952756
0
LINE
8
BLACK
6
CONTINUOUS
10
0.4986796456692913
20
0.4649026377952756
11
0.5055471653543308
21
0.4530077952755905
0
LINE
8
BLACK
6
CONTINUOUS
10
0.5055471653543308
20
0.4530077952755905
11
0.5109873228346457
21
0.440396062992126
0
LINE
8
BLACK
6
CONTINUOUS
10
0.5109873228346457
20
0.440396062992126
11
0.5149265748031496
21
0.4272381102362204
0
LINE
8
BLACK
6
CONTINUOUS
10
0.5149265748031496
20
0.4272381102362204
11
0.5173116141732284
21
0.4137117716535433
0
LINE
8
BLACK
6
CONTINUOUS
10
0.5173116141732284
20
0.4137117716535433
11
0.5181102362204725
21
0.4
0
LINE
8
BLACK
6
CONTINUOUS
10
0.5181102362204725
20
0.4
11
0.5173116141732284
21
0.3862882283464567
0
LINE
8
BLACK
6
CONTINUOUS
10
0.5173116141732284
20
0.3862882283464567
11
0.5149265748031496
21
0.3727618897637795
0
LINE
8
BLACK
6
CONTINUOUS
10
0.5149265748031496
20
0.3727618897637795
11
0.5109873228346457
21
0.359603937007874
0
LINE
8
BLACK
6
CONTINUOUS
10
0.5109873228346457
20
0.359603937007874
11
0.5055471653543308
21
0.3469922047244094
0
LINE
8
BLACK
6
CONTINUOUS
10
0.5055471653543308
20
0.3469922047244094
11
0.4986796456692913
21
0.3350973622047244
0
LINE
8
BLACK
6
CONTINUOUS
10
0.4986796456692913
20
0.3350973622047244
11
0.4904776771653543
21
0.3240801968503937
0
LINE
8
BLACK
6
CONTINUOUS
10
0.4904776771653543
20
0.3240801968503937
11
0.4810521653543307
21
0.3140897244094488
0
LINE
8
BLACK
6
CONTINUOUS
10
0.4810521653543307
20
0.3140897244094488
11
0.4705305511811024
21
0.3052610236220472
0
LINE
8
BLACK
6
CONTINUOUS
10
0.4705305511811024
20
0.3052610236220472
11
0.4590551181102362
21
0.2977135433070866
0
LINE
8
BLACK
6
CONTINUOUS
10
0.4590551181102362
20
0.2977135433070866
11
0.446781062992126
21
0.2915492913385827
0
LINE
8
BLACK
6
CONTINUOUS
10
0.446781062992126
20
0.2915492913385827
11
0.4338744094488189
21
0.2868516141732284
0
LINE
8
BLACK
6
CONTINUOUS
10
0.4338744094488189
20
0.2868516141732284
11
0.4205096456692913
21
0.2836841338582677
0
LINE
8
BLACK
6
CONTINUOUS
10
0.4205096456692913
20
0.2836841338582677
11
0.4068674803149606
21
0.2820896062992126
0
LINE
8
BLACK
6
CONTINUOUS
10
0.4068674803149606
20
0.2820896062992126
11
0.3931325196850394
21
0.2820896062992126
0
LINE
8
BLACK
6
CONTINUOUS
10
0.3931325196850394
20
0.2820896062992126
11
0.3794903543307087
21
0.2836841338582677
0
LINE
8
BLACK
6
CONTINUOUS
10
0.3794903543307087
20
0.2836841338582677
11
0.3661255905511811
21
0.2868516141732284
0
LINE
8
BLACK
6
CONTINUOUS
10
0.3661255905511811
20
0.2868516141732284
11
0.353218937007874
21
0.2915492913385827
0
LINE
8
BLACK
6
CONTINUOUS
10
0.353218937007874
20
0.2915492913385827
11
0.3409448818897638
21
0.2977135433070866
0
LINE
8
BLACK
6
CONTINUOUS
10
0.3409448818897638
20
0.2977135433070866
11
0.3294694488188976
21
0.3052610236220472
0
LINE
8
BLACK
6
CONTINUOUS
10
0.3294694488188976
20
0.3052610236220472
11
0.3189478346456693
21
0.3140897244094488
0
LINE
8
BLACK
6
CONTINUOUS
10
0.3189478346456693
20
0.3140897244094488
11
0.3095223228346456
21
0.3240801968503937
0
LINE
8
BLACK
6
CONTINUOUS
10
0.3095223228346456
20
0.3240801968503937
11
0.3013203543307086
21
0.3350973622047244
0
LINE
8
BLACK
6
CONTINUOUS
10
0.3013203543307086
20
0.3350973622047244
11
0.2944528346456693
21
0.3469922047244094
0
LINE
8
BLACK
6
CONTINUOUS
10
0.2944528346456693
20
0.3469922047244094
11
0.2890126771653543
21
0.359603937007874
0
LINE
8
BLACK
6
CONTINUOUS
10
0.2890126771653543
20
0.359603937007874
11
0.2850734251968504
21
0.3727618897637795
0
LINE
8
BLACK
6
CONTINUOUS
10
0.2850734251968504
20
0.3727618897637795
11
0.2826883858267716
21
0.3862882283464567
0
LINE
8
BLACK
6
CONTINUOUS
10
0.2826883858267716
20
0.3862882283464567
11
0.2818897637795276
21
0.4
0
LINE
8
BLACK
6
CONTINUOUS
10
0.2818897637795276
20
0.4
11
0.2826883858267716
21
0.4137117716535433
0
LINE
8
BLACK
6
CONTINUOUS
10
0.2826883858267716
20
0.4137117716535433
11
0.2850734251968504
21
0.4272381102362204
0
LINE
8
BLACK
6
CONTINUOUS
10
0.2850734251968504
20
0.4272381102362204
11
0.2890126771653543
21
0.440396062992126
0
LINE
8
BLACK
6
CONTINUOUS
10
0.2890126771653543
20
0.440396062992126
11
0.2944528346456693
21
0.4530077952755905
0
LINE
8
BLACK
6
CONTINUOUS
10
0.2944528346456693
20
0.4530077952755905
11
0.3013203543307086
21
0.4649026377952756
0
LINE
8
BLACK
6
CONTINUOUS
10
0.3013203543307086
20
0.4649026377952756
11
0.3095223228346456
21
0.4759198031496063
0
LINE
8
BLACK
6
CONTINUOUS
10
0.3095223228346456
20
0.4759198031496063
11
0.3189478346456693
21
0.4859102755905512
0
LINE
8
BLACK
6
CONTINUOUS
10
0.3189478346456693
20
0.4859102755905512
11
0.3294694488188976
21
0.4947389763779527
0
LINE
8
BLACK
6
CONTINUOUS
10
0.3294694488188976
20
0.4947389763779527
11
0.3409448818897638
21
0.5022864566929134
0
LINE
8
BLACK
6
CONTINUOUS
10
0.3409448818897638
20
0.5022864566929134
11
0.353218937007874
21
0.5084507086614173
0
LINE
8
BLACK
6
CONTINUOUS
10
0.353218937007874
20
0.5084507086614173
11
0.3661255905511811
21
0.5131483858267717
0
LINE
8
BLACK
6
CONTINUOUS
10
0.3661255905511811
20
0.5131483858267717
11
0.3794903543307087
21
0.5163158661417323
0
LINE
8
BLACK
6
CONTINUOUS
10
0.3794903543307087
20
0.5163158661417323
11
0.3931325196850394
21
0.5179103937007874
0
LINE
8
BLACK
6
CONTINUOUS
10
0.3931325196850394
20
0.5179103937007874
11
0.4068674803149606
21
0.5179103937007874
0
LINE
8
BLACK
6
CONTINUOUS
10
0.4068674803149606
20
0.5179103937007874
11
0.4205096456692913
21
0.5163158661417323
0
LINE
8
BLACK
6
CONTINUOUS
10
3.2205096456692912
20
0.5163158661417323
11
3.233874409448819
21
0.5131483858267717
0
LINE
8
BLACK
6
CONTINUOUS
10
3.233874409448819
20
0.5131483858267717
11
3.2467810629921261
21
0.5084507086614173
0
LINE
8
BLACK
6
CONTINUOUS
10
3.2467810629921261
20
0.5084507086614173
11
3.2590551181102363
21
0.5022864566929134
0
LINE
8
BLACK
6
CONTINUOUS
10
3.2590551181102363
20
0.5022864566929134
11
3.2705305511811025
21
0.4947389763779527
0
LINE
8
BLACK
6
CONTINUOUS
10
3.2705305511811025
20
0.4947389763779527
11
3.2810521653543305
21
0.4859102755905512
0
LINE
8
BLACK
6
CONTINUOUS
10
3.2810521653543305
20
0.4859102755905512
11
3.2904776771653541
21
0.4759198031496063
0
LINE
8
BLACK
6
CONTINUOUS
10
3.2904776771653541
20
0.4759198031496063
11
3.2986796456692913
21
0.4649026377952756
0
LINE
8
BLACK
6
CONTINUOUS
10
3.2986796456692913
20
0.4649026377952756
11
3.3055471653543305
21
0.4530077952755905
0
LINE
8
BLACK
6
CONTINUOUS
10
3.3055471653543305
20
0.4530077952755905
11
3.3109873228346456
21
0.440396062992126
0
LINE
8
BLACK
6
CONTINUOUS
10
3.3109873228346456
20
0.440396062992126
11
3.3149265748031493
21
0.4272381102362204
0
LINE
8
BLACK
6
CONTINUOUS
10
3.3149265748031493
20
0.4272381102362204
11
3.3173116141732284
21
0.4137117716535433
0
LINE
8
BLACK
6
CONTINUOUS
10
3.3173116141732284
20
0.4137117716535433
11
3.3181102362204724
21
0.4
0
LINE
8
BLACK
6
CONTINUOUS
10
3.3181102362204724
20
0.4
11
3.3173116141732284
21
0.3862882283464567
0
LINE
8
BLACK
6
CONTINUOUS
10
3.3173116141732284
20
0.3862882283464567
11
3.3149265748031493
21
0.3727618897637795
0
LINE
8
BLACK
6
CONTINUOUS
10
3.3149265748031493
20
0.3727618897637795
11
3.3109873228346456
21
0.359603937007874
0
LINE
8
BLACK
6
CONTINUOUS
10
3.3109873228346456
20
0.359603937007874
11
3.3055471653543305
21
0.3469922047244094
0
LINE
8
BLACK
6
CONTINUOUS
10
3.3055471653543305
20
0.3469922047244094
11
3.2986796456692913
21
0.3350973622047244
0
LINE
8
BLACK
6
CONTINUOUS
10
3.2986796456692913
20
0.3350973622047244
11
3.2904776771653541
21
0.3240801968503937
0
LINE
8
BLACK
6
CONTINUOUS
10
3.2904776771653541
20
0.3240801968503937
11
3.2810521653543305
21
0.3140897244094488
0
LINE
8
BLACK
6
CONTINUOUS
10
3.2810521653543305
20
0.3140897244094488
11
3.2705305511811025
21
0.3052610236220472
0
LINE
8
BLACK
6
CONTINUOUS
10
3.2705305511811025
20
0.3052610236220472
11
3.2590551181102363
21
0.2977135433070866
0
LINE
8
BLACK
6
CONTINUOUS
10
3.2590551181102363
20
0.2977135433070866
11
3.2467810629921261
21
0.2915492913385827
0
LINE
8
BLACK
6
CONTINUOUS
10
3.2467810629921261
20
0.2915492913385827
11
3.233874409448819
21
0.2868516141732284
0
LINE
8
BLACK
6
CONTINUOUS
10
3.233874409448819
20
0.2868516141732284
11
3.2205096456692912
21
0.2836841338582677
0
LINE
8
BLACK
6
CONTINUOUS
10
3.2205096456692912
20
0.2836841338582677
11
3.2068674803149606
21
0.2820896062992126
0
LINE
8
BLACK
6
CONTINUOUS
10
3.2068674803149606
20
0.2820896062992126
11
3.1931325196850393
21
0.2820896062992126
0
LINE
8
BLACK
6
CONTINUOUS
10
3.1931325196850393
20
0.2820896062992126
11
3.1794903543307087
21
0.2836841338582677
0
LINE
8
BLACK
6
CONTINUOUS
10
3.1794903543307087
20
0.2836841338582677
11
3.1661255905511809
21
0.2868516141732284
0
LINE
8
BLACK
6
CONTINUOUS
10
3.1661255905511809
20
0.2868516141732284
11
3.1532189370078738
21
0.2915492913385827
0
LINE
8
BLACK
6
CONTINUOUS
10
3.1532189370078738
20
0.2915492913385827
11
3.1409448818897636
21
0.2977135433070866
0
LINE
8
BLACK
6
CONTINUOUS
10
3.1409448818897636
20
0.2977135433070866
11
3.1294694488188974
21
0.3052610236220472
0
LINE
8
BLACK
6
CONTINUOUS
10
3.1294694488188974
20
0.3052610236220472
11
3.1189478346456694
21
0.3140897244094488
0
LINE
8
BLACK
6
CONTINUOUS
10
3.1189478346456694
20
0.3140897244094488
11
3.1095223228346458
21
0.3240801968503937
0
LINE
8
BLACK
6
CONTINUOUS
10
3.1095223228346458
20
0.3240801968503937
11
3.1013203543307086
21
0.3350973622047244
0
LINE
8
BLACK
6
CONTINUOUS
10
3.1013203543307086
20
0.3350973622047244
11
3.094452834645669
21
0.3469922047244094
0
LINE
8
BLACK
6
CONTINUOUS
10
3.094452834645669
20
0.3469922047244094
11
3.0890126771653543
21
0.359603937007874
0
LINE
8
BLACK
6
CONTINUOUS
10
3.0890126771653543
20
0.359603937007874
11
3.0850734251968501
21
0.3727618897637795
0
LINE
8
BLACK
6
CONTINUOUS
10
3.0850734251968501
20
0.3727618897637795
11
3.0826883858267715
21
0.3862882283464567
0
LINE
8
BLACK
6
CONTINUOUS
10
3.0826883858267715
20
0.3862882283464567
11
3.0818897637795275
21
0.4
0
LINE
8
BLACK
6
CONTINUOUS
10
3.0818897637795275
20
0.4
11
3.0826883858267715
21
0.4137117716535433
0
LINE
8
BLACK
6
CONTINUOUS
10
3.0826883858267715
20
0.4137117716535433
11
3.0850734251968501
21
0.4272381102362204
0
LINE
8
BLACK
6
CONTINUOUS
10
3.0850734251968501
20
0.4272381102362204
11
3.0890126771653543
21
0.440396062992126
0
LINE
8
BLACK
6
CONTINUOUS
10
3.0890126771653543
20
0.440396062992126
11
3.094452834645669
21
0.4530077952755905
0
LINE
8
BLACK
6
CONTINUOUS
10
3.094452834645669
20
0.4530077952755905
11
3.1013203543307086
21
0.4649026377952756
0
LINE
8
BLACK
6
CONTINUOUS
10
3.1013203543307086
20
0.4649026377952756
11
3.1095223228346458
21
0.4759198031496063
0
LINE
8
BLACK
6
CONTINUOUS
10
3.1095223228346458
20
0.4759198031496063
11
3.1189478346456694
21
0.4859102755905512
0
LINE
8
BLACK
6
CONTINUOUS
10
3.1189478346456694
20
0.4859102755905512
11
3.1294694488188974
21
0.4947389763779527
0
LINE
8
BLACK
6
CONTINUOUS
10
3.1294694488188974
20
0.4947389763779527
11
3.1409448818897636
21
0.5022864566929134
0
LINE
8
BLACK
6
CONTINUOUS
10
3.1409448818897636
20
0.5022864566929134
11
3.1532189370078738
21
0.5084507086614173
0
LINE
8
BLACK
6
CONTINUOUS
10
3.1532189370078738
20
0.5084507086614173
11
3.1661255905511809
21
0.5131483858267717
0
LINE
8
BLACK
6
CONTINUOUS
10
3.1661255905511809
20
0.5131483858267717
11
3.1794903543307087
21
0.5163158661417323
0
LINE
8
BLACK
6
CONTINUOUS
10
3.1794903543307087
20
0.5163158661417323
11
3.1931325196850393
21
0.5179103937007874
0
LINE
8
BLACK
6
CONTINUOUS
10
3.1931325196850393
20
0.5179103937007874
11
3.2068674803149606
21
0.5179103937007874
0
LINE
8
BLACK
6
CONTINUOUS
10
3.2068674803149606
20
0.5179103937007874
11
3.2205096456692912
21
0.5163158661417323
0
LINE
8
BLACK
6
CONTINUOUS
10
1.9342293307086613
20
0.407342125984252
11
1.9431782283464567
21
0.4049442913385827
0
LINE
8
BLACK
6
CONTINUOUS
10
1.9431782283464567
20
0.4049442913385827
11
1.9515748031496063
21
0.4010288976377953
0
LINE
8
BLACK
6
CONTINUOUS
10
1.9515748031496063
20
0.4010288976377953
11
1.9591638976377952
21
0.3957149606299212
0
LINE
8
BLACK
6
CONTINUOUS
10
1.9591638976377952
20
0.3957149606299212
11
1.9657149606299211
21
0.3891638976377952
0
LINE
8
BLACK
6
CONTINUOUS
10
1.9657149606299211
20
0.3891638976377952
11
1.9710288976377952
21
0.3815748031496063
0
LINE
8
BLACK
6
CONTINUOUS
10
1.9710288976377952
20
0.3815748031496063
11
1.9749442913385826
21
0.3731782283464567
0
LINE
8
BLACK
6
CONTINUOUS
10
1.9749442913385826
20
0.3731782283464567
11
1.9773421259842519
21
0.3642293307086614
0
LINE
8
BLACK
6
CONTINUOUS
10
1.9773421259842519
20
0.3642293307086614
11
1.9781496062992125
21
0.355
0
LINE
8
BLACK
6
CONTINUOUS
10
1.9781496062992125
20
0.355
11
1.9773421259842519
21
0.3457706692913386
0
LINE
8
BLACK
6
CONTINUOUS
10
1.9773421259842519
20
0.3457706692913386
11
1.9749442913385826
21
0.3368217716535433
0
LINE
8
BLACK
6
CONTINUOUS
10
1.9749442913385826
20
0.3368217716535433
11
1.9710288976377952
21
0.3284251968503937
0
LINE
8
BLACK
6
CONTINUOUS
10
1.9710288976377952
20
0.3284251968503937
11
1.9657149606299211
21
0.3208361023622047
0
LINE
8
BLACK
6
CONTINUOUS
10
1.9657149606299211
20
0.3208361023622047
11
1.9591638976377952
21
0.3142850393700787
0
LINE
8
BLACK
6
CONTINUOUS
10
1.9591638976377952
20
0.3142850393700787
11
1.9515748031496063
21
0.3089711023622047
0
LINE
8
BLACK
6
CONTINUOUS
10
1.9515748031496063
20
0.3089711023622047
11
1.9431782283464567
21
0.3050557086614173
0
LINE
8
BLACK
6
CONTINUOUS
10
1.9431782283464567
20
0.3050557086614173
11
1.9342293307086613
21
0.302657874015748
0
LINE
8
BLACK
6
CONTINUOUS
10
1.9342293307086613
20
0.302657874015748
11
1.925
21
0.3018503937007874
0
LINE
8
BLACK
6
CONTINUOUS
10
1.925
20
0.3018503937007874
11
1.9157706692913385
21
0.302657874015748
0
LINE
8
BLACK
6
CONTINUOUS
10
1.9157706692913385
20
0.302657874015748
11
1.9068217716535432
21
0.3050557086614173
0
LINE
8
BLACK
6
CONTINUOUS
10
1.9068217716535432
20
0.3050557086614173
11
1.8984251968503936
21
0.3089711023622047
0
LINE
8
BLACK
6
CONTINUOUS
10
1.8984251968503936
20
0.3089711023622047
11
1.8908361023622047
21
0.3142850393700787
0
LINE
8
BLACK
6
CONTINUOUS
10
1.8908361023622047
20
0.3142850393700787
11
1.8842850393700787
21
0.3208361023622047
0
LINE
8
BLACK
6
CONTINUOUS
10
1.8842850393700787
20
0.3208361023622047
11
1.8789711023622047
21
0.3284251968503937
0
LINE
8
BLACK
6
CONTINUOUS
10
1.8789711023622047
20
0.3284251968503937
11
1.8750557086614172
21
0.3368217716535433
0
LINE
8
BLACK
6
CONTINUOUS
10
1.8750557086614172
20
0.3368217716535433
11
1.872657874015748
21
0.3457706692913386
0
LINE
8
BLACK
6
CONTINUOUS
10
1.872657874015748
20
0.3457706692913386
11
1.8718503937007873
21
0.355
0
LINE
8
BLACK
6
CONTINUOUS
10
1.8718503937007873
20
0.355
11
1.872657874015748
21
0.3642293307086614
0
LINE
8
BLACK
6
CONTINUOUS
10
1.872657874015748
20
0.3642293307086614
11
1.8750557086614172
21
0.3731782283464567
0
LINE
8
BLACK
6
CONTINUOUS
10
1.8750557086614172
20
0.3731782283464567
11
1.8789711023622047
21
0.3815748031496063
0
LINE
8
BLACK
6
CONTINUOUS
10
1.8789711023622047
20
0.3815748031496063
11
1.8842850393700787
21
0.3891638976377952
0
LINE
8
BLACK
6
CONTINUOUS
10
1.8842850393700787
20
0.3891638976377952
11
1.8908361023622047
21
0.3957149606299212
0
LINE
8
BLACK
6
CONTINUOUS
10
1.8908361023622047
20
0.3957149606299212
11
1.8984251968503936
21
0.4010288976377953
0
LINE
8
BLACK
6
CONTINUOUS
10
1.8984251968503936
20
0.4010288976377953
11
1.9068217716535432
21
0.4049442913385827
0
LINE
8
BLACK
6
CONTINUOUS
10
1.9068217716535432
20
0.4049442913385827
11
1.9157706692913385
21
0.407342125984252
0
LINE
8
BLACK
6
CONTINUOUS
10
1.9157706692913385
20
0.407342125984252
11
1.925
21
0.4081496062992126
0
LINE
8
BLACK
6
CONTINUOUS
10
1.925
20
0.4081496062992126
11
1.9342293307086613
21
0.407342125984252
0
LINE
8
BLACK
6
CONTINUOUS
10
2.0542293307086612
20
0.407342125984252
11
2.0631782283464566
21
0.4049442913385827
0
LINE
8
BLACK
6
CONTINUOUS
10
2.0631782283464566
20
0.4049442913385827
11
2.0715748031496064
21
0.4010288976377953
0
LINE
8
BLACK
6
CONTINUOUS
10
2.0715748031496064
20
0.4010288976377953
11
2.0791638976377951
21
0.3957149606299212
0
LINE
8
BLACK
6
CONTINUOUS
10
2.0791638976377951
20
0.3957149606299212
11
2.0857149606299212
21
0.3891638976377952
0
LINE
8
BLACK
6
CONTINUOUS
10
2.0857149606299212
20
0.3891638976377952
11
2.0910288976377953
21
0.3815748031496063
0
LINE
8
BLACK
6
CONTINUOUS
10
2.0910288976377953
20
0.3815748031496063
11
2.0949442913385825
21
0.3731782283464567
0
LINE
8
BLACK
6
CONTINUOUS
10
2.0949442913385825
20
0.3731782283464567
11
2.0973421259842517
21
0.3642293307086614
0
LINE
8
BLACK
6
CONTINUOUS
10
2.0973421259842517
20
0.3642293307086614
11
2.0981496062992124
21
0.355
0
LINE
8
BLACK
6
CONTINUOUS
10
2.0981496062992124
20
0.355
11
2.0973421259842517
21
0.3457706692913386
0
LINE
8
BLACK
6
CONTINUOUS
10
2.0973421259842517
20
0.3457706692913386
11
2.0949442913385825
21
0.3368217716535433
0
LINE
8
BLACK
6
CONTINUOUS
10
2.0949442913385825
20
0.3368217716535433
11
2.0910288976377953
21
0.3284251968503937
0
LINE
8
BLACK
6
CONTINUOUS
10
2.0910288976377953
20
0.3284251968503937
11
2.0857149606299212
21
0.3208361023622047
0
LINE
8
BLACK
6
CONTINUOUS
10
2.0857149606299212
20
0.3208361023622047
11
2.0791638976377951
21
0.3142850393700787
0
LINE
8
BLACK
6
CONTINUOUS
10
2.0791638976377951
20
0.3142850393700787
11
2.0715748031496064
21
0.3089711023622047
0
LINE
8
BLACK
6
CONTINUOUS
10
2.0715748031496064
20
0.3089711023622047
11
2.0631782283464566
21
0.3050557086614173
0
LINE
8
BLACK
6
CONTINUOUS
10
2.0631782283464566
20
0.3050557086614173
11
2.0542293307086612
21
0.302657874015748
0
LINE
8
BLACK
6
CONTINUOUS
10
2.0542293307086612
20
0.302657874015748
11
2.0449999999999999
21
0.3018503937007874
0
LINE
8
BLACK
6
CONTINUOUS
10
2.0449999999999999
20
0.3018503937007874
11
2.0357706692913387
21
0.302657874015748
0
LINE
8
BLACK
6
CONTINUOUS
10
2.0357706692913387
20
0.302657874015748
11
2.0268217716535433
21
0.3050557086614173
0
LINE
8
BLACK
6
CONTINUOUS
10
2.0268217716535433
20
0.3050557086614173
11
2.0184251968503935
21
0.3089711023622047
0
LINE
8
BLACK
6
CONTINUOUS
10
2.0184251968503935
20
0.3089711023622047
11
2.0108361023622048
21
0.3142850393700787
0
LINE
8
BLACK
6
CONTINUOUS
10
2.0108361023622048
20
0.3142850393700787
11
2.0042850393700786
21
0.3208361023622047
0
LINE
8
BLACK
6
CONTINUOUS
10
2.0042850393700786
20
0.3208361023622047
11
1.9989711023622048
21
0.3284251968503937
0
LINE
8
BLACK
6
CONTINUOUS
10
1.9989711023622048
20
0.3284251968503937
11
1.9950557086614173
21
0.3368217716535433
0
LINE
8
BLACK
6
CONTINUOUS
10
1.9950557086614173
20
0.3368217716535433
11
1.9926578740157479
21
0.3457706692913386
0
LINE
8
BLACK
6
CONTINUOUS
10
1.9926578740157479
20
0.3457706692913386
11
1.9918503937007874
21
0.355
0
LINE
8
BLACK
6
CONTINUOUS
10
1.9918503937007874
20
0.355
11
1.9926578740157479
21
0.3642293307086614
0
LINE
8
BLACK
6
CONTINUOUS
10
1.9926578740157479
20
0.3642293307086614
11
1.9950557086614173
21
0.3731782283464567
0
LINE
8
BLACK
6
CONTINUOUS
10
1.9950557086614173
20
0.3731782283464567
11
1.9989711023622048
21
0.3815748031496063
0
LINE
8
BLACK
6
CONTINUOUS
10
1.9989711023622048
20
0.3815748031496063
11
2.0042850393700786
21
0.3891638976377952
0
LINE
8
BLACK
6
CONTINUOUS
10
2.0042850393700786
20
0.3891638976377952
11
2.0108361023622048
21
0.3957149606299212
0
LINE
8
BLACK
6
CONTINUOUS
10
2.0108361023622048
20
0.3957149606299212
11
2.0184251968503935
21
0.4010288976377953
0
LINE
8
BLACK
6
CONTINUOUS
10
2.0184251968503935
20
0.4010288976377953
11
2.0268217716535433
21
0.4049442913385827
0
LINE
8
BLACK
6
CONTINUOUS
10
2.0268217716535433
20
0.4049442913385827
11
2.0357706692913387
21
0.407342125984252
0
LINE
8
BLACK
6
CONTINUOUS
10
2.0357706692913387
20
0.407342125984252
11
2.0449999999999999
21
0.4081496062992126
0
LINE
8
BLACK
6
CONTINUOUS
10
2.0449999999999999
20
0.4081496062992126
11
2.0542293307086612
21
0.407342125984252
0
LINE
8
BLACK
6
CONTINUOUS
10
2.1792293307086612
20
0.407342125984252
11
2.1881782283464566
21
0.4049442913385827
0
LINE
8
BLACK
6
CONTINUOUS
10
2.1881782283464566
20
0.4049442913385827
11
2.1965748031496064
21
0.4010288976377953
0
LINE
8
BLACK
6
CONTINUOUS
10
2.1965748031496064
20
0.4010288976377953
11
2.2041638976377951
21
0.3957149606299212
0
LINE
8
BLACK
6
CONTINUOUS
10
2.2041638976377951
20
0.3957149606299212
11
2.2107149606299212
21
0.3891638976377952
0
LINE
8
BLACK
6
CONTINUOUS
10
2.2107149606299212
20
0.3891638976377952
11
2.2160288976377953
21
0.3815748031496063
0
LINE
8
BLACK
6
CONTINUOUS
10
2.2160288976377953
20
0.3815748031496063
11
2.2199442913385825
21
0.3731782283464567
0
LINE
8
BLACK
6
CONTINUOUS
10
2.2199442913385825
20
0.3731782283464567
11
2.2223421259842517
21
0.3642293307086614
0
LINE
8
BLACK
6
CONTINUOUS
10
2.2223421259842517
20
0.3642293307086614
11
2.2231496062992124
21
0.355
0
LINE
8
BLACK
6
CONTINUOUS
10
2.2231496062992124
20
0.355
11
2.2223421259842517
21
0.3457706692913386
0
LINE
8
BLACK
6
CONTINUOUS
10
2.2223421259842517
20
0.3457706692913386
11
2.2199442913385825
21
0.3368217716535433
0
LINE
8
BLACK
6
CONTINUOUS
10
2.2199442913385825
20
0.3368217716535433
11
2.2160288976377953
21
0.3284251968503937
0
LINE
8
BLACK
6
CONTINUOUS
10
2.2160288976377953
20
0.3284251968503937
11
2.2107149606299212
21
0.3208361023622047
0
LINE
8
BLACK
6
CONTINUOUS
10
2.2107149606299212
20
0.3208361023622047
11
2.2041638976377951
21
0.3142850393700787
0
LINE
8
BLACK
6
CONTINUOUS
10
2.2041638976377951
20
0.3142850393700787
11
2.1965748031496064
21
0.3089711023622047
0
LINE
8
BLACK
6
CONTINUOUS
10
2.1965748031496064
20
0.3089711023622047
11
2.1881782283464566
21
0.3050557086614173
0
LINE
8
BLACK
6
CONTINUOUS
10
2.1881782283464566
20
0.3050557086614173
11
2.1792293307086612
21
0.302657874015748
0
LINE
8
BLACK
6
CONTINUOUS
10
2.1792293307086612
20
0.302657874015748
11
2.1699999999999999
21
0.3018503937007874
0
LINE
8
BLACK
6
CONTINUOUS
10
2.1699999999999999
20
0.3018503937007874
11
2.1607706692913387
21
0.302657874015748
0
LINE
8
BLACK
6
CONTINUOUS
10
2.1607706692913387
20
0.302657874015748
11
2.1518217716535433
21
0.3050557086614173
0
LINE
8
BLACK
6
CONTINUOUS
10
2.1518217716535433
20
0.3050557086614173
11
2.1434251968503935
21
0.3089711023622047
0
LINE
8
BLACK
6
CONTINUOUS
10
2.1434251968503935
20
0.3089711023622047
11
2.1358361023622048
21
0.3142850393700787
0
LINE
8
BLACK
6
CONTINUOUS
10
2.1358361023622048
20
0.3142850393700787
11
2.1292850393700786
21
0.3208361023622047
0
LINE
8
BLACK
6
CONTINUOUS
10
2.1292850393700786
20
0.3208361023622047
11
2.1239711023622045
21
0.3284251968503937
0
LINE
8
BLACK
6
CONTINUOUS
10
2.1239711023622045
20
0.3284251968503937
11
2.1200557086614173
21
0.3368217716535433
0
LINE
8
BLACK
6
CONTINUOUS
10
2.1200557086614173
20
0.3368217716535433
11
2.1176578740157481
21
0.3457706692913386
0
LINE
8
BLACK
6
CONTINUOUS
10
2.1176578740157481
20
0.3457706692913386
11
2.1168503937007874
21
0.355
0
LINE
8
BLACK
6
CONTINUOUS
10
2.1168503937007874
20
0.355
11
2.1176578740157481
21
0.3642293307086614
0
LINE
8
BLACK
6
CONTINUOUS
10
2.1176578740157481
20
0.3642293307086614
11
2.1200557086614173
21
0.3731782283464567
0
LINE
8
BLACK
6
CONTINUOUS
10
2.1200557086614173
20
0.3731782283464567
11
2.1239711023622045
21
0.3815748031496063
0
LINE
8
BLACK
6
CONTINUOUS
10
2.1239711023622045
20
0.3815748031496063
11
2.1292850393700786
21
0.3891638976377952
0
LINE
8
BLACK
6
CONTINUOUS
10
2.1292850393700786
20
0.3891638976377952
11
2.1358361023622048
21
0.3957149606299212
0
LINE
8
BLACK
6
CONTINUOUS
10
2.1358361023622048
20
0.3957149606299212
11
2.1434251968503935
21
0.4010288976377953
0
LINE
8
BLACK
6
CONTINUOUS
10
2.1434251968503935
20
0.4010288976377953
11
2.1518217716535433
21
0.4049442913385827
0
LINE
8
BLACK
6
CONTINUOUS
10
2.1518217716535433
20
0.4049442913385827
11
2.1607706692913387
21
0.407342125984252
0
LINE
8
BLACK
6
CONTINUOUS
10
2.1607706692913387
20
0.407342125984252
11
2.1699999999999999
21
0.4081496062992126
0
LINE
8
BLACK
6
CONTINUOUS
10
2.1699999999999999
20
0.4081496062992126
11
2.1792293307086612
21
0.407342125984252
0
LINE
8
BLACK
6
CONTINUOUS
10
2.2992293307086613
20
0.407342125984252
11
2.3081782283464567
21
0.4049442913385827
0
LINE
8
BLACK
6
CONTINUOUS
10
2.3081782283464567
20
0.4049442913385827
11
2.3165748031496061
21
0.4010288976377953
0
LINE
8
BLACK
6
CONTINUOUS
10
2.3165748031496061
20
0.4010288976377953
11
2.3241638976377952
21
0.3957149606299212
0
LINE
8
BLACK
6
CONTINUOUS
10
2.3241638976377952
20
0.3957149606299212
11
2.3307149606299213
21
0.3891638976377952
0
LINE
8
BLACK
6
CONTINUOUS
10
2.3307149606299213
20
0.3891638976377952
11
2.3360288976377954
21
0.3815748031496063
0
LINE
8
BLACK
6
CONTINUOUS
10
2.3360288976377954
20
0.3815748031496063
11
2.3399442913385826
21
0.3731782283464567
0
LINE
8
BLACK
6
CONTINUOUS
10
2.3399442913385826
20
0.3731782283464567
11
2.3423421259842518
21
0.3642293307086614
0
LINE
8
BLACK
6
CONTINUOUS
10
2.3423421259842518
20
0.3642293307086614
11
2.3431496062992125
21
0.355
0
LINE
8
BLACK
6
CONTINUOUS
10
2.3431496062992125
20
0.355
11
2.3423421259842518
21
0.3457706692913386
0
LINE
8
BLACK
6
CONTINUOUS
10
2.3423421259842518
20
0.3457706692913386
11
2.3399442913385826
21
0.3368217716535433
0
LINE
8
BLACK
6
CONTINUOUS
10
2.3399442913385826
20
0.3368217716535433
11
2.3360288976377954
21
0.3284251968503937
0
LINE
8
BLACK
6
CONTINUOUS
10
2.3360288976377954
20
0.3284251968503937
11
2.3307149606299213
21
0.3208361023622047
0
LINE
8
BLACK
6
CONTINUOUS
10
2.3307149606299213
20
0.3208361023622047
11
2.3241638976377952
21
0.3142850393700787
0
LINE
8
BLACK
6
CONTINUOUS
10
2.3241638976377952
20
0.3142850393700787
11
2.3165748031496061
21
0.3089711023622047
0
LINE
8
BLACK
6
CONTINUOUS
10
2.3165748031496061
20
0.3089711023622047
11
2.3081782283464567
21
0.3050557086614173
0
LINE
8
BLACK
6
CONTINUOUS
10
2.3081782283464567
20
0.3050557086614173
11
2.2992293307086613
21
0.302657874015748
0
LINE
8
BLACK
6
CONTINUOUS
10
2.2992293307086613
20
0.302657874015748
11
2.29
21
0.3018503937007874
0
LINE
8
BLACK
6
CONTINUOUS
10
2.29
20
0.3018503937007874
11
2.2807706692913383
21
0.302657874015748
0
LINE
8
BLACK
6
CONTINUOUS
10
2.2807706692913383
20
0.302657874015748
11
2.2718217716535434
21
0.3050557086614173
0
LINE
8
BLACK
6
CONTINUOUS
10
2.2718217716535434
20
0.3050557086614173
11
2.2634251968503936
21
0.3089711023622047
0
LINE
8
BLACK
6
CONTINUOUS
10
2.2634251968503936
20
0.3089711023622047
11
2.2558361023622049
21
0.3142850393700787
0
LINE
8
BLACK
6
CONTINUOUS
10
2.2558361023622049
20
0.3142850393700787
11
2.2492850393700787
21
0.3208361023622047
0
LINE
8
BLACK
6
CONTINUOUS
10
2.2492850393700787
20
0.3208361023622047
11
2.2439711023622047
21
0.3284251968503937
0
LINE
8
BLACK
6
CONTINUOUS
10
2.2439711023622047
20
0.3284251968503937
11
2.2400557086614175
21
0.3368217716535433
0
LINE
8
BLACK
6
CONTINUOUS
10
2.2400557086614175
20
0.3368217716535433
11
2.2376578740157478
21
0.3457706692913386
0
LINE
8
BLACK
6
CONTINUOUS
10
2.2376578740157478
20
0.3457706692913386
11
2.2368503937007875
21
0.355
0
LINE
8
BLACK
6
CONTINUOUS
10
2.2368503937007875
20
0.355
11
2.2376578740157478
21
0.3642293307086614
0
LINE
8
BLACK
6
CONTINUOUS
10
2.2376578740157478
20
0.3642293307086614
11
2.2400557086614175
21
0.3731782283464567
0
LINE
8
BLACK
6
CONTINUOUS
10
2.2400557086614175
20
0.3731782283464567
11
2.2439711023622047
21
0.3815748031496063
0
LINE
8
BLACK
6
CONTINUOUS
10
2.2439711023622047
20
0.3815748031496063
11
2.2492850393700787
21
0.3891638976377952
0
LINE
8
BLACK
6
CONTINUOUS
10
2.2492850393700787
20
0.3891638976377952
11
2.2558361023622049
21
0.3957149606299212
0
LINE
8
BLACK
6
CONTINUOUS
10
2.2558361023622049
20
0.3957149606299212
11
2.2634251968503936
21
0.4010288976377953
0
LINE
8
BLACK
6
CONTINUOUS
10
2.2634251968503936
20
0.4010288976377953
11
2.2718217716535434
21
0.4049442913385827
0
LINE
8
BLACK
6
CONTINUOUS
10
2.2718217716535434
20
0.4049442913385827
11
2.2807706692913383
21
0.407342125984252
0
LINE
8
BLACK
6
CONTINUOUS
10
2.2807706692913383
20
0.407342125984252
11
2.29
21
0.4081496062992126
0
LINE
8
BLACK
6
CONTINUOUS
10
2.29
20
0.4081496062992126
11
2.2992293307086613
21
0.407342125984252
0
LINE
8
BLACK
6
CONTINUOUS
10
2.4192293307086614
20
0.407342125984252
11
2.4281782283464568
21
0.4049442913385827
0
LINE
8
BLACK
6
CONTINUOUS
10
2.4281782283464568
20
0.4049442913385827
11
2.4365748031496062
21
0.4010288976377953
0
LINE
8
BLACK
6
CONTINUOUS
10
2.4365748031496062
20
0.4010288976377953
11
2.4441638976377953
21
0.3957149606299212
0
LINE
8
BLACK
6
CONTINUOUS
10
2.4441638976377953
20
0.3957149606299212
11
2.450714960629921
21
0.3891638976377952
0
LINE
8
BLACK
6
CONTINUOUS
10
2.450714960629921
20
0.3891638976377952
11
2.4560288976377951
21
0.3815748031496063
0
LINE
8
BLACK
6
CONTINUOUS
10
2.4560288976377951
20
0.3815748031496063
11
2.4599442913385827
21
0.3731782283464567
0
LINE
8
BLACK
6
CONTINUOUS
10
2.4599442913385827
20
0.3731782283464567
11
2.462342125984252
21
0.3642293307086614
0
LINE
8
BLACK
6
CONTINUOUS
10
2.462342125984252
20
0.3642293307086614
11
2.4631496062992126
21
0.355
0
LINE
8
BLACK
6
CONTINUOUS
10
2.4631496062992126
20
0.355
11
2.462342125984252
21
0.3457706692913386
0
LINE
8
BLACK
6
CONTINUOUS
10
2.462342125984252
20
0.3457706692913386
11
2.4599442913385827
21
0.3368217716535433
0
LINE
8
BLACK
6
CONTINUOUS
10
2.4599442913385827
20
0.3368217716535433
11
2.4560288976377951
21
0.3284251968503937
0
LINE
8
BLACK
6
CONTINUOUS
10
2.4560288976377951
20
0.3284251968503937
11
2.450714960629921
21
0.3208361023622047
0
LINE
8
BLACK
6
CONTINUOUS
10
2.450714960629921
20
0.3208361023622047
11
2.4441638976377953
21
0.3142850393700787
0
LINE
8
BLACK
6
CONTINUOUS
10
2.4441638976377953
20
0.3142850393700787
11
2.4365748031496062
21
0.3089711023622047
0
LINE
8
BLACK
6
CONTINUOUS
10
2.4365748031496062
20
0.3089711023622047
11
2.4281782283464568
21
0.3050557086614173
0
LINE
8
BLACK
6
CONTINUOUS
10
2.4281782283464568
20
0.3050557086614173
11
2.4192293307086614
21
0.302657874015748
0
LINE
8
BLACK
6
CONTINUOUS
10
2.4192293307086614
20
0.302657874015748
11
2.4100000000000001
21
0.3018503937007874
0
LINE
8
BLACK
6
CONTINUOUS
10
2.4100000000000001
20
0.3018503937007874
11
2.4007706692913384
21
0.302657874015748
0
LINE
8
BLACK
6
CONTINUOUS
10
2.4007706692913384
20
0.302657874015748
11
2.391821771653543
21
0.3050557086614173
0
LINE
8
BLACK
6
CONTINUOUS
10
2.391821771653543
20
0.3050557086614173
11
2.3834251968503937
21
0.3089711023622047
0
LINE
8
BLACK
6
CONTINUOUS
10
2.3834251968503937
20
0.3089711023622047
11
2.3758361023622045
21
0.3142850393700787
0
LINE
8
BLACK
6
CONTINUOUS
10
2.3758361023622045
20
0.3142850393700787
11
2.3692850393700788
21
0.3208361023622047
0
LINE
8
BLACK
6
CONTINUOUS
10
2.3692850393700788
20
0.3208361023622047
11
2.3639711023622048
21
0.3284251968503937
0
LINE
8
BLACK
6
CONTINUOUS
10
2.3639711023622048
20
0.3284251968503937
11
2.3600557086614171
21
0.3368217716535433
0
LINE
8
BLACK
6
CONTINUOUS
10
2.3600557086614171
20
0.3368217716535433
11
2.3576578740157479
21
0.3457706692913386
0
LINE
8
BLACK
6
CONTINUOUS
10
2.3576578740157479
20
0.3457706692913386
11
2.3568503937007872
21
0.355
0
LINE
8
BLACK
6
CONTINUOUS
10
2.3568503937007872
20
0.355
11
2.3576578740157479
21
0.3642293307086614
0
LINE
8
BLACK
6
CONTINUOUS
10
2.3576578740157479
20
0.3642293307086614
11
2.3600557086614171
21
0.3731782283464567
0
LINE
8
BLACK
6
CONTINUOUS
10
2.3600557086614171
20
0.3731782283464567
11
2.3639711023622048
21
0.3815748031496063
0
LINE
8
BLACK
6
CONTINUOUS
10
2.3639711023622048
20
0.3815748031496063
11
2.3692850393700788
21
0.3891638976377952
0
LINE
8
BLACK
6
CONTINUOUS
10
2.3692850393700788
20
0.3891638976377952
11
2.3758361023622045
21
0.3957149606299212
0
LINE
8
BLACK
6
CONTINUOUS
10
2.3758361023622045
20
0.3957149606299212
11
2.3834251968503937
21
0.4010288976377953
0
LINE
8
BLACK
6
CONTINUOUS
10
2.3834251968503937
20
0.4010288976377953
11
2.391821771653543
21
0.4049442913385827
0
LINE
8
BLACK
6
CONTINUOUS
10
2.391821771653543
20
0.4049442913385827
11
2.4007706692913384
21
0.407342125984252
0
LINE
8
BLACK
6
CONTINUOUS
10
2.4007706692913384
20
0.407342125984252
11
2.4100000000000001
21
0.4081496062992126
0
LINE
8
BLACK
6
CONTINUOUS
10
2.4100000000000001
20
0.4081496062992126
11
2.4192293307086614
21
0.407342125984252
0
LINE
8
BLACK
6
CONTINUOUS
10
2.6600000000000001
20
0.335
11
2.6000000000000001
21
0.335
0
LINE
8
BLACK
6
CONTINUOUS
10
2.6000000000000001
20
0.335
11
2.6000000000000001
21
0.395
0
LINE
8
BLACK
6
CONTINUOUS
10
2.6000000000000001
20
0.395
11
2.6600000000000001
21
0.395
0
LINE
8
BLACK
6
CONTINUOUS
10
2.6600000000000001
20
0.395
11
2.6600000000000001
21
0.335
0
LINE
8
BLACK
6
CONTINUOUS
10
2.7599999999999998
20
0.335
11
2.6999999999999997
21
0.335
0
LINE
8
BLACK
6
CONTINUOUS
10
2.6999999999999997
20
0.335
11
2.6999999999999997
21
0.395
0
LINE
8
BLACK
6
CONTINUOUS
10
2.6999999999999997
20
0.395
11
2.7599999999999998
21
0.395
0
LINE
8
BLACK
6
CONTINUOUS
10
2.7599999999999998
20
0.395
11
2.7599999999999998
21
0.335
0
LINE
8
BLACK
6
CONTINUOUS
10
2.8599999999999999
20
0.335
11
2.7999999999999998
21
0.335
0
LINE
8
BLACK
6
CONTINUOUS
10
2.7999999999999998
20
0.335
11
2.7999999999999998
21
0.395
0
LINE
8
BLACK
6
CONTINUOUS
10
2.7999999999999998
20
0.395
11
2.8599999999999999
21
0.395
0
LINE
8
BLACK
6
CONTINUOUS
10
2.8599999999999999
20
0.395
11
2.8599999999999999
21
0.335
0
LINE
8
BLACK
6
CONTINUOUS
10
2.96
20
0.335
11
2.8999999999999999
21
0.335
0
LINE
8
BLACK
6
CONTINUOUS
10
2.8999999999999999
20
0.335
11
2.8999999999999999
21
0.395
0
LINE
8
BLACK
6
CONTINUOUS
10
2.8999999999999999
20
0.395
11
2.96
21
0.395
0
LINE
8
BLACK
6
CONTINUOUS
10
2.96
20
0.395
11
2.96
21
0.335
0
LINE
8
BLACK
6
CONTINUOUS
10
1.5774999999999999
20
0.3688976377952756
11
1.5175000000000001
21
0.3688976377952756
0
LINE
8
BLACK
6
CONTINUOUS
10
1.5175000000000001
20
0.3688976377952756
11
1.5175000000000001
21
0.4288976377952756
0
LINE
8
BLACK
6
CONTINUOUS
10
1.5175000000000001
20
0.4288976377952756
11
1.5774999999999999
21
0.4288976377952756
0
LINE
8
BLACK
6
CONTINUOUS
10
1.5774999999999999
20
0.4288976377952756
11
1.5774999999999999
21
0.3688976377952756
0
LINE
8
BLACK
6
CONTINUOUS
10
1.6775
20
0.3688976377952756
11
1.6174999999999999
21
0.3688976377952756
0
LINE
8
BLACK
6
CONTINUOUS
10
1.6174999999999999
20
0.3688976377952756
11
1.6174999999999999
21
0.4288976377952756
0
LINE
8
BLACK
6
CONTINUOUS
10
1.6174999999999999
20
0.4288976377952756
11
1.6775
21
0.4288976377952756
0
LINE
8
BLACK
6
CONTINUOUS
10
1.6775
20
0.4288976377952756
11
1.6775
21
0.3688976377952756
0
LINE
8
BLACK
6
CONTINUOUS
10
2.6600000000000001
20
0.435
11
2.6000000000000001
21
0.435
0
LINE
8
BLACK
6
CONTINUOUS
10
2.6000000000000001
20
0.435
11
2.6000000000000001
21
0.495
0
LINE
8
BLACK
6
CONTINUOUS
10
2.6000000000000001
20
0.495
11
2.6600000000000001
21
0.495
0
LINE
8
BLACK
6
CONTINUOUS
10
2.6600000000000001
20
0.495
11
2.6600000000000001
21
0.435
0
LINE
8
BLACK
6
CONTINUOUS
10
2.7599999999999998
20
0.435
11
2.6999999999999997
21
0.435
0
LINE
8
BLACK
6
CONTINUOUS
10
2.6999999999999997
20
0.435
11
2.6999999999999997
21
0.495
0
LINE
8
BLACK
6
CONTINUOUS
10
2.6999999999999997
20
0.495
11
2.7599999999999998
21
0.495
0
LINE
8
BLACK
6
CONTINUOUS
10
2.7599999999999998
20
0.495
11
2.7599999999999998
21
0.435
0
LINE
8
BLACK
6
CONTINUOUS
10
2.8599999999999999
20
0.435
11
2.7999999999999998
21
0.435
0
LINE
8
BLACK
6
CONTINUOUS
10
2.7999999999999998
20
0.435
11
2.7999999999999998
21
0.495
0
LINE
8
BLACK
6
CONTINUOUS
10
2.7999999999999998
20
0.495
11
2.8599999999999999
21
0.495
0
LINE
8
BLACK
6
CONTINUOUS
10
2.8599999999999999
20
0.495
11
2.8599999999999999
21
0.435
0
LINE
8
BLACK
6
CONTINUOUS
10
2.96
20
0.435
11
2.8999999999999999
21
0.435
0
LINE
8
BLACK
6
CONTINUOUS
10
2.8999999999999999
20
0.435
11
2.8999999999999999
21
0.495
0
LINE
8
BLACK
6
CONTINUOUS
10
2.8999999999999999
20
0.495
11
2.96
21
0.495
0
LINE
8
BLACK
6
CONTINUOUS
10
2.96
20
0.495
11
2.96
21
0.435
0
LINE
8
BLACK
6
CONTINUOUS
10
0.8606496062992126
20
0.4476771653543307
11
0.7106496062992126
21
0.4476771653543307
0
LINE
8
BLACK
6
CONTINUOUS
10
0.7106496062992126
20
0.4476771653543307
11
0.7106496062992126
21
0.5976771653543307
0
LINE
8
BLACK
6
CONTINUOUS
10
0.7106496062992126
20
0.5976771653543307
11
0.8606496062992126
21
0.5976771653543307
0
LINE
8
BLACK
6
CONTINUOUS
10
0.8606496062992126
20
0.5976771653543307
11
0.8606496062992126
21
0.4476771653543307
0
LINE
8
BLACK
6
CONTINUOUS
10
1.0574999999999999
20
0.4476771653543307
11
0.9075
21
0.4476771653543307
0
LINE
8
BLACK
6
CONTINUOUS
10
0.9075
20
0.4476771653543307
11
0.9075
21
0.5976771653543307
0
LINE
8
BLACK
6
CONTINUOUS
10
0.9075
20
0.5976771653543307
11
1.0574999999999999
21
0.5976771653543307
0
LINE
8
BLACK
6
CONTINUOUS
10
1.0574999999999999
20
0.5976771653543307
11
1.0574999999999999
21
0.4476771653543307
0
LINE
8
BLACK
6
CONTINUOUS
10
0.4515748031496063
20
0.9413385826771653
11
0.2940944881889764
21
0.9413385826771653
0
LINE
8
BLACK
6
CONTINUOUS
10
0.2940944881889764
20
0.9413385826771653
11
0.2940944881889764
21
1.0988188976377953
0
LINE
8
BLACK
6
CONTINUOUS
10
0.2940944881889764
20
1.0988188976377953
11
0.4515748031496063
21
1.0988188976377953
0
LINE
8
BLACK
6
CONTINUOUS
10
0.4515748031496063
20
1.0988188976377953
11
0.4515748031496063
21
0.9413385826771653
0
LINE
8
BLACK
6
CONTINUOUS
10
3.3059055118110234
20
0.9413385826771653
11
3.1484251968503938
21
0.9413385826771653
0
LINE
8
BLACK
6
CONTINUOUS
10
3.1484251968503938
20
0.9413385826771653
11
3.1484251968503938
21
1.0988188976377953
0
LINE
8
BLACK
6
CONTINUOUS
10
3.1484251968503938
20
1.0988188976377953
11
3.3059055118110234
21
1.0988188976377953
0
LINE
8
BLACK
6
CONTINUOUS
10
3.3059055118110234
20
1.0988188976377953
11
3.3059055118110234
21
0.9413385826771653
0
LINE
8
BLACK
6
CONTINUOUS
10
2.8731760236220474
20
1.046809842519685
11
2.8763691732283463
21
1.0446762598425197
0
LINE
8
BLACK
6
CONTINUOUS
10
2.8763691732283463
20
1.0446762598425197
11
2.8785027559055116
21
1.0414831102362205
0
LINE
8
BLACK
6
CONTINUOUS
10
2.8785027559055116
20
1.0414831102362205
11
2.8792519685039371
21
1.0377165354330709
0
LINE
8
BLACK
6
CONTINUOUS
10
2.8792519685039371
20
1.0377165354330709
11
2.8792519685039371
21
1.0022834645669292
0
LINE
8
BLACK
6
CONTINUOUS
10
2.8792519685039371
20
1.0022834645669292
11
2.8785027559055116
21
0.9985168897637795
0
LINE
8
BLACK
6
CONTINUOUS
10
2.8785027559055116
20
0.9985168897637795
11
2.8763691732283463
21
0.9953237401574803
0
LINE
8
BLACK
6
CONTINUOUS
10
2.8763691732283463
20
0.9953237401574803
11
2.8731760236220474
21
0.9931901574803149
0
LINE
8
BLACK
6
CONTINUOUS
10
2.8731760236220474
20
0.9931901574803149
11
2.8694094488188977
21
0.9924409448818897
0
LINE
8
BLACK
6
CONTINUOUS
10
2.8694094488188977
20
0.9924409448818897
11
2.8487401574803148
21
0.9924409448818897
0
LINE
8
BLACK
6
CONTINUOUS
10
2.8487401574803148
20
0.9924409448818897
11
2.8449735826771652
21
0.9931901574803149
0
LINE
8
BLACK
6
CONTINUOUS
10
2.8449735826771652
20
0.9931901574803149
11
2.8417804330708663
21
0.9953237401574803
0
LINE
8
BLACK
6
CONTINUOUS
10
2.8417804330708663
20
0.9953237401574803
11
2.8396468503937009
21
0.9985168897637795
0
LINE
8
BLACK
6
CONTINUOUS
10
2.8396468503937009
20
0.9985168897637795
11
2.8388976377952755
21
1.0022834645669292
0
LINE
8
BLACK
6
CONTINUOUS
10
2.8388976377952755
20
1.0022834645669292
11
2.8388976377952755
21
1.0377165354330709
0
LINE
8
BLACK
6
CONTINUOUS
10
2.8388976377952755
20
1.0377165354330709
11
2.8396468503937009
21
1.0414831102362205
0
LINE
8
BLACK
6
CONTINUOUS
10
2.8396468503937009
20
1.0414831102362205
11
2.8417804330708663
21
1.0446762598425197
0
LINE
8
BLACK
6
CONTINUOUS
10
2.8417804330708663
20
1.0446762598425197
11
2.8449735826771652
21
1.046809842519685
0
LINE
8
BLACK
6
CONTINUOUS
10
2.8449735826771652
20
1.046809842519685
11
2.8487401574803148
21
1.0475590551181102
0
LINE
8
BLACK
6
CONTINUOUS
10
2.8487401574803148
20
1.0475590551181102
11
2.8694094488188977
21
1.0475590551181102
0
LINE
8
BLACK
6
CONTINUOUS
10
2.8694094488188977
20
1.0475590551181102
11
2.8731760236220474
21
1.046809842519685
0
LINE
8
BLACK
6
CONTINUOUS
10
2.9450264173228344
20
1.046809842519685
11
2.9482195669291338
21
1.0446762598425197
0
LINE
8
BLACK
6
CONTINUOUS
10
2.9482195669291338
20
1.0446762598425197
11
2.9503531496062991
21
1.0414831102362205
0
LINE
8
BLACK
6
CONTINUOUS
10
2.9503531496062991
20
1.0414831102362205
11
2.9511023622047245
21
1.0377165354330709
0
LINE
8
BLACK
6
CONTINUOUS
10
2.9511023622047245
20
1.0377165354330709
11
2.9511023622047245
21
1.0022834645669292
0
LINE
8
BLACK
6
CONTINUOUS
10
2.9511023622047245
20
1.0022834645669292
11
2.9503531496062991
21
0.9985168897637795
0
LINE
8
BLACK
6
CONTINUOUS
10
2.9503531496062991
20
0.9985168897637795
11
2.9482195669291338
21
0.9953237401574803
0
LINE
8
BLACK
6
CONTINUOUS
10
2.9482195669291338
20
0.9953237401574803
11
2.9450264173228344
21
0.9931901574803149
0
LINE
8
BLACK
6
CONTINUOUS
10
2.9450264173228344
20
0.9931901574803149
11
2.9412598425196848
21
0.9924409448818897
0
LINE
8
BLACK
6
CONTINUOUS
10
2.9412598425196848
20
0.9924409448818897
11
2.9205905511811023
21
0.9924409448818897
0
LINE
8
BLACK
6
CONTINUOUS
10
2.9205905511811023
20
0.9924409448818897
11
2.9168239763779527
21
0.9931901574803149
0
LINE
8
BLACK
6
CONTINUOUS
10
2.9168239763779527
20
0.9931901574803149
11
2.9136308267716533
21
0.9953237401574803
0
LINE
8
BLACK
6
CONTINUOUS
10
2.9136308267716533
20
0.9953237401574803
11
2.911497244094488
21
0.9985168897637795
0
LINE
8
BLACK
6
CONTINUOUS
10
2.911497244094488
20
0.9985168897637795
11
2.910748031496063
21
1.0022834645669292
0
LINE
8
BLACK
6
CONTINUOUS
10
2.910748031496063
20
1.0022834645669292
11
2.910748031496063
21
1.0377165354330709
0
LINE
8
BLACK
6
CONTINUOUS
10
2.910748031496063
20
1.0377165354330709
11
2.911497244094488
21
1.0414831102362205
0
LINE
8
BLACK
6
CONTINUOUS
10
2.911497244094488
20
1.0414831102362205
11
2.9136308267716533
21
1.0446762598425197
0
LINE
8
BLACK
6
CONTINUOUS
10
2.9136308267716533
20
1.0446762598425197
11
2.9168239763779527
21
1.046809842519685
0
LINE
8
BLACK
6
CONTINUOUS
10
2.9168239763779527
20
1.046809842519685
11
2.9205905511811023
21
1.0475590551181102
0
LINE
8
BLACK
6
CONTINUOUS
10
2.9205905511811023
20
1.0475590551181102
11
2.9412598425196848
21
1.0475590551181102
0
LINE
8
BLACK
6
CONTINUOUS
10
2.9412598425196848
20
1.0475590551181102
11
2.9450264173228344
21
1.046809842519685
0
LINE
8
BLACK
6
CONTINUOUS
10
0.5029340944881889
20
1.2504137401574802
11
0.5081460236220472
21
1.2490172047244095
0
LINE
8
BLACK
6
CONTINUOUS
10
0.5081460236220472
20
1.2490172047244095
11
0.5128188976377953
21
1.2463193307086613
0
LINE
8
BLACK
6
CONTINUOUS
10
0.5128188976377953
20
1.2463193307086613
11
0.5166342913385826
21
1.2425039370078741
0
LINE
8
BLACK
6
CONTINUOUS
10
0.5166342913385826
20
1.2425039370078741
11
0.5193321653543307
21
1.2378310629921259
0
LINE
8
BLACK
6
CONTINUOUS
10
0.5193321653543307
20
1.2378310629921259
11
0.5207287007874015
21
1.2326191338582677
0
LINE
8
BLACK
6
CONTINUOUS
10
0.5207287007874015
20
1.2326191338582677
11
0.5207287007874015
21
1.2272233858267716
0
LINE
8
BLACK
6
CONTINUOUS
10
0.5207287007874015
20
1.2272233858267716
11
0.5193321653543307
21
1.2220114566929134
0
LINE
8
BLACK
6
CONTINUOUS
10
0.5193321653543307
20
1.2220114566929134
11
0.5166342913385826
21
1.2173385826771654
0
LINE
8
BLACK
6
CONTINUOUS
10
0.5166342913385826
20
1.2173385826771654
11
0.5128188976377953
21
1.213523188976378
0
LINE
8
BLACK
6
CONTINUOUS
10
0.5128188976377953
20
1.213523188976378
11
0.5081460236220472
21
1.2108253149606298
0
LINE
8
BLACK
6
CONTINUOUS
10
0.5081460236220472
20
1.2108253149606298
11
0.5029340944881889
21
1.2094287795275591
0
LINE
8
BLACK
6
CONTINUOUS
10
0.5029340944881889
20
1.2094287795275591
11
0.4588976377952756
21
1.2092519685039369
0
LINE
8
BLACK
6
CONTINUOUS
10
0.4588976377952756
20
1.2092519685039369
11
0.4561997637795275
21
1.2094287795275591
0
LINE
8
BLACK
6
CONTINUOUS
10
0.4561997637795275
20
1.2094287795275591
11
0.4509878346456693
21
1.2108253149606298
0
LINE
8
BLACK
6
CONTINUOUS
10
0.4509878346456693
20
1.2108253149606298
11
0.4463149606299213
21
1.213523188976378
0
LINE
8
BLACK
6
CONTINUOUS
10
0.4463149606299213
20
1.213523188976378
11
0.4424995669291338
21
1.2173385826771654
0
LINE
8
BLACK
6
CONTINUOUS
10
0.4424995669291338
20
1.2173385826771654
11
0.4398016929133858
21
1.2220114566929134
0
LINE
8
BLACK
6
CONTINUOUS
10
0.4398016929133858
20
1.2220114566929134
11
0.4384051574803149
21
1.2272233858267716
0
LINE
8
BLACK
6
CONTINUOUS
10
0.4384051574803149
20
1.2272233858267716
11
0.4384051574803149
21
1.2326191338582677
0
LINE
8
BLACK
6
CONTINUOUS
10
0.4384051574803149
20
1.2326191338582677
11
0.4398016929133858
21
1.2378310629921259
0
LINE
8
BLACK
6
CONTINUOUS
10
0.4398016929133858
20
1.2378310629921259
11
0.4424995669291338
21
1.2425039370078741
0
LINE
8
BLACK
6
CONTINUOUS
10
0.4424995669291338
20
1.2425039370078741
11
0.4463149606299213
21
1.2463193307086613
0
LINE
8
BLACK
6
CONTINUOUS
10
0.4463149606299213
20
1.2463193307086613
11
0.4509878346456693
21
1.2490172047244095
0
LINE
8
BLACK
6
CONTINUOUS
10
0.4509878346456693
20
1.2490172047244095
11
0.4561997637795275
21
1.2504137401574802
0
LINE
8
BLACK
6
CONTINUOUS
10
0.4561997637795275
20
1.2504137401574802
11
0.500236220472441
21
1.2505905511811024
0
LINE
8
BLACK
6
CONTINUOUS
10
0.500236220472441
20
1.2505905511811024
11
0.5029340944881889
21
1.2504137401574802
0
LINE
8
BLACK
6
CONTINUOUS
10
0.3372544488188977
20
1.2494378740157479
11
0.342218188976378
21
1.2481078740157481
0
LINE
8
BLACK
6
CONTINUOUS
10
0.342218188976378
20
1.2481078740157481
11
0.3466685433070866
21
1.2455384645669292
0
LINE
8
BLACK
6
CONTINUOUS
10
0.3466685433070866
20
1.2455384645669292
11
0.3503022440944882
21
1.2419047637795275
0
LINE
8
BLACK
6
CONTINUOUS
10
0.3503022440944882
20
1.2419047637795275
11
0.3528716535433071
21
1.2374544094488189
0
LINE
8
BLACK
6
CONTINUOUS
10
0.3528716535433071
20
1.2374544094488189
11
0.3542016535433071
21
1.2324906692913387
0
LINE
8
BLACK
6
CONTINUOUS
10
0.3542016535433071
20
1.2324906692913387
11
0.3542016535433071
21
1.2273518503937006
0
LINE
8
BLACK
6
CONTINUOUS
10
0.3542016535433071
20
1.2273518503937006
11
0.3528716535433071
21
1.2223881102362204
0
LINE
8
BLACK
6
CONTINUOUS
10
0.3528716535433071
20
1.2223881102362204
11
0.3503022440944882
21
1.2179377559055118
0
LINE
8
BLACK
6
CONTINUOUS
10
0.3503022440944882
20
1.2179377559055118
11
0.3466685433070866
21
1.2143040551181101
0
LINE
8
BLACK
6
CONTINUOUS
10
0.3466685433070866
20
1.2143040551181101
11
0.342218188976378
21
1.2117346456692912
0
LINE
8
BLACK
6
CONTINUOUS
10
0.342218188976378
20
1.2117346456692912
11
0.3372544488188977
21
1.2104046456692914
0
LINE
8
BLACK
6
CONTINUOUS
10
0.3372544488188977
20
1.2104046456692914
11
0.2953149606299212
21
1.2102362204724408
0
LINE
8
BLACK
6
CONTINUOUS
10
0.2953149606299212
20
1.2102362204724408
11
0.2927455511811023
21
1.2104046456692914
0
LINE
8
BLACK
6
CONTINUOUS
10
0.2927455511811023
20
1.2104046456692914
11
0.287781811023622
21
1.2117346456692912
0
LINE
8
BLACK
6
CONTINUOUS
10
0.287781811023622
20
1.2117346456692912
11
0.2833314566929134
21
1.2143040551181101
0
LINE
8
BLACK
6
CONTINUOUS
10
0.2833314566929134
20
1.2143040551181101
11
0.2796977559055118
21
1.2179377559055118
0
LINE
8
BLACK
6
CONTINUOUS
10
0.2796977559055118
20
1.2179377559055118
11
0.2771283464566929
21
1.2223881102362204
0
LINE
8
BLACK
6
CONTINUOUS
10
0.2771283464566929
20
1.2223881102362204
11
0.2757983464566929
21
1.2273518503937006
0
LINE
8
BLACK
6
CONTINUOUS
10
0.2757983464566929
20
1.2273518503937006
11
0.2757983464566929
21
1.2324906692913387
0
LINE
8
BLACK
6
CONTINUOUS
10
0.2757983464566929
20
1.2324906692913387
11
0.2771283464566929
21
1.2374544094488189
0
LINE
8
BLACK
6
CONTINUOUS
10
0.2771283464566929
20
1.2374544094488189
11
0.2796977559055118
21
1.2419047637795275
0
LINE
8
BLACK
6
CONTINUOUS
10
0.2796977559055118
20
1.2419047637795275
11
0.2833314566929134
21
1.2455384645669292
0
LINE
8
BLACK
6
CONTINUOUS
10
0.2833314566929134
20
1.2455384645669292
11
0.287781811023622
21
1.2481078740157481
0
LINE
8
BLACK
6
CONTINUOUS
10
0.287781811023622
20
1.2481078740157481
11
0.2927455511811023
21
1.2494378740157479
0
LINE
8
BLACK
6
CONTINUOUS
10
0.2927455511811023
20
1.2494378740157479
11
0.3346850393700787
21
1.2496062992125985
0
LINE
8
BLACK
6
CONTINUOUS
10
0.3346850393700787
20
1.2496062992125985
11
0.3372544488188977
21
1.2494378740157479
0
LINE
8
BLACK
6
CONTINUOUS
10
0.4662795275590551
20
1.2973014960629921
11
0.4696836220472441
21
1.2944451181102361
0
LINE
8
BLACK
6
CONTINUOUS
10
0.4696836220472441
20
1.2944451181102361
11
0.4719055118110236
21
1.2905967322834646
0
LINE
8
BLACK
6
CONTINUOUS
10
0.4719055118110236
20
1.2905967322834646
11
0.4726771653543307
21
1.286220472440945
0
LINE
8
BLACK
6
CONTINUOUS
10
0.4726771653543307
20
1.286220472440945
11
0.4719055118110236
21
1.2818442125984251
0
LINE
8
BLACK
6
CONTINUOUS
10
0.4719055118110236
20
1.2818442125984251
11
0.4696836220472441
21
1.2779958267716536
0
LINE
8
BLACK
6
CONTINUOUS
10
0.4696836220472441
20
1.2779958267716536
11
0.4662795275590551
21
1.2751394488188976
0
LINE
8
BLACK
6
CONTINUOUS
10
0.4662795275590551
20
1.2751394488188976
11
0.462103779527559
21
1.2736195669291339
0
LINE
8
BLACK
6
CONTINUOUS
10
0.462103779527559
20
1.2736195669291339
11
0.45766
21
1.2736195669291339
0
LINE
8
BLACK
6
CONTINUOUS
10
0.45766
20
1.2736195669291339
11
0.4534842519685039
21
1.2751394488188976
0
LINE
8
BLACK
6
CONTINUOUS
10
0.4534842519685039
20
1.2751394488188976
11
0.4500801574803149
21
1.2779958267716536
0
LINE
8
BLACK
6
CONTINUOUS
10
0.4500801574803149
20
1.2779958267716536
11
0.4478582677165354
21
1.2818442125984251
0
LINE
8
BLACK
6
CONTINUOUS
10
0.4478582677165354
20
1.2818442125984251
11
0.4470866141732283
21
1.286220472440945
0
LINE
8
BLACK
6
CONTINUOUS
10
0.4470866141732283
20
1.286220472440945
11
0.4478582677165354
21
1.2905967322834646
0
LINE
8
BLACK
6
CONTINUOUS
10
0.4478582677165354
20
1.2905967322834646
11
0.4500801574803149
21
1.2944451181102361
0
LINE
8
BLACK
6
CONTINUOUS
10
0.4500801574803149
20
1.2944451181102361
11
0.4534842519685039
21
1.2973014960629921
0
LINE
8
BLACK
6
CONTINUOUS
10
0.4534842519685039
20
1.2973014960629921
11
0.45766
21
1.298821377952756
0
LINE
8
BLACK
6
CONTINUOUS
10
0.45766
20
1.298821377952756
11
0.462103779527559
21
1.298821377952756
0
LINE
8
BLACK
6
CONTINUOUS
10
0.462103779527559
20
1.298821377952756
11
0.4662795275590551
21
1.2973014960629921
0
LINE
8
BLACK
6
CONTINUOUS
10
0.4662795275590551
20
1.5248605511811024
11
0.4696836220472441
21
1.5220041732283465
0
LINE
8
BLACK
6
CONTINUOUS
10
0.4696836220472441
20
1.5220041732283465
11
0.4719055118110236
21
1.5181557874015748
0
LINE
8
BLACK
6
CONTINUOUS
10
0.4719055118110236
20
1.5181557874015748
11
0.4726771653543307
21
1.5137795275590551
0
LINE
8
BLACK
6
CONTINUOUS
10
0.4726771653543307
20
1.5137795275590551
11
0.4719055118110236
21
1.5094032677165354
0
LINE
8
BLACK
6
CONTINUOUS
10
0.4719055118110236
20
1.5094032677165354
11
0.4696836220472441
21
1.5055548818897637
0
LINE
8
BLACK
6
CONTINUOUS
10
0.4696836220472441
20
1.5055548818897637
11
0.4662795275590551
21
1.5026985039370078
0
LINE
8
BLACK
6
CONTINUOUS
10
0.4662795275590551
20
1.5026985039370078
11
0.462103779527559
21
1.5011786220472441
0
LINE
8
BLACK
6
CONTINUOUS
10
0.462103779527559
20
1.5011786220472441
11
0.45766
21
1.5011786220472441
0
LINE
8
BLACK
6
CONTINUOUS
10
0.45766
20
1.5011786220472441
11
0.4534842519685039
21
1.5026985039370078
0
LINE
8
BLACK
6
CONTINUOUS
10
0.4534842519685039
20
1.5026985039370078
11
0.4500801574803149
21
1.5055548818897637
0
LINE
8
BLACK
6
CONTINUOUS
10
0.4500801574803149
20
1.5055548818897637
11
0.4478582677165354
21
1.5094032677165354
0
LINE
8
BLACK
6
CONTINUOUS
10
0.4478582677165354
20
1.5094032677165354
11
0.4470866141732283
21
1.5137795275590551
0
LINE
8
BLACK
6
CONTINUOUS
10
0.4470866141732283
20
1.5137795275590551
11
0.4478582677165354
21
1.5181557874015748
0
LINE
8
BLACK
6
CONTINUOUS
10
0.4478582677165354
20
1.5181557874015748
11
0.4500801574803149
21
1.5220041732283465
0
LINE
8
BLACK
6
CONTINUOUS
10
0.4500801574803149
20
1.5220041732283465
11
0.4534842519685039
21
1.5248605511811024
0
LINE
8
BLACK
6
CONTINUOUS
10
0.4534842519685039
20
1.5248605511811024
11
0.45766
21
1.5263804330708661
0
LINE
8
BLACK
6
CONTINUOUS
10
0.45766
20
1.5263804330708661
11
0.462103779527559
21
1.5263804330708661
0
LINE
8
BLACK
6
CONTINUOUS
10
0.462103779527559
20
1.5263804330708661
11
0.4662795275590551
21
1.5248605511811024
0
LINE
8
BLACK
6
CONTINUOUS
10
0.5029340944881889
20
1.5905712204724409
11
0.5081460236220472
21
1.58917468503937
0
LINE
8
BLACK
6
CONTINUOUS
10
0.5081460236220472
20
1.58917468503937
11
0.5128188976377953
21
1.586476811023622
0
LINE
8
BLACK
6
CONTINUOUS
10
0.5128188976377953
20
1.586476811023622
11
0.5166342913385826
21
1.5826614173228346
0
LINE
8
BLACK
6
CONTINUOUS
10
0.5166342913385826
20
1.5826614173228346
11
0.5193321653543307
21
1.5779885433070866
0
LINE
8
BLACK
6
CONTINUOUS
10
0.5193321653543307
20
1.5779885433070866
11
0.5207287007874015
21
1.5727766141732282
0
LINE
8
BLACK
6
CONTINUOUS
10
0.5207287007874015
20
1.5727766141732282
11
0.5207287007874015
21
1.5673808661417323
0
LINE
8
BLACK
6
CONTINUOUS
10
0.5207287007874015
20
1.5673808661417323
11
0.5193321653543307
21
1.562168937007874
0
LINE
8
BLACK
6
CONTINUOUS
10
0.5193321653543307
20
1.562168937007874
11
0.5166342913385826
21
1.557496062992126
0
LINE
8
BLACK
6
CONTINUOUS
10
0.5166342913385826
20
1.557496062992126
11
0.5128188976377953
21
1.5536806692913385
0
LINE
8
BLACK
6
CONTINUOUS
10
0.5128188976377953
20
1.5536806692913385
11
0.5081460236220472
21
1.5509827952755906
0
LINE
8
BLACK
6
CONTINUOUS
10
0.5081460236220472
20
1.5509827952755906
11
0.5029340944881889
21
1.5495862598425196
0
LINE
8
BLACK
6
CONTINUOUS
10
0.5029340944881889
20
1.5495862598425196
11
0.4588976377952756
21
1.5494094488188976
0
LINE
8
BLACK
6
CONTINUOUS
10
0.4588976377952756
20
1.5494094488188976
11
0.4561997637795275
21
1.5495862598425196
0
LINE
8
BLACK
6
CONTINUOUS
10
0.4561997637795275
20
1.5495862598425196
11
0.4509878346456693
21
1.5509827952755906
0
LINE
8
BLACK
6
CONTINUOUS
10
0.4509878346456693
20
1.5509827952755906
11
0.4463149606299213
21
1.5536806692913385
0
LINE
8
BLACK
6
CONTINUOUS
10
0.4463149606299213
20
1.5536806692913385
11
0.4424995669291338
21
1.557496062992126
0
LINE
8
BLACK
6
CONTINUOUS
10
0.4424995669291338
20
1.557496062992126
11
0.4398016929133858
21
1.562168937007874
0
LINE
8
BLACK
6
CONTINUOUS
10
0.4398016929133858
20
1.562168937007874
11
0.4384051574803149
21
1.5673808661417323
0
LINE
8
BLACK
6
CONTINUOUS
10
0.4384051574803149
20
1.5673808661417323
11
0.4384051574803149
21
1.5727766141732282
0
LINE
8
BLACK
6
CONTINUOUS
10
0.4384051574803149
20
1.5727766141732282
11
0.4398016929133858
21
1.5779885433070866
0
LINE
8
BLACK
6
CONTINUOUS
10
0.4398016929133858
20
1.5779885433070866
11
0.4424995669291338
21
1.5826614173228346
0
LINE
8
BLACK
6
CONTINUOUS
10
0.4424995669291338
20
1.5826614173228346
11
0.4463149606299213
21
1.586476811023622
0
LINE
8
BLACK
6
CONTINUOUS
10
0.4463149606299213
20
1.586476811023622
11
0.4509878346456693
21
1.58917468503937
0
LINE
8
BLACK
6
CONTINUOUS
10
0.4509878346456693
20
1.58917468503937
11
0.4561997637795275
21
1.5905712204724409
0
LINE
8
BLACK
6
CONTINUOUS
10
0.4561997637795275
20
1.5905712204724409
11
0.500236220472441
21
1.5907480314960629
0
LINE
8
BLACK
6
CONTINUOUS
10
0.500236220472441
20
1.5907480314960629
11
0.5029340944881889
21
1.5905712204724409
0
LINE
8
BLACK
6
CONTINUOUS
10
0.3372544488188977
20
1.5895953543307086
11
0.342218188976378
21
1.5882653543307086
0
LINE
8
BLACK
6
CONTINUOUS
10
0.342218188976378
20
1.5882653543307086
11
0.3466685433070866
21
1.5856959448818897
0
LINE
8
BLACK
6
CONTINUOUS
10
0.3466685433070866
20
1.5856959448818897
11
0.3503022440944882
21
1.5820622440944883
0
LINE
8
BLACK
6
CONTINUOUS
10
0.3503022440944882
20
1.5820622440944883
11
0.3528716535433071
21
1.5776118897637794
0
LINE
8
BLACK
6
CONTINUOUS
10
0.3528716535433071
20
1.5776118897637794
11
0.3542016535433071
21
1.5726481496062992
0
LINE
8
BLACK
6
CONTINUOUS
10
0.3542016535433071
20
1.5726481496062992
11
0.3542016535433071
21
1.5675093307086614
0
LINE
8
BLACK
6
CONTINUOUS
10
0.3542016535433071
20
1.5675093307086614
11
0.3528716535433071
21
1.5625455905511811
0
LINE
8
BLACK
6
CONTINUOUS
10
0.3528716535433071
20
1.5625455905511811
11
0.3503022440944882
21
1.5580952362204723
0
LINE
8
BLACK
6
CONTINUOUS
10
0.3503022440944882
20
1.5580952362204723
11
0.3466685433070866
21
1.5544615354330709
0
LINE
8
BLACK
6
CONTINUOUS
10
0.3466685433070866
20
1.5544615354330709
11
0.342218188976378
21
1.551892125984252
0
LINE
8
BLACK
6
CONTINUOUS
10
0.342218188976378
20
1.551892125984252
11
0.3372544488188977
21
1.5505621259842519
0
LINE
8
BLACK
6
CONTINUOUS
10
0.3372544488188977
20
1.5505621259842519
11
0.2953149606299212
21
1.5503937007874016
0
LINE
8
BLACK
6
CONTINUOUS
10
0.2953149606299212
20
1.5503937007874016
11
0.2927455511811023
21
1.5505621259842519
0
LINE
8
BLACK
6
CONTINUOUS
10
0.2927455511811023
20
1.5505621259842519
11
0.287781811023622
21
1.551892125984252
0
LINE
8
BLACK
6
CONTINUOUS
10
0.287781811023622
20
1.551892125984252
11
0.2833314566929134
21
1.5544615354330709
0
LINE
8
BLACK
6
CONTINUOUS
10
0.2833314566929134
20
1.5544615354330709
11
0.2796977559055118
21
1.5580952362204723
0
LINE
8
BLACK
6
CONTINUOUS
10
0.2796977559055118
20
1.5580952362204723
11
0.2771283464566929
21
1.5625455905511811
0
LINE
8
BLACK
6
CONTINUOUS
10
0.2771283464566929
20
1.5625455905511811
11
0.2757983464566929
21
1.5675093307086614
0
LINE
8
BLACK
6
CONTINUOUS
10
0.2757983464566929
20
1.5675093307086614
11
0.2757983464566929
21
1.5726481496062992
0
LINE
8
BLACK
6
CONTINUOUS
10
0.2757983464566929
20
1.5726481496062992
11
0.2771283464566929
21
1.5776118897637794
0
LINE
8
BLACK
6
CONTINUOUS
10
0.2771283464566929
20
1.5776118897637794
11
0.2796977559055118
21
1.5820622440944883
0
LINE
8
BLACK
6
CONTINUOUS
10
0.2796977559055118
20
1.5820622440944883
11
0.2833314566929134
21
1.5856959448818897
0
LINE
8
BLACK
6
CONTINUOUS
10
0.2833314566929134
20
1.5856959448818897
11
0.287781811023622
21
1.5882653543307086
0
LINE
8
BLACK
6
CONTINUOUS
10
0.287781811023622
20
1.5882653543307086
11
0.2927455511811023
21
1.5895953543307086
0
LINE
8
BLACK
6
CONTINUOUS
10
0.2927455511811023
20
1.5895953543307086
11
0.3346850393700787
21
1.589763779527559
0
LINE
8
BLACK
6
CONTINUOUS
10
0.3346850393700787
20
1.589763779527559
11
0.3372544488188977
21
1.5895953543307086
0
LINE
8
BLACK
6
CONTINUOUS
10
0.4515748031496063
20
1.7011811023622048
11
0.2940944881889764
21
1.7011811023622048
0
LINE
8
BLACK
6
CONTINUOUS
10
0.2940944881889764
20
1.7011811023622048
11
0.2940944881889764
21
1.8586614173228346
0
LINE
8
BLACK
6
CONTINUOUS
10
0.2940944881889764
20
1.8586614173228346
11
0.4515748031496063
21
1.8586614173228346
0
LINE
8
BLACK
6
CONTINUOUS
10
0.4515748031496063
20
1.8586614173228346
11
0.4515748031496063
21
1.7011811023622048
0
LINE
8
BLACK
6
CONTINUOUS
10
3.3059055118110234
20
1.7011811023622048
11
3.1484251968503938
21
1.7011811023622048
0
LINE
8
BLACK
6
CONTINUOUS
10
3.1484251968503938
20
1.7011811023622048
11
3.1484251968503938
21
1.8586614173228346
0
LINE
8
BLACK
6
CONTINUOUS
10
3.1484251968503938
20
1.8586614173228346
11
3.3059055118110234
21
1.8586614173228346
0
LINE
8
BLACK
6
CONTINUOUS
10
3.3059055118110234
20
1.8586614173228346
11
3.3059055118110234
21
1.7011811023622048
0
LINE
8
BLACK
6
CONTINUOUS
10
2.8741760236220473
20
1.804809842519685
11
2.8773691732283462
21
1.8026762598425197
0
LINE
8
BLACK
6
CONTINUOUS
10
2.8773691732283462
20
1.8026762598425197
11
2.8795027559055115
21
1.7994831102362205
0
LINE
8
BLACK
6
CONTINUOUS
10
2.8795027559055115
20
1.7994831102362205
11
2.8802519685039369
21
1.7957165354330709
0
LINE
8
BLACK
6
CONTINUOUS
10
2.8802519685039369
20
1.7957165354330709
11
2.8802519685039369
21
1.7602834645669292
0
LINE
8
BLACK
6
CONTINUOUS
10
2.8802519685039369
20
1.7602834645669292
11
2.8795027559055115
21
1.7565168897637795
0
LINE
8
BLACK
6
CONTINUOUS
10
2.8795027559055115
20
1.7565168897637795
11
2.8773691732283462
21
1.7533237401574804
0
LINE
8
BLACK
6
CONTINUOUS
10
2.8773691732283462
20
1.7533237401574804
11
2.8741760236220473
21
1.7511901574803148
0
LINE
8
BLACK
6
CONTINUOUS
10
2.8741760236220473
20
1.7511901574803148
11
2.8704094488188976
21
1.7504409448818896
0
LINE
8
BLACK
6
CONTINUOUS
10
2.8704094488188976
20
1.7504409448818896
11
2.8497401574803147
21
1.7504409448818896
0
LINE
8
BLACK
6
CONTINUOUS
10
2.8497401574803147
20
1.7504409448818896
11
2.8459735826771655
21
1.7511901574803148
0
LINE
8
BLACK
6
CONTINUOUS
10
2.8459735826771655
20
1.7511901574803148
11
2.8427804330708661
21
1.7533237401574804
0
LINE
8
BLACK
6
CONTINUOUS
10
2.8427804330708661
20
1.7533237401574804
11
2.8406468503937008
21
1.7565168897637795
0
LINE
8
BLACK
6
CONTINUOUS
10
2.8406468503937008
20
1.7565168897637795
11
2.8398976377952754
21
1.7602834645669292
0
LINE
8
BLACK
6
CONTINUOUS
10
2.8398976377952754
20
1.7602834645669292
11
2.8398976377952754
21
1.7957165354330709
0
LINE
8
BLACK
6
CONTINUOUS
10
2.8398976377952754
20
1.7957165354330709
11
2.8406468503937008
21
1.7994831102362205
0
LINE
8
BLACK
6
CONTINUOUS
10
2.8406468503937008
20
1.7994831102362205
11
2.8427804330708661
21
1.8026762598425197
0
LINE
8
BLACK
6
CONTINUOUS
10
2.8427804330708661
20
1.8026762598425197
11
2.8459735826771655
21
1.804809842519685
0
LINE
8
BLACK
6
CONTINUOUS
10
2.8459735826771655
20
1.804809842519685
11
2.8497401574803147
21
1.8055590551181102
0
LINE
8
BLACK
6
CONTINUOUS
10
2.8497401574803147
20
1.8055590551181102
11
2.8704094488188976
21
1.8055590551181102
0
LINE
8
BLACK
6
CONTINUOUS
10
2.8704094488188976
20
1.8055590551181102
11
2.8741760236220473
21
1.804809842519685
0
LINE
8
BLACK
6
CONTINUOUS
10
2.9460264173228348
20
1.804809842519685
11
2.9492195669291337
21
1.8026762598425197
0
LINE
8
BLACK
6
CONTINUOUS
10
2.9492195669291337
20
1.8026762598425197
11
2.951353149606299
21
1.7994831102362205
0
LINE
8
BLACK
6
CONTINUOUS
10
2.951353149606299
20
1.7994831102362205
11
2.9521023622047244
21
1.7957165354330709
0
LINE
8
BLACK
6
CONTINUOUS
10
2.9521023622047244
20
1.7957165354330709
11
2.9521023622047244
21
1.7602834645669292
0
LINE
8
BLACK
6
CONTINUOUS
10
2.9521023622047244
20
1.7602834645669292
11
2.951353149606299
21
1.7565168897637795
0
LINE
8
BLACK
6
CONTINUOUS
10
2.951353149606299
20
1.7565168897637795
11
2.9492195669291337
21
1.7533237401574804
0
LINE
8
BLACK
6
CONTINUOUS
10
2.9492195669291337
20
1.7533237401574804
11
2.9460264173228348
21
1.7511901574803148
0
LINE
8
BLACK
6
CONTINUOUS
10
2.9460264173228348
20
1.7511901574803148
11
2.9422598425196851
21
1.7504409448818896
0
LINE
8
BLACK
6
CONTINUOUS
10
2.9422598425196851
20
1.7504409448818896
11
2.9215905511811022
21
1.7504409448818896
0
LINE
8
BLACK
6
CONTINUOUS
10
2.9215905511811022
20
1.7504409448818896
11
2.9178239763779525
21
1.7511901574803148
0
LINE
8
BLACK
6
CONTINUOUS
10
2.9178239763779525
20
1.7511901574803148
11
2.9146308267716536
21
1.7533237401574804
0
LINE
8
BLACK
6
CONTINUOUS
10
2.9146308267716536
20
1.7533237401574804
11
2.9124972440944883
21
1.7565168897637795
0
LINE
8
BLACK
6
CONTINUOUS
10
2.9124972440944883
20
1.7565168897637795
11
2.9117480314960629
21
1.7602834645669292
0
LINE
8
BLACK
6
CONTINUOUS
10
2.9117480314960629
20
1.7602834645669292
11
2.9117480314960629
21
1.7957165354330709
0
LINE
8
BLACK
6
CONTINUOUS
10
2.9117480314960629
20
1.7957165354330709
11
2.9124972440944883
21
1.7994831102362205
0
LINE
8
BLACK
6
CONTINUOUS
10
2.9124972440944883
20
1.7994831102362205
11
2.9146308267716536
21
1.8026762598425197
0
LINE
8
BLACK
6
CONTINUOUS
10
2.9146308267716536
20
1.8026762598425197
11
2.9178239763779525
21
1.804809842519685
0
LINE
8
BLACK
6
CONTINUOUS
10
2.9178239763779525
20
1.804809842519685
11
2.9215905511811022
21
1.8055590551181102
0
LINE
8
BLACK
6
CONTINUOUS
10
2.9215905511811022
20
1.8055590551181102
11
2.9422598425196851
21
1.8055590551181102
0
LINE
8
BLACK
6
CONTINUOUS
10
2.9422598425196851
20
1.8055590551181102
11
2.9460264173228348
21
1.804809842519685
0
LINE
8
BLACK
6
CONTINUOUS
10
0.8280000393700787
20
2.2012204724409448
11
0.6780000393700787
21
2.2012204724409448
0
LINE
8
BLACK
6
CONTINUOUS
10
0.6780000393700787
20
2.2012204724409448
11
0.6780000393700787
21
2.3512204724409447
0
LINE
8
BLACK
6
CONTINUOUS
10
0.6780000393700787
20
2.3512204724409447
11
0.8280000393700787
21
2.3512204724409447
0
LINE
8
BLACK
6
CONTINUOUS
10
0.8280000393700787
20
2.3512204724409447
11
0.8280000393700787
21
2.2012204724409448
0
LINE
8
BLACK
6
CONTINUOUS
10
1.0248504330708661
20
2.2012204724409448
11
0.8748504330708661
21
2.2012204724409448
0
LINE
8
BLACK
6
CONTINUOUS
10
0.8748504330708661
20
2.2012204724409448
11
0.8748504330708661
21
2.3512204724409447
0
LINE
8
BLACK
6
CONTINUOUS
10
0.8748504330708661
20
2.3512204724409447
11
1.0248504330708661
21
2.3512204724409447
0
LINE
8
BLACK
6
CONTINUOUS
10
1.0248504330708661
20
2.3512204724409447
11
1.0248504330708661
21
2.2012204724409448
0
LINE
8
BLACK
6
CONTINUOUS
10
2.7999999999999998
20
2.239999960629921
11
2.7399999999999998
21
2.239999960629921
0
LINE
8
BLACK
6
CONTINUOUS
10
2.7399999999999998
20
2.239999960629921
11
2.7399999999999998
21
2.2999999606299211
0
LINE
8
BLACK
6
CONTINUOUS
10
2.7399999999999998
20
2.2999999606299211
11
2.7999999999999998
21
2.2999999606299211
0
LINE
8
BLACK
6
CONTINUOUS
10
2.7999999999999998
20
2.2999999606299211
11
2.7999999999999998
21
2.239999960629921
0
LINE
8
BLACK
6
CONTINUOUS
10
2.6000000000000001
20
2.2399999999999998
11
2.54
21
2.2399999999999998
0
LINE
8
BLACK
6
CONTINUOUS
10
2.54
20
2.2399999999999998
11
2.54
21
2.2999999999999998
0
LINE
8
BLACK
6
CONTINUOUS
10
2.54
20
2.2999999999999998
11
2.6000000000000001
21
2.2999999999999998
0
LINE
8
BLACK
6
CONTINUOUS
10
2.6000000000000001
20
2.2999999999999998
11
2.6000000000000001
21
2.2399999999999998
0
LINE
8
BLACK
6
CONTINUOUS
10
2.6999999999999997
20
2.2399999999999998
11
2.6400000000000001
21
2.2399999999999998
0
LINE
8
BLACK
6
CONTINUOUS
10
2.6400000000000001
20
2.2399999999999998
11
2.6400000000000001
21
2.2999999999999998
0
LINE
8
BLACK
6
CONTINUOUS
10
2.6400000000000001
20
2.2999999999999998
11
2.6999999999999997
21
2.2999999999999998
0
LINE
8
BLACK
6
CONTINUOUS
10
2.6999999999999997
20
2.2999999999999998
11
2.6999999999999997
21
2.2399999999999998
0
LINE
8
BLACK
6
CONTINUOUS
10
2.8999999999999999
20
2.2399999999999998
11
2.8399999999999999
21
2.2399999999999998
0
LINE
8
BLACK
6
CONTINUOUS
10
2.8399999999999999
20
2.2399999999999998
11
2.8399999999999999
21
2.2999999999999998
0
LINE
8
BLACK
6
CONTINUOUS
10
2.8399999999999999
20
2.2999999999999998
11
2.8999999999999999
21
2.2999999999999998
0
LINE
8
BLACK
6
CONTINUOUS
10
2.8999999999999999
20
2.2999999999999998
11
2.8999999999999999
21
2.2399999999999998
0
LINE
8
BLACK
6
CONTINUOUS
10
3.
20
2.2399999999999998
11
2.9399999999999999
21
2.2399999999999998
0
LINE
8
BLACK
6
CONTINUOUS
10
2.9399999999999999
20
2.2399999999999998
11
2.9399999999999999
21
2.2999999999999998
0
LINE
8
BLACK
6
CONTINUOUS
10
2.9399999999999999
20
2.2999999999999998
11
3.
21
2.2999999999999998
0
LINE
8
BLACK
6
CONTINUOUS
10
3.
20
2.2999999999999998
11
3.
21
2.2399999999999998
0
LINE
8
BLACK
6
CONTINUOUS
10
0.4205096456692913
20
2.5163158661417322
11
0.4338744094488189
21
2.5131483858267716
0
LINE
8
BLACK
6
CONTINUOUS
10
0.4338744094488189
20
2.5131483858267716
11
0.446781062992126
21
2.5084507086614174
0
LINE
8
BLACK
6
CONTINUOUS
10
0.446781062992126
20
2.5084507086614174
11
0.4590551181102362
21
2.5022864566929135
0
LINE
8
BLACK
6
CONTINUOUS
10
0.4590551181102362
20
2.5022864566929135
11
0.4705305511811024
21
2.4947389763779526
0
LINE
8
BLACK
6
CONTINUOUS
10
0.4705305511811024
20
2.4947389763779526
11
0.4810521653543307
21
2.4859102755905513
0
LINE
8
BLACK
6
CONTINUOUS
10
0.4810521653543307
20
2.4859102755905513
11
0.4904776771653543
21
2.4759198031496061
0
LINE
8
BLACK
6
CONTINUOUS
10
0.4904776771653543
20
2.4759198031496061
11
0.4986796456692913
21
2.4649026377952756
0
LINE
8
BLACK
6
CONTINUOUS
10
0.4986796456692913
20
2.4649026377952756
11
0.5055471653543308
21
2.4530077952755907
0
LINE
8
BLACK
6
CONTINUOUS
10
0.5055471653543308
20
2.4530077952755907
11
0.5109873228346457
21
2.440396062992126
0
LINE
8
BLACK
6
CONTINUOUS
10
0.5109873228346457
20
2.440396062992126
11
0.5149265748031496
21
2.4272381102362206
0
LINE
8
BLACK
6
CONTINUOUS
10
0.5149265748031496
20
2.4272381102362206
11
0.5173116141732284
21
2.4137117716535434
0
LINE
8
BLACK
6
CONTINUOUS
10
0.5173116141732284
20
2.4137117716535434
11
0.5181102362204725
21
2.3999999999999999
0
LINE
8
BLACK
6
CONTINUOUS
10
0.5181102362204725
20
2.3999999999999999
11
0.5173116141732284
21
2.3862882283464568
0
LINE
8
BLACK
6
CONTINUOUS
10
0.5173116141732284
20
2.3862882283464568
11
0.5149265748031496
21
2.3727618897637797
0
LINE
8
BLACK
6
CONTINUOUS
10
0.5149265748031496
20
2.3727618897637797
11
0.5109873228346457
21
2.3596039370078739
0
LINE
8
BLACK
6
CONTINUOUS
10
0.5109873228346457
20
2.3596039370078739
11
0.5055471653543308
21
2.3469922047244096
0
LINE
8
BLACK
6
CONTINUOUS
10
0.5055471653543308
20
2.3469922047244096
11
0.4986796456692913
21
2.3350973622047242
0
LINE
8
BLACK
6
CONTINUOUS
10
0.4986796456692913
20
2.3350973622047242
11
0.4904776771653543
21
2.3240801968503937
0
LINE
8
BLACK
6
CONTINUOUS
10
0.4904776771653543
20
2.3240801968503937
11
0.4810521653543307
21
2.3140897244094489
0
LINE
8
BLACK
6
CONTINUOUS
10
0.4810521653543307
20
2.3140897244094489
11
0.4705305511811024
21
2.3052610236220472
0
LINE
8
BLACK
6
CONTINUOUS
10
0.4705305511811024
20
2.3052610236220472
11
0.4590551181102362
21
2.2977135433070868
0
LINE
8
BLACK
6
CONTINUOUS
10
0.4590551181102362
20
2.2977135433070868
11
0.446781062992126
21
2.2915492913385824
0
LINE
8
BLACK
6
CONTINUOUS
10
0.446781062992126
20
2.2915492913385824
11
0.4338744094488189
21
2.2868516141732282
0
LINE
8
BLACK
6
CONTINUOUS
10
0.4338744094488189
20
2.2868516141732282
11
0.4205096456692913
21
2.2836841338582676
0
LINE
8
BLACK
6
CONTINUOUS
10
0.4205096456692913
20
2.2836841338582676
11
0.4068674803149606
21
2.2820896062992126
0
LINE
8
BLACK
6
CONTINUOUS
10
0.4068674803149606
20
2.2820896062992126
11
0.3931325196850394
21
2.2820896062992126
0
LINE
8
BLACK
6
CONTINUOUS
10
0.3931325196850394
20
2.2820896062992126
11
0.3794903543307087
21
2.2836841338582676
0
LINE
8
BLACK
6
CONTINUOUS
10
0.3794903543307087
20
2.2836841338582676
11
0.3661255905511811
21
2.2868516141732282
0
LINE
8
BLACK
6
CONTINUOUS
10
0.3661255905511811
20
2.2868516141732282
11
0.353218937007874
21
2.2915492913385824
0
LINE
8
BLACK
6
CONTINUOUS
10
0.353218937007874
20
2.2915492913385824
11
0.3409448818897638
21
2.2977135433070868
0
LINE
8
BLACK
6
CONTINUOUS
10
0.3409448818897638
20
2.2977135433070868
11
0.3294694488188976
21
2.3052610236220472
0
LINE
8
BLACK
6
CONTINUOUS
10
0.3294694488188976
20
2.3052610236220472
11
0.3189478346456693
21
2.3140897244094489
0
LINE
8
BLACK
6
CONTINUOUS
10
0.3189478346456693
20
2.3140897244094489
11
0.3095223228346456
21
2.3240801968503937
0
LINE
8
BLACK
6
CONTINUOUS
10
0.3095223228346456
20
2.3240801968503937
11
0.3013203543307086
21
2.3350973622047242
0
LINE
8
BLACK
6
CONTINUOUS
10
0.3013203543307086
20
2.3350973622047242
11
0.2944528346456693
21
2.3469922047244096
0
LINE
8
BLACK
6
CONTINUOUS
10
0.2944528346456693
20
2.3469922047244096
11
0.2890126771653543
21
2.3596039370078739
0
LINE
8
BLACK
6
CONTINUOUS
10
0.2890126771653543
20
2.3596039370078739
11
0.2850734251968504
21
2.3727618897637797
0
LINE
8
BLACK
6
CONTINUOUS
10
0.2850734251968504
20
2.3727618897637797
11
0.2826883858267716
21
2.3862882283464568
0
LINE
8
BLACK
6
CONTINUOUS
10
0.2826883858267716
20
2.3862882283464568
11
0.2818897637795276
21
2.3999999999999999
0
LINE
8
BLACK
6
CONTINUOUS
10
0.2818897637795276
20
2.3999999999999999
11
0.2826883858267716
21
2.4137117716535434
0
LINE
8
BLACK
6
CONTINUOUS
10
0.2826883858267716
20
2.4137117716535434
11
0.2850734251968504
21
2.4272381102362206
0
LINE
8
BLACK
6
CONTINUOUS
10
0.2850734251968504
20
2.4272381102362206
11
0.2890126771653543
21
2.440396062992126
0
LINE
8
BLACK
6
CONTINUOUS
10
0.2890126771653543
20
2.440396062992126
11
0.2944528346456693
21
2.4530077952755907
0
LINE
8
BLACK
6
CONTINUOUS
10
0.2944528346456693
20
2.4530077952755907
11
0.3013203543307086
21
2.4649026377952756
0
LINE
8
BLACK
6
CONTINUOUS
10
0.3013203543307086
20
2.4649026377952756
11
0.3095223228346456
21
2.4759198031496061
0
LINE
8
BLACK
6
CONTINUOUS
10
0.3095223228346456
20
2.4759198031496061
11
0.3189478346456693
21
2.4859102755905513
0
LINE
8
BLACK
6
CONTINUOUS
10
0.3189478346456693
20
2.4859102755905513
11
0.3294694488188976
21
2.4947389763779526
0
LINE
8
BLACK
6
CONTINUOUS
10
0.3294694488188976
20
2.4947389763779526
11
0.3409448818897638
21
2.5022864566929135
0
LINE
8
BLACK
6
CONTINUOUS
10
0.3409448818897638
20
2.5022864566929135
11
0.353218937007874
21
2.5084507086614174
0
LINE
8
BLACK
6
CONTINUOUS
10
0.353218937007874
20
2.5084507086614174
11
0.3661255905511811
21
2.5131483858267716
0
LINE
8
BLACK
6
CONTINUOUS
10
0.3661255905511811
20
2.5131483858267716
11
0.3794903543307087
21
2.5163158661417322
0
LINE
8
BLACK
6
CONTINUOUS
10
0.3794903543307087
20
2.5163158661417322
11
0.3931325196850394
21
2.5179103937007872
0
LINE
8
BLACK
6
CONTINUOUS
10
0.3931325196850394
20
2.5179103937007872
11
0.4068674803149606
21
2.5179103937007872
0
LINE
8
BLACK
6
CONTINUOUS
10
0.4068674803149606
20
2.5179103937007872
11
0.4205096456692913
21
2.5163158661417322
0
LINE
8
BLACK
6
CONTINUOUS
10
3.2205096456692912
20
2.5163158661417322
11
3.233874409448819
21
2.5131483858267716
0
LINE
8
BLACK
6
CONTINUOUS
10
3.233874409448819
20
2.5131483858267716
11
3.2467810629921261
21
2.5084507086614174
0
LINE
8
BLACK
6
CONTINUOUS
10
3.2467810629921261
20
2.5084507086614174
11
3.2590551181102363
21
2.5022864566929135
0
LINE
8
BLACK
6
CONTINUOUS
10
3.2590551181102363
20
2.5022864566929135
11
3.2705305511811025
21
2.4947389763779526
0
LINE
8
BLACK
6
CONTINUOUS
10
3.2705305511811025
20
2.4947389763779526
11
3.2810521653543305
21
2.4859102755905513
0
LINE
8
BLACK
6
CONTINUOUS
10
3.2810521653543305
20
2.4859102755905513
11
3.2904776771653541
21
2.4759198031496061
0
LINE
8
BLACK
6
CONTINUOUS
10
3.2904776771653541
20
2.4759198031496061
11
3.2986796456692913
21
2.4649026377952756
0
LINE
8
BLACK
6
CONTINUOUS
10
3.2986796456692913
20
2.4649026377952756
11
3.3055471653543305
21
2.4530077952755907
0
LINE
8
BLACK
6
CONTINUOUS
10
3.3055471653543305
20
2.4530077952755907
11
3.3109873228346456
21
2.440396062992126
0
LINE
8
BLACK
6
CONTINUOUS
10
3.3109873228346456
20
2.440396062992126
11
3.3149265748031493
21
2.4272381102362206
0
LINE
8
BLACK
6
CONTINUOUS
10
3.3149265748031493
20
2.4272381102362206
11
3.3173116141732284
21
2.4137117716535434
0
LINE
8
BLACK
6
CONTINUOUS
10
3.3173116141732284
20
2.4137117716535434
11
3.3181102362204724
21
2.3999999999999999
0
LINE
8
BLACK
6
CONTINUOUS
10
3.3181102362204724
20
2.3999999999999999
11
3.3173116141732284
21
2.3862882283464568
0
LINE
8
BLACK
6
CONTINUOUS
10
3.3173116141732284
20
2.3862882283464568
11
3.3149265748031493
21
2.3727618897637797
0
LINE
8
BLACK
6
CONTINUOUS
10
3.3149265748031493
20
2.3727618897637797
11
3.3109873228346456
21
2.3596039370078739
0
LINE
8
BLACK
6
CONTINUOUS
10
3.3109873228346456
20
2.3596039370078739
11
3.3055471653543305
21
2.3469922047244096
0
LINE
8
BLACK
6
CONTINUOUS
10
3.3055471653543305
20
2.3469922047244096
11
3.2986796456692913
21
2.3350973622047242
0
LINE
8
BLACK
6
CONTINUOUS
10
3.2986796456692913
20
2.3350973622047242
11
3.2904776771653541
21
2.3240801968503937
0
LINE
8
BLACK
6
CONTINUOUS
10
3.2904776771653541
20
2.3240801968503937
11
3.2810521653543305
21
2.3140897244094489
0
LINE
8
BLACK
6
CONTINUOUS
10
3.2810521653543305
20
2.3140897244094489
11
3.2705305511811025
21
2.3052610236220472
0
LINE
8
BLACK
6
CONTINUOUS
10
3.2705305511811025
20
2.3052610236220472
11
3.2590551181102363
21
2.2977135433070868
0
LINE
8
BLACK
6
CONTINUOUS
10
3.2590551181102363
20
2.2977135433070868
11
3.2467810629921261
21
2.2915492913385824
0
LINE
8
BLACK
6
CONTINUOUS
10
3.2467810629921261
20
2.2915492913385824
11
3.233874409448819
21
2.2868516141732282
0
LINE
8
BLACK
6
CONTINUOUS
10
3.233874409448819
20
2.2868516141732282
11
3.2205096456692912
21
2.2836841338582676
0
LINE
8
BLACK
6
CONTINUOUS
10
3.2205096456692912
20
2.2836841338582676
11
3.2068674803149606
21
2.2820896062992126
0
LINE
8
BLACK
6
CONTINUOUS
10
3.2068674803149606
20
2.2820896062992126
11
3.1931325196850393
21
2.2820896062992126
0
LINE
8
BLACK
6
CONTINUOUS
10
3.1931325196850393
20
2.2820896062992126
11
3.1794903543307087
21
2.2836841338582676
0
LINE
8
BLACK
6
CONTINUOUS
10
3.1794903543307087
20
2.2836841338582676
11
3.1661255905511809
21
2.2868516141732282
0
LINE
8
BLACK
6
CONTINUOUS
10
3.1661255905511809
20
2.2868516141732282
11
3.1532189370078738
21
2.2915492913385824
0
LINE
8
BLACK
6
CONTINUOUS
10
3.1532189370078738
20
2.2915492913385824
11
3.1409448818897636
21
2.2977135433070868
0
LINE
8
BLACK
6
CONTINUOUS
10
3.1409448818897636
20
2.2977135433070868
11
3.1294694488188974
21
2.3052610236220472
0
LINE
8
BLACK
6
CONTINUOUS
10
3.1294694488188974
20
2.3052610236220472
11
3.1189478346456694
21
2.3140897244094489
0
LINE
8
BLACK
6
CONTINUOUS
10
3.1189478346456694
20
2.3140897244094489
11
3.1095223228346458
21
2.3240801968503937
0
LINE
8
BLACK
6
CONTINUOUS
10
3.1095223228346458
20
2.3240801968503937
11
3.1013203543307086
21
2.3350973622047242
0
LINE
8
BLACK
6
CONTINUOUS
10
3.1013203543307086
20
2.3350973622047242
11
3.094452834645669
21
2.3469922047244096
0
LINE
8
BLACK
6
CONTINUOUS
10
3.094452834645669
20
2.3469922047244096
11
3.0890126771653543
21
2.3596039370078739
0
LINE
8
BLACK
6
CONTINUOUS
10
3.0890126771653543
20
2.3596039370078739
11
3.0850734251968501
21
2.3727618897637797
0
LINE
8
BLACK
6
CONTINUOUS
10
3.0850734251968501
20
2.3727618897637797
11
3.0826883858267715
21
2.3862882283464568
0
LINE
8
BLACK
6
CONTINUOUS
10
3.0826883858267715
20
2.3862882283464568
11
3.0818897637795275
21
2.3999999999999999
0
LINE
8
BLACK
6
CONTINUOUS
10
3.0818897637795275
20
2.3999999999999999
11
3.0826883858267715
21
2.4137117716535434
0
LINE
8
BLACK
6
CONTINUOUS
10
3.0826883858267715
20
2.4137117716535434
11
3.0850734251968501
21
2.4272381102362206
0
LINE
8
BLACK
6
CONTINUOUS
10
3.0850734251968501
20
2.4272381102362206
11
3.0890126771653543
21
2.440396062992126
0
LINE
8
BLACK
6
CONTINUOUS
10
3.0890126771653543
20
2.440396062992126
11
3.094452834645669
21
2.4530077952755907
0
LINE
8
BLACK
6
CONTINUOUS
10
3.094452834645669
20
2.4530077952755907
11
3.1013203543307086
21
2.4649026377952756
0
LINE
8
BLACK
6
CONTINUOUS
10
3.1013203543307086
20
2.4649026377952756
11
3.1095223228346458
21
2.4759198031496061
0
LINE
8
BLACK
6
CONTINUOUS
10
3.1095223228346458
20
2.4759198031496061
11
3.1189478346456694
21
2.4859102755905513
0
LINE
8
BLACK
6
CONTINUOUS
10
3.1189478346456694
20
2.4859102755905513
11
3.1294694488188974
21
2.4947389763779526
0
LINE
8
BLACK
6
CONTINUOUS
10
3.1294694488188974
20
2.4947389763779526
11
3.1409448818897636
21
2.5022864566929135
0
LINE
8
BLACK
6
CONTINUOUS
10
3.1409448818897636
20
2.5022864566929135
11
3.1532189370078738
21
2.5084507086614174
0
LINE
8
BLACK
6
CONTINUOUS
10
3.1532189370078738
20
2.5084507086614174
11
3.1661255905511809
21
2.5131483858267716
0
LINE
8
BLACK
6
CONTINUOUS
10
3.1661255905511809
20
2.5131483858267716
11
3.1794903543307087
21
2.5163158661417322
0
LINE
8
BLACK
6
CONTINUOUS
10
3.1794903543307087
20
2.5163158661417322
11
3.1931325196850393
21
2.5179103937007872
0
LINE
8
BLACK
6
CONTINUOUS
10
3.1931325196850393
20
2.5179103937007872
11
3.2068674803149606
21
2.5179103937007872
0
LINE
8
BLACK
6
CONTINUOUS
10
3.2068674803149606
20
2.5179103937007872
11
3.2205096456692912
21
2.5163158661417322
0
LINE
8
BLACK
6
CONTINUOUS
10
1.8574999999999999
20
2.3088976377952757
11
1.7974999999999999
21
2.3088976377952757
0
LINE
8
BLACK
6
CONTINUOUS
10
1.7974999999999999
20
2.3088976377952757
11
1.7974999999999999
21
2.3688976377952757
0
LINE
8
BLACK
6
CONTINUOUS
10
1.7974999999999999
20
2.3688976377952757
11
1.8574999999999999
21
2.3688976377952757
0
LINE
8
BLACK
6
CONTINUOUS
10
1.8574999999999999
20
2.3688976377952757
11
1.8574999999999999
21
2.3088976377952757
0
LINE
8
BLACK
6
CONTINUOUS
10
2.6000000000000001
20
2.3399999999999999
11
2.54
21
2.3399999999999999
0
LINE
8
BLACK
6
CONTINUOUS
10
2.54
20
2.3399999999999999
11
2.54
21
2.3999999999999999
0
LINE
8
BLACK
6
CONTINUOUS
10
2.54
20
2.3999999999999999
11
2.6000000000000001
21
2.3999999999999999
0
LINE
8
BLACK
6
CONTINUOUS
10
2.6000000000000001
20
2.3999999999999999
11
2.6000000000000001
21
2.3399999999999999
0
LINE
8
BLACK
6
CONTINUOUS
10
2.6999999999999997
20
2.3399999999999999
11
2.6400000000000001
21
2.3399999999999999
0
LINE
8
BLACK
6
CONTINUOUS
10
2.6400000000000001
20
2.3399999999999999
11
2.6400000000000001
21
2.3999999999999999
0
LINE
8
BLACK
6
CONTINUOUS
10
2.6400000000000001
20
2.3999999999999999
11
2.6999999999999997
21
2.3999999999999999
0
LINE
8
BLACK
6
CONTINUOUS
10
2.6999999999999997
20
2.3999999999999999
11
2.6999999999999997
21
2.3399999999999999
0
LINE
8
BLACK
6
CONTINUOUS
10
2.8999999999999999
20
2.3399999999999999
11
2.8399999999999999
21
2.3399999999999999
0
LINE
8
BLACK
6
CONTINUOUS
10
2.8399999999999999
20
2.3399999999999999
11
2.8399999999999999
21
2.3999999999999999
0
LINE
8
BLACK
6
CONTINUOUS
10
2.8399999999999999
20
2.3999999999999999
11
2.8999999999999999
21
2.3999999999999999
0
LINE
8
BLACK
6
CONTINUOUS
10
2.8999999999999999
20
2.3999999999999999
11
2.8999999999999999
21
2.3399999999999999
0
LINE
8
BLACK
6
CONTINUOUS
10
3.
20
2.3399999999999999
11
2.9399999999999999
21
2.3399999999999999
0
LINE
8
BLACK
6
CONTINUOUS
10
2.9399999999999999
20
2.3399999999999999
11
2.9399999999999999
21
2.3999999999999999
0
LINE
8
BLACK
6
CONTINUOUS
10
2.9399999999999999
20
2.3999999999999999
11
3.
21
2.3999999999999999
0
LINE
8
BLACK
6
CONTINUOUS
10
3.
20
2.3999999999999999
11
3.
21
2.3399999999999999
0
LINE
8
BLACK
6
CONTINUOUS
10
2.7999999999999998
20
2.3400000393700786
11
2.7399999999999998
21
2.3400000393700786
0
LINE
8
BLACK
6
CONTINUOUS
10
2.7399999999999998
20
2.3400000393700786
11
2.7399999999999998
21
2.4000000393700787
0
LINE
8
BLACK
6
CONTINUOUS
10
2.7399999999999998
20
2.4000000393700787
11
2.7999999999999998
21
2.4000000393700787
0
LINE
8
BLACK
6
CONTINUOUS
10
2.7999999999999998
20
2.4000000393700787
11
2.7999999999999998
21
2.3400000393700786
0
LINE
8
BLACK
6
CONTINUOUS
10
2.2650000000000001
20
2.355
11
2.2050000000000001
21
2.355
0
LINE
8
BLACK
6
CONTINUOUS
10
2.2050000000000001
20
2.355
11
2.2050000000000001
21
2.415
0
LINE
8
BLACK
6
CONTINUOUS
10
2.2050000000000001
20
2.415
11
2.2650000000000001
21
2.415
0
LINE
8
BLACK
6
CONTINUOUS
10
2.2650000000000001
20
2.415
11
2.2650000000000001
21
2.355
0
LINE
8
BLACK
6
CONTINUOUS
10
2.3649999999999998
20
2.355
11
2.3050000000000002
21
2.355
0
LINE
8
BLACK
6
CONTINUOUS
10
2.3050000000000002
20
2.355
11
2.3050000000000002
21
2.415
0
LINE
8
BLACK
6
CONTINUOUS
10
2.3050000000000002
20
2.415
11
2.3649999999999998
21
2.415
0
LINE
8
BLACK
6
CONTINUOUS
10
2.3649999999999998
20
2.415
11
2.3649999999999998
21
2.355
0
LINE
8
BLACK
6
CONTINUOUS
10
0.828
20
2.3982204724409448
11
0.6779999999999999
21
2.3982204724409448
0
LINE
8
BLACK
6
CONTINUOUS
10
0.6779999999999999
20
2.3982204724409448
11
0.6779999999999999
21
2.5482204724409447
0
LINE
8
BLACK
6
CONTINUOUS
10
0.6779999999999999
20
2.5482204724409447
11
0.828
21
2.5482204724409447
0
LINE
8
BLACK
6
CONTINUOUS
10
0.828
20
2.5482204724409447
11
0.828
21
2.3982204724409448
0
LINE
8
BLACK
6
CONTINUOUS
10
1.0248503937007873
20
2.3982204724409448
11
0.8748503937007874
21
2.3982204724409448
0
LINE
8
BLACK
6
CONTINUOUS
10
0.8748503937007874
20
2.3982204724409448
11
0.8748503937007874
21
2.5482204724409447
0
LINE
8
BLACK
6
CONTINUOUS
10
0.8748503937007874
20
2.5482204724409447
11
1.0248503937007873
21
2.5482204724409447
0
LINE
8
BLACK
6
CONTINUOUS
10
1.0248503937007873
20
2.5482204724409447
11
1.0248503937007873
21
2.3982204724409448
0
LINE
8
BLACK
6
CONTINUOUS
10
1.8574999999999999
20
2.4088976377952753
11
1.7974999999999999
21
2.4088976377952753
0
LINE
8
BLACK
6
CONTINUOUS
10
1.7974999999999999
20
2.4088976377952753
11
1.7974999999999999
21
2.4688976377952754
0
LINE
8
BLACK
6
CONTINUOUS
10
1.7974999999999999
20
2.4688976377952754
11
1.8574999999999999
21
2.4688976377952754
0
LINE
8
BLACK
6
CONTINUOUS
10
1.8574999999999999
20
2.4688976377952754
11
1.8574999999999999
21
2.4088976377952753
0
LINE
8
BLACK
6
CONTINUOUS
10
2.2650000000000001
20
2.4550000000000001
11
2.2050000000000001
21
2.4550000000000001
0
LINE
8
BLACK
6
CONTINUOUS
10
2.2050000000000001
20
2.4550000000000001
11
2.2050000000000001
21
2.5150000000000001
0
LINE
8
BLACK
6
CONTINUOUS
10
2.2050000000000001
20
2.5150000000000001
11
2.2650000000000001
21
2.5150000000000001
0
LINE
8
BLACK
6
CONTINUOUS
10
2.2650000000000001
20
2.5150000000000001
11
2.2650000000000001
21
2.4550000000000001
0
LINE
8
BLACK
6
CONTINUOUS
10
2.3649999999999998
20
2.4550000000000001
11
2.3050000000000002
21
2.4550000000000001
0
LINE
8
BLACK
6
CONTINUOUS
10
2.3050000000000002
20
2.4550000000000001
11
2.3050000000000002
21
2.5150000000000001
0
LINE
8
BLACK
6
CONTINUOUS
10
2.3050000000000002
20
2.5150000000000001
11
2.3649999999999998
21
2.5150000000000001
0
LINE
8
BLACK
6
CONTINUOUS
10
2.3649999999999998
20
2.5150000000000001
11
2.3649999999999998
21
2.4550000000000001
  0
ENDSEC
  0
EOF
