  0
SECTION
  2
HEADER
  9
$ANGBASE
  50
0.0
  9
$ANGDIR
  70
1
  9
$MEASUREMENT
  70
0
  0
ENDSEC
  0
SECTION
  2
TABLES
  0
TABLE
  2
LTYPE
  70
4
  0
LTYPE
  5
40F
  2
CONTINUOUS
  70
0
  3
Solid line
  72
65
  73
0
  40
0.0
  0
LTYPE
  5
410
  2
DASHDOT
 70
0
  3
Dash Dot ____ _ ____ _
 72
65
 73
4
 40
2.0
 49
1.25
 49
-0.25
 49
0.25
 49
-0.25
  0
LTYPE
  5
411
  2
DASHED
 70
0
  3
Dashed __ __ __ __ __
 72
65
 73
2
 40
0.75
 49
0.5
 49
-0.25
  0
LTYPE
  5
43B
  2
DOTTED
 70
0
  3
Dotted .  .  .  .
 72
65
 73
2
 40
0.2
 49
0.0
 49
-0.2
  0
ENDTAB
  0
TABLE
  2
STYLE
  70
4
  0
STYLE
  2
KICAD
  70
0
  40
0
  41
1
  42
1
  50
0
  71
0
  3
isocp.shx
  0
STYLE
  2
KICADB
  70
0
  40
0
  41
1
  42
1
  50
0
  71
0
  3
isocp.shx
  0
STYLE
  2
KICADI
  70
0
  40
0
  41
1
  42
1
  50
15
  71
0
  3
isocp.shx
  0
STYLE
  2
KICADBI
  70
0
  40
0
  41
1
  42
1
  50
15
  71
0
  3
isocp.shx
  0
ENDTAB
  0
TABLE
  2
LAYER
  70
1
  0
LAYER
  2
BLACK
  70
0
  62
7
  6
CONTINUOUS
  0
ENDTAB
  0
ENDSEC
  0
SECTION
  2
ENTITIES
0
LINE
8
BLACK
6
CONTINUOUS
10
3.4537165748031495
20
0.2044342519685039
11
3.4621683464566928
21
0.2021696062992126
0
LINE
8
BLACK
6
CONTINUOUS
10
3.4621683464566928
20
0.2021696062992126
11
3.4700984251968503
21
0.1984717322834646
0
LINE
8
BLACK
6
CONTINUOUS
10
3.4700984251968503
20
0.1984717322834646
11
3.4772659055118109
21
0.193453031496063
0
LINE
8
BLACK
6
CONTINUOUS
10
3.4772659055118109
20
0.193453031496063
11
3.483453031496063
21
0.187265905511811
0
LINE
8
BLACK
6
CONTINUOUS
10
3.483453031496063
20
0.187265905511811
11
3.4884717322834646
21
0.1800984251968504
0
LINE
8
BLACK
6
CONTINUOUS
10
3.4884717322834646
20
0.1800984251968504
11
3.4921696062992127
21
0.1721683464566929
0
LINE
8
BLACK
6
CONTINUOUS
10
3.4921696062992127
20
0.1721683464566929
11
3.4944342519685039
21
0.1637165748031496
0
LINE
8
BLACK
6
CONTINUOUS
10
3.4944342519685039
20
0.1637165748031496
11
3.4951968503937008
21
0.155
0
LINE
8
BLACK
6
CONTINUOUS
10
3.4951968503937008
20
0.155
11
3.4944342519685039
21
0.1462834251968504
0
LINE
8
BLACK
6
CONTINUOUS
10
3.4944342519685039
20
0.1462834251968504
11
3.4921696062992127
21
0.1378316535433071
0
LINE
8
BLACK
6
CONTINUOUS
10
3.4921696062992127
20
0.1378316535433071
11
3.4884717322834646
21
0.1299015748031496
0
LINE
8
BLACK
6
CONTINUOUS
10
3.4884717322834646
20
0.1299015748031496
11
3.483453031496063
21
0.122734094488189
0
LINE
8
BLACK
6
CONTINUOUS
10
3.483453031496063
20
0.122734094488189
11
3.4772659055118109
21
0.116546968503937
0
LINE
8
BLACK
6
CONTINUOUS
10
3.4772659055118109
20
0.116546968503937
11
3.4700984251968503
21
0.1115282677165354
0
LINE
8
BLACK
6
CONTINUOUS
10
3.4700984251968503
20
0.1115282677165354
11
3.4621683464566928
21
0.1078303937007874
0
LINE
8
BLACK
6
CONTINUOUS
10
3.4621683464566928
20
0.1078303937007874
11
3.4537165748031495
21
0.1055657480314961
0
LINE
8
BLACK
6
CONTINUOUS
10
3.4537165748031495
20
0.1055657480314961
11
3.4449999999999998
21
0.1048031496062992
0
LINE
8
BLACK
6
CONTINUOUS
10
3.4449999999999998
20
0.1048031496062992
11
3.4362834251968501
21
0.1055657480314961
0
LINE
8
BLACK
6
CONTINUOUS
10
3.4362834251968501
20
0.1055657480314961
11
3.4278316535433069
21
0.1078303937007874
0
LINE
8
BLACK
6
CONTINUOUS
10
3.4278316535433069
20
0.1078303937007874
11
3.4199015748031494
21
0.1115282677165354
0
LINE
8
BLACK
6
CONTINUOUS
10
3.4199015748031494
20
0.1115282677165354
11
3.4127340944881888
21
0.116546968503937
0
LINE
8
BLACK
6
CONTINUOUS
10
3.4127340944881888
20
0.116546968503937
11
3.4065469685039371
21
0.122734094488189
0
LINE
8
BLACK
6
CONTINUOUS
10
3.4065469685039371
20
0.122734094488189
11
3.4015282677165355
21
0.1299015748031496
0
LINE
8
BLACK
6
CONTINUOUS
10
3.4015282677165355
20
0.1299015748031496
11
3.3978303937007874
21
0.1378316535433071
0
LINE
8
BLACK
6
CONTINUOUS
10
3.3978303937007874
20
0.1378316535433071
11
3.3955657480314958
21
0.1462834251968504
0
LINE
8
BLACK
6
CONTINUOUS
10
3.3955657480314958
20
0.1462834251968504
11
3.3948031496062989
21
0.155
0
LINE
8
BLACK
6
CONTINUOUS
10
3.3948031496062989
20
0.155
11
3.3955657480314958
21
0.1637165748031496
0
LINE
8
BLACK
6
CONTINUOUS
10
3.3955657480314958
20
0.1637165748031496
11
3.3978303937007874
21
0.1721683464566929
0
LINE
8
BLACK
6
CONTINUOUS
10
3.3978303937007874
20
0.1721683464566929
11
3.4015282677165355
21
0.1800984251968504
0
LINE
8
BLACK
6
CONTINUOUS
10
3.4015282677165355
20
0.1800984251968504
11
3.4065469685039371
21
0.187265905511811
0
LINE
8
BLACK
6
CONTINUOUS
10
3.4065469685039371
20
0.187265905511811
11
3.4127340944881888
21
0.193453031496063
0
LINE
8
BLACK
6
CONTINUOUS
10
3.4127340944881888
20
0.193453031496063
11
3.4199015748031494
21
0.1984717322834646
0
LINE
8
BLACK
6
CONTINUOUS
10
3.4199015748031494
20
0.1984717322834646
11
3.4278316535433069
21
0.2021696062992126
0
LINE
8
BLACK
6
CONTINUOUS
10
3.4278316535433069
20
0.2021696062992126
11
3.4362834251968501
21
0.2044342519685039
0
LINE
8
BLACK
6
CONTINUOUS
10
3.4362834251968501
20
0.2044342519685039
11
3.4449999999999998
21
0.2051968503937008
0
LINE
8
BLACK
6
CONTINUOUS
10
3.4449999999999998
20
0.2051968503937008
11
3.4537165748031495
21
0.2044342519685039
0
LINE
8
BLACK
6
CONTINUOUS
10
3.3973229527559052
20
0.1465932283464567
11
3.399507086614173
21
0.1384419291338583
0
LINE
8
BLACK
6
CONTINUOUS
10
3.399507086614173
20
0.1384419291338583
11
3.4030735039370077
21
0.1307937007874016
0
LINE
8
BLACK
6
CONTINUOUS
10
3.4030735039370077
20
0.1307937007874016
11
3.4079138188976379
21
0.1238810236220472
0
LINE
8
BLACK
6
CONTINUOUS
10
3.4079138188976379
20
0.1238810236220472
11
3.4138810236220474
21
0.1179138188976378
0
LINE
8
BLACK
6
CONTINUOUS
10
3.4138810236220474
20
0.1179138188976378
11
3.4207937007874016
21
0.1130735039370079
0
LINE
8
BLACK
6
CONTINUOUS
10
3.4207937007874016
20
0.1130735039370079
11
3.4284419291338581
21
0.1095070866141732
0
LINE
8
BLACK
6
CONTINUOUS
10
3.4284419291338581
20
0.1095070866141732
11
3.4365932283464566
21
0.1073229527559055
0
LINE
8
BLACK
6
CONTINUOUS
10
3.4365932283464566
20
0.1073229527559055
11
3.4449999999999998
21
0.1065874409448819
0
LINE
8
BLACK
6
CONTINUOUS
10
3.4449999999999998
20
0.1065874409448819
11
3.453406771653543
21
0.1073229527559055
0
LINE
8
BLACK
6
CONTINUOUS
10
3.453406771653543
20
0.1073229527559055
11
3.4615580708661415
21
0.1095070866141732
0
LINE
8
BLACK
6
CONTINUOUS
10
3.4615580708661415
20
0.1095070866141732
11
3.4692062992125985
21
0.1130735039370079
0
LINE
8
BLACK
6
CONTINUOUS
10
3.4692062992125985
20
0.1130735039370079
11
3.4761189763779528
21
0.1179138188976378
0
LINE
8
BLACK
6
CONTINUOUS
10
3.4761189763779528
20
0.1179138188976378
11
3.4820861811023622
21
0.1238810236220472
0
LINE
8
BLACK
6
CONTINUOUS
10
3.4820861811023622
20
0.1238810236220472
11
3.486926496062992
21
0.1307937007874016
0
LINE
8
BLACK
6
CONTINUOUS
10
3.486926496062992
20
0.1307937007874016
11
3.4904929133858267
21
0.1384419291338583
0
LINE
8
BLACK
6
CONTINUOUS
10
3.4904929133858267
20
0.1384419291338583
11
3.4926770472440944
21
0.1465932283464567
0
LINE
8
BLACK
6
CONTINUOUS
10
3.4926770472440944
20
0.1465932283464567
11
3.4934125590551179
21
0.155
0
LINE
8
BLACK
6
CONTINUOUS
10
3.4934125590551179
20
0.155
11
3.4926770472440944
21
0.1634067716535433
0
LINE
8
BLACK
6
CONTINUOUS
10
3.4926770472440944
20
0.1634067716535433
11
3.4904929133858267
21
0.1715580708661417
0
LINE
8
BLACK
6
CONTINUOUS
10
3.4904929133858267
20
0.1715580708661417
11
3.486926496062992
21
0.1792062598425197
0
LINE
8
BLACK
6
CONTINUOUS
10
3.486926496062992
20
0.1792062598425197
11
3.4820861811023622
21
0.1861189763779527
0
LINE
8
BLACK
6
CONTINUOUS
10
3.4820861811023622
20
0.1861189763779527
11
3.4761189763779528
21
0.1920861811023622
0
LINE
8
BLACK
6
CONTINUOUS
10
3.4761189763779528
20
0.1920861811023622
11
3.4692062992125985
21
0.1969264960629921
0
LINE
8
BLACK
6
CONTINUOUS
10
3.4692062992125985
20
0.1969264960629921
11
3.4615580708661415
21
0.2004929133858268
0
LINE
8
BLACK
6
CONTINUOUS
10
3.4615580708661415
20
0.2004929133858268
11
3.453406771653543
21
0.2026770472440945
0
LINE
8
BLACK
6
CONTINUOUS
10
3.453406771653543
20
0.2026770472440945
11
3.4449999999999998
21
0.2034125590551181
0
LINE
8
BLACK
6
CONTINUOUS
10
3.4449999999999998
20
0.2034125590551181
11
3.4365932283464566
21
0.2026770472440945
0
LINE
8
BLACK
6
CONTINUOUS
10
3.4365932283464566
20
0.2026770472440945
11
3.4284419291338581
21
0.2004929133858268
0
LINE
8
BLACK
6
CONTINUOUS
10
3.4284419291338581
20
0.2004929133858268
11
3.4207937401574804
21
0.1969264960629921
0
LINE
8
BLACK
6
CONTINUOUS
10
3.4207937401574804
20
0.1969264960629921
11
3.4138810236220474
21
0.1920861811023622
0
LINE
8
BLACK
6
CONTINUOUS
10
3.4138810236220474
20
0.1920861811023622
11
3.4079138188976379
21
0.1861189763779527
0
LINE
8
BLACK
6
CONTINUOUS
10
3.4079138188976379
20
0.1861189763779527
11
3.4030735039370077
21
0.1792062598425197
0
LINE
8
BLACK
6
CONTINUOUS
10
3.4030735039370077
20
0.1792062598425197
11
3.399507086614173
21
0.1715580708661417
0
LINE
8
BLACK
6
CONTINUOUS
10
3.399507086614173
20
0.1715580708661417
11
3.3973229527559052
21
0.1634067716535433
0
LINE
8
BLACK
6
CONTINUOUS
10
3.3973229527559052
20
0.1634067716535433
11
3.3965874409448817
21
0.155
0
LINE
8
BLACK
6
CONTINUOUS
10
3.3965874409448817
20
0.155
11
3.3973229527559052
21
0.1465932283464567
0
LINE
8
BLACK
6
CONTINUOUS
10
0.2737165748031496
20
0.3144342519685039
11
0.2821683464566929
21
0.3121696062992126
0
LINE
8
BLACK
6
CONTINUOUS
10
0.2821683464566929
20
0.3121696062992126
11
0.2900984251968504
21
0.3084717322834646
0
LINE
8
BLACK
6
CONTINUOUS
10
0.2900984251968504
20
0.3084717322834646
11
0.297265905511811
21
0.303453031496063
0
LINE
8
BLACK
6
CONTINUOUS
10
0.297265905511811
20
0.303453031496063
11
0.303453031496063
21
0.297265905511811
0
LINE
8
BLACK
6
CONTINUOUS
10
0.303453031496063
20
0.297265905511811
11
0.3084717322834646
21
0.2900984251968504
0
LINE
8
BLACK
6
CONTINUOUS
10
0.3084717322834646
20
0.2900984251968504
11
0.3121696062992126
21
0.2821683464566929
0
LINE
8
BLACK
6
CONTINUOUS
10
0.3121696062992126
20
0.2821683464566929
11
0.3144342519685039
21
0.2737165748031496
0
LINE
8
BLACK
6
CONTINUOUS
10
0.3144342519685039
20
0.2737165748031496
11
0.3151968503937008
21
0.265
0
LINE
8
BLACK
6
CONTINUOUS
10
0.3151968503937008
20
0.265
11
0.3144342519685039
21
0.2562834251968504
0
LINE
8
BLACK
6
CONTINUOUS
10
0.3144342519685039
20
0.2562834251968504
11
0.3121696062992126
21
0.2478316535433071
0
LINE
8
BLACK
6
CONTINUOUS
10
0.3121696062992126
20
0.2478316535433071
11
0.3084717322834646
21
0.2399015748031496
0
LINE
8
BLACK
6
CONTINUOUS
10
0.3084717322834646
20
0.2399015748031496
11
0.303453031496063
21
0.232734094488189
0
LINE
8
BLACK
6
CONTINUOUS
10
0.303453031496063
20
0.232734094488189
11
0.297265905511811
21
0.226546968503937
0
LINE
8
BLACK
6
CONTINUOUS
10
0.297265905511811
20
0.226546968503937
11
0.2900984251968504
21
0.2215282677165354
0
LINE
8
BLACK
6
CONTINUOUS
10
0.2900984251968504
20
0.2215282677165354
11
0.2821683464566929
21
0.2178303937007874
0
LINE
8
BLACK
6
CONTINUOUS
10
0.2821683464566929
20
0.2178303937007874
11
0.2737165748031496
21
0.2155657480314961
0
LINE
8
BLACK
6
CONTINUOUS
10
0.2737165748031496
20
0.2155657480314961
11
0.265
21
0.2148031496062992
0
LINE
8
BLACK
6
CONTINUOUS
10
0.265
20
0.2148031496062992
11
0.2562834251968504
21
0.2155657480314961
0
LINE
8
BLACK
6
CONTINUOUS
10
0.2562834251968504
20
0.2155657480314961
11
0.2478316535433071
21
0.2178303937007874
0
LINE
8
BLACK
6
CONTINUOUS
10
0.2478316535433071
20
0.2178303937007874
11
0.2399015748031496
21
0.2215282677165354
0
LINE
8
BLACK
6
CONTINUOUS
10
0.2399015748031496
20
0.2215282677165354
11
0.232734094488189
21
0.226546968503937
0
LINE
8
BLACK
6
CONTINUOUS
10
0.232734094488189
20
0.226546968503937
11
0.226546968503937
21
0.232734094488189
0
LINE
8
BLACK
6
CONTINUOUS
10
0.226546968503937
20
0.232734094488189
11
0.2215282677165354
21
0.2399015748031496
0
LINE
8
BLACK
6
CONTINUOUS
10
0.2215282677165354
20
0.2399015748031496
11
0.2178303937007874
21
0.2478316535433071
0
LINE
8
BLACK
6
CONTINUOUS
10
0.2178303937007874
20
0.2478316535433071
11
0.2155657480314961
21
0.2562834251968504
0
LINE
8
BLACK
6
CONTINUOUS
10
0.2155657480314961
20
0.2562834251968504
11
0.2148031496062992
21
0.265
0
LINE
8
BLACK
6
CONTINUOUS
10
0.2148031496062992
20
0.265
11
0.2155657480314961
21
0.2737165748031496
0
LINE
8
BLACK
6
CONTINUOUS
10
0.2155657480314961
20
0.2737165748031496
11
0.2178303937007874
21
0.2821683464566929
0
LINE
8
BLACK
6
CONTINUOUS
10
0.2178303937007874
20
0.2821683464566929
11
0.2215282677165354
21
0.2900984251968504
0
LINE
8
BLACK
6
CONTINUOUS
10
0.2215282677165354
20
0.2900984251968504
11
0.226546968503937
21
0.297265905511811
0
LINE
8
BLACK
6
CONTINUOUS
10
0.226546968503937
20
0.297265905511811
11
0.232734094488189
21
0.303453031496063
0
LINE
8
BLACK
6
CONTINUOUS
10
0.232734094488189
20
0.303453031496063
11
0.2399015748031496
21
0.3084717322834646
0
LINE
8
BLACK
6
CONTINUOUS
10
0.2399015748031496
20
0.3084717322834646
11
0.2478316535433071
21
0.3121696062992126
0
LINE
8
BLACK
6
CONTINUOUS
10
0.2478316535433071
20
0.3121696062992126
11
0.2562834251968504
21
0.3144342519685039
0
LINE
8
BLACK
6
CONTINUOUS
10
0.2562834251968504
20
0.3144342519685039
11
0.265
21
0.3151968503937008
0
LINE
8
BLACK
6
CONTINUOUS
10
0.265
20
0.3151968503937008
11
0.2737165748031496
21
0.3144342519685039
0
LINE
8
BLACK
6
CONTINUOUS
10
0.2173229527559055
20
0.2565932283464567
11
0.2195070866141732
21
0.2484419291338583
0
LINE
8
BLACK
6
CONTINUOUS
10
0.2195070866141732
20
0.2484419291338583
11
0.2230735039370079
21
0.2407937007874016
0
LINE
8
BLACK
6
CONTINUOUS
10
0.2230735039370079
20
0.2407937007874016
11
0.2279138188976378
21
0.2338810236220472
0
LINE
8
BLACK
6
CONTINUOUS
10
0.2279138188976378
20
0.2338810236220472
11
0.2338810236220472
21
0.2279138188976378
0
LINE
8
BLACK
6
CONTINUOUS
10
0.2338810236220472
20
0.2279138188976378
11
0.2407937007874016
21
0.2230735039370079
0
LINE
8
BLACK
6
CONTINUOUS
10
0.2407937007874016
20
0.2230735039370079
11
0.2484419291338583
21
0.2195070866141732
0
LINE
8
BLACK
6
CONTINUOUS
10
0.2484419291338583
20
0.2195070866141732
11
0.2565932283464567
21
0.2173229527559055
0
LINE
8
BLACK
6
CONTINUOUS
10
0.2565932283464567
20
0.2173229527559055
11
0.265
21
0.2165874409448819
0
LINE
8
BLACK
6
CONTINUOUS
10
0.265
20
0.2165874409448819
11
0.2734067716535433
21
0.2173229527559055
0
LINE
8
BLACK
6
CONTINUOUS
10
0.2734067716535433
20
0.2173229527559055
11
0.2815580708661417
21
0.2195070866141732
0
LINE
8
BLACK
6
CONTINUOUS
10
0.2815580708661417
20
0.2195070866141732
11
0.2892062992125984
21
0.2230735039370079
0
LINE
8
BLACK
6
CONTINUOUS
10
0.2892062992125984
20
0.2230735039370079
11
0.2961189763779528
21
0.2279138188976378
0
LINE
8
BLACK
6
CONTINUOUS
10
0.2961189763779528
20
0.2279138188976378
11
0.3020861811023622
21
0.2338810236220472
0
LINE
8
BLACK
6
CONTINUOUS
10
0.3020861811023622
20
0.2338810236220472
11
0.3069264960629921
21
0.2407937007874016
0
LINE
8
BLACK
6
CONTINUOUS
10
0.3069264960629921
20
0.2407937007874016
11
0.3104929133858267
21
0.2484419291338583
0
LINE
8
BLACK
6
CONTINUOUS
10
0.3104929133858267
20
0.2484419291338583
11
0.3126770472440945
21
0.2565932283464567
0
LINE
8
BLACK
6
CONTINUOUS
10
0.3126770472440945
20
0.2565932283464567
11
0.3134125590551181
21
0.265
0
LINE
8
BLACK
6
CONTINUOUS
10
0.3134125590551181
20
0.265
11
0.3126770472440945
21
0.2734067716535433
0
LINE
8
BLACK
6
CONTINUOUS
10
0.3126770472440945
20
0.2734067716535433
11
0.3104929133858267
21
0.2815580708661417
0
LINE
8
BLACK
6
CONTINUOUS
10
0.3104929133858267
20
0.2815580708661417
11
0.3069264960629921
21
0.2892062598425197
0
LINE
8
BLACK
6
CONTINUOUS
10
0.3069264960629921
20
0.2892062598425197
11
0.3020861811023622
21
0.2961189763779528
0
LINE
8
BLACK
6
CONTINUOUS
10
0.3020861811023622
20
0.2961189763779528
11
0.2961189763779528
21
0.3020861811023622
0
LINE
8
BLACK
6
CONTINUOUS
10
0.2961189763779528
20
0.3020861811023622
11
0.2892062992125984
21
0.3069264960629921
0
LINE
8
BLACK
6
CONTINUOUS
10
0.2892062992125984
20
0.3069264960629921
11
0.2815580708661417
21
0.3104929133858267
0
LINE
8
BLACK
6
CONTINUOUS
10
0.2815580708661417
20
0.3104929133858267
11
0.2734067716535433
21
0.3126770472440945
0
LINE
8
BLACK
6
CONTINUOUS
10
0.2734067716535433
20
0.3126770472440945
11
0.265
21
0.3134125590551181
0
LINE
8
BLACK
6
CONTINUOUS
10
0.265
20
0.3134125590551181
11
0.2565932283464567
21
0.3126770472440945
0
LINE
8
BLACK
6
CONTINUOUS
10
0.2565932283464567
20
0.3126770472440945
11
0.2484419291338583
21
0.3104929133858267
0
LINE
8
BLACK
6
CONTINUOUS
10
0.2484419291338583
20
0.3104929133858267
11
0.2407937401574803
21
0.3069264960629921
0
LINE
8
BLACK
6
CONTINUOUS
10
0.2407937401574803
20
0.3069264960629921
11
0.2338810236220472
21
0.3020861811023622
0
LINE
8
BLACK
6
CONTINUOUS
10
0.2338810236220472
20
0.3020861811023622
11
0.2279138188976378
21
0.2961189763779528
0
LINE
8
BLACK
6
CONTINUOUS
10
0.2279138188976378
20
0.2961189763779528
11
0.2230735039370079
21
0.2892062598425197
0
LINE
8
BLACK
6
CONTINUOUS
10
0.2230735039370079
20
0.2892062598425197
11
0.2195070866141732
21
0.2815580708661417
0
LINE
8
BLACK
6
CONTINUOUS
10
0.2195070866141732
20
0.2815580708661417
11
0.2173229527559055
21
0.2734067716535433
0
LINE
8
BLACK
6
CONTINUOUS
10
0.2173229527559055
20
0.2734067716535433
11
0.2165874409448819
21
0.265
0
LINE
8
BLACK
6
CONTINUOUS
10
0.2165874409448819
20
0.265
11
0.2173229527559055
21
0.2565932283464567
0
LINE
8
BLACK
6
CONTINUOUS
10
1.1639593307086613
20
0.5478384645669291
11
1.1644920078740157
21
0.5473057874015748
0
LINE
8
BLACK
6
CONTINUOUS
10
1.1644920078740157
20
0.5473057874015748
11
1.1645669291338583
21
0.4130708661417323
0
LINE
8
BLACK
6
CONTINUOUS
10
1.1645669291338583
20
0.4130708661417323
11
1.1644920078740157
21
0.4126942125984252
0
LINE
8
BLACK
6
CONTINUOUS
10
1.1644920078740157
20
0.4126942125984252
11
1.1639593307086613
21
0.4121615354330709
0
LINE
8
BLACK
6
CONTINUOUS
10
1.1639593307086613
20
0.4121615354330709
11
1.0864173228346456
21
0.4120866141732283
0
LINE
8
BLACK
6
CONTINUOUS
10
1.0864173228346456
20
0.4120866141732283
11
1.0860406692913385
21
0.4121615354330709
0
LINE
8
BLACK
6
CONTINUOUS
10
1.0860406692913385
20
0.4121615354330709
11
1.0855079921259843
21
0.4126942125984252
0
LINE
8
BLACK
6
CONTINUOUS
10
1.0855079921259843
20
0.4126942125984252
11
1.0854330708661417
21
0.5469291338582677
0
LINE
8
BLACK
6
CONTINUOUS
10
1.0854330708661417
20
0.5469291338582677
11
1.0855079921259843
21
0.5473057874015748
0
LINE
8
BLACK
6
CONTINUOUS
10
1.0855079921259843
20
0.5473057874015748
11
1.0860406692913385
21
0.5478384645669291
0
LINE
8
BLACK
6
CONTINUOUS
10
1.0860406692913385
20
0.5478384645669291
11
1.1635826771653544
21
0.5479133858267716
0
LINE
8
BLACK
6
CONTINUOUS
10
1.1635826771653544
20
0.5479133858267716
11
1.1639593307086613
21
0.5478384645669291
0
LINE
8
BLACK
6
CONTINUOUS
10
1.0873274015748031
20
0.5459457874015748
11
1.087401062992126
21
0.4139815354330709
0
LINE
8
BLACK
6
CONTINUOUS
10
1.087401062992126
20
0.4139815354330709
11
1.1626725590551181
21
0.4140542519685039
0
LINE
8
BLACK
6
CONTINUOUS
10
1.1626725590551181
20
0.4140542519685039
11
1.1625988976377952
21
0.5460185039370079
0
LINE
8
BLACK
6
CONTINUOUS
10
1.1625988976377952
20
0.5460185039370079
11
1.0873274015748031
21
0.5459457874015748
0
LINE
8
BLACK
6
CONTINUOUS
10
4.4233687795275589
20
0.8261061811023622
11
4.4239014566929136
21
0.8255735039370079
0
LINE
8
BLACK
6
CONTINUOUS
10
4.4239014566929136
20
0.8255735039370079
11
4.4239763779527559
21
0.7346456692913386
0
LINE
8
BLACK
6
CONTINUOUS
10
4.4239763779527559
20
0.7346456692913386
11
4.4239014566929136
21
0.7342690157480315
0
LINE
8
BLACK
6
CONTINUOUS
10
4.4239014566929136
20
0.7342690157480315
11
4.4233687795275589
21
0.7337363385826772
0
LINE
8
BLACK
6
CONTINUOUS
10
4.4233687795275589
20
0.7337363385826772
11
4.2418897637795272
21
0.7336614173228346
0
LINE
8
BLACK
6
CONTINUOUS
10
4.2418897637795272
20
0.7336614173228346
11
4.2415131102362205
21
0.7337363385826772
0
LINE
8
BLACK
6
CONTINUOUS
10
4.2415131102362205
20
0.7337363385826772
11
4.2409804330708658
21
0.7342690157480315
0
LINE
8
BLACK
6
CONTINUOUS
10
4.2409804330708658
20
0.7342690157480315
11
4.2409055118110235
21
0.8251968503937007
0
LINE
8
BLACK
6
CONTINUOUS
10
4.2409055118110235
20
0.8251968503937007
11
4.2409804330708658
21
0.8255735039370079
0
LINE
8
BLACK
6
CONTINUOUS
10
4.2409804330708658
20
0.8255735039370079
11
4.2415131102362205
21
0.8261061811023622
0
LINE
8
BLACK
6
CONTINUOUS
10
4.2415131102362205
20
0.8261061811023622
11
4.4229921259842522
21
0.8261811023622047
0
LINE
8
BLACK
6
CONTINUOUS
10
4.4229921259842522
20
0.8261811023622047
11
4.4233687795275589
21
0.8261061811023622
0
LINE
8
BLACK
6
CONTINUOUS
10
4.2428001968503937
20
0.8242129921259842
11
4.2428732283464567
21
0.7355555905511811
0
LINE
8
BLACK
6
CONTINUOUS
10
4.2428732283464567
20
0.7355555905511811
11
4.422081653543307
21
0.7356295669291338
0
LINE
8
BLACK
6
CONTINUOUS
10
4.422081653543307
20
0.7356295669291338
11
4.4220086220472439
21
0.824286968503937
0
LINE
8
BLACK
6
CONTINUOUS
10
4.4220086220472439
20
0.824286968503937
11
4.2428001968503937
21
0.8242129921259842
0
LINE
8
BLACK
6
CONTINUOUS
10
1.3071483070866141
20
0.934058937007874
11
1.3076809842519685
21
0.9335262598425197
0
LINE
8
BLACK
6
CONTINUOUS
10
1.3076809842519685
20
0.9335262598425197
11
1.3077559055118111
21
0.8268503937007874
0
LINE
8
BLACK
6
CONTINUOUS
10
1.3077559055118111
20
0.8268503937007874
11
1.3076809842519685
21
0.8264737401574803
0
LINE
8
BLACK
6
CONTINUOUS
10
1.3076809842519685
20
0.8264737401574803
11
1.3071483070866141
21
0.825941062992126
0
LINE
8
BLACK
6
CONTINUOUS
10
1.3071483070866141
20
0.825941062992126
11
1.1532283464566928
21
0.8258661417322835
0
LINE
8
BLACK
6
CONTINUOUS
10
1.1532283464566928
20
0.8258661417322835
11
1.1528516929133859
21
0.825941062992126
0
LINE
8
BLACK
6
CONTINUOUS
10
1.1528516929133859
20
0.825941062992126
11
1.1523190157480314
21
0.8264737401574803
0
LINE
8
BLACK
6
CONTINUOUS
10
1.1523190157480314
20
0.8264737401574803
11
1.1522440944881889
21
0.9331496062992126
0
LINE
8
BLACK
6
CONTINUOUS
10
1.1522440944881889
20
0.9331496062992126
11
1.1523190157480314
21
0.9335262598425197
0
LINE
8
BLACK
6
CONTINUOUS
10
1.1523190157480314
20
0.9335262598425197
11
1.1528516929133859
21
0.934058937007874
0
LINE
8
BLACK
6
CONTINUOUS
10
1.1528516929133859
20
0.934058937007874
11
1.3067716535433072
21
0.9341338582677166
0
LINE
8
BLACK
6
CONTINUOUS
10
1.3067716535433072
20
0.9341338582677166
11
1.3071483070866141
21
0.934058937007874
0
LINE
8
BLACK
6
CONTINUOUS
10
1.154138622047244
20
0.9321658267716535
11
1.1542119291338582
21
0.8277603937007874
0
LINE
8
BLACK
6
CONTINUOUS
10
1.1542119291338582
20
0.8277603937007874
11
1.3058613385826772
21
0.8278342125984252
0
LINE
8
BLACK
6
CONTINUOUS
10
1.3058613385826772
20
0.8278342125984252
11
1.305788031496063
21
0.9322396456692913
0
LINE
8
BLACK
6
CONTINUOUS
10
1.305788031496063
20
0.9322396456692913
11
1.154138622047244
21
0.9321658267716535
0
LINE
8
BLACK
6
CONTINUOUS
10
4.2017152362204726
20
1.2540589370078741
11
4.2022479133858264
21
1.2535262598425196
0
LINE
8
BLACK
6
CONTINUOUS
10
4.2022479133858264
20
1.2535262598425196
11
4.2023228346456696
21
0.8318897637795275
0
LINE
8
BLACK
6
CONTINUOUS
10
4.2023228346456696
20
0.8318897637795275
11
4.2022479133858264
21
0.8315131102362204
0
LINE
8
BLACK
6
CONTINUOUS
10
4.2022479133858264
20
0.8315131102362204
11
4.2017152362204726
21
0.8309804330708661
0
LINE
8
BLACK
6
CONTINUOUS
10
4.2017152362204726
20
0.8309804330708661
11
3.7288976377952756
21
0.8309055118110236
0
LINE
8
BLACK
6
CONTINUOUS
10
3.7288976377952756
20
0.8309055118110236
11
3.7285209842519684
21
0.8309804330708661
0
LINE
8
BLACK
6
CONTINUOUS
10
3.7285209842519684
20
0.8309804330708661
11
3.7279883070866142
21
0.8315131102362204
0
LINE
8
BLACK
6
CONTINUOUS
10
3.7279883070866142
20
0.8315131102362204
11
3.7279133858267715
21
1.2531496062992125
0
LINE
8
BLACK
6
CONTINUOUS
10
3.7279133858267715
20
1.2531496062992125
11
3.7279883070866142
21
1.2535262598425196
0
LINE
8
BLACK
6
CONTINUOUS
10
3.7279883070866142
20
1.2535262598425196
11
3.7285209842519684
21
1.2540589370078741
0
LINE
8
BLACK
6
CONTINUOUS
10
3.7285209842519684
20
1.2540589370078741
11
4.201338582677165
21
1.2541338582677166
0
LINE
8
BLACK
6
CONTINUOUS
10
4.201338582677165
20
1.2541338582677166
11
4.2017152362204726
21
1.2540589370078741
0
LINE
8
BLACK
6
CONTINUOUS
10
3.7298072047244095
20
1.2521655118110235
11
3.7298816929133856
21
0.8327993307086614
0
LINE
8
BLACK
6
CONTINUOUS
10
3.7298816929133856
20
0.8327993307086614
11
4.2004289763779523
21
0.8328738976377953
0
LINE
8
BLACK
6
CONTINUOUS
10
4.2004289763779523
20
0.8328738976377953
11
4.2003544881889763
21
1.2522400787401575
0
LINE
8
BLACK
6
CONTINUOUS
10
4.2003544881889763
20
1.2522400787401575
11
3.7298072047244095
21
1.2521655118110235
0
LINE
8
BLACK
6
CONTINUOUS
10
4.4233687795275589
20
0.9556337401574803
11
4.4239014566929136
21
0.9551010629921259
0
LINE
8
BLACK
6
CONTINUOUS
10
4.4239014566929136
20
0.9551010629921259
11
4.4239763779527559
21
0.8641732283464567
0
LINE
8
BLACK
6
CONTINUOUS
10
4.4239763779527559
20
0.8641732283464567
11
4.4239014566929136
21
0.8637965748031496
0
LINE
8
BLACK
6
CONTINUOUS
10
4.4239014566929136
20
0.8637965748031496
11
4.4233687795275589
21
0.8632638976377952
0
LINE
8
BLACK
6
CONTINUOUS
10
4.4233687795275589
20
0.8632638976377952
11
4.2418897637795272
21
0.8631889763779528
0
LINE
8
BLACK
6
CONTINUOUS
10
4.2418897637795272
20
0.8631889763779528
11
4.2415131102362205
21
0.8632638976377952
0
LINE
8
BLACK
6
CONTINUOUS
10
4.2415131102362205
20
0.8632638976377952
11
4.2409804330708658
21
0.8637965748031496
0
LINE
8
BLACK
6
CONTINUOUS
10
4.2409804330708658
20
0.8637965748031496
11
4.2409055118110235
21
0.9547244094488189
0
LINE
8
BLACK
6
CONTINUOUS
10
4.2409055118110235
20
0.9547244094488189
11
4.2409804330708658
21
0.9551010629921259
0
LINE
8
BLACK
6
CONTINUOUS
10
4.2409804330708658
20
0.9551010629921259
11
4.2415131102362205
21
0.9556337401574803
0
LINE
8
BLACK
6
CONTINUOUS
10
4.2415131102362205
20
0.9556337401574803
11
4.4229921259842522
21
0.9557086614173228
0
LINE
8
BLACK
6
CONTINUOUS
10
4.4229921259842522
20
0.9557086614173228
11
4.4233687795275589
21
0.9556337401574803
0
LINE
8
BLACK
6
CONTINUOUS
10
4.2428001968503937
20
0.9537405511811023
11
4.2428732283464567
21
0.8650831496062992
0
LINE
8
BLACK
6
CONTINUOUS
10
4.2428732283464567
20
0.8650831496062992
11
4.422081653543307
21
0.865157125984252
0
LINE
8
BLACK
6
CONTINUOUS
10
4.422081653543307
20
0.865157125984252
11
4.4220086220472439
21
0.953814527559055
0
LINE
8
BLACK
6
CONTINUOUS
10
4.4220086220472439
20
0.953814527559055
11
4.2428001968503937
21
0.9537405511811023
0
LINE
8
BLACK
6
CONTINUOUS
10
1.7923057874015749
20
0.9544920078740158
11
1.7928384645669291
21
0.9539593307086613
0
LINE
8
BLACK
6
CONTINUOUS
10
1.7928384645669291
20
0.9539593307086613
11
1.7929133858267716
21
0.8764173228346457
0
LINE
8
BLACK
6
CONTINUOUS
10
1.7929133858267716
20
0.8764173228346457
11
1.7928384645669291
21
0.8760406692913386
0
LINE
8
BLACK
6
CONTINUOUS
10
1.7928384645669291
20
0.8760406692913386
11
1.7923057874015749
21
0.8755079921259842
0
LINE
8
BLACK
6
CONTINUOUS
10
1.7923057874015749
20
0.8755079921259842
11
1.6580708661417323
21
0.8754330708661417
0
LINE
8
BLACK
6
CONTINUOUS
10
1.6580708661417323
20
0.8754330708661417
11
1.6576942125984251
21
0.8755079921259842
0
LINE
8
BLACK
6
CONTINUOUS
10
1.6576942125984251
20
0.8755079921259842
11
1.6571615354330709
21
0.8760406692913386
0
LINE
8
BLACK
6
CONTINUOUS
10
1.6571615354330709
20
0.8760406692913386
11
1.6570866141732283
21
0.9535826771653543
0
LINE
8
BLACK
6
CONTINUOUS
10
1.6570866141732283
20
0.9535826771653543
11
1.6571615354330709
21
0.9539593307086613
0
LINE
8
BLACK
6
CONTINUOUS
10
1.6571615354330709
20
0.9539593307086613
11
1.6576942125984251
21
0.9544920078740158
0
LINE
8
BLACK
6
CONTINUOUS
10
1.6576942125984251
20
0.9544920078740158
11
1.7919291338582677
21
0.9545669291338582
0
LINE
8
BLACK
6
CONTINUOUS
10
1.7919291338582677
20
0.9545669291338582
11
1.7923057874015749
21
0.9544920078740158
0
LINE
8
BLACK
6
CONTINUOUS
10
1.6589814960629921
20
0.952598937007874
11
1.6590542125984251
21
0.8773274409448819
0
LINE
8
BLACK
6
CONTINUOUS
10
1.6590542125984251
20
0.8773274409448819
11
1.7910184645669291
21
0.8774011023622047
0
LINE
8
BLACK
6
CONTINUOUS
10
1.7910184645669291
20
0.8774011023622047
11
1.7909457480314961
21
0.9526725984251968
0
LINE
8
BLACK
6
CONTINUOUS
10
1.7909457480314961
20
0.9526725984251968
11
1.6589814960629921
21
0.952598937007874
0
LINE
8
BLACK
6
CONTINUOUS
10
0.9389593307086614
20
1.0278384645669292
11
0.9394920078740158
21
1.0273057874015747
0
LINE
8
BLACK
6
CONTINUOUS
10
0.9394920078740158
20
1.0273057874015747
11
0.9395669291338582
21
0.8930708661417323
0
LINE
8
BLACK
6
CONTINUOUS
10
0.9395669291338582
20
0.8930708661417323
11
0.9394920078740158
21
0.8926942125984252
0
LINE
8
BLACK
6
CONTINUOUS
10
0.9394920078740158
20
0.8926942125984252
11
0.9389593307086614
21
0.8921615354330709
0
LINE
8
BLACK
6
CONTINUOUS
10
0.9389593307086614
20
0.8921615354330709
11
0.8614173228346457
21
0.8920866141732283
0
LINE
8
BLACK
6
CONTINUOUS
10
0.8614173228346457
20
0.8920866141732283
11
0.8610406692913386
21
0.8921615354330709
0
LINE
8
BLACK
6
CONTINUOUS
10
0.8610406692913386
20
0.8921615354330709
11
0.8605079921259843
21
0.8926942125984252
0
LINE
8
BLACK
6
CONTINUOUS
10
0.8605079921259843
20
0.8926942125984252
11
0.8604330708661417
21
1.0269291338582678
0
LINE
8
BLACK
6
CONTINUOUS
10
0.8604330708661417
20
1.0269291338582678
11
0.8605079921259843
21
1.0273057874015747
0
LINE
8
BLACK
6
CONTINUOUS
10
0.8605079921259843
20
1.0273057874015747
11
0.8610406692913386
21
1.0278384645669292
0
LINE
8
BLACK
6
CONTINUOUS
10
0.8610406692913386
20
1.0278384645669292
11
0.9385826771653543
21
1.0279133858267717
0
LINE
8
BLACK
6
CONTINUOUS
10
0.9385826771653543
20
1.0279133858267717
11
0.9389593307086614
21
1.0278384645669292
0
LINE
8
BLACK
6
CONTINUOUS
10
0.8623274015748031
20
1.0259457874015747
11
0.8624010629921259
21
0.8939815354330708
0
LINE
8
BLACK
6
CONTINUOUS
10
0.8624010629921259
20
0.8939815354330708
11
0.937672559055118
21
0.894054251968504
0
LINE
8
BLACK
6
CONTINUOUS
10
0.937672559055118
20
0.894054251968504
11
0.9375988976377952
21
1.0260185039370078
0
LINE
8
BLACK
6
CONTINUOUS
10
0.9375988976377952
20
1.0260185039370078
11
0.8623274015748031
21
1.0259457874015747
0
LINE
8
BLACK
6
CONTINUOUS
10
1.0239593307086614
20
1.0278384645669292
11
1.0244920078740156
21
1.0273057874015747
0
LINE
8
BLACK
6
CONTINUOUS
10
1.0244920078740156
20
1.0273057874015747
11
1.0245669291338582
21
0.8930708661417323
0
LINE
8
BLACK
6
CONTINUOUS
10
1.0245669291338582
20
0.8930708661417323
11
1.0244920078740156
21
0.8926942125984252
0
LINE
8
BLACK
6
CONTINUOUS
10
1.0244920078740156
20
0.8926942125984252
11
1.0239593307086614
21
0.8921615354330709
0
LINE
8
BLACK
6
CONTINUOUS
10
1.0239593307086614
20
0.8921615354330709
11
0.9464173228346456
21
0.8920866141732283
0
LINE
8
BLACK
6
CONTINUOUS
10
0.9464173228346456
20
0.8920866141732283
11
0.9460406692913386
21
0.8921615354330709
0
LINE
8
BLACK
6
CONTINUOUS
10
0.9460406692913386
20
0.8921615354330709
11
0.9455079921259842
21
0.8926942125984252
0
LINE
8
BLACK
6
CONTINUOUS
10
0.9455079921259842
20
0.8926942125984252
11
0.9454330708661417
21
1.0269291338582678
0
LINE
8
BLACK
6
CONTINUOUS
10
0.9454330708661417
20
1.0269291338582678
11
0.9455079921259842
21
1.0273057874015747
0
LINE
8
BLACK
6
CONTINUOUS
10
0.9455079921259842
20
1.0273057874015747
11
0.9460406692913386
21
1.0278384645669292
0
LINE
8
BLACK
6
CONTINUOUS
10
0.9460406692913386
20
1.0278384645669292
11
1.0235826771653542
21
1.0279133858267717
0
LINE
8
BLACK
6
CONTINUOUS
10
1.0235826771653542
20
1.0279133858267717
11
1.0239593307086614
21
1.0278384645669292
0
LINE
8
BLACK
6
CONTINUOUS
10
0.9473274015748031
20
1.0259457874015747
11
0.947401062992126
21
0.8939815354330708
0
LINE
8
BLACK
6
CONTINUOUS
10
0.947401062992126
20
0.8939815354330708
11
1.022672559055118
21
0.894054251968504
0
LINE
8
BLACK
6
CONTINUOUS
10
1.022672559055118
20
0.894054251968504
11
1.0225988976377953
21
1.0260185039370078
0
LINE
8
BLACK
6
CONTINUOUS
10
1.0225988976377953
20
1.0260185039370078
11
0.9473274015748031
21
1.0259457874015747
0
LINE
8
BLACK
6
CONTINUOUS
10
1.1089593307086614
20
1.0278384645669292
11
1.1094920078740158
21
1.0273057874015747
0
LINE
8
BLACK
6
CONTINUOUS
10
1.1094920078740158
20
1.0273057874015747
11
1.1095669291338583
21
0.8930708661417323
0
LINE
8
BLACK
6
CONTINUOUS
10
1.1095669291338583
20
0.8930708661417323
11
1.1094920078740158
21
0.8926942125984252
0
LINE
8
BLACK
6
CONTINUOUS
10
1.1094920078740158
20
0.8926942125984252
11
1.1089593307086614
21
0.8921615354330709
0
LINE
8
BLACK
6
CONTINUOUS
10
1.1089593307086614
20
0.8921615354330709
11
1.0314173228346457
21
0.8920866141732283
0
LINE
8
BLACK
6
CONTINUOUS
10
1.0314173228346457
20
0.8920866141732283
11
1.0310406692913385
21
0.8921615354330709
0
LINE
8
BLACK
6
CONTINUOUS
10
1.0310406692913385
20
0.8921615354330709
11
1.0305079921259843
21
0.8926942125984252
0
LINE
8
BLACK
6
CONTINUOUS
10
1.0305079921259843
20
0.8926942125984252
11
1.0304330708661418
21
1.0269291338582678
0
LINE
8
BLACK
6
CONTINUOUS
10
1.0304330708661418
20
1.0269291338582678
11
1.0305079921259843
21
1.0273057874015747
0
LINE
8
BLACK
6
CONTINUOUS
10
1.0305079921259843
20
1.0273057874015747
11
1.0310406692913385
21
1.0278384645669292
0
LINE
8
BLACK
6
CONTINUOUS
10
1.0310406692913385
20
1.0278384645669292
11
1.1085826771653544
21
1.0279133858267717
0
LINE
8
BLACK
6
CONTINUOUS
10
1.1085826771653544
20
1.0279133858267717
11
1.1089593307086614
21
1.0278384645669292
0
LINE
8
BLACK
6
CONTINUOUS
10
1.0323274015748032
20
1.0259457874015747
11
1.0324010629921259
21
0.8939815354330708
0
LINE
8
BLACK
6
CONTINUOUS
10
1.0324010629921259
20
0.8939815354330708
11
1.1076725590551182
21
0.894054251968504
0
LINE
8
BLACK
6
CONTINUOUS
10
1.1076725590551182
20
0.894054251968504
11
1.1075988976377953
21
1.0260185039370078
0
LINE
8
BLACK
6
CONTINUOUS
10
1.1075988976377953
20
1.0260185039370078
11
1.0323274015748032
21
1.0259457874015747
0
LINE
8
BLACK
6
CONTINUOUS
10
1.4389593307086614
20
1.0328384645669291
11
1.4394920078740157
21
1.0323057874015749
0
LINE
8
BLACK
6
CONTINUOUS
10
1.4394920078740157
20
1.0323057874015749
11
1.4395669291338582
21
0.8980708661417323
0
LINE
8
BLACK
6
CONTINUOUS
10
1.4395669291338582
20
0.8980708661417323
11
1.4394920078740157
21
0.8976942125984252
0
LINE
8
BLACK
6
CONTINUOUS
10
1.4394920078740157
20
0.8976942125984252
11
1.4389593307086614
21
0.8971615354330709
0
LINE
8
BLACK
6
CONTINUOUS
10
1.4389593307086614
20
0.8971615354330709
11
1.3614173228346456
21
0.8970866141732283
0
LINE
8
BLACK
6
CONTINUOUS
10
1.3614173228346456
20
0.8970866141732283
11
1.3610406692913386
21
0.8971615354330709
0
LINE
8
BLACK
6
CONTINUOUS
10
1.3610406692913386
20
0.8971615354330709
11
1.3605079921259842
21
0.8976942125984252
0
LINE
8
BLACK
6
CONTINUOUS
10
1.3605079921259842
20
0.8976942125984252
11
1.3604330708661416
21
1.0319291338582677
0
LINE
8
BLACK
6
CONTINUOUS
10
1.3604330708661416
20
1.0319291338582677
11
1.3605079921259842
21
1.0323057874015749
0
LINE
8
BLACK
6
CONTINUOUS
10
1.3605079921259842
20
1.0323057874015749
11
1.3610406692913386
21
1.0328384645669291
0
LINE
8
BLACK
6
CONTINUOUS
10
1.3610406692913386
20
1.0328384645669291
11
1.4385826771653543
21
1.0329133858267716
0
LINE
8
BLACK
6
CONTINUOUS
10
1.4385826771653543
20
1.0329133858267716
11
1.4389593307086614
21
1.0328384645669291
0
LINE
8
BLACK
6
CONTINUOUS
10
1.362327401574803
20
1.0309457874015748
11
1.3624010629921259
21
0.8989815354330708
0
LINE
8
BLACK
6
CONTINUOUS
10
1.3624010629921259
20
0.8989815354330708
11
1.437672559055118
21
0.899054251968504
0
LINE
8
BLACK
6
CONTINUOUS
10
1.437672559055118
20
0.899054251968504
11
1.4375988976377951
21
1.0310185039370079
0
LINE
8
BLACK
6
CONTINUOUS
10
1.4375988976377951
20
1.0310185039370079
11
1.362327401574803
21
1.0309457874015748
0
LINE
8
BLACK
6
CONTINUOUS
10
1.5239593307086614
20
1.0328384645669291
11
1.5244920078740156
21
1.0323057874015749
0
LINE
8
BLACK
6
CONTINUOUS
10
1.5244920078740156
20
1.0323057874015749
11
1.5245669291338582
21
0.8980708661417323
0
LINE
8
BLACK
6
CONTINUOUS
10
1.5245669291338582
20
0.8980708661417323
11
1.5244920078740156
21
0.8976942125984252
0
LINE
8
BLACK
6
CONTINUOUS
10
1.5244920078740156
20
0.8976942125984252
11
1.5239593307086614
21
0.8971615354330709
0
LINE
8
BLACK
6
CONTINUOUS
10
1.5239593307086614
20
0.8971615354330709
11
1.4464173228346457
21
0.8970866141732283
0
LINE
8
BLACK
6
CONTINUOUS
10
1.4464173228346457
20
0.8970866141732283
11
1.4460406692913386
21
0.8971615354330709
0
LINE
8
BLACK
6
CONTINUOUS
10
1.4460406692913386
20
0.8971615354330709
11
1.4455079921259841
21
0.8976942125984252
0
LINE
8
BLACK
6
CONTINUOUS
10
1.4455079921259841
20
0.8976942125984252
11
1.4454330708661416
21
1.0319291338582677
0
LINE
8
BLACK
6
CONTINUOUS
10
1.4454330708661416
20
1.0319291338582677
11
1.4455079921259841
21
1.0323057874015749
0
LINE
8
BLACK
6
CONTINUOUS
10
1.4455079921259841
20
1.0323057874015749
11
1.4460406692913386
21
1.0328384645669291
0
LINE
8
BLACK
6
CONTINUOUS
10
1.4460406692913386
20
1.0328384645669291
11
1.5235826771653542
21
1.0329133858267716
0
LINE
8
BLACK
6
CONTINUOUS
10
1.5235826771653542
20
1.0329133858267716
11
1.5239593307086614
21
1.0328384645669291
0
LINE
8
BLACK
6
CONTINUOUS
10
1.4473274015748032
20
1.0309457874015748
11
1.4474010629921259
21
0.8989815354330708
0
LINE
8
BLACK
6
CONTINUOUS
10
1.4474010629921259
20
0.8989815354330708
11
1.522672559055118
21
0.899054251968504
0
LINE
8
BLACK
6
CONTINUOUS
10
1.522672559055118
20
0.899054251968504
11
1.5225988976377953
21
1.0310185039370079
0
LINE
8
BLACK
6
CONTINUOUS
10
1.5225988976377953
20
1.0310185039370079
11
1.4473274015748032
21
1.0309457874015748
0
LINE
8
BLACK
6
CONTINUOUS
10
1.6089593307086614
20
1.0328384645669291
11
1.6094920078740158
21
1.0323057874015749
0
LINE
8
BLACK
6
CONTINUOUS
10
1.6094920078740158
20
1.0323057874015749
11
1.6095669291338581
21
0.8980708661417323
0
LINE
8
BLACK
6
CONTINUOUS
10
1.6095669291338581
20
0.8980708661417323
11
1.6094920078740158
21
0.8976942125984252
0
LINE
8
BLACK
6
CONTINUOUS
10
1.6094920078740158
20
0.8976942125984252
11
1.6089593307086614
21
0.8971615354330709
0
LINE
8
BLACK
6
CONTINUOUS
10
1.6089593307086614
20
0.8971615354330709
11
1.5314173228346457
21
0.8970866141732283
0
LINE
8
BLACK
6
CONTINUOUS
10
1.5314173228346457
20
0.8970866141732283
11
1.5310406692913385
21
0.8971615354330709
0
LINE
8
BLACK
6
CONTINUOUS
10
1.5310406692913385
20
0.8971615354330709
11
1.5305079921259843
21
0.8976942125984252
0
LINE
8
BLACK
6
CONTINUOUS
10
1.5305079921259843
20
0.8976942125984252
11
1.5304330708661418
21
1.0319291338582677
0
LINE
8
BLACK
6
CONTINUOUS
10
1.5304330708661418
20
1.0319291338582677
11
1.5305079921259843
21
1.0323057874015749
0
LINE
8
BLACK
6
CONTINUOUS
10
1.5305079921259843
20
1.0323057874015749
11
1.5310406692913385
21
1.0328384645669291
0
LINE
8
BLACK
6
CONTINUOUS
10
1.5310406692913385
20
1.0328384645669291
11
1.6085826771653542
21
1.0329133858267716
0
LINE
8
BLACK
6
CONTINUOUS
10
1.6085826771653542
20
1.0329133858267716
11
1.6089593307086614
21
1.0328384645669291
0
LINE
8
BLACK
6
CONTINUOUS
10
1.5323274015748032
20
1.0309457874015748
11
1.5324010629921259
21
0.8989815354330708
0
LINE
8
BLACK
6
CONTINUOUS
10
1.5324010629921259
20
0.8989815354330708
11
1.607672559055118
21
0.899054251968504
0
LINE
8
BLACK
6
CONTINUOUS
10
1.607672559055118
20
0.899054251968504
11
1.6075988976377953
21
1.0310185039370079
0
LINE
8
BLACK
6
CONTINUOUS
10
1.6075988976377953
20
1.0310185039370079
11
1.5323274015748032
21
1.0309457874015748
0
LINE
8
BLACK
6
CONTINUOUS
10
1.7913057874015748
20
1.0364920078740156
11
1.7918384645669292
21
1.0359593307086614
0
LINE
8
BLACK
6
CONTINUOUS
10
1.7918384645669292
20
1.0359593307086614
11
1.7919133858267715
21
0.9584173228346456
0
LINE
8
BLACK
6
CONTINUOUS
10
1.7919133858267715
20
0.9584173228346456
11
1.7918384645669292
21
0.9580406692913386
0
LINE
8
BLACK
6
CONTINUOUS
10
1.7918384645669292
20
0.9580406692913386
11
1.7913057874015748
21
0.9575079921259843
0
LINE
8
BLACK
6
CONTINUOUS
10
1.7913057874015748
20
0.9575079921259843
11
1.6570708661417322
21
0.9574330708661417
0
LINE
8
BLACK
6
CONTINUOUS
10
1.6570708661417322
20
0.9574330708661417
11
1.6566942125984252
21
0.9575079921259843
0
LINE
8
BLACK
6
CONTINUOUS
10
1.6566942125984252
20
0.9575079921259843
11
1.6561615354330708
21
0.9580406692913386
0
LINE
8
BLACK
6
CONTINUOUS
10
1.6561615354330708
20
0.9580406692913386
11
1.6560866141732282
21
1.0355826771653542
0
LINE
8
BLACK
6
CONTINUOUS
10
1.6560866141732282
20
1.0355826771653542
11
1.6561615354330708
21
1.0359593307086614
0
LINE
8
BLACK
6
CONTINUOUS
10
1.6561615354330708
20
1.0359593307086614
11
1.6566942125984252
21
1.0364920078740156
0
LINE
8
BLACK
6
CONTINUOUS
10
1.6566942125984252
20
1.0364920078740156
11
1.7909291338582676
21
1.0365669291338582
0
LINE
8
BLACK
6
CONTINUOUS
10
1.7909291338582676
20
1.0365669291338582
11
1.7913057874015748
21
1.0364920078740156
0
LINE
8
BLACK
6
CONTINUOUS
10
1.6579814960629922
20
1.0345989370078741
11
1.6580542125984252
21
0.9593274409448819
0
LINE
8
BLACK
6
CONTINUOUS
10
1.6580542125984252
20
0.9593274409448819
11
1.790018464566929
21
0.9594011023622047
0
LINE
8
BLACK
6
CONTINUOUS
10
1.790018464566929
20
0.9594011023622047
11
1.789945748031496
21
1.0346725984251968
0
LINE
8
BLACK
6
CONTINUOUS
10
1.789945748031496
20
1.0346725984251968
11
1.6579814960629922
21
1.0345989370078741
0
LINE
8
BLACK
6
CONTINUOUS
10
1.2336443700787401
20
1.0296494881889764
11
1.2341770472440945
21
1.029116811023622
0
LINE
8
BLACK
6
CONTINUOUS
10
1.2341770472440945
20
1.029116811023622
11
1.234251968503937
21
0.971259842519685
0
LINE
8
BLACK
6
CONTINUOUS
10
1.234251968503937
20
0.971259842519685
11
1.2341770472440945
21
0.9708831889763779
0
LINE
8
BLACK
6
CONTINUOUS
10
1.2341770472440945
20
0.9708831889763779
11
1.2336443700787401
21
0.9703505118110236
0
LINE
8
BLACK
6
CONTINUOUS
10
1.2336443700787401
20
0.9703505118110236
11
1.116732283464567
21
0.9702755905511811
0
LINE
8
BLACK
6
CONTINUOUS
10
1.116732283464567
20
0.9702755905511811
11
1.1163556299212598
21
0.9703505118110236
0
LINE
8
BLACK
6
CONTINUOUS
10
1.1163556299212598
20
0.9703505118110236
11
1.1158229527559056
21
0.9708831889763779
0
LINE
8
BLACK
6
CONTINUOUS
10
1.1158229527559056
20
0.9708831889763779
11
1.1157480314960631
21
1.028740157480315
0
LINE
8
BLACK
6
CONTINUOUS
10
1.1157480314960631
20
1.028740157480315
11
1.1158229527559056
21
1.029116811023622
0
LINE
8
BLACK
6
CONTINUOUS
10
1.1158229527559056
20
1.029116811023622
11
1.1163556299212598
21
1.0296494881889764
0
LINE
8
BLACK
6
CONTINUOUS
10
1.1163556299212598
20
1.0296494881889764
11
1.2332677165354331
21
1.0297244094488189
0
LINE
8
BLACK
6
CONTINUOUS
10
1.2332677165354331
20
1.0297244094488189
11
1.2336443700787401
21
1.0296494881889764
0
LINE
8
BLACK
6
CONTINUOUS
10
1.1176433464566928
20
1.0277564960629921
11
1.1177153543307086
21
0.9721700787401575
0
LINE
8
BLACK
6
CONTINUOUS
10
1.1177153543307086
20
0.9721700787401575
11
1.2323566141732283
21
0.9722435433070866
0
LINE
8
BLACK
6
CONTINUOUS
10
1.2323566141732283
20
0.9722435433070866
11
1.2322846062992125
21
1.0278299606299213
0
LINE
8
BLACK
6
CONTINUOUS
10
1.2322846062992125
20
1.0278299606299213
11
1.1176433464566928
21
1.0277564960629921
0
LINE
8
BLACK
6
CONTINUOUS
10
1.3536443700787402
20
1.0296494881889764
11
1.3541770472440944
21
1.029116811023622
0
LINE
8
BLACK
6
CONTINUOUS
10
1.3541770472440944
20
1.029116811023622
11
1.3542519685039369
21
0.971259842519685
0
LINE
8
BLACK
6
CONTINUOUS
10
1.3542519685039369
20
0.971259842519685
11
1.3541770472440944
21
0.9708831889763779
0
LINE
8
BLACK
6
CONTINUOUS
10
1.3541770472440944
20
0.9708831889763779
11
1.3536443700787402
21
0.9703505118110236
0
LINE
8
BLACK
6
CONTINUOUS
10
1.3536443700787402
20
0.9703505118110236
11
1.2367322834645669
21
0.9702755905511811
0
LINE
8
BLACK
6
CONTINUOUS
10
1.2367322834645669
20
0.9702755905511811
11
1.2363556299212599
21
0.9703505118110236
0
LINE
8
BLACK
6
CONTINUOUS
10
1.2363556299212599
20
0.9703505118110236
11
1.2358229527559055
21
0.9708831889763779
0
LINE
8
BLACK
6
CONTINUOUS
10
1.2358229527559055
20
0.9708831889763779
11
1.2357480314960629
21
1.028740157480315
0
LINE
8
BLACK
6
CONTINUOUS
10
1.2357480314960629
20
1.028740157480315
11
1.2358229527559055
21
1.029116811023622
0
LINE
8
BLACK
6
CONTINUOUS
10
1.2358229527559055
20
1.029116811023622
11
1.2363556299212599
21
1.0296494881889764
0
LINE
8
BLACK
6
CONTINUOUS
10
1.2363556299212599
20
1.0296494881889764
11
1.353267716535433
21
1.0297244094488189
0
LINE
8
BLACK
6
CONTINUOUS
10
1.353267716535433
20
1.0297244094488189
11
1.3536443700787402
21
1.0296494881889764
0
LINE
8
BLACK
6
CONTINUOUS
10
1.2376433464566929
20
1.0277564960629921
11
1.2377153543307087
21
0.9721700787401575
0
LINE
8
BLACK
6
CONTINUOUS
10
1.2377153543307087
20
0.9721700787401575
11
1.3523566141732284
21
0.9722435433070866
0
LINE
8
BLACK
6
CONTINUOUS
10
1.3523566141732284
20
0.9722435433070866
11
1.3522846062992127
21
1.0278299606299213
0
LINE
8
BLACK
6
CONTINUOUS
10
1.3522846062992127
20
1.0278299606299213
11
1.2376433464566929
21
1.0277564960629921
0
LINE
8
BLACK
6
CONTINUOUS
10
0.6115183858267716
20
1.058310905511811
11
0.612051062992126
21
1.0577782283464567
0
LINE
8
BLACK
6
CONTINUOUS
10
0.612051062992126
20
1.0577782283464567
11
0.6121259842519685
21
0.9825984251968504
0
LINE
8
BLACK
6
CONTINUOUS
10
0.6121259842519685
20
0.9825984251968504
11
0.612051062992126
21
0.9822217716535433
0
LINE
8
BLACK
6
CONTINUOUS
10
0.612051062992126
20
0.9822217716535433
11
0.6115183858267716
21
0.981689094488189
0
LINE
8
BLACK
6
CONTINUOUS
10
0.6115183858267716
20
0.981689094488189
11
0.4788582677165354
21
0.9816141732283464
0
LINE
8
BLACK
6
CONTINUOUS
10
0.4788582677165354
20
0.9816141732283464
11
0.4784816141732283
21
0.981689094488189
0
LINE
8
BLACK
6
CONTINUOUS
10
0.4784816141732283
20
0.981689094488189
11
0.477948937007874
21
0.9822217716535433
0
LINE
8
BLACK
6
CONTINUOUS
10
0.477948937007874
20
0.9822217716535433
11
0.4778740157480315
21
1.0574015748031496
0
LINE
8
BLACK
6
CONTINUOUS
10
0.4778740157480315
20
1.0574015748031496
11
0.477948937007874
21
1.0577782283464567
0
LINE
8
BLACK
6
CONTINUOUS
10
0.477948937007874
20
1.0577782283464567
11
0.4784816141732283
21
1.058310905511811
0
LINE
8
BLACK
6
CONTINUOUS
10
0.4784816141732283
20
1.058310905511811
11
0.6111417322834646
21
1.0583858267716535
0
LINE
8
BLACK
6
CONTINUOUS
10
0.6111417322834646
20
1.0583858267716535
11
0.6115183858267716
21
1.058310905511811
0
LINE
8
BLACK
6
CONTINUOUS
10
0.479768937007874
20
1.0564178740157479
11
0.4798415748031496
21
0.9835085433070866
0
LINE
8
BLACK
6
CONTINUOUS
10
0.4798415748031496
20
0.9835085433070866
11
0.6102310236220472
21
0.9835821653543307
0
LINE
8
BLACK
6
CONTINUOUS
10
0.6102310236220472
20
0.9835821653543307
11
0.6101583858267716
21
1.0564914960629921
0
LINE
8
BLACK
6
CONTINUOUS
10
0.6101583858267716
20
1.0564914960629921
11
0.479768937007874
21
1.0564178740157479
0
LINE
8
BLACK
6
CONTINUOUS
10
4.4233687795275589
20
1.0851612992125983
11
4.4239014566929136
21
1.0846286220472441
0
LINE
8
BLACK
6
CONTINUOUS
10
4.4239014566929136
20
1.0846286220472441
11
4.4239763779527559
21
0.9937007874015747
0
LINE
8
BLACK
6
CONTINUOUS
10
4.4239763779527559
20
0.9937007874015747
11
4.4239014566929136
21
0.9933241338582677
0
LINE
8
BLACK
6
CONTINUOUS
10
4.4239014566929136
20
0.9933241338582677
11
4.4233687795275589
21
0.9927914566929134
0
LINE
8
BLACK
6
CONTINUOUS
10
4.4233687795275589
20
0.9927914566929134
11
4.2418897637795272
21
0.9927165354330708
0
LINE
8
BLACK
6
CONTINUOUS
10
4.2418897637795272
20
0.9927165354330708
11
4.2415131102362205
21
0.9927914566929134
0
LINE
8
BLACK
6
CONTINUOUS
10
4.2415131102362205
20
0.9927914566929134
11
4.2409804330708658
21
0.9933241338582677
0
LINE
8
BLACK
6
CONTINUOUS
10
4.2409804330708658
20
0.9933241338582677
11
4.2409055118110235
21
1.0842519685039369
0
LINE
8
BLACK
6
CONTINUOUS
10
4.2409055118110235
20
1.0842519685039369
11
4.2409804330708658
21
1.0846286220472441
0
LINE
8
BLACK
6
CONTINUOUS
10
4.2409804330708658
20
1.0846286220472441
11
4.2415131102362205
21
1.0851612992125983
0
LINE
8
BLACK
6
CONTINUOUS
10
4.2415131102362205
20
1.0851612992125983
11
4.4229921259842522
21
1.0852362204724408
0
LINE
8
BLACK
6
CONTINUOUS
10
4.4229921259842522
20
1.0852362204724408
11
4.4233687795275589
21
1.0851612992125983
0
LINE
8
BLACK
6
CONTINUOUS
10
4.2428001968503937
20
1.0832681102362205
11
4.2428732283464567
21
0.9946107086614173
0
LINE
8
BLACK
6
CONTINUOUS
10
4.2428732283464567
20
0.9946107086614173
11
4.422081653543307
21
0.99468468503937
0
LINE
8
BLACK
6
CONTINUOUS
10
4.422081653543307
20
0.99468468503937
11
4.4220086220472439
21
1.0833420866141732
0
LINE
8
BLACK
6
CONTINUOUS
10
4.4220086220472439
20
1.0833420866141732
11
4.2428001968503937
21
1.0832681102362205
0
LINE
8
BLACK
6
CONTINUOUS
10
2.3027388582677166
20
1.2382715354330709
11
2.3032715354330708
21
1.2377388582677165
0
LINE
8
BLACK
6
CONTINUOUS
10
2.3032715354330708
20
1.2377388582677165
11
2.3033464566929132
21
1.0326377952755905
0
LINE
8
BLACK
6
CONTINUOUS
10
2.3033464566929132
20
1.0326377952755905
11
2.3032715354330708
21
1.0322611417322833
0
LINE
8
BLACK
6
CONTINUOUS
10
2.3032715354330708
20
1.0322611417322833
11
2.3027388582677166
21
1.0317284645669291
0
LINE
8
BLACK
6
CONTINUOUS
10
2.3027388582677166
20
1.0317284645669291
11
2.0976377952755905
21
1.0316535433070866
0
LINE
8
BLACK
6
CONTINUOUS
10
2.0976377952755905
20
1.0316535433070866
11
2.0972611417322833
21
1.0317284645669291
0
LINE
8
BLACK
6
CONTINUOUS
10
2.0972611417322833
20
1.0317284645669291
11
2.0967284645669291
21
1.0322611417322833
0
LINE
8
BLACK
6
CONTINUOUS
10
2.0967284645669291
20
1.0322611417322833
11
2.0967284645669291
21
1.0323057874015749
0
LINE
8
BLACK
6
CONTINUOUS
10
2.0967284645669291
20
1.0323057874015749
11
2.0966535433070868
21
1.2373622047244095
0
LINE
8
BLACK
6
CONTINUOUS
10
2.0966535433070868
20
1.2373622047244095
11
2.0967284645669291
21
1.2377388582677165
0
LINE
8
BLACK
6
CONTINUOUS
10
2.0967284645669291
20
1.2377388582677165
11
2.0972611417322833
21
1.2382715354330709
0
LINE
8
BLACK
6
CONTINUOUS
10
2.0972611417322833
20
1.2382715354330709
11
2.3023622047244094
21
1.2383464566929134
0
LINE
8
BLACK
6
CONTINUOUS
10
2.3023622047244094
20
1.2383464566929134
11
2.3027388582677166
21
1.2382715354330709
0
LINE
8
BLACK
6
CONTINUOUS
10
2.0985475984251969
20
1.2363783070866141
11
2.0986216929133858
21
1.0335476377952755
0
LINE
8
BLACK
6
CONTINUOUS
10
2.0986216929133858
20
1.0335476377952755
11
2.3014523622047243
21
1.0336217322834644
0
LINE
8
BLACK
6
CONTINUOUS
10
2.3014523622047243
20
1.0336217322834644
11
2.3013782677165353
21
1.2364524015748031
0
LINE
8
BLACK
6
CONTINUOUS
10
2.3013782677165353
20
1.2364524015748031
11
2.0985475984251969
21
1.2363783070866141
0
LINE
8
BLACK
6
CONTINUOUS
10
1.0739593307086615
20
1.1878384645669291
11
1.0744920078740157
21
1.1873057874015749
0
LINE
8
BLACK
6
CONTINUOUS
10
1.0744920078740157
20
1.1873057874015749
11
1.0745669291338582
21
1.0530708661417323
0
LINE
8
BLACK
6
CONTINUOUS
10
1.0745669291338582
20
1.0530708661417323
11
1.0744920078740157
21
1.0526942125984251
0
LINE
8
BLACK
6
CONTINUOUS
10
1.0744920078740157
20
1.0526942125984251
11
1.0739593307086615
21
1.0521615354330709
0
LINE
8
BLACK
6
CONTINUOUS
10
1.0739593307086615
20
1.0521615354330709
11
0.9964173228346457
21
1.0520866141732284
0
LINE
8
BLACK
6
CONTINUOUS
10
0.9964173228346457
20
1.0520866141732284
11
0.9960406692913386
21
1.0521615354330709
0
LINE
8
BLACK
6
CONTINUOUS
10
0.9960406692913386
20
1.0521615354330709
11
0.9955079921259842
21
1.0526942125984251
0
LINE
8
BLACK
6
CONTINUOUS
10
0.9955079921259842
20
1.0526942125984251
11
0.9954330708661417
21
1.1869291338582677
0
LINE
8
BLACK
6
CONTINUOUS
10
0.9954330708661417
20
1.1869291338582677
11
0.9955079921259842
21
1.1873057874015749
0
LINE
8
BLACK
6
CONTINUOUS
10
0.9955079921259842
20
1.1873057874015749
11
0.9960406692913386
21
1.1878384645669291
0
LINE
8
BLACK
6
CONTINUOUS
10
0.9960406692913386
20
1.1878384645669291
11
1.0735826771653543
21
1.1879133858267716
0
LINE
8
BLACK
6
CONTINUOUS
10
1.0735826771653543
20
1.1879133858267716
11
1.0739593307086615
21
1.1878384645669291
0
LINE
8
BLACK
6
CONTINUOUS
10
0.9973274015748032
20
1.1859457874015749
11
0.9974010629921259
21
1.0539815354330708
0
LINE
8
BLACK
6
CONTINUOUS
10
0.9974010629921259
20
1.0539815354330708
11
1.072672559055118
21
1.0540542519685039
0
LINE
8
BLACK
6
CONTINUOUS
10
1.072672559055118
20
1.0540542519685039
11
1.0725988976377951
21
1.1860185039370079
0
LINE
8
BLACK
6
CONTINUOUS
10
1.0725988976377951
20
1.1860185039370079
11
0.9973274015748032
21
1.1859457874015749
0
LINE
8
BLACK
6
CONTINUOUS
10
0.9873057874015748
20
1.1394920078740158
11
0.9878384645669291
21
1.1389593307086614
0
LINE
8
BLACK
6
CONTINUOUS
10
0.9878384645669291
20
1.1389593307086614
11
0.9879133858267717
21
1.0614173228346457
0
LINE
8
BLACK
6
CONTINUOUS
10
0.9879133858267717
20
1.0614173228346457
11
0.9878384645669291
21
1.0610406692913386
0
LINE
8
BLACK
6
CONTINUOUS
10
0.9878384645669291
20
1.0610406692913386
11
0.9873057874015748
21
1.0605079921259841
0
LINE
8
BLACK
6
CONTINUOUS
10
0.9873057874015748
20
1.0605079921259841
11
0.8530708661417322
21
1.0604330708661418
0
LINE
8
BLACK
6
CONTINUOUS
10
0.8530708661417322
20
1.0604330708661418
11
0.8526942125984251
21
1.0605079921259841
0
LINE
8
BLACK
6
CONTINUOUS
10
0.8526942125984251
20
1.0605079921259841
11
0.8521615354330708
21
1.0610406692913386
0
LINE
8
BLACK
6
CONTINUOUS
10
0.8521615354330708
20
1.0610406692913386
11
0.8520866141732283
21
1.1385826771653542
0
LINE
8
BLACK
6
CONTINUOUS
10
0.8520866141732283
20
1.1385826771653542
11
0.8521615354330708
21
1.1389593307086614
0
LINE
8
BLACK
6
CONTINUOUS
10
0.8521615354330708
20
1.1389593307086614
11
0.8526942125984251
21
1.1394920078740158
0
LINE
8
BLACK
6
CONTINUOUS
10
0.8526942125984251
20
1.1394920078740158
11
0.9869291338582677
21
1.1395669291338582
0
LINE
8
BLACK
6
CONTINUOUS
10
0.9869291338582677
20
1.1395669291338582
11
0.9873057874015748
21
1.1394920078740158
0
LINE
8
BLACK
6
CONTINUOUS
10
0.8539814960629921
20
1.1375989370078741
11
0.8540542125984252
21
1.062327440944882
0
LINE
8
BLACK
6
CONTINUOUS
10
0.8540542125984252
20
1.062327440944882
11
0.9860184645669291
21
1.0624011023622046
0
LINE
8
BLACK
6
CONTINUOUS
10
0.9860184645669291
20
1.0624011023622046
11
0.985945748031496
21
1.1376725984251967
0
LINE
8
BLACK
6
CONTINUOUS
10
0.985945748031496
20
1.1376725984251967
11
0.8539814960629921
21
1.1375989370078741
0
LINE
8
BLACK
6
CONTINUOUS
10
0.8477782283464567
20
1.197051062992126
11
0.848310905511811
21
1.1965183858267716
0
LINE
8
BLACK
6
CONTINUOUS
10
0.848310905511811
20
1.1965183858267716
11
0.8483858267716535
21
1.0638582677165354
0
LINE
8
BLACK
6
CONTINUOUS
10
0.8483858267716535
20
1.0638582677165354
11
0.848310905511811
21
1.0634816141732284
0
LINE
8
BLACK
6
CONTINUOUS
10
0.848310905511811
20
1.0634816141732284
11
0.8477782283464567
21
1.062948937007874
0
LINE
8
BLACK
6
CONTINUOUS
10
0.8477782283464567
20
1.062948937007874
11
0.7725984251968504
21
1.0628740157480314
0
LINE
8
BLACK
6
CONTINUOUS
10
0.7725984251968504
20
1.0628740157480314
11
0.7722217716535433
21
1.062948937007874
0
LINE
8
BLACK
6
CONTINUOUS
10
0.7722217716535433
20
1.062948937007874
11
0.771689094488189
21
1.0634816141732284
0
LINE
8
BLACK
6
CONTINUOUS
10
0.771689094488189
20
1.0634816141732284
11
0.7716141732283465
21
1.1961417322834644
0
LINE
8
BLACK
6
CONTINUOUS
10
0.7716141732283465
20
1.1961417322834644
11
0.771689094488189
21
1.1965183858267716
0
LINE
8
BLACK
6
CONTINUOUS
10
0.771689094488189
20
1.1965183858267716
11
0.7722217716535433
21
1.197051062992126
0
LINE
8
BLACK
6
CONTINUOUS
10
0.7722217716535433
20
1.197051062992126
11
0.8474015748031496
21
1.1971259842519684
0
LINE
8
BLACK
6
CONTINUOUS
10
0.8474015748031496
20
1.1971259842519684
11
0.8477782283464567
21
1.197051062992126
0
LINE
8
BLACK
6
CONTINUOUS
10
0.7735085039370079
20
1.1951584251968503
11
0.7735821259842519
21
1.0647689763779526
0
LINE
8
BLACK
6
CONTINUOUS
10
0.7735821259842519
20
1.0647689763779526
11
0.8464914566929134
21
1.0648416141732284
0
LINE
8
BLACK
6
CONTINUOUS
10
0.8464914566929134
20
1.0648416141732284
11
0.8464178346456692
21
1.1952310629921259
0
LINE
8
BLACK
6
CONTINUOUS
10
0.8464178346456692
20
1.1952310629921259
11
0.7735085039370079
21
1.1951584251968503
0
LINE
8
BLACK
6
CONTINUOUS
10
1.3251441338582677
20
1.2552335826771652
11
1.3264225590551182
21
1.2539551574803149
0
LINE
8
BLACK
6
CONTINUOUS
10
1.3264225590551182
20
1.2539551574803149
11
1.3266023622047243
21
1.0719488188976378
0
LINE
8
BLACK
6
CONTINUOUS
10
1.3266023622047243
20
1.0719488188976378
11
1.3264225590551182
21
1.071044842519685
0
LINE
8
BLACK
6
CONTINUOUS
10
1.3264225590551182
20
1.071044842519685
11
1.3251441338582677
21
1.0697664173228347
0
LINE
8
BLACK
6
CONTINUOUS
10
1.3251441338582677
20
1.0697664173228347
11
1.1431377952755906
21
1.0695866141732284
0
LINE
8
BLACK
6
CONTINUOUS
10
1.1431377952755906
20
1.0695866141732284
11
1.1422338188976378
21
1.0697664173228347
0
LINE
8
BLACK
6
CONTINUOUS
10
1.1422338188976378
20
1.0697664173228347
11
1.1409553937007875
21
1.071044842519685
0
LINE
8
BLACK
6
CONTINUOUS
10
1.1409553937007875
20
1.071044842519685
11
1.1407755905511812
21
1.2530511811023621
0
LINE
8
BLACK
6
CONTINUOUS
10
1.1407755905511812
20
1.2530511811023621
11
1.1409553937007875
21
1.2539551574803149
0
LINE
8
BLACK
6
CONTINUOUS
10
1.1409553937007875
20
1.2539551574803149
11
1.1422338188976378
21
1.2552335826771652
0
LINE
8
BLACK
6
CONTINUOUS
10
1.1422338188976378
20
1.2552335826771652
11
1.3242401574803149
21
1.2554133858267715
0
LINE
8
BLACK
6
CONTINUOUS
10
1.3242401574803149
20
1.2554133858267715
11
1.3251441338582677
21
1.2552335826771652
0
LINE
8
BLACK
6
CONTINUOUS
10
1.1453233858267717
20
1.2506911417322835
11
1.1454978346456692
21
1.0741344488188975
0
LINE
8
BLACK
6
CONTINUOUS
10
1.1454978346456692
20
1.0741344488188975
11
1.3220545275590552
21
1.0743088976377952
0
LINE
8
BLACK
6
CONTINUOUS
10
1.3220545275590552
20
1.0743088976377952
11
1.3218800787401574
21
1.2508655905511812
0
LINE
8
BLACK
6
CONTINUOUS
10
1.3218800787401574
20
1.2508655905511812
11
1.1453233858267717
21
1.2506911417322835
0
LINE
8
BLACK
6
CONTINUOUS
10
1.4439593307086613
20
1.212838464566929
11
1.4444920078740158
21
1.2123057874015748
0
LINE
8
BLACK
6
CONTINUOUS
10
1.4444920078740158
20
1.2123057874015748
11
1.4445669291338583
21
1.0780708661417322
0
LINE
8
BLACK
6
CONTINUOUS
10
1.4445669291338583
20
1.0780708661417322
11
1.4444920078740158
21
1.0776942125984252
0
LINE
8
BLACK
6
CONTINUOUS
10
1.4444920078740158
20
1.0776942125984252
11
1.4439593307086613
21
1.0771615354330708
0
LINE
8
BLACK
6
CONTINUOUS
10
1.4439593307086613
20
1.0771615354330708
11
1.3664173228346457
21
1.0770866141732283
0
LINE
8
BLACK
6
CONTINUOUS
10
1.3664173228346457
20
1.0770866141732283
11
1.3660406692913385
21
1.0771615354330708
0
LINE
8
BLACK
6
CONTINUOUS
10
1.3660406692913385
20
1.0771615354330708
11
1.3655079921259843
21
1.0776942125984252
0
LINE
8
BLACK
6
CONTINUOUS
10
1.3655079921259843
20
1.0776942125984252
11
1.3654330708661417
21
1.2119291338582676
0
LINE
8
BLACK
6
CONTINUOUS
10
1.3654330708661417
20
1.2119291338582676
11
1.3655079921259843
21
1.2123057874015748
0
LINE
8
BLACK
6
CONTINUOUS
10
1.3655079921259843
20
1.2123057874015748
11
1.3660406692913385
21
1.212838464566929
0
LINE
8
BLACK
6
CONTINUOUS
10
1.3660406692913385
20
1.212838464566929
11
1.4435826771653544
21
1.2129133858267716
0
LINE
8
BLACK
6
CONTINUOUS
10
1.4435826771653544
20
1.2129133858267716
11
1.4439593307086613
21
1.212838464566929
0
LINE
8
BLACK
6
CONTINUOUS
10
1.3673274015748031
20
1.2109457874015748
11
1.367401062992126
21
1.0789815354330707
0
LINE
8
BLACK
6
CONTINUOUS
10
1.367401062992126
20
1.0789815354330707
11
1.4426725590551182
21
1.079054251968504
0
LINE
8
BLACK
6
CONTINUOUS
10
1.4426725590551182
20
1.079054251968504
11
1.4425988976377953
21
1.2110185039370078
0
LINE
8
BLACK
6
CONTINUOUS
10
1.4425988976377953
20
1.2110185039370078
11
1.3673274015748031
21
1.2109457874015748
0
LINE
8
BLACK
6
CONTINUOUS
10
1.5815183858267716
20
1.1633109055118109
11
1.5820510629921261
21
1.1627782283464567
0
LINE
8
BLACK
6
CONTINUOUS
10
1.5820510629921261
20
1.1627782283464567
11
1.5821259842519684
21
1.0875984251968505
0
LINE
8
BLACK
6
CONTINUOUS
10
1.5821259842519684
20
1.0875984251968505
11
1.5820510629921261
21
1.0872217716535433
0
LINE
8
BLACK
6
CONTINUOUS
10
1.5820510629921261
20
1.0872217716535433
11
1.5815183858267716
21
1.0866890944881888
0
LINE
8
BLACK
6
CONTINUOUS
10
1.5815183858267716
20
1.0866890944881888
11
1.4488582677165354
21
1.0866141732283465
0
LINE
8
BLACK
6
CONTINUOUS
10
1.4488582677165354
20
1.0866141732283465
11
1.4484816141732284
21
1.0866890944881888
0
LINE
8
BLACK
6
CONTINUOUS
10
1.4484816141732284
20
1.0866890944881888
11
1.447948937007874
21
1.0872217716535433
0
LINE
8
BLACK
6
CONTINUOUS
10
1.447948937007874
20
1.0872217716535433
11
1.4478740157480314
21
1.1624015748031495
0
LINE
8
BLACK
6
CONTINUOUS
10
1.4478740157480314
20
1.1624015748031495
11
1.447948937007874
21
1.1627782283464567
0
LINE
8
BLACK
6
CONTINUOUS
10
1.447948937007874
20
1.1627782283464567
11
1.4484816141732284
21
1.1633109055118109
0
LINE
8
BLACK
6
CONTINUOUS
10
1.4484816141732284
20
1.1633109055118109
11
1.5811417322834644
21
1.1633858267716535
0
LINE
8
BLACK
6
CONTINUOUS
10
1.5811417322834644
20
1.1633858267716535
11
1.5815183858267716
21
1.1633109055118109
0
LINE
8
BLACK
6
CONTINUOUS
10
1.4497689370078739
20
1.1614178740157479
11
1.4498415748031497
21
1.0885085433070867
0
LINE
8
BLACK
6
CONTINUOUS
10
1.4498415748031497
20
1.0885085433070867
11
1.5802310236220471
21
1.0885821653543306
0
LINE
8
BLACK
6
CONTINUOUS
10
1.5802310236220471
20
1.0885821653543306
11
1.5801583858267716
21
1.1614914960629921
0
LINE
8
BLACK
6
CONTINUOUS
10
1.5801583858267716
20
1.1614914960629921
11
1.4497689370078739
21
1.1614178740157479
0
LINE
8
BLACK
6
CONTINUOUS
10
2.5239593307086614
20
1.232838464566929
11
2.5244920078740156
21
1.2323057874015748
0
LINE
8
BLACK
6
CONTINUOUS
10
2.5244920078740156
20
1.2323057874015748
11
2.5245669291338584
21
1.0980708661417322
0
LINE
8
BLACK
6
CONTINUOUS
10
2.5245669291338584
20
1.0980708661417322
11
2.5244920078740156
21
1.0976942125984253
0
LINE
8
BLACK
6
CONTINUOUS
10
2.5244920078740156
20
1.0976942125984253
11
2.5239593307086614
21
1.0971615354330708
0
LINE
8
BLACK
6
CONTINUOUS
10
2.5239593307086614
20
1.0971615354330708
11
2.4464173228346455
21
1.0970866141732283
0
LINE
8
BLACK
6
CONTINUOUS
10
2.4464173228346455
20
1.0970866141732283
11
2.4460406692913383
21
1.0971615354330708
0
LINE
8
BLACK
6
CONTINUOUS
10
2.4460406692913383
20
1.0971615354330708
11
2.4455079921259841
21
1.0976942125984253
0
LINE
8
BLACK
6
CONTINUOUS
10
2.4455079921259841
20
1.0976942125984253
11
2.4454330708661418
21
1.2319291338582676
0
LINE
8
BLACK
6
CONTINUOUS
10
2.4454330708661418
20
1.2319291338582676
11
2.4455079921259841
21
1.2323057874015748
0
LINE
8
BLACK
6
CONTINUOUS
10
2.4455079921259841
20
1.2323057874015748
11
2.4460406692913383
21
1.232838464566929
0
LINE
8
BLACK
6
CONTINUOUS
10
2.4460406692913383
20
1.232838464566929
11
2.5235826771653542
21
1.2329133858267716
0
LINE
8
BLACK
6
CONTINUOUS
10
2.5235826771653542
20
1.2329133858267716
11
2.5239593307086614
21
1.232838464566929
0
LINE
8
BLACK
6
CONTINUOUS
10
2.4473274015748032
20
1.2309457874015748
11
2.4474010629921259
21
1.0989815354330708
0
LINE
8
BLACK
6
CONTINUOUS
10
2.4474010629921259
20
1.0989815354330708
11
2.5226725590551182
21
1.0990542519685038
0
LINE
8
BLACK
6
CONTINUOUS
10
2.5226725590551182
20
1.0990542519685038
11
2.5225988976377951
21
1.2310185039370078
0
LINE
8
BLACK
6
CONTINUOUS
10
2.5225988976377951
20
1.2310185039370078
11
2.4473274015748032
21
1.2309457874015748
0
LINE
8
BLACK
6
CONTINUOUS
10
2.4374593307086614
20
1.2337361023622047
11
2.4379920078740156
21
1.2332034251968504
0
LINE
8
BLACK
6
CONTINUOUS
10
2.4379920078740156
20
1.2332034251968504
11
2.4380669291338584
21
1.0989685039370078
0
LINE
8
BLACK
6
CONTINUOUS
10
2.4380669291338584
20
1.0989685039370078
11
2.4379920078740156
21
1.0985918503937007
0
LINE
8
BLACK
6
CONTINUOUS
10
2.4379920078740156
20
1.0985918503937007
11
2.4374593307086614
21
1.0980591732283465
0
LINE
8
BLACK
6
CONTINUOUS
10
2.4374593307086614
20
1.0980591732283465
11
2.3599173228346455
21
1.0979842519685039
0
LINE
8
BLACK
6
CONTINUOUS
10
2.3599173228346455
20
1.0979842519685039
11
2.3595406692913383
21
1.0980591732283465
0
LINE
8
BLACK
6
CONTINUOUS
10
2.3595406692913383
20
1.0980591732283465
11
2.3590079921259841
21
1.0985918503937007
0
LINE
8
BLACK
6
CONTINUOUS
10
2.3590079921259841
20
1.0985918503937007
11
2.3589330708661418
21
1.2328267716535433
0
LINE
8
BLACK
6
CONTINUOUS
10
2.3589330708661418
20
1.2328267716535433
11
2.3590079921259841
21
1.2332034251968504
0
LINE
8
BLACK
6
CONTINUOUS
10
2.3590079921259841
20
1.2332034251968504
11
2.3595406692913383
21
1.2337361023622047
0
LINE
8
BLACK
6
CONTINUOUS
10
2.3595406692913383
20
1.2337361023622047
11
2.4370826771653542
21
1.2338110236220472
0
LINE
8
BLACK
6
CONTINUOUS
10
2.4370826771653542
20
1.2338110236220472
11
2.4374593307086614
21
1.2337361023622047
0
LINE
8
BLACK
6
CONTINUOUS
10
2.3608274015748032
20
1.2318434251968504
11
2.3609010629921259
21
1.0998791732283464
0
LINE
8
BLACK
6
CONTINUOUS
10
2.3609010629921259
20
1.0998791732283464
11
2.4361725590551182
21
1.0999518897637794
0
LINE
8
BLACK
6
CONTINUOUS
10
2.4361725590551182
20
1.0999518897637794
11
2.4360988976377951
21
1.2319161417322835
0
LINE
8
BLACK
6
CONTINUOUS
10
2.4360988976377951
20
1.2319161417322835
11
2.3608274015748032
21
1.2318434251968504
0
LINE
8
BLACK
6
CONTINUOUS
10
0.6723057874015748
20
1.1944920078740158
11
0.6728384645669291
21
1.1939593307086613
0
LINE
8
BLACK
6
CONTINUOUS
10
0.6728384645669291
20
1.1939593307086613
11
0.6729133858267716
21
1.1164173228346457
0
LINE
8
BLACK
6
CONTINUOUS
10
0.6729133858267716
20
1.1164173228346457
11
0.6728384645669291
21
1.1160406692913385
0
LINE
8
BLACK
6
CONTINUOUS
10
0.6728384645669291
20
1.1160406692913385
11
0.6723057874015748
21
1.1155079921259843
0
LINE
8
BLACK
6
CONTINUOUS
10
0.6723057874015748
20
1.1155079921259843
11
0.5380708661417323
21
1.1154330708661417
0
LINE
8
BLACK
6
CONTINUOUS
10
0.5380708661417323
20
1.1154330708661417
11
0.5376942125984252
21
1.1155079921259843
0
LINE
8
BLACK
6
CONTINUOUS
10
0.5376942125984252
20
1.1155079921259843
11
0.5371615354330709
21
1.1160406692913385
0
LINE
8
BLACK
6
CONTINUOUS
10
0.5371615354330709
20
1.1160406692913385
11
0.5370866141732283
21
1.1935826771653544
0
LINE
8
BLACK
6
CONTINUOUS
10
0.5370866141732283
20
1.1935826771653544
11
0.5371615354330709
21
1.1939593307086613
0
LINE
8
BLACK
6
CONTINUOUS
10
0.5371615354330709
20
1.1939593307086613
11
0.5376942125984252
21
1.1944920078740158
0
LINE
8
BLACK
6
CONTINUOUS
10
0.5376942125984252
20
1.1944920078740158
11
0.6719291338582677
21
1.1945669291338583
0
LINE
8
BLACK
6
CONTINUOUS
10
0.6719291338582677
20
1.1945669291338583
11
0.6723057874015748
21
1.1944920078740158
0
LINE
8
BLACK
6
CONTINUOUS
10
0.5389814960629921
20
1.192598937007874
11
0.5390542125984252
21
1.1173274409448819
0
LINE
8
BLACK
6
CONTINUOUS
10
0.5390542125984252
20
1.1173274409448819
11
0.6710184645669292
21
1.1174011023622048
0
LINE
8
BLACK
6
CONTINUOUS
10
0.6710184645669292
20
1.1174011023622048
11
0.6709457480314961
21
1.1926725984251969
0
LINE
8
BLACK
6
CONTINUOUS
10
0.6709457480314961
20
1.1926725984251969
11
0.5389814960629921
21
1.192598937007874
0
LINE
8
BLACK
6
CONTINUOUS
10
4.4233687795275589
20
1.2146888582677164
11
4.4239014566929136
21
1.2141561811023622
0
LINE
8
BLACK
6
CONTINUOUS
10
4.4239014566929136
20
1.2141561811023622
11
4.4239763779527559
21
1.1232283464566928
0
LINE
8
BLACK
6
CONTINUOUS
10
4.4239763779527559
20
1.1232283464566928
11
4.4239014566929136
21
1.1228516929133858
0
LINE
8
BLACK
6
CONTINUOUS
10
4.4239014566929136
20
1.1228516929133858
11
4.4233687795275589
21
1.1223190157480314
0
LINE
8
BLACK
6
CONTINUOUS
10
4.4233687795275589
20
1.1223190157480314
11
4.2418897637795272
21
1.1222440944881888
0
LINE
8
BLACK
6
CONTINUOUS
10
4.2418897637795272
20
1.1222440944881888
11
4.2415131102362205
21
1.1223190157480314
0
LINE
8
BLACK
6
CONTINUOUS
10
4.2415131102362205
20
1.1223190157480314
11
4.2409804330708658
21
1.1228516929133858
0
LINE
8
BLACK
6
CONTINUOUS
10
4.2409804330708658
20
1.1228516929133858
11
4.2409055118110235
21
1.213779527559055
0
LINE
8
BLACK
6
CONTINUOUS
10
4.2409055118110235
20
1.213779527559055
11
4.2409804330708658
21
1.2141561811023622
0
LINE
8
BLACK
6
CONTINUOUS
10
4.2409804330708658
20
1.2141561811023622
11
4.2415131102362205
21
1.2146888582677164
0
LINE
8
BLACK
6
CONTINUOUS
10
4.2415131102362205
20
1.2146888582677164
11
4.4229921259842522
21
1.214763779527559
0
LINE
8
BLACK
6
CONTINUOUS
10
4.4229921259842522
20
1.214763779527559
11
4.4233687795275589
21
1.2146888582677164
0
LINE
8
BLACK
6
CONTINUOUS
10
4.2428001968503937
20
1.2127956692913386
11
4.2428732283464567
21
1.1241382677165355
0
LINE
8
BLACK
6
CONTINUOUS
10
4.2428732283464567
20
1.1241382677165355
11
4.422081653543307
21
1.1242122440944882
0
LINE
8
BLACK
6
CONTINUOUS
10
4.422081653543307
20
1.1242122440944882
11
4.4220086220472439
21
1.2128696456692913
0
LINE
8
BLACK
6
CONTINUOUS
10
4.4220086220472439
20
1.2128696456692913
11
4.2428001968503937
21
1.2127956692913386
0
LINE
8
BLACK
6
CONTINUOUS
10
3.3009672047244094
20
1.4313030314960629
11
3.3014998818897636
21
1.4307703543307086
0
LINE
8
BLACK
6
CONTINUOUS
10
3.3014998818897636
20
1.4307703543307086
11
3.3015748031496064
21
1.1296062992125984
0
LINE
8
BLACK
6
CONTINUOUS
10
3.3015748031496064
20
1.1296062992125984
11
3.3014998818897636
21
1.1292296456692914
0
LINE
8
BLACK
6
CONTINUOUS
10
3.3014998818897636
20
1.1292296456692914
11
3.3009672047244094
21
1.128696968503937
0
LINE
8
BLACK
6
CONTINUOUS
10
3.3009672047244094
20
1.128696968503937
11
3.1494094488188975
21
1.1286220472440944
0
LINE
8
BLACK
6
CONTINUOUS
10
3.1494094488188975
20
1.1286220472440944
11
3.1490327952755903
21
1.128696968503937
0
LINE
8
BLACK
6
CONTINUOUS
10
3.1490327952755903
20
1.128696968503937
11
3.1485001181102361
21
1.1292296456692914
0
LINE
8
BLACK
6
CONTINUOUS
10
3.1485001181102361
20
1.1292296456692914
11
3.1484251968503938
21
1.4303937007874015
0
LINE
8
BLACK
6
CONTINUOUS
10
3.1484251968503938
20
1.4303937007874015
11
3.1485001181102361
21
1.4307703543307086
0
LINE
8
BLACK
6
CONTINUOUS
10
3.1485001181102361
20
1.4307703543307086
11
3.1490327952755903
21
1.4313030314960629
0
LINE
8
BLACK
6
CONTINUOUS
10
3.1490327952755903
20
1.4313030314960629
11
3.3005905511811022
21
1.4313779527559054
0
LINE
8
BLACK
6
CONTINUOUS
10
3.3005905511811022
20
1.4313779527559054
11
3.3009672047244094
21
1.4313030314960629
0
LINE
8
BLACK
6
CONTINUOUS
10
3.1503190944881889
20
1.4294099212598426
11
3.1503934645669291
21
1.1305163385826771
0
LINE
8
BLACK
6
CONTINUOUS
10
3.1503934645669291
20
1.1305163385826771
11
3.2996808661417321
21
1.1305901181102362
0
LINE
8
BLACK
6
CONTINUOUS
10
3.2996808661417321
20
1.1305901181102362
11
3.2996064960629918
21
1.4294837007874015
0
LINE
8
BLACK
6
CONTINUOUS
10
3.2996064960629918
20
1.4294837007874015
11
3.1503190944881889
21
1.4294099212598426
0
LINE
8
BLACK
6
CONTINUOUS
10
1.6523057874015747
20
1.2444920078740158
11
1.6528384645669292
21
1.2439593307086614
0
LINE
8
BLACK
6
CONTINUOUS
10
1.6528384645669292
20
1.2439593307086614
11
1.6529133858267717
21
1.1664173228346457
0
LINE
8
BLACK
6
CONTINUOUS
10
1.6529133858267717
20
1.1664173228346457
11
1.6528384645669292
21
1.1660406692913385
0
LINE
8
BLACK
6
CONTINUOUS
10
1.6528384645669292
20
1.1660406692913385
11
1.6523057874015747
21
1.1655079921259843
0
LINE
8
BLACK
6
CONTINUOUS
10
1.6523057874015747
20
1.1655079921259843
11
1.5180708661417321
21
1.1654330708661418
0
LINE
8
BLACK
6
CONTINUOUS
10
1.5180708661417321
20
1.1654330708661418
11
1.5176942125984252
21
1.1655079921259843
0
LINE
8
BLACK
6
CONTINUOUS
10
1.5176942125984252
20
1.1655079921259843
11
1.5171615354330708
21
1.1660406692913385
0
LINE
8
BLACK
6
CONTINUOUS
10
1.5171615354330708
20
1.1660406692913385
11
1.5170866141732282
21
1.2435826771653542
0
LINE
8
BLACK
6
CONTINUOUS
10
1.5170866141732282
20
1.2435826771653542
11
1.5171615354330708
21
1.2439593307086614
0
LINE
8
BLACK
6
CONTINUOUS
10
1.5171615354330708
20
1.2439593307086614
11
1.5176942125984252
21
1.2444920078740158
0
LINE
8
BLACK
6
CONTINUOUS
10
1.5176942125984252
20
1.2444920078740158
11
1.6519291338582678
21
1.2445669291338581
0
LINE
8
BLACK
6
CONTINUOUS
10
1.6519291338582678
20
1.2445669291338581
11
1.6523057874015747
21
1.2444920078740158
0
LINE
8
BLACK
6
CONTINUOUS
10
1.5189814960629922
20
1.242598937007874
11
1.5190542125984252
21
1.1673274409448819
0
LINE
8
BLACK
6
CONTINUOUS
10
1.5190542125984252
20
1.1673274409448819
11
1.651018464566929
21
1.1674011023622046
0
LINE
8
BLACK
6
CONTINUOUS
10
1.651018464566929
20
1.1674011023622046
11
1.650945748031496
21
1.2426725984251967
0
LINE
8
BLACK
6
CONTINUOUS
10
1.650945748031496
20
1.2426725984251967
11
1.5189814960629922
21
1.242598937007874
0
LINE
8
BLACK
6
CONTINUOUS
10
1.0123057874015748
20
1.2744920078740156
11
1.0128384645669291
21
1.2739593307086614
0
LINE
8
BLACK
6
CONTINUOUS
10
1.0128384645669291
20
1.2739593307086614
11
1.0129133858267716
21
1.1964173228346457
0
LINE
8
BLACK
6
CONTINUOUS
10
1.0129133858267716
20
1.1964173228346457
11
1.0128384645669291
21
1.1960406692913386
0
LINE
8
BLACK
6
CONTINUOUS
10
1.0128384645669291
20
1.1960406692913386
11
1.0123057874015748
21
1.1955079921259841
0
LINE
8
BLACK
6
CONTINUOUS
10
1.0123057874015748
20
1.1955079921259841
11
0.8780708661417322
21
1.1954330708661418
0
LINE
8
BLACK
6
CONTINUOUS
10
0.8780708661417322
20
1.1954330708661418
11
0.8776942125984252
21
1.1955079921259841
0
LINE
8
BLACK
6
CONTINUOUS
10
0.8776942125984252
20
1.1955079921259841
11
0.8771615354330708
21
1.1960406692913386
0
LINE
8
BLACK
6
CONTINUOUS
10
0.8771615354330708
20
1.1960406692913386
11
0.8770866141732283
21
1.2735826771653542
0
LINE
8
BLACK
6
CONTINUOUS
10
0.8770866141732283
20
1.2735826771653542
11
0.8771615354330708
21
1.2739593307086614
0
LINE
8
BLACK
6
CONTINUOUS
10
0.8771615354330708
20
1.2739593307086614
11
0.8776942125984252
21
1.2744920078740156
0
LINE
8
BLACK
6
CONTINUOUS
10
0.8776942125984252
20
1.2744920078740156
11
1.0119291338582677
21
1.2745669291338582
0
LINE
8
BLACK
6
CONTINUOUS
10
1.0119291338582677
20
1.2745669291338582
11
1.0123057874015748
21
1.2744920078740156
0
LINE
8
BLACK
6
CONTINUOUS
10
0.8789814960629921
20
1.2725989370078741
11
0.8790542125984252
21
1.197327440944882
0
LINE
8
BLACK
6
CONTINUOUS
10
0.8790542125984252
20
1.197327440944882
11
1.0110184645669291
21
1.1974011023622047
0
LINE
8
BLACK
6
CONTINUOUS
10
1.0110184645669291
20
1.1974011023622047
11
1.0109457480314961
21
1.2726725984251968
0
LINE
8
BLACK
6
CONTINUOUS
10
1.0109457480314961
20
1.2726725984251968
11
0.8789814960629921
21
1.2725989370078741
0
LINE
8
BLACK
6
CONTINUOUS
10
3.1365183858267716
20
1.273310905511811
11
3.1370510629921258
21
1.2727782283464566
0
LINE
8
BLACK
6
CONTINUOUS
10
3.1370510629921258
20
1.2727782283464566
11
3.1371259842519685
21
1.1975984251968503
0
LINE
8
BLACK
6
CONTINUOUS
10
3.1371259842519685
20
1.1975984251968503
11
3.1370510629921258
21
1.1972217716535434
0
LINE
8
BLACK
6
CONTINUOUS
10
3.1370510629921258
20
1.1972217716535434
11
3.1365183858267716
21
1.1966890944881889
0
LINE
8
BLACK
6
CONTINUOUS
10
3.1365183858267716
20
1.1966890944881889
11
3.0038582677165353
21
1.1966141732283464
0
LINE
8
BLACK
6
CONTINUOUS
10
3.0038582677165353
20
1.1966141732283464
11
3.0034816141732281
21
1.1966890944881889
0
LINE
8
BLACK
6
CONTINUOUS
10
3.0034816141732281
20
1.1966890944881889
11
3.0029489370078739
21
1.1972217716535434
0
LINE
8
BLACK
6
CONTINUOUS
10
3.0029489370078739
20
1.1972217716535434
11
3.0028740157480316
21
1.2724015748031496
0
LINE
8
BLACK
6
CONTINUOUS
10
3.0028740157480316
20
1.2724015748031496
11
3.0029489370078739
21
1.2727782283464566
0
LINE
8
BLACK
6
CONTINUOUS
10
3.0029489370078739
20
1.2727782283464566
11
3.0034816141732281
21
1.273310905511811
0
LINE
8
BLACK
6
CONTINUOUS
10
3.0034816141732281
20
1.273310905511811
11
3.1361417322834644
21
1.2733858267716536
0
LINE
8
BLACK
6
CONTINUOUS
10
3.1361417322834644
20
1.2733858267716536
11
3.1365183858267716
21
1.273310905511811
0
LINE
8
BLACK
6
CONTINUOUS
10
3.0047689370078738
20
1.271417874015748
11
3.0048415748031494
21
1.1985085433070866
0
LINE
8
BLACK
6
CONTINUOUS
10
3.0048415748031494
20
1.1985085433070866
11
3.1352310236220471
21
1.1985821653543307
0
LINE
8
BLACK
6
CONTINUOUS
10
3.1352310236220471
20
1.1985821653543307
11
3.1351583858267715
21
1.2714914960629922
0
LINE
8
BLACK
6
CONTINUOUS
10
3.1351583858267715
20
1.2714914960629922
11
3.0047689370078738
21
1.271417874015748
0
LINE
8
BLACK
6
CONTINUOUS
10
0.5350616929133858
20
1.6016967322834645
11
0.5355943700787401
21
1.6011640551181101
0
LINE
8
BLACK
6
CONTINUOUS
10
0.5355943700787401
20
1.6011640551181101
11
0.5356692913385827
21
1.1992125984251969
0
LINE
8
BLACK
6
CONTINUOUS
10
0.5356692913385827
20
1.1992125984251969
11
0.5355943700787401
21
1.1988359448818897
0
LINE
8
BLACK
6
CONTINUOUS
10
0.5355943700787401
20
1.1988359448818897
11
0.5350616929133858
21
1.1983032677165355
0
LINE
8
BLACK
6
CONTINUOUS
10
0.5350616929133858
20
1.1983032677165355
11
0.2027952755905512
21
1.198228346456693
0
LINE
8
BLACK
6
CONTINUOUS
10
0.2027952755905512
20
1.198228346456693
11
0.2024186220472441
21
1.1983032677165355
0
LINE
8
BLACK
6
CONTINUOUS
10
0.2024186220472441
20
1.1983032677165355
11
0.2018859448818898
21
1.1988359448818897
0
LINE
8
BLACK
6
CONTINUOUS
10
0.2018859448818898
20
1.1988359448818897
11
0.2018110236220473
21
1.6007874015748031
0
LINE
8
BLACK
6
CONTINUOUS
10
0.2018110236220473
20
1.6007874015748031
11
0.2018859448818898
21
1.6011640551181101
0
LINE
8
BLACK
6
CONTINUOUS
10
0.2018859448818898
20
1.6011640551181101
11
0.2024186220472441
21
1.6016967322834645
0
LINE
8
BLACK
6
CONTINUOUS
10
0.2024186220472441
20
1.6016967322834645
11
0.5346850393700787
21
1.6017716535433071
0
LINE
8
BLACK
6
CONTINUOUS
10
0.5346850393700787
20
1.6017716535433071
11
0.5350616929133858
21
1.6016967322834645
0
LINE
8
BLACK
6
CONTINUOUS
10
0.203704842519685
20
1.5998033858267715
11
0.2037793307086614
21
1.2001222440944881
0
LINE
8
BLACK
6
CONTINUOUS
10
0.2037793307086614
20
1.2001222440944881
11
0.5337754330708662
21
1.2001966535433071
0
LINE
8
BLACK
6
CONTINUOUS
10
0.5337754330708662
20
1.2001966535433071
11
0.5337009448818898
21
1.5998777952755905
0
LINE
8
BLACK
6
CONTINUOUS
10
0.5337009448818898
20
1.5998777952755905
11
0.203704842519685
21
1.5998033858267715
0
LINE
8
BLACK
6
CONTINUOUS
10
2.9839593307086614
20
1.3428384645669291
11
2.9844920078740156
21
1.3423057874015747
0
LINE
8
BLACK
6
CONTINUOUS
10
2.9844920078740156
20
1.3423057874015747
11
2.9845669291338583
21
1.2080708661417323
0
LINE
8
BLACK
6
CONTINUOUS
10
2.9845669291338583
20
1.2080708661417323
11
2.9844920078740156
21
1.2076942125984251
0
LINE
8
BLACK
6
CONTINUOUS
10
2.9844920078740156
20
1.2076942125984251
11
2.9839593307086614
21
1.2071615354330709
0
LINE
8
BLACK
6
CONTINUOUS
10
2.9839593307086614
20
1.2071615354330709
11
2.9064173228346455
21
1.2070866141732284
0
LINE
8
BLACK
6
CONTINUOUS
10
2.9064173228346455
20
1.2070866141732284
11
2.9060406692913383
21
1.2071615354330709
0
LINE
8
BLACK
6
CONTINUOUS
10
2.9060406692913383
20
1.2071615354330709
11
2.9055079921259841
21
1.2076942125984251
0
LINE
8
BLACK
6
CONTINUOUS
10
2.9055079921259841
20
1.2076942125984251
11
2.9054330708661418
21
1.3419291338582677
0
LINE
8
BLACK
6
CONTINUOUS
10
2.9054330708661418
20
1.3419291338582677
11
2.9055079921259841
21
1.3423057874015747
0
LINE
8
BLACK
6
CONTINUOUS
10
2.9055079921259841
20
1.3423057874015747
11
2.9060406692913383
21
1.3428384645669291
0
LINE
8
BLACK
6
CONTINUOUS
10
2.9060406692913383
20
1.3428384645669291
11
2.9835826771653542
21
1.3429133858267717
0
LINE
8
BLACK
6
CONTINUOUS
10
2.9835826771653542
20
1.3429133858267717
11
2.9839593307086614
21
1.3428384645669291
0
LINE
8
BLACK
6
CONTINUOUS
10
2.9073274015748032
20
1.3409457874015747
11
2.9074010629921259
21
1.2089815354330709
0
LINE
8
BLACK
6
CONTINUOUS
10
2.9074010629921259
20
1.2089815354330709
11
2.9826725590551182
21
1.2090542519685039
0
LINE
8
BLACK
6
CONTINUOUS
10
2.9826725590551182
20
1.2090542519685039
11
2.9825988976377951
21
1.3410185039370079
0
LINE
8
BLACK
6
CONTINUOUS
10
2.9825988976377951
20
1.3410185039370079
11
2.9073274015748032
21
1.3409457874015747
0
LINE
8
BLACK
6
CONTINUOUS
10
0.6527782283464567
20
1.367051062992126
11
0.653310905511811
21
1.3665183858267715
0
LINE
8
BLACK
6
CONTINUOUS
10
0.653310905511811
20
1.3665183858267715
11
0.6533858267716536
21
1.2338582677165355
0
LINE
8
BLACK
6
CONTINUOUS
10
0.6533858267716536
20
1.2338582677165355
11
0.653310905511811
21
1.2334816141732283
0
LINE
8
BLACK
6
CONTINUOUS
10
0.653310905511811
20
1.2334816141732283
11
0.6527782283464567
21
1.2329489370078739
0
LINE
8
BLACK
6
CONTINUOUS
10
0.6527782283464567
20
1.2329489370078739
11
0.5775984251968503
21
1.2328740157480316
0
LINE
8
BLACK
6
CONTINUOUS
10
0.5775984251968503
20
1.2328740157480316
11
0.5772217716535433
21
1.2329489370078739
0
LINE
8
BLACK
6
CONTINUOUS
10
0.5772217716535433
20
1.2329489370078739
11
0.5766890944881889
21
1.2334816141732283
0
LINE
8
BLACK
6
CONTINUOUS
10
0.5766890944881889
20
1.2334816141732283
11
0.5766141732283464
21
1.3661417322834646
0
LINE
8
BLACK
6
CONTINUOUS
10
0.5766141732283464
20
1.3661417322834646
11
0.5766890944881889
21
1.3665183858267715
0
LINE
8
BLACK
6
CONTINUOUS
10
0.5766890944881889
20
1.3665183858267715
11
0.5772217716535433
21
1.367051062992126
0
LINE
8
BLACK
6
CONTINUOUS
10
0.5772217716535433
20
1.367051062992126
11
0.6524015748031496
21
1.3671259842519685
0
LINE
8
BLACK
6
CONTINUOUS
10
0.6524015748031496
20
1.3671259842519685
11
0.6527782283464567
21
1.367051062992126
0
LINE
8
BLACK
6
CONTINUOUS
10
0.5785085039370078
20
1.3651584251968503
11
0.578582125984252
21
1.2347689763779528
0
LINE
8
BLACK
6
CONTINUOUS
10
0.578582125984252
20
1.2347689763779528
11
0.6514914566929134
21
1.2348416141732284
0
LINE
8
BLACK
6
CONTINUOUS
10
0.6514914566929134
20
1.2348416141732284
11
0.6514178346456693
21
1.365231062992126
0
LINE
8
BLACK
6
CONTINUOUS
10
0.6514178346456693
20
1.365231062992126
11
0.5785085039370078
21
1.3651584251968503
0
LINE
8
BLACK
6
CONTINUOUS
10
1.6523057874015747
20
1.3244920078740157
11
1.6528384645669292
21
1.3239593307086615
0
LINE
8
BLACK
6
CONTINUOUS
10
1.6528384645669292
20
1.3239593307086615
11
1.6529133858267717
21
1.2464173228346456
0
LINE
8
BLACK
6
CONTINUOUS
10
1.6529133858267717
20
1.2464173228346456
11
1.6528384645669292
21
1.2460406692913386
0
LINE
8
BLACK
6
CONTINUOUS
10
1.6528384645669292
20
1.2460406692913386
11
1.6523057874015747
21
1.2455079921259842
0
LINE
8
BLACK
6
CONTINUOUS
10
1.6523057874015747
20
1.2455079921259842
11
1.5180708661417321
21
1.2454330708661416
0
LINE
8
BLACK
6
CONTINUOUS
10
1.5180708661417321
20
1.2454330708661416
11
1.5176942125984252
21
1.2455079921259842
0
LINE
8
BLACK
6
CONTINUOUS
10
1.5176942125984252
20
1.2455079921259842
11
1.5171615354330708
21
1.2460406692913386
0
LINE
8
BLACK
6
CONTINUOUS
10
1.5171615354330708
20
1.2460406692913386
11
1.5170866141732282
21
1.3235826771653543
0
LINE
8
BLACK
6
CONTINUOUS
10
1.5170866141732282
20
1.3235826771653543
11
1.5171615354330708
21
1.3239593307086615
0
LINE
8
BLACK
6
CONTINUOUS
10
1.5171615354330708
20
1.3239593307086615
11
1.5176942125984252
21
1.3244920078740157
0
LINE
8
BLACK
6
CONTINUOUS
10
1.5176942125984252
20
1.3244920078740157
11
1.6519291338582678
21
1.3245669291338582
0
LINE
8
BLACK
6
CONTINUOUS
10
1.6519291338582678
20
1.3245669291338582
11
1.6523057874015747
21
1.3244920078740157
0
LINE
8
BLACK
6
CONTINUOUS
10
1.5189814960629922
20
1.3225989370078739
11
1.5190542125984252
21
1.2473274409448818
0
LINE
8
BLACK
6
CONTINUOUS
10
1.5190542125984252
20
1.2473274409448818
11
1.651018464566929
21
1.2474011023622047
0
LINE
8
BLACK
6
CONTINUOUS
10
1.651018464566929
20
1.2474011023622047
11
1.650945748031496
21
1.3226725984251968
0
LINE
8
BLACK
6
CONTINUOUS
10
1.650945748031496
20
1.3226725984251968
11
1.5189814960629922
21
1.3225989370078739
0
LINE
8
BLACK
6
CONTINUOUS
10
4.4233687795275589
20
1.3442164173228346
11
4.4239014566929136
21
1.3436837401574804
0
LINE
8
BLACK
6
CONTINUOUS
10
4.4239014566929136
20
1.3436837401574804
11
4.4239763779527559
21
1.2527559055118109
0
LINE
8
BLACK
6
CONTINUOUS
10
4.4239763779527559
20
1.2527559055118109
11
4.4239014566929136
21
1.252379251968504
0
LINE
8
BLACK
6
CONTINUOUS
10
4.4239014566929136
20
1.252379251968504
11
4.4233687795275589
21
1.2518465748031495
0
LINE
8
BLACK
6
CONTINUOUS
10
4.4233687795275589
20
1.2518465748031495
11
4.2418897637795272
21
1.251771653543307
0
LINE
8
BLACK
6
CONTINUOUS
10
4.2418897637795272
20
1.251771653543307
11
4.2415131102362205
21
1.2518465748031495
0
LINE
8
BLACK
6
CONTINUOUS
10
4.2415131102362205
20
1.2518465748031495
11
4.2409804330708658
21
1.252379251968504
0
LINE
8
BLACK
6
CONTINUOUS
10
4.2409804330708658
20
1.252379251968504
11
4.2409055118110235
21
1.3433070866141732
0
LINE
8
BLACK
6
CONTINUOUS
10
4.2409055118110235
20
1.3433070866141732
11
4.2409804330708658
21
1.3436837401574804
0
LINE
8
BLACK
6
CONTINUOUS
10
4.2409804330708658
20
1.3436837401574804
11
4.2415131102362205
21
1.3442164173228346
0
LINE
8
BLACK
6
CONTINUOUS
10
4.2415131102362205
20
1.3442164173228346
11
4.4229921259842522
21
1.3442913385826771
0
LINE
8
BLACK
6
CONTINUOUS
10
4.4229921259842522
20
1.3442913385826771
11
4.4233687795275589
21
1.3442164173228346
0
LINE
8
BLACK
6
CONTINUOUS
10
4.2428001968503937
20
1.3423232283464566
11
4.2428732283464567
21
1.2536658267716536
0
LINE
8
BLACK
6
CONTINUOUS
10
4.2428732283464567
20
1.2536658267716536
11
4.422081653543307
21
1.2537398031496063
0
LINE
8
BLACK
6
CONTINUOUS
10
4.422081653543307
20
1.2537398031496063
11
4.4220086220472439
21
1.3423972047244095
0
LINE
8
BLACK
6
CONTINUOUS
10
4.4220086220472439
20
1.3423972047244095
11
4.2428001968503937
21
1.3423232283464566
0
LINE
8
BLACK
6
CONTINUOUS
10
2.4523057874015746
20
1.3344920078740157
11
2.4528384645669292
21
1.3339593307086615
0
LINE
8
BLACK
6
CONTINUOUS
10
2.4528384645669292
20
1.3339593307086615
11
2.4529133858267715
21
1.2564173228346456
0
LINE
8
BLACK
6
CONTINUOUS
10
2.4529133858267715
20
1.2564173228346456
11
2.4528384645669292
21
1.2560406692913386
0
LINE
8
BLACK
6
CONTINUOUS
10
2.4528384645669292
20
1.2560406692913386
11
2.4523057874015746
21
1.2555079921259842
0
LINE
8
BLACK
6
CONTINUOUS
10
2.4523057874015746
20
1.2555079921259842
11
2.3180708661417322
21
1.2554330708661416
0
LINE
8
BLACK
6
CONTINUOUS
10
2.3180708661417322
20
1.2554330708661416
11
2.317694212598425
21
1.2555079921259842
0
LINE
8
BLACK
6
CONTINUOUS
10
2.317694212598425
20
1.2555079921259842
11
2.3171615354330708
21
1.2560406692913386
0
LINE
8
BLACK
6
CONTINUOUS
10
2.3171615354330708
20
1.2560406692913386
11
2.3170866141732285
21
1.3335826771653543
0
LINE
8
BLACK
6
CONTINUOUS
10
2.3170866141732285
20
1.3335826771653543
11
2.3171615354330708
21
1.3339593307086615
0
LINE
8
BLACK
6
CONTINUOUS
10
2.3171615354330708
20
1.3339593307086615
11
2.317694212598425
21
1.3344920078740157
0
LINE
8
BLACK
6
CONTINUOUS
10
2.317694212598425
20
1.3344920078740157
11
2.4519291338582678
21
1.3345669291338582
0
LINE
8
BLACK
6
CONTINUOUS
10
2.4519291338582678
20
1.3345669291338582
11
2.4523057874015746
21
1.3344920078740157
0
LINE
8
BLACK
6
CONTINUOUS
10
2.318981496062992
20
1.3325989370078739
11
2.319054212598425
21
1.2573274409448818
0
LINE
8
BLACK
6
CONTINUOUS
10
2.319054212598425
20
1.2573274409448818
11
2.4510184645669293
21
1.2574011023622047
0
LINE
8
BLACK
6
CONTINUOUS
10
2.4510184645669293
20
1.2574011023622047
11
2.4509457480314958
21
1.3326725984251968
0
LINE
8
BLACK
6
CONTINUOUS
10
2.4509457480314958
20
1.3326725984251968
11
2.318981496062992
21
1.3325989370078739
0
LINE
8
BLACK
6
CONTINUOUS
10
2.0627782283464566
20
1.397051062992126
11
2.0633109055118108
21
1.3965183858267716
0
LINE
8
BLACK
6
CONTINUOUS
10
2.0633109055118108
20
1.3965183858267716
11
2.0633858267716536
21
1.2638582677165353
0
LINE
8
BLACK
6
CONTINUOUS
10
2.0633858267716536
20
1.2638582677165353
11
2.0633109055118108
21
1.2634816141732284
0
LINE
8
BLACK
6
CONTINUOUS
10
2.0633109055118108
20
1.2634816141732284
11
2.0627782283464566
21
1.2629489370078739
0
LINE
8
BLACK
6
CONTINUOUS
10
2.0627782283464566
20
1.2629489370078739
11
1.9875984251968504
21
1.2628740157480314
0
LINE
8
BLACK
6
CONTINUOUS
10
1.9875984251968504
20
1.2628740157480314
11
1.9872217716535432
21
1.2629489370078739
0
LINE
8
BLACK
6
CONTINUOUS
10
1.9872217716535432
20
1.2629489370078739
11
1.986689094488189
21
1.2634816141732284
0
LINE
8
BLACK
6
CONTINUOUS
10
1.986689094488189
20
1.2634816141732284
11
1.9866141732283464
21
1.3961417322834646
0
LINE
8
BLACK
6
CONTINUOUS
10
1.9866141732283464
20
1.3961417322834646
11
1.986689094488189
21
1.3965183858267716
0
LINE
8
BLACK
6
CONTINUOUS
10
1.986689094488189
20
1.3965183858267716
11
1.9872217716535432
21
1.397051062992126
0
LINE
8
BLACK
6
CONTINUOUS
10
1.9872217716535432
20
1.397051062992126
11
2.0624015748031495
21
1.3971259842519685
0
LINE
8
BLACK
6
CONTINUOUS
10
2.0624015748031495
20
1.3971259842519685
11
2.0627782283464566
21
1.397051062992126
0
LINE
8
BLACK
6
CONTINUOUS
10
1.9885085039370078
20
1.3951584251968503
11
1.988582125984252
21
1.2647689763779528
0
LINE
8
BLACK
6
CONTINUOUS
10
1.988582125984252
20
1.2647689763779528
11
2.0614914566929134
21
1.2648416141732284
0
LINE
8
BLACK
6
CONTINUOUS
10
2.0614914566929134
20
1.2648416141732284
11
2.0614178346456691
21
1.3952310629921258
0
LINE
8
BLACK
6
CONTINUOUS
10
2.0614178346456691
20
1.3952310629921258
11
1.9885085039370078
21
1.3951584251968503
0
LINE
8
BLACK
6
CONTINUOUS
10
2.1527782283464565
20
1.397051062992126
11
2.1533109055118111
21
1.3965183858267716
0
LINE
8
BLACK
6
CONTINUOUS
10
2.1533109055118111
20
1.3965183858267716
11
2.1533858267716535
21
1.2638582677165353
0
LINE
8
BLACK
6
CONTINUOUS
10
2.1533858267716535
20
1.2638582677165353
11
2.1533109055118111
21
1.2634816141732284
0
LINE
8
BLACK
6
CONTINUOUS
10
2.1533109055118111
20
1.2634816141732284
11
2.1527782283464565
21
1.2629489370078739
0
LINE
8
BLACK
6
CONTINUOUS
10
2.1527782283464565
20
1.2629489370078739
11
2.0775984251968502
21
1.2628740157480314
0
LINE
8
BLACK
6
CONTINUOUS
10
2.0775984251968502
20
1.2628740157480314
11
2.077221771653543
21
1.2629489370078739
0
LINE
8
BLACK
6
CONTINUOUS
10
2.077221771653543
20
1.2629489370078739
11
2.0766890944881888
21
1.2634816141732284
0
LINE
8
BLACK
6
CONTINUOUS
10
2.0766890944881888
20
1.2634816141732284
11
2.0766141732283465
21
1.3961417322834646
0
LINE
8
BLACK
6
CONTINUOUS
10
2.0766141732283465
20
1.3961417322834646
11
2.0766890944881888
21
1.3965183858267716
0
LINE
8
BLACK
6
CONTINUOUS
10
2.0766890944881888
20
1.3965183858267716
11
2.077221771653543
21
1.397051062992126
0
LINE
8
BLACK
6
CONTINUOUS
10
2.077221771653543
20
1.397051062992126
11
2.1524015748031498
21
1.3971259842519685
0
LINE
8
BLACK
6
CONTINUOUS
10
2.1524015748031498
20
1.3971259842519685
11
2.1527782283464565
21
1.397051062992126
0
LINE
8
BLACK
6
CONTINUOUS
10
2.0785085039370079
20
1.3951584251968503
11
2.0785821259842518
21
1.2647689763779528
0
LINE
8
BLACK
6
CONTINUOUS
10
2.0785821259842518
20
1.2647689763779528
11
2.1514914566929133
21
1.2648416141732284
0
LINE
8
BLACK
6
CONTINUOUS
10
2.1514914566929133
20
1.2648416141732284
11
2.1514178346456694
21
1.3952310629921258
0
LINE
8
BLACK
6
CONTINUOUS
10
2.1514178346456694
20
1.3952310629921258
11
2.0785085039370079
21
1.3951584251968503
0
LINE
8
BLACK
6
CONTINUOUS
10
3.1365183858267716
20
1.358310905511811
11
3.1370510629921258
21
1.3577782283464566
0
LINE
8
BLACK
6
CONTINUOUS
10
3.1370510629921258
20
1.3577782283464566
11
3.1371259842519685
21
1.2825984251968503
0
LINE
8
BLACK
6
CONTINUOUS
10
3.1371259842519685
20
1.2825984251968503
11
3.1370510629921258
21
1.2822217716535433
0
LINE
8
BLACK
6
CONTINUOUS
10
3.1370510629921258
20
1.2822217716535433
11
3.1365183858267716
21
1.2816890944881889
0
LINE
8
BLACK
6
CONTINUOUS
10
3.1365183858267716
20
1.2816890944881889
11
3.0038582677165353
21
1.2816141732283464
0
LINE
8
BLACK
6
CONTINUOUS
10
3.0038582677165353
20
1.2816141732283464
11
3.0034816141732281
21
1.2816890944881889
0
LINE
8
BLACK
6
CONTINUOUS
10
3.0034816141732281
20
1.2816890944881889
11
3.0029489370078739
21
1.2822217716535433
0
LINE
8
BLACK
6
CONTINUOUS
10
3.0029489370078739
20
1.2822217716535433
11
3.0028740157480316
21
1.3574015748031496
0
LINE
8
BLACK
6
CONTINUOUS
10
3.0028740157480316
20
1.3574015748031496
11
3.0029489370078739
21
1.3577782283464566
0
LINE
8
BLACK
6
CONTINUOUS
10
3.0029489370078739
20
1.3577782283464566
11
3.0034816141732281
21
1.358310905511811
0
LINE
8
BLACK
6
CONTINUOUS
10
3.0034816141732281
20
1.358310905511811
11
3.1361417322834644
21
1.3583858267716535
0
LINE
8
BLACK
6
CONTINUOUS
10
3.1361417322834644
20
1.3583858267716535
11
3.1365183858267716
21
1.358310905511811
0
LINE
8
BLACK
6
CONTINUOUS
10
3.0047689370078738
20
1.356417874015748
11
3.0048415748031494
21
1.2835085433070865
0
LINE
8
BLACK
6
CONTINUOUS
10
3.0048415748031494
20
1.2835085433070865
11
3.1352310236220471
21
1.2835821653543307
0
LINE
8
BLACK
6
CONTINUOUS
10
3.1352310236220471
20
1.2835821653543307
11
3.1351583858267715
21
1.3564914960629921
0
LINE
8
BLACK
6
CONTINUOUS
10
3.1351583858267715
20
1.3564914960629921
11
3.0047689370078738
21
1.356417874015748
0
LINE
8
BLACK
6
CONTINUOUS
10
1.8727782283464567
20
1.417051062992126
11
1.8733109055118109
21
1.4165183858267716
0
LINE
8
BLACK
6
CONTINUOUS
10
1.8733109055118109
20
1.4165183858267716
11
1.8733858267716534
21
1.2838582677165353
0
LINE
8
BLACK
6
CONTINUOUS
10
1.8733858267716534
20
1.2838582677165353
11
1.8733109055118109
21
1.2834816141732284
0
LINE
8
BLACK
6
CONTINUOUS
10
1.8733109055118109
20
1.2834816141732284
11
1.8727782283464567
21
1.2829489370078739
0
LINE
8
BLACK
6
CONTINUOUS
10
1.8727782283464567
20
1.2829489370078739
11
1.7975984251968504
21
1.2828740157480314
0
LINE
8
BLACK
6
CONTINUOUS
10
1.7975984251968504
20
1.2828740157480314
11
1.7972217716535432
21
1.2829489370078739
0
LINE
8
BLACK
6
CONTINUOUS
10
1.7972217716535432
20
1.2829489370078739
11
1.796689094488189
21
1.2834816141732284
0
LINE
8
BLACK
6
CONTINUOUS
10
1.796689094488189
20
1.2834816141732284
11
1.796689094488189
21
1.2835077559055117
0
LINE
8
BLACK
6
CONTINUOUS
10
1.796689094488189
20
1.2835077559055117
11
1.7966141732283465
21
1.4161417322834646
0
LINE
8
BLACK
6
CONTINUOUS
10
1.7966141732283465
20
1.4161417322834646
11
1.796689094488189
21
1.4165183858267716
0
LINE
8
BLACK
6
CONTINUOUS
10
1.796689094488189
20
1.4165183858267716
11
1.7972217716535432
21
1.417051062992126
0
LINE
8
BLACK
6
CONTINUOUS
10
1.7972217716535432
20
1.417051062992126
11
1.8724015748031495
21
1.4171259842519686
0
LINE
8
BLACK
6
CONTINUOUS
10
1.8724015748031495
20
1.4171259842519686
11
1.8727782283464567
21
1.417051062992126
0
LINE
8
BLACK
6
CONTINUOUS
10
1.7985085039370079
20
1.4151584251968503
11
1.7985821259842518
21
1.2847689763779526
0
LINE
8
BLACK
6
CONTINUOUS
10
1.7985821259842518
20
1.2847689763779526
11
1.8714914566929133
21
1.2848416141732284
0
LINE
8
BLACK
6
CONTINUOUS
10
1.8714914566929133
20
1.2848416141732284
11
1.8714178346456694
21
1.4152310629921259
0
LINE
8
BLACK
6
CONTINUOUS
10
1.8714178346456694
20
1.4152310629921259
11
1.7985085039370079
21
1.4151584251968503
0
LINE
8
BLACK
6
CONTINUOUS
10
4.2058884645669288
20
1.3644526377952755
11
4.2064211417322834
21
1.3639199606299213
0
LINE
8
BLACK
6
CONTINUOUS
10
4.2064211417322834
20
1.3639199606299213
11
4.2064960629921258
21
1.288740157480315
0
LINE
8
BLACK
6
CONTINUOUS
10
4.2064960629921258
20
1.288740157480315
11
4.2064211417322834
21
1.2883635039370078
0
LINE
8
BLACK
6
CONTINUOUS
10
4.2064211417322834
20
1.2883635039370078
11
4.2058884645669288
21
1.2878308267716536
0
LINE
8
BLACK
6
CONTINUOUS
10
4.2058884645669288
20
1.2878308267716536
11
4.073228346456693
21
1.2877559055118111
0
LINE
8
BLACK
6
CONTINUOUS
10
4.073228346456693
20
1.2877559055118111
11
4.0728516929133853
21
1.2878308267716536
0
LINE
8
BLACK
6
CONTINUOUS
10
4.0728516929133853
20
1.2878308267716536
11
4.0723190157480316
21
1.2883635039370078
0
LINE
8
BLACK
6
CONTINUOUS
10
4.0723190157480316
20
1.2883635039370078
11
4.0722440944881892
21
1.3635433070866141
0
LINE
8
BLACK
6
CONTINUOUS
10
4.0722440944881892
20
1.3635433070866141
11
4.0723190157480316
21
1.3639199606299213
0
LINE
8
BLACK
6
CONTINUOUS
10
4.0723190157480316
20
1.3639199606299213
11
4.0728516929133853
21
1.3644526377952755
0
LINE
8
BLACK
6
CONTINUOUS
10
4.0728516929133853
20
1.3644526377952755
11
4.205511811023622
21
1.364527559055118
0
LINE
8
BLACK
6
CONTINUOUS
10
4.205511811023622
20
1.364527559055118
11
4.2058884645669288
21
1.3644526377952755
0
LINE
8
BLACK
6
CONTINUOUS
10
4.0741390157480311
20
1.3625596062992125
11
4.0742116535433066
21
1.2896502755905512
0
LINE
8
BLACK
6
CONTINUOUS
10
4.0742116535433066
20
1.2896502755905512
11
4.2046011023622043
21
1.2897238976377952
0
LINE
8
BLACK
6
CONTINUOUS
10
4.2046011023622043
20
1.2897238976377952
11
4.2045284645669287
21
1.3626332283464566
0
LINE
8
BLACK
6
CONTINUOUS
10
4.2045284645669287
20
1.3626332283464566
11
4.0741390157480311
21
1.3625596062992125
0
LINE
8
BLACK
6
CONTINUOUS
10
1.1389593307086614
20
1.4278384645669291
11
1.1394920078740158
21
1.4273057874015749
0
LINE
8
BLACK
6
CONTINUOUS
10
1.1394920078740158
20
1.4273057874015749
11
1.1395669291338582
21
1.2930708661417323
0
LINE
8
BLACK
6
CONTINUOUS
10
1.1395669291338582
20
1.2930708661417323
11
1.1394920078740158
21
1.2926942125984251
0
LINE
8
BLACK
6
CONTINUOUS
10
1.1394920078740158
20
1.2926942125984251
11
1.1389593307086614
21
1.2921615354330709
0
LINE
8
BLACK
6
CONTINUOUS
10
1.1389593307086614
20
1.2921615354330709
11
1.0614173228346457
21
1.2920866141732283
0
LINE
8
BLACK
6
CONTINUOUS
10
1.0614173228346457
20
1.2920866141732283
11
1.0610406692913386
21
1.2921615354330709
0
LINE
8
BLACK
6
CONTINUOUS
10
1.0610406692913386
20
1.2921615354330709
11
1.0605079921259841
21
1.2926942125984251
0
LINE
8
BLACK
6
CONTINUOUS
10
1.0605079921259841
20
1.2926942125984251
11
1.0604330708661418
21
1.4269291338582677
0
LINE
8
BLACK
6
CONTINUOUS
10
1.0604330708661418
20
1.4269291338582677
11
1.0605079921259841
21
1.4273057874015749
0
LINE
8
BLACK
6
CONTINUOUS
10
1.0605079921259841
20
1.4273057874015749
11
1.0610406692913386
21
1.4278384645669291
0
LINE
8
BLACK
6
CONTINUOUS
10
1.0610406692913386
20
1.4278384645669291
11
1.1385826771653542
21
1.4279133858267716
0
LINE
8
BLACK
6
CONTINUOUS
10
1.1385826771653542
20
1.4279133858267716
11
1.1389593307086614
21
1.4278384645669291
0
LINE
8
BLACK
6
CONTINUOUS
10
1.0623274015748032
20
1.4259457874015748
11
1.0624010629921259
21
1.2939815354330708
0
LINE
8
BLACK
6
CONTINUOUS
10
1.0624010629921259
20
1.2939815354330708
11
1.137672559055118
21
1.2940542519685039
0
LINE
8
BLACK
6
CONTINUOUS
10
1.137672559055118
20
1.2940542519685039
11
1.1375988976377953
21
1.4260185039370079
0
LINE
8
BLACK
6
CONTINUOUS
10
1.1375988976377953
20
1.4260185039370079
11
1.0623274015748032
21
1.4259457874015748
0
LINE
8
BLACK
6
CONTINUOUS
10
1.2189593307086615
20
1.4278384645669291
11
1.2194920078740157
21
1.4273057874015749
0
LINE
8
BLACK
6
CONTINUOUS
10
1.2194920078740157
20
1.4273057874015749
11
1.2195669291338582
21
1.2930708661417323
0
LINE
8
BLACK
6
CONTINUOUS
10
1.2195669291338582
20
1.2930708661417323
11
1.2194920078740157
21
1.2926942125984251
0
LINE
8
BLACK
6
CONTINUOUS
10
1.2194920078740157
20
1.2926942125984251
11
1.2189593307086615
21
1.2921615354330709
0
LINE
8
BLACK
6
CONTINUOUS
10
1.2189593307086615
20
1.2921615354330709
11
1.1414173228346456
21
1.2920866141732283
0
LINE
8
BLACK
6
CONTINUOUS
10
1.1414173228346456
20
1.2920866141732283
11
1.1410406692913386
21
1.2921615354330709
0
LINE
8
BLACK
6
CONTINUOUS
10
1.1410406692913386
20
1.2921615354330709
11
1.1405079921259842
21
1.2926942125984251
0
LINE
8
BLACK
6
CONTINUOUS
10
1.1405079921259842
20
1.2926942125984251
11
1.1404330708661417
21
1.4269291338582677
0
LINE
8
BLACK
6
CONTINUOUS
10
1.1404330708661417
20
1.4269291338582677
11
1.1405079921259842
21
1.4273057874015749
0
LINE
8
BLACK
6
CONTINUOUS
10
1.1405079921259842
20
1.4273057874015749
11
1.1410406692913386
21
1.4278384645669291
0
LINE
8
BLACK
6
CONTINUOUS
10
1.1410406692913386
20
1.4278384645669291
11
1.2185826771653543
21
1.4279133858267716
0
LINE
8
BLACK
6
CONTINUOUS
10
1.2185826771653543
20
1.4279133858267716
11
1.2189593307086615
21
1.4278384645669291
0
LINE
8
BLACK
6
CONTINUOUS
10
1.1423274015748031
20
1.4259457874015748
11
1.142401062992126
21
1.2939815354330708
0
LINE
8
BLACK
6
CONTINUOUS
10
1.142401062992126
20
1.2939815354330708
11
1.2176725590551181
21
1.2940542519685039
0
LINE
8
BLACK
6
CONTINUOUS
10
1.2176725590551181
20
1.2940542519685039
11
1.2175988976377952
21
1.4260185039370079
0
LINE
8
BLACK
6
CONTINUOUS
10
1.2175988976377952
20
1.4260185039370079
11
1.1423274015748031
21
1.4259457874015748
0
LINE
8
BLACK
6
CONTINUOUS
10
1.4415183858267717
20
1.4233109055118109
11
1.4420510629921259
21
1.4227782283464567
0
LINE
8
BLACK
6
CONTINUOUS
10
1.4420510629921259
20
1.4227782283464567
11
1.4421259842519685
21
1.3475984251968505
0
LINE
8
BLACK
6
CONTINUOUS
10
1.4421259842519685
20
1.3475984251968505
11
1.4420510629921259
21
1.3472217716535433
0
LINE
8
BLACK
6
CONTINUOUS
10
1.4420510629921259
20
1.3472217716535433
11
1.4415183858267717
21
1.3466890944881889
0
LINE
8
BLACK
6
CONTINUOUS
10
1.4415183858267717
20
1.3466890944881889
11
1.3088582677165355
21
1.3466141732283465
0
LINE
8
BLACK
6
CONTINUOUS
10
1.3088582677165355
20
1.3466141732283465
11
1.3084816141732283
21
1.3466890944881889
0
LINE
8
BLACK
6
CONTINUOUS
10
1.3084816141732283
20
1.3466890944881889
11
1.3079489370078741
21
1.3472217716535433
0
LINE
8
BLACK
6
CONTINUOUS
10
1.3079489370078741
20
1.3472217716535433
11
1.3078740157480315
21
1.4224015748031495
0
LINE
8
BLACK
6
CONTINUOUS
10
1.3078740157480315
20
1.4224015748031495
11
1.3079489370078741
21
1.4227782283464567
0
LINE
8
BLACK
6
CONTINUOUS
10
1.3079489370078741
20
1.4227782283464567
11
1.3084816141732283
21
1.4233109055118109
0
LINE
8
BLACK
6
CONTINUOUS
10
1.3084816141732283
20
1.4233109055118109
11
1.4411417322834645
21
1.4233858267716535
0
LINE
8
BLACK
6
CONTINUOUS
10
1.4411417322834645
20
1.4233858267716535
11
1.4415183858267717
21
1.4233109055118109
0
LINE
8
BLACK
6
CONTINUOUS
10
1.309768937007874
20
1.4214178740157479
11
1.3098415748031496
21
1.3485085433070867
0
LINE
8
BLACK
6
CONTINUOUS
10
1.3098415748031496
20
1.3485085433070867
11
1.4402310236220472
21
1.3485821653543306
0
LINE
8
BLACK
6
CONTINUOUS
10
1.4402310236220472
20
1.3485821653543306
11
1.4401583858267717
21
1.4214914960629921
0
LINE
8
BLACK
6
CONTINUOUS
10
1.4401583858267717
20
1.4214914960629921
11
1.309768937007874
21
1.4214178740157479
0
LINE
8
BLACK
6
CONTINUOUS
10
1.5815183858267716
20
1.4233109055118109
11
1.5820510629921261
21
1.4227782283464567
0
LINE
8
BLACK
6
CONTINUOUS
10
1.5820510629921261
20
1.4227782283464567
11
1.5821259842519684
21
1.3475984251968505
0
LINE
8
BLACK
6
CONTINUOUS
10
1.5821259842519684
20
1.3475984251968505
11
1.5820510629921261
21
1.3472217716535433
0
LINE
8
BLACK
6
CONTINUOUS
10
1.5820510629921261
20
1.3472217716535433
11
1.5815183858267716
21
1.3466890944881889
0
LINE
8
BLACK
6
CONTINUOUS
10
1.5815183858267716
20
1.3466890944881889
11
1.4488582677165354
21
1.3466141732283465
0
LINE
8
BLACK
6
CONTINUOUS
10
1.4488582677165354
20
1.3466141732283465
11
1.4484816141732284
21
1.3466890944881889
0
LINE
8
BLACK
6
CONTINUOUS
10
1.4484816141732284
20
1.3466890944881889
11
1.447948937007874
21
1.3472217716535433
0
LINE
8
BLACK
6
CONTINUOUS
10
1.447948937007874
20
1.3472217716535433
11
1.4478740157480314
21
1.4224015748031495
0
LINE
8
BLACK
6
CONTINUOUS
10
1.4478740157480314
20
1.4224015748031495
11
1.447948937007874
21
1.4227782283464567
0
LINE
8
BLACK
6
CONTINUOUS
10
1.447948937007874
20
1.4227782283464567
11
1.4484816141732284
21
1.4233109055118109
0
LINE
8
BLACK
6
CONTINUOUS
10
1.4484816141732284
20
1.4233109055118109
11
1.5811417322834644
21
1.4233858267716535
0
LINE
8
BLACK
6
CONTINUOUS
10
1.5811417322834644
20
1.4233858267716535
11
1.5815183858267716
21
1.4233109055118109
0
LINE
8
BLACK
6
CONTINUOUS
10
1.4497689370078739
20
1.4214178740157479
11
1.4498415748031497
21
1.3485085433070867
0
LINE
8
BLACK
6
CONTINUOUS
10
1.4498415748031497
20
1.3485085433070867
11
1.5802310236220471
21
1.3485821653543306
0
LINE
8
BLACK
6
CONTINUOUS
10
1.5802310236220471
20
1.3485821653543306
11
1.5801583858267716
21
1.4214914960629921
0
LINE
8
BLACK
6
CONTINUOUS
10
1.5801583858267716
20
1.4214914960629921
11
1.4497689370078739
21
1.4214178740157479
0
LINE
8
BLACK
6
CONTINUOUS
10
1.7165183858267716
20
1.4233109055118109
11
1.7170510629921258
21
1.4227782283464567
0
LINE
8
BLACK
6
CONTINUOUS
10
1.7170510629921258
20
1.4227782283464567
11
1.7171259842519684
21
1.3475984251968505
0
LINE
8
BLACK
6
CONTINUOUS
10
1.7171259842519684
20
1.3475984251968505
11
1.7170510629921258
21
1.3472217716535433
0
LINE
8
BLACK
6
CONTINUOUS
10
1.7170510629921258
20
1.3472217716535433
11
1.7165183858267716
21
1.3466890944881889
0
LINE
8
BLACK
6
CONTINUOUS
10
1.7165183858267716
20
1.3466890944881889
11
1.5838582677165354
21
1.3466141732283465
0
LINE
8
BLACK
6
CONTINUOUS
10
1.5838582677165354
20
1.3466141732283465
11
1.5834816141732284
21
1.3466890944881889
0
LINE
8
BLACK
6
CONTINUOUS
10
1.5834816141732284
20
1.3466890944881889
11
1.582948937007874
21
1.3472217716535433
0
LINE
8
BLACK
6
CONTINUOUS
10
1.582948937007874
20
1.3472217716535433
11
1.5828740157480314
21
1.4224015748031495
0
LINE
8
BLACK
6
CONTINUOUS
10
1.5828740157480314
20
1.4224015748031495
11
1.582948937007874
21
1.4227782283464567
0
LINE
8
BLACK
6
CONTINUOUS
10
1.582948937007874
20
1.4227782283464567
11
1.5834816141732284
21
1.4233109055118109
0
LINE
8
BLACK
6
CONTINUOUS
10
1.5834816141732284
20
1.4233109055118109
11
1.7161417322834644
21
1.4233858267716535
0
LINE
8
BLACK
6
CONTINUOUS
10
1.7161417322834644
20
1.4233858267716535
11
1.7165183858267716
21
1.4233109055118109
0
LINE
8
BLACK
6
CONTINUOUS
10
1.5847689370078739
20
1.4214178740157479
11
1.5848415748031495
21
1.3485085433070867
0
LINE
8
BLACK
6
CONTINUOUS
10
1.5848415748031495
20
1.3485085433070867
11
1.7152310236220472
21
1.3485821653543306
0
LINE
8
BLACK
6
CONTINUOUS
10
1.7152310236220472
20
1.3485821653543306
11
1.7151583858267716
21
1.4214914960629921
0
LINE
8
BLACK
6
CONTINUOUS
10
1.7151583858267716
20
1.4214914960629921
11
1.5847689370078739
21
1.4214178740157479
0
LINE
8
BLACK
6
CONTINUOUS
10
4.4233687795275589
20
1.4737439763779527
11
4.4239014566929136
21
1.4732112992125983
0
LINE
8
BLACK
6
CONTINUOUS
10
4.4239014566929136
20
1.4732112992125983
11
4.4239763779527559
21
1.3822834645669291
0
LINE
8
BLACK
6
CONTINUOUS
10
4.4239763779527559
20
1.3822834645669291
11
4.4239014566929136
21
1.3819068110236221
0
LINE
8
BLACK
6
CONTINUOUS
10
4.4239014566929136
20
1.3819068110236221
11
4.4233687795275589
21
1.3813741338582677
0
LINE
8
BLACK
6
CONTINUOUS
10
4.4233687795275589
20
1.3813741338582677
11
4.2418897637795272
21
1.3812992125984251
0
LINE
8
BLACK
6
CONTINUOUS
10
4.2418897637795272
20
1.3812992125984251
11
4.2415131102362205
21
1.3813741338582677
0
LINE
8
BLACK
6
CONTINUOUS
10
4.2415131102362205
20
1.3813741338582677
11
4.2409804330708658
21
1.3819068110236221
0
LINE
8
BLACK
6
CONTINUOUS
10
4.2409804330708658
20
1.3819068110236221
11
4.2409055118110235
21
1.4728346456692913
0
LINE
8
BLACK
6
CONTINUOUS
10
4.2409055118110235
20
1.4728346456692913
11
4.2409804330708658
21
1.4732112992125983
0
LINE
8
BLACK
6
CONTINUOUS
10
4.2409804330708658
20
1.4732112992125983
11
4.2415131102362205
21
1.4737439763779527
0
LINE
8
BLACK
6
CONTINUOUS
10
4.2415131102362205
20
1.4737439763779527
11
4.4229921259842522
21
1.4738188976377953
0
LINE
8
BLACK
6
CONTINUOUS
10
4.4229921259842522
20
1.4738188976377953
11
4.4233687795275589
21
1.4737439763779527
0
LINE
8
BLACK
6
CONTINUOUS
10
4.2428001968503937
20
1.4718507874015747
11
4.2428732283464567
21
1.3831933858267715
0
LINE
8
BLACK
6
CONTINUOUS
10
4.2428732283464567
20
1.3831933858267715
11
4.422081653543307
21
1.3832673622047245
0
LINE
8
BLACK
6
CONTINUOUS
10
4.422081653543307
20
1.3832673622047245
11
4.4220086220472439
21
1.4719247637795276
0
LINE
8
BLACK
6
CONTINUOUS
10
4.4220086220472439
20
1.4719247637795276
11
4.2428001968503937
21
1.4718507874015747
0
LINE
8
BLACK
6
CONTINUOUS
10
4.2058884645669288
20
1.4697282283464566
11
4.2064211417322834
21
1.4691955511811023
0
LINE
8
BLACK
6
CONTINUOUS
10
4.2064211417322834
20
1.4691955511811023
11
4.2064960629921258
21
1.3940157480314961
0
LINE
8
BLACK
6
CONTINUOUS
10
4.2064960629921258
20
1.3940157480314961
11
4.2064211417322834
21
1.3936390944881889
0
LINE
8
BLACK
6
CONTINUOUS
10
4.2064211417322834
20
1.3936390944881889
11
4.2058884645669288
21
1.3931064173228347
0
LINE
8
BLACK
6
CONTINUOUS
10
4.2058884645669288
20
1.3931064173228347
11
4.073228346456693
21
1.3930314960629921
0
LINE
8
BLACK
6
CONTINUOUS
10
4.073228346456693
20
1.3930314960629921
11
4.0728516929133853
21
1.3931064173228347
0
LINE
8
BLACK
6
CONTINUOUS
10
4.0728516929133853
20
1.3931064173228347
11
4.0723190157480316
21
1.3936390944881889
0
LINE
8
BLACK
6
CONTINUOUS
10
4.0723190157480316
20
1.3936390944881889
11
4.0722440944881892
21
1.4688188976377952
0
LINE
8
BLACK
6
CONTINUOUS
10
4.0722440944881892
20
1.4688188976377952
11
4.0723190157480316
21
1.4691955511811023
0
LINE
8
BLACK
6
CONTINUOUS
10
4.0723190157480316
20
1.4691955511811023
11
4.0728516929133853
21
1.4697282283464566
0
LINE
8
BLACK
6
CONTINUOUS
10
4.0728516929133853
20
1.4697282283464566
11
4.205511811023622
21
1.4698031496062991
0
LINE
8
BLACK
6
CONTINUOUS
10
4.205511811023622
20
1.4698031496062991
11
4.2058884645669288
21
1.4697282283464566
0
LINE
8
BLACK
6
CONTINUOUS
10
4.0741390157480311
20
1.4678351968503938
11
4.0742116535433066
21
1.3949258661417323
0
LINE
8
BLACK
6
CONTINUOUS
10
4.0742116535433066
20
1.3949258661417323
11
4.2046011023622043
21
1.3949994881889765
0
LINE
8
BLACK
6
CONTINUOUS
10
4.2046011023622043
20
1.3949994881889765
11
4.2045284645669287
21
1.4679088188976377
0
LINE
8
BLACK
6
CONTINUOUS
10
4.2045284645669287
20
1.4679088188976377
11
4.0741390157480311
21
1.4678351968503938
0
LINE
8
BLACK
6
CONTINUOUS
10
0.6577782283464567
20
1.542051062992126
11
0.658310905511811
21
1.5415183858267716
0
LINE
8
BLACK
6
CONTINUOUS
10
0.658310905511811
20
1.5415183858267716
11
0.6583858267716536
21
1.4088582677165353
0
LINE
8
BLACK
6
CONTINUOUS
10
0.6583858267716536
20
1.4088582677165353
11
0.658310905511811
21
1.4084816141732284
0
LINE
8
BLACK
6
CONTINUOUS
10
0.658310905511811
20
1.4084816141732284
11
0.6577782283464567
21
1.4079489370078739
0
LINE
8
BLACK
6
CONTINUOUS
10
0.6577782283464567
20
1.4079489370078739
11
0.5825984251968503
21
1.4078740157480314
0
LINE
8
BLACK
6
CONTINUOUS
10
0.5825984251968503
20
1.4078740157480314
11
0.5822217716535433
21
1.4079489370078739
0
LINE
8
BLACK
6
CONTINUOUS
10
0.5822217716535433
20
1.4079489370078739
11
0.581689094488189
21
1.4084816141732284
0
LINE
8
BLACK
6
CONTINUOUS
10
0.581689094488189
20
1.4084816141732284
11
0.5816141732283464
21
1.5411417322834646
0
LINE
8
BLACK
6
CONTINUOUS
10
0.5816141732283464
20
1.5411417322834646
11
0.581689094488189
21
1.5415183858267716
0
LINE
8
BLACK
6
CONTINUOUS
10
0.581689094488189
20
1.5415183858267716
11
0.5822217716535433
21
1.542051062992126
0
LINE
8
BLACK
6
CONTINUOUS
10
0.5822217716535433
20
1.542051062992126
11
0.6574015748031496
21
1.5421259842519686
0
LINE
8
BLACK
6
CONTINUOUS
10
0.6574015748031496
20
1.5421259842519686
11
0.6577782283464567
21
1.542051062992126
0
LINE
8
BLACK
6
CONTINUOUS
10
0.5835085039370078
20
1.5401584251968503
11
0.583582125984252
21
1.4097689763779526
0
LINE
8
BLACK
6
CONTINUOUS
10
0.583582125984252
20
1.4097689763779526
11
0.6564914566929134
21
1.4098416141732284
0
LINE
8
BLACK
6
CONTINUOUS
10
0.6564914566929134
20
1.4098416141732284
11
0.6564178346456693
21
1.5402310629921259
0
LINE
8
BLACK
6
CONTINUOUS
10
0.6564178346456693
20
1.5402310629921259
11
0.5835085039370078
21
1.5401584251968503
0
LINE
8
BLACK
6
CONTINUOUS
10
1.7915183858267716
20
1.503310905511811
11
1.792051062992126
21
1.5027782283464566
0
LINE
8
BLACK
6
CONTINUOUS
10
1.792051062992126
20
1.5027782283464566
11
1.7921259842519686
21
1.4275984251968503
0
LINE
8
BLACK
6
CONTINUOUS
10
1.7921259842519686
20
1.4275984251968503
11
1.792051062992126
21
1.4272217716535434
0
LINE
8
BLACK
6
CONTINUOUS
10
1.792051062992126
20
1.4272217716535434
11
1.7915183858267716
21
1.4266890944881889
0
LINE
8
BLACK
6
CONTINUOUS
10
1.7915183858267716
20
1.4266890944881889
11
1.6588582677165353
21
1.4266141732283464
0
LINE
8
BLACK
6
CONTINUOUS
10
1.6588582677165353
20
1.4266141732283464
11
1.6584816141732284
21
1.4266890944881889
0
LINE
8
BLACK
6
CONTINUOUS
10
1.6584816141732284
20
1.4266890944881889
11
1.6579489370078739
21
1.4272217716535434
0
LINE
8
BLACK
6
CONTINUOUS
10
1.6579489370078739
20
1.4272217716535434
11
1.6578740157480314
21
1.5024015748031496
0
LINE
8
BLACK
6
CONTINUOUS
10
1.6578740157480314
20
1.5024015748031496
11
1.6579489370078739
21
1.5027782283464566
0
LINE
8
BLACK
6
CONTINUOUS
10
1.6579489370078739
20
1.5027782283464566
11
1.6584816141732284
21
1.503310905511811
0
LINE
8
BLACK
6
CONTINUOUS
10
1.6584816141732284
20
1.503310905511811
11
1.7911417322834646
21
1.5033858267716536
0
LINE
8
BLACK
6
CONTINUOUS
10
1.7911417322834646
20
1.5033858267716536
11
1.7915183858267716
21
1.503310905511811
0
LINE
8
BLACK
6
CONTINUOUS
10
1.6597689370078739
20
1.501417874015748
11
1.6598415748031496
21
1.4285085433070865
0
LINE
8
BLACK
6
CONTINUOUS
10
1.6598415748031496
20
1.4285085433070865
11
1.7902310236220471
21
1.4285821653543307
0
LINE
8
BLACK
6
CONTINUOUS
10
1.7902310236220471
20
1.4285821653543307
11
1.7901583858267716
21
1.5014914960629921
0
LINE
8
BLACK
6
CONTINUOUS
10
1.7901583858267716
20
1.5014914960629921
11
1.6597689370078739
21
1.501417874015748
0
LINE
8
BLACK
6
CONTINUOUS
10
1.4415183858267717
20
1.5083109055118109
11
1.4420510629921259
21
1.5077782283464567
0
LINE
8
BLACK
6
CONTINUOUS
10
1.4420510629921259
20
1.5077782283464567
11
1.4421259842519685
21
1.4325984251968504
0
LINE
8
BLACK
6
CONTINUOUS
10
1.4421259842519685
20
1.4325984251968504
11
1.4420510629921259
21
1.4322217716535433
0
LINE
8
BLACK
6
CONTINUOUS
10
1.4420510629921259
20
1.4322217716535433
11
1.4415183858267717
21
1.431689094488189
0
LINE
8
BLACK
6
CONTINUOUS
10
1.4415183858267717
20
1.431689094488189
11
1.3088582677165355
21
1.4316141732283465
0
LINE
8
BLACK
6
CONTINUOUS
10
1.3088582677165355
20
1.4316141732283465
11
1.3084816141732283
21
1.431689094488189
0
LINE
8
BLACK
6
CONTINUOUS
10
1.3084816141732283
20
1.431689094488189
11
1.3079489370078741
21
1.4322217716535433
0
LINE
8
BLACK
6
CONTINUOUS
10
1.3079489370078741
20
1.4322217716535433
11
1.3078740157480315
21
1.5074015748031495
0
LINE
8
BLACK
6
CONTINUOUS
10
1.3078740157480315
20
1.5074015748031495
11
1.3079489370078741
21
1.5077782283464567
0
LINE
8
BLACK
6
CONTINUOUS
10
1.3079489370078741
20
1.5077782283464567
11
1.3084816141732283
21
1.5083109055118109
0
LINE
8
BLACK
6
CONTINUOUS
10
1.3084816141732283
20
1.5083109055118109
11
1.4411417322834645
21
1.5083858267716534
0
LINE
8
BLACK
6
CONTINUOUS
10
1.4411417322834645
20
1.5083858267716534
11
1.4415183858267717
21
1.5083109055118109
0
LINE
8
BLACK
6
CONTINUOUS
10
1.309768937007874
20
1.5064178740157479
11
1.3098415748031496
21
1.4335085433070867
0
LINE
8
BLACK
6
CONTINUOUS
10
1.3098415748031496
20
1.4335085433070867
11
1.4402310236220472
21
1.4335821653543306
0
LINE
8
BLACK
6
CONTINUOUS
10
1.4402310236220472
20
1.4335821653543306
11
1.4401583858267717
21
1.506491496062992
0
LINE
8
BLACK
6
CONTINUOUS
10
1.4401583858267717
20
1.506491496062992
11
1.309768937007874
21
1.5064178740157479
0
LINE
8
BLACK
6
CONTINUOUS
10
4.2058884645669288
20
1.5750038188976379
11
4.2064211417322834
21
1.5744711417322834
0
LINE
8
BLACK
6
CONTINUOUS
10
4.2064211417322834
20
1.5744711417322834
11
4.2064960629921258
21
1.4992913385826772
0
LINE
8
BLACK
6
CONTINUOUS
10
4.2064960629921258
20
1.4992913385826772
11
4.2064211417322834
21
1.49891468503937
0
LINE
8
BLACK
6
CONTINUOUS
10
4.2064211417322834
20
1.49891468503937
11
4.2058884645669288
21
1.4983820078740158
0
LINE
8
BLACK
6
CONTINUOUS
10
4.2058884645669288
20
1.4983820078740158
11
4.073228346456693
21
1.4983070866141732
0
LINE
8
BLACK
6
CONTINUOUS
10
4.073228346456693
20
1.4983070866141732
11
4.0728516929133853
21
1.4983820078740158
0
LINE
8
BLACK
6
CONTINUOUS
10
4.0728516929133853
20
1.4983820078740158
11
4.0723190157480316
21
1.49891468503937
0
LINE
8
BLACK
6
CONTINUOUS
10
4.0723190157480316
20
1.49891468503937
11
4.0722440944881892
21
1.5740944881889762
0
LINE
8
BLACK
6
CONTINUOUS
10
4.0722440944881892
20
1.5740944881889762
11
4.0723190157480316
21
1.5744711417322834
0
LINE
8
BLACK
6
CONTINUOUS
10
4.0723190157480316
20
1.5744711417322834
11
4.0728516929133853
21
1.5750038188976379
0
LINE
8
BLACK
6
CONTINUOUS
10
4.0728516929133853
20
1.5750038188976379
11
4.205511811023622
21
1.5750787401574802
0
LINE
8
BLACK
6
CONTINUOUS
10
4.205511811023622
20
1.5750787401574802
11
4.2058884645669288
21
1.5750038188976379
0
LINE
8
BLACK
6
CONTINUOUS
10
4.0741390157480311
20
1.5731107874015748
11
4.0742116535433066
21
1.5002014566929134
0
LINE
8
BLACK
6
CONTINUOUS
10
4.0742116535433066
20
1.5002014566929134
11
4.2046011023622043
21
1.5002750787401575
0
LINE
8
BLACK
6
CONTINUOUS
10
4.2046011023622043
20
1.5002750787401575
11
4.2045284645669287
21
1.5731844094488188
0
LINE
8
BLACK
6
CONTINUOUS
10
4.2045284645669287
20
1.5731844094488188
11
4.0741390157480311
21
1.5731107874015748
0
LINE
8
BLACK
6
CONTINUOUS
10
4.4233687795275589
20
1.6032715354330709
11
4.4239014566929136
21
1.6027388582677164
0
LINE
8
BLACK
6
CONTINUOUS
10
4.4239014566929136
20
1.6027388582677164
11
4.4239763779527559
21
1.5118110236220472
0
LINE
8
BLACK
6
CONTINUOUS
10
4.4239763779527559
20
1.5118110236220472
11
4.4239014566929136
21
1.51143437007874
0
LINE
8
BLACK
6
CONTINUOUS
10
4.4239014566929136
20
1.51143437007874
11
4.4233687795275589
21
1.5109016929133858
0
LINE
8
BLACK
6
CONTINUOUS
10
4.4233687795275589
20
1.5109016929133858
11
4.2418897637795272
21
1.5108267716535433
0
LINE
8
BLACK
6
CONTINUOUS
10
4.2418897637795272
20
1.5108267716535433
11
4.2415131102362205
21
1.5109016929133858
0
LINE
8
BLACK
6
CONTINUOUS
10
4.2415131102362205
20
1.5109016929133858
11
4.2409804330708658
21
1.51143437007874
0
LINE
8
BLACK
6
CONTINUOUS
10
4.2409804330708658
20
1.51143437007874
11
4.2409055118110235
21
1.6023622047244095
0
LINE
8
BLACK
6
CONTINUOUS
10
4.2409055118110235
20
1.6023622047244095
11
4.2409804330708658
21
1.6027388582677164
0
LINE
8
BLACK
6
CONTINUOUS
10
4.2409804330708658
20
1.6027388582677164
11
4.2415131102362205
21
1.6032715354330709
0
LINE
8
BLACK
6
CONTINUOUS
10
4.2415131102362205
20
1.6032715354330709
11
4.4229921259842522
21
1.6033464566929134
0
LINE
8
BLACK
6
CONTINUOUS
10
4.4229921259842522
20
1.6033464566929134
11
4.4233687795275589
21
1.6032715354330709
0
LINE
8
BLACK
6
CONTINUOUS
10
4.2428001968503937
20
1.6013783464566929
11
4.2428732283464567
21
1.5127209448818897
0
LINE
8
BLACK
6
CONTINUOUS
10
4.2428732283464567
20
1.5127209448818897
11
4.422081653543307
21
1.5127949212598424
0
LINE
8
BLACK
6
CONTINUOUS
10
4.422081653543307
20
1.5127949212598424
11
4.4220086220472439
21
1.6014523228346456
0
LINE
8
BLACK
6
CONTINUOUS
10
4.4220086220472439
20
1.6014523228346456
11
4.2428001968503937
21
1.6013783464566929
0
LINE
8
BLACK
6
CONTINUOUS
10
1.4427782283464567
20
1.647051062992126
11
1.443310905511811
21
1.6465183858267716
0
LINE
8
BLACK
6
CONTINUOUS
10
1.443310905511811
20
1.6465183858267716
11
1.4433858267716535
21
1.5138582677165353
0
LINE
8
BLACK
6
CONTINUOUS
10
1.4433858267716535
20
1.5138582677165353
11
1.443310905511811
21
1.5134816141732284
0
LINE
8
BLACK
6
CONTINUOUS
10
1.443310905511811
20
1.5134816141732284
11
1.4427782283464567
21
1.5129489370078739
0
LINE
8
BLACK
6
CONTINUOUS
10
1.4427782283464567
20
1.5129489370078739
11
1.3675984251968503
21
1.5128740157480314
0
LINE
8
BLACK
6
CONTINUOUS
10
1.3675984251968503
20
1.5128740157480314
11
1.3672217716535433
21
1.5129489370078739
0
LINE
8
BLACK
6
CONTINUOUS
10
1.3672217716535433
20
1.5129489370078739
11
1.3666890944881889
21
1.5134816141732284
0
LINE
8
BLACK
6
CONTINUOUS
10
1.3666890944881889
20
1.5134816141732284
11
1.3666141732283463
21
1.6461417322834646
0
LINE
8
BLACK
6
CONTINUOUS
10
1.3666141732283463
20
1.6461417322834646
11
1.3666890944881889
21
1.6465183858267716
0
LINE
8
BLACK
6
CONTINUOUS
10
1.3666890944881889
20
1.6465183858267716
11
1.3672217716535433
21
1.647051062992126
0
LINE
8
BLACK
6
CONTINUOUS
10
1.3672217716535433
20
1.647051062992126
11
1.4424015748031496
21
1.6471259842519685
0
LINE
8
BLACK
6
CONTINUOUS
10
1.4424015748031496
20
1.6471259842519685
11
1.4427782283464567
21
1.647051062992126
0
LINE
8
BLACK
6
CONTINUOUS
10
1.3685085039370077
20
1.6451584251968503
11
1.3685821259842519
21
1.5147689763779528
0
LINE
8
BLACK
6
CONTINUOUS
10
1.3685821259842519
20
1.5147689763779528
11
1.4414914566929133
21
1.5148416141732284
0
LINE
8
BLACK
6
CONTINUOUS
10
1.4414914566929133
20
1.5148416141732284
11
1.4414178346456692
21
1.6452310629921258
0
LINE
8
BLACK
6
CONTINUOUS
10
1.4414178346456692
20
1.6452310629921258
11
1.3685085039370077
21
1.6451584251968503
0
LINE
8
BLACK
6
CONTINUOUS
10
1.5227782283464566
20
1.647051062992126
11
1.523310905511811
21
1.6465183858267716
0
LINE
8
BLACK
6
CONTINUOUS
10
1.523310905511811
20
1.6465183858267716
11
1.5233858267716536
21
1.5138582677165353
0
LINE
8
BLACK
6
CONTINUOUS
10
1.5233858267716536
20
1.5138582677165353
11
1.523310905511811
21
1.5134816141732284
0
LINE
8
BLACK
6
CONTINUOUS
10
1.523310905511811
20
1.5134816141732284
11
1.5227782283464566
21
1.5129489370078739
0
LINE
8
BLACK
6
CONTINUOUS
10
1.5227782283464566
20
1.5129489370078739
11
1.4475984251968503
21
1.5128740157480314
0
LINE
8
BLACK
6
CONTINUOUS
10
1.4475984251968503
20
1.5128740157480314
11
1.4472217716535434
21
1.5129489370078739
0
LINE
8
BLACK
6
CONTINUOUS
10
1.4472217716535434
20
1.5129489370078739
11
1.4466890944881889
21
1.5134816141732284
0
LINE
8
BLACK
6
CONTINUOUS
10
1.4466890944881889
20
1.5134816141732284
11
1.4466141732283464
21
1.6461417322834646
0
LINE
8
BLACK
6
CONTINUOUS
10
1.4466141732283464
20
1.6461417322834646
11
1.4466890944881889
21
1.6465183858267716
0
LINE
8
BLACK
6
CONTINUOUS
10
1.4466890944881889
20
1.6465183858267716
11
1.4472217716535434
21
1.647051062992126
0
LINE
8
BLACK
6
CONTINUOUS
10
1.4472217716535434
20
1.647051062992126
11
1.5224015748031496
21
1.6471259842519685
0
LINE
8
BLACK
6
CONTINUOUS
10
1.5224015748031496
20
1.6471259842519685
11
1.5227782283464566
21
1.647051062992126
0
LINE
8
BLACK
6
CONTINUOUS
10
1.4485085039370078
20
1.6451584251968503
11
1.448582125984252
21
1.5147689763779528
0
LINE
8
BLACK
6
CONTINUOUS
10
1.448582125984252
20
1.5147689763779528
11
1.5214914566929134
21
1.5148416141732284
0
LINE
8
BLACK
6
CONTINUOUS
10
1.5214914566929134
20
1.5148416141732284
11
1.5214178346456693
21
1.6452310629921258
0
LINE
8
BLACK
6
CONTINUOUS
10
1.5214178346456693
20
1.6452310629921258
11
1.4485085039370078
21
1.6451584251968503
0
LINE
8
BLACK
6
CONTINUOUS
10
4.0367546062992128
20
1.7646888582677165
11
4.0372872834645666
21
1.7641561811023623
0
LINE
8
BLACK
6
CONTINUOUS
10
4.0372872834645666
20
1.7641561811023623
11
4.0373622047244098
21
1.5511811023622046
0
LINE
8
BLACK
6
CONTINUOUS
10
4.0373622047244098
20
1.5511811023622046
11
4.0372872834645666
21
1.5508044488188977
0
LINE
8
BLACK
6
CONTINUOUS
10
4.0372872834645666
20
1.5508044488188977
11
4.0367546062992128
21
1.5502717716535432
0
LINE
8
BLACK
6
CONTINUOUS
10
4.0367546062992128
20
1.5502717716535432
11
3.7450393700787399
21
1.5501968503937007
0
LINE
8
BLACK
6
CONTINUOUS
10
3.7450393700787399
20
1.5501968503937007
11
3.7446627165354331
21
1.5502717716535432
0
LINE
8
BLACK
6
CONTINUOUS
10
3.7446627165354331
20
1.5502717716535432
11
3.7441300393700785
21
1.5508044488188977
0
LINE
8
BLACK
6
CONTINUOUS
10
3.7441300393700785
20
1.5508044488188977
11
3.7440551181102362
21
1.7637795275590551
0
LINE
8
BLACK
6
CONTINUOUS
10
3.7440551181102362
20
1.7637795275590551
11
3.7441300393700785
21
1.7641561811023623
0
LINE
8
BLACK
6
CONTINUOUS
10
3.7441300393700785
20
1.7641561811023623
11
3.7446627165354331
21
1.7646888582677165
0
LINE
8
BLACK
6
CONTINUOUS
10
3.7446627165354331
20
1.7646888582677165
11
4.0363779527559052
21
1.764763779527559
0
LINE
8
BLACK
6
CONTINUOUS
10
4.0363779527559052
20
1.764763779527559
11
4.0367546062992128
21
1.7646888582677165
0
LINE
8
BLACK
6
CONTINUOUS
10
3.7459491732283463
20
1.7627955118110237
11
3.7460232677165353
21
1.5520907874015748
0
LINE
8
BLACK
6
CONTINUOUS
10
3.7460232677165353
20
1.5520907874015748
11
4.03546811023622
21
1.552165157480315
0
LINE
8
BLACK
6
CONTINUOUS
10
4.03546811023622
20
1.552165157480315
11
4.0353940157480315
21
1.7628698818897637
0
LINE
8
BLACK
6
CONTINUOUS
10
4.0353940157480315
20
1.7628698818897637
11
3.7459491732283463
21
1.7627955118110237
0
LINE
8
BLACK
6
CONTINUOUS
10
4.2066758661417323
20
1.6814605118110235
11
4.2072085433070869
21
1.6809278346456693
0
LINE
8
BLACK
6
CONTINUOUS
10
4.2072085433070869
20
1.6809278346456693
11
4.2072834645669293
21
1.6033858267716534
0
LINE
8
BLACK
6
CONTINUOUS
10
4.2072834645669293
20
1.6033858267716534
11
4.2072085433070869
21
1.6030091732283465
0
LINE
8
BLACK
6
CONTINUOUS
10
4.2072085433070869
20
1.6030091732283465
11
4.2066758661417323
21
1.602476496062992
0
LINE
8
BLACK
6
CONTINUOUS
10
4.2066758661417323
20
1.602476496062992
11
4.0724409448818895
21
1.6024015748031495
0
LINE
8
BLACK
6
CONTINUOUS
10
4.0724409448818895
20
1.6024015748031495
11
4.0720642913385827
21
1.602476496062992
0
LINE
8
BLACK
6
CONTINUOUS
10
4.0720642913385827
20
1.602476496062992
11
4.0715316141732281
21
1.6030091732283465
0
LINE
8
BLACK
6
CONTINUOUS
10
4.0715316141732281
20
1.6030091732283465
11
4.0714566929133857
21
1.6805511811023621
0
LINE
8
BLACK
6
CONTINUOUS
10
4.0714566929133857
20
1.6805511811023621
11
4.0715316141732281
21
1.6809278346456693
0
LINE
8
BLACK
6
CONTINUOUS
10
4.0715316141732281
20
1.6809278346456693
11
4.0720642913385827
21
1.6814605118110235
0
LINE
8
BLACK
6
CONTINUOUS
10
4.0720642913385827
20
1.6814605118110235
11
4.2062992125984255
21
1.6815354330708661
0
LINE
8
BLACK
6
CONTINUOUS
10
4.2062992125984255
20
1.6815354330708661
11
4.2066758661417323
21
1.6814605118110235
0
LINE
8
BLACK
6
CONTINUOUS
10
4.0733515748031497
20
1.6795674409448818
11
4.0734242913385827
21
1.6042959448818896
0
LINE
8
BLACK
6
CONTINUOUS
10
4.0734242913385827
20
1.6042959448818896
11
4.2053885433070866
21
1.6043696062992125
0
LINE
8
BLACK
6
CONTINUOUS
10
4.2053885433070866
20
1.6043696062992125
11
4.2053158267716535
21
1.6796411023622047
0
LINE
8
BLACK
6
CONTINUOUS
10
4.2053158267716535
20
1.6796411023622047
11
4.0733515748031497
21
1.6795674409448818
0
LINE
8
BLACK
6
CONTINUOUS
10
4.4233687795275589
20
1.732799094488189
11
4.4239014566929136
21
1.7322664173228346
0
LINE
8
BLACK
6
CONTINUOUS
10
4.4239014566929136
20
1.7322664173228346
11
4.4239763779527559
21
1.6413385826771654
0
LINE
8
BLACK
6
CONTINUOUS
10
4.4239763779527559
20
1.6413385826771654
11
4.4239014566929136
21
1.6409619291338582
0
LINE
8
BLACK
6
CONTINUOUS
10
4.4239014566929136
20
1.6409619291338582
11
4.4233687795275589
21
1.640429251968504
0
LINE
8
BLACK
6
CONTINUOUS
10
4.4233687795275589
20
1.640429251968504
11
4.2418897637795272
21
1.6403543307086614
0
LINE
8
BLACK
6
CONTINUOUS
10
4.2418897637795272
20
1.6403543307086614
11
4.2415131102362205
21
1.640429251968504
0
LINE
8
BLACK
6
CONTINUOUS
10
4.2415131102362205
20
1.640429251968504
11
4.2409804330708658
21
1.6409619291338582
0
LINE
8
BLACK
6
CONTINUOUS
10
4.2409804330708658
20
1.6409619291338582
11
4.2409055118110235
21
1.7318897637795274
0
LINE
8
BLACK
6
CONTINUOUS
10
4.2409055118110235
20
1.7318897637795274
11
4.2409804330708658
21
1.7322664173228346
0
LINE
8
BLACK
6
CONTINUOUS
10
4.2409804330708658
20
1.7322664173228346
11
4.2415131102362205
21
1.732799094488189
0
LINE
8
BLACK
6
CONTINUOUS
10
4.2415131102362205
20
1.732799094488189
11
4.4229921259842522
21
1.7328740157480313
0
LINE
8
BLACK
6
CONTINUOUS
10
4.4229921259842522
20
1.7328740157480313
11
4.4233687795275589
21
1.732799094488189
0
LINE
8
BLACK
6
CONTINUOUS
10
4.2428001968503937
20
1.730905905511811
11
4.2428732283464567
21
1.6422485039370078
0
LINE
8
BLACK
6
CONTINUOUS
10
4.2428732283464567
20
1.6422485039370078
11
4.422081653543307
21
1.6423224803149605
0
LINE
8
BLACK
6
CONTINUOUS
10
4.422081653543307
20
1.6423224803149605
11
4.4220086220472439
21
1.7309798818897637
0
LINE
8
BLACK
6
CONTINUOUS
10
4.4220086220472439
20
1.7309798818897637
11
4.2428001968503937
21
1.730905905511811
0
LINE
8
BLACK
6
CONTINUOUS
10
1.0259672047244095
20
1.8428385039370079
11
1.0264998818897637
21
1.8423058267716534
0
LINE
8
BLACK
6
CONTINUOUS
10
1.0264998818897637
20
1.8423058267716534
11
1.0265748031496063
21
1.7080708267716536
0
LINE
8
BLACK
6
CONTINUOUS
10
1.0265748031496063
20
1.7080708267716536
11
1.0264998818897637
21
1.7076941732283464
0
LINE
8
BLACK
6
CONTINUOUS
10
1.0264998818897637
20
1.7076941732283464
11
1.0259672047244095
21
1.7071614960629922
0
LINE
8
BLACK
6
CONTINUOUS
10
1.0259672047244095
20
1.7071614960629922
11
0.8744094488188976
21
1.7070865748031496
0
LINE
8
BLACK
6
CONTINUOUS
10
0.8744094488188976
20
1.7070865748031496
11
0.8740327952755905
21
1.7071614960629922
0
LINE
8
BLACK
6
CONTINUOUS
10
0.8740327952755905
20
1.7071614960629922
11
0.8735001181102362
21
1.7076941732283464
0
LINE
8
BLACK
6
CONTINUOUS
10
0.8735001181102362
20
1.7076941732283464
11
0.8734251968503937
21
1.8419291732283465
0
LINE
8
BLACK
6
CONTINUOUS
10
0.8734251968503937
20
1.8419291732283465
11
0.8735001181102362
21
1.8423058267716534
0
LINE
8
BLACK
6
CONTINUOUS
10
0.8735001181102362
20
1.8423058267716534
11
0.8740327952755905
21
1.8428385039370079
0
LINE
8
BLACK
6
CONTINUOUS
10
0.8740327952755905
20
1.8428385039370079
11
1.0255905511811023
21
1.8429134251968504
0
LINE
8
BLACK
6
CONTINUOUS
10
1.0255905511811023
20
1.8429134251968504
11
1.0259672047244095
21
1.8428385039370079
0
LINE
8
BLACK
6
CONTINUOUS
10
0.8753195275590551
20
1.8409453937007874
11
0.875393188976378
21
1.7089808661417323
0
LINE
8
BLACK
6
CONTINUOUS
10
0.875393188976378
20
1.7089808661417323
11
1.0246804330708661
21
1.7090546456692912
0
LINE
8
BLACK
6
CONTINUOUS
10
1.0246804330708661
20
1.7090546456692912
11
1.0246067716535432
21
1.8410191732283465
0
LINE
8
BLACK
6
CONTINUOUS
10
1.0246067716535432
20
1.8410191732283465
11
0.8753195275590551
21
1.8409453937007874
0
LINE
8
BLACK
6
CONTINUOUS
10
4.2066758661417323
20
1.7867361023622046
11
4.2072085433070869
21
1.7862034251968504
0
LINE
8
BLACK
6
CONTINUOUS
10
4.2072085433070869
20
1.7862034251968504
11
4.2072834645669293
21
1.7086614173228345
0
LINE
8
BLACK
6
CONTINUOUS
10
4.2072834645669293
20
1.7086614173228345
11
4.2072085433070869
21
1.7082847637795275
0
LINE
8
BLACK
6
CONTINUOUS
10
4.2072085433070869
20
1.7082847637795275
11
4.2066758661417323
21
1.7077520866141731
0
LINE
8
BLACK
6
CONTINUOUS
10
4.2066758661417323
20
1.7077520866141731
11
4.0724409448818895
21
1.7076771653543306
0
LINE
8
BLACK
6
CONTINUOUS
10
4.0724409448818895
20
1.7076771653543306
11
4.0720642913385827
21
1.7077520866141731
0
LINE
8
BLACK
6
CONTINUOUS
10
4.0720642913385827
20
1.7077520866141731
11
4.0715316141732281
21
1.7082847637795275
0
LINE
8
BLACK
6
CONTINUOUS
10
4.0715316141732281
20
1.7082847637795275
11
4.0714566929133857
21
1.7858267716535432
0
LINE
8
BLACK
6
CONTINUOUS
10
4.0714566929133857
20
1.7858267716535432
11
4.0715316141732281
21
1.7862034251968504
0
LINE
8
BLACK
6
CONTINUOUS
10
4.0715316141732281
20
1.7862034251968504
11
4.0720642913385827
21
1.7867361023622046
0
LINE
8
BLACK
6
CONTINUOUS
10
4.0720642913385827
20
1.7867361023622046
11
4.2062992125984255
21
1.7868110236220471
0
LINE
8
BLACK
6
CONTINUOUS
10
4.2062992125984255
20
1.7868110236220471
11
4.2066758661417323
21
1.7867361023622046
0
LINE
8
BLACK
6
CONTINUOUS
10
4.0733515748031497
20
1.784843031496063
11
4.0734242913385827
21
1.7095715354330707
0
LINE
8
BLACK
6
CONTINUOUS
10
4.0734242913385827
20
1.7095715354330707
11
4.2053885433070866
21
1.7096451968503936
0
LINE
8
BLACK
6
CONTINUOUS
10
4.2053885433070866
20
1.7096451968503936
11
4.2053158267716535
21
1.7849166929133857
0
LINE
8
BLACK
6
CONTINUOUS
10
4.2053158267716535
20
1.7849166929133857
11
4.0733515748031497
21
1.784843031496063
0
LINE
8
BLACK
6
CONTINUOUS
10
0.8477782283464567
20
1.867051062992126
11
0.848310905511811
21
1.8665183858267715
0
LINE
8
BLACK
6
CONTINUOUS
10
0.848310905511811
20
1.8665183858267715
11
0.8483858267716535
21
1.7338582677165353
0
LINE
8
BLACK
6
CONTINUOUS
10
0.8483858267716535
20
1.7338582677165353
11
0.848310905511811
21
1.7334816141732283
0
LINE
8
BLACK
6
CONTINUOUS
10
0.848310905511811
20
1.7334816141732283
11
0.8477782283464567
21
1.7329489370078739
0
LINE
8
BLACK
6
CONTINUOUS
10
0.8477782283464567
20
1.7329489370078739
11
0.7725984251968504
21
1.7328740157480313
0
LINE
8
BLACK
6
CONTINUOUS
10
0.7725984251968504
20
1.7328740157480313
11
0.7722217716535433
21
1.7329489370078739
0
LINE
8
BLACK
6
CONTINUOUS
10
0.7722217716535433
20
1.7329489370078739
11
0.771689094488189
21
1.7334816141732283
0
LINE
8
BLACK
6
CONTINUOUS
10
0.771689094488189
20
1.7334816141732283
11
0.7716141732283465
21
1.8661417322834646
0
LINE
8
BLACK
6
CONTINUOUS
10
0.7716141732283465
20
1.8661417322834646
11
0.771689094488189
21
1.8665183858267715
0
LINE
8
BLACK
6
CONTINUOUS
10
0.771689094488189
20
1.8665183858267715
11
0.7722217716535433
21
1.867051062992126
0
LINE
8
BLACK
6
CONTINUOUS
10
0.7722217716535433
20
1.867051062992126
11
0.8474015748031496
21
1.8671259842519685
0
LINE
8
BLACK
6
CONTINUOUS
10
0.8474015748031496
20
1.8671259842519685
11
0.8477782283464567
21
1.867051062992126
0
LINE
8
BLACK
6
CONTINUOUS
10
0.7735085039370079
20
1.8651584251968503
11
0.7735821259842519
21
1.7347689763779528
0
LINE
8
BLACK
6
CONTINUOUS
10
0.7735821259842519
20
1.7347689763779528
11
0.8464914566929134
21
1.7348416141732284
0
LINE
8
BLACK
6
CONTINUOUS
10
0.8464914566929134
20
1.7348416141732284
11
0.8464178346456692
21
1.865231062992126
0
LINE
8
BLACK
6
CONTINUOUS
10
0.8464178346456692
20
1.865231062992126
11
0.7735085039370079
21
1.8651584251968503
0
LINE
8
BLACK
6
CONTINUOUS
10
0.6025183858267716
20
1.8113109055118111
11
0.603051062992126
21
1.8107782283464566
0
LINE
8
BLACK
6
CONTINUOUS
10
0.603051062992126
20
1.8107782283464566
11
0.6031259842519685
21
1.7355984251968504
0
LINE
8
BLACK
6
CONTINUOUS
10
0.6031259842519685
20
1.7355984251968504
11
0.603051062992126
21
1.7352217716535432
0
LINE
8
BLACK
6
CONTINUOUS
10
0.603051062992126
20
1.7352217716535432
11
0.6025183858267716
21
1.734689094488189
0
LINE
8
BLACK
6
CONTINUOUS
10
0.6025183858267716
20
1.734689094488189
11
0.4698582677165354
21
1.7346141732283464
0
LINE
8
BLACK
6
CONTINUOUS
10
0.4698582677165354
20
1.7346141732283464
11
0.4694816141732283
21
1.734689094488189
0
LINE
8
BLACK
6
CONTINUOUS
10
0.4694816141732283
20
1.734689094488189
11
0.468948937007874
21
1.7352217716535432
0
LINE
8
BLACK
6
CONTINUOUS
10
0.468948937007874
20
1.7352217716535432
11
0.4688740157480315
21
1.8104015748031497
0
LINE
8
BLACK
6
CONTINUOUS
10
0.4688740157480315
20
1.8104015748031497
11
0.468948937007874
21
1.8107782283464566
0
LINE
8
BLACK
6
CONTINUOUS
10
0.468948937007874
20
1.8107782283464566
11
0.4694816141732283
21
1.8113109055118111
0
LINE
8
BLACK
6
CONTINUOUS
10
0.4694816141732283
20
1.8113109055118111
11
0.6021417322834646
21
1.8113858267716536
0
LINE
8
BLACK
6
CONTINUOUS
10
0.6021417322834646
20
1.8113858267716536
11
0.6025183858267716
21
1.8113109055118111
0
LINE
8
BLACK
6
CONTINUOUS
10
0.470768937007874
20
1.8094178740157481
11
0.4708415748031496
21
1.7365085433070866
0
LINE
8
BLACK
6
CONTINUOUS
10
0.4708415748031496
20
1.7365085433070866
11
0.6012310236220473
21
1.7365821653543307
0
LINE
8
BLACK
6
CONTINUOUS
10
0.6012310236220473
20
1.7365821653543307
11
0.6011583858267716
21
1.809491496062992
0
LINE
8
BLACK
6
CONTINUOUS
10
0.6011583858267716
20
1.809491496062992
11
0.470768937007874
21
1.8094178740157481
0
LINE
8
BLACK
6
CONTINUOUS
10
1.1715183858267717
20
1.8433109055118109
11
1.1720510629921259
21
1.8427782283464567
0
LINE
8
BLACK
6
CONTINUOUS
10
1.1720510629921259
20
1.8427782283464567
11
1.1721259842519685
21
1.7675984251968504
0
LINE
8
BLACK
6
CONTINUOUS
10
1.1721259842519685
20
1.7675984251968504
11
1.1720510629921259
21
1.7672217716535432
0
LINE
8
BLACK
6
CONTINUOUS
10
1.1720510629921259
20
1.7672217716535432
11
1.1715183858267717
21
1.766689094488189
0
LINE
8
BLACK
6
CONTINUOUS
10
1.1715183858267717
20
1.766689094488189
11
1.0388582677165354
21
1.7666141732283465
0
LINE
8
BLACK
6
CONTINUOUS
10
1.0388582677165354
20
1.7666141732283465
11
1.0384816141732283
21
1.766689094488189
0
LINE
8
BLACK
6
CONTINUOUS
10
1.0384816141732283
20
1.766689094488189
11
1.0379489370078741
21
1.7672217716535432
0
LINE
8
BLACK
6
CONTINUOUS
10
1.0379489370078741
20
1.7672217716535432
11
1.0378740157480315
21
1.8424015748031495
0
LINE
8
BLACK
6
CONTINUOUS
10
1.0378740157480315
20
1.8424015748031495
11
1.0379489370078741
21
1.8427782283464567
0
LINE
8
BLACK
6
CONTINUOUS
10
1.0379489370078741
20
1.8427782283464567
11
1.0384816141732283
21
1.8433109055118109
0
LINE
8
BLACK
6
CONTINUOUS
10
1.0384816141732283
20
1.8433109055118109
11
1.1711417322834645
21
1.8433858267716534
0
LINE
8
BLACK
6
CONTINUOUS
10
1.1711417322834645
20
1.8433858267716534
11
1.1715183858267717
21
1.8433109055118109
0
LINE
8
BLACK
6
CONTINUOUS
10
1.039768937007874
20
1.8414178740157481
11
1.0398415748031495
21
1.7685085433070866
0
LINE
8
BLACK
6
CONTINUOUS
10
1.0398415748031495
20
1.7685085433070866
11
1.1702310236220472
21
1.7685821653543308
0
LINE
8
BLACK
6
CONTINUOUS
10
1.1702310236220472
20
1.7685821653543308
11
1.1701583858267717
21
1.841491496062992
0
LINE
8
BLACK
6
CONTINUOUS
10
1.1701583858267717
20
1.841491496062992
11
1.039768937007874
21
1.8414178740157481
0
LINE
8
BLACK
6
CONTINUOUS
10
4.4233687795275589
20
1.862326653543307
11
4.4239014566929136
21
1.8617939763779527
0
LINE
8
BLACK
6
CONTINUOUS
10
4.4239014566929136
20
1.8617939763779527
11
4.4239763779527559
21
1.7708661417322835
0
LINE
8
BLACK
6
CONTINUOUS
10
4.4239763779527559
20
1.7708661417322835
11
4.4239014566929136
21
1.7704894881889763
0
LINE
8
BLACK
6
CONTINUOUS
10
4.4239014566929136
20
1.7704894881889763
11
4.4233687795275589
21
1.7699568110236219
0
LINE
8
BLACK
6
CONTINUOUS
10
4.4233687795275589
20
1.7699568110236219
11
4.2418897637795272
21
1.7698818897637796
0
LINE
8
BLACK
6
CONTINUOUS
10
4.2418897637795272
20
1.7698818897637796
11
4.2415131102362205
21
1.7699568110236219
0
LINE
8
BLACK
6
CONTINUOUS
10
4.2415131102362205
20
1.7699568110236219
11
4.2409804330708658
21
1.7704894881889763
0
LINE
8
BLACK
6
CONTINUOUS
10
4.2409804330708658
20
1.7704894881889763
11
4.2409055118110235
21
1.8614173228346456
0
LINE
8
BLACK
6
CONTINUOUS
10
4.2409055118110235
20
1.8614173228346456
11
4.2409804330708658
21
1.8617939763779527
0
LINE
8
BLACK
6
CONTINUOUS
10
4.2409804330708658
20
1.8617939763779527
11
4.2415131102362205
21
1.862326653543307
0
LINE
8
BLACK
6
CONTINUOUS
10
4.2415131102362205
20
1.862326653543307
11
4.4229921259842522
21
1.8624015748031495
0
LINE
8
BLACK
6
CONTINUOUS
10
4.4229921259842522
20
1.8624015748031495
11
4.4233687795275589
21
1.862326653543307
0
LINE
8
BLACK
6
CONTINUOUS
10
4.2428001968503937
20
1.8604334645669292
11
4.2428732283464567
21
1.771776062992126
0
LINE
8
BLACK
6
CONTINUOUS
10
4.2428732283464567
20
1.771776062992126
11
4.422081653543307
21
1.7718500393700787
0
LINE
8
BLACK
6
CONTINUOUS
10
4.422081653543307
20
1.7718500393700787
11
4.4220086220472439
21
1.8605074409448819
0
LINE
8
BLACK
6
CONTINUOUS
10
4.4220086220472439
20
1.8605074409448819
11
4.2428001968503937
21
1.8604334645669292
0
LINE
8
BLACK
6
CONTINUOUS
10
1.5665183858267717
20
1.8533109055118109
11
1.5670510629921259
21
1.8527782283464567
0
LINE
8
BLACK
6
CONTINUOUS
10
1.5670510629921259
20
1.8527782283464567
11
1.5671259842519685
21
1.7775984251968504
0
LINE
8
BLACK
6
CONTINUOUS
10
1.5671259842519685
20
1.7775984251968504
11
1.5670510629921259
21
1.7772217716535432
0
LINE
8
BLACK
6
CONTINUOUS
10
1.5670510629921259
20
1.7772217716535432
11
1.5665183858267717
21
1.776689094488189
0
LINE
8
BLACK
6
CONTINUOUS
10
1.5665183858267717
20
1.776689094488189
11
1.4338582677165355
21
1.7766141732283465
0
LINE
8
BLACK
6
CONTINUOUS
10
1.4338582677165355
20
1.7766141732283465
11
1.4334816141732283
21
1.776689094488189
0
LINE
8
BLACK
6
CONTINUOUS
10
1.4334816141732283
20
1.776689094488189
11
1.4329489370078741
21
1.7772217716535432
0
LINE
8
BLACK
6
CONTINUOUS
10
1.4329489370078741
20
1.7772217716535432
11
1.4328740157480315
21
1.8524015748031495
0
LINE
8
BLACK
6
CONTINUOUS
10
1.4328740157480315
20
1.8524015748031495
11
1.4329489370078741
21
1.8527782283464567
0
LINE
8
BLACK
6
CONTINUOUS
10
1.4329489370078741
20
1.8527782283464567
11
1.4334816141732283
21
1.8533109055118109
0
LINE
8
BLACK
6
CONTINUOUS
10
1.4334816141732283
20
1.8533109055118109
11
1.5661417322834645
21
1.8533858267716534
0
LINE
8
BLACK
6
CONTINUOUS
10
1.5661417322834645
20
1.8533858267716534
11
1.5665183858267717
21
1.8533109055118109
0
LINE
8
BLACK
6
CONTINUOUS
10
1.434768937007874
20
1.8514178740157481
11
1.4348415748031496
21
1.7785085433070866
0
LINE
8
BLACK
6
CONTINUOUS
10
1.4348415748031496
20
1.7785085433070866
11
1.5652310236220472
21
1.7785821653543306
0
LINE
8
BLACK
6
CONTINUOUS
10
1.5652310236220472
20
1.7785821653543306
11
1.5651583858267717
21
1.851491496062992
0
LINE
8
BLACK
6
CONTINUOUS
10
1.5651583858267717
20
1.851491496062992
11
1.434768937007874
21
1.8514178740157481
0
LINE
8
BLACK
6
CONTINUOUS
10
4.0349829527559056
20
1.9906731102362205
11
4.0355156299212593
21
1.9901404330708661
0
LINE
8
BLACK
6
CONTINUOUS
10
4.0355156299212593
20
1.9901404330708661
11
4.0355905511811025
21
1.8102362204724409
0
LINE
8
BLACK
6
CONTINUOUS
10
4.0355905511811025
20
1.8102362204724409
11
4.0355156299212593
21
1.8098595669291337
0
LINE
8
BLACK
6
CONTINUOUS
10
4.0355156299212593
20
1.8098595669291337
11
4.0349829527559056
21
1.8093268897637795
0
LINE
8
BLACK
6
CONTINUOUS
10
4.0349829527559056
20
1.8093268897637795
11
3.7349999999999999
21
1.809251968503937
0
LINE
8
BLACK
6
CONTINUOUS
10
3.7349999999999999
20
1.809251968503937
11
3.7346233464566927
21
1.8093268897637795
0
LINE
8
BLACK
6
CONTINUOUS
10
3.7346233464566927
20
1.8093268897637795
11
3.7340906692913385
21
1.8098595669291337
0
LINE
8
BLACK
6
CONTINUOUS
10
3.7340906692913385
20
1.8098595669291337
11
3.7340157480314962
21
1.9897637795275591
0
LINE
8
BLACK
6
CONTINUOUS
10
3.7340157480314962
20
1.9897637795275591
11
3.7340906692913385
21
1.9901404330708661
0
LINE
8
BLACK
6
CONTINUOUS
10
3.7340906692913385
20
1.9901404330708661
11
3.7346233464566927
21
1.9906731102362205
0
LINE
8
BLACK
6
CONTINUOUS
10
3.7346233464566927
20
1.9906731102362205
11
4.0346062992125979
21
1.9907480314960631
0
LINE
8
BLACK
6
CONTINUOUS
10
4.0346062992125979
20
1.9907480314960631
11
4.0349829527559056
21
1.9906731102362205
0
LINE
8
BLACK
6
CONTINUOUS
10
3.7359098818897638
20
1.9887797637795275
11
3.7359838582677165
21
1.8111459055118109
0
LINE
8
BLACK
6
CONTINUOUS
10
3.7359838582677165
20
1.8111459055118109
11
4.0336963779527562
21
1.8112202755905511
0
LINE
8
BLACK
6
CONTINUOUS
10
4.0336963779527562
20
1.8112202755905511
11
4.033622401574803
21
1.9888541338582677
0
LINE
8
BLACK
6
CONTINUOUS
10
4.033622401574803
20
1.9888541338582677
11
3.7359098818897638
21
1.9887797637795275
0
LINE
8
BLACK
6
CONTINUOUS
10
4.2066758661417323
20
1.8920116929133859
11
4.2072085433070869
21
1.8914790157480315
0
LINE
8
BLACK
6
CONTINUOUS
10
4.2072085433070869
20
1.8914790157480315
11
4.2072834645669293
21
1.8139370078740158
0
LINE
8
BLACK
6
CONTINUOUS
10
4.2072834645669293
20
1.8139370078740158
11
4.2072085433070869
21
1.8135603543307086
0
LINE
8
BLACK
6
CONTINUOUS
10
4.2072085433070869
20
1.8135603543307086
11
4.2066758661417323
21
1.8130276771653542
0
LINE
8
BLACK
6
CONTINUOUS
10
4.2066758661417323
20
1.8130276771653542
11
4.0724409448818895
21
1.8129527559055119
0
LINE
8
BLACK
6
CONTINUOUS
10
4.0724409448818895
20
1.8129527559055119
11
4.0720642913385827
21
1.8130276771653542
0
LINE
8
BLACK
6
CONTINUOUS
10
4.0720642913385827
20
1.8130276771653542
11
4.0715316141732281
21
1.8135603543307086
0
LINE
8
BLACK
6
CONTINUOUS
10
4.0715316141732281
20
1.8135603543307086
11
4.0714566929133857
21
1.8911023622047243
0
LINE
8
BLACK
6
CONTINUOUS
10
4.0714566929133857
20
1.8911023622047243
11
4.0715316141732281
21
1.8914790157480315
0
LINE
8
BLACK
6
CONTINUOUS
10
4.0715316141732281
20
1.8914790157480315
11
4.0720642913385827
21
1.8920116929133859
0
LINE
8
BLACK
6
CONTINUOUS
10
4.0720642913385827
20
1.8920116929133859
11
4.2062992125984255
21
1.8920866141732282
0
LINE
8
BLACK
6
CONTINUOUS
10
4.2062992125984255
20
1.8920866141732282
11
4.2066758661417323
21
1.8920116929133859
0
LINE
8
BLACK
6
CONTINUOUS
10
4.0733515748031497
20
1.8901186220472441
11
4.0734242913385827
21
1.814847125984252
0
LINE
8
BLACK
6
CONTINUOUS
10
4.0734242913385827
20
1.814847125984252
11
4.2053885433070866
21
1.8149207874015747
0
LINE
8
BLACK
6
CONTINUOUS
10
4.2053885433070866
20
1.8149207874015747
11
4.2053158267716535
21
1.8901922834645668
0
LINE
8
BLACK
6
CONTINUOUS
10
4.2053158267716535
20
1.8901922834645668
11
4.0733515748031497
21
1.8901186220472441
0
LINE
8
BLACK
6
CONTINUOUS
10
1.0165183858267717
20
1.9283109055118111
11
1.0170510629921259
21
1.9277782283464566
0
LINE
8
BLACK
6
CONTINUOUS
10
1.0170510629921259
20
1.9277782283464566
11
1.0171259842519684
21
1.8525984251968504
0
LINE
8
BLACK
6
CONTINUOUS
10
1.0171259842519684
20
1.8525984251968504
11
1.0170510629921259
21
1.8522217716535432
0
LINE
8
BLACK
6
CONTINUOUS
10
1.0170510629921259
20
1.8522217716535432
11
1.0165183858267717
21
1.851689094488189
0
LINE
8
BLACK
6
CONTINUOUS
10
1.0165183858267717
20
1.851689094488189
11
0.8838582677165354
21
1.8516141732283464
0
LINE
8
BLACK
6
CONTINUOUS
10
0.8838582677165354
20
1.8516141732283464
11
0.8834816141732283
21
1.851689094488189
0
LINE
8
BLACK
6
CONTINUOUS
10
0.8834816141732283
20
1.851689094488189
11
0.882948937007874
21
1.8522217716535432
0
LINE
8
BLACK
6
CONTINUOUS
10
0.882948937007874
20
1.8522217716535432
11
0.8828740157480315
21
1.9274015748031497
0
LINE
8
BLACK
6
CONTINUOUS
10
0.8828740157480315
20
1.9274015748031497
11
0.882948937007874
21
1.9277782283464566
0
LINE
8
BLACK
6
CONTINUOUS
10
0.882948937007874
20
1.9277782283464566
11
0.8834816141732283
21
1.9283109055118111
0
LINE
8
BLACK
6
CONTINUOUS
10
0.8834816141732283
20
1.9283109055118111
11
1.0161417322834645
21
1.9283858267716536
0
LINE
8
BLACK
6
CONTINUOUS
10
1.0161417322834645
20
1.9283858267716536
11
1.0165183858267717
21
1.9283109055118111
0
LINE
8
BLACK
6
CONTINUOUS
10
0.884768937007874
20
1.926417874015748
11
0.8848415748031496
21
1.8535085433070866
0
LINE
8
BLACK
6
CONTINUOUS
10
0.8848415748031496
20
1.8535085433070866
11
1.0152310236220472
21
1.8535821653543307
0
LINE
8
BLACK
6
CONTINUOUS
10
1.0152310236220472
20
1.8535821653543307
11
1.0151583858267716
21
1.9264914960629922
0
LINE
8
BLACK
6
CONTINUOUS
10
1.0151583858267716
20
1.9264914960629922
11
0.884768937007874
21
1.926417874015748
0
LINE
8
BLACK
6
CONTINUOUS
10
0.7044711417322834
20
2.0356731102362202
11
0.7050038188976377
21
2.035140433070866
0
LINE
8
BLACK
6
CONTINUOUS
10
0.7050038188976377
20
2.035140433070866
11
0.7050787401574803
21
1.8552362204724409
0
LINE
8
BLACK
6
CONTINUOUS
10
0.7050787401574803
20
1.8552362204724409
11
0.7050038188976377
21
1.8548595669291339
0
LINE
8
BLACK
6
CONTINUOUS
10
0.7050038188976377
20
1.8548595669291339
11
0.7044711417322834
21
1.8543268897637795
0
LINE
8
BLACK
6
CONTINUOUS
10
0.7044711417322834
20
1.8543268897637795
11
0.6159055118110236
21
1.8542519685039369
0
LINE
8
BLACK
6
CONTINUOUS
10
0.6159055118110236
20
1.8542519685039369
11
0.6155288582677165
21
1.8543268897637795
0
LINE
8
BLACK
6
CONTINUOUS
10
0.6155288582677165
20
1.8543268897637795
11
0.6149961811023622
21
1.8548595669291339
0
LINE
8
BLACK
6
CONTINUOUS
10
0.6149961811023622
20
1.8548595669291339
11
0.6149212598425197
21
2.0347637795275588
0
LINE
8
BLACK
6
CONTINUOUS
10
0.6149212598425197
20
2.0347637795275588
11
0.6149961811023622
21
2.035140433070866
0
LINE
8
BLACK
6
CONTINUOUS
10
0.6149961811023622
20
2.035140433070866
11
0.6155288582677165
21
2.0356731102362202
0
LINE
8
BLACK
6
CONTINUOUS
10
0.6155288582677165
20
2.0356731102362202
11
0.7040944881889764
21
2.035748031496063
0
LINE
8
BLACK
6
CONTINUOUS
10
0.7040944881889764
20
2.035748031496063
11
0.7044711417322834
21
2.0356731102362202
0
LINE
8
BLACK
6
CONTINUOUS
10
0.6168153937007874
20
2.0337803149606297
11
0.6168893700787401
21
1.8561467322834646
0
LINE
8
BLACK
6
CONTINUOUS
10
0.6168893700787401
20
1.8561467322834646
11
0.7031845669291339
21
1.8562197244094487
0
LINE
8
BLACK
6
CONTINUOUS
10
0.7031845669291339
20
1.8562197244094487
11
0.7031105905511811
21
2.033853307086614
0
LINE
8
BLACK
6
CONTINUOUS
10
0.7031105905511811
20
2.033853307086614
11
0.6168153937007874
21
2.0337803149606297
0
LINE
8
BLACK
6
CONTINUOUS
10
1.6745498818897637
20
2.1497675984251967
11
1.6750825590551182
21
2.1492349212598425
0
LINE
8
BLACK
6
CONTINUOUS
10
1.6750825590551182
20
2.1492349212598425
11
1.6751574803149607
21
1.8811417322834645
0
LINE
8
BLACK
6
CONTINUOUS
10
1.6751574803149607
20
1.8811417322834645
11
1.6750825590551182
21
1.8807650787401575
0
LINE
8
BLACK
6
CONTINUOUS
10
1.6750825590551182
20
1.8807650787401575
11
1.6745498818897637
21
1.8802324015748031
0
LINE
8
BLACK
6
CONTINUOUS
10
1.6745498818897637
20
1.8802324015748031
11
1.4458267716535433
21
1.8801574803149605
0
LINE
8
BLACK
6
CONTINUOUS
10
1.4458267716535433
20
1.8801574803149605
11
1.4454501181102362
21
1.8802324015748031
0
LINE
8
BLACK
6
CONTINUOUS
10
1.4454501181102362
20
1.8802324015748031
11
1.4449174409448819
21
1.8807650787401575
0
LINE
8
BLACK
6
CONTINUOUS
10
1.4449174409448819
20
1.8807650787401575
11
1.4448425196850394
21
2.1488582677165353
0
LINE
8
BLACK
6
CONTINUOUS
10
1.4448425196850394
20
2.1488582677165353
11
1.4449174409448819
21
2.1492349212598425
0
LINE
8
BLACK
6
CONTINUOUS
10
1.4449174409448819
20
2.1492349212598425
11
1.4454501181102362
21
2.1497675984251967
0
LINE
8
BLACK
6
CONTINUOUS
10
1.4454501181102362
20
2.1497675984251967
11
1.6741732283464568
21
2.1498425196850395
0
LINE
8
BLACK
6
CONTINUOUS
10
1.6741732283464568
20
2.1498425196850395
11
1.6745498818897637
21
2.1497675984251967
0
LINE
8
BLACK
6
CONTINUOUS
10
1.4467364566929133
20
2.1478743307086612
11
1.446810748031496
21
1.8820515354330709
0
LINE
8
BLACK
6
CONTINUOUS
10
1.446810748031496
20
1.8820515354330709
11
1.6732635039370078
21
1.8821257086614174
0
LINE
8
BLACK
6
CONTINUOUS
10
1.6732635039370078
20
1.8821257086614174
11
1.6731892125984251
21
2.1479485039370076
0
LINE
8
BLACK
6
CONTINUOUS
10
1.6731892125984251
20
2.1479485039370076
11
1.4467364566929133
21
2.1478743307086612
0
LINE
8
BLACK
6
CONTINUOUS
10
4.4233687795275589
20
1.9918542125984251
11
4.4239014566929136
21
1.9913215354330709
0
LINE
8
BLACK
6
CONTINUOUS
10
4.4239014566929136
20
1.9913215354330709
11
4.4239763779527559
21
1.9003937007874014
0
LINE
8
BLACK
6
CONTINUOUS
10
4.4239763779527559
20
1.9003937007874014
11
4.4239014566929136
21
1.9000170472440945
0
LINE
8
BLACK
6
CONTINUOUS
10
4.4239014566929136
20
1.9000170472440945
11
4.4233687795275589
21
1.89948437007874
0
LINE
8
BLACK
6
CONTINUOUS
10
4.4233687795275589
20
1.89948437007874
11
4.2418897637795272
21
1.8994094488188975
0
LINE
8
BLACK
6
CONTINUOUS
10
4.2418897637795272
20
1.8994094488188975
11
4.2415131102362205
21
1.89948437007874
0
LINE
8
BLACK
6
CONTINUOUS
10
4.2415131102362205
20
1.89948437007874
11
4.2409804330708658
21
1.9000170472440945
0
LINE
8
BLACK
6
CONTINUOUS
10
4.2409804330708658
20
1.9000170472440945
11
4.2409055118110235
21
1.9909448818897637
0
LINE
8
BLACK
6
CONTINUOUS
10
4.2409055118110235
20
1.9909448818897637
11
4.2409804330708658
21
1.9913215354330709
0
LINE
8
BLACK
6
CONTINUOUS
10
4.2409804330708658
20
1.9913215354330709
11
4.2415131102362205
21
1.9918542125984251
0
LINE
8
BLACK
6
CONTINUOUS
10
4.2415131102362205
20
1.9918542125984251
11
4.4229921259842522
21
1.9919291338582676
0
LINE
8
BLACK
6
CONTINUOUS
10
4.4229921259842522
20
1.9919291338582676
11
4.4233687795275589
21
1.9918542125984251
0
LINE
8
BLACK
6
CONTINUOUS
10
4.2428001968503937
20
1.9899610236220473
11
4.2428732283464567
21
1.9013036220472441
0
LINE
8
BLACK
6
CONTINUOUS
10
4.2428732283464567
20
1.9013036220472441
11
4.422081653543307
21
1.9013775984251968
0
LINE
8
BLACK
6
CONTINUOUS
10
4.422081653543307
20
1.9013775984251968
11
4.4220086220472439
21
1.990035
0
LINE
8
BLACK
6
CONTINUOUS
10
4.4220086220472439
20
1.990035
11
4.2428001968503937
21
1.9899610236220473
0
LINE
8
BLACK
6
CONTINUOUS
10
1.3827782283464567
20
2.0520510629921258
11
1.3833109055118109
21
2.0515183858267716
0
LINE
8
BLACK
6
CONTINUOUS
10
1.3833109055118109
20
2.0515183858267716
11
1.3833858267716534
21
1.9188582677165353
0
LINE
8
BLACK
6
CONTINUOUS
10
1.3833858267716534
20
1.9188582677165353
11
1.3833109055118109
21
1.9184816141732284
0
LINE
8
BLACK
6
CONTINUOUS
10
1.3833109055118109
20
1.9184816141732284
11
1.3827782283464567
21
1.9179489370078739
0
LINE
8
BLACK
6
CONTINUOUS
10
1.3827782283464567
20
1.9179489370078739
11
1.3075984251968504
21
1.9178740157480314
0
LINE
8
BLACK
6
CONTINUOUS
10
1.3075984251968504
20
1.9178740157480314
11
1.3072217716535433
21
1.9179489370078739
0
LINE
8
BLACK
6
CONTINUOUS
10
1.3072217716535433
20
1.9179489370078739
11
1.306689094488189
21
1.9184816141732284
0
LINE
8
BLACK
6
CONTINUOUS
10
1.306689094488189
20
1.9184816141732284
11
1.3066141732283465
21
2.0511417322834644
0
LINE
8
BLACK
6
CONTINUOUS
10
1.3066141732283465
20
2.0511417322834644
11
1.306689094488189
21
2.0515183858267716
0
LINE
8
BLACK
6
CONTINUOUS
10
1.306689094488189
20
2.0515183858267716
11
1.3072217716535433
21
2.0520510629921258
0
LINE
8
BLACK
6
CONTINUOUS
10
1.3072217716535433
20
2.0520510629921258
11
1.3824015748031495
21
2.0521259842519686
0
LINE
8
BLACK
6
CONTINUOUS
10
1.3824015748031495
20
2.0521259842519686
11
1.3827782283464567
21
2.0520510629921258
0
LINE
8
BLACK
6
CONTINUOUS
10
1.3085085039370079
20
2.0501584251968503
11
1.3085821259842518
21
1.9197689763779526
0
LINE
8
BLACK
6
CONTINUOUS
10
1.3085821259842518
20
1.9197689763779526
11
1.3814914566929133
21
1.9198416141732284
0
LINE
8
BLACK
6
CONTINUOUS
10
1.3814914566929133
20
1.9198416141732284
11
1.3814178346456694
21
2.0502310629921259
0
LINE
8
BLACK
6
CONTINUOUS
10
1.3814178346456694
20
2.0502310629921259
11
1.3085085039370079
21
2.0501584251968503
0
LINE
8
BLACK
6
CONTINUOUS
10
4.2066758661417323
20
1.997287283464567
11
4.2072085433070869
21
1.9967546062992125
0
LINE
8
BLACK
6
CONTINUOUS
10
4.2072085433070869
20
1.9967546062992125
11
4.2072834645669293
21
1.9192125984251969
0
LINE
8
BLACK
6
CONTINUOUS
10
4.2072834645669293
20
1.9192125984251969
11
4.2072085433070869
21
1.9188359448818897
0
LINE
8
BLACK
6
CONTINUOUS
10
4.2072085433070869
20
1.9188359448818897
11
4.2066758661417323
21
1.9183032677165355
0
LINE
8
BLACK
6
CONTINUOUS
10
4.2066758661417323
20
1.9183032677165355
11
4.0724409448818895
21
1.9182283464566929
0
LINE
8
BLACK
6
CONTINUOUS
10
4.0724409448818895
20
1.9182283464566929
11
4.0720642913385827
21
1.9183032677165355
0
LINE
8
BLACK
6
CONTINUOUS
10
4.0720642913385827
20
1.9183032677165355
11
4.0715316141732281
21
1.9188359448818897
0
LINE
8
BLACK
6
CONTINUOUS
10
4.0715316141732281
20
1.9188359448818897
11
4.0714566929133857
21
1.9963779527559056
0
LINE
8
BLACK
6
CONTINUOUS
10
4.0714566929133857
20
1.9963779527559056
11
4.0715316141732281
21
1.9967546062992125
0
LINE
8
BLACK
6
CONTINUOUS
10
4.0715316141732281
20
1.9967546062992125
11
4.0720642913385827
21
1.997287283464567
0
LINE
8
BLACK
6
CONTINUOUS
10
4.0720642913385827
20
1.997287283464567
11
4.2062992125984255
21
1.9973622047244095
0
LINE
8
BLACK
6
CONTINUOUS
10
4.2062992125984255
20
1.9973622047244095
11
4.2066758661417323
21
1.997287283464567
0
LINE
8
BLACK
6
CONTINUOUS
10
4.0733515748031497
20
1.9953942125984252
11
4.0734242913385827
21
1.9201227165354331
0
LINE
8
BLACK
6
CONTINUOUS
10
4.0734242913385827
20
1.9201227165354331
11
4.2053885433070866
21
1.9201963779527558
0
LINE
8
BLACK
6
CONTINUOUS
10
4.2053885433070866
20
1.9201963779527558
11
4.2053158267716535
21
1.9954678740157479
0
LINE
8
BLACK
6
CONTINUOUS
10
4.2053158267716535
20
1.9954678740157479
11
4.0733515748031497
21
1.9953942125984252
0
LINE
8
BLACK
6
CONTINUOUS
10
0.9892349212598425
20
2.1650825590551181
11
0.9897675984251968
21
2.1645498818897639
0
LINE
8
BLACK
6
CONTINUOUS
10
0.9897675984251968
20
2.1645498818897639
11
0.9898425196850393
21
1.9358267716535433
0
LINE
8
BLACK
6
CONTINUOUS
10
0.9898425196850393
20
1.9358267716535433
11
0.9897675984251968
21
1.9354501181102362
0
LINE
8
BLACK
6
CONTINUOUS
10
0.9897675984251968
20
1.9354501181102362
11
0.9892349212598425
21
1.9349174409448819
0
LINE
8
BLACK
6
CONTINUOUS
10
0.9892349212598425
20
1.9349174409448819
11
0.7211417322834646
21
1.9348425196850394
0
LINE
8
BLACK
6
CONTINUOUS
10
0.7211417322834646
20
1.9348425196850394
11
0.7207650787401575
21
1.9349174409448819
0
LINE
8
BLACK
6
CONTINUOUS
10
0.7207650787401575
20
1.9349174409448819
11
0.7202324015748032
21
1.9354501181102362
0
LINE
8
BLACK
6
CONTINUOUS
10
0.7202324015748032
20
1.9354501181102362
11
0.7201574803149606
21
2.1641732283464568
0
LINE
8
BLACK
6
CONTINUOUS
10
0.7201574803149606
20
2.1641732283464568
11
0.7202324015748032
21
2.1645498818897639
0
LINE
8
BLACK
6
CONTINUOUS
10
0.7202324015748032
20
2.1645498818897639
11
0.7207650787401575
21
2.1650825590551181
0
LINE
8
BLACK
6
CONTINUOUS
10
0.7207650787401575
20
2.1650825590551181
11
0.9888582677165354
21
2.1651574803149605
0
LINE
8
BLACK
6
CONTINUOUS
10
0.9888582677165354
20
2.1651574803149605
11
0.9892349212598425
21
2.1650825590551181
0
LINE
8
BLACK
6
CONTINUOUS
10
0.7220514960629921
20
2.1631892519685039
11
0.7221256692913386
21
1.936736496062992
0
LINE
8
BLACK
6
CONTINUOUS
10
0.7221256692913386
20
1.936736496062992
11
0.9879484645669291
21
1.9368107874015748
0
LINE
8
BLACK
6
CONTINUOUS
10
0.9879484645669291
20
1.9368107874015748
11
0.9878742913385826
21
2.1632635433070866
0
LINE
8
BLACK
6
CONTINUOUS
10
0.9878742913385826
20
2.1632635433070866
11
0.7220514960629921
21
2.1631892519685039
0
LINE
8
BLACK
6
CONTINUOUS
10
1.2792349212598424
20
2.1650825590551181
11
1.2797675984251968
21
2.1645498818897639
0
LINE
8
BLACK
6
CONTINUOUS
10
1.2797675984251968
20
2.1645498818897639
11
1.2798425196850394
21
1.9358267716535433
0
LINE
8
BLACK
6
CONTINUOUS
10
1.2798425196850394
20
1.9358267716535433
11
1.2797675984251968
21
1.9354501181102362
0
LINE
8
BLACK
6
CONTINUOUS
10
1.2797675984251968
20
1.9354501181102362
11
1.2792349212598424
21
1.9349174409448819
0
LINE
8
BLACK
6
CONTINUOUS
10
1.2792349212598424
20
1.9349174409448819
11
1.0111417322834646
21
1.9348425196850394
0
LINE
8
BLACK
6
CONTINUOUS
10
1.0111417322834646
20
1.9348425196850394
11
1.0107650787401574
21
1.9349174409448819
0
LINE
8
BLACK
6
CONTINUOUS
10
1.0107650787401574
20
1.9349174409448819
11
1.0102324015748032
21
1.9354501181102362
0
LINE
8
BLACK
6
CONTINUOUS
10
1.0102324015748032
20
1.9354501181102362
11
1.0101574803149607
21
2.1641732283464568
0
LINE
8
BLACK
6
CONTINUOUS
10
1.0101574803149607
20
2.1641732283464568
11
1.0102324015748032
21
2.1645498818897639
0
LINE
8
BLACK
6
CONTINUOUS
10
1.0102324015748032
20
2.1645498818897639
11
1.0107650787401574
21
2.1650825590551181
0
LINE
8
BLACK
6
CONTINUOUS
10
1.0107650787401574
20
2.1650825590551181
11
1.2788582677165354
21
2.1651574803149605
0
LINE
8
BLACK
6
CONTINUOUS
10
1.2788582677165354
20
2.1651574803149605
11
1.2792349212598424
21
2.1650825590551181
0
LINE
8
BLACK
6
CONTINUOUS
10
1.0120514960629921
20
2.1631892519685039
11
1.0121256692913385
21
1.936736496062992
0
LINE
8
BLACK
6
CONTINUOUS
10
1.0121256692913385
20
1.936736496062992
11
1.277948464566929
21
1.9368107874015748
0
LINE
8
BLACK
6
CONTINUOUS
10
1.277948464566929
20
1.9368107874015748
11
1.2778742913385825
21
2.1632635433070866
0
LINE
8
BLACK
6
CONTINUOUS
10
1.2778742913385825
20
2.1632635433070866
11
1.0120514960629921
21
2.1631892519685039
0
LINE
8
BLACK
6
CONTINUOUS
10
0.6977782283464566
20
2.1720510629921259
11
0.698310905511811
21
2.1715183858267717
0
LINE
8
BLACK
6
CONTINUOUS
10
0.698310905511811
20
2.1715183858267717
11
0.6983858267716535
21
2.0388582677165354
0
LINE
8
BLACK
6
CONTINUOUS
10
0.6983858267716535
20
2.0388582677165354
11
0.698310905511811
21
2.0384816141732283
0
LINE
8
BLACK
6
CONTINUOUS
10
0.698310905511811
20
2.0384816141732283
11
0.6977782283464566
21
2.0379489370078741
0
LINE
8
BLACK
6
CONTINUOUS
10
0.6977782283464566
20
2.0379489370078741
11
0.6225984251968504
21
2.0378740157480313
0
LINE
8
BLACK
6
CONTINUOUS
10
0.6225984251968504
20
2.0378740157480313
11
0.6222217716535433
21
2.0379489370078741
0
LINE
8
BLACK
6
CONTINUOUS
10
0.6222217716535433
20
2.0379489370078741
11
0.621689094488189
21
2.0384816141732283
0
LINE
8
BLACK
6
CONTINUOUS
10
0.621689094488189
20
2.0384816141732283
11
0.6216141732283464
21
2.1711417322834645
0
LINE
8
BLACK
6
CONTINUOUS
10
0.6216141732283464
20
2.1711417322834645
11
0.621689094488189
21
2.1715183858267717
0
LINE
8
BLACK
6
CONTINUOUS
10
0.621689094488189
20
2.1715183858267717
11
0.6222217716535433
21
2.1720510629921259
0
LINE
8
BLACK
6
CONTINUOUS
10
0.6222217716535433
20
2.1720510629921259
11
0.6974015748031496
21
2.1721259842519682
0
LINE
8
BLACK
6
CONTINUOUS
10
0.6974015748031496
20
2.1721259842519682
11
0.6977782283464566
21
2.1720510629921259
0
LINE
8
BLACK
6
CONTINUOUS
10
0.6235085039370079
20
2.1701584251968504
11
0.623582125984252
21
2.0397689763779527
0
LINE
8
BLACK
6
CONTINUOUS
10
0.623582125984252
20
2.0397689763779527
11
0.6964914566929133
21
2.0398416141732283
0
LINE
8
BLACK
6
CONTINUOUS
10
0.6964914566929133
20
2.0398416141732283
11
0.6964178346456693
21
2.170231062992126
0
LINE
8
BLACK
6
CONTINUOUS
10
0.6964178346456693
20
2.170231062992126
11
0.6235085039370079
21
2.1701584251968504
0
LINE
8
BLACK
6
CONTINUOUS
10
1.7965183858267717
20
2.2883109055118109
11
1.7970510629921259
21
2.2877782283464567
0
LINE
8
BLACK
6
CONTINUOUS
10
1.7970510629921259
20
2.2877782283464567
11
1.7971259842519685
21
2.2125984251968505
0
LINE
8
BLACK
6
CONTINUOUS
10
1.7971259842519685
20
2.2125984251968505
11
1.7970510629921259
21
2.2122217716535433
0
LINE
8
BLACK
6
CONTINUOUS
10
1.7970510629921259
20
2.2122217716535433
11
1.7965183858267717
21
2.2116890944881891
0
LINE
8
BLACK
6
CONTINUOUS
10
1.7965183858267717
20
2.2116890944881891
11
1.6638582677165354
21
2.2116141732283463
0
LINE
8
BLACK
6
CONTINUOUS
10
1.6638582677165354
20
2.2116141732283463
11
1.6634816141732283
21
2.2116890944881891
0
LINE
8
BLACK
6
CONTINUOUS
10
1.6634816141732283
20
2.2116890944881891
11
1.6629489370078741
21
2.2122217716535433
0
LINE
8
BLACK
6
CONTINUOUS
10
1.6629489370078741
20
2.2122217716535433
11
1.6628740157480315
21
2.2874015748031495
0
LINE
8
BLACK
6
CONTINUOUS
10
1.6628740157480315
20
2.2874015748031495
11
1.6629489370078741
21
2.2877782283464567
0
LINE
8
BLACK
6
CONTINUOUS
10
1.6629489370078741
20
2.2877782283464567
11
1.6634816141732283
21
2.2883109055118109
0
LINE
8
BLACK
6
CONTINUOUS
10
1.6634816141732283
20
2.2883109055118109
11
1.7961417322834645
21
2.2883858267716537
0
LINE
8
BLACK
6
CONTINUOUS
10
1.7961417322834645
20
2.2883858267716537
11
1.7965183858267717
21
2.2883109055118109
0
LINE
8
BLACK
6
CONTINUOUS
10
1.664768937007874
20
2.2864178740157479
11
1.6648415748031495
21
2.2135085433070865
0
LINE
8
BLACK
6
CONTINUOUS
10
1.6648415748031495
20
2.2135085433070865
11
1.7952310236220472
21
2.2135821653543308
0
LINE
8
BLACK
6
CONTINUOUS
10
1.7952310236220472
20
2.2135821653543308
11
1.7951583858267717
21
2.2864914960629923
0
LINE
8
BLACK
6
CONTINUOUS
10
1.7951583858267717
20
2.2864914960629923
11
1.664768937007874
21
2.2864178740157479
0
LINE
8
BLACK
6
CONTINUOUS
10
3.3437165748031497
20
2.5844342519685037
11
3.3521683464566929
21
2.5821696062992125
0
LINE
8
BLACK
6
CONTINUOUS
10
3.3521683464566929
20
2.5821696062992125
11
3.3600984251968504
21
2.5784717322834645
0
LINE
8
BLACK
6
CONTINUOUS
10
3.3600984251968504
20
2.5784717322834645
11
3.367265905511811
21
2.5734530314960629
0
LINE
8
BLACK
6
CONTINUOUS
10
3.367265905511811
20
2.5734530314960629
11
3.3734530314960631
21
2.5672659055118108
0
LINE
8
BLACK
6
CONTINUOUS
10
3.3734530314960631
20
2.5672659055118108
11
3.3784717322834643
21
2.5600984251968502
0
LINE
8
BLACK
6
CONTINUOUS
10
3.3784717322834643
20
2.5600984251968502
11
3.3821696062992124
21
2.5521683464566927
0
LINE
8
BLACK
6
CONTINUOUS
10
3.3821696062992124
20
2.5521683464566927
11
3.384434251968504
21
2.5437165748031494
0
LINE
8
BLACK
6
CONTINUOUS
10
3.384434251968504
20
2.5437165748031494
11
3.3851968503937009
21
2.5350000000000001
0
LINE
8
BLACK
6
CONTINUOUS
10
3.3851968503937009
20
2.5350000000000001
11
3.384434251968504
21
2.5262834251968505
0
LINE
8
BLACK
6
CONTINUOUS
10
3.384434251968504
20
2.5262834251968505
11
3.3821696062992124
21
2.5178316535433072
0
LINE
8
BLACK
6
CONTINUOUS
10
3.3821696062992124
20
2.5178316535433072
11
3.3784717322834643
21
2.5099015748031497
0
LINE
8
BLACK
6
CONTINUOUS
10
3.3784717322834643
20
2.5099015748031497
11
3.3734530314960631
21
2.5027340944881891
0
LINE
8
BLACK
6
CONTINUOUS
10
3.3734530314960631
20
2.5027340944881891
11
3.367265905511811
21
2.496546968503937
0
LINE
8
BLACK
6
CONTINUOUS
10
3.367265905511811
20
2.496546968503937
11
3.3600984251968504
21
2.4915282677165353
0
LINE
8
BLACK
6
CONTINUOUS
10
3.3600984251968504
20
2.4915282677165353
11
3.3521683464566929
21
2.4878303937007873
0
LINE
8
BLACK
6
CONTINUOUS
10
3.3521683464566929
20
2.4878303937007873
11
3.3437165748031497
21
2.4855657480314961
0
LINE
8
BLACK
6
CONTINUOUS
10
3.3437165748031497
20
2.4855657480314961
11
3.335
21
2.4848031496062992
0
LINE
8
BLACK
6
CONTINUOUS
10
3.335
20
2.4848031496062992
11
3.3262834251968503
21
2.4855657480314961
0
LINE
8
BLACK
6
CONTINUOUS
10
3.3262834251968503
20
2.4855657480314961
11
3.317831653543307
21
2.4878303937007873
0
LINE
8
BLACK
6
CONTINUOUS
10
3.317831653543307
20
2.4878303937007873
11
3.3099015748031495
21
2.4915282677165353
0
LINE
8
BLACK
6
CONTINUOUS
10
3.3099015748031495
20
2.4915282677165353
11
3.3027340944881889
21
2.496546968503937
0
LINE
8
BLACK
6
CONTINUOUS
10
3.3027340944881889
20
2.496546968503937
11
3.2965469685039368
21
2.5027340944881891
0
LINE
8
BLACK
6
CONTINUOUS
10
3.2965469685039368
20
2.5027340944881891
11
3.2915282677165352
21
2.5099015748031497
0
LINE
8
BLACK
6
CONTINUOUS
10
3.2915282677165352
20
2.5099015748031497
11
3.2878303937007871
21
2.5178316535433072
0
LINE
8
BLACK
6
CONTINUOUS
10
3.2878303937007871
20
2.5178316535433072
11
3.2855657480314959
21
2.5262834251968505
0
LINE
8
BLACK
6
CONTINUOUS
10
3.2855657480314959
20
2.5262834251968505
11
3.284803149606299
21
2.5350000000000001
0
LINE
8
BLACK
6
CONTINUOUS
10
3.284803149606299
20
2.5350000000000001
11
3.2855657480314959
21
2.5437165748031494
0
LINE
8
BLACK
6
CONTINUOUS
10
3.2855657480314959
20
2.5437165748031494
11
3.2878303937007871
21
2.5521683464566927
0
LINE
8
BLACK
6
CONTINUOUS
10
3.2878303937007871
20
2.5521683464566927
11
3.2915282677165352
21
2.5600984251968502
0
LINE
8
BLACK
6
CONTINUOUS
10
3.2915282677165352
20
2.5600984251968502
11
3.2965469685039368
21
2.5672659055118108
0
LINE
8
BLACK
6
CONTINUOUS
10
3.2965469685039368
20
2.5672659055118108
11
3.3027340944881889
21
2.5734530314960629
0
LINE
8
BLACK
6
CONTINUOUS
10
3.3027340944881889
20
2.5734530314960629
11
3.3099015748031495
21
2.5784717322834645
0
LINE
8
BLACK
6
CONTINUOUS
10
3.3099015748031495
20
2.5784717322834645
11
3.317831653543307
21
2.5821696062992125
0
LINE
8
BLACK
6
CONTINUOUS
10
3.317831653543307
20
2.5821696062992125
11
3.3262834251968503
21
2.5844342519685037
0
LINE
8
BLACK
6
CONTINUOUS
10
3.3262834251968503
20
2.5844342519685037
11
3.335
21
2.5851968503937006
0
LINE
8
BLACK
6
CONTINUOUS
10
3.335
20
2.5851968503937006
11
3.3437165748031497
21
2.5844342519685037
0
LINE
8
BLACK
6
CONTINUOUS
10
3.2873229527559054
20
2.5265932283464565
11
3.2895070866141731
21
2.518441929133858
0
LINE
8
BLACK
6
CONTINUOUS
10
3.2895070866141731
20
2.518441929133858
11
3.2930735039370078
21
2.5107937007874015
0
LINE
8
BLACK
6
CONTINUOUS
10
3.2930735039370078
20
2.5107937007874015
11
3.2979138188976376
21
2.5038810236220472
0
LINE
8
BLACK
6
CONTINUOUS
10
3.2979138188976376
20
2.5038810236220472
11
3.3038810236220471
21
2.4979138188976377
0
LINE
8
BLACK
6
CONTINUOUS
10
3.3038810236220471
20
2.4979138188976377
11
3.3107937007874013
21
2.493073503937008
0
LINE
8
BLACK
6
CONTINUOUS
10
3.3107937007874013
20
2.493073503937008
11
3.3184419291338583
21
2.4895070866141733
0
LINE
8
BLACK
6
CONTINUOUS
10
3.3184419291338583
20
2.4895070866141733
11
3.3265932283464568
21
2.4873229527559055
0
LINE
8
BLACK
6
CONTINUOUS
10
3.3265932283464568
20
2.4873229527559055
11
3.335
21
2.486587440944882
0
LINE
8
BLACK
6
CONTINUOUS
10
3.335
20
2.486587440944882
11
3.3434067716535432
21
2.4873229527559055
0
LINE
8
BLACK
6
CONTINUOUS
10
3.3434067716535432
20
2.4873229527559055
11
3.3515580708661417
21
2.4895070866141733
0
LINE
8
BLACK
6
CONTINUOUS
10
3.3515580708661417
20
2.4895070866141733
11
3.3592062992125982
21
2.493073503937008
0
LINE
8
BLACK
6
CONTINUOUS
10
3.3592062992125982
20
2.493073503937008
11
3.3661189763779529
21
2.4979138188976377
0
LINE
8
BLACK
6
CONTINUOUS
10
3.3661189763779529
20
2.4979138188976377
11
3.3720861811023619
21
2.5038810236220472
0
LINE
8
BLACK
6
CONTINUOUS
10
3.3720861811023619
20
2.5038810236220472
11
3.3769264960629921
21
2.5107937007874015
0
LINE
8
BLACK
6
CONTINUOUS
10
3.3769264960629921
20
2.5107937007874015
11
3.3804929133858268
21
2.518441929133858
0
LINE
8
BLACK
6
CONTINUOUS
10
3.3804929133858268
20
2.518441929133858
11
3.3826770472440946
21
2.5265932283464565
0
LINE
8
BLACK
6
CONTINUOUS
10
3.3826770472440946
20
2.5265932283464565
11
3.3834125590551181
21
2.5350000000000001
0
LINE
8
BLACK
6
CONTINUOUS
10
3.3834125590551181
20
2.5350000000000001
11
3.3826770472440946
21
2.5434067716535433
0
LINE
8
BLACK
6
CONTINUOUS
10
3.3826770472440946
20
2.5434067716535433
11
3.3804929133858268
21
2.5515580708661418
0
LINE
8
BLACK
6
CONTINUOUS
10
3.3804929133858268
20
2.5515580708661418
11
3.3769264960629921
21
2.5592062598425196
0
LINE
8
BLACK
6
CONTINUOUS
10
3.3769264960629921
20
2.5592062598425196
11
3.3720861811023619
21
2.5661189763779526
0
LINE
8
BLACK
6
CONTINUOUS
10
3.3720861811023619
20
2.5661189763779526
11
3.3661189763779529
21
2.5720861811023621
0
LINE
8
BLACK
6
CONTINUOUS
10
3.3661189763779529
20
2.5720861811023621
11
3.3592062992125982
21
2.5769264960629923
0
LINE
8
BLACK
6
CONTINUOUS
10
3.3592062992125982
20
2.5769264960629923
11
3.3515580708661417
21
2.5804929133858265
0
LINE
8
BLACK
6
CONTINUOUS
10
3.3515580708661417
20
2.5804929133858265
11
3.3434067716535432
21
2.5826770472440943
0
LINE
8
BLACK
6
CONTINUOUS
10
3.3434067716535432
20
2.5826770472440943
11
3.335
21
2.5834125590551182
0
LINE
8
BLACK
6
CONTINUOUS
10
3.335
20
2.5834125590551182
11
3.3265932283464568
21
2.5826770472440943
0
LINE
8
BLACK
6
CONTINUOUS
10
3.3265932283464568
20
2.5826770472440943
11
3.3184419291338583
21
2.5804929133858265
0
LINE
8
BLACK
6
CONTINUOUS
10
3.3184419291338583
20
2.5804929133858265
11
3.3107937401574801
21
2.5769264960629923
0
LINE
8
BLACK
6
CONTINUOUS
10
3.3107937401574801
20
2.5769264960629923
11
3.3038810236220471
21
2.5720861811023621
0
LINE
8
BLACK
6
CONTINUOUS
10
3.3038810236220471
20
2.5720861811023621
11
3.2979138188976376
21
2.5661189763779526
0
LINE
8
BLACK
6
CONTINUOUS
10
3.2979138188976376
20
2.5661189763779526
11
3.2930735039370078
21
2.5592062598425196
0
LINE
8
BLACK
6
CONTINUOUS
10
3.2930735039370078
20
2.5592062598425196
11
3.2895070866141731
21
2.5515580708661418
0
LINE
8
BLACK
6
CONTINUOUS
10
3.2895070866141731
20
2.5515580708661418
11
3.2873229527559054
21
2.5434067716535433
0
LINE
8
BLACK
6
CONTINUOUS
10
3.2873229527559054
20
2.5434067716535433
11
3.2865874409448819
21
2.5350000000000001
0
LINE
8
BLACK
6
CONTINUOUS
10
3.2865874409448819
20
2.5350000000000001
11
3.2873229527559054
21
2.5265932283464565
0
LINE
8
BLACK
6
CONTINUOUS
10
0.1087165748031496
20
2.7133318897637793
11
0.1171683464566929
21
2.7110672440944881
0
LINE
8
BLACK
6
CONTINUOUS
10
0.1171683464566929
20
2.7110672440944881
11
0.1250984251968504
21
2.70736937007874
0
LINE
8
BLACK
6
CONTINUOUS
10
0.1250984251968504
20
2.70736937007874
11
0.132265905511811
21
2.7023506692913384
0
LINE
8
BLACK
6
CONTINUOUS
10
0.132265905511811
20
2.7023506692913384
11
0.138453031496063
21
2.6961635433070867
0
LINE
8
BLACK
6
CONTINUOUS
10
0.138453031496063
20
2.6961635433070867
11
0.1434717322834646
21
2.6889960629921261
0
LINE
8
BLACK
6
CONTINUOUS
10
0.1434717322834646
20
2.6889960629921261
11
0.1471696062992126
21
2.6810659842519686
0
LINE
8
BLACK
6
CONTINUOUS
10
0.1471696062992126
20
2.6810659842519686
11
0.1494342519685039
21
2.6726142125984254
0
LINE
8
BLACK
6
CONTINUOUS
10
0.1494342519685039
20
2.6726142125984254
11
0.1501968503937008
21
2.6638976377952757
0
LINE
8
BLACK
6
CONTINUOUS
10
0.1501968503937008
20
2.6638976377952757
11
0.1494342519685039
21
2.655181062992126
0
LINE
8
BLACK
6
CONTINUOUS
10
0.1494342519685039
20
2.655181062992126
11
0.1471696062992126
21
2.6467292913385827
0
LINE
8
BLACK
6
CONTINUOUS
10
0.1471696062992126
20
2.6467292913385827
11
0.1434717322834646
21
2.6387992125984252
0
LINE
8
BLACK
6
CONTINUOUS
10
0.1434717322834646
20
2.6387992125984252
11
0.138453031496063
21
2.6316317322834646
0
LINE
8
BLACK
6
CONTINUOUS
10
0.138453031496063
20
2.6316317322834646
11
0.132265905511811
21
2.6254446062992125
0
LINE
8
BLACK
6
CONTINUOUS
10
0.132265905511811
20
2.6254446062992125
11
0.1250984251968504
21
2.6204259055118109
0
LINE
8
BLACK
6
CONTINUOUS
10
0.1250984251968504
20
2.6204259055118109
11
0.1171683464566929
21
2.6167280314960628
0
LINE
8
BLACK
6
CONTINUOUS
10
0.1171683464566929
20
2.6167280314960628
11
0.1087165748031496
21
2.6144633858267716
0
LINE
8
BLACK
6
CONTINUOUS
10
0.1087165748031496
20
2.6144633858267716
11
0.1
21
2.6137007874015747
0
LINE
8
BLACK
6
CONTINUOUS
10
0.1
20
2.6137007874015747
11
0.0912834251968504
21
2.6144633858267716
0
LINE
8
BLACK
6
CONTINUOUS
10
0.0912834251968504
20
2.6144633858267716
11
0.0828316535433071
21
2.6167280314960628
0
LINE
8
BLACK
6
CONTINUOUS
10
0.0828316535433071
20
2.6167280314960628
11
0.0749015748031496
21
2.6204259055118109
0
LINE
8
BLACK
6
CONTINUOUS
10
0.0749015748031496
20
2.6204259055118109
11
0.067734094488189
21
2.6254446062992125
0
LINE
8
BLACK
6
CONTINUOUS
10
0.067734094488189
20
2.6254446062992125
11
0.061546968503937
21
2.6316317322834646
0
LINE
8
BLACK
6
CONTINUOUS
10
0.061546968503937
20
2.6316317322834646
11
0.0565282677165354
21
2.6387992125984252
0
LINE
8
BLACK
6
CONTINUOUS
10
0.0565282677165354
20
2.6387992125984252
11
0.0528303937007874
21
2.6467292913385827
0
LINE
8
BLACK
6
CONTINUOUS
10
0.0528303937007874
20
2.6467292913385827
11
0.0505657480314961
21
2.655181062992126
0
LINE
8
BLACK
6
CONTINUOUS
10
0.0505657480314961
20
2.655181062992126
11
0.0498031496062992
21
2.6638976377952757
0
LINE
8
BLACK
6
CONTINUOUS
10
0.0498031496062992
20
2.6638976377952757
11
0.0505657480314961
21
2.6726142125984254
0
LINE
8
BLACK
6
CONTINUOUS
10
0.0505657480314961
20
2.6726142125984254
11
0.0528303937007874
21
2.6810659842519686
0
LINE
8
BLACK
6
CONTINUOUS
10
0.0528303937007874
20
2.6810659842519686
11
0.0565282677165354
21
2.6889960629921261
0
LINE
8
BLACK
6
CONTINUOUS
10
0.0565282677165354
20
2.6889960629921261
11
0.061546968503937
21
2.6961635433070867
0
LINE
8
BLACK
6
CONTINUOUS
10
0.061546968503937
20
2.6961635433070867
11
0.067734094488189
21
2.7023506692913384
0
LINE
8
BLACK
6
CONTINUOUS
10
0.067734094488189
20
2.7023506692913384
11
0.0749015748031496
21
2.70736937007874
0
LINE
8
BLACK
6
CONTINUOUS
10
0.0749015748031496
20
2.70736937007874
11
0.0828316535433071
21
2.7110672440944881
0
LINE
8
BLACK
6
CONTINUOUS
10
0.0828316535433071
20
2.7110672440944881
11
0.0912834251968504
21
2.7133318897637793
0
LINE
8
BLACK
6
CONTINUOUS
10
0.0912834251968504
20
2.7133318897637793
11
0.1
21
2.7140944881889761
0
LINE
8
BLACK
6
CONTINUOUS
10
0.1
20
2.7140944881889761
11
0.1087165748031496
21
2.7133318897637793
0
LINE
8
BLACK
6
CONTINUOUS
10
0.0523229527559055
20
2.655490866141732
11
0.0545070866141732
21
2.647339566929134
0
LINE
8
BLACK
6
CONTINUOUS
10
0.0545070866141732
20
2.647339566929134
11
0.0580735039370079
21
2.639691338582677
0
LINE
8
BLACK
6
CONTINUOUS
10
0.0580735039370079
20
2.639691338582677
11
0.0629138188976378
21
2.6327786614173228
0
LINE
8
BLACK
6
CONTINUOUS
10
0.0629138188976378
20
2.6327786614173228
11
0.0688810236220472
21
2.6268114566929133
0
LINE
8
BLACK
6
CONTINUOUS
10
0.0688810236220472
20
2.6268114566929133
11
0.0757937007874016
21
2.6219711417322835
0
LINE
8
BLACK
6
CONTINUOUS
10
0.0757937007874016
20
2.6219711417322835
11
0.0834419291338583
21
2.6184047244094488
0
LINE
8
BLACK
6
CONTINUOUS
10
0.0834419291338583
20
2.6184047244094488
11
0.0915932283464567
21
2.6162205905511811
0
LINE
8
BLACK
6
CONTINUOUS
10
0.0915932283464567
20
2.6162205905511811
11
0.1
21
2.6154850787401576
0
LINE
8
BLACK
6
CONTINUOUS
10
0.1
20
2.6154850787401576
11
0.1084067716535433
21
2.6162205905511811
0
LINE
8
BLACK
6
CONTINUOUS
10
0.1084067716535433
20
2.6162205905511811
11
0.1165580708661417
21
2.6184047244094488
0
LINE
8
BLACK
6
CONTINUOUS
10
0.1165580708661417
20
2.6184047244094488
11
0.1242062992125984
21
2.6219711417322835
0
LINE
8
BLACK
6
CONTINUOUS
10
0.1242062992125984
20
2.6219711417322835
11
0.1311189763779528
21
2.6268114566929133
0
LINE
8
BLACK
6
CONTINUOUS
10
0.1311189763779528
20
2.6268114566929133
11
0.1370861811023622
21
2.6327786614173228
0
LINE
8
BLACK
6
CONTINUOUS
10
0.1370861811023622
20
2.6327786614173228
11
0.1419264960629921
21
2.639691338582677
0
LINE
8
BLACK
6
CONTINUOUS
10
0.1419264960629921
20
2.639691338582677
11
0.1454929133858268
21
2.647339566929134
0
LINE
8
BLACK
6
CONTINUOUS
10
0.1454929133858268
20
2.647339566929134
11
0.1476770472440945
21
2.655490866141732
0
LINE
8
BLACK
6
CONTINUOUS
10
0.1476770472440945
20
2.655490866141732
11
0.1484125590551181
21
2.6638976377952757
0
LINE
8
BLACK
6
CONTINUOUS
10
0.1484125590551181
20
2.6638976377952757
11
0.1476770472440945
21
2.6723044094488189
0
LINE
8
BLACK
6
CONTINUOUS
10
0.1476770472440945
20
2.6723044094488189
11
0.1454929133858268
21
2.6804557086614174
0
LINE
8
BLACK
6
CONTINUOUS
10
0.1454929133858268
20
2.6804557086614174
11
0.1419264960629921
21
2.6881038976377951
0
LINE
8
BLACK
6
CONTINUOUS
10
0.1419264960629921
20
2.6881038976377951
11
0.1370861811023622
21
2.6950166141732281
0
LINE
8
BLACK
6
CONTINUOUS
10
0.1370861811023622
20
2.6950166141732281
11
0.1311189763779528
21
2.7009838188976376
0
LINE
8
BLACK
6
CONTINUOUS
10
0.1311189763779528
20
2.7009838188976376
11
0.1242062992125984
21
2.7058241338582678
0
LINE
8
BLACK
6
CONTINUOUS
10
0.1242062992125984
20
2.7058241338582678
11
0.1165580708661417
21
2.7093905511811025
0
LINE
8
BLACK
6
CONTINUOUS
10
0.1165580708661417
20
2.7093905511811025
11
0.1084067716535433
21
2.7115746850393698
0
LINE
8
BLACK
6
CONTINUOUS
10
0.1084067716535433
20
2.7115746850393698
11
0.1
21
2.7123101968503938
0
LINE
8
BLACK
6
CONTINUOUS
10
0.1
20
2.7123101968503938
11
0.0915932283464567
21
2.7115746850393698
0
LINE
8
BLACK
6
CONTINUOUS
10
0.0915932283464567
20
2.7115746850393698
11
0.0834419291338583
21
2.7093905511811025
0
LINE
8
BLACK
6
CONTINUOUS
10
0.0834419291338583
20
2.7093905511811025
11
0.0757937401574803
21
2.7058241338582678
0
LINE
8
BLACK
6
CONTINUOUS
10
0.0757937401574803
20
2.7058241338582678
11
0.0688810236220472
21
2.7009838188976376
0
LINE
8
BLACK
6
CONTINUOUS
10
0.0688810236220472
20
2.7009838188976376
11
0.0629138188976378
21
2.6950166141732281
0
LINE
8
BLACK
6
CONTINUOUS
10
0.0629138188976378
20
2.6950166141732281
11
0.0580735039370079
21
2.6881038976377951
0
LINE
8
BLACK
6
CONTINUOUS
10
0.0580735039370079
20
2.6881038976377951
11
0.0545070866141732
21
2.6804557086614174
0
LINE
8
BLACK
6
CONTINUOUS
10
0.0545070866141732
20
2.6804557086614174
11
0.0523229527559055
21
2.6723044094488189
0
LINE
8
BLACK
6
CONTINUOUS
10
0.0523229527559055
20
2.6723044094488189
11
0.0515874409448819
21
2.6638976377952757
0
LINE
8
BLACK
6
CONTINUOUS
10
0.0515874409448819
20
2.6638976377952757
11
0.0523229527559055
21
2.655490866141732
  0
ENDSEC
  0
EOF
