  0
SECTION
  2
HEADER
  9
$ANGBASE
  50
0.0
  9
$ANGDIR
  70
1
  9
$MEASUREMENT
  70
0
  0
ENDSEC
  0
SECTION
  2
TABLES
  0
TABLE
  2
LTYPE
  70
4
  0
LTYPE
  5
40F
  2
CONTINUOUS
  70
0
  3
Solid line
  72
65
  73
0
  40
0.0
  0
LTYPE
  5
410
  2
DASHDOT
 70
0
  3
Dash Dot ____ _ ____ _
 72
65
 73
4
 40
2.0
 49
1.25
 49
-0.25
 49
0.25
 49
-0.25
  0
LTYPE
  5
411
  2
DASHED
 70
0
  3
Dashed __ __ __ __ __
 72
65
 73
2
 40
0.75
 49
0.5
 49
-0.25
  0
LTYPE
  5
43B
  2
DOTTED
 70
0
  3
Dotted .  .  .  .
 72
65
 73
2
 40
0.2
 49
0.0
 49
-0.2
  0
ENDTAB
  0
TABLE
  2
STYLE
  70
4
  0
STYLE
  2
KICAD
  70
0
  40
0
  41
1
  42
1
  50
0
  71
0
  3
isocp.shx
  0
STYLE
  2
KICADB
  70
0
  40
0
  41
1
  42
1
  50
0
  71
0
  3
isocp.shx
  0
STYLE
  2
KICADI
  70
0
  40
0
  41
1
  42
1
  50
15
  71
0
  3
isocp.shx
  0
STYLE
  2
KICADBI
  70
0
  40
0
  41
1
  42
1
  50
15
  71
0
  3
isocp.shx
  0
ENDTAB
  0
TABLE
  2
LAYER
  70
1
  0
LAYER
  2
BLACK
  70
0
  62
7
  6
CONTINUOUS
  0
ENDTAB
  0
ENDSEC
  0
SECTION
  2
ENTITIES
0
LINE
8
BLACK
6
CONTINUOUS
10
2.3227875590551181
20
-0.2369577559055118
11
2.325661377952756
21
-0.2388779921259842
0
LINE
8
BLACK
6
CONTINUOUS
10
2.325661377952756
20
-0.2388779921259842
11
2.3275816141732282
21
-0.241751811023622
0
LINE
8
BLACK
6
CONTINUOUS
10
2.3275816141732282
20
-0.241751811023622
11
2.3282559055118108
21
-0.2451417322834646
0
LINE
8
BLACK
6
CONTINUOUS
10
2.3282559055118108
20
-0.2451417322834646
11
2.3282559055118108
21
-0.2628582677165354
0
LINE
8
BLACK
6
CONTINUOUS
10
2.3282559055118108
20
-0.2628582677165354
11
2.3275816141732282
21
-0.2662481889763779
0
LINE
8
BLACK
6
CONTINUOUS
10
2.3275816141732282
20
-0.2662481889763779
11
2.325661377952756
21
-0.2691220078740157
0
LINE
8
BLACK
6
CONTINUOUS
10
2.325661377952756
20
-0.2691220078740157
11
2.3227875590551181
21
-0.2710422440944882
0
LINE
8
BLACK
6
CONTINUOUS
10
2.3227875590551181
20
-0.2710422440944882
11
2.3193976377952756
21
-0.2717165354330708
0
LINE
8
BLACK
6
CONTINUOUS
10
2.3193976377952756
20
-0.2717165354330708
11
2.2859330708661418
21
-0.2717165354330708
0
LINE
8
BLACK
6
CONTINUOUS
10
2.2859330708661418
20
-0.2717165354330708
11
2.2825431496062993
21
-0.2710422440944882
0
LINE
8
BLACK
6
CONTINUOUS
10
2.2825431496062993
20
-0.2710422440944882
11
2.2796693307086615
21
-0.2691220078740157
0
LINE
8
BLACK
6
CONTINUOUS
10
2.2796693307086615
20
-0.2691220078740157
11
2.2777490944881889
21
-0.2662481889763779
0
LINE
8
BLACK
6
CONTINUOUS
10
2.2777490944881889
20
-0.2662481889763779
11
2.2770748031496062
21
-0.2628582677165354
0
LINE
8
BLACK
6
CONTINUOUS
10
2.2770748031496062
20
-0.2628582677165354
11
2.2770748031496062
21
-0.2451417322834646
0
LINE
8
BLACK
6
CONTINUOUS
10
2.2770748031496062
20
-0.2451417322834646
11
2.2777490944881889
21
-0.241751811023622
0
LINE
8
BLACK
6
CONTINUOUS
10
2.2777490944881889
20
-0.241751811023622
11
2.2796693307086615
21
-0.2388779921259842
0
LINE
8
BLACK
6
CONTINUOUS
10
2.2796693307086615
20
-0.2388779921259842
11
2.2825431496062993
21
-0.2369577559055118
0
LINE
8
BLACK
6
CONTINUOUS
10
2.2825431496062993
20
-0.2369577559055118
11
2.2859330708661418
21
-0.2362834645669291
0
LINE
8
BLACK
6
CONTINUOUS
10
2.2859330708661418
20
-0.2362834645669291
11
2.3193976377952756
21
-0.2362834645669291
0
LINE
8
BLACK
6
CONTINUOUS
10
2.3193976377952756
20
-0.2362834645669291
11
2.3227875590551181
21
-0.2369577559055118
0
LINE
8
BLACK
6
CONTINUOUS
10
2.4684568503937006
20
-0.2369577559055118
11
2.4713306692913384
21
-0.2388779921259842
0
LINE
8
BLACK
6
CONTINUOUS
10
2.4713306692913384
20
-0.2388779921259842
11
2.473250905511811
21
-0.241751811023622
0
LINE
8
BLACK
6
CONTINUOUS
10
2.473250905511811
20
-0.241751811023622
11
2.4739251968503937
21
-0.2451417322834646
0
LINE
8
BLACK
6
CONTINUOUS
10
2.4739251968503937
20
-0.2451417322834646
11
2.4739251968503937
21
-0.2628582677165354
0
LINE
8
BLACK
6
CONTINUOUS
10
2.4739251968503937
20
-0.2628582677165354
11
2.473250905511811
21
-0.2662481889763779
0
LINE
8
BLACK
6
CONTINUOUS
10
2.473250905511811
20
-0.2662481889763779
11
2.4713306692913384
21
-0.2691220078740157
0
LINE
8
BLACK
6
CONTINUOUS
10
2.4713306692913384
20
-0.2691220078740157
11
2.4684568503937006
21
-0.2710422440944882
0
LINE
8
BLACK
6
CONTINUOUS
10
2.4684568503937006
20
-0.2710422440944882
11
2.4650669291338581
21
-0.2717165354330708
0
LINE
8
BLACK
6
CONTINUOUS
10
2.4650669291338581
20
-0.2717165354330708
11
2.4316023622047243
21
-0.2717165354330708
0
LINE
8
BLACK
6
CONTINUOUS
10
2.4316023622047243
20
-0.2717165354330708
11
2.4282124409448818
21
-0.2710422440944882
0
LINE
8
BLACK
6
CONTINUOUS
10
2.4282124409448818
20
-0.2710422440944882
11
2.4253386220472439
21
-0.2691220078740157
0
LINE
8
BLACK
6
CONTINUOUS
10
2.4253386220472439
20
-0.2691220078740157
11
2.4234183858267717
21
-0.2662481889763779
0
LINE
8
BLACK
6
CONTINUOUS
10
2.4234183858267717
20
-0.2662481889763779
11
2.4227440944881891
21
-0.2628582677165354
0
LINE
8
BLACK
6
CONTINUOUS
10
2.4227440944881891
20
-0.2628582677165354
11
2.4227440944881891
21
-0.2451417322834646
0
LINE
8
BLACK
6
CONTINUOUS
10
2.4227440944881891
20
-0.2451417322834646
11
2.4234183858267717
21
-0.241751811023622
0
LINE
8
BLACK
6
CONTINUOUS
10
2.4234183858267717
20
-0.241751811023622
11
2.4253386220472439
21
-0.2388779921259842
0
LINE
8
BLACK
6
CONTINUOUS
10
2.4253386220472439
20
-0.2388779921259842
11
2.4282124409448818
21
-0.2369577559055118
0
LINE
8
BLACK
6
CONTINUOUS
10
2.4282124409448818
20
-0.2369577559055118
11
2.4316023622047243
21
-0.2362834645669291
0
LINE
8
BLACK
6
CONTINUOUS
10
2.4316023622047243
20
-0.2362834645669291
11
2.4650669291338581
21
-0.2362834645669291
0
LINE
8
BLACK
6
CONTINUOUS
10
2.4650669291338581
20
-0.2362834645669291
11
2.4684568503937006
21
-0.2369577559055118
0
LINE
8
BLACK
6
CONTINUOUS
10
1.9499529133858267
20
-0.2230601181102362
11
1.9528267322834645
21
-0.2249803543307086
0
LINE
8
BLACK
6
CONTINUOUS
10
1.9528267322834645
20
-0.2249803543307086
11
1.9547469685039369
21
-0.2278541732283464
0
LINE
8
BLACK
6
CONTINUOUS
10
1.9547469685039369
20
-0.2278541732283464
11
1.9554212598425196
21
-0.231244094488189
0
LINE
8
BLACK
6
CONTINUOUS
10
1.9554212598425196
20
-0.231244094488189
11
1.9554212598425196
21
-0.2489606299212598
0
LINE
8
BLACK
6
CONTINUOUS
10
1.9554212598425196
20
-0.2489606299212598
11
1.9547469685039369
21
-0.2523505511811023
0
LINE
8
BLACK
6
CONTINUOUS
10
1.9547469685039369
20
-0.2523505511811023
11
1.9528267322834645
21
-0.2552243700787402
0
LINE
8
BLACK
6
CONTINUOUS
10
1.9528267322834645
20
-0.2552243700787402
11
1.9499529133858267
21
-0.2571446062992126
0
LINE
8
BLACK
6
CONTINUOUS
10
1.9499529133858267
20
-0.2571446062992126
11
1.9465629921259842
21
-0.2578188976377953
0
LINE
8
BLACK
6
CONTINUOUS
10
1.9465629921259842
20
-0.2578188976377953
11
1.9130984251968504
21
-0.2578188976377953
0
LINE
8
BLACK
6
CONTINUOUS
10
1.9130984251968504
20
-0.2578188976377953
11
1.9097085039370079
21
-0.2571446062992126
0
LINE
8
BLACK
6
CONTINUOUS
10
1.9097085039370079
20
-0.2571446062992126
11
1.90683468503937
21
-0.2552243700787402
0
LINE
8
BLACK
6
CONTINUOUS
10
1.90683468503937
20
-0.2552243700787402
11
1.9049144488188976
21
-0.2523505511811023
0
LINE
8
BLACK
6
CONTINUOUS
10
1.9049144488188976
20
-0.2523505511811023
11
1.9042401574803149
21
-0.2489606299212598
0
LINE
8
BLACK
6
CONTINUOUS
10
1.9042401574803149
20
-0.2489606299212598
11
1.9042401574803149
21
-0.231244094488189
0
LINE
8
BLACK
6
CONTINUOUS
10
1.9042401574803149
20
-0.231244094488189
11
1.9049144488188976
21
-0.2278541732283464
0
LINE
8
BLACK
6
CONTINUOUS
10
1.9049144488188976
20
-0.2278541732283464
11
1.90683468503937
21
-0.2249803543307086
0
LINE
8
BLACK
6
CONTINUOUS
10
1.90683468503937
20
-0.2249803543307086
11
1.9097085039370079
21
-0.2230601181102362
0
LINE
8
BLACK
6
CONTINUOUS
10
1.9097085039370079
20
-0.2230601181102362
11
1.9130984251968504
21
-0.2223858267716535
0
LINE
8
BLACK
6
CONTINUOUS
10
1.9130984251968504
20
-0.2223858267716535
11
1.9465629921259842
21
-0.2223858267716535
0
LINE
8
BLACK
6
CONTINUOUS
10
1.9465629921259842
20
-0.2223858267716535
11
1.9499529133858267
21
-0.2230601181102362
0
LINE
8
BLACK
6
CONTINUOUS
10
2.0956222047244095
20
-0.2230601181102362
11
2.0984960236220473
21
-0.2249803543307086
0
LINE
8
BLACK
6
CONTINUOUS
10
2.0984960236220473
20
-0.2249803543307086
11
2.1004162598425196
21
-0.2278541732283464
0
LINE
8
BLACK
6
CONTINUOUS
10
2.1004162598425196
20
-0.2278541732283464
11
2.1010905511811022
21
-0.231244094488189
0
LINE
8
BLACK
6
CONTINUOUS
10
2.1010905511811022
20
-0.231244094488189
11
2.1010905511811022
21
-0.2489606299212598
0
LINE
8
BLACK
6
CONTINUOUS
10
2.1010905511811022
20
-0.2489606299212598
11
2.1004162598425196
21
-0.2523505511811023
0
LINE
8
BLACK
6
CONTINUOUS
10
2.1004162598425196
20
-0.2523505511811023
11
2.0984960236220473
21
-0.2552243700787402
0
LINE
8
BLACK
6
CONTINUOUS
10
2.0984960236220473
20
-0.2552243700787402
11
2.0956222047244095
21
-0.2571446062992126
0
LINE
8
BLACK
6
CONTINUOUS
10
2.0956222047244095
20
-0.2571446062992126
11
2.092232283464567
21
-0.2578188976377953
0
LINE
8
BLACK
6
CONTINUOUS
10
2.092232283464567
20
-0.2578188976377953
11
2.0587677165354332
21
-0.2578188976377953
0
LINE
8
BLACK
6
CONTINUOUS
10
2.0587677165354332
20
-0.2578188976377953
11
2.0553777952755907
21
-0.2571446062992126
0
LINE
8
BLACK
6
CONTINUOUS
10
2.0553777952755907
20
-0.2571446062992126
11
2.0525039763779529
21
-0.2552243700787402
0
LINE
8
BLACK
6
CONTINUOUS
10
2.0525039763779529
20
-0.2552243700787402
11
2.0505837401574802
21
-0.2523505511811023
0
LINE
8
BLACK
6
CONTINUOUS
10
2.0505837401574802
20
-0.2523505511811023
11
2.0499094488188976
21
-0.2489606299212598
0
LINE
8
BLACK
6
CONTINUOUS
10
2.0499094488188976
20
-0.2489606299212598
11
2.0499094488188976
21
-0.231244094488189
0
LINE
8
BLACK
6
CONTINUOUS
10
2.0499094488188976
20
-0.231244094488189
11
2.0505837401574802
21
-0.2278541732283464
0
LINE
8
BLACK
6
CONTINUOUS
10
2.0505837401574802
20
-0.2278541732283464
11
2.0525039763779529
21
-0.2249803543307086
0
LINE
8
BLACK
6
CONTINUOUS
10
2.0525039763779529
20
-0.2249803543307086
11
2.0553777952755907
21
-0.2230601181102362
0
LINE
8
BLACK
6
CONTINUOUS
10
2.0553777952755907
20
-0.2230601181102362
11
2.0587677165354332
21
-0.2223858267716535
0
LINE
8
BLACK
6
CONTINUOUS
10
2.0587677165354332
20
-0.2223858267716535
11
2.092232283464567
21
-0.2223858267716535
0
LINE
8
BLACK
6
CONTINUOUS
10
2.092232283464567
20
-0.2223858267716535
11
2.0956222047244095
21
-0.2230601181102362
0
LINE
8
BLACK
6
CONTINUOUS
10
2.3374784645669289
20
-0.1423572047244094
11
2.339873346456693
21
-0.1439573622047244
0
LINE
8
BLACK
6
CONTINUOUS
10
2.339873346456693
20
-0.1439573622047244
11
2.3414735039370078
21
-0.1463522440944882
0
LINE
8
BLACK
6
CONTINUOUS
10
2.3414735039370078
20
-0.1463522440944882
11
2.3420354330708659
21
-0.1491771653543307
0
LINE
8
BLACK
6
CONTINUOUS
10
2.3420354330708659
20
-0.1491771653543307
11
2.3420354330708659
21
-0.2052795275590551
0
LINE
8
BLACK
6
CONTINUOUS
10
2.3420354330708659
20
-0.2052795275590551
11
2.3414735039370078
21
-0.2081044488188976
0
LINE
8
BLACK
6
CONTINUOUS
10
2.3414735039370078
20
-0.2081044488188976
11
2.339873346456693
21
-0.2104993307086614
0
LINE
8
BLACK
6
CONTINUOUS
10
2.339873346456693
20
-0.2104993307086614
11
2.3374784645669289
21
-0.2120994881889764
0
LINE
8
BLACK
6
CONTINUOUS
10
2.3374784645669289
20
-0.2120994881889764
11
2.3346535433070867
21
-0.2126614173228346
0
LINE
8
BLACK
6
CONTINUOUS
10
2.3346535433070867
20
-0.2126614173228346
11
2.3198897637795275
21
-0.2126614173228346
0
LINE
8
BLACK
6
CONTINUOUS
10
2.3198897637795275
20
-0.2126614173228346
11
2.3170648425196849
21
-0.2120994881889764
0
LINE
8
BLACK
6
CONTINUOUS
10
2.3170648425196849
20
-0.2120994881889764
11
2.3146699606299213
21
-0.2104993307086614
0
LINE
8
BLACK
6
CONTINUOUS
10
2.3146699606299213
20
-0.2104993307086614
11
2.3130698031496064
21
-0.2081044488188976
0
LINE
8
BLACK
6
CONTINUOUS
10
2.3130698031496064
20
-0.2081044488188976
11
2.3125078740157479
21
-0.2052795275590551
0
LINE
8
BLACK
6
CONTINUOUS
10
2.3125078740157479
20
-0.2052795275590551
11
2.3125078740157479
21
-0.1491771653543307
0
LINE
8
BLACK
6
CONTINUOUS
10
2.3125078740157479
20
-0.1491771653543307
11
2.3130698031496064
21
-0.1463522440944882
0
LINE
8
BLACK
6
CONTINUOUS
10
2.3130698031496064
20
-0.1463522440944882
11
2.3146699606299213
21
-0.1439573622047244
0
LINE
8
BLACK
6
CONTINUOUS
10
2.3146699606299213
20
-0.1439573622047244
11
2.3170648425196849
21
-0.1423572047244094
0
LINE
8
BLACK
6
CONTINUOUS
10
2.3170648425196849
20
-0.1423572047244094
11
2.3198897637795275
21
-0.1417952755905512
0
LINE
8
BLACK
6
CONTINUOUS
10
2.3198897637795275
20
-0.1417952755905512
11
2.3346535433070867
21
-0.1417952755905512
0
LINE
8
BLACK
6
CONTINUOUS
10
2.3346535433070867
20
-0.1417952755905512
11
2.3374784645669289
21
-0.1423572047244094
0
LINE
8
BLACK
6
CONTINUOUS
10
2.3836654724409447
20
-0.1422448031496063
11
2.3855813385826772
21
-0.1435249606299213
0
LINE
8
BLACK
6
CONTINUOUS
10
2.3855813385826772
20
-0.1435249606299213
11
2.3868614960629921
21
-0.1454408267716535
0
LINE
8
BLACK
6
CONTINUOUS
10
2.3868614960629921
20
-0.1454408267716535
11
2.3873110236220474
21
-0.1477007874015748
0
LINE
8
BLACK
6
CONTINUOUS
10
2.3873110236220474
20
-0.1477007874015748
11
2.3873110236220474
21
-0.206755905511811
0
LINE
8
BLACK
6
CONTINUOUS
10
2.3873110236220474
20
-0.206755905511811
11
2.3868614960629921
21
-0.2090158661417323
0
LINE
8
BLACK
6
CONTINUOUS
10
2.3868614960629921
20
-0.2090158661417323
11
2.3855813385826772
21
-0.2109317322834646
0
LINE
8
BLACK
6
CONTINUOUS
10
2.3855813385826772
20
-0.2109317322834646
11
2.3836654724409447
21
-0.2122118897637795
0
LINE
8
BLACK
6
CONTINUOUS
10
2.3836654724409447
20
-0.2122118897637795
11
2.3814055118110238
21
-0.2126614173228346
0
LINE
8
BLACK
6
CONTINUOUS
10
2.3814055118110238
20
-0.2126614173228346
11
2.3695944881889761
21
-0.2126614173228346
0
LINE
8
BLACK
6
CONTINUOUS
10
2.3695944881889761
20
-0.2126614173228346
11
2.3673345275590552
21
-0.2122118897637795
0
LINE
8
BLACK
6
CONTINUOUS
10
2.3673345275590552
20
-0.2122118897637795
11
2.3654186614173227
21
-0.2109317322834646
0
LINE
8
BLACK
6
CONTINUOUS
10
2.3654186614173227
20
-0.2109317322834646
11
2.3641385039370078
21
-0.2090158661417323
0
LINE
8
BLACK
6
CONTINUOUS
10
2.3641385039370078
20
-0.2090158661417323
11
2.3636889763779525
21
-0.206755905511811
0
LINE
8
BLACK
6
CONTINUOUS
10
2.3636889763779525
20
-0.206755905511811
11
2.3636889763779525
21
-0.1477007874015748
0
LINE
8
BLACK
6
CONTINUOUS
10
2.3636889763779525
20
-0.1477007874015748
11
2.3641385039370078
21
-0.1454408267716535
0
LINE
8
BLACK
6
CONTINUOUS
10
2.3641385039370078
20
-0.1454408267716535
11
2.3654186614173227
21
-0.1435249606299213
0
LINE
8
BLACK
6
CONTINUOUS
10
2.3654186614173227
20
-0.1435249606299213
11
2.3673345275590552
21
-0.1422448031496063
0
LINE
8
BLACK
6
CONTINUOUS
10
2.3673345275590552
20
-0.1422448031496063
11
2.3695944881889761
21
-0.1417952755905512
0
LINE
8
BLACK
6
CONTINUOUS
10
2.3695944881889761
20
-0.1417952755905512
11
2.3814055118110238
21
-0.1417952755905512
0
LINE
8
BLACK
6
CONTINUOUS
10
2.3814055118110238
20
-0.1417952755905512
11
2.3836654724409447
21
-0.1422448031496063
0
LINE
8
BLACK
6
CONTINUOUS
10
2.433935157480315
20
-0.1423572047244094
11
2.4363300393700786
21
-0.1439573622047244
0
LINE
8
BLACK
6
CONTINUOUS
10
2.4363300393700786
20
-0.1439573622047244
11
2.4379301968503935
21
-0.1463522440944882
0
LINE
8
BLACK
6
CONTINUOUS
10
2.4379301968503935
20
-0.1463522440944882
11
2.438492125984252
21
-0.1491771653543307
0
LINE
8
BLACK
6
CONTINUOUS
10
2.438492125984252
20
-0.1491771653543307
11
2.438492125984252
21
-0.2052795275590551
0
LINE
8
BLACK
6
CONTINUOUS
10
2.438492125984252
20
-0.2052795275590551
11
2.4379301968503935
21
-0.2081044488188976
0
LINE
8
BLACK
6
CONTINUOUS
10
2.4379301968503935
20
-0.2081044488188976
11
2.4363300393700786
21
-0.2104993307086614
0
LINE
8
BLACK
6
CONTINUOUS
10
2.4363300393700786
20
-0.2104993307086614
11
2.433935157480315
21
-0.2120994881889764
0
LINE
8
BLACK
6
CONTINUOUS
10
2.433935157480315
20
-0.2120994881889764
11
2.4311102362204724
21
-0.2126614173228346
0
LINE
8
BLACK
6
CONTINUOUS
10
2.4311102362204724
20
-0.2126614173228346
11
2.4163464566929131
21
-0.2126614173228346
0
LINE
8
BLACK
6
CONTINUOUS
10
2.4163464566929131
20
-0.2126614173228346
11
2.413521535433071
21
-0.2120994881889764
0
LINE
8
BLACK
6
CONTINUOUS
10
2.413521535433071
20
-0.2120994881889764
11
2.4111266535433069
21
-0.2104993307086614
0
LINE
8
BLACK
6
CONTINUOUS
10
2.4111266535433069
20
-0.2104993307086614
11
2.4095264960629921
21
-0.2081044488188976
0
LINE
8
BLACK
6
CONTINUOUS
10
2.4095264960629921
20
-0.2081044488188976
11
2.408964566929134
21
-0.2052795275590551
0
LINE
8
BLACK
6
CONTINUOUS
10
2.408964566929134
20
-0.2052795275590551
11
2.408964566929134
21
-0.1491771653543307
0
LINE
8
BLACK
6
CONTINUOUS
10
2.408964566929134
20
-0.1491771653543307
11
2.4095264960629921
21
-0.1463522440944882
0
LINE
8
BLACK
6
CONTINUOUS
10
2.4095264960629921
20
-0.1463522440944882
11
2.4111266535433069
21
-0.1439573622047244
0
LINE
8
BLACK
6
CONTINUOUS
10
2.4111266535433069
20
-0.1439573622047244
11
2.413521535433071
21
-0.1423572047244094
0
LINE
8
BLACK
6
CONTINUOUS
10
2.413521535433071
20
-0.1423572047244094
11
2.4163464566929131
21
-0.1417952755905512
0
LINE
8
BLACK
6
CONTINUOUS
10
2.4163464566929131
20
-0.1417952755905512
11
2.4311102362204724
21
-0.1417952755905512
0
LINE
8
BLACK
6
CONTINUOUS
10
2.4311102362204724
20
-0.1417952755905512
11
2.433935157480315
21
-0.1423572047244094
0
LINE
8
BLACK
6
CONTINUOUS
10
1.9646438188976378
20
-0.1284595669291339
11
1.9670387007874015
21
-0.1300597244094488
0
LINE
8
BLACK
6
CONTINUOUS
10
1.9670387007874015
20
-0.1300597244094488
11
1.9686388582677166
21
-0.1324546062992126
0
LINE
8
BLACK
6
CONTINUOUS
10
1.9686388582677166
20
-0.1324546062992126
11
1.9692007874015747
21
-0.1352795275590551
0
LINE
8
BLACK
6
CONTINUOUS
10
1.9692007874015747
20
-0.1352795275590551
11
1.9692007874015747
21
-0.1913818897637795
0
LINE
8
BLACK
6
CONTINUOUS
10
1.9692007874015747
20
-0.1913818897637795
11
1.9686388582677166
21
-0.1942068110236221
0
LINE
8
BLACK
6
CONTINUOUS
10
1.9686388582677166
20
-0.1942068110236221
11
1.9670387007874015
21
-0.1966016929133858
0
LINE
8
BLACK
6
CONTINUOUS
10
1.9670387007874015
20
-0.1966016929133858
11
1.9646438188976378
21
-0.1982018503937008
0
LINE
8
BLACK
6
CONTINUOUS
10
1.9646438188976378
20
-0.1982018503937008
11
1.9618188976377953
21
-0.1987637795275591
0
LINE
8
BLACK
6
CONTINUOUS
10
1.9618188976377953
20
-0.1987637795275591
11
1.9470551181102362
21
-0.1987637795275591
0
LINE
8
BLACK
6
CONTINUOUS
10
1.9470551181102362
20
-0.1987637795275591
11
1.9442301968503937
21
-0.1982018503937008
0
LINE
8
BLACK
6
CONTINUOUS
10
1.9442301968503937
20
-0.1982018503937008
11
1.9418353149606298
21
-0.1966016929133858
0
LINE
8
BLACK
6
CONTINUOUS
10
1.9418353149606298
20
-0.1966016929133858
11
1.9402351574803149
21
-0.1942068110236221
0
LINE
8
BLACK
6
CONTINUOUS
10
1.9402351574803149
20
-0.1942068110236221
11
1.9396732283464566
21
-0.1913818897637795
0
LINE
8
BLACK
6
CONTINUOUS
10
1.9396732283464566
20
-0.1913818897637795
11
1.9396732283464566
21
-0.1352795275590551
0
LINE
8
BLACK
6
CONTINUOUS
10
1.9396732283464566
20
-0.1352795275590551
11
1.9402351574803149
21
-0.1324546062992126
0
LINE
8
BLACK
6
CONTINUOUS
10
1.9402351574803149
20
-0.1324546062992126
11
1.9418353149606298
21
-0.1300597244094488
0
LINE
8
BLACK
6
CONTINUOUS
10
1.9418353149606298
20
-0.1300597244094488
11
1.9442301968503937
21
-0.1284595669291339
0
LINE
8
BLACK
6
CONTINUOUS
10
1.9442301968503937
20
-0.1284595669291339
11
1.9470551181102362
21
-0.1278976377952756
0
LINE
8
BLACK
6
CONTINUOUS
10
1.9470551181102362
20
-0.1278976377952756
11
1.9618188976377953
21
-0.1278976377952756
0
LINE
8
BLACK
6
CONTINUOUS
10
1.9618188976377953
20
-0.1278976377952756
11
1.9646438188976378
21
-0.1284595669291339
0
LINE
8
BLACK
6
CONTINUOUS
10
2.0108308267716537
20
-0.1283471653543307
11
2.0127466929133857
21
-0.1296273228346457
0
LINE
8
BLACK
6
CONTINUOUS
10
2.0127466929133857
20
-0.1296273228346457
11
2.0140268503937007
21
-0.131543188976378
0
LINE
8
BLACK
6
CONTINUOUS
10
2.0140268503937007
20
-0.131543188976378
11
2.0144763779527559
21
-0.1338031496062992
0
LINE
8
BLACK
6
CONTINUOUS
10
2.0144763779527559
20
-0.1338031496062992
11
2.0144763779527559
21
-0.1928582677165354
0
LINE
8
BLACK
6
CONTINUOUS
10
2.0144763779527559
20
-0.1928582677165354
11
2.0140268503937007
21
-0.1951182283464567
0
LINE
8
BLACK
6
CONTINUOUS
10
2.0140268503937007
20
-0.1951182283464567
11
2.0127466929133857
21
-0.197034094488189
0
LINE
8
BLACK
6
CONTINUOUS
10
2.0127466929133857
20
-0.197034094488189
11
2.0108308267716537
21
-0.1983142519685039
0
LINE
8
BLACK
6
CONTINUOUS
10
2.0108308267716537
20
-0.1983142519685039
11
2.0085708661417323
21
-0.1987637795275591
0
LINE
8
BLACK
6
CONTINUOUS
10
2.0085708661417323
20
-0.1987637795275591
11
1.9967598425196851
21
-0.1987637795275591
0
LINE
8
BLACK
6
CONTINUOUS
10
1.9967598425196851
20
-0.1987637795275591
11
1.9944998818897637
21
-0.1983142519685039
0
LINE
8
BLACK
6
CONTINUOUS
10
1.9944998818897637
20
-0.1983142519685039
11
1.9925840157480315
21
-0.197034094488189
0
LINE
8
BLACK
6
CONTINUOUS
10
1.9925840157480315
20
-0.197034094488189
11
1.9913038582677165
21
-0.1951182283464567
0
LINE
8
BLACK
6
CONTINUOUS
10
1.9913038582677165
20
-0.1951182283464567
11
1.9908543307086615
21
-0.1928582677165354
0
LINE
8
BLACK
6
CONTINUOUS
10
1.9908543307086615
20
-0.1928582677165354
11
1.9908543307086615
21
-0.1338031496062992
0
LINE
8
BLACK
6
CONTINUOUS
10
1.9908543307086615
20
-0.1338031496062992
11
1.9913038582677165
21
-0.131543188976378
0
LINE
8
BLACK
6
CONTINUOUS
10
1.9913038582677165
20
-0.131543188976378
11
1.9925840157480315
21
-0.1296273228346457
0
LINE
8
BLACK
6
CONTINUOUS
10
1.9925840157480315
20
-0.1296273228346457
11
1.9944998818897637
21
-0.1283471653543307
0
LINE
8
BLACK
6
CONTINUOUS
10
1.9944998818897637
20
-0.1283471653543307
11
1.9967598425196851
21
-0.1278976377952756
0
LINE
8
BLACK
6
CONTINUOUS
10
1.9967598425196851
20
-0.1278976377952756
11
2.0085708661417323
21
-0.1278976377952756
0
LINE
8
BLACK
6
CONTINUOUS
10
2.0085708661417323
20
-0.1278976377952756
11
2.0108308267716537
21
-0.1283471653543307
0
LINE
8
BLACK
6
CONTINUOUS
10
2.0611005118110235
20
-0.1284595669291339
11
2.0634953937007872
21
-0.1300597244094488
0
LINE
8
BLACK
6
CONTINUOUS
10
2.0634953937007872
20
-0.1300597244094488
11
2.0650955511811024
21
-0.1324546062992126
0
LINE
8
BLACK
6
CONTINUOUS
10
2.0650955511811024
20
-0.1324546062992126
11
2.0656574803149605
21
-0.1352795275590551
0
LINE
8
BLACK
6
CONTINUOUS
10
2.0656574803149605
20
-0.1352795275590551
11
2.0656574803149605
21
-0.1913818897637795
0
LINE
8
BLACK
6
CONTINUOUS
10
2.0656574803149605
20
-0.1913818897637795
11
2.0650955511811024
21
-0.1942068110236221
0
LINE
8
BLACK
6
CONTINUOUS
10
2.0650955511811024
20
-0.1942068110236221
11
2.0634953937007872
21
-0.1966016929133858
0
LINE
8
BLACK
6
CONTINUOUS
10
2.0634953937007872
20
-0.1966016929133858
11
2.0611005118110235
21
-0.1982018503937008
0
LINE
8
BLACK
6
CONTINUOUS
10
2.0611005118110235
20
-0.1982018503937008
11
2.0582755905511809
21
-0.1987637795275591
0
LINE
8
BLACK
6
CONTINUOUS
10
2.0582755905511809
20
-0.1987637795275591
11
2.0435118110236221
21
-0.1987637795275591
0
LINE
8
BLACK
6
CONTINUOUS
10
2.0435118110236221
20
-0.1987637795275591
11
2.0406868897637795
21
-0.1982018503937008
0
LINE
8
BLACK
6
CONTINUOUS
10
2.0406868897637795
20
-0.1982018503937008
11
2.0382920078740159
21
-0.1966016929133858
0
LINE
8
BLACK
6
CONTINUOUS
10
2.0382920078740159
20
-0.1966016929133858
11
2.0366918503937006
21
-0.1942068110236221
0
LINE
8
BLACK
6
CONTINUOUS
10
2.0366918503937006
20
-0.1942068110236221
11
2.0361299212598425
21
-0.1913818897637795
0
LINE
8
BLACK
6
CONTINUOUS
10
2.0361299212598425
20
-0.1913818897637795
11
2.0361299212598425
21
-0.1352795275590551
0
LINE
8
BLACK
6
CONTINUOUS
10
2.0361299212598425
20
-0.1352795275590551
11
2.0366918503937006
21
-0.1324546062992126
0
LINE
8
BLACK
6
CONTINUOUS
10
2.0366918503937006
20
-0.1324546062992126
11
2.0382920078740159
21
-0.1300597244094488
0
LINE
8
BLACK
6
CONTINUOUS
10
2.0382920078740159
20
-0.1300597244094488
11
2.0406868897637795
21
-0.1284595669291339
0
LINE
8
BLACK
6
CONTINUOUS
10
2.0406868897637795
20
-0.1284595669291339
11
2.0435118110236221
21
-0.1278976377952756
0
LINE
8
BLACK
6
CONTINUOUS
10
2.0435118110236221
20
-0.1278976377952756
11
2.0582755905511809
21
-0.1278976377952756
0
LINE
8
BLACK
6
CONTINUOUS
10
2.0582755905511809
20
-0.1278976377952756
11
2.0611005118110235
21
-0.1284595669291339
0
LINE
8
BLACK
6
CONTINUOUS
10
2.8731760236220474
20
1.046809842519685
11
2.8763691732283463
21
1.0446762598425197
0
LINE
8
BLACK
6
CONTINUOUS
10
2.8763691732283463
20
1.0446762598425197
11
2.8785027559055116
21
1.0414831102362205
0
LINE
8
BLACK
6
CONTINUOUS
10
2.8785027559055116
20
1.0414831102362205
11
2.8792519685039371
21
1.0377165354330709
0
LINE
8
BLACK
6
CONTINUOUS
10
2.8792519685039371
20
1.0377165354330709
11
2.8792519685039371
21
1.0022834645669292
0
LINE
8
BLACK
6
CONTINUOUS
10
2.8792519685039371
20
1.0022834645669292
11
2.8785027559055116
21
0.9985168897637795
0
LINE
8
BLACK
6
CONTINUOUS
10
2.8785027559055116
20
0.9985168897637795
11
2.8763691732283463
21
0.9953237401574803
0
LINE
8
BLACK
6
CONTINUOUS
10
2.8763691732283463
20
0.9953237401574803
11
2.8731760236220474
21
0.9931901574803149
0
LINE
8
BLACK
6
CONTINUOUS
10
2.8731760236220474
20
0.9931901574803149
11
2.8694094488188977
21
0.9924409448818897
0
LINE
8
BLACK
6
CONTINUOUS
10
2.8694094488188977
20
0.9924409448818897
11
2.8487401574803148
21
0.9924409448818897
0
LINE
8
BLACK
6
CONTINUOUS
10
2.8487401574803148
20
0.9924409448818897
11
2.8449735826771652
21
0.9931901574803149
0
LINE
8
BLACK
6
CONTINUOUS
10
2.8449735826771652
20
0.9931901574803149
11
2.8417804330708663
21
0.9953237401574803
0
LINE
8
BLACK
6
CONTINUOUS
10
2.8417804330708663
20
0.9953237401574803
11
2.8396468503937009
21
0.9985168897637795
0
LINE
8
BLACK
6
CONTINUOUS
10
2.8396468503937009
20
0.9985168897637795
11
2.8388976377952755
21
1.0022834645669292
0
LINE
8
BLACK
6
CONTINUOUS
10
2.8388976377952755
20
1.0022834645669292
11
2.8388976377952755
21
1.0377165354330709
0
LINE
8
BLACK
6
CONTINUOUS
10
2.8388976377952755
20
1.0377165354330709
11
2.8396468503937009
21
1.0414831102362205
0
LINE
8
BLACK
6
CONTINUOUS
10
2.8396468503937009
20
1.0414831102362205
11
2.8417804330708663
21
1.0446762598425197
0
LINE
8
BLACK
6
CONTINUOUS
10
2.8417804330708663
20
1.0446762598425197
11
2.8449735826771652
21
1.046809842519685
0
LINE
8
BLACK
6
CONTINUOUS
10
2.8449735826771652
20
1.046809842519685
11
2.8487401574803148
21
1.0475590551181102
0
LINE
8
BLACK
6
CONTINUOUS
10
2.8487401574803148
20
1.0475590551181102
11
2.8694094488188977
21
1.0475590551181102
0
LINE
8
BLACK
6
CONTINUOUS
10
2.8694094488188977
20
1.0475590551181102
11
2.8731760236220474
21
1.046809842519685
0
LINE
8
BLACK
6
CONTINUOUS
10
2.9450264173228344
20
1.046809842519685
11
2.9482195669291338
21
1.0446762598425197
0
LINE
8
BLACK
6
CONTINUOUS
10
2.9482195669291338
20
1.0446762598425197
11
2.9503531496062991
21
1.0414831102362205
0
LINE
8
BLACK
6
CONTINUOUS
10
2.9503531496062991
20
1.0414831102362205
11
2.9511023622047245
21
1.0377165354330709
0
LINE
8
BLACK
6
CONTINUOUS
10
2.9511023622047245
20
1.0377165354330709
11
2.9511023622047245
21
1.0022834645669292
0
LINE
8
BLACK
6
CONTINUOUS
10
2.9511023622047245
20
1.0022834645669292
11
2.9503531496062991
21
0.9985168897637795
0
LINE
8
BLACK
6
CONTINUOUS
10
2.9503531496062991
20
0.9985168897637795
11
2.9482195669291338
21
0.9953237401574803
0
LINE
8
BLACK
6
CONTINUOUS
10
2.9482195669291338
20
0.9953237401574803
11
2.9450264173228344
21
0.9931901574803149
0
LINE
8
BLACK
6
CONTINUOUS
10
2.9450264173228344
20
0.9931901574803149
11
2.9412598425196848
21
0.9924409448818897
0
LINE
8
BLACK
6
CONTINUOUS
10
2.9412598425196848
20
0.9924409448818897
11
2.9205905511811023
21
0.9924409448818897
0
LINE
8
BLACK
6
CONTINUOUS
10
2.9205905511811023
20
0.9924409448818897
11
2.9168239763779527
21
0.9931901574803149
0
LINE
8
BLACK
6
CONTINUOUS
10
2.9168239763779527
20
0.9931901574803149
11
2.9136308267716533
21
0.9953237401574803
0
LINE
8
BLACK
6
CONTINUOUS
10
2.9136308267716533
20
0.9953237401574803
11
2.911497244094488
21
0.9985168897637795
0
LINE
8
BLACK
6
CONTINUOUS
10
2.911497244094488
20
0.9985168897637795
11
2.910748031496063
21
1.0022834645669292
0
LINE
8
BLACK
6
CONTINUOUS
10
2.910748031496063
20
1.0022834645669292
11
2.910748031496063
21
1.0377165354330709
0
LINE
8
BLACK
6
CONTINUOUS
10
2.910748031496063
20
1.0377165354330709
11
2.911497244094488
21
1.0414831102362205
0
LINE
8
BLACK
6
CONTINUOUS
10
2.911497244094488
20
1.0414831102362205
11
2.9136308267716533
21
1.0446762598425197
0
LINE
8
BLACK
6
CONTINUOUS
10
2.9136308267716533
20
1.0446762598425197
11
2.9168239763779527
21
1.046809842519685
0
LINE
8
BLACK
6
CONTINUOUS
10
2.9168239763779527
20
1.046809842519685
11
2.9205905511811023
21
1.0475590551181102
0
LINE
8
BLACK
6
CONTINUOUS
10
2.9205905511811023
20
1.0475590551181102
11
2.9412598425196848
21
1.0475590551181102
0
LINE
8
BLACK
6
CONTINUOUS
10
2.9412598425196848
20
1.0475590551181102
11
2.9450264173228344
21
1.046809842519685
0
LINE
8
BLACK
6
CONTINUOUS
10
2.8741760236220473
20
1.804809842519685
11
2.8773691732283462
21
1.8026762598425197
0
LINE
8
BLACK
6
CONTINUOUS
10
2.8773691732283462
20
1.8026762598425197
11
2.8795027559055115
21
1.7994831102362205
0
LINE
8
BLACK
6
CONTINUOUS
10
2.8795027559055115
20
1.7994831102362205
11
2.8802519685039369
21
1.7957165354330709
0
LINE
8
BLACK
6
CONTINUOUS
10
2.8802519685039369
20
1.7957165354330709
11
2.8802519685039369
21
1.7602834645669292
0
LINE
8
BLACK
6
CONTINUOUS
10
2.8802519685039369
20
1.7602834645669292
11
2.8795027559055115
21
1.7565168897637795
0
LINE
8
BLACK
6
CONTINUOUS
10
2.8795027559055115
20
1.7565168897637795
11
2.8773691732283462
21
1.7533237401574804
0
LINE
8
BLACK
6
CONTINUOUS
10
2.8773691732283462
20
1.7533237401574804
11
2.8741760236220473
21
1.7511901574803148
0
LINE
8
BLACK
6
CONTINUOUS
10
2.8741760236220473
20
1.7511901574803148
11
2.8704094488188976
21
1.7504409448818896
0
LINE
8
BLACK
6
CONTINUOUS
10
2.8704094488188976
20
1.7504409448818896
11
2.8497401574803147
21
1.7504409448818896
0
LINE
8
BLACK
6
CONTINUOUS
10
2.8497401574803147
20
1.7504409448818896
11
2.8459735826771655
21
1.7511901574803148
0
LINE
8
BLACK
6
CONTINUOUS
10
2.8459735826771655
20
1.7511901574803148
11
2.8427804330708661
21
1.7533237401574804
0
LINE
8
BLACK
6
CONTINUOUS
10
2.8427804330708661
20
1.7533237401574804
11
2.8406468503937008
21
1.7565168897637795
0
LINE
8
BLACK
6
CONTINUOUS
10
2.8406468503937008
20
1.7565168897637795
11
2.8398976377952754
21
1.7602834645669292
0
LINE
8
BLACK
6
CONTINUOUS
10
2.8398976377952754
20
1.7602834645669292
11
2.8398976377952754
21
1.7957165354330709
0
LINE
8
BLACK
6
CONTINUOUS
10
2.8398976377952754
20
1.7957165354330709
11
2.8406468503937008
21
1.7994831102362205
0
LINE
8
BLACK
6
CONTINUOUS
10
2.8406468503937008
20
1.7994831102362205
11
2.8427804330708661
21
1.8026762598425197
0
LINE
8
BLACK
6
CONTINUOUS
10
2.8427804330708661
20
1.8026762598425197
11
2.8459735826771655
21
1.804809842519685
0
LINE
8
BLACK
6
CONTINUOUS
10
2.8459735826771655
20
1.804809842519685
11
2.8497401574803147
21
1.8055590551181102
0
LINE
8
BLACK
6
CONTINUOUS
10
2.8497401574803147
20
1.8055590551181102
11
2.8704094488188976
21
1.8055590551181102
0
LINE
8
BLACK
6
CONTINUOUS
10
2.8704094488188976
20
1.8055590551181102
11
2.8741760236220473
21
1.804809842519685
0
LINE
8
BLACK
6
CONTINUOUS
10
2.9460264173228348
20
1.804809842519685
11
2.9492195669291337
21
1.8026762598425197
0
LINE
8
BLACK
6
CONTINUOUS
10
2.9492195669291337
20
1.8026762598425197
11
2.951353149606299
21
1.7994831102362205
0
LINE
8
BLACK
6
CONTINUOUS
10
2.951353149606299
20
1.7994831102362205
11
2.9521023622047244
21
1.7957165354330709
0
LINE
8
BLACK
6
CONTINUOUS
10
2.9521023622047244
20
1.7957165354330709
11
2.9521023622047244
21
1.7602834645669292
0
LINE
8
BLACK
6
CONTINUOUS
10
2.9521023622047244
20
1.7602834645669292
11
2.951353149606299
21
1.7565168897637795
0
LINE
8
BLACK
6
CONTINUOUS
10
2.951353149606299
20
1.7565168897637795
11
2.9492195669291337
21
1.7533237401574804
0
LINE
8
BLACK
6
CONTINUOUS
10
2.9492195669291337
20
1.7533237401574804
11
2.9460264173228348
21
1.7511901574803148
0
LINE
8
BLACK
6
CONTINUOUS
10
2.9460264173228348
20
1.7511901574803148
11
2.9422598425196851
21
1.7504409448818896
0
LINE
8
BLACK
6
CONTINUOUS
10
2.9422598425196851
20
1.7504409448818896
11
2.9215905511811022
21
1.7504409448818896
0
LINE
8
BLACK
6
CONTINUOUS
10
2.9215905511811022
20
1.7504409448818896
11
2.9178239763779525
21
1.7511901574803148
0
LINE
8
BLACK
6
CONTINUOUS
10
2.9178239763779525
20
1.7511901574803148
11
2.9146308267716536
21
1.7533237401574804
0
LINE
8
BLACK
6
CONTINUOUS
10
2.9146308267716536
20
1.7533237401574804
11
2.9124972440944883
21
1.7565168897637795
0
LINE
8
BLACK
6
CONTINUOUS
10
2.9124972440944883
20
1.7565168897637795
11
2.9117480314960629
21
1.7602834645669292
0
LINE
8
BLACK
6
CONTINUOUS
10
2.9117480314960629
20
1.7602834645669292
11
2.9117480314960629
21
1.7957165354330709
0
LINE
8
BLACK
6
CONTINUOUS
10
2.9117480314960629
20
1.7957165354330709
11
2.9124972440944883
21
1.7994831102362205
0
LINE
8
BLACK
6
CONTINUOUS
10
2.9124972440944883
20
1.7994831102362205
11
2.9146308267716536
21
1.8026762598425197
0
LINE
8
BLACK
6
CONTINUOUS
10
2.9146308267716536
20
1.8026762598425197
11
2.9178239763779525
21
1.804809842519685
0
LINE
8
BLACK
6
CONTINUOUS
10
2.9178239763779525
20
1.804809842519685
11
2.9215905511811022
21
1.8055590551181102
0
LINE
8
BLACK
6
CONTINUOUS
10
2.9215905511811022
20
1.8055590551181102
11
2.9422598425196851
21
1.8055590551181102
0
LINE
8
BLACK
6
CONTINUOUS
10
2.9422598425196851
20
1.8055590551181102
11
2.9460264173228348
21
1.804809842519685
  0
ENDSEC
  0
EOF
