  0
SECTION
  2
HEADER
  9
$ANGBASE
  50
0.0
  9
$ANGDIR
  70
1
  9
$MEASUREMENT
  70
0
  0
ENDSEC
  0
SECTION
  2
TABLES
  0
TABLE
  2
LTYPE
  70
4
  0
LTYPE
  5
40F
  2
CONTINUOUS
  70
0
  3
Solid line
  72
65
  73
0
  40
0.0
  0
LTYPE
  5
410
  2
DASHDOT
 70
0
  3
Dash Dot ____ _ ____ _
 72
65
 73
4
 40
2.0
 49
1.25
 49
-0.25
 49
0.25
 49
-0.25
  0
LTYPE
  5
411
  2
DASHED
 70
0
  3
Dashed __ __ __ __ __
 72
65
 73
2
 40
0.75
 49
0.5
 49
-0.25
  0
LTYPE
  5
43B
  2
DOTTED
 70
0
  3
Dotted .  .  .  .
 72
65
 73
2
 40
0.2
 49
0.0
 49
-0.2
  0
ENDTAB
  0
TABLE
  2
STYLE
  70
4
  0
STYLE
  2
KICAD
  70
0
  40
0
  41
1
  42
1
  50
0
  71
0
  3
isocp.shx
  0
STYLE
  2
KICADB
  70
0
  40
0
  41
1
  42
1
  50
0
  71
0
  3
isocp.shx
  0
STYLE
  2
KICADI
  70
0
  40
0
  41
1
  42
1
  50
15
  71
0
  3
isocp.shx
  0
STYLE
  2
KICADBI
  70
0
  40
0
  41
1
  42
1
  50
15
  71
0
  3
isocp.shx
  0
ENDTAB
  0
TABLE
  2
LAYER
  70
1
  0
LAYER
  2
BLACK
  70
0
  62
7
  6
CONTINUOUS
  0
ENDTAB
  0
ENDSEC
  0
SECTION
  2
ENTITIES
0
LINE
8
BLACK
6
CONTINUOUS
10
6.1297782283464564
20
-4.8039489370078741
11
6.130310905511811
21
-4.8044816141732278
0
LINE
8
BLACK
6
CONTINUOUS
10
6.130310905511811
20
-4.8044816141732278
11
6.1303858267716533
21
-4.9371417322834645
0
LINE
8
BLACK
6
CONTINUOUS
10
6.1303858267716533
20
-4.9371417322834645
11
6.130310905511811
21
-4.9375183858267713
0
LINE
8
BLACK
6
CONTINUOUS
10
6.130310905511811
20
-4.9375183858267713
11
6.1297782283464564
21
-4.9380510629921259
0
LINE
8
BLACK
6
CONTINUOUS
10
6.1297782283464564
20
-4.9380510629921259
11
6.0545984251968505
21
-4.9381259842519682
0
LINE
8
BLACK
6
CONTINUOUS
10
6.0545984251968505
20
-4.9381259842519682
11
6.0542217716535429
21
-4.9380510629921259
0
LINE
8
BLACK
6
CONTINUOUS
10
6.0542217716535429
20
-4.9380510629921259
11
6.0536890944881891
21
-4.9375183858267713
0
LINE
8
BLACK
6
CONTINUOUS
10
6.0536890944881891
20
-4.9375183858267713
11
6.0536141732283459
21
-4.8048582677165355
0
LINE
8
BLACK
6
CONTINUOUS
10
6.0536141732283459
20
-4.8048582677165355
11
6.0536890944881891
21
-4.8044816141732278
0
LINE
8
BLACK
6
CONTINUOUS
10
6.0536890944881891
20
-4.8044816141732278
11
6.0542217716535429
21
-4.8039489370078741
0
LINE
8
BLACK
6
CONTINUOUS
10
6.0542217716535429
20
-4.8039489370078741
11
6.1294015748031496
21
-4.8038740157480317
0
LINE
8
BLACK
6
CONTINUOUS
10
6.1294015748031496
20
-4.8038740157480317
11
6.1297782283464564
21
-4.8039489370078741
0
LINE
8
BLACK
6
CONTINUOUS
10
6.0555085039370073
20
-4.8058415748031491
11
6.0555821259842517
21
-4.9362310236220468
0
LINE
8
BLACK
6
CONTINUOUS
10
6.0555821259842517
20
-4.9362310236220468
11
6.1284914566929132
21
-4.9361583858267712
0
LINE
8
BLACK
6
CONTINUOUS
10
6.1284914566929132
20
-4.9361583858267712
11
6.1284178346456688
21
-4.8057689370078736
0
LINE
8
BLACK
6
CONTINUOUS
10
6.1284178346456688
20
-4.8057689370078736
11
6.0555085039370073
21
-4.8058415748031491
0
LINE
8
BLACK
6
CONTINUOUS
10
6.2347782283464568
20
-4.8039489370078741
11
6.2353109055118106
21
-4.8044816141732278
0
LINE
8
BLACK
6
CONTINUOUS
10
6.2353109055118106
20
-4.8044816141732278
11
6.2353858267716538
21
-4.9371417322834645
0
LINE
8
BLACK
6
CONTINUOUS
10
6.2353858267716538
20
-4.9371417322834645
11
6.2353109055118106
21
-4.9375183858267713
0
LINE
8
BLACK
6
CONTINUOUS
10
6.2353109055118106
20
-4.9375183858267713
11
6.2347782283464568
21
-4.9380510629921259
0
LINE
8
BLACK
6
CONTINUOUS
10
6.2347782283464568
20
-4.9380510629921259
11
6.1595984251968501
21
-4.9381259842519682
0
LINE
8
BLACK
6
CONTINUOUS
10
6.1595984251968501
20
-4.9381259842519682
11
6.1592217716535433
21
-4.9380510629921259
0
LINE
8
BLACK
6
CONTINUOUS
10
6.1592217716535433
20
-4.9380510629921259
11
6.1586890944881887
21
-4.9375183858267713
0
LINE
8
BLACK
6
CONTINUOUS
10
6.1586890944881887
20
-4.9375183858267713
11
6.1586141732283464
21
-4.8048582677165355
0
LINE
8
BLACK
6
CONTINUOUS
10
6.1586141732283464
20
-4.8048582677165355
11
6.1586890944881887
21
-4.8044816141732278
0
LINE
8
BLACK
6
CONTINUOUS
10
6.1586890944881887
20
-4.8044816141732278
11
6.1592217716535433
21
-4.8039489370078741
0
LINE
8
BLACK
6
CONTINUOUS
10
6.1592217716535433
20
-4.8039489370078741
11
6.2344015748031492
21
-4.8038740157480317
0
LINE
8
BLACK
6
CONTINUOUS
10
6.2344015748031492
20
-4.8038740157480317
11
6.2347782283464568
21
-4.8039489370078741
0
LINE
8
BLACK
6
CONTINUOUS
10
6.1605085039370078
20
-4.8058415748031491
11
6.1605821259842521
21
-4.9362310236220468
0
LINE
8
BLACK
6
CONTINUOUS
10
6.1605821259842521
20
-4.9362310236220468
11
6.2334914566929136
21
-4.9361583858267712
0
LINE
8
BLACK
6
CONTINUOUS
10
6.2334914566929136
20
-4.9361583858267712
11
6.2334178346456692
21
-4.8057689370078736
0
LINE
8
BLACK
6
CONTINUOUS
10
6.2334178346456692
20
-4.8057689370078736
11
6.1605085039370078
21
-4.8058415748031491
0
LINE
8
BLACK
6
CONTINUOUS
10
5.5858805905511808
20
-4.8334764960629917
11
5.5864132677165355
21
-4.8340091732283463
0
LINE
8
BLACK
6
CONTINUOUS
10
5.5864132677165355
20
-4.8340091732283463
11
5.5864881889763778
21
-4.907614173228346
0
LINE
8
BLACK
6
CONTINUOUS
10
5.5864881889763778
20
-4.907614173228346
11
5.5864132677165355
21
-4.9079908267716537
0
LINE
8
BLACK
6
CONTINUOUS
10
5.5864132677165355
20
-4.9079908267716537
11
5.5858805905511808
21
-4.9085235039370074
0
LINE
8
BLACK
6
CONTINUOUS
10
5.5858805905511808
20
-4.9085235039370074
11
5.5484960629921263
21
-4.9085984251968506
0
LINE
8
BLACK
6
CONTINUOUS
10
5.5484960629921263
20
-4.9085984251968506
11
5.5481194094488187
21
-4.9085235039370074
0
LINE
8
BLACK
6
CONTINUOUS
10
5.5481194094488187
20
-4.9085235039370074
11
5.5475867322834649
21
-4.9079908267716537
0
LINE
8
BLACK
6
CONTINUOUS
10
5.5475867322834649
20
-4.9079908267716537
11
5.5475118110236217
21
-4.8343858267716531
0
LINE
8
BLACK
6
CONTINUOUS
10
5.5475118110236217
20
-4.8343858267716531
11
5.5475867322834649
21
-4.8340091732283463
0
LINE
8
BLACK
6
CONTINUOUS
10
5.5475867322834649
20
-4.8340091732283463
11
5.5481194094488187
21
-4.8334764960629917
0
LINE
8
BLACK
6
CONTINUOUS
10
5.5481194094488187
20
-4.8334764960629917
11
5.5855039370078741
21
-4.8334015748031494
0
LINE
8
BLACK
6
CONTINUOUS
10
5.5855039370078741
20
-4.8334015748031494
11
5.5858805905511808
21
-4.8334764960629917
0
LINE
8
BLACK
6
CONTINUOUS
10
5.5494067716535431
20
-4.8353682283464563
11
5.5494793700787399
21
-4.9067020866141728
0
LINE
8
BLACK
6
CONTINUOUS
10
5.5494793700787399
20
-4.9067020866141728
11
5.5845931889763776
21
-4.9066317322834641
0
LINE
8
BLACK
6
CONTINUOUS
10
5.5845931889763776
20
-4.9066317322834641
11
5.5845205905511808
21
-4.8352978740157475
0
LINE
8
BLACK
6
CONTINUOUS
10
5.5845205905511808
20
-4.8352978740157475
11
5.5494067716535431
21
-4.8353682283464563
0
LINE
8
BLACK
6
CONTINUOUS
10
5.6908805905511812
20
-4.8334764960629917
11
5.691413267716535
21
-4.8340091732283463
0
LINE
8
BLACK
6
CONTINUOUS
10
5.691413267716535
20
-4.8340091732283463
11
5.6914881889763782
21
-4.907614173228346
0
LINE
8
BLACK
6
CONTINUOUS
10
5.6914881889763782
20
-4.907614173228346
11
5.691413267716535
21
-4.9079908267716537
0
LINE
8
BLACK
6
CONTINUOUS
10
5.691413267716535
20
-4.9079908267716537
11
5.6908805905511812
21
-4.9085235039370074
0
LINE
8
BLACK
6
CONTINUOUS
10
5.6908805905511812
20
-4.9085235039370074
11
5.6534960629921258
21
-4.9085984251968506
0
LINE
8
BLACK
6
CONTINUOUS
10
5.6534960629921258
20
-4.9085984251968506
11
5.6531194094488191
21
-4.9085235039370074
0
LINE
8
BLACK
6
CONTINUOUS
10
5.6531194094488191
20
-4.9085235039370074
11
5.6525867322834644
21
-4.9079908267716537
0
LINE
8
BLACK
6
CONTINUOUS
10
5.6525867322834644
20
-4.9079908267716537
11
5.6525118110236221
21
-4.8343858267716531
0
LINE
8
BLACK
6
CONTINUOUS
10
5.6525118110236221
20
-4.8343858267716531
11
5.6525867322834644
21
-4.8340091732283463
0
LINE
8
BLACK
6
CONTINUOUS
10
5.6525867322834644
20
-4.8340091732283463
11
5.6531194094488191
21
-4.8334764960629917
0
LINE
8
BLACK
6
CONTINUOUS
10
5.6531194094488191
20
-4.8334764960629917
11
5.6905039370078736
21
-4.8334015748031494
0
LINE
8
BLACK
6
CONTINUOUS
10
5.6905039370078736
20
-4.8334015748031494
11
5.6908805905511812
21
-4.8334764960629917
0
LINE
8
BLACK
6
CONTINUOUS
10
5.6544067716535436
20
-4.8353682283464563
11
5.6544793700787404
21
-4.9067020866141728
0
LINE
8
BLACK
6
CONTINUOUS
10
5.6544793700787404
20
-4.9067020866141728
11
5.689593188976378
21
-4.9066317322834641
0
LINE
8
BLACK
6
CONTINUOUS
10
5.689593188976378
20
-4.9066317322834641
11
5.6895205905511812
21
-4.8352978740157475
0
LINE
8
BLACK
6
CONTINUOUS
10
5.6895205905511812
20
-4.8352978740157475
11
5.6544067716535436
21
-4.8353682283464563
0
LINE
8
BLACK
6
CONTINUOUS
10
6.3208805905511811
20
-4.8334764960629917
11
6.3214132677165349
21
-4.8340091732283463
0
LINE
8
BLACK
6
CONTINUOUS
10
6.3214132677165349
20
-4.8340091732283463
11
6.3214881889763781
21
-4.907614173228346
0
LINE
8
BLACK
6
CONTINUOUS
10
6.3214881889763781
20
-4.907614173228346
11
6.3214132677165349
21
-4.9079908267716537
0
LINE
8
BLACK
6
CONTINUOUS
10
6.3214132677165349
20
-4.9079908267716537
11
6.3208805905511811
21
-4.9085235039370074
0
LINE
8
BLACK
6
CONTINUOUS
10
6.3208805905511811
20
-4.9085235039370074
11
6.2834960629921257
21
-4.9085984251968506
0
LINE
8
BLACK
6
CONTINUOUS
10
6.2834960629921257
20
-4.9085984251968506
11
6.283119409448819
21
-4.9085235039370074
0
LINE
8
BLACK
6
CONTINUOUS
10
6.283119409448819
20
-4.9085235039370074
11
6.2825867322834643
21
-4.9079908267716537
0
LINE
8
BLACK
6
CONTINUOUS
10
6.2825867322834643
20
-4.9079908267716537
11
6.282511811023622
21
-4.8343858267716531
0
LINE
8
BLACK
6
CONTINUOUS
10
6.282511811023622
20
-4.8343858267716531
11
6.2825867322834643
21
-4.8340091732283463
0
LINE
8
BLACK
6
CONTINUOUS
10
6.2825867322834643
20
-4.8340091732283463
11
6.283119409448819
21
-4.8334764960629917
0
LINE
8
BLACK
6
CONTINUOUS
10
6.283119409448819
20
-4.8334764960629917
11
6.3205039370078735
21
-4.8334015748031494
0
LINE
8
BLACK
6
CONTINUOUS
10
6.3205039370078735
20
-4.8334015748031494
11
6.3208805905511811
21
-4.8334764960629917
0
LINE
8
BLACK
6
CONTINUOUS
10
6.2844067716535434
20
-4.8353682283464563
11
6.2844793700787402
21
-4.9067020866141728
0
LINE
8
BLACK
6
CONTINUOUS
10
6.2844793700787402
20
-4.9067020866141728
11
6.3195931889763779
21
-4.9066317322834641
0
LINE
8
BLACK
6
CONTINUOUS
10
6.3195931889763779
20
-4.9066317322834641
11
6.3195205905511811
21
-4.8352978740157475
0
LINE
8
BLACK
6
CONTINUOUS
10
6.3195205905511811
20
-4.8352978740157475
11
6.2844067716535434
21
-4.8353682283464563
0
LINE
8
BLACK
6
CONTINUOUS
10
6.7447782283464566
20
-4.6189489370078736
11
6.7453109055118112
21
-4.6194816141732282
0
LINE
8
BLACK
6
CONTINUOUS
10
6.7453109055118112
20
-4.6194816141732282
11
6.7453858267716535
21
-4.752141732283464
0
LINE
8
BLACK
6
CONTINUOUS
10
6.7453858267716535
20
-4.752141732283464
11
6.7453109055118112
21
-4.7525183858267717
0
LINE
8
BLACK
6
CONTINUOUS
10
6.7453109055118112
20
-4.7525183858267717
11
6.7447782283464566
21
-4.7530510629921263
0
LINE
8
BLACK
6
CONTINUOUS
10
6.7447782283464566
20
-4.7530510629921263
11
6.6695984251968499
21
-4.7531259842519686
0
LINE
8
BLACK
6
CONTINUOUS
10
6.6695984251968499
20
-4.7531259842519686
11
6.6692217716535431
21
-4.7530510629921263
0
LINE
8
BLACK
6
CONTINUOUS
10
6.6692217716535431
20
-4.7530510629921263
11
6.6686890944881885
21
-4.7525183858267717
0
LINE
8
BLACK
6
CONTINUOUS
10
6.6686890944881885
20
-4.7525183858267717
11
6.6686141732283462
21
-4.619858267716535
0
LINE
8
BLACK
6
CONTINUOUS
10
6.6686141732283462
20
-4.619858267716535
11
6.6686890944881885
21
-4.6194816141732282
0
LINE
8
BLACK
6
CONTINUOUS
10
6.6686890944881885
20
-4.6194816141732282
11
6.6692217716535431
21
-4.6189489370078736
0
LINE
8
BLACK
6
CONTINUOUS
10
6.6692217716535431
20
-4.6189489370078736
11
6.7444015748031498
21
-4.6188740157480312
0
LINE
8
BLACK
6
CONTINUOUS
10
6.7444015748031498
20
-4.6188740157480312
11
6.7447782283464566
21
-4.6189489370078736
0
LINE
8
BLACK
6
CONTINUOUS
10
6.6705085039370076
20
-4.6208415748031495
11
6.6705821259842519
21
-4.7512310236220472
0
LINE
8
BLACK
6
CONTINUOUS
10
6.6705821259842519
20
-4.7512310236220472
11
6.7434914566929134
21
-4.7511583858267716
0
LINE
8
BLACK
6
CONTINUOUS
10
6.7434914566929134
20
-4.7511583858267716
11
6.743417834645669
21
-4.6207689370078739
0
LINE
8
BLACK
6
CONTINUOUS
10
6.743417834645669
20
-4.6207689370078739
11
6.6705085039370076
21
-4.6208415748031495
0
LINE
8
BLACK
6
CONTINUOUS
10
6.6561168110236215
20
-4.5118229527559057
11
6.6566494881889762
21
-4.5123556299212595
0
LINE
8
BLACK
6
CONTINUOUS
10
6.6566494881889762
20
-4.5123556299212595
11
6.6567244094488185
21
-4.6292677165354332
0
LINE
8
BLACK
6
CONTINUOUS
10
6.6567244094488185
20
-4.6292677165354332
11
6.6566494881889762
21
-4.62964437007874
0
LINE
8
BLACK
6
CONTINUOUS
10
6.6566494881889762
20
-4.62964437007874
11
6.6561168110236215
21
-4.6301770472440946
0
LINE
8
BLACK
6
CONTINUOUS
10
6.6561168110236215
20
-4.6301770472440946
11
6.5982598425196848
21
-4.6302519685039369
0
LINE
8
BLACK
6
CONTINUOUS
10
6.5982598425196848
20
-4.6302519685039369
11
6.597883188976378
21
-4.6301770472440946
0
LINE
8
BLACK
6
CONTINUOUS
10
6.597883188976378
20
-4.6301770472440946
11
6.5973505118110234
21
-4.62964437007874
0
LINE
8
BLACK
6
CONTINUOUS
10
6.5973505118110234
20
-4.62964437007874
11
6.5972755905511811
21
-4.5127322834645671
0
LINE
8
BLACK
6
CONTINUOUS
10
6.5972755905511811
20
-4.5127322834645671
11
6.5973505118110234
21
-4.5123556299212595
0
LINE
8
BLACK
6
CONTINUOUS
10
6.5973505118110234
20
-4.5123556299212595
11
6.597883188976378
21
-4.5118229527559057
0
LINE
8
BLACK
6
CONTINUOUS
10
6.597883188976378
20
-4.5118229527559057
11
6.6557401574803148
21
-4.5117480314960625
0
LINE
8
BLACK
6
CONTINUOUS
10
6.6557401574803148
20
-4.5117480314960625
11
6.6561168110236215
21
-4.5118229527559057
0
LINE
8
BLACK
6
CONTINUOUS
10
6.5991700393700787
20
-4.5137153543307083
11
6.5992435039370081
21
-4.628356614173228
0
LINE
8
BLACK
6
CONTINUOUS
10
6.5992435039370081
20
-4.628356614173228
11
6.6548299212598421
21
-4.6282846062992125
0
LINE
8
BLACK
6
CONTINUOUS
10
6.6548299212598421
20
-4.6282846062992125
11
6.6547564566929136
21
-4.5136433464566927
0
LINE
8
BLACK
6
CONTINUOUS
10
6.6547564566929136
20
-4.5136433464566927
11
6.5991700393700787
21
-4.5137153543307083
0
LINE
8
BLACK
6
CONTINUOUS
10
5.7554868897637794
20
-4.4192638976377951
11
5.7560195669291341
21
-4.4197965748031498
0
LINE
8
BLACK
6
CONTINUOUS
10
5.7560195669291341
20
-4.4197965748031498
11
5.7560944881889764
21
-4.4918267716535434
0
LINE
8
BLACK
6
CONTINUOUS
10
5.7560944881889764
20
-4.4918267716535434
11
5.7560195669291341
21
-4.4922034251968501
0
LINE
8
BLACK
6
CONTINUOUS
10
5.7560195669291341
20
-4.4922034251968501
11
5.7554868897637794
21
-4.4927361023622048
0
LINE
8
BLACK
6
CONTINUOUS
10
5.7554868897637794
20
-4.4927361023622048
11
5.7188897637795275
21
-4.4928110236220471
0
LINE
8
BLACK
6
CONTINUOUS
10
5.7188897637795275
20
-4.4928110236220471
11
5.7185131102362208
21
-4.4927361023622048
0
LINE
8
BLACK
6
CONTINUOUS
10
5.7185131102362208
20
-4.4927361023622048
11
5.7179804330708661
21
-4.4922034251968501
0
LINE
8
BLACK
6
CONTINUOUS
10
5.7179804330708661
20
-4.4922034251968501
11
5.7179055118110238
21
-4.4201732283464565
0
LINE
8
BLACK
6
CONTINUOUS
10
5.7179055118110238
20
-4.4201732283464565
11
5.7179804330708661
21
-4.4197965748031498
0
LINE
8
BLACK
6
CONTINUOUS
10
5.7179804330708661
20
-4.4197965748031498
11
5.7185131102362208
21
-4.4192638976377951
0
LINE
8
BLACK
6
CONTINUOUS
10
5.7185131102362208
20
-4.4192638976377951
11
5.7551102362204727
21
-4.4191889763779528
0
LINE
8
BLACK
6
CONTINUOUS
10
5.7551102362204727
20
-4.4191889763779528
11
5.7554868897637794
21
-4.4192638976377951
0
LINE
8
BLACK
6
CONTINUOUS
10
5.7198004724409444
20
-4.421155590551181
11
5.7198730314960633
21
-4.4909146456692914
0
LINE
8
BLACK
6
CONTINUOUS
10
5.7198730314960633
20
-4.4909146456692914
11
5.7541994881889762
21
-4.4908443700787402
0
LINE
8
BLACK
6
CONTINUOUS
10
5.7541994881889762
20
-4.4908443700787402
11
5.7541269291338581
21
-4.4210853149606297
0
LINE
8
BLACK
6
CONTINUOUS
10
5.7541269291338581
20
-4.4210853149606297
11
5.7198004724409444
21
-4.421155590551181
0
LINE
8
BLACK
6
CONTINUOUS
10
4.9059593307086615
20
-4.2981615354330707
11
4.9064920078740153
21
-4.2986942125984253
0
LINE
8
BLACK
6
CONTINUOUS
10
4.9064920078740153
20
-4.2986942125984253
11
4.9065669291338585
21
-4.4329291338582673
0
LINE
8
BLACK
6
CONTINUOUS
10
4.9065669291338585
20
-4.4329291338582673
11
4.9064920078740153
21
-4.4333057874015749
0
LINE
8
BLACK
6
CONTINUOUS
10
4.9064920078740153
20
-4.4333057874015749
11
4.9059593307086615
21
-4.4338384645669286
0
LINE
8
BLACK
6
CONTINUOUS
10
4.9059593307086615
20
-4.4338384645669286
11
4.8284173228346452
21
-4.4339133858267719
0
LINE
8
BLACK
6
CONTINUOUS
10
4.8284173228346452
20
-4.4339133858267719
11
4.8280406692913385
21
-4.4338384645669286
0
LINE
8
BLACK
6
CONTINUOUS
10
4.8280406692913385
20
-4.4338384645669286
11
4.8275079921259838
21
-4.4333057874015749
0
LINE
8
BLACK
6
CONTINUOUS
10
4.8275079921259838
20
-4.4333057874015749
11
4.8274330708661415
21
-4.2990708661417321
0
LINE
8
BLACK
6
CONTINUOUS
10
4.8274330708661415
20
-4.2990708661417321
11
4.8275079921259838
21
-4.2986942125984253
0
LINE
8
BLACK
6
CONTINUOUS
10
4.8275079921259838
20
-4.2986942125984253
11
4.8280406692913385
21
-4.2981615354330707
0
LINE
8
BLACK
6
CONTINUOUS
10
4.8280406692913385
20
-4.2981615354330707
11
4.9055826771653539
21
-4.2980866141732283
0
LINE
8
BLACK
6
CONTINUOUS
10
4.9055826771653539
20
-4.2980866141732283
11
4.9059593307086615
21
-4.2981615354330707
0
LINE
8
BLACK
6
CONTINUOUS
10
4.8293274015748029
20
-4.3000542125984254
11
4.829401062992126
21
-4.4320184645669292
0
LINE
8
BLACK
6
CONTINUOUS
10
4.829401062992126
20
-4.4320184645669292
11
4.9046725590551183
21
-4.4319457480314961
0
LINE
8
BLACK
6
CONTINUOUS
10
4.9046725590551183
20
-4.4319457480314961
11
4.9045988976377952
21
-4.2999814960629923
0
LINE
8
BLACK
6
CONTINUOUS
10
4.9045988976377952
20
-4.2999814960629923
11
4.8293274015748029
21
-4.3000542125984254
0
LINE
8
BLACK
6
CONTINUOUS
10
6.4706443700787402
20
-4.3413505118110232
11
6.4711770472440939
21
-4.3418831889763778
0
LINE
8
BLACK
6
CONTINUOUS
10
6.4711770472440939
20
-4.3418831889763778
11
6.4712519685039371
21
-4.3997401574803146
0
LINE
8
BLACK
6
CONTINUOUS
10
6.4712519685039371
20
-4.3997401574803146
11
6.4711770472440939
21
-4.4001168110236222
0
LINE
8
BLACK
6
CONTINUOUS
10
6.4711770472440939
20
-4.4001168110236222
11
6.4706443700787402
21
-4.4006494881889759
0
LINE
8
BLACK
6
CONTINUOUS
10
6.4706443700787402
20
-4.4006494881889759
11
6.3537322834645664
21
-4.4007244094488192
0
LINE
8
BLACK
6
CONTINUOUS
10
6.3537322834645664
20
-4.4007244094488192
11
6.3533556299212597
21
-4.4006494881889759
0
LINE
8
BLACK
6
CONTINUOUS
10
6.3533556299212597
20
-4.4006494881889759
11
6.352822952755905
21
-4.4001168110236222
0
LINE
8
BLACK
6
CONTINUOUS
10
6.352822952755905
20
-4.4001168110236222
11
6.3527480314960627
21
-4.3422598425196846
0
LINE
8
BLACK
6
CONTINUOUS
10
6.3527480314960627
20
-4.3422598425196846
11
6.352822952755905
21
-4.3418831889763778
0
LINE
8
BLACK
6
CONTINUOUS
10
6.352822952755905
20
-4.3418831889763778
11
6.3533556299212597
21
-4.3413505118110232
0
LINE
8
BLACK
6
CONTINUOUS
10
6.3533556299212597
20
-4.3413505118110232
11
6.4702677165354325
21
-4.3412755905511808
0
LINE
8
BLACK
6
CONTINUOUS
10
6.4702677165354325
20
-4.3412755905511808
11
6.4706443700787402
21
-4.3413505118110232
0
LINE
8
BLACK
6
CONTINUOUS
10
6.3546433464566929
20
-4.3432435039370079
11
6.3547153543307084
21
-4.3988299212598427
0
LINE
8
BLACK
6
CONTINUOUS
10
6.3547153543307084
20
-4.3988299212598427
11
6.4693566141732282
21
-4.3987564566929134
0
LINE
8
BLACK
6
CONTINUOUS
10
6.4693566141732282
20
-4.3987564566929134
11
6.4692846062992126
21
-4.3431700393700785
0
LINE
8
BLACK
6
CONTINUOUS
10
6.4692846062992126
20
-4.3431700393700785
11
6.3546433464566929
21
-4.3432435039370079
0
LINE
8
BLACK
6
CONTINUOUS
10
6.2297388582677167
20
-4.1677284645669292
11
6.2302715354330704
21
-4.168261141732283
0
LINE
8
BLACK
6
CONTINUOUS
10
6.2302715354330704
20
-4.168261141732283
11
6.2303464566929136
21
-4.3733622047244092
0
LINE
8
BLACK
6
CONTINUOUS
10
6.2303464566929136
20
-4.3733622047244092
11
6.2302715354330704
21
-4.3737388582677168
0
LINE
8
BLACK
6
CONTINUOUS
10
6.2302715354330704
20
-4.3737388582677168
11
6.2297388582677167
21
-4.3742715354330706
0
LINE
8
BLACK
6
CONTINUOUS
10
6.2297388582677167
20
-4.3742715354330706
11
6.0246377952755905
21
-4.3743464566929129
0
LINE
8
BLACK
6
CONTINUOUS
10
6.0246377952755905
20
-4.3743464566929129
11
6.0242611417322829
21
-4.3742715354330706
0
LINE
8
BLACK
6
CONTINUOUS
10
6.0242611417322829
20
-4.3742715354330706
11
6.0237284645669291
21
-4.3737388582677168
0
LINE
8
BLACK
6
CONTINUOUS
10
6.0237284645669291
20
-4.3737388582677168
11
6.0236535433070868
21
-4.1686377952755906
0
LINE
8
BLACK
6
CONTINUOUS
10
6.0236535433070868
20
-4.1686377952755906
11
6.0237284645669291
21
-4.168261141732283
0
LINE
8
BLACK
6
CONTINUOUS
10
6.0237284645669291
20
-4.168261141732283
11
6.0242611417322829
21
-4.1677284645669292
0
LINE
8
BLACK
6
CONTINUOUS
10
6.0242611417322829
20
-4.1677284645669292
11
6.229362204724409
21
-4.1676535433070869
0
LINE
8
BLACK
6
CONTINUOUS
10
6.229362204724409
20
-4.1676535433070869
11
6.2297388582677167
21
-4.1677284645669292
0
LINE
8
BLACK
6
CONTINUOUS
10
6.0255475984251969
20
-4.1696216929133856
11
6.0256216929133855
21
-4.372452362204724
0
LINE
8
BLACK
6
CONTINUOUS
10
6.0256216929133855
20
-4.372452362204724
11
6.2284523622047239
21
-4.3723782677165355
0
LINE
8
BLACK
6
CONTINUOUS
10
6.2284523622047239
20
-4.3723782677165355
11
6.2283782677165354
21
-4.1695475984251971
0
LINE
8
BLACK
6
CONTINUOUS
10
6.2283782677165354
20
-4.1695475984251971
11
6.0255475984251969
21
-4.1696216929133856
0
LINE
8
BLACK
6
CONTINUOUS
10
5.9061168110236215
20
-4.2268229527559056
11
5.9066494881889762
21
-4.2273556299212594
0
LINE
8
BLACK
6
CONTINUOUS
10
5.9066494881889762
20
-4.2273556299212594
11
5.9067244094488185
21
-4.3442677165354331
0
LINE
8
BLACK
6
CONTINUOUS
10
5.9067244094488185
20
-4.3442677165354331
11
5.9066494881889762
21
-4.3446443700787398
0
LINE
8
BLACK
6
CONTINUOUS
10
5.9066494881889762
20
-4.3446443700787398
11
5.9061168110236215
21
-4.3451770472440945
0
LINE
8
BLACK
6
CONTINUOUS
10
5.9061168110236215
20
-4.3451770472440945
11
5.8482598425196848
21
-4.3452519685039368
0
LINE
8
BLACK
6
CONTINUOUS
10
5.8482598425196848
20
-4.3452519685039368
11
5.847883188976378
21
-4.3451770472440945
0
LINE
8
BLACK
6
CONTINUOUS
10
5.847883188976378
20
-4.3451770472440945
11
5.8473505118110234
21
-4.3446443700787398
0
LINE
8
BLACK
6
CONTINUOUS
10
5.8473505118110234
20
-4.3446443700787398
11
5.8472755905511811
21
-4.227732283464567
0
LINE
8
BLACK
6
CONTINUOUS
10
5.8472755905511811
20
-4.227732283464567
11
5.8473505118110234
21
-4.2273556299212594
0
LINE
8
BLACK
6
CONTINUOUS
10
5.8473505118110234
20
-4.2273556299212594
11
5.847883188976378
21
-4.2268229527559056
0
LINE
8
BLACK
6
CONTINUOUS
10
5.847883188976378
20
-4.2268229527559056
11
5.9057401574803148
21
-4.2267480314960633
0
LINE
8
BLACK
6
CONTINUOUS
10
5.9057401574803148
20
-4.2267480314960633
11
5.9061168110236215
21
-4.2268229527559056
0
LINE
8
BLACK
6
CONTINUOUS
10
5.8491700393700787
20
-4.228715354330709
11
5.8492435039370081
21
-4.3433566141732278
0
LINE
8
BLACK
6
CONTINUOUS
10
5.8492435039370081
20
-4.3433566141732278
11
5.9048299212598421
21
-4.3432846062992123
0
LINE
8
BLACK
6
CONTINUOUS
10
5.9048299212598421
20
-4.3432846062992123
11
5.9047564566929136
21
-4.2286433464566926
0
LINE
8
BLACK
6
CONTINUOUS
10
5.9047564566929136
20
-4.2286433464566926
11
5.8491700393700787
21
-4.228715354330709
0
LINE
8
BLACK
6
CONTINUOUS
10
5.2293057874015743
20
-4.2515079921259842
11
5.2298384645669289
21
-4.2520406692913388
0
LINE
8
BLACK
6
CONTINUOUS
10
5.2298384645669289
20
-4.2520406692913388
11
5.2299133858267712
21
-4.3295826771653543
0
LINE
8
BLACK
6
CONTINUOUS
10
5.2299133858267712
20
-4.3295826771653543
11
5.2298384645669289
21
-4.329959330708661
0
LINE
8
BLACK
6
CONTINUOUS
10
5.2298384645669289
20
-4.329959330708661
11
5.2293057874015743
21
-4.3304920078740157
0
LINE
8
BLACK
6
CONTINUOUS
10
5.2293057874015743
20
-4.3304920078740157
11
5.0950708661417323
21
-4.330566929133858
0
LINE
8
BLACK
6
CONTINUOUS
10
5.0950708661417323
20
-4.330566929133858
11
5.0946942125984247
21
-4.3304920078740157
0
LINE
8
BLACK
6
CONTINUOUS
10
5.0946942125984247
20
-4.3304920078740157
11
5.0941615354330709
21
-4.329959330708661
0
LINE
8
BLACK
6
CONTINUOUS
10
5.0941615354330709
20
-4.329959330708661
11
5.0940866141732286
21
-4.2524173228346456
0
LINE
8
BLACK
6
CONTINUOUS
10
5.0940866141732286
20
-4.2524173228346456
11
5.0941615354330709
21
-4.2520406692913388
0
LINE
8
BLACK
6
CONTINUOUS
10
5.0941615354330709
20
-4.2520406692913388
11
5.0946942125984247
21
-4.2515079921259842
0
LINE
8
BLACK
6
CONTINUOUS
10
5.0946942125984247
20
-4.2515079921259842
11
5.2289291338582675
21
-4.2514330708661419
0
LINE
8
BLACK
6
CONTINUOUS
10
5.2289291338582675
20
-4.2514330708661419
11
5.2293057874015743
21
-4.2515079921259842
0
LINE
8
BLACK
6
CONTINUOUS
10
5.0959814960629917
20
-4.2534010629921255
11
5.0960542125984247
21
-4.3286725590551178
0
LINE
8
BLACK
6
CONTINUOUS
10
5.0960542125984247
20
-4.3286725590551178
11
5.2280184645669294
21
-4.3285988976377956
0
LINE
8
BLACK
6
CONTINUOUS
10
5.2280184645669294
20
-4.3285988976377956
11
5.2279457480314964
21
-4.2533274015748033
0
LINE
8
BLACK
6
CONTINUOUS
10
5.2279457480314964
20
-4.2533274015748033
11
5.0959814960629917
21
-4.2534010629921255
0
LINE
8
BLACK
6
CONTINUOUS
10
6.7658805905511805
20
-4.2484764960629917
11
6.7664132677165352
21
-4.2490091732283464
0
LINE
8
BLACK
6
CONTINUOUS
10
6.7664132677165352
20
-4.2490091732283464
11
6.7664881889763775
21
-4.3226141732283461
0
LINE
8
BLACK
6
CONTINUOUS
10
6.7664881889763775
20
-4.3226141732283461
11
6.7664132677165352
21
-4.3229908267716537
0
LINE
8
BLACK
6
CONTINUOUS
10
6.7664132677165352
20
-4.3229908267716537
11
6.7658805905511805
21
-4.3235235039370075
0
LINE
8
BLACK
6
CONTINUOUS
10
6.7658805905511805
20
-4.3235235039370075
11
6.728496062992126
21
-4.3235984251968507
0
LINE
8
BLACK
6
CONTINUOUS
10
6.728496062992126
20
-4.3235984251968507
11
6.7281194094488184
21
-4.3235235039370075
0
LINE
8
BLACK
6
CONTINUOUS
10
6.7281194094488184
20
-4.3235235039370075
11
6.7275867322834646
21
-4.3229908267716537
0
LINE
8
BLACK
6
CONTINUOUS
10
6.7275867322834646
20
-4.3229908267716537
11
6.7275118110236223
21
-4.2493858267716531
0
LINE
8
BLACK
6
CONTINUOUS
10
6.7275118110236223
20
-4.2493858267716531
11
6.7275867322834646
21
-4.2490091732283464
0
LINE
8
BLACK
6
CONTINUOUS
10
6.7275867322834646
20
-4.2490091732283464
11
6.7281194094488184
21
-4.2484764960629917
0
LINE
8
BLACK
6
CONTINUOUS
10
6.7281194094488184
20
-4.2484764960629917
11
6.7655039370078738
21
-4.2484015748031494
0
LINE
8
BLACK
6
CONTINUOUS
10
6.7655039370078738
20
-4.2484015748031494
11
6.7658805905511805
21
-4.2484764960629917
0
LINE
8
BLACK
6
CONTINUOUS
10
6.7294067716535428
20
-4.2503682283464563
11
6.7294793700787396
21
-4.3217020866141729
0
LINE
8
BLACK
6
CONTINUOUS
10
6.7294793700787396
20
-4.3217020866141729
11
6.7645931889763782
21
-4.3216317322834641
0
LINE
8
BLACK
6
CONTINUOUS
10
6.7645931889763782
20
-4.3216317322834641
11
6.7645205905511814
21
-4.2502978740157475
0
LINE
8
BLACK
6
CONTINUOUS
10
6.7645205905511814
20
-4.2502978740157475
11
6.7294067716535428
21
-4.2503682283464563
0
LINE
8
BLACK
6
CONTINUOUS
10
6.4011168110236216
20
-4.2018229527559052
11
6.4016494881889763
21
-4.2023556299212599
0
LINE
8
BLACK
6
CONTINUOUS
10
6.4016494881889763
20
-4.2023556299212599
11
6.4017244094488186
21
-4.3192677165354327
0
LINE
8
BLACK
6
CONTINUOUS
10
6.4017244094488186
20
-4.3192677165354327
11
6.4016494881889763
21
-4.3196443700787404
0
LINE
8
BLACK
6
CONTINUOUS
10
6.4016494881889763
20
-4.3196443700787404
11
6.4011168110236216
21
-4.3201770472440941
0
LINE
8
BLACK
6
CONTINUOUS
10
6.4011168110236216
20
-4.3201770472440941
11
6.3432598425196849
21
-4.3202519685039373
0
LINE
8
BLACK
6
CONTINUOUS
10
6.3432598425196849
20
-4.3202519685039373
11
6.3428831889763782
21
-4.3201770472440941
0
LINE
8
BLACK
6
CONTINUOUS
10
6.3428831889763782
20
-4.3201770472440941
11
6.3423505118110235
21
-4.3196443700787404
0
LINE
8
BLACK
6
CONTINUOUS
10
6.3423505118110235
20
-4.3196443700787404
11
6.3422755905511812
21
-4.2027322834645666
0
LINE
8
BLACK
6
CONTINUOUS
10
6.3422755905511812
20
-4.2027322834645666
11
6.3423505118110235
21
-4.2023556299212599
0
LINE
8
BLACK
6
CONTINUOUS
10
6.3423505118110235
20
-4.2023556299212599
11
6.3428831889763782
21
-4.2018229527559052
0
LINE
8
BLACK
6
CONTINUOUS
10
6.3428831889763782
20
-4.2018229527559052
11
6.4007401574803149
21
-4.2017480314960629
0
LINE
8
BLACK
6
CONTINUOUS
10
6.4007401574803149
20
-4.2017480314960629
11
6.4011168110236216
21
-4.2018229527559052
0
LINE
8
BLACK
6
CONTINUOUS
10
6.3441700393700788
20
-4.2037153543307086
11
6.3442435039370073
21
-4.3183566141732284
0
LINE
8
BLACK
6
CONTINUOUS
10
6.3442435039370073
20
-4.3183566141732284
11
6.3998299212598422
21
-4.3182846062992128
0
LINE
8
BLACK
6
CONTINUOUS
10
6.3998299212598422
20
-4.3182846062992128
11
6.3997564566929128
21
-4.2036433464566931
0
LINE
8
BLACK
6
CONTINUOUS
10
6.3997564566929128
20
-4.2036433464566931
11
6.3441700393700788
21
-4.2037153543307086
0
LINE
8
BLACK
6
CONTINUOUS
10
6.4908805905511811
20
-4.2234764960629922
11
6.4914132677165357
21
-4.224009173228346
0
LINE
8
BLACK
6
CONTINUOUS
10
6.4914132677165357
20
-4.224009173228346
11
6.491488188976378
21
-4.2976141732283466
0
LINE
8
BLACK
6
CONTINUOUS
10
6.491488188976378
20
-4.2976141732283466
11
6.4914132677165357
21
-4.2979908267716533
0
LINE
8
BLACK
6
CONTINUOUS
10
6.4914132677165357
20
-4.2979908267716533
11
6.4908805905511811
21
-4.298523503937008
0
LINE
8
BLACK
6
CONTINUOUS
10
6.4908805905511811
20
-4.298523503937008
11
6.4534960629921256
21
-4.2985984251968503
0
LINE
8
BLACK
6
CONTINUOUS
10
6.4534960629921256
20
-4.2985984251968503
11
6.4531194094488189
21
-4.298523503937008
0
LINE
8
BLACK
6
CONTINUOUS
10
6.4531194094488189
20
-4.298523503937008
11
6.4525867322834642
21
-4.2979908267716533
0
LINE
8
BLACK
6
CONTINUOUS
10
6.4525867322834642
20
-4.2979908267716533
11
6.4525118110236219
21
-4.2243858267716536
0
LINE
8
BLACK
6
CONTINUOUS
10
6.4525118110236219
20
-4.2243858267716536
11
6.4525867322834642
21
-4.224009173228346
0
LINE
8
BLACK
6
CONTINUOUS
10
6.4525867322834642
20
-4.224009173228346
11
6.4531194094488189
21
-4.2234764960629922
0
LINE
8
BLACK
6
CONTINUOUS
10
6.4531194094488189
20
-4.2234764960629922
11
6.4905039370078734
21
-4.2234015748031499
0
LINE
8
BLACK
6
CONTINUOUS
10
6.4905039370078734
20
-4.2234015748031499
11
6.4908805905511811
21
-4.2234764960629922
0
LINE
8
BLACK
6
CONTINUOUS
10
6.4544067716535434
20
-4.2253682283464569
11
6.4544793700787402
21
-4.2967020866141734
0
LINE
8
BLACK
6
CONTINUOUS
10
6.4544793700787402
20
-4.2967020866141734
11
6.4895931889763778
21
-4.2966317322834646
0
LINE
8
BLACK
6
CONTINUOUS
10
6.4895931889763778
20
-4.2966317322834646
11
6.489520590551181
21
-4.2252978740157481
0
LINE
8
BLACK
6
CONTINUOUS
10
6.489520590551181
20
-4.2252978740157481
11
6.4544067716535434
21
-4.2253682283464569
0
LINE
8
BLACK
6
CONTINUOUS
10
4.2809593307086615
20
-4.1231615354330708
11
4.2814920078740153
21
-4.1236942125984255
0
LINE
8
BLACK
6
CONTINUOUS
10
4.2814920078740153
20
-4.1236942125984255
11
4.2815669291338585
21
-4.2579291338582674
0
LINE
8
BLACK
6
CONTINUOUS
10
4.2815669291338585
20
-4.2579291338582674
11
4.2814920078740153
21
-4.2583057874015751
0
LINE
8
BLACK
6
CONTINUOUS
10
4.2814920078740153
20
-4.2583057874015751
11
4.2809593307086615
21
-4.2588384645669288
0
LINE
8
BLACK
6
CONTINUOUS
10
4.2809593307086615
20
-4.2588384645669288
11
4.2034173228346452
21
-4.2589133858267711
0
LINE
8
BLACK
6
CONTINUOUS
10
4.2034173228346452
20
-4.2589133858267711
11
4.2030406692913385
21
-4.2588384645669288
0
LINE
8
BLACK
6
CONTINUOUS
10
4.2030406692913385
20
-4.2588384645669288
11
4.2025079921259838
21
-4.2583057874015751
0
LINE
8
BLACK
6
CONTINUOUS
10
4.2025079921259838
20
-4.2583057874015751
11
4.2024330708661415
21
-4.1240708661417322
0
LINE
8
BLACK
6
CONTINUOUS
10
4.2024330708661415
20
-4.1240708661417322
11
4.2025079921259838
21
-4.1236942125984255
0
LINE
8
BLACK
6
CONTINUOUS
10
4.2025079921259838
20
-4.1236942125984255
11
4.2030406692913385
21
-4.1231615354330708
0
LINE
8
BLACK
6
CONTINUOUS
10
4.2030406692913385
20
-4.1231615354330708
11
4.2805826771653539
21
-4.1230866141732285
0
LINE
8
BLACK
6
CONTINUOUS
10
4.2805826771653539
20
-4.1230866141732285
11
4.2809593307086615
21
-4.1231615354330708
0
LINE
8
BLACK
6
CONTINUOUS
10
4.2043274015748029
20
-4.1250542125984255
11
4.204401062992126
21
-4.2570184645669293
0
LINE
8
BLACK
6
CONTINUOUS
10
4.204401062992126
20
-4.2570184645669293
11
4.2796725590551183
21
-4.2569457480314963
0
LINE
8
BLACK
6
CONTINUOUS
10
4.2796725590551183
20
-4.2569457480314963
11
4.2795988976377952
21
-4.1249814960629925
0
LINE
8
BLACK
6
CONTINUOUS
10
4.2795988976377952
20
-4.1249814960629925
11
4.2043274015748029
21
-4.1250542125984255
0
LINE
8
BLACK
6
CONTINUOUS
10
6.6389908267716535
20
-4.2115867322834646
11
6.6395235039370073
21
-4.2121194094488192
0
LINE
8
BLACK
6
CONTINUOUS
10
6.6395235039370073
20
-4.2121194094488192
11
6.6395984251968505
21
-4.2495039370078738
0
LINE
8
BLACK
6
CONTINUOUS
10
6.6395984251968505
20
-4.2495039370078738
11
6.6395235039370073
21
-4.2498805905511814
0
LINE
8
BLACK
6
CONTINUOUS
10
6.6395235039370073
20
-4.2498805905511814
11
6.6389908267716535
21
-4.2504132677165352
0
LINE
8
BLACK
6
CONTINUOUS
10
6.6389908267716535
20
-4.2504132677165352
11
6.5653858267716538
21
-4.2504881889763775
0
LINE
8
BLACK
6
CONTINUOUS
10
6.5653858267716538
20
-4.2504881889763775
11
6.5650091732283462
21
-4.2504132677165352
0
LINE
8
BLACK
6
CONTINUOUS
10
6.5650091732283462
20
-4.2504132677165352
11
6.5644764960629916
21
-4.2498805905511814
0
LINE
8
BLACK
6
CONTINUOUS
10
6.5644764960629916
20
-4.2498805905511814
11
6.5644015748031492
21
-4.212496062992126
0
LINE
8
BLACK
6
CONTINUOUS
10
6.5644015748031492
20
-4.212496062992126
11
6.5644764960629916
21
-4.2121194094488192
0
LINE
8
BLACK
6
CONTINUOUS
10
6.5644764960629916
20
-4.2121194094488192
11
6.5650091732283462
21
-4.2115867322834646
0
LINE
8
BLACK
6
CONTINUOUS
10
6.5650091732283462
20
-4.2115867322834646
11
6.6386141732283459
21
-4.2115118110236223
0
LINE
8
BLACK
6
CONTINUOUS
10
6.6386141732283459
20
-4.2115118110236223
11
6.6389908267716535
21
-4.2115867322834646
0
LINE
8
BLACK
6
CONTINUOUS
10
6.5662978740157483
20
-4.2134793700787396
11
6.5663682283464562
21
-4.2485931889763782
0
LINE
8
BLACK
6
CONTINUOUS
10
6.5663682283464562
20
-4.2485931889763782
11
6.6377020866141727
21
-4.2485205905511814
0
LINE
8
BLACK
6
CONTINUOUS
10
6.6377020866141727
20
-4.2485205905511814
11
6.6376317322834648
21
-4.2134067716535428
0
LINE
8
BLACK
6
CONTINUOUS
10
6.6376317322834648
20
-4.2134067716535428
11
6.5662978740157483
21
-4.2134793700787396
0
LINE
8
BLACK
6
CONTINUOUS
10
4.1885183858267716
20
-4.1076890944881885
11
4.1890510629921263
21
-4.1082217716535432
0
LINE
8
BLACK
6
CONTINUOUS
10
4.1890510629921263
20
-4.1082217716535432
11
4.1891259842519686
21
-4.1834015748031499
0
LINE
8
BLACK
6
CONTINUOUS
10
4.1891259842519686
20
-4.1834015748031499
11
4.1890510629921263
21
-4.1837782283464566
0
LINE
8
BLACK
6
CONTINUOUS
10
4.1890510629921263
20
-4.1837782283464566
11
4.1885183858267716
21
-4.1843109055118113
0
LINE
8
BLACK
6
CONTINUOUS
10
4.1885183858267716
20
-4.1843109055118113
11
4.0558582677165349
21
-4.1843858267716536
0
LINE
8
BLACK
6
CONTINUOUS
10
4.0558582677165349
20
-4.1843858267716536
11
4.0554816141732282
21
-4.1843109055118113
0
LINE
8
BLACK
6
CONTINUOUS
10
4.0554816141732282
20
-4.1843109055118113
11
4.0549489370078735
21
-4.1837782283464566
0
LINE
8
BLACK
6
CONTINUOUS
10
4.0549489370078735
20
-4.1837782283464566
11
4.0548740157480312
21
-4.1085984251968499
0
LINE
8
BLACK
6
CONTINUOUS
10
4.0548740157480312
20
-4.1085984251968499
11
4.0549489370078735
21
-4.1082217716535432
0
LINE
8
BLACK
6
CONTINUOUS
10
4.0549489370078735
20
-4.1082217716535432
11
4.0554816141732282
21
-4.1076890944881885
0
LINE
8
BLACK
6
CONTINUOUS
10
4.0554816141732282
20
-4.1076890944881885
11
4.1881417322834649
21
-4.1076141732283462
0
LINE
8
BLACK
6
CONTINUOUS
10
4.1881417322834649
20
-4.1076141732283462
11
4.1885183858267716
21
-4.1076890944881885
0
LINE
8
BLACK
6
CONTINUOUS
10
4.0567689370078739
20
-4.109582125984252
11
4.0568415748031494
21
-4.1824914566929134
0
LINE
8
BLACK
6
CONTINUOUS
10
4.0568415748031494
20
-4.1824914566929134
11
4.1872310236220471
21
-4.1824178346456691
0
LINE
8
BLACK
6
CONTINUOUS
10
4.1872310236220471
20
-4.1824178346456691
11
4.1871583858267716
21
-4.1095085039370076
0
LINE
8
BLACK
6
CONTINUOUS
10
4.1871583858267716
20
-4.1095085039370076
11
4.0567689370078739
21
-4.109582125984252
0
LINE
8
BLACK
6
CONTINUOUS
10
4.5889908267716537
20
-4.1415867322834643
11
4.5895235039370075
21
-4.142119409448819
0
LINE
8
BLACK
6
CONTINUOUS
10
4.5895235039370075
20
-4.142119409448819
11
4.5895984251968507
21
-4.1795039370078735
0
LINE
8
BLACK
6
CONTINUOUS
10
4.5895984251968507
20
-4.1795039370078735
11
4.5895235039370075
21
-4.1798805905511811
0
LINE
8
BLACK
6
CONTINUOUS
10
4.5895235039370075
20
-4.1798805905511811
11
4.5889908267716537
21
-4.1804132677165358
0
LINE
8
BLACK
6
CONTINUOUS
10
4.5889908267716537
20
-4.1804132677165358
11
4.5153858267716531
21
-4.1804881889763781
0
LINE
8
BLACK
6
CONTINUOUS
10
4.5153858267716531
20
-4.1804881889763781
11
4.5150091732283464
21
-4.1804132677165358
0
LINE
8
BLACK
6
CONTINUOUS
10
4.5150091732283464
20
-4.1804132677165358
11
4.5144764960629917
21
-4.1798805905511811
0
LINE
8
BLACK
6
CONTINUOUS
10
4.5144764960629917
20
-4.1798805905511811
11
4.5144015748031494
21
-4.1424960629921257
0
LINE
8
BLACK
6
CONTINUOUS
10
4.5144015748031494
20
-4.1424960629921257
11
4.5144764960629917
21
-4.142119409448819
0
LINE
8
BLACK
6
CONTINUOUS
10
4.5144764960629917
20
-4.142119409448819
11
4.5150091732283464
21
-4.1415867322834643
0
LINE
8
BLACK
6
CONTINUOUS
10
4.5150091732283464
20
-4.1415867322834643
11
4.5886141732283461
21
-4.141511811023622
0
LINE
8
BLACK
6
CONTINUOUS
10
4.5886141732283461
20
-4.141511811023622
11
4.5889908267716537
21
-4.1415867322834643
0
LINE
8
BLACK
6
CONTINUOUS
10
4.5162978740157476
20
-4.1434793700787402
11
4.5163682283464563
21
-4.1785931889763779
0
LINE
8
BLACK
6
CONTINUOUS
10
4.5163682283464563
20
-4.1785931889763779
11
4.5877020866141729
21
-4.1785205905511811
0
LINE
8
BLACK
6
CONTINUOUS
10
4.5877020866141729
20
-4.1785205905511811
11
4.5876317322834641
21
-4.1434067716535434
0
LINE
8
BLACK
6
CONTINUOUS
10
4.5876317322834641
20
-4.1434067716535434
11
4.5162978740157476
21
-4.1434793700787402
0
LINE
8
BLACK
6
CONTINUOUS
10
6.4706443700787402
20
-4.1013505118110238
11
6.4711770472440939
21
-4.1018831889763776
0
LINE
8
BLACK
6
CONTINUOUS
10
6.4711770472440939
20
-4.1018831889763776
11
6.4712519685039371
21
-4.1597401574803152
0
LINE
8
BLACK
6
CONTINUOUS
10
6.4712519685039371
20
-4.1597401574803152
11
6.4711770472440939
21
-4.160116811023622
0
LINE
8
BLACK
6
CONTINUOUS
10
6.4711770472440939
20
-4.160116811023622
11
6.4706443700787402
21
-4.1606494881889766
0
LINE
8
BLACK
6
CONTINUOUS
10
6.4706443700787402
20
-4.1606494881889766
11
6.3537322834645664
21
-4.1607244094488189
0
LINE
8
BLACK
6
CONTINUOUS
10
6.3537322834645664
20
-4.1607244094488189
11
6.3533556299212597
21
-4.1606494881889766
0
LINE
8
BLACK
6
CONTINUOUS
10
6.3533556299212597
20
-4.1606494881889766
11
6.352822952755905
21
-4.160116811023622
0
LINE
8
BLACK
6
CONTINUOUS
10
6.352822952755905
20
-4.160116811023622
11
6.3527480314960627
21
-4.1022598425196852
0
LINE
8
BLACK
6
CONTINUOUS
10
6.3527480314960627
20
-4.1022598425196852
11
6.352822952755905
21
-4.1018831889763776
0
LINE
8
BLACK
6
CONTINUOUS
10
6.352822952755905
20
-4.1018831889763776
11
6.3533556299212597
21
-4.1013505118110238
0
LINE
8
BLACK
6
CONTINUOUS
10
6.3533556299212597
20
-4.1013505118110238
11
6.4702677165354325
21
-4.1012755905511806
0
LINE
8
BLACK
6
CONTINUOUS
10
6.4702677165354325
20
-4.1012755905511806
11
6.4706443700787402
21
-4.1013505118110238
0
LINE
8
BLACK
6
CONTINUOUS
10
6.3546433464566929
20
-4.1032435039370077
11
6.3547153543307084
21
-4.1588299212598425
0
LINE
8
BLACK
6
CONTINUOUS
10
6.3547153543307084
20
-4.1588299212598425
11
6.4693566141732282
21
-4.1587564566929132
0
LINE
8
BLACK
6
CONTINUOUS
10
6.4693566141732282
20
-4.1587564566929132
11
6.4692846062992126
21
-4.1031700393700783
0
LINE
8
BLACK
6
CONTINUOUS
10
6.4692846062992126
20
-4.1031700393700783
11
6.3546433464566929
21
-4.1032435039370077
0
LINE
8
BLACK
6
CONTINUOUS
10
6.0014908267716534
20
-4.0790867322834643
11
6.002023503937008
21
-4.079619409448819
0
LINE
8
BLACK
6
CONTINUOUS
10
6.002023503937008
20
-4.079619409448819
11
6.0020984251968503
21
-4.1170039370078735
0
LINE
8
BLACK
6
CONTINUOUS
10
6.0020984251968503
20
-4.1170039370078735
11
6.002023503937008
21
-4.1173805905511811
0
LINE
8
BLACK
6
CONTINUOUS
10
6.002023503937008
20
-4.1173805905511811
11
6.0014908267716534
21
-4.1179132677165358
0
LINE
8
BLACK
6
CONTINUOUS
10
6.0014908267716534
20
-4.1179132677165358
11
5.9278858267716537
21
-4.1179881889763781
0
LINE
8
BLACK
6
CONTINUOUS
10
5.9278858267716537
20
-4.1179881889763781
11
5.927509173228346
21
-4.1179132677165358
0
LINE
8
BLACK
6
CONTINUOUS
10
5.927509173228346
20
-4.1179132677165358
11
5.9269764960629923
21
-4.1173805905511811
0
LINE
8
BLACK
6
CONTINUOUS
10
5.9269764960629923
20
-4.1173805905511811
11
5.9269015748031491
21
-4.0799960629921257
0
LINE
8
BLACK
6
CONTINUOUS
10
5.9269015748031491
20
-4.0799960629921257
11
5.9269764960629923
21
-4.079619409448819
0
LINE
8
BLACK
6
CONTINUOUS
10
5.9269764960629923
20
-4.079619409448819
11
5.927509173228346
21
-4.0790867322834643
0
LINE
8
BLACK
6
CONTINUOUS
10
5.927509173228346
20
-4.0790867322834643
11
6.0011141732283466
21
-4.079011811023622
0
LINE
8
BLACK
6
CONTINUOUS
10
6.0011141732283466
20
-4.079011811023622
11
6.0014908267716534
21
-4.0790867322834643
0
LINE
8
BLACK
6
CONTINUOUS
10
5.9287978740157481
20
-4.0809793700787402
11
5.9288682283464569
21
-4.1160931889763779
0
LINE
8
BLACK
6
CONTINUOUS
10
5.9288682283464569
20
-4.1160931889763779
11
6.0002020866141734
21
-4.1160205905511811
0
LINE
8
BLACK
6
CONTINUOUS
10
6.0002020866141734
20
-4.1160205905511811
11
6.0001317322834646
21
-4.0809067716535434
0
LINE
8
BLACK
6
CONTINUOUS
10
6.0001317322834646
20
-4.0809067716535434
11
5.9287978740157481
21
-4.0809793700787402
0
LINE
8
BLACK
6
CONTINUOUS
10
4.2809593307086615
20
-3.9781615354330708
11
4.2814920078740153
21
-3.978694212598425
0
LINE
8
BLACK
6
CONTINUOUS
10
4.2814920078740153
20
-3.978694212598425
11
4.2815669291338585
21
-4.1129291338582679
0
LINE
8
BLACK
6
CONTINUOUS
10
4.2815669291338585
20
-4.1129291338582679
11
4.2814920078740153
21
-4.1133057874015746
0
LINE
8
BLACK
6
CONTINUOUS
10
4.2814920078740153
20
-4.1133057874015746
11
4.2809593307086615
21
-4.1138384645669293
0
LINE
8
BLACK
6
CONTINUOUS
10
4.2809593307086615
20
-4.1138384645669293
11
4.2034173228346452
21
-4.1139133858267716
0
LINE
8
BLACK
6
CONTINUOUS
10
4.2034173228346452
20
-4.1139133858267716
11
4.2030406692913385
21
-4.1138384645669293
0
LINE
8
BLACK
6
CONTINUOUS
10
4.2030406692913385
20
-4.1138384645669293
11
4.2025079921259838
21
-4.1133057874015746
0
LINE
8
BLACK
6
CONTINUOUS
10
4.2025079921259838
20
-4.1133057874015746
11
4.2024330708661415
21
-3.9790708661417322
0
LINE
8
BLACK
6
CONTINUOUS
10
4.2024330708661415
20
-3.9790708661417322
11
4.2025079921259838
21
-3.978694212598425
0
LINE
8
BLACK
6
CONTINUOUS
10
4.2025079921259838
20
-3.978694212598425
11
4.2030406692913385
21
-3.9781615354330708
0
LINE
8
BLACK
6
CONTINUOUS
10
4.2030406692913385
20
-3.9781615354330708
11
4.2805826771653539
21
-3.9780866141732281
0
LINE
8
BLACK
6
CONTINUOUS
10
4.2805826771653539
20
-3.9780866141732281
11
4.2809593307086615
21
-3.9781615354330708
0
LINE
8
BLACK
6
CONTINUOUS
10
4.2043274015748029
20
-3.9800542125984251
11
4.204401062992126
21
-4.1120184645669289
0
LINE
8
BLACK
6
CONTINUOUS
10
4.204401062992126
20
-4.1120184645669289
11
4.2796725590551183
21
-4.1119457480314958
0
LINE
8
BLACK
6
CONTINUOUS
10
4.2796725590551183
20
-4.1119457480314958
11
4.2795988976377952
21
-3.979981496062992
0
LINE
8
BLACK
6
CONTINUOUS
10
4.2795988976377952
20
-3.979981496062992
11
4.2043274015748029
21
-3.9800542125984251
0
LINE
8
BLACK
6
CONTINUOUS
10
4.5509593307086611
20
-3.9631615354330707
11
4.5514920078740158
21
-3.9636942125984249
0
LINE
8
BLACK
6
CONTINUOUS
10
4.5514920078740158
20
-3.9636942125984249
11
4.5515669291338581
21
-4.0979291338582673
0
LINE
8
BLACK
6
CONTINUOUS
10
4.5515669291338581
20
-4.0979291338582673
11
4.5514920078740158
21
-4.0983057874015749
0
LINE
8
BLACK
6
CONTINUOUS
10
4.5514920078740158
20
-4.0983057874015749
11
4.5509593307086611
21
-4.0988384645669287
0
LINE
8
BLACK
6
CONTINUOUS
10
4.5509593307086611
20
-4.0988384645669287
11
4.4734173228346457
21
-4.0989133858267719
0
LINE
8
BLACK
6
CONTINUOUS
10
4.4734173228346457
20
-4.0989133858267719
11
4.4730406692913389
21
-4.0988384645669287
0
LINE
8
BLACK
6
CONTINUOUS
10
4.4730406692913389
20
-4.0988384645669287
11
4.4725079921259843
21
-4.0983057874015749
0
LINE
8
BLACK
6
CONTINUOUS
10
4.4725079921259843
20
-4.0983057874015749
11
4.4724330708661419
21
-3.9640708661417321
0
LINE
8
BLACK
6
CONTINUOUS
10
4.4724330708661419
20
-3.9640708661417321
11
4.4725079921259843
21
-3.9636942125984249
0
LINE
8
BLACK
6
CONTINUOUS
10
4.4725079921259843
20
-3.9636942125984249
11
4.4730406692913389
21
-3.9631615354330707
0
LINE
8
BLACK
6
CONTINUOUS
10
4.4730406692913389
20
-3.9631615354330707
11
4.5505826771653544
21
-3.9630866141732284
0
LINE
8
BLACK
6
CONTINUOUS
10
4.5505826771653544
20
-3.9630866141732284
11
4.5509593307086611
21
-3.9631615354330707
0
LINE
8
BLACK
6
CONTINUOUS
10
4.4743274015748034
20
-3.9650542125984249
11
4.4744010629921256
21
-4.0970184645669292
0
LINE
8
BLACK
6
CONTINUOUS
10
4.4744010629921256
20
-4.0970184645669292
11
4.5496725590551179
21
-4.0969457480314961
0
LINE
8
BLACK
6
CONTINUOUS
10
4.5496725590551179
20
-4.0969457480314961
11
4.5495988976377948
21
-3.9649814960629919
0
LINE
8
BLACK
6
CONTINUOUS
10
4.5495988976377948
20
-3.9649814960629919
11
4.4743274015748034
21
-3.9650542125984249
0
LINE
8
BLACK
6
CONTINUOUS
10
4.1589908267716531
20
-4.0365867322834648
11
4.1595235039370078
21
-4.0371194094488185
0
LINE
8
BLACK
6
CONTINUOUS
10
4.1595235039370078
20
-4.0371194094488185
11
4.1595984251968501
21
-4.0745039370078739
0
LINE
8
BLACK
6
CONTINUOUS
10
4.1595984251968501
20
-4.0745039370078739
11
4.1595235039370078
21
-4.0748805905511807
0
LINE
8
BLACK
6
CONTINUOUS
10
4.1595235039370078
20
-4.0748805905511807
11
4.1589908267716531
21
-4.0754132677165353
0
LINE
8
BLACK
6
CONTINUOUS
10
4.1589908267716531
20
-4.0754132677165353
11
4.0853858267716534
21
-4.0754881889763777
0
LINE
8
BLACK
6
CONTINUOUS
10
4.0853858267716534
20
-4.0754881889763777
11
4.0850091732283467
21
-4.0754132677165353
0
LINE
8
BLACK
6
CONTINUOUS
10
4.0850091732283467
20
-4.0754132677165353
11
4.084476496062992
21
-4.0748805905511807
0
LINE
8
BLACK
6
CONTINUOUS
10
4.084476496062992
20
-4.0748805905511807
11
4.0844015748031497
21
-4.0374960629921262
0
LINE
8
BLACK
6
CONTINUOUS
10
4.0844015748031497
20
-4.0374960629921262
11
4.084476496062992
21
-4.0371194094488185
0
LINE
8
BLACK
6
CONTINUOUS
10
4.084476496062992
20
-4.0371194094488185
11
4.0850091732283467
21
-4.0365867322834648
0
LINE
8
BLACK
6
CONTINUOUS
10
4.0850091732283467
20
-4.0365867322834648
11
4.1586141732283464
21
-4.0365118110236216
0
LINE
8
BLACK
6
CONTINUOUS
10
4.1586141732283464
20
-4.0365118110236216
11
4.1589908267716531
21
-4.0365867322834648
0
LINE
8
BLACK
6
CONTINUOUS
10
4.0862978740157478
20
-4.0384793700787398
11
4.0863682283464566
21
-4.0735931889763775
0
LINE
8
BLACK
6
CONTINUOUS
10
4.0863682283464566
20
-4.0735931889763775
11
4.1577020866141732
21
-4.0735205905511807
0
LINE
8
BLACK
6
CONTINUOUS
10
4.1577020866141732
20
-4.0735205905511807
11
4.1576317322834644
21
-4.038406771653543
0
LINE
8
BLACK
6
CONTINUOUS
10
4.1576317322834644
20
-4.038406771653543
11
4.0862978740157478
21
-4.0384793700787398
0
LINE
8
BLACK
6
CONTINUOUS
10
4.4182034251968503
20
-3.9919804330708661
11
4.4187361023622049
21
-3.9925131102362204
0
LINE
8
BLACK
6
CONTINUOUS
10
4.4187361023622049
20
-3.9925131102362204
11
4.4188110236220473
21
-4.0291102362204727
0
LINE
8
BLACK
6
CONTINUOUS
10
4.4188110236220473
20
-4.0291102362204727
11
4.4187361023622049
21
-4.0294868897637794
0
LINE
8
BLACK
6
CONTINUOUS
10
4.4187361023622049
20
-4.0294868897637794
11
4.4182034251968503
21
-4.0300195669291341
0
LINE
8
BLACK
6
CONTINUOUS
10
4.4182034251968503
20
-4.0300195669291341
11
4.3461732283464567
21
-4.0300944881889764
0
LINE
8
BLACK
6
CONTINUOUS
10
4.3461732283464567
20
-4.0300944881889764
11
4.3457965748031491
21
-4.0300195669291341
0
LINE
8
BLACK
6
CONTINUOUS
10
4.3457965748031491
20
-4.0300195669291341
11
4.3452638976377953
21
-4.0294868897637794
0
LINE
8
BLACK
6
CONTINUOUS
10
4.3452638976377953
20
-4.0294868897637794
11
4.345188976377953
21
-3.9928897637795275
0
LINE
8
BLACK
6
CONTINUOUS
10
4.345188976377953
20
-3.9928897637795275
11
4.3452638976377953
21
-3.9925131102362204
0
LINE
8
BLACK
6
CONTINUOUS
10
4.3452638976377953
20
-3.9925131102362204
11
4.3457965748031491
21
-3.9919804330708661
0
LINE
8
BLACK
6
CONTINUOUS
10
4.3457965748031491
20
-3.9919804330708661
11
4.4178267716535435
21
-3.9919055118110234
0
LINE
8
BLACK
6
CONTINUOUS
10
4.4178267716535435
20
-3.9919055118110234
11
4.4182034251968503
21
-3.9919804330708661
0
LINE
8
BLACK
6
CONTINUOUS
10
4.3470853149606299
20
-3.9938730314960629
11
4.3471555905511812
21
-4.0281994881889762
0
LINE
8
BLACK
6
CONTINUOUS
10
4.3471555905511812
20
-4.0281994881889762
11
4.4169146456692916
21
-4.0281269291338582
0
LINE
8
BLACK
6
CONTINUOUS
10
4.4169146456692916
20
-4.0281269291338582
11
4.4168443700787403
21
-3.9938004724409448
0
LINE
8
BLACK
6
CONTINUOUS
10
4.4168443700787403
20
-3.9938004724409448
11
4.3470853149606299
21
-3.9938730314960629
0
LINE
8
BLACK
6
CONTINUOUS
10
6.1133805905511807
20
-3.943476496062992
11
6.1139132677165353
21
-3.9440091732283462
0
LINE
8
BLACK
6
CONTINUOUS
10
6.1139132677165353
20
-3.9440091732283462
11
6.1139881889763776
21
-4.0176141732283464
0
LINE
8
BLACK
6
CONTINUOUS
10
6.1139881889763776
20
-4.0176141732283464
11
6.1139132677165353
21
-4.0179908267716531
0
LINE
8
BLACK
6
CONTINUOUS
10
6.1139132677165353
20
-4.0179908267716531
11
6.1133805905511807
21
-4.0185235039370077
0
LINE
8
BLACK
6
CONTINUOUS
10
6.1133805905511807
20
-4.0185235039370077
11
6.0759960629921261
21
-4.0185984251968501
0
LINE
8
BLACK
6
CONTINUOUS
10
6.0759960629921261
20
-4.0185984251968501
11
6.0756194094488185
21
-4.0185235039370077
0
LINE
8
BLACK
6
CONTINUOUS
10
6.0756194094488185
20
-4.0185235039370077
11
6.0750867322834647
21
-4.0179908267716531
0
LINE
8
BLACK
6
CONTINUOUS
10
6.0750867322834647
20
-4.0179908267716531
11
6.0750118110236215
21
-3.9443858267716534
0
LINE
8
BLACK
6
CONTINUOUS
10
6.0750118110236215
20
-3.9443858267716534
11
6.0750867322834647
21
-3.9440091732283462
0
LINE
8
BLACK
6
CONTINUOUS
10
6.0750867322834647
20
-3.9440091732283462
11
6.0756194094488185
21
-3.943476496062992
0
LINE
8
BLACK
6
CONTINUOUS
10
6.0756194094488185
20
-3.943476496062992
11
6.1130039370078739
21
-3.9434015748031497
0
LINE
8
BLACK
6
CONTINUOUS
10
6.1130039370078739
20
-3.9434015748031497
11
6.1133805905511807
21
-3.943476496062992
0
LINE
8
BLACK
6
CONTINUOUS
10
6.076906771653543
20
-3.9453682283464566
11
6.0769793700787398
21
-4.0167020866141732
0
LINE
8
BLACK
6
CONTINUOUS
10
6.0769793700787398
20
-4.0167020866141732
11
6.1120931889763774
21
-4.0166317322834644
0
LINE
8
BLACK
6
CONTINUOUS
10
6.1120931889763774
20
-4.0166317322834644
11
6.1120205905511806
21
-3.9452978740157478
0
LINE
8
BLACK
6
CONTINUOUS
10
6.1120205905511806
20
-3.9452978740157478
11
6.076906771653543
21
-3.9453682283464566
0
LINE
8
BLACK
6
CONTINUOUS
10
6.0329868897637793
20
-3.9442638976377951
11
6.0335195669291339
21
-3.9447965748031497
0
LINE
8
BLACK
6
CONTINUOUS
10
6.0335195669291339
20
-3.9447965748031497
11
6.0335944881889763
21
-4.0168267716535428
0
LINE
8
BLACK
6
CONTINUOUS
10
6.0335944881889763
20
-4.0168267716535428
11
6.0335195669291339
21
-4.0172034251968505
0
LINE
8
BLACK
6
CONTINUOUS
10
6.0335195669291339
20
-4.0172034251968505
11
6.0329868897637793
21
-4.0177361023622042
0
LINE
8
BLACK
6
CONTINUOUS
10
6.0329868897637793
20
-4.0177361023622042
11
5.9963897637795274
21
-4.0178110236220475
0
LINE
8
BLACK
6
CONTINUOUS
10
5.9963897637795274
20
-4.0178110236220475
11
5.9960131102362206
21
-4.0177361023622042
0
LINE
8
BLACK
6
CONTINUOUS
10
5.9960131102362206
20
-4.0177361023622042
11
5.995480433070866
21
-4.0172034251968505
0
LINE
8
BLACK
6
CONTINUOUS
10
5.995480433070866
20
-4.0172034251968505
11
5.9954055118110237
21
-3.9451732283464565
0
LINE
8
BLACK
6
CONTINUOUS
10
5.9954055118110237
20
-3.9451732283464565
11
5.995480433070866
21
-3.9447965748031497
0
LINE
8
BLACK
6
CONTINUOUS
10
5.995480433070866
20
-3.9447965748031497
11
5.9960131102362206
21
-3.9442638976377951
0
LINE
8
BLACK
6
CONTINUOUS
10
5.9960131102362206
20
-3.9442638976377951
11
6.0326102362204725
21
-3.9441889763779527
0
LINE
8
BLACK
6
CONTINUOUS
10
6.0326102362204725
20
-3.9441889763779527
11
6.0329868897637793
21
-3.9442638976377951
0
LINE
8
BLACK
6
CONTINUOUS
10
5.9973004724409451
20
-3.9461555905511809
11
5.9973730314960632
21
-4.0159146456692909
0
LINE
8
BLACK
6
CONTINUOUS
10
5.9973730314960632
20
-4.0159146456692909
11
6.0316994881889761
21
-4.0158443700787396
0
LINE
8
BLACK
6
CONTINUOUS
10
6.0316994881889761
20
-4.0158443700787396
11
6.031626929133858
21
-3.9460853149606296
0
LINE
8
BLACK
6
CONTINUOUS
10
6.031626929133858
20
-3.9460853149606296
11
5.9973004724409451
21
-3.9461555905511809
0
LINE
8
BLACK
6
CONTINUOUS
10
5.03052625984252
20
-3.8383190157480316
11
5.0310589370078738
21
-3.8388516929133858
0
LINE
8
BLACK
6
CONTINUOUS
10
5.0310589370078738
20
-3.8388516929133858
11
5.0311338582677161
21
-3.9927716535433069
0
LINE
8
BLACK
6
CONTINUOUS
10
5.0311338582677161
20
-3.9927716535433069
11
5.0310589370078738
21
-3.9931483070866141
0
LINE
8
BLACK
6
CONTINUOUS
10
5.0310589370078738
20
-3.9931483070866141
11
5.03052625984252
21
-3.9936809842519683
0
LINE
8
BLACK
6
CONTINUOUS
10
5.03052625984252
20
-3.9936809842519683
11
4.9238503937007874
21
-3.993755905511811
0
LINE
8
BLACK
6
CONTINUOUS
10
4.9238503937007874
20
-3.993755905511811
11
4.9234737401574806
21
-3.9936809842519683
0
LINE
8
BLACK
6
CONTINUOUS
10
4.9234737401574806
20
-3.9936809842519683
11
4.922941062992126
21
-3.9931483070866141
0
LINE
8
BLACK
6
CONTINUOUS
10
4.922941062992126
20
-3.9931483070866141
11
4.9228661417322837
21
-3.839228346456693
0
LINE
8
BLACK
6
CONTINUOUS
10
4.9228661417322837
20
-3.839228346456693
11
4.922941062992126
21
-3.8388516929133858
0
LINE
8
BLACK
6
CONTINUOUS
10
4.922941062992126
20
-3.8388516929133858
11
4.9234737401574806
21
-3.8383190157480316
0
LINE
8
BLACK
6
CONTINUOUS
10
4.9234737401574806
20
-3.8383190157480316
11
5.0301496062992124
21
-3.8382440944881888
0
LINE
8
BLACK
6
CONTINUOUS
10
5.0301496062992124
20
-3.8382440944881888
11
5.03052625984252
21
-3.8383190157480316
0
LINE
8
BLACK
6
CONTINUOUS
10
4.9247603543307088
20
-3.8402119291338583
11
4.924834173228346
21
-3.9918613385826771
0
LINE
8
BLACK
6
CONTINUOUS
10
4.924834173228346
20
-3.9918613385826771
11
5.0292396062992122
21
-3.9917880314960628
0
LINE
8
BLACK
6
CONTINUOUS
10
5.0292396062992122
20
-3.9917880314960628
11
5.0291657874015749
21
-3.840138622047244
0
LINE
8
BLACK
6
CONTINUOUS
10
5.0291657874015749
20
-3.840138622047244
11
4.9247603543307088
21
-3.8402119291338583
0
LINE
8
BLACK
6
CONTINUOUS
10
4.184778228346457
20
-3.848948937007874
11
4.1853109055118107
21
-3.8494816141732282
0
LINE
8
BLACK
6
CONTINUOUS
10
4.1853109055118107
20
-3.8494816141732282
11
4.1853858267716531
21
-3.9821417322834645
0
LINE
8
BLACK
6
CONTINUOUS
10
4.1853858267716531
20
-3.9821417322834645
11
4.1853109055118107
21
-3.9825183858267716
0
LINE
8
BLACK
6
CONTINUOUS
10
4.1853109055118107
20
-3.9825183858267716
11
4.184778228346457
21
-3.9830510629921259
0
LINE
8
BLACK
6
CONTINUOUS
10
4.184778228346457
20
-3.9830510629921259
11
4.1095984251968503
21
-3.9831259842519686
0
LINE
8
BLACK
6
CONTINUOUS
10
4.1095984251968503
20
-3.9831259842519686
11
4.1092217716535435
21
-3.9830510629921259
0
LINE
8
BLACK
6
CONTINUOUS
10
4.1092217716535435
20
-3.9830510629921259
11
4.1086890944881889
21
-3.9825183858267716
0
LINE
8
BLACK
6
CONTINUOUS
10
4.1086890944881889
20
-3.9825183858267716
11
4.1086141732283465
21
-3.8498582677165354
0
LINE
8
BLACK
6
CONTINUOUS
10
4.1086141732283465
20
-3.8498582677165354
11
4.1086890944881889
21
-3.8494816141732282
0
LINE
8
BLACK
6
CONTINUOUS
10
4.1086890944881889
20
-3.8494816141732282
11
4.1092217716535435
21
-3.848948937007874
0
LINE
8
BLACK
6
CONTINUOUS
10
4.1092217716535435
20
-3.848948937007874
11
4.1844015748031493
21
-3.8488740157480312
0
LINE
8
BLACK
6
CONTINUOUS
10
4.1844015748031493
20
-3.8488740157480312
11
4.184778228346457
21
-3.848948937007874
0
LINE
8
BLACK
6
CONTINUOUS
10
4.110508503937008
20
-3.8508415748031495
11
4.1105821259842514
21
-3.9812310236220472
0
LINE
8
BLACK
6
CONTINUOUS
10
4.1105821259842514
20
-3.9812310236220472
11
4.1834914566929129
21
-3.9811583858267716
0
LINE
8
BLACK
6
CONTINUOUS
10
4.1834914566929129
20
-3.9811583858267716
11
4.1834178346456694
21
-3.8507689370078739
0
LINE
8
BLACK
6
CONTINUOUS
10
4.1834178346456694
20
-3.8507689370078739
11
4.110508503937008
21
-3.8508415748031495
0
LINE
8
BLACK
6
CONTINUOUS
10
6.1546404330708659
20
-3.8284961811023623
11
6.1551731102362206
21
-3.8290288582677166
0
LINE
8
BLACK
6
CONTINUOUS
10
6.1551731102362206
20
-3.8290288582677166
11
6.1552480314960629
21
-3.9175944881889762
0
LINE
8
BLACK
6
CONTINUOUS
10
6.1552480314960629
20
-3.9175944881889762
11
6.1551731102362206
21
-3.9179711417322833
0
LINE
8
BLACK
6
CONTINUOUS
10
6.1551731102362206
20
-3.9179711417322833
11
6.1546404330708659
21
-3.9185038188976375
0
LINE
8
BLACK
6
CONTINUOUS
10
6.1546404330708659
20
-3.9185038188976375
11
5.9747362204724412
21
-3.9185787401574803
0
LINE
8
BLACK
6
CONTINUOUS
10
5.9747362204724412
20
-3.9185787401574803
11
5.9743595669291336
21
-3.9185038188976375
0
LINE
8
BLACK
6
CONTINUOUS
10
5.9743595669291336
20
-3.9185038188976375
11
5.973826889763779
21
-3.9179711417322833
0
LINE
8
BLACK
6
CONTINUOUS
10
5.973826889763779
20
-3.9179711417322833
11
5.9737519685039366
21
-3.8294055118110237
0
LINE
8
BLACK
6
CONTINUOUS
10
5.9737519685039366
20
-3.8294055118110237
11
5.973826889763779
21
-3.8290288582677166
0
LINE
8
BLACK
6
CONTINUOUS
10
5.973826889763779
20
-3.8290288582677166
11
5.9743595669291336
21
-3.8284961811023623
0
LINE
8
BLACK
6
CONTINUOUS
10
5.9743595669291336
20
-3.8284961811023623
11
6.1542637795275592
21
-3.8284212598425196
0
LINE
8
BLACK
6
CONTINUOUS
10
6.1542637795275592
20
-3.8284212598425196
11
6.1546404330708659
21
-3.8284961811023623
0
LINE
8
BLACK
6
CONTINUOUS
10
5.9756466929133856
20
-3.8303893700787399
11
5.9757196850393699
21
-3.9166845669291339
0
LINE
8
BLACK
6
CONTINUOUS
10
5.9757196850393699
20
-3.9166845669291339
11
6.1533532677165352
21
-3.9166105905511812
0
LINE
8
BLACK
6
CONTINUOUS
10
6.1533532677165352
20
-3.9166105905511812
11
6.1532802755905509
21
-3.8303153937007872
0
LINE
8
BLACK
6
CONTINUOUS
10
6.1532802755905509
20
-3.8303153937007872
11
5.9756466929133856
21
-3.8303893700787399
0
LINE
8
BLACK
6
CONTINUOUS
10
5.7809593307086615
20
-3.6831615354330709
11
5.7814920078740153
21
-3.6836942125984251
0
LINE
8
BLACK
6
CONTINUOUS
10
5.7814920078740153
20
-3.6836942125984251
11
5.7815669291338585
21
-3.8179291338582675
0
LINE
8
BLACK
6
CONTINUOUS
10
5.7815669291338585
20
-3.8179291338582675
11
5.7814920078740153
21
-3.8183057874015747
0
LINE
8
BLACK
6
CONTINUOUS
10
5.7814920078740153
20
-3.8183057874015747
11
5.7809593307086615
21
-3.8188384645669289
0
LINE
8
BLACK
6
CONTINUOUS
10
5.7809593307086615
20
-3.8188384645669289
11
5.7034173228346452
21
-3.8189133858267716
0
LINE
8
BLACK
6
CONTINUOUS
10
5.7034173228346452
20
-3.8189133858267716
11
5.7030406692913385
21
-3.8188384645669289
0
LINE
8
BLACK
6
CONTINUOUS
10
5.7030406692913385
20
-3.8188384645669289
11
5.7025079921259838
21
-3.8183057874015747
0
LINE
8
BLACK
6
CONTINUOUS
10
5.7025079921259838
20
-3.8183057874015747
11
5.7024330708661415
21
-3.6840708661417323
0
LINE
8
BLACK
6
CONTINUOUS
10
5.7024330708661415
20
-3.6840708661417323
11
5.7025079921259838
21
-3.6836942125984251
0
LINE
8
BLACK
6
CONTINUOUS
10
5.7025079921259838
20
-3.6836942125984251
11
5.7030406692913385
21
-3.6831615354330709
0
LINE
8
BLACK
6
CONTINUOUS
10
5.7030406692913385
20
-3.6831615354330709
11
5.7805826771653539
21
-3.6830866141732281
0
LINE
8
BLACK
6
CONTINUOUS
10
5.7805826771653539
20
-3.6830866141732281
11
5.7809593307086615
21
-3.6831615354330709
0
LINE
8
BLACK
6
CONTINUOUS
10
5.7043274015748029
20
-3.6850542125984251
11
5.704401062992126
21
-3.8170184645669289
0
LINE
8
BLACK
6
CONTINUOUS
10
5.704401062992126
20
-3.8170184645669289
11
5.7796725590551183
21
-3.8169457480314959
0
LINE
8
BLACK
6
CONTINUOUS
10
5.7796725590551183
20
-3.8169457480314959
11
5.7795988976377952
21
-3.6849814960629921
0
LINE
8
BLACK
6
CONTINUOUS
10
5.7795988976377952
20
-3.6849814960629921
11
5.7043274015748029
21
-3.6850542125984251
0
LINE
8
BLACK
6
CONTINUOUS
10
6.1539908267716532
20
-3.7790867322834645
11
6.1545235039370079
21
-3.7796194094488187
0
LINE
8
BLACK
6
CONTINUOUS
10
6.1545235039370079
20
-3.7796194094488187
11
6.1545984251968502
21
-3.8170039370078741
0
LINE
8
BLACK
6
CONTINUOUS
10
6.1545984251968502
20
-3.8170039370078741
11
6.1545235039370079
21
-3.8173805905511808
0
LINE
8
BLACK
6
CONTINUOUS
10
6.1545235039370079
20
-3.8173805905511808
11
6.1539908267716532
21
-3.8179132677165355
0
LINE
8
BLACK
6
CONTINUOUS
10
6.1539908267716532
20
-3.8179132677165355
11
6.0803858267716535
21
-3.8179881889763778
0
LINE
8
BLACK
6
CONTINUOUS
10
6.0803858267716535
20
-3.8179881889763778
11
6.0800091732283459
21
-3.8179132677165355
0
LINE
8
BLACK
6
CONTINUOUS
10
6.0800091732283459
20
-3.8179132677165355
11
6.0794764960629921
21
-3.8173805905511808
0
LINE
8
BLACK
6
CONTINUOUS
10
6.0794764960629921
20
-3.8173805905511808
11
6.0794015748031498
21
-3.7799960629921259
0
LINE
8
BLACK
6
CONTINUOUS
10
6.0794015748031498
20
-3.7799960629921259
11
6.0794764960629921
21
-3.7796194094488187
0
LINE
8
BLACK
6
CONTINUOUS
10
6.0794764960629921
20
-3.7796194094488187
11
6.0800091732283459
21
-3.7790867322834645
0
LINE
8
BLACK
6
CONTINUOUS
10
6.0800091732283459
20
-3.7790867322834645
11
6.1536141732283465
21
-3.7790118110236222
0
LINE
8
BLACK
6
CONTINUOUS
10
6.1536141732283465
20
-3.7790118110236222
11
6.1539908267716532
21
-3.7790867322834645
0
LINE
8
BLACK
6
CONTINUOUS
10
6.081297874015748
20
-3.78097937007874
11
6.0813682283464567
21
-3.8160931889763781
0
LINE
8
BLACK
6
CONTINUOUS
10
6.0813682283464567
20
-3.8160931889763781
11
6.1527020866141733
21
-3.8160205905511808
0
LINE
8
BLACK
6
CONTINUOUS
10
6.1527020866141733
20
-3.8160205905511808
11
6.1526317322834645
21
-3.7809067716535432
0
LINE
8
BLACK
6
CONTINUOUS
10
6.1526317322834645
20
-3.7809067716535432
11
6.081297874015748
21
-3.78097937007874
0
LINE
8
BLACK
6
CONTINUOUS
10
5.9029868897637794
20
-3.551763897637795
11
5.903519566929134
21
-3.5522965748031496
0
LINE
8
BLACK
6
CONTINUOUS
10
5.903519566929134
20
-3.5522965748031496
11
5.9035944881889764
21
-3.6243267716535432
0
LINE
8
BLACK
6
CONTINUOUS
10
5.9035944881889764
20
-3.6243267716535432
11
5.903519566929134
21
-3.6247034251968504
0
LINE
8
BLACK
6
CONTINUOUS
10
5.903519566929134
20
-3.6247034251968504
11
5.9029868897637794
21
-3.6252361023622046
0
LINE
8
BLACK
6
CONTINUOUS
10
5.9029868897637794
20
-3.6252361023622046
11
5.8663897637795275
21
-3.6253110236220474
0
LINE
8
BLACK
6
CONTINUOUS
10
5.8663897637795275
20
-3.6253110236220474
11
5.8660131102362207
21
-3.6252361023622046
0
LINE
8
BLACK
6
CONTINUOUS
10
5.8660131102362207
20
-3.6252361023622046
11
5.8654804330708661
21
-3.6247034251968504
0
LINE
8
BLACK
6
CONTINUOUS
10
5.8654804330708661
20
-3.6247034251968504
11
5.8654055118110238
21
-3.5526732283464568
0
LINE
8
BLACK
6
CONTINUOUS
10
5.8654055118110238
20
-3.5526732283464568
11
5.8654804330708661
21
-3.5522965748031496
0
LINE
8
BLACK
6
CONTINUOUS
10
5.8654804330708661
20
-3.5522965748031496
11
5.8660131102362207
21
-3.551763897637795
0
LINE
8
BLACK
6
CONTINUOUS
10
5.8660131102362207
20
-3.551763897637795
11
5.9026102362204727
21
-3.5516889763779527
0
LINE
8
BLACK
6
CONTINUOUS
10
5.9026102362204727
20
-3.5516889763779527
11
5.9029868897637794
21
-3.551763897637795
0
LINE
8
BLACK
6
CONTINUOUS
10
5.8673004724409443
20
-3.5536555905511809
11
5.8673730314960633
21
-3.6234146456692913
0
LINE
8
BLACK
6
CONTINUOUS
10
5.8673730314960633
20
-3.6234146456692913
11
5.9016994881889762
21
-3.62334437007874
0
LINE
8
BLACK
6
CONTINUOUS
10
5.9016994881889762
20
-3.62334437007874
11
5.9016269291338581
21
-3.55358531496063
0
LINE
8
BLACK
6
CONTINUOUS
10
5.9016269291338581
20
-3.55358531496063
11
5.8673004724409443
21
-3.5536555905511809
0
LINE
8
BLACK
6
CONTINUOUS
10
4.7919593307086616
20
-3.4831615354330707
11
4.7924920078740154
21
-3.4836942125984249
0
LINE
8
BLACK
6
CONTINUOUS
10
4.7924920078740154
20
-3.4836942125984249
11
4.7925669291338577
21
-3.6179291338582678
0
LINE
8
BLACK
6
CONTINUOUS
10
4.7925669291338577
20
-3.6179291338582678
11
4.7924920078740154
21
-3.6183057874015749
0
LINE
8
BLACK
6
CONTINUOUS
10
4.7924920078740154
20
-3.6183057874015749
11
4.7919593307086616
21
-3.6188384645669291
0
LINE
8
BLACK
6
CONTINUOUS
10
4.7919593307086616
20
-3.6188384645669291
11
4.7144173228346453
21
-3.6189133858267715
0
LINE
8
BLACK
6
CONTINUOUS
10
4.7144173228346453
20
-3.6189133858267715
11
4.7140982677165351
21
-3.6188499212598426
0
LINE
8
BLACK
6
CONTINUOUS
10
4.7140982677165351
20
-3.6188499212598426
11
4.6484173228346455
21
-3.6189133858267715
0
LINE
8
BLACK
6
CONTINUOUS
10
4.6484173228346455
20
-3.6189133858267715
11
4.6480406692913387
21
-3.6188384645669291
0
LINE
8
BLACK
6
CONTINUOUS
10
4.6480406692913387
20
-3.6188384645669291
11
4.6475079921259841
21
-3.6183057874015749
0
LINE
8
BLACK
6
CONTINUOUS
10
4.6475079921259841
20
-3.6183057874015749
11
4.6474330708661418
21
-3.4840708661417321
0
LINE
8
BLACK
6
CONTINUOUS
10
4.6474330708661418
20
-3.4840708661417321
11
4.6475079921259841
21
-3.4836942125984249
0
LINE
8
BLACK
6
CONTINUOUS
10
4.6475079921259841
20
-3.4836942125984249
11
4.6480406692913387
21
-3.4831615354330707
0
LINE
8
BLACK
6
CONTINUOUS
10
4.6480406692913387
20
-3.4831615354330707
11
4.7255826771653542
21
-3.4830866141732284
0
LINE
8
BLACK
6
CONTINUOUS
10
4.7255826771653542
20
-3.4830866141732284
11
4.7259016929133857
21
-3.4831500393700785
0
LINE
8
BLACK
6
CONTINUOUS
10
4.7259016929133857
20
-3.4831500393700785
11
4.791582677165354
21
-3.4830866141732284
0
LINE
8
BLACK
6
CONTINUOUS
10
4.791582677165354
20
-3.4830866141732284
11
4.7919593307086616
21
-3.4831615354330707
0
LINE
8
BLACK
6
CONTINUOUS
10
4.6493274015748032
20
-3.485054212598425
11
4.6494010629921263
21
-3.6170184645669292
0
LINE
8
BLACK
6
CONTINUOUS
10
4.6494010629921263
20
-3.6170184645669292
11
4.7135072047244098
21
-3.6169565354330708
0
LINE
8
BLACK
6
CONTINUOUS
10
4.7135072047244098
20
-3.6169565354330708
11
4.7134335826771654
21
-3.484992283464567
0
LINE
8
BLACK
6
CONTINUOUS
10
4.7134335826771654
20
-3.484992283464567
11
4.6493274015748032
21
-3.485054212598425
0
LINE
8
BLACK
6
CONTINUOUS
10
4.7264927559055119
20
-3.4850434251968503
11
4.7265663779527554
21
-3.6170076771653541
0
LINE
8
BLACK
6
CONTINUOUS
10
4.7265663779527554
20
-3.6170076771653541
11
4.7906725590551176
21
-3.6169457480314962
0
LINE
8
BLACK
6
CONTINUOUS
10
4.7906725590551176
20
-3.6169457480314962
11
4.7905988976377953
21
-3.4849814960629919
0
LINE
8
BLACK
6
CONTINUOUS
10
4.7905988976377953
20
-3.4849814960629919
11
4.7264927559055119
21
-3.4850434251968503
0
LINE
8
BLACK
6
CONTINUOUS
10
4.715327401574803
20
-3.485054212598425
11
4.7154010236220474
21
-3.6169546850393699
0
LINE
8
BLACK
6
CONTINUOUS
10
4.7154010236220474
20
-3.6169546850393699
11
4.7246725590551177
21
-3.6169457480314962
0
LINE
8
BLACK
6
CONTINUOUS
10
4.7246725590551177
20
-3.6169457480314962
11
4.7245989370078743
21
-3.4850452755905512
0
LINE
8
BLACK
6
CONTINUOUS
10
4.7245989370078743
20
-3.4850452755905512
11
4.715327401574803
21
-3.485054212598425
0
LINE
8
BLACK
6
CONTINUOUS
10
4.5904868897637794
20
-3.3936638976377953
11
4.591019566929134
21
-3.3941965748031495
0
LINE
8
BLACK
6
CONTINUOUS
10
4.591019566929134
20
-3.3941965748031495
11
4.5910944881889764
21
-3.4662267716535431
0
LINE
8
BLACK
6
CONTINUOUS
10
4.5910944881889764
20
-3.4662267716535431
11
4.591019566929134
21
-3.4666034251968503
0
LINE
8
BLACK
6
CONTINUOUS
10
4.591019566929134
20
-3.4666034251968503
11
4.5904868897637794
21
-3.4671361023622045
0
LINE
8
BLACK
6
CONTINUOUS
10
4.5904868897637794
20
-3.4671361023622045
11
4.5538897637795275
21
-3.4672110236220473
0
LINE
8
BLACK
6
CONTINUOUS
10
4.5538897637795275
20
-3.4672110236220473
11
4.5535131102362207
21
-3.4671361023622045
0
LINE
8
BLACK
6
CONTINUOUS
10
4.5535131102362207
20
-3.4671361023622045
11
4.5529804330708661
21
-3.4666034251968503
0
LINE
8
BLACK
6
CONTINUOUS
10
4.5529804330708661
20
-3.4666034251968503
11
4.5529055118110238
21
-3.3945732283464567
0
LINE
8
BLACK
6
CONTINUOUS
10
4.5529055118110238
20
-3.3945732283464567
11
4.5529804330708661
21
-3.3941965748031495
0
LINE
8
BLACK
6
CONTINUOUS
10
4.5529804330708661
20
-3.3941965748031495
11
4.5535131102362207
21
-3.3936638976377953
0
LINE
8
BLACK
6
CONTINUOUS
10
4.5535131102362207
20
-3.3936638976377953
11
4.5901102362204727
21
-3.3935889763779525
0
LINE
8
BLACK
6
CONTINUOUS
10
4.5901102362204727
20
-3.3935889763779525
11
4.5904868897637794
21
-3.3936638976377953
0
LINE
8
BLACK
6
CONTINUOUS
10
4.5548004724409452
20
-3.3955555905511812
11
4.5548730314960633
21
-3.4653146456692911
0
LINE
8
BLACK
6
CONTINUOUS
10
4.5548730314960633
20
-3.4653146456692911
11
4.5891994881889762
21
-3.4652443700787399
0
LINE
8
BLACK
6
CONTINUOUS
10
4.5891994881889762
20
-3.4652443700787399
11
4.5891269291338581
21
-3.3954853149606299
0
LINE
8
BLACK
6
CONTINUOUS
10
4.5891269291338581
20
-3.3954853149606299
11
4.5548004724409452
21
-3.3955555905511812
0
LINE
8
BLACK
6
CONTINUOUS
10
4.7859593307086614
20
-3.2481615354330708
11
4.7864920078740161
21
-3.2486942125984251
0
LINE
8
BLACK
6
CONTINUOUS
10
4.7864920078740161
20
-3.2486942125984251
11
4.7865669291338584
21
-3.3829291338582674
0
LINE
8
BLACK
6
CONTINUOUS
10
4.7865669291338584
20
-3.3829291338582674
11
4.7864920078740161
21
-3.3833057874015746
0
LINE
8
BLACK
6
CONTINUOUS
10
4.7864920078740161
20
-3.3833057874015746
11
4.7859593307086614
21
-3.3838384645669293
0
LINE
8
BLACK
6
CONTINUOUS
10
4.7859593307086614
20
-3.3838384645669293
11
4.708417322834646
21
-3.3839133858267716
0
LINE
8
BLACK
6
CONTINUOUS
10
4.708417322834646
20
-3.3839133858267716
11
4.7080406692913384
21
-3.3838384645669293
0
LINE
8
BLACK
6
CONTINUOUS
10
4.7080406692913384
20
-3.3838384645669293
11
4.7075079921259846
21
-3.3833057874015746
0
LINE
8
BLACK
6
CONTINUOUS
10
4.7075079921259846
20
-3.3833057874015746
11
4.7074330708661414
21
-3.2490708661417322
0
LINE
8
BLACK
6
CONTINUOUS
10
4.7074330708661414
20
-3.2490708661417322
11
4.7075079921259846
21
-3.2486942125984251
0
LINE
8
BLACK
6
CONTINUOUS
10
4.7075079921259846
20
-3.2486942125984251
11
4.7080406692913384
21
-3.2481615354330708
0
LINE
8
BLACK
6
CONTINUOUS
10
4.7080406692913384
20
-3.2481615354330708
11
4.7855826771653538
21
-3.2480866141732281
0
LINE
8
BLACK
6
CONTINUOUS
10
4.7855826771653538
20
-3.2480866141732281
11
4.7859593307086614
21
-3.2481615354330708
0
LINE
8
BLACK
6
CONTINUOUS
10
4.7093274015748028
20
-3.2500542125984251
11
4.7094010629921259
21
-3.3820184645669289
0
LINE
8
BLACK
6
CONTINUOUS
10
4.7094010629921259
20
-3.3820184645669289
11
4.7846725590551182
21
-3.3819457480314958
0
LINE
8
BLACK
6
CONTINUOUS
10
4.7846725590551182
20
-3.3819457480314958
11
4.7845988976377951
21
-3.249981496062992
0
LINE
8
BLACK
6
CONTINUOUS
10
4.7845988976377951
20
-3.249981496062992
11
4.7093274015748028
21
-3.2500542125984251
0
LINE
8
BLACK
6
CONTINUOUS
10
5.2004868897637797
20
-3.3092638976377953
11
5.2010195669291335
21
-3.3097965748031495
0
LINE
8
BLACK
6
CONTINUOUS
10
5.2010195669291335
20
-3.3097965748031495
11
5.2010944881889767
21
-3.3818267716535431
0
LINE
8
BLACK
6
CONTINUOUS
10
5.2010944881889767
20
-3.3818267716535431
11
5.2010195669291335
21
-3.3822034251968502
0
LINE
8
BLACK
6
CONTINUOUS
10
5.2010195669291335
20
-3.3822034251968502
11
5.2004868897637797
21
-3.3827361023622045
0
LINE
8
BLACK
6
CONTINUOUS
10
5.2004868897637797
20
-3.3827361023622045
11
5.1638897637795278
21
-3.3828110236220472
0
LINE
8
BLACK
6
CONTINUOUS
10
5.1638897637795278
20
-3.3828110236220472
11
5.1635131102362202
21
-3.3827361023622045
0
LINE
8
BLACK
6
CONTINUOUS
10
5.1635131102362202
20
-3.3827361023622045
11
5.1629804330708664
21
-3.3822034251968502
0
LINE
8
BLACK
6
CONTINUOUS
10
5.1629804330708664
20
-3.3822034251968502
11
5.1629055118110232
21
-3.3101732283464567
0
LINE
8
BLACK
6
CONTINUOUS
10
5.1629055118110232
20
-3.3101732283464567
11
5.1629804330708664
21
-3.3097965748031495
0
LINE
8
BLACK
6
CONTINUOUS
10
5.1629804330708664
20
-3.3097965748031495
11
5.1635131102362202
21
-3.3092638976377953
0
LINE
8
BLACK
6
CONTINUOUS
10
5.1635131102362202
20
-3.3092638976377953
11
5.2001102362204721
21
-3.3091889763779525
0
LINE
8
BLACK
6
CONTINUOUS
10
5.2001102362204721
20
-3.3091889763779525
11
5.2004868897637797
21
-3.3092638976377953
0
LINE
8
BLACK
6
CONTINUOUS
10
5.1648004724409446
20
-3.3111555905511811
11
5.1648730314960627
21
-3.3809146456692911
0
LINE
8
BLACK
6
CONTINUOUS
10
5.1648730314960627
20
-3.3809146456692911
11
5.1991994881889765
21
-3.3808443700787403
0
LINE
8
BLACK
6
CONTINUOUS
10
5.1991994881889765
20
-3.3808443700787403
11
5.1991269291338584
21
-3.3110853149606299
0
LINE
8
BLACK
6
CONTINUOUS
10
5.1991269291338584
20
-3.3110853149606299
11
5.1648004724409446
21
-3.3111555905511811
0
LINE
8
BLACK
6
CONTINUOUS
10
4.9308805905511806
20
-3.278476496062992
11
4.9314132677165352
21
-3.2790091732283462
0
LINE
8
BLACK
6
CONTINUOUS
10
4.9314132677165352
20
-3.2790091732283462
11
4.9314881889763775
21
-3.3526141732283463
0
LINE
8
BLACK
6
CONTINUOUS
10
4.9314881889763775
20
-3.3526141732283463
11
4.9314132677165352
21
-3.3529908267716535
0
LINE
8
BLACK
6
CONTINUOUS
10
4.9314132677165352
20
-3.3529908267716535
11
4.9308805905511806
21
-3.3535235039370077
0
LINE
8
BLACK
6
CONTINUOUS
10
4.9308805905511806
20
-3.3535235039370077
11
4.893496062992126
21
-3.3535984251968505
0
LINE
8
BLACK
6
CONTINUOUS
10
4.893496062992126
20
-3.3535984251968505
11
4.8931194094488184
21
-3.3535235039370077
0
LINE
8
BLACK
6
CONTINUOUS
10
4.8931194094488184
20
-3.3535235039370077
11
4.8925867322834646
21
-3.3529908267716535
0
LINE
8
BLACK
6
CONTINUOUS
10
4.8925867322834646
20
-3.3529908267716535
11
4.8925118110236223
21
-3.2793858267716534
0
LINE
8
BLACK
6
CONTINUOUS
10
4.8925118110236223
20
-3.2793858267716534
11
4.8925867322834646
21
-3.2790091732283462
0
LINE
8
BLACK
6
CONTINUOUS
10
4.8925867322834646
20
-3.2790091732283462
11
4.8931194094488184
21
-3.278476496062992
0
LINE
8
BLACK
6
CONTINUOUS
10
4.8931194094488184
20
-3.278476496062992
11
4.9305039370078738
21
-3.2784015748031496
0
LINE
8
BLACK
6
CONTINUOUS
10
4.9305039370078738
20
-3.2784015748031496
11
4.9308805905511806
21
-3.278476496062992
0
LINE
8
BLACK
6
CONTINUOUS
10
4.8944067716535429
20
-3.2803682283464566
11
4.8944793700787397
21
-3.3517020866141731
0
LINE
8
BLACK
6
CONTINUOUS
10
4.8944793700787397
20
-3.3517020866141731
11
4.9295931889763782
21
-3.3516317322834643
0
LINE
8
BLACK
6
CONTINUOUS
10
4.9295931889763782
20
-3.3516317322834643
11
4.9295205905511814
21
-3.2802978740157478
0
LINE
8
BLACK
6
CONTINUOUS
10
4.9295205905511814
20
-3.2802978740157478
11
4.8944067716535429
21
-3.2803682283464566
0
LINE
8
BLACK
6
CONTINUOUS
10
5.2908805905511809
20
-3.2309764960629921
11
5.2914132677165355
21
-3.2315091732283463
0
LINE
8
BLACK
6
CONTINUOUS
10
5.2914132677165355
20
-3.2315091732283463
11
5.2914881889763778
21
-3.3051141732283464
0
LINE
8
BLACK
6
CONTINUOUS
10
5.2914881889763778
20
-3.3051141732283464
11
5.2914132677165355
21
-3.3054908267716536
0
LINE
8
BLACK
6
CONTINUOUS
10
5.2914132677165355
20
-3.3054908267716536
11
5.2908805905511809
21
-3.3060235039370078
0
LINE
8
BLACK
6
CONTINUOUS
10
5.2908805905511809
20
-3.3060235039370078
11
5.2534960629921255
21
-3.3060984251968502
0
LINE
8
BLACK
6
CONTINUOUS
10
5.2534960629921255
20
-3.3060984251968502
11
5.2531194094488187
21
-3.3060235039370078
0
LINE
8
BLACK
6
CONTINUOUS
10
5.2531194094488187
20
-3.3060235039370078
11
5.2525867322834641
21
-3.3054908267716536
0
LINE
8
BLACK
6
CONTINUOUS
10
5.2525867322834641
20
-3.3054908267716536
11
5.2525118110236217
21
-3.2318858267716535
0
LINE
8
BLACK
6
CONTINUOUS
10
5.2525118110236217
20
-3.2318858267716535
11
5.2525867322834641
21
-3.2315091732283463
0
LINE
8
BLACK
6
CONTINUOUS
10
5.2525867322834641
20
-3.2315091732283463
11
5.2531194094488187
21
-3.2309764960629921
0
LINE
8
BLACK
6
CONTINUOUS
10
5.2531194094488187
20
-3.2309764960629921
11
5.2905039370078741
21
-3.2309015748031493
0
LINE
8
BLACK
6
CONTINUOUS
10
5.2905039370078741
20
-3.2309015748031493
11
5.2908805905511809
21
-3.2309764960629921
0
LINE
8
BLACK
6
CONTINUOUS
10
5.2544067716535432
20
-3.2328682283464567
11
5.25447937007874
21
-3.3042020866141733
0
LINE
8
BLACK
6
CONTINUOUS
10
5.25447937007874
20
-3.3042020866141733
11
5.2895931889763776
21
-3.3041317322834645
0
LINE
8
BLACK
6
CONTINUOUS
10
5.2895931889763776
20
-3.3041317322834645
11
5.2895205905511808
21
-3.2327978740157479
0
LINE
8
BLACK
6
CONTINUOUS
10
5.2895205905511808
20
-3.2327978740157479
11
5.2544067716535432
21
-3.2328682283464567
0
LINE
8
BLACK
6
CONTINUOUS
10
5.7408805905511811
20
-3.2234764960629922
11
5.7414132677165357
21
-3.2240091732283465
0
LINE
8
BLACK
6
CONTINUOUS
10
5.7414132677165357
20
-3.2240091732283465
11
5.741488188976378
21
-3.2976141732283466
0
LINE
8
BLACK
6
CONTINUOUS
10
5.741488188976378
20
-3.2976141732283466
11
5.7414132677165357
21
-3.2979908267716533
0
LINE
8
BLACK
6
CONTINUOUS
10
5.7414132677165357
20
-3.2979908267716533
11
5.7408805905511811
21
-3.298523503937008
0
LINE
8
BLACK
6
CONTINUOUS
10
5.7408805905511811
20
-3.298523503937008
11
5.7034960629921256
21
-3.2985984251968503
0
LINE
8
BLACK
6
CONTINUOUS
10
5.7034960629921256
20
-3.2985984251968503
11
5.7031194094488189
21
-3.298523503937008
0
LINE
8
BLACK
6
CONTINUOUS
10
5.7031194094488189
20
-3.298523503937008
11
5.7025867322834642
21
-3.2979908267716533
0
LINE
8
BLACK
6
CONTINUOUS
10
5.7025867322834642
20
-3.2979908267716533
11
5.7025118110236219
21
-3.2243858267716536
0
LINE
8
BLACK
6
CONTINUOUS
10
5.7025118110236219
20
-3.2243858267716536
11
5.7025867322834642
21
-3.2240091732283465
0
LINE
8
BLACK
6
CONTINUOUS
10
5.7025867322834642
20
-3.2240091732283465
11
5.7031194094488189
21
-3.2234764960629922
0
LINE
8
BLACK
6
CONTINUOUS
10
5.7031194094488189
20
-3.2234764960629922
11
5.7405039370078743
21
-3.2234015748031495
0
LINE
8
BLACK
6
CONTINUOUS
10
5.7405039370078743
20
-3.2234015748031495
11
5.7408805905511811
21
-3.2234764960629922
0
LINE
8
BLACK
6
CONTINUOUS
10
5.7044067716535434
20
-3.2253682283464564
11
5.7044793700787402
21
-3.296702086614173
0
LINE
8
BLACK
6
CONTINUOUS
10
5.7044793700787402
20
-3.296702086614173
11
5.7395931889763778
21
-3.2966317322834646
0
LINE
8
BLACK
6
CONTINUOUS
10
5.7395931889763778
20
-3.2966317322834646
11
5.739520590551181
21
-3.2252978740157481
0
LINE
8
BLACK
6
CONTINUOUS
10
5.739520590551181
20
-3.2252978740157481
11
5.7044067716535434
21
-3.2253682283464564
0
LINE
8
BLACK
6
CONTINUOUS
10
5.0097782283464563
20
-3.118948937007874
11
5.0103109055118109
21
-3.1194816141732282
0
LINE
8
BLACK
6
CONTINUOUS
10
5.0103109055118109
20
-3.1194816141732282
11
5.0103858267716532
21
-3.2521417322834645
0
LINE
8
BLACK
6
CONTINUOUS
10
5.0103858267716532
20
-3.2521417322834645
11
5.0103109055118109
21
-3.2525183858267717
0
LINE
8
BLACK
6
CONTINUOUS
10
5.0103109055118109
20
-3.2525183858267717
11
5.0097782283464563
21
-3.2530510629921259
0
LINE
8
BLACK
6
CONTINUOUS
10
5.0097782283464563
20
-3.2530510629921259
11
4.9345984251968504
21
-3.2531259842519686
0
LINE
8
BLACK
6
CONTINUOUS
10
4.9345984251968504
20
-3.2531259842519686
11
4.9342217716535428
21
-3.2530510629921259
0
LINE
8
BLACK
6
CONTINUOUS
10
4.9342217716535428
20
-3.2530510629921259
11
4.933689094488189
21
-3.2525183858267717
0
LINE
8
BLACK
6
CONTINUOUS
10
4.933689094488189
20
-3.2525183858267717
11
4.9336141732283467
21
-3.1198582677165354
0
LINE
8
BLACK
6
CONTINUOUS
10
4.9336141732283467
20
-3.1198582677165354
11
4.933689094488189
21
-3.1194816141732282
0
LINE
8
BLACK
6
CONTINUOUS
10
4.933689094488189
20
-3.1194816141732282
11
4.9342217716535428
21
-3.118948937007874
0
LINE
8
BLACK
6
CONTINUOUS
10
4.9342217716535428
20
-3.118948937007874
11
5.0094015748031495
21
-3.1188740157480312
0
LINE
8
BLACK
6
CONTINUOUS
10
5.0094015748031495
20
-3.1188740157480312
11
5.0097782283464563
21
-3.118948937007874
0
LINE
8
BLACK
6
CONTINUOUS
10
4.9355085039370081
20
-3.1208415748031495
11
4.9355821259842516
21
-3.2512310236220472
0
LINE
8
BLACK
6
CONTINUOUS
10
4.9355821259842516
20
-3.2512310236220472
11
5.0084914566929131
21
-3.2511583858267716
0
LINE
8
BLACK
6
CONTINUOUS
10
5.0084914566929131
20
-3.2511583858267716
11
5.0084178346456696
21
-3.1207689370078739
0
LINE
8
BLACK
6
CONTINUOUS
10
5.0084178346456696
20
-3.1207689370078739
11
4.9355085039370081
21
-3.1208415748031495
0
LINE
8
BLACK
6
CONTINUOUS
10
5.2047782283464565
20
-3.118948937007874
11
5.2053109055118112
21
-3.1194816141732282
0
LINE
8
BLACK
6
CONTINUOUS
10
5.2053109055118112
20
-3.1194816141732282
11
5.2053858267716535
21
-3.2521417322834645
0
LINE
8
BLACK
6
CONTINUOUS
10
5.2053858267716535
20
-3.2521417322834645
11
5.2053109055118112
21
-3.2525183858267717
0
LINE
8
BLACK
6
CONTINUOUS
10
5.2053109055118112
20
-3.2525183858267717
11
5.2047782283464565
21
-3.2530510629921259
0
LINE
8
BLACK
6
CONTINUOUS
10
5.2047782283464565
20
-3.2530510629921259
11
5.1295984251968507
21
-3.2531259842519686
0
LINE
8
BLACK
6
CONTINUOUS
10
5.1295984251968507
20
-3.2531259842519686
11
5.1292217716535431
21
-3.2530510629921259
0
LINE
8
BLACK
6
CONTINUOUS
10
5.1292217716535431
20
-3.2530510629921259
11
5.1286890944881884
21
-3.2525183858267717
0
LINE
8
BLACK
6
CONTINUOUS
10
5.1286890944881884
20
-3.2525183858267717
11
5.1286141732283461
21
-3.1198582677165354
0
LINE
8
BLACK
6
CONTINUOUS
10
5.1286141732283461
20
-3.1198582677165354
11
5.1286890944881884
21
-3.1194816141732282
0
LINE
8
BLACK
6
CONTINUOUS
10
5.1286890944881884
20
-3.1194816141732282
11
5.1292217716535431
21
-3.118948937007874
0
LINE
8
BLACK
6
CONTINUOUS
10
5.1292217716535431
20
-3.118948937007874
11
5.2044015748031498
21
-3.1188740157480312
0
LINE
8
BLACK
6
CONTINUOUS
10
5.2044015748031498
20
-3.1188740157480312
11
5.2047782283464565
21
-3.118948937007874
0
LINE
8
BLACK
6
CONTINUOUS
10
5.1305085039370075
20
-3.1208415748031495
11
5.1305821259842519
21
-3.2512310236220472
0
LINE
8
BLACK
6
CONTINUOUS
10
5.1305821259842519
20
-3.2512310236220472
11
5.2034914566929134
21
-3.2511583858267716
0
LINE
8
BLACK
6
CONTINUOUS
10
5.2034914566929134
20
-3.2511583858267716
11
5.203417834645669
21
-3.1207689370078739
0
LINE
8
BLACK
6
CONTINUOUS
10
5.203417834645669
20
-3.1207689370078739
11
5.1305085039370075
21
-3.1208415748031495
0
LINE
8
BLACK
6
CONTINUOUS
10
4.7958805905511808
20
-3.1434764960629922
11
4.7964132677165354
21
-3.1440091732283464
0
LINE
8
BLACK
6
CONTINUOUS
10
4.7964132677165354
20
-3.1440091732283464
11
4.7964881889763777
21
-3.2176141732283465
0
LINE
8
BLACK
6
CONTINUOUS
10
4.7964881889763777
20
-3.2176141732283465
11
4.7964132677165354
21
-3.2179908267716533
0
LINE
8
BLACK
6
CONTINUOUS
10
4.7964132677165354
20
-3.2179908267716533
11
4.7958805905511808
21
-3.2185235039370079
0
LINE
8
BLACK
6
CONTINUOUS
10
4.7958805905511808
20
-3.2185235039370079
11
4.7584960629921262
21
-3.2185984251968502
0
LINE
8
BLACK
6
CONTINUOUS
10
4.7584960629921262
20
-3.2185984251968502
11
4.7581194094488186
21
-3.2185235039370079
0
LINE
8
BLACK
6
CONTINUOUS
10
4.7581194094488186
20
-3.2185235039370079
11
4.7575867322834648
21
-3.2179908267716533
0
LINE
8
BLACK
6
CONTINUOUS
10
4.7575867322834648
20
-3.2179908267716533
11
4.7575118110236216
21
-3.1443858267716536
0
LINE
8
BLACK
6
CONTINUOUS
10
4.7575118110236216
20
-3.1443858267716536
11
4.7575867322834648
21
-3.1440091732283464
0
LINE
8
BLACK
6
CONTINUOUS
10
4.7575867322834648
20
-3.1440091732283464
11
4.7581194094488186
21
-3.1434764960629922
0
LINE
8
BLACK
6
CONTINUOUS
10
4.7581194094488186
20
-3.1434764960629922
11
4.795503937007874
21
-3.1434015748031494
0
LINE
8
BLACK
6
CONTINUOUS
10
4.795503937007874
20
-3.1434015748031494
11
4.7958805905511808
21
-3.1434764960629922
0
LINE
8
BLACK
6
CONTINUOUS
10
4.7594067716535431
20
-3.1453682283464568
11
4.7594793700787399
21
-3.2167020866141733
0
LINE
8
BLACK
6
CONTINUOUS
10
4.7594793700787399
20
-3.2167020866141733
11
4.7945931889763775
21
-3.2166317322834646
0
LINE
8
BLACK
6
CONTINUOUS
10
4.7945931889763775
20
-3.2166317322834646
11
4.7945205905511807
21
-3.145297874015748
0
LINE
8
BLACK
6
CONTINUOUS
10
4.7945205905511807
20
-3.145297874015748
11
4.7594067716535431
21
-3.1453682283464568
  0
ENDSEC
  0
EOF
