  0
SECTION
  2
HEADER
  9
$ANGBASE
  50
0.0
  9
$ANGDIR
  70
1
  9
$MEASUREMENT
  70
0
  0
ENDSEC
  0
SECTION
  2
TABLES
  0
TABLE
  2
LTYPE
  70
4
  0
LTYPE
  5
40F
  2
CONTINUOUS
  70
0
  3
Solid line
  72
65
  73
0
  40
0.0
  0
LTYPE
  5
410
  2
DASHDOT
 70
0
  3
Dash Dot ____ _ ____ _
 72
65
 73
4
 40
2.0
 49
1.25
 49
-0.25
 49
0.25
 49
-0.25
  0
LTYPE
  5
411
  2
DASHED
 70
0
  3
Dashed __ __ __ __ __
 72
65
 73
2
 40
0.75
 49
0.5
 49
-0.25
  0
LTYPE
  5
43B
  2
DOTTED
 70
0
  3
Dotted .  .  .  .
 72
65
 73
2
 40
0.2
 49
0.0
 49
-0.2
  0
ENDTAB
  0
TABLE
  2
STYLE
  70
4
  0
STYLE
  2
KICAD
  70
0
  40
0
  41
1
  42
1
  50
0
  71
0
  3
isocp.shx
  0
STYLE
  2
KICADB
  70
0
  40
0
  41
1
  42
1
  50
0
  71
0
  3
isocp.shx
  0
STYLE
  2
KICADI
  70
0
  40
0
  41
1
  42
1
  50
15
  71
0
  3
isocp.shx
  0
STYLE
  2
KICADBI
  70
0
  40
0
  41
1
  42
1
  50
15
  71
0
  3
isocp.shx
  0
ENDTAB
  0
TABLE
  2
LAYER
  70
1
  0
LAYER
  2
BLACK
  70
0
  62
7
  6
CONTINUOUS
  0
ENDTAB
  0
ENDSEC
  0
SECTION
  2
ENTITIES
0
LINE
8
BLACK
6
CONTINUOUS
10
2.4899999999999998
20
-0.67
11
2.4300000000000002
21
-0.67
0
LINE
8
BLACK
6
CONTINUOUS
10
2.4300000000000002
20
-0.67
11
2.4300000000000002
21
-0.61
0
LINE
8
BLACK
6
CONTINUOUS
10
2.4300000000000002
20
-0.61
11
2.4899999999999998
21
-0.61
0
LINE
8
BLACK
6
CONTINUOUS
10
2.4899999999999998
20
-0.61
11
2.4899999999999998
21
-0.67
0
LINE
8
BLACK
6
CONTINUOUS
10
2.5699999999999998
20
-0.67
11
2.5099999999999998
21
-0.67
0
LINE
8
BLACK
6
CONTINUOUS
10
2.5099999999999998
20
-0.67
11
2.5099999999999998
21
-0.61
0
LINE
8
BLACK
6
CONTINUOUS
10
2.5099999999999998
20
-0.61
11
2.5699999999999998
21
-0.61
0
LINE
8
BLACK
6
CONTINUOUS
10
2.5699999999999998
20
-0.61
11
2.5699999999999998
21
-0.67
0
LINE
8
BLACK
6
CONTINUOUS
10
2.4899999999999998
20
-0.57
11
2.4300000000000002
21
-0.57
0
LINE
8
BLACK
6
CONTINUOUS
10
2.4300000000000002
20
-0.57
11
2.4300000000000002
21
-0.51
0
LINE
8
BLACK
6
CONTINUOUS
10
2.4300000000000002
20
-0.51
11
2.4899999999999998
21
-0.51
0
LINE
8
BLACK
6
CONTINUOUS
10
2.4899999999999998
20
-0.51
11
2.4899999999999998
21
-0.57
0
LINE
8
BLACK
6
CONTINUOUS
10
2.5699999999999998
20
-0.57
11
2.5099999999999998
21
-0.57
0
LINE
8
BLACK
6
CONTINUOUS
10
2.5099999999999998
20
-0.57
11
2.5099999999999998
21
-0.51
0
LINE
8
BLACK
6
CONTINUOUS
10
2.5099999999999998
20
-0.51
11
2.5699999999999998
21
-0.51
0
LINE
8
BLACK
6
CONTINUOUS
10
2.5699999999999998
20
-0.51
11
2.5699999999999998
21
-0.57
0
LINE
8
BLACK
6
CONTINUOUS
10
1.7849999999999999
20
-0.5499999999999999
11
1.7249999999999999
21
-0.5499999999999999
0
LINE
8
BLACK
6
CONTINUOUS
10
1.7249999999999999
20
-0.5499999999999999
11
1.7249999999999999
21
-0.49
0
LINE
8
BLACK
6
CONTINUOUS
10
1.7249999999999999
20
-0.49
11
1.7849999999999999
21
-0.49
0
LINE
8
BLACK
6
CONTINUOUS
10
1.7849999999999999
20
-0.49
11
1.7849999999999999
21
-0.5499999999999999
0
LINE
8
BLACK
6
CONTINUOUS
10
1.885
20
-0.5499999999999999
11
1.825
21
-0.5499999999999999
0
LINE
8
BLACK
6
CONTINUOUS
10
1.825
20
-0.5499999999999999
11
1.825
21
-0.49
0
LINE
8
BLACK
6
CONTINUOUS
10
1.825
20
-0.49
11
1.885
21
-0.49
0
LINE
8
BLACK
6
CONTINUOUS
10
1.885
20
-0.49
11
1.885
21
-0.5499999999999999
0
LINE
8
BLACK
6
CONTINUOUS
10
1.7849999999999999
20
-0.45
11
1.7249999999999999
21
-0.45
0
LINE
8
BLACK
6
CONTINUOUS
10
1.7249999999999999
20
-0.45
11
1.7249999999999999
21
-0.39
0
LINE
8
BLACK
6
CONTINUOUS
10
1.7249999999999999
20
-0.39
11
1.7849999999999999
21
-0.39
0
LINE
8
BLACK
6
CONTINUOUS
10
1.7849999999999999
20
-0.39
11
1.7849999999999999
21
-0.45
0
LINE
8
BLACK
6
CONTINUOUS
10
1.885
20
-0.45
11
1.825
21
-0.45
0
LINE
8
BLACK
6
CONTINUOUS
10
1.825
20
-0.45
11
1.825
21
-0.39
0
LINE
8
BLACK
6
CONTINUOUS
10
1.825
20
-0.39
11
1.885
21
-0.39
0
LINE
8
BLACK
6
CONTINUOUS
10
1.885
20
-0.39
11
1.885
21
-0.45
0
LINE
8
BLACK
6
CONTINUOUS
10
0.8606496062992126
20
0.2526771653543307
11
0.7106496062992126
21
0.2526771653543307
0
LINE
8
BLACK
6
CONTINUOUS
10
0.7106496062992126
20
0.2526771653543307
11
0.7106496062992126
21
0.4026771653543307
0
LINE
8
BLACK
6
CONTINUOUS
10
0.7106496062992126
20
0.4026771653543307
11
0.8606496062992126
21
0.4026771653543307
0
LINE
8
BLACK
6
CONTINUOUS
10
0.8606496062992126
20
0.4026771653543307
11
0.8606496062992126
21
0.2526771653543307
0
LINE
8
BLACK
6
CONTINUOUS
10
1.0574999999999999
20
0.2526771653543307
11
0.9075
21
0.2526771653543307
0
LINE
8
BLACK
6
CONTINUOUS
10
0.9075
20
0.2526771653543307
11
0.9075
21
0.4026771653543307
0
LINE
8
BLACK
6
CONTINUOUS
10
0.9075
20
0.4026771653543307
11
1.0574999999999999
21
0.4026771653543307
0
LINE
8
BLACK
6
CONTINUOUS
10
1.0574999999999999
20
0.4026771653543307
11
1.0574999999999999
21
0.2526771653543307
0
LINE
8
BLACK
6
CONTINUOUS
10
0.4205096456692913
20
0.5163158661417323
11
0.4338744094488189
21
0.5131483858267717
0
LINE
8
BLACK
6
CONTINUOUS
10
0.4338744094488189
20
0.5131483858267717
11
0.446781062992126
21
0.5084507086614173
0
LINE
8
BLACK
6
CONTINUOUS
10
0.446781062992126
20
0.5084507086614173
11
0.4590551181102362
21
0.5022864566929134
0
LINE
8
BLACK
6
CONTINUOUS
10
0.4590551181102362
20
0.5022864566929134
11
0.4705305511811024
21
0.4947389763779527
0
LINE
8
BLACK
6
CONTINUOUS
10
0.4705305511811024
20
0.4947389763779527
11
0.4810521653543307
21
0.4859102755905512
0
LINE
8
BLACK
6
CONTINUOUS
10
0.4810521653543307
20
0.4859102755905512
11
0.4904776771653543
21
0.4759198031496063
0
LINE
8
BLACK
6
CONTINUOUS
10
0.4904776771653543
20
0.4759198031496063
11
0.4986796456692913
21
0.4649026377952756
0
LINE
8
BLACK
6
CONTINUOUS
10
0.4986796456692913
20
0.4649026377952756
11
0.5055471653543308
21
0.4530077952755905
0
LINE
8
BLACK
6
CONTINUOUS
10
0.5055471653543308
20
0.4530077952755905
11
0.5109873228346457
21
0.440396062992126
0
LINE
8
BLACK
6
CONTINUOUS
10
0.5109873228346457
20
0.440396062992126
11
0.5149265748031496
21
0.4272381102362204
0
LINE
8
BLACK
6
CONTINUOUS
10
0.5149265748031496
20
0.4272381102362204
11
0.5173116141732284
21
0.4137117716535433
0
LINE
8
BLACK
6
CONTINUOUS
10
0.5173116141732284
20
0.4137117716535433
11
0.5181102362204725
21
0.4
0
LINE
8
BLACK
6
CONTINUOUS
10
0.5181102362204725
20
0.4
11
0.5173116141732284
21
0.3862882283464567
0
LINE
8
BLACK
6
CONTINUOUS
10
0.5173116141732284
20
0.3862882283464567
11
0.5149265748031496
21
0.3727618897637795
0
LINE
8
BLACK
6
CONTINUOUS
10
0.5149265748031496
20
0.3727618897637795
11
0.5109873228346457
21
0.359603937007874
0
LINE
8
BLACK
6
CONTINUOUS
10
0.5109873228346457
20
0.359603937007874
11
0.5055471653543308
21
0.3469922047244094
0
LINE
8
BLACK
6
CONTINUOUS
10
0.5055471653543308
20
0.3469922047244094
11
0.4986796456692913
21
0.3350973622047244
0
LINE
8
BLACK
6
CONTINUOUS
10
0.4986796456692913
20
0.3350973622047244
11
0.4904776771653543
21
0.3240801968503937
0
LINE
8
BLACK
6
CONTINUOUS
10
0.4904776771653543
20
0.3240801968503937
11
0.4810521653543307
21
0.3140897244094488
0
LINE
8
BLACK
6
CONTINUOUS
10
0.4810521653543307
20
0.3140897244094488
11
0.4705305511811024
21
0.3052610236220472
0
LINE
8
BLACK
6
CONTINUOUS
10
0.4705305511811024
20
0.3052610236220472
11
0.4590551181102362
21
0.2977135433070866
0
LINE
8
BLACK
6
CONTINUOUS
10
0.4590551181102362
20
0.2977135433070866
11
0.446781062992126
21
0.2915492913385827
0
LINE
8
BLACK
6
CONTINUOUS
10
0.446781062992126
20
0.2915492913385827
11
0.4338744094488189
21
0.2868516141732284
0
LINE
8
BLACK
6
CONTINUOUS
10
0.4338744094488189
20
0.2868516141732284
11
0.4205096456692913
21
0.2836841338582677
0
LINE
8
BLACK
6
CONTINUOUS
10
0.4205096456692913
20
0.2836841338582677
11
0.4068674803149606
21
0.2820896062992126
0
LINE
8
BLACK
6
CONTINUOUS
10
0.4068674803149606
20
0.2820896062992126
11
0.3931325196850394
21
0.2820896062992126
0
LINE
8
BLACK
6
CONTINUOUS
10
0.3931325196850394
20
0.2820896062992126
11
0.3794903543307087
21
0.2836841338582677
0
LINE
8
BLACK
6
CONTINUOUS
10
0.3794903543307087
20
0.2836841338582677
11
0.3661255905511811
21
0.2868516141732284
0
LINE
8
BLACK
6
CONTINUOUS
10
0.3661255905511811
20
0.2868516141732284
11
0.353218937007874
21
0.2915492913385827
0
LINE
8
BLACK
6
CONTINUOUS
10
0.353218937007874
20
0.2915492913385827
11
0.3409448818897638
21
0.2977135433070866
0
LINE
8
BLACK
6
CONTINUOUS
10
0.3409448818897638
20
0.2977135433070866
11
0.3294694488188976
21
0.3052610236220472
0
LINE
8
BLACK
6
CONTINUOUS
10
0.3294694488188976
20
0.3052610236220472
11
0.3189478346456693
21
0.3140897244094488
0
LINE
8
BLACK
6
CONTINUOUS
10
0.3189478346456693
20
0.3140897244094488
11
0.3095223228346456
21
0.3240801968503937
0
LINE
8
BLACK
6
CONTINUOUS
10
0.3095223228346456
20
0.3240801968503937
11
0.3013203543307086
21
0.3350973622047244
0
LINE
8
BLACK
6
CONTINUOUS
10
0.3013203543307086
20
0.3350973622047244
11
0.2944528346456693
21
0.3469922047244094
0
LINE
8
BLACK
6
CONTINUOUS
10
0.2944528346456693
20
0.3469922047244094
11
0.2890126771653543
21
0.359603937007874
0
LINE
8
BLACK
6
CONTINUOUS
10
0.2890126771653543
20
0.359603937007874
11
0.2850734251968504
21
0.3727618897637795
0
LINE
8
BLACK
6
CONTINUOUS
10
0.2850734251968504
20
0.3727618897637795
11
0.2826883858267716
21
0.3862882283464567
0
LINE
8
BLACK
6
CONTINUOUS
10
0.2826883858267716
20
0.3862882283464567
11
0.2818897637795276
21
0.4
0
LINE
8
BLACK
6
CONTINUOUS
10
0.2818897637795276
20
0.4
11
0.2826883858267716
21
0.4137117716535433
0
LINE
8
BLACK
6
CONTINUOUS
10
0.2826883858267716
20
0.4137117716535433
11
0.2850734251968504
21
0.4272381102362204
0
LINE
8
BLACK
6
CONTINUOUS
10
0.2850734251968504
20
0.4272381102362204
11
0.2890126771653543
21
0.440396062992126
0
LINE
8
BLACK
6
CONTINUOUS
10
0.2890126771653543
20
0.440396062992126
11
0.2944528346456693
21
0.4530077952755905
0
LINE
8
BLACK
6
CONTINUOUS
10
0.2944528346456693
20
0.4530077952755905
11
0.3013203543307086
21
0.4649026377952756
0
LINE
8
BLACK
6
CONTINUOUS
10
0.3013203543307086
20
0.4649026377952756
11
0.3095223228346456
21
0.4759198031496063
0
LINE
8
BLACK
6
CONTINUOUS
10
0.3095223228346456
20
0.4759198031496063
11
0.3189478346456693
21
0.4859102755905512
0
LINE
8
BLACK
6
CONTINUOUS
10
0.3189478346456693
20
0.4859102755905512
11
0.3294694488188976
21
0.4947389763779527
0
LINE
8
BLACK
6
CONTINUOUS
10
0.3294694488188976
20
0.4947389763779527
11
0.3409448818897638
21
0.5022864566929134
0
LINE
8
BLACK
6
CONTINUOUS
10
0.3409448818897638
20
0.5022864566929134
11
0.353218937007874
21
0.5084507086614173
0
LINE
8
BLACK
6
CONTINUOUS
10
0.353218937007874
20
0.5084507086614173
11
0.3661255905511811
21
0.5131483858267717
0
LINE
8
BLACK
6
CONTINUOUS
10
0.3661255905511811
20
0.5131483858267717
11
0.3794903543307087
21
0.5163158661417323
0
LINE
8
BLACK
6
CONTINUOUS
10
0.3794903543307087
20
0.5163158661417323
11
0.3931325196850394
21
0.5179103937007874
0
LINE
8
BLACK
6
CONTINUOUS
10
0.3931325196850394
20
0.5179103937007874
11
0.4068674803149606
21
0.5179103937007874
0
LINE
8
BLACK
6
CONTINUOUS
10
0.4068674803149606
20
0.5179103937007874
11
0.4205096456692913
21
0.5163158661417323
0
LINE
8
BLACK
6
CONTINUOUS
10
3.2205096456692912
20
0.5163158661417323
11
3.233874409448819
21
0.5131483858267717
0
LINE
8
BLACK
6
CONTINUOUS
10
3.233874409448819
20
0.5131483858267717
11
3.2467810629921261
21
0.5084507086614173
0
LINE
8
BLACK
6
CONTINUOUS
10
3.2467810629921261
20
0.5084507086614173
11
3.2590551181102363
21
0.5022864566929134
0
LINE
8
BLACK
6
CONTINUOUS
10
3.2590551181102363
20
0.5022864566929134
11
3.2705305511811025
21
0.4947389763779527
0
LINE
8
BLACK
6
CONTINUOUS
10
3.2705305511811025
20
0.4947389763779527
11
3.2810521653543305
21
0.4859102755905512
0
LINE
8
BLACK
6
CONTINUOUS
10
3.2810521653543305
20
0.4859102755905512
11
3.2904776771653541
21
0.4759198031496063
0
LINE
8
BLACK
6
CONTINUOUS
10
3.2904776771653541
20
0.4759198031496063
11
3.2986796456692913
21
0.4649026377952756
0
LINE
8
BLACK
6
CONTINUOUS
10
3.2986796456692913
20
0.4649026377952756
11
3.3055471653543305
21
0.4530077952755905
0
LINE
8
BLACK
6
CONTINUOUS
10
3.3055471653543305
20
0.4530077952755905
11
3.3109873228346456
21
0.440396062992126
0
LINE
8
BLACK
6
CONTINUOUS
10
3.3109873228346456
20
0.440396062992126
11
3.3149265748031493
21
0.4272381102362204
0
LINE
8
BLACK
6
CONTINUOUS
10
3.3149265748031493
20
0.4272381102362204
11
3.3173116141732284
21
0.4137117716535433
0
LINE
8
BLACK
6
CONTINUOUS
10
3.3173116141732284
20
0.4137117716535433
11
3.3181102362204724
21
0.4
0
LINE
8
BLACK
6
CONTINUOUS
10
3.3181102362204724
20
0.4
11
3.3173116141732284
21
0.3862882283464567
0
LINE
8
BLACK
6
CONTINUOUS
10
3.3173116141732284
20
0.3862882283464567
11
3.3149265748031493
21
0.3727618897637795
0
LINE
8
BLACK
6
CONTINUOUS
10
3.3149265748031493
20
0.3727618897637795
11
3.3109873228346456
21
0.359603937007874
0
LINE
8
BLACK
6
CONTINUOUS
10
3.3109873228346456
20
0.359603937007874
11
3.3055471653543305
21
0.3469922047244094
0
LINE
8
BLACK
6
CONTINUOUS
10
3.3055471653543305
20
0.3469922047244094
11
3.2986796456692913
21
0.3350973622047244
0
LINE
8
BLACK
6
CONTINUOUS
10
3.2986796456692913
20
0.3350973622047244
11
3.2904776771653541
21
0.3240801968503937
0
LINE
8
BLACK
6
CONTINUOUS
10
3.2904776771653541
20
0.3240801968503937
11
3.2810521653543305
21
0.3140897244094488
0
LINE
8
BLACK
6
CONTINUOUS
10
3.2810521653543305
20
0.3140897244094488
11
3.2705305511811025
21
0.3052610236220472
0
LINE
8
BLACK
6
CONTINUOUS
10
3.2705305511811025
20
0.3052610236220472
11
3.2590551181102363
21
0.2977135433070866
0
LINE
8
BLACK
6
CONTINUOUS
10
3.2590551181102363
20
0.2977135433070866
11
3.2467810629921261
21
0.2915492913385827
0
LINE
8
BLACK
6
CONTINUOUS
10
3.2467810629921261
20
0.2915492913385827
11
3.233874409448819
21
0.2868516141732284
0
LINE
8
BLACK
6
CONTINUOUS
10
3.233874409448819
20
0.2868516141732284
11
3.2205096456692912
21
0.2836841338582677
0
LINE
8
BLACK
6
CONTINUOUS
10
3.2205096456692912
20
0.2836841338582677
11
3.2068674803149606
21
0.2820896062992126
0
LINE
8
BLACK
6
CONTINUOUS
10
3.2068674803149606
20
0.2820896062992126
11
3.1931325196850393
21
0.2820896062992126
0
LINE
8
BLACK
6
CONTINUOUS
10
3.1931325196850393
20
0.2820896062992126
11
3.1794903543307087
21
0.2836841338582677
0
LINE
8
BLACK
6
CONTINUOUS
10
3.1794903543307087
20
0.2836841338582677
11
3.1661255905511809
21
0.2868516141732284
0
LINE
8
BLACK
6
CONTINUOUS
10
3.1661255905511809
20
0.2868516141732284
11
3.1532189370078738
21
0.2915492913385827
0
LINE
8
BLACK
6
CONTINUOUS
10
3.1532189370078738
20
0.2915492913385827
11
3.1409448818897636
21
0.2977135433070866
0
LINE
8
BLACK
6
CONTINUOUS
10
3.1409448818897636
20
0.2977135433070866
11
3.1294694488188974
21
0.3052610236220472
0
LINE
8
BLACK
6
CONTINUOUS
10
3.1294694488188974
20
0.3052610236220472
11
3.1189478346456694
21
0.3140897244094488
0
LINE
8
BLACK
6
CONTINUOUS
10
3.1189478346456694
20
0.3140897244094488
11
3.1095223228346458
21
0.3240801968503937
0
LINE
8
BLACK
6
CONTINUOUS
10
3.1095223228346458
20
0.3240801968503937
11
3.1013203543307086
21
0.3350973622047244
0
LINE
8
BLACK
6
CONTINUOUS
10
3.1013203543307086
20
0.3350973622047244
11
3.094452834645669
21
0.3469922047244094
0
LINE
8
BLACK
6
CONTINUOUS
10
3.094452834645669
20
0.3469922047244094
11
3.0890126771653543
21
0.359603937007874
0
LINE
8
BLACK
6
CONTINUOUS
10
3.0890126771653543
20
0.359603937007874
11
3.0850734251968501
21
0.3727618897637795
0
LINE
8
BLACK
6
CONTINUOUS
10
3.0850734251968501
20
0.3727618897637795
11
3.0826883858267715
21
0.3862882283464567
0
LINE
8
BLACK
6
CONTINUOUS
10
3.0826883858267715
20
0.3862882283464567
11
3.0818897637795275
21
0.4
0
LINE
8
BLACK
6
CONTINUOUS
10
3.0818897637795275
20
0.4
11
3.0826883858267715
21
0.4137117716535433
0
LINE
8
BLACK
6
CONTINUOUS
10
3.0826883858267715
20
0.4137117716535433
11
3.0850734251968501
21
0.4272381102362204
0
LINE
8
BLACK
6
CONTINUOUS
10
3.0850734251968501
20
0.4272381102362204
11
3.0890126771653543
21
0.440396062992126
0
LINE
8
BLACK
6
CONTINUOUS
10
3.0890126771653543
20
0.440396062992126
11
3.094452834645669
21
0.4530077952755905
0
LINE
8
BLACK
6
CONTINUOUS
10
3.094452834645669
20
0.4530077952755905
11
3.1013203543307086
21
0.4649026377952756
0
LINE
8
BLACK
6
CONTINUOUS
10
3.1013203543307086
20
0.4649026377952756
11
3.1095223228346458
21
0.4759198031496063
0
LINE
8
BLACK
6
CONTINUOUS
10
3.1095223228346458
20
0.4759198031496063
11
3.1189478346456694
21
0.4859102755905512
0
LINE
8
BLACK
6
CONTINUOUS
10
3.1189478346456694
20
0.4859102755905512
11
3.1294694488188974
21
0.4947389763779527
0
LINE
8
BLACK
6
CONTINUOUS
10
3.1294694488188974
20
0.4947389763779527
11
3.1409448818897636
21
0.5022864566929134
0
LINE
8
BLACK
6
CONTINUOUS
10
3.1409448818897636
20
0.5022864566929134
11
3.1532189370078738
21
0.5084507086614173
0
LINE
8
BLACK
6
CONTINUOUS
10
3.1532189370078738
20
0.5084507086614173
11
3.1661255905511809
21
0.5131483858267717
0
LINE
8
BLACK
6
CONTINUOUS
10
3.1661255905511809
20
0.5131483858267717
11
3.1794903543307087
21
0.5163158661417323
0
LINE
8
BLACK
6
CONTINUOUS
10
3.1794903543307087
20
0.5163158661417323
11
3.1931325196850393
21
0.5179103937007874
0
LINE
8
BLACK
6
CONTINUOUS
10
3.1931325196850393
20
0.5179103937007874
11
3.2068674803149606
21
0.5179103937007874
0
LINE
8
BLACK
6
CONTINUOUS
10
3.2068674803149606
20
0.5179103937007874
11
3.2205096456692912
21
0.5163158661417323
0
LINE
8
BLACK
6
CONTINUOUS
10
2.118984251968504
20
0.3134173228346457
11
2.0529842519685038
21
0.3134173228346457
0
LINE
8
BLACK
6
CONTINUOUS
10
2.0529842519685038
20
0.3134173228346457
11
2.0529842519685038
21
0.3794173228346457
0
LINE
8
BLACK
6
CONTINUOUS
10
2.0529842519685038
20
0.3794173228346457
11
2.118984251968504
21
0.3794173228346457
0
LINE
8
BLACK
6
CONTINUOUS
10
2.118984251968504
20
0.3794173228346457
11
2.118984251968504
21
0.3134173228346457
0
LINE
8
BLACK
6
CONTINUOUS
10
2.3670157480314962
20
0.3134173228346457
11
2.3010157480314959
21
0.3134173228346457
0
LINE
8
BLACK
6
CONTINUOUS
10
2.3010157480314959
20
0.3134173228346457
11
2.3010157480314959
21
0.3794173228346457
0
LINE
8
BLACK
6
CONTINUOUS
10
2.3010157480314959
20
0.3794173228346457
11
2.3670157480314962
21
0.3794173228346457
0
LINE
8
BLACK
6
CONTINUOUS
10
2.3670157480314962
20
0.3794173228346457
11
2.3670157480314962
21
0.3134173228346457
0
LINE
8
BLACK
6
CONTINUOUS
10
2.4892293307086613
20
0.4423421259842519
11
2.4981782283464566
21
0.4399442913385826
0
LINE
8
BLACK
6
CONTINUOUS
10
2.4981782283464566
20
0.4399442913385826
11
2.5065748031496065
21
0.4360288976377953
0
LINE
8
BLACK
6
CONTINUOUS
10
2.5065748031496065
20
0.4360288976377953
11
2.5141638976377951
21
0.4307149606299213
0
LINE
8
BLACK
6
CONTINUOUS
10
2.5141638976377951
20
0.4307149606299213
11
2.5207149606299213
21
0.4241638976377953
0
LINE
8
BLACK
6
CONTINUOUS
10
2.5207149606299213
20
0.4241638976377953
11
2.5260288976377954
21
0.4165748031496063
0
LINE
8
BLACK
6
CONTINUOUS
10
2.5260288976377954
20
0.4165748031496063
11
2.5299442913385826
21
0.4081782283464567
0
LINE
8
BLACK
6
CONTINUOUS
10
2.5299442913385826
20
0.4081782283464567
11
2.5323421259842518
21
0.3992293307086614
0
LINE
8
BLACK
6
CONTINUOUS
10
2.5323421259842518
20
0.3992293307086614
11
2.5331496062992125
21
0.39
0
LINE
8
BLACK
6
CONTINUOUS
10
2.5331496062992125
20
0.39
11
2.5323421259842518
21
0.3807706692913386
0
LINE
8
BLACK
6
CONTINUOUS
10
2.5323421259842518
20
0.3807706692913386
11
2.5299442913385826
21
0.3718217716535433
0
LINE
8
BLACK
6
CONTINUOUS
10
2.5299442913385826
20
0.3718217716535433
11
2.5260288976377954
21
0.3634251968503937
0
LINE
8
BLACK
6
CONTINUOUS
10
2.5260288976377954
20
0.3634251968503937
11
2.5207149606299213
21
0.3558361023622047
0
LINE
8
BLACK
6
CONTINUOUS
10
2.5207149606299213
20
0.3558361023622047
11
2.5141638976377951
21
0.3492850393700787
0
LINE
8
BLACK
6
CONTINUOUS
10
2.5141638976377951
20
0.3492850393700787
11
2.5065748031496065
21
0.3439711023622047
0
LINE
8
BLACK
6
CONTINUOUS
10
2.5065748031496065
20
0.3439711023622047
11
2.4981782283464566
21
0.3400557086614173
0
LINE
8
BLACK
6
CONTINUOUS
10
2.4981782283464566
20
0.3400557086614173
11
2.4892293307086613
21
0.337657874015748
0
LINE
8
BLACK
6
CONTINUOUS
10
2.4892293307086613
20
0.337657874015748
11
2.48
21
0.3368503937007874
0
LINE
8
BLACK
6
CONTINUOUS
10
2.48
20
0.3368503937007874
11
2.4707706692913387
21
0.337657874015748
0
LINE
8
BLACK
6
CONTINUOUS
10
2.4707706692913387
20
0.337657874015748
11
2.4618217716535433
21
0.3400557086614173
0
LINE
8
BLACK
6
CONTINUOUS
10
2.4618217716535433
20
0.3400557086614173
11
2.4534251968503935
21
0.3439711023622047
0
LINE
8
BLACK
6
CONTINUOUS
10
2.4534251968503935
20
0.3439711023622047
11
2.4458361023622048
21
0.3492850393700787
0
LINE
8
BLACK
6
CONTINUOUS
10
2.4458361023622048
20
0.3492850393700787
11
2.4392850393700787
21
0.3558361023622047
0
LINE
8
BLACK
6
CONTINUOUS
10
2.4392850393700787
20
0.3558361023622047
11
2.4339711023622046
21
0.3634251968503937
0
LINE
8
BLACK
6
CONTINUOUS
10
2.4339711023622046
20
0.3634251968503937
11
2.4300557086614174
21
0.3718217716535433
0
LINE
8
BLACK
6
CONTINUOUS
10
2.4300557086614174
20
0.3718217716535433
11
2.4276578740157482
21
0.3807706692913386
0
LINE
8
BLACK
6
CONTINUOUS
10
2.4276578740157482
20
0.3807706692913386
11
2.4268503937007875
21
0.39
0
LINE
8
BLACK
6
CONTINUOUS
10
2.4268503937007875
20
0.39
11
2.4276578740157482
21
0.3992293307086614
0
LINE
8
BLACK
6
CONTINUOUS
10
2.4276578740157482
20
0.3992293307086614
11
2.4300557086614174
21
0.4081782283464567
0
LINE
8
BLACK
6
CONTINUOUS
10
2.4300557086614174
20
0.4081782283464567
11
2.4339711023622046
21
0.4165748031496063
0
LINE
8
BLACK
6
CONTINUOUS
10
2.4339711023622046
20
0.4165748031496063
11
2.4392850393700787
21
0.4241638976377953
0
LINE
8
BLACK
6
CONTINUOUS
10
2.4392850393700787
20
0.4241638976377953
11
2.4458361023622048
21
0.4307149606299213
0
LINE
8
BLACK
6
CONTINUOUS
10
2.4458361023622048
20
0.4307149606299213
11
2.4534251968503935
21
0.4360288976377953
0
LINE
8
BLACK
6
CONTINUOUS
10
2.4534251968503935
20
0.4360288976377953
11
2.4618217716535433
21
0.4399442913385826
0
LINE
8
BLACK
6
CONTINUOUS
10
2.4618217716535433
20
0.4399442913385826
11
2.4707706692913387
21
0.4423421259842519
0
LINE
8
BLACK
6
CONTINUOUS
10
2.4707706692913387
20
0.4423421259842519
11
2.48
21
0.4431496062992126
0
LINE
8
BLACK
6
CONTINUOUS
10
2.48
20
0.4431496062992126
11
2.4892293307086613
21
0.4423421259842519
0
LINE
8
BLACK
6
CONTINUOUS
10
2.6092293307086614
20
0.4423421259842519
11
2.6181782283464567
21
0.4399442913385826
0
LINE
8
BLACK
6
CONTINUOUS
10
2.6181782283464567
20
0.4399442913385826
11
2.6265748031496061
21
0.4360288976377953
0
LINE
8
BLACK
6
CONTINUOUS
10
2.6265748031496061
20
0.4360288976377953
11
2.6341638976377952
21
0.4307149606299213
0
LINE
8
BLACK
6
CONTINUOUS
10
2.6341638976377952
20
0.4307149606299213
11
2.6407149606299214
21
0.4241638976377953
0
LINE
8
BLACK
6
CONTINUOUS
10
2.6407149606299214
20
0.4241638976377953
11
2.646028897637795
21
0.4165748031496063
0
LINE
8
BLACK
6
CONTINUOUS
10
2.646028897637795
20
0.4165748031496063
11
2.6499442913385827
21
0.4081782283464567
0
LINE
8
BLACK
6
CONTINUOUS
10
2.6499442913385827
20
0.4081782283464567
11
2.6523421259842519
21
0.3992293307086614
0
LINE
8
BLACK
6
CONTINUOUS
10
2.6523421259842519
20
0.3992293307086614
11
2.6531496062992126
21
0.39
0
LINE
8
BLACK
6
CONTINUOUS
10
2.6531496062992126
20
0.39
11
2.6523421259842519
21
0.3807706692913386
0
LINE
8
BLACK
6
CONTINUOUS
10
2.6523421259842519
20
0.3807706692913386
11
2.6499442913385827
21
0.3718217716535433
0
LINE
8
BLACK
6
CONTINUOUS
10
2.6499442913385827
20
0.3718217716535433
11
2.646028897637795
21
0.3634251968503937
0
LINE
8
BLACK
6
CONTINUOUS
10
2.646028897637795
20
0.3634251968503937
11
2.6407149606299214
21
0.3558361023622047
0
LINE
8
BLACK
6
CONTINUOUS
10
2.6407149606299214
20
0.3558361023622047
11
2.6341638976377952
21
0.3492850393700787
0
LINE
8
BLACK
6
CONTINUOUS
10
2.6341638976377952
20
0.3492850393700787
11
2.6265748031496061
21
0.3439711023622047
0
LINE
8
BLACK
6
CONTINUOUS
10
2.6265748031496061
20
0.3439711023622047
11
2.6181782283464567
21
0.3400557086614173
0
LINE
8
BLACK
6
CONTINUOUS
10
2.6181782283464567
20
0.3400557086614173
11
2.6092293307086614
21
0.337657874015748
0
LINE
8
BLACK
6
CONTINUOUS
10
2.6092293307086614
20
0.337657874015748
11
2.6000000000000001
21
0.3368503937007874
0
LINE
8
BLACK
6
CONTINUOUS
10
2.6000000000000001
20
0.3368503937007874
11
2.5907706692913384
21
0.337657874015748
0
LINE
8
BLACK
6
CONTINUOUS
10
2.5907706692913384
20
0.337657874015748
11
2.5818217716535434
21
0.3400557086614173
0
LINE
8
BLACK
6
CONTINUOUS
10
2.5818217716535434
20
0.3400557086614173
11
2.5734251968503936
21
0.3439711023622047
0
LINE
8
BLACK
6
CONTINUOUS
10
2.5734251968503936
20
0.3439711023622047
11
2.5658361023622045
21
0.3492850393700787
0
LINE
8
BLACK
6
CONTINUOUS
10
2.5658361023622045
20
0.3492850393700787
11
2.5592850393700788
21
0.3558361023622047
0
LINE
8
BLACK
6
CONTINUOUS
10
2.5592850393700788
20
0.3558361023622047
11
2.5539711023622047
21
0.3634251968503937
0
LINE
8
BLACK
6
CONTINUOUS
10
2.5539711023622047
20
0.3634251968503937
11
2.5500557086614171
21
0.3718217716535433
0
LINE
8
BLACK
6
CONTINUOUS
10
2.5500557086614171
20
0.3718217716535433
11
2.5476578740157478
21
0.3807706692913386
0
LINE
8
BLACK
6
CONTINUOUS
10
2.5476578740157478
20
0.3807706692913386
11
2.5468503937007871
21
0.39
0
LINE
8
BLACK
6
CONTINUOUS
10
2.5468503937007871
20
0.39
11
2.5476578740157478
21
0.3992293307086614
0
LINE
8
BLACK
6
CONTINUOUS
10
2.5476578740157478
20
0.3992293307086614
11
2.5500557086614171
21
0.4081782283464567
0
LINE
8
BLACK
6
CONTINUOUS
10
2.5500557086614171
20
0.4081782283464567
11
2.5539711023622047
21
0.4165748031496063
0
LINE
8
BLACK
6
CONTINUOUS
10
2.5539711023622047
20
0.4165748031496063
11
2.5592850393700788
21
0.4241638976377953
0
LINE
8
BLACK
6
CONTINUOUS
10
2.5592850393700788
20
0.4241638976377953
11
2.5658361023622045
21
0.4307149606299213
0
LINE
8
BLACK
6
CONTINUOUS
10
2.5658361023622045
20
0.4307149606299213
11
2.5734251968503936
21
0.4360288976377953
0
LINE
8
BLACK
6
CONTINUOUS
10
2.5734251968503936
20
0.4360288976377953
11
2.5818217716535434
21
0.4399442913385826
0
LINE
8
BLACK
6
CONTINUOUS
10
2.5818217716535434
20
0.4399442913385826
11
2.5907706692913384
21
0.4423421259842519
0
LINE
8
BLACK
6
CONTINUOUS
10
2.5907706692913384
20
0.4423421259842519
11
2.6000000000000001
21
0.4431496062992126
0
LINE
8
BLACK
6
CONTINUOUS
10
2.6000000000000001
20
0.4431496062992126
11
2.6092293307086614
21
0.4423421259842519
0
LINE
8
BLACK
6
CONTINUOUS
10
2.7342293307086614
20
0.4423421259842519
11
2.7431782283464567
21
0.4399442913385826
0
LINE
8
BLACK
6
CONTINUOUS
10
2.7431782283464567
20
0.4399442913385826
11
2.7515748031496061
21
0.4360288976377953
0
LINE
8
BLACK
6
CONTINUOUS
10
2.7515748031496061
20
0.4360288976377953
11
2.7591638976377952
21
0.4307149606299213
0
LINE
8
BLACK
6
CONTINUOUS
10
2.7591638976377952
20
0.4307149606299213
11
2.7657149606299214
21
0.4241638976377953
0
LINE
8
BLACK
6
CONTINUOUS
10
2.7657149606299214
20
0.4241638976377953
11
2.771028897637795
21
0.4165748031496063
0
LINE
8
BLACK
6
CONTINUOUS
10
2.771028897637795
20
0.4165748031496063
11
2.7749442913385827
21
0.4081782283464567
0
LINE
8
BLACK
6
CONTINUOUS
10
2.7749442913385827
20
0.4081782283464567
11
2.7773421259842519
21
0.3992293307086614
0
LINE
8
BLACK
6
CONTINUOUS
10
2.7773421259842519
20
0.3992293307086614
11
2.7781496062992126
21
0.39
0
LINE
8
BLACK
6
CONTINUOUS
10
2.7781496062992126
20
0.39
11
2.7773421259842519
21
0.3807706692913386
0
LINE
8
BLACK
6
CONTINUOUS
10
2.7773421259842519
20
0.3807706692913386
11
2.7749442913385827
21
0.3718217716535433
0
LINE
8
BLACK
6
CONTINUOUS
10
2.7749442913385827
20
0.3718217716535433
11
2.771028897637795
21
0.3634251968503937
0
LINE
8
BLACK
6
CONTINUOUS
10
2.771028897637795
20
0.3634251968503937
11
2.7657149606299214
21
0.3558361023622047
0
LINE
8
BLACK
6
CONTINUOUS
10
2.7657149606299214
20
0.3558361023622047
11
2.7591638976377952
21
0.3492850393700787
0
LINE
8
BLACK
6
CONTINUOUS
10
2.7591638976377952
20
0.3492850393700787
11
2.7515748031496061
21
0.3439711023622047
0
LINE
8
BLACK
6
CONTINUOUS
10
2.7515748031496061
20
0.3439711023622047
11
2.7431782283464567
21
0.3400557086614173
0
LINE
8
BLACK
6
CONTINUOUS
10
2.7431782283464567
20
0.3400557086614173
11
2.7342293307086614
21
0.337657874015748
0
LINE
8
BLACK
6
CONTINUOUS
10
2.7342293307086614
20
0.337657874015748
11
2.7250000000000001
21
0.3368503937007874
0
LINE
8
BLACK
6
CONTINUOUS
10
2.7250000000000001
20
0.3368503937007874
11
2.7157706692913384
21
0.337657874015748
0
LINE
8
BLACK
6
CONTINUOUS
10
2.7157706692913384
20
0.337657874015748
11
2.7068217716535434
21
0.3400557086614173
0
LINE
8
BLACK
6
CONTINUOUS
10
2.7068217716535434
20
0.3400557086614173
11
2.6984251968503936
21
0.3439711023622047
0
LINE
8
BLACK
6
CONTINUOUS
10
2.6984251968503936
20
0.3439711023622047
11
2.6908361023622045
21
0.3492850393700787
0
LINE
8
BLACK
6
CONTINUOUS
10
2.6908361023622045
20
0.3492850393700787
11
2.6842850393700788
21
0.3558361023622047
0
LINE
8
BLACK
6
CONTINUOUS
10
2.6842850393700788
20
0.3558361023622047
11
2.6789711023622047
21
0.3634251968503937
0
LINE
8
BLACK
6
CONTINUOUS
10
2.6789711023622047
20
0.3634251968503937
11
2.6750557086614171
21
0.3718217716535433
0
LINE
8
BLACK
6
CONTINUOUS
10
2.6750557086614171
20
0.3718217716535433
11
2.6726578740157478
21
0.3807706692913386
0
LINE
8
BLACK
6
CONTINUOUS
10
2.6726578740157478
20
0.3807706692913386
11
2.6718503937007871
21
0.39
0
LINE
8
BLACK
6
CONTINUOUS
10
2.6718503937007871
20
0.39
11
2.6726578740157478
21
0.3992293307086614
0
LINE
8
BLACK
6
CONTINUOUS
10
2.6726578740157478
20
0.3992293307086614
11
2.6750557086614171
21
0.4081782283464567
0
LINE
8
BLACK
6
CONTINUOUS
10
2.6750557086614171
20
0.4081782283464567
11
2.6789711023622047
21
0.4165748031496063
0
LINE
8
BLACK
6
CONTINUOUS
10
2.6789711023622047
20
0.4165748031496063
11
2.6842850393700788
21
0.4241638976377953
0
LINE
8
BLACK
6
CONTINUOUS
10
2.6842850393700788
20
0.4241638976377953
11
2.6908361023622045
21
0.4307149606299213
0
LINE
8
BLACK
6
CONTINUOUS
10
2.6908361023622045
20
0.4307149606299213
11
2.6984251968503936
21
0.4360288976377953
0
LINE
8
BLACK
6
CONTINUOUS
10
2.6984251968503936
20
0.4360288976377953
11
2.7068217716535434
21
0.4399442913385826
0
LINE
8
BLACK
6
CONTINUOUS
10
2.7068217716535434
20
0.4399442913385826
11
2.7157706692913384
21
0.4423421259842519
0
LINE
8
BLACK
6
CONTINUOUS
10
2.7157706692913384
20
0.4423421259842519
11
2.7250000000000001
21
0.4431496062992126
0
LINE
8
BLACK
6
CONTINUOUS
10
2.7250000000000001
20
0.4431496062992126
11
2.7342293307086614
21
0.4423421259842519
0
LINE
8
BLACK
6
CONTINUOUS
10
2.8542293307086615
20
0.4423421259842519
11
2.8631782283464564
21
0.4399442913385826
0
LINE
8
BLACK
6
CONTINUOUS
10
2.8631782283464564
20
0.4399442913385826
11
2.8715748031496062
21
0.4360288976377953
0
LINE
8
BLACK
6
CONTINUOUS
10
2.8715748031496062
20
0.4360288976377953
11
2.8791638976377953
21
0.4307149606299213
0
LINE
8
BLACK
6
CONTINUOUS
10
2.8791638976377953
20
0.4307149606299213
11
2.8857149606299211
21
0.4241638976377953
0
LINE
8
BLACK
6
CONTINUOUS
10
2.8857149606299211
20
0.4241638976377953
11
2.8910288976377951
21
0.4165748031496063
0
LINE
8
BLACK
6
CONTINUOUS
10
2.8910288976377951
20
0.4165748031496063
11
2.8949442913385828
21
0.4081782283464567
0
LINE
8
BLACK
6
CONTINUOUS
10
2.8949442913385828
20
0.4081782283464567
11
2.897342125984252
21
0.3992293307086614
0
LINE
8
BLACK
6
CONTINUOUS
10
2.897342125984252
20
0.3992293307086614
11
2.8981496062992127
21
0.39
0
LINE
8
BLACK
6
CONTINUOUS
10
2.8981496062992127
20
0.39
11
2.897342125984252
21
0.3807706692913386
0
LINE
8
BLACK
6
CONTINUOUS
10
2.897342125984252
20
0.3807706692913386
11
2.8949442913385828
21
0.3718217716535433
0
LINE
8
BLACK
6
CONTINUOUS
10
2.8949442913385828
20
0.3718217716535433
11
2.8910288976377951
21
0.3634251968503937
0
LINE
8
BLACK
6
CONTINUOUS
10
2.8910288976377951
20
0.3634251968503937
11
2.8857149606299211
21
0.3558361023622047
0
LINE
8
BLACK
6
CONTINUOUS
10
2.8857149606299211
20
0.3558361023622047
11
2.8791638976377953
21
0.3492850393700787
0
LINE
8
BLACK
6
CONTINUOUS
10
2.8791638976377953
20
0.3492850393700787
11
2.8715748031496062
21
0.3439711023622047
0
LINE
8
BLACK
6
CONTINUOUS
10
2.8715748031496062
20
0.3439711023622047
11
2.8631782283464564
21
0.3400557086614173
0
LINE
8
BLACK
6
CONTINUOUS
10
2.8631782283464564
20
0.3400557086614173
11
2.8542293307086615
21
0.337657874015748
0
LINE
8
BLACK
6
CONTINUOUS
10
2.8542293307086615
20
0.337657874015748
11
2.8449999999999998
21
0.3368503937007874
0
LINE
8
BLACK
6
CONTINUOUS
10
2.8449999999999998
20
0.3368503937007874
11
2.8357706692913385
21
0.337657874015748
0
LINE
8
BLACK
6
CONTINUOUS
10
2.8357706692913385
20
0.337657874015748
11
2.8268217716535431
21
0.3400557086614173
0
LINE
8
BLACK
6
CONTINUOUS
10
2.8268217716535431
20
0.3400557086614173
11
2.8184251968503937
21
0.3439711023622047
0
LINE
8
BLACK
6
CONTINUOUS
10
2.8184251968503937
20
0.3439711023622047
11
2.8108361023622046
21
0.3492850393700787
0
LINE
8
BLACK
6
CONTINUOUS
10
2.8108361023622046
20
0.3492850393700787
11
2.8042850393700789
21
0.3558361023622047
0
LINE
8
BLACK
6
CONTINUOUS
10
2.8042850393700789
20
0.3558361023622047
11
2.7989711023622048
21
0.3634251968503937
0
LINE
8
BLACK
6
CONTINUOUS
10
2.7989711023622048
20
0.3634251968503937
11
2.7950557086614172
21
0.3718217716535433
0
LINE
8
BLACK
6
CONTINUOUS
10
2.7950557086614172
20
0.3718217716535433
11
2.7926578740157479
21
0.3807706692913386
0
LINE
8
BLACK
6
CONTINUOUS
10
2.7926578740157479
20
0.3807706692913386
11
2.7918503937007872
21
0.39
0
LINE
8
BLACK
6
CONTINUOUS
10
2.7918503937007872
20
0.39
11
2.7926578740157479
21
0.3992293307086614
0
LINE
8
BLACK
6
CONTINUOUS
10
2.7926578740157479
20
0.3992293307086614
11
2.7950557086614172
21
0.4081782283464567
0
LINE
8
BLACK
6
CONTINUOUS
10
2.7950557086614172
20
0.4081782283464567
11
2.7989711023622048
21
0.4165748031496063
0
LINE
8
BLACK
6
CONTINUOUS
10
2.7989711023622048
20
0.4165748031496063
11
2.8042850393700789
21
0.4241638976377953
0
LINE
8
BLACK
6
CONTINUOUS
10
2.8042850393700789
20
0.4241638976377953
11
2.8108361023622046
21
0.4307149606299213
0
LINE
8
BLACK
6
CONTINUOUS
10
2.8108361023622046
20
0.4307149606299213
11
2.8184251968503937
21
0.4360288976377953
0
LINE
8
BLACK
6
CONTINUOUS
10
2.8184251968503937
20
0.4360288976377953
11
2.8268217716535431
21
0.4399442913385826
0
LINE
8
BLACK
6
CONTINUOUS
10
2.8268217716535431
20
0.4399442913385826
11
2.8357706692913385
21
0.4423421259842519
0
LINE
8
BLACK
6
CONTINUOUS
10
2.8357706692913385
20
0.4423421259842519
11
2.8449999999999998
21
0.4431496062992126
0
LINE
8
BLACK
6
CONTINUOUS
10
2.8449999999999998
20
0.4431496062992126
11
2.8542293307086615
21
0.4423421259842519
0
LINE
8
BLACK
6
CONTINUOUS
10
2.9742293307086611
20
0.4423421259842519
11
2.9831782283464565
21
0.4399442913385826
0
LINE
8
BLACK
6
CONTINUOUS
10
2.9831782283464565
20
0.4399442913385826
11
2.9915748031496063
21
0.4360288976377953
0
LINE
8
BLACK
6
CONTINUOUS
10
2.9915748031496063
20
0.4360288976377953
11
2.999163897637795
21
0.4307149606299213
0
LINE
8
BLACK
6
CONTINUOUS
10
2.999163897637795
20
0.4307149606299213
11
3.0057149606299212
21
0.4241638976377953
0
LINE
8
BLACK
6
CONTINUOUS
10
3.0057149606299212
20
0.4241638976377953
11
3.0110288976377952
21
0.4165748031496063
0
LINE
8
BLACK
6
CONTINUOUS
10
3.0110288976377952
20
0.4165748031496063
11
3.0149442913385824
21
0.4081782283464567
0
LINE
8
BLACK
6
CONTINUOUS
10
3.0149442913385824
20
0.4081782283464567
11
3.0173421259842521
21
0.3992293307086614
0
LINE
8
BLACK
6
CONTINUOUS
10
3.0173421259842521
20
0.3992293307086614
11
3.0181496062992124
21
0.39
0
LINE
8
BLACK
6
CONTINUOUS
10
3.0181496062992124
20
0.39
11
3.0173421259842521
21
0.3807706692913386
0
LINE
8
BLACK
6
CONTINUOUS
10
3.0173421259842521
20
0.3807706692913386
11
3.0149442913385824
21
0.3718217716535433
0
LINE
8
BLACK
6
CONTINUOUS
10
3.0149442913385824
20
0.3718217716535433
11
3.0110288976377952
21
0.3634251968503937
0
LINE
8
BLACK
6
CONTINUOUS
10
3.0110288976377952
20
0.3634251968503937
11
3.0057149606299212
21
0.3558361023622047
0
LINE
8
BLACK
6
CONTINUOUS
10
3.0057149606299212
20
0.3558361023622047
11
2.999163897637795
21
0.3492850393700787
0
LINE
8
BLACK
6
CONTINUOUS
10
2.999163897637795
20
0.3492850393700787
11
2.9915748031496063
21
0.3439711023622047
0
LINE
8
BLACK
6
CONTINUOUS
10
2.9915748031496063
20
0.3439711023622047
11
2.9831782283464565
21
0.3400557086614173
0
LINE
8
BLACK
6
CONTINUOUS
10
2.9831782283464565
20
0.3400557086614173
11
2.9742293307086611
21
0.337657874015748
0
LINE
8
BLACK
6
CONTINUOUS
10
2.9742293307086611
20
0.337657874015748
11
2.9649999999999999
21
0.3368503937007874
0
LINE
8
BLACK
6
CONTINUOUS
10
2.9649999999999999
20
0.3368503937007874
11
2.9557706692913386
21
0.337657874015748
0
LINE
8
BLACK
6
CONTINUOUS
10
2.9557706692913386
20
0.337657874015748
11
2.9468217716535432
21
0.3400557086614173
0
LINE
8
BLACK
6
CONTINUOUS
10
2.9468217716535432
20
0.3400557086614173
11
2.9384251968503938
21
0.3439711023622047
0
LINE
8
BLACK
6
CONTINUOUS
10
2.9384251968503938
20
0.3439711023622047
11
2.9308361023622047
21
0.3492850393700787
0
LINE
8
BLACK
6
CONTINUOUS
10
2.9308361023622047
20
0.3492850393700787
11
2.9242850393700786
21
0.3558361023622047
0
LINE
8
BLACK
6
CONTINUOUS
10
2.9242850393700786
20
0.3558361023622047
11
2.9189711023622045
21
0.3634251968503937
0
LINE
8
BLACK
6
CONTINUOUS
10
2.9189711023622045
20
0.3634251968503937
11
2.9150557086614173
21
0.3718217716535433
0
LINE
8
BLACK
6
CONTINUOUS
10
2.9150557086614173
20
0.3718217716535433
11
2.912657874015748
21
0.3807706692913386
0
LINE
8
BLACK
6
CONTINUOUS
10
2.912657874015748
20
0.3807706692913386
11
2.9118503937007874
21
0.39
0
LINE
8
BLACK
6
CONTINUOUS
10
2.9118503937007874
20
0.39
11
2.912657874015748
21
0.3992293307086614
0
LINE
8
BLACK
6
CONTINUOUS
10
2.912657874015748
20
0.3992293307086614
11
2.9150557086614173
21
0.4081782283464567
0
LINE
8
BLACK
6
CONTINUOUS
10
2.9150557086614173
20
0.4081782283464567
11
2.9189711023622045
21
0.4165748031496063
0
LINE
8
BLACK
6
CONTINUOUS
10
2.9189711023622045
20
0.4165748031496063
11
2.9242850393700786
21
0.4241638976377953
0
LINE
8
BLACK
6
CONTINUOUS
10
2.9242850393700786
20
0.4241638976377953
11
2.9308361023622047
21
0.4307149606299213
0
LINE
8
BLACK
6
CONTINUOUS
10
2.9308361023622047
20
0.4307149606299213
11
2.9384251968503938
21
0.4360288976377953
0
LINE
8
BLACK
6
CONTINUOUS
10
2.9384251968503938
20
0.4360288976377953
11
2.9468217716535432
21
0.4399442913385826
0
LINE
8
BLACK
6
CONTINUOUS
10
2.9468217716535432
20
0.4399442913385826
11
2.9557706692913386
21
0.4423421259842519
0
LINE
8
BLACK
6
CONTINUOUS
10
2.9557706692913386
20
0.4423421259842519
11
2.9649999999999999
21
0.4431496062992126
0
LINE
8
BLACK
6
CONTINUOUS
10
2.9649999999999999
20
0.4431496062992126
11
2.9742293307086611
21
0.4423421259842519
0
LINE
8
BLACK
6
CONTINUOUS
10
1.3942293307086613
20
0.4573421259842519
11
1.4031782283464567
21
0.4549442913385827
0
LINE
8
BLACK
6
CONTINUOUS
10
1.4031782283464567
20
0.4549442913385827
11
1.4115748031496063
21
0.4510288976377952
0
LINE
8
BLACK
6
CONTINUOUS
10
1.4115748031496063
20
0.4510288976377952
11
1.4191638976377952
21
0.4457149606299213
0
LINE
8
BLACK
6
CONTINUOUS
10
1.4191638976377952
20
0.4457149606299213
11
1.4257149606299213
21
0.4391638976377953
0
LINE
8
BLACK
6
CONTINUOUS
10
1.4257149606299213
20
0.4391638976377953
11
1.4310288976377952
21
0.4315748031496063
0
LINE
8
BLACK
6
CONTINUOUS
10
1.4310288976377952
20
0.4315748031496063
11
1.4349442913385826
21
0.4231782283464567
0
LINE
8
BLACK
6
CONTINUOUS
10
1.4349442913385826
20
0.4231782283464567
11
1.437342125984252
21
0.4142293307086614
0
LINE
8
BLACK
6
CONTINUOUS
10
1.437342125984252
20
0.4142293307086614
11
1.4381496062992125
21
0.405
0
LINE
8
BLACK
6
CONTINUOUS
10
1.4381496062992125
20
0.405
11
1.437342125984252
21
0.3957706692913386
0
LINE
8
BLACK
6
CONTINUOUS
10
1.437342125984252
20
0.3957706692913386
11
1.4349442913385826
21
0.3868217716535433
0
LINE
8
BLACK
6
CONTINUOUS
10
1.4349442913385826
20
0.3868217716535433
11
1.4310288976377952
21
0.3784251968503937
0
LINE
8
BLACK
6
CONTINUOUS
10
1.4310288976377952
20
0.3784251968503937
11
1.4257149606299213
21
0.3708361023622047
0
LINE
8
BLACK
6
CONTINUOUS
10
1.4257149606299213
20
0.3708361023622047
11
1.4191638976377952
21
0.3642850393700787
0
LINE
8
BLACK
6
CONTINUOUS
10
1.4191638976377952
20
0.3642850393700787
11
1.4115748031496063
21
0.3589711023622047
0
LINE
8
BLACK
6
CONTINUOUS
10
1.4115748031496063
20
0.3589711023622047
11
1.4031782283464567
21
0.3550557086614173
0
LINE
8
BLACK
6
CONTINUOUS
10
1.4031782283464567
20
0.3550557086614173
11
1.3942293307086613
21
0.352657874015748
0
LINE
8
BLACK
6
CONTINUOUS
10
1.3942293307086613
20
0.352657874015748
11
1.385
21
0.3518503937007874
0
LINE
8
BLACK
6
CONTINUOUS
10
1.385
20
0.3518503937007874
11
1.3757706692913385
21
0.352657874015748
0
LINE
8
BLACK
6
CONTINUOUS
10
1.3757706692913385
20
0.352657874015748
11
1.3668217716535433
21
0.3550557086614173
0
LINE
8
BLACK
6
CONTINUOUS
10
1.3668217716535433
20
0.3550557086614173
11
1.3584251968503938
21
0.3589711023622047
0
LINE
8
BLACK
6
CONTINUOUS
10
1.3584251968503938
20
0.3589711023622047
11
1.3508361023622046
21
0.3642850393700787
0
LINE
8
BLACK
6
CONTINUOUS
10
1.3508361023622046
20
0.3642850393700787
11
1.3442850393700787
21
0.3708361023622047
0
LINE
8
BLACK
6
CONTINUOUS
10
1.3442850393700787
20
0.3708361023622047
11
1.3389711023622046
21
0.3784251968503937
0
LINE
8
BLACK
6
CONTINUOUS
10
1.3389711023622046
20
0.3784251968503937
11
1.3350557086614172
21
0.3868217716535433
0
LINE
8
BLACK
6
CONTINUOUS
10
1.3350557086614172
20
0.3868217716535433
11
1.332657874015748
21
0.3957706692913386
0
LINE
8
BLACK
6
CONTINUOUS
10
1.332657874015748
20
0.3957706692913386
11
1.3318503937007873
21
0.405
0
LINE
8
BLACK
6
CONTINUOUS
10
1.3318503937007873
20
0.405
11
1.332657874015748
21
0.4142293307086614
0
LINE
8
BLACK
6
CONTINUOUS
10
1.332657874015748
20
0.4142293307086614
11
1.3350557086614172
21
0.4231782283464567
0
LINE
8
BLACK
6
CONTINUOUS
10
1.3350557086614172
20
0.4231782283464567
11
1.3389711023622046
21
0.4315748031496063
0
LINE
8
BLACK
6
CONTINUOUS
10
1.3389711023622046
20
0.4315748031496063
11
1.3442850393700787
21
0.4391638976377953
0
LINE
8
BLACK
6
CONTINUOUS
10
1.3442850393700787
20
0.4391638976377953
11
1.3508361023622046
21
0.4457149606299213
0
LINE
8
BLACK
6
CONTINUOUS
10
1.3508361023622046
20
0.4457149606299213
11
1.3584251968503938
21
0.4510288976377952
0
LINE
8
BLACK
6
CONTINUOUS
10
1.3584251968503938
20
0.4510288976377952
11
1.3668217716535433
21
0.4549442913385827
0
LINE
8
BLACK
6
CONTINUOUS
10
1.3668217716535433
20
0.4549442913385827
11
1.3757706692913385
21
0.4573421259842519
0
LINE
8
BLACK
6
CONTINUOUS
10
1.3757706692913385
20
0.4573421259842519
11
1.385
21
0.4581496062992126
0
LINE
8
BLACK
6
CONTINUOUS
10
1.385
20
0.4581496062992126
11
1.3942293307086613
21
0.4573421259842519
0
LINE
8
BLACK
6
CONTINUOUS
10
1.605
20
0.375
11
1.5449999999999999
21
0.375
0
LINE
8
BLACK
6
CONTINUOUS
10
1.5449999999999999
20
0.375
11
1.5449999999999999
21
0.435
0
LINE
8
BLACK
6
CONTINUOUS
10
1.5449999999999999
20
0.435
11
1.605
21
0.435
0
LINE
8
BLACK
6
CONTINUOUS
10
1.605
20
0.435
11
1.605
21
0.375
0
LINE
8
BLACK
6
CONTINUOUS
10
1.7050000000000001
20
0.375
11
1.645
21
0.375
0
LINE
8
BLACK
6
CONTINUOUS
10
1.645
20
0.375
11
1.645
21
0.435
0
LINE
8
BLACK
6
CONTINUOUS
10
1.645
20
0.435
11
1.7050000000000001
21
0.435
0
LINE
8
BLACK
6
CONTINUOUS
10
1.7050000000000001
20
0.435
11
1.7050000000000001
21
0.375
0
LINE
8
BLACK
6
CONTINUOUS
10
1.8049999999999999
20
0.375
11
1.7449999999999999
21
0.375
0
LINE
8
BLACK
6
CONTINUOUS
10
1.7449999999999999
20
0.375
11
1.7449999999999999
21
0.435
0
LINE
8
BLACK
6
CONTINUOUS
10
1.7449999999999999
20
0.435
11
1.8049999999999999
21
0.435
0
LINE
8
BLACK
6
CONTINUOUS
10
1.8049999999999999
20
0.435
11
1.8049999999999999
21
0.375
0
LINE
8
BLACK
6
CONTINUOUS
10
1.905
20
0.375
11
1.845
21
0.375
0
LINE
8
BLACK
6
CONTINUOUS
10
1.845
20
0.375
11
1.845
21
0.435
0
LINE
8
BLACK
6
CONTINUOUS
10
1.845
20
0.435
11
1.905
21
0.435
0
LINE
8
BLACK
6
CONTINUOUS
10
1.905
20
0.435
11
1.905
21
0.375
0
LINE
8
BLACK
6
CONTINUOUS
10
0.8606496062992126
20
0.4476771653543307
11
0.7106496062992126
21
0.4476771653543307
0
LINE
8
BLACK
6
CONTINUOUS
10
0.7106496062992126
20
0.4476771653543307
11
0.7106496062992126
21
0.5976771653543307
0
LINE
8
BLACK
6
CONTINUOUS
10
0.7106496062992126
20
0.5976771653543307
11
0.8606496062992126
21
0.5976771653543307
0
LINE
8
BLACK
6
CONTINUOUS
10
0.8606496062992126
20
0.5976771653543307
11
0.8606496062992126
21
0.4476771653543307
0
LINE
8
BLACK
6
CONTINUOUS
10
1.0574999999999999
20
0.4476771653543307
11
0.9075
21
0.4476771653543307
0
LINE
8
BLACK
6
CONTINUOUS
10
0.9075
20
0.4476771653543307
11
0.9075
21
0.5976771653543307
0
LINE
8
BLACK
6
CONTINUOUS
10
0.9075
20
0.5976771653543307
11
1.0574999999999999
21
0.5976771653543307
0
LINE
8
BLACK
6
CONTINUOUS
10
1.0574999999999999
20
0.5976771653543307
11
1.0574999999999999
21
0.4476771653543307
0
LINE
8
BLACK
6
CONTINUOUS
10
1.605
20
0.475
11
1.5449999999999999
21
0.475
0
LINE
8
BLACK
6
CONTINUOUS
10
1.5449999999999999
20
0.475
11
1.5449999999999999
21
0.535
0
LINE
8
BLACK
6
CONTINUOUS
10
1.5449999999999999
20
0.535
11
1.605
21
0.535
0
LINE
8
BLACK
6
CONTINUOUS
10
1.605
20
0.535
11
1.605
21
0.475
0
LINE
8
BLACK
6
CONTINUOUS
10
1.7050000000000001
20
0.475
11
1.645
21
0.475
0
LINE
8
BLACK
6
CONTINUOUS
10
1.645
20
0.475
11
1.645
21
0.535
0
LINE
8
BLACK
6
CONTINUOUS
10
1.645
20
0.535
11
1.7050000000000001
21
0.535
0
LINE
8
BLACK
6
CONTINUOUS
10
1.7050000000000001
20
0.535
11
1.7050000000000001
21
0.475
0
LINE
8
BLACK
6
CONTINUOUS
10
1.8049999999999999
20
0.475
11
1.7449999999999999
21
0.475
0
LINE
8
BLACK
6
CONTINUOUS
10
1.7449999999999999
20
0.475
11
1.7449999999999999
21
0.535
0
LINE
8
BLACK
6
CONTINUOUS
10
1.7449999999999999
20
0.535
11
1.8049999999999999
21
0.535
0
LINE
8
BLACK
6
CONTINUOUS
10
1.8049999999999999
20
0.535
11
1.8049999999999999
21
0.475
0
LINE
8
BLACK
6
CONTINUOUS
10
1.905
20
0.475
11
1.845
21
0.475
0
LINE
8
BLACK
6
CONTINUOUS
10
1.845
20
0.475
11
1.845
21
0.535
0
LINE
8
BLACK
6
CONTINUOUS
10
1.845
20
0.535
11
1.905
21
0.535
0
LINE
8
BLACK
6
CONTINUOUS
10
1.905
20
0.535
11
1.905
21
0.475
0
LINE
8
BLACK
6
CONTINUOUS
10
2.118984251968504
20
0.4905826771653543
11
2.0529842519685038
21
0.4905826771653543
0
LINE
8
BLACK
6
CONTINUOUS
10
2.0529842519685038
20
0.4905826771653543
11
2.0529842519685038
21
0.5565826771653544
0
LINE
8
BLACK
6
CONTINUOUS
10
2.0529842519685038
20
0.5565826771653544
11
2.118984251968504
21
0.5565826771653544
0
LINE
8
BLACK
6
CONTINUOUS
10
2.118984251968504
20
0.5565826771653544
11
2.118984251968504
21
0.4905826771653543
0
LINE
8
BLACK
6
CONTINUOUS
10
2.3670157480314962
20
0.4905826771653543
11
2.3010157480314959
21
0.4905826771653543
0
LINE
8
BLACK
6
CONTINUOUS
10
2.3010157480314959
20
0.4905826771653543
11
2.3010157480314959
21
0.5565826771653544
0
LINE
8
BLACK
6
CONTINUOUS
10
2.3010157480314959
20
0.5565826771653544
11
2.3670157480314962
21
0.5565826771653544
0
LINE
8
BLACK
6
CONTINUOUS
10
2.3670157480314962
20
0.5565826771653544
11
2.3670157480314962
21
0.4905826771653543
0
LINE
8
BLACK
6
CONTINUOUS
10
0.4515748031496063
20
0.9413385826771653
11
0.2940944881889764
21
0.9413385826771653
0
LINE
8
BLACK
6
CONTINUOUS
10
0.2940944881889764
20
0.9413385826771653
11
0.2940944881889764
21
1.0988188976377953
0
LINE
8
BLACK
6
CONTINUOUS
10
0.2940944881889764
20
1.0988188976377953
11
0.4515748031496063
21
1.0988188976377953
0
LINE
8
BLACK
6
CONTINUOUS
10
0.4515748031496063
20
1.0988188976377953
11
0.4515748031496063
21
0.9413385826771653
0
LINE
8
BLACK
6
CONTINUOUS
10
3.3059055118110234
20
0.9413385826771653
11
3.1484251968503938
21
0.9413385826771653
0
LINE
8
BLACK
6
CONTINUOUS
10
3.1484251968503938
20
0.9413385826771653
11
3.1484251968503938
21
1.0988188976377953
0
LINE
8
BLACK
6
CONTINUOUS
10
3.1484251968503938
20
1.0988188976377953
11
3.3059055118110234
21
1.0988188976377953
0
LINE
8
BLACK
6
CONTINUOUS
10
3.3059055118110234
20
1.0988188976377953
11
3.3059055118110234
21
0.9413385826771653
0
LINE
8
BLACK
6
CONTINUOUS
10
2.8731760236220474
20
1.046809842519685
11
2.8763691732283463
21
1.0446762598425197
0
LINE
8
BLACK
6
CONTINUOUS
10
2.8763691732283463
20
1.0446762598425197
11
2.8785027559055116
21
1.0414831102362205
0
LINE
8
BLACK
6
CONTINUOUS
10
2.8785027559055116
20
1.0414831102362205
11
2.8792519685039371
21
1.0377165354330709
0
LINE
8
BLACK
6
CONTINUOUS
10
2.8792519685039371
20
1.0377165354330709
11
2.8792519685039371
21
1.0022834645669292
0
LINE
8
BLACK
6
CONTINUOUS
10
2.8792519685039371
20
1.0022834645669292
11
2.8785027559055116
21
0.9985168897637795
0
LINE
8
BLACK
6
CONTINUOUS
10
2.8785027559055116
20
0.9985168897637795
11
2.8763691732283463
21
0.9953237401574803
0
LINE
8
BLACK
6
CONTINUOUS
10
2.8763691732283463
20
0.9953237401574803
11
2.8731760236220474
21
0.9931901574803149
0
LINE
8
BLACK
6
CONTINUOUS
10
2.8731760236220474
20
0.9931901574803149
11
2.8694094488188977
21
0.9924409448818897
0
LINE
8
BLACK
6
CONTINUOUS
10
2.8694094488188977
20
0.9924409448818897
11
2.8487401574803148
21
0.9924409448818897
0
LINE
8
BLACK
6
CONTINUOUS
10
2.8487401574803148
20
0.9924409448818897
11
2.8449735826771652
21
0.9931901574803149
0
LINE
8
BLACK
6
CONTINUOUS
10
2.8449735826771652
20
0.9931901574803149
11
2.8417804330708663
21
0.9953237401574803
0
LINE
8
BLACK
6
CONTINUOUS
10
2.8417804330708663
20
0.9953237401574803
11
2.8396468503937009
21
0.9985168897637795
0
LINE
8
BLACK
6
CONTINUOUS
10
2.8396468503937009
20
0.9985168897637795
11
2.8388976377952755
21
1.0022834645669292
0
LINE
8
BLACK
6
CONTINUOUS
10
2.8388976377952755
20
1.0022834645669292
11
2.8388976377952755
21
1.0377165354330709
0
LINE
8
BLACK
6
CONTINUOUS
10
2.8388976377952755
20
1.0377165354330709
11
2.8396468503937009
21
1.0414831102362205
0
LINE
8
BLACK
6
CONTINUOUS
10
2.8396468503937009
20
1.0414831102362205
11
2.8417804330708663
21
1.0446762598425197
0
LINE
8
BLACK
6
CONTINUOUS
10
2.8417804330708663
20
1.0446762598425197
11
2.8449735826771652
21
1.046809842519685
0
LINE
8
BLACK
6
CONTINUOUS
10
2.8449735826771652
20
1.046809842519685
11
2.8487401574803148
21
1.0475590551181102
0
LINE
8
BLACK
6
CONTINUOUS
10
2.8487401574803148
20
1.0475590551181102
11
2.8694094488188977
21
1.0475590551181102
0
LINE
8
BLACK
6
CONTINUOUS
10
2.8694094488188977
20
1.0475590551181102
11
2.8731760236220474
21
1.046809842519685
0
LINE
8
BLACK
6
CONTINUOUS
10
2.9450264173228344
20
1.046809842519685
11
2.9482195669291338
21
1.0446762598425197
0
LINE
8
BLACK
6
CONTINUOUS
10
2.9482195669291338
20
1.0446762598425197
11
2.9503531496062991
21
1.0414831102362205
0
LINE
8
BLACK
6
CONTINUOUS
10
2.9503531496062991
20
1.0414831102362205
11
2.9511023622047245
21
1.0377165354330709
0
LINE
8
BLACK
6
CONTINUOUS
10
2.9511023622047245
20
1.0377165354330709
11
2.9511023622047245
21
1.0022834645669292
0
LINE
8
BLACK
6
CONTINUOUS
10
2.9511023622047245
20
1.0022834645669292
11
2.9503531496062991
21
0.9985168897637795
0
LINE
8
BLACK
6
CONTINUOUS
10
2.9503531496062991
20
0.9985168897637795
11
2.9482195669291338
21
0.9953237401574803
0
LINE
8
BLACK
6
CONTINUOUS
10
2.9482195669291338
20
0.9953237401574803
11
2.9450264173228344
21
0.9931901574803149
0
LINE
8
BLACK
6
CONTINUOUS
10
2.9450264173228344
20
0.9931901574803149
11
2.9412598425196848
21
0.9924409448818897
0
LINE
8
BLACK
6
CONTINUOUS
10
2.9412598425196848
20
0.9924409448818897
11
2.9205905511811023
21
0.9924409448818897
0
LINE
8
BLACK
6
CONTINUOUS
10
2.9205905511811023
20
0.9924409448818897
11
2.9168239763779527
21
0.9931901574803149
0
LINE
8
BLACK
6
CONTINUOUS
10
2.9168239763779527
20
0.9931901574803149
11
2.9136308267716533
21
0.9953237401574803
0
LINE
8
BLACK
6
CONTINUOUS
10
2.9136308267716533
20
0.9953237401574803
11
2.911497244094488
21
0.9985168897637795
0
LINE
8
BLACK
6
CONTINUOUS
10
2.911497244094488
20
0.9985168897637795
11
2.910748031496063
21
1.0022834645669292
0
LINE
8
BLACK
6
CONTINUOUS
10
2.910748031496063
20
1.0022834645669292
11
2.910748031496063
21
1.0377165354330709
0
LINE
8
BLACK
6
CONTINUOUS
10
2.910748031496063
20
1.0377165354330709
11
2.911497244094488
21
1.0414831102362205
0
LINE
8
BLACK
6
CONTINUOUS
10
2.911497244094488
20
1.0414831102362205
11
2.9136308267716533
21
1.0446762598425197
0
LINE
8
BLACK
6
CONTINUOUS
10
2.9136308267716533
20
1.0446762598425197
11
2.9168239763779527
21
1.046809842519685
0
LINE
8
BLACK
6
CONTINUOUS
10
2.9168239763779527
20
1.046809842519685
11
2.9205905511811023
21
1.0475590551181102
0
LINE
8
BLACK
6
CONTINUOUS
10
2.9205905511811023
20
1.0475590551181102
11
2.9412598425196848
21
1.0475590551181102
0
LINE
8
BLACK
6
CONTINUOUS
10
2.9412598425196848
20
1.0475590551181102
11
2.9450264173228344
21
1.046809842519685
0
LINE
8
BLACK
6
CONTINUOUS
10
2.2037665748031494
20
1.1440933070866142
11
2.2069597244094488
21
1.1419597244094488
0
LINE
8
BLACK
6
CONTINUOUS
10
2.2069597244094488
20
1.1419597244094488
11
2.2090933070866141
21
1.1387665748031497
0
LINE
8
BLACK
6
CONTINUOUS
10
2.2090933070866141
20
1.1387665748031497
11
2.2098425196850395
21
1.135
0
LINE
8
BLACK
6
CONTINUOUS
10
2.2098425196850395
20
1.135
11
2.2090933070866141
21
1.1312334251968503
0
LINE
8
BLACK
6
CONTINUOUS
10
2.2090933070866141
20
1.1312334251968503
11
2.2069597244094488
21
1.1280402755905512
0
LINE
8
BLACK
6
CONTINUOUS
10
2.2069597244094488
20
1.1280402755905512
11
2.2037665748031494
21
1.1259066929133859
0
LINE
8
BLACK
6
CONTINUOUS
10
2.2037665748031494
20
1.1259066929133859
11
2.1999999999999997
21
1.1251574803149607
0
LINE
8
BLACK
6
CONTINUOUS
10
2.1999999999999997
20
1.1251574803149607
11
2.1962334251968505
21
1.1259066929133859
0
LINE
8
BLACK
6
CONTINUOUS
10
2.1962334251968505
20
1.1259066929133859
11
2.1930402755905511
21
1.1280402755905512
0
LINE
8
BLACK
6
CONTINUOUS
10
2.1930402755905511
20
1.1280402755905512
11
2.1909066929133858
21
1.1312334251968503
0
LINE
8
BLACK
6
CONTINUOUS
10
2.1909066929133858
20
1.1312334251968503
11
2.1901574803149604
21
1.135
0
LINE
8
BLACK
6
CONTINUOUS
10
2.1901574803149604
20
1.135
11
2.1909066929133858
21
1.1387665748031497
0
LINE
8
BLACK
6
CONTINUOUS
10
2.1909066929133858
20
1.1387665748031497
11
2.1930402755905511
21
1.1419597244094488
0
LINE
8
BLACK
6
CONTINUOUS
10
2.1930402755905511
20
1.1419597244094488
11
2.1962334251968505
21
1.1440933070866142
0
LINE
8
BLACK
6
CONTINUOUS
10
2.1962334251968505
20
1.1440933070866142
11
2.1999999999999997
21
1.1448425196850394
0
LINE
8
BLACK
6
CONTINUOUS
10
2.1999999999999997
20
1.1448425196850394
11
2.2037665748031494
21
1.1440933070866142
0
LINE
8
BLACK
6
CONTINUOUS
10
0.5029340944881889
20
1.2504137401574802
11
0.5081460236220472
21
1.2490172047244095
0
LINE
8
BLACK
6
CONTINUOUS
10
0.5081460236220472
20
1.2490172047244095
11
0.5128188976377953
21
1.2463193307086613
0
LINE
8
BLACK
6
CONTINUOUS
10
0.5128188976377953
20
1.2463193307086613
11
0.5166342913385826
21
1.2425039370078741
0
LINE
8
BLACK
6
CONTINUOUS
10
0.5166342913385826
20
1.2425039370078741
11
0.5193321653543307
21
1.2378310629921259
0
LINE
8
BLACK
6
CONTINUOUS
10
0.5193321653543307
20
1.2378310629921259
11
0.5207287007874015
21
1.2326191338582677
0
LINE
8
BLACK
6
CONTINUOUS
10
0.5207287007874015
20
1.2326191338582677
11
0.5207287007874015
21
1.2272233858267716
0
LINE
8
BLACK
6
CONTINUOUS
10
0.5207287007874015
20
1.2272233858267716
11
0.5193321653543307
21
1.2220114566929134
0
LINE
8
BLACK
6
CONTINUOUS
10
0.5193321653543307
20
1.2220114566929134
11
0.5166342913385826
21
1.2173385826771654
0
LINE
8
BLACK
6
CONTINUOUS
10
0.5166342913385826
20
1.2173385826771654
11
0.5128188976377953
21
1.213523188976378
0
LINE
8
BLACK
6
CONTINUOUS
10
0.5128188976377953
20
1.213523188976378
11
0.5081460236220472
21
1.2108253149606298
0
LINE
8
BLACK
6
CONTINUOUS
10
0.5081460236220472
20
1.2108253149606298
11
0.5029340944881889
21
1.2094287795275591
0
LINE
8
BLACK
6
CONTINUOUS
10
0.5029340944881889
20
1.2094287795275591
11
0.4588976377952756
21
1.2092519685039369
0
LINE
8
BLACK
6
CONTINUOUS
10
0.4588976377952756
20
1.2092519685039369
11
0.4561997637795275
21
1.2094287795275591
0
LINE
8
BLACK
6
CONTINUOUS
10
0.4561997637795275
20
1.2094287795275591
11
0.4509878346456693
21
1.2108253149606298
0
LINE
8
BLACK
6
CONTINUOUS
10
0.4509878346456693
20
1.2108253149606298
11
0.4463149606299213
21
1.213523188976378
0
LINE
8
BLACK
6
CONTINUOUS
10
0.4463149606299213
20
1.213523188976378
11
0.4424995669291338
21
1.2173385826771654
0
LINE
8
BLACK
6
CONTINUOUS
10
0.4424995669291338
20
1.2173385826771654
11
0.4398016929133858
21
1.2220114566929134
0
LINE
8
BLACK
6
CONTINUOUS
10
0.4398016929133858
20
1.2220114566929134
11
0.4384051574803149
21
1.2272233858267716
0
LINE
8
BLACK
6
CONTINUOUS
10
0.4384051574803149
20
1.2272233858267716
11
0.4384051574803149
21
1.2326191338582677
0
LINE
8
BLACK
6
CONTINUOUS
10
0.4384051574803149
20
1.2326191338582677
11
0.4398016929133858
21
1.2378310629921259
0
LINE
8
BLACK
6
CONTINUOUS
10
0.4398016929133858
20
1.2378310629921259
11
0.4424995669291338
21
1.2425039370078741
0
LINE
8
BLACK
6
CONTINUOUS
10
0.4424995669291338
20
1.2425039370078741
11
0.4463149606299213
21
1.2463193307086613
0
LINE
8
BLACK
6
CONTINUOUS
10
0.4463149606299213
20
1.2463193307086613
11
0.4509878346456693
21
1.2490172047244095
0
LINE
8
BLACK
6
CONTINUOUS
10
0.4509878346456693
20
1.2490172047244095
11
0.4561997637795275
21
1.2504137401574802
0
LINE
8
BLACK
6
CONTINUOUS
10
0.4561997637795275
20
1.2504137401574802
11
0.500236220472441
21
1.2505905511811024
0
LINE
8
BLACK
6
CONTINUOUS
10
0.500236220472441
20
1.2505905511811024
11
0.5029340944881889
21
1.2504137401574802
0
LINE
8
BLACK
6
CONTINUOUS
10
0.3372544488188977
20
1.2494378740157479
11
0.342218188976378
21
1.2481078740157481
0
LINE
8
BLACK
6
CONTINUOUS
10
0.342218188976378
20
1.2481078740157481
11
0.3466685433070866
21
1.2455384645669292
0
LINE
8
BLACK
6
CONTINUOUS
10
0.3466685433070866
20
1.2455384645669292
11
0.3503022440944882
21
1.2419047637795275
0
LINE
8
BLACK
6
CONTINUOUS
10
0.3503022440944882
20
1.2419047637795275
11
0.3528716535433071
21
1.2374544094488189
0
LINE
8
BLACK
6
CONTINUOUS
10
0.3528716535433071
20
1.2374544094488189
11
0.3542016535433071
21
1.2324906692913387
0
LINE
8
BLACK
6
CONTINUOUS
10
0.3542016535433071
20
1.2324906692913387
11
0.3542016535433071
21
1.2273518503937006
0
LINE
8
BLACK
6
CONTINUOUS
10
0.3542016535433071
20
1.2273518503937006
11
0.3528716535433071
21
1.2223881102362204
0
LINE
8
BLACK
6
CONTINUOUS
10
0.3528716535433071
20
1.2223881102362204
11
0.3503022440944882
21
1.2179377559055118
0
LINE
8
BLACK
6
CONTINUOUS
10
0.3503022440944882
20
1.2179377559055118
11
0.3466685433070866
21
1.2143040551181101
0
LINE
8
BLACK
6
CONTINUOUS
10
0.3466685433070866
20
1.2143040551181101
11
0.342218188976378
21
1.2117346456692912
0
LINE
8
BLACK
6
CONTINUOUS
10
0.342218188976378
20
1.2117346456692912
11
0.3372544488188977
21
1.2104046456692914
0
LINE
8
BLACK
6
CONTINUOUS
10
0.3372544488188977
20
1.2104046456692914
11
0.2953149606299212
21
1.2102362204724408
0
LINE
8
BLACK
6
CONTINUOUS
10
0.2953149606299212
20
1.2102362204724408
11
0.2927455511811023
21
1.2104046456692914
0
LINE
8
BLACK
6
CONTINUOUS
10
0.2927455511811023
20
1.2104046456692914
11
0.287781811023622
21
1.2117346456692912
0
LINE
8
BLACK
6
CONTINUOUS
10
0.287781811023622
20
1.2117346456692912
11
0.2833314566929134
21
1.2143040551181101
0
LINE
8
BLACK
6
CONTINUOUS
10
0.2833314566929134
20
1.2143040551181101
11
0.2796977559055118
21
1.2179377559055118
0
LINE
8
BLACK
6
CONTINUOUS
10
0.2796977559055118
20
1.2179377559055118
11
0.2771283464566929
21
1.2223881102362204
0
LINE
8
BLACK
6
CONTINUOUS
10
0.2771283464566929
20
1.2223881102362204
11
0.2757983464566929
21
1.2273518503937006
0
LINE
8
BLACK
6
CONTINUOUS
10
0.2757983464566929
20
1.2273518503937006
11
0.2757983464566929
21
1.2324906692913387
0
LINE
8
BLACK
6
CONTINUOUS
10
0.2757983464566929
20
1.2324906692913387
11
0.2771283464566929
21
1.2374544094488189
0
LINE
8
BLACK
6
CONTINUOUS
10
0.2771283464566929
20
1.2374544094488189
11
0.2796977559055118
21
1.2419047637795275
0
LINE
8
BLACK
6
CONTINUOUS
10
0.2796977559055118
20
1.2419047637795275
11
0.2833314566929134
21
1.2455384645669292
0
LINE
8
BLACK
6
CONTINUOUS
10
0.2833314566929134
20
1.2455384645669292
11
0.287781811023622
21
1.2481078740157481
0
LINE
8
BLACK
6
CONTINUOUS
10
0.287781811023622
20
1.2481078740157481
11
0.2927455511811023
21
1.2494378740157479
0
LINE
8
BLACK
6
CONTINUOUS
10
0.2927455511811023
20
1.2494378740157479
11
0.3346850393700787
21
1.2496062992125985
0
LINE
8
BLACK
6
CONTINUOUS
10
0.3346850393700787
20
1.2496062992125985
11
0.3372544488188977
21
1.2494378740157479
0
LINE
8
BLACK
6
CONTINUOUS
10
0.4662795275590551
20
1.2973014960629921
11
0.4696836220472441
21
1.2944451181102361
0
LINE
8
BLACK
6
CONTINUOUS
10
0.4696836220472441
20
1.2944451181102361
11
0.4719055118110236
21
1.2905967322834646
0
LINE
8
BLACK
6
CONTINUOUS
10
0.4719055118110236
20
1.2905967322834646
11
0.4726771653543307
21
1.286220472440945
0
LINE
8
BLACK
6
CONTINUOUS
10
0.4726771653543307
20
1.286220472440945
11
0.4719055118110236
21
1.2818442125984251
0
LINE
8
BLACK
6
CONTINUOUS
10
0.4719055118110236
20
1.2818442125984251
11
0.4696836220472441
21
1.2779958267716536
0
LINE
8
BLACK
6
CONTINUOUS
10
0.4696836220472441
20
1.2779958267716536
11
0.4662795275590551
21
1.2751394488188976
0
LINE
8
BLACK
6
CONTINUOUS
10
0.4662795275590551
20
1.2751394488188976
11
0.462103779527559
21
1.2736195669291339
0
LINE
8
BLACK
6
CONTINUOUS
10
0.462103779527559
20
1.2736195669291339
11
0.45766
21
1.2736195669291339
0
LINE
8
BLACK
6
CONTINUOUS
10
0.45766
20
1.2736195669291339
11
0.4534842519685039
21
1.2751394488188976
0
LINE
8
BLACK
6
CONTINUOUS
10
0.4534842519685039
20
1.2751394488188976
11
0.4500801574803149
21
1.2779958267716536
0
LINE
8
BLACK
6
CONTINUOUS
10
0.4500801574803149
20
1.2779958267716536
11
0.4478582677165354
21
1.2818442125984251
0
LINE
8
BLACK
6
CONTINUOUS
10
0.4478582677165354
20
1.2818442125984251
11
0.4470866141732283
21
1.286220472440945
0
LINE
8
BLACK
6
CONTINUOUS
10
0.4470866141732283
20
1.286220472440945
11
0.4478582677165354
21
1.2905967322834646
0
LINE
8
BLACK
6
CONTINUOUS
10
0.4478582677165354
20
1.2905967322834646
11
0.4500801574803149
21
1.2944451181102361
0
LINE
8
BLACK
6
CONTINUOUS
10
0.4500801574803149
20
1.2944451181102361
11
0.4534842519685039
21
1.2973014960629921
0
LINE
8
BLACK
6
CONTINUOUS
10
0.4534842519685039
20
1.2973014960629921
11
0.45766
21
1.298821377952756
0
LINE
8
BLACK
6
CONTINUOUS
10
0.45766
20
1.298821377952756
11
0.462103779527559
21
1.298821377952756
0
LINE
8
BLACK
6
CONTINUOUS
10
0.462103779527559
20
1.298821377952756
11
0.4662795275590551
21
1.2973014960629921
0
LINE
8
BLACK
6
CONTINUOUS
10
0.4662795275590551
20
1.5248605511811024
11
0.4696836220472441
21
1.5220041732283465
0
LINE
8
BLACK
6
CONTINUOUS
10
0.4696836220472441
20
1.5220041732283465
11
0.4719055118110236
21
1.5181557874015748
0
LINE
8
BLACK
6
CONTINUOUS
10
0.4719055118110236
20
1.5181557874015748
11
0.4726771653543307
21
1.5137795275590551
0
LINE
8
BLACK
6
CONTINUOUS
10
0.4726771653543307
20
1.5137795275590551
11
0.4719055118110236
21
1.5094032677165354
0
LINE
8
BLACK
6
CONTINUOUS
10
0.4719055118110236
20
1.5094032677165354
11
0.4696836220472441
21
1.5055548818897637
0
LINE
8
BLACK
6
CONTINUOUS
10
0.4696836220472441
20
1.5055548818897637
11
0.4662795275590551
21
1.5026985039370078
0
LINE
8
BLACK
6
CONTINUOUS
10
0.4662795275590551
20
1.5026985039370078
11
0.462103779527559
21
1.5011786220472441
0
LINE
8
BLACK
6
CONTINUOUS
10
0.462103779527559
20
1.5011786220472441
11
0.45766
21
1.5011786220472441
0
LINE
8
BLACK
6
CONTINUOUS
10
0.45766
20
1.5011786220472441
11
0.4534842519685039
21
1.5026985039370078
0
LINE
8
BLACK
6
CONTINUOUS
10
0.4534842519685039
20
1.5026985039370078
11
0.4500801574803149
21
1.5055548818897637
0
LINE
8
BLACK
6
CONTINUOUS
10
0.4500801574803149
20
1.5055548818897637
11
0.4478582677165354
21
1.5094032677165354
0
LINE
8
BLACK
6
CONTINUOUS
10
0.4478582677165354
20
1.5094032677165354
11
0.4470866141732283
21
1.5137795275590551
0
LINE
8
BLACK
6
CONTINUOUS
10
0.4470866141732283
20
1.5137795275590551
11
0.4478582677165354
21
1.5181557874015748
0
LINE
8
BLACK
6
CONTINUOUS
10
0.4478582677165354
20
1.5181557874015748
11
0.4500801574803149
21
1.5220041732283465
0
LINE
8
BLACK
6
CONTINUOUS
10
0.4500801574803149
20
1.5220041732283465
11
0.4534842519685039
21
1.5248605511811024
0
LINE
8
BLACK
6
CONTINUOUS
10
0.4534842519685039
20
1.5248605511811024
11
0.45766
21
1.5263804330708661
0
LINE
8
BLACK
6
CONTINUOUS
10
0.45766
20
1.5263804330708661
11
0.462103779527559
21
1.5263804330708661
0
LINE
8
BLACK
6
CONTINUOUS
10
0.462103779527559
20
1.5263804330708661
11
0.4662795275590551
21
1.5248605511811024
0
LINE
8
BLACK
6
CONTINUOUS
10
0.5029340944881889
20
1.5905712204724409
11
0.5081460236220472
21
1.58917468503937
0
LINE
8
BLACK
6
CONTINUOUS
10
0.5081460236220472
20
1.58917468503937
11
0.5128188976377953
21
1.586476811023622
0
LINE
8
BLACK
6
CONTINUOUS
10
0.5128188976377953
20
1.586476811023622
11
0.5166342913385826
21
1.5826614173228346
0
LINE
8
BLACK
6
CONTINUOUS
10
0.5166342913385826
20
1.5826614173228346
11
0.5193321653543307
21
1.5779885433070866
0
LINE
8
BLACK
6
CONTINUOUS
10
0.5193321653543307
20
1.5779885433070866
11
0.5207287007874015
21
1.5727766141732282
0
LINE
8
BLACK
6
CONTINUOUS
10
0.5207287007874015
20
1.5727766141732282
11
0.5207287007874015
21
1.5673808661417323
0
LINE
8
BLACK
6
CONTINUOUS
10
0.5207287007874015
20
1.5673808661417323
11
0.5193321653543307
21
1.562168937007874
0
LINE
8
BLACK
6
CONTINUOUS
10
0.5193321653543307
20
1.562168937007874
11
0.5166342913385826
21
1.557496062992126
0
LINE
8
BLACK
6
CONTINUOUS
10
0.5166342913385826
20
1.557496062992126
11
0.5128188976377953
21
1.5536806692913385
0
LINE
8
BLACK
6
CONTINUOUS
10
0.5128188976377953
20
1.5536806692913385
11
0.5081460236220472
21
1.5509827952755906
0
LINE
8
BLACK
6
CONTINUOUS
10
0.5081460236220472
20
1.5509827952755906
11
0.5029340944881889
21
1.5495862598425196
0
LINE
8
BLACK
6
CONTINUOUS
10
0.5029340944881889
20
1.5495862598425196
11
0.4588976377952756
21
1.5494094488188976
0
LINE
8
BLACK
6
CONTINUOUS
10
0.4588976377952756
20
1.5494094488188976
11
0.4561997637795275
21
1.5495862598425196
0
LINE
8
BLACK
6
CONTINUOUS
10
0.4561997637795275
20
1.5495862598425196
11
0.4509878346456693
21
1.5509827952755906
0
LINE
8
BLACK
6
CONTINUOUS
10
0.4509878346456693
20
1.5509827952755906
11
0.4463149606299213
21
1.5536806692913385
0
LINE
8
BLACK
6
CONTINUOUS
10
0.4463149606299213
20
1.5536806692913385
11
0.4424995669291338
21
1.557496062992126
0
LINE
8
BLACK
6
CONTINUOUS
10
0.4424995669291338
20
1.557496062992126
11
0.4398016929133858
21
1.562168937007874
0
LINE
8
BLACK
6
CONTINUOUS
10
0.4398016929133858
20
1.562168937007874
11
0.4384051574803149
21
1.5673808661417323
0
LINE
8
BLACK
6
CONTINUOUS
10
0.4384051574803149
20
1.5673808661417323
11
0.4384051574803149
21
1.5727766141732282
0
LINE
8
BLACK
6
CONTINUOUS
10
0.4384051574803149
20
1.5727766141732282
11
0.4398016929133858
21
1.5779885433070866
0
LINE
8
BLACK
6
CONTINUOUS
10
0.4398016929133858
20
1.5779885433070866
11
0.4424995669291338
21
1.5826614173228346
0
LINE
8
BLACK
6
CONTINUOUS
10
0.4424995669291338
20
1.5826614173228346
11
0.4463149606299213
21
1.586476811023622
0
LINE
8
BLACK
6
CONTINUOUS
10
0.4463149606299213
20
1.586476811023622
11
0.4509878346456693
21
1.58917468503937
0
LINE
8
BLACK
6
CONTINUOUS
10
0.4509878346456693
20
1.58917468503937
11
0.4561997637795275
21
1.5905712204724409
0
LINE
8
BLACK
6
CONTINUOUS
10
0.4561997637795275
20
1.5905712204724409
11
0.500236220472441
21
1.5907480314960629
0
LINE
8
BLACK
6
CONTINUOUS
10
0.500236220472441
20
1.5907480314960629
11
0.5029340944881889
21
1.5905712204724409
0
LINE
8
BLACK
6
CONTINUOUS
10
0.3372544488188977
20
1.5895953543307086
11
0.342218188976378
21
1.5882653543307086
0
LINE
8
BLACK
6
CONTINUOUS
10
0.342218188976378
20
1.5882653543307086
11
0.3466685433070866
21
1.5856959448818897
0
LINE
8
BLACK
6
CONTINUOUS
10
0.3466685433070866
20
1.5856959448818897
11
0.3503022440944882
21
1.5820622440944883
0
LINE
8
BLACK
6
CONTINUOUS
10
0.3503022440944882
20
1.5820622440944883
11
0.3528716535433071
21
1.5776118897637794
0
LINE
8
BLACK
6
CONTINUOUS
10
0.3528716535433071
20
1.5776118897637794
11
0.3542016535433071
21
1.5726481496062992
0
LINE
8
BLACK
6
CONTINUOUS
10
0.3542016535433071
20
1.5726481496062992
11
0.3542016535433071
21
1.5675093307086614
0
LINE
8
BLACK
6
CONTINUOUS
10
0.3542016535433071
20
1.5675093307086614
11
0.3528716535433071
21
1.5625455905511811
0
LINE
8
BLACK
6
CONTINUOUS
10
0.3528716535433071
20
1.5625455905511811
11
0.3503022440944882
21
1.5580952362204723
0
LINE
8
BLACK
6
CONTINUOUS
10
0.3503022440944882
20
1.5580952362204723
11
0.3466685433070866
21
1.5544615354330709
0
LINE
8
BLACK
6
CONTINUOUS
10
0.3466685433070866
20
1.5544615354330709
11
0.342218188976378
21
1.551892125984252
0
LINE
8
BLACK
6
CONTINUOUS
10
0.342218188976378
20
1.551892125984252
11
0.3372544488188977
21
1.5505621259842519
0
LINE
8
BLACK
6
CONTINUOUS
10
0.3372544488188977
20
1.5505621259842519
11
0.2953149606299212
21
1.5503937007874016
0
LINE
8
BLACK
6
CONTINUOUS
10
0.2953149606299212
20
1.5503937007874016
11
0.2927455511811023
21
1.5505621259842519
0
LINE
8
BLACK
6
CONTINUOUS
10
0.2927455511811023
20
1.5505621259842519
11
0.287781811023622
21
1.551892125984252
0
LINE
8
BLACK
6
CONTINUOUS
10
0.287781811023622
20
1.551892125984252
11
0.2833314566929134
21
1.5544615354330709
0
LINE
8
BLACK
6
CONTINUOUS
10
0.2833314566929134
20
1.5544615354330709
11
0.2796977559055118
21
1.5580952362204723
0
LINE
8
BLACK
6
CONTINUOUS
10
0.2796977559055118
20
1.5580952362204723
11
0.2771283464566929
21
1.5625455905511811
0
LINE
8
BLACK
6
CONTINUOUS
10
0.2771283464566929
20
1.5625455905511811
11
0.2757983464566929
21
1.5675093307086614
0
LINE
8
BLACK
6
CONTINUOUS
10
0.2757983464566929
20
1.5675093307086614
11
0.2757983464566929
21
1.5726481496062992
0
LINE
8
BLACK
6
CONTINUOUS
10
0.2757983464566929
20
1.5726481496062992
11
0.2771283464566929
21
1.5776118897637794
0
LINE
8
BLACK
6
CONTINUOUS
10
0.2771283464566929
20
1.5776118897637794
11
0.2796977559055118
21
1.5820622440944883
0
LINE
8
BLACK
6
CONTINUOUS
10
0.2796977559055118
20
1.5820622440944883
11
0.2833314566929134
21
1.5856959448818897
0
LINE
8
BLACK
6
CONTINUOUS
10
0.2833314566929134
20
1.5856959448818897
11
0.287781811023622
21
1.5882653543307086
0
LINE
8
BLACK
6
CONTINUOUS
10
0.287781811023622
20
1.5882653543307086
11
0.2927455511811023
21
1.5895953543307086
0
LINE
8
BLACK
6
CONTINUOUS
10
0.2927455511811023
20
1.5895953543307086
11
0.3346850393700787
21
1.589763779527559
0
LINE
8
BLACK
6
CONTINUOUS
10
0.3346850393700787
20
1.589763779527559
11
0.3372544488188977
21
1.5895953543307086
0
LINE
8
BLACK
6
CONTINUOUS
10
0.4515748031496063
20
1.7011811023622048
11
0.2940944881889764
21
1.7011811023622048
0
LINE
8
BLACK
6
CONTINUOUS
10
0.2940944881889764
20
1.7011811023622048
11
0.2940944881889764
21
1.8586614173228346
0
LINE
8
BLACK
6
CONTINUOUS
10
0.2940944881889764
20
1.8586614173228346
11
0.4515748031496063
21
1.8586614173228346
0
LINE
8
BLACK
6
CONTINUOUS
10
0.4515748031496063
20
1.8586614173228346
11
0.4515748031496063
21
1.7011811023622048
0
LINE
8
BLACK
6
CONTINUOUS
10
3.3059055118110234
20
1.7011811023622048
11
3.1484251968503938
21
1.7011811023622048
0
LINE
8
BLACK
6
CONTINUOUS
10
3.1484251968503938
20
1.7011811023622048
11
3.1484251968503938
21
1.8586614173228346
0
LINE
8
BLACK
6
CONTINUOUS
10
3.1484251968503938
20
1.8586614173228346
11
3.3059055118110234
21
1.8586614173228346
0
LINE
8
BLACK
6
CONTINUOUS
10
3.3059055118110234
20
1.8586614173228346
11
3.3059055118110234
21
1.7011811023622048
0
LINE
8
BLACK
6
CONTINUOUS
10
2.8741760236220473
20
1.804809842519685
11
2.8773691732283462
21
1.8026762598425197
0
LINE
8
BLACK
6
CONTINUOUS
10
2.8773691732283462
20
1.8026762598425197
11
2.8795027559055115
21
1.7994831102362205
0
LINE
8
BLACK
6
CONTINUOUS
10
2.8795027559055115
20
1.7994831102362205
11
2.8802519685039369
21
1.7957165354330709
0
LINE
8
BLACK
6
CONTINUOUS
10
2.8802519685039369
20
1.7957165354330709
11
2.8802519685039369
21
1.7602834645669292
0
LINE
8
BLACK
6
CONTINUOUS
10
2.8802519685039369
20
1.7602834645669292
11
2.8795027559055115
21
1.7565168897637795
0
LINE
8
BLACK
6
CONTINUOUS
10
2.8795027559055115
20
1.7565168897637795
11
2.8773691732283462
21
1.7533237401574804
0
LINE
8
BLACK
6
CONTINUOUS
10
2.8773691732283462
20
1.7533237401574804
11
2.8741760236220473
21
1.7511901574803148
0
LINE
8
BLACK
6
CONTINUOUS
10
2.8741760236220473
20
1.7511901574803148
11
2.8704094488188976
21
1.7504409448818896
0
LINE
8
BLACK
6
CONTINUOUS
10
2.8704094488188976
20
1.7504409448818896
11
2.8497401574803147
21
1.7504409448818896
0
LINE
8
BLACK
6
CONTINUOUS
10
2.8497401574803147
20
1.7504409448818896
11
2.8459735826771655
21
1.7511901574803148
0
LINE
8
BLACK
6
CONTINUOUS
10
2.8459735826771655
20
1.7511901574803148
11
2.8427804330708661
21
1.7533237401574804
0
LINE
8
BLACK
6
CONTINUOUS
10
2.8427804330708661
20
1.7533237401574804
11
2.8406468503937008
21
1.7565168897637795
0
LINE
8
BLACK
6
CONTINUOUS
10
2.8406468503937008
20
1.7565168897637795
11
2.8398976377952754
21
1.7602834645669292
0
LINE
8
BLACK
6
CONTINUOUS
10
2.8398976377952754
20
1.7602834645669292
11
2.8398976377952754
21
1.7957165354330709
0
LINE
8
BLACK
6
CONTINUOUS
10
2.8398976377952754
20
1.7957165354330709
11
2.8406468503937008
21
1.7994831102362205
0
LINE
8
BLACK
6
CONTINUOUS
10
2.8406468503937008
20
1.7994831102362205
11
2.8427804330708661
21
1.8026762598425197
0
LINE
8
BLACK
6
CONTINUOUS
10
2.8427804330708661
20
1.8026762598425197
11
2.8459735826771655
21
1.804809842519685
0
LINE
8
BLACK
6
CONTINUOUS
10
2.8459735826771655
20
1.804809842519685
11
2.8497401574803147
21
1.8055590551181102
0
LINE
8
BLACK
6
CONTINUOUS
10
2.8497401574803147
20
1.8055590551181102
11
2.8704094488188976
21
1.8055590551181102
0
LINE
8
BLACK
6
CONTINUOUS
10
2.8704094488188976
20
1.8055590551181102
11
2.8741760236220473
21
1.804809842519685
0
LINE
8
BLACK
6
CONTINUOUS
10
2.9460264173228348
20
1.804809842519685
11
2.9492195669291337
21
1.8026762598425197
0
LINE
8
BLACK
6
CONTINUOUS
10
2.9492195669291337
20
1.8026762598425197
11
2.951353149606299
21
1.7994831102362205
0
LINE
8
BLACK
6
CONTINUOUS
10
2.951353149606299
20
1.7994831102362205
11
2.9521023622047244
21
1.7957165354330709
0
LINE
8
BLACK
6
CONTINUOUS
10
2.9521023622047244
20
1.7957165354330709
11
2.9521023622047244
21
1.7602834645669292
0
LINE
8
BLACK
6
CONTINUOUS
10
2.9521023622047244
20
1.7602834645669292
11
2.951353149606299
21
1.7565168897637795
0
LINE
8
BLACK
6
CONTINUOUS
10
2.951353149606299
20
1.7565168897637795
11
2.9492195669291337
21
1.7533237401574804
0
LINE
8
BLACK
6
CONTINUOUS
10
2.9492195669291337
20
1.7533237401574804
11
2.9460264173228348
21
1.7511901574803148
0
LINE
8
BLACK
6
CONTINUOUS
10
2.9460264173228348
20
1.7511901574803148
11
2.9422598425196851
21
1.7504409448818896
0
LINE
8
BLACK
6
CONTINUOUS
10
2.9422598425196851
20
1.7504409448818896
11
2.9215905511811022
21
1.7504409448818896
0
LINE
8
BLACK
6
CONTINUOUS
10
2.9215905511811022
20
1.7504409448818896
11
2.9178239763779525
21
1.7511901574803148
0
LINE
8
BLACK
6
CONTINUOUS
10
2.9178239763779525
20
1.7511901574803148
11
2.9146308267716536
21
1.7533237401574804
0
LINE
8
BLACK
6
CONTINUOUS
10
2.9146308267716536
20
1.7533237401574804
11
2.9124972440944883
21
1.7565168897637795
0
LINE
8
BLACK
6
CONTINUOUS
10
2.9124972440944883
20
1.7565168897637795
11
2.9117480314960629
21
1.7602834645669292
0
LINE
8
BLACK
6
CONTINUOUS
10
2.9117480314960629
20
1.7602834645669292
11
2.9117480314960629
21
1.7957165354330709
0
LINE
8
BLACK
6
CONTINUOUS
10
2.9117480314960629
20
1.7957165354330709
11
2.9124972440944883
21
1.7994831102362205
0
LINE
8
BLACK
6
CONTINUOUS
10
2.9124972440944883
20
1.7994831102362205
11
2.9146308267716536
21
1.8026762598425197
0
LINE
8
BLACK
6
CONTINUOUS
10
2.9146308267716536
20
1.8026762598425197
11
2.9178239763779525
21
1.804809842519685
0
LINE
8
BLACK
6
CONTINUOUS
10
2.9178239763779525
20
1.804809842519685
11
2.9215905511811022
21
1.8055590551181102
0
LINE
8
BLACK
6
CONTINUOUS
10
2.9215905511811022
20
1.8055590551181102
11
2.9422598425196851
21
1.8055590551181102
0
LINE
8
BLACK
6
CONTINUOUS
10
2.9422598425196851
20
1.8055590551181102
11
2.9460264173228348
21
1.804809842519685
0
LINE
8
BLACK
6
CONTINUOUS
10
1.1258070866141732
20
2.2042204724409449
11
0.9758070866141733
21
2.2042204724409449
0
LINE
8
BLACK
6
CONTINUOUS
10
0.9758070866141733
20
2.2042204724409449
11
0.9758070866141733
21
2.3542204724409448
0
LINE
8
BLACK
6
CONTINUOUS
10
0.9758070866141733
20
2.3542204724409448
11
1.1258070866141732
21
2.3542204724409448
0
LINE
8
BLACK
6
CONTINUOUS
10
1.1258070866141732
20
2.3542204724409448
11
1.1258070866141732
21
2.2042204724409449
0
LINE
8
BLACK
6
CONTINUOUS
10
1.3226574803149607
20
2.2042204724409449
11
1.1726574803149605
21
2.2042204724409449
0
LINE
8
BLACK
6
CONTINUOUS
10
1.1726574803149605
20
2.2042204724409449
11
1.1726574803149605
21
2.3542204724409448
0
LINE
8
BLACK
6
CONTINUOUS
10
1.1726574803149605
20
2.3542204724409448
11
1.3226574803149607
21
2.3542204724409448
0
LINE
8
BLACK
6
CONTINUOUS
10
1.3226574803149607
20
2.3542204724409448
11
1.3226574803149607
21
2.2042204724409449
0
LINE
8
BLACK
6
CONTINUOUS
10
2.6000000000000001
20
2.2399999999999998
11
2.54
21
2.2399999999999998
0
LINE
8
BLACK
6
CONTINUOUS
10
2.54
20
2.2399999999999998
11
2.54
21
2.2999999999999998
0
LINE
8
BLACK
6
CONTINUOUS
10
2.54
20
2.2999999999999998
11
2.6000000000000001
21
2.2999999999999998
0
LINE
8
BLACK
6
CONTINUOUS
10
2.6000000000000001
20
2.2999999999999998
11
2.6000000000000001
21
2.2399999999999998
0
LINE
8
BLACK
6
CONTINUOUS
10
2.6999999999999997
20
2.2399999999999998
11
2.6400000000000001
21
2.2399999999999998
0
LINE
8
BLACK
6
CONTINUOUS
10
2.6400000000000001
20
2.2399999999999998
11
2.6400000000000001
21
2.2999999999999998
0
LINE
8
BLACK
6
CONTINUOUS
10
2.6400000000000001
20
2.2999999999999998
11
2.6999999999999997
21
2.2999999999999998
0
LINE
8
BLACK
6
CONTINUOUS
10
2.6999999999999997
20
2.2999999999999998
11
2.6999999999999997
21
2.2399999999999998
0
LINE
8
BLACK
6
CONTINUOUS
10
2.7999999999999998
20
2.2399999999999998
11
2.7399999999999998
21
2.2399999999999998
0
LINE
8
BLACK
6
CONTINUOUS
10
2.7399999999999998
20
2.2399999999999998
11
2.7399999999999998
21
2.2999999999999998
0
LINE
8
BLACK
6
CONTINUOUS
10
2.7399999999999998
20
2.2999999999999998
11
2.7999999999999998
21
2.2999999999999998
0
LINE
8
BLACK
6
CONTINUOUS
10
2.7999999999999998
20
2.2999999999999998
11
2.7999999999999998
21
2.2399999999999998
0
LINE
8
BLACK
6
CONTINUOUS
10
2.8999999999999999
20
2.2399999999999998
11
2.8399999999999999
21
2.2399999999999998
0
LINE
8
BLACK
6
CONTINUOUS
10
2.8399999999999999
20
2.2399999999999998
11
2.8399999999999999
21
2.2999999999999998
0
LINE
8
BLACK
6
CONTINUOUS
10
2.8399999999999999
20
2.2999999999999998
11
2.8999999999999999
21
2.2999999999999998
0
LINE
8
BLACK
6
CONTINUOUS
10
2.8999999999999999
20
2.2999999999999998
11
2.8999999999999999
21
2.2399999999999998
0
LINE
8
BLACK
6
CONTINUOUS
10
3.
20
2.2399999999999998
11
2.9399999999999999
21
2.2399999999999998
0
LINE
8
BLACK
6
CONTINUOUS
10
2.9399999999999999
20
2.2399999999999998
11
2.9399999999999999
21
2.2999999999999998
0
LINE
8
BLACK
6
CONTINUOUS
10
2.9399999999999999
20
2.2999999999999998
11
3.
21
2.2999999999999998
0
LINE
8
BLACK
6
CONTINUOUS
10
3.
20
2.2999999999999998
11
3.
21
2.2399999999999998
0
LINE
8
BLACK
6
CONTINUOUS
10
2.1339842519685037
20
2.2784173228346458
11
2.0679842519685039
21
2.2784173228346458
0
LINE
8
BLACK
6
CONTINUOUS
10
2.0679842519685039
20
2.2784173228346458
11
2.0679842519685039
21
2.3444173228346457
0
LINE
8
BLACK
6
CONTINUOUS
10
2.0679842519685039
20
2.3444173228346457
11
2.1339842519685037
21
2.3444173228346457
0
LINE
8
BLACK
6
CONTINUOUS
10
2.1339842519685037
20
2.3444173228346457
11
2.1339842519685037
21
2.2784173228346458
0
LINE
8
BLACK
6
CONTINUOUS
10
2.3820157480314958
20
2.2784173228346458
11
2.316015748031496
21
2.2784173228346458
0
LINE
8
BLACK
6
CONTINUOUS
10
2.316015748031496
20
2.2784173228346458
11
2.316015748031496
21
2.3444173228346457
0
LINE
8
BLACK
6
CONTINUOUS
10
2.316015748031496
20
2.3444173228346457
11
2.3820157480314958
21
2.3444173228346457
0
LINE
8
BLACK
6
CONTINUOUS
10
2.3820157480314958
20
2.3444173228346457
11
2.3820157480314958
21
2.2784173228346458
0
LINE
8
BLACK
6
CONTINUOUS
10
0.4205096456692913
20
2.5163158661417322
11
0.4338744094488189
21
2.5131483858267716
0
LINE
8
BLACK
6
CONTINUOUS
10
0.4338744094488189
20
2.5131483858267716
11
0.446781062992126
21
2.5084507086614174
0
LINE
8
BLACK
6
CONTINUOUS
10
0.446781062992126
20
2.5084507086614174
11
0.4590551181102362
21
2.5022864566929135
0
LINE
8
BLACK
6
CONTINUOUS
10
0.4590551181102362
20
2.5022864566929135
11
0.4705305511811024
21
2.4947389763779526
0
LINE
8
BLACK
6
CONTINUOUS
10
0.4705305511811024
20
2.4947389763779526
11
0.4810521653543307
21
2.4859102755905513
0
LINE
8
BLACK
6
CONTINUOUS
10
0.4810521653543307
20
2.4859102755905513
11
0.4904776771653543
21
2.4759198031496061
0
LINE
8
BLACK
6
CONTINUOUS
10
0.4904776771653543
20
2.4759198031496061
11
0.4986796456692913
21
2.4649026377952756
0
LINE
8
BLACK
6
CONTINUOUS
10
0.4986796456692913
20
2.4649026377952756
11
0.5055471653543308
21
2.4530077952755907
0
LINE
8
BLACK
6
CONTINUOUS
10
0.5055471653543308
20
2.4530077952755907
11
0.5109873228346457
21
2.440396062992126
0
LINE
8
BLACK
6
CONTINUOUS
10
0.5109873228346457
20
2.440396062992126
11
0.5149265748031496
21
2.4272381102362206
0
LINE
8
BLACK
6
CONTINUOUS
10
0.5149265748031496
20
2.4272381102362206
11
0.5173116141732284
21
2.4137117716535434
0
LINE
8
BLACK
6
CONTINUOUS
10
0.5173116141732284
20
2.4137117716535434
11
0.5181102362204725
21
2.3999999999999999
0
LINE
8
BLACK
6
CONTINUOUS
10
0.5181102362204725
20
2.3999999999999999
11
0.5173116141732284
21
2.3862882283464568
0
LINE
8
BLACK
6
CONTINUOUS
10
0.5173116141732284
20
2.3862882283464568
11
0.5149265748031496
21
2.3727618897637797
0
LINE
8
BLACK
6
CONTINUOUS
10
0.5149265748031496
20
2.3727618897637797
11
0.5109873228346457
21
2.3596039370078739
0
LINE
8
BLACK
6
CONTINUOUS
10
0.5109873228346457
20
2.3596039370078739
11
0.5055471653543308
21
2.3469922047244096
0
LINE
8
BLACK
6
CONTINUOUS
10
0.5055471653543308
20
2.3469922047244096
11
0.4986796456692913
21
2.3350973622047242
0
LINE
8
BLACK
6
CONTINUOUS
10
0.4986796456692913
20
2.3350973622047242
11
0.4904776771653543
21
2.3240801968503937
0
LINE
8
BLACK
6
CONTINUOUS
10
0.4904776771653543
20
2.3240801968503937
11
0.4810521653543307
21
2.3140897244094489
0
LINE
8
BLACK
6
CONTINUOUS
10
0.4810521653543307
20
2.3140897244094489
11
0.4705305511811024
21
2.3052610236220472
0
LINE
8
BLACK
6
CONTINUOUS
10
0.4705305511811024
20
2.3052610236220472
11
0.4590551181102362
21
2.2977135433070868
0
LINE
8
BLACK
6
CONTINUOUS
10
0.4590551181102362
20
2.2977135433070868
11
0.446781062992126
21
2.2915492913385824
0
LINE
8
BLACK
6
CONTINUOUS
10
0.446781062992126
20
2.2915492913385824
11
0.4338744094488189
21
2.2868516141732282
0
LINE
8
BLACK
6
CONTINUOUS
10
0.4338744094488189
20
2.2868516141732282
11
0.4205096456692913
21
2.2836841338582676
0
LINE
8
BLACK
6
CONTINUOUS
10
0.4205096456692913
20
2.2836841338582676
11
0.4068674803149606
21
2.2820896062992126
0
LINE
8
BLACK
6
CONTINUOUS
10
0.4068674803149606
20
2.2820896062992126
11
0.3931325196850394
21
2.2820896062992126
0
LINE
8
BLACK
6
CONTINUOUS
10
0.3931325196850394
20
2.2820896062992126
11
0.3794903543307087
21
2.2836841338582676
0
LINE
8
BLACK
6
CONTINUOUS
10
0.3794903543307087
20
2.2836841338582676
11
0.3661255905511811
21
2.2868516141732282
0
LINE
8
BLACK
6
CONTINUOUS
10
0.3661255905511811
20
2.2868516141732282
11
0.353218937007874
21
2.2915492913385824
0
LINE
8
BLACK
6
CONTINUOUS
10
0.353218937007874
20
2.2915492913385824
11
0.3409448818897638
21
2.2977135433070868
0
LINE
8
BLACK
6
CONTINUOUS
10
0.3409448818897638
20
2.2977135433070868
11
0.3294694488188976
21
2.3052610236220472
0
LINE
8
BLACK
6
CONTINUOUS
10
0.3294694488188976
20
2.3052610236220472
11
0.3189478346456693
21
2.3140897244094489
0
LINE
8
BLACK
6
CONTINUOUS
10
0.3189478346456693
20
2.3140897244094489
11
0.3095223228346456
21
2.3240801968503937
0
LINE
8
BLACK
6
CONTINUOUS
10
0.3095223228346456
20
2.3240801968503937
11
0.3013203543307086
21
2.3350973622047242
0
LINE
8
BLACK
6
CONTINUOUS
10
0.3013203543307086
20
2.3350973622047242
11
0.2944528346456693
21
2.3469922047244096
0
LINE
8
BLACK
6
CONTINUOUS
10
0.2944528346456693
20
2.3469922047244096
11
0.2890126771653543
21
2.3596039370078739
0
LINE
8
BLACK
6
CONTINUOUS
10
0.2890126771653543
20
2.3596039370078739
11
0.2850734251968504
21
2.3727618897637797
0
LINE
8
BLACK
6
CONTINUOUS
10
0.2850734251968504
20
2.3727618897637797
11
0.2826883858267716
21
2.3862882283464568
0
LINE
8
BLACK
6
CONTINUOUS
10
0.2826883858267716
20
2.3862882283464568
11
0.2818897637795276
21
2.3999999999999999
0
LINE
8
BLACK
6
CONTINUOUS
10
0.2818897637795276
20
2.3999999999999999
11
0.2826883858267716
21
2.4137117716535434
0
LINE
8
BLACK
6
CONTINUOUS
10
0.2826883858267716
20
2.4137117716535434
11
0.2850734251968504
21
2.4272381102362206
0
LINE
8
BLACK
6
CONTINUOUS
10
0.2850734251968504
20
2.4272381102362206
11
0.2890126771653543
21
2.440396062992126
0
LINE
8
BLACK
6
CONTINUOUS
10
0.2890126771653543
20
2.440396062992126
11
0.2944528346456693
21
2.4530077952755907
0
LINE
8
BLACK
6
CONTINUOUS
10
0.2944528346456693
20
2.4530077952755907
11
0.3013203543307086
21
2.4649026377952756
0
LINE
8
BLACK
6
CONTINUOUS
10
0.3013203543307086
20
2.4649026377952756
11
0.3095223228346456
21
2.4759198031496061
0
LINE
8
BLACK
6
CONTINUOUS
10
0.3095223228346456
20
2.4759198031496061
11
0.3189478346456693
21
2.4859102755905513
0
LINE
8
BLACK
6
CONTINUOUS
10
0.3189478346456693
20
2.4859102755905513
11
0.3294694488188976
21
2.4947389763779526
0
LINE
8
BLACK
6
CONTINUOUS
10
0.3294694488188976
20
2.4947389763779526
11
0.3409448818897638
21
2.5022864566929135
0
LINE
8
BLACK
6
CONTINUOUS
10
0.3409448818897638
20
2.5022864566929135
11
0.353218937007874
21
2.5084507086614174
0
LINE
8
BLACK
6
CONTINUOUS
10
0.353218937007874
20
2.5084507086614174
11
0.3661255905511811
21
2.5131483858267716
0
LINE
8
BLACK
6
CONTINUOUS
10
0.3661255905511811
20
2.5131483858267716
11
0.3794903543307087
21
2.5163158661417322
0
LINE
8
BLACK
6
CONTINUOUS
10
0.3794903543307087
20
2.5163158661417322
11
0.3931325196850394
21
2.5179103937007872
0
LINE
8
BLACK
6
CONTINUOUS
10
0.3931325196850394
20
2.5179103937007872
11
0.4068674803149606
21
2.5179103937007872
0
LINE
8
BLACK
6
CONTINUOUS
10
0.4068674803149606
20
2.5179103937007872
11
0.4205096456692913
21
2.5163158661417322
0
LINE
8
BLACK
6
CONTINUOUS
10
3.2205096456692912
20
2.5163158661417322
11
3.233874409448819
21
2.5131483858267716
0
LINE
8
BLACK
6
CONTINUOUS
10
3.233874409448819
20
2.5131483858267716
11
3.2467810629921261
21
2.5084507086614174
0
LINE
8
BLACK
6
CONTINUOUS
10
3.2467810629921261
20
2.5084507086614174
11
3.2590551181102363
21
2.5022864566929135
0
LINE
8
BLACK
6
CONTINUOUS
10
3.2590551181102363
20
2.5022864566929135
11
3.2705305511811025
21
2.4947389763779526
0
LINE
8
BLACK
6
CONTINUOUS
10
3.2705305511811025
20
2.4947389763779526
11
3.2810521653543305
21
2.4859102755905513
0
LINE
8
BLACK
6
CONTINUOUS
10
3.2810521653543305
20
2.4859102755905513
11
3.2904776771653541
21
2.4759198031496061
0
LINE
8
BLACK
6
CONTINUOUS
10
3.2904776771653541
20
2.4759198031496061
11
3.2986796456692913
21
2.4649026377952756
0
LINE
8
BLACK
6
CONTINUOUS
10
3.2986796456692913
20
2.4649026377952756
11
3.3055471653543305
21
2.4530077952755907
0
LINE
8
BLACK
6
CONTINUOUS
10
3.3055471653543305
20
2.4530077952755907
11
3.3109873228346456
21
2.440396062992126
0
LINE
8
BLACK
6
CONTINUOUS
10
3.3109873228346456
20
2.440396062992126
11
3.3149265748031493
21
2.4272381102362206
0
LINE
8
BLACK
6
CONTINUOUS
10
3.3149265748031493
20
2.4272381102362206
11
3.3173116141732284
21
2.4137117716535434
0
LINE
8
BLACK
6
CONTINUOUS
10
3.3173116141732284
20
2.4137117716535434
11
3.3181102362204724
21
2.3999999999999999
0
LINE
8
BLACK
6
CONTINUOUS
10
3.3181102362204724
20
2.3999999999999999
11
3.3173116141732284
21
2.3862882283464568
0
LINE
8
BLACK
6
CONTINUOUS
10
3.3173116141732284
20
2.3862882283464568
11
3.3149265748031493
21
2.3727618897637797
0
LINE
8
BLACK
6
CONTINUOUS
10
3.3149265748031493
20
2.3727618897637797
11
3.3109873228346456
21
2.3596039370078739
0
LINE
8
BLACK
6
CONTINUOUS
10
3.3109873228346456
20
2.3596039370078739
11
3.3055471653543305
21
2.3469922047244096
0
LINE
8
BLACK
6
CONTINUOUS
10
3.3055471653543305
20
2.3469922047244096
11
3.2986796456692913
21
2.3350973622047242
0
LINE
8
BLACK
6
CONTINUOUS
10
3.2986796456692913
20
2.3350973622047242
11
3.2904776771653541
21
2.3240801968503937
0
LINE
8
BLACK
6
CONTINUOUS
10
3.2904776771653541
20
2.3240801968503937
11
3.2810521653543305
21
2.3140897244094489
0
LINE
8
BLACK
6
CONTINUOUS
10
3.2810521653543305
20
2.3140897244094489
11
3.2705305511811025
21
2.3052610236220472
0
LINE
8
BLACK
6
CONTINUOUS
10
3.2705305511811025
20
2.3052610236220472
11
3.2590551181102363
21
2.2977135433070868
0
LINE
8
BLACK
6
CONTINUOUS
10
3.2590551181102363
20
2.2977135433070868
11
3.2467810629921261
21
2.2915492913385824
0
LINE
8
BLACK
6
CONTINUOUS
10
3.2467810629921261
20
2.2915492913385824
11
3.233874409448819
21
2.2868516141732282
0
LINE
8
BLACK
6
CONTINUOUS
10
3.233874409448819
20
2.2868516141732282
11
3.2205096456692912
21
2.2836841338582676
0
LINE
8
BLACK
6
CONTINUOUS
10
3.2205096456692912
20
2.2836841338582676
11
3.2068674803149606
21
2.2820896062992126
0
LINE
8
BLACK
6
CONTINUOUS
10
3.2068674803149606
20
2.2820896062992126
11
3.1931325196850393
21
2.2820896062992126
0
LINE
8
BLACK
6
CONTINUOUS
10
3.1931325196850393
20
2.2820896062992126
11
3.1794903543307087
21
2.2836841338582676
0
LINE
8
BLACK
6
CONTINUOUS
10
3.1794903543307087
20
2.2836841338582676
11
3.1661255905511809
21
2.2868516141732282
0
LINE
8
BLACK
6
CONTINUOUS
10
3.1661255905511809
20
2.2868516141732282
11
3.1532189370078738
21
2.2915492913385824
0
LINE
8
BLACK
6
CONTINUOUS
10
3.1532189370078738
20
2.2915492913385824
11
3.1409448818897636
21
2.2977135433070868
0
LINE
8
BLACK
6
CONTINUOUS
10
3.1409448818897636
20
2.2977135433070868
11
3.1294694488188974
21
2.3052610236220472
0
LINE
8
BLACK
6
CONTINUOUS
10
3.1294694488188974
20
2.3052610236220472
11
3.1189478346456694
21
2.3140897244094489
0
LINE
8
BLACK
6
CONTINUOUS
10
3.1189478346456694
20
2.3140897244094489
11
3.1095223228346458
21
2.3240801968503937
0
LINE
8
BLACK
6
CONTINUOUS
10
3.1095223228346458
20
2.3240801968503937
11
3.1013203543307086
21
2.3350973622047242
0
LINE
8
BLACK
6
CONTINUOUS
10
3.1013203543307086
20
2.3350973622047242
11
3.094452834645669
21
2.3469922047244096
0
LINE
8
BLACK
6
CONTINUOUS
10
3.094452834645669
20
2.3469922047244096
11
3.0890126771653543
21
2.3596039370078739
0
LINE
8
BLACK
6
CONTINUOUS
10
3.0890126771653543
20
2.3596039370078739
11
3.0850734251968501
21
2.3727618897637797
0
LINE
8
BLACK
6
CONTINUOUS
10
3.0850734251968501
20
2.3727618897637797
11
3.0826883858267715
21
2.3862882283464568
0
LINE
8
BLACK
6
CONTINUOUS
10
3.0826883858267715
20
2.3862882283464568
11
3.0818897637795275
21
2.3999999999999999
0
LINE
8
BLACK
6
CONTINUOUS
10
3.0818897637795275
20
2.3999999999999999
11
3.0826883858267715
21
2.4137117716535434
0
LINE
8
BLACK
6
CONTINUOUS
10
3.0826883858267715
20
2.4137117716535434
11
3.0850734251968501
21
2.4272381102362206
0
LINE
8
BLACK
6
CONTINUOUS
10
3.0850734251968501
20
2.4272381102362206
11
3.0890126771653543
21
2.440396062992126
0
LINE
8
BLACK
6
CONTINUOUS
10
3.0890126771653543
20
2.440396062992126
11
3.094452834645669
21
2.4530077952755907
0
LINE
8
BLACK
6
CONTINUOUS
10
3.094452834645669
20
2.4530077952755907
11
3.1013203543307086
21
2.4649026377952756
0
LINE
8
BLACK
6
CONTINUOUS
10
3.1013203543307086
20
2.4649026377952756
11
3.1095223228346458
21
2.4759198031496061
0
LINE
8
BLACK
6
CONTINUOUS
10
3.1095223228346458
20
2.4759198031496061
11
3.1189478346456694
21
2.4859102755905513
0
LINE
8
BLACK
6
CONTINUOUS
10
3.1189478346456694
20
2.4859102755905513
11
3.1294694488188974
21
2.4947389763779526
0
LINE
8
BLACK
6
CONTINUOUS
10
3.1294694488188974
20
2.4947389763779526
11
3.1409448818897636
21
2.5022864566929135
0
LINE
8
BLACK
6
CONTINUOUS
10
3.1409448818897636
20
2.5022864566929135
11
3.1532189370078738
21
2.5084507086614174
0
LINE
8
BLACK
6
CONTINUOUS
10
3.1532189370078738
20
2.5084507086614174
11
3.1661255905511809
21
2.5131483858267716
0
LINE
8
BLACK
6
CONTINUOUS
10
3.1661255905511809
20
2.5131483858267716
11
3.1794903543307087
21
2.5163158661417322
0
LINE
8
BLACK
6
CONTINUOUS
10
3.1794903543307087
20
2.5163158661417322
11
3.1931325196850393
21
2.5179103937007872
0
LINE
8
BLACK
6
CONTINUOUS
10
3.1931325196850393
20
2.5179103937007872
11
3.2068674803149606
21
2.5179103937007872
0
LINE
8
BLACK
6
CONTINUOUS
10
3.2068674803149606
20
2.5179103937007872
11
3.2205096456692912
21
2.5163158661417322
0
LINE
8
BLACK
6
CONTINUOUS
10
2.6000000000000001
20
2.3399999999999999
11
2.54
21
2.3399999999999999
0
LINE
8
BLACK
6
CONTINUOUS
10
2.54
20
2.3399999999999999
11
2.54
21
2.3999999999999999
0
LINE
8
BLACK
6
CONTINUOUS
10
2.54
20
2.3999999999999999
11
2.6000000000000001
21
2.3999999999999999
0
LINE
8
BLACK
6
CONTINUOUS
10
2.6000000000000001
20
2.3999999999999999
11
2.6000000000000001
21
2.3399999999999999
0
LINE
8
BLACK
6
CONTINUOUS
10
2.6999999999999997
20
2.3399999999999999
11
2.6400000000000001
21
2.3399999999999999
0
LINE
8
BLACK
6
CONTINUOUS
10
2.6400000000000001
20
2.3399999999999999
11
2.6400000000000001
21
2.3999999999999999
0
LINE
8
BLACK
6
CONTINUOUS
10
2.6400000000000001
20
2.3999999999999999
11
2.6999999999999997
21
2.3999999999999999
0
LINE
8
BLACK
6
CONTINUOUS
10
2.6999999999999997
20
2.3999999999999999
11
2.6999999999999997
21
2.3399999999999999
0
LINE
8
BLACK
6
CONTINUOUS
10
2.7999999999999998
20
2.3399999999999999
11
2.7399999999999998
21
2.3399999999999999
0
LINE
8
BLACK
6
CONTINUOUS
10
2.7399999999999998
20
2.3399999999999999
11
2.7399999999999998
21
2.3999999999999999
0
LINE
8
BLACK
6
CONTINUOUS
10
2.7399999999999998
20
2.3999999999999999
11
2.7999999999999998
21
2.3999999999999999
0
LINE
8
BLACK
6
CONTINUOUS
10
2.7999999999999998
20
2.3999999999999999
11
2.7999999999999998
21
2.3399999999999999
0
LINE
8
BLACK
6
CONTINUOUS
10
2.8999999999999999
20
2.3399999999999999
11
2.8399999999999999
21
2.3399999999999999
0
LINE
8
BLACK
6
CONTINUOUS
10
2.8399999999999999
20
2.3399999999999999
11
2.8399999999999999
21
2.3999999999999999
0
LINE
8
BLACK
6
CONTINUOUS
10
2.8399999999999999
20
2.3999999999999999
11
2.8999999999999999
21
2.3999999999999999
0
LINE
8
BLACK
6
CONTINUOUS
10
2.8999999999999999
20
2.3999999999999999
11
2.8999999999999999
21
2.3399999999999999
0
LINE
8
BLACK
6
CONTINUOUS
10
3.
20
2.3399999999999999
11
2.9399999999999999
21
2.3399999999999999
0
LINE
8
BLACK
6
CONTINUOUS
10
2.9399999999999999
20
2.3399999999999999
11
2.9399999999999999
21
2.3999999999999999
0
LINE
8
BLACK
6
CONTINUOUS
10
2.9399999999999999
20
2.3999999999999999
11
3.
21
2.3999999999999999
0
LINE
8
BLACK
6
CONTINUOUS
10
3.
20
2.3999999999999999
11
3.
21
2.3399999999999999
0
LINE
8
BLACK
6
CONTINUOUS
10
1.1258070866141732
20
2.4012204724409449
11
0.9758070866141733
21
2.4012204724409449
0
LINE
8
BLACK
6
CONTINUOUS
10
0.9758070866141733
20
2.4012204724409449
11
0.9758070866141733
21
2.5512204724409449
0
LINE
8
BLACK
6
CONTINUOUS
10
0.9758070866141733
20
2.5512204724409449
11
1.1258070866141732
21
2.5512204724409449
0
LINE
8
BLACK
6
CONTINUOUS
10
1.1258070866141732
20
2.5512204724409449
11
1.1258070866141732
21
2.4012204724409449
0
LINE
8
BLACK
6
CONTINUOUS
10
1.3226574803149607
20
2.4012204724409449
11
1.1726574803149605
21
2.4012204724409449
0
LINE
8
BLACK
6
CONTINUOUS
10
1.1726574803149605
20
2.4012204724409449
11
1.1726574803149605
21
2.5512204724409449
0
LINE
8
BLACK
6
CONTINUOUS
10
1.1726574803149605
20
2.5512204724409449
11
1.3226574803149607
21
2.5512204724409449
0
LINE
8
BLACK
6
CONTINUOUS
10
1.3226574803149607
20
2.5512204724409449
11
1.3226574803149607
21
2.4012204724409449
0
LINE
8
BLACK
6
CONTINUOUS
10
2.1339842519685037
20
2.4555826771653542
11
2.0679842519685039
21
2.4555826771653542
0
LINE
8
BLACK
6
CONTINUOUS
10
2.0679842519685039
20
2.4555826771653542
11
2.0679842519685039
21
2.5215826771653544
0
LINE
8
BLACK
6
CONTINUOUS
10
2.0679842519685039
20
2.5215826771653544
11
2.1339842519685037
21
2.5215826771653544
0
LINE
8
BLACK
6
CONTINUOUS
10
2.1339842519685037
20
2.5215826771653544
11
2.1339842519685037
21
2.4555826771653542
0
LINE
8
BLACK
6
CONTINUOUS
10
2.3820157480314958
20
2.4555826771653542
11
2.316015748031496
21
2.4555826771653542
0
LINE
8
BLACK
6
CONTINUOUS
10
2.316015748031496
20
2.4555826771653542
11
2.316015748031496
21
2.5215826771653544
0
LINE
8
BLACK
6
CONTINUOUS
10
2.316015748031496
20
2.5215826771653544
11
2.3820157480314958
21
2.5215826771653544
0
LINE
8
BLACK
6
CONTINUOUS
10
2.3820157480314958
20
2.5215826771653544
11
2.3820157480314958
21
2.4555826771653542
  0
ENDSEC
  0
EOF
