  0
SECTION
  2
HEADER
  9
$ANGBASE
  50
0.0
  9
$ANGDIR
  70
1
  9
$MEASUREMENT
  70
0
  0
ENDSEC
  0
SECTION
  2
TABLES
  0
TABLE
  2
LTYPE
  70
4
  0
LTYPE
  5
40F
  2
CONTINUOUS
  70
0
  3
Solid line
  72
65
  73
0
  40
0.0
  0
LTYPE
  5
410
  2
DASHDOT
 70
0
  3
Dash Dot ____ _ ____ _
 72
65
 73
4
 40
2.0
 49
1.25
 49
-0.25
 49
0.25
 49
-0.25
  0
LTYPE
  5
411
  2
DASHED
 70
0
  3
Dashed __ __ __ __ __
 72
65
 73
2
 40
0.75
 49
0.5
 49
-0.25
  0
LTYPE
  5
43B
  2
DOTTED
 70
0
  3
Dotted .  .  .  .
 72
65
 73
2
 40
0.2
 49
0.0
 49
-0.2
  0
ENDTAB
  0
TABLE
  2
STYLE
  70
4
  0
STYLE
  2
KICAD
  70
0
  40
0
  41
1
  42
1
  50
0
  71
0
  3
isocp.shx
  0
STYLE
  2
KICADB
  70
0
  40
0
  41
1
  42
1
  50
0
  71
0
  3
isocp.shx
  0
STYLE
  2
KICADI
  70
0
  40
0
  41
1
  42
1
  50
15
  71
0
  3
isocp.shx
  0
STYLE
  2
KICADBI
  70
0
  40
0
  41
1
  42
1
  50
15
  71
0
  3
isocp.shx
  0
ENDTAB
  0
TABLE
  2
LAYER
  70
1
  0
LAYER
  2
BLACK
  70
0
  62
7
  6
CONTINUOUS
  0
ENDTAB
  0
ENDSEC
  0
SECTION
  2
ENTITIES
0
LINE
8
BLACK
6
CONTINUOUS
10
0.8045315354330709
20
-0.5061011811023622
11
0.8129833070866141
21
-0.5083658267716535
0
LINE
8
BLACK
6
CONTINUOUS
10
0.8129833070866141
20
-0.5083658267716535
11
0.8209133858267716
21
-0.5120637007874016
0
LINE
8
BLACK
6
CONTINUOUS
10
0.8209133858267716
20
-0.5120637007874016
11
0.8280808661417323
21
-0.5170824015748031
0
LINE
8
BLACK
6
CONTINUOUS
10
0.8280808661417323
20
-0.5170824015748031
11
0.8342679921259842
21
-0.5232695275590551
0
LINE
8
BLACK
6
CONTINUOUS
10
0.8342679921259842
20
-0.5232695275590551
11
0.8392866929133858
21
-0.5304370078740157
0
LINE
8
BLACK
6
CONTINUOUS
10
0.8392866929133858
20
-0.5304370078740157
11
0.8429845669291338
21
-0.5383670866141732
0
LINE
8
BLACK
6
CONTINUOUS
10
0.8429845669291338
20
-0.5383670866141732
11
0.8452492125984252
21
-0.5468188582677165
0
LINE
8
BLACK
6
CONTINUOUS
10
0.8452492125984252
20
-0.5468188582677165
11
0.846011811023622
21
-0.5555354330708662
0
LINE
8
BLACK
6
CONTINUOUS
10
0.846011811023622
20
-0.5555354330708662
11
0.8452492125984252
21
-0.5642520078740157
0
LINE
8
BLACK
6
CONTINUOUS
10
0.8452492125984252
20
-0.5642520078740157
11
0.8429845669291338
21
-0.572703779527559
0
LINE
8
BLACK
6
CONTINUOUS
10
0.8429845669291338
20
-0.572703779527559
11
0.8392866929133858
21
-0.5806338582677165
0
LINE
8
BLACK
6
CONTINUOUS
10
0.8392866929133858
20
-0.5806338582677165
11
0.8342679921259842
21
-0.5878013385826771
0
LINE
8
BLACK
6
CONTINUOUS
10
0.8342679921259842
20
-0.5878013385826771
11
0.8280808661417323
21
-0.5939884645669291
0
LINE
8
BLACK
6
CONTINUOUS
10
0.8280808661417323
20
-0.5939884645669291
11
0.8209133858267716
21
-0.5990071653543307
0
LINE
8
BLACK
6
CONTINUOUS
10
0.8209133858267716
20
-0.5990071653543307
11
0.8129833070866141
21
-0.6027050393700787
0
LINE
8
BLACK
6
CONTINUOUS
10
0.8129833070866141
20
-0.6027050393700787
11
0.8045315354330709
21
-0.6049696850393701
0
LINE
8
BLACK
6
CONTINUOUS
10
0.8045315354330709
20
-0.6049696850393701
11
0.7958149606299212
21
-0.6057322834645669
0
LINE
8
BLACK
6
CONTINUOUS
10
0.7958149606299212
20
-0.6057322834645669
11
0.7870983858267716
21
-0.6049696850393701
0
LINE
8
BLACK
6
CONTINUOUS
10
0.7870983858267716
20
-0.6049696850393701
11
0.7786466141732283
21
-0.6027050393700787
0
LINE
8
BLACK
6
CONTINUOUS
10
0.7786466141732283
20
-0.6027050393700787
11
0.7707165354330708
21
-0.5990071653543307
0
LINE
8
BLACK
6
CONTINUOUS
10
0.7707165354330708
20
-0.5990071653543307
11
0.7635490551181102
21
-0.5939884645669291
0
LINE
8
BLACK
6
CONTINUOUS
10
0.7635490551181102
20
-0.5939884645669291
11
0.7573619291338582
21
-0.5878013385826771
0
LINE
8
BLACK
6
CONTINUOUS
10
0.7573619291338582
20
-0.5878013385826771
11
0.7523432283464567
21
-0.5806338582677165
0
LINE
8
BLACK
6
CONTINUOUS
10
0.7523432283464567
20
-0.5806338582677165
11
0.7486453543307087
21
-0.572703779527559
0
LINE
8
BLACK
6
CONTINUOUS
10
0.7486453543307087
20
-0.572703779527559
11
0.7463807086614173
21
-0.5642520078740157
0
LINE
8
BLACK
6
CONTINUOUS
10
0.7463807086614173
20
-0.5642520078740157
11
0.7456181102362205
21
-0.5555354330708662
0
LINE
8
BLACK
6
CONTINUOUS
10
0.7456181102362205
20
-0.5555354330708662
11
0.7463807086614173
21
-0.5468188582677165
0
LINE
8
BLACK
6
CONTINUOUS
10
0.7463807086614173
20
-0.5468188582677165
11
0.7486453543307087
21
-0.5383670866141732
0
LINE
8
BLACK
6
CONTINUOUS
10
0.7486453543307087
20
-0.5383670866141732
11
0.7523432283464567
21
-0.5304370078740157
0
LINE
8
BLACK
6
CONTINUOUS
10
0.7523432283464567
20
-0.5304370078740157
11
0.7573619291338582
21
-0.5232695275590551
0
LINE
8
BLACK
6
CONTINUOUS
10
0.7573619291338582
20
-0.5232695275590551
11
0.7635490551181102
21
-0.5170824015748031
0
LINE
8
BLACK
6
CONTINUOUS
10
0.7635490551181102
20
-0.5170824015748031
11
0.7707165354330708
21
-0.5120637007874016
0
LINE
8
BLACK
6
CONTINUOUS
10
0.7707165354330708
20
-0.5120637007874016
11
0.7786466141732283
21
-0.5083658267716535
0
LINE
8
BLACK
6
CONTINUOUS
10
0.7786466141732283
20
-0.5083658267716535
11
0.7870983858267716
21
-0.5061011811023622
0
LINE
8
BLACK
6
CONTINUOUS
10
0.7870983858267716
20
-0.5061011811023622
11
0.7958149606299212
21
-0.5053385826771654
0
LINE
8
BLACK
6
CONTINUOUS
10
0.7958149606299212
20
-0.5053385826771654
11
0.8045315354330709
21
-0.5061011811023622
0
LINE
8
BLACK
6
CONTINUOUS
10
0.7481379133858268
20
-0.5639422047244095
11
0.7503220472440945
21
-0.5720935039370079
0
LINE
8
BLACK
6
CONTINUOUS
10
0.7503220472440945
20
-0.5720935039370079
11
0.7538884645669292
21
-0.5797417322834646
0
LINE
8
BLACK
6
CONTINUOUS
10
0.7538884645669292
20
-0.5797417322834646
11
0.758728779527559
21
-0.5866544094488189
0
LINE
8
BLACK
6
CONTINUOUS
10
0.758728779527559
20
-0.5866544094488189
11
0.7646959842519685
21
-0.5926216141732283
0
LINE
8
BLACK
6
CONTINUOUS
10
0.7646959842519685
20
-0.5926216141732283
11
0.7716086614173229
21
-0.5974619291338582
0
LINE
8
BLACK
6
CONTINUOUS
10
0.7716086614173229
20
-0.5974619291338582
11
0.7792568897637795
21
-0.6010283464566929
0
LINE
8
BLACK
6
CONTINUOUS
10
0.7792568897637795
20
-0.6010283464566929
11
0.787408188976378
21
-0.6032124803149607
0
LINE
8
BLACK
6
CONTINUOUS
10
0.787408188976378
20
-0.6032124803149607
11
0.7958149606299212
21
-0.6039479921259843
0
LINE
8
BLACK
6
CONTINUOUS
10
0.7958149606299212
20
-0.6039479921259843
11
0.8042217322834645
21
-0.6032124803149607
0
LINE
8
BLACK
6
CONTINUOUS
10
0.8042217322834645
20
-0.6032124803149607
11
0.812373031496063
21
-0.6010283464566929
0
LINE
8
BLACK
6
CONTINUOUS
10
0.812373031496063
20
-0.6010283464566929
11
0.8200212598425196
21
-0.5974619291338582
0
LINE
8
BLACK
6
CONTINUOUS
10
0.8200212598425196
20
-0.5974619291338582
11
0.826933937007874
21
-0.5926216141732283
0
LINE
8
BLACK
6
CONTINUOUS
10
0.826933937007874
20
-0.5926216141732283
11
0.8329011417322835
21
-0.5866544094488189
0
LINE
8
BLACK
6
CONTINUOUS
10
0.8329011417322835
20
-0.5866544094488189
11
0.8377414566929133
21
-0.5797417322834646
0
LINE
8
BLACK
6
CONTINUOUS
10
0.8377414566929133
20
-0.5797417322834646
11
0.841307874015748
21
-0.5720935039370079
0
LINE
8
BLACK
6
CONTINUOUS
10
0.841307874015748
20
-0.5720935039370079
11
0.8434920078740157
21
-0.5639422047244095
0
LINE
8
BLACK
6
CONTINUOUS
10
0.8434920078740157
20
-0.5639422047244095
11
0.8442275196850394
21
-0.5555354330708662
0
LINE
8
BLACK
6
CONTINUOUS
10
0.8442275196850394
20
-0.5555354330708662
11
0.8434920078740157
21
-0.5471286614173229
0
LINE
8
BLACK
6
CONTINUOUS
10
0.8434920078740157
20
-0.5471286614173229
11
0.841307874015748
21
-0.5389773622047244
0
LINE
8
BLACK
6
CONTINUOUS
10
0.841307874015748
20
-0.5389773622047244
11
0.8377414566929133
21
-0.5313291732283465
0
LINE
8
BLACK
6
CONTINUOUS
10
0.8377414566929133
20
-0.5313291732283465
11
0.8329011417322835
21
-0.5244164566929134
0
LINE
8
BLACK
6
CONTINUOUS
10
0.8329011417322835
20
-0.5244164566929134
11
0.826933937007874
21
-0.5184492519685039
0
LINE
8
BLACK
6
CONTINUOUS
10
0.826933937007874
20
-0.5184492519685039
11
0.8200212598425196
21
-0.513608937007874
0
LINE
8
BLACK
6
CONTINUOUS
10
0.8200212598425196
20
-0.513608937007874
11
0.812373031496063
21
-0.5100425196850393
0
LINE
8
BLACK
6
CONTINUOUS
10
0.812373031496063
20
-0.5100425196850393
11
0.8042217322834645
21
-0.5078583858267717
0
LINE
8
BLACK
6
CONTINUOUS
10
0.8042217322834645
20
-0.5078583858267717
11
0.7958149606299212
21
-0.5071228740157481
0
LINE
8
BLACK
6
CONTINUOUS
10
0.7958149606299212
20
-0.5071228740157481
11
0.787408188976378
21
-0.5078583858267717
0
LINE
8
BLACK
6
CONTINUOUS
10
0.787408188976378
20
-0.5078583858267717
11
0.7792568897637795
21
-0.5100425196850393
0
LINE
8
BLACK
6
CONTINUOUS
10
0.7792568897637795
20
-0.5100425196850393
11
0.7716087007874015
21
-0.513608937007874
0
LINE
8
BLACK
6
CONTINUOUS
10
0.7716087007874015
20
-0.513608937007874
11
0.7646959842519685
21
-0.5184492519685039
0
LINE
8
BLACK
6
CONTINUOUS
10
0.7646959842519685
20
-0.5184492519685039
11
0.758728779527559
21
-0.5244164566929134
0
LINE
8
BLACK
6
CONTINUOUS
10
0.758728779527559
20
-0.5244164566929134
11
0.7538884645669292
21
-0.5313291732283465
0
LINE
8
BLACK
6
CONTINUOUS
10
0.7538884645669292
20
-0.5313291732283465
11
0.7503220472440945
21
-0.5389773622047244
0
LINE
8
BLACK
6
CONTINUOUS
10
0.7503220472440945
20
-0.5389773622047244
11
0.7481379133858268
21
-0.5471286614173229
0
LINE
8
BLACK
6
CONTINUOUS
10
0.7481379133858268
20
-0.5471286614173229
11
0.7474024015748031
21
-0.5555354330708662
0
LINE
8
BLACK
6
CONTINUOUS
10
0.7474024015748031
20
-0.5555354330708662
11
0.7481379133858268
21
-0.5639422047244095
0
LINE
8
BLACK
6
CONTINUOUS
10
0.8045315354330709
20
-0.3663374015748032
11
0.8129833070866141
21
-0.3686020472440945
0
LINE
8
BLACK
6
CONTINUOUS
10
0.8129833070866141
20
-0.3686020472440945
11
0.8209133858267716
21
-0.3722999212598425
0
LINE
8
BLACK
6
CONTINUOUS
10
0.8209133858267716
20
-0.3722999212598425
11
0.8280808661417323
21
-0.3773186220472441
0
LINE
8
BLACK
6
CONTINUOUS
10
0.8280808661417323
20
-0.3773186220472441
11
0.8342679921259842
21
-0.3835057480314961
0
LINE
8
BLACK
6
CONTINUOUS
10
0.8342679921259842
20
-0.3835057480314961
11
0.8392866929133858
21
-0.3906732283464567
0
LINE
8
BLACK
6
CONTINUOUS
10
0.8392866929133858
20
-0.3906732283464567
11
0.8429845669291338
21
-0.3986033070866142
0
LINE
8
BLACK
6
CONTINUOUS
10
0.8429845669291338
20
-0.3986033070866142
11
0.8452492125984252
21
-0.4070550787401574
0
LINE
8
BLACK
6
CONTINUOUS
10
0.8452492125984252
20
-0.4070550787401574
11
0.846011811023622
21
-0.4157716535433071
0
LINE
8
BLACK
6
CONTINUOUS
10
0.846011811023622
20
-0.4157716535433071
11
0.8452492125984252
21
-0.4244882283464567
0
LINE
8
BLACK
6
CONTINUOUS
10
0.8452492125984252
20
-0.4244882283464567
11
0.8429845669291338
21
-0.43294
0
LINE
8
BLACK
6
CONTINUOUS
10
0.8429845669291338
20
-0.43294
11
0.8392866929133858
21
-0.4408700787401575
0
LINE
8
BLACK
6
CONTINUOUS
10
0.8392866929133858
20
-0.4408700787401575
11
0.8342679921259842
21
-0.4480375590551181
0
LINE
8
BLACK
6
CONTINUOUS
10
0.8342679921259842
20
-0.4480375590551181
11
0.8280808661417323
21
-0.4542246850393701
0
LINE
8
BLACK
6
CONTINUOUS
10
0.8280808661417323
20
-0.4542246850393701
11
0.8209133858267716
21
-0.4592433858267717
0
LINE
8
BLACK
6
CONTINUOUS
10
0.8209133858267716
20
-0.4592433858267717
11
0.8129833070866141
21
-0.4629412598425197
0
LINE
8
BLACK
6
CONTINUOUS
10
0.8129833070866141
20
-0.4629412598425197
11
0.8045315354330709
21
-0.465205905511811
0
LINE
8
BLACK
6
CONTINUOUS
10
0.8045315354330709
20
-0.465205905511811
11
0.7958149606299212
21
-0.4659685039370078
0
LINE
8
BLACK
6
CONTINUOUS
10
0.7958149606299212
20
-0.4659685039370078
11
0.7870983858267716
21
-0.465205905511811
0
LINE
8
BLACK
6
CONTINUOUS
10
0.7870983858267716
20
-0.465205905511811
11
0.7786466141732283
21
-0.4629412598425197
0
LINE
8
BLACK
6
CONTINUOUS
10
0.7786466141732283
20
-0.4629412598425197
11
0.7707165354330708
21
-0.4592433858267717
0
LINE
8
BLACK
6
CONTINUOUS
10
0.7707165354330708
20
-0.4592433858267717
11
0.7635490551181102
21
-0.4542246850393701
0
LINE
8
BLACK
6
CONTINUOUS
10
0.7635490551181102
20
-0.4542246850393701
11
0.7573619291338582
21
-0.4480375590551181
0
LINE
8
BLACK
6
CONTINUOUS
10
0.7573619291338582
20
-0.4480375590551181
11
0.7523432283464567
21
-0.4408700787401575
0
LINE
8
BLACK
6
CONTINUOUS
10
0.7523432283464567
20
-0.4408700787401575
11
0.7486453543307087
21
-0.43294
0
LINE
8
BLACK
6
CONTINUOUS
10
0.7486453543307087
20
-0.43294
11
0.7463807086614173
21
-0.4244882283464567
0
LINE
8
BLACK
6
CONTINUOUS
10
0.7463807086614173
20
-0.4244882283464567
11
0.7456181102362205
21
-0.4157716535433071
0
LINE
8
BLACK
6
CONTINUOUS
10
0.7456181102362205
20
-0.4157716535433071
11
0.7463807086614173
21
-0.4070550787401574
0
LINE
8
BLACK
6
CONTINUOUS
10
0.7463807086614173
20
-0.4070550787401574
11
0.7486453543307087
21
-0.3986033070866142
0
LINE
8
BLACK
6
CONTINUOUS
10
0.7486453543307087
20
-0.3986033070866142
11
0.7523432283464567
21
-0.3906732283464567
0
LINE
8
BLACK
6
CONTINUOUS
10
0.7523432283464567
20
-0.3906732283464567
11
0.7573619291338582
21
-0.3835057480314961
0
LINE
8
BLACK
6
CONTINUOUS
10
0.7573619291338582
20
-0.3835057480314961
11
0.7635490551181102
21
-0.3773186220472441
0
LINE
8
BLACK
6
CONTINUOUS
10
0.7635490551181102
20
-0.3773186220472441
11
0.7707165354330708
21
-0.3722999212598425
0
LINE
8
BLACK
6
CONTINUOUS
10
0.7707165354330708
20
-0.3722999212598425
11
0.7786466141732283
21
-0.3686020472440945
0
LINE
8
BLACK
6
CONTINUOUS
10
0.7786466141732283
20
-0.3686020472440945
11
0.7870983858267716
21
-0.3663374015748032
0
LINE
8
BLACK
6
CONTINUOUS
10
0.7870983858267716
20
-0.3663374015748032
11
0.7958149606299212
21
-0.3655748031496063
0
LINE
8
BLACK
6
CONTINUOUS
10
0.7958149606299212
20
-0.3655748031496063
11
0.8045315354330709
21
-0.3663374015748032
0
LINE
8
BLACK
6
CONTINUOUS
10
0.7481379133858268
20
-0.4241784251968504
11
0.7503220472440945
21
-0.4323297244094488
0
LINE
8
BLACK
6
CONTINUOUS
10
0.7503220472440945
20
-0.4323297244094488
11
0.7538884645669292
21
-0.4399779527559055
0
LINE
8
BLACK
6
CONTINUOUS
10
0.7538884645669292
20
-0.4399779527559055
11
0.758728779527559
21
-0.4468906299212598
0
LINE
8
BLACK
6
CONTINUOUS
10
0.758728779527559
20
-0.4468906299212598
11
0.7646959842519685
21
-0.4528578346456693
0
LINE
8
BLACK
6
CONTINUOUS
10
0.7646959842519685
20
-0.4528578346456693
11
0.7716086614173229
21
-0.4576981496062992
0
LINE
8
BLACK
6
CONTINUOUS
10
0.7716086614173229
20
-0.4576981496062992
11
0.7792568897637795
21
-0.4612645669291339
0
LINE
8
BLACK
6
CONTINUOUS
10
0.7792568897637795
20
-0.4612645669291339
11
0.787408188976378
21
-0.4634487007874016
0
LINE
8
BLACK
6
CONTINUOUS
10
0.787408188976378
20
-0.4634487007874016
11
0.7958149606299212
21
-0.4641842125984252
0
LINE
8
BLACK
6
CONTINUOUS
10
0.7958149606299212
20
-0.4641842125984252
11
0.8042217322834645
21
-0.4634487007874016
0
LINE
8
BLACK
6
CONTINUOUS
10
0.8042217322834645
20
-0.4634487007874016
11
0.812373031496063
21
-0.4612645669291339
0
LINE
8
BLACK
6
CONTINUOUS
10
0.812373031496063
20
-0.4612645669291339
11
0.8200212598425196
21
-0.4576981496062992
0
LINE
8
BLACK
6
CONTINUOUS
10
0.8200212598425196
20
-0.4576981496062992
11
0.826933937007874
21
-0.4528578346456693
0
LINE
8
BLACK
6
CONTINUOUS
10
0.826933937007874
20
-0.4528578346456693
11
0.8329011417322835
21
-0.4468906299212598
0
LINE
8
BLACK
6
CONTINUOUS
10
0.8329011417322835
20
-0.4468906299212598
11
0.8377414566929133
21
-0.4399779527559055
0
LINE
8
BLACK
6
CONTINUOUS
10
0.8377414566929133
20
-0.4399779527559055
11
0.841307874015748
21
-0.4323297244094488
0
LINE
8
BLACK
6
CONTINUOUS
10
0.841307874015748
20
-0.4323297244094488
11
0.8434920078740157
21
-0.4241784251968504
0
LINE
8
BLACK
6
CONTINUOUS
10
0.8434920078740157
20
-0.4241784251968504
11
0.8442275196850394
21
-0.4157716535433071
0
LINE
8
BLACK
6
CONTINUOUS
10
0.8442275196850394
20
-0.4157716535433071
11
0.8434920078740157
21
-0.4073648818897638
0
LINE
8
BLACK
6
CONTINUOUS
10
0.8434920078740157
20
-0.4073648818897638
11
0.841307874015748
21
-0.3992135826771653
0
LINE
8
BLACK
6
CONTINUOUS
10
0.841307874015748
20
-0.3992135826771653
11
0.8377414566929133
21
-0.3915653937007874
0
LINE
8
BLACK
6
CONTINUOUS
10
0.8377414566929133
20
-0.3915653937007874
11
0.8329011417322835
21
-0.3846526771653543
0
LINE
8
BLACK
6
CONTINUOUS
10
0.8329011417322835
20
-0.3846526771653543
11
0.826933937007874
21
-0.3786854724409449
0
LINE
8
BLACK
6
CONTINUOUS
10
0.826933937007874
20
-0.3786854724409449
11
0.8200212598425196
21
-0.3738451574803149
0
LINE
8
BLACK
6
CONTINUOUS
10
0.8200212598425196
20
-0.3738451574803149
11
0.812373031496063
21
-0.3702787401574803
0
LINE
8
BLACK
6
CONTINUOUS
10
0.812373031496063
20
-0.3702787401574803
11
0.8042217322834645
21
-0.3680946062992126
0
LINE
8
BLACK
6
CONTINUOUS
10
0.8042217322834645
20
-0.3680946062992126
11
0.7958149606299212
21
-0.367359094488189
0
LINE
8
BLACK
6
CONTINUOUS
10
0.7958149606299212
20
-0.367359094488189
11
0.787408188976378
21
-0.3680946062992126
0
LINE
8
BLACK
6
CONTINUOUS
10
0.787408188976378
20
-0.3680946062992126
11
0.7792568897637795
21
-0.3702787401574803
0
LINE
8
BLACK
6
CONTINUOUS
10
0.7792568897637795
20
-0.3702787401574803
11
0.7716087007874015
21
-0.3738451574803149
0
LINE
8
BLACK
6
CONTINUOUS
10
0.7716087007874015
20
-0.3738451574803149
11
0.7646959842519685
21
-0.3786854724409449
0
LINE
8
BLACK
6
CONTINUOUS
10
0.7646959842519685
20
-0.3786854724409449
11
0.758728779527559
21
-0.3846526771653543
0
LINE
8
BLACK
6
CONTINUOUS
10
0.758728779527559
20
-0.3846526771653543
11
0.7538884645669292
21
-0.3915653937007874
0
LINE
8
BLACK
6
CONTINUOUS
10
0.7538884645669292
20
-0.3915653937007874
11
0.7503220472440945
21
-0.3992135826771653
0
LINE
8
BLACK
6
CONTINUOUS
10
0.7503220472440945
20
-0.3992135826771653
11
0.7481379133858268
21
-0.4073648818897638
0
LINE
8
BLACK
6
CONTINUOUS
10
0.7481379133858268
20
-0.4073648818897638
11
0.7474024015748031
21
-0.4157716535433071
0
LINE
8
BLACK
6
CONTINUOUS
10
0.7474024015748031
20
-0.4157716535433071
11
0.7481379133858268
21
-0.4241784251968504
0
LINE
8
BLACK
6
CONTINUOUS
10
1.6127782283464567
20
-0.272948937007874
11
1.6133109055118109
21
-0.2734816141732284
0
LINE
8
BLACK
6
CONTINUOUS
10
1.6133109055118109
20
-0.2734816141732284
11
1.6133858267716534
21
-0.4061417322834646
0
LINE
8
BLACK
6
CONTINUOUS
10
1.6133858267716534
20
-0.4061417322834646
11
1.6133109055118109
21
-0.4065183858267716
0
LINE
8
BLACK
6
CONTINUOUS
10
1.6133109055118109
20
-0.4065183858267716
11
1.6127782283464567
21
-0.407051062992126
0
LINE
8
BLACK
6
CONTINUOUS
10
1.6127782283464567
20
-0.407051062992126
11
1.5375984251968504
21
-0.4071259842519685
0
LINE
8
BLACK
6
CONTINUOUS
10
1.5375984251968504
20
-0.4071259842519685
11
1.5372217716535432
21
-0.407051062992126
0
LINE
8
BLACK
6
CONTINUOUS
10
1.5372217716535432
20
-0.407051062992126
11
1.536689094488189
21
-0.4065183858267716
0
LINE
8
BLACK
6
CONTINUOUS
10
1.536689094488189
20
-0.4065183858267716
11
1.5366141732283465
21
-0.2738582677165354
0
LINE
8
BLACK
6
CONTINUOUS
10
1.5366141732283465
20
-0.2738582677165354
11
1.536689094488189
21
-0.2734816141732284
0
LINE
8
BLACK
6
CONTINUOUS
10
1.536689094488189
20
-0.2734816141732284
11
1.5372217716535432
21
-0.272948937007874
0
LINE
8
BLACK
6
CONTINUOUS
10
1.5372217716535432
20
-0.272948937007874
11
1.6124015748031495
21
-0.2728740157480315
0
LINE
8
BLACK
6
CONTINUOUS
10
1.6124015748031495
20
-0.2728740157480315
11
1.6127782283464567
21
-0.272948937007874
0
LINE
8
BLACK
6
CONTINUOUS
10
1.5385085039370079
20
-0.2748415748031496
11
1.538582125984252
21
-0.4052310236220472
0
LINE
8
BLACK
6
CONTINUOUS
10
1.538582125984252
20
-0.4052310236220472
11
1.6114914566929133
21
-0.4051583858267717
0
LINE
8
BLACK
6
CONTINUOUS
10
1.6114914566929133
20
-0.4051583858267717
11
1.6114178346456693
21
-0.274768937007874
0
LINE
8
BLACK
6
CONTINUOUS
10
1.6114178346456693
20
-0.274768937007874
11
1.5385085039370079
21
-0.2748415748031496
0
LINE
8
BLACK
6
CONTINUOUS
10
0.8045315354330709
20
-0.2265736220472441
11
0.8129833070866141
21
-0.2288382677165354
0
LINE
8
BLACK
6
CONTINUOUS
10
0.8129833070866141
20
-0.2288382677165354
11
0.8209133858267716
21
-0.2325361417322835
0
LINE
8
BLACK
6
CONTINUOUS
10
0.8209133858267716
20
-0.2325361417322835
11
0.8280808661417323
21
-0.237554842519685
0
LINE
8
BLACK
6
CONTINUOUS
10
0.8280808661417323
20
-0.237554842519685
11
0.8342679921259842
21
-0.243741968503937
0
LINE
8
BLACK
6
CONTINUOUS
10
0.8342679921259842
20
-0.243741968503937
11
0.8392866929133858
21
-0.2509094488188977
0
LINE
8
BLACK
6
CONTINUOUS
10
0.8392866929133858
20
-0.2509094488188977
11
0.8429845669291338
21
-0.2588395275590551
0
LINE
8
BLACK
6
CONTINUOUS
10
0.8429845669291338
20
-0.2588395275590551
11
0.8452492125984252
21
-0.2672912992125984
0
LINE
8
BLACK
6
CONTINUOUS
10
0.8452492125984252
20
-0.2672912992125984
11
0.846011811023622
21
-0.276007874015748
0
LINE
8
BLACK
6
CONTINUOUS
10
0.846011811023622
20
-0.276007874015748
11
0.8452492125984252
21
-0.2847244488188976
0
LINE
8
BLACK
6
CONTINUOUS
10
0.8452492125984252
20
-0.2847244488188976
11
0.8429845669291338
21
-0.293176220472441
0
LINE
8
BLACK
6
CONTINUOUS
10
0.8429845669291338
20
-0.293176220472441
11
0.8392866929133858
21
-0.3011062992125984
0
LINE
8
BLACK
6
CONTINUOUS
10
0.8392866929133858
20
-0.3011062992125984
11
0.8342679921259842
21
-0.308273779527559
0
LINE
8
BLACK
6
CONTINUOUS
10
0.8342679921259842
20
-0.308273779527559
11
0.8280808661417323
21
-0.314460905511811
0
LINE
8
BLACK
6
CONTINUOUS
10
0.8280808661417323
20
-0.314460905511811
11
0.8209133858267716
21
-0.3194796062992126
0
LINE
8
BLACK
6
CONTINUOUS
10
0.8209133858267716
20
-0.3194796062992126
11
0.8129833070866141
21
-0.3231774803149606
0
LINE
8
BLACK
6
CONTINUOUS
10
0.8129833070866141
20
-0.3231774803149606
11
0.8045315354330709
21
-0.325442125984252
0
LINE
8
BLACK
6
CONTINUOUS
10
0.8045315354330709
20
-0.325442125984252
11
0.7958149606299212
21
-0.3262047244094488
0
LINE
8
BLACK
6
CONTINUOUS
10
0.7958149606299212
20
-0.3262047244094488
11
0.7870983858267716
21
-0.325442125984252
0
LINE
8
BLACK
6
CONTINUOUS
10
0.7870983858267716
20
-0.325442125984252
11
0.7786466141732283
21
-0.3231774803149606
0
LINE
8
BLACK
6
CONTINUOUS
10
0.7786466141732283
20
-0.3231774803149606
11
0.7707165354330708
21
-0.3194796062992126
0
LINE
8
BLACK
6
CONTINUOUS
10
0.7707165354330708
20
-0.3194796062992126
11
0.7635490551181102
21
-0.314460905511811
0
LINE
8
BLACK
6
CONTINUOUS
10
0.7635490551181102
20
-0.314460905511811
11
0.7573619291338582
21
-0.308273779527559
0
LINE
8
BLACK
6
CONTINUOUS
10
0.7573619291338582
20
-0.308273779527559
11
0.7523432283464567
21
-0.3011062992125984
0
LINE
8
BLACK
6
CONTINUOUS
10
0.7523432283464567
20
-0.3011062992125984
11
0.7486453543307087
21
-0.293176220472441
0
LINE
8
BLACK
6
CONTINUOUS
10
0.7486453543307087
20
-0.293176220472441
11
0.7463807086614173
21
-0.2847244488188976
0
LINE
8
BLACK
6
CONTINUOUS
10
0.7463807086614173
20
-0.2847244488188976
11
0.7456181102362205
21
-0.276007874015748
0
LINE
8
BLACK
6
CONTINUOUS
10
0.7456181102362205
20
-0.276007874015748
11
0.7463807086614173
21
-0.2672912992125984
0
LINE
8
BLACK
6
CONTINUOUS
10
0.7463807086614173
20
-0.2672912992125984
11
0.7486453543307087
21
-0.2588395275590551
0
LINE
8
BLACK
6
CONTINUOUS
10
0.7486453543307087
20
-0.2588395275590551
11
0.7523432283464567
21
-0.2509094488188977
0
LINE
8
BLACK
6
CONTINUOUS
10
0.7523432283464567
20
-0.2509094488188977
11
0.7573619291338582
21
-0.243741968503937
0
LINE
8
BLACK
6
CONTINUOUS
10
0.7573619291338582
20
-0.243741968503937
11
0.7635490551181102
21
-0.237554842519685
0
LINE
8
BLACK
6
CONTINUOUS
10
0.7635490551181102
20
-0.237554842519685
11
0.7707165354330708
21
-0.2325361417322835
0
LINE
8
BLACK
6
CONTINUOUS
10
0.7707165354330708
20
-0.2325361417322835
11
0.7786466141732283
21
-0.2288382677165354
0
LINE
8
BLACK
6
CONTINUOUS
10
0.7786466141732283
20
-0.2288382677165354
11
0.7870983858267716
21
-0.2265736220472441
0
LINE
8
BLACK
6
CONTINUOUS
10
0.7870983858267716
20
-0.2265736220472441
11
0.7958149606299212
21
-0.2258110236220472
0
LINE
8
BLACK
6
CONTINUOUS
10
0.7958149606299212
20
-0.2258110236220472
11
0.8045315354330709
21
-0.2265736220472441
0
LINE
8
BLACK
6
CONTINUOUS
10
0.7481379133858268
20
-0.2844146456692913
11
0.7503220472440945
21
-0.2925659448818898
0
LINE
8
BLACK
6
CONTINUOUS
10
0.7503220472440945
20
-0.2925659448818898
11
0.7538884645669292
21
-0.3002141732283464
0
LINE
8
BLACK
6
CONTINUOUS
10
0.7538884645669292
20
-0.3002141732283464
11
0.758728779527559
21
-0.3071268503937008
0
LINE
8
BLACK
6
CONTINUOUS
10
0.758728779527559
20
-0.3071268503937008
11
0.7646959842519685
21
-0.3130940551181102
0
LINE
8
BLACK
6
CONTINUOUS
10
0.7646959842519685
20
-0.3130940551181102
11
0.7716086614173229
21
-0.3179343700787401
0
LINE
8
BLACK
6
CONTINUOUS
10
0.7716086614173229
20
-0.3179343700787401
11
0.7792568897637795
21
-0.3215007874015748
0
LINE
8
BLACK
6
CONTINUOUS
10
0.7792568897637795
20
-0.3215007874015748
11
0.787408188976378
21
-0.3236849212598425
0
LINE
8
BLACK
6
CONTINUOUS
10
0.787408188976378
20
-0.3236849212598425
11
0.7958149606299212
21
-0.3244204330708662
0
LINE
8
BLACK
6
CONTINUOUS
10
0.7958149606299212
20
-0.3244204330708662
11
0.8042217322834645
21
-0.3236849212598425
0
LINE
8
BLACK
6
CONTINUOUS
10
0.8042217322834645
20
-0.3236849212598425
11
0.812373031496063
21
-0.3215007874015748
0
LINE
8
BLACK
6
CONTINUOUS
10
0.812373031496063
20
-0.3215007874015748
11
0.8200212598425196
21
-0.3179343700787401
0
LINE
8
BLACK
6
CONTINUOUS
10
0.8200212598425196
20
-0.3179343700787401
11
0.826933937007874
21
-0.3130940551181102
0
LINE
8
BLACK
6
CONTINUOUS
10
0.826933937007874
20
-0.3130940551181102
11
0.8329011417322835
21
-0.3071268503937008
0
LINE
8
BLACK
6
CONTINUOUS
10
0.8329011417322835
20
-0.3071268503937008
11
0.8377414566929133
21
-0.3002141732283464
0
LINE
8
BLACK
6
CONTINUOUS
10
0.8377414566929133
20
-0.3002141732283464
11
0.841307874015748
21
-0.2925659448818898
0
LINE
8
BLACK
6
CONTINUOUS
10
0.841307874015748
20
-0.2925659448818898
11
0.8434920078740157
21
-0.2844146456692913
0
LINE
8
BLACK
6
CONTINUOUS
10
0.8434920078740157
20
-0.2844146456692913
11
0.8442275196850394
21
-0.276007874015748
0
LINE
8
BLACK
6
CONTINUOUS
10
0.8442275196850394
20
-0.276007874015748
11
0.8434920078740157
21
-0.2676011023622047
0
LINE
8
BLACK
6
CONTINUOUS
10
0.8434920078740157
20
-0.2676011023622047
11
0.841307874015748
21
-0.2594498031496063
0
LINE
8
BLACK
6
CONTINUOUS
10
0.841307874015748
20
-0.2594498031496063
11
0.8377414566929133
21
-0.2518016141732283
0
LINE
8
BLACK
6
CONTINUOUS
10
0.8377414566929133
20
-0.2518016141732283
11
0.8329011417322835
21
-0.2448888976377953
0
LINE
8
BLACK
6
CONTINUOUS
10
0.8329011417322835
20
-0.2448888976377953
11
0.826933937007874
21
-0.2389216929133858
0
LINE
8
BLACK
6
CONTINUOUS
10
0.826933937007874
20
-0.2389216929133858
11
0.8200212598425196
21
-0.2340813779527559
0
LINE
8
BLACK
6
CONTINUOUS
10
0.8200212598425196
20
-0.2340813779527559
11
0.812373031496063
21
-0.2305149606299212
0
LINE
8
BLACK
6
CONTINUOUS
10
0.812373031496063
20
-0.2305149606299212
11
0.8042217322834645
21
-0.2283308267716535
0
LINE
8
BLACK
6
CONTINUOUS
10
0.8042217322834645
20
-0.2283308267716535
11
0.7958149606299212
21
-0.2275953149606299
0
LINE
8
BLACK
6
CONTINUOUS
10
0.7958149606299212
20
-0.2275953149606299
11
0.787408188976378
21
-0.2283308267716535
0
LINE
8
BLACK
6
CONTINUOUS
10
0.787408188976378
20
-0.2283308267716535
11
0.7792568897637795
21
-0.2305149606299212
0
LINE
8
BLACK
6
CONTINUOUS
10
0.7792568897637795
20
-0.2305149606299212
11
0.7716087007874015
21
-0.2340813779527559
0
LINE
8
BLACK
6
CONTINUOUS
10
0.7716087007874015
20
-0.2340813779527559
11
0.7646959842519685
21
-0.2389216929133858
0
LINE
8
BLACK
6
CONTINUOUS
10
0.7646959842519685
20
-0.2389216929133858
11
0.758728779527559
21
-0.2448888976377953
0
LINE
8
BLACK
6
CONTINUOUS
10
0.758728779527559
20
-0.2448888976377953
11
0.7538884645669292
21
-0.2518016141732283
0
LINE
8
BLACK
6
CONTINUOUS
10
0.7538884645669292
20
-0.2518016141732283
11
0.7503220472440945
21
-0.2594498031496063
0
LINE
8
BLACK
6
CONTINUOUS
10
0.7503220472440945
20
-0.2594498031496063
11
0.7481379133858268
21
-0.2676011023622047
0
LINE
8
BLACK
6
CONTINUOUS
10
0.7481379133858268
20
-0.2676011023622047
11
0.7474024015748031
21
-0.276007874015748
0
LINE
8
BLACK
6
CONTINUOUS
10
0.7474024015748031
20
-0.276007874015748
11
0.7481379133858268
21
-0.2844146456692913
0
LINE
8
BLACK
6
CONTINUOUS
10
0.8045315354330709
20
-0.086809842519685
11
0.8129833070866141
21
-0.0890744881889764
0
LINE
8
BLACK
6
CONTINUOUS
10
0.8129833070866141
20
-0.0890744881889764
11
0.8209133858267716
21
-0.0927723622047244
0
LINE
8
BLACK
6
CONTINUOUS
10
0.8209133858267716
20
-0.0927723622047244
11
0.8280808661417323
21
-0.097791062992126
0
LINE
8
BLACK
6
CONTINUOUS
10
0.8280808661417323
20
-0.097791062992126
11
0.8342679921259842
21
-0.1039781889763779
0
LINE
8
BLACK
6
CONTINUOUS
10
0.8342679921259842
20
-0.1039781889763779
11
0.8392866929133858
21
-0.1111456692913386
0
LINE
8
BLACK
6
CONTINUOUS
10
0.8392866929133858
20
-0.1111456692913386
11
0.8429845669291338
21
-0.1190757480314961
0
LINE
8
BLACK
6
CONTINUOUS
10
0.8429845669291338
20
-0.1190757480314961
11
0.8452492125984252
21
-0.1275275196850394
0
LINE
8
BLACK
6
CONTINUOUS
10
0.8452492125984252
20
-0.1275275196850394
11
0.846011811023622
21
-0.136244094488189
0
LINE
8
BLACK
6
CONTINUOUS
10
0.846011811023622
20
-0.136244094488189
11
0.8452492125984252
21
-0.1449606692913386
0
LINE
8
BLACK
6
CONTINUOUS
10
0.8452492125984252
20
-0.1449606692913386
11
0.8429845669291338
21
-0.1534124409448819
0
LINE
8
BLACK
6
CONTINUOUS
10
0.8429845669291338
20
-0.1534124409448819
11
0.8392866929133858
21
-0.1613425196850394
0
LINE
8
BLACK
6
CONTINUOUS
10
0.8392866929133858
20
-0.1613425196850394
11
0.8342679921259842
21
-0.16851
0
LINE
8
BLACK
6
CONTINUOUS
10
0.8342679921259842
20
-0.16851
11
0.8280808661417323
21
-0.174697125984252
0
LINE
8
BLACK
6
CONTINUOUS
10
0.8280808661417323
20
-0.174697125984252
11
0.8209133858267716
21
-0.1797158267716535
0
LINE
8
BLACK
6
CONTINUOUS
10
0.8209133858267716
20
-0.1797158267716535
11
0.8129833070866141
21
-0.1834137007874016
0
LINE
8
BLACK
6
CONTINUOUS
10
0.8129833070866141
20
-0.1834137007874016
11
0.8045315354330709
21
-0.1856783464566929
0
LINE
8
BLACK
6
CONTINUOUS
10
0.8045315354330709
20
-0.1856783464566929
11
0.7958149606299212
21
-0.1864409448818898
0
LINE
8
BLACK
6
CONTINUOUS
10
0.7958149606299212
20
-0.1864409448818898
11
0.7870983858267716
21
-0.1856783464566929
0
LINE
8
BLACK
6
CONTINUOUS
10
0.7870983858267716
20
-0.1856783464566929
11
0.7786466141732283
21
-0.1834137007874016
0
LINE
8
BLACK
6
CONTINUOUS
10
0.7786466141732283
20
-0.1834137007874016
11
0.7707165354330708
21
-0.1797158267716535
0
LINE
8
BLACK
6
CONTINUOUS
10
0.7707165354330708
20
-0.1797158267716535
11
0.7635490551181102
21
-0.174697125984252
0
LINE
8
BLACK
6
CONTINUOUS
10
0.7635490551181102
20
-0.174697125984252
11
0.7573619291338582
21
-0.16851
0
LINE
8
BLACK
6
CONTINUOUS
10
0.7573619291338582
20
-0.16851
11
0.7523432283464567
21
-0.1613425196850394
0
LINE
8
BLACK
6
CONTINUOUS
10
0.7523432283464567
20
-0.1613425196850394
11
0.7486453543307087
21
-0.1534124409448819
0
LINE
8
BLACK
6
CONTINUOUS
10
0.7486453543307087
20
-0.1534124409448819
11
0.7463807086614173
21
-0.1449606692913386
0
LINE
8
BLACK
6
CONTINUOUS
10
0.7463807086614173
20
-0.1449606692913386
11
0.7456181102362205
21
-0.136244094488189
0
LINE
8
BLACK
6
CONTINUOUS
10
0.7456181102362205
20
-0.136244094488189
11
0.7463807086614173
21
-0.1275275196850394
0
LINE
8
BLACK
6
CONTINUOUS
10
0.7463807086614173
20
-0.1275275196850394
11
0.7486453543307087
21
-0.1190757480314961
0
LINE
8
BLACK
6
CONTINUOUS
10
0.7486453543307087
20
-0.1190757480314961
11
0.7523432283464567
21
-0.1111456692913386
0
LINE
8
BLACK
6
CONTINUOUS
10
0.7523432283464567
20
-0.1111456692913386
11
0.7573619291338582
21
-0.1039781889763779
0
LINE
8
BLACK
6
CONTINUOUS
10
0.7573619291338582
20
-0.1039781889763779
11
0.7635490551181102
21
-0.097791062992126
0
LINE
8
BLACK
6
CONTINUOUS
10
0.7635490551181102
20
-0.097791062992126
11
0.7707165354330708
21
-0.0927723622047244
0
LINE
8
BLACK
6
CONTINUOUS
10
0.7707165354330708
20
-0.0927723622047244
11
0.7786466141732283
21
-0.0890744881889764
0
LINE
8
BLACK
6
CONTINUOUS
10
0.7786466141732283
20
-0.0890744881889764
11
0.7870983858267716
21
-0.086809842519685
0
LINE
8
BLACK
6
CONTINUOUS
10
0.7870983858267716
20
-0.086809842519685
11
0.7958149606299212
21
-0.0860472440944882
0
LINE
8
BLACK
6
CONTINUOUS
10
0.7958149606299212
20
-0.0860472440944882
11
0.8045315354330709
21
-0.086809842519685
0
LINE
8
BLACK
6
CONTINUOUS
10
0.7481379133858268
20
-0.1446508661417323
11
0.7503220472440945
21
-0.1528021653543307
0
LINE
8
BLACK
6
CONTINUOUS
10
0.7503220472440945
20
-0.1528021653543307
11
0.7538884645669292
21
-0.1604503937007874
0
LINE
8
BLACK
6
CONTINUOUS
10
0.7538884645669292
20
-0.1604503937007874
11
0.758728779527559
21
-0.1673630708661417
0
LINE
8
BLACK
6
CONTINUOUS
10
0.758728779527559
20
-0.1673630708661417
11
0.7646959842519685
21
-0.1733302755905512
0
LINE
8
BLACK
6
CONTINUOUS
10
0.7646959842519685
20
-0.1733302755905512
11
0.7716086614173229
21
-0.1781705905511811
0
LINE
8
BLACK
6
CONTINUOUS
10
0.7716086614173229
20
-0.1781705905511811
11
0.7792568897637795
21
-0.1817370078740158
0
LINE
8
BLACK
6
CONTINUOUS
10
0.7792568897637795
20
-0.1817370078740158
11
0.787408188976378
21
-0.1839211417322835
0
LINE
8
BLACK
6
CONTINUOUS
10
0.787408188976378
20
-0.1839211417322835
11
0.7958149606299212
21
-0.1846566535433071
0
LINE
8
BLACK
6
CONTINUOUS
10
0.7958149606299212
20
-0.1846566535433071
11
0.8042217322834645
21
-0.1839211417322835
0
LINE
8
BLACK
6
CONTINUOUS
10
0.8042217322834645
20
-0.1839211417322835
11
0.812373031496063
21
-0.1817370078740158
0
LINE
8
BLACK
6
CONTINUOUS
10
0.812373031496063
20
-0.1817370078740158
11
0.8200212598425196
21
-0.1781705905511811
0
LINE
8
BLACK
6
CONTINUOUS
10
0.8200212598425196
20
-0.1781705905511811
11
0.826933937007874
21
-0.1733302755905512
0
LINE
8
BLACK
6
CONTINUOUS
10
0.826933937007874
20
-0.1733302755905512
11
0.8329011417322835
21
-0.1673630708661417
0
LINE
8
BLACK
6
CONTINUOUS
10
0.8329011417322835
20
-0.1673630708661417
11
0.8377414566929133
21
-0.1604503937007874
0
LINE
8
BLACK
6
CONTINUOUS
10
0.8377414566929133
20
-0.1604503937007874
11
0.841307874015748
21
-0.1528021653543307
0
LINE
8
BLACK
6
CONTINUOUS
10
0.841307874015748
20
-0.1528021653543307
11
0.8434920078740157
21
-0.1446508661417323
0
LINE
8
BLACK
6
CONTINUOUS
10
0.8434920078740157
20
-0.1446508661417323
11
0.8442275196850394
21
-0.136244094488189
0
LINE
8
BLACK
6
CONTINUOUS
10
0.8442275196850394
20
-0.136244094488189
11
0.8434920078740157
21
-0.1278373228346457
0
LINE
8
BLACK
6
CONTINUOUS
10
0.8434920078740157
20
-0.1278373228346457
11
0.841307874015748
21
-0.1196860236220472
0
LINE
8
BLACK
6
CONTINUOUS
10
0.841307874015748
20
-0.1196860236220472
11
0.8377414566929133
21
-0.1120378346456693
0
LINE
8
BLACK
6
CONTINUOUS
10
0.8377414566929133
20
-0.1120378346456693
11
0.8329011417322835
21
-0.1051251181102362
0
LINE
8
BLACK
6
CONTINUOUS
10
0.8329011417322835
20
-0.1051251181102362
11
0.826933937007874
21
-0.0991579133858268
0
LINE
8
BLACK
6
CONTINUOUS
10
0.826933937007874
20
-0.0991579133858268
11
0.8200212598425196
21
-0.0943175984251969
0
LINE
8
BLACK
6
CONTINUOUS
10
0.8200212598425196
20
-0.0943175984251969
11
0.812373031496063
21
-0.0907511811023622
0
LINE
8
BLACK
6
CONTINUOUS
10
0.812373031496063
20
-0.0907511811023622
11
0.8042217322834645
21
-0.0885670472440945
0
LINE
8
BLACK
6
CONTINUOUS
10
0.8042217322834645
20
-0.0885670472440945
11
0.7958149606299212
21
-0.0878315354330709
0
LINE
8
BLACK
6
CONTINUOUS
10
0.7958149606299212
20
-0.0878315354330709
11
0.787408188976378
21
-0.0885670472440945
0
LINE
8
BLACK
6
CONTINUOUS
10
0.787408188976378
20
-0.0885670472440945
11
0.7792568897637795
21
-0.0907511811023622
0
LINE
8
BLACK
6
CONTINUOUS
10
0.7792568897637795
20
-0.0907511811023622
11
0.7716087007874015
21
-0.0943175984251969
0
LINE
8
BLACK
6
CONTINUOUS
10
0.7716087007874015
20
-0.0943175984251969
11
0.7646959842519685
21
-0.0991579133858268
0
LINE
8
BLACK
6
CONTINUOUS
10
0.7646959842519685
20
-0.0991579133858268
11
0.758728779527559
21
-0.1051251181102362
0
LINE
8
BLACK
6
CONTINUOUS
10
0.758728779527559
20
-0.1051251181102362
11
0.7538884645669292
21
-0.1120378346456693
0
LINE
8
BLACK
6
CONTINUOUS
10
0.7538884645669292
20
-0.1120378346456693
11
0.7503220472440945
21
-0.1196860236220472
0
LINE
8
BLACK
6
CONTINUOUS
10
0.7503220472440945
20
-0.1196860236220472
11
0.7481379133858268
21
-0.1278373228346457
0
LINE
8
BLACK
6
CONTINUOUS
10
0.7481379133858268
20
-0.1278373228346457
11
0.7474024015748031
21
-0.136244094488189
0
LINE
8
BLACK
6
CONTINUOUS
10
0.7474024015748031
20
-0.136244094488189
11
0.7481379133858268
21
-0.1446508661417323
0
LINE
8
BLACK
6
CONTINUOUS
10
1.1639593307086613
20
0.5478384645669291
11
1.1644920078740157
21
0.5473057874015748
0
LINE
8
BLACK
6
CONTINUOUS
10
1.1644920078740157
20
0.5473057874015748
11
1.1645669291338583
21
0.4130708661417323
0
LINE
8
BLACK
6
CONTINUOUS
10
1.1645669291338583
20
0.4130708661417323
11
1.1644920078740157
21
0.4126942125984252
0
LINE
8
BLACK
6
CONTINUOUS
10
1.1644920078740157
20
0.4126942125984252
11
1.1639593307086613
21
0.4121615354330709
0
LINE
8
BLACK
6
CONTINUOUS
10
1.1639593307086613
20
0.4121615354330709
11
1.0864173228346456
21
0.4120866141732283
0
LINE
8
BLACK
6
CONTINUOUS
10
1.0864173228346456
20
0.4120866141732283
11
1.0860406692913385
21
0.4121615354330709
0
LINE
8
BLACK
6
CONTINUOUS
10
1.0860406692913385
20
0.4121615354330709
11
1.0855079921259843
21
0.4126942125984252
0
LINE
8
BLACK
6
CONTINUOUS
10
1.0855079921259843
20
0.4126942125984252
11
1.0854330708661417
21
0.5469291338582677
0
LINE
8
BLACK
6
CONTINUOUS
10
1.0854330708661417
20
0.5469291338582677
11
1.0855079921259843
21
0.5473057874015748
0
LINE
8
BLACK
6
CONTINUOUS
10
1.0855079921259843
20
0.5473057874015748
11
1.0860406692913385
21
0.5478384645669291
0
LINE
8
BLACK
6
CONTINUOUS
10
1.0860406692913385
20
0.5478384645669291
11
1.1635826771653544
21
0.5479133858267716
0
LINE
8
BLACK
6
CONTINUOUS
10
1.1635826771653544
20
0.5479133858267716
11
1.1639593307086613
21
0.5478384645669291
0
LINE
8
BLACK
6
CONTINUOUS
10
1.0873274015748031
20
0.5459457874015748
11
1.087401062992126
21
0.4139815354330709
0
LINE
8
BLACK
6
CONTINUOUS
10
1.087401062992126
20
0.4139815354330709
11
1.1626725590551181
21
0.4140542519685039
0
LINE
8
BLACK
6
CONTINUOUS
10
1.1626725590551181
20
0.4140542519685039
11
1.1625988976377952
21
0.5460185039370079
0
LINE
8
BLACK
6
CONTINUOUS
10
1.1625988976377952
20
0.5460185039370079
11
1.0873274015748031
21
0.5459457874015748
0
LINE
8
BLACK
6
CONTINUOUS
10
2.2765183858267717
20
0.718310905511811
11
2.2770510629921259
21
0.7177782283464567
0
LINE
8
BLACK
6
CONTINUOUS
10
2.2770510629921259
20
0.7177782283464567
11
2.2771259842519687
21
0.6425984251968504
0
LINE
8
BLACK
6
CONTINUOUS
10
2.2771259842519687
20
0.6425984251968504
11
2.2770510629921259
21
0.6422217716535433
0
LINE
8
BLACK
6
CONTINUOUS
10
2.2770510629921259
20
0.6422217716535433
11
2.2765183858267717
21
0.641689094488189
0
LINE
8
BLACK
6
CONTINUOUS
10
2.2765183858267717
20
0.641689094488189
11
2.1438582677165354
21
0.6416141732283465
0
LINE
8
BLACK
6
CONTINUOUS
10
2.1438582677165354
20
0.6416141732283465
11
2.1434816141732282
21
0.641689094488189
0
LINE
8
BLACK
6
CONTINUOUS
10
2.1434816141732282
20
0.641689094488189
11
2.142948937007874
21
0.6422217716535433
0
LINE
8
BLACK
6
CONTINUOUS
10
2.142948937007874
20
0.6422217716535433
11
2.1428740157480313
21
0.7174015748031496
0
LINE
8
BLACK
6
CONTINUOUS
10
2.1428740157480313
20
0.7174015748031496
11
2.142948937007874
21
0.7177782283464567
0
LINE
8
BLACK
6
CONTINUOUS
10
2.142948937007874
20
0.7177782283464567
11
2.1434816141732282
21
0.718310905511811
0
LINE
8
BLACK
6
CONTINUOUS
10
2.1434816141732282
20
0.718310905511811
11
2.2761417322834645
21
0.7183858267716535
0
LINE
8
BLACK
6
CONTINUOUS
10
2.2761417322834645
20
0.7183858267716535
11
2.2765183858267717
21
0.718310905511811
0
LINE
8
BLACK
6
CONTINUOUS
10
2.144768937007874
20
0.716417874015748
11
2.1448415748031495
21
0.6435085433070866
0
LINE
8
BLACK
6
CONTINUOUS
10
2.1448415748031495
20
0.6435085433070866
11
2.2752310236220472
21
0.6435821653543307
0
LINE
8
BLACK
6
CONTINUOUS
10
2.2752310236220472
20
0.6435821653543307
11
2.2751583858267717
21
0.7164914960629921
0
LINE
8
BLACK
6
CONTINUOUS
10
2.2751583858267717
20
0.7164914960629921
11
2.144768937007874
21
0.716417874015748
0
LINE
8
BLACK
6
CONTINUOUS
10
2.5065183858267717
20
0.747310905511811
11
2.5070510629921259
21
0.7467782283464567
0
LINE
8
BLACK
6
CONTINUOUS
10
2.5070510629921259
20
0.7467782283464567
11
2.5071259842519686
21
0.6715984251968504
0
LINE
8
BLACK
6
CONTINUOUS
10
2.5071259842519686
20
0.6715984251968504
11
2.5070510629921259
21
0.6712217716535432
0
LINE
8
BLACK
6
CONTINUOUS
10
2.5070510629921259
20
0.6712217716535432
11
2.5065183858267717
21
0.6706890944881889
0
LINE
8
BLACK
6
CONTINUOUS
10
2.5065183858267717
20
0.6706890944881889
11
2.3738582677165354
21
0.6706141732283465
0
LINE
8
BLACK
6
CONTINUOUS
10
2.3738582677165354
20
0.6706141732283465
11
2.3734816141732282
21
0.6706890944881889
0
LINE
8
BLACK
6
CONTINUOUS
10
2.3734816141732282
20
0.6706890944881889
11
2.372948937007874
21
0.6712217716535432
0
LINE
8
BLACK
6
CONTINUOUS
10
2.372948937007874
20
0.6712217716535432
11
2.3728740157480313
21
0.7464015748031496
0
LINE
8
BLACK
6
CONTINUOUS
10
2.3728740157480313
20
0.7464015748031496
11
2.372948937007874
21
0.7467782283464567
0
LINE
8
BLACK
6
CONTINUOUS
10
2.372948937007874
20
0.7467782283464567
11
2.3734816141732282
21
0.747310905511811
0
LINE
8
BLACK
6
CONTINUOUS
10
2.3734816141732282
20
0.747310905511811
11
2.5061417322834645
21
0.7473858267716535
0
LINE
8
BLACK
6
CONTINUOUS
10
2.5061417322834645
20
0.7473858267716535
11
2.5065183858267717
21
0.747310905511811
0
LINE
8
BLACK
6
CONTINUOUS
10
2.3747689370078739
20
0.745417874015748
11
2.3748415748031495
21
0.6725085433070866
0
LINE
8
BLACK
6
CONTINUOUS
10
2.3748415748031495
20
0.6725085433070866
11
2.5052310236220472
21
0.6725821653543307
0
LINE
8
BLACK
6
CONTINUOUS
10
2.5052310236220472
20
0.6725821653543307
11
2.5051583858267716
21
0.7454914960629921
0
LINE
8
BLACK
6
CONTINUOUS
10
2.5051583858267716
20
0.7454914960629921
11
2.3747689370078739
21
0.745417874015748
0
LINE
8
BLACK
6
CONTINUOUS
10
2.6759672047244094
20
0.8168384645669291
11
2.6764998818897636
21
0.8163057874015748
0
LINE
8
BLACK
6
CONTINUOUS
10
2.6764998818897636
20
0.8163057874015748
11
2.6765748031496064
21
0.6820708661417323
0
LINE
8
BLACK
6
CONTINUOUS
10
2.6765748031496064
20
0.6820708661417323
11
2.6764998818897636
21
0.6816942125984252
0
LINE
8
BLACK
6
CONTINUOUS
10
2.6764998818897636
20
0.6816942125984252
11
2.6759672047244094
21
0.6811615354330709
0
LINE
8
BLACK
6
CONTINUOUS
10
2.6759672047244094
20
0.6811615354330709
11
2.5244094488188975
21
0.6810866141732284
0
LINE
8
BLACK
6
CONTINUOUS
10
2.5244094488188975
20
0.6810866141732284
11
2.5240327952755903
21
0.6811615354330709
0
LINE
8
BLACK
6
CONTINUOUS
10
2.5240327952755903
20
0.6811615354330709
11
2.5235001181102361
21
0.6816942125984252
0
LINE
8
BLACK
6
CONTINUOUS
10
2.5235001181102361
20
0.6816942125984252
11
2.5234251968503938
21
0.8159291338582677
0
LINE
8
BLACK
6
CONTINUOUS
10
2.5234251968503938
20
0.8159291338582677
11
2.5235001181102361
21
0.8163057874015748
0
LINE
8
BLACK
6
CONTINUOUS
10
2.5235001181102361
20
0.8163057874015748
11
2.5240327952755903
21
0.8168384645669291
0
LINE
8
BLACK
6
CONTINUOUS
10
2.5240327952755903
20
0.8168384645669291
11
2.6755905511811022
21
0.8169133858267716
0
LINE
8
BLACK
6
CONTINUOUS
10
2.6755905511811022
20
0.8169133858267716
11
2.6759672047244094
21
0.8168384645669291
0
LINE
8
BLACK
6
CONTINUOUS
10
2.5253195275590552
20
0.8149453543307087
11
2.5253931889763779
21
0.682980905511811
0
LINE
8
BLACK
6
CONTINUOUS
10
2.5253931889763779
20
0.682980905511811
11
2.6746804330708662
21
0.6830546850393701
0
LINE
8
BLACK
6
CONTINUOUS
10
2.6746804330708662
20
0.6830546850393701
11
2.6746067716535431
21
0.8150191338582677
0
LINE
8
BLACK
6
CONTINUOUS
10
2.6746067716535431
20
0.8150191338582677
11
2.5253195275590552
21
0.8149453543307087
0
LINE
8
BLACK
6
CONTINUOUS
10
2.910140433070866
20
0.7840038188976378
11
2.9106731102362202
21
0.7834711417322835
0
LINE
8
BLACK
6
CONTINUOUS
10
2.9106731102362202
20
0.7834711417322835
11
2.910748031496063
21
0.6949055118110236
0
LINE
8
BLACK
6
CONTINUOUS
10
2.910748031496063
20
0.6949055118110236
11
2.9106731102362202
21
0.6945288582677165
0
LINE
8
BLACK
6
CONTINUOUS
10
2.9106731102362202
20
0.6945288582677165
11
2.910140433070866
21
0.6939961811023622
0
LINE
8
BLACK
6
CONTINUOUS
10
2.910140433070866
20
0.6939961811023622
11
2.7302362204724409
21
0.6939212598425196
0
LINE
8
BLACK
6
CONTINUOUS
10
2.7302362204724409
20
0.6939212598425196
11
2.7298595669291337
21
0.6939961811023622
0
LINE
8
BLACK
6
CONTINUOUS
10
2.7298595669291337
20
0.6939961811023622
11
2.7293268897637795
21
0.6945288582677165
0
LINE
8
BLACK
6
CONTINUOUS
10
2.7293268897637795
20
0.6945288582677165
11
2.7292519685039371
21
0.7830944881889763
0
LINE
8
BLACK
6
CONTINUOUS
10
2.7292519685039371
20
0.7830944881889763
11
2.7293268897637795
21
0.7834711417322835
0
LINE
8
BLACK
6
CONTINUOUS
10
2.7293268897637795
20
0.7834711417322835
11
2.7298595669291337
21
0.7840038188976378
0
LINE
8
BLACK
6
CONTINUOUS
10
2.7298595669291337
20
0.7840038188976378
11
2.9097637795275588
21
0.7840787401574802
0
LINE
8
BLACK
6
CONTINUOUS
10
2.9097637795275588
20
0.7840787401574802
11
2.910140433070866
21
0.7840038188976378
0
LINE
8
BLACK
6
CONTINUOUS
10
2.7311466929133856
20
0.7821106299212598
11
2.73121968503937
21
0.6958154330708661
0
LINE
8
BLACK
6
CONTINUOUS
10
2.73121968503937
20
0.6958154330708661
11
2.9088532677165353
21
0.6958894094488188
0
LINE
8
BLACK
6
CONTINUOUS
10
2.9088532677165353
20
0.6958894094488188
11
2.908780275590551
21
0.7821846062992126
0
LINE
8
BLACK
6
CONTINUOUS
10
2.908780275590551
20
0.7821846062992126
11
2.7311466929133856
21
0.7821106299212598
0
LINE
8
BLACK
6
CONTINUOUS
10
1.7093687795275589
20
0.812310905511811
11
1.7099014566929134
21
0.8117782283464566
0
LINE
8
BLACK
6
CONTINUOUS
10
1.7099014566929134
20
0.8117782283464566
11
1.7099763779527559
21
0.7365984251968504
0
LINE
8
BLACK
6
CONTINUOUS
10
1.7099763779527559
20
0.7365984251968504
11
1.7099014566929134
21
0.7362217716535433
0
LINE
8
BLACK
6
CONTINUOUS
10
1.7099014566929134
20
0.7362217716535433
11
1.7093687795275589
21
0.735689094488189
0
LINE
8
BLACK
6
CONTINUOUS
10
1.7093687795275589
20
0.735689094488189
11
1.5830078740157481
21
0.7356141732283464
0
LINE
8
BLACK
6
CONTINUOUS
10
1.5830078740157481
20
0.7356141732283464
11
1.5826312204724409
21
0.735689094488189
0
LINE
8
BLACK
6
CONTINUOUS
10
1.5826312204724409
20
0.735689094488189
11
1.5820985433070867
21
0.7362217716535433
0
LINE
8
BLACK
6
CONTINUOUS
10
1.5820985433070867
20
0.7362217716535433
11
1.5820236220472441
21
0.8114015748031496
0
LINE
8
BLACK
6
CONTINUOUS
10
1.5820236220472441
20
0.8114015748031496
11
1.5820985433070867
21
0.8117782283464566
0
LINE
8
BLACK
6
CONTINUOUS
10
1.5820985433070867
20
0.8117782283464566
11
1.5826312204724409
21
0.812310905511811
0
LINE
8
BLACK
6
CONTINUOUS
10
1.5826312204724409
20
0.812310905511811
11
1.708992125984252
21
0.8123858267716535
0
LINE
8
BLACK
6
CONTINUOUS
10
1.708992125984252
20
0.8123858267716535
11
1.7093687795275589
21
0.812310905511811
0
LINE
8
BLACK
6
CONTINUOUS
10
1.5839185433070866
20
0.8104178740157481
11
1.5839911811023621
21
0.7375085826771653
0
LINE
8
BLACK
6
CONTINUOUS
10
1.5839911811023621
20
0.7375085826771653
11
1.7080814173228347
21
0.7375821653543307
0
LINE
8
BLACK
6
CONTINUOUS
10
1.7080814173228347
20
0.7375821653543307
11
1.7080087795275589
21
0.8104914566929133
0
LINE
8
BLACK
6
CONTINUOUS
10
1.7080087795275589
20
0.8104914566929133
11
1.5839185433070866
21
0.8104178740157481
0
LINE
8
BLACK
6
CONTINUOUS
10
1.9839672047244095
20
1.043303031496063
11
1.9844998818897637
21
1.0427703543307087
0
LINE
8
BLACK
6
CONTINUOUS
10
1.9844998818897637
20
1.0427703543307087
11
1.9845748031496062
21
0.7416062992125985
0
LINE
8
BLACK
6
CONTINUOUS
10
1.9845748031496062
20
0.7416062992125985
11
1.9844998818897637
21
0.7412296456692913
0
LINE
8
BLACK
6
CONTINUOUS
10
1.9844998818897637
20
0.7412296456692913
11
1.9839672047244095
21
0.740696968503937
0
LINE
8
BLACK
6
CONTINUOUS
10
1.9839672047244095
20
0.740696968503937
11
1.8324094488188976
21
0.7406220472440944
0
LINE
8
BLACK
6
CONTINUOUS
10
1.8324094488188976
20
0.7406220472440944
11
1.8320327952755906
21
0.740696968503937
0
LINE
8
BLACK
6
CONTINUOUS
10
1.8320327952755906
20
0.740696968503937
11
1.8315001181102362
21
0.7412296456692913
0
LINE
8
BLACK
6
CONTINUOUS
10
1.8315001181102362
20
0.7412296456692913
11
1.8314251968503936
21
1.0423937007874016
0
LINE
8
BLACK
6
CONTINUOUS
10
1.8314251968503936
20
1.0423937007874016
11
1.8315001181102362
21
1.0427703543307087
0
LINE
8
BLACK
6
CONTINUOUS
10
1.8315001181102362
20
1.0427703543307087
11
1.8320327952755906
21
1.043303031496063
0
LINE
8
BLACK
6
CONTINUOUS
10
1.8320327952755906
20
1.043303031496063
11
1.9835905511811023
21
1.0433779527559055
0
LINE
8
BLACK
6
CONTINUOUS
10
1.9835905511811023
20
1.0433779527559055
11
1.9839672047244095
21
1.043303031496063
0
LINE
8
BLACK
6
CONTINUOUS
10
1.833319094488189
20
1.0414099212598424
11
1.8333934645669292
21
0.7425163385826772
0
LINE
8
BLACK
6
CONTINUOUS
10
1.8333934645669292
20
0.7425163385826772
11
1.9826808661417323
21
0.7425901181102362
0
LINE
8
BLACK
6
CONTINUOUS
10
1.9826808661417323
20
0.7425901181102362
11
1.9826064960629921
21
1.0414837007874016
0
LINE
8
BLACK
6
CONTINUOUS
10
1.9826064960629921
20
1.0414837007874016
11
1.833319094488189
21
1.0414099212598424
0
LINE
8
BLACK
6
CONTINUOUS
10
2.5077782283464565
20
0.896051062992126
11
2.5083109055118111
21
0.8955183858267717
0
LINE
8
BLACK
6
CONTINUOUS
10
2.5083109055118111
20
0.8955183858267717
11
2.5083858267716534
21
0.7628582677165354
0
LINE
8
BLACK
6
CONTINUOUS
10
2.5083858267716534
20
0.7628582677165354
11
2.5083109055118111
21
0.7624816141732284
0
LINE
8
BLACK
6
CONTINUOUS
10
2.5083109055118111
20
0.7624816141732284
11
2.5077782283464565
21
0.761948937007874
0
LINE
8
BLACK
6
CONTINUOUS
10
2.5077782283464565
20
0.761948937007874
11
2.4325984251968502
21
0.7618740157480315
0
LINE
8
BLACK
6
CONTINUOUS
10
2.4325984251968502
20
0.7618740157480315
11
2.432221771653543
21
0.761948937007874
0
LINE
8
BLACK
6
CONTINUOUS
10
2.432221771653543
20
0.761948937007874
11
2.4316890944881888
21
0.7624816141732284
0
LINE
8
BLACK
6
CONTINUOUS
10
2.4316890944881888
20
0.7624816141732284
11
2.4316141732283465
21
0.8951417322834645
0
LINE
8
BLACK
6
CONTINUOUS
10
2.4316141732283465
20
0.8951417322834645
11
2.4316890944881888
21
0.8955183858267717
0
LINE
8
BLACK
6
CONTINUOUS
10
2.4316890944881888
20
0.8955183858267717
11
2.432221771653543
21
0.896051062992126
0
LINE
8
BLACK
6
CONTINUOUS
10
2.432221771653543
20
0.896051062992126
11
2.5074015748031497
21
0.8961259842519684
0
LINE
8
BLACK
6
CONTINUOUS
10
2.5074015748031497
20
0.8961259842519684
11
2.5077782283464565
21
0.896051062992126
0
LINE
8
BLACK
6
CONTINUOUS
10
2.4335085039370079
20
0.8941584251968504
11
2.4335821259842518
21
0.7637689763779527
0
LINE
8
BLACK
6
CONTINUOUS
10
2.4335821259842518
20
0.7637689763779527
11
2.5064914566929133
21
0.7638416141732284
0
LINE
8
BLACK
6
CONTINUOUS
10
2.5064914566929133
20
0.7638416141732284
11
2.5064178346456694
21
0.894231062992126
0
LINE
8
BLACK
6
CONTINUOUS
10
2.5064178346456694
20
0.894231062992126
11
2.4335085039370079
21
0.8941584251968504
0
LINE
8
BLACK
6
CONTINUOUS
10
2.9714593307086612
20
0.9467361023622047
11
2.9719920078740159
21
0.9462034251968504
0
LINE
8
BLACK
6
CONTINUOUS
10
2.9719920078740159
20
0.9462034251968504
11
2.9720669291338582
21
0.8119685039370078
0
LINE
8
BLACK
6
CONTINUOUS
10
2.9720669291338582
20
0.8119685039370078
11
2.9719920078740159
21
0.8115918503937007
0
LINE
8
BLACK
6
CONTINUOUS
10
2.9719920078740159
20
0.8115918503937007
11
2.9714593307086612
21
0.8110591732283464
0
LINE
8
BLACK
6
CONTINUOUS
10
2.9714593307086612
20
0.8110591732283464
11
2.8939173228346458
21
0.8109842519685039
0
LINE
8
BLACK
6
CONTINUOUS
10
2.8939173228346458
20
0.8109842519685039
11
2.8935406692913386
21
0.8110591732283464
0
LINE
8
BLACK
6
CONTINUOUS
10
2.8935406692913386
20
0.8110591732283464
11
2.8930079921259844
21
0.8115918503937007
0
LINE
8
BLACK
6
CONTINUOUS
10
2.8930079921259844
20
0.8115918503937007
11
2.8930079921259844
21
0.8116141732283464
0
LINE
8
BLACK
6
CONTINUOUS
10
2.8930079921259844
20
0.8116141732283464
11
2.8929330708661416
21
0.9458267716535432
0
LINE
8
BLACK
6
CONTINUOUS
10
2.8929330708661416
20
0.9458267716535432
11
2.8930079921259844
21
0.9462034251968504
0
LINE
8
BLACK
6
CONTINUOUS
10
2.8930079921259844
20
0.9462034251968504
11
2.8935406692913386
21
0.9467361023622047
0
LINE
8
BLACK
6
CONTINUOUS
10
2.8935406692913386
20
0.9467361023622047
11
2.9710826771653545
21
0.9468110236220473
0
LINE
8
BLACK
6
CONTINUOUS
10
2.9710826771653545
20
0.9468110236220473
11
2.9714593307086612
21
0.9467361023622047
0
LINE
8
BLACK
6
CONTINUOUS
10
2.894827401574803
20
0.9448434251968504
11
2.8949010629921261
21
0.8128791732283465
0
LINE
8
BLACK
6
CONTINUOUS
10
2.8949010629921261
20
0.8128791732283465
11
2.970172559055118
21
0.8129518897637795
0
LINE
8
BLACK
6
CONTINUOUS
10
2.970172559055118
20
0.8129518897637795
11
2.9700988976377953
21
0.9449161417322834
0
LINE
8
BLACK
6
CONTINUOUS
10
2.9700988976377953
20
0.9449161417322834
11
2.894827401574803
21
0.9448434251968504
0
LINE
8
BLACK
6
CONTINUOUS
10
2.1265183858267718
20
0.888310905511811
11
2.127051062992126
21
0.8877782283464567
0
LINE
8
BLACK
6
CONTINUOUS
10
2.127051062992126
20
0.8877782283464567
11
2.1271259842519683
21
0.8125984251968503
0
LINE
8
BLACK
6
CONTINUOUS
10
2.1271259842519683
20
0.8125984251968503
11
2.127051062992126
21
0.8122217716535433
0
LINE
8
BLACK
6
CONTINUOUS
10
2.127051062992126
20
0.8122217716535433
11
2.1265183858267718
21
0.8116890944881889
0
LINE
8
BLACK
6
CONTINUOUS
10
2.1265183858267718
20
0.8116890944881889
11
1.9938582677165353
21
0.8116141732283464
0
LINE
8
BLACK
6
CONTINUOUS
10
1.9938582677165353
20
0.8116141732283464
11
1.9934816141732283
21
0.8116890944881889
0
LINE
8
BLACK
6
CONTINUOUS
10
1.9934816141732283
20
0.8116890944881889
11
1.9929489370078739
21
0.8122217716535433
0
LINE
8
BLACK
6
CONTINUOUS
10
1.9929489370078739
20
0.8122217716535433
11
1.9928740157480314
21
0.8874015748031496
0
LINE
8
BLACK
6
CONTINUOUS
10
1.9928740157480314
20
0.8874015748031496
11
1.9929489370078739
21
0.8877782283464567
0
LINE
8
BLACK
6
CONTINUOUS
10
1.9929489370078739
20
0.8877782283464567
11
1.9934816141732283
21
0.888310905511811
0
LINE
8
BLACK
6
CONTINUOUS
10
1.9934816141732283
20
0.888310905511811
11
2.1261417322834646
21
0.8883858267716536
0
LINE
8
BLACK
6
CONTINUOUS
10
2.1261417322834646
20
0.8883858267716536
11
2.1265183858267718
21
0.888310905511811
0
LINE
8
BLACK
6
CONTINUOUS
10
1.9947689370078741
20
0.886417874015748
11
1.9948415748031496
21
0.8135085433070866
0
LINE
8
BLACK
6
CONTINUOUS
10
1.9948415748031496
20
0.8135085433070866
11
2.1252310236220473
21
0.8135821653543307
0
LINE
8
BLACK
6
CONTINUOUS
10
2.1252310236220473
20
0.8135821653543307
11
2.1251583858267717
21
0.8864914960629922
0
LINE
8
BLACK
6
CONTINUOUS
10
2.1251583858267717
20
0.8864914960629922
11
1.9947689370078741
21
0.886417874015748
0
LINE
8
BLACK
6
CONTINUOUS
10
2.2139593307086614
20
0.9578384645669291
11
2.2144920078740156
21
0.9573057874015748
0
LINE
8
BLACK
6
CONTINUOUS
10
2.2144920078740156
20
0.9573057874015748
11
2.2145669291338583
21
0.8230708661417323
0
LINE
8
BLACK
6
CONTINUOUS
10
2.2145669291338583
20
0.8230708661417323
11
2.2144920078740156
21
0.8226942125984251
0
LINE
8
BLACK
6
CONTINUOUS
10
2.2144920078740156
20
0.8226942125984251
11
2.2139593307086614
21
0.8221615354330708
0
LINE
8
BLACK
6
CONTINUOUS
10
2.2139593307086614
20
0.8221615354330708
11
2.1364173228346455
21
0.8220866141732284
0
LINE
8
BLACK
6
CONTINUOUS
10
2.1364173228346455
20
0.8220866141732284
11
2.1360406692913387
21
0.8221615354330708
0
LINE
8
BLACK
6
CONTINUOUS
10
2.1360406692913387
20
0.8221615354330708
11
2.1355079921259841
21
0.8226942125984251
0
LINE
8
BLACK
6
CONTINUOUS
10
2.1355079921259841
20
0.8226942125984251
11
2.1354330708661418
21
0.9569291338582677
0
LINE
8
BLACK
6
CONTINUOUS
10
2.1354330708661418
20
0.9569291338582677
11
2.1355079921259841
21
0.9573057874015748
0
LINE
8
BLACK
6
CONTINUOUS
10
2.1355079921259841
20
0.9573057874015748
11
2.1360406692913387
21
0.9578384645669291
0
LINE
8
BLACK
6
CONTINUOUS
10
2.1360406692913387
20
0.9578384645669291
11
2.2135826771653542
21
0.9579133858267717
0
LINE
8
BLACK
6
CONTINUOUS
10
2.2135826771653542
20
0.9579133858267717
11
2.2139593307086614
21
0.9578384645669291
0
LINE
8
BLACK
6
CONTINUOUS
10
2.1373274015748032
20
0.9559457874015748
11
2.1374010629921258
21
0.8239815354330708
0
LINE
8
BLACK
6
CONTINUOUS
10
2.1374010629921258
20
0.8239815354330708
11
2.2126725590551182
21
0.8240542519685039
0
LINE
8
BLACK
6
CONTINUOUS
10
2.2126725590551182
20
0.8240542519685039
11
2.212598897637795
21
0.9560185039370078
0
LINE
8
BLACK
6
CONTINUOUS
10
2.212598897637795
20
0.9560185039370078
11
2.1373274015748032
21
0.9559457874015748
0
LINE
8
BLACK
6
CONTINUOUS
10
0.6045183858267716
20
0.9293109055118109
11
0.605051062992126
21
0.9287782283464566
0
LINE
8
BLACK
6
CONTINUOUS
10
0.605051062992126
20
0.9287782283464566
11
0.6051259842519685
21
0.8535984251968504
0
LINE
8
BLACK
6
CONTINUOUS
10
0.6051259842519685
20
0.8535984251968504
11
0.605051062992126
21
0.8532217716535433
0
LINE
8
BLACK
6
CONTINUOUS
10
0.605051062992126
20
0.8532217716535433
11
0.6045183858267716
21
0.852689094488189
0
LINE
8
BLACK
6
CONTINUOUS
10
0.6045183858267716
20
0.852689094488189
11
0.4718582677165354
21
0.8526141732283464
0
LINE
8
BLACK
6
CONTINUOUS
10
0.4718582677165354
20
0.8526141732283464
11
0.4714816141732283
21
0.852689094488189
0
LINE
8
BLACK
6
CONTINUOUS
10
0.4714816141732283
20
0.852689094488189
11
0.470948937007874
21
0.8532217716535433
0
LINE
8
BLACK
6
CONTINUOUS
10
0.470948937007874
20
0.8532217716535433
11
0.4708740157480315
21
0.9284015748031496
0
LINE
8
BLACK
6
CONTINUOUS
10
0.4708740157480315
20
0.9284015748031496
11
0.470948937007874
21
0.9287782283464566
0
LINE
8
BLACK
6
CONTINUOUS
10
0.470948937007874
20
0.9287782283464566
11
0.4714816141732283
21
0.9293109055118109
0
LINE
8
BLACK
6
CONTINUOUS
10
0.4714816141732283
20
0.9293109055118109
11
0.6041417322834646
21
0.9293858267716535
0
LINE
8
BLACK
6
CONTINUOUS
10
0.6041417322834646
20
0.9293858267716535
11
0.6045183858267716
21
0.9293109055118109
0
LINE
8
BLACK
6
CONTINUOUS
10
0.472768937007874
20
0.927417874015748
11
0.4728415748031496
21
0.8545085433070866
0
LINE
8
BLACK
6
CONTINUOUS
10
0.4728415748031496
20
0.8545085433070866
11
0.6032310236220473
21
0.8545821653543307
0
LINE
8
BLACK
6
CONTINUOUS
10
0.6032310236220473
20
0.8545821653543307
11
0.6031583858267716
21
0.9274914960629921
0
LINE
8
BLACK
6
CONTINUOUS
10
0.6031583858267716
20
0.9274914960629921
11
0.472768937007874
21
0.927417874015748
0
LINE
8
BLACK
6
CONTINUOUS
10
2.1265183858267718
20
0.973310905511811
11
2.127051062992126
21
0.9727782283464567
0
LINE
8
BLACK
6
CONTINUOUS
10
2.127051062992126
20
0.9727782283464567
11
2.1271259842519683
21
0.8975984251968504
0
LINE
8
BLACK
6
CONTINUOUS
10
2.1271259842519683
20
0.8975984251968504
11
2.127051062992126
21
0.8972217716535433
0
LINE
8
BLACK
6
CONTINUOUS
10
2.127051062992126
20
0.8972217716535433
11
2.1265183858267718
21
0.896689094488189
0
LINE
8
BLACK
6
CONTINUOUS
10
2.1265183858267718
20
0.896689094488189
11
1.9938582677165353
21
0.8966141732283465
0
LINE
8
BLACK
6
CONTINUOUS
10
1.9938582677165353
20
0.8966141732283465
11
1.9934816141732283
21
0.896689094488189
0
LINE
8
BLACK
6
CONTINUOUS
10
1.9934816141732283
20
0.896689094488189
11
1.9929489370078739
21
0.8972217716535433
0
LINE
8
BLACK
6
CONTINUOUS
10
1.9929489370078739
20
0.8972217716535433
11
1.9928740157480314
21
0.9724015748031496
0
LINE
8
BLACK
6
CONTINUOUS
10
1.9928740157480314
20
0.9724015748031496
11
1.9929489370078739
21
0.9727782283464567
0
LINE
8
BLACK
6
CONTINUOUS
10
1.9929489370078739
20
0.9727782283464567
11
1.9934816141732283
21
0.973310905511811
0
LINE
8
BLACK
6
CONTINUOUS
10
1.9934816141732283
20
0.973310905511811
11
2.1261417322834646
21
0.9733858267716535
0
LINE
8
BLACK
6
CONTINUOUS
10
2.1261417322834646
20
0.9733858267716535
11
2.1265183858267718
21
0.973310905511811
0
LINE
8
BLACK
6
CONTINUOUS
10
1.9947689370078741
20
0.971417874015748
11
1.9948415748031496
21
0.8985085433070866
0
LINE
8
BLACK
6
CONTINUOUS
10
1.9948415748031496
20
0.8985085433070866
11
2.1252310236220473
21
0.8985821653543307
0
LINE
8
BLACK
6
CONTINUOUS
10
2.1252310236220473
20
0.8985821653543307
11
2.1251583858267717
21
0.9714914960629921
0
LINE
8
BLACK
6
CONTINUOUS
10
2.1251583858267717
20
0.9714914960629921
11
1.9947689370078741
21
0.971417874015748
0
LINE
8
BLACK
6
CONTINUOUS
10
1.4323057874015748
20
0.9794920078740157
11
1.4328384645669292
21
0.9789593307086614
0
LINE
8
BLACK
6
CONTINUOUS
10
1.4328384645669292
20
0.9789593307086614
11
1.4329133858267715
21
0.9014173228346456
0
LINE
8
BLACK
6
CONTINUOUS
10
1.4329133858267715
20
0.9014173228346456
11
1.4328384645669292
21
0.9010406692913385
0
LINE
8
BLACK
6
CONTINUOUS
10
1.4328384645669292
20
0.9010406692913385
11
1.4323057874015748
21
0.9005079921259842
0
LINE
8
BLACK
6
CONTINUOUS
10
1.4323057874015748
20
0.9005079921259842
11
1.2980708661417322
21
0.9004330708661417
0
LINE
8
BLACK
6
CONTINUOUS
10
1.2980708661417322
20
0.9004330708661417
11
1.2976942125984252
21
0.9005079921259842
0
LINE
8
BLACK
6
CONTINUOUS
10
1.2976942125984252
20
0.9005079921259842
11
1.2971615354330708
21
0.9010406692913385
0
LINE
8
BLACK
6
CONTINUOUS
10
1.2971615354330708
20
0.9010406692913385
11
1.2970866141732282
21
0.9785826771653543
0
LINE
8
BLACK
6
CONTINUOUS
10
1.2970866141732282
20
0.9785826771653543
11
1.2971615354330708
21
0.9789593307086614
0
LINE
8
BLACK
6
CONTINUOUS
10
1.2971615354330708
20
0.9789593307086614
11
1.2976942125984252
21
0.9794920078740157
0
LINE
8
BLACK
6
CONTINUOUS
10
1.2976942125984252
20
0.9794920078740157
11
1.4319291338582676
21
0.9795669291338582
0
LINE
8
BLACK
6
CONTINUOUS
10
1.4319291338582676
20
0.9795669291338582
11
1.4323057874015748
21
0.9794920078740157
0
LINE
8
BLACK
6
CONTINUOUS
10
1.2989814960629922
20
0.977598937007874
11
1.2990542125984252
21
0.9023274409448818
0
LINE
8
BLACK
6
CONTINUOUS
10
1.2990542125984252
20
0.9023274409448818
11
1.431018464566929
21
0.9024011023622047
0
LINE
8
BLACK
6
CONTINUOUS
10
1.431018464566929
20
0.9024011023622047
11
1.430945748031496
21
0.9776725984251968
0
LINE
8
BLACK
6
CONTINUOUS
10
1.430945748031496
20
0.9776725984251968
11
1.2989814960629922
21
0.977598937007874
0
LINE
8
BLACK
6
CONTINUOUS
10
2.5117782283464565
20
1.066051062992126
11
2.5123109055118111
21
1.0655183858267716
0
LINE
8
BLACK
6
CONTINUOUS
10
2.5123109055118111
20
1.0655183858267716
11
2.5123858267716535
21
0.9328582677165355
0
LINE
8
BLACK
6
CONTINUOUS
10
2.5123858267716535
20
0.9328582677165355
11
2.5123109055118111
21
0.9324816141732283
0
LINE
8
BLACK
6
CONTINUOUS
10
2.5123109055118111
20
0.9324816141732283
11
2.5117782283464565
21
0.931948937007874
0
LINE
8
BLACK
6
CONTINUOUS
10
2.5117782283464565
20
0.931948937007874
11
2.4365984251968502
21
0.9318740157480315
0
LINE
8
BLACK
6
CONTINUOUS
10
2.4365984251968502
20
0.9318740157480315
11
2.436221771653543
21
0.931948937007874
0
LINE
8
BLACK
6
CONTINUOUS
10
2.436221771653543
20
0.931948937007874
11
2.4356890944881888
21
0.9324816141732283
0
LINE
8
BLACK
6
CONTINUOUS
10
2.4356890944881888
20
0.9324816141732283
11
2.4356141732283465
21
1.0651417322834646
0
LINE
8
BLACK
6
CONTINUOUS
10
2.4356141732283465
20
1.0651417322834646
11
2.4356890944881888
21
1.0655183858267716
0
LINE
8
BLACK
6
CONTINUOUS
10
2.4356890944881888
20
1.0655183858267716
11
2.436221771653543
21
1.066051062992126
0
LINE
8
BLACK
6
CONTINUOUS
10
2.436221771653543
20
1.066051062992126
11
2.5114015748031497
21
1.0661259842519686
0
LINE
8
BLACK
6
CONTINUOUS
10
2.5114015748031497
20
1.0661259842519686
11
2.5117782283464565
21
1.066051062992126
0
LINE
8
BLACK
6
CONTINUOUS
10
2.4375085039370079
20
1.0641584251968503
11
2.4375821259842518
21
0.9337689763779528
0
LINE
8
BLACK
6
CONTINUOUS
10
2.4375821259842518
20
0.9337689763779528
11
2.5104914566929133
21
0.9338416141732283
0
LINE
8
BLACK
6
CONTINUOUS
10
2.5104914566929133
20
0.9338416141732283
11
2.5104178346456694
21
1.0642310629921259
0
LINE
8
BLACK
6
CONTINUOUS
10
2.5104178346456694
20
1.0642310629921259
11
2.4375085039370079
21
1.0641584251968503
0
LINE
8
BLACK
6
CONTINUOUS
10
1.6864593307086613
20
1.1065274409448818
11
1.6869920078740157
21
1.1059947637795275
0
LINE
8
BLACK
6
CONTINUOUS
10
1.6869920078740157
20
1.1059947637795275
11
1.6870669291338583
21
0.9717598425196851
0
LINE
8
BLACK
6
CONTINUOUS
10
1.6870669291338583
20
0.9717598425196851
11
1.6869920078740157
21
0.9713831889763779
0
LINE
8
BLACK
6
CONTINUOUS
10
1.6869920078740157
20
0.9713831889763779
11
1.6864593307086613
21
0.9708505118110236
0
LINE
8
BLACK
6
CONTINUOUS
10
1.6864593307086613
20
0.9708505118110236
11
1.6089173228346456
21
0.9707755905511811
0
LINE
8
BLACK
6
CONTINUOUS
10
1.6089173228346456
20
0.9707755905511811
11
1.6085406692913387
21
0.9708505118110236
0
LINE
8
BLACK
6
CONTINUOUS
10
1.6085406692913387
20
0.9708505118110236
11
1.6080079921259842
21
0.9713831889763779
0
LINE
8
BLACK
6
CONTINUOUS
10
1.6080079921259842
20
0.9713831889763779
11
1.6080079921259842
21
0.9714173228346457
0
LINE
8
BLACK
6
CONTINUOUS
10
1.6080079921259842
20
0.9714173228346457
11
1.6079330708661417
21
1.1056181102362204
0
LINE
8
BLACK
6
CONTINUOUS
10
1.6079330708661417
20
1.1056181102362204
11
1.6080079921259842
21
1.1059947637795275
0
LINE
8
BLACK
6
CONTINUOUS
10
1.6080079921259842
20
1.1059947637795275
11
1.6085406692913387
21
1.1065274409448818
0
LINE
8
BLACK
6
CONTINUOUS
10
1.6085406692913387
20
1.1065274409448818
11
1.6860826771653543
21
1.1066023622047243
0
LINE
8
BLACK
6
CONTINUOUS
10
1.6860826771653543
20
1.1066023622047243
11
1.6864593307086613
21
1.1065274409448818
0
LINE
8
BLACK
6
CONTINUOUS
10
1.6098274015748031
20
1.1046347637795275
11
1.609901062992126
21
0.9726705118110236
0
LINE
8
BLACK
6
CONTINUOUS
10
1.609901062992126
20
0.9726705118110236
11
1.6851725590551181
21
0.9727432283464567
0
LINE
8
BLACK
6
CONTINUOUS
10
1.6851725590551181
20
0.9727432283464567
11
1.6850988976377952
21
1.1047074803149606
0
LINE
8
BLACK
6
CONTINUOUS
10
1.6850988976377952
20
1.1047074803149606
11
1.6098274015748031
21
1.1046347637795275
0
LINE
8
BLACK
6
CONTINUOUS
10
1.4323057874015748
20
1.0644920078740157
11
1.4328384645669292
21
1.0639593307086614
0
LINE
8
BLACK
6
CONTINUOUS
10
1.4328384645669292
20
1.0639593307086614
11
1.4329133858267715
21
0.9864173228346457
0
LINE
8
BLACK
6
CONTINUOUS
10
1.4329133858267715
20
0.9864173228346457
11
1.4328384645669292
21
0.9860406692913386
0
LINE
8
BLACK
6
CONTINUOUS
10
1.4328384645669292
20
0.9860406692913386
11
1.4323057874015748
21
0.9855079921259843
0
LINE
8
BLACK
6
CONTINUOUS
10
1.4323057874015748
20
0.9855079921259843
11
1.2980708661417322
21
0.9854330708661417
0
LINE
8
BLACK
6
CONTINUOUS
10
1.2980708661417322
20
0.9854330708661417
11
1.2976942125984252
21
0.9855079921259843
0
LINE
8
BLACK
6
CONTINUOUS
10
1.2976942125984252
20
0.9855079921259843
11
1.2971615354330708
21
0.9860406692913386
0
LINE
8
BLACK
6
CONTINUOUS
10
1.2971615354330708
20
0.9860406692913386
11
1.2970866141732282
21
1.0635826771653543
0
LINE
8
BLACK
6
CONTINUOUS
10
1.2970866141732282
20
1.0635826771653543
11
1.2971615354330708
21
1.0639593307086614
0
LINE
8
BLACK
6
CONTINUOUS
10
1.2971615354330708
20
1.0639593307086614
11
1.2976942125984252
21
1.0644920078740157
0
LINE
8
BLACK
6
CONTINUOUS
10
1.2976942125984252
20
1.0644920078740157
11
1.4319291338582676
21
1.0645669291338582
0
LINE
8
BLACK
6
CONTINUOUS
10
1.4319291338582676
20
1.0645669291338582
11
1.4323057874015748
21
1.0644920078740157
0
LINE
8
BLACK
6
CONTINUOUS
10
1.2989814960629922
20
1.0625989370078739
11
1.2990542125984252
21
0.9873274409448819
0
LINE
8
BLACK
6
CONTINUOUS
10
1.2990542125984252
20
0.9873274409448819
11
1.431018464566929
21
0.9874011023622047
0
LINE
8
BLACK
6
CONTINUOUS
10
1.431018464566929
20
0.9874011023622047
11
1.430945748031496
21
1.0626725984251968
0
LINE
8
BLACK
6
CONTINUOUS
10
1.430945748031496
20
1.0626725984251968
11
1.2989814960629922
21
1.0625989370078739
0
LINE
8
BLACK
6
CONTINUOUS
10
0.8659593307086614
20
1.1388384645669292
11
0.8664920078740157
21
1.1383057874015747
0
LINE
8
BLACK
6
CONTINUOUS
10
0.8664920078740157
20
1.1383057874015747
11
0.8665669291338582
21
1.0040708661417324
0
LINE
8
BLACK
6
CONTINUOUS
10
0.8665669291338582
20
1.0040708661417324
11
0.8664920078740157
21
1.0036942125984252
0
LINE
8
BLACK
6
CONTINUOUS
10
0.8664920078740157
20
1.0036942125984252
11
0.8659593307086614
21
1.0031615354330707
0
LINE
8
BLACK
6
CONTINUOUS
10
0.8659593307086614
20
1.0031615354330707
11
0.7884173228346456
21
1.0030866141732284
0
LINE
8
BLACK
6
CONTINUOUS
10
0.7884173228346456
20
1.0030866141732284
11
0.7880406692913385
21
1.0031615354330707
0
LINE
8
BLACK
6
CONTINUOUS
10
0.7880406692913385
20
1.0031615354330707
11
0.7875079921259842
21
1.0036942125984252
0
LINE
8
BLACK
6
CONTINUOUS
10
0.7875079921259842
20
1.0036942125984252
11
0.7874330708661417
21
1.1379291338582678
0
LINE
8
BLACK
6
CONTINUOUS
10
0.7874330708661417
20
1.1379291338582678
11
0.7875079921259842
21
1.1383057874015747
0
LINE
8
BLACK
6
CONTINUOUS
10
0.7875079921259842
20
1.1383057874015747
11
0.7880406692913385
21
1.1388384645669292
0
LINE
8
BLACK
6
CONTINUOUS
10
0.7880406692913385
20
1.1388384645669292
11
0.8655826771653543
21
1.1389133858267717
0
LINE
8
BLACK
6
CONTINUOUS
10
0.8655826771653543
20
1.1389133858267717
11
0.8659593307086614
21
1.1388384645669292
0
LINE
8
BLACK
6
CONTINUOUS
10
0.7893274015748031
20
1.1369457874015747
11
0.789401062992126
21
1.0049815354330709
0
LINE
8
BLACK
6
CONTINUOUS
10
0.789401062992126
20
1.0049815354330709
11
0.8646725590551181
21
1.005054251968504
0
LINE
8
BLACK
6
CONTINUOUS
10
0.8646725590551181
20
1.005054251968504
11
0.8645988976377953
21
1.1370185039370078
0
LINE
8
BLACK
6
CONTINUOUS
10
0.8645988976377953
20
1.1370185039370078
11
0.7893274015748031
21
1.1369457874015747
0
LINE
8
BLACK
6
CONTINUOUS
10
0.7779593307086614
20
1.1408384645669292
11
0.7784920078740157
21
1.1403057874015747
0
LINE
8
BLACK
6
CONTINUOUS
10
0.7784920078740157
20
1.1403057874015747
11
0.7785669291338583
21
1.0060708661417324
0
LINE
8
BLACK
6
CONTINUOUS
10
0.7785669291338583
20
1.0060708661417324
11
0.7784920078740157
21
1.0056942125984252
0
LINE
8
BLACK
6
CONTINUOUS
10
0.7784920078740157
20
1.0056942125984252
11
0.7779593307086614
21
1.0051615354330707
0
LINE
8
BLACK
6
CONTINUOUS
10
0.7779593307086614
20
1.0051615354330707
11
0.7004173228346456
21
1.0050866141732284
0
LINE
8
BLACK
6
CONTINUOUS
10
0.7004173228346456
20
1.0050866141732284
11
0.7000406692913386
21
1.0051615354330707
0
LINE
8
BLACK
6
CONTINUOUS
10
0.7000406692913386
20
1.0051615354330707
11
0.6995079921259842
21
1.0056942125984252
0
LINE
8
BLACK
6
CONTINUOUS
10
0.6995079921259842
20
1.0056942125984252
11
0.6994330708661417
21
1.1399291338582678
0
LINE
8
BLACK
6
CONTINUOUS
10
0.6994330708661417
20
1.1399291338582678
11
0.6995079921259842
21
1.1403057874015747
0
LINE
8
BLACK
6
CONTINUOUS
10
0.6995079921259842
20
1.1403057874015747
11
0.7000406692913386
21
1.1408384645669292
0
LINE
8
BLACK
6
CONTINUOUS
10
0.7000406692913386
20
1.1408384645669292
11
0.7775826771653543
21
1.1409133858267717
0
LINE
8
BLACK
6
CONTINUOUS
10
0.7775826771653543
20
1.1409133858267717
11
0.7779593307086614
21
1.1408384645669292
0
LINE
8
BLACK
6
CONTINUOUS
10
0.7013274015748031
20
1.1389457874015747
11
0.701401062992126
21
1.0069815354330709
0
LINE
8
BLACK
6
CONTINUOUS
10
0.701401062992126
20
1.0069815354330709
11
0.7766725590551181
21
1.007054251968504
0
LINE
8
BLACK
6
CONTINUOUS
10
0.7766725590551181
20
1.007054251968504
11
0.7765988976377952
21
1.1390185039370078
0
LINE
8
BLACK
6
CONTINUOUS
10
0.7765988976377952
20
1.1390185039370078
11
0.7013274015748031
21
1.1389457874015747
0
LINE
8
BLACK
6
CONTINUOUS
10
0.6909593307086614
20
1.1428384645669292
11
0.6914920078740158
21
1.1423057874015747
0
LINE
8
BLACK
6
CONTINUOUS
10
0.6914920078740158
20
1.1423057874015747
11
0.6915669291338582
21
1.0080708661417324
0
LINE
8
BLACK
6
CONTINUOUS
10
0.6915669291338582
20
1.0080708661417324
11
0.6914920078740158
21
1.0076942125984252
0
LINE
8
BLACK
6
CONTINUOUS
10
0.6914920078740158
20
1.0076942125984252
11
0.6909593307086614
21
1.0071615354330707
0
LINE
8
BLACK
6
CONTINUOUS
10
0.6909593307086614
20
1.0071615354330707
11
0.6134173228346457
21
1.0070866141732284
0
LINE
8
BLACK
6
CONTINUOUS
10
0.6134173228346457
20
1.0070866141732284
11
0.6130406692913386
21
1.0071615354330707
0
LINE
8
BLACK
6
CONTINUOUS
10
0.6130406692913386
20
1.0071615354330707
11
0.6125079921259843
21
1.0076942125984252
0
LINE
8
BLACK
6
CONTINUOUS
10
0.6125079921259843
20
1.0076942125984252
11
0.6124330708661417
21
1.1419291338582678
0
LINE
8
BLACK
6
CONTINUOUS
10
0.6124330708661417
20
1.1419291338582678
11
0.6125079921259843
21
1.1423057874015747
0
LINE
8
BLACK
6
CONTINUOUS
10
0.6125079921259843
20
1.1423057874015747
11
0.6130406692913386
21
1.1428384645669292
0
LINE
8
BLACK
6
CONTINUOUS
10
0.6130406692913386
20
1.1428384645669292
11
0.6905826771653543
21
1.1429133858267717
0
LINE
8
BLACK
6
CONTINUOUS
10
0.6905826771653543
20
1.1429133858267717
11
0.6909593307086614
21
1.1428384645669292
0
LINE
8
BLACK
6
CONTINUOUS
10
0.6143274015748031
20
1.1409457874015747
11
0.6144010629921259
21
1.0089815354330709
0
LINE
8
BLACK
6
CONTINUOUS
10
0.6144010629921259
20
1.0089815354330709
11
0.689672559055118
21
1.009054251968504
0
LINE
8
BLACK
6
CONTINUOUS
10
0.689672559055118
20
1.009054251968504
11
0.6895988976377952
21
1.1410185039370078
0
LINE
8
BLACK
6
CONTINUOUS
10
0.6895988976377952
20
1.1410185039370078
11
0.6143274015748031
21
1.1409457874015747
0
LINE
8
BLACK
6
CONTINUOUS
10
3.6829593307086612
20
1.2988385039370078
11
3.6834920078740159
21
1.2983058267716534
0
LINE
8
BLACK
6
CONTINUOUS
10
3.6834920078740159
20
1.2983058267716534
11
3.6835669291338582
21
1.164070905511811
0
LINE
8
BLACK
6
CONTINUOUS
10
3.6835669291338582
20
1.164070905511811
11
3.6834945669291339
21
1.1637071653543307
0
LINE
8
BLACK
6
CONTINUOUS
10
3.6834945669291339
20
1.1637071653543307
11
3.6835669291338582
21
1.0340708661417322
0
LINE
8
BLACK
6
CONTINUOUS
10
3.6835669291338582
20
1.0340708661417322
11
3.6834920078740159
21
1.0336942125984252
0
LINE
8
BLACK
6
CONTINUOUS
10
3.6834920078740159
20
1.0336942125984252
11
3.6829593307086612
21
1.0331615354330708
0
LINE
8
BLACK
6
CONTINUOUS
10
3.6829593307086612
20
1.0331615354330708
11
3.6054173228346458
21
1.0330866141732282
0
LINE
8
BLACK
6
CONTINUOUS
10
3.6054173228346458
20
1.0330866141732282
11
3.6050406692913386
21
1.0331615354330708
0
LINE
8
BLACK
6
CONTINUOUS
10
3.6050406692913386
20
1.0331615354330708
11
3.6045079921259844
21
1.0336942125984252
0
LINE
8
BLACK
6
CONTINUOUS
10
3.6045079921259844
20
1.0336942125984252
11
3.6044330708661416
21
1.1679291338582678
0
LINE
8
BLACK
6
CONTINUOUS
10
3.6044330708661416
20
1.1679291338582678
11
3.6045053937007872
21
1.1682929133858266
0
LINE
8
BLACK
6
CONTINUOUS
10
3.6045053937007872
20
1.1682929133858266
11
3.6044330708661416
21
1.2979291732283464
0
LINE
8
BLACK
6
CONTINUOUS
10
3.6044330708661416
20
1.2979291732283464
11
3.6045079921259844
21
1.2983058267716534
0
LINE
8
BLACK
6
CONTINUOUS
10
3.6045079921259844
20
1.2983058267716534
11
3.6050406692913386
21
1.2988385039370078
0
LINE
8
BLACK
6
CONTINUOUS
10
3.6050406692913386
20
1.2988385039370078
11
3.682582677165354
21
1.2989134251968504
0
LINE
8
BLACK
6
CONTINUOUS
10
3.682582677165354
20
1.2989134251968504
11
3.6829593307086612
21
1.2988385039370078
0
LINE
8
BLACK
6
CONTINUOUS
10
3.6063295275590552
20
1.1630875590551182
11
3.6064010629921257
21
1.0349815354330709
0
LINE
8
BLACK
6
CONTINUOUS
10
3.6064010629921257
20
1.0349815354330709
11
3.681672559055118
21
1.035054251968504
0
LINE
8
BLACK
6
CONTINUOUS
10
3.681672559055118
20
1.035054251968504
11
3.6816010629921259
21
1.1631602755905512
0
LINE
8
BLACK
6
CONTINUOUS
10
3.6816010629921259
20
1.1631602755905512
11
3.6063295275590552
21
1.1630875590551182
0
LINE
8
BLACK
6
CONTINUOUS
10
3.6063999606299211
20
1.1669458661417322
11
3.6064010629921257
21
1.1649815748031496
0
LINE
8
BLACK
6
CONTINUOUS
10
3.6064010629921257
20
1.1649815748031496
11
3.6816
21
1.1650542125984251
0
LINE
8
BLACK
6
CONTINUOUS
10
3.6816
20
1.1650542125984251
11
3.6815988976377954
21
1.1670185039370078
0
LINE
8
BLACK
6
CONTINUOUS
10
3.6815988976377954
20
1.1670185039370078
11
3.6063999606299211
21
1.1669458661417322
0
LINE
8
BLACK
6
CONTINUOUS
10
3.606327401574803
20
1.2969458267716536
11
3.6063988976377952
21
1.1688398031496063
0
LINE
8
BLACK
6
CONTINUOUS
10
3.6063988976377952
20
1.1688398031496063
11
3.6816704330708663
21
1.1689125196850394
0
LINE
8
BLACK
6
CONTINUOUS
10
3.6816704330708663
20
1.1689125196850394
11
3.6815988976377954
21
1.2970185433070867
0
LINE
8
BLACK
6
CONTINUOUS
10
3.6815988976377954
20
1.2970185433070867
11
3.606327401574803
21
1.2969458267716536
0
LINE
8
BLACK
6
CONTINUOUS
10
1.1023057874015747
20
1.1144920078740157
11
1.1028384645669291
21
1.1139593307086615
0
LINE
8
BLACK
6
CONTINUOUS
10
1.1028384645669291
20
1.1139593307086615
11
1.1029133858267717
21
1.0364173228346456
0
LINE
8
BLACK
6
CONTINUOUS
10
1.1029133858267717
20
1.0364173228346456
11
1.1028384645669291
21
1.0360406692913386
0
LINE
8
BLACK
6
CONTINUOUS
10
1.1028384645669291
20
1.0360406692913386
11
1.1023057874015747
21
1.0355079921259842
0
LINE
8
BLACK
6
CONTINUOUS
10
1.1023057874015747
20
1.0355079921259842
11
0.9680708661417322
21
1.0354330708661417
0
LINE
8
BLACK
6
CONTINUOUS
10
0.9680708661417322
20
1.0354330708661417
11
0.9676942125984251
21
1.0355079921259842
0
LINE
8
BLACK
6
CONTINUOUS
10
0.9676942125984251
20
1.0355079921259842
11
0.9671615354330708
21
1.0360406692913386
0
LINE
8
BLACK
6
CONTINUOUS
10
0.9671615354330708
20
1.0360406692913386
11
0.9670866141732283
21
1.1135826771653543
0
LINE
8
BLACK
6
CONTINUOUS
10
0.9670866141732283
20
1.1135826771653543
11
0.9671615354330708
21
1.1139593307086615
0
LINE
8
BLACK
6
CONTINUOUS
10
0.9671615354330708
20
1.1139593307086615
11
0.9676942125984251
21
1.1144920078740157
0
LINE
8
BLACK
6
CONTINUOUS
10
0.9676942125984251
20
1.1144920078740157
11
1.1019291338582677
21
1.1145669291338582
0
LINE
8
BLACK
6
CONTINUOUS
10
1.1019291338582677
20
1.1145669291338582
11
1.1023057874015747
21
1.1144920078740157
0
LINE
8
BLACK
6
CONTINUOUS
10
0.9689814960629921
20
1.1125989370078739
11
0.9690542125984252
21
1.0373274409448818
0
LINE
8
BLACK
6
CONTINUOUS
10
0.9690542125984252
20
1.0373274409448818
11
1.1010184645669292
21
1.0374011023622047
0
LINE
8
BLACK
6
CONTINUOUS
10
1.1010184645669292
20
1.0374011023622047
11
1.1009457480314961
21
1.1126725984251968
0
LINE
8
BLACK
6
CONTINUOUS
10
1.1009457480314961
20
1.1126725984251968
11
0.9689814960629921
21
1.1125989370078739
0
LINE
8
BLACK
6
CONTINUOUS
10
1.2423057874015748
20
1.1144920078740157
11
1.242838464566929
21
1.1139593307086615
0
LINE
8
BLACK
6
CONTINUOUS
10
1.242838464566929
20
1.1139593307086615
11
1.2429133858267716
21
1.0364173228346456
0
LINE
8
BLACK
6
CONTINUOUS
10
1.2429133858267716
20
1.0364173228346456
11
1.242838464566929
21
1.0360406692913386
0
LINE
8
BLACK
6
CONTINUOUS
10
1.242838464566929
20
1.0360406692913386
11
1.2423057874015748
21
1.0355079921259842
0
LINE
8
BLACK
6
CONTINUOUS
10
1.2423057874015748
20
1.0355079921259842
11
1.1080708661417322
21
1.0354330708661417
0
LINE
8
BLACK
6
CONTINUOUS
10
1.1080708661417322
20
1.0354330708661417
11
1.1076942125984253
21
1.0355079921259842
0
LINE
8
BLACK
6
CONTINUOUS
10
1.1076942125984253
20
1.0355079921259842
11
1.1071615354330708
21
1.0360406692913386
0
LINE
8
BLACK
6
CONTINUOUS
10
1.1071615354330708
20
1.0360406692913386
11
1.1070866141732283
21
1.1135826771653543
0
LINE
8
BLACK
6
CONTINUOUS
10
1.1070866141732283
20
1.1135826771653543
11
1.1071615354330708
21
1.1139593307086615
0
LINE
8
BLACK
6
CONTINUOUS
10
1.1071615354330708
20
1.1139593307086615
11
1.1076942125984253
21
1.1144920078740157
0
LINE
8
BLACK
6
CONTINUOUS
10
1.1076942125984253
20
1.1144920078740157
11
1.2419291338582676
21
1.1145669291338582
0
LINE
8
BLACK
6
CONTINUOUS
10
1.2419291338582676
20
1.1145669291338582
11
1.2423057874015748
21
1.1144920078740157
0
LINE
8
BLACK
6
CONTINUOUS
10
1.108981496062992
20
1.1125989370078739
11
1.1090542125984251
21
1.0373274409448818
0
LINE
8
BLACK
6
CONTINUOUS
10
1.1090542125984251
20
1.0373274409448818
11
1.2410184645669291
21
1.0374011023622047
0
LINE
8
BLACK
6
CONTINUOUS
10
1.2410184645669291
20
1.0374011023622047
11
1.240945748031496
21
1.1126725984251968
0
LINE
8
BLACK
6
CONTINUOUS
10
1.240945748031496
20
1.1126725984251968
11
1.108981496062992
21
1.1125989370078739
0
LINE
8
BLACK
6
CONTINUOUS
10
2.7848057874015746
20
1.1183896456692912
11
2.7853384645669292
21
1.117856968503937
0
LINE
8
BLACK
6
CONTINUOUS
10
2.7853384645669292
20
1.117856968503937
11
2.7854133858267716
21
1.0403149606299211
0
LINE
8
BLACK
6
CONTINUOUS
10
2.7854133858267716
20
1.0403149606299211
11
2.7853384645669292
21
1.0399383070866142
0
LINE
8
BLACK
6
CONTINUOUS
10
2.7853384645669292
20
1.0399383070866142
11
2.7848057874015746
21
1.0394056299212597
0
LINE
8
BLACK
6
CONTINUOUS
10
2.7848057874015746
20
1.0394056299212597
11
2.6505708661417322
21
1.0393307086614172
0
LINE
8
BLACK
6
CONTINUOUS
10
2.6505708661417322
20
1.0393307086614172
11
2.650194212598425
21
1.0394056299212597
0
LINE
8
BLACK
6
CONTINUOUS
10
2.650194212598425
20
1.0394056299212597
11
2.6496615354330708
21
1.0399383070866142
0
LINE
8
BLACK
6
CONTINUOUS
10
2.6496615354330708
20
1.0399383070866142
11
2.6495866141732285
21
1.1174803149606298
0
LINE
8
BLACK
6
CONTINUOUS
10
2.6495866141732285
20
1.1174803149606298
11
2.6496615354330708
21
1.117856968503937
0
LINE
8
BLACK
6
CONTINUOUS
10
2.6496615354330708
20
1.117856968503937
11
2.650194212598425
21
1.1183896456692912
0
LINE
8
BLACK
6
CONTINUOUS
10
2.650194212598425
20
1.1183896456692912
11
2.7844291338582678
21
1.1184645669291338
0
LINE
8
BLACK
6
CONTINUOUS
10
2.7844291338582678
20
1.1184645669291338
11
2.7848057874015746
21
1.1183896456692912
0
LINE
8
BLACK
6
CONTINUOUS
10
2.651481496062992
20
1.1164965748031497
11
2.6515542125984251
21
1.0412250787401574
0
LINE
8
BLACK
6
CONTINUOUS
10
2.6515542125984251
20
1.0412250787401574
11
2.7835184645669289
21
1.0412987401574803
0
LINE
8
BLACK
6
CONTINUOUS
10
2.7835184645669289
20
1.0412987401574803
11
2.7834457480314958
21
1.1165702362204724
0
LINE
8
BLACK
6
CONTINUOUS
10
2.7834457480314958
20
1.1165702362204724
11
2.651481496062992
21
1.1164965748031497
0
LINE
8
BLACK
6
CONTINUOUS
10
1.4323057874015748
20
1.1494920078740156
11
1.4328384645669292
21
1.1489593307086614
0
LINE
8
BLACK
6
CONTINUOUS
10
1.4328384645669292
20
1.1489593307086614
11
1.4329133858267715
21
1.0714173228346457
0
LINE
8
BLACK
6
CONTINUOUS
10
1.4329133858267715
20
1.0714173228346457
11
1.4328384645669292
21
1.0710406692913386
0
LINE
8
BLACK
6
CONTINUOUS
10
1.4328384645669292
20
1.0710406692913386
11
1.4323057874015748
21
1.0705079921259841
0
LINE
8
BLACK
6
CONTINUOUS
10
1.4323057874015748
20
1.0705079921259841
11
1.2980708661417322
21
1.0704330708661418
0
LINE
8
BLACK
6
CONTINUOUS
10
1.2980708661417322
20
1.0704330708661418
11
1.2976942125984252
21
1.0705079921259841
0
LINE
8
BLACK
6
CONTINUOUS
10
1.2976942125984252
20
1.0705079921259841
11
1.2971615354330708
21
1.0710406692913386
0
LINE
8
BLACK
6
CONTINUOUS
10
1.2971615354330708
20
1.0710406692913386
11
1.2970866141732282
21
1.1485826771653542
0
LINE
8
BLACK
6
CONTINUOUS
10
1.2970866141732282
20
1.1485826771653542
11
1.2971615354330708
21
1.1489593307086614
0
LINE
8
BLACK
6
CONTINUOUS
10
1.2971615354330708
20
1.1489593307086614
11
1.2976942125984252
21
1.1494920078740156
0
LINE
8
BLACK
6
CONTINUOUS
10
1.2976942125984252
20
1.1494920078740156
11
1.4319291338582676
21
1.1495669291338582
0
LINE
8
BLACK
6
CONTINUOUS
10
1.4319291338582676
20
1.1495669291338582
11
1.4323057874015748
21
1.1494920078740156
0
LINE
8
BLACK
6
CONTINUOUS
10
1.2989814960629922
20
1.1475989370078741
11
1.2990542125984252
21
1.072327440944882
0
LINE
8
BLACK
6
CONTINUOUS
10
1.2990542125984252
20
1.072327440944882
11
1.431018464566929
21
1.0724011023622047
0
LINE
8
BLACK
6
CONTINUOUS
10
1.431018464566929
20
1.0724011023622047
11
1.430945748031496
21
1.1476725984251968
0
LINE
8
BLACK
6
CONTINUOUS
10
1.430945748031496
20
1.1476725984251968
11
1.2989814960629922
21
1.1475989370078741
0
LINE
8
BLACK
6
CONTINUOUS
10
2.5352388582677166
20
1.2821691732283464
11
2.5357715354330708
21
1.281636496062992
0
LINE
8
BLACK
6
CONTINUOUS
10
2.5357715354330708
20
1.281636496062992
11
2.5358464566929135
21
1.0765354330708661
0
LINE
8
BLACK
6
CONTINUOUS
10
2.5358464566929135
20
1.0765354330708661
11
2.5357715354330708
21
1.0761587795275591
0
LINE
8
BLACK
6
CONTINUOUS
10
2.5357715354330708
20
1.0761587795275591
11
2.5352388582677166
21
1.0756261023622047
0
LINE
8
BLACK
6
CONTINUOUS
10
2.5352388582677166
20
1.0756261023622047
11
2.3301377952755904
21
1.0755511811023621
0
LINE
8
BLACK
6
CONTINUOUS
10
2.3301377952755904
20
1.0755511811023621
11
2.3297611417322832
21
1.0756261023622047
0
LINE
8
BLACK
6
CONTINUOUS
10
2.3297611417322832
20
1.0756261023622047
11
2.329228464566929
21
1.0761587795275591
0
LINE
8
BLACK
6
CONTINUOUS
10
2.329228464566929
20
1.0761587795275591
11
2.3291535433070867
21
1.2812598425196851
0
LINE
8
BLACK
6
CONTINUOUS
10
2.3291535433070867
20
1.2812598425196851
11
2.329228464566929
21
1.281636496062992
0
LINE
8
BLACK
6
CONTINUOUS
10
2.329228464566929
20
1.281636496062992
11
2.3297611417322832
21
1.2821691732283464
0
LINE
8
BLACK
6
CONTINUOUS
10
2.3297611417322832
20
1.2821691732283464
11
2.5348622047244094
21
1.282244094488189
0
LINE
8
BLACK
6
CONTINUOUS
10
2.5348622047244094
20
1.282244094488189
11
2.5352388582677166
21
1.2821691732283464
0
LINE
8
BLACK
6
CONTINUOUS
10
2.3310475984251968
20
1.2802759448818897
11
2.3311216929133858
21
1.0774452755905513
0
LINE
8
BLACK
6
CONTINUOUS
10
2.3311216929133858
20
1.0774452755905513
11
2.5339523622047242
21
1.0775193700787402
0
LINE
8
BLACK
6
CONTINUOUS
10
2.5339523622047242
20
1.0775193700787402
11
2.5338782677165352
21
1.2803500393700786
0
LINE
8
BLACK
6
CONTINUOUS
10
2.5338782677165352
20
1.2803500393700786
11
2.3310475984251968
21
1.2802759448818897
0
LINE
8
BLACK
6
CONTINUOUS
10
2.1829593307086612
20
1.2158384645669291
11
2.1834920078740159
21
1.2153057874015747
0
LINE
8
BLACK
6
CONTINUOUS
10
2.1834920078740159
20
1.2153057874015747
11
2.1835669291338582
21
1.0810708661417323
0
LINE
8
BLACK
6
CONTINUOUS
10
2.1835669291338582
20
1.0810708661417323
11
2.1834920078740159
21
1.0806942125984251
0
LINE
8
BLACK
6
CONTINUOUS
10
2.1834920078740159
20
1.0806942125984251
11
2.1829593307086612
21
1.0801615354330709
0
LINE
8
BLACK
6
CONTINUOUS
10
2.1829593307086612
20
1.0801615354330709
11
2.1054173228346458
21
1.0800866141732284
0
LINE
8
BLACK
6
CONTINUOUS
10
2.1054173228346458
20
1.0800866141732284
11
2.1050406692913386
21
1.0801615354330709
0
LINE
8
BLACK
6
CONTINUOUS
10
2.1050406692913386
20
1.0801615354330709
11
2.1045079921259844
21
1.0806942125984251
0
LINE
8
BLACK
6
CONTINUOUS
10
2.1045079921259844
20
1.0806942125984251
11
2.1044330708661416
21
1.2149291338582677
0
LINE
8
BLACK
6
CONTINUOUS
10
2.1044330708661416
20
1.2149291338582677
11
2.1045079921259844
21
1.2153057874015747
0
LINE
8
BLACK
6
CONTINUOUS
10
2.1045079921259844
20
1.2153057874015747
11
2.1050406692913386
21
1.2158384645669291
0
LINE
8
BLACK
6
CONTINUOUS
10
2.1050406692913386
20
1.2158384645669291
11
2.1825826771653545
21
1.2159133858267717
0
LINE
8
BLACK
6
CONTINUOUS
10
2.1825826771653545
20
1.2159133858267717
11
2.1829593307086612
21
1.2158384645669291
0
LINE
8
BLACK
6
CONTINUOUS
10
2.106327401574803
20
1.2139457874015749
11
2.1064010629921261
21
1.0819815354330709
0
LINE
8
BLACK
6
CONTINUOUS
10
2.1064010629921261
20
1.0819815354330709
11
2.181672559055118
21
1.0820542519685039
0
LINE
8
BLACK
6
CONTINUOUS
10
2.181672559055118
20
1.0820542519685039
11
2.1815988976377954
21
1.2140185039370079
0
LINE
8
BLACK
6
CONTINUOUS
10
2.1815988976377954
20
1.2140185039370079
11
2.106327401574803
21
1.2139457874015749
0
LINE
8
BLACK
6
CONTINUOUS
10
2.2729593307086615
20
1.2158384645669291
11
2.2734920078740157
21
1.2153057874015747
0
LINE
8
BLACK
6
CONTINUOUS
10
2.2734920078740157
20
1.2153057874015747
11
2.273566929133858
21
1.0810708661417323
0
LINE
8
BLACK
6
CONTINUOUS
10
2.273566929133858
20
1.0810708661417323
11
2.2734920078740157
21
1.0806942125984251
0
LINE
8
BLACK
6
CONTINUOUS
10
2.2734920078740157
20
1.0806942125984251
11
2.2729593307086615
21
1.0801615354330709
0
LINE
8
BLACK
6
CONTINUOUS
10
2.2729593307086615
20
1.0801615354330709
11
2.1954173228346456
21
1.0800866141732284
0
LINE
8
BLACK
6
CONTINUOUS
10
2.1954173228346456
20
1.0800866141732284
11
2.1950406692913385
21
1.0801615354330709
0
LINE
8
BLACK
6
CONTINUOUS
10
2.1950406692913385
20
1.0801615354330709
11
2.1945079921259842
21
1.0806942125984251
0
LINE
8
BLACK
6
CONTINUOUS
10
2.1945079921259842
20
1.0806942125984251
11
2.1944330708661415
21
1.2149291338582677
0
LINE
8
BLACK
6
CONTINUOUS
10
2.1944330708661415
20
1.2149291338582677
11
2.1945079921259842
21
1.2153057874015747
0
LINE
8
BLACK
6
CONTINUOUS
10
2.1945079921259842
20
1.2153057874015747
11
2.1950406692913385
21
1.2158384645669291
0
LINE
8
BLACK
6
CONTINUOUS
10
2.1950406692913385
20
1.2158384645669291
11
2.2725826771653543
21
1.2159133858267717
0
LINE
8
BLACK
6
CONTINUOUS
10
2.2725826771653543
20
1.2159133858267717
11
2.2729593307086615
21
1.2158384645669291
0
LINE
8
BLACK
6
CONTINUOUS
10
2.1963274015748029
20
1.2139457874015749
11
2.196401062992126
21
1.0819815354330709
0
LINE
8
BLACK
6
CONTINUOUS
10
2.196401062992126
20
1.0819815354330709
11
2.2716725590551179
21
1.0820542519685039
0
LINE
8
BLACK
6
CONTINUOUS
10
2.2716725590551179
20
1.0820542519685039
11
2.2715988976377952
21
1.2140185039370079
0
LINE
8
BLACK
6
CONTINUOUS
10
2.2715988976377952
20
1.2140185039370079
11
2.1963274015748029
21
1.2139457874015749
0
LINE
8
BLACK
6
CONTINUOUS
10
0.6833057874015748
20
1.2314920078740157
11
0.6838384645669291
21
1.2309593307086615
0
LINE
8
BLACK
6
CONTINUOUS
10
0.6838384645669291
20
1.2309593307086615
11
0.6839133858267716
21
1.1534173228346456
0
LINE
8
BLACK
6
CONTINUOUS
10
0.6839133858267716
20
1.1534173228346456
11
0.6838384645669291
21
1.1530406692913386
0
LINE
8
BLACK
6
CONTINUOUS
10
0.6838384645669291
20
1.1530406692913386
11
0.6833057874015748
21
1.1525079921259842
0
LINE
8
BLACK
6
CONTINUOUS
10
0.6833057874015748
20
1.1525079921259842
11
0.5490708661417323
21
1.1524330708661417
0
LINE
8
BLACK
6
CONTINUOUS
10
0.5490708661417323
20
1.1524330708661417
11
0.5486942125984252
21
1.1525079921259842
0
LINE
8
BLACK
6
CONTINUOUS
10
0.5486942125984252
20
1.1525079921259842
11
0.5481615354330709
21
1.1530406692913386
0
LINE
8
BLACK
6
CONTINUOUS
10
0.5481615354330709
20
1.1530406692913386
11
0.5480866141732283
21
1.2305826771653543
0
LINE
8
BLACK
6
CONTINUOUS
10
0.5480866141732283
20
1.2305826771653543
11
0.5481615354330709
21
1.2309593307086615
0
LINE
8
BLACK
6
CONTINUOUS
10
0.5481615354330709
20
1.2309593307086615
11
0.5486942125984252
21
1.2314920078740157
0
LINE
8
BLACK
6
CONTINUOUS
10
0.5486942125984252
20
1.2314920078740157
11
0.6829291338582677
21
1.2315669291338582
0
LINE
8
BLACK
6
CONTINUOUS
10
0.6829291338582677
20
1.2315669291338582
11
0.6833057874015748
21
1.2314920078740157
0
LINE
8
BLACK
6
CONTINUOUS
10
0.5499814960629921
20
1.2295989370078739
11
0.5500542125984251
21
1.1543274409448818
0
LINE
8
BLACK
6
CONTINUOUS
10
0.5500542125984251
20
1.1543274409448818
11
0.6820184645669292
21
1.1544011023622047
0
LINE
8
BLACK
6
CONTINUOUS
10
0.6820184645669292
20
1.1544011023622047
11
0.6819457480314961
21
1.2296725984251968
0
LINE
8
BLACK
6
CONTINUOUS
10
0.6819457480314961
20
1.2296725984251968
11
0.5499814960629921
21
1.2295989370078739
0
LINE
8
BLACK
6
CONTINUOUS
10
1.3541168110236219
20
1.2741770472440945
11
1.3546494881889763
21
1.2736443700787401
0
LINE
8
BLACK
6
CONTINUOUS
10
1.3546494881889763
20
1.2736443700787401
11
1.3547244094488189
21
1.1567322834645668
0
LINE
8
BLACK
6
CONTINUOUS
10
1.3547244094488189
20
1.1567322834645668
11
1.3546494881889763
21
1.1563556299212598
0
LINE
8
BLACK
6
CONTINUOUS
10
1.3546494881889763
20
1.1563556299212598
11
1.3541168110236219
21
1.1558229527559054
0
LINE
8
BLACK
6
CONTINUOUS
10
1.3541168110236219
20
1.1558229527559054
11
1.296259842519685
21
1.1557480314960629
0
LINE
8
BLACK
6
CONTINUOUS
10
1.296259842519685
20
1.1557480314960629
11
1.295883188976378
21
1.1558229527559054
0
LINE
8
BLACK
6
CONTINUOUS
10
1.295883188976378
20
1.1558229527559054
11
1.2953505118110236
21
1.1563556299212598
0
LINE
8
BLACK
6
CONTINUOUS
10
1.2953505118110236
20
1.1563556299212598
11
1.295275590551181
21
1.2732677165354331
0
LINE
8
BLACK
6
CONTINUOUS
10
1.295275590551181
20
1.2732677165354331
11
1.2953505118110236
21
1.2736443700787401
0
LINE
8
BLACK
6
CONTINUOUS
10
1.2953505118110236
20
1.2736443700787401
11
1.295883188976378
21
1.2741770472440945
0
LINE
8
BLACK
6
CONTINUOUS
10
1.295883188976378
20
1.2741770472440945
11
1.353740157480315
21
1.2742519685039371
0
LINE
8
BLACK
6
CONTINUOUS
10
1.353740157480315
20
1.2742519685039371
11
1.3541168110236219
21
1.2741770472440945
0
LINE
8
BLACK
6
CONTINUOUS
10
1.2971700393700787
20
1.2722846456692913
11
1.2972435039370078
21
1.1576433858267716
0
LINE
8
BLACK
6
CONTINUOUS
10
1.2972435039370078
20
1.1576433858267716
11
1.3528299212598425
21
1.1577153937007874
0
LINE
8
BLACK
6
CONTINUOUS
10
1.3528299212598425
20
1.1577153937007874
11
1.3527564566929133
21
1.2723566535433071
0
LINE
8
BLACK
6
CONTINUOUS
10
1.3527564566929133
20
1.2723566535433071
11
1.2971700393700787
21
1.2722846456692913
0
LINE
8
BLACK
6
CONTINUOUS
10
0.8685183858267717
20
1.243310905511811
11
0.869051062992126
21
1.2427782283464566
0
LINE
8
BLACK
6
CONTINUOUS
10
0.869051062992126
20
1.2427782283464566
11
0.8691259842519685
21
1.1675984251968503
0
LINE
8
BLACK
6
CONTINUOUS
10
0.8691259842519685
20
1.1675984251968503
11
0.869051062992126
21
1.1672217716535433
0
LINE
8
BLACK
6
CONTINUOUS
10
0.869051062992126
20
1.1672217716535433
11
0.8685183858267717
21
1.1666890944881889
0
LINE
8
BLACK
6
CONTINUOUS
10
0.8685183858267717
20
1.1666890944881889
11
0.7358582677165354
21
1.1666141732283464
0
LINE
8
BLACK
6
CONTINUOUS
10
0.7358582677165354
20
1.1666141732283464
11
0.7354816141732283
21
1.1666890944881889
0
LINE
8
BLACK
6
CONTINUOUS
10
0.7354816141732283
20
1.1666890944881889
11
0.734948937007874
21
1.1672217716535433
0
LINE
8
BLACK
6
CONTINUOUS
10
0.734948937007874
20
1.1672217716535433
11
0.7348740157480315
21
1.2424015748031496
0
LINE
8
BLACK
6
CONTINUOUS
10
0.7348740157480315
20
1.2424015748031496
11
0.734948937007874
21
1.2427782283464566
0
LINE
8
BLACK
6
CONTINUOUS
10
0.734948937007874
20
1.2427782283464566
11
0.7354816141732283
21
1.243310905511811
0
LINE
8
BLACK
6
CONTINUOUS
10
0.7354816141732283
20
1.243310905511811
11
0.8681417322834646
21
1.2433858267716535
0
LINE
8
BLACK
6
CONTINUOUS
10
0.8681417322834646
20
1.2433858267716535
11
0.8685183858267717
21
1.243310905511811
0
LINE
8
BLACK
6
CONTINUOUS
10
0.736768937007874
20
1.241417874015748
11
0.7368415748031496
21
1.1685085433070865
0
LINE
8
BLACK
6
CONTINUOUS
10
0.7368415748031496
20
1.1685085433070865
11
0.8672310236220472
21
1.1685821653543307
0
LINE
8
BLACK
6
CONTINUOUS
10
0.8672310236220472
20
1.1685821653543307
11
0.8671583858267716
21
1.2414914960629921
0
LINE
8
BLACK
6
CONTINUOUS
10
0.8671583858267716
20
1.2414914960629921
11
0.736768937007874
21
1.241417874015748
0
LINE
8
BLACK
6
CONTINUOUS
10
1.2539551574803149
20
1.366422559055118
11
1.2552335826771652
21
1.3651441338582677
0
LINE
8
BLACK
6
CONTINUOUS
10
1.2552335826771652
20
1.3651441338582677
11
1.2554133858267715
21
1.1831377952755906
0
LINE
8
BLACK
6
CONTINUOUS
10
1.2554133858267715
20
1.1831377952755906
11
1.2552335826771652
21
1.1822338188976378
0
LINE
8
BLACK
6
CONTINUOUS
10
1.2552335826771652
20
1.1822338188976378
11
1.2539551574803149
21
1.1809553937007873
0
LINE
8
BLACK
6
CONTINUOUS
10
1.2539551574803149
20
1.1809553937007873
11
1.0719488188976378
21
1.180775590551181
0
LINE
8
BLACK
6
CONTINUOUS
10
1.0719488188976378
20
1.180775590551181
11
1.071044842519685
21
1.1809553937007873
0
LINE
8
BLACK
6
CONTINUOUS
10
1.071044842519685
20
1.1809553937007873
11
1.0697664173228347
21
1.1822338188976378
0
LINE
8
BLACK
6
CONTINUOUS
10
1.0697664173228347
20
1.1822338188976378
11
1.0695866141732284
21
1.3642401574803149
0
LINE
8
BLACK
6
CONTINUOUS
10
1.0695866141732284
20
1.3642401574803149
11
1.0697664173228347
21
1.3651441338582677
0
LINE
8
BLACK
6
CONTINUOUS
10
1.0697664173228347
20
1.3651441338582677
11
1.071044842519685
21
1.366422559055118
0
LINE
8
BLACK
6
CONTINUOUS
10
1.071044842519685
20
1.366422559055118
11
1.2530511811023621
21
1.3666023622047243
0
LINE
8
BLACK
6
CONTINUOUS
10
1.2530511811023621
20
1.3666023622047243
11
1.2539551574803149
21
1.366422559055118
0
LINE
8
BLACK
6
CONTINUOUS
10
1.0741344094488188
20
1.3618801181102362
11
1.0743088582677165
21
1.1853234251968503
0
LINE
8
BLACK
6
CONTINUOUS
10
1.0743088582677165
20
1.1853234251968503
11
1.2508655511811024
21
1.185497874015748
0
LINE
8
BLACK
6
CONTINUOUS
10
1.2508655511811024
20
1.185497874015748
11
1.2506911023622047
21
1.3620545669291337
0
LINE
8
BLACK
6
CONTINUOUS
10
1.2506911023622047
20
1.3620545669291337
11
1.0741344094488188
21
1.3618801181102362
0
LINE
8
BLACK
6
CONTINUOUS
10
1.5335262598425197
20
1.3476809842519686
11
1.5340589370078739
21
1.3471483070866141
0
LINE
8
BLACK
6
CONTINUOUS
10
1.5340589370078739
20
1.3471483070866141
11
1.5341338582677164
21
1.1932283464566928
0
LINE
8
BLACK
6
CONTINUOUS
10
1.5341338582677164
20
1.1932283464566928
11
1.5340589370078739
21
1.1928516929133859
0
LINE
8
BLACK
6
CONTINUOUS
10
1.5340589370078739
20
1.1928516929133859
11
1.5335262598425197
21
1.1923190157480315
0
LINE
8
BLACK
6
CONTINUOUS
10
1.5335262598425197
20
1.1923190157480315
11
1.4268503937007875
21
1.1922440944881889
0
LINE
8
BLACK
6
CONTINUOUS
10
1.4268503937007875
20
1.1922440944881889
11
1.4264737401574803
21
1.1923190157480315
0
LINE
8
BLACK
6
CONTINUOUS
10
1.4264737401574803
20
1.1923190157480315
11
1.4259410629921259
21
1.1928516929133859
0
LINE
8
BLACK
6
CONTINUOUS
10
1.4259410629921259
20
1.1928516929133859
11
1.4258661417322835
21
1.346771653543307
0
LINE
8
BLACK
6
CONTINUOUS
10
1.4258661417322835
20
1.346771653543307
11
1.4259410629921259
21
1.3471483070866141
0
LINE
8
BLACK
6
CONTINUOUS
10
1.4259410629921259
20
1.3471483070866141
11
1.4264737401574803
21
1.3476809842519686
0
LINE
8
BLACK
6
CONTINUOUS
10
1.4264737401574803
20
1.3476809842519686
11
1.5331496062992125
21
1.3477559055118109
0
LINE
8
BLACK
6
CONTINUOUS
10
1.5331496062992125
20
1.3477559055118109
11
1.5335262598425197
21
1.3476809842519686
0
LINE
8
BLACK
6
CONTINUOUS
10
1.4277603543307087
20
1.3457880708661416
11
1.4278341732283464
21
1.1941386614173228
0
LINE
8
BLACK
6
CONTINUOUS
10
1.4278341732283464
20
1.1941386614173228
11
1.5322396062992125
21
1.194211968503937
0
LINE
8
BLACK
6
CONTINUOUS
10
1.5322396062992125
20
1.194211968503937
11
1.5321657874015748
21
1.345861377952756
0
LINE
8
BLACK
6
CONTINUOUS
10
1.5321657874015748
20
1.345861377952756
11
1.4277603543307087
21
1.3457880708661416
0
LINE
8
BLACK
6
CONTINUOUS
10
0.5350616929133858
20
1.6016967322834645
11
0.5355943700787401
21
1.6011640551181101
0
LINE
8
BLACK
6
CONTINUOUS
10
0.5355943700787401
20
1.6011640551181101
11
0.5356692913385827
21
1.1992125984251969
0
LINE
8
BLACK
6
CONTINUOUS
10
0.5356692913385827
20
1.1992125984251969
11
0.5355943700787401
21
1.1988359448818897
0
LINE
8
BLACK
6
CONTINUOUS
10
0.5355943700787401
20
1.1988359448818897
11
0.5350616929133858
21
1.1983032677165355
0
LINE
8
BLACK
6
CONTINUOUS
10
0.5350616929133858
20
1.1983032677165355
11
0.2027952755905512
21
1.198228346456693
0
LINE
8
BLACK
6
CONTINUOUS
10
0.2027952755905512
20
1.198228346456693
11
0.2024186220472441
21
1.1983032677165355
0
LINE
8
BLACK
6
CONTINUOUS
10
0.2024186220472441
20
1.1983032677165355
11
0.2018859448818898
21
1.1988359448818897
0
LINE
8
BLACK
6
CONTINUOUS
10
0.2018859448818898
20
1.1988359448818897
11
0.2018110236220473
21
1.6007874015748031
0
LINE
8
BLACK
6
CONTINUOUS
10
0.2018110236220473
20
1.6007874015748031
11
0.2018859448818898
21
1.6011640551181101
0
LINE
8
BLACK
6
CONTINUOUS
10
0.2018859448818898
20
1.6011640551181101
11
0.2024186220472441
21
1.6016967322834645
0
LINE
8
BLACK
6
CONTINUOUS
10
0.2024186220472441
20
1.6016967322834645
11
0.5346850393700787
21
1.6017716535433071
0
LINE
8
BLACK
6
CONTINUOUS
10
0.5346850393700787
20
1.6017716535433071
11
0.5350616929133858
21
1.6016967322834645
0
LINE
8
BLACK
6
CONTINUOUS
10
0.203704842519685
20
1.5998033858267715
11
0.2037793307086614
21
1.2001222440944881
0
LINE
8
BLACK
6
CONTINUOUS
10
0.2037793307086614
20
1.2001222440944881
11
0.5337754330708662
21
1.2001966535433071
0
LINE
8
BLACK
6
CONTINUOUS
10
0.5337754330708662
20
1.2001966535433071
11
0.5337009448818898
21
1.5998777952755905
0
LINE
8
BLACK
6
CONTINUOUS
10
0.5337009448818898
20
1.5998777952755905
11
0.203704842519685
21
1.5998033858267715
0
LINE
8
BLACK
6
CONTINUOUS
10
3.1917782283464566
20
1.3380510629921261
11
3.1923109055118108
21
1.3375183858267716
0
LINE
8
BLACK
6
CONTINUOUS
10
3.1923109055118108
20
1.3375183858267716
11
3.1923858267716536
21
1.2048582677165354
0
LINE
8
BLACK
6
CONTINUOUS
10
3.1923858267716536
20
1.2048582677165354
11
3.1923109055118108
21
1.2044816141732284
0
LINE
8
BLACK
6
CONTINUOUS
10
3.1923109055118108
20
1.2044816141732284
11
3.1917782283464566
21
1.203948937007874
0
LINE
8
BLACK
6
CONTINUOUS
10
3.1917782283464566
20
1.203948937007874
11
3.1165984251968504
21
1.2038740157480314
0
LINE
8
BLACK
6
CONTINUOUS
10
3.1165984251968504
20
1.2038740157480314
11
3.1162217716535432
21
1.203948937007874
0
LINE
8
BLACK
6
CONTINUOUS
10
3.1162217716535432
20
1.203948937007874
11
3.115689094488189
21
1.2044816141732284
0
LINE
8
BLACK
6
CONTINUOUS
10
3.115689094488189
20
1.2044816141732284
11
3.1156141732283462
21
1.3371417322834644
0
LINE
8
BLACK
6
CONTINUOUS
10
3.1156141732283462
20
1.3371417322834644
11
3.115689094488189
21
1.3375183858267716
0
LINE
8
BLACK
6
CONTINUOUS
10
3.115689094488189
20
1.3375183858267716
11
3.1162217716535432
21
1.3380510629921261
0
LINE
8
BLACK
6
CONTINUOUS
10
3.1162217716535432
20
1.3380510629921261
11
3.1914015748031495
21
1.3381259842519684
0
LINE
8
BLACK
6
CONTINUOUS
10
3.1914015748031495
20
1.3381259842519684
11
3.1917782283464566
21
1.3380510629921261
0
LINE
8
BLACK
6
CONTINUOUS
10
3.1175085039370076
20
1.3361584251968504
11
3.117582125984252
21
1.2057689763779527
0
LINE
8
BLACK
6
CONTINUOUS
10
3.117582125984252
20
1.2057689763779527
11
3.1904914566929135
21
1.2058416141732282
0
LINE
8
BLACK
6
CONTINUOUS
10
3.1904914566929135
20
1.2058416141732282
11
3.1904178346456691
21
1.3362310629921259
0
LINE
8
BLACK
6
CONTINUOUS
10
3.1904178346456691
20
1.3362310629921259
11
3.1175085039370076
21
1.3361584251968504
0
LINE
8
BLACK
6
CONTINUOUS
10
0.8685183858267717
20
1.3233109055118111
11
0.869051062992126
21
1.3227782283464566
0
LINE
8
BLACK
6
CONTINUOUS
10
0.869051062992126
20
1.3227782283464566
11
0.8691259842519685
21
1.2475984251968504
0
LINE
8
BLACK
6
CONTINUOUS
10
0.8691259842519685
20
1.2475984251968504
11
0.869051062992126
21
1.2472217716535432
0
LINE
8
BLACK
6
CONTINUOUS
10
0.869051062992126
20
1.2472217716535432
11
0.8685183858267717
21
1.246689094488189
0
LINE
8
BLACK
6
CONTINUOUS
10
0.8685183858267717
20
1.246689094488189
11
0.7358582677165354
21
1.2466141732283464
0
LINE
8
BLACK
6
CONTINUOUS
10
0.7358582677165354
20
1.2466141732283464
11
0.7354816141732283
21
1.246689094488189
0
LINE
8
BLACK
6
CONTINUOUS
10
0.7354816141732283
20
1.246689094488189
11
0.734948937007874
21
1.2472217716535432
0
LINE
8
BLACK
6
CONTINUOUS
10
0.734948937007874
20
1.2472217716535432
11
0.7348740157480315
21
1.3224015748031497
0
LINE
8
BLACK
6
CONTINUOUS
10
0.7348740157480315
20
1.3224015748031497
11
0.734948937007874
21
1.3227782283464566
0
LINE
8
BLACK
6
CONTINUOUS
10
0.734948937007874
20
1.3227782283464566
11
0.7354816141732283
21
1.3233109055118111
0
LINE
8
BLACK
6
CONTINUOUS
10
0.7354816141732283
20
1.3233109055118111
11
0.8681417322834646
21
1.3233858267716536
0
LINE
8
BLACK
6
CONTINUOUS
10
0.8681417322834646
20
1.3233858267716536
11
0.8685183858267717
21
1.3233109055118111
0
LINE
8
BLACK
6
CONTINUOUS
10
0.736768937007874
20
1.3214178740157481
11
0.7368415748031496
21
1.2485085433070866
0
LINE
8
BLACK
6
CONTINUOUS
10
0.7368415748031496
20
1.2485085433070866
11
0.8672310236220472
21
1.2485821653543308
0
LINE
8
BLACK
6
CONTINUOUS
10
0.8672310236220472
20
1.2485821653543308
11
0.8671583858267716
21
1.321491496062992
0
LINE
8
BLACK
6
CONTINUOUS
10
0.8671583858267716
20
1.321491496062992
11
0.736768937007874
21
1.3214178740157481
0
LINE
8
BLACK
6
CONTINUOUS
10
0.6527782283464567
20
1.3820510629921259
11
0.653310905511811
21
1.3815183858267717
0
LINE
8
BLACK
6
CONTINUOUS
10
0.653310905511811
20
1.3815183858267717
11
0.6533858267716536
21
1.2488582677165354
0
LINE
8
BLACK
6
CONTINUOUS
10
0.6533858267716536
20
1.2488582677165354
11
0.653310905511811
21
1.2484816141732282
0
LINE
8
BLACK
6
CONTINUOUS
10
0.653310905511811
20
1.2484816141732282
11
0.6527782283464567
21
1.247948937007874
0
LINE
8
BLACK
6
CONTINUOUS
10
0.6527782283464567
20
1.247948937007874
11
0.5775984251968503
21
1.2478740157480315
0
LINE
8
BLACK
6
CONTINUOUS
10
0.5775984251968503
20
1.2478740157480315
11
0.5772217716535433
21
1.247948937007874
0
LINE
8
BLACK
6
CONTINUOUS
10
0.5772217716535433
20
1.247948937007874
11
0.5766890944881889
21
1.2484816141732282
0
LINE
8
BLACK
6
CONTINUOUS
10
0.5766890944881889
20
1.2484816141732282
11
0.5766890944881889
21
1.2485077559055118
0
LINE
8
BLACK
6
CONTINUOUS
10
0.5766890944881889
20
1.2485077559055118
11
0.5766141732283464
21
1.3811417322834645
0
LINE
8
BLACK
6
CONTINUOUS
10
0.5766141732283464
20
1.3811417322834645
11
0.5766890944881889
21
1.3815183858267717
0
LINE
8
BLACK
6
CONTINUOUS
10
0.5766890944881889
20
1.3815183858267717
11
0.5772217716535433
21
1.3820510629921259
0
LINE
8
BLACK
6
CONTINUOUS
10
0.5772217716535433
20
1.3820510629921259
11
0.6524015748031496
21
1.3821259842519684
0
LINE
8
BLACK
6
CONTINUOUS
10
0.6524015748031496
20
1.3821259842519684
11
0.6527782283464567
21
1.3820510629921259
0
LINE
8
BLACK
6
CONTINUOUS
10
0.5785085039370078
20
1.3801584251968504
11
0.578582125984252
21
1.2497689763779527
0
LINE
8
BLACK
6
CONTINUOUS
10
0.578582125984252
20
1.2497689763779527
11
0.6514914566929134
21
1.2498416141732283
0
LINE
8
BLACK
6
CONTINUOUS
10
0.6514914566929134
20
1.2498416141732283
11
0.6514178346456693
21
1.3802310629921259
0
LINE
8
BLACK
6
CONTINUOUS
10
0.6514178346456693
20
1.3802310629921259
11
0.5785085039370078
21
1.3801584251968504
0
LINE
8
BLACK
6
CONTINUOUS
10
3.0805183858267715
20
1.3493109055118111
11
3.0810510629921257
21
1.3487782283464567
0
LINE
8
BLACK
6
CONTINUOUS
10
3.0810510629921257
20
1.3487782283464567
11
3.0811259842519685
21
1.2735984251968504
0
LINE
8
BLACK
6
CONTINUOUS
10
3.0811259842519685
20
1.2735984251968504
11
3.0810510629921257
21
1.2732217716535432
0
LINE
8
BLACK
6
CONTINUOUS
10
3.0810510629921257
20
1.2732217716535432
11
3.0805183858267715
21
1.272689094488189
0
LINE
8
BLACK
6
CONTINUOUS
10
3.0805183858267715
20
1.272689094488189
11
2.9478582677165353
21
1.2726141732283465
0
LINE
8
BLACK
6
CONTINUOUS
10
2.9478582677165353
20
1.2726141732283465
11
2.9474816141732281
21
1.272689094488189
0
LINE
8
BLACK
6
CONTINUOUS
10
2.9474816141732281
20
1.272689094488189
11
2.9469489370078739
21
1.2732217716535432
0
LINE
8
BLACK
6
CONTINUOUS
10
2.9469489370078739
20
1.2732217716535432
11
2.9468740157480315
21
1.3484015748031495
0
LINE
8
BLACK
6
CONTINUOUS
10
2.9468740157480315
20
1.3484015748031495
11
2.9469489370078739
21
1.3487782283464567
0
LINE
8
BLACK
6
CONTINUOUS
10
2.9469489370078739
20
1.3487782283464567
11
2.9474816141732281
21
1.3493109055118111
0
LINE
8
BLACK
6
CONTINUOUS
10
2.9474816141732281
20
1.3493109055118111
11
3.0801417322834643
21
1.3493858267716534
0
LINE
8
BLACK
6
CONTINUOUS
10
3.0801417322834643
20
1.3493858267716534
11
3.0805183858267715
21
1.3493109055118111
0
LINE
8
BLACK
6
CONTINUOUS
10
2.9487689370078738
20
1.3474178740157481
11
2.9488415748031493
21
1.2745085433070866
0
LINE
8
BLACK
6
CONTINUOUS
10
2.9488415748031493
20
1.2745085433070866
11
3.079231023622047
21
1.2745821653543308
0
LINE
8
BLACK
6
CONTINUOUS
10
3.079231023622047
20
1.2745821653543308
11
3.0791583858267715
21
1.347491496062992
0
LINE
8
BLACK
6
CONTINUOUS
10
3.0791583858267715
20
1.347491496062992
11
2.9487689370078738
21
1.3474178740157481
0
LINE
8
BLACK
6
CONTINUOUS
10
1.3541168110236219
20
1.3941770472440944
11
1.3546494881889763
21
1.3936443700787402
0
LINE
8
BLACK
6
CONTINUOUS
10
1.3546494881889763
20
1.3936443700787402
11
1.3547244094488189
21
1.2767322834645669
0
LINE
8
BLACK
6
CONTINUOUS
10
1.3547244094488189
20
1.2767322834645669
11
1.3546494881889763
21
1.2763556299212597
0
LINE
8
BLACK
6
CONTINUOUS
10
1.3546494881889763
20
1.2763556299212597
11
1.3541168110236219
21
1.2758229527559055
0
LINE
8
BLACK
6
CONTINUOUS
10
1.3541168110236219
20
1.2758229527559055
11
1.296259842519685
21
1.275748031496063
0
LINE
8
BLACK
6
CONTINUOUS
10
1.296259842519685
20
1.275748031496063
11
1.295883188976378
21
1.2758229527559055
0
LINE
8
BLACK
6
CONTINUOUS
10
1.295883188976378
20
1.2758229527559055
11
1.2953505118110236
21
1.2763556299212597
0
LINE
8
BLACK
6
CONTINUOUS
10
1.2953505118110236
20
1.2763556299212597
11
1.295275590551181
21
1.393267716535433
0
LINE
8
BLACK
6
CONTINUOUS
10
1.295275590551181
20
1.393267716535433
11
1.2953505118110236
21
1.3936443700787402
0
LINE
8
BLACK
6
CONTINUOUS
10
1.2953505118110236
20
1.3936443700787402
11
1.295883188976378
21
1.3941770472440944
0
LINE
8
BLACK
6
CONTINUOUS
10
1.295883188976378
20
1.3941770472440944
11
1.353740157480315
21
1.394251968503937
0
LINE
8
BLACK
6
CONTINUOUS
10
1.353740157480315
20
1.394251968503937
11
1.3541168110236219
21
1.3941770472440944
0
LINE
8
BLACK
6
CONTINUOUS
10
1.2971700393700787
20
1.3922846456692912
11
1.2972435039370078
21
1.2776433858267717
0
LINE
8
BLACK
6
CONTINUOUS
10
1.2972435039370078
20
1.2776433858267717
11
1.3528299212598425
21
1.2777153937007875
0
LINE
8
BLACK
6
CONTINUOUS
10
1.3528299212598425
20
1.2777153937007875
11
1.3527564566929133
21
1.392356653543307
0
LINE
8
BLACK
6
CONTINUOUS
10
1.3527564566929133
20
1.392356653543307
11
1.2971700393700787
21
1.3922846456692912
0
LINE
8
BLACK
6
CONTINUOUS
10
2.7848057874015746
20
1.3583896456692912
11
2.7853384645669292
21
1.357856968503937
0
LINE
8
BLACK
6
CONTINUOUS
10
2.7853384645669292
20
1.357856968503937
11
2.7854133858267716
21
1.2803149606299213
0
LINE
8
BLACK
6
CONTINUOUS
10
2.7854133858267716
20
1.2803149606299213
11
2.7853384645669292
21
1.2799383070866142
0
LINE
8
BLACK
6
CONTINUOUS
10
2.7853384645669292
20
1.2799383070866142
11
2.7848057874015746
21
1.2794056299212597
0
LINE
8
BLACK
6
CONTINUOUS
10
2.7848057874015746
20
1.2794056299212597
11
2.6505708661417322
21
1.2793307086614174
0
LINE
8
BLACK
6
CONTINUOUS
10
2.6505708661417322
20
1.2793307086614174
11
2.650194212598425
21
1.2794056299212597
0
LINE
8
BLACK
6
CONTINUOUS
10
2.650194212598425
20
1.2794056299212597
11
2.6496615354330708
21
1.2799383070866142
0
LINE
8
BLACK
6
CONTINUOUS
10
2.6496615354330708
20
1.2799383070866142
11
2.6495866141732285
21
1.3574803149606298
0
LINE
8
BLACK
6
CONTINUOUS
10
2.6495866141732285
20
1.3574803149606298
11
2.6496615354330708
21
1.357856968503937
0
LINE
8
BLACK
6
CONTINUOUS
10
2.6496615354330708
20
1.357856968503937
11
2.650194212598425
21
1.3583896456692912
0
LINE
8
BLACK
6
CONTINUOUS
10
2.650194212598425
20
1.3583896456692912
11
2.7844291338582678
21
1.3584645669291338
0
LINE
8
BLACK
6
CONTINUOUS
10
2.7844291338582678
20
1.3584645669291338
11
2.7848057874015746
21
1.3583896456692912
0
LINE
8
BLACK
6
CONTINUOUS
10
2.651481496062992
20
1.3564965748031497
11
2.6515542125984251
21
1.2812250787401573
0
LINE
8
BLACK
6
CONTINUOUS
10
2.6515542125984251
20
1.2812250787401573
11
2.7835184645669289
21
1.2812987401574802
0
LINE
8
BLACK
6
CONTINUOUS
10
2.7835184645669289
20
1.2812987401574802
11
2.7834457480314958
21
1.3565702362204723
0
LINE
8
BLACK
6
CONTINUOUS
10
2.7834457480314958
20
1.3565702362204723
11
2.651481496062992
21
1.3564965748031497
0
LINE
8
BLACK
6
CONTINUOUS
10
2.3365183858267717
20
1.3897085433070866
11
2.3370510629921259
21
1.3891758661417322
0
LINE
8
BLACK
6
CONTINUOUS
10
2.3370510629921259
20
1.3891758661417322
11
2.3371259842519683
21
1.3139960629921259
0
LINE
8
BLACK
6
CONTINUOUS
10
2.3371259842519683
20
1.3139960629921259
11
2.3370510629921259
21
1.3136194094488189
0
LINE
8
BLACK
6
CONTINUOUS
10
2.3370510629921259
20
1.3136194094488189
11
2.3365183858267717
21
1.3130867322834645
0
LINE
8
BLACK
6
CONTINUOUS
10
2.3365183858267717
20
1.3130867322834645
11
2.2038582677165355
21
1.313011811023622
0
LINE
8
BLACK
6
CONTINUOUS
10
2.2038582677165355
20
1.313011811023622
11
2.2034816141732283
21
1.3130867322834645
0
LINE
8
BLACK
6
CONTINUOUS
10
2.2034816141732283
20
1.3130867322834645
11
2.2029489370078741
21
1.3136194094488189
0
LINE
8
BLACK
6
CONTINUOUS
10
2.2029489370078741
20
1.3136194094488189
11
2.2028740157480313
21
1.3887992125984252
0
LINE
8
BLACK
6
CONTINUOUS
10
2.2028740157480313
20
1.3887992125984252
11
2.2029489370078741
21
1.3891758661417322
0
LINE
8
BLACK
6
CONTINUOUS
10
2.2029489370078741
20
1.3891758661417322
11
2.2034816141732283
21
1.3897085433070866
0
LINE
8
BLACK
6
CONTINUOUS
10
2.2034816141732283
20
1.3897085433070866
11
2.3361417322834646
21
1.3897834645669291
0
LINE
8
BLACK
6
CONTINUOUS
10
2.3361417322834646
20
1.3897834645669291
11
2.3365183858267717
21
1.3897085433070866
0
LINE
8
BLACK
6
CONTINUOUS
10
2.204768937007874
20
1.3878155118110236
11
2.2048415748031496
21
1.3149061811023621
0
LINE
8
BLACK
6
CONTINUOUS
10
2.2048415748031496
20
1.3149061811023621
11
2.3352310236220473
21
1.3149798031496063
0
LINE
8
BLACK
6
CONTINUOUS
10
2.3352310236220473
20
1.3149798031496063
11
2.3351583858267717
21
1.3878891338582677
0
LINE
8
BLACK
6
CONTINUOUS
10
2.3351583858267717
20
1.3878891338582677
11
2.204768937007874
21
1.3878155118110236
0
LINE
8
BLACK
6
CONTINUOUS
10
0.8757782283464567
20
1.466051062992126
11
0.876310905511811
21
1.4655183858267715
0
LINE
8
BLACK
6
CONTINUOUS
10
0.876310905511811
20
1.4655183858267715
11
0.8763858267716536
21
1.3328582677165355
0
LINE
8
BLACK
6
CONTINUOUS
10
0.8763858267716536
20
1.3328582677165355
11
0.876310905511811
21
1.3324816141732283
0
LINE
8
BLACK
6
CONTINUOUS
10
0.876310905511811
20
1.3324816141732283
11
0.8757782283464567
21
1.3319489370078741
0
LINE
8
BLACK
6
CONTINUOUS
10
0.8757782283464567
20
1.3319489370078741
11
0.8005984251968504
21
1.3318740157480315
0
LINE
8
BLACK
6
CONTINUOUS
10
0.8005984251968504
20
1.3318740157480315
11
0.8002217716535432
21
1.3319489370078741
0
LINE
8
BLACK
6
CONTINUOUS
10
0.8002217716535432
20
1.3319489370078741
11
0.7996890944881889
21
1.3324816141732283
0
LINE
8
BLACK
6
CONTINUOUS
10
0.7996890944881889
20
1.3324816141732283
11
0.7996141732283465
21
1.4651417322834646
0
LINE
8
BLACK
6
CONTINUOUS
10
0.7996141732283465
20
1.4651417322834646
11
0.7996890944881889
21
1.4655183858267715
0
LINE
8
BLACK
6
CONTINUOUS
10
0.7996890944881889
20
1.4655183858267715
11
0.8002217716535432
21
1.466051062992126
0
LINE
8
BLACK
6
CONTINUOUS
10
0.8002217716535432
20
1.466051062992126
11
0.8754015748031496
21
1.4661259842519685
0
LINE
8
BLACK
6
CONTINUOUS
10
0.8754015748031496
20
1.4661259842519685
11
0.8757782283464567
21
1.466051062992126
0
LINE
8
BLACK
6
CONTINUOUS
10
0.8015085039370079
20
1.4641584251968505
11
0.8015821259842519
21
1.3337689763779528
0
LINE
8
BLACK
6
CONTINUOUS
10
0.8015821259842519
20
1.3337689763779528
11
0.8744914566929134
21
1.3338416141732283
0
LINE
8
BLACK
6
CONTINUOUS
10
0.8744914566929134
20
1.3338416141732283
11
0.8744178346456692
21
1.464231062992126
0
LINE
8
BLACK
6
CONTINUOUS
10
0.8744178346456692
20
1.464231062992126
11
0.8015085039370079
21
1.4641584251968505
0
LINE
8
BLACK
6
CONTINUOUS
10
2.4487782283464568
20
1.528051062992126
11
2.449310905511811
21
1.5275183858267716
0
LINE
8
BLACK
6
CONTINUOUS
10
2.449310905511811
20
1.5275183858267716
11
2.4493858267716533
21
1.3948582677165353
0
LINE
8
BLACK
6
CONTINUOUS
10
2.4493858267716533
20
1.3948582677165353
11
2.449310905511811
21
1.3944816141732284
0
LINE
8
BLACK
6
CONTINUOUS
10
2.449310905511811
20
1.3944816141732284
11
2.4487782283464568
21
1.3939489370078739
0
LINE
8
BLACK
6
CONTINUOUS
10
2.4487782283464568
20
1.3939489370078739
11
2.3735984251968505
21
1.3938740157480314
0
LINE
8
BLACK
6
CONTINUOUS
10
2.3735984251968505
20
1.3938740157480314
11
2.3732217716535433
21
1.3939489370078739
0
LINE
8
BLACK
6
CONTINUOUS
10
2.3732217716535433
20
1.3939489370078739
11
2.3726890944881891
21
1.3944816141732284
0
LINE
8
BLACK
6
CONTINUOUS
10
2.3726890944881891
20
1.3944816141732284
11
2.3726141732283463
21
1.5271417322834646
0
LINE
8
BLACK
6
CONTINUOUS
10
2.3726141732283463
20
1.5271417322834646
11
2.3726890944881891
21
1.5275183858267716
0
LINE
8
BLACK
6
CONTINUOUS
10
2.3726890944881891
20
1.5275183858267716
11
2.3732217716535433
21
1.528051062992126
0
LINE
8
BLACK
6
CONTINUOUS
10
2.3732217716535433
20
1.528051062992126
11
2.4484015748031496
21
1.5281259842519685
0
LINE
8
BLACK
6
CONTINUOUS
10
2.4484015748031496
20
1.5281259842519685
11
2.4487782283464568
21
1.528051062992126
0
LINE
8
BLACK
6
CONTINUOUS
10
2.3745085039370077
20
1.5261584251968503
11
2.3745821259842521
21
1.3957689763779528
0
LINE
8
BLACK
6
CONTINUOUS
10
2.3745821259842521
20
1.3957689763779528
11
2.4474914566929131
21
1.3958416141732284
0
LINE
8
BLACK
6
CONTINUOUS
10
2.4474914566929131
20
1.3958416141732284
11
2.4474178346456692
21
1.5262310629921259
0
LINE
8
BLACK
6
CONTINUOUS
10
2.4474178346456692
20
1.5262310629921259
11
2.3745085039370077
21
1.5261584251968503
0
LINE
8
BLACK
6
CONTINUOUS
10
1.4273057874015749
20
1.4794920078740157
11
1.4278384645669291
21
1.4789593307086615
0
LINE
8
BLACK
6
CONTINUOUS
10
1.4278384645669291
20
1.4789593307086615
11
1.4279133858267716
21
1.4014173228346456
0
LINE
8
BLACK
6
CONTINUOUS
10
1.4279133858267716
20
1.4014173228346456
11
1.4278384645669291
21
1.4010406692913386
0
LINE
8
BLACK
6
CONTINUOUS
10
1.4278384645669291
20
1.4010406692913386
11
1.4273057874015749
21
1.4005079921259842
0
LINE
8
BLACK
6
CONTINUOUS
10
1.4273057874015749
20
1.4005079921259842
11
1.2930708661417323
21
1.4004330708661417
0
LINE
8
BLACK
6
CONTINUOUS
10
1.2930708661417323
20
1.4004330708661417
11
1.2926942125984251
21
1.4005079921259842
0
LINE
8
BLACK
6
CONTINUOUS
10
1.2926942125984251
20
1.4005079921259842
11
1.2921615354330709
21
1.4010406692913386
0
LINE
8
BLACK
6
CONTINUOUS
10
1.2921615354330709
20
1.4010406692913386
11
1.2920866141732283
21
1.4785826771653543
0
LINE
8
BLACK
6
CONTINUOUS
10
1.2920866141732283
20
1.4785826771653543
11
1.2921615354330709
21
1.4789593307086615
0
LINE
8
BLACK
6
CONTINUOUS
10
1.2921615354330709
20
1.4789593307086615
11
1.2926942125984251
21
1.4794920078740157
0
LINE
8
BLACK
6
CONTINUOUS
10
1.2926942125984251
20
1.4794920078740157
11
1.4269291338582677
21
1.4795669291338582
0
LINE
8
BLACK
6
CONTINUOUS
10
1.4269291338582677
20
1.4795669291338582
11
1.4273057874015749
21
1.4794920078740157
0
LINE
8
BLACK
6
CONTINUOUS
10
1.2939814960629921
20
1.4775989370078739
11
1.2940542125984251
21
1.4023274409448818
0
LINE
8
BLACK
6
CONTINUOUS
10
1.2940542125984251
20
1.4023274409448818
11
1.4260184645669292
21
1.4024011023622047
0
LINE
8
BLACK
6
CONTINUOUS
10
1.4260184645669292
20
1.4024011023622047
11
1.4259457480314961
21
1.4776725984251968
0
LINE
8
BLACK
6
CONTINUOUS
10
1.4259457480314961
20
1.4776725984251968
11
1.2939814960629921
21
1.4775989370078739
0
LINE
8
BLACK
6
CONTINUOUS
10
3.6845498818897635
20
1.6747675984251968
11
3.6850825590551182
21
1.6742349212598424
0
LINE
8
BLACK
6
CONTINUOUS
10
3.6850825590551182
20
1.6742349212598424
11
3.6851574803149605
21
1.4061417322834646
0
LINE
8
BLACK
6
CONTINUOUS
10
3.6851574803149605
20
1.4061417322834646
11
3.6850825590551182
21
1.4057650787401574
0
LINE
8
BLACK
6
CONTINUOUS
10
3.6850825590551182
20
1.4057650787401574
11
3.6845498818897635
21
1.4052324015748032
0
LINE
8
BLACK
6
CONTINUOUS
10
3.6845498818897635
20
1.4052324015748032
11
3.4558267716535434
21
1.4051574803149607
0
LINE
8
BLACK
6
CONTINUOUS
10
3.4558267716535434
20
1.4051574803149607
11
3.4554501181102362
21
1.4052324015748032
0
LINE
8
BLACK
6
CONTINUOUS
10
3.4554501181102362
20
1.4052324015748032
11
3.454917440944882
21
1.4057650787401574
0
LINE
8
BLACK
6
CONTINUOUS
10
3.454917440944882
20
1.4057650787401574
11
3.4548425196850392
21
1.6738582677165355
0
LINE
8
BLACK
6
CONTINUOUS
10
3.4548425196850392
20
1.6738582677165355
11
3.454917440944882
21
1.6742349212598424
0
LINE
8
BLACK
6
CONTINUOUS
10
3.454917440944882
20
1.6742349212598424
11
3.4554501181102362
21
1.6747675984251968
0
LINE
8
BLACK
6
CONTINUOUS
10
3.4554501181102362
20
1.6747675984251968
11
3.6841732283464568
21
1.6748425196850394
0
LINE
8
BLACK
6
CONTINUOUS
10
3.6841732283464568
20
1.6748425196850394
11
3.6845498818897635
21
1.6747675984251968
0
LINE
8
BLACK
6
CONTINUOUS
10
3.4567364566929135
20
1.6728743307086613
11
3.4568107480314958
21
1.4070515354330708
0
LINE
8
BLACK
6
CONTINUOUS
10
3.4568107480314958
20
1.4070515354330708
11
3.6832635039370079
21
1.4071257086614173
0
LINE
8
BLACK
6
CONTINUOUS
10
3.6832635039370079
20
1.4071257086614173
11
3.6831892125984251
21
1.6729485039370078
0
LINE
8
BLACK
6
CONTINUOUS
10
3.6831892125984251
20
1.6729485039370078
11
3.4567364566929135
21
1.6728743307086613
0
LINE
8
BLACK
6
CONTINUOUS
10
1.2473057874015747
20
1.4844920078740158
11
1.2478384645669292
21
1.4839593307086614
0
LINE
8
BLACK
6
CONTINUOUS
10
1.2478384645669292
20
1.4839593307086614
11
1.2479133858267717
21
1.4064173228346457
0
LINE
8
BLACK
6
CONTINUOUS
10
1.2479133858267717
20
1.4064173228346457
11
1.2478384645669292
21
1.4060406692913385
0
LINE
8
BLACK
6
CONTINUOUS
10
1.2478384645669292
20
1.4060406692913385
11
1.2473057874015747
21
1.4055079921259843
0
LINE
8
BLACK
6
CONTINUOUS
10
1.2473057874015747
20
1.4055079921259843
11
1.1130708661417323
21
1.4054330708661418
0
LINE
8
BLACK
6
CONTINUOUS
10
1.1130708661417323
20
1.4054330708661418
11
1.1126942125984252
21
1.4055079921259843
0
LINE
8
BLACK
6
CONTINUOUS
10
1.1126942125984252
20
1.4055079921259843
11
1.1121615354330709
21
1.4060406692913385
0
LINE
8
BLACK
6
CONTINUOUS
10
1.1121615354330709
20
1.4060406692913385
11
1.1120866141732284
21
1.4835826771653542
0
LINE
8
BLACK
6
CONTINUOUS
10
1.1120866141732284
20
1.4835826771653542
11
1.1121615354330709
21
1.4839593307086614
0
LINE
8
BLACK
6
CONTINUOUS
10
1.1121615354330709
20
1.4839593307086614
11
1.1126942125984252
21
1.4844920078740158
0
LINE
8
BLACK
6
CONTINUOUS
10
1.1126942125984252
20
1.4844920078740158
11
1.2469291338582678
21
1.4845669291338581
0
LINE
8
BLACK
6
CONTINUOUS
10
1.2469291338582678
20
1.4845669291338581
11
1.2473057874015747
21
1.4844920078740158
0
LINE
8
BLACK
6
CONTINUOUS
10
1.1139814960629921
20
1.482598937007874
11
1.1140542125984252
21
1.4073274409448819
0
LINE
8
BLACK
6
CONTINUOUS
10
1.1140542125984252
20
1.4073274409448819
11
1.246018464566929
21
1.4074011023622046
0
LINE
8
BLACK
6
CONTINUOUS
10
1.246018464566929
20
1.4074011023622046
11
1.2459457480314959
21
1.4826725984251967
0
LINE
8
BLACK
6
CONTINUOUS
10
1.2459457480314959
20
1.4826725984251967
11
1.1139814960629921
21
1.482598937007874
0
LINE
8
BLACK
6
CONTINUOUS
10
0.6527782283464567
20
1.5820510629921261
11
0.653310905511811
21
1.5815183858267716
0
LINE
8
BLACK
6
CONTINUOUS
10
0.653310905511811
20
1.5815183858267716
11
0.6533858267716536
21
1.4488582677165354
0
LINE
8
BLACK
6
CONTINUOUS
10
0.6533858267716536
20
1.4488582677165354
11
0.653310905511811
21
1.4484816141732284
0
LINE
8
BLACK
6
CONTINUOUS
10
0.653310905511811
20
1.4484816141732284
11
0.6527782283464567
21
1.447948937007874
0
LINE
8
BLACK
6
CONTINUOUS
10
0.6527782283464567
20
1.447948937007874
11
0.5775984251968503
21
1.4478740157480314
0
LINE
8
BLACK
6
CONTINUOUS
10
0.5775984251968503
20
1.4478740157480314
11
0.5772217716535433
21
1.447948937007874
0
LINE
8
BLACK
6
CONTINUOUS
10
0.5772217716535433
20
1.447948937007874
11
0.5766890944881889
21
1.4484816141732284
0
LINE
8
BLACK
6
CONTINUOUS
10
0.5766890944881889
20
1.4484816141732284
11
0.5766141732283464
21
1.5811417322834644
0
LINE
8
BLACK
6
CONTINUOUS
10
0.5766141732283464
20
1.5811417322834644
11
0.5766890944881889
21
1.5815183858267716
0
LINE
8
BLACK
6
CONTINUOUS
10
0.5766890944881889
20
1.5815183858267716
11
0.5772217716535433
21
1.5820510629921261
0
LINE
8
BLACK
6
CONTINUOUS
10
0.5772217716535433
20
1.5820510629921261
11
0.6524015748031496
21
1.5821259842519684
0
LINE
8
BLACK
6
CONTINUOUS
10
0.6524015748031496
20
1.5821259842519684
11
0.6527782283464567
21
1.5820510629921261
0
LINE
8
BLACK
6
CONTINUOUS
10
0.5785085039370078
20
1.5801584251968503
11
0.578582125984252
21
1.4497689763779527
0
LINE
8
BLACK
6
CONTINUOUS
10
0.578582125984252
20
1.4497689763779527
11
0.6514914566929134
21
1.4498416141732282
0
LINE
8
BLACK
6
CONTINUOUS
10
0.6514914566929134
20
1.4498416141732282
11
0.6514178346456693
21
1.5802310629921259
0
LINE
8
BLACK
6
CONTINUOUS
10
0.6514178346456693
20
1.5802310629921259
11
0.5785085039370078
21
1.5801584251968503
0
LINE
8
BLACK
6
CONTINUOUS
10
1.4273057874015749
20
1.5644920078740157
11
1.4278384645669291
21
1.5639593307086614
0
LINE
8
BLACK
6
CONTINUOUS
10
1.4278384645669291
20
1.5639593307086614
11
1.4279133858267716
21
1.4864173228346456
0
LINE
8
BLACK
6
CONTINUOUS
10
1.4279133858267716
20
1.4864173228346456
11
1.4278384645669291
21
1.4860406692913386
0
LINE
8
BLACK
6
CONTINUOUS
10
1.4278384645669291
20
1.4860406692913386
11
1.4273057874015749
21
1.4855079921259842
0
LINE
8
BLACK
6
CONTINUOUS
10
1.4273057874015749
20
1.4855079921259842
11
1.2930708661417323
21
1.4854330708661416
0
LINE
8
BLACK
6
CONTINUOUS
10
1.2930708661417323
20
1.4854330708661416
11
1.2926942125984251
21
1.4855079921259842
0
LINE
8
BLACK
6
CONTINUOUS
10
1.2926942125984251
20
1.4855079921259842
11
1.2921615354330709
21
1.4860406692913386
0
LINE
8
BLACK
6
CONTINUOUS
10
1.2921615354330709
20
1.4860406692913386
11
1.2920866141732283
21
1.5635826771653543
0
LINE
8
BLACK
6
CONTINUOUS
10
1.2920866141732283
20
1.5635826771653543
11
1.2921615354330709
21
1.5639593307086614
0
LINE
8
BLACK
6
CONTINUOUS
10
1.2921615354330709
20
1.5639593307086614
11
1.2926942125984251
21
1.5644920078740157
0
LINE
8
BLACK
6
CONTINUOUS
10
1.2926942125984251
20
1.5644920078740157
11
1.4269291338582677
21
1.5645669291338582
0
LINE
8
BLACK
6
CONTINUOUS
10
1.4269291338582677
20
1.5645669291338582
11
1.4273057874015749
21
1.5644920078740157
0
LINE
8
BLACK
6
CONTINUOUS
10
1.2939814960629921
20
1.5625989370078739
11
1.2940542125984251
21
1.4873274409448818
0
LINE
8
BLACK
6
CONTINUOUS
10
1.2940542125984251
20
1.4873274409448818
11
1.4260184645669292
21
1.4874011023622047
0
LINE
8
BLACK
6
CONTINUOUS
10
1.4260184645669292
20
1.4874011023622047
11
1.4259457480314961
21
1.5626725984251968
0
LINE
8
BLACK
6
CONTINUOUS
10
1.4259457480314961
20
1.5626725984251968
11
1.2939814960629921
21
1.5625989370078739
0
LINE
8
BLACK
6
CONTINUOUS
10
1.2377782283464567
20
1.6220510629921259
11
1.2383109055118109
21
1.6215183858267717
0
LINE
8
BLACK
6
CONTINUOUS
10
1.2383109055118109
20
1.6215183858267717
11
1.2383858267716534
21
1.4888582677165354
0
LINE
8
BLACK
6
CONTINUOUS
10
1.2383858267716534
20
1.4888582677165354
11
1.2383109055118109
21
1.4884816141732282
0
LINE
8
BLACK
6
CONTINUOUS
10
1.2383109055118109
20
1.4884816141732282
11
1.2377782283464567
21
1.487948937007874
0
LINE
8
BLACK
6
CONTINUOUS
10
1.2377782283464567
20
1.487948937007874
11
1.1625984251968504
21
1.4878740157480315
0
LINE
8
BLACK
6
CONTINUOUS
10
1.1625984251968504
20
1.4878740157480315
11
1.1622217716535432
21
1.487948937007874
0
LINE
8
BLACK
6
CONTINUOUS
10
1.1622217716535432
20
1.487948937007874
11
1.161689094488189
21
1.4884816141732282
0
LINE
8
BLACK
6
CONTINUOUS
10
1.161689094488189
20
1.4884816141732282
11
1.1616141732283465
21
1.6211417322834645
0
LINE
8
BLACK
6
CONTINUOUS
10
1.1616141732283465
20
1.6211417322834645
11
1.161689094488189
21
1.6215183858267717
0
LINE
8
BLACK
6
CONTINUOUS
10
1.161689094488189
20
1.6215183858267717
11
1.1622217716535432
21
1.6220510629921259
0
LINE
8
BLACK
6
CONTINUOUS
10
1.1622217716535432
20
1.6220510629921259
11
1.2374015748031495
21
1.6221259842519684
0
LINE
8
BLACK
6
CONTINUOUS
10
1.2374015748031495
20
1.6221259842519684
11
1.2377782283464567
21
1.6220510629921259
0
LINE
8
BLACK
6
CONTINUOUS
10
1.1635085039370079
20
1.6201584251968504
11
1.163582125984252
21
1.4897689763779527
0
LINE
8
BLACK
6
CONTINUOUS
10
1.163582125984252
20
1.4897689763779527
11
1.2364914566929133
21
1.4898416141732282
0
LINE
8
BLACK
6
CONTINUOUS
10
1.2364914566929133
20
1.4898416141732282
11
1.2364178346456693
21
1.6202310629921259
0
LINE
8
BLACK
6
CONTINUOUS
10
1.2364178346456693
20
1.6202310629921259
11
1.1635085039370079
21
1.6201584251968504
0
LINE
8
BLACK
6
CONTINUOUS
10
0.9915183858267717
20
1.6133109055118109
11
0.992051062992126
21
1.6127782283464567
0
LINE
8
BLACK
6
CONTINUOUS
10
0.992051062992126
20
1.6127782283464567
11
0.9921259842519685
21
1.5375984251968504
0
LINE
8
BLACK
6
CONTINUOUS
10
0.9921259842519685
20
1.5375984251968504
11
0.992051062992126
21
1.5372217716535432
0
LINE
8
BLACK
6
CONTINUOUS
10
0.992051062992126
20
1.5372217716535432
11
0.9915183858267717
21
1.536689094488189
0
LINE
8
BLACK
6
CONTINUOUS
10
0.9915183858267717
20
1.536689094488189
11
0.8588582677165354
21
1.5366141732283465
0
LINE
8
BLACK
6
CONTINUOUS
10
0.8588582677165354
20
1.5366141732283465
11
0.8584816141732283
21
1.536689094488189
0
LINE
8
BLACK
6
CONTINUOUS
10
0.8584816141732283
20
1.536689094488189
11
0.857948937007874
21
1.5372217716535432
0
LINE
8
BLACK
6
CONTINUOUS
10
0.857948937007874
20
1.5372217716535432
11
0.8578740157480315
21
1.6124015748031495
0
LINE
8
BLACK
6
CONTINUOUS
10
0.8578740157480315
20
1.6124015748031495
11
0.857948937007874
21
1.6127782283464567
0
LINE
8
BLACK
6
CONTINUOUS
10
0.857948937007874
20
1.6127782283464567
11
0.8584816141732283
21
1.6133109055118109
0
LINE
8
BLACK
6
CONTINUOUS
10
0.8584816141732283
20
1.6133109055118109
11
0.9911417322834646
21
1.6133858267716534
0
LINE
8
BLACK
6
CONTINUOUS
10
0.9911417322834646
20
1.6133858267716534
11
0.9915183858267717
21
1.6133109055118109
0
LINE
8
BLACK
6
CONTINUOUS
10
0.859768937007874
20
1.6114178740157481
11
0.8598415748031496
21
1.5385085433070866
0
LINE
8
BLACK
6
CONTINUOUS
10
0.8598415748031496
20
1.5385085433070866
11
0.9902310236220472
21
1.5385821653543306
0
LINE
8
BLACK
6
CONTINUOUS
10
0.9902310236220472
20
1.5385821653543306
11
0.9901583858267716
21
1.611491496062992
0
LINE
8
BLACK
6
CONTINUOUS
10
0.9901583858267716
20
1.611491496062992
11
0.859768937007874
21
1.6114178740157481
0
LINE
8
BLACK
6
CONTINUOUS
10
2.5175183858267718
20
1.6193109055118109
11
2.518051062992126
21
1.6187782283464567
0
LINE
8
BLACK
6
CONTINUOUS
10
2.518051062992126
20
1.6187782283464567
11
2.5181259842519683
21
1.5435984251968504
0
LINE
8
BLACK
6
CONTINUOUS
10
2.5181259842519683
20
1.5435984251968504
11
2.518051062992126
21
1.5432217716535432
0
LINE
8
BLACK
6
CONTINUOUS
10
2.518051062992126
20
1.5432217716535432
11
2.5175183858267718
21
1.542689094488189
0
LINE
8
BLACK
6
CONTINUOUS
10
2.5175183858267718
20
1.542689094488189
11
2.3848582677165355
21
1.5426141732283465
0
LINE
8
BLACK
6
CONTINUOUS
10
2.3848582677165355
20
1.5426141732283465
11
2.3844816141732283
21
1.542689094488189
0
LINE
8
BLACK
6
CONTINUOUS
10
2.3844816141732283
20
1.542689094488189
11
2.3839489370078741
21
1.5432217716535432
0
LINE
8
BLACK
6
CONTINUOUS
10
2.3839489370078741
20
1.5432217716535432
11
2.3838740157480314
21
1.6184015748031495
0
LINE
8
BLACK
6
CONTINUOUS
10
2.3838740157480314
20
1.6184015748031495
11
2.3839489370078741
21
1.6187782283464567
0
LINE
8
BLACK
6
CONTINUOUS
10
2.3839489370078741
20
1.6187782283464567
11
2.3844816141732283
21
1.6193109055118109
0
LINE
8
BLACK
6
CONTINUOUS
10
2.3844816141732283
20
1.6193109055118109
11
2.5171417322834646
21
1.6193858267716534
0
LINE
8
BLACK
6
CONTINUOUS
10
2.5171417322834646
20
1.6193858267716534
11
2.5175183858267718
21
1.6193109055118109
0
LINE
8
BLACK
6
CONTINUOUS
10
2.3857689370078741
20
1.6174178740157481
11
2.3858415748031496
21
1.5445085433070866
0
LINE
8
BLACK
6
CONTINUOUS
10
2.3858415748031496
20
1.5445085433070866
11
2.5162310236220473
21
1.5445821653543306
0
LINE
8
BLACK
6
CONTINUOUS
10
2.5162310236220473
20
1.5445821653543306
11
2.5161583858267718
21
1.617491496062992
0
LINE
8
BLACK
6
CONTINUOUS
10
2.5161583858267718
20
1.617491496062992
11
2.3857689370078741
21
1.6174178740157481
0
LINE
8
BLACK
6
CONTINUOUS
10
1.4273057874015749
20
1.6494920078740156
11
1.4278384645669291
21
1.6489593307086614
0
LINE
8
BLACK
6
CONTINUOUS
10
1.4278384645669291
20
1.6489593307086614
11
1.4279133858267716
21
1.5714173228346455
0
LINE
8
BLACK
6
CONTINUOUS
10
1.4279133858267716
20
1.5714173228346455
11
1.4278384645669291
21
1.5710406692913386
0
LINE
8
BLACK
6
CONTINUOUS
10
1.4278384645669291
20
1.5710406692913386
11
1.4273057874015749
21
1.5705079921259841
0
LINE
8
BLACK
6
CONTINUOUS
10
1.4273057874015749
20
1.5705079921259841
11
1.2930708661417323
21
1.5704330708661416
0
LINE
8
BLACK
6
CONTINUOUS
10
1.2930708661417323
20
1.5704330708661416
11
1.2926942125984251
21
1.5705079921259841
0
LINE
8
BLACK
6
CONTINUOUS
10
1.2926942125984251
20
1.5705079921259841
11
1.2921615354330709
21
1.5710406692913386
0
LINE
8
BLACK
6
CONTINUOUS
10
1.2921615354330709
20
1.5710406692913386
11
1.2920866141732283
21
1.6485826771653542
0
LINE
8
BLACK
6
CONTINUOUS
10
1.2920866141732283
20
1.6485826771653542
11
1.2921615354330709
21
1.6489593307086614
0
LINE
8
BLACK
6
CONTINUOUS
10
1.2921615354330709
20
1.6489593307086614
11
1.2926942125984251
21
1.6494920078740156
0
LINE
8
BLACK
6
CONTINUOUS
10
1.2926942125984251
20
1.6494920078740156
11
1.4269291338582677
21
1.6495669291338582
0
LINE
8
BLACK
6
CONTINUOUS
10
1.4269291338582677
20
1.6495669291338582
11
1.4273057874015749
21
1.6494920078740156
0
LINE
8
BLACK
6
CONTINUOUS
10
1.2939814960629921
20
1.6475989370078741
11
1.2940542125984251
21
1.5723274409448817
0
LINE
8
BLACK
6
CONTINUOUS
10
1.2940542125984251
20
1.5723274409448817
11
1.4260184645669292
21
1.5724011023622047
0
LINE
8
BLACK
6
CONTINUOUS
10
1.4260184645669292
20
1.5724011023622047
11
1.4259457480314961
21
1.6476725984251968
0
LINE
8
BLACK
6
CONTINUOUS
10
1.4259457480314961
20
1.6476725984251968
11
1.2939814960629921
21
1.6475989370078741
0
LINE
8
BLACK
6
CONTINUOUS
10
1.1177782283464566
20
1.7070510629921261
11
1.118310905511811
21
1.7065183858267716
0
LINE
8
BLACK
6
CONTINUOUS
10
1.118310905511811
20
1.7065183858267716
11
1.1183858267716535
21
1.5738582677165354
0
LINE
8
BLACK
6
CONTINUOUS
10
1.1183858267716535
20
1.5738582677165354
11
1.118310905511811
21
1.5734816141732284
0
LINE
8
BLACK
6
CONTINUOUS
10
1.118310905511811
20
1.5734816141732284
11
1.1177782283464566
21
1.572948937007874
0
LINE
8
BLACK
6
CONTINUOUS
10
1.1177782283464566
20
1.572948937007874
11
1.0425984251968503
21
1.5728740157480314
0
LINE
8
BLACK
6
CONTINUOUS
10
1.0425984251968503
20
1.5728740157480314
11
1.0422217716535433
21
1.572948937007874
0
LINE
8
BLACK
6
CONTINUOUS
10
1.0422217716535433
20
1.572948937007874
11
1.0416890944881889
21
1.5734816141732284
0
LINE
8
BLACK
6
CONTINUOUS
10
1.0416890944881889
20
1.5734816141732284
11
1.0416141732283464
21
1.7061417322834644
0
LINE
8
BLACK
6
CONTINUOUS
10
1.0416141732283464
20
1.7061417322834644
11
1.0416890944881889
21
1.7065183858267716
0
LINE
8
BLACK
6
CONTINUOUS
10
1.0416890944881889
20
1.7065183858267716
11
1.0422217716535433
21
1.7070510629921261
0
LINE
8
BLACK
6
CONTINUOUS
10
1.0422217716535433
20
1.7070510629921261
11
1.1174015748031496
21
1.7071259842519684
0
LINE
8
BLACK
6
CONTINUOUS
10
1.1174015748031496
20
1.7071259842519684
11
1.1177782283464566
21
1.7070510629921261
0
LINE
8
BLACK
6
CONTINUOUS
10
1.0435085039370078
20
1.7051584251968503
11
1.0435821259842519
21
1.5747689763779527
0
LINE
8
BLACK
6
CONTINUOUS
10
1.0435821259842519
20
1.5747689763779527
11
1.1164914566929134
21
1.5748416141732282
0
LINE
8
BLACK
6
CONTINUOUS
10
1.1164914566929134
20
1.5748416141732282
11
1.1164178346456692
21
1.7052310629921259
0
LINE
8
BLACK
6
CONTINUOUS
10
1.1164178346456692
20
1.7052310629921259
11
1.0435085039370078
21
1.7051584251968503
0
LINE
8
BLACK
6
CONTINUOUS
10
0.9937782283464567
20
1.7530510629921259
11
0.994310905511811
21
1.7525183858267717
0
LINE
8
BLACK
6
CONTINUOUS
10
0.994310905511811
20
1.7525183858267717
11
0.9943858267716535
21
1.6198582677165354
0
LINE
8
BLACK
6
CONTINUOUS
10
0.9943858267716535
20
1.6198582677165354
11
0.994310905511811
21
1.6194816141732282
0
LINE
8
BLACK
6
CONTINUOUS
10
0.994310905511811
20
1.6194816141732282
11
0.9937782283464567
21
1.618948937007874
0
LINE
8
BLACK
6
CONTINUOUS
10
0.9937782283464567
20
1.618948937007874
11
0.9185984251968504
21
1.6188740157480315
0
LINE
8
BLACK
6
CONTINUOUS
10
0.9185984251968504
20
1.6188740157480315
11
0.9182217716535432
21
1.618948937007874
0
LINE
8
BLACK
6
CONTINUOUS
10
0.9182217716535432
20
1.618948937007874
11
0.9176890944881889
21
1.6194816141732282
0
LINE
8
BLACK
6
CONTINUOUS
10
0.9176890944881889
20
1.6194816141732282
11
0.9176141732283465
21
1.7521417322834645
0
LINE
8
BLACK
6
CONTINUOUS
10
0.9176141732283465
20
1.7521417322834645
11
0.9176890944881889
21
1.7525183858267717
0
LINE
8
BLACK
6
CONTINUOUS
10
0.9176890944881889
20
1.7525183858267717
11
0.9182217716535432
21
1.7530510629921259
0
LINE
8
BLACK
6
CONTINUOUS
10
0.9182217716535432
20
1.7530510629921259
11
0.9934015748031496
21
1.7531259842519684
0
LINE
8
BLACK
6
CONTINUOUS
10
0.9934015748031496
20
1.7531259842519684
11
0.9937782283464567
21
1.7530510629921259
0
LINE
8
BLACK
6
CONTINUOUS
10
0.9195085039370079
20
1.7511584251968504
11
0.9195821259842519
21
1.6207689763779527
0
LINE
8
BLACK
6
CONTINUOUS
10
0.9195821259842519
20
1.6207689763779527
11
0.9924914566929134
21
1.6208416141732283
0
LINE
8
BLACK
6
CONTINUOUS
10
0.9924914566929134
20
1.6208416141732283
11
0.9924178346456692
21
1.7512310629921259
0
LINE
8
BLACK
6
CONTINUOUS
10
0.9924178346456692
20
1.7512310629921259
11
0.9195085039370079
21
1.7511584251968504
0
LINE
8
BLACK
6
CONTINUOUS
10
2.0864593307086614
20
1.7667361023622046
11
2.0869920078740156
21
1.7662034251968504
0
LINE
8
BLACK
6
CONTINUOUS
10
2.0869920078740156
20
1.7662034251968504
11
2.0870669291338584
21
1.6319685039370078
0
LINE
8
BLACK
6
CONTINUOUS
10
2.0870669291338584
20
1.6319685039370078
11
2.0869920078740156
21
1.6315918503937008
0
LINE
8
BLACK
6
CONTINUOUS
10
2.0869920078740156
20
1.6315918503937008
11
2.0864593307086614
21
1.6310591732283464
0
LINE
8
BLACK
6
CONTINUOUS
10
2.0864593307086614
20
1.6310591732283464
11
2.0089173228346455
21
1.6309842519685038
0
LINE
8
BLACK
6
CONTINUOUS
10
2.0089173228346455
20
1.6309842519685038
11
2.0085406692913383
21
1.6310591732283464
0
LINE
8
BLACK
6
CONTINUOUS
10
2.0085406692913383
20
1.6310591732283464
11
2.0080079921259841
21
1.6315918503937008
0
LINE
8
BLACK
6
CONTINUOUS
10
2.0080079921259841
20
1.6315918503937008
11
2.0079330708661418
21
1.7658267716535432
0
LINE
8
BLACK
6
CONTINUOUS
10
2.0079330708661418
20
1.7658267716535432
11
2.0080079921259841
21
1.7662034251968504
0
LINE
8
BLACK
6
CONTINUOUS
10
2.0080079921259841
20
1.7662034251968504
11
2.0085406692913383
21
1.7667361023622046
0
LINE
8
BLACK
6
CONTINUOUS
10
2.0085406692913383
20
1.7667361023622046
11
2.0860826771653542
21
1.7668110236220471
0
LINE
8
BLACK
6
CONTINUOUS
10
2.0860826771653542
20
1.7668110236220471
11
2.0864593307086614
21
1.7667361023622046
0
LINE
8
BLACK
6
CONTINUOUS
10
2.0098274015748032
20
1.7648434251968503
11
2.0099010629921259
21
1.6328791732283465
0
LINE
8
BLACK
6
CONTINUOUS
10
2.0099010629921259
20
1.6328791732283465
11
2.0851725590551182
21
1.6329518897637796
0
LINE
8
BLACK
6
CONTINUOUS
10
2.0851725590551182
20
1.6329518897637796
11
2.0850988976377951
21
1.7649161417322834
0
LINE
8
BLACK
6
CONTINUOUS
10
2.0850988976377951
20
1.7649161417322834
11
2.0098274015748032
21
1.7648434251968503
0
LINE
8
BLACK
6
CONTINUOUS
10
1.7445498818897638
20
1.9347675984251969
11
1.745082559055118
21
1.9342349212598424
0
LINE
8
BLACK
6
CONTINUOUS
10
1.745082559055118
20
1.9342349212598424
11
1.7451574803149605
21
1.6661417322834646
0
LINE
8
BLACK
6
CONTINUOUS
10
1.7451574803149605
20
1.6661417322834646
11
1.745082559055118
21
1.6657650787401574
0
LINE
8
BLACK
6
CONTINUOUS
10
1.745082559055118
20
1.6657650787401574
11
1.7445498818897638
21
1.665232401574803
0
LINE
8
BLACK
6
CONTINUOUS
10
1.7445498818897638
20
1.665232401574803
11
1.5158267716535432
21
1.6651574803149607
0
LINE
8
BLACK
6
CONTINUOUS
10
1.5158267716535432
20
1.6651574803149607
11
1.5154501181102362
21
1.665232401574803
0
LINE
8
BLACK
6
CONTINUOUS
10
1.5154501181102362
20
1.665232401574803
11
1.5149174409448818
21
1.6657650787401574
0
LINE
8
BLACK
6
CONTINUOUS
10
1.5149174409448818
20
1.6657650787401574
11
1.5148425196850392
21
1.9338582677165355
0
LINE
8
BLACK
6
CONTINUOUS
10
1.5148425196850392
20
1.9338582677165355
11
1.5149174409448818
21
1.9342349212598424
0
LINE
8
BLACK
6
CONTINUOUS
10
1.5149174409448818
20
1.9342349212598424
11
1.5154501181102362
21
1.9347675984251969
0
LINE
8
BLACK
6
CONTINUOUS
10
1.5154501181102362
20
1.9347675984251969
11
1.7441732283464566
21
1.9348425196850394
0
LINE
8
BLACK
6
CONTINUOUS
10
1.7441732283464566
20
1.9348425196850394
11
1.7445498818897638
21
1.9347675984251969
0
LINE
8
BLACK
6
CONTINUOUS
10
1.5167364566929133
20
1.9328743307086613
11
1.5168107480314961
21
1.6670515354330708
0
LINE
8
BLACK
6
CONTINUOUS
10
1.5168107480314961
20
1.6670515354330708
11
1.7432635039370079
21
1.6671257086614173
0
LINE
8
BLACK
6
CONTINUOUS
10
1.7432635039370079
20
1.6671257086614173
11
1.7431892125984252
21
1.9329485039370078
0
LINE
8
BLACK
6
CONTINUOUS
10
1.7431892125984252
20
1.9329485039370078
11
1.5167364566929133
21
1.9328743307086613
0
LINE
8
BLACK
6
CONTINUOUS
10
0.6025183858267716
20
1.8113109055118111
11
0.603051062992126
21
1.8107782283464566
0
LINE
8
BLACK
6
CONTINUOUS
10
0.603051062992126
20
1.8107782283464566
11
0.6031259842519685
21
1.7355984251968504
0
LINE
8
BLACK
6
CONTINUOUS
10
0.6031259842519685
20
1.7355984251968504
11
0.603051062992126
21
1.7352217716535432
0
LINE
8
BLACK
6
CONTINUOUS
10
0.603051062992126
20
1.7352217716535432
11
0.6025183858267716
21
1.734689094488189
0
LINE
8
BLACK
6
CONTINUOUS
10
0.6025183858267716
20
1.734689094488189
11
0.4698582677165354
21
1.7346141732283464
0
LINE
8
BLACK
6
CONTINUOUS
10
0.4698582677165354
20
1.7346141732283464
11
0.4694816141732283
21
1.734689094488189
0
LINE
8
BLACK
6
CONTINUOUS
10
0.4694816141732283
20
1.734689094488189
11
0.468948937007874
21
1.7352217716535432
0
LINE
8
BLACK
6
CONTINUOUS
10
0.468948937007874
20
1.7352217716535432
11
0.4688740157480315
21
1.8104015748031497
0
LINE
8
BLACK
6
CONTINUOUS
10
0.4688740157480315
20
1.8104015748031497
11
0.468948937007874
21
1.8107782283464566
0
LINE
8
BLACK
6
CONTINUOUS
10
0.468948937007874
20
1.8107782283464566
11
0.4694816141732283
21
1.8113109055118111
0
LINE
8
BLACK
6
CONTINUOUS
10
0.4694816141732283
20
1.8113109055118111
11
0.6021417322834646
21
1.8113858267716536
0
LINE
8
BLACK
6
CONTINUOUS
10
0.6021417322834646
20
1.8113858267716536
11
0.6025183858267716
21
1.8113109055118111
0
LINE
8
BLACK
6
CONTINUOUS
10
0.470768937007874
20
1.8094178740157481
11
0.4708415748031496
21
1.7365085433070866
0
LINE
8
BLACK
6
CONTINUOUS
10
0.4708415748031496
20
1.7365085433070866
11
0.6012310236220473
21
1.7365821653543307
0
LINE
8
BLACK
6
CONTINUOUS
10
0.6012310236220473
20
1.7365821653543307
11
0.6011583858267716
21
1.809491496062992
0
LINE
8
BLACK
6
CONTINUOUS
10
0.6011583858267716
20
1.809491496062992
11
0.470768937007874
21
1.8094178740157481
0
LINE
8
BLACK
6
CONTINUOUS
10
2.3942349212598426
20
1.965082559055118
11
2.3947675984251968
21
1.9645498818897638
0
LINE
8
BLACK
6
CONTINUOUS
10
2.3947675984251968
20
1.9645498818897638
11
2.3948425196850391
21
1.7358267716535434
0
LINE
8
BLACK
6
CONTINUOUS
10
2.3948425196850391
20
1.7358267716535434
11
2.3947675984251968
21
1.7354501181102362
0
LINE
8
BLACK
6
CONTINUOUS
10
2.3947675984251968
20
1.7354501181102362
11
2.3942349212598426
21
1.7349174409448818
0
LINE
8
BLACK
6
CONTINUOUS
10
2.3942349212598426
20
1.7349174409448818
11
2.1261417322834646
21
1.7348425196850394
0
LINE
8
BLACK
6
CONTINUOUS
10
2.1261417322834646
20
1.7348425196850394
11
2.1257650787401574
21
1.7349174409448818
0
LINE
8
BLACK
6
CONTINUOUS
10
2.1257650787401574
20
1.7349174409448818
11
2.1252324015748032
21
1.7354501181102362
0
LINE
8
BLACK
6
CONTINUOUS
10
2.1252324015748032
20
1.7354501181102362
11
2.1251574803149604
21
1.9641732283464566
0
LINE
8
BLACK
6
CONTINUOUS
10
2.1251574803149604
20
1.9641732283464566
11
2.1252324015748032
21
1.9645498818897638
0
LINE
8
BLACK
6
CONTINUOUS
10
2.1252324015748032
20
1.9645498818897638
11
2.1257650787401574
21
1.965082559055118
0
LINE
8
BLACK
6
CONTINUOUS
10
2.1257650787401574
20
1.965082559055118
11
2.3938582677165354
21
1.9651574803149605
0
LINE
8
BLACK
6
CONTINUOUS
10
2.3938582677165354
20
1.9651574803149605
11
2.3942349212598426
21
1.965082559055118
0
LINE
8
BLACK
6
CONTINUOUS
10
2.1270514960629923
20
1.9631892519685039
11
2.1271256692913387
21
1.7367364960629921
0
LINE
8
BLACK
6
CONTINUOUS
10
2.1271256692913387
20
1.7367364960629921
11
2.392948464566929
21
1.7368107874015748
0
LINE
8
BLACK
6
CONTINUOUS
10
2.392948464566929
20
1.7368107874015748
11
2.3928742913385825
21
1.9632635433070866
0
LINE
8
BLACK
6
CONTINUOUS
10
2.3928742913385825
20
1.9632635433070866
11
2.1270514960629923
21
1.9631892519685039
0
LINE
8
BLACK
6
CONTINUOUS
10
0.9123057874015748
20
2.0194920078740157
11
0.9128384645669291
21
2.0189593307086615
0
LINE
8
BLACK
6
CONTINUOUS
10
0.9128384645669291
20
2.0189593307086615
11
0.9129133858267716
21
1.9414173228346456
0
LINE
8
BLACK
6
CONTINUOUS
10
0.9129133858267716
20
1.9414173228346456
11
0.9128384645669291
21
1.9410406692913384
0
LINE
8
BLACK
6
CONTINUOUS
10
0.9128384645669291
20
1.9410406692913384
11
0.9123057874015748
21
1.9405079921259842
0
LINE
8
BLACK
6
CONTINUOUS
10
0.9123057874015748
20
1.9405079921259842
11
0.7780708661417323
21
1.9404330708661417
0
LINE
8
BLACK
6
CONTINUOUS
10
0.7780708661417323
20
1.9404330708661417
11
0.7776942125984252
21
1.9405079921259842
0
LINE
8
BLACK
6
CONTINUOUS
10
0.7776942125984252
20
1.9405079921259842
11
0.7771615354330709
21
1.9410406692913384
0
LINE
8
BLACK
6
CONTINUOUS
10
0.7771615354330709
20
1.9410406692913384
11
0.7770866141732283
21
2.0185826771653543
0
LINE
8
BLACK
6
CONTINUOUS
10
0.7770866141732283
20
2.0185826771653543
11
0.7771615354330709
21
2.0189593307086615
0
LINE
8
BLACK
6
CONTINUOUS
10
0.7771615354330709
20
2.0189593307086615
11
0.7776942125984252
21
2.0194920078740157
0
LINE
8
BLACK
6
CONTINUOUS
10
0.7776942125984252
20
2.0194920078740157
11
0.9119291338582677
21
2.019566929133858
0
LINE
8
BLACK
6
CONTINUOUS
10
0.9119291338582677
20
2.019566929133858
11
0.9123057874015748
21
2.0194920078740157
0
LINE
8
BLACK
6
CONTINUOUS
10
0.7789814960629922
20
2.017598937007874
11
0.7790542125984252
21
1.9423274409448819
0
LINE
8
BLACK
6
CONTINUOUS
10
0.7790542125984252
20
1.9423274409448819
11
0.9110184645669291
21
1.9424011023622048
0
LINE
8
BLACK
6
CONTINUOUS
10
0.9110184645669291
20
1.9424011023622048
11
0.9109457480314961
21
2.0176725984251966
0
LINE
8
BLACK
6
CONTINUOUS
10
0.9109457480314961
20
2.0176725984251966
11
0.7789814960629922
21
2.017598937007874
0
LINE
8
BLACK
6
CONTINUOUS
10
0.9113057874015748
20
2.1014920078740156
11
0.9118384645669291
21
2.1009593307086614
0
LINE
8
BLACK
6
CONTINUOUS
10
0.9118384645669291
20
2.1009593307086614
11
0.9119133858267716
21
2.0234173228346455
0
LINE
8
BLACK
6
CONTINUOUS
10
0.9119133858267716
20
2.0234173228346455
11
0.9118384645669291
21
2.0230406692913387
0
LINE
8
BLACK
6
CONTINUOUS
10
0.9118384645669291
20
2.0230406692913387
11
0.9113057874015748
21
2.0225079921259841
0
LINE
8
BLACK
6
CONTINUOUS
10
0.9113057874015748
20
2.0225079921259841
11
0.7770708661417323
21
2.0224330708661418
0
LINE
8
BLACK
6
CONTINUOUS
10
0.7770708661417323
20
2.0224330708661418
11
0.7766942125984252
21
2.0225079921259841
0
LINE
8
BLACK
6
CONTINUOUS
10
0.7766942125984252
20
2.0225079921259841
11
0.7761615354330709
21
2.0230406692913387
0
LINE
8
BLACK
6
CONTINUOUS
10
0.7761615354330709
20
2.0230406692913387
11
0.7760866141732283
21
2.1005826771653542
0
LINE
8
BLACK
6
CONTINUOUS
10
0.7760866141732283
20
2.1005826771653542
11
0.7761615354330709
21
2.1009593307086614
0
LINE
8
BLACK
6
CONTINUOUS
10
0.7761615354330709
20
2.1009593307086614
11
0.7766942125984252
21
2.1014920078740156
0
LINE
8
BLACK
6
CONTINUOUS
10
0.7766942125984252
20
2.1014920078740156
11
0.9109291338582677
21
2.1015669291338583
0
LINE
8
BLACK
6
CONTINUOUS
10
0.9109291338582677
20
2.1015669291338583
11
0.9113057874015748
21
2.1014920078740156
0
LINE
8
BLACK
6
CONTINUOUS
10
0.7779814960629922
20
2.0995989370078738
11
0.7780542125984252
21
2.0243274409448819
0
LINE
8
BLACK
6
CONTINUOUS
10
0.7780542125984252
20
2.0243274409448819
11
0.9100184645669291
21
2.0244011023622046
0
LINE
8
BLACK
6
CONTINUOUS
10
0.9100184645669291
20
2.0244011023622046
11
0.9099457480314961
21
2.0996725984251969
0
LINE
8
BLACK
6
CONTINUOUS
10
0.9099457480314961
20
2.0996725984251969
11
0.7779814960629922
21
2.0995989370078738
0
LINE
8
BLACK
6
CONTINUOUS
10
2.0295183858267718
20
2.372310905511811
11
2.030051062992126
21
2.3717782283464568
0
LINE
8
BLACK
6
CONTINUOUS
10
2.030051062992126
20
2.3717782283464568
11
2.0301259842519683
21
2.2965984251968505
0
LINE
8
BLACK
6
CONTINUOUS
10
2.0301259842519683
20
2.2965984251968505
11
2.030051062992126
21
2.2962217716535434
0
LINE
8
BLACK
6
CONTINUOUS
10
2.030051062992126
20
2.2962217716535434
11
2.0295183858267718
21
2.2956890944881891
0
LINE
8
BLACK
6
CONTINUOUS
10
2.0295183858267718
20
2.2956890944881891
11
1.8968582677165353
21
2.2956141732283464
0
LINE
8
BLACK
6
CONTINUOUS
10
1.8968582677165353
20
2.2956141732283464
11
1.8964816141732284
21
2.2956890944881891
0
LINE
8
BLACK
6
CONTINUOUS
10
1.8964816141732284
20
2.2956890944881891
11
1.8959489370078739
21
2.2962217716535434
0
LINE
8
BLACK
6
CONTINUOUS
10
1.8959489370078739
20
2.2962217716535434
11
1.8958740157480314
21
2.3714015748031496
0
LINE
8
BLACK
6
CONTINUOUS
10
1.8958740157480314
20
2.3714015748031496
11
1.8959489370078739
21
2.3717782283464568
0
LINE
8
BLACK
6
CONTINUOUS
10
1.8959489370078739
20
2.3717782283464568
11
1.8964816141732284
21
2.372310905511811
0
LINE
8
BLACK
6
CONTINUOUS
10
1.8964816141732284
20
2.372310905511811
11
2.0291417322834646
21
2.3723858267716533
0
LINE
8
BLACK
6
CONTINUOUS
10
2.0291417322834646
20
2.3723858267716533
11
2.0295183858267718
21
2.372310905511811
0
LINE
8
BLACK
6
CONTINUOUS
10
1.8977689370078741
20
2.370417874015748
11
1.8978415748031496
21
2.2975085433070865
0
LINE
8
BLACK
6
CONTINUOUS
10
1.8978415748031496
20
2.2975085433070865
11
2.0282310236220473
21
2.2975821653543305
0
LINE
8
BLACK
6
CONTINUOUS
10
2.0282310236220473
20
2.2975821653543305
11
2.0281583858267718
21
2.3704914960629919
0
LINE
8
BLACK
6
CONTINUOUS
10
2.0281583858267718
20
2.3704914960629919
11
1.8977689370078741
21
2.370417874015748
  0
ENDSEC
  0
EOF
