  0
SECTION
  2
HEADER
  9
$ANGBASE
  50
0.0
  9
$ANGDIR
  70
1
  9
$MEASUREMENT
  70
0
  0
ENDSEC
  0
SECTION
  2
TABLES
  0
TABLE
  2
LTYPE
  70
4
  0
LTYPE
  5
40F
  2
CONTINUOUS
  70
0
  3
Solid line
  72
65
  73
0
  40
0.0
  0
LTYPE
  5
410
  2
DASHDOT
 70
0
  3
Dash Dot ____ _ ____ _
 72
65
 73
4
 40
2.0
 49
1.25
 49
-0.25
 49
0.25
 49
-0.25
  0
LTYPE
  5
411
  2
DASHED
 70
0
  3
Dashed __ __ __ __ __
 72
65
 73
2
 40
0.75
 49
0.5
 49
-0.25
  0
LTYPE
  5
43B
  2
DOTTED
 70
0
  3
Dotted .  .  .  .
 72
65
 73
2
 40
0.2
 49
0.0
 49
-0.2
  0
ENDTAB
  0
TABLE
  2
STYLE
  70
4
  0
STYLE
  2
KICAD
  70
0
  40
0
  41
1
  42
1
  50
0
  71
0
  3
isocp.shx
  0
STYLE
  2
KICADB
  70
0
  40
0
  41
1
  42
1
  50
0
  71
0
  3
isocp.shx
  0
STYLE
  2
KICADI
  70
0
  40
0
  41
1
  42
1
  50
15
  71
0
  3
isocp.shx
  0
STYLE
  2
KICADBI
  70
0
  40
0
  41
1
  42
1
  50
15
  71
0
  3
isocp.shx
  0
ENDTAB
  0
TABLE
  2
LAYER
  70
1
  0
LAYER
  2
BLACK
  70
0
  62
7
  6
CONTINUOUS
  0
ENDTAB
  0
ENDSEC
  0
SECTION
  2
ENTITIES
0
LINE
8
BLACK
6
CONTINUOUS
10
4.5011287795275585
20
-5.7382688976377949
11
4.5043219291338579
21
-5.7404024803149607
0
LINE
8
BLACK
6
CONTINUOUS
10
4.5043219291338579
20
-5.7404024803149607
11
4.5064555118110237
21
-5.74359562992126
0
LINE
8
BLACK
6
CONTINUOUS
10
4.5064555118110237
20
-5.74359562992126
11
4.5072047244094486
21
-5.7473622047244097
0
LINE
8
BLACK
6
CONTINUOUS
10
4.5072047244094486
20
-5.7473622047244097
11
4.5072047244094486
21
-5.7847637795275588
0
LINE
8
BLACK
6
CONTINUOUS
10
4.5072047244094486
20
-5.7847637795275588
11
4.5064555118110237
21
-5.7885303543307085
0
LINE
8
BLACK
6
CONTINUOUS
10
4.5064555118110237
20
-5.7885303543307085
11
4.5043219291338579
21
-5.7917235039370079
0
LINE
8
BLACK
6
CONTINUOUS
10
4.5043219291338579
20
-5.7917235039370079
11
4.5011287795275585
21
-5.7938570866141728
0
LINE
8
BLACK
6
CONTINUOUS
10
4.5011287795275585
20
-5.7938570866141728
11
4.4973622047244097
21
-5.7946062992125986
0
LINE
8
BLACK
6
CONTINUOUS
10
4.4973622047244097
20
-5.7946062992125986
11
4.477677165354331
21
-5.7946062992125986
0
LINE
8
BLACK
6
CONTINUOUS
10
4.477677165354331
20
-5.7946062992125986
11
4.4739105905511813
21
-5.7938570866141728
0
LINE
8
BLACK
6
CONTINUOUS
10
4.4739105905511813
20
-5.7938570866141728
11
4.470717440944882
21
-5.7917235039370079
0
LINE
8
BLACK
6
CONTINUOUS
10
4.470717440944882
20
-5.7917235039370079
11
4.4685838582677162
21
-5.7885303543307085
0
LINE
8
BLACK
6
CONTINUOUS
10
4.4685838582677162
20
-5.7885303543307085
11
4.4678346456692912
21
-5.7847637795275588
0
LINE
8
BLACK
6
CONTINUOUS
10
4.4678346456692912
20
-5.7847637795275588
11
4.4678346456692912
21
-5.7473622047244097
0
LINE
8
BLACK
6
CONTINUOUS
10
4.4678346456692912
20
-5.7473622047244097
11
4.4685838582677162
21
-5.74359562992126
0
LINE
8
BLACK
6
CONTINUOUS
10
4.4685838582677162
20
-5.74359562992126
11
4.470717440944882
21
-5.7404024803149607
0
LINE
8
BLACK
6
CONTINUOUS
10
4.470717440944882
20
-5.7404024803149607
11
4.4739105905511813
21
-5.7382688976377949
0
LINE
8
BLACK
6
CONTINUOUS
10
4.4739105905511813
20
-5.7382688976377949
11
4.477677165354331
21
-5.7375196850393699
0
LINE
8
BLACK
6
CONTINUOUS
10
4.477677165354331
20
-5.7375196850393699
11
4.4973622047244097
21
-5.7375196850393699
0
LINE
8
BLACK
6
CONTINUOUS
10
4.4973622047244097
20
-5.7375196850393699
11
4.5011287795275585
21
-5.7382688976377949
0
LINE
8
BLACK
6
CONTINUOUS
10
4.5759319291338585
20
-5.7382688976377949
11
4.579125078740157
21
-5.7404024803149607
0
LINE
8
BLACK
6
CONTINUOUS
10
4.579125078740157
20
-5.7404024803149607
11
4.5812586614173227
21
-5.74359562992126
0
LINE
8
BLACK
6
CONTINUOUS
10
4.5812586614173227
20
-5.74359562992126
11
4.5820078740157477
21
-5.7473622047244097
0
LINE
8
BLACK
6
CONTINUOUS
10
4.5820078740157477
20
-5.7473622047244097
11
4.5820078740157477
21
-5.7847637795275588
0
LINE
8
BLACK
6
CONTINUOUS
10
4.5820078740157477
20
-5.7847637795275588
11
4.5812586614173227
21
-5.7885303543307085
0
LINE
8
BLACK
6
CONTINUOUS
10
4.5812586614173227
20
-5.7885303543307085
11
4.579125078740157
21
-5.7917235039370079
0
LINE
8
BLACK
6
CONTINUOUS
10
4.579125078740157
20
-5.7917235039370079
11
4.5759319291338585
21
-5.7938570866141728
0
LINE
8
BLACK
6
CONTINUOUS
10
4.5759319291338585
20
-5.7938570866141728
11
4.5721653543307088
21
-5.7946062992125986
0
LINE
8
BLACK
6
CONTINUOUS
10
4.5721653543307088
20
-5.7946062992125986
11
4.5524803149606301
21
-5.7946062992125986
0
LINE
8
BLACK
6
CONTINUOUS
10
4.5524803149606301
20
-5.7946062992125986
11
4.5487137401574804
21
-5.7938570866141728
0
LINE
8
BLACK
6
CONTINUOUS
10
4.5487137401574804
20
-5.7938570866141728
11
4.5455205905511811
21
-5.7917235039370079
0
LINE
8
BLACK
6
CONTINUOUS
10
4.5455205905511811
20
-5.7917235039370079
11
4.5433870078740153
21
-5.7885303543307085
0
LINE
8
BLACK
6
CONTINUOUS
10
4.5433870078740153
20
-5.7885303543307085
11
4.5426377952755903
21
-5.7847637795275588
0
LINE
8
BLACK
6
CONTINUOUS
10
4.5426377952755903
20
-5.7847637795275588
11
4.5426377952755903
21
-5.7473622047244097
0
LINE
8
BLACK
6
CONTINUOUS
10
4.5426377952755903
20
-5.7473622047244097
11
4.5433870078740153
21
-5.74359562992126
0
LINE
8
BLACK
6
CONTINUOUS
10
4.5433870078740153
20
-5.74359562992126
11
4.5455205905511811
21
-5.7404024803149607
0
LINE
8
BLACK
6
CONTINUOUS
10
4.5455205905511811
20
-5.7404024803149607
11
4.5487137401574804
21
-5.7382688976377949
0
LINE
8
BLACK
6
CONTINUOUS
10
4.5487137401574804
20
-5.7382688976377949
11
4.5524803149606301
21
-5.7375196850393699
0
LINE
8
BLACK
6
CONTINUOUS
10
4.5524803149606301
20
-5.7375196850393699
11
4.5721653543307088
21
-5.7375196850393699
0
LINE
8
BLACK
6
CONTINUOUS
10
4.5721653543307088
20
-5.7375196850393699
11
4.5759319291338585
21
-5.7382688976377949
0
LINE
8
BLACK
6
CONTINUOUS
10
4.5011287795275585
20
-5.6197649606299214
11
4.5043219291338579
21
-5.6218985433070863
0
LINE
8
BLACK
6
CONTINUOUS
10
4.5043219291338579
20
-5.6218985433070863
11
4.5064555118110237
21
-5.6250916929133856
0
LINE
8
BLACK
6
CONTINUOUS
10
4.5064555118110237
20
-5.6250916929133856
11
4.5072047244094486
21
-5.6288582677165353
0
LINE
8
BLACK
6
CONTINUOUS
10
4.5072047244094486
20
-5.6288582677165353
11
4.5072047244094486
21
-5.6662598425196853
0
LINE
8
BLACK
6
CONTINUOUS
10
4.5072047244094486
20
-5.6662598425196853
11
4.5064555118110237
21
-5.6700264173228341
0
LINE
8
BLACK
6
CONTINUOUS
10
4.5064555118110237
20
-5.6700264173228341
11
4.5043219291338579
21
-5.6732195669291334
0
LINE
8
BLACK
6
CONTINUOUS
10
4.5043219291338579
20
-5.6732195669291334
11
4.5011287795275585
21
-5.6753531496062992
0
LINE
8
BLACK
6
CONTINUOUS
10
4.5011287795275585
20
-5.6753531496062992
11
4.4973622047244097
21
-5.6761023622047242
0
LINE
8
BLACK
6
CONTINUOUS
10
4.4973622047244097
20
-5.6761023622047242
11
4.477677165354331
21
-5.6761023622047242
0
LINE
8
BLACK
6
CONTINUOUS
10
4.477677165354331
20
-5.6761023622047242
11
4.4739105905511813
21
-5.6753531496062992
0
LINE
8
BLACK
6
CONTINUOUS
10
4.4739105905511813
20
-5.6753531496062992
11
4.470717440944882
21
-5.6732195669291334
0
LINE
8
BLACK
6
CONTINUOUS
10
4.470717440944882
20
-5.6732195669291334
11
4.4685838582677162
21
-5.6700264173228341
0
LINE
8
BLACK
6
CONTINUOUS
10
4.4685838582677162
20
-5.6700264173228341
11
4.4678346456692912
21
-5.6662598425196853
0
LINE
8
BLACK
6
CONTINUOUS
10
4.4678346456692912
20
-5.6662598425196853
11
4.4678346456692912
21
-5.6288582677165353
0
LINE
8
BLACK
6
CONTINUOUS
10
4.4678346456692912
20
-5.6288582677165353
11
4.4685838582677162
21
-5.6250916929133856
0
LINE
8
BLACK
6
CONTINUOUS
10
4.4685838582677162
20
-5.6250916929133856
11
4.470717440944882
21
-5.6218985433070863
0
LINE
8
BLACK
6
CONTINUOUS
10
4.470717440944882
20
-5.6218985433070863
11
4.4739105905511813
21
-5.6197649606299214
0
LINE
8
BLACK
6
CONTINUOUS
10
4.4739105905511813
20
-5.6197649606299214
11
4.477677165354331
21
-5.6190157480314955
0
LINE
8
BLACK
6
CONTINUOUS
10
4.477677165354331
20
-5.6190157480314955
11
4.4973622047244097
21
-5.6190157480314955
0
LINE
8
BLACK
6
CONTINUOUS
10
4.4973622047244097
20
-5.6190157480314955
11
4.5011287795275585
21
-5.6197649606299214
0
LINE
8
BLACK
6
CONTINUOUS
10
4.5759319291338585
20
-5.6197649606299214
11
4.579125078740157
21
-5.6218985433070863
0
LINE
8
BLACK
6
CONTINUOUS
10
4.579125078740157
20
-5.6218985433070863
11
4.5812586614173227
21
-5.6250916929133856
0
LINE
8
BLACK
6
CONTINUOUS
10
4.5812586614173227
20
-5.6250916929133856
11
4.5820078740157477
21
-5.6288582677165353
0
LINE
8
BLACK
6
CONTINUOUS
10
4.5820078740157477
20
-5.6288582677165353
11
4.5820078740157477
21
-5.6662598425196853
0
LINE
8
BLACK
6
CONTINUOUS
10
4.5820078740157477
20
-5.6662598425196853
11
4.5812586614173227
21
-5.6700264173228341
0
LINE
8
BLACK
6
CONTINUOUS
10
4.5812586614173227
20
-5.6700264173228341
11
4.579125078740157
21
-5.6732195669291334
0
LINE
8
BLACK
6
CONTINUOUS
10
4.579125078740157
20
-5.6732195669291334
11
4.5759319291338585
21
-5.6753531496062992
0
LINE
8
BLACK
6
CONTINUOUS
10
4.5759319291338585
20
-5.6753531496062992
11
4.5721653543307088
21
-5.6761023622047242
0
LINE
8
BLACK
6
CONTINUOUS
10
4.5721653543307088
20
-5.6761023622047242
11
4.5524803149606301
21
-5.6761023622047242
0
LINE
8
BLACK
6
CONTINUOUS
10
4.5524803149606301
20
-5.6761023622047242
11
4.5487137401574804
21
-5.6753531496062992
0
LINE
8
BLACK
6
CONTINUOUS
10
4.5487137401574804
20
-5.6753531496062992
11
4.5455205905511811
21
-5.6732195669291334
0
LINE
8
BLACK
6
CONTINUOUS
10
4.5455205905511811
20
-5.6732195669291334
11
4.5433870078740153
21
-5.6700264173228341
0
LINE
8
BLACK
6
CONTINUOUS
10
4.5433870078740153
20
-5.6700264173228341
11
4.5426377952755903
21
-5.6662598425196853
0
LINE
8
BLACK
6
CONTINUOUS
10
4.5426377952755903
20
-5.6662598425196853
11
4.5426377952755903
21
-5.6288582677165353
0
LINE
8
BLACK
6
CONTINUOUS
10
4.5426377952755903
20
-5.6288582677165353
11
4.5433870078740153
21
-5.6250916929133856
0
LINE
8
BLACK
6
CONTINUOUS
10
4.5433870078740153
20
-5.6250916929133856
11
4.5455205905511811
21
-5.6218985433070863
0
LINE
8
BLACK
6
CONTINUOUS
10
4.5455205905511811
20
-5.6218985433070863
11
4.5487137401574804
21
-5.6197649606299214
0
LINE
8
BLACK
6
CONTINUOUS
10
4.5487137401574804
20
-5.6197649606299214
11
4.5524803149606301
21
-5.6190157480314955
0
LINE
8
BLACK
6
CONTINUOUS
10
4.5524803149606301
20
-5.6190157480314955
11
4.5721653543307088
21
-5.6190157480314955
0
LINE
8
BLACK
6
CONTINUOUS
10
4.5721653543307088
20
-5.6190157480314955
11
4.5759319291338585
21
-5.6197649606299214
0
LINE
8
BLACK
6
CONTINUOUS
10
4.5011287795275585
20
-5.5012610236220469
11
4.5043219291338579
21
-5.5033946062992127
0
LINE
8
BLACK
6
CONTINUOUS
10
4.5043219291338579
20
-5.5033946062992127
11
4.5064555118110237
21
-5.5065877559055121
0
LINE
8
BLACK
6
CONTINUOUS
10
4.5064555118110237
20
-5.5065877559055121
11
4.5072047244094486
21
-5.5103543307086609
0
LINE
8
BLACK
6
CONTINUOUS
10
4.5072047244094486
20
-5.5103543307086609
11
4.5072047244094486
21
-5.5477559055118109
0
LINE
8
BLACK
6
CONTINUOUS
10
4.5072047244094486
20
-5.5477559055118109
11
4.5064555118110237
21
-5.5515224803149605
0
LINE
8
BLACK
6
CONTINUOUS
10
4.5064555118110237
20
-5.5515224803149605
11
4.5043219291338579
21
-5.5547156299212599
0
LINE
8
BLACK
6
CONTINUOUS
10
4.5043219291338579
20
-5.5547156299212599
11
4.5011287795275585
21
-5.5568492125984248
0
LINE
8
BLACK
6
CONTINUOUS
10
4.5011287795275585
20
-5.5568492125984248
11
4.4973622047244097
21
-5.5575984251968507
0
LINE
8
BLACK
6
CONTINUOUS
10
4.4973622047244097
20
-5.5575984251968507
11
4.477677165354331
21
-5.5575984251968507
0
LINE
8
BLACK
6
CONTINUOUS
10
4.477677165354331
20
-5.5575984251968507
11
4.4739105905511813
21
-5.5568492125984248
0
LINE
8
BLACK
6
CONTINUOUS
10
4.4739105905511813
20
-5.5568492125984248
11
4.470717440944882
21
-5.5547156299212599
0
LINE
8
BLACK
6
CONTINUOUS
10
4.470717440944882
20
-5.5547156299212599
11
4.4685838582677162
21
-5.5515224803149605
0
LINE
8
BLACK
6
CONTINUOUS
10
4.4685838582677162
20
-5.5515224803149605
11
4.4678346456692912
21
-5.5477559055118109
0
LINE
8
BLACK
6
CONTINUOUS
10
4.4678346456692912
20
-5.5477559055118109
11
4.4678346456692912
21
-5.5103543307086609
0
LINE
8
BLACK
6
CONTINUOUS
10
4.4678346456692912
20
-5.5103543307086609
11
4.4685838582677162
21
-5.5065877559055121
0
LINE
8
BLACK
6
CONTINUOUS
10
4.4685838582677162
20
-5.5065877559055121
11
4.470717440944882
21
-5.5033946062992127
0
LINE
8
BLACK
6
CONTINUOUS
10
4.470717440944882
20
-5.5033946062992127
11
4.4739105905511813
21
-5.5012610236220469
0
LINE
8
BLACK
6
CONTINUOUS
10
4.4739105905511813
20
-5.5012610236220469
11
4.477677165354331
21
-5.500511811023622
0
LINE
8
BLACK
6
CONTINUOUS
10
4.477677165354331
20
-5.500511811023622
11
4.4973622047244097
21
-5.500511811023622
0
LINE
8
BLACK
6
CONTINUOUS
10
4.4973622047244097
20
-5.500511811023622
11
4.5011287795275585
21
-5.5012610236220469
0
LINE
8
BLACK
6
CONTINUOUS
10
4.5759319291338585
20
-5.5012610236220469
11
4.579125078740157
21
-5.5033946062992127
0
LINE
8
BLACK
6
CONTINUOUS
10
4.579125078740157
20
-5.5033946062992127
11
4.5812586614173227
21
-5.5065877559055121
0
LINE
8
BLACK
6
CONTINUOUS
10
4.5812586614173227
20
-5.5065877559055121
11
4.5820078740157477
21
-5.5103543307086609
0
LINE
8
BLACK
6
CONTINUOUS
10
4.5820078740157477
20
-5.5103543307086609
11
4.5820078740157477
21
-5.5477559055118109
0
LINE
8
BLACK
6
CONTINUOUS
10
4.5820078740157477
20
-5.5477559055118109
11
4.5812586614173227
21
-5.5515224803149605
0
LINE
8
BLACK
6
CONTINUOUS
10
4.5812586614173227
20
-5.5515224803149605
11
4.579125078740157
21
-5.5547156299212599
0
LINE
8
BLACK
6
CONTINUOUS
10
4.579125078740157
20
-5.5547156299212599
11
4.5759319291338585
21
-5.5568492125984248
0
LINE
8
BLACK
6
CONTINUOUS
10
4.5759319291338585
20
-5.5568492125984248
11
4.5721653543307088
21
-5.5575984251968507
0
LINE
8
BLACK
6
CONTINUOUS
10
4.5721653543307088
20
-5.5575984251968507
11
4.5524803149606301
21
-5.5575984251968507
0
LINE
8
BLACK
6
CONTINUOUS
10
4.5524803149606301
20
-5.5575984251968507
11
4.5487137401574804
21
-5.5568492125984248
0
LINE
8
BLACK
6
CONTINUOUS
10
4.5487137401574804
20
-5.5568492125984248
11
4.5455205905511811
21
-5.5547156299212599
0
LINE
8
BLACK
6
CONTINUOUS
10
4.5455205905511811
20
-5.5547156299212599
11
4.5433870078740153
21
-5.5515224803149605
0
LINE
8
BLACK
6
CONTINUOUS
10
4.5433870078740153
20
-5.5515224803149605
11
4.5426377952755903
21
-5.5477559055118109
0
LINE
8
BLACK
6
CONTINUOUS
10
4.5426377952755903
20
-5.5477559055118109
11
4.5426377952755903
21
-5.5103543307086609
0
LINE
8
BLACK
6
CONTINUOUS
10
4.5426377952755903
20
-5.5103543307086609
11
4.5433870078740153
21
-5.5065877559055121
0
LINE
8
BLACK
6
CONTINUOUS
10
4.5433870078740153
20
-5.5065877559055121
11
4.5455205905511811
21
-5.5033946062992127
0
LINE
8
BLACK
6
CONTINUOUS
10
4.5455205905511811
20
-5.5033946062992127
11
4.5487137401574804
21
-5.5012610236220469
0
LINE
8
BLACK
6
CONTINUOUS
10
4.5487137401574804
20
-5.5012610236220469
11
4.5524803149606301
21
-5.500511811023622
0
LINE
8
BLACK
6
CONTINUOUS
10
4.5524803149606301
20
-5.500511811023622
11
4.5721653543307088
21
-5.500511811023622
0
LINE
8
BLACK
6
CONTINUOUS
10
4.5721653543307088
20
-5.500511811023622
11
4.5759319291338585
21
-5.5012610236220469
0
LINE
8
BLACK
6
CONTINUOUS
10
4.6577392125984254
20
-5.4747502755905515
11
4.6595273622047246
21
-5.4759450787401578
0
LINE
8
BLACK
6
CONTINUOUS
10
4.6595273622047246
20
-5.4759450787401578
11
4.6607221653543309
21
-5.4777332283464562
0
LINE
8
BLACK
6
CONTINUOUS
10
4.6607221653543309
20
-5.4777332283464562
11
4.6611417322834647
21
-5.4798425196850395
0
LINE
8
BLACK
6
CONTINUOUS
10
4.6611417322834647
20
-5.4798425196850395
11
4.6611417322834647
21
-5.4932283464566929
0
LINE
8
BLACK
6
CONTINUOUS
10
4.6611417322834647
20
-5.4932283464566929
11
4.6607221653543309
21
-5.4953376377952754
0
LINE
8
BLACK
6
CONTINUOUS
10
4.6607221653543309
20
-5.4953376377952754
11
4.6595273622047246
21
-5.4971257874015746
0
LINE
8
BLACK
6
CONTINUOUS
10
4.6595273622047246
20
-5.4971257874015746
11
4.6577392125984254
21
-5.4983205905511809
0
LINE
8
BLACK
6
CONTINUOUS
10
4.6577392125984254
20
-5.4983205905511809
11
4.655629921259842
21
-5.4987401574803147
0
LINE
8
BLACK
6
CONTINUOUS
10
4.655629921259842
20
-5.4987401574803147
11
4.6446062992125983
21
-5.4987401574803147
0
LINE
8
BLACK
6
CONTINUOUS
10
4.6446062992125983
20
-5.4987401574803147
11
4.6424970078740158
21
-5.4983205905511809
0
LINE
8
BLACK
6
CONTINUOUS
10
4.6424970078740158
20
-5.4983205905511809
11
4.6407088582677165
21
-5.4971257874015746
0
LINE
8
BLACK
6
CONTINUOUS
10
4.6407088582677165
20
-5.4971257874015746
11
4.6395140551181102
21
-5.4953376377952754
0
LINE
8
BLACK
6
CONTINUOUS
10
4.6395140551181102
20
-5.4953376377952754
11
4.6390944881889764
21
-5.4932283464566929
0
LINE
8
BLACK
6
CONTINUOUS
10
4.6390944881889764
20
-5.4932283464566929
11
4.6390944881889764
21
-5.4798425196850395
0
LINE
8
BLACK
6
CONTINUOUS
10
4.6390944881889764
20
-5.4798425196850395
11
4.6395140551181102
21
-5.4777332283464562
0
LINE
8
BLACK
6
CONTINUOUS
10
4.6395140551181102
20
-5.4777332283464562
11
4.6407088582677165
21
-5.4759450787401578
0
LINE
8
BLACK
6
CONTINUOUS
10
4.6407088582677165
20
-5.4759450787401578
11
4.6424970078740158
21
-5.4747502755905515
0
LINE
8
BLACK
6
CONTINUOUS
10
4.6424970078740158
20
-5.4747502755905515
11
4.6446062992125983
21
-5.4743307086614168
0
LINE
8
BLACK
6
CONTINUOUS
10
4.6446062992125983
20
-5.4743307086614168
11
4.655629921259842
21
-5.4743307086614168
0
LINE
8
BLACK
6
CONTINUOUS
10
4.655629921259842
20
-5.4743307086614168
11
4.6577392125984254
21
-5.4747502755905515
0
LINE
8
BLACK
6
CONTINUOUS
10
4.6955344881889767
20
-5.4747502755905515
11
4.6973226377952759
21
-5.4759450787401578
0
LINE
8
BLACK
6
CONTINUOUS
10
4.6973226377952759
20
-5.4759450787401578
11
4.6985174409448822
21
-5.4777332283464562
0
LINE
8
BLACK
6
CONTINUOUS
10
4.6985174409448822
20
-5.4777332283464562
11
4.698937007874016
21
-5.4798425196850395
0
LINE
8
BLACK
6
CONTINUOUS
10
4.698937007874016
20
-5.4798425196850395
11
4.698937007874016
21
-5.4932283464566929
0
LINE
8
BLACK
6
CONTINUOUS
10
4.698937007874016
20
-5.4932283464566929
11
4.6985174409448822
21
-5.4953376377952754
0
LINE
8
BLACK
6
CONTINUOUS
10
4.6985174409448822
20
-5.4953376377952754
11
4.6973226377952759
21
-5.4971257874015746
0
LINE
8
BLACK
6
CONTINUOUS
10
4.6973226377952759
20
-5.4971257874015746
11
4.6955344881889767
21
-5.4983205905511809
0
LINE
8
BLACK
6
CONTINUOUS
10
4.6955344881889767
20
-5.4983205905511809
11
4.6934251968503933
21
-5.4987401574803147
0
LINE
8
BLACK
6
CONTINUOUS
10
4.6934251968503933
20
-5.4987401574803147
11
4.6824015748031496
21
-5.4987401574803147
0
LINE
8
BLACK
6
CONTINUOUS
10
4.6824015748031496
20
-5.4987401574803147
11
4.680292283464567
21
-5.4983205905511809
0
LINE
8
BLACK
6
CONTINUOUS
10
4.680292283464567
20
-5.4983205905511809
11
4.6785041338582678
21
-5.4971257874015746
0
LINE
8
BLACK
6
CONTINUOUS
10
4.6785041338582678
20
-5.4971257874015746
11
4.6773093307086615
21
-5.4953376377952754
0
LINE
8
BLACK
6
CONTINUOUS
10
4.6773093307086615
20
-5.4953376377952754
11
4.6768897637795277
21
-5.4932283464566929
0
LINE
8
BLACK
6
CONTINUOUS
10
4.6768897637795277
20
-5.4932283464566929
11
4.6768897637795277
21
-5.4798425196850395
0
LINE
8
BLACK
6
CONTINUOUS
10
4.6768897637795277
20
-5.4798425196850395
11
4.6773093307086615
21
-5.4777332283464562
0
LINE
8
BLACK
6
CONTINUOUS
10
4.6773093307086615
20
-5.4777332283464562
11
4.6785041338582678
21
-5.4759450787401578
0
LINE
8
BLACK
6
CONTINUOUS
10
4.6785041338582678
20
-5.4759450787401578
11
4.680292283464567
21
-5.4747502755905515
0
LINE
8
BLACK
6
CONTINUOUS
10
4.680292283464567
20
-5.4747502755905515
11
4.6824015748031496
21
-5.4743307086614168
0
LINE
8
BLACK
6
CONTINUOUS
10
4.6824015748031496
20
-5.4743307086614168
11
4.6934251968503933
21
-5.4743307086614168
0
LINE
8
BLACK
6
CONTINUOUS
10
4.6934251968503933
20
-5.4743307086614168
11
4.6955344881889767
21
-5.4747502755905515
0
LINE
8
BLACK
6
CONTINUOUS
10
4.5011287795275585
20
-5.3827570866141734
11
4.5043219291338579
21
-5.3848906692913383
0
LINE
8
BLACK
6
CONTINUOUS
10
4.5043219291338579
20
-5.3848906692913383
11
4.5064555118110237
21
-5.3880838188976377
0
LINE
8
BLACK
6
CONTINUOUS
10
4.5064555118110237
20
-5.3880838188976377
11
4.5072047244094486
21
-5.3918503937007873
0
LINE
8
BLACK
6
CONTINUOUS
10
4.5072047244094486
20
-5.3918503937007873
11
4.5072047244094486
21
-5.4292519685039373
0
LINE
8
BLACK
6
CONTINUOUS
10
4.5072047244094486
20
-5.4292519685039373
11
4.5064555118110237
21
-5.4330185433070861
0
LINE
8
BLACK
6
CONTINUOUS
10
4.5064555118110237
20
-5.4330185433070861
11
4.5043219291338579
21
-5.4362116929133855
0
LINE
8
BLACK
6
CONTINUOUS
10
4.5043219291338579
20
-5.4362116929133855
11
4.5011287795275585
21
-5.4383452755905513
0
LINE
8
BLACK
6
CONTINUOUS
10
4.5011287795275585
20
-5.4383452755905513
11
4.4973622047244097
21
-5.4390944881889762
0
LINE
8
BLACK
6
CONTINUOUS
10
4.4973622047244097
20
-5.4390944881889762
11
4.477677165354331
21
-5.4390944881889762
0
LINE
8
BLACK
6
CONTINUOUS
10
4.477677165354331
20
-5.4390944881889762
11
4.4739105905511813
21
-5.4383452755905513
0
LINE
8
BLACK
6
CONTINUOUS
10
4.4739105905511813
20
-5.4383452755905513
11
4.470717440944882
21
-5.4362116929133855
0
LINE
8
BLACK
6
CONTINUOUS
10
4.470717440944882
20
-5.4362116929133855
11
4.4685838582677162
21
-5.4330185433070861
0
LINE
8
BLACK
6
CONTINUOUS
10
4.4685838582677162
20
-5.4330185433070861
11
4.4678346456692912
21
-5.4292519685039373
0
LINE
8
BLACK
6
CONTINUOUS
10
4.4678346456692912
20
-5.4292519685039373
11
4.4678346456692912
21
-5.3918503937007873
0
LINE
8
BLACK
6
CONTINUOUS
10
4.4678346456692912
20
-5.3918503937007873
11
4.4685838582677162
21
-5.3880838188976377
0
LINE
8
BLACK
6
CONTINUOUS
10
4.4685838582677162
20
-5.3880838188976377
11
4.470717440944882
21
-5.3848906692913383
0
LINE
8
BLACK
6
CONTINUOUS
10
4.470717440944882
20
-5.3848906692913383
11
4.4739105905511813
21
-5.3827570866141734
0
LINE
8
BLACK
6
CONTINUOUS
10
4.4739105905511813
20
-5.3827570866141734
11
4.477677165354331
21
-5.3820078740157475
0
LINE
8
BLACK
6
CONTINUOUS
10
4.477677165354331
20
-5.3820078740157475
11
4.4973622047244097
21
-5.3820078740157475
0
LINE
8
BLACK
6
CONTINUOUS
10
4.4973622047244097
20
-5.3820078740157475
11
4.5011287795275585
21
-5.3827570866141734
0
LINE
8
BLACK
6
CONTINUOUS
10
4.5759319291338585
20
-5.3827570866141734
11
4.579125078740157
21
-5.3848906692913383
0
LINE
8
BLACK
6
CONTINUOUS
10
4.579125078740157
20
-5.3848906692913383
11
4.5812586614173227
21
-5.3880838188976377
0
LINE
8
BLACK
6
CONTINUOUS
10
4.5812586614173227
20
-5.3880838188976377
11
4.5820078740157477
21
-5.3918503937007873
0
LINE
8
BLACK
6
CONTINUOUS
10
4.5820078740157477
20
-5.3918503937007873
11
4.5820078740157477
21
-5.4292519685039373
0
LINE
8
BLACK
6
CONTINUOUS
10
4.5820078740157477
20
-5.4292519685039373
11
4.5812586614173227
21
-5.4330185433070861
0
LINE
8
BLACK
6
CONTINUOUS
10
4.5812586614173227
20
-5.4330185433070861
11
4.579125078740157
21
-5.4362116929133855
0
LINE
8
BLACK
6
CONTINUOUS
10
4.579125078740157
20
-5.4362116929133855
11
4.5759319291338585
21
-5.4383452755905513
0
LINE
8
BLACK
6
CONTINUOUS
10
4.5759319291338585
20
-5.4383452755905513
11
4.5721653543307088
21
-5.4390944881889762
0
LINE
8
BLACK
6
CONTINUOUS
10
4.5721653543307088
20
-5.4390944881889762
11
4.5524803149606301
21
-5.4390944881889762
0
LINE
8
BLACK
6
CONTINUOUS
10
4.5524803149606301
20
-5.4390944881889762
11
4.5487137401574804
21
-5.4383452755905513
0
LINE
8
BLACK
6
CONTINUOUS
10
4.5487137401574804
20
-5.4383452755905513
11
4.5455205905511811
21
-5.4362116929133855
0
LINE
8
BLACK
6
CONTINUOUS
10
4.5455205905511811
20
-5.4362116929133855
11
4.5433870078740153
21
-5.4330185433070861
0
LINE
8
BLACK
6
CONTINUOUS
10
4.5433870078740153
20
-5.4330185433070861
11
4.5426377952755903
21
-5.4292519685039373
0
LINE
8
BLACK
6
CONTINUOUS
10
4.5426377952755903
20
-5.4292519685039373
11
4.5426377952755903
21
-5.3918503937007873
0
LINE
8
BLACK
6
CONTINUOUS
10
4.5426377952755903
20
-5.3918503937007873
11
4.5433870078740153
21
-5.3880838188976377
0
LINE
8
BLACK
6
CONTINUOUS
10
4.5433870078740153
20
-5.3880838188976377
11
4.5455205905511811
21
-5.3848906692913383
0
LINE
8
BLACK
6
CONTINUOUS
10
4.5455205905511811
20
-5.3848906692913383
11
4.5487137401574804
21
-5.3827570866141734
0
LINE
8
BLACK
6
CONTINUOUS
10
4.5487137401574804
20
-5.3827570866141734
11
4.5524803149606301
21
-5.3820078740157475
0
LINE
8
BLACK
6
CONTINUOUS
10
4.5524803149606301
20
-5.3820078740157475
11
4.5721653543307088
21
-5.3820078740157475
0
LINE
8
BLACK
6
CONTINUOUS
10
4.5721653543307088
20
-5.3820078740157475
11
4.5759319291338585
21
-5.3827570866141734
0
LINE
8
BLACK
6
CONTINUOUS
10
4.6731930708661418
20
-5.3803199606299215
11
4.6760668897637796
21
-5.3822401968503932
0
LINE
8
BLACK
6
CONTINUOUS
10
4.6760668897637796
20
-5.3822401968503932
11
4.6779871259842523
21
-5.3851140157480311
0
LINE
8
BLACK
6
CONTINUOUS
10
4.6779871259842523
20
-5.3851140157480311
11
4.6786614173228349
21
-5.388503937007874
0
LINE
8
BLACK
6
CONTINUOUS
10
4.6786614173228349
20
-5.388503937007874
11
4.6786614173228349
21
-5.4081889763779527
0
LINE
8
BLACK
6
CONTINUOUS
10
4.6786614173228349
20
-5.4081889763779527
11
4.6779871259842523
21
-5.4115788976377948
0
LINE
8
BLACK
6
CONTINUOUS
10
4.6779871259842523
20
-5.4115788976377948
11
4.6760668897637796
21
-5.4144527165354326
0
LINE
8
BLACK
6
CONTINUOUS
10
4.6760668897637796
20
-5.4144527165354326
11
4.6731930708661418
21
-5.4163729527559052
0
LINE
8
BLACK
6
CONTINUOUS
10
4.6731930708661418
20
-5.4163729527559052
11
4.6698031496062988
21
-5.4170472440944879
0
LINE
8
BLACK
6
CONTINUOUS
10
4.6698031496062988
20
-5.4170472440944879
11
4.6520866141732284
21
-5.4170472440944879
0
LINE
8
BLACK
6
CONTINUOUS
10
4.6520866141732284
20
-5.4170472440944879
11
4.6486966929133855
21
-5.4163729527559052
0
LINE
8
BLACK
6
CONTINUOUS
10
4.6486966929133855
20
-5.4163729527559052
11
4.6458228740157477
21
-5.4144527165354326
0
LINE
8
BLACK
6
CONTINUOUS
10
4.6458228740157477
20
-5.4144527165354326
11
4.6439026377952759
21
-5.4115788976377948
0
LINE
8
BLACK
6
CONTINUOUS
10
4.6439026377952759
20
-5.4115788976377948
11
4.6432283464566932
21
-5.4081889763779527
0
LINE
8
BLACK
6
CONTINUOUS
10
4.6432283464566932
20
-5.4081889763779527
11
4.6432283464566932
21
-5.388503937007874
0
LINE
8
BLACK
6
CONTINUOUS
10
4.6432283464566932
20
-5.388503937007874
11
4.6439026377952759
21
-5.3851140157480311
0
LINE
8
BLACK
6
CONTINUOUS
10
4.6439026377952759
20
-5.3851140157480311
11
4.6458228740157477
21
-5.3822401968503932
0
LINE
8
BLACK
6
CONTINUOUS
10
4.6458228740157477
20
-5.3822401968503932
11
4.6486966929133855
21
-5.3803199606299215
0
LINE
8
BLACK
6
CONTINUOUS
10
4.6486966929133855
20
-5.3803199606299215
11
4.6520866141732284
21
-5.3796456692913388
0
LINE
8
BLACK
6
CONTINUOUS
10
4.6520866141732284
20
-5.3796456692913388
11
4.6698031496062988
21
-5.3796456692913388
0
LINE
8
BLACK
6
CONTINUOUS
10
4.6698031496062988
20
-5.3796456692913388
11
4.6731930708661418
21
-5.3803199606299215
0
LINE
8
BLACK
6
CONTINUOUS
10
4.7342166929133853
20
-5.3803199606299215
11
4.7370905118110231
21
-5.3822401968503932
0
LINE
8
BLACK
6
CONTINUOUS
10
4.7370905118110231
20
-5.3822401968503932
11
4.7390107480314958
21
-5.3851140157480311
0
LINE
8
BLACK
6
CONTINUOUS
10
4.7390107480314958
20
-5.3851140157480311
11
4.7396850393700785
21
-5.388503937007874
0
LINE
8
BLACK
6
CONTINUOUS
10
4.7396850393700785
20
-5.388503937007874
11
4.7396850393700785
21
-5.4081889763779527
0
LINE
8
BLACK
6
CONTINUOUS
10
4.7396850393700785
20
-5.4081889763779527
11
4.7390107480314958
21
-5.4115788976377948
0
LINE
8
BLACK
6
CONTINUOUS
10
4.7390107480314958
20
-5.4115788976377948
11
4.7370905118110231
21
-5.4144527165354326
0
LINE
8
BLACK
6
CONTINUOUS
10
4.7370905118110231
20
-5.4144527165354326
11
4.7342166929133853
21
-5.4163729527559052
0
LINE
8
BLACK
6
CONTINUOUS
10
4.7342166929133853
20
-5.4163729527559052
11
4.7308267716535433
21
-5.4170472440944879
0
LINE
8
BLACK
6
CONTINUOUS
10
4.7308267716535433
20
-5.4170472440944879
11
4.713110236220472
21
-5.4170472440944879
0
LINE
8
BLACK
6
CONTINUOUS
10
4.713110236220472
20
-5.4170472440944879
11
4.7097203149606299
21
-5.4163729527559052
0
LINE
8
BLACK
6
CONTINUOUS
10
4.7097203149606299
20
-5.4163729527559052
11
4.7068464960629921
21
-5.4144527165354326
0
LINE
8
BLACK
6
CONTINUOUS
10
4.7068464960629921
20
-5.4144527165354326
11
4.7049262598425194
21
-5.4115788976377948
0
LINE
8
BLACK
6
CONTINUOUS
10
4.7049262598425194
20
-5.4115788976377948
11
4.7042519685039368
21
-5.4081889763779527
0
LINE
8
BLACK
6
CONTINUOUS
10
4.7042519685039368
20
-5.4081889763779527
11
4.7042519685039368
21
-5.388503937007874
0
LINE
8
BLACK
6
CONTINUOUS
10
4.7042519685039368
20
-5.388503937007874
11
4.7049262598425194
21
-5.3851140157480311
0
LINE
8
BLACK
6
CONTINUOUS
10
4.7049262598425194
20
-5.3851140157480311
11
4.7068464960629921
21
-5.3822401968503932
0
LINE
8
BLACK
6
CONTINUOUS
10
4.7068464960629921
20
-5.3822401968503932
11
4.7097203149606299
21
-5.3803199606299215
0
LINE
8
BLACK
6
CONTINUOUS
10
4.7097203149606299
20
-5.3803199606299215
11
4.713110236220472
21
-5.3796456692913388
0
LINE
8
BLACK
6
CONTINUOUS
10
4.713110236220472
20
-5.3796456692913388
11
4.7308267716535433
21
-5.3796456692913388
0
LINE
8
BLACK
6
CONTINUOUS
10
4.7308267716535433
20
-5.3796456692913388
11
4.7342166929133853
21
-5.3803199606299215
0
LINE
8
BLACK
6
CONTINUOUS
10
4.5011287795275585
20
-5.264253149606299
11
4.5043219291338579
21
-5.2663867322834648
0
LINE
8
BLACK
6
CONTINUOUS
10
4.5043219291338579
20
-5.2663867322834648
11
4.5064555118110237
21
-5.2695798818897632
0
LINE
8
BLACK
6
CONTINUOUS
10
4.5064555118110237
20
-5.2695798818897632
11
4.5072047244094486
21
-5.2733464566929129
0
LINE
8
BLACK
6
CONTINUOUS
10
4.5072047244094486
20
-5.2733464566929129
11
4.5072047244094486
21
-5.3107480314960629
0
LINE
8
BLACK
6
CONTINUOUS
10
4.5072047244094486
20
-5.3107480314960629
11
4.5064555118110237
21
-5.3145146062992126
0
LINE
8
BLACK
6
CONTINUOUS
10
4.5064555118110237
20
-5.3145146062992126
11
4.5043219291338579
21
-5.3177077559055119
0
LINE
8
BLACK
6
CONTINUOUS
10
4.5043219291338579
20
-5.3177077559055119
11
4.5011287795275585
21
-5.3198413385826768
0
LINE
8
BLACK
6
CONTINUOUS
10
4.5011287795275585
20
-5.3198413385826768
11
4.4973622047244097
21
-5.3205905511811018
0
LINE
8
BLACK
6
CONTINUOUS
10
4.4973622047244097
20
-5.3205905511811018
11
4.477677165354331
21
-5.3205905511811018
0
LINE
8
BLACK
6
CONTINUOUS
10
4.477677165354331
20
-5.3205905511811018
11
4.4739105905511813
21
-5.3198413385826768
0
LINE
8
BLACK
6
CONTINUOUS
10
4.4739105905511813
20
-5.3198413385826768
11
4.470717440944882
21
-5.3177077559055119
0
LINE
8
BLACK
6
CONTINUOUS
10
4.470717440944882
20
-5.3177077559055119
11
4.4685838582677162
21
-5.3145146062992126
0
LINE
8
BLACK
6
CONTINUOUS
10
4.4685838582677162
20
-5.3145146062992126
11
4.4678346456692912
21
-5.3107480314960629
0
LINE
8
BLACK
6
CONTINUOUS
10
4.4678346456692912
20
-5.3107480314960629
11
4.4678346456692912
21
-5.2733464566929129
0
LINE
8
BLACK
6
CONTINUOUS
10
4.4678346456692912
20
-5.2733464566929129
11
4.4685838582677162
21
-5.2695798818897632
0
LINE
8
BLACK
6
CONTINUOUS
10
4.4685838582677162
20
-5.2695798818897632
11
4.470717440944882
21
-5.2663867322834648
0
LINE
8
BLACK
6
CONTINUOUS
10
4.470717440944882
20
-5.2663867322834648
11
4.4739105905511813
21
-5.264253149606299
0
LINE
8
BLACK
6
CONTINUOUS
10
4.4739105905511813
20
-5.264253149606299
11
4.477677165354331
21
-5.263503937007874
0
LINE
8
BLACK
6
CONTINUOUS
10
4.477677165354331
20
-5.263503937007874
11
4.4973622047244097
21
-5.263503937007874
0
LINE
8
BLACK
6
CONTINUOUS
10
4.4973622047244097
20
-5.263503937007874
11
4.5011287795275585
21
-5.264253149606299
0
LINE
8
BLACK
6
CONTINUOUS
10
4.5759319291338585
20
-5.264253149606299
11
4.579125078740157
21
-5.2663867322834648
0
LINE
8
BLACK
6
CONTINUOUS
10
4.579125078740157
20
-5.2663867322834648
11
4.5812586614173227
21
-5.2695798818897632
0
LINE
8
BLACK
6
CONTINUOUS
10
4.5812586614173227
20
-5.2695798818897632
11
4.5820078740157477
21
-5.2733464566929129
0
LINE
8
BLACK
6
CONTINUOUS
10
4.5820078740157477
20
-5.2733464566929129
11
4.5820078740157477
21
-5.3107480314960629
0
LINE
8
BLACK
6
CONTINUOUS
10
4.5820078740157477
20
-5.3107480314960629
11
4.5812586614173227
21
-5.3145146062992126
0
LINE
8
BLACK
6
CONTINUOUS
10
4.5812586614173227
20
-5.3145146062992126
11
4.579125078740157
21
-5.3177077559055119
0
LINE
8
BLACK
6
CONTINUOUS
10
4.579125078740157
20
-5.3177077559055119
11
4.5759319291338585
21
-5.3198413385826768
0
LINE
8
BLACK
6
CONTINUOUS
10
4.5759319291338585
20
-5.3198413385826768
11
4.5721653543307088
21
-5.3205905511811018
0
LINE
8
BLACK
6
CONTINUOUS
10
4.5721653543307088
20
-5.3205905511811018
11
4.5524803149606301
21
-5.3205905511811018
0
LINE
8
BLACK
6
CONTINUOUS
10
4.5524803149606301
20
-5.3205905511811018
11
4.5487137401574804
21
-5.3198413385826768
0
LINE
8
BLACK
6
CONTINUOUS
10
4.5487137401574804
20
-5.3198413385826768
11
4.5455205905511811
21
-5.3177077559055119
0
LINE
8
BLACK
6
CONTINUOUS
10
4.5455205905511811
20
-5.3177077559055119
11
4.5433870078740153
21
-5.3145146062992126
0
LINE
8
BLACK
6
CONTINUOUS
10
4.5433870078740153
20
-5.3145146062992126
11
4.5426377952755903
21
-5.3107480314960629
0
LINE
8
BLACK
6
CONTINUOUS
10
4.5426377952755903
20
-5.3107480314960629
11
4.5426377952755903
21
-5.2733464566929129
0
LINE
8
BLACK
6
CONTINUOUS
10
4.5426377952755903
20
-5.2733464566929129
11
4.5433870078740153
21
-5.2695798818897632
0
LINE
8
BLACK
6
CONTINUOUS
10
4.5433870078740153
20
-5.2695798818897632
11
4.5455205905511811
21
-5.2663867322834648
0
LINE
8
BLACK
6
CONTINUOUS
10
4.5455205905511811
20
-5.2663867322834648
11
4.5487137401574804
21
-5.264253149606299
0
LINE
8
BLACK
6
CONTINUOUS
10
4.5487137401574804
20
-5.264253149606299
11
4.5524803149606301
21
-5.263503937007874
0
LINE
8
BLACK
6
CONTINUOUS
10
4.5524803149606301
20
-5.263503937007874
11
4.5721653543307088
21
-5.263503937007874
0
LINE
8
BLACK
6
CONTINUOUS
10
4.5721653543307088
20
-5.263503937007874
11
4.5759319291338585
21
-5.264253149606299
0
LINE
8
BLACK
6
CONTINUOUS
10
4.6775067322834643
20
-5.2640562992125979
11
4.6806998818897636
21
-5.2661898818897637
0
LINE
8
BLACK
6
CONTINUOUS
10
4.6806998818897636
20
-5.2661898818897637
11
4.6828334645669294
21
-5.269383031496063
0
LINE
8
BLACK
6
CONTINUOUS
10
4.6828334645669294
20
-5.269383031496063
11
4.6835826771653544
21
-5.2731496062992127
0
LINE
8
BLACK
6
CONTINUOUS
10
4.6835826771653544
20
-5.2731496062992127
11
4.6835826771653544
21
-5.3085826771653544
0
LINE
8
BLACK
6
CONTINUOUS
10
4.6835826771653544
20
-5.3085826771653544
11
4.6828334645669294
21
-5.312349251968504
0
LINE
8
BLACK
6
CONTINUOUS
10
4.6828334645669294
20
-5.312349251968504
11
4.6806998818897636
21
-5.3155424015748034
0
LINE
8
BLACK
6
CONTINUOUS
10
4.6806998818897636
20
-5.3155424015748034
11
4.6775067322834643
21
-5.3176759842519683
0
LINE
8
BLACK
6
CONTINUOUS
10
4.6775067322834643
20
-5.3176759842519683
11
4.6737401574803146
21
-5.3184251968503933
0
LINE
8
BLACK
6
CONTINUOUS
10
4.6737401574803146
20
-5.3184251968503933
11
4.6530708661417322
21
-5.3184251968503933
0
LINE
8
BLACK
6
CONTINUOUS
10
4.6530708661417322
20
-5.3184251968503933
11
4.6493042913385825
21
-5.3176759842519683
0
LINE
8
BLACK
6
CONTINUOUS
10
4.6493042913385825
20
-5.3176759842519683
11
4.6461111417322831
21
-5.3155424015748034
0
LINE
8
BLACK
6
CONTINUOUS
10
4.6461111417322831
20
-5.3155424015748034
11
4.6439775590551182
21
-5.312349251968504
0
LINE
8
BLACK
6
CONTINUOUS
10
4.6439775590551182
20
-5.312349251968504
11
4.6432283464566932
21
-5.3085826771653544
0
LINE
8
BLACK
6
CONTINUOUS
10
4.6432283464566932
20
-5.3085826771653544
11
4.6432283464566932
21
-5.2731496062992127
0
LINE
8
BLACK
6
CONTINUOUS
10
4.6432283464566932
20
-5.2731496062992127
11
4.6439775590551182
21
-5.269383031496063
0
LINE
8
BLACK
6
CONTINUOUS
10
4.6439775590551182
20
-5.269383031496063
11
4.6461111417322831
21
-5.2661898818897637
0
LINE
8
BLACK
6
CONTINUOUS
10
4.6461111417322831
20
-5.2661898818897637
11
4.6493042913385825
21
-5.2640562992125979
0
LINE
8
BLACK
6
CONTINUOUS
10
4.6493042913385825
20
-5.2640562992125979
11
4.6530708661417322
21
-5.2633070866141729
0
LINE
8
BLACK
6
CONTINUOUS
10
4.6530708661417322
20
-5.2633070866141729
11
4.6737401574803146
21
-5.2633070866141729
0
LINE
8
BLACK
6
CONTINUOUS
10
4.6737401574803146
20
-5.2633070866141729
11
4.6775067322834643
21
-5.2640562992125979
0
LINE
8
BLACK
6
CONTINUOUS
10
4.7493571259842522
20
-5.2640562992125979
11
4.7525502755905507
21
-5.2661898818897637
0
LINE
8
BLACK
6
CONTINUOUS
10
4.7525502755905507
20
-5.2661898818897637
11
4.7546838582677164
21
-5.269383031496063
0
LINE
8
BLACK
6
CONTINUOUS
10
4.7546838582677164
20
-5.269383031496063
11
4.7554330708661414
21
-5.2731496062992127
0
LINE
8
BLACK
6
CONTINUOUS
10
4.7554330708661414
20
-5.2731496062992127
11
4.7554330708661414
21
-5.3085826771653544
0
LINE
8
BLACK
6
CONTINUOUS
10
4.7554330708661414
20
-5.3085826771653544
11
4.7546838582677164
21
-5.312349251968504
0
LINE
8
BLACK
6
CONTINUOUS
10
4.7546838582677164
20
-5.312349251968504
11
4.7525502755905507
21
-5.3155424015748034
0
LINE
8
BLACK
6
CONTINUOUS
10
4.7525502755905507
20
-5.3155424015748034
11
4.7493571259842522
21
-5.3176759842519683
0
LINE
8
BLACK
6
CONTINUOUS
10
4.7493571259842522
20
-5.3176759842519683
11
4.7455905511811025
21
-5.3184251968503933
0
LINE
8
BLACK
6
CONTINUOUS
10
4.7455905511811025
20
-5.3184251968503933
11
4.7249212598425192
21
-5.3184251968503933
0
LINE
8
BLACK
6
CONTINUOUS
10
4.7249212598425192
20
-5.3184251968503933
11
4.7211546850393704
21
-5.3176759842519683
0
LINE
8
BLACK
6
CONTINUOUS
10
4.7211546850393704
20
-5.3176759842519683
11
4.7179615354330711
21
-5.3155424015748034
0
LINE
8
BLACK
6
CONTINUOUS
10
4.7179615354330711
20
-5.3155424015748034
11
4.7158279527559053
21
-5.312349251968504
0
LINE
8
BLACK
6
CONTINUOUS
10
4.7158279527559053
20
-5.312349251968504
11
4.7150787401574803
21
-5.3085826771653544
0
LINE
8
BLACK
6
CONTINUOUS
10
4.7150787401574803
20
-5.3085826771653544
11
4.7150787401574803
21
-5.2731496062992127
0
LINE
8
BLACK
6
CONTINUOUS
10
4.7150787401574803
20
-5.2731496062992127
11
4.7158279527559053
21
-5.269383031496063
0
LINE
8
BLACK
6
CONTINUOUS
10
4.7158279527559053
20
-5.269383031496063
11
4.7179615354330711
21
-5.2661898818897637
0
LINE
8
BLACK
6
CONTINUOUS
10
4.7179615354330711
20
-5.2661898818897637
11
4.7211546850393704
21
-5.2640562992125979
0
LINE
8
BLACK
6
CONTINUOUS
10
4.7211546850393704
20
-5.2640562992125979
11
4.7249212598425192
21
-5.2633070866141729
0
LINE
8
BLACK
6
CONTINUOUS
10
4.7249212598425192
20
-5.2633070866141729
11
4.7455905511811025
21
-5.2633070866141729
0
LINE
8
BLACK
6
CONTINUOUS
10
4.7455905511811025
20
-5.2633070866141729
11
4.7493571259842522
21
-5.2640562992125979
0
LINE
8
BLACK
6
CONTINUOUS
10
4.0041837795275592
20
-5.0848036220472439
11
4.0054610629921257
21
-5.0856570472440943
0
LINE
8
BLACK
6
CONTINUOUS
10
4.0054610629921257
20
-5.0856570472440943
11
4.0063144881889761
21
-5.0869343307086616
0
LINE
8
BLACK
6
CONTINUOUS
10
4.0063144881889761
20
-5.0869343307086616
11
4.0066141732283462
21
-5.0884409448818895
0
LINE
8
BLACK
6
CONTINUOUS
10
4.0066141732283462
20
-5.0884409448818895
11
4.0066141732283462
21
-5.1305669291338578
0
LINE
8
BLACK
6
CONTINUOUS
10
4.0066141732283462
20
-5.1305669291338578
11
4.0063144881889761
21
-5.1320735433070865
0
LINE
8
BLACK
6
CONTINUOUS
10
4.0063144881889761
20
-5.1320735433070865
11
4.0054610629921257
21
-5.133350826771653
0
LINE
8
BLACK
6
CONTINUOUS
10
4.0054610629921257
20
-5.133350826771653
11
4.0041837795275592
21
-5.1342042519685034
0
LINE
8
BLACK
6
CONTINUOUS
10
4.0041837795275592
20
-5.1342042519685034
11
4.0026771653543305
21
-5.1345039370078736
0
LINE
8
BLACK
6
CONTINUOUS
10
4.0026771653543305
20
-5.1345039370078736
11
3.9865354330708662
21
-5.1345039370078736
0
LINE
8
BLACK
6
CONTINUOUS
10
3.9865354330708662
20
-5.1345039370078736
11
3.9850288188976375
21
-5.1342042519685034
0
LINE
8
BLACK
6
CONTINUOUS
10
3.9850288188976375
20
-5.1342042519685034
11
3.9837515354330706
21
-5.133350826771653
0
LINE
8
BLACK
6
CONTINUOUS
10
3.9837515354330706
20
-5.133350826771653
11
3.9828981102362202
21
-5.1320735433070865
0
LINE
8
BLACK
6
CONTINUOUS
10
3.9828981102362202
20
-5.1320735433070865
11
3.9825984251968505
21
-5.1305669291338578
0
LINE
8
BLACK
6
CONTINUOUS
10
3.9825984251968505
20
-5.1305669291338578
11
3.9825984251968505
21
-5.0884409448818895
0
LINE
8
BLACK
6
CONTINUOUS
10
3.9825984251968505
20
-5.0884409448818895
11
3.9828981102362202
21
-5.0869343307086616
0
LINE
8
BLACK
6
CONTINUOUS
10
3.9828981102362202
20
-5.0869343307086616
11
3.9837515354330706
21
-5.0856570472440943
0
LINE
8
BLACK
6
CONTINUOUS
10
3.9837515354330706
20
-5.0856570472440943
11
3.9850288188976375
21
-5.0848036220472439
0
LINE
8
BLACK
6
CONTINUOUS
10
3.9850288188976375
20
-5.0848036220472439
11
3.9865354330708662
21
-5.0845039370078737
0
LINE
8
BLACK
6
CONTINUOUS
10
3.9865354330708662
20
-5.0845039370078737
11
4.0026771653543305
21
-5.0845039370078737
0
LINE
8
BLACK
6
CONTINUOUS
10
4.0026771653543305
20
-5.0845039370078737
11
4.0041837795275592
21
-5.0848036220472439
0
LINE
8
BLACK
6
CONTINUOUS
10
4.054183779527559
20
-5.0848036220472439
11
4.0554610629921255
21
-5.0856570472440943
0
LINE
8
BLACK
6
CONTINUOUS
10
4.0554610629921255
20
-5.0856570472440943
11
4.0563144881889759
21
-5.0869343307086616
0
LINE
8
BLACK
6
CONTINUOUS
10
4.0563144881889759
20
-5.0869343307086616
11
4.0566141732283461
21
-5.0884409448818895
0
LINE
8
BLACK
6
CONTINUOUS
10
4.0566141732283461
20
-5.0884409448818895
11
4.0566141732283461
21
-5.1305669291338578
0
LINE
8
BLACK
6
CONTINUOUS
10
4.0566141732283461
20
-5.1305669291338578
11
4.0563144881889759
21
-5.1320735433070865
0
LINE
8
BLACK
6
CONTINUOUS
10
4.0563144881889759
20
-5.1320735433070865
11
4.0554610629921255
21
-5.133350826771653
0
LINE
8
BLACK
6
CONTINUOUS
10
4.0554610629921255
20
-5.133350826771653
11
4.054183779527559
21
-5.1342042519685034
0
LINE
8
BLACK
6
CONTINUOUS
10
4.054183779527559
20
-5.1342042519685034
11
4.0526771653543303
21
-5.1345039370078736
0
LINE
8
BLACK
6
CONTINUOUS
10
4.0526771653543303
20
-5.1345039370078736
11
4.036535433070866
21
-5.1345039370078736
0
LINE
8
BLACK
6
CONTINUOUS
10
4.036535433070866
20
-5.1345039370078736
11
4.0350288188976373
21
-5.1342042519685034
0
LINE
8
BLACK
6
CONTINUOUS
10
4.0350288188976373
20
-5.1342042519685034
11
4.0337515354330709
21
-5.133350826771653
0
LINE
8
BLACK
6
CONTINUOUS
10
4.0337515354330709
20
-5.133350826771653
11
4.0328981102362205
21
-5.1320735433070865
0
LINE
8
BLACK
6
CONTINUOUS
10
4.0328981102362205
20
-5.1320735433070865
11
4.0325984251968503
21
-5.1305669291338578
0
LINE
8
BLACK
6
CONTINUOUS
10
4.0325984251968503
20
-5.1305669291338578
11
4.0325984251968503
21
-5.0884409448818895
0
LINE
8
BLACK
6
CONTINUOUS
10
4.0325984251968503
20
-5.0884409448818895
11
4.0328981102362205
21
-5.0869343307086616
0
LINE
8
BLACK
6
CONTINUOUS
10
4.0328981102362205
20
-5.0869343307086616
11
4.0337515354330709
21
-5.0856570472440943
0
LINE
8
BLACK
6
CONTINUOUS
10
4.0337515354330709
20
-5.0856570472440943
11
4.0350288188976373
21
-5.0848036220472439
0
LINE
8
BLACK
6
CONTINUOUS
10
4.0350288188976373
20
-5.0848036220472439
11
4.036535433070866
21
-5.0845039370078737
0
LINE
8
BLACK
6
CONTINUOUS
10
4.036535433070866
20
-5.0845039370078737
11
4.0526771653543303
21
-5.0845039370078737
0
LINE
8
BLACK
6
CONTINUOUS
10
4.0526771653543303
20
-5.0845039370078737
11
4.054183779527559
21
-5.0848036220472439
0
LINE
8
BLACK
6
CONTINUOUS
10
4.1041837795275589
20
-5.0848036220472439
11
4.1054610629921262
21
-5.0856570472440943
0
LINE
8
BLACK
6
CONTINUOUS
10
4.1054610629921262
20
-5.0856570472440943
11
4.1063144881889766
21
-5.0869343307086616
0
LINE
8
BLACK
6
CONTINUOUS
10
4.1063144881889766
20
-5.0869343307086616
11
4.1066141732283468
21
-5.0884409448818895
0
LINE
8
BLACK
6
CONTINUOUS
10
4.1066141732283468
20
-5.0884409448818895
11
4.1066141732283468
21
-5.1305669291338578
0
LINE
8
BLACK
6
CONTINUOUS
10
4.1066141732283468
20
-5.1305669291338578
11
4.1063144881889766
21
-5.1320735433070865
0
LINE
8
BLACK
6
CONTINUOUS
10
4.1063144881889766
20
-5.1320735433070865
11
4.1054610629921262
21
-5.133350826771653
0
LINE
8
BLACK
6
CONTINUOUS
10
4.1054610629921262
20
-5.133350826771653
11
4.1041837795275589
21
-5.1342042519685034
0
LINE
8
BLACK
6
CONTINUOUS
10
4.1041837795275589
20
-5.1342042519685034
11
4.102677165354331
21
-5.1345039370078736
0
LINE
8
BLACK
6
CONTINUOUS
10
4.102677165354331
20
-5.1345039370078736
11
4.0865354330708659
21
-5.1345039370078736
0
LINE
8
BLACK
6
CONTINUOUS
10
4.0865354330708659
20
-5.1345039370078736
11
4.085028818897638
21
-5.1342042519685034
0
LINE
8
BLACK
6
CONTINUOUS
10
4.085028818897638
20
-5.1342042519685034
11
4.0837515354330707
21
-5.133350826771653
0
LINE
8
BLACK
6
CONTINUOUS
10
4.0837515354330707
20
-5.133350826771653
11
4.0828981102362203
21
-5.1320735433070865
0
LINE
8
BLACK
6
CONTINUOUS
10
4.0828981102362203
20
-5.1320735433070865
11
4.0825984251968501
21
-5.1305669291338578
0
LINE
8
BLACK
6
CONTINUOUS
10
4.0825984251968501
20
-5.1305669291338578
11
4.0825984251968501
21
-5.0884409448818895
0
LINE
8
BLACK
6
CONTINUOUS
10
4.0825984251968501
20
-5.0884409448818895
11
4.0828981102362203
21
-5.0869343307086616
0
LINE
8
BLACK
6
CONTINUOUS
10
4.0828981102362203
20
-5.0869343307086616
11
4.0837515354330707
21
-5.0856570472440943
0
LINE
8
BLACK
6
CONTINUOUS
10
4.0837515354330707
20
-5.0856570472440943
11
4.085028818897638
21
-5.0848036220472439
0
LINE
8
BLACK
6
CONTINUOUS
10
4.085028818897638
20
-5.0848036220472439
11
4.0865354330708659
21
-5.0845039370078737
0
LINE
8
BLACK
6
CONTINUOUS
10
4.0865354330708659
20
-5.0845039370078737
11
4.102677165354331
21
-5.0845039370078737
0
LINE
8
BLACK
6
CONTINUOUS
10
4.102677165354331
20
-5.0845039370078737
11
4.1041837795275589
21
-5.0848036220472439
0
LINE
8
BLACK
6
CONTINUOUS
10
4.1541837795275587
20
-5.0848036220472439
11
4.155461062992126
21
-5.0856570472440943
0
LINE
8
BLACK
6
CONTINUOUS
10
4.155461062992126
20
-5.0856570472440943
11
4.1563144881889764
21
-5.0869343307086616
0
LINE
8
BLACK
6
CONTINUOUS
10
4.1563144881889764
20
-5.0869343307086616
11
4.1566141732283466
21
-5.0884409448818895
0
LINE
8
BLACK
6
CONTINUOUS
10
4.1566141732283466
20
-5.0884409448818895
11
4.1566141732283466
21
-5.1305669291338578
0
LINE
8
BLACK
6
CONTINUOUS
10
4.1566141732283466
20
-5.1305669291338578
11
4.1563144881889764
21
-5.1320735433070865
0
LINE
8
BLACK
6
CONTINUOUS
10
4.1563144881889764
20
-5.1320735433070865
11
4.155461062992126
21
-5.133350826771653
0
LINE
8
BLACK
6
CONTINUOUS
10
4.155461062992126
20
-5.133350826771653
11
4.1541837795275587
21
-5.1342042519685034
0
LINE
8
BLACK
6
CONTINUOUS
10
4.1541837795275587
20
-5.1342042519685034
11
4.1526771653543308
21
-5.1345039370078736
0
LINE
8
BLACK
6
CONTINUOUS
10
4.1526771653543308
20
-5.1345039370078736
11
4.1365354330708657
21
-5.1345039370078736
0
LINE
8
BLACK
6
CONTINUOUS
10
4.1365354330708657
20
-5.1345039370078736
11
4.1350288188976378
21
-5.1342042519685034
0
LINE
8
BLACK
6
CONTINUOUS
10
4.1350288188976378
20
-5.1342042519685034
11
4.1337515354330705
21
-5.133350826771653
0
LINE
8
BLACK
6
CONTINUOUS
10
4.1337515354330705
20
-5.133350826771653
11
4.1328981102362201
21
-5.1320735433070865
0
LINE
8
BLACK
6
CONTINUOUS
10
4.1328981102362201
20
-5.1320735433070865
11
4.1325984251968499
21
-5.1305669291338578
0
LINE
8
BLACK
6
CONTINUOUS
10
4.1325984251968499
20
-5.1305669291338578
11
4.1325984251968499
21
-5.0884409448818895
0
LINE
8
BLACK
6
CONTINUOUS
10
4.1325984251968499
20
-5.0884409448818895
11
4.1328981102362201
21
-5.0869343307086616
0
LINE
8
BLACK
6
CONTINUOUS
10
4.1328981102362201
20
-5.0869343307086616
11
4.1337515354330705
21
-5.0856570472440943
0
LINE
8
BLACK
6
CONTINUOUS
10
4.1337515354330705
20
-5.0856570472440943
11
4.1350288188976378
21
-5.0848036220472439
0
LINE
8
BLACK
6
CONTINUOUS
10
4.1350288188976378
20
-5.0848036220472439
11
4.1365354330708657
21
-5.0845039370078737
0
LINE
8
BLACK
6
CONTINUOUS
10
4.1365354330708657
20
-5.0845039370078737
11
4.1526771653543308
21
-5.0845039370078737
0
LINE
8
BLACK
6
CONTINUOUS
10
4.1526771653543308
20
-5.0845039370078737
11
4.1541837795275587
21
-5.0848036220472439
0
LINE
8
BLACK
6
CONTINUOUS
10
4.2640262992125981
20
-5.0848036220472439
11
4.2653035826771655
21
-5.0856570472440943
0
LINE
8
BLACK
6
CONTINUOUS
10
4.2653035826771655
20
-5.0856570472440943
11
4.2661570078740159
21
-5.0869343307086616
0
LINE
8
BLACK
6
CONTINUOUS
10
4.2661570078740159
20
-5.0869343307086616
11
4.266456692913386
21
-5.0884409448818895
0
LINE
8
BLACK
6
CONTINUOUS
10
4.266456692913386
20
-5.0884409448818895
11
4.266456692913386
21
-5.1305669291338578
0
LINE
8
BLACK
6
CONTINUOUS
10
4.266456692913386
20
-5.1305669291338578
11
4.2661570078740159
21
-5.1320735433070865
0
LINE
8
BLACK
6
CONTINUOUS
10
4.2661570078740159
20
-5.1320735433070865
11
4.2653035826771655
21
-5.133350826771653
0
LINE
8
BLACK
6
CONTINUOUS
10
4.2653035826771655
20
-5.133350826771653
11
4.2640262992125981
21
-5.1342042519685034
0
LINE
8
BLACK
6
CONTINUOUS
10
4.2640262992125981
20
-5.1342042519685034
11
4.2625196850393703
21
-5.1345039370078736
0
LINE
8
BLACK
6
CONTINUOUS
10
4.2625196850393703
20
-5.1345039370078736
11
4.2463779527559051
21
-5.1345039370078736
0
LINE
8
BLACK
6
CONTINUOUS
10
4.2463779527559051
20
-5.1345039370078736
11
4.2448713385826773
21
-5.1342042519685034
0
LINE
8
BLACK
6
CONTINUOUS
10
4.2448713385826773
20
-5.1342042519685034
11
4.2435940551181099
21
-5.133350826771653
0
LINE
8
BLACK
6
CONTINUOUS
10
4.2435940551181099
20
-5.133350826771653
11
4.2427406299212596
21
-5.1320735433070865
0
LINE
8
BLACK
6
CONTINUOUS
10
4.2427406299212596
20
-5.1320735433070865
11
4.2424409448818894
21
-5.1305669291338578
0
LINE
8
BLACK
6
CONTINUOUS
10
4.2424409448818894
20
-5.1305669291338578
11
4.2424409448818894
21
-5.0884409448818895
0
LINE
8
BLACK
6
CONTINUOUS
10
4.2424409448818894
20
-5.0884409448818895
11
4.2427406299212596
21
-5.0869343307086616
0
LINE
8
BLACK
6
CONTINUOUS
10
4.2427406299212596
20
-5.0869343307086616
11
4.2435940551181099
21
-5.0856570472440943
0
LINE
8
BLACK
6
CONTINUOUS
10
4.2435940551181099
20
-5.0856570472440943
11
4.2448713385826773
21
-5.0848036220472439
0
LINE
8
BLACK
6
CONTINUOUS
10
4.2448713385826773
20
-5.0848036220472439
11
4.2463779527559051
21
-5.0845039370078737
0
LINE
8
BLACK
6
CONTINUOUS
10
4.2463779527559051
20
-5.0845039370078737
11
4.2625196850393703
21
-5.0845039370078737
0
LINE
8
BLACK
6
CONTINUOUS
10
4.2625196850393703
20
-5.0845039370078737
11
4.2640262992125981
21
-5.0848036220472439
0
LINE
8
BLACK
6
CONTINUOUS
10
4.3140262992125979
20
-5.0848036220472439
11
4.3153035826771653
21
-5.0856570472440943
0
LINE
8
BLACK
6
CONTINUOUS
10
4.3153035826771653
20
-5.0856570472440943
11
4.3161570078740157
21
-5.0869343307086616
0
LINE
8
BLACK
6
CONTINUOUS
10
4.3161570078740157
20
-5.0869343307086616
11
4.3164566929133859
21
-5.0884409448818895
0
LINE
8
BLACK
6
CONTINUOUS
10
4.3164566929133859
20
-5.0884409448818895
11
4.3164566929133859
21
-5.1305669291338578
0
LINE
8
BLACK
6
CONTINUOUS
10
4.3164566929133859
20
-5.1305669291338578
11
4.3161570078740157
21
-5.1320735433070865
0
LINE
8
BLACK
6
CONTINUOUS
10
4.3161570078740157
20
-5.1320735433070865
11
4.3153035826771653
21
-5.133350826771653
0
LINE
8
BLACK
6
CONTINUOUS
10
4.3153035826771653
20
-5.133350826771653
11
4.3140262992125979
21
-5.1342042519685034
0
LINE
8
BLACK
6
CONTINUOUS
10
4.3140262992125979
20
-5.1342042519685034
11
4.3125196850393701
21
-5.1345039370078736
0
LINE
8
BLACK
6
CONTINUOUS
10
4.3125196850393701
20
-5.1345039370078736
11
4.2963779527559058
21
-5.1345039370078736
0
LINE
8
BLACK
6
CONTINUOUS
10
4.2963779527559058
20
-5.1345039370078736
11
4.2948713385826771
21
-5.1342042519685034
0
LINE
8
BLACK
6
CONTINUOUS
10
4.2948713385826771
20
-5.1342042519685034
11
4.2935940551181098
21
-5.133350826771653
0
LINE
8
BLACK
6
CONTINUOUS
10
4.2935940551181098
20
-5.133350826771653
11
4.2927406299212594
21
-5.1320735433070865
0
LINE
8
BLACK
6
CONTINUOUS
10
4.2927406299212594
20
-5.1320735433070865
11
4.2924409448818901
21
-5.1305669291338578
0
LINE
8
BLACK
6
CONTINUOUS
10
4.2924409448818901
20
-5.1305669291338578
11
4.2924409448818901
21
-5.0884409448818895
0
LINE
8
BLACK
6
CONTINUOUS
10
4.2924409448818901
20
-5.0884409448818895
11
4.2927406299212594
21
-5.0869343307086616
0
LINE
8
BLACK
6
CONTINUOUS
10
4.2927406299212594
20
-5.0869343307086616
11
4.2935940551181098
21
-5.0856570472440943
0
LINE
8
BLACK
6
CONTINUOUS
10
4.2935940551181098
20
-5.0856570472440943
11
4.2948713385826771
21
-5.0848036220472439
0
LINE
8
BLACK
6
CONTINUOUS
10
4.2948713385826771
20
-5.0848036220472439
11
4.2963779527559058
21
-5.0845039370078737
0
LINE
8
BLACK
6
CONTINUOUS
10
4.2963779527559058
20
-5.0845039370078737
11
4.3125196850393701
21
-5.0845039370078737
0
LINE
8
BLACK
6
CONTINUOUS
10
4.3125196850393701
20
-5.0845039370078737
11
4.3140262992125979
21
-5.0848036220472439
0
LINE
8
BLACK
6
CONTINUOUS
10
4.3640262992125987
20
-5.0848036220472439
11
4.3653035826771651
21
-5.0856570472440943
0
LINE
8
BLACK
6
CONTINUOUS
10
4.3653035826771651
20
-5.0856570472440943
11
4.3661570078740155
21
-5.0869343307086616
0
LINE
8
BLACK
6
CONTINUOUS
10
4.3661570078740155
20
-5.0869343307086616
11
4.3664566929133857
21
-5.0884409448818895
0
LINE
8
BLACK
6
CONTINUOUS
10
4.3664566929133857
20
-5.0884409448818895
11
4.3664566929133857
21
-5.1305669291338578
0
LINE
8
BLACK
6
CONTINUOUS
10
4.3664566929133857
20
-5.1305669291338578
11
4.3661570078740155
21
-5.1320735433070865
0
LINE
8
BLACK
6
CONTINUOUS
10
4.3661570078740155
20
-5.1320735433070865
11
4.3653035826771651
21
-5.133350826771653
0
LINE
8
BLACK
6
CONTINUOUS
10
4.3653035826771651
20
-5.133350826771653
11
4.3640262992125987
21
-5.1342042519685034
0
LINE
8
BLACK
6
CONTINUOUS
10
4.3640262992125987
20
-5.1342042519685034
11
4.3625196850393699
21
-5.1345039370078736
0
LINE
8
BLACK
6
CONTINUOUS
10
4.3625196850393699
20
-5.1345039370078736
11
4.3463779527559057
21
-5.1345039370078736
0
LINE
8
BLACK
6
CONTINUOUS
10
4.3463779527559057
20
-5.1345039370078736
11
4.3448713385826769
21
-5.1342042519685034
0
LINE
8
BLACK
6
CONTINUOUS
10
4.3448713385826769
20
-5.1342042519685034
11
4.3435940551181105
21
-5.133350826771653
0
LINE
8
BLACK
6
CONTINUOUS
10
4.3435940551181105
20
-5.133350826771653
11
4.3427406299212601
21
-5.1320735433070865
0
LINE
8
BLACK
6
CONTINUOUS
10
4.3427406299212601
20
-5.1320735433070865
11
4.3424409448818899
21
-5.1305669291338578
0
LINE
8
BLACK
6
CONTINUOUS
10
4.3424409448818899
20
-5.1305669291338578
11
4.3424409448818899
21
-5.0884409448818895
0
LINE
8
BLACK
6
CONTINUOUS
10
4.3424409448818899
20
-5.0884409448818895
11
4.3427406299212601
21
-5.0869343307086616
0
LINE
8
BLACK
6
CONTINUOUS
10
4.3427406299212601
20
-5.0869343307086616
11
4.3435940551181105
21
-5.0856570472440943
0
LINE
8
BLACK
6
CONTINUOUS
10
4.3435940551181105
20
-5.0856570472440943
11
4.3448713385826769
21
-5.0848036220472439
0
LINE
8
BLACK
6
CONTINUOUS
10
4.3448713385826769
20
-5.0848036220472439
11
4.3463779527559057
21
-5.0845039370078737
0
LINE
8
BLACK
6
CONTINUOUS
10
4.3463779527559057
20
-5.0845039370078737
11
4.3625196850393699
21
-5.0845039370078737
0
LINE
8
BLACK
6
CONTINUOUS
10
4.3625196850393699
20
-5.0845039370078737
11
4.3640262992125987
21
-5.0848036220472439
0
LINE
8
BLACK
6
CONTINUOUS
10
4.4140262992125985
20
-5.0848036220472439
11
4.4153035826771649
21
-5.0856570472440943
0
LINE
8
BLACK
6
CONTINUOUS
10
4.4153035826771649
20
-5.0856570472440943
11
4.4161570078740153
21
-5.0869343307086616
0
LINE
8
BLACK
6
CONTINUOUS
10
4.4161570078740153
20
-5.0869343307086616
11
4.4164566929133855
21
-5.0884409448818895
0
LINE
8
BLACK
6
CONTINUOUS
10
4.4164566929133855
20
-5.0884409448818895
11
4.4164566929133855
21
-5.1305669291338578
0
LINE
8
BLACK
6
CONTINUOUS
10
4.4164566929133855
20
-5.1305669291338578
11
4.4161570078740153
21
-5.1320735433070865
0
LINE
8
BLACK
6
CONTINUOUS
10
4.4161570078740153
20
-5.1320735433070865
11
4.4153035826771649
21
-5.133350826771653
0
LINE
8
BLACK
6
CONTINUOUS
10
4.4153035826771649
20
-5.133350826771653
11
4.4140262992125985
21
-5.1342042519685034
0
LINE
8
BLACK
6
CONTINUOUS
10
4.4140262992125985
20
-5.1342042519685034
11
4.4125196850393698
21
-5.1345039370078736
0
LINE
8
BLACK
6
CONTINUOUS
10
4.4125196850393698
20
-5.1345039370078736
11
4.3963779527559055
21
-5.1345039370078736
0
LINE
8
BLACK
6
CONTINUOUS
10
4.3963779527559055
20
-5.1345039370078736
11
4.3948713385826768
21
-5.1342042519685034
0
LINE
8
BLACK
6
CONTINUOUS
10
4.3948713385826768
20
-5.1342042519685034
11
4.3935940551181103
21
-5.133350826771653
0
LINE
8
BLACK
6
CONTINUOUS
10
4.3935940551181103
20
-5.133350826771653
11
4.3927406299212599
21
-5.1320735433070865
0
LINE
8
BLACK
6
CONTINUOUS
10
4.3927406299212599
20
-5.1320735433070865
11
4.3924409448818897
21
-5.1305669291338578
0
LINE
8
BLACK
6
CONTINUOUS
10
4.3924409448818897
20
-5.1305669291338578
11
4.3924409448818897
21
-5.0884409448818895
0
LINE
8
BLACK
6
CONTINUOUS
10
4.3924409448818897
20
-5.0884409448818895
11
4.3927406299212599
21
-5.0869343307086616
0
LINE
8
BLACK
6
CONTINUOUS
10
4.3927406299212599
20
-5.0869343307086616
11
4.3935940551181103
21
-5.0856570472440943
0
LINE
8
BLACK
6
CONTINUOUS
10
4.3935940551181103
20
-5.0856570472440943
11
4.3948713385826768
21
-5.0848036220472439
0
LINE
8
BLACK
6
CONTINUOUS
10
4.3948713385826768
20
-5.0848036220472439
11
4.3963779527559055
21
-5.0845039370078737
0
LINE
8
BLACK
6
CONTINUOUS
10
4.3963779527559055
20
-5.0845039370078737
11
4.4125196850393698
21
-5.0845039370078737
0
LINE
8
BLACK
6
CONTINUOUS
10
4.4125196850393698
20
-5.0845039370078737
11
4.4140262992125985
21
-5.0848036220472439
0
LINE
8
BLACK
6
CONTINUOUS
10
6.4842875590551179
20
-5.0907294094488185
11
6.4871613779527557
21
-5.0926496456692911
0
LINE
8
BLACK
6
CONTINUOUS
10
6.4871613779527557
20
-5.0926496456692911
11
6.4890816141732284
21
-5.095523464566929
0
LINE
8
BLACK
6
CONTINUOUS
10
6.4890816141732284
20
-5.095523464566929
11
6.489755905511811
21
-5.0989133858267719
0
LINE
8
BLACK
6
CONTINUOUS
10
6.489755905511811
20
-5.0989133858267719
11
6.489755905511811
21
-5.1166299212598423
0
LINE
8
BLACK
6
CONTINUOUS
10
6.489755905511811
20
-5.1166299212598423
11
6.4890816141732284
21
-5.1200198425196852
0
LINE
8
BLACK
6
CONTINUOUS
10
6.4890816141732284
20
-5.1200198425196852
11
6.4871613779527557
21
-5.1228936614173231
0
LINE
8
BLACK
6
CONTINUOUS
10
6.4871613779527557
20
-5.1228936614173231
11
6.4842875590551179
21
-5.1248138976377948
0
LINE
8
BLACK
6
CONTINUOUS
10
6.4842875590551179
20
-5.1248138976377948
11
6.4808976377952758
21
-5.1254881889763775
0
LINE
8
BLACK
6
CONTINUOUS
10
6.4808976377952758
20
-5.1254881889763775
11
6.4474330708661416
21
-5.1254881889763775
0
LINE
8
BLACK
6
CONTINUOUS
10
6.4474330708661416
20
-5.1254881889763775
11
6.4440431496062986
21
-5.1248138976377948
0
LINE
8
BLACK
6
CONTINUOUS
10
6.4440431496062986
20
-5.1248138976377948
11
6.4411693307086617
21
-5.1228936614173231
0
LINE
8
BLACK
6
CONTINUOUS
10
6.4411693307086617
20
-5.1228936614173231
11
6.4392490944881891
21
-5.1200198425196852
0
LINE
8
BLACK
6
CONTINUOUS
10
6.4392490944881891
20
-5.1200198425196852
11
6.4385748031496064
21
-5.1166299212598423
0
LINE
8
BLACK
6
CONTINUOUS
10
6.4385748031496064
20
-5.1166299212598423
11
6.4385748031496064
21
-5.0989133858267719
0
LINE
8
BLACK
6
CONTINUOUS
10
6.4385748031496064
20
-5.0989133858267719
11
6.4392490944881891
21
-5.095523464566929
0
LINE
8
BLACK
6
CONTINUOUS
10
6.4392490944881891
20
-5.095523464566929
11
6.4411693307086617
21
-5.0926496456692911
0
LINE
8
BLACK
6
CONTINUOUS
10
6.4411693307086617
20
-5.0926496456692911
11
6.4440431496062986
21
-5.0907294094488185
0
LINE
8
BLACK
6
CONTINUOUS
10
6.4440431496062986
20
-5.0907294094488185
11
6.4474330708661416
21
-5.0900551181102358
0
LINE
8
BLACK
6
CONTINUOUS
10
6.4474330708661416
20
-5.0900551181102358
11
6.4808976377952758
21
-5.0900551181102358
0
LINE
8
BLACK
6
CONTINUOUS
10
6.4808976377952758
20
-5.0900551181102358
11
6.4842875590551179
21
-5.0907294094488185
0
LINE
8
BLACK
6
CONTINUOUS
10
6.6299568503937003
20
-5.0907294094488185
11
6.6328306692913381
21
-5.0926496456692911
0
LINE
8
BLACK
6
CONTINUOUS
10
6.6328306692913381
20
-5.0926496456692911
11
6.6347509055118108
21
-5.095523464566929
0
LINE
8
BLACK
6
CONTINUOUS
10
6.6347509055118108
20
-5.095523464566929
11
6.6354251968503934
21
-5.0989133858267719
0
LINE
8
BLACK
6
CONTINUOUS
10
6.6354251968503934
20
-5.0989133858267719
11
6.6354251968503934
21
-5.1166299212598423
0
LINE
8
BLACK
6
CONTINUOUS
10
6.6354251968503934
20
-5.1166299212598423
11
6.6347509055118108
21
-5.1200198425196852
0
LINE
8
BLACK
6
CONTINUOUS
10
6.6347509055118108
20
-5.1200198425196852
11
6.6328306692913381
21
-5.1228936614173231
0
LINE
8
BLACK
6
CONTINUOUS
10
6.6328306692913381
20
-5.1228936614173231
11
6.6299568503937003
21
-5.1248138976377948
0
LINE
8
BLACK
6
CONTINUOUS
10
6.6299568503937003
20
-5.1248138976377948
11
6.6265669291338583
21
-5.1254881889763775
0
LINE
8
BLACK
6
CONTINUOUS
10
6.6265669291338583
20
-5.1254881889763775
11
6.593102362204724
21
-5.1254881889763775
0
LINE
8
BLACK
6
CONTINUOUS
10
6.593102362204724
20
-5.1254881889763775
11
6.589712440944882
21
-5.1248138976377948
0
LINE
8
BLACK
6
CONTINUOUS
10
6.589712440944882
20
-5.1248138976377948
11
6.5868386220472441
21
-5.1228936614173231
0
LINE
8
BLACK
6
CONTINUOUS
10
6.5868386220472441
20
-5.1228936614173231
11
6.5849183858267715
21
-5.1200198425196852
0
LINE
8
BLACK
6
CONTINUOUS
10
6.5849183858267715
20
-5.1200198425196852
11
6.5842440944881888
21
-5.1166299212598423
0
LINE
8
BLACK
6
CONTINUOUS
10
6.5842440944881888
20
-5.1166299212598423
11
6.5842440944881888
21
-5.0989133858267719
0
LINE
8
BLACK
6
CONTINUOUS
10
6.5842440944881888
20
-5.0989133858267719
11
6.5849183858267715
21
-5.095523464566929
0
LINE
8
BLACK
6
CONTINUOUS
10
6.5849183858267715
20
-5.095523464566929
11
6.5868386220472441
21
-5.0926496456692911
0
LINE
8
BLACK
6
CONTINUOUS
10
6.5868386220472441
20
-5.0926496456692911
11
6.589712440944882
21
-5.0907294094488185
0
LINE
8
BLACK
6
CONTINUOUS
10
6.589712440944882
20
-5.0907294094488185
11
6.593102362204724
21
-5.0900551181102358
0
LINE
8
BLACK
6
CONTINUOUS
10
6.593102362204724
20
-5.0900551181102358
11
6.6265669291338583
21
-5.0900551181102358
0
LINE
8
BLACK
6
CONTINUOUS
10
6.6265669291338583
20
-5.0900551181102358
11
6.6299568503937003
21
-5.0907294094488185
0
LINE
8
BLACK
6
CONTINUOUS
10
4.7664831102362202
20
-5.0683870078740156
11
4.7696762598425195
21
-5.0705205905511814
0
LINE
8
BLACK
6
CONTINUOUS
10
4.7696762598425195
20
-5.0705205905511814
11
4.7718098425196853
21
-5.0737137401574799
0
LINE
8
BLACK
6
CONTINUOUS
10
4.7718098425196853
20
-5.0737137401574799
11
4.7725590551181103
21
-5.0774803149606296
0
LINE
8
BLACK
6
CONTINUOUS
10
4.7725590551181103
20
-5.0774803149606296
11
4.7725590551181103
21
-5.1129133858267712
0
LINE
8
BLACK
6
CONTINUOUS
10
4.7725590551181103
20
-5.1129133858267712
11
4.7718098425196853
21
-5.1166799606299209
0
LINE
8
BLACK
6
CONTINUOUS
10
4.7718098425196853
20
-5.1166799606299209
11
4.7696762598425195
21
-5.1198731102362203
0
LINE
8
BLACK
6
CONTINUOUS
10
4.7696762598425195
20
-5.1198731102362203
11
4.7664831102362202
21
-5.1220066929133861
0
LINE
8
BLACK
6
CONTINUOUS
10
4.7664831102362202
20
-5.1220066929133861
11
4.7627165354330705
21
-5.122755905511811
0
LINE
8
BLACK
6
CONTINUOUS
10
4.7627165354330705
20
-5.122755905511811
11
4.7420472440944881
21
-5.122755905511811
0
LINE
8
BLACK
6
CONTINUOUS
10
4.7420472440944881
20
-5.122755905511811
11
4.7382806692913384
21
-5.1220066929133861
0
LINE
8
BLACK
6
CONTINUOUS
10
4.7382806692913384
20
-5.1220066929133861
11
4.735087519685039
21
-5.1198731102362203
0
LINE
8
BLACK
6
CONTINUOUS
10
4.735087519685039
20
-5.1198731102362203
11
4.7329539370078741
21
-5.1166799606299209
0
LINE
8
BLACK
6
CONTINUOUS
10
4.7329539370078741
20
-5.1166799606299209
11
4.7322047244094483
21
-5.1129133858267712
0
LINE
8
BLACK
6
CONTINUOUS
10
4.7322047244094483
20
-5.1129133858267712
11
4.7322047244094483
21
-5.0774803149606296
0
LINE
8
BLACK
6
CONTINUOUS
10
4.7322047244094483
20
-5.0774803149606296
11
4.7329539370078741
21
-5.0737137401574799
0
LINE
8
BLACK
6
CONTINUOUS
10
4.7329539370078741
20
-5.0737137401574799
11
4.735087519685039
21
-5.0705205905511814
0
LINE
8
BLACK
6
CONTINUOUS
10
4.735087519685039
20
-5.0705205905511814
11
4.7382806692913384
21
-5.0683870078740156
0
LINE
8
BLACK
6
CONTINUOUS
10
4.7382806692913384
20
-5.0683870078740156
11
4.7420472440944881
21
-5.0676377952755907
0
LINE
8
BLACK
6
CONTINUOUS
10
4.7420472440944881
20
-5.0676377952755907
11
4.7627165354330705
21
-5.0676377952755907
0
LINE
8
BLACK
6
CONTINUOUS
10
4.7627165354330705
20
-5.0676377952755907
11
4.7664831102362202
21
-5.0683870078740156
0
LINE
8
BLACK
6
CONTINUOUS
10
4.8383335039370081
20
-5.0683870078740156
11
4.8415266535433066
21
-5.0705205905511814
0
LINE
8
BLACK
6
CONTINUOUS
10
4.8415266535433066
20
-5.0705205905511814
11
4.8436602362204724
21
-5.0737137401574799
0
LINE
8
BLACK
6
CONTINUOUS
10
4.8436602362204724
20
-5.0737137401574799
11
4.8444094488188973
21
-5.0774803149606296
0
LINE
8
BLACK
6
CONTINUOUS
10
4.8444094488188973
20
-5.0774803149606296
11
4.8444094488188973
21
-5.1129133858267712
0
LINE
8
BLACK
6
CONTINUOUS
10
4.8444094488188973
20
-5.1129133858267712
11
4.8436602362204724
21
-5.1166799606299209
0
LINE
8
BLACK
6
CONTINUOUS
10
4.8436602362204724
20
-5.1166799606299209
11
4.8415266535433066
21
-5.1198731102362203
0
LINE
8
BLACK
6
CONTINUOUS
10
4.8415266535433066
20
-5.1198731102362203
11
4.8383335039370081
21
-5.1220066929133861
0
LINE
8
BLACK
6
CONTINUOUS
10
4.8383335039370081
20
-5.1220066929133861
11
4.8345669291338584
21
-5.122755905511811
0
LINE
8
BLACK
6
CONTINUOUS
10
4.8345669291338584
20
-5.122755905511811
11
4.8138976377952751
21
-5.122755905511811
0
LINE
8
BLACK
6
CONTINUOUS
10
4.8138976377952751
20
-5.122755905511811
11
4.8101310629921255
21
-5.1220066929133861
0
LINE
8
BLACK
6
CONTINUOUS
10
4.8101310629921255
20
-5.1220066929133861
11
4.806937913385827
21
-5.1198731102362203
0
LINE
8
BLACK
6
CONTINUOUS
10
4.806937913385827
20
-5.1198731102362203
11
4.8048043307086612
21
-5.1166799606299209
0
LINE
8
BLACK
6
CONTINUOUS
10
4.8048043307086612
20
-5.1166799606299209
11
4.8040551181102362
21
-5.1129133858267712
0
LINE
8
BLACK
6
CONTINUOUS
10
4.8040551181102362
20
-5.1129133858267712
11
4.8040551181102362
21
-5.0774803149606296
0
LINE
8
BLACK
6
CONTINUOUS
10
4.8040551181102362
20
-5.0774803149606296
11
4.8048043307086612
21
-5.0737137401574799
0
LINE
8
BLACK
6
CONTINUOUS
10
4.8048043307086612
20
-5.0737137401574799
11
4.806937913385827
21
-5.0705205905511814
0
LINE
8
BLACK
6
CONTINUOUS
10
4.806937913385827
20
-5.0705205905511814
11
4.8101310629921255
21
-5.0683870078740156
0
LINE
8
BLACK
6
CONTINUOUS
10
4.8101310629921255
20
-5.0683870078740156
11
4.8138976377952751
21
-5.0676377952755907
0
LINE
8
BLACK
6
CONTINUOUS
10
4.8138976377952751
20
-5.0676377952755907
11
4.8345669291338584
21
-5.0676377952755907
0
LINE
8
BLACK
6
CONTINUOUS
10
4.8345669291338584
20
-5.0676377952755907
11
4.8383335039370081
21
-5.0683870078740156
0
LINE
8
BLACK
6
CONTINUOUS
10
4.9385693700787403
20
-5.0767037795275591
11
4.9402936614173223
21
-5.0778559448818896
0
LINE
8
BLACK
6
CONTINUOUS
10
4.9402936614173223
20
-5.0778559448818896
11
4.9414458267716537
21
-5.0795802362204725
0
LINE
8
BLACK
6
CONTINUOUS
10
4.9414458267716537
20
-5.0795802362204725
11
4.9418503937007872
21
-5.0816141732283464
0
LINE
8
BLACK
6
CONTINUOUS
10
4.9418503937007872
20
-5.0816141732283464
11
4.9418503937007872
21
-5.0961811023622046
0
LINE
8
BLACK
6
CONTINUOUS
10
4.9418503937007872
20
-5.0961811023622046
11
4.9414458267716537
21
-5.0982150393700785
0
LINE
8
BLACK
6
CONTINUOUS
10
4.9414458267716537
20
-5.0982150393700785
11
4.9402936614173223
21
-5.0999393307086613
0
LINE
8
BLACK
6
CONTINUOUS
10
4.9402936614173223
20
-5.0999393307086613
11
4.9385693700787403
21
-5.1010914960629918
0
LINE
8
BLACK
6
CONTINUOUS
10
4.9385693700787403
20
-5.1010914960629918
11
4.9365354330708664
21
-5.1014960629921262
0
LINE
8
BLACK
6
CONTINUOUS
10
4.9365354330708664
20
-5.1014960629921262
11
4.9259055118110231
21
-5.1014960629921262
0
LINE
8
BLACK
6
CONTINUOUS
10
4.9259055118110231
20
-5.1014960629921262
11
4.9238715748031492
21
-5.1010914960629918
0
LINE
8
BLACK
6
CONTINUOUS
10
4.9238715748031492
20
-5.1010914960629918
11
4.9221472834645672
21
-5.0999393307086613
0
LINE
8
BLACK
6
CONTINUOUS
10
4.9221472834645672
20
-5.0999393307086613
11
4.9209951181102358
21
-5.0982150393700785
0
LINE
8
BLACK
6
CONTINUOUS
10
4.9209951181102358
20
-5.0982150393700785
11
4.9205905511811023
21
-5.0961811023622046
0
LINE
8
BLACK
6
CONTINUOUS
10
4.9205905511811023
20
-5.0961811023622046
11
4.9205905511811023
21
-5.0816141732283464
0
LINE
8
BLACK
6
CONTINUOUS
10
4.9205905511811023
20
-5.0816141732283464
11
4.9209951181102358
21
-5.0795802362204725
0
LINE
8
BLACK
6
CONTINUOUS
10
4.9209951181102358
20
-5.0795802362204725
11
4.9221472834645672
21
-5.0778559448818896
0
LINE
8
BLACK
6
CONTINUOUS
10
4.9221472834645672
20
-5.0778559448818896
11
4.9238715748031492
21
-5.0767037795275591
0
LINE
8
BLACK
6
CONTINUOUS
10
4.9238715748031492
20
-5.0767037795275591
11
4.9259055118110231
21
-5.0762992125984248
0
LINE
8
BLACK
6
CONTINUOUS
10
4.9259055118110231
20
-5.0762992125984248
11
4.9365354330708664
21
-5.0762992125984248
0
LINE
8
BLACK
6
CONTINUOUS
10
4.9365354330708664
20
-5.0762992125984248
11
4.9385693700787403
21
-5.0767037795275591
0
LINE
8
BLACK
6
CONTINUOUS
10
4.9787268503937003
20
-5.0767037795275591
11
4.9804511417322832
21
-5.0778559448818896
0
LINE
8
BLACK
6
CONTINUOUS
10
4.9804511417322832
20
-5.0778559448818896
11
4.9816033070866137
21
-5.0795802362204725
0
LINE
8
BLACK
6
CONTINUOUS
10
4.9816033070866137
20
-5.0795802362204725
11
4.9820078740157481
21
-5.0816141732283464
0
LINE
8
BLACK
6
CONTINUOUS
10
4.9820078740157481
20
-5.0816141732283464
11
4.9820078740157481
21
-5.0961811023622046
0
LINE
8
BLACK
6
CONTINUOUS
10
4.9820078740157481
20
-5.0961811023622046
11
4.9816033070866137
21
-5.0982150393700785
0
LINE
8
BLACK
6
CONTINUOUS
10
4.9816033070866137
20
-5.0982150393700785
11
4.9804511417322832
21
-5.0999393307086613
0
LINE
8
BLACK
6
CONTINUOUS
10
4.9804511417322832
20
-5.0999393307086613
11
4.9787268503937003
21
-5.1010914960629918
0
LINE
8
BLACK
6
CONTINUOUS
10
4.9787268503937003
20
-5.1010914960629918
11
4.9766929133858264
21
-5.1014960629921262
0
LINE
8
BLACK
6
CONTINUOUS
10
4.9766929133858264
20
-5.1014960629921262
11
4.966062992125984
21
-5.1014960629921262
0
LINE
8
BLACK
6
CONTINUOUS
10
4.966062992125984
20
-5.1014960629921262
11
4.9640290551181101
21
-5.1010914960629918
0
LINE
8
BLACK
6
CONTINUOUS
10
4.9640290551181101
20
-5.1010914960629918
11
4.9623047637795272
21
-5.0999393307086613
0
LINE
8
BLACK
6
CONTINUOUS
10
4.9623047637795272
20
-5.0999393307086613
11
4.9611525984251967
21
-5.0982150393700785
0
LINE
8
BLACK
6
CONTINUOUS
10
4.9611525984251967
20
-5.0982150393700785
11
4.9607480314960632
21
-5.0961811023622046
0
LINE
8
BLACK
6
CONTINUOUS
10
4.9607480314960632
20
-5.0961811023622046
11
4.9607480314960632
21
-5.0816141732283464
0
LINE
8
BLACK
6
CONTINUOUS
10
4.9607480314960632
20
-5.0816141732283464
11
4.9611525984251967
21
-5.0795802362204725
0
LINE
8
BLACK
6
CONTINUOUS
10
4.9611525984251967
20
-5.0795802362204725
11
4.9623047637795272
21
-5.0778559448818896
0
LINE
8
BLACK
6
CONTINUOUS
10
4.9623047637795272
20
-5.0778559448818896
11
4.9640290551181101
21
-5.0767037795275591
0
LINE
8
BLACK
6
CONTINUOUS
10
4.9640290551181101
20
-5.0767037795275591
11
4.966062992125984
21
-5.0762992125984248
0
LINE
8
BLACK
6
CONTINUOUS
10
4.966062992125984
20
-5.0762992125984248
11
4.9766929133858264
21
-5.0762992125984248
0
LINE
8
BLACK
6
CONTINUOUS
10
4.9766929133858264
20
-5.0762992125984248
11
4.9787268503937003
21
-5.0767037795275591
0
LINE
8
BLACK
6
CONTINUOUS
10
6.4989784645669291
20
-4.9961288582677161
11
6.5013733464566927
21
-4.997729015748031
0
LINE
8
BLACK
6
CONTINUOUS
10
6.5013733464566927
20
-4.997729015748031
11
6.5029735039370076
21
-5.0001238976377955
0
LINE
8
BLACK
6
CONTINUOUS
10
6.5029735039370076
20
-5.0001238976377955
11
6.5035354330708657
21
-5.0029488188976377
0
LINE
8
BLACK
6
CONTINUOUS
10
6.5035354330708657
20
-5.0029488188976377
11
6.5035354330708657
21
-5.0590511811023617
0
LINE
8
BLACK
6
CONTINUOUS
10
6.5035354330708657
20
-5.0590511811023617
11
6.5029735039370076
21
-5.0618761023622048
0
LINE
8
BLACK
6
CONTINUOUS
10
6.5029735039370076
20
-5.0618761023622048
11
6.5013733464566927
21
-5.0642709842519684
0
LINE
8
BLACK
6
CONTINUOUS
10
6.5013733464566927
20
-5.0642709842519684
11
6.4989784645669291
21
-5.0658711417322833
0
LINE
8
BLACK
6
CONTINUOUS
10
6.4989784645669291
20
-5.0658711417322833
11
6.4961535433070861
21
-5.0664330708661414
0
LINE
8
BLACK
6
CONTINUOUS
10
6.4961535433070861
20
-5.0664330708661414
11
6.4813897637795277
21
-5.0664330708661414
0
LINE
8
BLACK
6
CONTINUOUS
10
6.4813897637795277
20
-5.0664330708661414
11
6.4785648425196847
21
-5.0658711417322833
0
LINE
8
BLACK
6
CONTINUOUS
10
6.4785648425196847
20
-5.0658711417322833
11
6.476169960629921
21
-5.0642709842519684
0
LINE
8
BLACK
6
CONTINUOUS
10
6.476169960629921
20
-5.0642709842519684
11
6.4745698031496062
21
-5.0618761023622048
0
LINE
8
BLACK
6
CONTINUOUS
10
6.4745698031496062
20
-5.0618761023622048
11
6.4740078740157481
21
-5.0590511811023617
0
LINE
8
BLACK
6
CONTINUOUS
10
6.4740078740157481
20
-5.0590511811023617
11
6.4740078740157481
21
-5.0029488188976377
0
LINE
8
BLACK
6
CONTINUOUS
10
6.4740078740157481
20
-5.0029488188976377
11
6.4745698031496062
21
-5.0001238976377955
0
LINE
8
BLACK
6
CONTINUOUS
10
6.4745698031496062
20
-5.0001238976377955
11
6.476169960629921
21
-4.997729015748031
0
LINE
8
BLACK
6
CONTINUOUS
10
6.476169960629921
20
-4.997729015748031
11
6.4785648425196847
21
-4.9961288582677161
0
LINE
8
BLACK
6
CONTINUOUS
10
6.4785648425196847
20
-4.9961288582677161
11
6.4813897637795277
21
-4.995566929133858
0
LINE
8
BLACK
6
CONTINUOUS
10
6.4813897637795277
20
-4.995566929133858
11
6.4961535433070861
21
-4.995566929133858
0
LINE
8
BLACK
6
CONTINUOUS
10
6.4961535433070861
20
-4.995566929133858
11
6.4989784645669291
21
-4.9961288582677161
0
LINE
8
BLACK
6
CONTINUOUS
10
6.5451654724409449
20
-4.9960164566929128
11
6.5470813385826769
21
-4.9972966141732282
0
LINE
8
BLACK
6
CONTINUOUS
10
6.5470813385826769
20
-4.9972966141732282
11
6.5483614960629923
21
-4.9992124803149602
0
LINE
8
BLACK
6
CONTINUOUS
10
6.5483614960629923
20
-4.9992124803149602
11
6.5488110236220471
21
-5.0014724409448821
0
LINE
8
BLACK
6
CONTINUOUS
10
6.5488110236220471
20
-5.0014724409448821
11
6.5488110236220471
21
-5.0605275590551182
0
LINE
8
BLACK
6
CONTINUOUS
10
6.5488110236220471
20
-5.0605275590551182
11
6.5483614960629923
21
-5.0627875196850392
0
LINE
8
BLACK
6
CONTINUOUS
10
6.5483614960629923
20
-5.0627875196850392
11
6.5470813385826769
21
-5.0647033858267712
0
LINE
8
BLACK
6
CONTINUOUS
10
6.5470813385826769
20
-5.0647033858267712
11
6.5451654724409449
21
-5.0659835433070866
0
LINE
8
BLACK
6
CONTINUOUS
10
6.5451654724409449
20
-5.0659835433070866
11
6.5429055118110231
21
-5.0664330708661414
0
LINE
8
BLACK
6
CONTINUOUS
10
6.5429055118110231
20
-5.0664330708661414
11
6.5310944881889759
21
-5.0664330708661414
0
LINE
8
BLACK
6
CONTINUOUS
10
6.5310944881889759
20
-5.0664330708661414
11
6.5288345275590549
21
-5.0659835433070866
0
LINE
8
BLACK
6
CONTINUOUS
10
6.5288345275590549
20
-5.0659835433070866
11
6.5269186614173229
21
-5.0647033858267712
0
LINE
8
BLACK
6
CONTINUOUS
10
6.5269186614173229
20
-5.0647033858267712
11
6.5256385039370075
21
-5.0627875196850392
0
LINE
8
BLACK
6
CONTINUOUS
10
6.5256385039370075
20
-5.0627875196850392
11
6.5251889763779527
21
-5.0605275590551182
0
LINE
8
BLACK
6
CONTINUOUS
10
6.5251889763779527
20
-5.0605275590551182
11
6.5251889763779527
21
-5.0014724409448821
0
LINE
8
BLACK
6
CONTINUOUS
10
6.5251889763779527
20
-5.0014724409448821
11
6.5256385039370075
21
-4.9992124803149602
0
LINE
8
BLACK
6
CONTINUOUS
10
6.5256385039370075
20
-4.9992124803149602
11
6.5269186614173229
21
-4.9972966141732282
0
LINE
8
BLACK
6
CONTINUOUS
10
6.5269186614173229
20
-4.9972966141732282
11
6.5288345275590549
21
-4.9960164566929128
0
LINE
8
BLACK
6
CONTINUOUS
10
6.5288345275590549
20
-4.9960164566929128
11
6.5310944881889759
21
-4.995566929133858
0
LINE
8
BLACK
6
CONTINUOUS
10
6.5310944881889759
20
-4.995566929133858
11
6.5429055118110231
21
-4.995566929133858
0
LINE
8
BLACK
6
CONTINUOUS
10
6.5429055118110231
20
-4.995566929133858
11
6.5451654724409449
21
-4.9960164566929128
0
LINE
8
BLACK
6
CONTINUOUS
10
6.5954351574803152
20
-4.9961288582677161
11
6.5978300393700788
21
-4.997729015748031
0
LINE
8
BLACK
6
CONTINUOUS
10
6.5978300393700788
20
-4.997729015748031
11
6.5994301968503937
21
-5.0001238976377955
0
LINE
8
BLACK
6
CONTINUOUS
10
6.5994301968503937
20
-5.0001238976377955
11
6.5999921259842518
21
-5.0029488188976377
0
LINE
8
BLACK
6
CONTINUOUS
10
6.5999921259842518
20
-5.0029488188976377
11
6.5999921259842518
21
-5.0590511811023617
0
LINE
8
BLACK
6
CONTINUOUS
10
6.5999921259842518
20
-5.0590511811023617
11
6.5994301968503937
21
-5.0618761023622048
0
LINE
8
BLACK
6
CONTINUOUS
10
6.5994301968503937
20
-5.0618761023622048
11
6.5978300393700788
21
-5.0642709842519684
0
LINE
8
BLACK
6
CONTINUOUS
10
6.5978300393700788
20
-5.0642709842519684
11
6.5954351574803152
21
-5.0658711417322833
0
LINE
8
BLACK
6
CONTINUOUS
10
6.5954351574803152
20
-5.0658711417322833
11
6.5926102362204722
21
-5.0664330708661414
0
LINE
8
BLACK
6
CONTINUOUS
10
6.5926102362204722
20
-5.0664330708661414
11
6.5778464566929129
21
-5.0664330708661414
0
LINE
8
BLACK
6
CONTINUOUS
10
6.5778464566929129
20
-5.0664330708661414
11
6.5750215354330708
21
-5.0658711417322833
0
LINE
8
BLACK
6
CONTINUOUS
10
6.5750215354330708
20
-5.0658711417322833
11
6.5726266535433071
21
-5.0642709842519684
0
LINE
8
BLACK
6
CONTINUOUS
10
6.5726266535433071
20
-5.0642709842519684
11
6.5710264960629923
21
-5.0618761023622048
0
LINE
8
BLACK
6
CONTINUOUS
10
6.5710264960629923
20
-5.0618761023622048
11
6.5704645669291333
21
-5.0590511811023617
0
LINE
8
BLACK
6
CONTINUOUS
10
6.5704645669291333
20
-5.0590511811023617
11
6.5704645669291333
21
-5.0029488188976377
0
LINE
8
BLACK
6
CONTINUOUS
10
6.5704645669291333
20
-5.0029488188976377
11
6.5710264960629923
21
-5.0001238976377955
0
LINE
8
BLACK
6
CONTINUOUS
10
6.5710264960629923
20
-5.0001238976377955
11
6.5726266535433071
21
-4.997729015748031
0
LINE
8
BLACK
6
CONTINUOUS
10
6.5726266535433071
20
-4.997729015748031
11
6.5750215354330708
21
-4.9961288582677161
0
LINE
8
BLACK
6
CONTINUOUS
10
6.5750215354330708
20
-4.9961288582677161
11
6.5778464566929129
21
-4.995566929133858
0
LINE
8
BLACK
6
CONTINUOUS
10
6.5778464566929129
20
-4.995566929133858
11
6.5926102362204722
21
-4.995566929133858
0
LINE
8
BLACK
6
CONTINUOUS
10
6.5926102362204722
20
-4.995566929133858
11
6.5954351574803152
21
-4.9961288582677161
0
LINE
8
BLACK
6
CONTINUOUS
10
4.1749817716535436
20
-4.8755206299212599
11
4.1775362598425199
21
-4.8772275196850394
0
LINE
8
BLACK
6
CONTINUOUS
10
4.1775362598425199
20
-4.8772275196850394
11
4.1792431496062994
21
-4.8797820078740157
0
LINE
8
BLACK
6
CONTINUOUS
10
4.1792431496062994
20
-4.8797820078740157
11
4.1798425196850388
21
-4.882795275590551
0
LINE
8
BLACK
6
CONTINUOUS
10
4.1798425196850388
20
-4.882795275590551
11
4.1798425196850388
21
-5.0442125984251964
0
LINE
8
BLACK
6
CONTINUOUS
10
4.1798425196850388
20
-5.0442125984251964
11
4.1792431496062994
21
-5.0472258661417317
0
LINE
8
BLACK
6
CONTINUOUS
10
4.1792431496062994
20
-5.0472258661417317
11
4.1775362598425199
21
-5.0497803543307089
0
LINE
8
BLACK
6
CONTINUOUS
10
4.1775362598425199
20
-5.0497803543307089
11
4.1749817716535436
21
-5.0514872440944885
0
LINE
8
BLACK
6
CONTINUOUS
10
4.1749817716535436
20
-5.0514872440944885
11
4.1719685039370074
21
-5.0520866141732279
0
LINE
8
BLACK
6
CONTINUOUS
10
4.1719685039370074
20
-5.0520866141732279
11
3.9672440944881888
21
-5.0520866141732279
0
LINE
8
BLACK
6
CONTINUOUS
10
3.9672440944881888
20
-5.0520866141732279
11
3.9642308267716535
21
-5.0514872440944885
0
LINE
8
BLACK
6
CONTINUOUS
10
3.9642308267716535
20
-5.0514872440944885
11
3.9616763385826772
21
-5.0497803543307089
0
LINE
8
BLACK
6
CONTINUOUS
10
3.9616763385826772
20
-5.0497803543307089
11
3.9599694488188977
21
-5.0472258661417317
0
LINE
8
BLACK
6
CONTINUOUS
10
3.9599694488188977
20
-5.0472258661417317
11
3.9593700787401573
21
-5.0442125984251964
0
LINE
8
BLACK
6
CONTINUOUS
10
3.9593700787401573
20
-5.0442125984251964
11
3.9593700787401573
21
-4.882795275590551
0
LINE
8
BLACK
6
CONTINUOUS
10
3.9593700787401573
20
-4.882795275590551
11
3.9599694488188977
21
-4.8797820078740157
0
LINE
8
BLACK
6
CONTINUOUS
10
3.9599694488188977
20
-4.8797820078740157
11
3.9616763385826772
21
-4.8772275196850394
0
LINE
8
BLACK
6
CONTINUOUS
10
3.9616763385826772
20
-4.8772275196850394
11
3.9642308267716535
21
-4.8755206299212599
0
LINE
8
BLACK
6
CONTINUOUS
10
3.9642308267716535
20
-4.8755206299212599
11
3.9672440944881888
21
-4.8749212598425196
0
LINE
8
BLACK
6
CONTINUOUS
10
3.9672440944881888
20
-4.8749212598425196
11
4.1719685039370074
21
-4.8749212598425196
0
LINE
8
BLACK
6
CONTINUOUS
10
4.1719685039370074
20
-4.8749212598425196
11
4.1749817716535436
21
-4.8755206299212599
0
LINE
8
BLACK
6
CONTINUOUS
10
4.4348242913385825
20
-4.8755206299212599
11
4.4373787795275588
21
-4.8772275196850394
0
LINE
8
BLACK
6
CONTINUOUS
10
4.4373787795275588
20
-4.8772275196850394
11
4.4390856692913383
21
-4.8797820078740157
0
LINE
8
BLACK
6
CONTINUOUS
10
4.4390856692913383
20
-4.8797820078740157
11
4.4396850393700786
21
-4.882795275590551
0
LINE
8
BLACK
6
CONTINUOUS
10
4.4396850393700786
20
-4.882795275590551
11
4.4396850393700786
21
-5.0442125984251964
0
LINE
8
BLACK
6
CONTINUOUS
10
4.4396850393700786
20
-5.0442125984251964
11
4.4390856692913383
21
-5.0472258661417317
0
LINE
8
BLACK
6
CONTINUOUS
10
4.4390856692913383
20
-5.0472258661417317
11
4.4373787795275588
21
-5.0497803543307089
0
LINE
8
BLACK
6
CONTINUOUS
10
4.4373787795275588
20
-5.0497803543307089
11
4.4348242913385825
21
-5.0514872440944885
0
LINE
8
BLACK
6
CONTINUOUS
10
4.4348242913385825
20
-5.0514872440944885
11
4.4318110236220472
21
-5.0520866141732279
0
LINE
8
BLACK
6
CONTINUOUS
10
4.4318110236220472
20
-5.0520866141732279
11
4.2270866141732286
21
-5.0520866141732279
0
LINE
8
BLACK
6
CONTINUOUS
10
4.2270866141732286
20
-5.0520866141732279
11
4.2240733464566924
21
-5.0514872440944885
0
LINE
8
BLACK
6
CONTINUOUS
10
4.2240733464566924
20
-5.0514872440944885
11
4.2215188582677161
21
-5.0497803543307089
0
LINE
8
BLACK
6
CONTINUOUS
10
4.2215188582677161
20
-5.0497803543307089
11
4.2198119685039366
21
-5.0472258661417317
0
LINE
8
BLACK
6
CONTINUOUS
10
4.2198119685039366
20
-5.0472258661417317
11
4.2192125984251971
21
-5.0442125984251964
0
LINE
8
BLACK
6
CONTINUOUS
10
4.2192125984251971
20
-5.0442125984251964
11
4.2192125984251971
21
-4.882795275590551
0
LINE
8
BLACK
6
CONTINUOUS
10
4.2192125984251971
20
-4.882795275590551
11
4.2198119685039366
21
-4.8797820078740157
0
LINE
8
BLACK
6
CONTINUOUS
10
4.2198119685039366
20
-4.8797820078740157
11
4.2215188582677161
21
-4.8772275196850394
0
LINE
8
BLACK
6
CONTINUOUS
10
4.2215188582677161
20
-4.8772275196850394
11
4.2240733464566924
21
-4.8755206299212599
0
LINE
8
BLACK
6
CONTINUOUS
10
4.2240733464566924
20
-4.8755206299212599
11
4.2270866141732286
21
-4.8749212598425196
0
LINE
8
BLACK
6
CONTINUOUS
10
4.2270866141732286
20
-4.8749212598425196
11
4.4318110236220472
21
-4.8749212598425196
0
LINE
8
BLACK
6
CONTINUOUS
10
4.4318110236220472
20
-4.8749212598425196
11
4.4348242913385825
21
-4.8755206299212599
0
LINE
8
BLACK
6
CONTINUOUS
10
4.9385693700787403
20
-4.9983573228346456
11
4.9402936614173223
21
-4.9995094881889761
0
LINE
8
BLACK
6
CONTINUOUS
10
4.9402936614173223
20
-4.9995094881889761
11
4.9414458267716537
21
-5.001233779527559
0
LINE
8
BLACK
6
CONTINUOUS
10
4.9414458267716537
20
-5.001233779527559
11
4.9418503937007872
21
-5.0032677165354329
0
LINE
8
BLACK
6
CONTINUOUS
10
4.9418503937007872
20
-5.0032677165354329
11
4.9418503937007872
21
-5.017834645669291
0
LINE
8
BLACK
6
CONTINUOUS
10
4.9418503937007872
20
-5.017834645669291
11
4.9414458267716537
21
-5.019868582677165
0
LINE
8
BLACK
6
CONTINUOUS
10
4.9414458267716537
20
-5.019868582677165
11
4.9402936614173223
21
-5.0215928740157478
0
LINE
8
BLACK
6
CONTINUOUS
10
4.9402936614173223
20
-5.0215928740157478
11
4.9385693700787403
21
-5.0227450393700783
0
LINE
8
BLACK
6
CONTINUOUS
10
4.9385693700787403
20
-5.0227450393700783
11
4.9365354330708664
21
-5.0231496062992127
0
LINE
8
BLACK
6
CONTINUOUS
10
4.9365354330708664
20
-5.0231496062992127
11
4.9259055118110231
21
-5.0231496062992127
0
LINE
8
BLACK
6
CONTINUOUS
10
4.9259055118110231
20
-5.0231496062992127
11
4.9238715748031492
21
-5.0227450393700783
0
LINE
8
BLACK
6
CONTINUOUS
10
4.9238715748031492
20
-5.0227450393700783
11
4.9221472834645672
21
-5.0215928740157478
0
LINE
8
BLACK
6
CONTINUOUS
10
4.9221472834645672
20
-5.0215928740157478
11
4.9209951181102358
21
-5.019868582677165
0
LINE
8
BLACK
6
CONTINUOUS
10
4.9209951181102358
20
-5.019868582677165
11
4.9205905511811023
21
-5.017834645669291
0
LINE
8
BLACK
6
CONTINUOUS
10
4.9205905511811023
20
-5.017834645669291
11
4.9205905511811023
21
-5.0032677165354329
0
LINE
8
BLACK
6
CONTINUOUS
10
4.9205905511811023
20
-5.0032677165354329
11
4.9209951181102358
21
-5.001233779527559
0
LINE
8
BLACK
6
CONTINUOUS
10
4.9209951181102358
20
-5.001233779527559
11
4.9221472834645672
21
-4.9995094881889761
0
LINE
8
BLACK
6
CONTINUOUS
10
4.9221472834645672
20
-4.9995094881889761
11
4.9238715748031492
21
-4.9983573228346456
0
LINE
8
BLACK
6
CONTINUOUS
10
4.9238715748031492
20
-4.9983573228346456
11
4.9259055118110231
21
-4.9979527559055121
0
LINE
8
BLACK
6
CONTINUOUS
10
4.9259055118110231
20
-4.9979527559055121
11
4.9365354330708664
21
-4.9979527559055121
0
LINE
8
BLACK
6
CONTINUOUS
10
4.9365354330708664
20
-4.9979527559055121
11
4.9385693700787403
21
-4.9983573228346456
0
LINE
8
BLACK
6
CONTINUOUS
10
4.9787268503937003
20
-4.9983573228346456
11
4.9804511417322832
21
-4.9995094881889761
0
LINE
8
BLACK
6
CONTINUOUS
10
4.9804511417322832
20
-4.9995094881889761
11
4.9816033070866137
21
-5.001233779527559
0
LINE
8
BLACK
6
CONTINUOUS
10
4.9816033070866137
20
-5.001233779527559
11
4.9820078740157481
21
-5.0032677165354329
0
LINE
8
BLACK
6
CONTINUOUS
10
4.9820078740157481
20
-5.0032677165354329
11
4.9820078740157481
21
-5.017834645669291
0
LINE
8
BLACK
6
CONTINUOUS
10
4.9820078740157481
20
-5.017834645669291
11
4.9816033070866137
21
-5.019868582677165
0
LINE
8
BLACK
6
CONTINUOUS
10
4.9816033070866137
20
-5.019868582677165
11
4.9804511417322832
21
-5.0215928740157478
0
LINE
8
BLACK
6
CONTINUOUS
10
4.9804511417322832
20
-5.0215928740157478
11
4.9787268503937003
21
-5.0227450393700783
0
LINE
8
BLACK
6
CONTINUOUS
10
4.9787268503937003
20
-5.0227450393700783
11
4.9766929133858264
21
-5.0231496062992127
0
LINE
8
BLACK
6
CONTINUOUS
10
4.9766929133858264
20
-5.0231496062992127
11
4.966062992125984
21
-5.0231496062992127
0
LINE
8
BLACK
6
CONTINUOUS
10
4.966062992125984
20
-5.0231496062992127
11
4.9640290551181101
21
-5.0227450393700783
0
LINE
8
BLACK
6
CONTINUOUS
10
4.9640290551181101
20
-5.0227450393700783
11
4.9623047637795272
21
-5.0215928740157478
0
LINE
8
BLACK
6
CONTINUOUS
10
4.9623047637795272
20
-5.0215928740157478
11
4.9611525984251967
21
-5.019868582677165
0
LINE
8
BLACK
6
CONTINUOUS
10
4.9611525984251967
20
-5.019868582677165
11
4.9607480314960632
21
-5.017834645669291
0
LINE
8
BLACK
6
CONTINUOUS
10
4.9607480314960632
20
-5.017834645669291
11
4.9607480314960632
21
-5.0032677165354329
0
LINE
8
BLACK
6
CONTINUOUS
10
4.9607480314960632
20
-5.0032677165354329
11
4.9611525984251967
21
-5.001233779527559
0
LINE
8
BLACK
6
CONTINUOUS
10
4.9611525984251967
20
-5.001233779527559
11
4.9623047637795272
21
-4.9995094881889761
0
LINE
8
BLACK
6
CONTINUOUS
10
4.9623047637795272
20
-4.9995094881889761
11
4.9640290551181101
21
-4.9983573228346456
0
LINE
8
BLACK
6
CONTINUOUS
10
4.9640290551181101
20
-4.9983573228346456
11
4.966062992125984
21
-4.9979527559055121
0
LINE
8
BLACK
6
CONTINUOUS
10
4.966062992125984
20
-4.9979527559055121
11
4.9766929133858264
21
-4.9979527559055121
0
LINE
8
BLACK
6
CONTINUOUS
10
4.9766929133858264
20
-4.9979527559055121
11
4.9787268503937003
21
-4.9983573228346456
0
LINE
8
BLACK
6
CONTINUOUS
10
4.5277206299212596
20
-4.9870128740157478
11
4.5305944488188974
21
-4.9889331102362204
0
LINE
8
BLACK
6
CONTINUOUS
10
4.5305944488188974
20
-4.9889331102362204
11
4.5325146850393701
21
-4.9918069291338583
0
LINE
8
BLACK
6
CONTINUOUS
10
4.5325146850393701
20
-4.9918069291338583
11
4.5331889763779527
21
-4.9951968503937003
0
LINE
8
BLACK
6
CONTINUOUS
10
4.5331889763779527
20
-4.9951968503937003
11
4.5331889763779527
21
-5.0129133858267716
0
LINE
8
BLACK
6
CONTINUOUS
10
4.5331889763779527
20
-5.0129133858267716
11
4.5325146850393701
21
-5.0163033070866136
0
LINE
8
BLACK
6
CONTINUOUS
10
4.5325146850393701
20
-5.0163033070866136
11
4.5305944488188974
21
-5.0191771259842515
0
LINE
8
BLACK
6
CONTINUOUS
10
4.5305944488188974
20
-5.0191771259842515
11
4.5277206299212596
21
-5.0210973622047241
0
LINE
8
BLACK
6
CONTINUOUS
10
4.5277206299212596
20
-5.0210973622047241
11
4.5243307086614175
21
-5.0217716535433068
0
LINE
8
BLACK
6
CONTINUOUS
10
4.5243307086614175
20
-5.0217716535433068
11
4.4908661417322833
21
-5.0217716535433068
0
LINE
8
BLACK
6
CONTINUOUS
10
4.4908661417322833
20
-5.0217716535433068
11
4.4874762204724412
21
-5.0210973622047241
0
LINE
8
BLACK
6
CONTINUOUS
10
4.4874762204724412
20
-5.0210973622047241
11
4.4846024015748034
21
-5.0191771259842515
0
LINE
8
BLACK
6
CONTINUOUS
10
4.4846024015748034
20
-5.0191771259842515
11
4.4826821653543307
21
-5.0163033070866136
0
LINE
8
BLACK
6
CONTINUOUS
10
4.4826821653543307
20
-5.0163033070866136
11
4.4820078740157481
21
-5.0129133858267716
0
LINE
8
BLACK
6
CONTINUOUS
10
4.4820078740157481
20
-5.0129133858267716
11
4.4820078740157481
21
-4.9951968503937003
0
LINE
8
BLACK
6
CONTINUOUS
10
4.4820078740157481
20
-4.9951968503937003
11
4.4826821653543307
21
-4.9918069291338583
0
LINE
8
BLACK
6
CONTINUOUS
10
4.4826821653543307
20
-4.9918069291338583
11
4.4846024015748034
21
-4.9889331102362204
0
LINE
8
BLACK
6
CONTINUOUS
10
4.4846024015748034
20
-4.9889331102362204
11
4.4874762204724412
21
-4.9870128740157478
0
LINE
8
BLACK
6
CONTINUOUS
10
4.4874762204724412
20
-4.9870128740157478
11
4.4908661417322833
21
-4.9863385826771651
0
LINE
8
BLACK
6
CONTINUOUS
10
4.4908661417322833
20
-4.9863385826771651
11
4.5243307086614175
21
-4.9863385826771651
0
LINE
8
BLACK
6
CONTINUOUS
10
4.5243307086614175
20
-4.9863385826771651
11
4.5277206299212596
21
-4.9870128740157478
0
LINE
8
BLACK
6
CONTINUOUS
10
4.673389921259842
20
-4.9870128740157478
11
4.6762637401574798
21
-4.9889331102362204
0
LINE
8
BLACK
6
CONTINUOUS
10
4.6762637401574798
20
-4.9889331102362204
11
4.6781839763779525
21
-4.9918069291338583
0
LINE
8
BLACK
6
CONTINUOUS
10
4.6781839763779525
20
-4.9918069291338583
11
4.6788582677165351
21
-4.9951968503937003
0
LINE
8
BLACK
6
CONTINUOUS
10
4.6788582677165351
20
-4.9951968503937003
11
4.6788582677165351
21
-5.0129133858267716
0
LINE
8
BLACK
6
CONTINUOUS
10
4.6788582677165351
20
-5.0129133858267716
11
4.6781839763779525
21
-5.0163033070866136
0
LINE
8
BLACK
6
CONTINUOUS
10
4.6781839763779525
20
-5.0163033070866136
11
4.6762637401574798
21
-5.0191771259842515
0
LINE
8
BLACK
6
CONTINUOUS
10
4.6762637401574798
20
-5.0191771259842515
11
4.673389921259842
21
-5.0210973622047241
0
LINE
8
BLACK
6
CONTINUOUS
10
4.673389921259842
20
-5.0210973622047241
11
4.6699999999999999
21
-5.0217716535433068
0
LINE
8
BLACK
6
CONTINUOUS
10
4.6699999999999999
20
-5.0217716535433068
11
4.6365354330708657
21
-5.0217716535433068
0
LINE
8
BLACK
6
CONTINUOUS
10
4.6365354330708657
20
-5.0217716535433068
11
4.6331455118110236
21
-5.0210973622047241
0
LINE
8
BLACK
6
CONTINUOUS
10
4.6331455118110236
20
-5.0210973622047241
11
4.6302716929133858
21
-5.0191771259842515
0
LINE
8
BLACK
6
CONTINUOUS
10
4.6302716929133858
20
-5.0191771259842515
11
4.6283514566929131
21
-5.0163033070866136
0
LINE
8
BLACK
6
CONTINUOUS
10
4.6283514566929131
20
-5.0163033070866136
11
4.6276771653543305
21
-5.0129133858267716
0
LINE
8
BLACK
6
CONTINUOUS
10
4.6276771653543305
20
-5.0129133858267716
11
4.6276771653543305
21
-4.9951968503937003
0
LINE
8
BLACK
6
CONTINUOUS
10
4.6276771653543305
20
-4.9951968503937003
11
4.6283514566929131
21
-4.9918069291338583
0
LINE
8
BLACK
6
CONTINUOUS
10
4.6283514566929131
20
-4.9918069291338583
11
4.6302716929133858
21
-4.9889331102362204
0
LINE
8
BLACK
6
CONTINUOUS
10
4.6302716929133858
20
-4.9889331102362204
11
4.6331455118110236
21
-4.9870128740157478
0
LINE
8
BLACK
6
CONTINUOUS
10
4.6331455118110236
20
-4.9870128740157478
11
4.6365354330708657
21
-4.9863385826771651
0
LINE
8
BLACK
6
CONTINUOUS
10
4.6365354330708657
20
-4.9863385826771651
11
4.6699999999999999
21
-4.9863385826771651
0
LINE
8
BLACK
6
CONTINUOUS
10
4.6699999999999999
20
-4.9863385826771651
11
4.673389921259842
21
-4.9870128740157478
0
LINE
8
BLACK
6
CONTINUOUS
10
4.7862363385826772
20
-4.9757644881889762
11
4.7881522047244092
21
-4.9770446456692916
0
LINE
8
BLACK
6
CONTINUOUS
10
4.7881522047244092
20
-4.9770446456692916
11
4.7894323622047246
21
-4.9789605118110236
0
LINE
8
BLACK
6
CONTINUOUS
10
4.7894323622047246
20
-4.9789605118110236
11
4.7898818897637794
21
-4.9812204724409446
0
LINE
8
BLACK
6
CONTINUOUS
10
4.7898818897637794
20
-4.9812204724409446
11
4.7898818897637794
21
-4.9930314960629918
0
LINE
8
BLACK
6
CONTINUOUS
10
4.7898818897637794
20
-4.9930314960629918
11
4.7894323622047246
21
-4.9952914566929136
0
LINE
8
BLACK
6
CONTINUOUS
10
4.7894323622047246
20
-4.9952914566929136
11
4.7881522047244092
21
-4.9972073228346456
0
LINE
8
BLACK
6
CONTINUOUS
10
4.7881522047244092
20
-4.9972073228346456
11
4.7862363385826772
21
-4.9984874803149602
0
LINE
8
BLACK
6
CONTINUOUS
10
4.7862363385826772
20
-4.9984874803149602
11
4.7839763779527562
21
-4.9989370078740158
0
LINE
8
BLACK
6
CONTINUOUS
10
4.7839763779527562
20
-4.9989370078740158
11
4.737716535433071
21
-4.9989370078740158
0
LINE
8
BLACK
6
CONTINUOUS
10
4.737716535433071
20
-4.9989370078740158
11
4.7354565748031492
21
-4.9984874803149602
0
LINE
8
BLACK
6
CONTINUOUS
10
4.7354565748031492
20
-4.9984874803149602
11
4.7335407086614172
21
-4.9972073228346456
0
LINE
8
BLACK
6
CONTINUOUS
10
4.7335407086614172
20
-4.9972073228346456
11
4.7322605511811027
21
-4.9952914566929136
0
LINE
8
BLACK
6
CONTINUOUS
10
4.7322605511811027
20
-4.9952914566929136
11
4.731811023622047
21
-4.9930314960629918
0
LINE
8
BLACK
6
CONTINUOUS
10
4.731811023622047
20
-4.9930314960629918
11
4.731811023622047
21
-4.9812204724409446
0
LINE
8
BLACK
6
CONTINUOUS
10
4.731811023622047
20
-4.9812204724409446
11
4.7322605511811027
21
-4.9789605118110236
0
LINE
8
BLACK
6
CONTINUOUS
10
4.7322605511811027
20
-4.9789605118110236
11
4.7335407086614172
21
-4.9770446456692916
0
LINE
8
BLACK
6
CONTINUOUS
10
4.7335407086614172
20
-4.9770446456692916
11
4.7354565748031492
21
-4.9757644881889762
0
LINE
8
BLACK
6
CONTINUOUS
10
4.7354565748031492
20
-4.9757644881889762
11
4.737716535433071
21
-4.9753149606299214
0
LINE
8
BLACK
6
CONTINUOUS
10
4.737716535433071
20
-4.9753149606299214
11
4.7839763779527562
21
-4.9753149606299214
0
LINE
8
BLACK
6
CONTINUOUS
10
4.7839763779527562
20
-4.9753149606299214
11
4.7862363385826772
21
-4.9757644881889762
0
LINE
8
BLACK
6
CONTINUOUS
10
4.5424115354330707
20
-4.8924123228346454
11
4.5448064173228344
21
-4.8940124803149603
0
LINE
8
BLACK
6
CONTINUOUS
10
4.5448064173228344
20
-4.8940124803149603
11
4.5464065748031492
21
-4.8964073622047239
0
LINE
8
BLACK
6
CONTINUOUS
10
4.5464065748031492
20
-4.8964073622047239
11
4.5469685039370074
21
-4.899232283464567
0
LINE
8
BLACK
6
CONTINUOUS
10
4.5469685039370074
20
-4.899232283464567
11
4.5469685039370074
21
-4.955334645669291
0
LINE
8
BLACK
6
CONTINUOUS
10
4.5469685039370074
20
-4.955334645669291
11
4.5464065748031492
21
-4.9581595669291341
0
LINE
8
BLACK
6
CONTINUOUS
10
4.5464065748031492
20
-4.9581595669291341
11
4.5448064173228344
21
-4.9605544488188977
0
LINE
8
BLACK
6
CONTINUOUS
10
4.5448064173228344
20
-4.9605544488188977
11
4.5424115354330707
21
-4.9621546062992126
0
LINE
8
BLACK
6
CONTINUOUS
10
4.5424115354330707
20
-4.9621546062992126
11
4.5395866141732286
21
-4.9627165354330707
0
LINE
8
BLACK
6
CONTINUOUS
10
4.5395866141732286
20
-4.9627165354330707
11
4.5248228346456694
21
-4.9627165354330707
0
LINE
8
BLACK
6
CONTINUOUS
10
4.5248228346456694
20
-4.9627165354330707
11
4.5219979133858264
21
-4.9621546062992126
0
LINE
8
BLACK
6
CONTINUOUS
10
4.5219979133858264
20
-4.9621546062992126
11
4.5196030314960627
21
-4.9605544488188977
0
LINE
8
BLACK
6
CONTINUOUS
10
4.5196030314960627
20
-4.9605544488188977
11
4.5180028740157478
21
-4.9581595669291341
0
LINE
8
BLACK
6
CONTINUOUS
10
4.5180028740157478
20
-4.9581595669291341
11
4.5174409448818897
21
-4.955334645669291
0
LINE
8
BLACK
6
CONTINUOUS
10
4.5174409448818897
20
-4.955334645669291
11
4.5174409448818897
21
-4.899232283464567
0
LINE
8
BLACK
6
CONTINUOUS
10
4.5174409448818897
20
-4.899232283464567
11
4.5180028740157478
21
-4.8964073622047239
0
LINE
8
BLACK
6
CONTINUOUS
10
4.5180028740157478
20
-4.8964073622047239
11
4.5196030314960627
21
-4.8940124803149603
0
LINE
8
BLACK
6
CONTINUOUS
10
4.5196030314960627
20
-4.8940124803149603
11
4.5219979133858264
21
-4.8924123228346454
0
LINE
8
BLACK
6
CONTINUOUS
10
4.5219979133858264
20
-4.8924123228346454
11
4.5248228346456694
21
-4.8918503937007873
0
LINE
8
BLACK
6
CONTINUOUS
10
4.5248228346456694
20
-4.8918503937007873
11
4.5395866141732286
21
-4.8918503937007873
0
LINE
8
BLACK
6
CONTINUOUS
10
4.5395866141732286
20
-4.8918503937007873
11
4.5424115354330707
21
-4.8924123228346454
0
LINE
8
BLACK
6
CONTINUOUS
10
4.5885985433070866
20
-4.8922999212598421
11
4.5905144094488186
21
-4.8935800787401575
0
LINE
8
BLACK
6
CONTINUOUS
10
4.5905144094488186
20
-4.8935800787401575
11
4.591794566929134
21
-4.8954959448818895
0
LINE
8
BLACK
6
CONTINUOUS
10
4.591794566929134
20
-4.8954959448818895
11
4.5922440944881888
21
-4.8977559055118105
0
LINE
8
BLACK
6
CONTINUOUS
10
4.5922440944881888
20
-4.8977559055118105
11
4.5922440944881888
21
-4.9568110236220475
0
LINE
8
BLACK
6
CONTINUOUS
10
4.5922440944881888
20
-4.9568110236220475
11
4.591794566929134
21
-4.9590709842519685
0
LINE
8
BLACK
6
CONTINUOUS
10
4.591794566929134
20
-4.9590709842519685
11
4.5905144094488186
21
-4.9609868503937005
0
LINE
8
BLACK
6
CONTINUOUS
10
4.5905144094488186
20
-4.9609868503937005
11
4.5885985433070866
21
-4.9622670078740159
0
LINE
8
BLACK
6
CONTINUOUS
10
4.5885985433070866
20
-4.9622670078740159
11
4.5863385826771657
21
-4.9627165354330707
0
LINE
8
BLACK
6
CONTINUOUS
10
4.5863385826771657
20
-4.9627165354330707
11
4.5745275590551184
21
-4.9627165354330707
0
LINE
8
BLACK
6
CONTINUOUS
10
4.5745275590551184
20
-4.9627165354330707
11
4.5722675984251966
21
-4.9622670078740159
0
LINE
8
BLACK
6
CONTINUOUS
10
4.5722675984251966
20
-4.9622670078740159
11
4.5703517322834646
21
-4.9609868503937005
0
LINE
8
BLACK
6
CONTINUOUS
10
4.5703517322834646
20
-4.9609868503937005
11
4.5690715748031492
21
-4.9590709842519685
0
LINE
8
BLACK
6
CONTINUOUS
10
4.5690715748031492
20
-4.9590709842519685
11
4.5686220472440944
21
-4.9568110236220475
0
LINE
8
BLACK
6
CONTINUOUS
10
4.5686220472440944
20
-4.9568110236220475
11
4.5686220472440944
21
-4.8977559055118105
0
LINE
8
BLACK
6
CONTINUOUS
10
4.5686220472440944
20
-4.8977559055118105
11
4.5690715748031492
21
-4.8954959448818895
0
LINE
8
BLACK
6
CONTINUOUS
10
4.5690715748031492
20
-4.8954959448818895
11
4.5703517322834646
21
-4.8935800787401575
0
LINE
8
BLACK
6
CONTINUOUS
10
4.5703517322834646
20
-4.8935800787401575
11
4.5722675984251966
21
-4.8922999212598421
0
LINE
8
BLACK
6
CONTINUOUS
10
4.5722675984251966
20
-4.8922999212598421
11
4.5745275590551184
21
-4.8918503937007873
0
LINE
8
BLACK
6
CONTINUOUS
10
4.5745275590551184
20
-4.8918503937007873
11
4.5863385826771657
21
-4.8918503937007873
0
LINE
8
BLACK
6
CONTINUOUS
10
4.5863385826771657
20
-4.8918503937007873
11
4.5885985433070866
21
-4.8922999212598421
0
LINE
8
BLACK
6
CONTINUOUS
10
4.6388682283464568
20
-4.8924123228346454
11
4.6412631102362205
21
-4.8940124803149603
0
LINE
8
BLACK
6
CONTINUOUS
10
4.6412631102362205
20
-4.8940124803149603
11
4.6428632677165353
21
-4.8964073622047239
0
LINE
8
BLACK
6
CONTINUOUS
10
4.6428632677165353
20
-4.8964073622047239
11
4.6434251968503935
21
-4.899232283464567
0
LINE
8
BLACK
6
CONTINUOUS
10
4.6434251968503935
20
-4.899232283464567
11
4.6434251968503935
21
-4.955334645669291
0
LINE
8
BLACK
6
CONTINUOUS
10
4.6434251968503935
20
-4.955334645669291
11
4.6428632677165353
21
-4.9581595669291341
0
LINE
8
BLACK
6
CONTINUOUS
10
4.6428632677165353
20
-4.9581595669291341
11
4.6412631102362205
21
-4.9605544488188977
0
LINE
8
BLACK
6
CONTINUOUS
10
4.6412631102362205
20
-4.9605544488188977
11
4.6388682283464568
21
-4.9621546062992126
0
LINE
8
BLACK
6
CONTINUOUS
10
4.6388682283464568
20
-4.9621546062992126
11
4.6360433070866138
21
-4.9627165354330707
0
LINE
8
BLACK
6
CONTINUOUS
10
4.6360433070866138
20
-4.9627165354330707
11
4.6212795275590546
21
-4.9627165354330707
0
LINE
8
BLACK
6
CONTINUOUS
10
4.6212795275590546
20
-4.9627165354330707
11
4.6184546062992125
21
-4.9621546062992126
0
LINE
8
BLACK
6
CONTINUOUS
10
4.6184546062992125
20
-4.9621546062992126
11
4.6160597244094488
21
-4.9605544488188977
0
LINE
8
BLACK
6
CONTINUOUS
10
4.6160597244094488
20
-4.9605544488188977
11
4.6144595669291339
21
-4.9581595669291341
0
LINE
8
BLACK
6
CONTINUOUS
10
4.6144595669291339
20
-4.9581595669291341
11
4.6138976377952758
21
-4.955334645669291
0
LINE
8
BLACK
6
CONTINUOUS
10
4.6138976377952758
20
-4.955334645669291
11
4.6138976377952758
21
-4.899232283464567
0
LINE
8
BLACK
6
CONTINUOUS
10
4.6138976377952758
20
-4.899232283464567
11
4.6144595669291339
21
-4.8964073622047239
0
LINE
8
BLACK
6
CONTINUOUS
10
4.6144595669291339
20
-4.8964073622047239
11
4.6160597244094488
21
-4.8940124803149603
0
LINE
8
BLACK
6
CONTINUOUS
10
4.6160597244094488
20
-4.8940124803149603
11
4.6184546062992125
21
-4.8924123228346454
0
LINE
8
BLACK
6
CONTINUOUS
10
4.6184546062992125
20
-4.8924123228346454
11
4.6212795275590546
21
-4.8918503937007873
0
LINE
8
BLACK
6
CONTINUOUS
10
4.6212795275590546
20
-4.8918503937007873
11
4.6360433070866138
21
-4.8918503937007873
0
LINE
8
BLACK
6
CONTINUOUS
10
4.6360433070866138
20
-4.8918503937007873
11
4.6388682283464568
21
-4.8924123228346454
0
LINE
8
BLACK
6
CONTINUOUS
10
4.8600552362204725
20
-4.9383629133858262
11
4.8619711023622045
21
-4.9396430708661416
0
LINE
8
BLACK
6
CONTINUOUS
10
4.8619711023622045
20
-4.9396430708661416
11
4.8632512598425199
21
-4.9415589370078736
0
LINE
8
BLACK
6
CONTINUOUS
10
4.8632512598425199
20
-4.9415589370078736
11
4.8637007874015747
21
-4.9438188976377955
0
LINE
8
BLACK
6
CONTINUOUS
10
4.8637007874015747
20
-4.9438188976377955
11
4.8637007874015747
21
-4.9556299212598427
0
LINE
8
BLACK
6
CONTINUOUS
10
4.8637007874015747
20
-4.9556299212598427
11
4.8632512598425199
21
-4.9578898818897637
0
LINE
8
BLACK
6
CONTINUOUS
10
4.8632512598425199
20
-4.9578898818897637
11
4.8619711023622045
21
-4.9598057480314957
0
LINE
8
BLACK
6
CONTINUOUS
10
4.8619711023622045
20
-4.9598057480314957
11
4.8600552362204725
21
-4.9610859055118111
0
LINE
8
BLACK
6
CONTINUOUS
10
4.8600552362204725
20
-4.9610859055118111
11
4.8577952755905507
21
-4.9615354330708659
0
LINE
8
BLACK
6
CONTINUOUS
10
4.8577952755905507
20
-4.9615354330708659
11
4.8115354330708664
21
-4.9615354330708659
0
LINE
8
BLACK
6
CONTINUOUS
10
4.8115354330708664
20
-4.9615354330708659
11
4.8092754724409446
21
-4.9610859055118111
0
LINE
8
BLACK
6
CONTINUOUS
10
4.8092754724409446
20
-4.9610859055118111
11
4.8073596062992126
21
-4.9598057480314957
0
LINE
8
BLACK
6
CONTINUOUS
10
4.8073596062992126
20
-4.9598057480314957
11
4.8060794488188971
21
-4.9578898818897637
0
LINE
8
BLACK
6
CONTINUOUS
10
4.8060794488188971
20
-4.9578898818897637
11
4.8056299212598423
21
-4.9556299212598427
0
LINE
8
BLACK
6
CONTINUOUS
10
4.8056299212598423
20
-4.9556299212598427
11
4.8056299212598423
21
-4.9438188976377955
0
LINE
8
BLACK
6
CONTINUOUS
10
4.8056299212598423
20
-4.9438188976377955
11
4.8060794488188971
21
-4.9415589370078736
0
LINE
8
BLACK
6
CONTINUOUS
10
4.8060794488188971
20
-4.9415589370078736
11
4.8073596062992126
21
-4.9396430708661416
0
LINE
8
BLACK
6
CONTINUOUS
10
4.8073596062992126
20
-4.9396430708661416
11
4.8092754724409446
21
-4.9383629133858262
0
LINE
8
BLACK
6
CONTINUOUS
10
4.8092754724409446
20
-4.9383629133858262
11
4.8115354330708664
21
-4.9379133858267714
0
LINE
8
BLACK
6
CONTINUOUS
10
4.8115354330708664
20
-4.9379133858267714
11
4.8577952755905507
21
-4.9379133858267714
0
LINE
8
BLACK
6
CONTINUOUS
10
4.8577952755905507
20
-4.9379133858267714
11
4.8600552362204725
21
-4.9383629133858262
0
LINE
8
BLACK
6
CONTINUOUS
10
4.7862363385826772
20
-4.9009613385826771
11
4.7881522047244092
21
-4.9022414960629916
0
LINE
8
BLACK
6
CONTINUOUS
10
4.7881522047244092
20
-4.9022414960629916
11
4.7894323622047246
21
-4.9041573622047245
0
LINE
8
BLACK
6
CONTINUOUS
10
4.7894323622047246
20
-4.9041573622047245
11
4.7898818897637794
21
-4.9064173228346455
0
LINE
8
BLACK
6
CONTINUOUS
10
4.7898818897637794
20
-4.9064173228346455
11
4.7898818897637794
21
-4.9182283464566927
0
LINE
8
BLACK
6
CONTINUOUS
10
4.7898818897637794
20
-4.9182283464566927
11
4.7894323622047246
21
-4.9204883070866137
0
LINE
8
BLACK
6
CONTINUOUS
10
4.7894323622047246
20
-4.9204883070866137
11
4.7881522047244092
21
-4.9224041732283466
0
LINE
8
BLACK
6
CONTINUOUS
10
4.7881522047244092
20
-4.9224041732283466
11
4.7862363385826772
21
-4.9236843307086611
0
LINE
8
BLACK
6
CONTINUOUS
10
4.7862363385826772
20
-4.9236843307086611
11
4.7839763779527562
21
-4.9241338582677168
0
LINE
8
BLACK
6
CONTINUOUS
10
4.7839763779527562
20
-4.9241338582677168
11
4.737716535433071
21
-4.9241338582677168
0
LINE
8
BLACK
6
CONTINUOUS
10
4.737716535433071
20
-4.9241338582677168
11
4.7354565748031492
21
-4.9236843307086611
0
LINE
8
BLACK
6
CONTINUOUS
10
4.7354565748031492
20
-4.9236843307086611
11
4.7335407086614172
21
-4.9224041732283466
0
LINE
8
BLACK
6
CONTINUOUS
10
4.7335407086614172
20
-4.9224041732283466
11
4.7322605511811027
21
-4.9204883070866137
0
LINE
8
BLACK
6
CONTINUOUS
10
4.7322605511811027
20
-4.9204883070866137
11
4.731811023622047
21
-4.9182283464566927
0
LINE
8
BLACK
6
CONTINUOUS
10
4.731811023622047
20
-4.9182283464566927
11
4.731811023622047
21
-4.9064173228346455
0
LINE
8
BLACK
6
CONTINUOUS
10
4.731811023622047
20
-4.9064173228346455
11
4.7322605511811027
21
-4.9041573622047245
0
LINE
8
BLACK
6
CONTINUOUS
10
4.7322605511811027
20
-4.9041573622047245
11
4.7335407086614172
21
-4.9022414960629916
0
LINE
8
BLACK
6
CONTINUOUS
10
4.7335407086614172
20
-4.9022414960629916
11
4.7354565748031492
21
-4.9009613385826771
0
LINE
8
BLACK
6
CONTINUOUS
10
4.7354565748031492
20
-4.9009613385826771
11
4.737716535433071
21
-4.9005118110236223
0
LINE
8
BLACK
6
CONTINUOUS
10
4.737716535433071
20
-4.9005118110236223
11
4.7839763779527562
21
-4.9005118110236223
0
LINE
8
BLACK
6
CONTINUOUS
10
4.7839763779527562
20
-4.9005118110236223
11
4.7862363385826772
21
-4.9009613385826771
0
LINE
8
BLACK
6
CONTINUOUS
10
4.9471870866141732
20
-4.9047859842519683
11
4.948624015748031
21
-4.9057460629921259
0
LINE
8
BLACK
6
CONTINUOUS
10
4.948624015748031
20
-4.9057460629921259
11
4.9495840944881886
21
-4.9071829921259837
0
LINE
8
BLACK
6
CONTINUOUS
10
4.9495840944881886
20
-4.9071829921259837
11
4.9499212598425197
21
-4.9088779527559057
0
LINE
8
BLACK
6
CONTINUOUS
10
4.9499212598425197
20
-4.9088779527559057
11
4.9499212598425197
21
-4.9177362204724409
0
LINE
8
BLACK
6
CONTINUOUS
10
4.9499212598425197
20
-4.9177362204724409
11
4.9495840944881886
21
-4.9194311811023619
0
LINE
8
BLACK
6
CONTINUOUS
10
4.9495840944881886
20
-4.9194311811023619
11
4.948624015748031
21
-4.9208681102362206
0
LINE
8
BLACK
6
CONTINUOUS
10
4.948624015748031
20
-4.9208681102362206
11
4.9471870866141732
21
-4.9218281889763782
0
LINE
8
BLACK
6
CONTINUOUS
10
4.9471870866141732
20
-4.9218281889763782
11
4.9454921259842521
21
-4.9221653543307085
0
LINE
8
BLACK
6
CONTINUOUS
10
4.9454921259842521
20
-4.9221653543307085
11
4.9307283464566929
21
-4.9221653543307085
0
LINE
8
BLACK
6
CONTINUOUS
10
4.9307283464566929
20
-4.9221653543307085
11
4.9290333858267719
21
-4.9218281889763782
0
LINE
8
BLACK
6
CONTINUOUS
10
4.9290333858267719
20
-4.9218281889763782
11
4.9275964566929131
21
-4.9208681102362206
0
LINE
8
BLACK
6
CONTINUOUS
10
4.9275964566929131
20
-4.9208681102362206
11
4.9266363779527556
21
-4.9194311811023619
0
LINE
8
BLACK
6
CONTINUOUS
10
4.9266363779527556
20
-4.9194311811023619
11
4.9262992125984253
21
-4.9177362204724409
0
LINE
8
BLACK
6
CONTINUOUS
10
4.9262992125984253
20
-4.9177362204724409
11
4.9262992125984253
21
-4.9088779527559057
0
LINE
8
BLACK
6
CONTINUOUS
10
4.9262992125984253
20
-4.9088779527559057
11
4.9266363779527556
21
-4.9071829921259837
0
LINE
8
BLACK
6
CONTINUOUS
10
4.9266363779527556
20
-4.9071829921259837
11
4.9275964566929131
21
-4.9057460629921259
0
LINE
8
BLACK
6
CONTINUOUS
10
4.9275964566929131
20
-4.9057460629921259
11
4.9290333858267719
21
-4.9047859842519683
0
LINE
8
BLACK
6
CONTINUOUS
10
4.9290333858267719
20
-4.9047859842519683
11
4.9307283464566929
21
-4.9044488188976381
0
LINE
8
BLACK
6
CONTINUOUS
10
4.9307283464566929
20
-4.9044488188976381
11
4.9454921259842521
21
-4.9044488188976381
0
LINE
8
BLACK
6
CONTINUOUS
10
4.9454921259842521
20
-4.9044488188976381
11
4.9471870866141732
21
-4.9047859842519683
0
LINE
8
BLACK
6
CONTINUOUS
10
5.0298642519685037
20
-4.9047859842519683
11
5.0313011811023625
21
-4.9057460629921259
0
LINE
8
BLACK
6
CONTINUOUS
10
5.0313011811023625
20
-4.9057460629921259
11
5.0322612598425192
21
-4.9071829921259837
0
LINE
8
BLACK
6
CONTINUOUS
10
5.0322612598425192
20
-4.9071829921259837
11
5.0325984251968503
21
-4.9088779527559057
0
LINE
8
BLACK
6
CONTINUOUS
10
5.0325984251968503
20
-4.9088779527559057
11
5.0325984251968503
21
-4.9177362204724409
0
LINE
8
BLACK
6
CONTINUOUS
10
5.0325984251968503
20
-4.9177362204724409
11
5.0322612598425192
21
-4.9194311811023619
0
LINE
8
BLACK
6
CONTINUOUS
10
5.0322612598425192
20
-4.9194311811023619
11
5.0313011811023625
21
-4.9208681102362206
0
LINE
8
BLACK
6
CONTINUOUS
10
5.0313011811023625
20
-4.9208681102362206
11
5.0298642519685037
21
-4.9218281889763782
0
LINE
8
BLACK
6
CONTINUOUS
10
5.0298642519685037
20
-4.9218281889763782
11
5.0281692913385827
21
-4.9221653543307085
0
LINE
8
BLACK
6
CONTINUOUS
10
5.0281692913385827
20
-4.9221653543307085
11
5.0134055118110235
21
-4.9221653543307085
0
LINE
8
BLACK
6
CONTINUOUS
10
5.0134055118110235
20
-4.9221653543307085
11
5.0117105511811024
21
-4.9218281889763782
0
LINE
8
BLACK
6
CONTINUOUS
10
5.0117105511811024
20
-4.9218281889763782
11
5.0102736220472437
21
-4.9208681102362206
0
LINE
8
BLACK
6
CONTINUOUS
10
5.0102736220472437
20
-4.9208681102362206
11
5.0093135433070861
21
-4.9194311811023619
0
LINE
8
BLACK
6
CONTINUOUS
10
5.0093135433070861
20
-4.9194311811023619
11
5.0089763779527559
21
-4.9177362204724409
0
LINE
8
BLACK
6
CONTINUOUS
10
5.0089763779527559
20
-4.9177362204724409
11
5.0089763779527559
21
-4.9088779527559057
0
LINE
8
BLACK
6
CONTINUOUS
10
5.0089763779527559
20
-4.9088779527559057
11
5.0093135433070861
21
-4.9071829921259837
0
LINE
8
BLACK
6
CONTINUOUS
10
5.0093135433070861
20
-4.9071829921259837
11
5.0102736220472437
21
-4.9057460629921259
0
LINE
8
BLACK
6
CONTINUOUS
10
5.0102736220472437
20
-4.9057460629921259
11
5.0117105511811024
21
-4.9047859842519683
0
LINE
8
BLACK
6
CONTINUOUS
10
5.0117105511811024
20
-4.9047859842519683
11
5.0134055118110235
21
-4.9044488188976381
0
LINE
8
BLACK
6
CONTINUOUS
10
5.0134055118110235
20
-4.9044488188976381
11
5.0281692913385827
21
-4.9044488188976381
0
LINE
8
BLACK
6
CONTINUOUS
10
5.0281692913385827
20
-4.9044488188976381
11
5.0298642519685037
21
-4.9047859842519683
0
LINE
8
BLACK
6
CONTINUOUS
10
5.1081329133858269
20
-4.8822305905511811
11
5.1099210629921261
21
-4.8834253937007874
0
LINE
8
BLACK
6
CONTINUOUS
10
5.1099210629921261
20
-4.8834253937007874
11
5.1111158661417324
21
-4.8852135433070867
0
LINE
8
BLACK
6
CONTINUOUS
10
5.1111158661417324
20
-4.8852135433070867
11
5.1115354330708662
21
-4.8873228346456692
0
LINE
8
BLACK
6
CONTINUOUS
10
5.1115354330708662
20
-4.8873228346456692
11
5.1115354330708662
21
-4.9007086614173225
0
LINE
8
BLACK
6
CONTINUOUS
10
5.1115354330708662
20
-4.9007086614173225
11
5.1111158661417324
21
-4.902817952755905
0
LINE
8
BLACK
6
CONTINUOUS
10
5.1111158661417324
20
-4.902817952755905
11
5.1099210629921261
21
-4.9046061023622043
0
LINE
8
BLACK
6
CONTINUOUS
10
5.1099210629921261
20
-4.9046061023622043
11
5.1081329133858269
21
-4.9058009055118106
0
LINE
8
BLACK
6
CONTINUOUS
10
5.1081329133858269
20
-4.9058009055118106
11
5.1060236220472444
21
-4.9062204724409444
0
LINE
8
BLACK
6
CONTINUOUS
10
5.1060236220472444
20
-4.9062204724409444
11
5.0949999999999998
21
-4.9062204724409444
0
LINE
8
BLACK
6
CONTINUOUS
10
5.0949999999999998
20
-4.9062204724409444
11
5.0928907086614172
21
-4.9058009055118106
0
LINE
8
BLACK
6
CONTINUOUS
10
5.0928907086614172
20
-4.9058009055118106
11
5.091102559055118
21
-4.9046061023622043
0
LINE
8
BLACK
6
CONTINUOUS
10
5.091102559055118
20
-4.9046061023622043
11
5.0899077559055117
21
-4.902817952755905
0
LINE
8
BLACK
6
CONTINUOUS
10
5.0899077559055117
20
-4.902817952755905
11
5.0894881889763779
21
-4.9007086614173225
0
LINE
8
BLACK
6
CONTINUOUS
10
5.0894881889763779
20
-4.9007086614173225
11
5.0894881889763779
21
-4.8873228346456692
0
LINE
8
BLACK
6
CONTINUOUS
10
5.0894881889763779
20
-4.8873228346456692
11
5.0899077559055117
21
-4.8852135433070867
0
LINE
8
BLACK
6
CONTINUOUS
10
5.0899077559055117
20
-4.8852135433070867
11
5.091102559055118
21
-4.8834253937007874
0
LINE
8
BLACK
6
CONTINUOUS
10
5.091102559055118
20
-4.8834253937007874
11
5.0928907086614172
21
-4.8822305905511811
0
LINE
8
BLACK
6
CONTINUOUS
10
5.0928907086614172
20
-4.8822305905511811
11
5.0949999999999998
21
-4.8818110236220473
0
LINE
8
BLACK
6
CONTINUOUS
10
5.0949999999999998
20
-4.8818110236220473
11
5.1060236220472444
21
-4.8818110236220473
0
LINE
8
BLACK
6
CONTINUOUS
10
5.1060236220472444
20
-4.8818110236220473
11
5.1081329133858269
21
-4.8822305905511811
0
LINE
8
BLACK
6
CONTINUOUS
10
5.1459281889763782
20
-4.8822305905511811
11
5.1477163385826774
21
-4.8834253937007874
0
LINE
8
BLACK
6
CONTINUOUS
10
5.1477163385826774
20
-4.8834253937007874
11
5.1489111417322837
21
-4.8852135433070867
0
LINE
8
BLACK
6
CONTINUOUS
10
5.1489111417322837
20
-4.8852135433070867
11
5.1493307086614175
21
-4.8873228346456692
0
LINE
8
BLACK
6
CONTINUOUS
10
5.1493307086614175
20
-4.8873228346456692
11
5.1493307086614175
21
-4.9007086614173225
0
LINE
8
BLACK
6
CONTINUOUS
10
5.1493307086614175
20
-4.9007086614173225
11
5.1489111417322837
21
-4.902817952755905
0
LINE
8
BLACK
6
CONTINUOUS
10
5.1489111417322837
20
-4.902817952755905
11
5.1477163385826774
21
-4.9046061023622043
0
LINE
8
BLACK
6
CONTINUOUS
10
5.1477163385826774
20
-4.9046061023622043
11
5.1459281889763782
21
-4.9058009055118106
0
LINE
8
BLACK
6
CONTINUOUS
10
5.1459281889763782
20
-4.9058009055118106
11
5.1438188976377948
21
-4.9062204724409444
0
LINE
8
BLACK
6
CONTINUOUS
10
5.1438188976377948
20
-4.9062204724409444
11
5.132795275590551
21
-4.9062204724409444
0
LINE
8
BLACK
6
CONTINUOUS
10
5.132795275590551
20
-4.9062204724409444
11
5.1306859842519685
21
-4.9058009055118106
0
LINE
8
BLACK
6
CONTINUOUS
10
5.1306859842519685
20
-4.9058009055118106
11
5.1288978346456693
21
-4.9046061023622043
0
LINE
8
BLACK
6
CONTINUOUS
10
5.1288978346456693
20
-4.9046061023622043
11
5.127703031496063
21
-4.902817952755905
0
LINE
8
BLACK
6
CONTINUOUS
10
5.127703031496063
20
-4.902817952755905
11
5.1272834645669292
21
-4.9007086614173225
0
LINE
8
BLACK
6
CONTINUOUS
10
5.1272834645669292
20
-4.9007086614173225
11
5.1272834645669292
21
-4.8873228346456692
0
LINE
8
BLACK
6
CONTINUOUS
10
5.1272834645669292
20
-4.8873228346456692
11
5.127703031496063
21
-4.8852135433070867
0
LINE
8
BLACK
6
CONTINUOUS
10
5.127703031496063
20
-4.8852135433070867
11
5.1288978346456693
21
-4.8834253937007874
0
LINE
8
BLACK
6
CONTINUOUS
10
5.1288978346456693
20
-4.8834253937007874
11
5.1306859842519685
21
-4.8822305905511811
0
LINE
8
BLACK
6
CONTINUOUS
10
5.1306859842519685
20
-4.8822305905511811
11
5.132795275590551
21
-4.8818110236220473
0
LINE
8
BLACK
6
CONTINUOUS
10
5.132795275590551
20
-4.8818110236220473
11
5.1438188976377948
21
-4.8818110236220473
0
LINE
8
BLACK
6
CONTINUOUS
10
5.1438188976377948
20
-4.8818110236220473
11
5.1459281889763782
21
-4.8822305905511811
0
LINE
8
BLACK
6
CONTINUOUS
10
6.545490984251968
20
-4.3873003937007873
11
6.5486841338582673
21
-4.3894339763779531
0
LINE
8
BLACK
6
CONTINUOUS
10
6.5486841338582673
20
-4.3894339763779531
11
6.5508177165354331
21
-4.3926271259842515
0
LINE
8
BLACK
6
CONTINUOUS
10
6.5508177165354331
20
-4.3926271259842515
11
6.5515669291338581
21
-4.3963937007874012
0
LINE
8
BLACK
6
CONTINUOUS
10
6.5515669291338581
20
-4.3963937007874012
11
6.5515669291338581
21
-4.4456062992125984
0
LINE
8
BLACK
6
CONTINUOUS
10
6.5515669291338581
20
-4.4456062992125984
11
6.5508177165354331
21
-4.4493728740157481
0
LINE
8
BLACK
6
CONTINUOUS
10
6.5508177165354331
20
-4.4493728740157481
11
6.5486841338582673
21
-4.4525660236220475
0
LINE
8
BLACK
6
CONTINUOUS
10
6.5486841338582673
20
-4.4525660236220475
11
6.545490984251968
21
-4.4546996062992124
0
LINE
8
BLACK
6
CONTINUOUS
10
6.545490984251968
20
-4.4546996062992124
11
6.5417244094488192
21
-4.4554488188976373
0
LINE
8
BLACK
6
CONTINUOUS
10
6.5417244094488192
20
-4.4554488188976373
11
6.5171181102362201
21
-4.4554488188976373
0
LINE
8
BLACK
6
CONTINUOUS
10
6.5171181102362201
20
-4.4554488188976373
11
6.5133515354330704
21
-4.4546996062992124
0
LINE
8
BLACK
6
CONTINUOUS
10
6.5133515354330704
20
-4.4546996062992124
11
6.5101583858267711
21
-4.4525660236220475
0
LINE
8
BLACK
6
CONTINUOUS
10
6.5101583858267711
20
-4.4525660236220475
11
6.5080248031496062
21
-4.4493728740157481
0
LINE
8
BLACK
6
CONTINUOUS
10
6.5080248031496062
20
-4.4493728740157481
11
6.5072755905511812
21
-4.4456062992125984
0
LINE
8
BLACK
6
CONTINUOUS
10
6.5072755905511812
20
-4.4456062992125984
11
6.5072755905511812
21
-4.3963937007874012
0
LINE
8
BLACK
6
CONTINUOUS
10
6.5072755905511812
20
-4.3963937007874012
11
6.5080248031496062
21
-4.3926271259842515
0
LINE
8
BLACK
6
CONTINUOUS
10
6.5080248031496062
20
-4.3926271259842515
11
6.5101583858267711
21
-4.3894339763779531
0
LINE
8
BLACK
6
CONTINUOUS
10
6.5101583858267711
20
-4.3894339763779531
11
6.5133515354330704
21
-4.3873003937007873
0
LINE
8
BLACK
6
CONTINUOUS
10
6.5133515354330704
20
-4.3873003937007873
11
6.5171181102362201
21
-4.3865511811023623
0
LINE
8
BLACK
6
CONTINUOUS
10
6.5171181102362201
20
-4.3865511811023623
11
6.5417244094488192
21
-4.3865511811023623
0
LINE
8
BLACK
6
CONTINUOUS
10
6.5417244094488192
20
-4.3865511811023623
11
6.545490984251968
21
-4.3873003937007873
0
LINE
8
BLACK
6
CONTINUOUS
10
6.6606484645669291
20
-4.3873003937007873
11
6.6638416141732284
21
-4.3894339763779531
0
LINE
8
BLACK
6
CONTINUOUS
10
6.6638416141732284
20
-4.3894339763779531
11
6.6659751968503933
21
-4.3926271259842515
0
LINE
8
BLACK
6
CONTINUOUS
10
6.6659751968503933
20
-4.3926271259842515
11
6.6667244094488192
21
-4.3963937007874012
0
LINE
8
BLACK
6
CONTINUOUS
10
6.6667244094488192
20
-4.3963937007874012
11
6.6667244094488192
21
-4.4456062992125984
0
LINE
8
BLACK
6
CONTINUOUS
10
6.6667244094488192
20
-4.4456062992125984
11
6.6659751968503933
21
-4.4493728740157481
0
LINE
8
BLACK
6
CONTINUOUS
10
6.6659751968503933
20
-4.4493728740157481
11
6.6638416141732284
21
-4.4525660236220475
0
LINE
8
BLACK
6
CONTINUOUS
10
6.6638416141732284
20
-4.4525660236220475
11
6.6606484645669291
21
-4.4546996062992124
0
LINE
8
BLACK
6
CONTINUOUS
10
6.6606484645669291
20
-4.4546996062992124
11
6.6568818897637794
21
-4.4554488188976373
0
LINE
8
BLACK
6
CONTINUOUS
10
6.6568818897637794
20
-4.4554488188976373
11
6.6322755905511812
21
-4.4554488188976373
0
LINE
8
BLACK
6
CONTINUOUS
10
6.6322755905511812
20
-4.4554488188976373
11
6.6285090157480315
21
-4.4546996062992124
0
LINE
8
BLACK
6
CONTINUOUS
10
6.6285090157480315
20
-4.4546996062992124
11
6.6253158661417322
21
-4.4525660236220475
0
LINE
8
BLACK
6
CONTINUOUS
10
6.6253158661417322
20
-4.4525660236220475
11
6.6231822834645664
21
-4.4493728740157481
0
LINE
8
BLACK
6
CONTINUOUS
10
6.6231822834645664
20
-4.4493728740157481
11
6.6224330708661414
21
-4.4456062992125984
0
LINE
8
BLACK
6
CONTINUOUS
10
6.6224330708661414
20
-4.4456062992125984
11
6.6224330708661414
21
-4.3963937007874012
0
LINE
8
BLACK
6
CONTINUOUS
10
6.6224330708661414
20
-4.3963937007874012
11
6.6231822834645664
21
-4.3926271259842515
0
LINE
8
BLACK
6
CONTINUOUS
10
6.6231822834645664
20
-4.3926271259842515
11
6.6253158661417322
21
-4.3894339763779531
0
LINE
8
BLACK
6
CONTINUOUS
10
6.6253158661417322
20
-4.3894339763779531
11
6.6285090157480315
21
-4.3873003937007873
0
LINE
8
BLACK
6
CONTINUOUS
10
6.6285090157480315
20
-4.3873003937007873
11
6.6322755905511812
21
-4.3865511811023623
0
LINE
8
BLACK
6
CONTINUOUS
10
6.6322755905511812
20
-4.3865511811023623
11
6.6568818897637794
21
-4.3865511811023623
0
LINE
8
BLACK
6
CONTINUOUS
10
6.6568818897637794
20
-4.3865511811023623
11
6.6606484645669291
21
-4.3873003937007873
0
LINE
8
BLACK
6
CONTINUOUS
10
4.7218425196850395
20
-3.1887952755905511
11
4.6765669291338581
21
-3.1887952755905511
0
LINE
8
BLACK
6
CONTINUOUS
10
4.6765669291338581
20
-3.1887952755905511
11
4.6765669291338581
21
-3.1651732283464566
0
LINE
8
BLACK
6
CONTINUOUS
10
4.6765669291338581
20
-3.1651732283464566
11
4.7218425196850395
21
-3.1651732283464566
0
LINE
8
BLACK
6
CONTINUOUS
10
4.7218425196850395
20
-3.1651732283464566
11
4.7218425196850395
21
-3.1887952755905511
0
LINE
8
BLACK
6
CONTINUOUS
10
4.7218425196850395
20
-3.1572992125984252
11
4.6765669291338581
21
-3.1572992125984252
0
LINE
8
BLACK
6
CONTINUOUS
10
4.6765669291338581
20
-3.1572992125984252
11
4.6765669291338581
21
-3.1336771653543307
0
LINE
8
BLACK
6
CONTINUOUS
10
4.6765669291338581
20
-3.1336771653543307
11
4.7218425196850395
21
-3.1336771653543307
0
LINE
8
BLACK
6
CONTINUOUS
10
4.7218425196850395
20
-3.1336771653543307
11
4.7218425196850395
21
-3.1572992125984252
0
LINE
8
BLACK
6
CONTINUOUS
10
4.7218425196850395
20
-3.1258031496062992
11
4.6765669291338581
21
-3.1258031496062992
0
LINE
8
BLACK
6
CONTINUOUS
10
4.6765669291338581
20
-3.1258031496062992
11
4.6765669291338581
21
-3.113992125984252
0
LINE
8
BLACK
6
CONTINUOUS
10
4.6765669291338581
20
-3.113992125984252
11
4.7218425196850395
21
-3.113992125984252
0
LINE
8
BLACK
6
CONTINUOUS
10
4.7218425196850395
20
-3.113992125984252
11
4.7218425196850395
21
-3.1258031496062992
0
LINE
8
BLACK
6
CONTINUOUS
10
4.7218425196850395
20
-3.1061181102362205
11
4.6765669291338581
21
-3.1061181102362205
0
LINE
8
BLACK
6
CONTINUOUS
10
4.6765669291338581
20
-3.1061181102362205
11
4.6765669291338581
21
-3.0943070866141733
0
LINE
8
BLACK
6
CONTINUOUS
10
4.6765669291338581
20
-3.0943070866141733
11
4.7218425196850395
21
-3.0943070866141733
0
LINE
8
BLACK
6
CONTINUOUS
10
4.7218425196850395
20
-3.0943070866141733
11
4.7218425196850395
21
-3.1061181102362205
0
LINE
8
BLACK
6
CONTINUOUS
10
4.7218425196850395
20
-3.0864330708661418
11
4.6765669291338581
21
-3.0864330708661418
0
LINE
8
BLACK
6
CONTINUOUS
10
4.6765669291338581
20
-3.0864330708661418
11
4.6765669291338581
21
-3.0746220472440946
0
LINE
8
BLACK
6
CONTINUOUS
10
4.6765669291338581
20
-3.0746220472440946
11
4.7218425196850395
21
-3.0746220472440946
0
LINE
8
BLACK
6
CONTINUOUS
10
4.7218425196850395
20
-3.0746220472440946
11
4.7218425196850395
21
-3.0864330708661418
0
LINE
8
BLACK
6
CONTINUOUS
10
4.7218425196850395
20
-3.0667480314960631
11
4.6765669291338581
21
-3.0667480314960631
0
LINE
8
BLACK
6
CONTINUOUS
10
4.6765669291338581
20
-3.0667480314960631
11
4.6765669291338581
21
-3.0549370078740159
0
LINE
8
BLACK
6
CONTINUOUS
10
4.6765669291338581
20
-3.0549370078740159
11
4.7218425196850395
21
-3.0549370078740159
0
LINE
8
BLACK
6
CONTINUOUS
10
4.7218425196850395
20
-3.0549370078740159
11
4.7218425196850395
21
-3.0667480314960631
0
LINE
8
BLACK
6
CONTINUOUS
10
4.7218425196850395
20
-3.047062992125984
11
4.6765669291338581
21
-3.047062992125984
0
LINE
8
BLACK
6
CONTINUOUS
10
4.6765669291338581
20
-3.047062992125984
11
4.6765669291338581
21
-3.0352519685039367
0
LINE
8
BLACK
6
CONTINUOUS
10
4.6765669291338581
20
-3.0352519685039367
11
4.7218425196850395
21
-3.0352519685039367
0
LINE
8
BLACK
6
CONTINUOUS
10
4.7218425196850395
20
-3.0352519685039367
11
4.7218425196850395
21
-3.047062992125984
0
LINE
8
BLACK
6
CONTINUOUS
10
4.7218425196850395
20
-3.0273779527559053
11
4.6765669291338581
21
-3.0273779527559053
0
LINE
8
BLACK
6
CONTINUOUS
10
4.6765669291338581
20
-3.0273779527559053
11
4.6765669291338581
21
-3.015566929133858
0
LINE
8
BLACK
6
CONTINUOUS
10
4.6765669291338581
20
-3.015566929133858
11
4.7218425196850395
21
-3.015566929133858
0
LINE
8
BLACK
6
CONTINUOUS
10
4.7218425196850395
20
-3.015566929133858
11
4.7218425196850395
21
-3.0273779527559053
0
LINE
8
BLACK
6
CONTINUOUS
10
4.7218425196850395
20
-3.0076929133858266
11
4.6765669291338581
21
-3.0076929133858266
0
LINE
8
BLACK
6
CONTINUOUS
10
4.6765669291338581
20
-3.0076929133858266
11
4.6765669291338581
21
-2.9958818897637793
0
LINE
8
BLACK
6
CONTINUOUS
10
4.6765669291338581
20
-2.9958818897637793
11
4.7218425196850395
21
-2.9958818897637793
0
LINE
8
BLACK
6
CONTINUOUS
10
4.7218425196850395
20
-2.9958818897637793
11
4.7218425196850395
21
-3.0076929133858266
0
LINE
8
BLACK
6
CONTINUOUS
10
4.7218425196850395
20
-2.9880078740157479
11
4.6765669291338581
21
-2.9880078740157479
0
LINE
8
BLACK
6
CONTINUOUS
10
4.6765669291338581
20
-2.9880078740157479
11
4.6765669291338581
21
-2.9761968503937006
0
LINE
8
BLACK
6
CONTINUOUS
10
4.6765669291338581
20
-2.9761968503937006
11
4.7218425196850395
21
-2.9761968503937006
0
LINE
8
BLACK
6
CONTINUOUS
10
4.7218425196850395
20
-2.9761968503937006
11
4.7218425196850395
21
-2.9880078740157479
0
LINE
8
BLACK
6
CONTINUOUS
10
4.7218425196850395
20
-2.9683228346456692
11
4.6765669291338581
21
-2.9683228346456692
0
LINE
8
BLACK
6
CONTINUOUS
10
4.6765669291338581
20
-2.9683228346456692
11
4.6765669291338581
21
-2.9447007874015747
0
LINE
8
BLACK
6
CONTINUOUS
10
4.6765669291338581
20
-2.9447007874015747
11
4.7218425196850395
21
-2.9447007874015747
0
LINE
8
BLACK
6
CONTINUOUS
10
4.7218425196850395
20
-2.9447007874015747
11
4.7218425196850395
21
-2.9683228346456692
0
LINE
8
BLACK
6
CONTINUOUS
10
4.7218425196850395
20
-2.9368267716535432
11
4.6765669291338581
21
-2.9368267716535432
0
LINE
8
BLACK
6
CONTINUOUS
10
4.6765669291338581
20
-2.9368267716535432
11
4.6765669291338581
21
-2.9132047244094488
0
LINE
8
BLACK
6
CONTINUOUS
10
4.6765669291338581
20
-2.9132047244094488
11
4.7218425196850395
21
-2.9132047244094488
0
LINE
8
BLACK
6
CONTINUOUS
10
4.7218425196850395
20
-2.9132047244094488
11
4.7218425196850395
21
-2.9368267716535432
0
LINE
8
BLACK
6
CONTINUOUS
10
5.607826771653543
20
-2.8964330708661419
11
5.5842047244094486
21
-2.8964330708661419
0
LINE
8
BLACK
6
CONTINUOUS
10
5.5842047244094486
20
-2.8964330708661419
11
5.5842047244094486
21
-2.8511574803149604
0
LINE
8
BLACK
6
CONTINUOUS
10
5.5842047244094486
20
-2.8511574803149604
11
5.607826771653543
21
-2.8511574803149604
0
LINE
8
BLACK
6
CONTINUOUS
10
5.607826771653543
20
-2.8511574803149604
11
5.607826771653543
21
-2.8964330708661419
0
LINE
8
BLACK
6
CONTINUOUS
10
5.639322834645669
20
-2.8964330708661419
11
5.6157007874015745
21
-2.8964330708661419
0
LINE
8
BLACK
6
CONTINUOUS
10
5.6157007874015745
20
-2.8964330708661419
11
5.6157007874015745
21
-2.8511574803149604
0
LINE
8
BLACK
6
CONTINUOUS
10
5.6157007874015745
20
-2.8511574803149604
11
5.639322834645669
21
-2.8511574803149604
0
LINE
8
BLACK
6
CONTINUOUS
10
5.639322834645669
20
-2.8511574803149604
11
5.639322834645669
21
-2.8964330708661419
0
LINE
8
BLACK
6
CONTINUOUS
10
5.6590078740157477
20
-2.8964330708661419
11
5.6471968503937005
21
-2.8964330708661419
0
LINE
8
BLACK
6
CONTINUOUS
10
5.6471968503937005
20
-2.8964330708661419
11
5.6471968503937005
21
-2.8511574803149604
0
LINE
8
BLACK
6
CONTINUOUS
10
5.6471968503937005
20
-2.8511574803149604
11
5.6590078740157477
21
-2.8511574803149604
0
LINE
8
BLACK
6
CONTINUOUS
10
5.6590078740157477
20
-2.8511574803149604
11
5.6590078740157477
21
-2.8964330708661419
0
LINE
8
BLACK
6
CONTINUOUS
10
5.6786929133858264
20
-2.8964330708661419
11
5.6668818897637792
21
-2.8964330708661419
0
LINE
8
BLACK
6
CONTINUOUS
10
5.6668818897637792
20
-2.8964330708661419
11
5.6668818897637792
21
-2.8511574803149604
0
LINE
8
BLACK
6
CONTINUOUS
10
5.6668818897637792
20
-2.8511574803149604
11
5.6786929133858264
21
-2.8511574803149604
0
LINE
8
BLACK
6
CONTINUOUS
10
5.6786929133858264
20
-2.8511574803149604
11
5.6786929133858264
21
-2.8964330708661419
0
LINE
8
BLACK
6
CONTINUOUS
10
5.6983779527559051
20
-2.8964330708661419
11
5.6865669291338579
21
-2.8964330708661419
0
LINE
8
BLACK
6
CONTINUOUS
10
5.6865669291338579
20
-2.8964330708661419
11
5.6865669291338579
21
-2.8511574803149604
0
LINE
8
BLACK
6
CONTINUOUS
10
5.6865669291338579
20
-2.8511574803149604
11
5.6983779527559051
21
-2.8511574803149604
0
LINE
8
BLACK
6
CONTINUOUS
10
5.6983779527559051
20
-2.8511574803149604
11
5.6983779527559051
21
-2.8964330708661419
0
LINE
8
BLACK
6
CONTINUOUS
10
5.7180629921259838
20
-2.8964330708661419
11
5.7062519685039366
21
-2.8964330708661419
0
LINE
8
BLACK
6
CONTINUOUS
10
5.7062519685039366
20
-2.8964330708661419
11
5.7062519685039366
21
-2.8511574803149604
0
LINE
8
BLACK
6
CONTINUOUS
10
5.7062519685039366
20
-2.8511574803149604
11
5.7180629921259838
21
-2.8511574803149604
0
LINE
8
BLACK
6
CONTINUOUS
10
5.7180629921259838
20
-2.8511574803149604
11
5.7180629921259838
21
-2.8964330708661419
0
LINE
8
BLACK
6
CONTINUOUS
10
5.7377480314960625
20
-2.8964330708661419
11
5.7259370078740153
21
-2.8964330708661419
0
LINE
8
BLACK
6
CONTINUOUS
10
5.7259370078740153
20
-2.8964330708661419
11
5.7259370078740153
21
-2.8511574803149604
0
LINE
8
BLACK
6
CONTINUOUS
10
5.7259370078740153
20
-2.8511574803149604
11
5.7377480314960625
21
-2.8511574803149604
0
LINE
8
BLACK
6
CONTINUOUS
10
5.7377480314960625
20
-2.8511574803149604
11
5.7377480314960625
21
-2.8964330708661419
0
LINE
8
BLACK
6
CONTINUOUS
10
5.7574330708661412
20
-2.8964330708661419
11
5.745622047244094
21
-2.8964330708661419
0
LINE
8
BLACK
6
CONTINUOUS
10
5.745622047244094
20
-2.8964330708661419
11
5.745622047244094
21
-2.8511574803149604
0
LINE
8
BLACK
6
CONTINUOUS
10
5.745622047244094
20
-2.8511574803149604
11
5.7574330708661412
21
-2.8511574803149604
0
LINE
8
BLACK
6
CONTINUOUS
10
5.7574330708661412
20
-2.8511574803149604
11
5.7574330708661412
21
-2.8964330708661419
0
LINE
8
BLACK
6
CONTINUOUS
10
5.7771181102362199
20
-2.8964330708661419
11
5.7653070866141727
21
-2.8964330708661419
0
LINE
8
BLACK
6
CONTINUOUS
10
5.7653070866141727
20
-2.8964330708661419
11
5.7653070866141727
21
-2.8511574803149604
0
LINE
8
BLACK
6
CONTINUOUS
10
5.7653070866141727
20
-2.8511574803149604
11
5.7771181102362199
21
-2.8511574803149604
0
LINE
8
BLACK
6
CONTINUOUS
10
5.7771181102362199
20
-2.8511574803149604
11
5.7771181102362199
21
-2.8964330708661419
0
LINE
8
BLACK
6
CONTINUOUS
10
5.7968031496062995
20
-2.8964330708661419
11
5.7849921259842523
21
-2.8964330708661419
0
LINE
8
BLACK
6
CONTINUOUS
10
5.7849921259842523
20
-2.8964330708661419
11
5.7849921259842523
21
-2.8511574803149604
0
LINE
8
BLACK
6
CONTINUOUS
10
5.7849921259842523
20
-2.8511574803149604
11
5.7968031496062995
21
-2.8511574803149604
0
LINE
8
BLACK
6
CONTINUOUS
10
5.7968031496062995
20
-2.8511574803149604
11
5.7968031496062995
21
-2.8964330708661419
0
LINE
8
BLACK
6
CONTINUOUS
10
5.8282992125984254
20
-2.8964330708661419
11
5.804677165354331
21
-2.8964330708661419
0
LINE
8
BLACK
6
CONTINUOUS
10
5.804677165354331
20
-2.8964330708661419
11
5.804677165354331
21
-2.8511574803149604
0
LINE
8
BLACK
6
CONTINUOUS
10
5.804677165354331
20
-2.8511574803149604
11
5.8282992125984254
21
-2.8511574803149604
0
LINE
8
BLACK
6
CONTINUOUS
10
5.8282992125984254
20
-2.8511574803149604
11
5.8282992125984254
21
-2.8964330708661419
0
LINE
8
BLACK
6
CONTINUOUS
10
5.8597952755905514
20
-2.8964330708661419
11
5.8361732283464569
21
-2.8964330708661419
0
LINE
8
BLACK
6
CONTINUOUS
10
5.8361732283464569
20
-2.8964330708661419
11
5.8361732283464569
21
-2.8511574803149604
0
LINE
8
BLACK
6
CONTINUOUS
10
5.8361732283464569
20
-2.8511574803149604
11
5.8597952755905514
21
-2.8511574803149604
0
LINE
8
BLACK
6
CONTINUOUS
10
5.8597952755905514
20
-2.8511574803149604
11
5.8597952755905514
21
-2.8964330708661419
  0
ENDSEC
  0
EOF
