<?xml version='1.0' encoding='ASCII' standalone='yes'?>
<svg xmlns:svg="http://www.w3.org/2000/svg" xmlns="http://www.w3.org/2000/svg" xmlns:xlink="http://www.w3.org/1999/xlink" version="1.1" width="297.0022mm" height="210.0072mm" viewBox="0.0000 0.0000 297.0022 210.0072">
<title>SVG Image created as LION2CELL02-F_Fab.svg date 2024/07/22 23:37:07 </title>
  <desc>Image generated by PCBNEW </desc>
<g style="fill:#848484; fill-opacity:1.0000;stroke:#848484; stroke-opacity:1.0000; stroke-linecap:round; stroke-linejoin:round;" transform="translate(0 0) scale(1 1)">
</g>
<g style="fill:none;  stroke:#848484; stroke-width:1.0562; stroke-opacity:1;  stroke-linecap:round; stroke-linejoin:round;">
<g transform="rotate(-90.000000 111.6050 26.4045)">
<text x="111.6050" y="29.0450" textLength="11.1656" font-size="7.0414" lengthAdjust="spacingAndGlyphs" text-anchor="middle" opacity="0">J2</text>
</g>
<g class="stroked-text"><desc>J2</desc>
<path d="M108.7122 28.1648 L112.4844 28.1648 "/>
<path d="M112.4844 28.1648 L113.2388 28.4163 "/>
<path d="M113.2388 28.4163 L113.7417 28.9193 "/>
<path d="M113.7417 28.9193 L113.9932 29.6737 "/>
<path d="M113.9932 29.6737 L113.9932 30.1767 "/>
<path d="M109.2152 25.9016 L108.9637 25.6501 "/>
<path d="M108.9637 25.6501 L108.7122 25.1471 "/>
<path d="M108.7122 25.1471 L108.7122 23.8897 "/>
<path d="M108.7122 23.8897 L108.9637 23.3868 "/>
<path d="M108.9637 23.3868 L109.2152 23.1353 "/>
<path d="M109.2152 23.1353 L109.7181 22.8838 "/>
<path d="M109.7181 22.8838 L110.2211 22.8838 "/>
<path d="M110.2211 22.8838 L110.9755 23.1353 "/>
<path d="M110.9755 23.1353 L113.9932 26.1530 "/>
<path d="M113.9932 26.1530 L113.9932 22.8838 "/>
</g><g transform="rotate(-90.000000 111.6050 9.0652)">
<text x="111.6050" y="11.7057" textLength="11.1656" font-size="7.0414" lengthAdjust="spacingAndGlyphs" text-anchor="middle" opacity="0">J3</text>
</g>
<g class="stroked-text"><desc>J3</desc>
<path d="M108.7122 10.8255 L112.4844 10.8255 "/>
<path d="M112.4844 10.8255 L113.2388 11.0770 "/>
<path d="M113.2388 11.0770 L113.7417 11.5800 "/>
<path d="M113.7417 11.5800 L113.9932 12.3344 "/>
<path d="M113.9932 12.3344 L113.9932 12.8373 "/>
<path d="M108.7122 8.8137 L108.7122 5.5445 "/>
<path d="M108.7122 5.5445 L110.7240 7.3048 "/>
<path d="M110.7240 7.3048 L110.7240 6.5504 "/>
<path d="M110.7240 6.5504 L110.9755 6.0475 "/>
<path d="M110.9755 6.0475 L111.2270 5.7960 "/>
<path d="M111.2270 5.7960 L111.7299 5.5445 "/>
<path d="M111.7299 5.5445 L112.9873 5.5445 "/>
<path d="M112.9873 5.5445 L113.4903 5.7960 "/>
<path d="M113.4903 5.7960 L113.7417 6.0475 "/>
<path d="M113.7417 6.0475 L113.9932 6.5504 "/>
<path d="M113.9932 6.5504 L113.9932 8.0593 "/>
<path d="M113.9932 8.0593 L113.7417 8.5622 "/>
<path d="M113.7417 8.5622 L113.4903 8.8137 "/>
</g><g transform="rotate(-90.000000 47.5017 200.5990)">
<text x="47.5017" y="203.2395" textLength="11.1656" font-size="7.0414" lengthAdjust="spacingAndGlyphs" text-anchor="middle" opacity="0">J9</text>
</g>
<g class="stroked-text"><desc>J9</desc>
<path d="M44.6089 202.3593 L48.3810 202.3593 "/>
<path d="M48.3810 202.3593 L49.1355 202.6108 "/>
<path d="M49.1355 202.6108 L49.6384 203.1137 "/>
<path d="M49.6384 203.1137 L49.8899 203.8682 "/>
<path d="M49.8899 203.8682 L49.8899 204.3711 "/>
<path d="M49.8899 199.5931 L49.8899 198.5871 "/>
<path d="M49.8899 198.5871 L49.6384 198.0842 "/>
<path d="M49.6384 198.0842 L49.3869 197.8327 "/>
<path d="M49.3869 197.8327 L48.6325 197.3298 "/>
<path d="M48.6325 197.3298 L47.6266 197.0783 "/>
<path d="M47.6266 197.0783 L45.6148 197.0783 "/>
<path d="M45.6148 197.0783 L45.1118 197.3298 "/>
<path d="M45.1118 197.3298 L44.8603 197.5812 "/>
<path d="M44.8603 197.5812 L44.6089 198.0842 "/>
<path d="M44.6089 198.0842 L44.6089 199.0901 "/>
<path d="M44.6089 199.0901 L44.8603 199.5931 "/>
<path d="M44.8603 199.5931 L45.1118 199.8445 "/>
<path d="M45.1118 199.8445 L45.6148 200.0960 "/>
<path d="M45.6148 200.0960 L46.8722 200.0960 "/>
<path d="M46.8722 200.0960 L47.3751 199.8445 "/>
<path d="M47.3751 199.8445 L47.6266 199.5931 "/>
<path d="M47.6266 199.5931 L47.8781 199.0901 "/>
<path d="M47.8781 199.0901 L47.8781 198.0842 "/>
<path d="M47.8781 198.0842 L47.6266 197.5812 "/>
<path d="M47.6266 197.5812 L47.3751 197.3298 "/>
<path d="M47.3751 197.3298 L46.8722 197.0783 "/>
</g><g transform="rotate(-90.000000 47.5017 183.4357)">
<text x="47.5017" y="186.0762" textLength="11.1656" font-size="7.0414" lengthAdjust="spacingAndGlyphs" text-anchor="middle" opacity="0">J8</text>
</g>
<g class="stroked-text"><desc>J8</desc>
<path d="M44.6089 185.1960 L48.3810 185.1960 "/>
<path d="M48.3810 185.1960 L49.1355 185.4475 "/>
<path d="M49.1355 185.4475 L49.6384 185.9504 "/>
<path d="M49.6384 185.9504 L49.8899 186.7049 "/>
<path d="M49.8899 186.7049 L49.8899 187.2078 "/>
<path d="M46.8722 181.9268 L46.6207 182.4298 "/>
<path d="M46.6207 182.4298 L46.3692 182.6812 "/>
<path d="M46.3692 182.6812 L45.8663 182.9327 "/>
<path d="M45.8663 182.9327 L45.6148 182.9327 "/>
<path d="M45.6148 182.9327 L45.1118 182.6812 "/>
<path d="M45.1118 182.6812 L44.8603 182.4298 "/>
<path d="M44.8603 182.4298 L44.6089 181.9268 "/>
<path d="M44.6089 181.9268 L44.6089 180.9209 "/>
<path d="M44.6089 180.9209 L44.8603 180.4179 "/>
<path d="M44.8603 180.4179 L45.1118 180.1665 "/>
<path d="M45.1118 180.1665 L45.6148 179.9150 "/>
<path d="M45.6148 179.9150 L45.8663 179.9150 "/>
<path d="M45.8663 179.9150 L46.3692 180.1665 "/>
<path d="M46.3692 180.1665 L46.6207 180.4179 "/>
<path d="M46.6207 180.4179 L46.8722 180.9209 "/>
<path d="M46.8722 180.9209 L46.8722 181.9268 "/>
<path d="M46.8722 181.9268 L47.1236 182.4298 "/>
<path d="M47.1236 182.4298 L47.3751 182.6812 "/>
<path d="M47.3751 182.6812 L47.8781 182.9327 "/>
<path d="M47.8781 182.9327 L48.8840 182.9327 "/>
<path d="M48.8840 182.9327 L49.3869 182.6812 "/>
<path d="M49.3869 182.6812 L49.6384 182.4298 "/>
<path d="M49.6384 182.4298 L49.8899 181.9268 "/>
<path d="M49.8899 181.9268 L49.8899 180.9209 "/>
<path d="M49.8899 180.9209 L49.6384 180.4179 "/>
<path d="M49.6384 180.4179 L49.3869 180.1665 "/>
<path d="M49.3869 180.1665 L48.8840 179.9150 "/>
<path d="M48.8840 179.9150 L47.8781 179.9150 "/>
<path d="M47.8781 179.9150 L47.3751 180.1665 "/>
<path d="M47.3751 180.1665 L47.1236 180.4179 "/>
<path d="M47.1236 180.4179 L46.8722 180.9209 "/>
</g></g>
<g style="fill:none;  stroke:#848484; stroke-width:0.7041; stroke-opacity:1;  stroke-linecap:round; stroke-linejoin:round;">
<text x="189.8690" y="16.9867" textLength="12.1379" font-size="4.6942" lengthAdjust="spacingAndGlyphs" text-anchor="middle" opacity="0">SW1</text>
<g class="stroked-text"><desc>SW1</desc>
<path d="M185.1748 16.6508 L185.6778 16.8185 "/>
<path d="M185.6778 16.8185 L186.5160 16.8185 "/>
<path d="M186.5160 16.8185 L186.8513 16.6508 "/>
<path d="M186.8513 16.6508 L187.0190 16.4832 "/>
<path d="M187.0190 16.4832 L187.1866 16.1479 "/>
<path d="M187.1866 16.1479 L187.1866 15.8126 "/>
<path d="M187.1866 15.8126 L187.0190 15.4773 "/>
<path d="M187.0190 15.4773 L186.8513 15.3096 "/>
<path d="M186.8513 15.3096 L186.5160 15.1420 "/>
<path d="M186.5160 15.1420 L185.8454 14.9743 "/>
<path d="M185.8454 14.9743 L185.5101 14.8067 "/>
<path d="M185.5101 14.8067 L185.3425 14.6390 "/>
<path d="M185.3425 14.6390 L185.1748 14.3037 "/>
<path d="M185.1748 14.3037 L185.1748 13.9684 "/>
<path d="M185.1748 13.9684 L185.3425 13.6331 "/>
<path d="M185.3425 13.6331 L185.5101 13.4655 "/>
<path d="M185.5101 13.4655 L185.8454 13.2978 "/>
<path d="M185.8454 13.2978 L186.6837 13.2978 "/>
<path d="M186.6837 13.2978 L187.1866 13.4655 "/>
<path d="M188.3602 13.2978 L189.1984 16.8185 "/>
<path d="M189.1984 16.8185 L189.8690 14.3037 "/>
<path d="M189.8690 14.3037 L190.5396 16.8185 "/>
<path d="M190.5396 16.8185 L191.3779 13.2978 "/>
<path d="M194.5633 16.8185 L192.5515 16.8185 "/>
<path d="M193.5574 16.8185 L193.5574 13.2978 "/>
<path d="M193.5574 13.2978 L193.2221 13.8008 "/>
<path d="M193.2221 13.8008 L192.8868 14.1361 "/>
<path d="M192.8868 14.1361 L192.5515 14.3037 "/>
</g><text x="184.5880" y="189.0597" textLength="12.1379" font-size="4.6942" lengthAdjust="spacingAndGlyphs" text-anchor="middle" opacity="0">SW2</text>
<g class="stroked-text"><desc>SW2</desc>
<path d="M179.8938 188.7239 L180.3967 188.8915 "/>
<path d="M180.3967 188.8915 L181.2350 188.8915 "/>
<path d="M181.2350 188.8915 L181.5703 188.7239 "/>
<path d="M181.5703 188.7239 L181.7380 188.5562 "/>
<path d="M181.7380 188.5562 L181.9056 188.2209 "/>
<path d="M181.9056 188.2209 L181.9056 187.8856 "/>
<path d="M181.9056 187.8856 L181.7380 187.5503 "/>
<path d="M181.7380 187.5503 L181.5703 187.3827 "/>
<path d="M181.5703 187.3827 L181.2350 187.2150 "/>
<path d="M181.2350 187.2150 L180.5644 187.0474 "/>
<path d="M180.5644 187.0474 L180.2291 186.8797 "/>
<path d="M180.2291 186.8797 L180.0614 186.7120 "/>
<path d="M180.0614 186.7120 L179.8938 186.3767 "/>
<path d="M179.8938 186.3767 L179.8938 186.0414 "/>
<path d="M179.8938 186.0414 L180.0614 185.7061 "/>
<path d="M180.0614 185.7061 L180.2291 185.5385 "/>
<path d="M180.2291 185.5385 L180.5644 185.3708 "/>
<path d="M180.5644 185.3708 L181.4027 185.3708 "/>
<path d="M181.4027 185.3708 L181.9056 185.5385 "/>
<path d="M183.0792 185.3708 L183.9174 188.8915 "/>
<path d="M183.9174 188.8915 L184.5880 186.3767 "/>
<path d="M184.5880 186.3767 L185.2586 188.8915 "/>
<path d="M185.2586 188.8915 L186.0969 185.3708 "/>
<path d="M187.2704 185.7061 L187.4381 185.5385 "/>
<path d="M187.4381 185.5385 L187.7734 185.3708 "/>
<path d="M187.7734 185.3708 L188.6117 185.3708 "/>
<path d="M188.6117 185.3708 L188.9470 185.5385 "/>
<path d="M188.9470 185.5385 L189.1146 185.7061 "/>
<path d="M189.1146 185.7061 L189.2823 186.0414 "/>
<path d="M189.2823 186.0414 L189.2823 186.3767 "/>
<path d="M189.2823 186.3767 L189.1146 186.8797 "/>
<path d="M189.1146 186.8797 L187.1028 188.8915 "/>
<path d="M187.1028 188.8915 L189.2823 188.8915 "/>
</g></g>
<g style="fill:none;  stroke:#848484; stroke-width:0.5198; stroke-opacity:1;  stroke-linecap:round; stroke-linejoin:round;">
<text x="244.9676" y="79.1835" textLength="10.2719" font-size="4.6203" lengthAdjust="spacingAndGlyphs" text-anchor="middle" opacity="0">10k</text>
<g class="stroked-text"><desc>10k</desc>
<path d="M242.9050 79.0269 L240.9248 79.0269 "/>
<path d="M241.9149 79.0269 L241.9149 75.5617 "/>
<path d="M241.9149 75.5617 L241.5849 76.0567 "/>
<path d="M241.5849 76.0567 L241.2549 76.3867 "/>
<path d="M241.2549 76.3867 L240.9248 76.5517 "/>
<path d="M245.0501 75.5617 L245.3801 75.5617 "/>
<path d="M245.3801 75.5617 L245.7102 75.7267 "/>
<path d="M245.7102 75.7267 L245.8752 75.8917 "/>
<path d="M245.8752 75.8917 L246.0402 76.2217 "/>
<path d="M246.0402 76.2217 L246.2052 76.8818 "/>
<path d="M246.2052 76.8818 L246.2052 77.7068 "/>
<path d="M246.2052 77.7068 L246.0402 78.3669 "/>
<path d="M246.0402 78.3669 L245.8752 78.6969 "/>
<path d="M245.8752 78.6969 L245.7102 78.8619 "/>
<path d="M245.7102 78.8619 L245.3801 79.0269 "/>
<path d="M245.3801 79.0269 L245.0501 79.0269 "/>
<path d="M245.0501 79.0269 L244.7201 78.8619 "/>
<path d="M244.7201 78.8619 L244.5551 78.6969 "/>
<path d="M244.5551 78.6969 L244.3901 78.3669 "/>
<path d="M244.3901 78.3669 L244.2251 77.7068 "/>
<path d="M244.2251 77.7068 L244.2251 76.8818 "/>
<path d="M244.2251 76.8818 L244.3901 76.2217 "/>
<path d="M244.3901 76.2217 L244.5551 75.8917 "/>
<path d="M244.5551 75.8917 L244.7201 75.7267 "/>
<path d="M244.7201 75.7267 L245.0501 75.5617 "/>
<path d="M247.6903 79.0269 L247.6903 75.5617 "/>
<path d="M248.0203 77.7068 L249.0104 79.0269 "/>
<path d="M249.0104 76.7167 L247.6903 78.0368 "/>
</g></g>
<g style="fill:none;  stroke:#848484; stroke-width:0.2772; stroke-opacity:1;  stroke-linecap:round; stroke-linejoin:round;">
<text x="244.9676" y="72.5995" textLength="5.2705" font-size="2.3102" lengthAdjust="spacingAndGlyphs" text-anchor="middle" opacity="0">TH2</text>
<g class="stroked-text"><desc>TH2</desc>
<path d="M242.7400 70.7877 L243.7300 70.7877 "/>
<path d="M243.2350 72.5203 L243.2350 70.7877 "/>
<path d="M244.3076 72.5203 L244.3076 70.7877 "/>
<path d="M244.3076 71.6128 L245.2976 71.6128 "/>
<path d="M245.2976 72.5203 L245.2976 70.7877 "/>
<path d="M246.0402 70.9527 L246.1227 70.8702 "/>
<path d="M246.1227 70.8702 L246.2877 70.7877 "/>
<path d="M246.2877 70.7877 L246.7002 70.7877 "/>
<path d="M246.7002 70.7877 L246.8652 70.8702 "/>
<path d="M246.8652 70.8702 L246.9478 70.9527 "/>
<path d="M246.9478 70.9527 L247.0303 71.1177 "/>
<path d="M247.0303 71.1177 L247.0303 71.2828 "/>
<path d="M247.0303 71.2828 L246.9478 71.5303 "/>
<path d="M246.9478 71.5303 L245.9577 72.5203 "/>
<path d="M245.9577 72.5203 L247.0303 72.5203 "/>
</g></g>
<g style="fill:none;  stroke:#848484; stroke-width:0.5198; stroke-opacity:1;  stroke-linecap:round; stroke-linejoin:round;">
<text x="244.8796" y="134.4650" textLength="10.2719" font-size="4.6203" lengthAdjust="spacingAndGlyphs" text-anchor="middle" opacity="0">10k</text>
<g class="stroked-text"><desc>10k</desc>
<path d="M242.8170 134.3084 L240.8368 134.3084 "/>
<path d="M241.8269 134.3084 L241.8269 130.8432 "/>
<path d="M241.8269 130.8432 L241.4969 131.3382 "/>
<path d="M241.4969 131.3382 L241.1669 131.6683 "/>
<path d="M241.1669 131.6683 L240.8368 131.8333 "/>
<path d="M244.9621 130.8432 L245.2921 130.8432 "/>
<path d="M245.2921 130.8432 L245.6222 131.0082 "/>
<path d="M245.6222 131.0082 L245.7872 131.1732 "/>
<path d="M245.7872 131.1732 L245.9522 131.5033 "/>
<path d="M245.9522 131.5033 L246.1172 132.1633 "/>
<path d="M246.1172 132.1633 L246.1172 132.9884 "/>
<path d="M246.1172 132.9884 L245.9522 133.6484 "/>
<path d="M245.9522 133.6484 L245.7872 133.9784 "/>
<path d="M245.7872 133.9784 L245.6222 134.1434 "/>
<path d="M245.6222 134.1434 L245.2921 134.3084 "/>
<path d="M245.2921 134.3084 L244.9621 134.3084 "/>
<path d="M244.9621 134.3084 L244.6321 134.1434 "/>
<path d="M244.6321 134.1434 L244.4671 133.9784 "/>
<path d="M244.4671 133.9784 L244.3021 133.6484 "/>
<path d="M244.3021 133.6484 L244.1371 132.9884 "/>
<path d="M244.1371 132.9884 L244.1371 132.1633 "/>
<path d="M244.1371 132.1633 L244.3021 131.5033 "/>
<path d="M244.3021 131.5033 L244.4671 131.1732 "/>
<path d="M244.4671 131.1732 L244.6321 131.0082 "/>
<path d="M244.6321 131.0082 L244.9621 130.8432 "/>
<path d="M247.6023 134.3084 L247.6023 130.8432 "/>
<path d="M247.9323 132.9884 L248.9224 134.3084 "/>
<path d="M248.9224 131.9983 L247.6023 133.3184 "/>
</g></g>
<g style="fill:none;  stroke:#848484; stroke-width:0.2772; stroke-opacity:1;  stroke-linecap:round; stroke-linejoin:round;">
<text x="244.8796" y="139.3163" textLength="5.2705" font-size="2.3102" lengthAdjust="spacingAndGlyphs" text-anchor="middle" opacity="0">TH1</text>
<g class="stroked-text"><desc>TH1</desc>
<path d="M242.6520 137.5045 L243.6420 137.5045 "/>
<path d="M243.1470 139.2371 L243.1470 137.5045 "/>
<path d="M244.2196 139.2371 L244.2196 137.5045 "/>
<path d="M244.2196 138.3296 L245.2096 138.3296 "/>
<path d="M245.2096 139.2371 L245.2096 137.5045 "/>
<path d="M246.9422 139.2371 L245.9522 139.2371 "/>
<path d="M246.4472 139.2371 L246.4472 137.5045 "/>
<path d="M246.4472 137.5045 L246.2822 137.7520 "/>
<path d="M246.2822 137.7520 L246.1172 137.9171 "/>
<path d="M246.1172 137.9171 L245.9522 137.9996 "/>
</g></g>
<g style="fill:none;  stroke:#848484; stroke-width:0.5198; stroke-opacity:1;  stroke-linecap:round; stroke-linejoin:round;">
<g transform="rotate(-90.000000 208.5286 200.9420)">
<text x="208.5286" y="202.6746" transform="scale(-1 1) translate(-417.057249 0)" textLength="4.3315" font-size="4.6203" lengthAdjust="spacingAndGlyphs" text-anchor="middle" opacity="0">K</text>
</g>
<g class="stroked-text"><desc>K</desc>
<path d="M210.1047 200.0345 L206.6394 200.0345 "/>
<path d="M210.1047 202.0146 L208.1245 200.5295 "/>
<path d="M206.6394 202.0146 L208.6196 200.0345 "/>
</g><g transform="rotate(-270.000000 96.4831 184.9229)">
<text x="96.4831" y="186.6556" transform="scale(-1 1) translate(-192.966229 0)" textLength="4.3315" font-size="4.6203" lengthAdjust="spacingAndGlyphs" text-anchor="middle" opacity="0">K</text>
</g>
<g class="stroked-text"><desc>K</desc>
<path d="M94.9071 185.8305 L98.3723 185.8305 "/>
<path d="M94.9071 183.8504 L96.8872 185.3355 "/>
<path d="M98.3723 183.8504 L96.3922 185.8305 "/>
</g><g transform="rotate(-270.000000 218.8486 186.8593)">
<text x="218.8486" y="188.5919" transform="scale(-1 1) translate(-437.697211 0)" textLength="4.3315" font-size="4.6203" lengthAdjust="spacingAndGlyphs" text-anchor="middle" opacity="0">K</text>
</g>
<g class="stroked-text"><desc>K</desc>
<path d="M217.2725 187.7669 L220.7378 187.7669 "/>
<path d="M217.2725 185.7867 L219.2527 187.2718 "/>
<path d="M220.7378 185.7867 L218.7577 187.7669 "/>
</g><g transform="rotate(-90.000000 240.5448 200.9420)">
<text x="240.5448" y="202.6746" transform="scale(-1 1) translate(-481.089541 0)" textLength="4.3315" font-size="4.6203" lengthAdjust="spacingAndGlyphs" text-anchor="middle" opacity="0">K</text>
</g>
<g class="stroked-text"><desc>K</desc>
<path d="M242.1208 200.0345 L238.6556 200.0345 "/>
<path d="M242.1208 202.0146 L240.1407 200.5295 "/>
<path d="M238.6556 202.0146 L240.6357 200.0345 "/>
</g><g transform="rotate(-90.000000 251.2168 200.9420)">
<text x="251.2168" y="202.6746" transform="scale(-1 1) translate(-502.433639 0)" textLength="4.3315" font-size="4.6203" lengthAdjust="spacingAndGlyphs" text-anchor="middle" opacity="0">K</text>
</g>
<g class="stroked-text"><desc>K</desc>
<path d="M252.7929 200.0345 L249.3276 200.0345 "/>
<path d="M252.7929 202.0146 L250.8127 200.5295 "/>
<path d="M249.3276 202.0146 L251.3078 200.0345 "/>
</g><g transform="rotate(-270.000000 229.5207 186.8593)">
<text x="229.5207" y="188.5919" transform="scale(-1 1) translate(-459.041309 0)" textLength="4.3315" font-size="4.6203" lengthAdjust="spacingAndGlyphs" text-anchor="middle" opacity="0">K</text>
</g>
<g class="stroked-text"><desc>K</desc>
<path d="M227.9446 187.7669 L231.4098 187.7669 "/>
<path d="M227.9446 185.7867 L229.9247 187.2718 "/>
<path d="M231.4098 185.7867 L229.4297 187.7669 "/>
</g><path d="M56.5699 33.3350 L56.5699 19.4740 "/>
<path d="M58.3028 21.2032 L58.3028 31.6058 "/>
<path d="M65.2333 17.7414 L65.2333 19.4740 "/>
<path d="M65.2333 33.3350 L65.2333 35.0676 "/>
<path d="M66.9656 21.2032 L66.9656 31.6058 "/>
<path d="M66.9656 21.2067 L58.3028 21.2067 "/>
<path d="M66.9656 31.6024 L58.3028 31.6024 "/>
<path d="M68.6985 19.4740 L56.5699 19.4740 "/>
<path d="M68.6985 33.3350 L56.5668 33.3350 "/>
<path d="M68.6985 33.3350 L68.6985 19.4740 "/>
<path d="M79.0942 21.2063 L79.0942 31.6027 "/>
<path d="M79.0942 21.2067 L68.6985 21.2067 "/>
<path d="M79.0942 31.6024 L68.6985 31.6024 "/>
<path d="M86.0247 17.7411 L86.0247 35.0679 "/>
<path d="M86.0247 17.7414 L65.2333 17.7414 "/>
<path d="M86.0247 17.7414 L117.2118 17.7414 "/>
<path d="M86.0247 35.0676 L65.2333 35.0676 "/>
<path d="M87.7577 22.9393 L86.0247 22.9393 "/>
<path d="M87.7577 29.8697 L86.0247 29.8697 "/>
<path d="M87.7577 33.3350 L87.7577 19.4740 "/>
<path d="M115.4795 19.4740 L87.7577 19.4740 "/>
<path d="M115.4795 19.4740 L115.4795 33.3350 "/>
<path d="M115.4795 33.3350 L87.7577 33.3350 "/>
<path d="M117.2118 17.7411 L117.2118 35.0679 "/>
<path d="M117.2118 35.0676 L86.0247 35.0676 "/>
<path d="M56.5699 15.9956 L56.5699 2.1347 "/>
<path d="M58.3028 3.8639 L58.3028 14.2665 "/>
<path d="M65.2333 0.4021 L65.2333 2.1347 "/>
<path d="M65.2333 15.9956 L65.2333 17.7283 "/>
<path d="M66.9656 3.8639 L66.9656 14.2665 "/>
<path d="M66.9656 3.8673 L58.3028 3.8673 "/>
<path d="M66.9656 14.2630 L58.3028 14.2630 "/>
<path d="M68.6985 2.1347 L56.5699 2.1347 "/>
<path d="M68.6985 15.9956 L56.5668 15.9956 "/>
<path d="M68.6985 15.9956 L68.6985 2.1347 "/>
<path d="M79.0942 3.8670 L79.0942 14.2634 "/>
<path d="M79.0942 3.8673 L68.6985 3.8673 "/>
<path d="M79.0942 14.2630 L68.6985 14.2630 "/>
<path d="M86.0247 0.4018 L86.0247 17.7286 "/>
<path d="M86.0247 0.4021 L65.2333 0.4021 "/>
<path d="M86.0247 0.4021 L117.2118 0.4021 "/>
<path d="M86.0247 17.7283 L65.2333 17.7283 "/>
<path d="M87.7577 5.6000 L86.0247 5.6000 "/>
<path d="M87.7577 12.5304 L86.0247 12.5304 "/>
<path d="M87.7577 15.9956 L87.7577 2.1347 "/>
<path d="M115.4795 2.1347 L87.7577 2.1347 "/>
<path d="M115.4795 2.1347 L115.4795 15.9956 "/>
<path d="M115.4795 15.9956 L87.7577 15.9956 "/>
<path d="M117.2118 0.4018 L117.2118 17.7286 "/>
<path d="M117.2118 17.7283 L86.0247 17.7283 "/>
<path d="M41.8950 191.9359 L73.0821 191.9359 "/>
<path d="M41.8950 209.2624 L41.8950 191.9355 "/>
<path d="M43.6272 193.6685 L71.3491 193.6685 "/>
<path d="M43.6272 207.5294 L43.6272 193.6685 "/>
<path d="M43.6272 207.5294 L71.3491 207.5294 "/>
<path d="M71.3491 193.6685 L71.3491 207.5294 "/>
<path d="M71.3491 197.1337 L73.0821 197.1337 "/>
<path d="M71.3491 204.0642 L73.0821 204.0642 "/>
<path d="M73.0821 191.9359 L93.8734 191.9359 "/>
<path d="M73.0821 209.2620 L41.8950 209.2620 "/>
<path d="M73.0821 209.2620 L93.8734 209.2620 "/>
<path d="M73.0821 209.2624 L73.0821 191.9355 "/>
<path d="M80.0125 195.4011 L90.4082 195.4011 "/>
<path d="M80.0125 205.7968 L90.4082 205.7968 "/>
<path d="M80.0125 205.7972 L80.0125 195.4008 "/>
<path d="M90.4082 193.6685 L90.4082 207.5294 "/>
<path d="M90.4082 193.6685 L102.5400 193.6685 "/>
<path d="M90.4082 207.5294 L102.5369 207.5294 "/>
<path d="M92.1412 195.4011 L100.8039 195.4011 "/>
<path d="M92.1412 205.7968 L100.8039 205.7968 "/>
<path d="M92.1412 205.8003 L92.1412 195.3976 "/>
<path d="M93.8734 193.6685 L93.8734 191.9359 "/>
<path d="M93.8734 209.2620 L93.8734 207.5294 "/>
<path d="M100.8039 205.8003 L100.8039 195.3976 "/>
<path d="M102.5369 193.6685 L102.5369 207.5294 "/>
<path d="M41.8950 174.7726 L73.0821 174.7726 "/>
<path d="M41.8950 192.0991 L41.8950 174.7722 "/>
<path d="M43.6272 176.5052 L71.3491 176.5052 "/>
<path d="M43.6272 190.3661 L43.6272 176.5052 "/>
<path d="M43.6272 190.3661 L71.3491 190.3661 "/>
<path d="M71.3491 176.5052 L71.3491 190.3661 "/>
<path d="M71.3491 179.9704 L73.0821 179.9704 "/>
<path d="M71.3491 186.9009 L73.0821 186.9009 "/>
<path d="M73.0821 174.7726 L93.8734 174.7726 "/>
<path d="M73.0821 192.0987 L41.8950 192.0987 "/>
<path d="M73.0821 192.0987 L93.8734 192.0987 "/>
<path d="M73.0821 192.0991 L73.0821 174.7722 "/>
<path d="M80.0125 178.2378 L90.4082 178.2378 "/>
<path d="M80.0125 188.6335 L90.4082 188.6335 "/>
<path d="M80.0125 188.6339 L80.0125 178.2375 "/>
<path d="M90.4082 176.5052 L90.4082 190.3661 "/>
<path d="M90.4082 176.5052 L102.5400 176.5052 "/>
<path d="M90.4082 190.3661 L102.5369 190.3661 "/>
<path d="M92.1412 178.2378 L100.8039 178.2378 "/>
<path d="M92.1412 188.6335 L100.8039 188.6335 "/>
<path d="M92.1412 188.6370 L92.1412 178.2344 "/>
<path d="M93.8734 176.5052 L93.8734 174.7726 "/>
<path d="M93.8734 192.0987 L93.8734 190.3661 "/>
<path d="M100.8039 188.6370 L100.8039 178.2344 "/>
<path d="M102.5369 176.5052 L102.5369 190.3661 "/>
</g>
<g style="fill:none;  stroke:#848484; stroke-width:0.4158; stroke-opacity:1;  stroke-linecap:round; stroke-linejoin:round;">
<path d="M176.7012 4.6990 L203.0369 4.6990 "/>
<path d="M176.7012 6.7781 L176.7012 4.6990 "/>
<path d="M176.7012 13.3621 L176.7012 22.3717 "/>
<path d="M176.7012 28.9556 L176.7012 31.0694 "/>
<path d="M176.7012 31.0694 L203.0716 31.0694 "/>
<path d="M203.0369 4.6990 L203.0369 6.4316 "/>
<path d="M203.0369 4.6990 L203.0369 6.4316 "/>
<path d="M203.0369 13.3621 L203.0369 22.3717 "/>
<path d="M203.0716 31.0694 L203.0741 28.9671 "/>
</g>
<g style="fill:none;  stroke:#848484; stroke-width:0.4401; stroke-opacity:1;  stroke-linecap:round; stroke-linejoin:round;">
<circle cx="189.8690" cy="17.8669" r="8.8017"/> 
</g>
<g style="fill:none;  stroke:#848484; stroke-width:0.4158; stroke-opacity:1;  stroke-linecap:round; stroke-linejoin:round;">
<path d="M171.4201 176.7720 L197.7559 176.7720 "/>
<path d="M171.4201 178.8512 L171.4201 176.7720 "/>
<path d="M171.4201 185.4351 L171.4201 194.4447 "/>
<path d="M171.4201 201.0286 L171.4201 203.1424 "/>
<path d="M171.4201 203.1424 L197.7906 203.1424 "/>
<path d="M197.7559 176.7720 L197.7559 178.5046 "/>
<path d="M197.7559 176.7720 L197.7559 178.5046 "/>
<path d="M197.7559 185.4351 L197.7559 194.4447 "/>
<path d="M197.7906 203.1424 L197.7931 201.0402 "/>
</g>
<g style="fill:none;  stroke:#848484; stroke-width:0.4401; stroke-opacity:1;  stroke-linecap:round; stroke-linejoin:round;">
<circle cx="184.5880" cy="189.9399" r="8.8017"/> 
</g>
<g style="fill:none;  stroke:#848484; stroke-width:0.5198; stroke-opacity:1;  stroke-linecap:round; stroke-linejoin:round;">
<path d="M140.5796 14.3462 L149.3813 14.3462 "/>
<path d="M140.5796 31.9496 L140.5796 14.3462 "/>
<path d="M149.3813 14.3462 L149.3813 31.9496 "/>
<path d="M149.3813 31.9496 L140.5796 31.9496 "/>
<path d="M147.4449 178.9378 L165.0483 178.9378 "/>
<path d="M147.4449 205.3429 L147.4449 178.9378 "/>
<path d="M165.0483 178.9378 L165.0483 205.3429 "/>
<path d="M165.0483 205.3429 L147.4449 205.3429 "/>
</g>
<g style="fill:none;  stroke:#848484; stroke-width:0.3465; stroke-opacity:1;  stroke-linecap:round; stroke-linejoin:round;">
<circle cx="271.7248" cy="16.9867" r="10.3948"/> 
<circle cx="25.2774" cy="193.0205" r="10.3948"/> 
<circle cx="271.7248" cy="193.0205" r="10.3948"/> 
<circle cx="25.2774" cy="16.9867" r="10.3948"/> 
<path d="M241.5024 69.5674 L248.4329 69.5674 "/>
<path d="M241.5024 73.8990 L241.5024 69.5674 "/>
<path d="M248.4329 69.5674 L248.4329 73.8990 "/>
<path d="M248.4329 73.8990 L241.5024 73.8990 "/>
<path d="M241.4144 136.2843 L248.3448 136.2843 "/>
<path d="M241.4144 140.6158 L241.4144 136.2843 "/>
<path d="M248.3448 136.2843 L248.3448 140.6158 "/>
<path d="M248.3448 140.6158 L241.4144 140.6158 "/>
</g> 
<svg:g><svg:g><svg:title>SVG Image created as LION2CELL02-Edge_Cuts.svg date 2024/07/22 23:37:07 </svg:title>
  <svg:desc>Image generated by PCBNEW </svg:desc>
<svg:g style="fill:#C2C200; fill-opacity:1.0000;stroke:#C2C200; stroke-opacity:1.0000; stroke-linecap:round; stroke-linejoin:round;" transform="translate(0 0) scale(1 1)">
<svg:path style="fill:none;  stroke:#C2C200; stroke-width:0.5198; stroke-opacity:1;  stroke-linecap:round; stroke-linejoin:round;fill:none" d="M 8.5542,0.2635 288.4480,0.2635 288.4480,209.7437 8.5542,209.7437 Z"/> 
</svg:g> 
</svg:g></svg:g></svg>
