<?xml version='1.0' encoding='ASCII' standalone='yes'?>
<svg xmlns:svg="http://www.w3.org/2000/svg" xmlns="http://www.w3.org/2000/svg" xmlns:xlink="http://www.w3.org/1999/xlink" version="1.1" width="297.0022mm" height="210.0072mm" viewBox="0.0000 0.0000 297.0022 210.0072">
<title>SVG Image created as LION2CELL02-F_Fab.svg date 2024/08/08 11:34:52 </title>
  <desc>Image generated by PCBNEW </desc>
<g style="fill:#848484; fill-opacity:1.0000;stroke:#848484; stroke-opacity:1.0000; stroke-linecap:round; stroke-linejoin:round;" transform="translate(0 0) scale(1 1)">
</g>
<g style="fill:none;  stroke:#848484; stroke-width:1.0562; stroke-opacity:1;  stroke-linecap:round; stroke-linejoin:round;">
<g transform="rotate(-90.000000 111.6050 26.4045)">
<text x="111.6050" y="29.0450" textLength="11.1656" font-size="7.0414" lengthAdjust="spacingAndGlyphs" text-anchor="middle" opacity="0">J2</text>
</g>
<g class="stroked-text"><desc>J2</desc>
<path d="M108.7122 28.1648 L112.4844 28.1648 "/>
<path d="M112.4844 28.1648 L113.2388 28.4163 "/>
<path d="M113.2388 28.4163 L113.7417 28.9193 "/>
<path d="M113.7417 28.9193 L113.9932 29.6737 "/>
<path d="M113.9932 29.6737 L113.9932 30.1767 "/>
<path d="M109.2152 25.9016 L108.9637 25.6501 "/>
<path d="M108.9637 25.6501 L108.7122 25.1471 "/>
<path d="M108.7122 25.1471 L108.7122 23.8897 "/>
<path d="M108.7122 23.8897 L108.9637 23.3868 "/>
<path d="M108.9637 23.3868 L109.2152 23.1353 "/>
<path d="M109.2152 23.1353 L109.7181 22.8838 "/>
<path d="M109.7181 22.8838 L110.2211 22.8838 "/>
<path d="M110.2211 22.8838 L110.9755 23.1353 "/>
<path d="M110.9755 23.1353 L113.9932 26.1530 "/>
<path d="M113.9932 26.1530 L113.9932 22.8838 "/>
</g><g transform="rotate(-90.000000 111.6050 9.0652)">
<text x="111.6050" y="11.7057" textLength="11.1656" font-size="7.0414" lengthAdjust="spacingAndGlyphs" text-anchor="middle" opacity="0">J3</text>
</g>
<g class="stroked-text"><desc>J3</desc>
<path d="M108.7122 10.8255 L112.4844 10.8255 "/>
<path d="M112.4844 10.8255 L113.2388 11.0770 "/>
<path d="M113.2388 11.0770 L113.7417 11.5800 "/>
<path d="M113.7417 11.5800 L113.9932 12.3344 "/>
<path d="M113.9932 12.3344 L113.9932 12.8373 "/>
<path d="M108.7122 8.8137 L108.7122 5.5445 "/>
<path d="M108.7122 5.5445 L110.7240 7.3048 "/>
<path d="M110.7240 7.3048 L110.7240 6.5504 "/>
<path d="M110.7240 6.5504 L110.9755 6.0475 "/>
<path d="M110.9755 6.0475 L111.2270 5.7960 "/>
<path d="M111.2270 5.7960 L111.7299 5.5445 "/>
<path d="M111.7299 5.5445 L112.9873 5.5445 "/>
<path d="M112.9873 5.5445 L113.4903 5.7960 "/>
<path d="M113.4903 5.7960 L113.7417 6.0475 "/>
<path d="M113.7417 6.0475 L113.9932 6.5504 "/>
<path d="M113.9932 6.5504 L113.9932 8.0593 "/>
<path d="M113.9932 8.0593 L113.7417 8.5622 "/>
<path d="M113.7417 8.5622 L113.4903 8.8137 "/>
</g><g transform="rotate(-90.000000 47.5017 200.5990)">
<text x="47.5017" y="203.2395" textLength="11.1656" font-size="7.0414" lengthAdjust="spacingAndGlyphs" text-anchor="middle" opacity="0">J9</text>
</g>
<g class="stroked-text"><desc>J9</desc>
<path d="M44.6089 202.3593 L48.3810 202.3593 "/>
<path d="M48.3810 202.3593 L49.1355 202.6108 "/>
<path d="M49.1355 202.6108 L49.6384 203.1137 "/>
<path d="M49.6384 203.1137 L49.8899 203.8682 "/>
<path d="M49.8899 203.8682 L49.8899 204.3711 "/>
<path d="M49.8899 199.5931 L49.8899 198.5871 "/>
<path d="M49.8899 198.5871 L49.6384 198.0842 "/>
<path d="M49.6384 198.0842 L49.3869 197.8327 "/>
<path d="M49.3869 197.8327 L48.6325 197.3298 "/>
<path d="M48.6325 197.3298 L47.6266 197.0783 "/>
<path d="M47.6266 197.0783 L45.6148 197.0783 "/>
<path d="M45.6148 197.0783 L45.1118 197.3298 "/>
<path d="M45.1118 197.3298 L44.8603 197.5812 "/>
<path d="M44.8603 197.5812 L44.6089 198.0842 "/>
<path d="M44.6089 198.0842 L44.6089 199.0901 "/>
<path d="M44.6089 199.0901 L44.8603 199.5931 "/>
<path d="M44.8603 199.5931 L45.1118 199.8445 "/>
<path d="M45.1118 199.8445 L45.6148 200.0960 "/>
<path d="M45.6148 200.0960 L46.8722 200.0960 "/>
<path d="M46.8722 200.0960 L47.3751 199.8445 "/>
<path d="M47.3751 199.8445 L47.6266 199.5931 "/>
<path d="M47.6266 199.5931 L47.8781 199.0901 "/>
<path d="M47.8781 199.0901 L47.8781 198.0842 "/>
<path d="M47.8781 198.0842 L47.6266 197.5812 "/>
<path d="M47.6266 197.5812 L47.3751 197.3298 "/>
<path d="M47.3751 197.3298 L46.8722 197.0783 "/>
</g><g transform="rotate(-90.000000 47.5017 183.4357)">
<text x="47.5017" y="186.0762" textLength="11.1656" font-size="7.0414" lengthAdjust="spacingAndGlyphs" text-anchor="middle" opacity="0">J8</text>
</g>
<g class="stroked-text"><desc>J8</desc>
<path d="M44.6089 185.1960 L48.3810 185.1960 "/>
<path d="M48.3810 185.1960 L49.1355 185.4475 "/>
<path d="M49.1355 185.4475 L49.6384 185.9504 "/>
<path d="M49.6384 185.9504 L49.8899 186.7049 "/>
<path d="M49.8899 186.7049 L49.8899 187.2078 "/>
<path d="M46.8722 181.9268 L46.6207 182.4298 "/>
<path d="M46.6207 182.4298 L46.3692 182.6812 "/>
<path d="M46.3692 182.6812 L45.8663 182.9327 "/>
<path d="M45.8663 182.9327 L45.6148 182.9327 "/>
<path d="M45.6148 182.9327 L45.1118 182.6812 "/>
<path d="M45.1118 182.6812 L44.8603 182.4298 "/>
<path d="M44.8603 182.4298 L44.6089 181.9268 "/>
<path d="M44.6089 181.9268 L44.6089 180.9209 "/>
<path d="M44.6089 180.9209 L44.8603 180.4179 "/>
<path d="M44.8603 180.4179 L45.1118 180.1665 "/>
<path d="M45.1118 180.1665 L45.6148 179.9150 "/>
<path d="M45.6148 179.9150 L45.8663 179.9150 "/>
<path d="M45.8663 179.9150 L46.3692 180.1665 "/>
<path d="M46.3692 180.1665 L46.6207 180.4179 "/>
<path d="M46.6207 180.4179 L46.8722 180.9209 "/>
<path d="M46.8722 180.9209 L46.8722 181.9268 "/>
<path d="M46.8722 181.9268 L47.1236 182.4298 "/>
<path d="M47.1236 182.4298 L47.3751 182.6812 "/>
<path d="M47.3751 182.6812 L47.8781 182.9327 "/>
<path d="M47.8781 182.9327 L48.8840 182.9327 "/>
<path d="M48.8840 182.9327 L49.3869 182.6812 "/>
<path d="M49.3869 182.6812 L49.6384 182.4298 "/>
<path d="M49.6384 182.4298 L49.8899 181.9268 "/>
<path d="M49.8899 181.9268 L49.8899 180.9209 "/>
<path d="M49.8899 180.9209 L49.6384 180.4179 "/>
<path d="M49.6384 180.4179 L49.3869 180.1665 "/>
<path d="M49.3869 180.1665 L48.8840 179.9150 "/>
<path d="M48.8840 179.9150 L47.8781 179.9150 "/>
<path d="M47.8781 179.9150 L47.3751 180.1665 "/>
<path d="M47.3751 180.1665 L47.1236 180.4179 "/>
<path d="M47.1236 180.4179 L46.8722 180.9209 "/>
</g></g>
<g style="fill:none;  stroke:#848484; stroke-width:0.7041; stroke-opacity:1;  stroke-linecap:round; stroke-linejoin:round;">
<text x="169.4491" y="8.2730" textLength="12.1379" font-size="4.6942" lengthAdjust="spacingAndGlyphs" text-anchor="middle" opacity="0">SW1</text>
<g class="stroked-text"><desc>SW1</desc>
<path d="M164.7549 7.9372 L165.2578 8.1048 "/>
<path d="M165.2578 8.1048 L166.0961 8.1048 "/>
<path d="M166.0961 8.1048 L166.4314 7.9372 "/>
<path d="M166.4314 7.9372 L166.5991 7.7695 "/>
<path d="M166.5991 7.7695 L166.7667 7.4342 "/>
<path d="M166.7667 7.4342 L166.7667 7.0989 "/>
<path d="M166.7667 7.0989 L166.5991 6.7636 "/>
<path d="M166.5991 6.7636 L166.4314 6.5959 "/>
<path d="M166.4314 6.5959 L166.0961 6.4283 "/>
<path d="M166.0961 6.4283 L165.4255 6.2606 "/>
<path d="M165.4255 6.2606 L165.0902 6.0930 "/>
<path d="M165.0902 6.0930 L164.9225 5.9253 "/>
<path d="M164.9225 5.9253 L164.7549 5.5900 "/>
<path d="M164.7549 5.5900 L164.7549 5.2547 "/>
<path d="M164.7549 5.2547 L164.9225 4.9194 "/>
<path d="M164.9225 4.9194 L165.0902 4.7518 "/>
<path d="M165.0902 4.7518 L165.4255 4.5841 "/>
<path d="M165.4255 4.5841 L166.2637 4.5841 "/>
<path d="M166.2637 4.5841 L166.7667 4.7518 "/>
<path d="M167.9403 4.5841 L168.7785 8.1048 "/>
<path d="M168.7785 8.1048 L169.4491 5.5900 "/>
<path d="M169.4491 5.5900 L170.1197 8.1048 "/>
<path d="M170.1197 8.1048 L170.9580 4.5841 "/>
<path d="M174.1434 8.1048 L172.1315 8.1048 "/>
<path d="M173.1374 8.1048 L173.1374 4.5841 "/>
<path d="M173.1374 4.5841 L172.8021 5.0871 "/>
<path d="M172.8021 5.0871 L172.4668 5.4224 "/>
<path d="M172.4668 5.4224 L172.1315 5.5900 "/>
</g><text x="184.8521" y="208.2474" textLength="12.1379" font-size="4.6942" lengthAdjust="spacingAndGlyphs" text-anchor="middle" opacity="0">SW2</text>
<g class="stroked-text"><desc>SW2</desc>
<path d="M180.1578 207.9115 L180.6608 208.0792 "/>
<path d="M180.6608 208.0792 L181.4991 208.0792 "/>
<path d="M181.4991 208.0792 L181.8344 207.9115 "/>
<path d="M181.8344 207.9115 L182.0020 207.7439 "/>
<path d="M182.0020 207.7439 L182.1697 207.4086 "/>
<path d="M182.1697 207.4086 L182.1697 207.0733 "/>
<path d="M182.1697 207.0733 L182.0020 206.7380 "/>
<path d="M182.0020 206.7380 L181.8344 206.5703 "/>
<path d="M181.8344 206.5703 L181.4991 206.4027 "/>
<path d="M181.4991 206.4027 L180.8284 206.2350 "/>
<path d="M180.8284 206.2350 L180.4931 206.0674 "/>
<path d="M180.4931 206.0674 L180.3255 205.8997 "/>
<path d="M180.3255 205.8997 L180.1578 205.5644 "/>
<path d="M180.1578 205.5644 L180.1578 205.2291 "/>
<path d="M180.1578 205.2291 L180.3255 204.8938 "/>
<path d="M180.3255 204.8938 L180.4931 204.7262 "/>
<path d="M180.4931 204.7262 L180.8284 204.5585 "/>
<path d="M180.8284 204.5585 L181.6667 204.5585 "/>
<path d="M181.6667 204.5585 L182.1697 204.7262 "/>
<path d="M183.3432 204.5585 L184.1815 208.0792 "/>
<path d="M184.1815 208.0792 L184.8521 205.5644 "/>
<path d="M184.8521 205.5644 L185.5227 208.0792 "/>
<path d="M185.5227 208.0792 L186.3609 204.5585 "/>
<path d="M187.5345 204.8938 L187.7021 204.7262 "/>
<path d="M187.7021 204.7262 L188.0375 204.5585 "/>
<path d="M188.0375 204.5585 L188.8757 204.5585 "/>
<path d="M188.8757 204.5585 L189.2110 204.7262 "/>
<path d="M189.2110 204.7262 L189.3787 204.8938 "/>
<path d="M189.3787 204.8938 L189.5463 205.2291 "/>
<path d="M189.5463 205.2291 L189.5463 205.5644 "/>
<path d="M189.5463 205.5644 L189.3787 206.0674 "/>
<path d="M189.3787 206.0674 L187.3668 208.0792 "/>
<path d="M187.3668 208.0792 L189.5463 208.0792 "/>
</g></g>
<g style="fill:none;  stroke:#848484; stroke-width:0.5198; stroke-opacity:1;  stroke-linecap:round; stroke-linejoin:round;">
<text x="244.9676" y="79.1835" textLength="49.8746" font-size="4.6203" lengthAdjust="spacingAndGlyphs" text-anchor="middle" opacity="0">NCP21XV103J03RA</text>
<g class="stroked-text"><desc>NCP21XV103J03RA</desc>
<path d="M221.2885 79.0269 L221.2885 75.5617 "/>
<path d="M221.2885 75.5617 L223.2687 79.0269 "/>
<path d="M223.2687 79.0269 L223.2687 75.5617 "/>
<path d="M226.8989 78.6969 L226.7339 78.8619 "/>
<path d="M226.7339 78.8619 L226.2389 79.0269 "/>
<path d="M226.2389 79.0269 L225.9088 79.0269 "/>
<path d="M225.9088 79.0269 L225.4138 78.8619 "/>
<path d="M225.4138 78.8619 L225.0838 78.5319 "/>
<path d="M225.0838 78.5319 L224.9188 78.2018 "/>
<path d="M224.9188 78.2018 L224.7538 77.5418 "/>
<path d="M224.7538 77.5418 L224.7538 77.0468 "/>
<path d="M224.7538 77.0468 L224.9188 76.3867 "/>
<path d="M224.9188 76.3867 L225.0838 76.0567 "/>
<path d="M225.0838 76.0567 L225.4138 75.7267 "/>
<path d="M225.4138 75.7267 L225.9088 75.5617 "/>
<path d="M225.9088 75.5617 L226.2389 75.5617 "/>
<path d="M226.2389 75.5617 L226.7339 75.7267 "/>
<path d="M226.7339 75.7267 L226.8989 75.8917 "/>
<path d="M228.3840 79.0269 L228.3840 75.5617 "/>
<path d="M228.3840 75.5617 L229.7041 75.5617 "/>
<path d="M229.7041 75.5617 L230.0341 75.7267 "/>
<path d="M230.0341 75.7267 L230.1991 75.8917 "/>
<path d="M230.1991 75.8917 L230.3641 76.2217 "/>
<path d="M230.3641 76.2217 L230.3641 76.7167 "/>
<path d="M230.3641 76.7167 L230.1991 77.0468 "/>
<path d="M230.1991 77.0468 L230.0341 77.2118 "/>
<path d="M230.0341 77.2118 L229.7041 77.3768 "/>
<path d="M229.7041 77.3768 L228.3840 77.3768 "/>
<path d="M231.6842 75.8917 L231.8492 75.7267 "/>
<path d="M231.8492 75.7267 L232.1793 75.5617 "/>
<path d="M232.1793 75.5617 L233.0043 75.5617 "/>
<path d="M233.0043 75.5617 L233.3343 75.7267 "/>
<path d="M233.3343 75.7267 L233.4993 75.8917 "/>
<path d="M233.4993 75.8917 L233.6644 76.2217 "/>
<path d="M233.6644 76.2217 L233.6644 76.5517 "/>
<path d="M233.6644 76.5517 L233.4993 77.0468 "/>
<path d="M233.4993 77.0468 L231.5192 79.0269 "/>
<path d="M231.5192 79.0269 L233.6644 79.0269 "/>
<path d="M236.9646 79.0269 L234.9844 79.0269 "/>
<path d="M235.9745 79.0269 L235.9745 75.5617 "/>
<path d="M235.9745 75.5617 L235.6445 76.0567 "/>
<path d="M235.6445 76.0567 L235.3145 76.3867 "/>
<path d="M235.3145 76.3867 L234.9844 76.5517 "/>
<path d="M238.1197 75.5617 L240.4298 79.0269 "/>
<path d="M240.4298 75.5617 L238.1197 79.0269 "/>
<path d="M241.2549 75.5617 L242.4099 79.0269 "/>
<path d="M242.4099 79.0269 L243.5650 75.5617 "/>
<path d="M246.5352 79.0269 L244.5551 79.0269 "/>
<path d="M245.5452 79.0269 L245.5452 75.5617 "/>
<path d="M245.5452 75.5617 L245.2151 76.0567 "/>
<path d="M245.2151 76.0567 L244.8851 76.3867 "/>
<path d="M244.8851 76.3867 L244.5551 76.5517 "/>
<path d="M248.6804 75.5617 L249.0104 75.5617 "/>
<path d="M249.0104 75.5617 L249.3404 75.7267 "/>
<path d="M249.3404 75.7267 L249.5054 75.8917 "/>
<path d="M249.5054 75.8917 L249.6704 76.2217 "/>
<path d="M249.6704 76.2217 L249.8354 76.8818 "/>
<path d="M249.8354 76.8818 L249.8354 77.7068 "/>
<path d="M249.8354 77.7068 L249.6704 78.3669 "/>
<path d="M249.6704 78.3669 L249.5054 78.6969 "/>
<path d="M249.5054 78.6969 L249.3404 78.8619 "/>
<path d="M249.3404 78.8619 L249.0104 79.0269 "/>
<path d="M249.0104 79.0269 L248.6804 79.0269 "/>
<path d="M248.6804 79.0269 L248.3503 78.8619 "/>
<path d="M248.3503 78.8619 L248.1853 78.6969 "/>
<path d="M248.1853 78.6969 L248.0203 78.3669 "/>
<path d="M248.0203 78.3669 L247.8553 77.7068 "/>
<path d="M247.8553 77.7068 L247.8553 76.8818 "/>
<path d="M247.8553 76.8818 L248.0203 76.2217 "/>
<path d="M248.0203 76.2217 L248.1853 75.8917 "/>
<path d="M248.1853 75.8917 L248.3503 75.7267 "/>
<path d="M248.3503 75.7267 L248.6804 75.5617 "/>
<path d="M250.9905 75.5617 L253.1357 75.5617 "/>
<path d="M253.1357 75.5617 L251.9806 76.8818 "/>
<path d="M251.9806 76.8818 L252.4756 76.8818 "/>
<path d="M252.4756 76.8818 L252.8056 77.0468 "/>
<path d="M252.8056 77.0468 L252.9707 77.2118 "/>
<path d="M252.9707 77.2118 L253.1357 77.5418 "/>
<path d="M253.1357 77.5418 L253.1357 78.3669 "/>
<path d="M253.1357 78.3669 L252.9707 78.6969 "/>
<path d="M252.9707 78.6969 L252.8056 78.8619 "/>
<path d="M252.8056 78.8619 L252.4756 79.0269 "/>
<path d="M252.4756 79.0269 L251.4856 79.0269 "/>
<path d="M251.4856 79.0269 L251.1555 78.8619 "/>
<path d="M251.1555 78.8619 L250.9905 78.6969 "/>
<path d="M255.6108 75.5617 L255.6108 78.0368 "/>
<path d="M255.6108 78.0368 L255.4458 78.5319 "/>
<path d="M255.4458 78.5319 L255.1158 78.8619 "/>
<path d="M255.1158 78.8619 L254.6208 79.0269 "/>
<path d="M254.6208 79.0269 L254.2907 79.0269 "/>
<path d="M257.9210 75.5617 L258.2510 75.5617 "/>
<path d="M258.2510 75.5617 L258.5810 75.7267 "/>
<path d="M258.5810 75.7267 L258.7460 75.8917 "/>
<path d="M258.7460 75.8917 L258.9111 76.2217 "/>
<path d="M258.9111 76.2217 L259.0761 76.8818 "/>
<path d="M259.0761 76.8818 L259.0761 77.7068 "/>
<path d="M259.0761 77.7068 L258.9111 78.3669 "/>
<path d="M258.9111 78.3669 L258.7460 78.6969 "/>
<path d="M258.7460 78.6969 L258.5810 78.8619 "/>
<path d="M258.5810 78.8619 L258.2510 79.0269 "/>
<path d="M258.2510 79.0269 L257.9210 79.0269 "/>
<path d="M257.9210 79.0269 L257.5910 78.8619 "/>
<path d="M257.5910 78.8619 L257.4260 78.6969 "/>
<path d="M257.4260 78.6969 L257.2609 78.3669 "/>
<path d="M257.2609 78.3669 L257.0959 77.7068 "/>
<path d="M257.0959 77.7068 L257.0959 76.8818 "/>
<path d="M257.0959 76.8818 L257.2609 76.2217 "/>
<path d="M257.2609 76.2217 L257.4260 75.8917 "/>
<path d="M257.4260 75.8917 L257.5910 75.7267 "/>
<path d="M257.5910 75.7267 L257.9210 75.5617 "/>
<path d="M260.2311 75.5617 L262.3763 75.5617 "/>
<path d="M262.3763 75.5617 L261.2212 76.8818 "/>
<path d="M261.2212 76.8818 L261.7162 76.8818 "/>
<path d="M261.7162 76.8818 L262.0463 77.0468 "/>
<path d="M262.0463 77.0468 L262.2113 77.2118 "/>
<path d="M262.2113 77.2118 L262.3763 77.5418 "/>
<path d="M262.3763 77.5418 L262.3763 78.3669 "/>
<path d="M262.3763 78.3669 L262.2113 78.6969 "/>
<path d="M262.2113 78.6969 L262.0463 78.8619 "/>
<path d="M262.0463 78.8619 L261.7162 79.0269 "/>
<path d="M261.7162 79.0269 L260.7262 79.0269 "/>
<path d="M260.7262 79.0269 L260.3962 78.8619 "/>
<path d="M260.3962 78.8619 L260.2311 78.6969 "/>
<path d="M265.8415 79.0269 L264.6864 77.3768 "/>
<path d="M263.8614 79.0269 L263.8614 75.5617 "/>
<path d="M263.8614 75.5617 L265.1815 75.5617 "/>
<path d="M265.1815 75.5617 L265.5115 75.7267 "/>
<path d="M265.5115 75.7267 L265.6765 75.8917 "/>
<path d="M265.6765 75.8917 L265.8415 76.2217 "/>
<path d="M265.8415 76.2217 L265.8415 76.7167 "/>
<path d="M265.8415 76.7167 L265.6765 77.0468 "/>
<path d="M265.6765 77.0468 L265.5115 77.2118 "/>
<path d="M265.5115 77.2118 L265.1815 77.3768 "/>
<path d="M265.1815 77.3768 L263.8614 77.3768 "/>
<path d="M267.1616 78.0368 L268.8117 78.0368 "/>
<path d="M266.8316 79.0269 L267.9867 75.5617 "/>
<path d="M267.9867 75.5617 L269.1417 79.0269 "/>
</g></g>
<g style="fill:none;  stroke:#848484; stroke-width:0.2772; stroke-opacity:1;  stroke-linecap:round; stroke-linejoin:round;">
<text x="244.9676" y="72.5995" textLength="5.2705" font-size="2.3102" lengthAdjust="spacingAndGlyphs" text-anchor="middle" opacity="0">TH2</text>
<g class="stroked-text"><desc>TH2</desc>
<path d="M242.7400 70.7877 L243.7300 70.7877 "/>
<path d="M243.2350 72.5203 L243.2350 70.7877 "/>
<path d="M244.3076 72.5203 L244.3076 70.7877 "/>
<path d="M244.3076 71.6128 L245.2976 71.6128 "/>
<path d="M245.2976 72.5203 L245.2976 70.7877 "/>
<path d="M246.0402 70.9527 L246.1227 70.8702 "/>
<path d="M246.1227 70.8702 L246.2877 70.7877 "/>
<path d="M246.2877 70.7877 L246.7002 70.7877 "/>
<path d="M246.7002 70.7877 L246.8652 70.8702 "/>
<path d="M246.8652 70.8702 L246.9478 70.9527 "/>
<path d="M246.9478 70.9527 L247.0303 71.1177 "/>
<path d="M247.0303 71.1177 L247.0303 71.2828 "/>
<path d="M247.0303 71.2828 L246.9478 71.5303 "/>
<path d="M246.9478 71.5303 L245.9577 72.5203 "/>
<path d="M245.9577 72.5203 L247.0303 72.5203 "/>
</g></g>
<g style="fill:none;  stroke:#848484; stroke-width:0.5198; stroke-opacity:1;  stroke-linecap:round; stroke-linejoin:round;">
<text x="244.8796" y="134.4650" textLength="49.8746" font-size="4.6203" lengthAdjust="spacingAndGlyphs" text-anchor="middle" opacity="0">NCP21XV103J03RA</text>
<g class="stroked-text"><desc>NCP21XV103J03RA</desc>
<path d="M221.2005 134.3084 L221.2005 130.8432 "/>
<path d="M221.2005 130.8432 L223.1806 134.3084 "/>
<path d="M223.1806 134.3084 L223.1806 130.8432 "/>
<path d="M226.8109 133.9784 L226.6459 134.1434 "/>
<path d="M226.6459 134.1434 L226.1508 134.3084 "/>
<path d="M226.1508 134.3084 L225.8208 134.3084 "/>
<path d="M225.8208 134.3084 L225.3258 134.1434 "/>
<path d="M225.3258 134.1434 L224.9958 133.8134 "/>
<path d="M224.9958 133.8134 L224.8308 133.4834 "/>
<path d="M224.8308 133.4834 L224.6657 132.8233 "/>
<path d="M224.6657 132.8233 L224.6657 132.3283 "/>
<path d="M224.6657 132.3283 L224.8308 131.6683 "/>
<path d="M224.8308 131.6683 L224.9958 131.3382 "/>
<path d="M224.9958 131.3382 L225.3258 131.0082 "/>
<path d="M225.3258 131.0082 L225.8208 130.8432 "/>
<path d="M225.8208 130.8432 L226.1508 130.8432 "/>
<path d="M226.1508 130.8432 L226.6459 131.0082 "/>
<path d="M226.6459 131.0082 L226.8109 131.1732 "/>
<path d="M228.2960 134.3084 L228.2960 130.8432 "/>
<path d="M228.2960 130.8432 L229.6161 130.8432 "/>
<path d="M229.6161 130.8432 L229.9461 131.0082 "/>
<path d="M229.9461 131.0082 L230.1111 131.1732 "/>
<path d="M230.1111 131.1732 L230.2761 131.5033 "/>
<path d="M230.2761 131.5033 L230.2761 131.9983 "/>
<path d="M230.2761 131.9983 L230.1111 132.3283 "/>
<path d="M230.1111 132.3283 L229.9461 132.4933 "/>
<path d="M229.9461 132.4933 L229.6161 132.6583 "/>
<path d="M229.6161 132.6583 L228.2960 132.6583 "/>
<path d="M231.5962 131.1732 L231.7612 131.0082 "/>
<path d="M231.7612 131.0082 L232.0912 130.8432 "/>
<path d="M232.0912 130.8432 L232.9163 130.8432 "/>
<path d="M232.9163 130.8432 L233.2463 131.0082 "/>
<path d="M233.2463 131.0082 L233.4113 131.1732 "/>
<path d="M233.4113 131.1732 L233.5763 131.5033 "/>
<path d="M233.5763 131.5033 L233.5763 131.8333 "/>
<path d="M233.5763 131.8333 L233.4113 132.3283 "/>
<path d="M233.4113 132.3283 L231.4312 134.3084 "/>
<path d="M231.4312 134.3084 L233.5763 134.3084 "/>
<path d="M236.8766 134.3084 L234.8964 134.3084 "/>
<path d="M235.8865 134.3084 L235.8865 130.8432 "/>
<path d="M235.8865 130.8432 L235.5565 131.3382 "/>
<path d="M235.5565 131.3382 L235.2265 131.6683 "/>
<path d="M235.2265 131.6683 L234.8964 131.8333 "/>
<path d="M238.0316 130.8432 L240.3418 134.3084 "/>
<path d="M240.3418 130.8432 L238.0316 134.3084 "/>
<path d="M241.1669 130.8432 L242.3219 134.3084 "/>
<path d="M242.3219 134.3084 L243.4770 130.8432 "/>
<path d="M246.4472 134.3084 L244.4671 134.3084 "/>
<path d="M245.4571 134.3084 L245.4571 130.8432 "/>
<path d="M245.4571 130.8432 L245.1271 131.3382 "/>
<path d="M245.1271 131.3382 L244.7971 131.6683 "/>
<path d="M244.7971 131.6683 L244.4671 131.8333 "/>
<path d="M248.5923 130.8432 L248.9224 130.8432 "/>
<path d="M248.9224 130.8432 L249.2524 131.0082 "/>
<path d="M249.2524 131.0082 L249.4174 131.1732 "/>
<path d="M249.4174 131.1732 L249.5824 131.5033 "/>
<path d="M249.5824 131.5033 L249.7474 132.1633 "/>
<path d="M249.7474 132.1633 L249.7474 132.9884 "/>
<path d="M249.7474 132.9884 L249.5824 133.6484 "/>
<path d="M249.5824 133.6484 L249.4174 133.9784 "/>
<path d="M249.4174 133.9784 L249.2524 134.1434 "/>
<path d="M249.2524 134.1434 L248.9224 134.3084 "/>
<path d="M248.9224 134.3084 L248.5923 134.3084 "/>
<path d="M248.5923 134.3084 L248.2623 134.1434 "/>
<path d="M248.2623 134.1434 L248.0973 133.9784 "/>
<path d="M248.0973 133.9784 L247.9323 133.6484 "/>
<path d="M247.9323 133.6484 L247.7673 132.9884 "/>
<path d="M247.7673 132.9884 L247.7673 132.1633 "/>
<path d="M247.7673 132.1633 L247.9323 131.5033 "/>
<path d="M247.9323 131.5033 L248.0973 131.1732 "/>
<path d="M248.0973 131.1732 L248.2623 131.0082 "/>
<path d="M248.2623 131.0082 L248.5923 130.8432 "/>
<path d="M250.9025 130.8432 L253.0476 130.8432 "/>
<path d="M253.0476 130.8432 L251.8926 132.1633 "/>
<path d="M251.8926 132.1633 L252.3876 132.1633 "/>
<path d="M252.3876 132.1633 L252.7176 132.3283 "/>
<path d="M252.7176 132.3283 L252.8826 132.4933 "/>
<path d="M252.8826 132.4933 L253.0476 132.8233 "/>
<path d="M253.0476 132.8233 L253.0476 133.6484 "/>
<path d="M253.0476 133.6484 L252.8826 133.9784 "/>
<path d="M252.8826 133.9784 L252.7176 134.1434 "/>
<path d="M252.7176 134.1434 L252.3876 134.3084 "/>
<path d="M252.3876 134.3084 L251.3975 134.3084 "/>
<path d="M251.3975 134.3084 L251.0675 134.1434 "/>
<path d="M251.0675 134.1434 L250.9025 133.9784 "/>
<path d="M255.5228 130.8432 L255.5228 133.3184 "/>
<path d="M255.5228 133.3184 L255.3578 133.8134 "/>
<path d="M255.3578 133.8134 L255.0278 134.1434 "/>
<path d="M255.0278 134.1434 L254.5327 134.3084 "/>
<path d="M254.5327 134.3084 L254.2027 134.3084 "/>
<path d="M257.8330 130.8432 L258.1630 130.8432 "/>
<path d="M258.1630 130.8432 L258.4930 131.0082 "/>
<path d="M258.4930 131.0082 L258.6580 131.1732 "/>
<path d="M258.6580 131.1732 L258.8230 131.5033 "/>
<path d="M258.8230 131.5033 L258.9880 132.1633 "/>
<path d="M258.9880 132.1633 L258.9880 132.9884 "/>
<path d="M258.9880 132.9884 L258.8230 133.6484 "/>
<path d="M258.8230 133.6484 L258.6580 133.9784 "/>
<path d="M258.6580 133.9784 L258.4930 134.1434 "/>
<path d="M258.4930 134.1434 L258.1630 134.3084 "/>
<path d="M258.1630 134.3084 L257.8330 134.3084 "/>
<path d="M257.8330 134.3084 L257.5029 134.1434 "/>
<path d="M257.5029 134.1434 L257.3379 133.9784 "/>
<path d="M257.3379 133.9784 L257.1729 133.6484 "/>
<path d="M257.1729 133.6484 L257.0079 132.9884 "/>
<path d="M257.0079 132.9884 L257.0079 132.1633 "/>
<path d="M257.0079 132.1633 L257.1729 131.5033 "/>
<path d="M257.1729 131.5033 L257.3379 131.1732 "/>
<path d="M257.3379 131.1732 L257.5029 131.0082 "/>
<path d="M257.5029 131.0082 L257.8330 130.8432 "/>
<path d="M260.1431 130.8432 L262.2883 130.8432 "/>
<path d="M262.2883 130.8432 L261.1332 132.1633 "/>
<path d="M261.1332 132.1633 L261.6282 132.1633 "/>
<path d="M261.6282 132.1633 L261.9582 132.3283 "/>
<path d="M261.9582 132.3283 L262.1233 132.4933 "/>
<path d="M262.1233 132.4933 L262.2883 132.8233 "/>
<path d="M262.2883 132.8233 L262.2883 133.6484 "/>
<path d="M262.2883 133.6484 L262.1233 133.9784 "/>
<path d="M262.1233 133.9784 L261.9582 134.1434 "/>
<path d="M261.9582 134.1434 L261.6282 134.3084 "/>
<path d="M261.6282 134.3084 L260.6382 134.3084 "/>
<path d="M260.6382 134.3084 L260.3081 134.1434 "/>
<path d="M260.3081 134.1434 L260.1431 133.9784 "/>
<path d="M265.7535 134.3084 L264.5984 132.6583 "/>
<path d="M263.7734 134.3084 L263.7734 130.8432 "/>
<path d="M263.7734 130.8432 L265.0935 130.8432 "/>
<path d="M265.0935 130.8432 L265.4235 131.0082 "/>
<path d="M265.4235 131.0082 L265.5885 131.1732 "/>
<path d="M265.5885 131.1732 L265.7535 131.5033 "/>
<path d="M265.7535 131.5033 L265.7535 131.9983 "/>
<path d="M265.7535 131.9983 L265.5885 132.3283 "/>
<path d="M265.5885 132.3283 L265.4235 132.4933 "/>
<path d="M265.4235 132.4933 L265.0935 132.6583 "/>
<path d="M265.0935 132.6583 L263.7734 132.6583 "/>
<path d="M267.0736 133.3184 L268.7237 133.3184 "/>
<path d="M266.7436 134.3084 L267.8986 130.8432 "/>
<path d="M267.8986 130.8432 L269.0537 134.3084 "/>
</g></g>
<g style="fill:none;  stroke:#848484; stroke-width:0.2772; stroke-opacity:1;  stroke-linecap:round; stroke-linejoin:round;">
<text x="244.8796" y="139.3163" textLength="5.2705" font-size="2.3102" lengthAdjust="spacingAndGlyphs" text-anchor="middle" opacity="0">TH1</text>
<g class="stroked-text"><desc>TH1</desc>
<path d="M242.6520 137.5045 L243.6420 137.5045 "/>
<path d="M243.1470 139.2371 L243.1470 137.5045 "/>
<path d="M244.2196 139.2371 L244.2196 137.5045 "/>
<path d="M244.2196 138.3296 L245.2096 138.3296 "/>
<path d="M245.2096 139.2371 L245.2096 137.5045 "/>
<path d="M246.9422 139.2371 L245.9522 139.2371 "/>
<path d="M246.4472 139.2371 L246.4472 137.5045 "/>
<path d="M246.4472 137.5045 L246.2822 137.7520 "/>
<path d="M246.2822 137.7520 L246.1172 137.9171 "/>
<path d="M246.1172 137.9171 L245.9522 137.9996 "/>
</g></g>
<g style="fill:none;  stroke:#848484; stroke-width:0.5198; stroke-opacity:1;  stroke-linecap:round; stroke-linejoin:round;">
<g transform="rotate(-90.000000 208.5286 200.9420)">
<text x="208.5286" y="202.6746" transform="scale(-1 1) translate(-417.057249 0)" textLength="4.3315" font-size="4.6203" lengthAdjust="spacingAndGlyphs" text-anchor="middle" opacity="0">K</text>
</g>
<g class="stroked-text"><desc>K</desc>
<path d="M210.1047 200.0345 L206.6394 200.0345 "/>
<path d="M210.1047 202.0146 L208.1245 200.5295 "/>
<path d="M206.6394 202.0146 L208.6196 200.0345 "/>
</g><g transform="rotate(-270.000000 96.4831 184.9229)">
<text x="96.4831" y="186.6556" transform="scale(-1 1) translate(-192.966229 0)" textLength="4.3315" font-size="4.6203" lengthAdjust="spacingAndGlyphs" text-anchor="middle" opacity="0">K</text>
</g>
<g class="stroked-text"><desc>K</desc>
<path d="M94.9071 185.8305 L98.3723 185.8305 "/>
<path d="M94.9071 183.8504 L96.8872 185.3355 "/>
<path d="M98.3723 183.8504 L96.3922 185.8305 "/>
</g><g transform="rotate(-270.000000 218.8486 186.8593)">
<text x="218.8486" y="188.5919" transform="scale(-1 1) translate(-437.697211 0)" textLength="4.3315" font-size="4.6203" lengthAdjust="spacingAndGlyphs" text-anchor="middle" opacity="0">K</text>
</g>
<g class="stroked-text"><desc>K</desc>
<path d="M217.2725 187.7669 L220.7378 187.7669 "/>
<path d="M217.2725 185.7867 L219.2527 187.2718 "/>
<path d="M220.7378 185.7867 L218.7577 187.7669 "/>
</g><g transform="rotate(-90.000000 240.5448 200.9420)">
<text x="240.5448" y="202.6746" transform="scale(-1 1) translate(-481.089541 0)" textLength="4.3315" font-size="4.6203" lengthAdjust="spacingAndGlyphs" text-anchor="middle" opacity="0">K</text>
</g>
<g class="stroked-text"><desc>K</desc>
<path d="M242.1208 200.0345 L238.6556 200.0345 "/>
<path d="M242.1208 202.0146 L240.1407 200.5295 "/>
<path d="M238.6556 202.0146 L240.6357 200.0345 "/>
</g><g transform="rotate(-90.000000 251.2168 200.9420)">
<text x="251.2168" y="202.6746" transform="scale(-1 1) translate(-502.433639 0)" textLength="4.3315" font-size="4.6203" lengthAdjust="spacingAndGlyphs" text-anchor="middle" opacity="0">K</text>
</g>
<g class="stroked-text"><desc>K</desc>
<path d="M252.7929 200.0345 L249.3276 200.0345 "/>
<path d="M252.7929 202.0146 L250.8127 200.5295 "/>
<path d="M249.3276 202.0146 L251.3078 200.0345 "/>
</g><g transform="rotate(-270.000000 229.5207 186.8593)">
<text x="229.5207" y="188.5919" transform="scale(-1 1) translate(-459.041309 0)" textLength="4.3315" font-size="4.6203" lengthAdjust="spacingAndGlyphs" text-anchor="middle" opacity="0">K</text>
</g>
<g class="stroked-text"><desc>K</desc>
<path d="M227.9446 187.7669 L231.4098 187.7669 "/>
<path d="M227.9446 185.7867 L229.9247 187.2718 "/>
<path d="M231.4098 185.7867 L229.4297 187.7669 "/>
</g><path d="M56.5699 33.3350 L56.5699 19.4740 "/>
<path d="M58.3028 21.2032 L58.3028 31.6058 "/>
<path d="M65.2333 17.7414 L65.2333 19.4740 "/>
<path d="M65.2333 33.3350 L65.2333 35.0676 "/>
<path d="M66.9656 21.2032 L66.9656 31.6058 "/>
<path d="M66.9656 21.2067 L58.3028 21.2067 "/>
<path d="M66.9656 31.6024 L58.3028 31.6024 "/>
<path d="M68.6985 19.4740 L56.5699 19.4740 "/>
<path d="M68.6985 33.3350 L56.5668 33.3350 "/>
<path d="M68.6985 33.3350 L68.6985 19.4740 "/>
<path d="M79.0942 21.2063 L79.0942 31.6027 "/>
<path d="M79.0942 21.2067 L68.6985 21.2067 "/>
<path d="M79.0942 31.6024 L68.6985 31.6024 "/>
<path d="M86.0247 17.7411 L86.0247 35.0679 "/>
<path d="M86.0247 17.7414 L65.2333 17.7414 "/>
<path d="M86.0247 17.7414 L117.2118 17.7414 "/>
<path d="M86.0247 35.0676 L65.2333 35.0676 "/>
<path d="M87.7577 22.9393 L86.0247 22.9393 "/>
<path d="M87.7577 29.8697 L86.0247 29.8697 "/>
<path d="M87.7577 33.3350 L87.7577 19.4740 "/>
<path d="M115.4795 19.4740 L87.7577 19.4740 "/>
<path d="M115.4795 19.4740 L115.4795 33.3350 "/>
<path d="M115.4795 33.3350 L87.7577 33.3350 "/>
<path d="M117.2118 17.7411 L117.2118 35.0679 "/>
<path d="M117.2118 35.0676 L86.0247 35.0676 "/>
<path d="M56.5699 15.9956 L56.5699 2.1347 "/>
<path d="M58.3028 3.8639 L58.3028 14.2665 "/>
<path d="M65.2333 0.4021 L65.2333 2.1347 "/>
<path d="M65.2333 15.9956 L65.2333 17.7283 "/>
<path d="M66.9656 3.8639 L66.9656 14.2665 "/>
<path d="M66.9656 3.8673 L58.3028 3.8673 "/>
<path d="M66.9656 14.2630 L58.3028 14.2630 "/>
<path d="M68.6985 2.1347 L56.5699 2.1347 "/>
<path d="M68.6985 15.9956 L56.5668 15.9956 "/>
<path d="M68.6985 15.9956 L68.6985 2.1347 "/>
<path d="M79.0942 3.8670 L79.0942 14.2634 "/>
<path d="M79.0942 3.8673 L68.6985 3.8673 "/>
<path d="M79.0942 14.2630 L68.6985 14.2630 "/>
<path d="M86.0247 0.4018 L86.0247 17.7286 "/>
<path d="M86.0247 0.4021 L65.2333 0.4021 "/>
<path d="M86.0247 0.4021 L117.2118 0.4021 "/>
<path d="M86.0247 17.7283 L65.2333 17.7283 "/>
<path d="M87.7577 5.6000 L86.0247 5.6000 "/>
<path d="M87.7577 12.5304 L86.0247 12.5304 "/>
<path d="M87.7577 15.9956 L87.7577 2.1347 "/>
<path d="M115.4795 2.1347 L87.7577 2.1347 "/>
<path d="M115.4795 2.1347 L115.4795 15.9956 "/>
<path d="M115.4795 15.9956 L87.7577 15.9956 "/>
<path d="M117.2118 0.4018 L117.2118 17.7286 "/>
<path d="M117.2118 17.7283 L86.0247 17.7283 "/>
<path d="M131.7779 14.3462 L140.5796 14.3462 "/>
<path d="M131.7779 31.9496 L131.7779 14.3462 "/>
<path d="M140.5796 14.3462 L140.5796 31.9496 "/>
<path d="M140.5796 31.9496 L131.7779 31.9496 "/>
<path d="M122.9762 14.3462 L131.7779 14.3462 "/>
<path d="M122.9762 31.9496 L122.9762 14.3462 "/>
<path d="M131.7779 14.3462 L131.7779 31.9496 "/>
<path d="M131.7779 31.9496 L122.9762 31.9496 "/>
<path d="M41.8950 191.9359 L73.0821 191.9359 "/>
<path d="M41.8950 209.2624 L41.8950 191.9355 "/>
<path d="M43.6272 193.6685 L71.3491 193.6685 "/>
<path d="M43.6272 207.5294 L43.6272 193.6685 "/>
<path d="M43.6272 207.5294 L71.3491 207.5294 "/>
<path d="M71.3491 193.6685 L71.3491 207.5294 "/>
<path d="M71.3491 197.1337 L73.0821 197.1337 "/>
<path d="M71.3491 204.0642 L73.0821 204.0642 "/>
<path d="M73.0821 191.9359 L93.8734 191.9359 "/>
<path d="M73.0821 209.2620 L41.8950 209.2620 "/>
<path d="M73.0821 209.2620 L93.8734 209.2620 "/>
<path d="M73.0821 209.2624 L73.0821 191.9355 "/>
<path d="M80.0125 195.4011 L90.4082 195.4011 "/>
<path d="M80.0125 205.7968 L90.4082 205.7968 "/>
<path d="M80.0125 205.7972 L80.0125 195.4008 "/>
<path d="M90.4082 193.6685 L90.4082 207.5294 "/>
<path d="M90.4082 193.6685 L102.5400 193.6685 "/>
<path d="M90.4082 207.5294 L102.5369 207.5294 "/>
<path d="M92.1412 195.4011 L100.8039 195.4011 "/>
<path d="M92.1412 205.7968 L100.8039 205.7968 "/>
<path d="M92.1412 205.8003 L92.1412 195.3976 "/>
<path d="M93.8734 193.6685 L93.8734 191.9359 "/>
<path d="M93.8734 209.2620 L93.8734 207.5294 "/>
<path d="M100.8039 205.8003 L100.8039 195.3976 "/>
<path d="M102.5369 193.6685 L102.5369 207.5294 "/>
<path d="M149.3813 14.3462 L158.1830 14.3462 "/>
<path d="M149.3813 31.9496 L149.3813 14.3462 "/>
<path d="M158.1830 14.3462 L158.1830 31.9496 "/>
<path d="M158.1830 31.9496 L149.3813 31.9496 "/>
<path d="M158.1830 14.3462 L166.9846 14.3462 "/>
<path d="M158.1830 31.9496 L158.1830 14.3462 "/>
<path d="M166.9846 14.3462 L166.9846 31.9496 "/>
<path d="M166.9846 31.9496 L158.1830 31.9496 "/>
<path d="M41.8950 174.7726 L73.0821 174.7726 "/>
<path d="M41.8950 192.0991 L41.8950 174.7722 "/>
<path d="M43.6272 176.5052 L71.3491 176.5052 "/>
<path d="M43.6272 190.3661 L43.6272 176.5052 "/>
<path d="M43.6272 190.3661 L71.3491 190.3661 "/>
<path d="M71.3491 176.5052 L71.3491 190.3661 "/>
<path d="M71.3491 179.9704 L73.0821 179.9704 "/>
<path d="M71.3491 186.9009 L73.0821 186.9009 "/>
<path d="M73.0821 174.7726 L93.8734 174.7726 "/>
<path d="M73.0821 192.0987 L41.8950 192.0987 "/>
<path d="M73.0821 192.0987 L93.8734 192.0987 "/>
<path d="M73.0821 192.0991 L73.0821 174.7722 "/>
<path d="M80.0125 178.2378 L90.4082 178.2378 "/>
<path d="M80.0125 188.6335 L90.4082 188.6335 "/>
<path d="M80.0125 188.6339 L80.0125 178.2375 "/>
<path d="M90.4082 176.5052 L90.4082 190.3661 "/>
<path d="M90.4082 176.5052 L102.5400 176.5052 "/>
<path d="M90.4082 190.3661 L102.5369 190.3661 "/>
<path d="M92.1412 178.2378 L100.8039 178.2378 "/>
<path d="M92.1412 188.6335 L100.8039 188.6335 "/>
<path d="M92.1412 188.6370 L92.1412 178.2344 "/>
<path d="M93.8734 176.5052 L93.8734 174.7726 "/>
<path d="M93.8734 192.0987 L93.8734 190.3661 "/>
<path d="M100.8039 188.6370 L100.8039 178.2344 "/>
<path d="M102.5369 176.5052 L102.5369 190.3661 "/>
</g>
<g style="fill:none;  stroke:#848484; stroke-width:0.4158; stroke-opacity:1;  stroke-linecap:round; stroke-linejoin:round;">
<path d="M176.7012 4.6990 L203.0369 4.6990 "/>
<path d="M176.7012 6.7781 L176.7012 4.6990 "/>
<path d="M176.7012 13.3621 L176.7012 22.3717 "/>
<path d="M176.7012 28.9556 L176.7012 31.0694 "/>
<path d="M176.7012 31.0694 L203.0716 31.0694 "/>
<path d="M203.0369 4.6990 L203.0369 6.4316 "/>
<path d="M203.0369 4.6990 L203.0369 6.4316 "/>
<path d="M203.0369 13.3621 L203.0369 22.3717 "/>
<path d="M203.0716 31.0694 L203.0741 28.9671 "/>
</g>
<g style="fill:none;  stroke:#848484; stroke-width:0.4401; stroke-opacity:1;  stroke-linecap:round; stroke-linejoin:round;">
<circle cx="189.8690" cy="17.8669" r="8.8017"/> 
</g>
<g style="fill:none;  stroke:#848484; stroke-width:0.4158; stroke-opacity:1;  stroke-linecap:round; stroke-linejoin:round;">
<path d="M171.4201 176.7720 L197.7559 176.7720 "/>
<path d="M171.4201 178.8512 L171.4201 176.7720 "/>
<path d="M171.4201 185.4351 L171.4201 194.4447 "/>
<path d="M171.4201 201.0286 L171.4201 203.1424 "/>
<path d="M171.4201 203.1424 L197.7906 203.1424 "/>
<path d="M197.7559 176.7720 L197.7559 178.5046 "/>
<path d="M197.7559 176.7720 L197.7559 178.5046 "/>
<path d="M197.7559 185.4351 L197.7559 194.4447 "/>
<path d="M197.7906 203.1424 L197.7931 201.0402 "/>
</g>
<g style="fill:none;  stroke:#848484; stroke-width:0.4401; stroke-opacity:1;  stroke-linecap:round; stroke-linejoin:round;">
<circle cx="184.5880" cy="189.9399" r="8.8017"/> 
</g>
<g style="fill:none;  stroke:#848484; stroke-width:0.5198; stroke-opacity:1;  stroke-linecap:round; stroke-linejoin:round;">
<path d="M140.5796 14.3462 L149.3813 14.3462 "/>
<path d="M140.5796 31.9496 L140.5796 14.3462 "/>
<path d="M149.3813 14.3462 L149.3813 31.9496 "/>
<path d="M149.3813 31.9496 L140.5796 31.9496 "/>
<path d="M147.4449 178.9378 L165.0483 178.9378 "/>
<path d="M147.4449 205.3429 L147.4449 178.9378 "/>
<path d="M165.0483 178.9378 L165.0483 205.3429 "/>
<path d="M165.0483 205.3429 L147.4449 205.3429 "/>
</g>
<g style="fill:none;  stroke:#848484; stroke-width:0.3465; stroke-opacity:1;  stroke-linecap:round; stroke-linejoin:round;">
<circle cx="271.7248" cy="16.9867" r="10.3948"/> 
<circle cx="25.2774" cy="193.0205" r="10.3948"/> 
<circle cx="271.7248" cy="193.0205" r="10.3948"/> 
<circle cx="25.2774" cy="16.9867" r="10.3948"/> 
<path d="M241.5024 69.5674 L248.4329 69.5674 "/>
<path d="M241.5024 73.8990 L241.5024 69.5674 "/>
<path d="M248.4329 69.5674 L248.4329 73.8990 "/>
<path d="M248.4329 73.8990 L241.5024 73.8990 "/>
<path d="M241.4144 136.2843 L248.3448 136.2843 "/>
<path d="M241.4144 140.6158 L241.4144 136.2843 "/>
<path d="M248.3448 136.2843 L248.3448 140.6158 "/>
<path d="M248.3448 140.6158 L241.4144 140.6158 "/>
</g> 
<svg:g><svg:g><svg:title>SVG Image created as LION2CELL02-Edge_Cuts.svg date 2024/08/08 11:34:52 </svg:title>
  <svg:desc>Image generated by PCBNEW </svg:desc>
<svg:g style="fill:#C2C200; fill-opacity:1.0000;stroke:#C2C200; stroke-opacity:1.0000; stroke-linecap:round; stroke-linejoin:round;" transform="translate(0 0) scale(1 1)">
<svg:path style="fill:none;  stroke:#C2C200; stroke-width:0.5198; stroke-opacity:1;  stroke-linecap:round; stroke-linejoin:round;fill:none" d="M 8.5542,0.2635 288.4480,0.2635 288.4480,209.7437 8.5542,209.7437 Z"/> 
</svg:g> 
</svg:g></svg:g></svg>
