<?xml version='1.0' encoding='ASCII' standalone='yes'?>
<svg xmlns:svg="http://www.w3.org/2000/svg" xmlns="http://www.w3.org/2000/svg" xmlns:xlink="http://www.w3.org/1999/xlink" version="1.1" width="297.0022mm" height="210.0072mm" viewBox="0.0000 0.0000 297.0022 210.0072">
<title>SVG Image created as LION2CELL02-F_Fab.svg date 2024/07/21 10:25:09 </title>
  <desc>Image generated by PCBNEW </desc>
<g style="fill:#848484; fill-opacity:1.0000;stroke:#848484; stroke-opacity:1.0000; stroke-linecap:round; stroke-linejoin:round;" transform="translate(0 0) scale(1 1)">
</g>
<g style="fill:none;  stroke:#848484; stroke-width:1.0562; stroke-opacity:1;  stroke-linecap:round; stroke-linejoin:round;">
<g transform="rotate(-90.000000 85.3930 26.6686)">
<text x="85.3930" y="29.3091" textLength="11.1656" font-size="7.0414" lengthAdjust="spacingAndGlyphs" text-anchor="middle" opacity="0">J2</text>
</g>
<g class="stroked-text"><desc>J2</desc>
<path d="M82.5001 28.4289 L86.2723 28.4289 "/>
<path d="M86.2723 28.4289 L87.0267 28.6804 "/>
<path d="M87.0267 28.6804 L87.5297 29.1833 "/>
<path d="M87.5297 29.1833 L87.7812 29.9378 "/>
<path d="M87.7812 29.9378 L87.7812 30.4407 "/>
<path d="M83.0031 26.1656 L82.7516 25.9141 "/>
<path d="M82.7516 25.9141 L82.5001 25.4112 "/>
<path d="M82.5001 25.4112 L82.5001 24.1538 "/>
<path d="M82.5001 24.1538 L82.7516 23.6508 "/>
<path d="M82.7516 23.6508 L83.0031 23.3994 "/>
<path d="M83.0031 23.3994 L83.5061 23.1479 "/>
<path d="M83.5061 23.1479 L84.0090 23.1479 "/>
<path d="M84.0090 23.1479 L84.7634 23.3994 "/>
<path d="M84.7634 23.3994 L87.7812 26.4171 "/>
<path d="M87.7812 26.4171 L87.7812 23.1479 "/>
</g><g transform="rotate(-90.000000 85.3930 9.3292)">
<text x="85.3930" y="11.9697" textLength="11.1656" font-size="7.0414" lengthAdjust="spacingAndGlyphs" text-anchor="middle" opacity="0">J3</text>
</g>
<g class="stroked-text"><desc>J3</desc>
<path d="M82.5001 11.0896 L86.2723 11.0896 "/>
<path d="M86.2723 11.0896 L87.0267 11.3410 "/>
<path d="M87.0267 11.3410 L87.5297 11.8440 "/>
<path d="M87.5297 11.8440 L87.7812 12.5984 "/>
<path d="M87.7812 12.5984 L87.7812 13.1014 "/>
<path d="M82.5001 9.0778 L82.5001 5.8086 "/>
<path d="M82.5001 5.8086 L84.5120 7.5689 "/>
<path d="M84.5120 7.5689 L84.5120 6.8145 "/>
<path d="M84.5120 6.8145 L84.7634 6.3115 "/>
<path d="M84.7634 6.3115 L85.0149 6.0600 "/>
<path d="M85.0149 6.0600 L85.5179 5.8086 "/>
<path d="M85.5179 5.8086 L86.7752 5.8086 "/>
<path d="M86.7752 5.8086 L87.2782 6.0600 "/>
<path d="M87.2782 6.0600 L87.5297 6.3115 "/>
<path d="M87.5297 6.3115 L87.7812 6.8145 "/>
<path d="M87.7812 6.8145 L87.7812 8.3233 "/>
<path d="M87.7812 8.3233 L87.5297 8.8263 "/>
<path d="M87.5297 8.8263 L87.2782 9.0778 "/>
</g><g transform="rotate(-90.000000 47.5017 200.5990)">
<text x="47.5017" y="203.2395" textLength="11.1656" font-size="7.0414" lengthAdjust="spacingAndGlyphs" text-anchor="middle" opacity="0">J9</text>
</g>
<g class="stroked-text"><desc>J9</desc>
<path d="M44.6089 202.3593 L48.3810 202.3593 "/>
<path d="M48.3810 202.3593 L49.1355 202.6108 "/>
<path d="M49.1355 202.6108 L49.6384 203.1137 "/>
<path d="M49.6384 203.1137 L49.8899 203.8682 "/>
<path d="M49.8899 203.8682 L49.8899 204.3711 "/>
<path d="M49.8899 199.5931 L49.8899 198.5871 "/>
<path d="M49.8899 198.5871 L49.6384 198.0842 "/>
<path d="M49.6384 198.0842 L49.3869 197.8327 "/>
<path d="M49.3869 197.8327 L48.6325 197.3298 "/>
<path d="M48.6325 197.3298 L47.6266 197.0783 "/>
<path d="M47.6266 197.0783 L45.6148 197.0783 "/>
<path d="M45.6148 197.0783 L45.1118 197.3298 "/>
<path d="M45.1118 197.3298 L44.8603 197.5812 "/>
<path d="M44.8603 197.5812 L44.6089 198.0842 "/>
<path d="M44.6089 198.0842 L44.6089 199.0901 "/>
<path d="M44.6089 199.0901 L44.8603 199.5931 "/>
<path d="M44.8603 199.5931 L45.1118 199.8445 "/>
<path d="M45.1118 199.8445 L45.6148 200.0960 "/>
<path d="M45.6148 200.0960 L46.8722 200.0960 "/>
<path d="M46.8722 200.0960 L47.3751 199.8445 "/>
<path d="M47.3751 199.8445 L47.6266 199.5931 "/>
<path d="M47.6266 199.5931 L47.8781 199.0901 "/>
<path d="M47.8781 199.0901 L47.8781 198.0842 "/>
<path d="M47.8781 198.0842 L47.6266 197.5812 "/>
<path d="M47.6266 197.5812 L47.3751 197.3298 "/>
<path d="M47.3751 197.3298 L46.8722 197.0783 "/>
</g><g transform="rotate(-90.000000 47.5017 183.4357)">
<text x="47.5017" y="186.0762" textLength="11.1656" font-size="7.0414" lengthAdjust="spacingAndGlyphs" text-anchor="middle" opacity="0">J8</text>
</g>
<g class="stroked-text"><desc>J8</desc>
<path d="M44.6089 185.1960 L48.3810 185.1960 "/>
<path d="M48.3810 185.1960 L49.1355 185.4475 "/>
<path d="M49.1355 185.4475 L49.6384 185.9504 "/>
<path d="M49.6384 185.9504 L49.8899 186.7049 "/>
<path d="M49.8899 186.7049 L49.8899 187.2078 "/>
<path d="M46.8722 181.9268 L46.6207 182.4298 "/>
<path d="M46.6207 182.4298 L46.3692 182.6812 "/>
<path d="M46.3692 182.6812 L45.8663 182.9327 "/>
<path d="M45.8663 182.9327 L45.6148 182.9327 "/>
<path d="M45.6148 182.9327 L45.1118 182.6812 "/>
<path d="M45.1118 182.6812 L44.8603 182.4298 "/>
<path d="M44.8603 182.4298 L44.6089 181.9268 "/>
<path d="M44.6089 181.9268 L44.6089 180.9209 "/>
<path d="M44.6089 180.9209 L44.8603 180.4179 "/>
<path d="M44.8603 180.4179 L45.1118 180.1665 "/>
<path d="M45.1118 180.1665 L45.6148 179.9150 "/>
<path d="M45.6148 179.9150 L45.8663 179.9150 "/>
<path d="M45.8663 179.9150 L46.3692 180.1665 "/>
<path d="M46.3692 180.1665 L46.6207 180.4179 "/>
<path d="M46.6207 180.4179 L46.8722 180.9209 "/>
<path d="M46.8722 180.9209 L46.8722 181.9268 "/>
<path d="M46.8722 181.9268 L47.1236 182.4298 "/>
<path d="M47.1236 182.4298 L47.3751 182.6812 "/>
<path d="M47.3751 182.6812 L47.8781 182.9327 "/>
<path d="M47.8781 182.9327 L48.8840 182.9327 "/>
<path d="M48.8840 182.9327 L49.3869 182.6812 "/>
<path d="M49.3869 182.6812 L49.6384 182.4298 "/>
<path d="M49.6384 182.4298 L49.8899 181.9268 "/>
<path d="M49.8899 181.9268 L49.8899 180.9209 "/>
<path d="M49.8899 180.9209 L49.6384 180.4179 "/>
<path d="M49.6384 180.4179 L49.3869 180.1665 "/>
<path d="M49.3869 180.1665 L48.8840 179.9150 "/>
<path d="M48.8840 179.9150 L47.8781 179.9150 "/>
<path d="M47.8781 179.9150 L47.3751 180.1665 "/>
<path d="M47.3751 180.1665 L47.1236 180.4179 "/>
<path d="M47.1236 180.4179 L46.8722 180.9209 "/>
</g></g>
<g style="fill:none;  stroke:#848484; stroke-width:0.7041; stroke-opacity:1;  stroke-linecap:round; stroke-linejoin:round;">
<text x="185.9083" y="16.1065" textLength="12.1379" font-size="4.6942" lengthAdjust="spacingAndGlyphs" text-anchor="middle" opacity="0">SW1</text>
<g class="stroked-text"><desc>SW1</desc>
<path d="M181.2140 15.7707 L181.7170 15.9383 "/>
<path d="M181.7170 15.9383 L182.5553 15.9383 "/>
<path d="M182.5553 15.9383 L182.8906 15.7707 "/>
<path d="M182.8906 15.7707 L183.0582 15.6030 "/>
<path d="M183.0582 15.6030 L183.2259 15.2677 "/>
<path d="M183.2259 15.2677 L183.2259 14.9324 "/>
<path d="M183.2259 14.9324 L183.0582 14.5971 "/>
<path d="M183.0582 14.5971 L182.8906 14.4294 "/>
<path d="M182.8906 14.4294 L182.5553 14.2618 "/>
<path d="M182.5553 14.2618 L181.8847 14.0941 "/>
<path d="M181.8847 14.0941 L181.5493 13.9265 "/>
<path d="M181.5493 13.9265 L181.3817 13.7588 "/>
<path d="M181.3817 13.7588 L181.2140 13.4235 "/>
<path d="M181.2140 13.4235 L181.2140 13.0882 "/>
<path d="M181.2140 13.0882 L181.3817 12.7529 "/>
<path d="M181.3817 12.7529 L181.5493 12.5853 "/>
<path d="M181.5493 12.5853 L181.8847 12.4176 "/>
<path d="M181.8847 12.4176 L182.7229 12.4176 "/>
<path d="M182.7229 12.4176 L183.2259 12.5853 "/>
<path d="M184.3994 12.4176 L185.2377 15.9383 "/>
<path d="M185.2377 15.9383 L185.9083 13.4235 "/>
<path d="M185.9083 13.4235 L186.5789 15.9383 "/>
<path d="M186.5789 15.9383 L187.4171 12.4176 "/>
<path d="M190.6025 15.9383 L188.5907 15.9383 "/>
<path d="M189.5966 15.9383 L189.5966 12.4176 "/>
<path d="M189.5966 12.4176 L189.2613 12.9206 "/>
<path d="M189.2613 12.9206 L188.9260 13.2559 "/>
<path d="M188.9260 13.2559 L188.5907 13.4235 "/>
</g><g transform="rotate(-90.000000 138.3792 193.0205)">
<text x="138.3792" y="194.7808" textLength="12.1379" font-size="4.6942" lengthAdjust="spacingAndGlyphs" text-anchor="middle" opacity="0">SW2</text>
</g>
<g class="stroked-text"><desc>SW2</desc>
<path d="M139.8036 197.7147 L139.9713 197.2118 "/>
<path d="M139.9713 197.2118 L139.9713 196.3735 "/>
<path d="M139.9713 196.3735 L139.8036 196.0382 "/>
<path d="M139.8036 196.0382 L139.6360 195.8706 "/>
<path d="M139.6360 195.8706 L139.3007 195.7029 "/>
<path d="M139.3007 195.7029 L138.9654 195.7029 "/>
<path d="M138.9654 195.7029 L138.6301 195.8706 "/>
<path d="M138.6301 195.8706 L138.4624 196.0382 "/>
<path d="M138.4624 196.0382 L138.2948 196.3735 "/>
<path d="M138.2948 196.3735 L138.1271 197.0441 "/>
<path d="M138.1271 197.0441 L137.9595 197.3794 "/>
<path d="M137.9595 197.3794 L137.7918 197.5471 "/>
<path d="M137.7918 197.5471 L137.4565 197.7147 "/>
<path d="M137.4565 197.7147 L137.1212 197.7147 "/>
<path d="M137.1212 197.7147 L136.7859 197.5471 "/>
<path d="M136.7859 197.5471 L136.6182 197.3794 "/>
<path d="M136.6182 197.3794 L136.4506 197.0441 "/>
<path d="M136.4506 197.0441 L136.4506 196.2059 "/>
<path d="M136.4506 196.2059 L136.6182 195.7029 "/>
<path d="M136.4506 194.5294 L139.9713 193.6911 "/>
<path d="M139.9713 193.6911 L137.4565 193.0205 "/>
<path d="M137.4565 193.0205 L139.9713 192.3499 "/>
<path d="M139.9713 192.3499 L136.4506 191.5116 "/>
<path d="M136.7859 190.3381 L136.6182 190.1704 "/>
<path d="M136.6182 190.1704 L136.4506 189.8351 "/>
<path d="M136.4506 189.8351 L136.4506 188.9969 "/>
<path d="M136.4506 188.9969 L136.6182 188.6616 "/>
<path d="M136.6182 188.6616 L136.7859 188.4939 "/>
<path d="M136.7859 188.4939 L137.1212 188.3263 "/>
<path d="M137.1212 188.3263 L137.4565 188.3263 "/>
<path d="M137.4565 188.3263 L137.9595 188.4939 "/>
<path d="M137.9595 188.4939 L139.9713 190.5057 "/>
<path d="M139.9713 190.5057 L139.9713 188.3263 "/>
</g></g>
<g style="fill:none;  stroke:#848484; stroke-width:0.5198; stroke-opacity:1;  stroke-linecap:round; stroke-linejoin:round;">
<text x="244.9676" y="79.1835" textLength="10.2719" font-size="4.6203" lengthAdjust="spacingAndGlyphs" text-anchor="middle" opacity="0">10k</text>
<g class="stroked-text"><desc>10k</desc>
<path d="M242.9050 79.0269 L240.9248 79.0269 "/>
<path d="M241.9149 79.0269 L241.9149 75.5617 "/>
<path d="M241.9149 75.5617 L241.5849 76.0567 "/>
<path d="M241.5849 76.0567 L241.2549 76.3867 "/>
<path d="M241.2549 76.3867 L240.9248 76.5517 "/>
<path d="M245.0501 75.5617 L245.3801 75.5617 "/>
<path d="M245.3801 75.5617 L245.7102 75.7267 "/>
<path d="M245.7102 75.7267 L245.8752 75.8917 "/>
<path d="M245.8752 75.8917 L246.0402 76.2217 "/>
<path d="M246.0402 76.2217 L246.2052 76.8818 "/>
<path d="M246.2052 76.8818 L246.2052 77.7068 "/>
<path d="M246.2052 77.7068 L246.0402 78.3669 "/>
<path d="M246.0402 78.3669 L245.8752 78.6969 "/>
<path d="M245.8752 78.6969 L245.7102 78.8619 "/>
<path d="M245.7102 78.8619 L245.3801 79.0269 "/>
<path d="M245.3801 79.0269 L245.0501 79.0269 "/>
<path d="M245.0501 79.0269 L244.7201 78.8619 "/>
<path d="M244.7201 78.8619 L244.5551 78.6969 "/>
<path d="M244.5551 78.6969 L244.3901 78.3669 "/>
<path d="M244.3901 78.3669 L244.2251 77.7068 "/>
<path d="M244.2251 77.7068 L244.2251 76.8818 "/>
<path d="M244.2251 76.8818 L244.3901 76.2217 "/>
<path d="M244.3901 76.2217 L244.5551 75.8917 "/>
<path d="M244.5551 75.8917 L244.7201 75.7267 "/>
<path d="M244.7201 75.7267 L245.0501 75.5617 "/>
<path d="M247.6903 79.0269 L247.6903 75.5617 "/>
<path d="M248.0203 77.7068 L249.0104 79.0269 "/>
<path d="M249.0104 76.7167 L247.6903 78.0368 "/>
</g></g>
<g style="fill:none;  stroke:#848484; stroke-width:0.2772; stroke-opacity:1;  stroke-linecap:round; stroke-linejoin:round;">
<text x="244.9676" y="72.5995" textLength="5.2705" font-size="2.3102" lengthAdjust="spacingAndGlyphs" text-anchor="middle" opacity="0">TH2</text>
<g class="stroked-text"><desc>TH2</desc>
<path d="M242.7400 70.7877 L243.7300 70.7877 "/>
<path d="M243.2350 72.5203 L243.2350 70.7877 "/>
<path d="M244.3076 72.5203 L244.3076 70.7877 "/>
<path d="M244.3076 71.6128 L245.2976 71.6128 "/>
<path d="M245.2976 72.5203 L245.2976 70.7877 "/>
<path d="M246.0402 70.9527 L246.1227 70.8702 "/>
<path d="M246.1227 70.8702 L246.2877 70.7877 "/>
<path d="M246.2877 70.7877 L246.7002 70.7877 "/>
<path d="M246.7002 70.7877 L246.8652 70.8702 "/>
<path d="M246.8652 70.8702 L246.9478 70.9527 "/>
<path d="M246.9478 70.9527 L247.0303 71.1177 "/>
<path d="M247.0303 71.1177 L247.0303 71.2828 "/>
<path d="M247.0303 71.2828 L246.9478 71.5303 "/>
<path d="M246.9478 71.5303 L245.9577 72.5203 "/>
<path d="M245.9577 72.5203 L247.0303 72.5203 "/>
</g></g>
<g style="fill:none;  stroke:#848484; stroke-width:0.5198; stroke-opacity:1;  stroke-linecap:round; stroke-linejoin:round;">
<text x="244.8796" y="134.4650" textLength="10.2719" font-size="4.6203" lengthAdjust="spacingAndGlyphs" text-anchor="middle" opacity="0">10k</text>
<g class="stroked-text"><desc>10k</desc>
<path d="M242.8170 134.3084 L240.8368 134.3084 "/>
<path d="M241.8269 134.3084 L241.8269 130.8432 "/>
<path d="M241.8269 130.8432 L241.4969 131.3382 "/>
<path d="M241.4969 131.3382 L241.1669 131.6683 "/>
<path d="M241.1669 131.6683 L240.8368 131.8333 "/>
<path d="M244.9621 130.8432 L245.2921 130.8432 "/>
<path d="M245.2921 130.8432 L245.6222 131.0082 "/>
<path d="M245.6222 131.0082 L245.7872 131.1732 "/>
<path d="M245.7872 131.1732 L245.9522 131.5033 "/>
<path d="M245.9522 131.5033 L246.1172 132.1633 "/>
<path d="M246.1172 132.1633 L246.1172 132.9884 "/>
<path d="M246.1172 132.9884 L245.9522 133.6484 "/>
<path d="M245.9522 133.6484 L245.7872 133.9784 "/>
<path d="M245.7872 133.9784 L245.6222 134.1434 "/>
<path d="M245.6222 134.1434 L245.2921 134.3084 "/>
<path d="M245.2921 134.3084 L244.9621 134.3084 "/>
<path d="M244.9621 134.3084 L244.6321 134.1434 "/>
<path d="M244.6321 134.1434 L244.4671 133.9784 "/>
<path d="M244.4671 133.9784 L244.3021 133.6484 "/>
<path d="M244.3021 133.6484 L244.1371 132.9884 "/>
<path d="M244.1371 132.9884 L244.1371 132.1633 "/>
<path d="M244.1371 132.1633 L244.3021 131.5033 "/>
<path d="M244.3021 131.5033 L244.4671 131.1732 "/>
<path d="M244.4671 131.1732 L244.6321 131.0082 "/>
<path d="M244.6321 131.0082 L244.9621 130.8432 "/>
<path d="M247.6023 134.3084 L247.6023 130.8432 "/>
<path d="M247.9323 132.9884 L248.9224 134.3084 "/>
<path d="M248.9224 131.9983 L247.6023 133.3184 "/>
</g></g>
<g style="fill:none;  stroke:#848484; stroke-width:0.2772; stroke-opacity:1;  stroke-linecap:round; stroke-linejoin:round;">
<text x="244.8796" y="139.3163" textLength="5.2705" font-size="2.3102" lengthAdjust="spacingAndGlyphs" text-anchor="middle" opacity="0">TH1</text>
<g class="stroked-text"><desc>TH1</desc>
<path d="M242.6520 137.5045 L243.6420 137.5045 "/>
<path d="M243.1470 139.2371 L243.1470 137.5045 "/>
<path d="M244.2196 139.2371 L244.2196 137.5045 "/>
<path d="M244.2196 138.3296 L245.2096 138.3296 "/>
<path d="M245.2096 139.2371 L245.2096 137.5045 "/>
<path d="M246.9422 139.2371 L245.9522 139.2371 "/>
<path d="M246.4472 139.2371 L246.4472 137.5045 "/>
<path d="M246.4472 137.5045 L246.2822 137.7520 "/>
<path d="M246.2822 137.7520 L246.1172 137.9171 "/>
<path d="M246.1172 137.9171 L245.9522 137.9996 "/>
</g></g>
<g style="fill:none;  stroke:#848484; stroke-width:0.5198; stroke-opacity:1;  stroke-linecap:round; stroke-linejoin:round;">
<g transform="rotate(-90.000000 159.6792 204.0226)">
<text x="159.6792" y="205.7552" transform="scale(-1 1) translate(-319.358493 0)" textLength="4.3315" font-size="4.6203" lengthAdjust="spacingAndGlyphs" text-anchor="middle" opacity="0">K</text>
</g>
<g class="stroked-text"><desc>K</desc>
<path d="M161.2553 203.1150 L157.7901 203.1150 "/>
<path d="M161.2553 205.0952 L159.2752 203.6101 "/>
<path d="M157.7901 205.0952 L159.7702 203.1150 "/>
</g><g transform="rotate(-270.000000 111.7981 185.5391)">
<text x="111.7981" y="187.2717" transform="scale(-1 1) translate(-223.596109 0)" textLength="4.3315" font-size="4.6203" lengthAdjust="spacingAndGlyphs" text-anchor="middle" opacity="0">K</text>
</g>
<g class="stroked-text"><desc>K</desc>
<path d="M110.2220 186.4466 L113.6872 186.4466 "/>
<path d="M110.2220 184.4665 L112.2021 185.9516 "/>
<path d="M113.6872 184.4665 L111.7071 186.4466 "/>
</g><g transform="rotate(-270.000000 169.8892 189.9399)">
<text x="169.8892" y="191.6725" transform="scale(-1 1) translate(-339.778413 0)" textLength="4.3315" font-size="4.6203" lengthAdjust="spacingAndGlyphs" text-anchor="middle" opacity="0">K</text>
</g>
<g class="stroked-text"><desc>K</desc>
<path d="M168.3131 190.8475 L171.7784 190.8475 "/>
<path d="M168.3131 188.8673 L170.2933 190.3524 "/>
<path d="M171.7784 188.8673 L169.7983 190.8475 "/>
</g><g transform="rotate(-90.000000 191.8054 204.0226)">
<text x="191.8054" y="205.7552" transform="scale(-1 1) translate(-383.610828 0)" textLength="4.3315" font-size="4.6203" lengthAdjust="spacingAndGlyphs" text-anchor="middle" opacity="0">K</text>
</g>
<g class="stroked-text"><desc>K</desc>
<path d="M193.3815 203.1150 L189.9162 203.1150 "/>
<path d="M193.3815 205.0952 L191.4013 203.6101 "/>
<path d="M189.9162 205.0952 L191.8964 203.1150 "/>
</g><g transform="rotate(-90.000000 202.3674 204.0226)">
<text x="202.3674" y="205.7552" transform="scale(-1 1) translate(-404.734883 0)" textLength="4.3315" font-size="4.6203" lengthAdjust="spacingAndGlyphs" text-anchor="middle" opacity="0">K</text>
</g>
<g class="stroked-text"><desc>K</desc>
<path d="M203.9435 203.1150 L200.4783 203.1150 "/>
<path d="M203.9435 205.0952 L201.9634 203.6101 "/>
<path d="M200.4783 205.0952 L202.4584 203.1150 "/>
</g><g transform="rotate(-270.000000 180.8913 189.9399)">
<text x="180.8913" y="191.6725" transform="scale(-1 1) translate(-361.782637 0)" textLength="4.3315" font-size="4.6203" lengthAdjust="spacingAndGlyphs" text-anchor="middle" opacity="0">K</text>
</g>
<g class="stroked-text"><desc>K</desc>
<path d="M179.3153 190.8475 L182.7805 190.8475 "/>
<path d="M179.3153 188.8673 L181.2954 190.3524 "/>
<path d="M182.7805 188.8673 L180.8004 190.8475 "/>
</g><path d="M30.3578 33.5990 L30.3578 19.7381 "/>
<path d="M32.0908 21.4672 L32.0908 31.8699 "/>
<path d="M39.0212 18.0055 L39.0212 19.7381 "/>
<path d="M39.0212 33.5990 L39.0212 35.3316 "/>
<path d="M40.7535 21.4672 L40.7535 31.8699 "/>
<path d="M40.7535 21.4707 L32.0908 21.4707 "/>
<path d="M40.7535 31.8664 L32.0908 31.8664 "/>
<path d="M42.4865 19.7381 L30.3578 19.7381 "/>
<path d="M42.4865 33.5990 L30.3547 33.5990 "/>
<path d="M42.4865 33.5990 L42.4865 19.7381 "/>
<path d="M52.8822 21.4704 L52.8822 31.8668 "/>
<path d="M52.8822 21.4707 L42.4865 21.4707 "/>
<path d="M52.8822 31.8664 L42.4865 31.8664 "/>
<path d="M59.8126 18.0051 L59.8126 35.3320 "/>
<path d="M59.8126 18.0055 L39.0212 18.0055 "/>
<path d="M59.8126 18.0055 L90.9997 18.0055 "/>
<path d="M59.8126 35.3316 L39.0212 35.3316 "/>
<path d="M61.5456 23.2033 L59.8126 23.2033 "/>
<path d="M61.5456 30.1338 L59.8126 30.1338 "/>
<path d="M61.5456 33.5990 L61.5456 19.7381 "/>
<path d="M89.2675 19.7381 L61.5456 19.7381 "/>
<path d="M89.2675 19.7381 L89.2675 33.5990 "/>
<path d="M89.2675 33.5990 L61.5456 33.5990 "/>
<path d="M90.9997 18.0051 L90.9997 35.3320 "/>
<path d="M90.9997 35.3316 L59.8126 35.3316 "/>
<path d="M30.3578 16.2597 L30.3578 2.3988 "/>
<path d="M32.0908 4.1279 L32.0908 14.5305 "/>
<path d="M39.0212 0.6662 L39.0212 2.3988 "/>
<path d="M39.0212 16.2597 L39.0212 17.9923 "/>
<path d="M40.7535 4.1279 L40.7535 14.5305 "/>
<path d="M40.7535 4.1314 L32.0908 4.1314 "/>
<path d="M40.7535 14.5271 L32.0908 14.5271 "/>
<path d="M42.4865 2.3988 L30.3578 2.3988 "/>
<path d="M42.4865 16.2597 L30.3547 16.2597 "/>
<path d="M42.4865 16.2597 L42.4865 2.3988 "/>
<path d="M52.8822 4.1310 L52.8822 14.5274 "/>
<path d="M52.8822 4.1314 L42.4865 4.1314 "/>
<path d="M52.8822 14.5271 L42.4865 14.5271 "/>
<path d="M59.8126 0.6658 L59.8126 17.9927 "/>
<path d="M59.8126 0.6662 L39.0212 0.6662 "/>
<path d="M59.8126 0.6662 L90.9997 0.6662 "/>
<path d="M59.8126 17.9923 L39.0212 17.9923 "/>
<path d="M61.5456 5.8640 L59.8126 5.8640 "/>
<path d="M61.5456 12.7945 L59.8126 12.7945 "/>
<path d="M61.5456 16.2597 L61.5456 2.3988 "/>
<path d="M89.2675 2.3988 L61.5456 2.3988 "/>
<path d="M89.2675 2.3988 L89.2675 16.2597 "/>
<path d="M89.2675 16.2597 L61.5456 16.2597 "/>
<path d="M90.9997 0.6658 L90.9997 17.9927 "/>
<path d="M90.9997 17.9923 L59.8126 17.9923 "/>
<path d="M41.8950 191.9359 L73.0821 191.9359 "/>
<path d="M41.8950 209.2624 L41.8950 191.9355 "/>
<path d="M43.6272 193.6685 L71.3491 193.6685 "/>
<path d="M43.6272 207.5294 L43.6272 193.6685 "/>
<path d="M43.6272 207.5294 L71.3491 207.5294 "/>
<path d="M71.3491 193.6685 L71.3491 207.5294 "/>
<path d="M71.3491 197.1337 L73.0821 197.1337 "/>
<path d="M71.3491 204.0642 L73.0821 204.0642 "/>
<path d="M73.0821 191.9359 L93.8734 191.9359 "/>
<path d="M73.0821 209.2620 L41.8950 209.2620 "/>
<path d="M73.0821 209.2620 L93.8734 209.2620 "/>
<path d="M73.0821 209.2624 L73.0821 191.9355 "/>
<path d="M80.0125 195.4011 L90.4082 195.4011 "/>
<path d="M80.0125 205.7968 L90.4082 205.7968 "/>
<path d="M80.0125 205.7972 L80.0125 195.4008 "/>
<path d="M90.4082 193.6685 L90.4082 207.5294 "/>
<path d="M90.4082 193.6685 L102.5400 193.6685 "/>
<path d="M90.4082 207.5294 L102.5369 207.5294 "/>
<path d="M92.1412 195.4011 L100.8039 195.4011 "/>
<path d="M92.1412 205.7968 L100.8039 205.7968 "/>
<path d="M92.1412 205.8003 L92.1412 195.3976 "/>
<path d="M93.8734 193.6685 L93.8734 191.9359 "/>
<path d="M93.8734 209.2620 L93.8734 207.5294 "/>
<path d="M100.8039 205.8003 L100.8039 195.3976 "/>
<path d="M102.5369 193.6685 L102.5369 207.5294 "/>
<path d="M41.8950 174.7726 L73.0821 174.7726 "/>
<path d="M41.8950 192.0991 L41.8950 174.7722 "/>
<path d="M43.6272 176.5052 L71.3491 176.5052 "/>
<path d="M43.6272 190.3661 L43.6272 176.5052 "/>
<path d="M43.6272 190.3661 L71.3491 190.3661 "/>
<path d="M71.3491 176.5052 L71.3491 190.3661 "/>
<path d="M71.3491 179.9704 L73.0821 179.9704 "/>
<path d="M71.3491 186.9009 L73.0821 186.9009 "/>
<path d="M73.0821 174.7726 L93.8734 174.7726 "/>
<path d="M73.0821 192.0987 L41.8950 192.0987 "/>
<path d="M73.0821 192.0987 L93.8734 192.0987 "/>
<path d="M73.0821 192.0991 L73.0821 174.7722 "/>
<path d="M80.0125 178.2378 L90.4082 178.2378 "/>
<path d="M80.0125 188.6335 L90.4082 188.6335 "/>
<path d="M80.0125 188.6339 L80.0125 178.2375 "/>
<path d="M90.4082 176.5052 L90.4082 190.3661 "/>
<path d="M90.4082 176.5052 L102.5400 176.5052 "/>
<path d="M90.4082 190.3661 L102.5369 190.3661 "/>
<path d="M92.1412 178.2378 L100.8039 178.2378 "/>
<path d="M92.1412 188.6335 L100.8039 188.6335 "/>
<path d="M92.1412 188.6370 L92.1412 178.2344 "/>
<path d="M93.8734 176.5052 L93.8734 174.7726 "/>
<path d="M93.8734 192.0987 L93.8734 190.3661 "/>
<path d="M100.8039 188.6370 L100.8039 178.2344 "/>
<path d="M102.5369 176.5052 L102.5369 190.3661 "/>
</g>
<g style="fill:none;  stroke:#848484; stroke-width:0.4158; stroke-opacity:1;  stroke-linecap:round; stroke-linejoin:round;">
<path d="M172.7404 3.8188 L199.0762 3.8188 "/>
<path d="M172.7404 5.8980 L172.7404 3.8188 "/>
<path d="M172.7404 12.4819 L172.7404 21.4915 "/>
<path d="M172.7404 28.0754 L172.7404 30.1892 "/>
<path d="M172.7404 30.1892 L199.1108 30.1892 "/>
<path d="M199.0762 3.8188 L199.0762 5.5514 "/>
<path d="M199.0762 3.8188 L199.0762 5.5514 "/>
<path d="M199.0762 12.4819 L199.0762 21.4915 "/>
<path d="M199.1108 30.1892 L199.1134 28.0870 "/>
</g>
<g style="fill:none;  stroke:#848484; stroke-width:0.4401; stroke-opacity:1;  stroke-linecap:round; stroke-linejoin:round;">
<circle cx="185.9083" cy="16.9867" r="8.8017"/> 
</g>
<g style="fill:none;  stroke:#848484; stroke-width:0.4158; stroke-opacity:1;  stroke-linecap:round; stroke-linejoin:round;">
<path d="M122.5361 179.8526 L122.5361 206.2230 "/>
<path d="M122.5361 206.2230 L124.6384 206.2256 "/>
<path d="M124.6499 179.8526 L122.5361 179.8526 "/>
<path d="M140.2435 179.8526 L131.2338 179.8526 "/>
<path d="M140.2435 206.1884 L131.2338 206.1884 "/>
<path d="M146.8274 179.8526 L148.9065 179.8526 "/>
<path d="M148.9065 179.8526 L148.9065 206.1884 "/>
<path d="M148.9065 206.1884 L147.1739 206.1884 "/>
<path d="M148.9065 206.1884 L147.1739 206.1884 "/>
</g>
<g style="fill:none;  stroke:#848484; stroke-width:0.4401; stroke-opacity:1;  stroke-linecap:round; stroke-linejoin:round;">
<circle cx="135.7387" cy="193.0205" r="8.8017"/> 
</g>
<g style="fill:none;  stroke:#848484; stroke-width:0.3465; stroke-opacity:1;  stroke-linecap:round; stroke-linejoin:round;">
<circle cx="271.7248" cy="16.9867" r="10.3948"/> 
<circle cx="25.2774" cy="193.0205" r="10.3948"/> 
<circle cx="271.7248" cy="193.0205" r="10.3948"/> 
<circle cx="25.2774" cy="16.9867" r="10.3948"/> 
<path d="M241.5024 69.5674 L248.4329 69.5674 "/>
<path d="M241.5024 73.8990 L241.5024 69.5674 "/>
<path d="M248.4329 69.5674 L248.4329 73.8990 "/>
<path d="M248.4329 73.8990 L241.5024 73.8990 "/>
<path d="M241.4144 136.2843 L248.3448 136.2843 "/>
<path d="M241.4144 140.6158 L241.4144 136.2843 "/>
<path d="M248.3448 136.2843 L248.3448 140.6158 "/>
<path d="M248.3448 140.6158 L241.4144 140.6158 "/>
</g> 
<svg:g><svg:g><svg:title>SVG Image created as LION2CELL02-Edge_Cuts.svg date 2024/07/21 10:25:09 </svg:title>
  <svg:desc>Image generated by PCBNEW </svg:desc>
<svg:g style="fill:#C2C200; fill-opacity:1.0000;stroke:#C2C200; stroke-opacity:1.0000; stroke-linecap:round; stroke-linejoin:round;" transform="translate(0 0) scale(1 1)">
<svg:path style="fill:none;  stroke:#C2C200; stroke-width:0.5198; stroke-opacity:1;  stroke-linecap:round; stroke-linejoin:round;fill:none" d="M 8.5542,0.2635 288.4480,0.2635 288.4480,209.7437 8.5542,209.7437 Z"/> 
</svg:g> 
</svg:g></svg:g></svg>
