<?xml version='1.0' encoding='ASCII' standalone='yes'?>
<svg xmlns:svg="http://www.w3.org/2000/svg" xmlns="http://www.w3.org/2000/svg" xmlns:xlink="http://www.w3.org/1999/xlink" version="1.1" width="297.0022mm" height="210.0072mm" viewBox="0.0000 0.0000 297.0022 210.0072">
<title>SVG Image created as LION2CELL02-F_Fab.svg date 2024/07/20 17:56:04 </title>
  <desc>Image generated by PCBNEW </desc>
<g style="fill:#848484; fill-opacity:1.0000;stroke:#848484; stroke-opacity:1.0000; stroke-linecap:round; stroke-linejoin:round;" transform="translate(0 0) scale(1 1)">
</g>
<g style="fill:none;  stroke:#848484; stroke-width:1.0562; stroke-opacity:1;  stroke-linecap:round; stroke-linejoin:round;">
<g transform="rotate(-90.000000 85.3930 26.6686)">
<text x="85.3930" y="29.3091" textLength="11.1656" font-size="7.0414" lengthAdjust="spacingAndGlyphs" text-anchor="middle" opacity="0">J2</text>
</g>
<g class="stroked-text"><desc>J2</desc>
<path d="M82.5001 28.4289 L86.2723 28.4289 "/>
<path d="M86.2723 28.4289 L87.0267 28.6804 "/>
<path d="M87.0267 28.6804 L87.5297 29.1833 "/>
<path d="M87.5297 29.1833 L87.7812 29.9378 "/>
<path d="M87.7812 29.9378 L87.7812 30.4407 "/>
<path d="M83.0031 26.1656 L82.7516 25.9141 "/>
<path d="M82.7516 25.9141 L82.5001 25.4112 "/>
<path d="M82.5001 25.4112 L82.5001 24.1538 "/>
<path d="M82.5001 24.1538 L82.7516 23.6508 "/>
<path d="M82.7516 23.6508 L83.0031 23.3994 "/>
<path d="M83.0031 23.3994 L83.5061 23.1479 "/>
<path d="M83.5061 23.1479 L84.0090 23.1479 "/>
<path d="M84.0090 23.1479 L84.7634 23.3994 "/>
<path d="M84.7634 23.3994 L87.7812 26.4171 "/>
<path d="M87.7812 26.4171 L87.7812 23.1479 "/>
</g><g transform="rotate(-90.000000 85.3930 9.3292)">
<text x="85.3930" y="11.9697" textLength="11.1656" font-size="7.0414" lengthAdjust="spacingAndGlyphs" text-anchor="middle" opacity="0">J3</text>
</g>
<g class="stroked-text"><desc>J3</desc>
<path d="M82.5001 11.0896 L86.2723 11.0896 "/>
<path d="M86.2723 11.0896 L87.0267 11.3410 "/>
<path d="M87.0267 11.3410 L87.5297 11.8440 "/>
<path d="M87.5297 11.8440 L87.7812 12.5984 "/>
<path d="M87.7812 12.5984 L87.7812 13.1014 "/>
<path d="M82.5001 9.0778 L82.5001 5.8086 "/>
<path d="M82.5001 5.8086 L84.5120 7.5689 "/>
<path d="M84.5120 7.5689 L84.5120 6.8145 "/>
<path d="M84.5120 6.8145 L84.7634 6.3115 "/>
<path d="M84.7634 6.3115 L85.0149 6.0600 "/>
<path d="M85.0149 6.0600 L85.5179 5.8086 "/>
<path d="M85.5179 5.8086 L86.7752 5.8086 "/>
<path d="M86.7752 5.8086 L87.2782 6.0600 "/>
<path d="M87.2782 6.0600 L87.5297 6.3115 "/>
<path d="M87.5297 6.3115 L87.7812 6.8145 "/>
<path d="M87.7812 6.8145 L87.7812 8.3233 "/>
<path d="M87.7812 8.3233 L87.5297 8.8263 "/>
<path d="M87.5297 8.8263 L87.2782 9.0778 "/>
</g><g transform="rotate(-90.000000 47.5017 200.5990)">
<text x="47.5017" y="203.2395" textLength="11.1656" font-size="7.0414" lengthAdjust="spacingAndGlyphs" text-anchor="middle" opacity="0">J9</text>
</g>
<g class="stroked-text"><desc>J9</desc>
<path d="M44.6089 202.3593 L48.3810 202.3593 "/>
<path d="M48.3810 202.3593 L49.1355 202.6108 "/>
<path d="M49.1355 202.6108 L49.6384 203.1137 "/>
<path d="M49.6384 203.1137 L49.8899 203.8682 "/>
<path d="M49.8899 203.8682 L49.8899 204.3711 "/>
<path d="M49.8899 199.5931 L49.8899 198.5871 "/>
<path d="M49.8899 198.5871 L49.6384 198.0842 "/>
<path d="M49.6384 198.0842 L49.3869 197.8327 "/>
<path d="M49.3869 197.8327 L48.6325 197.3298 "/>
<path d="M48.6325 197.3298 L47.6266 197.0783 "/>
<path d="M47.6266 197.0783 L45.6148 197.0783 "/>
<path d="M45.6148 197.0783 L45.1118 197.3298 "/>
<path d="M45.1118 197.3298 L44.8603 197.5812 "/>
<path d="M44.8603 197.5812 L44.6089 198.0842 "/>
<path d="M44.6089 198.0842 L44.6089 199.0901 "/>
<path d="M44.6089 199.0901 L44.8603 199.5931 "/>
<path d="M44.8603 199.5931 L45.1118 199.8445 "/>
<path d="M45.1118 199.8445 L45.6148 200.0960 "/>
<path d="M45.6148 200.0960 L46.8722 200.0960 "/>
<path d="M46.8722 200.0960 L47.3751 199.8445 "/>
<path d="M47.3751 199.8445 L47.6266 199.5931 "/>
<path d="M47.6266 199.5931 L47.8781 199.0901 "/>
<path d="M47.8781 199.0901 L47.8781 198.0842 "/>
<path d="M47.8781 198.0842 L47.6266 197.5812 "/>
<path d="M47.6266 197.5812 L47.3751 197.3298 "/>
<path d="M47.3751 197.3298 L46.8722 197.0783 "/>
</g><g transform="rotate(-90.000000 47.5017 183.4357)">
<text x="47.5017" y="186.0762" textLength="11.1656" font-size="7.0414" lengthAdjust="spacingAndGlyphs" text-anchor="middle" opacity="0">J8</text>
</g>
<g class="stroked-text"><desc>J8</desc>
<path d="M44.6089 185.1960 L48.3810 185.1960 "/>
<path d="M48.3810 185.1960 L49.1355 185.4475 "/>
<path d="M49.1355 185.4475 L49.6384 185.9504 "/>
<path d="M49.6384 185.9504 L49.8899 186.7049 "/>
<path d="M49.8899 186.7049 L49.8899 187.2078 "/>
<path d="M46.8722 181.9268 L46.6207 182.4298 "/>
<path d="M46.6207 182.4298 L46.3692 182.6812 "/>
<path d="M46.3692 182.6812 L45.8663 182.9327 "/>
<path d="M45.8663 182.9327 L45.6148 182.9327 "/>
<path d="M45.6148 182.9327 L45.1118 182.6812 "/>
<path d="M45.1118 182.6812 L44.8603 182.4298 "/>
<path d="M44.8603 182.4298 L44.6089 181.9268 "/>
<path d="M44.6089 181.9268 L44.6089 180.9209 "/>
<path d="M44.6089 180.9209 L44.8603 180.4179 "/>
<path d="M44.8603 180.4179 L45.1118 180.1665 "/>
<path d="M45.1118 180.1665 L45.6148 179.9150 "/>
<path d="M45.6148 179.9150 L45.8663 179.9150 "/>
<path d="M45.8663 179.9150 L46.3692 180.1665 "/>
<path d="M46.3692 180.1665 L46.6207 180.4179 "/>
<path d="M46.6207 180.4179 L46.8722 180.9209 "/>
<path d="M46.8722 180.9209 L46.8722 181.9268 "/>
<path d="M46.8722 181.9268 L47.1236 182.4298 "/>
<path d="M47.1236 182.4298 L47.3751 182.6812 "/>
<path d="M47.3751 182.6812 L47.8781 182.9327 "/>
<path d="M47.8781 182.9327 L48.8840 182.9327 "/>
<path d="M48.8840 182.9327 L49.3869 182.6812 "/>
<path d="M49.3869 182.6812 L49.6384 182.4298 "/>
<path d="M49.6384 182.4298 L49.8899 181.9268 "/>
<path d="M49.8899 181.9268 L49.8899 180.9209 "/>
<path d="M49.8899 180.9209 L49.6384 180.4179 "/>
<path d="M49.6384 180.4179 L49.3869 180.1665 "/>
<path d="M49.3869 180.1665 L48.8840 179.9150 "/>
<path d="M48.8840 179.9150 L47.8781 179.9150 "/>
<path d="M47.8781 179.9150 L47.3751 180.1665 "/>
<path d="M47.3751 180.1665 L47.1236 180.4179 "/>
<path d="M47.1236 180.4179 L46.8722 180.9209 "/>
</g></g>
<g style="fill:none;  stroke:#848484; stroke-width:0.3465; stroke-opacity:1;  stroke-linecap:round; stroke-linejoin:round;">
<text x="199.1548" y="248.6777" textLength="25.8308" font-size="3.6962" lengthAdjust="spacingAndGlyphs" text-anchor="middle" opacity="0">SKRTLAE010</text>
<g class="stroked-text"><desc>SKRTLAE010</desc>
<path d="M187.0100 248.4240 L187.4060 248.5560 "/>
<path d="M187.4060 248.5560 L188.0661 248.5560 "/>
<path d="M188.0661 248.5560 L188.3301 248.4240 "/>
<path d="M188.3301 248.4240 L188.4621 248.2920 "/>
<path d="M188.4621 248.2920 L188.5941 248.0280 "/>
<path d="M188.5941 248.0280 L188.5941 247.7640 "/>
<path d="M188.5941 247.7640 L188.4621 247.5000 "/>
<path d="M188.4621 247.5000 L188.3301 247.3679 "/>
<path d="M188.3301 247.3679 L188.0661 247.2359 "/>
<path d="M188.0661 247.2359 L187.5380 247.1039 "/>
<path d="M187.5380 247.1039 L187.2740 246.9719 "/>
<path d="M187.2740 246.9719 L187.1420 246.8399 "/>
<path d="M187.1420 246.8399 L187.0100 246.5759 "/>
<path d="M187.0100 246.5759 L187.0100 246.3119 "/>
<path d="M187.0100 246.3119 L187.1420 246.0479 "/>
<path d="M187.1420 246.0479 L187.2740 245.9158 "/>
<path d="M187.2740 245.9158 L187.5380 245.7838 "/>
<path d="M187.5380 245.7838 L188.1981 245.7838 "/>
<path d="M188.1981 245.7838 L188.5941 245.9158 "/>
<path d="M189.7822 248.5560 L189.7822 245.7838 "/>
<path d="M191.3663 248.5560 L190.1782 246.9719 "/>
<path d="M191.3663 245.7838 L189.7822 247.3679 "/>
<path d="M194.1385 248.5560 L193.2144 247.2359 "/>
<path d="M192.5544 248.5560 L192.5544 245.7838 "/>
<path d="M192.5544 245.7838 L193.6105 245.7838 "/>
<path d="M193.6105 245.7838 L193.8745 245.9158 "/>
<path d="M193.8745 245.9158 L194.0065 246.0479 "/>
<path d="M194.0065 246.0479 L194.1385 246.3119 "/>
<path d="M194.1385 246.3119 L194.1385 246.7079 "/>
<path d="M194.1385 246.7079 L194.0065 246.9719 "/>
<path d="M194.0065 246.9719 L193.8745 247.1039 "/>
<path d="M193.8745 247.1039 L193.6105 247.2359 "/>
<path d="M193.6105 247.2359 L192.5544 247.2359 "/>
<path d="M194.9305 245.7838 L196.5146 245.7838 "/>
<path d="M195.7226 248.5560 L195.7226 245.7838 "/>
<path d="M198.7588 248.5560 L197.4387 248.5560 "/>
<path d="M197.4387 248.5560 L197.4387 245.7838 "/>
<path d="M199.5508 247.7640 L200.8709 247.7640 "/>
<path d="M199.2868 248.5560 L200.2109 245.7838 "/>
<path d="M200.2109 245.7838 L201.1350 248.5560 "/>
<path d="M202.0590 247.1039 L202.9831 247.1039 "/>
<path d="M203.3791 248.5560 L202.0590 248.5560 "/>
<path d="M202.0590 248.5560 L202.0590 245.7838 "/>
<path d="M202.0590 245.7838 L203.3791 245.7838 "/>
<path d="M205.0952 245.7838 L205.3592 245.7838 "/>
<path d="M205.3592 245.7838 L205.6233 245.9158 "/>
<path d="M205.6233 245.9158 L205.7553 246.0479 "/>
<path d="M205.7553 246.0479 L205.8873 246.3119 "/>
<path d="M205.8873 246.3119 L206.0193 246.8399 "/>
<path d="M206.0193 246.8399 L206.0193 247.5000 "/>
<path d="M206.0193 247.5000 L205.8873 248.0280 "/>
<path d="M205.8873 248.0280 L205.7553 248.2920 "/>
<path d="M205.7553 248.2920 L205.6233 248.4240 "/>
<path d="M205.6233 248.4240 L205.3592 248.5560 "/>
<path d="M205.3592 248.5560 L205.0952 248.5560 "/>
<path d="M205.0952 248.5560 L204.8312 248.4240 "/>
<path d="M204.8312 248.4240 L204.6992 248.2920 "/>
<path d="M204.6992 248.2920 L204.5672 248.0280 "/>
<path d="M204.5672 248.0280 L204.4352 247.5000 "/>
<path d="M204.4352 247.5000 L204.4352 246.8399 "/>
<path d="M204.4352 246.8399 L204.5672 246.3119 "/>
<path d="M204.5672 246.3119 L204.6992 246.0479 "/>
<path d="M204.6992 246.0479 L204.8312 245.9158 "/>
<path d="M204.8312 245.9158 L205.0952 245.7838 "/>
<path d="M208.6595 248.5560 L207.0754 248.5560 "/>
<path d="M207.8674 248.5560 L207.8674 245.7838 "/>
<path d="M207.8674 245.7838 L207.6034 246.1799 "/>
<path d="M207.6034 246.1799 L207.3394 246.4439 "/>
<path d="M207.3394 246.4439 L207.0754 246.5759 "/>
<path d="M210.3756 245.7838 L210.6396 245.7838 "/>
<path d="M210.6396 245.7838 L210.9036 245.9158 "/>
<path d="M210.9036 245.9158 L211.0356 246.0479 "/>
<path d="M211.0356 246.0479 L211.1676 246.3119 "/>
<path d="M211.1676 246.3119 L211.2996 246.8399 "/>
<path d="M211.2996 246.8399 L211.2996 247.5000 "/>
<path d="M211.2996 247.5000 L211.1676 248.0280 "/>
<path d="M211.1676 248.0280 L211.0356 248.2920 "/>
<path d="M211.0356 248.2920 L210.9036 248.4240 "/>
<path d="M210.9036 248.4240 L210.6396 248.5560 "/>
<path d="M210.6396 248.5560 L210.3756 248.5560 "/>
<path d="M210.3756 248.5560 L210.1116 248.4240 "/>
<path d="M210.1116 248.4240 L209.9796 248.2920 "/>
<path d="M209.9796 248.2920 L209.8475 248.0280 "/>
<path d="M209.8475 248.0280 L209.7155 247.5000 "/>
<path d="M209.7155 247.5000 L209.7155 246.8399 "/>
<path d="M209.7155 246.8399 L209.8475 246.3119 "/>
<path d="M209.8475 246.3119 L209.9796 246.0479 "/>
<path d="M209.9796 246.0479 L210.1116 245.9158 "/>
<path d="M210.1116 245.9158 L210.3756 245.7838 "/>
</g><g transform="rotate(-90.000000 210.4168 243.9996)">
<text x="210.4168" y="245.3857" textLength="8.9337" font-size="3.6962" lengthAdjust="spacingAndGlyphs" text-anchor="middle" opacity="0">SW1</text>
</g>
<g class="stroked-text"><desc>SW1</desc>
<path d="M211.5493 247.6959 L211.6813 247.2998 "/>
<path d="M211.6813 247.2998 L211.6813 246.6398 "/>
<path d="M211.6813 246.6398 L211.5493 246.3758 "/>
<path d="M211.5493 246.3758 L211.4173 246.2438 "/>
<path d="M211.4173 246.2438 L211.1532 246.1117 "/>
<path d="M211.1532 246.1117 L210.8892 246.1117 "/>
<path d="M210.8892 246.1117 L210.6252 246.2438 "/>
<path d="M210.6252 246.2438 L210.4932 246.3758 "/>
<path d="M210.4932 246.3758 L210.3612 246.6398 "/>
<path d="M210.3612 246.6398 L210.2292 247.1678 "/>
<path d="M210.2292 247.1678 L210.0972 247.4318 "/>
<path d="M210.0972 247.4318 L209.9652 247.5638 "/>
<path d="M209.9652 247.5638 L209.7011 247.6959 "/>
<path d="M209.7011 247.6959 L209.4371 247.6959 "/>
<path d="M209.4371 247.6959 L209.1731 247.5638 "/>
<path d="M209.1731 247.5638 L209.0411 247.4318 "/>
<path d="M209.0411 247.4318 L208.9091 247.1678 "/>
<path d="M208.9091 247.1678 L208.9091 246.5078 "/>
<path d="M208.9091 246.5078 L209.0411 246.1117 "/>
<path d="M208.9091 245.1877 L211.6813 244.5276 "/>
<path d="M211.6813 244.5276 L209.7011 243.9996 "/>
<path d="M209.7011 243.9996 L211.6813 243.4716 "/>
<path d="M211.6813 243.4716 L208.9091 242.8115 "/>
<path d="M211.6813 240.3034 L211.6813 241.8875 "/>
<path d="M211.6813 241.0954 L208.9091 241.0954 "/>
<path d="M208.9091 241.0954 L209.3051 241.3594 "/>
<path d="M209.3051 241.3594 L209.5691 241.6234 "/>
<path d="M209.5691 241.6234 L209.7011 241.8875 "/>
</g><text x="166.3391" y="247.4544" textLength="25.8308" font-size="3.6962" lengthAdjust="spacingAndGlyphs" text-anchor="middle" opacity="0">SKRTLAE010</text>
<g class="stroked-text"><desc>SKRTLAE010</desc>
<path d="M154.1943 247.2008 L154.5903 247.3328 "/>
<path d="M154.5903 247.3328 L155.2503 247.3328 "/>
<path d="M155.2503 247.3328 L155.5143 247.2008 "/>
<path d="M155.5143 247.2008 L155.6464 247.0688 "/>
<path d="M155.6464 247.0688 L155.7784 246.8048 "/>
<path d="M155.7784 246.8048 L155.7784 246.5407 "/>
<path d="M155.7784 246.5407 L155.6464 246.2767 "/>
<path d="M155.6464 246.2767 L155.5143 246.1447 "/>
<path d="M155.5143 246.1447 L155.2503 246.0127 "/>
<path d="M155.2503 246.0127 L154.7223 245.8807 "/>
<path d="M154.7223 245.8807 L154.4583 245.7487 "/>
<path d="M154.4583 245.7487 L154.3263 245.6167 "/>
<path d="M154.3263 245.6167 L154.1943 245.3527 "/>
<path d="M154.1943 245.3527 L154.1943 245.0886 "/>
<path d="M154.1943 245.0886 L154.3263 244.8246 "/>
<path d="M154.3263 244.8246 L154.4583 244.6926 "/>
<path d="M154.4583 244.6926 L154.7223 244.5606 "/>
<path d="M154.7223 244.5606 L155.3823 244.5606 "/>
<path d="M155.3823 244.5606 L155.7784 244.6926 "/>
<path d="M156.9664 247.3328 L156.9664 244.5606 "/>
<path d="M158.5506 247.3328 L157.3625 245.7487 "/>
<path d="M158.5506 244.5606 L156.9664 246.1447 "/>
<path d="M161.3227 247.3328 L160.3987 246.0127 "/>
<path d="M159.7386 247.3328 L159.7386 244.5606 "/>
<path d="M159.7386 244.5606 L160.7947 244.5606 "/>
<path d="M160.7947 244.5606 L161.0587 244.6926 "/>
<path d="M161.0587 244.6926 L161.1907 244.8246 "/>
<path d="M161.1907 244.8246 L161.3227 245.0886 "/>
<path d="M161.3227 245.0886 L161.3227 245.4847 "/>
<path d="M161.3227 245.4847 L161.1907 245.7487 "/>
<path d="M161.1907 245.7487 L161.0587 245.8807 "/>
<path d="M161.0587 245.8807 L160.7947 246.0127 "/>
<path d="M160.7947 246.0127 L159.7386 246.0127 "/>
<path d="M162.1148 244.5606 L163.6989 244.5606 "/>
<path d="M162.9068 247.3328 L162.9068 244.5606 "/>
<path d="M165.9430 247.3328 L164.6230 247.3328 "/>
<path d="M164.6230 247.3328 L164.6230 244.5606 "/>
<path d="M166.7351 246.5407 L168.0552 246.5407 "/>
<path d="M166.4711 247.3328 L167.3951 244.5606 "/>
<path d="M167.3951 244.5606 L168.3192 247.3328 "/>
<path d="M169.2433 245.8807 L170.1673 245.8807 "/>
<path d="M170.5634 247.3328 L169.2433 247.3328 "/>
<path d="M169.2433 247.3328 L169.2433 244.5606 "/>
<path d="M169.2433 244.5606 L170.5634 244.5606 "/>
<path d="M172.2795 244.5606 L172.5435 244.5606 "/>
<path d="M172.5435 244.5606 L172.8075 244.6926 "/>
<path d="M172.8075 244.6926 L172.9395 244.8246 "/>
<path d="M172.9395 244.8246 L173.0715 245.0886 "/>
<path d="M173.0715 245.0886 L173.2035 245.6167 "/>
<path d="M173.2035 245.6167 L173.2035 246.2767 "/>
<path d="M173.2035 246.2767 L173.0715 246.8048 "/>
<path d="M173.0715 246.8048 L172.9395 247.0688 "/>
<path d="M172.9395 247.0688 L172.8075 247.2008 "/>
<path d="M172.8075 247.2008 L172.5435 247.3328 "/>
<path d="M172.5435 247.3328 L172.2795 247.3328 "/>
<path d="M172.2795 247.3328 L172.0155 247.2008 "/>
<path d="M172.0155 247.2008 L171.8834 247.0688 "/>
<path d="M171.8834 247.0688 L171.7514 246.8048 "/>
<path d="M171.7514 246.8048 L171.6194 246.2767 "/>
<path d="M171.6194 246.2767 L171.6194 245.6167 "/>
<path d="M171.6194 245.6167 L171.7514 245.0886 "/>
<path d="M171.7514 245.0886 L171.8834 244.8246 "/>
<path d="M171.8834 244.8246 L172.0155 244.6926 "/>
<path d="M172.0155 244.6926 L172.2795 244.5606 "/>
<path d="M175.8437 247.3328 L174.2596 247.3328 "/>
<path d="M175.0517 247.3328 L175.0517 244.5606 "/>
<path d="M175.0517 244.5606 L174.7876 244.9566 "/>
<path d="M174.7876 244.9566 L174.5236 245.2207 "/>
<path d="M174.5236 245.2207 L174.2596 245.3527 "/>
<path d="M177.5598 244.5606 L177.8238 244.5606 "/>
<path d="M177.8238 244.5606 L178.0879 244.6926 "/>
<path d="M178.0879 244.6926 L178.2199 244.8246 "/>
<path d="M178.2199 244.8246 L178.3519 245.0886 "/>
<path d="M178.3519 245.0886 L178.4839 245.6167 "/>
<path d="M178.4839 245.6167 L178.4839 246.2767 "/>
<path d="M178.4839 246.2767 L178.3519 246.8048 "/>
<path d="M178.3519 246.8048 L178.2199 247.0688 "/>
<path d="M178.2199 247.0688 L178.0879 247.2008 "/>
<path d="M178.0879 247.2008 L177.8238 247.3328 "/>
<path d="M177.8238 247.3328 L177.5598 247.3328 "/>
<path d="M177.5598 247.3328 L177.2958 247.2008 "/>
<path d="M177.2958 247.2008 L177.1638 247.0688 "/>
<path d="M177.1638 247.0688 L177.0318 246.8048 "/>
<path d="M177.0318 246.8048 L176.8998 246.2767 "/>
<path d="M176.8998 246.2767 L176.8998 245.6167 "/>
<path d="M176.8998 245.6167 L177.0318 245.0886 "/>
<path d="M177.0318 245.0886 L177.1638 244.8246 "/>
<path d="M177.1638 244.8246 L177.2958 244.6926 "/>
<path d="M177.2958 244.6926 L177.5598 244.5606 "/>
</g><g transform="rotate(-90.000000 177.6011 242.7764)">
<text x="177.6011" y="244.1625" textLength="8.9337" font-size="3.6962" lengthAdjust="spacingAndGlyphs" text-anchor="middle" opacity="0">SW2</text>
</g>
<g class="stroked-text"><desc>SW2</desc>
<path d="M178.7335 246.4726 L178.8655 246.0766 "/>
<path d="M178.8655 246.0766 L178.8655 245.4166 "/>
<path d="M178.8655 245.4166 L178.7335 245.1525 "/>
<path d="M178.7335 245.1525 L178.6015 245.0205 "/>
<path d="M178.6015 245.0205 L178.3375 244.8885 "/>
<path d="M178.3375 244.8885 L178.0735 244.8885 "/>
<path d="M178.0735 244.8885 L177.8095 245.0205 "/>
<path d="M177.8095 245.0205 L177.6774 245.1525 "/>
<path d="M177.6774 245.1525 L177.5454 245.4166 "/>
<path d="M177.5454 245.4166 L177.4134 245.9446 "/>
<path d="M177.4134 245.9446 L177.2814 246.2086 "/>
<path d="M177.2814 246.2086 L177.1494 246.3406 "/>
<path d="M177.1494 246.3406 L176.8854 246.4726 "/>
<path d="M176.8854 246.4726 L176.6214 246.4726 "/>
<path d="M176.6214 246.4726 L176.3574 246.3406 "/>
<path d="M176.3574 246.3406 L176.2253 246.2086 "/>
<path d="M176.2253 246.2086 L176.0933 245.9446 "/>
<path d="M176.0933 245.9446 L176.0933 245.2845 "/>
<path d="M176.0933 245.2845 L176.2253 244.8885 "/>
<path d="M176.0933 243.9645 L178.8655 243.3044 "/>
<path d="M178.8655 243.3044 L176.8854 242.7764 "/>
<path d="M176.8854 242.7764 L178.8655 242.2483 "/>
<path d="M178.8655 242.2483 L176.0933 241.5883 "/>
<path d="M176.3574 240.6642 L176.2253 240.5322 "/>
<path d="M176.2253 240.5322 L176.0933 240.2682 "/>
<path d="M176.0933 240.2682 L176.0933 239.6082 "/>
<path d="M176.0933 239.6082 L176.2253 239.3441 "/>
<path d="M176.2253 239.3441 L176.3574 239.2121 "/>
<path d="M176.3574 239.2121 L176.6214 239.0801 "/>
<path d="M176.6214 239.0801 L176.8854 239.0801 "/>
<path d="M176.8854 239.0801 L177.2814 239.2121 "/>
<path d="M177.2814 239.2121 L178.8655 240.7962 "/>
<path d="M178.8655 240.7962 L178.8655 239.0801 "/>
</g></g>
<g style="fill:none;  stroke:#848484; stroke-width:0.5198; stroke-opacity:1;  stroke-linecap:round; stroke-linejoin:round;">
<text x="244.9676" y="79.1835" textLength="10.2719" font-size="4.6203" lengthAdjust="spacingAndGlyphs" text-anchor="middle" opacity="0">10k</text>
<g class="stroked-text"><desc>10k</desc>
<path d="M242.9050 79.0269 L240.9248 79.0269 "/>
<path d="M241.9149 79.0269 L241.9149 75.5617 "/>
<path d="M241.9149 75.5617 L241.5849 76.0567 "/>
<path d="M241.5849 76.0567 L241.2549 76.3867 "/>
<path d="M241.2549 76.3867 L240.9248 76.5517 "/>
<path d="M245.0501 75.5617 L245.3801 75.5617 "/>
<path d="M245.3801 75.5617 L245.7102 75.7267 "/>
<path d="M245.7102 75.7267 L245.8752 75.8917 "/>
<path d="M245.8752 75.8917 L246.0402 76.2217 "/>
<path d="M246.0402 76.2217 L246.2052 76.8818 "/>
<path d="M246.2052 76.8818 L246.2052 77.7068 "/>
<path d="M246.2052 77.7068 L246.0402 78.3669 "/>
<path d="M246.0402 78.3669 L245.8752 78.6969 "/>
<path d="M245.8752 78.6969 L245.7102 78.8619 "/>
<path d="M245.7102 78.8619 L245.3801 79.0269 "/>
<path d="M245.3801 79.0269 L245.0501 79.0269 "/>
<path d="M245.0501 79.0269 L244.7201 78.8619 "/>
<path d="M244.7201 78.8619 L244.5551 78.6969 "/>
<path d="M244.5551 78.6969 L244.3901 78.3669 "/>
<path d="M244.3901 78.3669 L244.2251 77.7068 "/>
<path d="M244.2251 77.7068 L244.2251 76.8818 "/>
<path d="M244.2251 76.8818 L244.3901 76.2217 "/>
<path d="M244.3901 76.2217 L244.5551 75.8917 "/>
<path d="M244.5551 75.8917 L244.7201 75.7267 "/>
<path d="M244.7201 75.7267 L245.0501 75.5617 "/>
<path d="M247.6903 79.0269 L247.6903 75.5617 "/>
<path d="M248.0203 77.7068 L249.0104 79.0269 "/>
<path d="M249.0104 76.7167 L247.6903 78.0368 "/>
</g></g>
<g style="fill:none;  stroke:#848484; stroke-width:0.2772; stroke-opacity:1;  stroke-linecap:round; stroke-linejoin:round;">
<text x="244.9676" y="72.5995" textLength="5.2705" font-size="2.3102" lengthAdjust="spacingAndGlyphs" text-anchor="middle" opacity="0">TH2</text>
<g class="stroked-text"><desc>TH2</desc>
<path d="M242.7400 70.7877 L243.7300 70.7877 "/>
<path d="M243.2350 72.5203 L243.2350 70.7877 "/>
<path d="M244.3076 72.5203 L244.3076 70.7877 "/>
<path d="M244.3076 71.6128 L245.2976 71.6128 "/>
<path d="M245.2976 72.5203 L245.2976 70.7877 "/>
<path d="M246.0402 70.9527 L246.1227 70.8702 "/>
<path d="M246.1227 70.8702 L246.2877 70.7877 "/>
<path d="M246.2877 70.7877 L246.7002 70.7877 "/>
<path d="M246.7002 70.7877 L246.8652 70.8702 "/>
<path d="M246.8652 70.8702 L246.9478 70.9527 "/>
<path d="M246.9478 70.9527 L247.0303 71.1177 "/>
<path d="M247.0303 71.1177 L247.0303 71.2828 "/>
<path d="M247.0303 71.2828 L246.9478 71.5303 "/>
<path d="M246.9478 71.5303 L245.9577 72.5203 "/>
<path d="M245.9577 72.5203 L247.0303 72.5203 "/>
</g></g>
<g style="fill:none;  stroke:#848484; stroke-width:0.5198; stroke-opacity:1;  stroke-linecap:round; stroke-linejoin:round;">
<text x="244.8796" y="134.4650" textLength="10.2719" font-size="4.6203" lengthAdjust="spacingAndGlyphs" text-anchor="middle" opacity="0">10k</text>
<g class="stroked-text"><desc>10k</desc>
<path d="M242.8170 134.3084 L240.8368 134.3084 "/>
<path d="M241.8269 134.3084 L241.8269 130.8432 "/>
<path d="M241.8269 130.8432 L241.4969 131.3382 "/>
<path d="M241.4969 131.3382 L241.1669 131.6683 "/>
<path d="M241.1669 131.6683 L240.8368 131.8333 "/>
<path d="M244.9621 130.8432 L245.2921 130.8432 "/>
<path d="M245.2921 130.8432 L245.6222 131.0082 "/>
<path d="M245.6222 131.0082 L245.7872 131.1732 "/>
<path d="M245.7872 131.1732 L245.9522 131.5033 "/>
<path d="M245.9522 131.5033 L246.1172 132.1633 "/>
<path d="M246.1172 132.1633 L246.1172 132.9884 "/>
<path d="M246.1172 132.9884 L245.9522 133.6484 "/>
<path d="M245.9522 133.6484 L245.7872 133.9784 "/>
<path d="M245.7872 133.9784 L245.6222 134.1434 "/>
<path d="M245.6222 134.1434 L245.2921 134.3084 "/>
<path d="M245.2921 134.3084 L244.9621 134.3084 "/>
<path d="M244.9621 134.3084 L244.6321 134.1434 "/>
<path d="M244.6321 134.1434 L244.4671 133.9784 "/>
<path d="M244.4671 133.9784 L244.3021 133.6484 "/>
<path d="M244.3021 133.6484 L244.1371 132.9884 "/>
<path d="M244.1371 132.9884 L244.1371 132.1633 "/>
<path d="M244.1371 132.1633 L244.3021 131.5033 "/>
<path d="M244.3021 131.5033 L244.4671 131.1732 "/>
<path d="M244.4671 131.1732 L244.6321 131.0082 "/>
<path d="M244.6321 131.0082 L244.9621 130.8432 "/>
<path d="M247.6023 134.3084 L247.6023 130.8432 "/>
<path d="M247.9323 132.9884 L248.9224 134.3084 "/>
<path d="M248.9224 131.9983 L247.6023 133.3184 "/>
</g></g>
<g style="fill:none;  stroke:#848484; stroke-width:0.2772; stroke-opacity:1;  stroke-linecap:round; stroke-linejoin:round;">
<text x="244.8796" y="139.3163" textLength="5.2705" font-size="2.3102" lengthAdjust="spacingAndGlyphs" text-anchor="middle" opacity="0">TH1</text>
<g class="stroked-text"><desc>TH1</desc>
<path d="M242.6520 137.5045 L243.6420 137.5045 "/>
<path d="M243.1470 139.2371 L243.1470 137.5045 "/>
<path d="M244.2196 139.2371 L244.2196 137.5045 "/>
<path d="M244.2196 138.3296 L245.2096 138.3296 "/>
<path d="M245.2096 139.2371 L245.2096 137.5045 "/>
<path d="M246.9422 139.2371 L245.9522 139.2371 "/>
<path d="M246.4472 139.2371 L246.4472 137.5045 "/>
<path d="M246.4472 137.5045 L246.2822 137.7520 "/>
<path d="M246.2822 137.7520 L246.1172 137.9171 "/>
<path d="M246.1172 137.9171 L245.9522 137.9996 "/>
</g></g>
<g style="fill:none;  stroke:#848484; stroke-width:0.5198; stroke-opacity:1;  stroke-linecap:round; stroke-linejoin:round;">
<g transform="rotate(-90.000000 159.6792 204.0226)">
<text x="159.6792" y="205.7552" transform="scale(-1 1) translate(-319.358493 0)" textLength="4.3315" font-size="4.6203" lengthAdjust="spacingAndGlyphs" text-anchor="middle" opacity="0">K</text>
</g>
<g class="stroked-text"><desc>K</desc>
<path d="M161.2553 203.1150 L157.7901 203.1150 "/>
<path d="M161.2553 205.0952 L159.2752 203.6101 "/>
<path d="M157.7901 205.0952 L159.7702 203.1150 "/>
</g><g transform="rotate(-270.000000 129.0054 235.1016)">
<text x="129.0054" y="236.8342" transform="scale(-1 1) translate(-258.010715 0)" textLength="4.3315" font-size="4.6203" lengthAdjust="spacingAndGlyphs" text-anchor="middle" opacity="0">K</text>
</g>
<g class="stroked-text"><desc>K</desc>
<path d="M127.4293 236.0091 L130.8945 236.0091 "/>
<path d="M127.4293 234.0290 L129.4094 235.5141 "/>
<path d="M130.8945 234.0290 L128.9144 236.0091 "/>
</g><g transform="rotate(-270.000000 169.8892 189.9399)">
<text x="169.8892" y="191.6725" transform="scale(-1 1) translate(-339.778413 0)" textLength="4.3315" font-size="4.6203" lengthAdjust="spacingAndGlyphs" text-anchor="middle" opacity="0">K</text>
</g>
<g class="stroked-text"><desc>K</desc>
<path d="M168.3131 190.8475 L171.7784 190.8475 "/>
<path d="M168.3131 188.8673 L170.2933 190.3524 "/>
<path d="M171.7784 188.8673 L169.7983 190.8475 "/>
</g><g transform="rotate(-90.000000 191.8054 204.0226)">
<text x="191.8054" y="205.7552" transform="scale(-1 1) translate(-383.610828 0)" textLength="4.3315" font-size="4.6203" lengthAdjust="spacingAndGlyphs" text-anchor="middle" opacity="0">K</text>
</g>
<g class="stroked-text"><desc>K</desc>
<path d="M193.3815 203.1150 L189.9162 203.1150 "/>
<path d="M193.3815 205.0952 L191.4013 203.6101 "/>
<path d="M189.9162 205.0952 L191.8964 203.1150 "/>
</g><g transform="rotate(-90.000000 202.3674 204.0226)">
<text x="202.3674" y="205.7552" transform="scale(-1 1) translate(-404.734883 0)" textLength="4.3315" font-size="4.6203" lengthAdjust="spacingAndGlyphs" text-anchor="middle" opacity="0">K</text>
</g>
<g class="stroked-text"><desc>K</desc>
<path d="M203.9435 203.1150 L200.4783 203.1150 "/>
<path d="M203.9435 205.0952 L201.9634 203.6101 "/>
<path d="M200.4783 205.0952 L202.4584 203.1150 "/>
</g><g transform="rotate(-270.000000 180.8913 189.9399)">
<text x="180.8913" y="191.6725" transform="scale(-1 1) translate(-361.782637 0)" textLength="4.3315" font-size="4.6203" lengthAdjust="spacingAndGlyphs" text-anchor="middle" opacity="0">K</text>
</g>
<g class="stroked-text"><desc>K</desc>
<path d="M179.3153 190.8475 L182.7805 190.8475 "/>
<path d="M179.3153 188.8673 L181.2954 190.3524 "/>
<path d="M182.7805 188.8673 L180.8004 190.8475 "/>
</g><path d="M30.3578 33.5990 L30.3578 19.7381 "/>
<path d="M32.0908 21.4672 L32.0908 31.8699 "/>
<path d="M39.0213 18.0055 L39.0213 19.7381 "/>
<path d="M39.0213 33.5990 L39.0213 35.3316 "/>
<path d="M40.7535 21.4672 L40.7535 31.8699 "/>
<path d="M40.7535 21.4707 L32.0908 21.4707 "/>
<path d="M40.7535 31.8664 L32.0908 31.8664 "/>
<path d="M42.4865 19.7381 L30.3578 19.7381 "/>
<path d="M42.4865 33.5990 L30.3547 33.5990 "/>
<path d="M42.4865 33.5990 L42.4865 19.7381 "/>
<path d="M52.8822 21.4704 L52.8822 31.8668 "/>
<path d="M52.8822 21.4707 L42.4865 21.4707 "/>
<path d="M52.8822 31.8664 L42.4865 31.8664 "/>
<path d="M59.8126 18.0051 L59.8126 35.3320 "/>
<path d="M59.8126 18.0055 L39.0213 18.0055 "/>
<path d="M59.8126 18.0055 L90.9997 18.0055 "/>
<path d="M59.8126 35.3316 L39.0213 35.3316 "/>
<path d="M61.5456 23.2033 L59.8126 23.2033 "/>
<path d="M61.5456 30.1338 L59.8126 30.1338 "/>
<path d="M61.5456 33.5990 L61.5456 19.7381 "/>
<path d="M89.2675 19.7381 L61.5456 19.7381 "/>
<path d="M89.2675 19.7381 L89.2675 33.5990 "/>
<path d="M89.2675 33.5990 L61.5456 33.5990 "/>
<path d="M90.9997 18.0051 L90.9997 35.3320 "/>
<path d="M90.9997 35.3316 L59.8126 35.3316 "/>
<path d="M30.3578 16.2597 L30.3578 2.3988 "/>
<path d="M32.0908 4.1279 L32.0908 14.5305 "/>
<path d="M39.0212 0.6662 L39.0212 2.3988 "/>
<path d="M39.0212 16.2597 L39.0212 17.9923 "/>
<path d="M40.7535 4.1279 L40.7535 14.5305 "/>
<path d="M40.7535 4.1314 L32.0908 4.1314 "/>
<path d="M40.7535 14.5271 L32.0908 14.5271 "/>
<path d="M42.4865 2.3988 L30.3578 2.3988 "/>
<path d="M42.4865 16.2597 L30.3547 16.2597 "/>
<path d="M42.4865 16.2597 L42.4865 2.3988 "/>
<path d="M52.8822 4.1310 L52.8822 14.5274 "/>
<path d="M52.8822 4.1314 L42.4865 4.1314 "/>
<path d="M52.8822 14.5271 L42.4865 14.5271 "/>
<path d="M59.8126 0.6658 L59.8126 17.9927 "/>
<path d="M59.8126 0.6662 L39.0212 0.6662 "/>
<path d="M59.8126 0.6662 L90.9997 0.6662 "/>
<path d="M59.8126 17.9923 L39.0212 17.9923 "/>
<path d="M61.5456 5.8640 L59.8126 5.8640 "/>
<path d="M61.5456 12.7945 L59.8126 12.7945 "/>
<path d="M61.5456 16.2597 L61.5456 2.3988 "/>
<path d="M89.2675 2.3988 L61.5456 2.3988 "/>
<path d="M89.2675 2.3988 L89.2675 16.2597 "/>
<path d="M89.2675 16.2597 L61.5456 16.2597 "/>
<path d="M90.9997 0.6658 L90.9997 17.9927 "/>
<path d="M90.9997 17.9923 L59.8126 17.9923 "/>
<path d="M41.8950 191.9359 L73.0821 191.9359 "/>
<path d="M41.8950 209.2624 L41.8950 191.9355 "/>
<path d="M43.6272 193.6685 L71.3491 193.6685 "/>
<path d="M43.6272 207.5294 L43.6272 193.6685 "/>
<path d="M43.6272 207.5294 L71.3491 207.5294 "/>
<path d="M71.3491 193.6685 L71.3491 207.5294 "/>
<path d="M71.3491 197.1337 L73.0821 197.1337 "/>
<path d="M71.3491 204.0642 L73.0821 204.0642 "/>
<path d="M73.0821 191.9359 L93.8734 191.9359 "/>
<path d="M73.0821 209.2620 L41.8950 209.2620 "/>
<path d="M73.0821 209.2620 L93.8734 209.2620 "/>
<path d="M73.0821 209.2624 L73.0821 191.9355 "/>
<path d="M80.0125 195.4011 L90.4082 195.4011 "/>
<path d="M80.0125 205.7968 L90.4082 205.7968 "/>
<path d="M80.0125 205.7972 L80.0125 195.4008 "/>
<path d="M90.4082 193.6685 L90.4082 207.5294 "/>
<path d="M90.4082 193.6685 L102.5400 193.6685 "/>
<path d="M90.4082 207.5294 L102.5369 207.5294 "/>
<path d="M92.1412 195.4011 L100.8039 195.4011 "/>
<path d="M92.1412 205.7968 L100.8039 205.7968 "/>
<path d="M92.1412 205.8003 L92.1412 195.3976 "/>
<path d="M93.8734 193.6685 L93.8734 191.9359 "/>
<path d="M93.8734 209.2620 L93.8734 207.5294 "/>
<path d="M100.8039 205.8003 L100.8039 195.3976 "/>
<path d="M102.5369 193.6685 L102.5369 207.5294 "/>
<path d="M41.8950 174.7726 L73.0821 174.7726 "/>
<path d="M41.8950 192.0991 L41.8950 174.7722 "/>
<path d="M43.6272 176.5052 L71.3491 176.5052 "/>
<path d="M43.6272 190.3661 L43.6272 176.5052 "/>
<path d="M43.6272 190.3661 L71.3491 190.3661 "/>
<path d="M71.3491 176.5052 L71.3491 190.3661 "/>
<path d="M71.3491 179.9704 L73.0821 179.9704 "/>
<path d="M71.3491 186.9009 L73.0821 186.9009 "/>
<path d="M73.0821 174.7726 L93.8734 174.7726 "/>
<path d="M73.0821 192.0987 L41.8950 192.0987 "/>
<path d="M73.0821 192.0987 L93.8734 192.0987 "/>
<path d="M73.0821 192.0991 L73.0821 174.7722 "/>
<path d="M80.0125 178.2378 L90.4082 178.2378 "/>
<path d="M80.0125 188.6335 L90.4082 188.6335 "/>
<path d="M80.0125 188.6339 L80.0125 178.2375 "/>
<path d="M90.4082 176.5052 L90.4082 190.3661 "/>
<path d="M90.4082 176.5052 L102.5400 176.5052 "/>
<path d="M90.4082 190.3661 L102.5369 190.3661 "/>
<path d="M92.1412 178.2378 L100.8039 178.2378 "/>
<path d="M92.1412 188.6335 L100.8039 188.6335 "/>
<path d="M92.1412 188.6370 L92.1412 178.2344 "/>
<path d="M93.8734 176.5052 L93.8734 174.7726 "/>
<path d="M93.8734 192.0987 L93.8734 190.3661 "/>
<path d="M100.8039 188.6370 L100.8039 178.2344 "/>
<path d="M102.5369 176.5052 L102.5369 190.3661 "/>
</g>
<g style="fill:none;  stroke:#848484; stroke-width:0.3465; stroke-opacity:1;  stroke-linecap:round; stroke-linejoin:round;">
<circle cx="271.7248" cy="16.9867" r="10.3948"/> 
<circle cx="25.2774" cy="193.0205" r="10.3948"/> 
<circle cx="271.7248" cy="193.0205" r="10.3948"/> 
<circle cx="25.2774" cy="16.9867" r="10.3948"/> 
<path d="M241.5024 69.5674 L248.4329 69.5674 "/>
<path d="M241.5024 73.8990 L241.5024 69.5674 "/>
<path d="M248.4329 69.5674 L248.4329 73.8990 "/>
<path d="M248.4329 73.8990 L241.5024 73.8990 "/>
<path d="M241.4144 136.2843 L248.3448 136.2843 "/>
<path d="M241.4144 140.6158 L241.4144 136.2843 "/>
<path d="M248.3448 136.2843 L248.3448 140.6158 "/>
<path d="M248.3448 140.6158 L241.4144 140.6158 "/>
</g> 
<svg:g><svg:g><svg:title>SVG Image created as LION2CELL02-Edge_Cuts.svg date 2024/07/20 17:56:04 </svg:title>
  <svg:desc>Image generated by PCBNEW </svg:desc>
<svg:g style="fill:#C2C200; fill-opacity:1.0000;stroke:#C2C200; stroke-opacity:1.0000; stroke-linecap:round; stroke-linejoin:round;" transform="translate(0 0) scale(1 1)">
<svg:path style="fill:none;  stroke:#C2C200; stroke-width:0.5198; stroke-opacity:1;  stroke-linecap:round; stroke-linejoin:round;fill:none" d="M 8.5542,0.2635 288.4480,0.2635 288.4480,209.7437 8.5542,209.7437 Z"/> 
</svg:g> 
</svg:g></svg:g></svg>
