%TF.GenerationSoftware,KiCad,Pcbnew,8.0.3+1*%
%TF.CreationDate,2024-07-24T20:06:03+00:00*%
%TF.ProjectId,LION2CELL02,4c494f4e-3243-4454-9c4c-30322e6b6963,rev?*%
%TF.SameCoordinates,Original*%
%TF.FileFunction,Copper,L1,Top*%
%TF.FilePolarity,Positive*%
%FSLAX46Y46*%
G04 Gerber Fmt 4.6, Leading zero omitted, Abs format (unit mm)*
G04 Created by KiCad (PCBNEW 8.0.3+1) date 2024-07-24 20:06:03*
%MOMM*%
%LPD*%
G01*
G04 APERTURE LIST*
G04 Aperture macros list*
%AMRoundRect*
0 Rectangle with rounded corners*
0 $1 Rounding radius*
0 $2 $3 $4 $5 $6 $7 $8 $9 X,Y pos of 4 corners*
0 Add a 4 corners polygon primitive as box body*
4,1,4,$2,$3,$4,$5,$6,$7,$8,$9,$2,$3,0*
0 Add four circle primitives for the rounded corners*
1,1,$1+$1,$2,$3*
1,1,$1+$1,$4,$5*
1,1,$1+$1,$6,$7*
1,1,$1+$1,$8,$9*
0 Add four rect primitives between the rounded corners*
20,1,$1+$1,$2,$3,$4,$5,0*
20,1,$1+$1,$4,$5,$6,$7,0*
20,1,$1+$1,$6,$7,$8,$9,0*
20,1,$1+$1,$8,$9,$2,$3,0*%
G04 Aperture macros list end*
%TA.AperFunction,ComponentPad*%
%ADD10R,3.810000X3.810000*%
%TD*%
%TA.AperFunction,ComponentPad*%
%ADD11R,1.524000X1.524000*%
%TD*%
%TA.AperFunction,ComponentPad*%
%ADD12R,1.676400X1.676400*%
%TD*%
%TA.AperFunction,ComponentPad*%
%ADD13C,6.000000*%
%TD*%
%TA.AperFunction,ComponentPad*%
%ADD14R,4.000000X4.000000*%
%TD*%
%TA.AperFunction,SMDPad,CuDef*%
%ADD15RoundRect,0.250000X-0.262500X-0.450000X0.262500X-0.450000X0.262500X0.450000X-0.262500X0.450000X0*%
%TD*%
%TA.AperFunction,SMDPad,CuDef*%
%ADD16RoundRect,0.250000X0.262500X0.450000X-0.262500X0.450000X-0.262500X-0.450000X0.262500X-0.450000X0*%
%TD*%
%TA.AperFunction,ComponentPad*%
%ADD17O,2.000000X1.000000*%
%TD*%
%TA.AperFunction,ComponentPad*%
%ADD18O,2.100000X1.050000*%
%TD*%
%TA.AperFunction,ComponentPad*%
%ADD19C,0.500000*%
%TD*%
%TA.AperFunction,SMDPad,CuDef*%
%ADD20RoundRect,0.258000X1.242000X1.242000X-1.242000X1.242000X-1.242000X-1.242000X1.242000X-1.242000X0*%
%TD*%
%TA.AperFunction,HeatsinkPad*%
%ADD21C,0.500000*%
%TD*%
%TA.AperFunction,HeatsinkPad*%
%ADD22R,1.900000X2.900000*%
%TD*%
%TA.AperFunction,ViaPad*%
%ADD23C,0.800000*%
%TD*%
%TA.AperFunction,ViaPad*%
%ADD24C,0.400000*%
%TD*%
%TA.AperFunction,Conductor*%
%ADD25C,0.300000*%
%TD*%
%TA.AperFunction,Conductor*%
%ADD26C,4.500000*%
%TD*%
%TA.AperFunction,Conductor*%
%ADD27C,0.800000*%
%TD*%
%TA.AperFunction,Conductor*%
%ADD28C,0.500000*%
%TD*%
%TA.AperFunction,Conductor*%
%ADD29C,0.200000*%
%TD*%
%TA.AperFunction,Conductor*%
%ADD30C,1.500000*%
%TD*%
%TA.AperFunction,Conductor*%
%ADD31C,1.000000*%
%TD*%
G04 APERTURE END LIST*
D10*
%TO.P,J2,1,P1*%
%TO.N,/Power Input/Power_load*%
X31690500Y57892200D03*
X26690500Y57892200D03*
%TD*%
%TO.P,J3,1,P1*%
%TO.N,GND*%
X31690500Y62896000D03*
X26690500Y62896000D03*
%TD*%
D11*
%TO.P,J4,1,2*%
%TO.N,GND*%
X42799000Y12903200D03*
%TO.P,J4,2,2*%
X42799000Y10363200D03*
%TO.P,J4,3,4*%
%TO.N,/Power Input/System_load*%
X40259000Y12903200D03*
%TO.P,J4,4,4*%
X40259000Y10363200D03*
%TO.P,J4,5,5*%
X37719000Y12903200D03*
%TO.P,J4,6,5*%
X37719000Y10363200D03*
%TO.P,J4,7,8*%
%TO.N,GND*%
X35179000Y12903200D03*
%TO.P,J4,8,8*%
X35179000Y10363200D03*
%TD*%
%TO.P,J6,1*%
%TO.N,Net-(U1-INT)*%
X42164000Y57912000D03*
%TO.P,J6,2*%
X42164000Y60452000D03*
%TD*%
%TO.P,J7,1*%
%TO.N,Net-(U1-nQON)*%
X39624000Y57912000D03*
%TO.P,J7,2*%
X39624000Y60452000D03*
%TD*%
D10*
%TO.P,J9,1,P1*%
%TO.N,GND*%
X19955500Y8323000D03*
X24955500Y8323000D03*
%TD*%
D11*
%TO.P,J10,1*%
%TO.N,Net-(U3-BTP_INT)*%
X47244000Y57912000D03*
%TO.P,J10,2*%
X47244000Y60452000D03*
%TD*%
%TO.P,J11,1*%
%TO.N,GND1*%
X49784000Y57912000D03*
%TO.P,J11,2*%
%TO.N,Net-(U3-~{PRES{slash}SHDWN})*%
X49784000Y60452000D03*
%TD*%
%TO.P,J12,1*%
%TO.N,GND*%
X65278000Y57658000D03*
%TO.P,J12,2*%
X65278000Y60198000D03*
%TO.P,J12,3*%
%TO.N,/Fuel Gauge/SCL*%
X67818000Y57658000D03*
%TO.P,J12,4*%
X67818000Y60198000D03*
%TO.P,J12,5*%
%TO.N,+3.3V*%
X70358000Y57658000D03*
%TO.P,J12,6*%
X70358000Y60198000D03*
%TO.P,J12,7*%
%TO.N,/Fuel Gauge/SDA*%
X72898000Y57658000D03*
%TO.P,J12,8*%
X72898000Y60198000D03*
%TO.P,J12,9*%
%TO.N,GND*%
X75438000Y57658000D03*
%TO.P,J12,10*%
X75438000Y60198000D03*
%TD*%
D10*
%TO.P,J8,1,P1*%
%TO.N,VBUS*%
X19955500Y13276000D03*
X24955500Y13276000D03*
%TD*%
D12*
%TO.P,SW1,1,1*%
%TO.N,Net-(U3-~{PRES{slash}SHDWN})*%
X54508000Y62956000D03*
X60808000Y62956000D03*
%TO.P,SW1,2,2*%
%TO.N,GND1*%
X54508000Y58456000D03*
X60808000Y58456000D03*
%TD*%
%TO.P,SW2,1,1*%
%TO.N,Net-(U3-~{DISP})*%
X52984000Y13299000D03*
X59284000Y13299000D03*
%TO.P,SW2,2,2*%
%TO.N,GND1*%
X52984000Y8799000D03*
X59284000Y8799000D03*
%TD*%
D11*
%TO.P,JP1,1,A*%
%TO.N,buck_out*%
X44704000Y57912000D03*
%TO.P,JP1,2,B*%
%TO.N,+3.3V*%
X44704000Y60452000D03*
%TD*%
%TO.P,J5,1*%
%TO.N,GND*%
X46685200Y12954000D03*
%TO.P,J5,2*%
X49225200Y12954000D03*
%TO.P,J5,3*%
%TO.N,buck_out*%
X46685200Y10414000D03*
%TO.P,J5,4*%
X49225200Y10414000D03*
%TO.P,J5,5*%
%TO.N,GND*%
X46685200Y7874000D03*
%TO.P,J5,6*%
X49225200Y7874000D03*
%TD*%
D13*
%TO.P,H2,1,1*%
%TO.N,unconnected-(H2-Pad1)*%
X81280000Y60960000D03*
%TD*%
%TO.P,H3,1,1*%
%TO.N,unconnected-(H3-Pad1)*%
X10160000Y10160000D03*
%TD*%
D14*
%TO.P,B1,1,+*%
%TO.N,/Fuel Gauge/B+*%
X9470000Y45210000D03*
%TO.P,B1,2,-*%
%TO.N,/Fuel Gauge/BAT_MID*%
X81970000Y45210000D03*
%TO.P,B1,3,+*%
X9470000Y25910000D03*
%TO.P,B1,4,-*%
%TO.N,GND1*%
X81970000Y25910000D03*
%TD*%
D13*
%TO.P,H4,1,1*%
%TO.N,unconnected-(H4-Pad1)*%
X81280000Y10160000D03*
%TD*%
%TO.P,H1,1,1*%
%TO.N,unconnected-(H1-Pad1)*%
X10160000Y60960000D03*
%TD*%
D15*
%TO.P,TH2,1*%
%TO.N,GND1*%
X72645900Y45161200D03*
%TO.P,TH2,2*%
%TO.N,Net-(U3-TS2)*%
X74470900Y45161200D03*
%TD*%
D16*
%TO.P,TH1,1*%
%TO.N,GND1*%
X74445500Y25908000D03*
%TO.P,TH1,2*%
%TO.N,Net-(U3-TS1)*%
X72620500Y25908000D03*
%TD*%
D17*
%TO.P,J1,G1,SHIELD*%
%TO.N,GND*%
X8001000Y31240000D03*
%TO.P,J1,G2,SHIELD*%
X8001000Y39880000D03*
D18*
%TO.P,J1,G3,SHIELD*%
X12181000Y31240000D03*
%TO.P,J1,G4,SHIELD*%
X12181000Y39880000D03*
%TD*%
D19*
%TO.P,U3,33,PWRPD*%
%TO.N,GND1*%
X61822104Y36193504D03*
D20*
X61822104Y36193504D03*
%TD*%
D21*
%TO.P,U2,9,GND*%
%TO.N,GND*%
X51573200Y27489000D03*
X51573200Y26289000D03*
X51573200Y25089000D03*
D22*
X52273200Y26289000D03*
D21*
X52973200Y27489000D03*
X52973200Y26289000D03*
X52973200Y25089000D03*
%TD*%
D23*
%TO.N,GND*%
X18719800Y36652200D03*
X37912212Y31868739D03*
X14631000Y32854904D03*
X51816000Y32766000D03*
X44704000Y30226000D03*
X57150000Y29972000D03*
X53086000Y29972000D03*
X22555200Y29337000D03*
X48768000Y33274000D03*
X32080200Y30327600D03*
X30683200Y30327600D03*
X30734000Y32512000D03*
X40132000Y37465000D03*
X22860000Y17068800D03*
%TO.N,GND1*%
X59974496Y38298711D03*
X63967104Y34093504D03*
X67437000Y38860504D03*
%TO.N,/Fuel Gauge/B+*%
X50330000Y49350029D03*
%TO.N,VBUS*%
X28420031Y32356031D03*
X27808525Y28569065D03*
X20447000Y21844000D03*
%TO.N,Net-(U1-SW1)*%
X28575000Y20574000D03*
X30167001Y22351998D03*
X30149800Y21539200D03*
X30636000Y29026000D03*
D24*
X30636000Y26670000D03*
D23*
X29464000Y20574000D03*
X27660600Y27498000D03*
X26289000Y27498000D03*
%TO.N,Net-(U1-SW2)*%
X34061400Y20574000D03*
X32317014Y22352028D03*
X32196000Y29080000D03*
D24*
X32160450Y26580011D03*
D23*
X32308800Y21539200D03*
X35687000Y28133000D03*
X32994600Y20599400D03*
%TO.N,/Fuel Gauge/PACK+*%
X42138600Y39471598D03*
X50698400Y40005000D03*
%TO.N,Net-(U3-VC2)*%
X66649600Y42494200D03*
X33484441Y40209302D03*
%TO.N,Net-(U3-VC1)*%
X16128998Y18923000D03*
X67918100Y36005504D03*
X46144000Y31216600D03*
X66243200Y31978600D03*
%TO.N,/Power Input/REGN*%
X25908000Y31369000D03*
X34012500Y36194994D03*
%TO.N,Net-(D1-A)*%
X57875400Y36344400D03*
X68061489Y13644905D03*
%TO.N,Net-(D1-K)*%
X66166996Y13589000D03*
X56937501Y37109278D03*
%TO.N,Net-(D5-K)*%
X69215004Y13107050D03*
X57607200Y37871400D03*
%TO.N,/Fuel Gauge/BAT*%
X58775600Y38961532D03*
X63958510Y38752280D03*
%TO.N,/Power Input/D+*%
X17424400Y34950400D03*
X14280500Y35662500D03*
D24*
%TO.N,Net-(U1-INT)*%
X34518600Y29019500D03*
D23*
X46008148Y37864400D03*
%TO.N,Net-(U1-nQON)*%
X45452600Y40081200D03*
X43129200Y55626000D03*
X39166800Y40106600D03*
%TO.N,Net-(U3-BTP_INT)*%
X48636135Y37481421D03*
X54356000Y33909000D03*
%TO.N,Net-(U3-~{PRES{slash}SHDWN})*%
X49559894Y37864400D03*
X54610000Y34925000D03*
%TO.N,Net-(Q1-G)*%
X42926000Y37363400D03*
X43279032Y31953200D03*
%TO.N,/Fuel Gauge/VCOM*%
X50330000Y50913927D03*
X26785025Y48602975D03*
%TO.N,Net-(Q3-G)*%
X15113000Y54356000D03*
X18161000Y48768000D03*
%TO.N,Net-(U1-TS)*%
X35172324Y33012020D03*
X36728401Y39217599D03*
%TO.N,Net-(U3-PCHG)*%
X62458600Y41325800D03*
X39040200Y42342200D03*
%TO.N,Net-(U3-DSG)*%
X40353905Y42533000D03*
X61493400Y41732200D03*
%TO.N,Net-(U3-CHG)*%
X63254416Y42914000D03*
X33754390Y41172179D03*
%TO.N,Net-(U3-~{DISP})*%
X57737269Y33886669D03*
%TO.N,Net-(U3-TS1)*%
X69037200Y30124400D03*
%TO.N,Net-(U3-TS2)*%
X65278000Y32359600D03*
%TO.N,/Fuel Gauge/SCL*%
X32766000Y37592000D03*
X56134000Y38735000D03*
X68097400Y43459400D03*
%TO.N,/Fuel Gauge/SDA*%
X35987496Y33772440D03*
X70670760Y43889941D03*
X55244996Y37592000D03*
%TO.N,Net-(D2-K)*%
X49968000Y19812000D03*
X59309000Y21971000D03*
%TO.N,buck_out*%
X47244000Y37084000D03*
%TD*%
D25*
%TO.N,GND*%
X14631000Y32792000D02*
X14631000Y32854904D01*
X14605000Y32766000D02*
X14631000Y32792000D01*
D26*
%TO.N,/Fuel Gauge/BAT_MID*%
X14208000Y25910000D02*
X34785200Y46487200D01*
X34785200Y46487200D02*
X63462491Y46487200D01*
X65469091Y48493800D02*
X78686200Y48493800D01*
X78686200Y48493800D02*
X81970000Y45210000D01*
X9470000Y25910000D02*
X14208000Y25910000D01*
X63462491Y46487200D02*
X65469091Y48493800D01*
D25*
%TO.N,GND1*%
X72771000Y24233500D02*
X74445500Y25908000D01*
D27*
X81970000Y25910000D02*
X74448000Y25910000D01*
D25*
X62739000Y12254000D02*
X72426600Y12254000D01*
D28*
X59974496Y38041112D02*
X59974496Y38298711D01*
X63967104Y34093504D02*
X63922104Y34093504D01*
X72646000Y41260800D02*
X70245704Y38860504D01*
X61822104Y36193504D02*
X59974496Y38041112D01*
X64770000Y36193504D02*
X67437000Y38860504D01*
X70245704Y38860504D02*
X67437000Y38860504D01*
D25*
X72426600Y12254000D02*
X72771000Y12598400D01*
D28*
X63922104Y34093504D02*
X61822104Y36193504D01*
X72646000Y44840700D02*
X72646000Y41260800D01*
X63967104Y32119051D02*
X71832155Y24254000D01*
X61822104Y36193504D02*
X64770000Y36193504D01*
X71832155Y24254000D02*
X72792000Y24254000D01*
D25*
X52984000Y8799000D02*
X59284000Y8799000D01*
X72771000Y12598400D02*
X72771000Y24233500D01*
X59284000Y8799000D02*
X62739000Y12254000D01*
D28*
X63967104Y34093504D02*
X63967104Y32119051D01*
X72792000Y24254000D02*
X74446000Y25908000D01*
%TO.N,/Fuel Gauge/B+*%
X30808029Y49350029D02*
X26668000Y45210000D01*
X26668000Y45210000D02*
X9470000Y45210000D01*
X50330000Y49350029D02*
X30808029Y49350029D01*
D27*
%TO.N,VBUS*%
X20447000Y24130000D02*
X24886065Y28569065D01*
X27813000Y28573540D02*
X27813000Y31749000D01*
D29*
X24955500Y13276000D02*
X19956000Y13276000D01*
D27*
X24886065Y28569065D02*
X27808525Y28569065D01*
X27808525Y28569065D02*
X27813000Y28573540D01*
X27813000Y31749000D02*
X28420031Y32356031D01*
X20447000Y21844000D02*
X20447000Y24130000D01*
%TO.N,Net-(U1-SW1)*%
X26289000Y27498000D02*
X29108000Y27498000D01*
X30636000Y22820997D02*
X30167001Y22351998D01*
X29108000Y27498000D02*
X30636000Y29026000D01*
X30636000Y29026000D02*
X30636000Y22820997D01*
%TO.N,Net-(U1-SW2)*%
X35737800Y28133000D02*
X35237800Y27633000D01*
X35237800Y27633000D02*
X33643000Y27633000D01*
X32196000Y22473042D02*
X32317014Y22352028D01*
X33643000Y27633000D02*
X32196000Y29080000D01*
X32196000Y29080000D02*
X32196000Y22473042D01*
D30*
%TO.N,/Power Input/Power_load*%
X31690500Y57892200D02*
X26690500Y57892200D01*
D25*
%TO.N,/Fuel Gauge/PACK+*%
X42283998Y39326200D02*
X42138600Y39471598D01*
X50019600Y39326200D02*
X42283998Y39326200D01*
X50698400Y40005000D02*
X50019600Y39326200D01*
%TO.N,Net-(U3-VC2)*%
X33484441Y40209302D02*
X34316502Y40209302D01*
X66319400Y42164000D02*
X66649600Y42494200D01*
X34316502Y40209302D02*
X37454600Y43347400D01*
X62122261Y42164000D02*
X66319400Y42164000D01*
X37454600Y43347400D02*
X60938861Y43347400D01*
X60938861Y43347400D02*
X62122261Y42164000D01*
D28*
%TO.N,Net-(U3-VC1)*%
X67918100Y36005504D02*
X67918100Y33653500D01*
X67918100Y33653500D02*
X66243200Y31978600D01*
X16128998Y18923000D02*
X38811200Y18923000D01*
X46101000Y31173600D02*
X46144000Y31216600D01*
X38811200Y18923000D02*
X46101000Y26212800D01*
X46101000Y26212800D02*
X46101000Y31173600D01*
%TO.N,/Power Input/REGN*%
X25908000Y33213017D02*
X25908000Y31369000D01*
X28889977Y36194994D02*
X25908000Y33213017D01*
X34012500Y36194994D02*
X28889977Y36194994D01*
D25*
%TO.N,Net-(D1-A)*%
X57875400Y35749000D02*
X57875400Y36344400D01*
X68061489Y13644905D02*
X68061489Y25562911D01*
X68061489Y25562911D02*
X57875400Y35749000D01*
%TO.N,Net-(D1-K)*%
X56937501Y37109278D02*
X56937501Y35747099D01*
X56937501Y35747099D02*
X66751200Y25933400D01*
X66751200Y25933400D02*
X66751200Y14173204D01*
X66751200Y14173204D02*
X66166996Y13589000D01*
%TO.N,Net-(D5-K)*%
X69215004Y25298396D02*
X59182000Y35331400D01*
X69215004Y13107050D02*
X69215004Y25298396D01*
X59182000Y36296600D02*
X57607200Y37871400D01*
X59182000Y35331400D02*
X59182000Y36296600D01*
%TO.N,/Fuel Gauge/BAT*%
X63958510Y38752280D02*
X63569390Y39141400D01*
X58955468Y39141400D02*
X58775600Y38961532D01*
X63569390Y39141400D02*
X58955468Y39141400D01*
%TO.N,/Power Input/D+*%
X14992600Y34950400D02*
X17424400Y34950400D01*
X14280500Y35662500D02*
X14992600Y34950400D01*
%TO.N,Net-(U1-INT)*%
X45720000Y37576252D02*
X46008148Y37864400D01*
X34518600Y29019500D02*
X41465500Y29019500D01*
X45085000Y34544000D02*
X45720000Y35179000D01*
X45085000Y32639000D02*
X45085000Y34544000D01*
X45720000Y35179000D02*
X45720000Y37576252D01*
X41465500Y29019500D02*
X45085000Y32639000D01*
%TO.N,Net-(U1-nQON)*%
X41910000Y55626000D02*
X39624000Y57912000D01*
X43129200Y55626000D02*
X41910000Y55626000D01*
X39573200Y40513000D02*
X45020800Y40513000D01*
X39166800Y40106600D02*
X39573200Y40513000D01*
X45020800Y40513000D02*
X45452600Y40081200D01*
%TO.N,Net-(U3-BTP_INT)*%
X54356000Y33909000D02*
X52208556Y33909000D01*
X52208556Y33909000D02*
X48636135Y37481421D01*
%TO.N,Net-(U3-~{PRES{slash}SHDWN})*%
X53026738Y34925000D02*
X50087338Y37864400D01*
X50087338Y37864400D02*
X49559894Y37864400D01*
X54610000Y34925000D02*
X53026738Y34925000D01*
%TO.N,Net-(Q1-G)*%
X43279032Y37010368D02*
X43279032Y31953200D01*
X42926000Y37363400D02*
X43279032Y37010368D01*
D28*
%TO.N,/Fuel Gauge/VCOM*%
X29095977Y50913927D02*
X26785025Y48602975D01*
X50330000Y50913927D02*
X29095977Y50913927D01*
D25*
%TO.N,Net-(Q3-G)*%
X15113000Y51816000D02*
X15113000Y54356000D01*
X18161000Y48768000D02*
X15113000Y51816000D01*
%TO.N,Net-(U1-TS)*%
X35172324Y33012020D02*
X35137496Y33046848D01*
X35137496Y37626694D02*
X36728401Y39217599D01*
X35137496Y33046848D02*
X35137496Y37626694D01*
%TO.N,Net-(U3-PCHG)*%
X39040200Y42342200D02*
X39599400Y41783000D01*
X39599400Y41783000D02*
X52782596Y41783000D01*
X62026800Y40894000D02*
X62458600Y41325800D01*
X53671596Y40894000D02*
X62026800Y40894000D01*
X52782596Y41783000D02*
X53671596Y40894000D01*
%TO.N,Net-(U3-DSG)*%
X40353905Y42533000D02*
X60692600Y42533000D01*
X60692600Y42533000D02*
X61493400Y41732200D01*
%TO.N,Net-(U3-CHG)*%
X62321016Y43847400D02*
X63254416Y42914000D01*
X33754390Y41172179D02*
X36429611Y43847400D01*
X36429611Y43847400D02*
X62321016Y43847400D01*
%TO.N,Net-(U3-~{DISP})*%
X52984000Y13299000D02*
X59284000Y13299000D01*
X65786000Y25654000D02*
X57737269Y33702731D01*
X65786000Y19801000D02*
X65786000Y25654000D01*
X57737269Y33702731D02*
X57737269Y33886669D01*
X59284000Y13299000D02*
X65786000Y19801000D01*
%TO.N,Net-(U3-TS1)*%
X69037200Y29692600D02*
X69037200Y30124400D01*
X72620500Y26109300D02*
X69037200Y29692600D01*
%TO.N,Net-(U3-TS2)*%
X66014600Y31089600D02*
X66624200Y31089600D01*
X66624200Y31089600D02*
X74471000Y38936400D01*
X65278000Y32359600D02*
X65278000Y31826200D01*
X65278000Y31826200D02*
X66014600Y31089600D01*
X74471000Y38936400D02*
X74471000Y45161100D01*
%TO.N,/Fuel Gauge/SCL*%
X52451000Y41021000D02*
X36195000Y41021000D01*
X65658350Y40259000D02*
X68097400Y42698050D01*
X57658000Y40259000D02*
X65658350Y40259000D01*
X36195000Y41021000D02*
X32766000Y37592000D01*
X68097400Y42698050D02*
X68097400Y43459400D01*
X54737000Y38735000D02*
X52451000Y41021000D01*
X56134000Y38735000D02*
X54737000Y38735000D01*
X56134000Y38735000D02*
X57658000Y40259000D01*
%TO.N,/Fuel Gauge/SDA*%
X50191346Y38724450D02*
X42712250Y38724450D01*
X55245000Y37592000D02*
X51323796Y37592000D01*
X37760240Y33772440D02*
X35987496Y33772440D01*
D29*
X55245000Y37592000D02*
X55244996Y37592000D01*
D25*
X58318400Y39751000D02*
X66531819Y39751000D01*
X55245000Y37592000D02*
X56159400Y37592000D01*
X56159400Y37592000D02*
X58318400Y39751000D01*
X42712250Y38724450D02*
X37760240Y33772440D01*
X66531819Y39751000D02*
X70670760Y43889941D01*
X51323796Y37592000D02*
X50191346Y38724450D01*
D31*
%TO.N,Net-(D2-K)*%
X57150000Y19812000D02*
X49968000Y19812000D01*
X59309000Y21971000D02*
X57150000Y19812000D01*
%TO.N,buck_out*%
X50800000Y11988800D02*
X49225200Y10414000D01*
X47244000Y37084000D02*
X47244000Y17526000D01*
X47244000Y17526000D02*
X50800000Y13970000D01*
X50800000Y13970000D02*
X50800000Y11988800D01*
%TD*%
%TA.AperFunction,Conductor*%
%TO.N,Net-(U1-SW2)*%
G36*
X33910216Y29596715D02*
G01*
X33955971Y29543911D01*
X33965915Y29474753D01*
X33945228Y29421963D01*
X33906038Y29365187D01*
X33893781Y29347429D01*
X33833460Y29188375D01*
X33833459Y29188370D01*
X33812955Y29019500D01*
X33833459Y28850631D01*
X33833460Y28850626D01*
X33893782Y28691569D01*
X33953654Y28604831D01*
X33990417Y28551571D01*
X34092427Y28461198D01*
X34117750Y28438764D01*
X34266028Y28360942D01*
X34268375Y28359710D01*
X34433544Y28319000D01*
X34603656Y28319000D01*
X34768825Y28359710D01*
X34768830Y28359713D01*
X34772073Y28360942D01*
X34816045Y28369000D01*
X36223400Y28369000D01*
X36290439Y28349315D01*
X36336194Y28296511D01*
X36347400Y28245000D01*
X36347400Y27889762D01*
X36327715Y27822723D01*
X36311081Y27802081D01*
X32969200Y24460201D01*
X32969200Y22402800D01*
X34583881Y20788119D01*
X34617366Y20726796D01*
X34620200Y20700438D01*
X34620200Y20164600D01*
X34600515Y20097561D01*
X34547711Y20051806D01*
X34496200Y20040600D01*
X32766562Y20040600D01*
X32699523Y20060285D01*
X32678881Y20076919D01*
X31725929Y21029871D01*
X31692444Y21091194D01*
X31694634Y21152489D01*
X31714321Y21219533D01*
X31714322Y21219540D01*
X31714323Y21219542D01*
X31714324Y21219546D01*
X31734800Y21361962D01*
X31734800Y28930038D01*
X31731903Y28984078D01*
X31729069Y29010436D01*
X31720414Y29063848D01*
X31695895Y29129583D01*
X31690910Y29199273D01*
X31724392Y29260593D01*
X31859888Y29396089D01*
X31921207Y29429571D01*
X31973345Y29429695D01*
X31985554Y29427100D01*
X31985555Y29427100D01*
X32174844Y29427100D01*
X32174846Y29427100D01*
X32360003Y29466456D01*
X32532930Y29543449D01*
X32583639Y29580291D01*
X32600744Y29592718D01*
X32666550Y29616198D01*
X32673629Y29616400D01*
X33843177Y29616400D01*
X33910216Y29596715D01*
G37*
%TD.AperFunction*%
%TD*%
%TA.AperFunction,Conductor*%
%TO.N,Net-(U1-SW1)*%
G36*
X30156810Y29596715D02*
G01*
X30162656Y29592718D01*
X30230465Y29543452D01*
X30230470Y29543449D01*
X30403392Y29466458D01*
X30403397Y29466456D01*
X30588554Y29427100D01*
X30588555Y29427100D01*
X30732238Y29427100D01*
X30799277Y29407415D01*
X30819919Y29390781D01*
X31192981Y29017719D01*
X31226466Y28956396D01*
X31229300Y28930038D01*
X31229300Y21361962D01*
X31209615Y21294923D01*
X31192981Y21274281D01*
X29995619Y20076919D01*
X29934296Y20043434D01*
X29907938Y20040600D01*
X28178300Y20040600D01*
X28111261Y20060285D01*
X28065506Y20113089D01*
X28054300Y20164600D01*
X28054300Y20700438D01*
X28073985Y20767477D01*
X28090619Y20788119D01*
X28664462Y21361962D01*
X29705300Y22402800D01*
X29705300Y23012400D01*
X25652219Y27065481D01*
X25618734Y27126804D01*
X25615900Y27153162D01*
X25615900Y27544565D01*
X25635585Y27611604D01*
X25688389Y27657359D01*
X25739900Y27668565D01*
X27903170Y27668565D01*
X27903171Y27668565D01*
X27989224Y27686857D01*
X27990659Y27687153D01*
X28071191Y27703170D01*
X28071196Y27703172D01*
X28077020Y27704938D01*
X28077153Y27704497D01*
X28087844Y27707818D01*
X28087929Y27707837D01*
X28088328Y27707921D01*
X28162603Y27740992D01*
X28165504Y27742237D01*
X28173803Y27745674D01*
X28235072Y27771052D01*
X28236164Y27771782D01*
X28254624Y27781962D01*
X28261255Y27784914D01*
X28321564Y27828732D01*
X28325491Y27831470D01*
X28382561Y27869601D01*
X28388260Y27875302D01*
X28403058Y27887941D01*
X28414396Y27896177D01*
X28459796Y27946600D01*
X28464228Y27951270D01*
X28512464Y27999505D01*
X28521969Y28013733D01*
X28532928Y28027820D01*
X28541055Y28036846D01*
X28541054Y28036846D01*
X28541058Y28036849D01*
X28562185Y28073445D01*
X28566445Y28080297D01*
X28611013Y28146993D01*
X28624058Y28178491D01*
X28631233Y28193040D01*
X28635704Y28200781D01*
X28642981Y28223181D01*
X28646332Y28232264D01*
X28678895Y28310874D01*
X28689181Y28362592D01*
X28692866Y28376708D01*
X28694199Y28380809D01*
X28695167Y28390027D01*
X28696867Y28401232D01*
X28713500Y28484849D01*
X28713500Y28557950D01*
X28713985Y28567208D01*
X28713985Y28570923D01*
X28713500Y28580178D01*
X28713500Y29492400D01*
X28733185Y29559439D01*
X28785989Y29605194D01*
X28837500Y29616400D01*
X30089771Y29616400D01*
X30156810Y29596715D01*
G37*
%TD.AperFunction*%
%TD*%
%TA.AperFunction,Conductor*%
%TO.N,GND1*%
G36*
X68954839Y40823515D02*
G01*
X69000594Y40770711D01*
X69011800Y40719200D01*
X69011800Y34188962D01*
X68992115Y34121923D01*
X68975481Y34101281D01*
X68680281Y33806081D01*
X68618958Y33772596D01*
X68549266Y33777580D01*
X68493333Y33819452D01*
X68468916Y33884916D01*
X68468600Y33893762D01*
X68468600Y35531266D01*
X68488285Y35598305D01*
X68490550Y35601706D01*
X68506973Y35625499D01*
X68542918Y35677574D01*
X68603240Y35836632D01*
X68623745Y36005504D01*
X68603240Y36174376D01*
X68542918Y36333434D01*
X68446283Y36473433D01*
X68351416Y36557478D01*
X68318949Y36586241D01*
X68168326Y36665294D01*
X68003156Y36706004D01*
X67833044Y36706004D01*
X67667873Y36665294D01*
X67517250Y36586241D01*
X67389916Y36473432D01*
X67293282Y36333436D01*
X67232960Y36174379D01*
X67232959Y36174374D01*
X67212455Y36005504D01*
X67232959Y35836635D01*
X67232960Y35836630D01*
X67293282Y35677573D01*
X67345650Y35601706D01*
X67367533Y35535352D01*
X67367600Y35531266D01*
X67367600Y33932887D01*
X67347915Y33865848D01*
X67331281Y33845206D01*
X66191918Y32705844D01*
X66133912Y32673128D01*
X66028017Y32647027D01*
X65958215Y32650096D01*
X65901153Y32690416D01*
X65896292Y32696984D01*
X65806183Y32827529D01*
X65678852Y32940334D01*
X65678849Y32940337D01*
X65528226Y33019390D01*
X65363056Y33060100D01*
X65192944Y33060100D01*
X65027773Y33019390D01*
X64877150Y32940337D01*
X64749816Y32827528D01*
X64653182Y32687532D01*
X64592860Y32528475D01*
X64592859Y32528470D01*
X64572355Y32359600D01*
X64592859Y32190731D01*
X64592860Y32190726D01*
X64653182Y32031669D01*
X64749815Y31891673D01*
X64749816Y31891672D01*
X64749817Y31891671D01*
X64785727Y31859858D01*
X64822853Y31800671D01*
X64826407Y31774947D01*
X64826439Y31774951D01*
X64827081Y31770074D01*
X64827500Y31767043D01*
X64827500Y31766892D01*
X64851712Y31676528D01*
X64858200Y31652315D01*
X64858200Y31652314D01*
X64858201Y31652313D01*
X64917511Y31549586D01*
X64917513Y31549584D01*
X65369015Y31098081D01*
X65402500Y31036758D01*
X65397516Y30967066D01*
X65355644Y30911133D01*
X65290180Y30886716D01*
X65281334Y30886400D01*
X64315465Y30886400D01*
X64248426Y30906085D01*
X64227784Y30922719D01*
X59668819Y35481684D01*
X59635334Y35543007D01*
X59632500Y35569365D01*
X59632500Y36355907D01*
X59632500Y36355909D01*
X59601799Y36470486D01*
X59592347Y36486857D01*
X59592345Y36486861D01*
X59592345Y36486862D01*
X59542492Y36573210D01*
X59542488Y36573215D01*
X58348116Y37767587D01*
X58314631Y37828910D01*
X58312996Y37863898D01*
X58312845Y37863898D01*
X58312845Y37867135D01*
X58312701Y37870216D01*
X58312845Y37871400D01*
X58292340Y38040272D01*
X58232018Y38199330D01*
X58232011Y38199340D01*
X58231232Y38200826D01*
X58230987Y38202047D01*
X58229358Y38206343D01*
X58230072Y38206614D01*
X58217505Y38269334D01*
X58242996Y38334388D01*
X58299610Y38375334D01*
X58369375Y38379171D01*
X58398653Y38368251D01*
X58499731Y38315201D01*
X58525375Y38301742D01*
X58690544Y38261032D01*
X58860656Y38261032D01*
X59025825Y38301742D01*
X59152546Y38368251D01*
X59176449Y38380796D01*
X59176450Y38380798D01*
X59176452Y38380798D01*
X59303783Y38493603D01*
X59400418Y38633602D01*
X59400418Y38633603D01*
X59402998Y38637340D01*
X59457281Y38681330D01*
X59505048Y38690900D01*
X63150464Y38690900D01*
X63217503Y38671215D01*
X63263258Y38618411D01*
X63271099Y38590575D01*
X63271575Y38590692D01*
X63273370Y38583406D01*
X63333692Y38424349D01*
X63392378Y38339329D01*
X63430327Y38284351D01*
X63524608Y38200826D01*
X63557660Y38171544D01*
X63708283Y38092491D01*
X63708285Y38092490D01*
X63873454Y38051780D01*
X64043566Y38051780D01*
X64208735Y38092490D01*
X64288202Y38134199D01*
X64359359Y38171544D01*
X64359360Y38171546D01*
X64359362Y38171546D01*
X64486693Y38284351D01*
X64583328Y38424350D01*
X64643650Y38583408D01*
X64664155Y38752280D01*
X64643650Y38921152D01*
X64583328Y39080210D01*
X64565485Y39106060D01*
X64543602Y39172414D01*
X64561067Y39240066D01*
X64612335Y39287536D01*
X64667535Y39300500D01*
X66591127Y39300500D01*
X66591128Y39300500D01*
X66681492Y39324714D01*
X66705706Y39331201D01*
X66808433Y39390511D01*
X68224803Y40806881D01*
X68286126Y40840366D01*
X68312484Y40843200D01*
X68887800Y40843200D01*
X68954839Y40823515D01*
G37*
%TD.AperFunction*%
%TD*%
%TA.AperFunction,Conductor*%
%TO.N,GND*%
G36*
X48396697Y36611697D02*
G01*
X48541484Y36580921D01*
X48541489Y36580921D01*
X48564499Y36580921D01*
X48632620Y36560919D01*
X48653594Y36544016D01*
X51703280Y33494331D01*
X51793887Y33403724D01*
X51900429Y33332535D01*
X52018812Y33283499D01*
X52144487Y33258500D01*
X53678375Y33258500D01*
X53746496Y33238498D01*
X53752436Y33234436D01*
X53903267Y33124851D01*
X53903267Y33124850D01*
X53910266Y33121734D01*
X54076197Y33047856D01*
X54261354Y33008500D01*
X54450646Y33008500D01*
X54635803Y33047856D01*
X54663852Y33060345D01*
X54734216Y33069779D01*
X54798514Y33039674D01*
X54836328Y32979586D01*
X54841100Y32945238D01*
X54841100Y31267951D01*
X54843995Y31213943D01*
X54843998Y31213911D01*
X54846827Y31187594D01*
X54846828Y31187586D01*
X54846829Y31187575D01*
X54846831Y31187564D01*
X54855486Y31134152D01*
X54855487Y31134148D01*
X54855488Y31134145D01*
X54905764Y30999352D01*
X54905767Y30999345D01*
X54938171Y30940000D01*
X54939253Y30938020D01*
X55025477Y30822839D01*
X55283039Y30565277D01*
X55323300Y30529112D01*
X55343942Y30512478D01*
X55387826Y30480833D01*
X55387829Y30480832D01*
X55387830Y30480831D01*
X55518697Y30421064D01*
X55518701Y30421063D01*
X55518703Y30421062D01*
X55585742Y30401377D01*
X55585746Y30401376D01*
X55728162Y30380900D01*
X59617133Y30380900D01*
X59617135Y30380900D01*
X59635181Y30381222D01*
X59644027Y30381538D01*
X59662044Y30382504D01*
X59802627Y30413086D01*
X59802628Y30413086D01*
X59802629Y30413087D01*
X59802636Y30413088D01*
X59868100Y30437505D01*
X59924026Y30468043D01*
X59993396Y30483134D01*
X60059917Y30458324D01*
X60073504Y30446550D01*
X65098595Y25421459D01*
X65132621Y25359147D01*
X65135500Y25332364D01*
X65135500Y20122637D01*
X65115498Y20054516D01*
X65098595Y20033542D01*
X59739657Y14674605D01*
X59677345Y14640579D01*
X59650562Y14637700D01*
X58397935Y14637700D01*
X58397914Y14637698D01*
X58338319Y14631292D01*
X58338318Y14631292D01*
X58203473Y14580999D01*
X58203470Y14580997D01*
X58088253Y14494747D01*
X58002003Y14379530D01*
X58002001Y14379527D01*
X57951709Y14244685D01*
X57945300Y14185079D01*
X57945300Y14075500D01*
X57925298Y14007379D01*
X57871642Y13960886D01*
X57819300Y13949500D01*
X54448699Y13949500D01*
X54380578Y13969502D01*
X54334085Y14023158D01*
X54322699Y14075500D01*
X54322699Y14185065D01*
X54322699Y14185072D01*
X54316291Y14244683D01*
X54268376Y14373151D01*
X54265998Y14379527D01*
X54265996Y14379530D01*
X54265996Y14379531D01*
X54213133Y14450147D01*
X54179746Y14494747D01*
X54102791Y14552355D01*
X54064531Y14580996D01*
X54064529Y14580997D01*
X54064526Y14580999D01*
X53929683Y14631291D01*
X53929686Y14631291D01*
X53870073Y14637700D01*
X52097935Y14637700D01*
X52097914Y14637698D01*
X52038319Y14631292D01*
X52038318Y14631292D01*
X51903473Y14580999D01*
X51903470Y14580997D01*
X51804294Y14506754D01*
X51737774Y14481943D01*
X51668400Y14497034D01*
X51624020Y14537620D01*
X51583969Y14597560D01*
X51577139Y14607782D01*
X51437782Y14747139D01*
X51437781Y14747140D01*
X48281405Y17903516D01*
X48247379Y17965828D01*
X48244500Y17992611D01*
X48244500Y19910545D01*
X48967500Y19910545D01*
X48967500Y19713456D01*
X49005949Y19520165D01*
X49005950Y19520162D01*
X49032852Y19455215D01*
X49081368Y19338086D01*
X49190861Y19174218D01*
X49330218Y19034861D01*
X49494086Y18925368D01*
X49676165Y18849949D01*
X49869459Y18811500D01*
X57248536Y18811500D01*
X57248540Y18811500D01*
X57248541Y18811500D01*
X57345188Y18830725D01*
X57441836Y18849949D01*
X57476721Y18864400D01*
X57495156Y18872035D01*
X57495159Y18872037D01*
X57495165Y18872039D01*
X57623914Y18925368D01*
X57787782Y19034861D01*
X57927139Y19174218D01*
X57927140Y19174221D01*
X57934316Y19181396D01*
X57934322Y19181404D01*
X60086139Y21333219D01*
X60195631Y21497086D01*
X60271051Y21679164D01*
X60309500Y21872460D01*
X60309500Y22069540D01*
X60271051Y22262836D01*
X60195631Y22444914D01*
X60086139Y22608781D01*
X59946781Y22748139D01*
X59782914Y22857631D01*
X59600837Y22933051D01*
X59407542Y22971500D01*
X59407540Y22971500D01*
X59210460Y22971500D01*
X59210457Y22971500D01*
X59017162Y22933051D01*
X59017161Y22933050D01*
X58835084Y22857630D01*
X58671220Y22748140D01*
X58671214Y22748135D01*
X56772485Y20849405D01*
X56710173Y20815379D01*
X56683390Y20812500D01*
X49869455Y20812500D01*
X49676164Y20774051D01*
X49676161Y20774050D01*
X49494085Y20698632D01*
X49330222Y20589142D01*
X49330215Y20589137D01*
X49190863Y20449785D01*
X49190858Y20449778D01*
X49081368Y20285915D01*
X49005950Y20103839D01*
X49005949Y20103836D01*
X48967500Y19910545D01*
X48244500Y19910545D01*
X48244500Y36488451D01*
X48264502Y36556572D01*
X48318158Y36603065D01*
X48388432Y36613169D01*
X48396697Y36611697D01*
G37*
%TD.AperFunction*%
%TA.AperFunction,Conductor*%
G36*
X45273153Y31803041D02*
G01*
X45329989Y31760494D01*
X45354800Y31693974D01*
X45339709Y31624600D01*
X45338241Y31621987D01*
X45316822Y31584889D01*
X45316818Y31584879D01*
X45258325Y31404857D01*
X45238540Y31216600D01*
X45258325Y31028345D01*
X45316822Y30848313D01*
X45333618Y30819223D01*
X45350500Y30756221D01*
X45350500Y26575858D01*
X45330498Y26507737D01*
X45313595Y26486763D01*
X38537237Y19710405D01*
X38474925Y19676379D01*
X38448142Y19673500D01*
X35152975Y19673500D01*
X35084854Y19693502D01*
X35038361Y19747158D01*
X35028257Y19817432D01*
X35038360Y19851840D01*
X35085538Y19955141D01*
X35105223Y20022180D01*
X35105224Y20022184D01*
X35125700Y20164600D01*
X35125700Y20700438D01*
X35125700Y20700444D01*
X35125700Y20700450D01*
X35122804Y20754458D01*
X35122803Y20754478D01*
X35119969Y20780836D01*
X35111314Y20834248D01*
X35061032Y20969057D01*
X35027547Y21030380D01*
X34941323Y21145561D01*
X33511604Y22575280D01*
X33477579Y22637591D01*
X33474700Y22664374D01*
X33474700Y24198626D01*
X33494702Y24266747D01*
X33511605Y24287721D01*
X36668509Y27444624D01*
X36668519Y27444634D01*
X36668523Y27444638D01*
X36704688Y27484900D01*
X36721322Y27505542D01*
X36752967Y27549426D01*
X36812738Y27680303D01*
X36832423Y27747342D01*
X36832424Y27747346D01*
X36852900Y27889762D01*
X36852900Y28243000D01*
X36872902Y28311121D01*
X36926558Y28357614D01*
X36978900Y28369000D01*
X41529564Y28369000D01*
X41529569Y28369000D01*
X41655244Y28393999D01*
X41773627Y28443035D01*
X41800810Y28461198D01*
X41880169Y28514223D01*
X45140026Y31774080D01*
X45202338Y31808106D01*
X45273153Y31803041D01*
G37*
%TD.AperFunction*%
%TA.AperFunction,Conductor*%
G36*
X42044110Y37032200D02*
G01*
X42100946Y36989653D01*
X42109197Y36977144D01*
X42193465Y36831186D01*
X42193466Y36831184D01*
X42320126Y36690514D01*
X42470969Y36580921D01*
X42473270Y36579249D01*
X42553780Y36543404D01*
X42607876Y36497424D01*
X42628526Y36429497D01*
X42628532Y36428297D01*
X42628532Y32624890D01*
X42608530Y32556769D01*
X42596168Y32540580D01*
X42546498Y32485417D01*
X42546497Y32485415D01*
X42451854Y32321487D01*
X42451850Y32321479D01*
X42393357Y32141457D01*
X42373572Y31953200D01*
X42393357Y31764944D01*
X42451850Y31584922D01*
X42451854Y31584914D01*
X42546496Y31420988D01*
X42546497Y31420986D01*
X42546499Y31420984D01*
X42561020Y31404857D01*
X42656265Y31299076D01*
X42686982Y31235068D01*
X42678217Y31164615D01*
X42651723Y31125671D01*
X41232957Y29706904D01*
X41170647Y29672880D01*
X41143864Y29670000D01*
X34816412Y29670000D01*
X34771732Y29678188D01*
X34768827Y29679290D01*
X34603659Y29720000D01*
X34603656Y29720000D01*
X34506380Y29720000D01*
X34438259Y29740002D01*
X34400382Y29777879D01*
X34365171Y29832667D01*
X34338002Y29874943D01*
X34338001Y29874944D01*
X34338000Y29874946D01*
X34337999Y29874948D01*
X34292250Y29927744D01*
X34289150Y29930430D01*
X34183513Y30021967D01*
X34183511Y30021968D01*
X34052638Y30081738D01*
X33985602Y30101422D01*
X33985588Y30101425D01*
X33843182Y30121900D01*
X33843177Y30121900D01*
X32673629Y30121900D01*
X32673622Y30121900D01*
X32659228Y30121695D01*
X32652508Y30121503D01*
X32652131Y30121492D01*
X32652129Y30121492D01*
X32652097Y30121491D01*
X32637682Y30120873D01*
X32496680Y30092302D01*
X32430868Y30068820D01*
X32342074Y30021968D01*
X32303627Y30001682D01*
X32303625Y30001681D01*
X32303620Y30001678D01*
X32300185Y29999539D01*
X32233587Y29980500D01*
X32101352Y29980500D01*
X32015365Y29962224D01*
X32013753Y29961892D01*
X31980374Y29955252D01*
X31933334Y29945895D01*
X31933332Y29945895D01*
X31933326Y29945893D01*
X31927414Y29944100D01*
X31927278Y29944547D01*
X31916535Y29941216D01*
X31916198Y29941145D01*
X31914926Y29940578D01*
X31912151Y29939830D01*
X31909922Y29939105D01*
X31909885Y29939219D01*
X31877312Y29930430D01*
X31813760Y29923520D01*
X31678943Y29873237D01*
X31619636Y29840853D01*
X31618131Y29840067D01*
X31617620Y29839751D01*
X31502447Y29753533D01*
X31433327Y29684413D01*
X31371014Y29650388D01*
X31300199Y29655454D01*
X31250595Y29689199D01*
X31241869Y29698890D01*
X31230658Y29707035D01*
X31215623Y29719876D01*
X31210035Y29725464D01*
X31210034Y29725465D01*
X31210033Y29725466D01*
X31188881Y29739599D01*
X31174687Y29750625D01*
X31137100Y29784388D01*
X31116458Y29801022D01*
X31072574Y29832667D01*
X31072571Y29832669D01*
X31072569Y29832670D01*
X30941702Y29892437D01*
X30874663Y29912122D01*
X30874649Y29912125D01*
X30732243Y29932600D01*
X30732238Y29932600D01*
X30654929Y29932600D01*
X30628731Y29935354D01*
X30573416Y29947112D01*
X30548364Y29955252D01*
X30496704Y29978253D01*
X30473896Y29991421D01*
X30459781Y30001676D01*
X30447963Y30010007D01*
X30445696Y30011557D01*
X30442112Y30014008D01*
X30430109Y30021966D01*
X30430107Y30021968D01*
X30299232Y30081738D01*
X30232196Y30101422D01*
X30232182Y30101425D01*
X30089776Y30121900D01*
X30089771Y30121900D01*
X28839500Y30121900D01*
X28771379Y30141902D01*
X28724886Y30195558D01*
X28713500Y30247900D01*
X28713500Y31323811D01*
X28733502Y31391932D01*
X28750400Y31412902D01*
X28999659Y31662161D01*
X29014689Y31674997D01*
X29025902Y31683143D01*
X29071279Y31733541D01*
X29075763Y31738266D01*
X29119494Y31781995D01*
X29127640Y31794188D01*
X29138761Y31808486D01*
X29152564Y31823815D01*
X29183105Y31876716D01*
X29187426Y31883665D01*
X29218043Y31929484D01*
X29226236Y31949266D01*
X29233521Y31964040D01*
X29247210Y31987747D01*
X29264002Y32039430D01*
X29267410Y32048668D01*
X29285925Y32093365D01*
X29291416Y32120976D01*
X29295158Y32135317D01*
X29305705Y32167775D01*
X29310680Y32215117D01*
X29312405Y32226497D01*
X29320530Y32267339D01*
X29320530Y32302225D01*
X29321220Y32315395D01*
X29322023Y32323036D01*
X29325491Y32356031D01*
X29321220Y32396668D01*
X29320530Y32409838D01*
X29320530Y32444718D01*
X29320530Y32444722D01*
X29312407Y32485555D01*
X29310678Y32496960D01*
X29306094Y32540580D01*
X29305705Y32544287D01*
X29295159Y32576742D01*
X29291416Y32591090D01*
X29285925Y32618695D01*
X29285925Y32618697D01*
X29267407Y32663401D01*
X29264002Y32672633D01*
X29247210Y32724315D01*
X29247209Y32724317D01*
X29233524Y32748020D01*
X29226234Y32762802D01*
X29226192Y32762902D01*
X29218043Y32782577D01*
X29187439Y32828380D01*
X29183104Y32835350D01*
X29152564Y32888247D01*
X29138761Y32903576D01*
X29127637Y32917879D01*
X29119494Y32930066D01*
X29075788Y32973772D01*
X29071266Y32978537D01*
X29070321Y32979586D01*
X29025902Y33028919D01*
X29025899Y33028921D01*
X29014682Y33037071D01*
X28999648Y33049912D01*
X28994070Y33055490D01*
X28994066Y33055494D01*
X28937085Y33093567D01*
X28933035Y33096390D01*
X28872760Y33140183D01*
X28866267Y33143074D01*
X28847534Y33153405D01*
X28846584Y33154040D01*
X28846575Y33154045D01*
X28777099Y33182823D01*
X28774070Y33184124D01*
X28699837Y33217174D01*
X28699829Y33217177D01*
X28699493Y33217248D01*
X28688754Y33220576D01*
X28688619Y33220129D01*
X28682698Y33221925D01*
X28602371Y33237903D01*
X28600757Y33238235D01*
X28514678Y33256531D01*
X28514677Y33256531D01*
X28325385Y33256531D01*
X28325384Y33256531D01*
X28239310Y33238236D01*
X28237696Y33237904D01*
X28157360Y33221924D01*
X28151442Y33220129D01*
X28151306Y33220577D01*
X28140568Y33217248D01*
X28140231Y33217177D01*
X28140227Y33217176D01*
X28066030Y33184141D01*
X28063002Y33182840D01*
X27993489Y33154046D01*
X27993479Y33154041D01*
X27992524Y33153402D01*
X27973800Y33143077D01*
X27967309Y33140187D01*
X27967293Y33140178D01*
X27907047Y33096407D01*
X27902992Y33093580D01*
X27845992Y33055493D01*
X27840396Y33049897D01*
X27825373Y33037067D01*
X27814161Y33028921D01*
X27814160Y33028921D01*
X27768812Y32978556D01*
X27764271Y32973772D01*
X27113539Y32323041D01*
X27113533Y32323033D01*
X27085537Y32281132D01*
X27085536Y32281130D01*
X27014987Y32175547D01*
X26981046Y32093607D01*
X26965417Y32055876D01*
X26947107Y32011672D01*
X26947105Y32011667D01*
X26917519Y31862926D01*
X26884611Y31800017D01*
X26822916Y31764885D01*
X26752021Y31768685D01*
X26694435Y31810211D01*
X26684820Y31824509D01*
X26675380Y31840860D01*
X26658500Y31903859D01*
X26658500Y32849960D01*
X26678502Y32918081D01*
X26695405Y32939055D01*
X29163939Y35407589D01*
X29226251Y35441615D01*
X29253034Y35444494D01*
X33472513Y35444494D01*
X33540634Y35424492D01*
X33546575Y35420429D01*
X33559765Y35410846D01*
X33559767Y35410844D01*
X33607112Y35389765D01*
X33732697Y35333850D01*
X33917854Y35294494D01*
X34107146Y35294494D01*
X34292303Y35333850D01*
X34309746Y35341617D01*
X34380111Y35351053D01*
X34444409Y35320948D01*
X34482224Y35260860D01*
X34486996Y35226511D01*
X34486996Y33645030D01*
X34466994Y33576909D01*
X34454633Y33560721D01*
X34439794Y33544242D01*
X34439789Y33544234D01*
X34345145Y33380306D01*
X34345142Y33380299D01*
X34286649Y33200277D01*
X34266864Y33012020D01*
X34286649Y32823764D01*
X34345142Y32643742D01*
X34345146Y32643734D01*
X34439789Y32479806D01*
X34439790Y32479804D01*
X34566450Y32339134D01*
X34719591Y32227871D01*
X34719591Y32227870D01*
X34766936Y32206791D01*
X34892521Y32150876D01*
X35077678Y32111520D01*
X35266970Y32111520D01*
X35452127Y32150876D01*
X35625054Y32227869D01*
X35625054Y32227870D01*
X35625056Y32227870D01*
X35625056Y32227871D01*
X35778195Y32339132D01*
X35840872Y32408741D01*
X35904857Y32479804D01*
X35904858Y32479806D01*
X35999503Y32643736D01*
X36007369Y32667943D01*
X36044615Y32782577D01*
X36050541Y32800817D01*
X36090614Y32859421D01*
X36144176Y32885126D01*
X36267299Y32911296D01*
X36440226Y32988289D01*
X36440226Y32988290D01*
X36440228Y32988290D01*
X36440228Y32988291D01*
X36591060Y33097877D01*
X36657928Y33121734D01*
X36665121Y33121940D01*
X37824304Y33121940D01*
X37824309Y33121940D01*
X37949984Y33146939D01*
X38068367Y33195975D01*
X38097536Y33215465D01*
X38174909Y33267163D01*
X41910985Y37003241D01*
X41973295Y37037264D01*
X42044110Y37032200D01*
G37*
%TD.AperFunction*%
%TA.AperFunction,Conductor*%
G36*
X38217260Y40350498D02*
G01*
X38263753Y40296842D01*
X38274449Y40231330D01*
X38261340Y40106601D01*
X38281125Y39918344D01*
X38339618Y39738322D01*
X38339622Y39738314D01*
X38434265Y39574386D01*
X38434266Y39574384D01*
X38560926Y39433714D01*
X38714067Y39322451D01*
X38714067Y39322450D01*
X38726634Y39316855D01*
X38886997Y39245456D01*
X39072154Y39206100D01*
X39261446Y39206100D01*
X39446603Y39245456D01*
X39619530Y39322449D01*
X39619530Y39322450D01*
X39619532Y39322450D01*
X39619532Y39322451D01*
X39772671Y39433712D01*
X39807854Y39472786D01*
X39899333Y39574384D01*
X39899334Y39574386D01*
X39993979Y39738316D01*
X40006040Y39775438D01*
X40046112Y39834041D01*
X40111509Y39861679D01*
X40125873Y39862500D01*
X41145345Y39862500D01*
X41213466Y39842498D01*
X41259959Y39788842D01*
X41270063Y39718568D01*
X41265178Y39697564D01*
X41252925Y39659856D01*
X41233140Y39471598D01*
X41252925Y39283342D01*
X41311418Y39103320D01*
X41311422Y39103312D01*
X41406065Y38939384D01*
X41406066Y38939382D01*
X41532726Y38798712D01*
X41606731Y38744944D01*
X41650085Y38688722D01*
X41656160Y38617985D01*
X41623028Y38555194D01*
X41621765Y38553913D01*
X37527699Y34459845D01*
X37465387Y34425820D01*
X37438604Y34422940D01*
X36665121Y34422940D01*
X36597000Y34442942D01*
X36591060Y34447004D01*
X36440228Y34556590D01*
X36440228Y34556591D01*
X36314641Y34612506D01*
X36267299Y34633584D01*
X36267297Y34633585D01*
X36267296Y34633585D01*
X36082142Y34672940D01*
X35913996Y34672940D01*
X35845875Y34692942D01*
X35799382Y34746598D01*
X35787996Y34798940D01*
X35787996Y37305058D01*
X35807998Y37373179D01*
X35824901Y37394153D01*
X36710942Y38280194D01*
X36773254Y38314220D01*
X36800037Y38317099D01*
X36823047Y38317099D01*
X37008204Y38356455D01*
X37181131Y38433448D01*
X37181131Y38433449D01*
X37181133Y38433449D01*
X37181133Y38433450D01*
X37334272Y38544711D01*
X37365595Y38579498D01*
X37460934Y38685383D01*
X37460935Y38685385D01*
X37555580Y38849315D01*
X37614075Y39029343D01*
X37633861Y39217599D01*
X37614075Y39405855D01*
X37614075Y39405856D01*
X37555582Y39585878D01*
X37555578Y39585886D01*
X37460935Y39749814D01*
X37460934Y39749816D01*
X37334274Y39890486D01*
X37181133Y40001749D01*
X37181133Y40001750D01*
X37040856Y40064205D01*
X37008204Y40078743D01*
X37008202Y40078744D01*
X37008201Y40078744D01*
X36823047Y40118099D01*
X36633755Y40118099D01*
X36633753Y40118099D01*
X36514284Y40092706D01*
X36443493Y40098109D01*
X36386861Y40140926D01*
X36362368Y40207564D01*
X36377790Y40276865D01*
X36398987Y40305043D01*
X36427544Y40333599D01*
X36489855Y40367621D01*
X36516636Y40370500D01*
X38149139Y40370500D01*
X38217260Y40350498D01*
G37*
%TD.AperFunction*%
%TA.AperFunction,Conductor*%
G36*
X86037621Y65755498D02*
G01*
X86084114Y65701842D01*
X86095500Y65649500D01*
X86095500Y5470500D01*
X86075498Y5402379D01*
X86021842Y5355886D01*
X85969500Y5344500D01*
X5470500Y5344500D01*
X5402379Y5364502D01*
X5355886Y5418158D01*
X5344500Y5470500D01*
X5344500Y10160004D01*
X6154675Y10160004D01*
X6154675Y10159997D01*
X6173962Y9767413D01*
X6173963Y9767399D01*
X6214560Y9493720D01*
X6231636Y9378600D01*
X6288521Y9151503D01*
X6327144Y8997311D01*
X6448289Y8658734D01*
X6459562Y8627228D01*
X6627619Y8271903D01*
X6627621Y8271900D01*
X6829696Y7934757D01*
X7063834Y7619058D01*
X7063841Y7619050D01*
X7063842Y7619049D01*
X7327808Y7327808D01*
X7619049Y7063842D01*
X7619057Y7063835D01*
X7934756Y6829697D01*
X7934760Y6829695D01*
X7934761Y6829694D01*
X8271903Y6627619D01*
X8627228Y6459562D01*
X8997316Y6327143D01*
X9378600Y6231636D01*
X9767409Y6173962D01*
X10102590Y6157496D01*
X10159996Y6154675D01*
X10160000Y6154675D01*
X10160004Y6154675D01*
X10215384Y6157396D01*
X10552591Y6173962D01*
X10941400Y6231636D01*
X11322684Y6327143D01*
X11692772Y6459562D01*
X12048097Y6627619D01*
X12385239Y6829694D01*
X12700951Y7063842D01*
X12992192Y7327808D01*
X13256158Y7619049D01*
X13329895Y7718471D01*
X13490303Y7934757D01*
X13490302Y7934757D01*
X13490306Y7934761D01*
X13692381Y8271903D01*
X13860438Y8627228D01*
X13992857Y8997316D01*
X14088364Y9378600D01*
X14146038Y9767409D01*
X14164229Y10137699D01*
X14165325Y10159997D01*
X14165325Y10160004D01*
X14162504Y10217410D01*
X14146038Y10552591D01*
X14088364Y10941400D01*
X13992857Y11322684D01*
X13992698Y11323127D01*
X13970311Y11385695D01*
X13860438Y11692772D01*
X13692381Y12048097D01*
X13490306Y12385239D01*
X13490305Y12385240D01*
X13490303Y12385244D01*
X13256165Y12700943D01*
X13094329Y12879501D01*
X12992192Y12992192D01*
X12700951Y13256158D01*
X12700950Y13256159D01*
X12700942Y13256166D01*
X12385243Y13490304D01*
X12048100Y13692379D01*
X12048101Y13692379D01*
X12048097Y13692381D01*
X11692772Y13860438D01*
X11647882Y13876500D01*
X11322689Y13992856D01*
X11201716Y14023158D01*
X10941400Y14088364D01*
X10912816Y14092604D01*
X10552601Y14146037D01*
X10552594Y14146038D01*
X10552591Y14146038D01*
X10356295Y14155682D01*
X10160004Y14165325D01*
X10159996Y14165325D01*
X9935662Y14154304D01*
X9767409Y14146038D01*
X9767406Y14146038D01*
X9767398Y14146037D01*
X9378606Y14088365D01*
X9378604Y14088365D01*
X9378600Y14088364D01*
X9187958Y14040611D01*
X8997310Y13992856D01*
X8627230Y13860439D01*
X8627228Y13860438D01*
X8315636Y13713065D01*
X8271899Y13692379D01*
X7934756Y13490304D01*
X7619057Y13256166D01*
X7327808Y12992192D01*
X7063834Y12700943D01*
X6829696Y12385244D01*
X6627621Y12048101D01*
X6627619Y12048097D01*
X6555839Y11896332D01*
X6459561Y11692770D01*
X6327144Y11322690D01*
X6289669Y11173079D01*
X6231636Y10941400D01*
X6231635Y10941396D01*
X6231635Y10941394D01*
X6173963Y10552602D01*
X6173962Y10552588D01*
X6154675Y10160004D01*
X5344500Y10160004D01*
X5344500Y15228879D01*
X17550000Y15228879D01*
X17550000Y11323136D01*
X17550002Y11323115D01*
X17556408Y11263520D01*
X17556408Y11263519D01*
X17606701Y11128674D01*
X17606703Y11128671D01*
X17692953Y11013454D01*
X17750561Y10970329D01*
X17808169Y10927204D01*
X17808171Y10927204D01*
X17808173Y10927202D01*
X17868530Y10904691D01*
X17943014Y10876910D01*
X17943017Y10876909D01*
X18002627Y10870500D01*
X21908372Y10870501D01*
X21967983Y10876909D01*
X22102831Y10927204D01*
X22218046Y11013454D01*
X22304296Y11128669D01*
X22320860Y11173079D01*
X22337444Y11217543D01*
X22379990Y11274379D01*
X22446510Y11299191D01*
X22515884Y11284100D01*
X22566087Y11233898D01*
X22573556Y11217543D01*
X22606701Y11128674D01*
X22606703Y11128671D01*
X22692953Y11013454D01*
X22750561Y10970329D01*
X22808169Y10927204D01*
X22808171Y10927204D01*
X22808173Y10927202D01*
X22868530Y10904691D01*
X22943014Y10876910D01*
X22943017Y10876909D01*
X23002627Y10870500D01*
X26908372Y10870501D01*
X26967983Y10876909D01*
X27102831Y10927204D01*
X27218046Y11013454D01*
X27304296Y11128669D01*
X27354591Y11263517D01*
X27361000Y11323127D01*
X27360999Y13713079D01*
X36456500Y13713079D01*
X36456500Y12093336D01*
X36456502Y12093315D01*
X36462908Y12033720D01*
X36462908Y12033719D01*
X36513201Y11898874D01*
X36513203Y11898871D01*
X36513204Y11898869D01*
X36556086Y11841586D01*
X36599452Y11783656D01*
X36599453Y11783656D01*
X36599454Y11783654D01*
X36665693Y11734067D01*
X36708239Y11677232D01*
X36713303Y11606416D01*
X36679278Y11544104D01*
X36665697Y11532337D01*
X36642386Y11514885D01*
X36599452Y11482745D01*
X36513203Y11367530D01*
X36513201Y11367527D01*
X36462909Y11232685D01*
X36456500Y11173079D01*
X36456500Y9553336D01*
X36456502Y9553315D01*
X36462908Y9493720D01*
X36462908Y9493719D01*
X36513201Y9358874D01*
X36513203Y9358871D01*
X36599453Y9243654D01*
X36646809Y9208204D01*
X36714669Y9157404D01*
X36714671Y9157404D01*
X36714673Y9157402D01*
X36775030Y9134891D01*
X36849514Y9107110D01*
X36849517Y9107109D01*
X36909127Y9100700D01*
X38528872Y9100701D01*
X38588483Y9107109D01*
X38723331Y9157404D01*
X38838546Y9243654D01*
X38888133Y9309894D01*
X38944968Y9352440D01*
X39015783Y9357504D01*
X39078095Y9323479D01*
X39089863Y9309898D01*
X39139454Y9243654D01*
X39254669Y9157404D01*
X39254671Y9157404D01*
X39254673Y9157402D01*
X39315030Y9134891D01*
X39389514Y9107110D01*
X39389517Y9107109D01*
X39449127Y9100700D01*
X41068872Y9100701D01*
X41128483Y9107109D01*
X41263331Y9157404D01*
X41378546Y9243654D01*
X41464796Y9358869D01*
X41515091Y9493717D01*
X41521500Y9553327D01*
X41521499Y11173072D01*
X41515091Y11232683D01*
X41481362Y11323115D01*
X41464798Y11367527D01*
X41464796Y11367530D01*
X41464796Y11367531D01*
X41378546Y11482746D01*
X41312306Y11532334D01*
X41269760Y11589168D01*
X41264696Y11659983D01*
X41298721Y11722295D01*
X41312302Y11734064D01*
X41378546Y11783654D01*
X41464796Y11898869D01*
X41515091Y12033717D01*
X41521500Y12093327D01*
X41521499Y13713072D01*
X41515091Y13772683D01*
X41476370Y13876500D01*
X41464798Y13907527D01*
X41464796Y13907530D01*
X41464796Y13907531D01*
X41421671Y13965139D01*
X41378546Y14022747D01*
X41290890Y14088365D01*
X41263331Y14108996D01*
X41263329Y14108997D01*
X41263326Y14108999D01*
X41128483Y14159291D01*
X41128486Y14159291D01*
X41068873Y14165700D01*
X39449135Y14165700D01*
X39449114Y14165698D01*
X39389519Y14159292D01*
X39389518Y14159292D01*
X39254673Y14108999D01*
X39254670Y14108997D01*
X39139455Y14022748D01*
X39139454Y14022746D01*
X39089866Y13956507D01*
X39033032Y13913961D01*
X38962216Y13908897D01*
X38899904Y13942922D01*
X38888136Y13956503D01*
X38838546Y14022746D01*
X38838544Y14022747D01*
X38838544Y14022748D01*
X38768076Y14075500D01*
X38723331Y14108996D01*
X38723329Y14108997D01*
X38723326Y14108999D01*
X38588483Y14159291D01*
X38588486Y14159291D01*
X38528873Y14165700D01*
X36909135Y14165700D01*
X36909114Y14165698D01*
X36849519Y14159292D01*
X36849518Y14159292D01*
X36714673Y14108999D01*
X36714670Y14108997D01*
X36599453Y14022747D01*
X36513203Y13907530D01*
X36513201Y13907527D01*
X36462909Y13772685D01*
X36456500Y13713079D01*
X27360999Y13713079D01*
X27360999Y15228872D01*
X27354591Y15288483D01*
X27333300Y15345565D01*
X27304298Y15423327D01*
X27304296Y15423330D01*
X27304296Y15423331D01*
X27261171Y15480939D01*
X27218046Y15538547D01*
X27141091Y15596155D01*
X27102831Y15624796D01*
X27102829Y15624797D01*
X27102826Y15624799D01*
X26967983Y15675091D01*
X26967986Y15675091D01*
X26908373Y15681500D01*
X23002635Y15681500D01*
X23002614Y15681498D01*
X22943019Y15675092D01*
X22943018Y15675092D01*
X22808173Y15624799D01*
X22808170Y15624797D01*
X22692953Y15538547D01*
X22606703Y15423330D01*
X22606702Y15423329D01*
X22573556Y15334457D01*
X22531010Y15277621D01*
X22464490Y15252810D01*
X22395115Y15267901D01*
X22344913Y15318103D01*
X22337444Y15334457D01*
X22304297Y15423329D01*
X22304296Y15423330D01*
X22304296Y15423331D01*
X22261171Y15480939D01*
X22218046Y15538547D01*
X22141091Y15596155D01*
X22102831Y15624796D01*
X22102829Y15624797D01*
X22102826Y15624799D01*
X21967983Y15675091D01*
X21967986Y15675091D01*
X21908373Y15681500D01*
X18002635Y15681500D01*
X18002614Y15681498D01*
X17943019Y15675092D01*
X17943018Y15675092D01*
X17808173Y15624799D01*
X17808170Y15624797D01*
X17692953Y15538547D01*
X17606703Y15423330D01*
X17606701Y15423327D01*
X17556409Y15288485D01*
X17550000Y15228879D01*
X5344500Y15228879D01*
X5344500Y26064466D01*
X6719500Y26064466D01*
X6719500Y25755535D01*
X6754089Y25448544D01*
X6768695Y25384554D01*
X6822832Y25147364D01*
X6822834Y25147358D01*
X6822833Y25147358D01*
X6924858Y24855789D01*
X6924869Y24855762D01*
X6957022Y24788996D01*
X6969500Y24734327D01*
X6969500Y23862136D01*
X6969502Y23862115D01*
X6975908Y23802520D01*
X6975908Y23802519D01*
X7026201Y23667674D01*
X7026203Y23667671D01*
X7026204Y23667669D01*
X7054845Y23629409D01*
X7112453Y23552454D01*
X7139320Y23532342D01*
X7227669Y23466204D01*
X7227671Y23466204D01*
X7227673Y23466202D01*
X7288030Y23443691D01*
X7362514Y23415910D01*
X7362517Y23415909D01*
X7422127Y23409500D01*
X8294325Y23409501D01*
X8348995Y23397023D01*
X8415774Y23364863D01*
X8707357Y23262834D01*
X8707360Y23262834D01*
X8707364Y23262832D01*
X8930290Y23211951D01*
X9008543Y23194090D01*
X9008544Y23194090D01*
X9008548Y23194089D01*
X9252565Y23166595D01*
X9315534Y23159500D01*
X9315535Y23159500D01*
X14362466Y23159500D01*
X14414717Y23165388D01*
X14669452Y23194089D01*
X14970636Y23262832D01*
X15188131Y23338937D01*
X15262230Y23364865D01*
X15540565Y23498904D01*
X15802143Y23663265D01*
X16043674Y23855880D01*
X24942405Y32754611D01*
X25004717Y32788637D01*
X25075532Y32783572D01*
X25132368Y32741025D01*
X25157179Y32674505D01*
X25157500Y32665516D01*
X25157500Y31903859D01*
X25140620Y31840860D01*
X25080820Y31737284D01*
X25080818Y31737279D01*
X25022325Y31557257D01*
X25002540Y31369000D01*
X25022325Y31180744D01*
X25080818Y31000722D01*
X25080822Y31000714D01*
X25175465Y30836786D01*
X25175466Y30836784D01*
X25302126Y30696114D01*
X25455267Y30584851D01*
X25455267Y30584850D01*
X25456451Y30584323D01*
X25628197Y30507856D01*
X25813354Y30468500D01*
X26002646Y30468500D01*
X26187803Y30507856D01*
X26360730Y30584849D01*
X26360730Y30584850D01*
X26360732Y30584850D01*
X26360732Y30584851D01*
X26513871Y30696112D01*
X26640533Y30836784D01*
X26677380Y30900605D01*
X26728763Y30949599D01*
X26798476Y30963036D01*
X26864387Y30936649D01*
X26905570Y30878817D01*
X26912500Y30837606D01*
X26912500Y29595565D01*
X26892498Y29527444D01*
X26838842Y29480951D01*
X26786500Y29469565D01*
X24797369Y29469565D01*
X24623398Y29434960D01*
X24623393Y29434958D01*
X24541458Y29401020D01*
X24541458Y29401019D01*
X24503723Y29385389D01*
X24459512Y29367076D01*
X24400477Y29327628D01*
X24400476Y29327627D01*
X24326095Y29277927D01*
X24312028Y29268528D01*
X24312021Y29268523D01*
X19747542Y24704044D01*
X19747537Y24704037D01*
X19708063Y24644960D01*
X19648988Y24556549D01*
X19615046Y24474606D01*
X19581107Y24392672D01*
X19581105Y24392665D01*
X19552890Y24250816D01*
X19552890Y24250815D01*
X19546500Y24218694D01*
X19546500Y21897798D01*
X19545810Y21884628D01*
X19541540Y21844001D01*
X19545810Y21803374D01*
X19546500Y21790204D01*
X19546500Y21755304D01*
X19554620Y21714483D01*
X19556351Y21703074D01*
X19561325Y21655745D01*
X19571867Y21623300D01*
X19575611Y21608953D01*
X19581105Y21581337D01*
X19581108Y21581326D01*
X19599610Y21536656D01*
X19603032Y21527382D01*
X19603036Y21527371D01*
X19619821Y21475716D01*
X19619823Y21475712D01*
X19619826Y21475706D01*
X19633501Y21452020D01*
X19640791Y21437239D01*
X19648985Y21417455D01*
X19679597Y21371643D01*
X19683952Y21364638D01*
X19714462Y21311790D01*
X19714465Y21311786D01*
X19728260Y21296466D01*
X19739391Y21282155D01*
X19747536Y21269965D01*
X19791248Y21226253D01*
X19795770Y21221488D01*
X19841129Y21171112D01*
X19852347Y21162962D01*
X19867374Y21150127D01*
X19872965Y21144536D01*
X19929974Y21106443D01*
X19933997Y21103640D01*
X19994270Y21059849D01*
X19997380Y21058465D01*
X20000749Y21056964D01*
X20019498Y21046625D01*
X20020454Y21045986D01*
X20033048Y21040770D01*
X20090022Y21017172D01*
X20092950Y21015914D01*
X20167197Y20982856D01*
X20167509Y20982790D01*
X20178268Y20979445D01*
X20178408Y20979904D01*
X20184331Y20978108D01*
X20184334Y20978106D01*
X20229179Y20969187D01*
X20264748Y20962111D01*
X20266247Y20961803D01*
X20352354Y20943500D01*
X20352358Y20943500D01*
X20541644Y20943500D01*
X20541646Y20943500D01*
X20627846Y20961824D01*
X20629149Y20962091D01*
X20709666Y20978106D01*
X20709668Y20978108D01*
X20715593Y20979904D01*
X20715734Y20979439D01*
X20726485Y20982789D01*
X20726803Y20982856D01*
X20801022Y21015903D01*
X20803967Y21017168D01*
X20873547Y21045987D01*
X20874492Y21046619D01*
X20893255Y21056967D01*
X20899730Y21059849D01*
X20960039Y21103667D01*
X20964012Y21106436D01*
X21021035Y21144536D01*
X21026622Y21150125D01*
X21041664Y21162970D01*
X21052867Y21171109D01*
X21052867Y21171110D01*
X21052871Y21171112D01*
X21098248Y21221510D01*
X21102732Y21226235D01*
X21146464Y21269965D01*
X21154605Y21282152D01*
X21165738Y21296465D01*
X21179533Y21311784D01*
X21210060Y21364661D01*
X21214404Y21371646D01*
X21245013Y21417453D01*
X21253211Y21437247D01*
X21260494Y21452014D01*
X21274179Y21475716D01*
X21290974Y21527409D01*
X21294373Y21536623D01*
X21312894Y21581334D01*
X21318387Y21608953D01*
X21322126Y21623285D01*
X21332674Y21655744D01*
X21337647Y21703079D01*
X21339378Y21714483D01*
X21347500Y21755309D01*
X21347500Y21790204D01*
X21348190Y21803374D01*
X21352460Y21844000D01*
X21348190Y21884628D01*
X21347500Y21897798D01*
X21347500Y23704810D01*
X21367502Y23772931D01*
X21384405Y23793905D01*
X24895305Y27304805D01*
X24957617Y27338831D01*
X25028432Y27333766D01*
X25085268Y27291219D01*
X25110079Y27224699D01*
X25110400Y27215710D01*
X25110400Y27153151D01*
X25113295Y27099143D01*
X25113298Y27099111D01*
X25116127Y27072794D01*
X25116128Y27072786D01*
X25116129Y27072775D01*
X25116131Y27072764D01*
X25124786Y27019352D01*
X25124787Y27019348D01*
X25124788Y27019345D01*
X25175064Y26884552D01*
X25175067Y26884545D01*
X25208552Y26823221D01*
X25294777Y26708039D01*
X29162895Y22839921D01*
X29196921Y22777609D01*
X29199800Y22750826D01*
X29199800Y22664375D01*
X29179798Y22596254D01*
X29162895Y22575280D01*
X27733191Y21145577D01*
X27697011Y21105299D01*
X27680382Y21084664D01*
X27648730Y21040770D01*
X27588963Y20909903D01*
X27569278Y20842864D01*
X27569275Y20842850D01*
X27548800Y20700444D01*
X27548800Y20164593D01*
X27560353Y20057143D01*
X27560355Y20057130D01*
X27571558Y20005636D01*
X27571562Y20005622D01*
X27605685Y19903099D01*
X27628486Y19867621D01*
X27648488Y19799500D01*
X27628486Y19731379D01*
X27574831Y19684886D01*
X27522488Y19673500D01*
X16668985Y19673500D01*
X16600864Y19693502D01*
X16594923Y19697565D01*
X16581732Y19707149D01*
X16581730Y19707151D01*
X16413488Y19782057D01*
X16408801Y19784144D01*
X16408799Y19784145D01*
X16408798Y19784145D01*
X16223644Y19823500D01*
X16034352Y19823500D01*
X15849197Y19784145D01*
X15676265Y19707151D01*
X15676265Y19707150D01*
X15523124Y19595887D01*
X15396464Y19455217D01*
X15396463Y19455215D01*
X15301820Y19291287D01*
X15301816Y19291279D01*
X15243323Y19111257D01*
X15223538Y18923000D01*
X15243323Y18734744D01*
X15301816Y18554722D01*
X15301820Y18554714D01*
X15396463Y18390786D01*
X15396464Y18390784D01*
X15523124Y18250114D01*
X15676265Y18138851D01*
X15676265Y18138850D01*
X15723610Y18117771D01*
X15849195Y18061856D01*
X16034352Y18022500D01*
X16223644Y18022500D01*
X16408801Y18061856D01*
X16581728Y18138849D01*
X16581728Y18138850D01*
X16581730Y18138850D01*
X16581732Y18138852D01*
X16594923Y18148435D01*
X16661790Y18172294D01*
X16668985Y18172500D01*
X38885113Y18172500D01*
X38885117Y18172500D01*
X38885118Y18172500D01*
X39030113Y18201342D01*
X39166695Y18257916D01*
X39215929Y18290814D01*
X39289616Y18340048D01*
X46028405Y25078837D01*
X46090717Y25112863D01*
X46161532Y25107798D01*
X46218368Y25065251D01*
X46243179Y24998731D01*
X46243500Y24989742D01*
X46243500Y17427456D01*
X46281949Y17234165D01*
X46357368Y17052086D01*
X46466861Y16888218D01*
X46606218Y16748861D01*
X46613400Y16741679D01*
X46613407Y16741673D01*
X49762595Y13592485D01*
X49796621Y13530173D01*
X49799500Y13503390D01*
X49799500Y12455411D01*
X49779498Y12387290D01*
X49762599Y12366321D01*
X49429999Y12033720D01*
X49109683Y11713404D01*
X49047371Y11679379D01*
X49020588Y11676500D01*
X48415335Y11676500D01*
X48415314Y11676498D01*
X48355719Y11670092D01*
X48355718Y11670092D01*
X48220873Y11619799D01*
X48220870Y11619797D01*
X48105655Y11533548D01*
X48105654Y11533546D01*
X48056066Y11467307D01*
X47999232Y11424761D01*
X47928416Y11419697D01*
X47866104Y11453722D01*
X47854336Y11467303D01*
X47804746Y11533546D01*
X47804744Y11533547D01*
X47804744Y11533548D01*
X47746814Y11576914D01*
X47689531Y11619796D01*
X47689529Y11619797D01*
X47689526Y11619799D01*
X47554683Y11670091D01*
X47554686Y11670091D01*
X47495073Y11676500D01*
X45875335Y11676500D01*
X45875314Y11676498D01*
X45815719Y11670092D01*
X45815718Y11670092D01*
X45680873Y11619799D01*
X45680870Y11619797D01*
X45565653Y11533547D01*
X45479403Y11418330D01*
X45479401Y11418327D01*
X45429109Y11283485D01*
X45422700Y11223879D01*
X45422700Y9604136D01*
X45422702Y9604115D01*
X45429108Y9544520D01*
X45429108Y9544519D01*
X45479401Y9409674D01*
X45479403Y9409671D01*
X45565653Y9294454D01*
X45618812Y9254660D01*
X45680869Y9208204D01*
X45680871Y9208204D01*
X45680873Y9208202D01*
X45741230Y9185691D01*
X45815714Y9157910D01*
X45815717Y9157909D01*
X45875327Y9151500D01*
X47495072Y9151501D01*
X47554683Y9157909D01*
X47689531Y9208204D01*
X47804746Y9294454D01*
X47854333Y9360694D01*
X47911168Y9403240D01*
X47981983Y9408304D01*
X48044295Y9374279D01*
X48056063Y9360698D01*
X48105654Y9294454D01*
X48220869Y9208204D01*
X48220871Y9208204D01*
X48220873Y9208202D01*
X48281230Y9185691D01*
X48355714Y9157910D01*
X48355717Y9157909D01*
X48415327Y9151500D01*
X50035072Y9151501D01*
X50094683Y9157909D01*
X50229531Y9208204D01*
X50344746Y9294454D01*
X50430996Y9409669D01*
X50481291Y9544517D01*
X50487700Y9604127D01*
X50487699Y10209391D01*
X50507701Y10277511D01*
X50524599Y10298481D01*
X51577140Y11351019D01*
X51686632Y11514886D01*
X51762052Y11696965D01*
X51765322Y11713404D01*
X51801709Y11896332D01*
X51803888Y11895899D01*
X51826707Y11952452D01*
X51884651Y11993477D01*
X51955576Y11996662D01*
X51969549Y11992358D01*
X52038317Y11966709D01*
X52097927Y11960300D01*
X53870072Y11960301D01*
X53929683Y11966709D01*
X54064531Y12017004D01*
X54179746Y12103254D01*
X54265996Y12218469D01*
X54316291Y12353317D01*
X54322700Y12412927D01*
X54322700Y12522500D01*
X54342702Y12590621D01*
X54396358Y12637114D01*
X54448700Y12648500D01*
X57819301Y12648500D01*
X57887422Y12628498D01*
X57933915Y12574842D01*
X57945301Y12522500D01*
X57945301Y12412936D01*
X57945302Y12412915D01*
X57951708Y12353320D01*
X57951708Y12353319D01*
X58002001Y12218474D01*
X58002003Y12218471D01*
X58088253Y12103254D01*
X58145861Y12060129D01*
X58203469Y12017004D01*
X58203471Y12017004D01*
X58203473Y12017002D01*
X58258009Y11996662D01*
X58338314Y11966710D01*
X58338317Y11966709D01*
X58397927Y11960300D01*
X60170072Y11960301D01*
X60229683Y11966709D01*
X60364531Y12017004D01*
X60479746Y12103254D01*
X60565996Y12218469D01*
X60616291Y12353317D01*
X60622700Y12412927D01*
X60622699Y13665566D01*
X60642701Y13733686D01*
X60659599Y13754655D01*
X65885607Y18980662D01*
X65947917Y19014686D01*
X66018732Y19009621D01*
X66075568Y18967074D01*
X66100379Y18900554D01*
X66100700Y18891565D01*
X66100700Y14597560D01*
X66080698Y14529439D01*
X66027042Y14482946D01*
X66000897Y14474314D01*
X65887199Y14450147D01*
X65714263Y14373151D01*
X65714263Y14373150D01*
X65561122Y14261887D01*
X65434462Y14121217D01*
X65434461Y14121215D01*
X65339818Y13957287D01*
X65339814Y13957279D01*
X65281321Y13777257D01*
X65261536Y13589000D01*
X65281321Y13400744D01*
X65339814Y13220722D01*
X65339816Y13220717D01*
X65413265Y13093499D01*
X65430002Y13024504D01*
X65406781Y12957412D01*
X65350974Y12913525D01*
X65304145Y12904500D01*
X62674931Y12904500D01*
X62633039Y12896167D01*
X62549254Y12879501D01*
X62549253Y12879500D01*
X62430872Y12830465D01*
X62324330Y12759277D01*
X62324326Y12759274D01*
X59739657Y10174605D01*
X59677345Y10140579D01*
X59650562Y10137700D01*
X58397935Y10137700D01*
X58397914Y10137698D01*
X58338319Y10131292D01*
X58338318Y10131292D01*
X58203473Y10080999D01*
X58203470Y10080997D01*
X58088253Y9994747D01*
X58002003Y9879530D01*
X58002001Y9879527D01*
X57951709Y9744685D01*
X57945300Y9685079D01*
X57945300Y9575500D01*
X57925298Y9507379D01*
X57871642Y9460886D01*
X57819300Y9449500D01*
X54448699Y9449500D01*
X54380578Y9469502D01*
X54334085Y9523158D01*
X54322699Y9575500D01*
X54322699Y9685065D01*
X54322699Y9685072D01*
X54316291Y9744683D01*
X54295000Y9801765D01*
X54265998Y9879527D01*
X54265996Y9879530D01*
X54265996Y9879531D01*
X54222871Y9937139D01*
X54179746Y9994747D01*
X54102791Y10052355D01*
X54064531Y10080996D01*
X54064529Y10080997D01*
X54064526Y10080999D01*
X53929683Y10131291D01*
X53929686Y10131291D01*
X53870073Y10137700D01*
X52097935Y10137700D01*
X52097914Y10137698D01*
X52038319Y10131292D01*
X52038318Y10131292D01*
X51903473Y10080999D01*
X51903470Y10080997D01*
X51788253Y9994747D01*
X51702003Y9879530D01*
X51702001Y9879527D01*
X51651709Y9744685D01*
X51645300Y9685079D01*
X51645300Y7912936D01*
X51645302Y7912915D01*
X51651708Y7853320D01*
X51651708Y7853319D01*
X51702001Y7718474D01*
X51702003Y7718471D01*
X51788253Y7603254D01*
X51845861Y7560129D01*
X51903469Y7517004D01*
X51903471Y7517004D01*
X51903473Y7517002D01*
X51963830Y7494491D01*
X52038314Y7466710D01*
X52038317Y7466709D01*
X52097927Y7460300D01*
X53870072Y7460301D01*
X53929683Y7466709D01*
X54064531Y7517004D01*
X54179746Y7603254D01*
X54265996Y7718469D01*
X54316291Y7853317D01*
X54322700Y7912927D01*
X54322700Y8022500D01*
X54342702Y8090621D01*
X54396358Y8137114D01*
X54448700Y8148500D01*
X57819301Y8148500D01*
X57887422Y8128498D01*
X57933915Y8074842D01*
X57945301Y8022500D01*
X57945301Y7912936D01*
X57945302Y7912915D01*
X57951708Y7853320D01*
X57951708Y7853319D01*
X58002001Y7718474D01*
X58002003Y7718471D01*
X58088253Y7603254D01*
X58145861Y7560129D01*
X58203469Y7517004D01*
X58203471Y7517004D01*
X58203473Y7517002D01*
X58263830Y7494491D01*
X58338314Y7466710D01*
X58338317Y7466709D01*
X58397927Y7460300D01*
X60170072Y7460301D01*
X60229683Y7466709D01*
X60364531Y7517004D01*
X60479746Y7603254D01*
X60565996Y7718469D01*
X60616291Y7853317D01*
X60622700Y7912927D01*
X60622699Y9165566D01*
X60642701Y9233686D01*
X60659599Y9254655D01*
X61564949Y10160004D01*
X77274675Y10160004D01*
X77274675Y10159997D01*
X77293962Y9767413D01*
X77293963Y9767399D01*
X77334560Y9493720D01*
X77351636Y9378600D01*
X77408521Y9151503D01*
X77447144Y8997311D01*
X77568289Y8658734D01*
X77579562Y8627228D01*
X77747619Y8271903D01*
X77747621Y8271900D01*
X77949696Y7934757D01*
X78183834Y7619058D01*
X78183841Y7619050D01*
X78183842Y7619049D01*
X78447808Y7327808D01*
X78739049Y7063842D01*
X78739057Y7063835D01*
X79054756Y6829697D01*
X79054760Y6829695D01*
X79054761Y6829694D01*
X79391903Y6627619D01*
X79747228Y6459562D01*
X80117316Y6327143D01*
X80498600Y6231636D01*
X80887409Y6173962D01*
X81222590Y6157496D01*
X81279996Y6154675D01*
X81280000Y6154675D01*
X81280004Y6154675D01*
X81335384Y6157396D01*
X81672591Y6173962D01*
X82061400Y6231636D01*
X82442684Y6327143D01*
X82812772Y6459562D01*
X83168097Y6627619D01*
X83505239Y6829694D01*
X83820951Y7063842D01*
X84112192Y7327808D01*
X84376158Y7619049D01*
X84449895Y7718471D01*
X84610303Y7934757D01*
X84610302Y7934757D01*
X84610306Y7934761D01*
X84812381Y8271903D01*
X84980438Y8627228D01*
X85112857Y8997316D01*
X85208364Y9378600D01*
X85266038Y9767409D01*
X85284229Y10137699D01*
X85285325Y10159997D01*
X85285325Y10160004D01*
X85282504Y10217410D01*
X85266038Y10552591D01*
X85208364Y10941400D01*
X85112857Y11322684D01*
X85112698Y11323127D01*
X85090311Y11385695D01*
X84980438Y11692772D01*
X84812381Y12048097D01*
X84610306Y12385239D01*
X84610305Y12385240D01*
X84610303Y12385244D01*
X84376165Y12700943D01*
X84214329Y12879501D01*
X84112192Y12992192D01*
X83820951Y13256158D01*
X83820950Y13256159D01*
X83820942Y13256166D01*
X83505243Y13490304D01*
X83168100Y13692379D01*
X83168101Y13692379D01*
X83168097Y13692381D01*
X82812772Y13860438D01*
X82767882Y13876500D01*
X82442689Y13992856D01*
X82321716Y14023158D01*
X82061400Y14088364D01*
X82032816Y14092604D01*
X81672601Y14146037D01*
X81672594Y14146038D01*
X81672591Y14146038D01*
X81476295Y14155682D01*
X81280004Y14165325D01*
X81279996Y14165325D01*
X81055662Y14154304D01*
X80887409Y14146038D01*
X80887406Y14146038D01*
X80887398Y14146037D01*
X80498606Y14088365D01*
X80498604Y14088365D01*
X80498600Y14088364D01*
X80307958Y14040611D01*
X80117310Y13992856D01*
X79747230Y13860439D01*
X79747228Y13860438D01*
X79435636Y13713065D01*
X79391899Y13692379D01*
X79054756Y13490304D01*
X78739057Y13256166D01*
X78447808Y12992192D01*
X78183834Y12700943D01*
X77949696Y12385244D01*
X77747621Y12048101D01*
X77747619Y12048097D01*
X77675839Y11896332D01*
X77579561Y11692770D01*
X77447144Y11322690D01*
X77409669Y11173079D01*
X77351636Y10941400D01*
X77351635Y10941396D01*
X77351635Y10941394D01*
X77293963Y10552602D01*
X77293962Y10552588D01*
X77274675Y10160004D01*
X61564949Y10160004D01*
X62971541Y11566595D01*
X63033853Y11600621D01*
X63060636Y11603500D01*
X72490664Y11603500D01*
X72490669Y11603500D01*
X72616344Y11628499D01*
X72734727Y11677535D01*
X72763806Y11696965D01*
X72841269Y11748723D01*
X73276276Y12183731D01*
X73347465Y12290273D01*
X73396501Y12408656D01*
X73397351Y12412928D01*
X73421500Y12534331D01*
X73421500Y23769943D01*
X73441502Y23838064D01*
X73458405Y23859038D01*
X74269963Y24670596D01*
X74332275Y24704622D01*
X74359058Y24707501D01*
X74758009Y24707501D01*
X74860797Y24718001D01*
X75027334Y24773186D01*
X75052966Y24788996D01*
X75176656Y24865288D01*
X75194868Y24883500D01*
X75283964Y24972595D01*
X75346276Y25006621D01*
X75373059Y25009500D01*
X79343501Y25009500D01*
X79411622Y24989498D01*
X79458115Y24935842D01*
X79469501Y24883500D01*
X79469501Y23862136D01*
X79469502Y23862115D01*
X79475908Y23802520D01*
X79475908Y23802519D01*
X79526201Y23667674D01*
X79526203Y23667671D01*
X79526204Y23667669D01*
X79554845Y23629409D01*
X79612453Y23552454D01*
X79639320Y23532342D01*
X79727669Y23466204D01*
X79727671Y23466204D01*
X79727673Y23466202D01*
X79788030Y23443691D01*
X79862514Y23415910D01*
X79862517Y23415909D01*
X79922127Y23409500D01*
X84017872Y23409501D01*
X84077483Y23415909D01*
X84212331Y23466204D01*
X84327546Y23552454D01*
X84413796Y23667669D01*
X84464091Y23802517D01*
X84470500Y23862127D01*
X84470499Y27957872D01*
X84464091Y28017483D01*
X84442800Y28074565D01*
X84413798Y28152327D01*
X84413796Y28152330D01*
X84413796Y28152331D01*
X84370671Y28209939D01*
X84327546Y28267547D01*
X84250591Y28325155D01*
X84212331Y28353796D01*
X84212329Y28353797D01*
X84212326Y28353799D01*
X84077483Y28404091D01*
X84077486Y28404091D01*
X84017873Y28410500D01*
X79922135Y28410500D01*
X79922114Y28410498D01*
X79862519Y28404092D01*
X79862518Y28404092D01*
X79727673Y28353799D01*
X79727670Y28353797D01*
X79612453Y28267547D01*
X79526203Y28152330D01*
X79526201Y28152327D01*
X79475909Y28017485D01*
X79469500Y27957879D01*
X79469500Y26936500D01*
X79449498Y26868379D01*
X79395842Y26821886D01*
X79343500Y26810500D01*
X75369059Y26810500D01*
X75300938Y26830502D01*
X75279964Y26847405D01*
X75176662Y26950707D01*
X75176656Y26950712D01*
X75027334Y27042815D01*
X74860803Y27097998D01*
X74860791Y27098000D01*
X74758017Y27108500D01*
X74132990Y27108500D01*
X74030202Y27098000D01*
X73863665Y27042815D01*
X73714343Y26950712D01*
X73714337Y26950707D01*
X73622095Y26858464D01*
X73559783Y26824438D01*
X73488968Y26829503D01*
X73443905Y26858464D01*
X73351662Y26950707D01*
X73351656Y26950712D01*
X73202334Y27042815D01*
X73035803Y27097998D01*
X73035791Y27098000D01*
X72933017Y27108500D01*
X72933009Y27108500D01*
X72593436Y27108500D01*
X72525315Y27128502D01*
X72504341Y27145405D01*
X69926150Y29723596D01*
X69892124Y29785908D01*
X69895411Y29851626D01*
X69922874Y29936144D01*
X69942660Y30124400D01*
X69922874Y30312656D01*
X69900700Y30380901D01*
X69864381Y30492679D01*
X69864377Y30492687D01*
X69852571Y30513135D01*
X69827655Y30556291D01*
X69769734Y30656615D01*
X69769733Y30656617D01*
X69643073Y30797287D01*
X69489932Y30908550D01*
X69489932Y30908551D01*
X69364345Y30964466D01*
X69317003Y30985544D01*
X69317001Y30985545D01*
X69317000Y30985545D01*
X69131846Y31024900D01*
X68942554Y31024900D01*
X68757399Y30985545D01*
X68584467Y30908551D01*
X68584467Y30908550D01*
X68431326Y30797287D01*
X68304666Y30656617D01*
X68304665Y30656615D01*
X68210022Y30492687D01*
X68210018Y30492679D01*
X68151525Y30312657D01*
X68131740Y30124400D01*
X68151525Y29936144D01*
X68210018Y29756122D01*
X68210022Y29756114D01*
X68304664Y29592188D01*
X68304665Y29592186D01*
X68304667Y29592184D01*
X68419876Y29464232D01*
X68442647Y29428142D01*
X68460734Y29384474D01*
X68531923Y29277931D01*
X68531926Y29277927D01*
X71570595Y26239259D01*
X71604621Y26176947D01*
X71607500Y26150164D01*
X71607500Y25844213D01*
X71587498Y25776092D01*
X71533842Y25729599D01*
X71463568Y25719495D01*
X71398988Y25748989D01*
X71392405Y25755118D01*
X66854993Y30292530D01*
X66820967Y30354842D01*
X66826032Y30425657D01*
X66868579Y30482493D01*
X66895870Y30498034D01*
X66932327Y30513135D01*
X67038869Y30584323D01*
X74976277Y38521731D01*
X75047465Y38628273D01*
X75096501Y38746656D01*
X75104115Y38784933D01*
X75121500Y38872331D01*
X75121500Y43998478D01*
X75141502Y44066599D01*
X75181354Y44105719D01*
X75202056Y44118488D01*
X75326112Y44242544D01*
X75418214Y44391866D01*
X75473399Y44558403D01*
X75483900Y44661191D01*
X75483899Y45617301D01*
X75503901Y45685421D01*
X75557557Y45731914D01*
X75609899Y45743300D01*
X77494716Y45743300D01*
X77562837Y45723298D01*
X77583811Y45706395D01*
X79432595Y43857611D01*
X79466621Y43795299D01*
X79469500Y43768516D01*
X79469500Y43162136D01*
X79469502Y43162115D01*
X79475908Y43102520D01*
X79475908Y43102519D01*
X79526201Y42967674D01*
X79526203Y42967671D01*
X79612453Y42852454D01*
X79644443Y42828507D01*
X79727669Y42766204D01*
X79727671Y42766204D01*
X79727673Y42766202D01*
X79788030Y42743691D01*
X79862514Y42715910D01*
X79862517Y42715909D01*
X79922127Y42709500D01*
X80794325Y42709501D01*
X80848994Y42697023D01*
X80915759Y42664871D01*
X80915762Y42664870D01*
X80915770Y42664866D01*
X80915785Y42664861D01*
X80915787Y42664860D01*
X81207357Y42562835D01*
X81207360Y42562835D01*
X81207364Y42562833D01*
X81508543Y42494090D01*
X81508544Y42494090D01*
X81508547Y42494089D01*
X81689602Y42473690D01*
X81815533Y42459501D01*
X81815535Y42459501D01*
X82124466Y42459501D01*
X82202425Y42468285D01*
X82431452Y42494089D01*
X82732636Y42562833D01*
X83024229Y42664866D01*
X83084770Y42694021D01*
X83091004Y42697023D01*
X83145673Y42709501D01*
X84017865Y42709501D01*
X84017872Y42709501D01*
X84077483Y42715909D01*
X84212331Y42766204D01*
X84327546Y42852454D01*
X84413796Y42967669D01*
X84464091Y43102517D01*
X84470500Y43162127D01*
X84470499Y44034329D01*
X84482978Y44088999D01*
X84515134Y44155771D01*
X84515134Y44155772D01*
X84545850Y44243551D01*
X84617167Y44447364D01*
X84685911Y44748548D01*
X84720499Y45055536D01*
X84720499Y45364465D01*
X84685911Y45671453D01*
X84617167Y45972636D01*
X84577324Y46086500D01*
X84515140Y46264213D01*
X84515139Y46264215D01*
X84515134Y46264230D01*
X84482977Y46331006D01*
X84470499Y46385675D01*
X84470499Y47257865D01*
X84470499Y47257872D01*
X84464091Y47317483D01*
X84442800Y47374565D01*
X84413798Y47452327D01*
X84413796Y47452330D01*
X84413796Y47452331D01*
X84370671Y47509939D01*
X84327546Y47567547D01*
X84250591Y47625155D01*
X84212331Y47653796D01*
X84212329Y47653797D01*
X84212326Y47653799D01*
X84077483Y47704091D01*
X84077486Y47704091D01*
X84017878Y47710500D01*
X84017873Y47710500D01*
X83411484Y47710500D01*
X83343363Y47730502D01*
X83322389Y47747405D01*
X80521877Y50547918D01*
X80280340Y50740538D01*
X80018769Y50904894D01*
X80018760Y50904899D01*
X79740433Y51038934D01*
X79731020Y51042228D01*
X79664845Y51065384D01*
X79664844Y51065385D01*
X79448842Y51140967D01*
X79147656Y51209711D01*
X78840666Y51244300D01*
X78840665Y51244300D01*
X65314626Y51244300D01*
X65314625Y51244300D01*
X65007634Y51209711D01*
X64784949Y51158884D01*
X64706455Y51140968D01*
X64706451Y51140967D01*
X64706448Y51140966D01*
X64490445Y51065385D01*
X64490445Y51065384D01*
X64414861Y51038935D01*
X64414857Y51038934D01*
X64414851Y51038931D01*
X64136530Y50904899D01*
X64136521Y50904894D01*
X63874950Y50740538D01*
X63633413Y50547918D01*
X62360102Y49274605D01*
X62297790Y49240580D01*
X62271007Y49237700D01*
X51360717Y49237700D01*
X51292596Y49257702D01*
X51246103Y49311358D01*
X51235407Y49350530D01*
X51225910Y49440888D01*
X51215674Y49538285D01*
X51186152Y49629145D01*
X51157181Y49718308D01*
X51157177Y49718316D01*
X51062534Y49882244D01*
X51062533Y49882246D01*
X50935873Y50022916D01*
X50935872Y50022917D01*
X50926066Y50030041D01*
X50882711Y50086262D01*
X50876634Y50156998D01*
X50909765Y50219791D01*
X50926066Y50233915D01*
X50935872Y50241040D01*
X50935873Y50241041D01*
X51062533Y50381711D01*
X51062534Y50381713D01*
X51157179Y50545643D01*
X51215674Y50725671D01*
X51235460Y50913927D01*
X51215674Y51102183D01*
X51203073Y51140966D01*
X51157181Y51282206D01*
X51157177Y51282214D01*
X51062534Y51446142D01*
X51062533Y51446144D01*
X50935873Y51586814D01*
X50782732Y51698077D01*
X50782732Y51698078D01*
X50657145Y51753993D01*
X50609803Y51775071D01*
X50609801Y51775072D01*
X50609800Y51775072D01*
X50424646Y51814427D01*
X50235354Y51814427D01*
X50050199Y51775072D01*
X49877267Y51698078D01*
X49877265Y51698076D01*
X49864075Y51688492D01*
X49797208Y51664633D01*
X49790013Y51664427D01*
X29022059Y51664427D01*
X29022056Y51664427D01*
X29022050Y51664426D01*
X28993219Y51658692D01*
X28993218Y51658691D01*
X28915782Y51643288D01*
X28877064Y51635586D01*
X28877057Y51635584D01*
X28797057Y51602448D01*
X28797058Y51602447D01*
X28740486Y51579014D01*
X28740485Y51579013D01*
X28658349Y51524132D01*
X28617562Y51496880D01*
X28617556Y51496875D01*
X26632673Y49511993D01*
X26570361Y49477967D01*
X26569776Y49477842D01*
X26505228Y49464122D01*
X26332292Y49387126D01*
X26332292Y49387125D01*
X26179151Y49275862D01*
X26052491Y49135192D01*
X26052490Y49135190D01*
X25957847Y48971262D01*
X25957843Y48971254D01*
X25899350Y48791232D01*
X25879565Y48602975D01*
X25899350Y48414719D01*
X25957843Y48234697D01*
X25957847Y48234689D01*
X26052490Y48070761D01*
X26052491Y48070759D01*
X26179151Y47930089D01*
X26332292Y47818826D01*
X26332292Y47818825D01*
X26379637Y47797746D01*
X26505222Y47741831D01*
X26690379Y47702475D01*
X26879671Y47702475D01*
X27064828Y47741831D01*
X27237755Y47818824D01*
X27237755Y47818825D01*
X27237757Y47818825D01*
X27237757Y47818826D01*
X27390896Y47930087D01*
X27439306Y47983851D01*
X27517558Y48070759D01*
X27517559Y48070761D01*
X27531619Y48095114D01*
X27612204Y48234691D01*
X27612560Y48235784D01*
X27637442Y48312367D01*
X27667398Y48404563D01*
X27698134Y48454718D01*
X29369939Y50126522D01*
X29432251Y50160548D01*
X29459034Y50163427D01*
X30259135Y50163427D01*
X30327256Y50143425D01*
X30373749Y50089769D01*
X30383853Y50019495D01*
X30354359Y49954915D01*
X30334214Y49937142D01*
X30334403Y49936911D01*
X30329610Y49932978D01*
X26394037Y45997405D01*
X26331725Y45963379D01*
X26304942Y45960500D01*
X12096499Y45960500D01*
X12028378Y45980502D01*
X11981885Y46034158D01*
X11970499Y46086500D01*
X11970499Y47257865D01*
X11970499Y47257872D01*
X11964091Y47317483D01*
X11942800Y47374565D01*
X11913798Y47452327D01*
X11913796Y47452330D01*
X11913796Y47452331D01*
X11870671Y47509939D01*
X11827546Y47567547D01*
X11750591Y47625155D01*
X11712331Y47653796D01*
X11712329Y47653797D01*
X11712326Y47653799D01*
X11577483Y47704091D01*
X11577486Y47704091D01*
X11517873Y47710500D01*
X7422135Y47710500D01*
X7422114Y47710498D01*
X7362519Y47704092D01*
X7362518Y47704092D01*
X7227673Y47653799D01*
X7227670Y47653797D01*
X7112453Y47567547D01*
X7026203Y47452330D01*
X7026201Y47452327D01*
X6975909Y47317485D01*
X6969500Y47257879D01*
X6969500Y43162136D01*
X6969502Y43162115D01*
X6975908Y43102520D01*
X6975908Y43102519D01*
X7026201Y42967674D01*
X7026203Y42967671D01*
X7112453Y42852454D01*
X7144443Y42828507D01*
X7227669Y42766204D01*
X7227671Y42766204D01*
X7227673Y42766202D01*
X7288030Y42743691D01*
X7362514Y42715910D01*
X7362517Y42715909D01*
X7422127Y42709500D01*
X11517872Y42709501D01*
X11577483Y42715909D01*
X11712331Y42766204D01*
X11827546Y42852454D01*
X11913796Y42967669D01*
X11964091Y43102517D01*
X11970500Y43162127D01*
X11970500Y44333500D01*
X11990502Y44401621D01*
X12044158Y44448114D01*
X12096500Y44459500D01*
X26741913Y44459500D01*
X26741917Y44459500D01*
X26741918Y44459500D01*
X26886913Y44488342D01*
X27023495Y44544916D01*
X27072729Y44577814D01*
X27146416Y44627048D01*
X31081991Y48562625D01*
X31144303Y48596649D01*
X31171086Y48599529D01*
X32703544Y48599529D01*
X32771665Y48579527D01*
X32818158Y48525871D01*
X32828262Y48455597D01*
X32798768Y48391017D01*
X32792639Y48384434D01*
X13105611Y28697405D01*
X13043299Y28663379D01*
X13016516Y28660500D01*
X9315534Y28660500D01*
X9008543Y28625911D01*
X8707357Y28557167D01*
X8415788Y28455142D01*
X8415760Y28455131D01*
X8348995Y28422978D01*
X8294326Y28410500D01*
X7422135Y28410500D01*
X7422114Y28410498D01*
X7362519Y28404092D01*
X7362518Y28404092D01*
X7227673Y28353799D01*
X7227670Y28353797D01*
X7112453Y28267547D01*
X7026203Y28152330D01*
X7026201Y28152327D01*
X6975909Y28017485D01*
X6969500Y27957879D01*
X6969500Y27085674D01*
X6957022Y27031005D01*
X6924869Y26964240D01*
X6924858Y26964212D01*
X6822833Y26672643D01*
X6754089Y26371457D01*
X6719500Y26064466D01*
X5344500Y26064466D01*
X5344500Y30515001D01*
X11809552Y30515001D01*
X11809553Y30515000D01*
X12552447Y30515000D01*
X12552447Y30515001D01*
X12181001Y30886447D01*
X12180999Y30886447D01*
X11809552Y30515001D01*
X5344500Y30515001D01*
X5344500Y31311409D01*
X10931000Y31311409D01*
X10931000Y31168592D01*
X10958861Y31028525D01*
X10958863Y31028520D01*
X11013513Y30896585D01*
X11092853Y30777844D01*
X11092854Y30777842D01*
X11193840Y30676855D01*
X11193842Y30676854D01*
X11236078Y30648633D01*
X11540982Y30953537D01*
X11591504Y30940000D01*
X12770496Y30940000D01*
X12821015Y30953537D01*
X13125919Y30648633D01*
X13125920Y30648633D01*
X13168159Y30676855D01*
X13269145Y30777842D01*
X13269146Y30777844D01*
X13348486Y30896585D01*
X13403136Y31028520D01*
X13403138Y31028525D01*
X13430999Y31168592D01*
X13431000Y31168596D01*
X13431000Y31311405D01*
X13430999Y31311409D01*
X13403138Y31451476D01*
X13403136Y31451481D01*
X13348486Y31583416D01*
X13269146Y31702157D01*
X13269145Y31702159D01*
X13168159Y31803146D01*
X13168157Y31803147D01*
X13125920Y31831369D01*
X12821015Y31526464D01*
X12770496Y31540000D01*
X11591504Y31540000D01*
X11540984Y31526464D01*
X11236079Y31831369D01*
X11193839Y31803145D01*
X11092854Y31702159D01*
X11092853Y31702157D01*
X11013513Y31583416D01*
X10958863Y31451481D01*
X10958861Y31451476D01*
X10931000Y31311409D01*
X5344500Y31311409D01*
X5344500Y31965000D01*
X11809552Y31965000D01*
X12180999Y31593553D01*
X12181001Y31593553D01*
X12552447Y31965000D01*
X11809552Y31965000D01*
X5344500Y31965000D01*
X5344500Y32712988D01*
X11354500Y32712988D01*
X11354500Y32627013D01*
X11376749Y32543980D01*
X11376750Y32543977D01*
X11376751Y32543976D01*
X11419735Y32469525D01*
X11419737Y32469523D01*
X11419740Y32469519D01*
X11480518Y32408741D01*
X11480522Y32408738D01*
X11480525Y32408735D01*
X11554976Y32365751D01*
X11554978Y32365751D01*
X11554979Y32365750D01*
X11638012Y32343501D01*
X11638016Y32343500D01*
X11723984Y32343500D01*
X11807024Y32365751D01*
X11881475Y32408735D01*
X11942265Y32469525D01*
X11985249Y32543976D01*
X12007500Y32627016D01*
X12007500Y32712984D01*
X11988586Y32783572D01*
X11985250Y32796021D01*
X11985249Y32796022D01*
X11985249Y32796024D01*
X11942265Y32870475D01*
X11942262Y32870478D01*
X11942259Y32870482D01*
X11881481Y32931260D01*
X11881477Y32931263D01*
X11881475Y32931265D01*
X11807024Y32974249D01*
X11807023Y32974250D01*
X11807020Y32974251D01*
X11723987Y32996500D01*
X11723984Y32996500D01*
X11638016Y32996500D01*
X11638012Y32996500D01*
X11554979Y32974251D01*
X11480526Y32931266D01*
X11480518Y32931260D01*
X11419740Y32870482D01*
X11419734Y32870474D01*
X11376749Y32796021D01*
X11354500Y32712988D01*
X5344500Y32712988D01*
X5344500Y35662500D01*
X13375040Y35662500D01*
X13394825Y35474244D01*
X13453318Y35294222D01*
X13453322Y35294214D01*
X13547965Y35130286D01*
X13547966Y35130284D01*
X13674626Y34989614D01*
X13827767Y34878351D01*
X13827767Y34878350D01*
X13866882Y34860935D01*
X14000697Y34801356D01*
X14185854Y34762000D01*
X14208864Y34762000D01*
X14276985Y34741998D01*
X14297954Y34725100D01*
X14577930Y34445124D01*
X14624098Y34414276D01*
X14684473Y34373935D01*
X14802856Y34324899D01*
X14928531Y34299900D01*
X16746775Y34299900D01*
X16814896Y34279898D01*
X16820833Y34275839D01*
X16883264Y34230480D01*
X16971667Y34166251D01*
X16971667Y34166250D01*
X17019012Y34145171D01*
X17144597Y34089256D01*
X17329754Y34049900D01*
X17519046Y34049900D01*
X17704203Y34089256D01*
X17877130Y34166249D01*
X17877130Y34166250D01*
X17877132Y34166250D01*
X17877132Y34166251D01*
X18030271Y34277512D01*
X18032420Y34279898D01*
X18156933Y34418184D01*
X18156934Y34418186D01*
X18159679Y34422940D01*
X18251579Y34582116D01*
X18300849Y34733751D01*
X18310074Y34762144D01*
X18319531Y34852127D01*
X18329860Y34950400D01*
X18310074Y35138656D01*
X18281528Y35226511D01*
X18251581Y35318679D01*
X18251577Y35318687D01*
X18156934Y35482615D01*
X18156933Y35482617D01*
X18030273Y35623287D01*
X17877132Y35734550D01*
X17877132Y35734551D01*
X17751545Y35790466D01*
X17704203Y35811544D01*
X17704201Y35811545D01*
X17704200Y35811545D01*
X17519046Y35850900D01*
X17329754Y35850900D01*
X17144599Y35811545D01*
X16971667Y35734551D01*
X16971667Y35734550D01*
X16820836Y35624964D01*
X16753968Y35601106D01*
X16746775Y35600900D01*
X15314236Y35600900D01*
X15246115Y35620902D01*
X15225141Y35637805D01*
X15215809Y35647137D01*
X15181783Y35709449D01*
X15179594Y35723063D01*
X15178387Y35734551D01*
X15166174Y35850756D01*
X15155705Y35882975D01*
X15107681Y36030779D01*
X15107677Y36030787D01*
X15013034Y36194715D01*
X15013033Y36194717D01*
X14886373Y36335387D01*
X14733232Y36446650D01*
X14733232Y36446651D01*
X14607645Y36502566D01*
X14560303Y36523644D01*
X14560301Y36523645D01*
X14560300Y36523645D01*
X14375146Y36563000D01*
X14185854Y36563000D01*
X14000699Y36523645D01*
X13827767Y36446651D01*
X13827767Y36446650D01*
X13674626Y36335387D01*
X13547966Y36194717D01*
X13547965Y36194715D01*
X13453322Y36030787D01*
X13453318Y36030779D01*
X13394825Y35850757D01*
X13375040Y35662500D01*
X5344500Y35662500D01*
X5344500Y38494169D01*
X11345500Y38494169D01*
X11345500Y38405831D01*
X11368364Y38320502D01*
X11412533Y38243998D01*
X11412535Y38243996D01*
X11412538Y38243992D01*
X11474991Y38181539D01*
X11474995Y38181536D01*
X11474998Y38181533D01*
X11551502Y38137364D01*
X11636831Y38114500D01*
X11636834Y38114500D01*
X11725166Y38114500D01*
X11725169Y38114500D01*
X11810498Y38137364D01*
X11887002Y38181533D01*
X11949467Y38243998D01*
X11993636Y38320502D01*
X12016500Y38405831D01*
X12016500Y38494169D01*
X11993636Y38579498D01*
X11949467Y38656002D01*
X11949464Y38656005D01*
X11949461Y38656009D01*
X11887008Y38718462D01*
X11887004Y38718465D01*
X11887002Y38718467D01*
X11810498Y38762636D01*
X11725169Y38785500D01*
X11636831Y38785500D01*
X11551502Y38762636D01*
X11551501Y38762636D01*
X11551499Y38762635D01*
X11474999Y38718468D01*
X11474991Y38718462D01*
X11412538Y38656009D01*
X11412532Y38656001D01*
X11368365Y38579501D01*
X11368364Y38579499D01*
X11368364Y38579498D01*
X11345500Y38494169D01*
X5344500Y38494169D01*
X5344500Y39155001D01*
X11809552Y39155001D01*
X11809553Y39155000D01*
X12552447Y39155000D01*
X12552447Y39155001D01*
X12181001Y39526447D01*
X12180999Y39526447D01*
X11809552Y39155001D01*
X5344500Y39155001D01*
X5344500Y39951409D01*
X10931000Y39951409D01*
X10931000Y39808592D01*
X10958861Y39668525D01*
X10958863Y39668520D01*
X11013513Y39536585D01*
X11092853Y39417844D01*
X11092854Y39417842D01*
X11193840Y39316855D01*
X11193842Y39316854D01*
X11236078Y39288633D01*
X11540982Y39593537D01*
X11591504Y39580000D01*
X12770496Y39580000D01*
X12821015Y39593537D01*
X13125919Y39288633D01*
X13125920Y39288633D01*
X13168159Y39316855D01*
X13269145Y39417842D01*
X13269146Y39417844D01*
X13348486Y39536585D01*
X13403136Y39668520D01*
X13403138Y39668525D01*
X13430999Y39808592D01*
X13431000Y39808596D01*
X13431000Y39951405D01*
X13430999Y39951409D01*
X13403138Y40091476D01*
X13403136Y40091481D01*
X13348486Y40223416D01*
X13269146Y40342157D01*
X13269145Y40342159D01*
X13168159Y40443146D01*
X13168157Y40443147D01*
X13125920Y40471369D01*
X12821015Y40166464D01*
X12770496Y40180000D01*
X11591504Y40180000D01*
X11540984Y40166464D01*
X11236079Y40471369D01*
X11193839Y40443145D01*
X11092854Y40342159D01*
X11092853Y40342157D01*
X11013513Y40223416D01*
X10958863Y40091481D01*
X10958861Y40091476D01*
X10931000Y39951409D01*
X5344500Y39951409D01*
X5344500Y40605000D01*
X11809552Y40605000D01*
X12180999Y40233553D01*
X12181001Y40233553D01*
X12552447Y40605000D01*
X11809552Y40605000D01*
X5344500Y40605000D01*
X5344500Y54356000D01*
X14207540Y54356000D01*
X14227325Y54167744D01*
X14285818Y53987722D01*
X14285821Y53987715D01*
X14380468Y53823782D01*
X14430135Y53768623D01*
X14460853Y53704616D01*
X14462500Y53684311D01*
X14462500Y51751928D01*
X14473212Y51698078D01*
X14479906Y51664427D01*
X14487499Y51626256D01*
X14536534Y51507874D01*
X14607723Y51401331D01*
X14607726Y51401327D01*
X17225689Y48783365D01*
X17259715Y48721053D01*
X17261904Y48707441D01*
X17275325Y48579743D01*
X17333818Y48399722D01*
X17333822Y48399714D01*
X17428465Y48235786D01*
X17428466Y48235784D01*
X17555126Y48095114D01*
X17708267Y47983851D01*
X17708267Y47983850D01*
X17755612Y47962771D01*
X17881197Y47906856D01*
X18066354Y47867500D01*
X18255646Y47867500D01*
X18440803Y47906856D01*
X18613730Y47983849D01*
X18613730Y47983850D01*
X18613732Y47983850D01*
X18613732Y47983851D01*
X18766871Y48095112D01*
X18893533Y48235784D01*
X18988179Y48399716D01*
X19029170Y48525871D01*
X19046674Y48579744D01*
X19048753Y48599529D01*
X19066460Y48768000D01*
X19046674Y48956256D01*
X19041801Y48971254D01*
X18988181Y49136279D01*
X18988177Y49136287D01*
X18893534Y49300215D01*
X18893533Y49300217D01*
X18766873Y49440887D01*
X18613732Y49552150D01*
X18613732Y49552151D01*
X18488145Y49608066D01*
X18440803Y49629144D01*
X18440801Y49629145D01*
X18440800Y49629145D01*
X18255646Y49668500D01*
X18232636Y49668500D01*
X18164515Y49688502D01*
X18143541Y49705405D01*
X15800405Y52048541D01*
X15766379Y52110853D01*
X15763500Y52137636D01*
X15763500Y53684311D01*
X15783502Y53752432D01*
X15795865Y53768623D01*
X15845531Y53823782D01*
X15845530Y53823782D01*
X15845533Y53823784D01*
X15940179Y53987716D01*
X15998674Y54167744D01*
X16018460Y54356000D01*
X15998674Y54544256D01*
X15940179Y54724284D01*
X15872303Y54841849D01*
X15845534Y54888215D01*
X15845533Y54888217D01*
X15718873Y55028887D01*
X15565732Y55140150D01*
X15565732Y55140151D01*
X15405859Y55211331D01*
X15392803Y55217144D01*
X15392801Y55217145D01*
X15392800Y55217145D01*
X15207646Y55256500D01*
X15018354Y55256500D01*
X14833199Y55217145D01*
X14660267Y55140151D01*
X14660267Y55140150D01*
X14507126Y55028887D01*
X14380466Y54888217D01*
X14380465Y54888215D01*
X14285822Y54724287D01*
X14285818Y54724279D01*
X14227325Y54544257D01*
X14207540Y54356000D01*
X5344500Y54356000D01*
X5344500Y60960004D01*
X6154675Y60960004D01*
X6154675Y60959997D01*
X6173962Y60567413D01*
X6173963Y60567399D01*
X6214920Y60291292D01*
X6231636Y60178600D01*
X6300248Y59904685D01*
X6327144Y59797311D01*
X6403998Y59582520D01*
X6459562Y59427228D01*
X6627619Y59071903D01*
X6627621Y59071900D01*
X6829696Y58734757D01*
X7063834Y58419058D01*
X7063841Y58419050D01*
X7063842Y58419049D01*
X7327808Y58127808D01*
X7619049Y57863842D01*
X7619057Y57863835D01*
X7934756Y57629697D01*
X7934760Y57629695D01*
X7934761Y57629694D01*
X8271903Y57427619D01*
X8627228Y57259562D01*
X8997316Y57127143D01*
X9378600Y57031636D01*
X9767409Y56973962D01*
X10102590Y56957496D01*
X10159996Y56954675D01*
X10160000Y56954675D01*
X10160004Y56954675D01*
X10215384Y56957396D01*
X10552591Y56973962D01*
X10941400Y57031636D01*
X11322684Y57127143D01*
X11692772Y57259562D01*
X12048097Y57427619D01*
X12385239Y57629694D01*
X12700951Y57863842D01*
X12992192Y58127808D01*
X13256158Y58419049D01*
X13292363Y58467865D01*
X13490303Y58734757D01*
X13490302Y58734757D01*
X13490306Y58734761D01*
X13692381Y59071903D01*
X13860438Y59427228D01*
X13992857Y59797316D01*
X14004821Y59845079D01*
X24285000Y59845079D01*
X24285000Y55939336D01*
X24285002Y55939315D01*
X24291408Y55879720D01*
X24291408Y55879719D01*
X24341701Y55744874D01*
X24341703Y55744871D01*
X24427953Y55629654D01*
X24485561Y55586529D01*
X24543169Y55543404D01*
X24543171Y55543404D01*
X24543173Y55543402D01*
X24603530Y55520891D01*
X24678014Y55493110D01*
X24678017Y55493109D01*
X24737627Y55486700D01*
X28643372Y55486701D01*
X28702983Y55493109D01*
X28837831Y55543404D01*
X28953046Y55629654D01*
X29039296Y55744869D01*
X29072444Y55833743D01*
X29114990Y55890579D01*
X29181510Y55915391D01*
X29250884Y55900300D01*
X29301087Y55850098D01*
X29308556Y55833743D01*
X29341701Y55744874D01*
X29341703Y55744871D01*
X29427953Y55629654D01*
X29485561Y55586529D01*
X29543169Y55543404D01*
X29543171Y55543404D01*
X29543173Y55543402D01*
X29603530Y55520891D01*
X29678014Y55493110D01*
X29678017Y55493109D01*
X29737627Y55486700D01*
X33643372Y55486701D01*
X33702983Y55493109D01*
X33837831Y55543404D01*
X33953046Y55629654D01*
X34039296Y55744869D01*
X34089591Y55879717D01*
X34096000Y55939327D01*
X34095999Y59845072D01*
X34089591Y59904683D01*
X34068300Y59961765D01*
X34039298Y60039527D01*
X34039296Y60039530D01*
X34039296Y60039531D01*
X33996171Y60097139D01*
X33953046Y60154747D01*
X33876091Y60212355D01*
X33837831Y60240996D01*
X33837829Y60240997D01*
X33837826Y60240999D01*
X33702983Y60291291D01*
X33702986Y60291291D01*
X33643373Y60297700D01*
X29737635Y60297700D01*
X29737614Y60297698D01*
X29678019Y60291292D01*
X29678018Y60291292D01*
X29543173Y60240999D01*
X29543170Y60240997D01*
X29427953Y60154747D01*
X29341703Y60039530D01*
X29341702Y60039529D01*
X29308556Y59950657D01*
X29266010Y59893821D01*
X29199490Y59869010D01*
X29130115Y59884101D01*
X29079913Y59934303D01*
X29072444Y59950657D01*
X29039297Y60039529D01*
X29039296Y60039530D01*
X29039296Y60039531D01*
X28996171Y60097139D01*
X28953046Y60154747D01*
X28876091Y60212355D01*
X28837831Y60240996D01*
X28837829Y60240997D01*
X28837826Y60240999D01*
X28702983Y60291291D01*
X28702986Y60291291D01*
X28643373Y60297700D01*
X24737635Y60297700D01*
X24737614Y60297698D01*
X24678019Y60291292D01*
X24678018Y60291292D01*
X24543173Y60240999D01*
X24543170Y60240997D01*
X24427953Y60154747D01*
X24341703Y60039530D01*
X24341701Y60039527D01*
X24291409Y59904685D01*
X24285000Y59845079D01*
X14004821Y59845079D01*
X14088364Y60178600D01*
X14146038Y60567409D01*
X14165325Y60960000D01*
X14162972Y61007886D01*
X14160045Y61067482D01*
X14150495Y61261879D01*
X38361500Y61261879D01*
X38361500Y59642136D01*
X38361502Y59642115D01*
X38367908Y59582520D01*
X38367908Y59582519D01*
X38418201Y59447674D01*
X38418203Y59447671D01*
X38418204Y59447669D01*
X38461086Y59390386D01*
X38504452Y59332456D01*
X38504453Y59332456D01*
X38504454Y59332454D01*
X38570693Y59282867D01*
X38613239Y59226032D01*
X38618303Y59155216D01*
X38584278Y59092904D01*
X38570697Y59081137D01*
X38558364Y59071903D01*
X38504452Y59031545D01*
X38418203Y58916330D01*
X38418201Y58916327D01*
X38367909Y58781485D01*
X38361500Y58721879D01*
X38361500Y57102136D01*
X38361502Y57102115D01*
X38367908Y57042520D01*
X38367908Y57042519D01*
X38418201Y56907674D01*
X38418203Y56907671D01*
X38504453Y56792454D01*
X38509714Y56788516D01*
X38619669Y56706204D01*
X38619671Y56706204D01*
X38619673Y56706202D01*
X38678067Y56684423D01*
X38754514Y56655910D01*
X38754517Y56655909D01*
X38814127Y56649500D01*
X39914363Y56649501D01*
X39982484Y56629499D01*
X40003458Y56612596D01*
X40715755Y55900300D01*
X41404724Y55211331D01*
X41495331Y55120724D01*
X41601873Y55049535D01*
X41720256Y55000499D01*
X41845931Y54975500D01*
X42451575Y54975500D01*
X42519696Y54955498D01*
X42525636Y54951436D01*
X42676467Y54841851D01*
X42676467Y54841850D01*
X42723812Y54820771D01*
X42849397Y54764856D01*
X43034554Y54725500D01*
X43223846Y54725500D01*
X43409003Y54764856D01*
X43581930Y54841849D01*
X43581930Y54841850D01*
X43581932Y54841850D01*
X43581932Y54841851D01*
X43735071Y54953112D01*
X43737220Y54955498D01*
X43861733Y55093784D01*
X43861734Y55093786D01*
X43956379Y55257716D01*
X44014874Y55437744D01*
X44034660Y55626000D01*
X44014874Y55814256D01*
X44014874Y55814257D01*
X43956381Y55994279D01*
X43956377Y55994287D01*
X43861734Y56158215D01*
X43861733Y56158217D01*
X43735073Y56298887D01*
X43581932Y56410150D01*
X43581932Y56410151D01*
X43456345Y56466066D01*
X43409003Y56487144D01*
X43409001Y56487145D01*
X43409000Y56487145D01*
X43265220Y56517706D01*
X43202747Y56551435D01*
X43168425Y56613584D01*
X43173153Y56684423D01*
X43215429Y56741461D01*
X43215625Y56741609D01*
X43283546Y56792454D01*
X43333133Y56858694D01*
X43389968Y56901240D01*
X43460783Y56906304D01*
X43523095Y56872279D01*
X43534863Y56858698D01*
X43584454Y56792454D01*
X43699669Y56706204D01*
X43699671Y56706204D01*
X43699673Y56706202D01*
X43758067Y56684423D01*
X43834514Y56655910D01*
X43834517Y56655909D01*
X43894127Y56649500D01*
X45513872Y56649501D01*
X45573483Y56655909D01*
X45708331Y56706204D01*
X45823546Y56792454D01*
X45873133Y56858694D01*
X45929968Y56901240D01*
X46000783Y56906304D01*
X46063095Y56872279D01*
X46074863Y56858698D01*
X46124454Y56792454D01*
X46239669Y56706204D01*
X46239671Y56706204D01*
X46239673Y56706202D01*
X46298067Y56684423D01*
X46374514Y56655910D01*
X46374517Y56655909D01*
X46434127Y56649500D01*
X48053872Y56649501D01*
X48113483Y56655909D01*
X48248331Y56706204D01*
X48363546Y56792454D01*
X48413133Y56858694D01*
X48469968Y56901240D01*
X48540783Y56906304D01*
X48603095Y56872279D01*
X48614863Y56858698D01*
X48664454Y56792454D01*
X48779669Y56706204D01*
X48779671Y56706204D01*
X48779673Y56706202D01*
X48838067Y56684423D01*
X48914514Y56655910D01*
X48914517Y56655909D01*
X48974127Y56649500D01*
X50593872Y56649501D01*
X50653483Y56655909D01*
X50788331Y56706204D01*
X50903546Y56792454D01*
X50989796Y56907669D01*
X51040091Y57042517D01*
X51046500Y57102127D01*
X51046499Y58721872D01*
X51040091Y58781483D01*
X50995434Y58901216D01*
X50989798Y58916327D01*
X50989796Y58916330D01*
X50989796Y58916331D01*
X50903546Y59031546D01*
X50837306Y59081134D01*
X50794760Y59137968D01*
X50789696Y59208783D01*
X50823721Y59271095D01*
X50837302Y59282864D01*
X50903546Y59332454D01*
X50910751Y59342079D01*
X53169300Y59342079D01*
X53169300Y57569936D01*
X53169302Y57569915D01*
X53175708Y57510320D01*
X53175708Y57510319D01*
X53226001Y57375474D01*
X53226003Y57375471D01*
X53312253Y57260254D01*
X53369861Y57217129D01*
X53427469Y57174004D01*
X53427471Y57174004D01*
X53427473Y57174002D01*
X53487830Y57151491D01*
X53562314Y57123710D01*
X53562317Y57123709D01*
X53621927Y57117300D01*
X55394072Y57117301D01*
X55453683Y57123709D01*
X55588531Y57174004D01*
X55703746Y57260254D01*
X55789996Y57375469D01*
X55840291Y57510317D01*
X55846700Y57569927D01*
X55846699Y59342072D01*
X55846698Y59342079D01*
X59469300Y59342079D01*
X59469300Y57569936D01*
X59469302Y57569915D01*
X59475708Y57510320D01*
X59475708Y57510319D01*
X59526001Y57375474D01*
X59526003Y57375471D01*
X59612253Y57260254D01*
X59669861Y57217129D01*
X59727469Y57174004D01*
X59727471Y57174004D01*
X59727473Y57174002D01*
X59787830Y57151491D01*
X59862314Y57123710D01*
X59862317Y57123709D01*
X59921927Y57117300D01*
X61694072Y57117301D01*
X61753683Y57123709D01*
X61888531Y57174004D01*
X62003746Y57260254D01*
X62089996Y57375469D01*
X62140291Y57510317D01*
X62146700Y57569927D01*
X62146699Y59342072D01*
X62140291Y59401683D01*
X62119000Y59458765D01*
X62089998Y59536527D01*
X62089996Y59536530D01*
X62089996Y59536531D01*
X62010947Y59642127D01*
X62003746Y59651747D01*
X61926791Y59709355D01*
X61888531Y59737996D01*
X61888529Y59737997D01*
X61888526Y59737999D01*
X61753683Y59788291D01*
X61753686Y59788291D01*
X61694073Y59794700D01*
X59921935Y59794700D01*
X59921914Y59794698D01*
X59862319Y59788292D01*
X59862318Y59788292D01*
X59727473Y59737999D01*
X59727470Y59737997D01*
X59612253Y59651747D01*
X59526003Y59536530D01*
X59526001Y59536527D01*
X59475709Y59401685D01*
X59469300Y59342079D01*
X55846698Y59342079D01*
X55840291Y59401683D01*
X55819000Y59458765D01*
X55789998Y59536527D01*
X55789996Y59536530D01*
X55789996Y59536531D01*
X55710947Y59642127D01*
X55703746Y59651747D01*
X55626791Y59709355D01*
X55588531Y59737996D01*
X55588529Y59737997D01*
X55588526Y59737999D01*
X55453683Y59788291D01*
X55453686Y59788291D01*
X55394073Y59794700D01*
X53621935Y59794700D01*
X53621914Y59794698D01*
X53562319Y59788292D01*
X53562318Y59788292D01*
X53427473Y59737999D01*
X53427470Y59737997D01*
X53312253Y59651747D01*
X53226003Y59536530D01*
X53226001Y59536527D01*
X53175709Y59401685D01*
X53169300Y59342079D01*
X50910751Y59342079D01*
X50989796Y59447669D01*
X51040091Y59582517D01*
X51046500Y59642127D01*
X51046499Y61007879D01*
X66555500Y61007879D01*
X66555500Y59388136D01*
X66555502Y59388115D01*
X66561908Y59328520D01*
X66561908Y59328519D01*
X66612201Y59193674D01*
X66612203Y59193671D01*
X66612204Y59193669D01*
X66650359Y59142700D01*
X66698452Y59078456D01*
X66698453Y59078456D01*
X66698454Y59078454D01*
X66764693Y59028867D01*
X66807239Y58972032D01*
X66812303Y58901216D01*
X66778278Y58838904D01*
X66764697Y58827137D01*
X66730061Y58801208D01*
X66698452Y58777545D01*
X66612203Y58662330D01*
X66612201Y58662327D01*
X66561909Y58527485D01*
X66555500Y58467879D01*
X66555500Y56848136D01*
X66555502Y56848115D01*
X66561908Y56788520D01*
X66561908Y56788519D01*
X66612201Y56653674D01*
X66612203Y56653671D01*
X66612204Y56653669D01*
X66617017Y56647240D01*
X66698453Y56538454D01*
X66754206Y56496718D01*
X66813669Y56452204D01*
X66813671Y56452204D01*
X66813673Y56452202D01*
X66861388Y56434406D01*
X66948514Y56401910D01*
X66948517Y56401909D01*
X67008127Y56395500D01*
X68627872Y56395501D01*
X68687483Y56401909D01*
X68822331Y56452204D01*
X68937546Y56538454D01*
X68987133Y56604694D01*
X69043968Y56647240D01*
X69114783Y56652304D01*
X69177095Y56618279D01*
X69188863Y56604698D01*
X69238454Y56538454D01*
X69353669Y56452204D01*
X69353671Y56452204D01*
X69353673Y56452202D01*
X69401388Y56434406D01*
X69488514Y56401910D01*
X69488517Y56401909D01*
X69548127Y56395500D01*
X71167872Y56395501D01*
X71227483Y56401909D01*
X71362331Y56452204D01*
X71477546Y56538454D01*
X71527133Y56604694D01*
X71583968Y56647240D01*
X71654783Y56652304D01*
X71717095Y56618279D01*
X71728863Y56604698D01*
X71778454Y56538454D01*
X71893669Y56452204D01*
X71893671Y56452204D01*
X71893673Y56452202D01*
X71941388Y56434406D01*
X72028514Y56401910D01*
X72028517Y56401909D01*
X72088127Y56395500D01*
X73707872Y56395501D01*
X73767483Y56401909D01*
X73902331Y56452204D01*
X74017546Y56538454D01*
X74103796Y56653669D01*
X74104632Y56655909D01*
X74115266Y56684423D01*
X74154091Y56788517D01*
X74160500Y56848127D01*
X74160499Y58467872D01*
X74154091Y58527483D01*
X74132800Y58584565D01*
X74103798Y58662327D01*
X74103796Y58662330D01*
X74103796Y58662331D01*
X74017546Y58777546D01*
X73951306Y58827134D01*
X73908760Y58883968D01*
X73903696Y58954783D01*
X73937721Y59017095D01*
X73951302Y59028864D01*
X74017546Y59078454D01*
X74103796Y59193669D01*
X74104632Y59195909D01*
X74137065Y59282868D01*
X74154091Y59328517D01*
X74160500Y59388127D01*
X74160499Y60960004D01*
X77274675Y60960004D01*
X77274675Y60959997D01*
X77293962Y60567413D01*
X77293963Y60567399D01*
X77334920Y60291292D01*
X77351636Y60178600D01*
X77420248Y59904685D01*
X77447144Y59797311D01*
X77523998Y59582520D01*
X77579562Y59427228D01*
X77747619Y59071903D01*
X77747621Y59071900D01*
X77949696Y58734757D01*
X78183834Y58419058D01*
X78183841Y58419050D01*
X78183842Y58419049D01*
X78447808Y58127808D01*
X78739049Y57863842D01*
X78739057Y57863835D01*
X79054756Y57629697D01*
X79054760Y57629695D01*
X79054761Y57629694D01*
X79391903Y57427619D01*
X79747228Y57259562D01*
X80117316Y57127143D01*
X80498600Y57031636D01*
X80887409Y56973962D01*
X81222590Y56957496D01*
X81279996Y56954675D01*
X81280000Y56954675D01*
X81280004Y56954675D01*
X81335384Y56957396D01*
X81672591Y56973962D01*
X82061400Y57031636D01*
X82442684Y57127143D01*
X82812772Y57259562D01*
X83168097Y57427619D01*
X83505239Y57629694D01*
X83820951Y57863842D01*
X84112192Y58127808D01*
X84376158Y58419049D01*
X84412363Y58467865D01*
X84610303Y58734757D01*
X84610302Y58734757D01*
X84610306Y58734761D01*
X84812381Y59071903D01*
X84980438Y59427228D01*
X85112857Y59797316D01*
X85208364Y60178600D01*
X85266038Y60567409D01*
X85285325Y60960000D01*
X85282972Y61007886D01*
X85280045Y61067482D01*
X85266038Y61352591D01*
X85208364Y61741400D01*
X85112857Y62122684D01*
X84980438Y62492772D01*
X84812381Y62848097D01*
X84610306Y63185239D01*
X84610305Y63185240D01*
X84610303Y63185244D01*
X84376165Y63500943D01*
X84376158Y63500951D01*
X84112192Y63792192D01*
X83820951Y64056158D01*
X83820950Y64056159D01*
X83820942Y64056166D01*
X83505243Y64290304D01*
X83168100Y64492379D01*
X83168101Y64492379D01*
X83168097Y64492381D01*
X82812772Y64660438D01*
X82781266Y64671711D01*
X82442689Y64792856D01*
X82346995Y64816826D01*
X82061400Y64888364D01*
X82032816Y64892604D01*
X81672601Y64946037D01*
X81672594Y64946038D01*
X81672591Y64946038D01*
X81476295Y64955682D01*
X81280004Y64965325D01*
X81279996Y64965325D01*
X81055662Y64954304D01*
X80887409Y64946038D01*
X80887406Y64946038D01*
X80887398Y64946037D01*
X80498606Y64888365D01*
X80498604Y64888365D01*
X80498600Y64888364D01*
X80307958Y64840611D01*
X80117310Y64792856D01*
X79747230Y64660439D01*
X79391899Y64492379D01*
X79054756Y64290304D01*
X78739057Y64056166D01*
X78447808Y63792192D01*
X78183834Y63500943D01*
X77949696Y63185244D01*
X77747621Y62848101D01*
X77579561Y62492770D01*
X77447144Y62122690D01*
X77433925Y62069915D01*
X77351636Y61741400D01*
X77351635Y61741396D01*
X77351635Y61741394D01*
X77293963Y61352602D01*
X77293962Y61352594D01*
X77293962Y61352591D01*
X77292240Y61317547D01*
X77274675Y60960004D01*
X74160499Y60960004D01*
X74160499Y61007872D01*
X74154091Y61067483D01*
X74132800Y61124565D01*
X74103798Y61202327D01*
X74103796Y61202330D01*
X74103796Y61202331D01*
X74059213Y61261886D01*
X74017546Y61317547D01*
X73940591Y61375155D01*
X73902331Y61403796D01*
X73902329Y61403797D01*
X73902326Y61403799D01*
X73767483Y61454091D01*
X73767486Y61454091D01*
X73707873Y61460500D01*
X72088135Y61460500D01*
X72088114Y61460498D01*
X72028519Y61454092D01*
X72028518Y61454092D01*
X71893673Y61403799D01*
X71893670Y61403797D01*
X71778455Y61317548D01*
X71778454Y61317546D01*
X71728866Y61251307D01*
X71672032Y61208761D01*
X71601216Y61203697D01*
X71538904Y61237722D01*
X71527136Y61251303D01*
X71477546Y61317546D01*
X71477544Y61317547D01*
X71477544Y61317548D01*
X71419614Y61360914D01*
X71362331Y61403796D01*
X71362329Y61403797D01*
X71362326Y61403799D01*
X71227483Y61454091D01*
X71227486Y61454091D01*
X71167873Y61460500D01*
X69548135Y61460500D01*
X69548114Y61460498D01*
X69488519Y61454092D01*
X69488518Y61454092D01*
X69353673Y61403799D01*
X69353670Y61403797D01*
X69238455Y61317548D01*
X69238454Y61317546D01*
X69188866Y61251307D01*
X69132032Y61208761D01*
X69061216Y61203697D01*
X68998904Y61237722D01*
X68987136Y61251303D01*
X68937546Y61317546D01*
X68937544Y61317547D01*
X68937544Y61317548D01*
X68879614Y61360914D01*
X68822331Y61403796D01*
X68822329Y61403797D01*
X68822326Y61403799D01*
X68687483Y61454091D01*
X68687486Y61454091D01*
X68627873Y61460500D01*
X67008135Y61460500D01*
X67008114Y61460498D01*
X66948519Y61454092D01*
X66948518Y61454092D01*
X66813673Y61403799D01*
X66813670Y61403797D01*
X66698453Y61317547D01*
X66612203Y61202330D01*
X66612201Y61202327D01*
X66561909Y61067485D01*
X66555500Y61007879D01*
X51046499Y61007879D01*
X51046499Y61261872D01*
X51040091Y61321483D01*
X51009389Y61403799D01*
X50989798Y61456327D01*
X50989796Y61456330D01*
X50989796Y61456331D01*
X50946671Y61513939D01*
X50903546Y61571547D01*
X50826591Y61629155D01*
X50788331Y61657796D01*
X50788329Y61657797D01*
X50788326Y61657799D01*
X50653483Y61708091D01*
X50653486Y61708091D01*
X50593873Y61714500D01*
X48974135Y61714500D01*
X48974114Y61714498D01*
X48914519Y61708092D01*
X48914518Y61708092D01*
X48779673Y61657799D01*
X48779670Y61657797D01*
X48664455Y61571548D01*
X48664454Y61571546D01*
X48614866Y61505307D01*
X48558032Y61462761D01*
X48487216Y61457697D01*
X48424904Y61491722D01*
X48413136Y61505303D01*
X48363546Y61571546D01*
X48363544Y61571547D01*
X48363544Y61571548D01*
X48293864Y61623710D01*
X48248331Y61657796D01*
X48248329Y61657797D01*
X48248326Y61657799D01*
X48113483Y61708091D01*
X48113486Y61708091D01*
X48053873Y61714500D01*
X46434135Y61714500D01*
X46434114Y61714498D01*
X46374519Y61708092D01*
X46374518Y61708092D01*
X46239673Y61657799D01*
X46239670Y61657797D01*
X46124455Y61571548D01*
X46124454Y61571546D01*
X46074866Y61505307D01*
X46018032Y61462761D01*
X45947216Y61457697D01*
X45884904Y61491722D01*
X45873136Y61505303D01*
X45823546Y61571546D01*
X45823544Y61571547D01*
X45823544Y61571548D01*
X45753864Y61623710D01*
X45708331Y61657796D01*
X45708329Y61657797D01*
X45708326Y61657799D01*
X45573483Y61708091D01*
X45573486Y61708091D01*
X45513873Y61714500D01*
X43894135Y61714500D01*
X43894114Y61714498D01*
X43834519Y61708092D01*
X43834518Y61708092D01*
X43699673Y61657799D01*
X43699670Y61657797D01*
X43584455Y61571548D01*
X43584454Y61571546D01*
X43534866Y61505307D01*
X43478032Y61462761D01*
X43407216Y61457697D01*
X43344904Y61491722D01*
X43333136Y61505303D01*
X43283546Y61571546D01*
X43283544Y61571547D01*
X43283544Y61571548D01*
X43213864Y61623710D01*
X43168331Y61657796D01*
X43168329Y61657797D01*
X43168326Y61657799D01*
X43033483Y61708091D01*
X43033486Y61708091D01*
X42973873Y61714500D01*
X41354135Y61714500D01*
X41354114Y61714498D01*
X41294519Y61708092D01*
X41294518Y61708092D01*
X41159673Y61657799D01*
X41159670Y61657797D01*
X41044455Y61571548D01*
X41044454Y61571546D01*
X40994866Y61505307D01*
X40938032Y61462761D01*
X40867216Y61457697D01*
X40804904Y61491722D01*
X40793136Y61505303D01*
X40743546Y61571546D01*
X40743544Y61571547D01*
X40743544Y61571548D01*
X40673864Y61623710D01*
X40628331Y61657796D01*
X40628329Y61657797D01*
X40628326Y61657799D01*
X40493483Y61708091D01*
X40493486Y61708091D01*
X40433873Y61714500D01*
X38814135Y61714500D01*
X38814114Y61714498D01*
X38754519Y61708092D01*
X38754518Y61708092D01*
X38619673Y61657799D01*
X38619670Y61657797D01*
X38504453Y61571547D01*
X38418203Y61456330D01*
X38418201Y61456327D01*
X38367909Y61321485D01*
X38361500Y61261879D01*
X14150495Y61261879D01*
X14146038Y61352591D01*
X14088364Y61741400D01*
X13992857Y62122684D01*
X13860438Y62492772D01*
X13692381Y62848097D01*
X13490306Y63185239D01*
X13490305Y63185240D01*
X13490303Y63185244D01*
X13256165Y63500943D01*
X13256158Y63500951D01*
X12992192Y63792192D01*
X12937150Y63842079D01*
X53169300Y63842079D01*
X53169300Y62069936D01*
X53169302Y62069915D01*
X53175708Y62010320D01*
X53175708Y62010319D01*
X53226001Y61875474D01*
X53226003Y61875471D01*
X53312253Y61760254D01*
X53369861Y61717129D01*
X53427469Y61674004D01*
X53427471Y61674004D01*
X53427473Y61674002D01*
X53470917Y61657799D01*
X53562314Y61623710D01*
X53562317Y61623709D01*
X53621927Y61617300D01*
X55394072Y61617301D01*
X55453683Y61623709D01*
X55588531Y61674004D01*
X55703746Y61760254D01*
X55789996Y61875469D01*
X55840291Y62010317D01*
X55846700Y62069927D01*
X55846699Y63842072D01*
X55846698Y63842079D01*
X59469300Y63842079D01*
X59469300Y62069936D01*
X59469302Y62069915D01*
X59475708Y62010320D01*
X59475708Y62010319D01*
X59526001Y61875474D01*
X59526003Y61875471D01*
X59612253Y61760254D01*
X59669861Y61717129D01*
X59727469Y61674004D01*
X59727471Y61674004D01*
X59727473Y61674002D01*
X59770917Y61657799D01*
X59862314Y61623710D01*
X59862317Y61623709D01*
X59921927Y61617300D01*
X61694072Y61617301D01*
X61753683Y61623709D01*
X61888531Y61674004D01*
X62003746Y61760254D01*
X62089996Y61875469D01*
X62140291Y62010317D01*
X62146700Y62069927D01*
X62146699Y63842072D01*
X62140291Y63901683D01*
X62119000Y63958765D01*
X62089998Y64036527D01*
X62089996Y64036530D01*
X62089996Y64036531D01*
X62046871Y64094139D01*
X62003746Y64151747D01*
X61926791Y64209355D01*
X61888531Y64237996D01*
X61888529Y64237997D01*
X61888526Y64237999D01*
X61753683Y64288291D01*
X61753686Y64288291D01*
X61694073Y64294700D01*
X59921935Y64294700D01*
X59921914Y64294698D01*
X59862319Y64288292D01*
X59862318Y64288292D01*
X59727473Y64237999D01*
X59727470Y64237997D01*
X59612253Y64151747D01*
X59526003Y64036530D01*
X59526001Y64036527D01*
X59475709Y63901685D01*
X59469300Y63842079D01*
X55846698Y63842079D01*
X55840291Y63901683D01*
X55819000Y63958765D01*
X55789998Y64036527D01*
X55789996Y64036530D01*
X55789996Y64036531D01*
X55746871Y64094139D01*
X55703746Y64151747D01*
X55626791Y64209355D01*
X55588531Y64237996D01*
X55588529Y64237997D01*
X55588526Y64237999D01*
X55453683Y64288291D01*
X55453686Y64288291D01*
X55394073Y64294700D01*
X53621935Y64294700D01*
X53621914Y64294698D01*
X53562319Y64288292D01*
X53562318Y64288292D01*
X53427473Y64237999D01*
X53427470Y64237997D01*
X53312253Y64151747D01*
X53226003Y64036530D01*
X53226001Y64036527D01*
X53175709Y63901685D01*
X53169300Y63842079D01*
X12937150Y63842079D01*
X12700951Y64056158D01*
X12700950Y64056159D01*
X12700942Y64056166D01*
X12385243Y64290304D01*
X12048100Y64492379D01*
X12048101Y64492379D01*
X12048097Y64492381D01*
X11692772Y64660438D01*
X11661266Y64671711D01*
X11322689Y64792856D01*
X11226995Y64816826D01*
X10941400Y64888364D01*
X10912816Y64892604D01*
X10552601Y64946037D01*
X10552594Y64946038D01*
X10552591Y64946038D01*
X10356295Y64955682D01*
X10160004Y64965325D01*
X10159996Y64965325D01*
X9935662Y64954304D01*
X9767409Y64946038D01*
X9767406Y64946038D01*
X9767398Y64946037D01*
X9378606Y64888365D01*
X9378604Y64888365D01*
X9378600Y64888364D01*
X9187958Y64840611D01*
X8997310Y64792856D01*
X8627230Y64660439D01*
X8271899Y64492379D01*
X7934756Y64290304D01*
X7619057Y64056166D01*
X7327808Y63792192D01*
X7063834Y63500943D01*
X6829696Y63185244D01*
X6627621Y62848101D01*
X6459561Y62492770D01*
X6327144Y62122690D01*
X6313925Y62069915D01*
X6231636Y61741400D01*
X6231635Y61741396D01*
X6231635Y61741394D01*
X6173963Y61352602D01*
X6173962Y61352594D01*
X6173962Y61352591D01*
X6172240Y61317547D01*
X6154675Y60960004D01*
X5344500Y60960004D01*
X5344500Y65649500D01*
X5364502Y65717621D01*
X5418158Y65764114D01*
X5470500Y65775500D01*
X85969500Y65775500D01*
X86037621Y65755498D01*
G37*
%TD.AperFunction*%
%TD*%
M02*
