%TF.GenerationSoftware,KiCad,Pcbnew,8.0.3+1*%
%TF.CreationDate,2024-07-20T17:55:20+00:00*%
%TF.ProjectId,LION2CELL02,4c494f4e-3243-4454-9c4c-30322e6b6963,rev?*%
%TF.SameCoordinates,Original*%
%TF.FileFunction,Copper,L2,Bot*%
%TF.FilePolarity,Positive*%
%FSLAX46Y46*%
G04 Gerber Fmt 4.6, Leading zero omitted, Abs format (unit mm)*
G04 Created by KiCad (PCBNEW 8.0.3+1) date 2024-07-20 17:55:20*
%MOMM*%
%LPD*%
G01*
G04 APERTURE LIST*
G04 Aperture macros list*
%AMRoundRect*
0 Rectangle with rounded corners*
0 $1 Rounding radius*
0 $2 $3 $4 $5 $6 $7 $8 $9 X,Y pos of 4 corners*
0 Add a 4 corners polygon primitive as box body*
4,1,4,$2,$3,$4,$5,$6,$7,$8,$9,$2,$3,0*
0 Add four circle primitives for the rounded corners*
1,1,$1+$1,$2,$3*
1,1,$1+$1,$4,$5*
1,1,$1+$1,$6,$7*
1,1,$1+$1,$8,$9*
0 Add four rect primitives between the rounded corners*
20,1,$1+$1,$2,$3,$4,$5,0*
20,1,$1+$1,$4,$5,$6,$7,0*
20,1,$1+$1,$6,$7,$8,$9,0*
20,1,$1+$1,$8,$9,$2,$3,0*%
%AMFreePoly0*
4,1,27,0.405000,0.748540,0.473851,0.737775,0.540468,0.697134,0.586462,0.634092,0.604830,0.558249,0.592775,0.481149,0.592776,0.481149,0.558927,0.388685,0.517726,0.196112,0.503933,-0.000335,0.517820,-0.196775,0.559113,-0.389328,0.593006,-0.481776,0.593005,-0.481776,0.605097,-0.558870,0.586765,-0.634722,0.540802,-0.697786,0.474204,-0.738459,0.405000,-0.749313,0.405000,-0.750000,
0.400623,-0.750000,0.397110,-0.750551,0.394830,-0.750000,-0.645000,-0.750000,-0.645000,0.750000,0.405000,0.750000,0.405000,0.748540,0.405000,0.748540,$1*%
%AMFreePoly1*
4,1,37,-1.390000,2.050000,0.435000,2.050000,0.435000,2.805000,1.035000,2.805000,1.035000,2.050000,1.215000,2.050000,1.215000,-2.050000,1.035000,-2.050000,1.035000,-2.805000,0.435000,-2.805000,0.435000,-2.050000,-1.390000,-2.050000,-1.390000,-2.805000,-1.990000,-2.805000,-1.990000,-2.050000,-2.285000,-2.050000,-2.285000,-2.210000,-3.305000,-2.210000,-3.305000,-1.600000,-2.595000,-1.600000,
-2.595000,-0.940000,-3.305000,-0.940000,-3.305000,-0.330000,-2.595000,-0.330000,-2.595000,0.330000,-3.305000,0.330000,-3.305000,0.940000,-2.595000,0.940000,-2.595000,1.600000,-3.305000,1.600000,-3.305000,2.210000,-2.285000,2.210000,-2.285000,2.050000,-1.990000,2.050000,-1.990000,2.805000,-1.390000,2.805000,-1.390000,2.050000,-1.390000,2.050000,$1*%
G04 Aperture macros list end*
%ADD10C,0.300000*%
%TA.AperFunction,NonConductor*%
%ADD11C,0.300000*%
%TD*%
%TA.AperFunction,ComponentPad*%
%ADD12R,3.810000X3.810000*%
%TD*%
%TA.AperFunction,ComponentPad*%
%ADD13R,1.524000X1.524000*%
%TD*%
%TA.AperFunction,ComponentPad*%
%ADD14O,0.900000X1.300000*%
%TD*%
%TA.AperFunction,ComponentPad*%
%ADD15C,6.000000*%
%TD*%
%TA.AperFunction,ComponentPad*%
%ADD16R,4.000000X4.000000*%
%TD*%
%TA.AperFunction,SMDPad,CuDef*%
%ADD17RoundRect,0.250000X-0.250000X-0.475000X0.250000X-0.475000X0.250000X0.475000X-0.250000X0.475000X0*%
%TD*%
%TA.AperFunction,SMDPad,CuDef*%
%ADD18RoundRect,0.225000X-0.250000X0.225000X-0.250000X-0.225000X0.250000X-0.225000X0.250000X0.225000X0*%
%TD*%
%TA.AperFunction,SMDPad,CuDef*%
%ADD19RoundRect,0.250000X-0.475000X0.250000X-0.475000X-0.250000X0.475000X-0.250000X0.475000X0.250000X0*%
%TD*%
%TA.AperFunction,SMDPad,CuDef*%
%ADD20RoundRect,0.250000X0.475000X-0.250000X0.475000X0.250000X-0.475000X0.250000X-0.475000X-0.250000X0*%
%TD*%
%TA.AperFunction,SMDPad,CuDef*%
%ADD21FreePoly0,90.000000*%
%TD*%
%TA.AperFunction,SMDPad,CuDef*%
%ADD22FreePoly0,270.000000*%
%TD*%
%TA.AperFunction,SMDPad,CuDef*%
%ADD23R,1.150000X0.600000*%
%TD*%
%TA.AperFunction,SMDPad,CuDef*%
%ADD24R,1.150000X0.300000*%
%TD*%
%TA.AperFunction,ComponentPad*%
%ADD25O,2.000000X1.000000*%
%TD*%
%TA.AperFunction,ComponentPad*%
%ADD26O,2.100000X1.050000*%
%TD*%
%TA.AperFunction,SMDPad,CuDef*%
%ADD27RoundRect,0.250000X-0.850000X0.375000X-0.850000X-0.375000X0.850000X-0.375000X0.850000X0.375000X0*%
%TD*%
%TA.AperFunction,SMDPad,CuDef*%
%ADD28R,0.610000X1.270000*%
%TD*%
%TA.AperFunction,SMDPad,CuDef*%
%ADD29FreePoly1,270.000000*%
%TD*%
%TA.AperFunction,SMDPad,CuDef*%
%ADD30RoundRect,0.250000X-0.450000X0.262500X-0.450000X-0.262500X0.450000X-0.262500X0.450000X0.262500X0*%
%TD*%
%TA.AperFunction,SMDPad,CuDef*%
%ADD31RoundRect,0.250000X0.262500X0.450000X-0.262500X0.450000X-0.262500X-0.450000X0.262500X-0.450000X0*%
%TD*%
%TA.AperFunction,SMDPad,CuDef*%
%ADD32RoundRect,0.250000X0.450000X-0.262500X0.450000X0.262500X-0.450000X0.262500X-0.450000X-0.262500X0*%
%TD*%
%TA.AperFunction,SMDPad,CuDef*%
%ADD33RoundRect,0.250000X0.312500X0.625000X-0.312500X0.625000X-0.312500X-0.625000X0.312500X-0.625000X0*%
%TD*%
%TA.AperFunction,SMDPad,CuDef*%
%ADD34RoundRect,0.250000X-0.262500X-0.450000X0.262500X-0.450000X0.262500X0.450000X-0.262500X0.450000X0*%
%TD*%
%TA.AperFunction,SMDPad,CuDef*%
%ADD35RoundRect,0.050000X0.050000X-0.425000X0.050000X0.425000X-0.050000X0.425000X-0.050000X-0.425000X0*%
%TD*%
%TA.AperFunction,SMDPad,CuDef*%
%ADD36RoundRect,0.050000X0.300000X-0.050000X0.300000X0.050000X-0.300000X0.050000X-0.300000X-0.050000X0*%
%TD*%
%TA.AperFunction,SMDPad,CuDef*%
%ADD37RoundRect,0.050000X0.050000X-0.250000X0.050000X0.250000X-0.050000X0.250000X-0.050000X-0.250000X0*%
%TD*%
%TA.AperFunction,SMDPad,CuDef*%
%ADD38RoundRect,0.050000X0.050000X-0.400000X0.050000X0.400000X-0.050000X0.400000X-0.050000X-0.400000X0*%
%TD*%
%TA.AperFunction,SMDPad,CuDef*%
%ADD39RoundRect,0.050000X0.250000X-0.050000X0.250000X0.050000X-0.250000X0.050000X-0.250000X-0.050000X0*%
%TD*%
%TA.AperFunction,SMDPad,CuDef*%
%ADD40RoundRect,0.050000X-0.300000X-0.050000X0.300000X-0.050000X0.300000X0.050000X-0.300000X0.050000X0*%
%TD*%
%TA.AperFunction,SMDPad,CuDef*%
%ADD41RoundRect,0.050000X0.050000X-0.300000X0.050000X0.300000X-0.050000X0.300000X-0.050000X-0.300000X0*%
%TD*%
%TA.AperFunction,SMDPad,CuDef*%
%ADD42RoundRect,0.050000X0.050000X-0.275000X0.050000X0.275000X-0.050000X0.275000X-0.050000X-0.275000X0*%
%TD*%
%TA.AperFunction,SMDPad,CuDef*%
%ADD43RoundRect,0.050000X0.050000X-0.290000X0.050000X0.290000X-0.050000X0.290000X-0.050000X-0.290000X0*%
%TD*%
%TA.AperFunction,SMDPad,CuDef*%
%ADD44RoundRect,0.050000X0.450000X-0.050000X0.450000X0.050000X-0.450000X0.050000X-0.450000X-0.050000X0*%
%TD*%
%TA.AperFunction,SMDPad,CuDef*%
%ADD45RoundRect,0.050000X-0.050000X-0.300000X0.050000X-0.300000X0.050000X0.300000X-0.050000X0.300000X0*%
%TD*%
%TA.AperFunction,ComponentPad*%
%ADD46C,0.500000*%
%TD*%
%TA.AperFunction,SMDPad,CuDef*%
%ADD47RoundRect,0.120400X-0.579600X-0.579600X0.579600X-0.579600X0.579600X0.579600X-0.579600X0.579600X0*%
%TD*%
%TA.AperFunction,SMDPad,CuDef*%
%ADD48RoundRect,0.250000X0.250000X0.475000X-0.250000X0.475000X-0.250000X-0.475000X0.250000X-0.475000X0*%
%TD*%
%TA.AperFunction,SMDPad,CuDef*%
%ADD49RoundRect,0.250000X-1.425000X0.362500X-1.425000X-0.362500X1.425000X-0.362500X1.425000X0.362500X0*%
%TD*%
%TA.AperFunction,SMDPad,CuDef*%
%ADD50R,1.270000X0.610000*%
%TD*%
%TA.AperFunction,SMDPad,CuDef*%
%ADD51FreePoly1,180.000000*%
%TD*%
%TA.AperFunction,SMDPad,CuDef*%
%ADD52C,1.000000*%
%TD*%
%TA.AperFunction,SMDPad,CuDef*%
%ADD53FreePoly1,90.000000*%
%TD*%
%TA.AperFunction,SMDPad,CuDef*%
%ADD54RoundRect,0.112500X0.187500X0.112500X-0.187500X0.112500X-0.187500X-0.112500X0.187500X-0.112500X0*%
%TD*%
%TA.AperFunction,SMDPad,CuDef*%
%ADD55RoundRect,0.225000X0.250000X-0.225000X0.250000X0.225000X-0.250000X0.225000X-0.250000X-0.225000X0*%
%TD*%
%TA.AperFunction,SMDPad,CuDef*%
%ADD56RoundRect,0.150000X-0.587500X-0.150000X0.587500X-0.150000X0.587500X0.150000X-0.587500X0.150000X0*%
%TD*%
G04 APERTURE END LIST*
D10*
D11*
X111687228Y38590072D02*
X111687228Y40090072D01*
X111687228Y40090072D02*
X111187228Y39018643D01*
X111187228Y39018643D02*
X110687228Y40090072D01*
X110687228Y40090072D02*
X110687228Y38590072D01*
X109258656Y38590072D02*
X109972942Y38590072D01*
X109972942Y38590072D02*
X109972942Y40090072D01*
X108830084Y39018643D02*
X108115799Y39018643D01*
X108972941Y38590072D02*
X108472941Y40090072D01*
X108472941Y40090072D02*
X107972941Y38590072D01*
X106972942Y39375786D02*
X106758656Y39304358D01*
X106758656Y39304358D02*
X106687227Y39232929D01*
X106687227Y39232929D02*
X106615799Y39090072D01*
X106615799Y39090072D02*
X106615799Y38875786D01*
X106615799Y38875786D02*
X106687227Y38732929D01*
X106687227Y38732929D02*
X106758656Y38661500D01*
X106758656Y38661500D02*
X106901513Y38590072D01*
X106901513Y38590072D02*
X107472942Y38590072D01*
X107472942Y38590072D02*
X107472942Y40090072D01*
X107472942Y40090072D02*
X106972942Y40090072D01*
X106972942Y40090072D02*
X106830085Y40018643D01*
X106830085Y40018643D02*
X106758656Y39947215D01*
X106758656Y39947215D02*
X106687227Y39804358D01*
X106687227Y39804358D02*
X106687227Y39661500D01*
X106687227Y39661500D02*
X106758656Y39518643D01*
X106758656Y39518643D02*
X106830085Y39447215D01*
X106830085Y39447215D02*
X106972942Y39375786D01*
X106972942Y39375786D02*
X107472942Y39375786D01*
X105972942Y38732929D02*
X105901513Y38661500D01*
X105901513Y38661500D02*
X105972942Y38590072D01*
X105972942Y38590072D02*
X106044370Y38661500D01*
X106044370Y38661500D02*
X105972942Y38732929D01*
X105972942Y38732929D02*
X105972942Y38590072D01*
X104401513Y38732929D02*
X104472941Y38661500D01*
X104472941Y38661500D02*
X104687227Y38590072D01*
X104687227Y38590072D02*
X104830084Y38590072D01*
X104830084Y38590072D02*
X105044370Y38661500D01*
X105044370Y38661500D02*
X105187227Y38804358D01*
X105187227Y38804358D02*
X105258656Y38947215D01*
X105258656Y38947215D02*
X105330084Y39232929D01*
X105330084Y39232929D02*
X105330084Y39447215D01*
X105330084Y39447215D02*
X105258656Y39732929D01*
X105258656Y39732929D02*
X105187227Y39875786D01*
X105187227Y39875786D02*
X105044370Y40018643D01*
X105044370Y40018643D02*
X104830084Y40090072D01*
X104830084Y40090072D02*
X104687227Y40090072D01*
X104687227Y40090072D02*
X104472941Y40018643D01*
X104472941Y40018643D02*
X104401513Y39947215D01*
X103901513Y40090072D02*
X102901513Y40090072D01*
X102901513Y40090072D02*
X103901513Y38590072D01*
X103901513Y38590072D02*
X102901513Y38590072D01*
D10*
D11*
X114385657Y35542072D02*
X115099943Y35542072D01*
X115099943Y35542072D02*
X115099943Y37042072D01*
X113885657Y35542072D02*
X113885657Y37042072D01*
X112885656Y37042072D02*
X112599942Y37042072D01*
X112599942Y37042072D02*
X112457085Y36970643D01*
X112457085Y36970643D02*
X112314228Y36827786D01*
X112314228Y36827786D02*
X112242799Y36542072D01*
X112242799Y36542072D02*
X112242799Y36042072D01*
X112242799Y36042072D02*
X112314228Y35756358D01*
X112314228Y35756358D02*
X112457085Y35613500D01*
X112457085Y35613500D02*
X112599942Y35542072D01*
X112599942Y35542072D02*
X112885656Y35542072D01*
X112885656Y35542072D02*
X113028514Y35613500D01*
X113028514Y35613500D02*
X113171371Y35756358D01*
X113171371Y35756358D02*
X113242799Y36042072D01*
X113242799Y36042072D02*
X113242799Y36542072D01*
X113242799Y36542072D02*
X113171371Y36827786D01*
X113171371Y36827786D02*
X113028514Y36970643D01*
X113028514Y36970643D02*
X112885656Y37042072D01*
X111599942Y35542072D02*
X111599942Y37042072D01*
X111599942Y37042072D02*
X110742799Y35542072D01*
X110742799Y35542072D02*
X110742799Y37042072D01*
X110099941Y36899215D02*
X110028513Y36970643D01*
X110028513Y36970643D02*
X109885656Y37042072D01*
X109885656Y37042072D02*
X109528513Y37042072D01*
X109528513Y37042072D02*
X109385656Y36970643D01*
X109385656Y36970643D02*
X109314227Y36899215D01*
X109314227Y36899215D02*
X109242798Y36756358D01*
X109242798Y36756358D02*
X109242798Y36613500D01*
X109242798Y36613500D02*
X109314227Y36399215D01*
X109314227Y36399215D02*
X110171370Y35542072D01*
X110171370Y35542072D02*
X109242798Y35542072D01*
X107742799Y35684929D02*
X107814227Y35613500D01*
X107814227Y35613500D02*
X108028513Y35542072D01*
X108028513Y35542072D02*
X108171370Y35542072D01*
X108171370Y35542072D02*
X108385656Y35613500D01*
X108385656Y35613500D02*
X108528513Y35756358D01*
X108528513Y35756358D02*
X108599942Y35899215D01*
X108599942Y35899215D02*
X108671370Y36184929D01*
X108671370Y36184929D02*
X108671370Y36399215D01*
X108671370Y36399215D02*
X108599942Y36684929D01*
X108599942Y36684929D02*
X108528513Y36827786D01*
X108528513Y36827786D02*
X108385656Y36970643D01*
X108385656Y36970643D02*
X108171370Y37042072D01*
X108171370Y37042072D02*
X108028513Y37042072D01*
X108028513Y37042072D02*
X107814227Y36970643D01*
X107814227Y36970643D02*
X107742799Y36899215D01*
X107099942Y36327786D02*
X106599942Y36327786D01*
X106385656Y35542072D02*
X107099942Y35542072D01*
X107099942Y35542072D02*
X107099942Y37042072D01*
X107099942Y37042072D02*
X106385656Y37042072D01*
X105028513Y35542072D02*
X105742799Y35542072D01*
X105742799Y35542072D02*
X105742799Y37042072D01*
X103814227Y35542072D02*
X104528513Y35542072D01*
X104528513Y35542072D02*
X104528513Y37042072D01*
X103028512Y37042072D02*
X102885655Y37042072D01*
X102885655Y37042072D02*
X102742798Y36970643D01*
X102742798Y36970643D02*
X102671370Y36899215D01*
X102671370Y36899215D02*
X102599941Y36756358D01*
X102599941Y36756358D02*
X102528512Y36470643D01*
X102528512Y36470643D02*
X102528512Y36113500D01*
X102528512Y36113500D02*
X102599941Y35827786D01*
X102599941Y35827786D02*
X102671370Y35684929D01*
X102671370Y35684929D02*
X102742798Y35613500D01*
X102742798Y35613500D02*
X102885655Y35542072D01*
X102885655Y35542072D02*
X103028512Y35542072D01*
X103028512Y35542072D02*
X103171370Y35613500D01*
X103171370Y35613500D02*
X103242798Y35684929D01*
X103242798Y35684929D02*
X103314227Y35827786D01*
X103314227Y35827786D02*
X103385655Y36113500D01*
X103385655Y36113500D02*
X103385655Y36470643D01*
X103385655Y36470643D02*
X103314227Y36756358D01*
X103314227Y36756358D02*
X103242798Y36899215D01*
X103242798Y36899215D02*
X103171370Y36970643D01*
X103171370Y36970643D02*
X103028512Y37042072D01*
X101957084Y36899215D02*
X101885656Y36970643D01*
X101885656Y36970643D02*
X101742799Y37042072D01*
X101742799Y37042072D02*
X101385656Y37042072D01*
X101385656Y37042072D02*
X101242799Y36970643D01*
X101242799Y36970643D02*
X101171370Y36899215D01*
X101171370Y36899215D02*
X101099941Y36756358D01*
X101099941Y36756358D02*
X101099941Y36613500D01*
X101099941Y36613500D02*
X101171370Y36399215D01*
X101171370Y36399215D02*
X102028513Y35542072D01*
X102028513Y35542072D02*
X101099941Y35542072D01*
X100528513Y35970643D02*
X99814228Y35970643D01*
X100671370Y35542072D02*
X100171370Y37042072D01*
X100171370Y37042072D02*
X99671370Y35542072D01*
D12*
%TO.P,J2,1,P1*%
%TO.N,/Power Input/Power_load*%
X24126201Y57816000D03*
X19126201Y57816000D03*
%TD*%
%TO.P,J3,1,P1*%
%TO.N,GND*%
X24126200Y62819800D03*
X19126200Y62819800D03*
%TD*%
D13*
%TO.P,J4,1,2*%
%TO.N,GND*%
X74422000Y11811000D03*
%TO.P,J4,2,2*%
X74422000Y9271000D03*
%TO.P,J4,3,4*%
%TO.N,/Power Input/System_load*%
X71882000Y11811000D03*
%TO.P,J4,4,4*%
X71882000Y9271000D03*
%TO.P,J4,5,5*%
X69342000Y11811000D03*
%TO.P,J4,6,5*%
X69342000Y9271000D03*
%TO.P,J4,7,8*%
%TO.N,GND*%
X66802000Y11811000D03*
%TO.P,J4,8,8*%
X66802000Y9271000D03*
%TD*%
%TO.P,J6,1*%
%TO.N,Net-(U1-INT)*%
X46418500Y61948000D03*
%TO.P,J6,2*%
X46418500Y59408000D03*
%TD*%
%TO.P,J7,1*%
%TO.N,Net-(U1-nQON)*%
X39306500Y10132000D03*
%TO.P,J7,2*%
X41846500Y10132000D03*
%TD*%
D12*
%TO.P,J9,1,P1*%
%TO.N,GND*%
X19955500Y8323000D03*
X24955500Y8323000D03*
%TD*%
D13*
%TO.P,J10,1*%
%TO.N,Net-(U3-BTP_INT)*%
X56769000Y63119000D03*
%TO.P,J10,2*%
X56769000Y60579000D03*
%TD*%
%TO.P,J11,1*%
%TO.N,Net-(U3-~{PRES{slash}SHDWN})*%
X59309000Y63119000D03*
%TO.P,J11,2*%
%TO.N,GND1*%
X59309000Y60579000D03*
%TD*%
%TO.P,J12,1*%
%TO.N,GND*%
X65278000Y57658000D03*
%TO.P,J12,2*%
X65278000Y60198000D03*
%TO.P,J12,3*%
%TO.N,Net-(J12-Pad3)*%
X67818000Y57658000D03*
%TO.P,J12,4*%
X67818000Y60198000D03*
%TO.P,J12,5*%
%TO.N,+3.3V*%
X70358000Y57657999D03*
%TO.P,J12,6*%
X70358000Y60198001D03*
%TO.P,J12,7*%
%TO.N,Net-(J12-Pad7)*%
X72898000Y57658000D03*
%TO.P,J12,8*%
X72898000Y60198000D03*
%TO.P,J12,9*%
%TO.N,GND*%
X75438000Y57658000D03*
%TO.P,J12,10*%
X75438000Y60198000D03*
%TD*%
D12*
%TO.P,J8,1,P1*%
%TO.N,VBUS*%
X19955500Y13276000D03*
X24955500Y13276000D03*
%TD*%
D14*
%TO.P,SW1,GND,SHIELD*%
%TO.N,GND1*%
X58212700Y-5401600D03*
X62462700Y-5401600D03*
%TD*%
%TO.P,SW2,GND,SHIELD*%
%TO.N,GND1*%
X48742700Y-5048600D03*
X52992700Y-5048600D03*
%TD*%
D15*
%TO.P,H2,1,1*%
%TO.N,GND*%
X81280000Y60960000D03*
%TD*%
%TO.P,H3,1,1*%
%TO.N,GND*%
X10160000Y10160000D03*
%TD*%
D16*
%TO.P,B1,1,+*%
%TO.N,/Fuel Gauge/B+*%
X9470000Y45210000D03*
%TO.P,B1,2,-*%
%TO.N,Net-(B1A--)*%
X81970000Y45210000D03*
%TO.P,B1,3,+*%
X9470000Y25910000D03*
%TO.P,B1,4,-*%
%TO.N,GND1*%
X81970000Y25910000D03*
%TD*%
D15*
%TO.P,H4,1,1*%
%TO.N,GND*%
X81280000Y10160000D03*
%TD*%
%TO.P,H1,1,1*%
%TO.N,GND*%
X10160000Y60960000D03*
%TD*%
D17*
%TO.P,C1,1*%
%TO.N,VBUS*%
X14696400Y30276800D03*
%TO.P,C1,2*%
%TO.N,GND*%
X16596400Y30276800D03*
%TD*%
D18*
%TO.P,C5,1*%
%TO.N,/Power Input/System_load*%
X33655000Y34684000D03*
%TO.P,C5,2*%
%TO.N,GND*%
X33655000Y33134000D03*
%TD*%
D17*
%TO.P,C6,1*%
%TO.N,/Power Input/System_load*%
X33594000Y36576000D03*
%TO.P,C6,2*%
%TO.N,GND*%
X35494000Y36576000D03*
%TD*%
%TO.P,C7,1*%
%TO.N,/Power Input/System_load*%
X20487600Y52374800D03*
%TO.P,C7,2*%
%TO.N,GND*%
X22387600Y52374800D03*
%TD*%
%TO.P,C8,1*%
%TO.N,/Power Input/System_load*%
X20513000Y50292000D03*
%TO.P,C8,2*%
%TO.N,GND*%
X22413000Y50292000D03*
%TD*%
%TO.P,C9,1*%
%TO.N,Net-(U1-BTST1)*%
X28895000Y27305000D03*
%TO.P,C9,2*%
%TO.N,Net-(U1-SW1)*%
X30795000Y27305000D03*
%TD*%
D19*
%TO.P,C11,1*%
%TO.N,/Power Input/Power_load*%
X41846500Y27332700D03*
%TO.P,C11,2*%
%TO.N,GND*%
X41846500Y25432700D03*
%TD*%
%TO.P,C12,1*%
%TO.N,/Fuel Gauge/B+*%
X92557600Y32217401D03*
%TO.P,C12,2*%
%TO.N,Net-(C12-Pad2)*%
X92557600Y30317401D03*
%TD*%
%TO.P,C13,1*%
%TO.N,Net-(C12-Pad2)*%
X92557600Y28915400D03*
%TO.P,C13,2*%
%TO.N,/Fuel Gauge/PACK+*%
X92557600Y27015400D03*
%TD*%
%TO.P,C14,1*%
%TO.N,Net-(C14-Pad1)*%
X74485500Y23274000D03*
%TO.P,C14,2*%
%TO.N,/Fuel Gauge/PACK+*%
X74485500Y21374000D03*
%TD*%
D17*
%TO.P,C15,1*%
%TO.N,GND*%
X68074500Y27404000D03*
%TO.P,C15,2*%
%TO.N,Net-(C14-Pad1)*%
X69974500Y27404000D03*
%TD*%
%TO.P,C16,1*%
%TO.N,GND1*%
X68074500Y33500000D03*
%TO.P,C16,2*%
%TO.N,Net-(U3-PBI)*%
X69974500Y33500000D03*
%TD*%
D20*
%TO.P,C17,1*%
%TO.N,Net-(U3-VC2)*%
X54457600Y28209200D03*
%TO.P,C17,2*%
%TO.N,Net-(U3-VC1)*%
X54457600Y30109200D03*
%TD*%
D19*
%TO.P,C18,1*%
%TO.N,Net-(U3-VC1)*%
X56743600Y30109200D03*
%TO.P,C18,2*%
%TO.N,GND1*%
X56743600Y28209200D03*
%TD*%
D21*
%TO.P,D1,1,K*%
%TO.N,Net-(D1-K)*%
X48895000Y7112000D03*
D22*
%TO.P,D1,2,A*%
%TO.N,Net-(D1-A)*%
X48895000Y10922000D03*
%TD*%
%TO.P,D3,1,K*%
%TO.N,Net-(D3-K)*%
X40144700Y-2110800D03*
D21*
%TO.P,D3,2,A*%
%TO.N,Net-(D3-A)*%
X40144700Y-5920800D03*
%TD*%
D22*
%TO.P,D4,1,K*%
%TO.N,Net-(D1-A)*%
X51943000Y10922000D03*
D21*
%TO.P,D4,2,A*%
%TO.N,Net-(D1-K)*%
X51943000Y7112000D03*
%TD*%
%TO.P,D7,1,K*%
%TO.N,Net-(D1-K)*%
X58166000Y7112000D03*
D22*
%TO.P,D7,2,A*%
%TO.N,Net-(D5-K)*%
X58166000Y10922000D03*
%TD*%
D21*
%TO.P,D8,1,K*%
%TO.N,Net-(D1-A)*%
X61214000Y7112000D03*
D22*
%TO.P,D8,2,A*%
%TO.N,Net-(D5-K)*%
X61214000Y10922000D03*
%TD*%
D23*
%TO.P,J1,A1/B12,GND*%
%TO.N,GND*%
X12756000Y32360000D03*
%TO.P,J1,A4/B9,VBUS*%
%TO.N,VBUS*%
X12756000Y33160000D03*
D24*
%TO.P,J1,A5,CC1*%
%TO.N,Net-(J1-CC1)*%
X12756000Y34310000D03*
%TO.P,J1,A6,D+*%
%TO.N,/Power Input/D+*%
X12756000Y35310000D03*
%TO.P,J1,A7,D-*%
%TO.N,/Power Input/D-*%
X12756000Y35810000D03*
%TO.P,J1,A8,SBU1*%
%TO.N,unconnected-(J1-SBU1-PadA8)*%
X12756000Y36810000D03*
D23*
%TO.P,J1,B1/A12,GND*%
%TO.N,GND*%
X12756000Y38760000D03*
%TO.P,J1,B4/A9,VBUS*%
%TO.N,VBUS*%
X12756000Y37960000D03*
D24*
%TO.P,J1,B5,CC2*%
%TO.N,Net-(J1-CC2)*%
X12756000Y37310000D03*
%TO.P,J1,B6,D+*%
%TO.N,/Power Input/D+*%
X12756000Y36310000D03*
%TO.P,J1,B7,D-*%
%TO.N,/Power Input/D-*%
X12756000Y34810000D03*
%TO.P,J1,B8,SBU2*%
%TO.N,unconnected-(J1-SBU2-PadB8)*%
X12756000Y33810000D03*
D25*
%TO.P,J1,G1,SHIELD*%
%TO.N,GND*%
X8001000Y31240000D03*
%TO.P,J1,G2,SHIELD*%
X8001000Y39880000D03*
D26*
%TO.P,J1,G3,SHIELD*%
X12181000Y31240000D03*
%TO.P,J1,G4,SHIELD*%
X12181000Y39880000D03*
%TD*%
D27*
%TO.P,L1,1*%
%TO.N,Net-(U1-SW2)*%
X37592000Y33333000D03*
%TO.P,L1,2*%
%TO.N,Net-(U1-SW1)*%
X37592000Y31183000D03*
%TD*%
D28*
%TO.P,Q1,1,S*%
%TO.N,/Power Input/Power_load*%
X42037000Y43050000D03*
X40767000Y43050000D03*
X43307000Y43049999D03*
%TO.P,Q1,2,G*%
%TO.N,Net-(Q1-G)*%
X39497000Y43049999D03*
D29*
%TO.P,Q1,3,D*%
%TO.N,/Fuel Gauge/PACK+*%
X41402000Y45720000D03*
%TD*%
D30*
%TO.P,R1,1*%
%TO.N,GND*%
X15621000Y39393500D03*
%TO.P,R1,2*%
%TO.N,Net-(J1-CC2)*%
X15621000Y37568500D03*
%TD*%
D31*
%TO.P,R3,1*%
%TO.N,Net-(U1-ILIM_HIZ)*%
X24407500Y40005000D03*
%TO.P,R3,2*%
%TO.N,/Power Input/REGN*%
X22582500Y40005000D03*
%TD*%
D30*
%TO.P,R5,1*%
%TO.N,/Power Input/REGN*%
X21285200Y36447100D03*
%TO.P,R5,2*%
%TO.N,Net-(U1-TS)*%
X21285200Y34622100D03*
%TD*%
D31*
%TO.P,R6,1*%
%TO.N,Net-(U1-TS)*%
X21283300Y30607000D03*
%TO.P,R6,2*%
%TO.N,GND*%
X19458300Y30607000D03*
%TD*%
D32*
%TO.P,R7,1*%
%TO.N,/Power Input/REGN*%
X40005000Y-9548500D03*
%TO.P,R7,2*%
%TO.N,Net-(D3-A)*%
X40005000Y-7723500D03*
%TD*%
%TO.P,R8,1*%
%TO.N,Net-(U1-BATP)*%
X27432000Y40743500D03*
%TO.P,R8,2*%
%TO.N,/Fuel Gauge/PACK+*%
X27432000Y42568500D03*
%TD*%
%TO.P,R9,1*%
%TO.N,Net-(U1-PROG)*%
X30480000Y38584500D03*
%TO.P,R9,2*%
%TO.N,GND*%
X30480000Y40409500D03*
%TD*%
D31*
%TO.P,R11,1*%
%TO.N,+3.3V*%
X50772700Y59283600D03*
%TO.P,R11,2*%
%TO.N,Net-(U1-INT)*%
X48947700Y59283600D03*
%TD*%
D33*
%TO.P,R17,1*%
%TO.N,/Fuel Gauge/B+*%
X73090500Y18770600D03*
%TO.P,R17,2*%
%TO.N,Net-(Q2-D)*%
X70165500Y18770600D03*
%TD*%
D32*
%TO.P,R18,1*%
%TO.N,Net-(Q2-G)*%
X62738000Y20144100D03*
%TO.P,R18,2*%
%TO.N,/Fuel Gauge/VCOM*%
X62738000Y21969100D03*
%TD*%
D34*
%TO.P,R19,1*%
%TO.N,Net-(U3-PCHG)*%
X61063500Y18008600D03*
%TO.P,R19,2*%
%TO.N,Net-(Q2-G)*%
X62888500Y18008600D03*
%TD*%
D30*
%TO.P,R20,1*%
%TO.N,Net-(U3-VCC)*%
X62839600Y26287100D03*
%TO.P,R20,2*%
%TO.N,/Fuel Gauge/VCOM*%
X62839600Y24462100D03*
%TD*%
D34*
%TO.P,R23,1*%
%TO.N,Net-(Q5-G)*%
X61342900Y40157400D03*
%TO.P,R23,2*%
%TO.N,/Fuel Gauge/PACK+*%
X63167900Y40157400D03*
%TD*%
%TO.P,R24,1*%
%TO.N,/Fuel Gauge/PACK+*%
X56745500Y34325500D03*
%TO.P,R24,2*%
%TO.N,Net-(U3-PACK)*%
X58570500Y34325500D03*
%TD*%
D30*
%TO.P,R27,1*%
%TO.N,Net-(Q5-G)*%
X61239400Y38021900D03*
%TO.P,R27,2*%
%TO.N,Net-(U3-DSG)*%
X61239400Y36196900D03*
%TD*%
D34*
%TO.P,R28,1*%
%TO.N,Net-(U3-CHG)*%
X75643100Y33299400D03*
%TO.P,R28,2*%
%TO.N,Net-(Q3-G)*%
X77468100Y33299400D03*
%TD*%
%TO.P,R32,1*%
%TO.N,/Fuel Gauge/B+*%
X12701900Y45034200D03*
%TO.P,R32,2*%
%TO.N,Net-(U3-VC2)*%
X14526900Y45034200D03*
%TD*%
%TO.P,R33,1*%
%TO.N,Net-(B1A--)*%
X12752700Y22631400D03*
%TO.P,R33,2*%
%TO.N,Net-(U3-VC1)*%
X14577700Y22631400D03*
%TD*%
D35*
%TO.P,U1,1,STAT*%
%TO.N,Net-(D3-K)*%
X31127500Y30626700D03*
D36*
X31377500Y31001700D03*
D37*
%TO.P,U1,2,VBUS*%
%TO.N,VBUS*%
X30727500Y30451700D03*
%TO.P,U1,3,VBUS*%
X30327500Y30451700D03*
%TO.P,U1,4,BTST1*%
%TO.N,Net-(U1-BTST1)*%
X29927500Y30451700D03*
%TO.P,U1,5,REGN*%
%TO.N,/Power Input/REGN*%
X29527500Y30451700D03*
%TO.P,U1,6,D+*%
%TO.N,/Power Input/D+*%
X29127500Y30451700D03*
%TO.P,U1,7,D-*%
%TO.N,/Power Input/D-*%
X28727500Y30451700D03*
%TO.P,U1,8,VAC2*%
%TO.N,VBUS*%
X28327500Y30451700D03*
D38*
%TO.P,U1,9,VAC1*%
X27927500Y30601700D03*
D36*
X27677500Y30951700D03*
D39*
%TO.P,U1,10,ACDRV2*%
%TO.N,GND*%
X27627500Y31351700D03*
%TO.P,U1,11,ACDRV1*%
X27627500Y31751700D03*
%TO.P,U1,12,nQON*%
%TO.N,Net-(U1-nQON)*%
X27627500Y32151700D03*
%TO.P,U1,13,CE*%
%TO.N,GND*%
X27627500Y32551700D03*
%TO.P,U1,14,SCL*%
%TO.N,/Power Input/SCL*%
X27627500Y32951700D03*
%TO.P,U1,15,SDA*%
%TO.N,/Power Input/SDA*%
X27627500Y33351700D03*
D40*
%TO.P,U1,16,TS*%
%TO.N,Net-(U1-TS)*%
X27677500Y33751700D03*
D38*
X27927500Y34101700D03*
D41*
%TO.P,U1,17,ILIM_HIZ*%
%TO.N,Net-(U1-ILIM_HIZ)*%
X28327500Y34201700D03*
D42*
%TO.P,U1,18,BATP*%
%TO.N,Net-(U1-BATP)*%
X28727500Y34226700D03*
D43*
%TO.P,U1,19,BTST2*%
%TO.N,Net-(U1-BTST2)*%
X29127500Y34214200D03*
D37*
%TO.P,U1,20,PROG*%
%TO.N,Net-(U1-PROG)*%
X29527500Y34251700D03*
%TO.P,U1,21,INT*%
%TO.N,Net-(U1-INT)*%
X29927500Y34251700D03*
%TO.P,U1,22,BAT*%
%TO.N,/Power Input/Power_load*%
X30327500Y34251700D03*
%TO.P,U1,23,BAT*%
X30727500Y34251700D03*
D36*
%TO.P,U1,24,SDRV*%
%TO.N,Net-(Q1-G)*%
X31377500Y33701700D03*
D35*
X31127500Y34076700D03*
D44*
%TO.P,U1,25,SYS*%
%TO.N,/Power Input/System_load*%
X31127500Y33151700D03*
%TO.P,U1,26,SW2*%
%TO.N,Net-(U1-SW2)*%
X31127500Y32751700D03*
%TO.P,U1,27,GND*%
%TO.N,GND*%
X31127500Y32351700D03*
%TO.P,U1,28,SW1*%
%TO.N,Net-(U1-SW1)*%
X31127500Y31951700D03*
%TO.P,U1,29,PMID*%
%TO.N,Net-(U1-PMID)*%
X31127500Y31551700D03*
%TD*%
D40*
%TO.P,U3,1,PBI*%
%TO.N,Net-(U3-PBI)*%
X59785500Y28544000D03*
%TO.P,U3,2,VC4*%
%TO.N,Net-(U3-VC2)*%
X59785500Y28944000D03*
%TO.P,U3,3,VC3*%
X59785500Y29344000D03*
%TO.P,U3,4,VC2*%
X59785500Y29744000D03*
%TO.P,U3,5,VC1*%
%TO.N,Net-(U3-VC1)*%
X59785500Y30144000D03*
%TO.P,U3,6,SRN*%
%TO.N,/Fuel Gauge/SR-*%
X59785500Y30544000D03*
%TO.P,U3,7,NC*%
%TO.N,unconnected-(U3-NC-Pad7)*%
X59785500Y30944000D03*
%TO.P,U3,8,SRP*%
%TO.N,/Fuel Gauge/SR+*%
X59785500Y31344000D03*
D45*
%TO.P,U3,9,VSS*%
%TO.N,GND1*%
X60385500Y31944000D03*
%TO.P,U3,10,TS1*%
%TO.N,Net-(U3-TS1)*%
X60785500Y31944000D03*
%TO.P,U3,11,TS2*%
%TO.N,Net-(U3-TS2)*%
X61185500Y31944000D03*
%TO.P,U3,12,TS3*%
%TO.N,GND1*%
X61585500Y31944000D03*
%TO.P,U3,13,TS4*%
X61985500Y31944000D03*
%TO.P,U3,14,NC*%
%TO.N,unconnected-(U3-NC-Pad14)*%
X62385500Y31944000D03*
%TO.P,U3,15,BTP_INT*%
%TO.N,Net-(U3-BTP_INT)*%
X62785500Y31944000D03*
%TO.P,U3,16,~{PRES/SHDWN}*%
%TO.N,Net-(U3-~{PRES{slash}SHDWN})*%
X63185500Y31944000D03*
D40*
%TO.P,U3,17,~{DISP}*%
%TO.N,Net-(U3-~{DISP})*%
X63785500Y31344000D03*
%TO.P,U3,18,SMBD*%
%TO.N,/Fuel Gauge/SDA*%
X63785500Y30944000D03*
%TO.P,U3,19,SMBC*%
%TO.N,/Fuel Gauge/SCL*%
X63785500Y30544000D03*
%TO.P,U3,20,LEDCNTLA*%
%TO.N,Net-(D1-A)*%
X63785500Y30144000D03*
%TO.P,U3,21,LEDCNTLB*%
%TO.N,Net-(D1-K)*%
X63785500Y29744000D03*
%TO.P,U3,22,LEDCNTLC*%
%TO.N,Net-(D5-K)*%
X63785500Y29344000D03*
%TO.P,U3,23,PTC*%
%TO.N,Net-(U3-PTC)*%
X63785500Y28944000D03*
%TO.P,U3,24,PTCEN*%
%TO.N,/Fuel Gauge/BAT*%
X63785500Y28544000D03*
D45*
%TO.P,U3,25,FUSE*%
%TO.N,GND1*%
X63185500Y27944000D03*
%TO.P,U3,26,VCC*%
%TO.N,Net-(U3-VCC)*%
X62785500Y27944000D03*
%TO.P,U3,27,PACK*%
%TO.N,Net-(U3-PACK)*%
X62385500Y27944000D03*
%TO.P,U3,28,DSG*%
%TO.N,Net-(U3-DSG)*%
X61985500Y27944000D03*
%TO.P,U3,29,NC*%
%TO.N,unconnected-(U3-NC-Pad29)*%
X61585500Y27944000D03*
%TO.P,U3,30,PCHG*%
%TO.N,Net-(U3-PCHG)*%
X61185500Y27944000D03*
%TO.P,U3,31,CHG*%
%TO.N,Net-(U3-CHG)*%
X60785500Y27944000D03*
%TO.P,U3,32,BAT*%
%TO.N,/Fuel Gauge/BAT*%
X60385500Y27944000D03*
D46*
%TO.P,U3,33,PWRPD*%
%TO.N,GND1*%
X61435500Y30294000D03*
X61435500Y29594000D03*
D47*
X61785500Y29944000D03*
D46*
X62135500Y30294000D03*
X62135500Y29594000D03*
%TD*%
D32*
%TO.P,R4,1*%
%TO.N,Net-(U1-ILIM_HIZ)*%
X24282400Y41911900D03*
%TO.P,R4,2*%
%TO.N,GND*%
X24282400Y43736900D03*
%TD*%
D22*
%TO.P,D5,1,K*%
%TO.N,Net-(D5-K)*%
X55118000Y10922000D03*
D21*
%TO.P,D5,2,A*%
%TO.N,Net-(D1-K)*%
X55118000Y7112000D03*
%TD*%
D19*
%TO.P,C4,1*%
%TO.N,VBUS*%
X21005800Y28153400D03*
%TO.P,C4,2*%
%TO.N,GND*%
X21005800Y26253400D03*
%TD*%
%TO.P,C3,1*%
%TO.N,VBUS*%
X18770600Y28204200D03*
%TO.P,C3,2*%
%TO.N,GND*%
X18770600Y26304200D03*
%TD*%
%TO.P,C2,1*%
%TO.N,VBUS*%
X16560800Y28255000D03*
%TO.P,C2,2*%
%TO.N,GND*%
X16560800Y26355000D03*
%TD*%
D48*
%TO.P,C10,1*%
%TO.N,Net-(U1-SW2)*%
X30922000Y36703000D03*
%TO.P,C10,2*%
%TO.N,Net-(U1-BTST2)*%
X29022000Y36703000D03*
%TD*%
D32*
%TO.P,R2,1*%
%TO.N,GND*%
X15621000Y32488500D03*
%TO.P,R2,2*%
%TO.N,Net-(J1-CC1)*%
X15621000Y34313500D03*
%TD*%
D34*
%TO.P,R34,1*%
%TO.N,GND1*%
X51411500Y23749000D03*
%TO.P,R34,2*%
%TO.N,/Fuel Gauge/SR+*%
X53236500Y23749000D03*
%TD*%
D20*
%TO.P,C19,1*%
%TO.N,/Power Input/Power_load*%
X52006500Y42202000D03*
%TO.P,C19,2*%
%TO.N,GND*%
X52006500Y44102000D03*
%TD*%
D48*
%TO.P,C20,1*%
%TO.N,/Power Input/REGN*%
X27239000Y27305000D03*
%TO.P,C20,2*%
%TO.N,GND*%
X25339000Y27305000D03*
%TD*%
D49*
%TO.P,R35,1*%
%TO.N,GND1*%
X48463200Y25619300D03*
%TO.P,R35,2*%
%TO.N,GND*%
X48463200Y19694300D03*
%TD*%
D34*
%TO.P,R36,1*%
%TO.N,GND*%
X51411500Y21590000D03*
%TO.P,R36,2*%
%TO.N,/Fuel Gauge/SR-*%
X53236500Y21590000D03*
%TD*%
D30*
%TO.P,R22,1*%
%TO.N,Net-(Q3-G)*%
X80111600Y33195900D03*
%TO.P,R22,2*%
%TO.N,/Fuel Gauge/B+*%
X80111600Y31370900D03*
%TD*%
D50*
%TO.P,Q5,1,S*%
%TO.N,/Fuel Gauge/PACK+*%
X54734000Y45085000D03*
X54734000Y46355000D03*
X54734000Y47625000D03*
%TO.P,Q5,2,G*%
%TO.N,Net-(Q5-G)*%
X54734000Y48895000D03*
D51*
%TO.P,Q5,3,D*%
%TO.N,/Fuel Gauge/VCOM*%
X57404000Y46990000D03*
%TD*%
D52*
%TO.P,FID4,*%
%TO.N,*%
X20213700Y-14110600D03*
%TD*%
%TO.P,FID1,*%
%TO.N,*%
X20213700Y-3460600D03*
%TD*%
D28*
%TO.P,Q3,1,S*%
%TO.N,/Fuel Gauge/B+*%
X88773000Y41786000D03*
X90043000Y41786000D03*
X91313000Y41786000D03*
%TO.P,Q3,2,G*%
%TO.N,Net-(Q3-G)*%
X92583000Y41786000D03*
D53*
%TO.P,Q3,3,D*%
%TO.N,/Fuel Gauge/VCOM*%
X90678000Y39116000D03*
%TD*%
D31*
%TO.P,TH3,1*%
%TO.N,Net-(U1-TS)*%
X21283300Y32639000D03*
%TO.P,TH3,2*%
%TO.N,GND*%
X19458300Y32639000D03*
%TD*%
D17*
%TO.P,C27,1*%
%TO.N,Net-(U1-PMID)*%
X33721001Y23876000D03*
%TO.P,C27,2*%
%TO.N,GND*%
X35620999Y23876000D03*
%TD*%
D52*
%TO.P,FID2,*%
%TO.N,*%
X20213700Y-7010600D03*
%TD*%
D31*
%TO.P,TH4,1*%
%TO.N,Net-(U3-PTC)*%
X57046500Y17272000D03*
%TO.P,TH4,2*%
%TO.N,/Fuel Gauge/BAT*%
X55221500Y17272000D03*
%TD*%
D54*
%TO.P,D6,1,K*%
%TO.N,/Fuel Gauge/BAT*%
X42858400Y19659600D03*
%TO.P,D6,2,A*%
%TO.N,/Fuel Gauge/B+*%
X40758400Y19659600D03*
%TD*%
D19*
%TO.P,C21,1*%
%TO.N,/Fuel Gauge/SR+*%
X55245000Y23555999D03*
%TO.P,C21,2*%
%TO.N,/Fuel Gauge/SR-*%
X55245000Y21656001D03*
%TD*%
D17*
%TO.P,C25,1*%
%TO.N,Net-(U1-PMID)*%
X33721001Y26035000D03*
%TO.P,C25,2*%
%TO.N,GND*%
X35620999Y26035000D03*
%TD*%
D55*
%TO.P,C24,1*%
%TO.N,Net-(U1-PMID)*%
X33655000Y30086000D03*
%TO.P,C24,2*%
%TO.N,GND*%
X33655000Y31636000D03*
%TD*%
D17*
%TO.P,C31,1*%
%TO.N,/Power Input/System_load*%
X33594000Y40894000D03*
%TO.P,C31,2*%
%TO.N,GND*%
X35494000Y40894000D03*
%TD*%
D52*
%TO.P,FID3,*%
%TO.N,*%
X20213700Y-10560600D03*
%TD*%
D17*
%TO.P,C30,1*%
%TO.N,/Power Input/System_load*%
X33594000Y38735000D03*
%TO.P,C30,2*%
%TO.N,GND*%
X35494000Y38735000D03*
%TD*%
D19*
%TO.P,C29,1*%
%TO.N,VBUS*%
X28575000Y13141999D03*
%TO.P,C29,2*%
%TO.N,GND*%
X28575000Y11242001D03*
%TD*%
D17*
%TO.P,C26,1*%
%TO.N,Net-(U1-PMID)*%
X33721001Y28194000D03*
%TO.P,C26,2*%
%TO.N,GND*%
X35620999Y28194000D03*
%TD*%
D56*
%TO.P,Q2,1,G*%
%TO.N,Net-(Q2-G)*%
X65102500Y18074600D03*
%TO.P,Q2,2,S*%
%TO.N,/Fuel Gauge/VCOM*%
X65102500Y19974600D03*
%TO.P,Q2,3,D*%
%TO.N,Net-(Q2-D)*%
X66977500Y19024600D03*
%TD*%
%TA.AperFunction,Conductor*%
%TO.N,GND*%
G36*
X86037621Y65755498D02*
G01*
X86084114Y65701842D01*
X86095500Y65649500D01*
X86095500Y5470500D01*
X86075498Y5402379D01*
X86021842Y5355886D01*
X85969500Y5344500D01*
X5470500Y5344500D01*
X5402379Y5364502D01*
X5355886Y5418158D01*
X5344500Y5470500D01*
X5344500Y7527656D01*
X47638460Y7527656D01*
X47639393Y7505049D01*
X47639500Y7499855D01*
X47639500Y6467006D01*
X47644644Y6395064D01*
X47644645Y6395060D01*
X47685181Y6257008D01*
X47762969Y6135968D01*
X47871706Y6041746D01*
X48002584Y5981976D01*
X48145000Y5961500D01*
X48145003Y5961500D01*
X49644994Y5961500D01*
X49645000Y5961500D01*
X49716940Y5966645D01*
X49854992Y6007181D01*
X49976032Y6084969D01*
X50070254Y6193706D01*
X50130024Y6324584D01*
X50150500Y6467000D01*
X50150500Y7482745D01*
X50150605Y7487881D01*
X50151305Y7505049D01*
X50152228Y7527656D01*
X50686460Y7527656D01*
X50687393Y7505049D01*
X50687500Y7499855D01*
X50687500Y6467006D01*
X50692644Y6395064D01*
X50692645Y6395060D01*
X50733181Y6257008D01*
X50810969Y6135968D01*
X50919706Y6041746D01*
X51050584Y5981976D01*
X51193000Y5961500D01*
X51193003Y5961500D01*
X52692994Y5961500D01*
X52693000Y5961500D01*
X52764940Y5966645D01*
X52902992Y6007181D01*
X53024032Y6084969D01*
X53118254Y6193706D01*
X53178024Y6324584D01*
X53198500Y6467000D01*
X53198500Y7482745D01*
X53198605Y7487881D01*
X53199305Y7505049D01*
X53200228Y7527656D01*
X53861460Y7527656D01*
X53862393Y7505049D01*
X53862500Y7499855D01*
X53862500Y6467006D01*
X53867644Y6395064D01*
X53867645Y6395060D01*
X53908181Y6257008D01*
X53985969Y6135968D01*
X54094706Y6041746D01*
X54225584Y5981976D01*
X54368000Y5961500D01*
X54368003Y5961500D01*
X55867994Y5961500D01*
X55868000Y5961500D01*
X55939940Y5966645D01*
X56077992Y6007181D01*
X56199032Y6084969D01*
X56293254Y6193706D01*
X56353024Y6324584D01*
X56373500Y6467000D01*
X56373500Y7482745D01*
X56373605Y7487881D01*
X56374305Y7505049D01*
X56375228Y7527656D01*
X56909460Y7527656D01*
X56910393Y7505049D01*
X56910500Y7499855D01*
X56910500Y6467006D01*
X56915644Y6395064D01*
X56915645Y6395060D01*
X56956181Y6257008D01*
X57033969Y6135968D01*
X57142706Y6041746D01*
X57273584Y5981976D01*
X57416000Y5961500D01*
X57416003Y5961500D01*
X58915994Y5961500D01*
X58916000Y5961500D01*
X58987940Y5966645D01*
X59125992Y6007181D01*
X59247032Y6084969D01*
X59341254Y6193706D01*
X59401024Y6324584D01*
X59421500Y6467000D01*
X59421500Y7482745D01*
X59421605Y7487881D01*
X59422305Y7505049D01*
X59423228Y7527656D01*
X59957460Y7527656D01*
X59958393Y7505049D01*
X59958500Y7499855D01*
X59958500Y6467006D01*
X59963644Y6395064D01*
X59963645Y6395060D01*
X60004181Y6257008D01*
X60081969Y6135968D01*
X60190706Y6041746D01*
X60321584Y5981976D01*
X60464000Y5961500D01*
X60464003Y5961500D01*
X61963994Y5961500D01*
X61964000Y5961500D01*
X62035940Y5966645D01*
X62173992Y6007181D01*
X62295032Y6084969D01*
X62389254Y6193706D01*
X62449024Y6324584D01*
X62469500Y6467000D01*
X62469500Y7482745D01*
X62469605Y7487881D01*
X62470305Y7505049D01*
X62471252Y7528255D01*
X62470561Y7582358D01*
X62440692Y7723104D01*
X62413266Y7797793D01*
X62391918Y7847525D01*
X62310460Y7966125D01*
X62256539Y8024632D01*
X62217795Y8062399D01*
X62217792Y8062401D01*
X62217791Y8062402D01*
X62217788Y8062404D01*
X62097154Y8140800D01*
X62097147Y8140804D01*
X62024950Y8174220D01*
X61974685Y8194292D01*
X61834817Y8220259D01*
X61833223Y8220555D01*
X61833222Y8220556D01*
X61833217Y8220556D01*
X61753739Y8223798D01*
X61753728Y8223798D01*
X61753725Y8223798D01*
X61745530Y8223694D01*
X61699624Y8223108D01*
X61699623Y8223107D01*
X61558875Y8193238D01*
X61542404Y8187190D01*
X61533991Y8184432D01*
X61409331Y8148371D01*
X61392014Y8144658D01*
X61285609Y8129564D01*
X61267942Y8128315D01*
X61160476Y8128290D01*
X61142811Y8129530D01*
X61036401Y8144572D01*
X61019081Y8148278D01*
X60894417Y8184276D01*
X60886004Y8187029D01*
X60869525Y8193071D01*
X60817795Y8208954D01*
X60674655Y8223540D01*
X60595145Y8220259D01*
X60541287Y8215137D01*
X60541280Y8215135D01*
X60471727Y8194292D01*
X60404751Y8174221D01*
X60403456Y8173833D01*
X60403452Y8173832D01*
X60331297Y8140395D01*
X60331254Y8140373D01*
X60283465Y8115036D01*
X60171936Y8024135D01*
X60118043Y7965603D01*
X60083566Y7923880D01*
X60015316Y7797218D01*
X60015315Y7797217D01*
X59987932Y7722533D01*
X59987925Y7722513D01*
X59972046Y7670797D01*
X59972046Y7670795D01*
X59957460Y7527656D01*
X59423228Y7527656D01*
X59423252Y7528255D01*
X59422561Y7582358D01*
X59392692Y7723104D01*
X59365266Y7797793D01*
X59343918Y7847525D01*
X59262460Y7966125D01*
X59208539Y8024632D01*
X59169795Y8062399D01*
X59169792Y8062401D01*
X59169791Y8062402D01*
X59169788Y8062404D01*
X59049154Y8140800D01*
X59049147Y8140804D01*
X58976950Y8174220D01*
X58926685Y8194292D01*
X58786817Y8220259D01*
X58785223Y8220555D01*
X58785222Y8220556D01*
X58785217Y8220556D01*
X58705739Y8223798D01*
X58705728Y8223798D01*
X58705725Y8223798D01*
X58697530Y8223694D01*
X58651624Y8223108D01*
X58651623Y8223107D01*
X58510875Y8193238D01*
X58494404Y8187190D01*
X58485991Y8184432D01*
X58361331Y8148371D01*
X58344014Y8144658D01*
X58237609Y8129564D01*
X58219942Y8128315D01*
X58112476Y8128290D01*
X58094811Y8129530D01*
X57988401Y8144572D01*
X57971081Y8148278D01*
X57846417Y8184276D01*
X57838004Y8187029D01*
X57821525Y8193071D01*
X57769795Y8208954D01*
X57626655Y8223540D01*
X57547145Y8220259D01*
X57493287Y8215137D01*
X57493280Y8215135D01*
X57423727Y8194292D01*
X57356751Y8174221D01*
X57355456Y8173833D01*
X57355452Y8173832D01*
X57283297Y8140395D01*
X57283254Y8140373D01*
X57235465Y8115036D01*
X57123936Y8024135D01*
X57070043Y7965603D01*
X57035566Y7923880D01*
X56967316Y7797218D01*
X56967315Y7797217D01*
X56939932Y7722533D01*
X56939925Y7722513D01*
X56924046Y7670797D01*
X56924046Y7670795D01*
X56909460Y7527656D01*
X56375228Y7527656D01*
X56375252Y7528255D01*
X56374561Y7582358D01*
X56344692Y7723104D01*
X56317266Y7797793D01*
X56295918Y7847525D01*
X56214460Y7966125D01*
X56160539Y8024632D01*
X56121795Y8062399D01*
X56121792Y8062401D01*
X56121791Y8062402D01*
X56121788Y8062404D01*
X56001154Y8140800D01*
X56001147Y8140804D01*
X55928950Y8174220D01*
X55878685Y8194292D01*
X55738817Y8220259D01*
X55737223Y8220555D01*
X55737222Y8220556D01*
X55737217Y8220556D01*
X55657739Y8223798D01*
X55657728Y8223798D01*
X55657725Y8223798D01*
X55649530Y8223694D01*
X55603624Y8223108D01*
X55603623Y8223107D01*
X55462875Y8193238D01*
X55446404Y8187190D01*
X55437991Y8184432D01*
X55313331Y8148371D01*
X55296014Y8144658D01*
X55189609Y8129564D01*
X55171942Y8128315D01*
X55064476Y8128290D01*
X55046811Y8129530D01*
X54940401Y8144572D01*
X54923081Y8148278D01*
X54798417Y8184276D01*
X54790004Y8187029D01*
X54773525Y8193071D01*
X54721795Y8208954D01*
X54578655Y8223540D01*
X54499145Y8220259D01*
X54445287Y8215137D01*
X54445280Y8215135D01*
X54375727Y8194292D01*
X54308751Y8174221D01*
X54307456Y8173833D01*
X54307452Y8173832D01*
X54235297Y8140395D01*
X54235254Y8140373D01*
X54187465Y8115036D01*
X54075936Y8024135D01*
X54022043Y7965603D01*
X53987566Y7923880D01*
X53919316Y7797218D01*
X53919315Y7797217D01*
X53891932Y7722533D01*
X53891925Y7722513D01*
X53876046Y7670797D01*
X53876046Y7670795D01*
X53861460Y7527656D01*
X53200228Y7527656D01*
X53200252Y7528255D01*
X53199561Y7582358D01*
X53169692Y7723104D01*
X53142266Y7797793D01*
X53120918Y7847525D01*
X53039460Y7966125D01*
X52985539Y8024632D01*
X52946795Y8062399D01*
X52946792Y8062401D01*
X52946791Y8062402D01*
X52946788Y8062404D01*
X52826154Y8140800D01*
X52826147Y8140804D01*
X52753950Y8174220D01*
X52703685Y8194292D01*
X52563817Y8220259D01*
X52562223Y8220555D01*
X52562222Y8220556D01*
X52562217Y8220556D01*
X52482739Y8223798D01*
X52482728Y8223798D01*
X52482725Y8223798D01*
X52474530Y8223694D01*
X52428624Y8223108D01*
X52428623Y8223107D01*
X52287875Y8193238D01*
X52271404Y8187190D01*
X52262991Y8184432D01*
X52138331Y8148371D01*
X52121014Y8144658D01*
X52014609Y8129564D01*
X51996942Y8128315D01*
X51889476Y8128290D01*
X51871811Y8129530D01*
X51765401Y8144572D01*
X51748081Y8148278D01*
X51623417Y8184276D01*
X51615004Y8187029D01*
X51598525Y8193071D01*
X51546795Y8208954D01*
X51403655Y8223540D01*
X51324145Y8220259D01*
X51270287Y8215137D01*
X51270280Y8215135D01*
X51200727Y8194292D01*
X51133751Y8174221D01*
X51132456Y8173833D01*
X51132452Y8173832D01*
X51060297Y8140395D01*
X51060254Y8140373D01*
X51012465Y8115036D01*
X50900936Y8024135D01*
X50847043Y7965603D01*
X50812566Y7923880D01*
X50744316Y7797218D01*
X50744315Y7797217D01*
X50716932Y7722533D01*
X50716925Y7722513D01*
X50701046Y7670797D01*
X50701046Y7670795D01*
X50686460Y7527656D01*
X50152228Y7527656D01*
X50152252Y7528255D01*
X50151561Y7582358D01*
X50121692Y7723104D01*
X50094266Y7797793D01*
X50072918Y7847525D01*
X49991460Y7966125D01*
X49937539Y8024632D01*
X49898795Y8062399D01*
X49898792Y8062401D01*
X49898791Y8062402D01*
X49898788Y8062404D01*
X49778154Y8140800D01*
X49778147Y8140804D01*
X49705950Y8174220D01*
X49655685Y8194292D01*
X49515817Y8220259D01*
X49514223Y8220555D01*
X49514222Y8220556D01*
X49514217Y8220556D01*
X49434739Y8223798D01*
X49434728Y8223798D01*
X49434725Y8223798D01*
X49426530Y8223694D01*
X49380624Y8223108D01*
X49380623Y8223107D01*
X49239875Y8193238D01*
X49223404Y8187190D01*
X49214991Y8184432D01*
X49090331Y8148371D01*
X49073014Y8144658D01*
X48966609Y8129564D01*
X48948942Y8128315D01*
X48841476Y8128290D01*
X48823811Y8129530D01*
X48717401Y8144572D01*
X48700081Y8148278D01*
X48575417Y8184276D01*
X48567004Y8187029D01*
X48550525Y8193071D01*
X48498795Y8208954D01*
X48355655Y8223540D01*
X48276145Y8220259D01*
X48222287Y8215137D01*
X48222280Y8215135D01*
X48152727Y8194292D01*
X48085751Y8174221D01*
X48084456Y8173833D01*
X48084452Y8173832D01*
X48012297Y8140395D01*
X48012254Y8140373D01*
X47964465Y8115036D01*
X47852936Y8024135D01*
X47799043Y7965603D01*
X47764566Y7923880D01*
X47696316Y7797218D01*
X47696315Y7797217D01*
X47668932Y7722533D01*
X47668925Y7722513D01*
X47653046Y7670797D01*
X47653046Y7670795D01*
X47638460Y7527656D01*
X5344500Y7527656D01*
X5344500Y15228879D01*
X17550000Y15228879D01*
X17550000Y11323136D01*
X17550002Y11323115D01*
X17556408Y11263520D01*
X17556408Y11263519D01*
X17606701Y11128674D01*
X17606703Y11128671D01*
X17692953Y11013454D01*
X17750561Y10970329D01*
X17808169Y10927204D01*
X17808171Y10927204D01*
X17808173Y10927202D01*
X17868530Y10904691D01*
X17943014Y10876910D01*
X17943017Y10876909D01*
X18002627Y10870500D01*
X21908372Y10870501D01*
X21967983Y10876909D01*
X22102831Y10927204D01*
X22218046Y11013454D01*
X22304296Y11128669D01*
X22307152Y11136327D01*
X22337444Y11217543D01*
X22379990Y11274379D01*
X22446510Y11299191D01*
X22515884Y11284100D01*
X22566087Y11233898D01*
X22573556Y11217543D01*
X22606701Y11128674D01*
X22606703Y11128671D01*
X22692953Y11013454D01*
X22750561Y10970329D01*
X22808169Y10927204D01*
X22808171Y10927204D01*
X22808173Y10927202D01*
X22868530Y10904691D01*
X22943014Y10876910D01*
X22943017Y10876909D01*
X23002627Y10870500D01*
X26908372Y10870501D01*
X26967983Y10876909D01*
X27102831Y10927204D01*
X27122434Y10941879D01*
X38044000Y10941879D01*
X38044000Y9322136D01*
X38044002Y9322115D01*
X38050408Y9262520D01*
X38050408Y9262519D01*
X38100701Y9127674D01*
X38100703Y9127671D01*
X38186953Y9012454D01*
X38244561Y8969329D01*
X38302169Y8926204D01*
X38302171Y8926204D01*
X38302173Y8926202D01*
X38362530Y8903691D01*
X38437014Y8875910D01*
X38437017Y8875909D01*
X38496627Y8869500D01*
X40116372Y8869501D01*
X40175983Y8875909D01*
X40310831Y8926204D01*
X40426046Y9012454D01*
X40475633Y9078694D01*
X40532468Y9121240D01*
X40603283Y9126304D01*
X40665595Y9092279D01*
X40677363Y9078698D01*
X40726954Y9012454D01*
X40842169Y8926204D01*
X40842171Y8926204D01*
X40842173Y8926202D01*
X40902530Y8903691D01*
X40977014Y8875910D01*
X40977017Y8875909D01*
X41036627Y8869500D01*
X42656372Y8869501D01*
X42715983Y8875909D01*
X42850831Y8926204D01*
X42966046Y9012454D01*
X43052296Y9127669D01*
X43102591Y9262517D01*
X43109000Y9322127D01*
X43108999Y10505768D01*
X47637748Y10505768D01*
X47637748Y10505750D01*
X47638439Y10451642D01*
X47668306Y10310905D01*
X47668309Y10310892D01*
X47695734Y10236207D01*
X47717081Y10186476D01*
X47789613Y10080872D01*
X47798540Y10067875D01*
X47852461Y10009368D01*
X47891205Y9971601D01*
X47891207Y9971600D01*
X47891208Y9971599D01*
X47891211Y9971597D01*
X48011845Y9893201D01*
X48011852Y9893197D01*
X48084049Y9859781D01*
X48084053Y9859780D01*
X48084054Y9859779D01*
X48134314Y9839709D01*
X48275777Y9813445D01*
X48355275Y9810202D01*
X48409376Y9810893D01*
X48550122Y9840762D01*
X48566604Y9846815D01*
X48574983Y9849563D01*
X48699677Y9885634D01*
X48716974Y9889342D01*
X48823401Y9904439D01*
X48841043Y9905687D01*
X48948523Y9905712D01*
X48966186Y9904473D01*
X49072604Y9889429D01*
X49089914Y9885725D01*
X49214596Y9849722D01*
X49222987Y9846976D01*
X49239483Y9840927D01*
X49291206Y9825046D01*
X49434345Y9810460D01*
X49513842Y9813741D01*
X49513851Y9813742D01*
X49513854Y9813742D01*
X49528427Y9815128D01*
X49567716Y9818864D01*
X49705541Y9860166D01*
X49760492Y9885631D01*
X49777702Y9893606D01*
X49777713Y9893612D01*
X49777731Y9893620D01*
X49825537Y9918966D01*
X49937065Y10009866D01*
X49990958Y10068399D01*
X50025433Y10110119D01*
X50093683Y10236781D01*
X50121073Y10311483D01*
X50136954Y10363206D01*
X50151481Y10505768D01*
X50685748Y10505768D01*
X50685748Y10505750D01*
X50686439Y10451642D01*
X50716306Y10310905D01*
X50716309Y10310892D01*
X50743734Y10236207D01*
X50765081Y10186476D01*
X50837613Y10080872D01*
X50846540Y10067875D01*
X50900461Y10009368D01*
X50939205Y9971601D01*
X50939207Y9971600D01*
X50939208Y9971599D01*
X50939211Y9971597D01*
X51059845Y9893201D01*
X51059852Y9893197D01*
X51132049Y9859781D01*
X51132053Y9859780D01*
X51132054Y9859779D01*
X51182314Y9839709D01*
X51323777Y9813445D01*
X51403275Y9810202D01*
X51457376Y9810893D01*
X51598122Y9840762D01*
X51614604Y9846815D01*
X51622983Y9849563D01*
X51747677Y9885634D01*
X51764974Y9889342D01*
X51871401Y9904439D01*
X51889043Y9905687D01*
X51996523Y9905712D01*
X52014186Y9904473D01*
X52120604Y9889429D01*
X52137914Y9885725D01*
X52262596Y9849722D01*
X52270987Y9846976D01*
X52287483Y9840927D01*
X52339206Y9825046D01*
X52482345Y9810460D01*
X52561842Y9813741D01*
X52561851Y9813742D01*
X52561854Y9813742D01*
X52576427Y9815128D01*
X52615716Y9818864D01*
X52753541Y9860166D01*
X52808492Y9885631D01*
X52825702Y9893606D01*
X52825713Y9893612D01*
X52825731Y9893620D01*
X52873537Y9918966D01*
X52985065Y10009866D01*
X53038958Y10068399D01*
X53073433Y10110119D01*
X53141683Y10236781D01*
X53169073Y10311483D01*
X53184954Y10363206D01*
X53199481Y10505768D01*
X53860748Y10505768D01*
X53860748Y10505750D01*
X53861439Y10451642D01*
X53891306Y10310905D01*
X53891309Y10310892D01*
X53918734Y10236207D01*
X53940081Y10186476D01*
X54012613Y10080872D01*
X54021540Y10067875D01*
X54075461Y10009368D01*
X54114205Y9971601D01*
X54114207Y9971600D01*
X54114208Y9971599D01*
X54114211Y9971597D01*
X54234845Y9893201D01*
X54234852Y9893197D01*
X54307049Y9859781D01*
X54307053Y9859780D01*
X54307054Y9859779D01*
X54357314Y9839709D01*
X54498777Y9813445D01*
X54578275Y9810202D01*
X54632376Y9810893D01*
X54773122Y9840762D01*
X54789604Y9846815D01*
X54797983Y9849563D01*
X54922677Y9885634D01*
X54939974Y9889342D01*
X55046401Y9904439D01*
X55064043Y9905687D01*
X55171523Y9905712D01*
X55189186Y9904473D01*
X55295604Y9889429D01*
X55312914Y9885725D01*
X55437596Y9849722D01*
X55445987Y9846976D01*
X55462483Y9840927D01*
X55514206Y9825046D01*
X55657345Y9810460D01*
X55736842Y9813741D01*
X55736851Y9813742D01*
X55736854Y9813742D01*
X55751427Y9815128D01*
X55790716Y9818864D01*
X55928541Y9860166D01*
X55983492Y9885631D01*
X56000702Y9893606D01*
X56000713Y9893612D01*
X56000731Y9893620D01*
X56048537Y9918966D01*
X56160065Y10009866D01*
X56213958Y10068399D01*
X56248433Y10110119D01*
X56316683Y10236781D01*
X56344073Y10311483D01*
X56359954Y10363206D01*
X56374481Y10505768D01*
X56908748Y10505768D01*
X56908748Y10505750D01*
X56909439Y10451642D01*
X56939306Y10310905D01*
X56939309Y10310892D01*
X56966734Y10236207D01*
X56988081Y10186476D01*
X57060613Y10080872D01*
X57069540Y10067875D01*
X57123461Y10009368D01*
X57162205Y9971601D01*
X57162207Y9971600D01*
X57162208Y9971599D01*
X57162211Y9971597D01*
X57282845Y9893201D01*
X57282852Y9893197D01*
X57355049Y9859781D01*
X57355053Y9859780D01*
X57355054Y9859779D01*
X57405314Y9839709D01*
X57546777Y9813445D01*
X57626275Y9810202D01*
X57680376Y9810893D01*
X57821122Y9840762D01*
X57837604Y9846815D01*
X57845983Y9849563D01*
X57970677Y9885634D01*
X57987974Y9889342D01*
X58094401Y9904439D01*
X58112043Y9905687D01*
X58219523Y9905712D01*
X58237186Y9904473D01*
X58343604Y9889429D01*
X58360914Y9885725D01*
X58485596Y9849722D01*
X58493987Y9846976D01*
X58510483Y9840927D01*
X58562206Y9825046D01*
X58705345Y9810460D01*
X58784842Y9813741D01*
X58784851Y9813742D01*
X58784854Y9813742D01*
X58799427Y9815128D01*
X58838716Y9818864D01*
X58976541Y9860166D01*
X59031492Y9885631D01*
X59048702Y9893606D01*
X59048713Y9893612D01*
X59048731Y9893620D01*
X59096537Y9918966D01*
X59208065Y10009866D01*
X59261958Y10068399D01*
X59296433Y10110119D01*
X59364683Y10236781D01*
X59392073Y10311483D01*
X59407954Y10363206D01*
X59422481Y10505768D01*
X59956748Y10505768D01*
X59956748Y10505750D01*
X59957439Y10451642D01*
X59987306Y10310905D01*
X59987309Y10310892D01*
X60014734Y10236207D01*
X60036081Y10186476D01*
X60108613Y10080872D01*
X60117540Y10067875D01*
X60171461Y10009368D01*
X60210205Y9971601D01*
X60210207Y9971600D01*
X60210208Y9971599D01*
X60210211Y9971597D01*
X60330845Y9893201D01*
X60330852Y9893197D01*
X60403049Y9859781D01*
X60403053Y9859780D01*
X60403054Y9859779D01*
X60453314Y9839709D01*
X60594777Y9813445D01*
X60674275Y9810202D01*
X60728376Y9810893D01*
X60869122Y9840762D01*
X60885604Y9846815D01*
X60893983Y9849563D01*
X61018677Y9885634D01*
X61035974Y9889342D01*
X61142401Y9904439D01*
X61160043Y9905687D01*
X61267523Y9905712D01*
X61285186Y9904473D01*
X61391604Y9889429D01*
X61408914Y9885725D01*
X61533596Y9849722D01*
X61541987Y9846976D01*
X61558483Y9840927D01*
X61610206Y9825046D01*
X61753345Y9810460D01*
X61832842Y9813741D01*
X61832851Y9813742D01*
X61832854Y9813742D01*
X61847427Y9815128D01*
X61886716Y9818864D01*
X62024541Y9860166D01*
X62079492Y9885631D01*
X62096702Y9893606D01*
X62096713Y9893612D01*
X62096731Y9893620D01*
X62144537Y9918966D01*
X62256065Y10009866D01*
X62309958Y10068399D01*
X62344433Y10110119D01*
X62412683Y10236781D01*
X62440073Y10311483D01*
X62455954Y10363206D01*
X62470540Y10506345D01*
X62469607Y10528954D01*
X62469500Y10534147D01*
X62469500Y11566995D01*
X62464355Y11638937D01*
X62464355Y11638940D01*
X62423819Y11776992D01*
X62346031Y11898032D01*
X62237294Y11992254D01*
X62106416Y12052024D01*
X61964000Y12072500D01*
X60464000Y12072500D01*
X60438588Y12070683D01*
X60392063Y12067356D01*
X60392055Y12067354D01*
X60254008Y12026819D01*
X60254006Y12026818D01*
X60132968Y11949032D01*
X60038746Y11840295D01*
X59978976Y11709417D01*
X59958500Y11566998D01*
X59958500Y10551257D01*
X59958395Y10546121D01*
X59956748Y10505768D01*
X59422481Y10505768D01*
X59422540Y10506345D01*
X59421607Y10528954D01*
X59421500Y10534147D01*
X59421500Y11566995D01*
X59416355Y11638937D01*
X59416355Y11638940D01*
X59375819Y11776992D01*
X59298031Y11898032D01*
X59189294Y11992254D01*
X59058416Y12052024D01*
X58916000Y12072500D01*
X57416000Y12072500D01*
X57390588Y12070683D01*
X57344063Y12067356D01*
X57344055Y12067354D01*
X57206008Y12026819D01*
X57206006Y12026818D01*
X57084968Y11949032D01*
X56990746Y11840295D01*
X56930976Y11709417D01*
X56910500Y11566998D01*
X56910500Y10551257D01*
X56910395Y10546121D01*
X56908748Y10505768D01*
X56374481Y10505768D01*
X56374540Y10506345D01*
X56373607Y10528954D01*
X56373500Y10534147D01*
X56373500Y11566995D01*
X56368355Y11638937D01*
X56368355Y11638940D01*
X56327819Y11776992D01*
X56250031Y11898032D01*
X56141294Y11992254D01*
X56010416Y12052024D01*
X55868000Y12072500D01*
X54368000Y12072500D01*
X54342588Y12070683D01*
X54296063Y12067356D01*
X54296055Y12067354D01*
X54158008Y12026819D01*
X54158006Y12026818D01*
X54036968Y11949032D01*
X53942746Y11840295D01*
X53882976Y11709417D01*
X53862500Y11566998D01*
X53862500Y10551257D01*
X53862395Y10546121D01*
X53860748Y10505768D01*
X53199481Y10505768D01*
X53199540Y10506345D01*
X53198607Y10528954D01*
X53198500Y10534147D01*
X53198500Y11566995D01*
X53193355Y11638937D01*
X53193355Y11638940D01*
X53152819Y11776992D01*
X53075031Y11898032D01*
X52966294Y11992254D01*
X52835416Y12052024D01*
X52693000Y12072500D01*
X51193000Y12072500D01*
X51167588Y12070683D01*
X51121063Y12067356D01*
X51121055Y12067354D01*
X50983008Y12026819D01*
X50983006Y12026818D01*
X50861968Y11949032D01*
X50767746Y11840295D01*
X50707976Y11709417D01*
X50687500Y11566998D01*
X50687500Y10551257D01*
X50687395Y10546121D01*
X50685748Y10505768D01*
X50151481Y10505768D01*
X50151540Y10506345D01*
X50150607Y10528954D01*
X50150500Y10534147D01*
X50150500Y11566995D01*
X50145355Y11638937D01*
X50145355Y11638940D01*
X50104819Y11776992D01*
X50027031Y11898032D01*
X49918294Y11992254D01*
X49787416Y12052024D01*
X49645000Y12072500D01*
X48145000Y12072500D01*
X48119588Y12070683D01*
X48073063Y12067356D01*
X48073055Y12067354D01*
X47935008Y12026819D01*
X47935006Y12026818D01*
X47813968Y11949032D01*
X47719746Y11840295D01*
X47659976Y11709417D01*
X47639500Y11566998D01*
X47639500Y10551257D01*
X47639395Y10546121D01*
X47637748Y10505768D01*
X43108999Y10505768D01*
X43108999Y10941872D01*
X43102591Y11001483D01*
X43055152Y11128674D01*
X43052298Y11136327D01*
X43052296Y11136330D01*
X43052296Y11136331D01*
X42991501Y11217543D01*
X42966046Y11251547D01*
X42870414Y11323136D01*
X42850831Y11337796D01*
X42850829Y11337797D01*
X42850826Y11337799D01*
X42715983Y11388091D01*
X42715986Y11388091D01*
X42656373Y11394500D01*
X41036635Y11394500D01*
X41036614Y11394498D01*
X40977019Y11388092D01*
X40977018Y11388092D01*
X40842173Y11337799D01*
X40842170Y11337797D01*
X40726955Y11251548D01*
X40703292Y11219939D01*
X40677366Y11185307D01*
X40620532Y11142761D01*
X40549716Y11137697D01*
X40487404Y11171722D01*
X40475636Y11185303D01*
X40426046Y11251546D01*
X40426044Y11251547D01*
X40426044Y11251548D01*
X40368114Y11294914D01*
X40310831Y11337796D01*
X40310829Y11337797D01*
X40310826Y11337799D01*
X40175983Y11388091D01*
X40175986Y11388091D01*
X40116373Y11394500D01*
X38496635Y11394500D01*
X38496614Y11394498D01*
X38437019Y11388092D01*
X38437018Y11388092D01*
X38302173Y11337799D01*
X38302170Y11337797D01*
X38186953Y11251547D01*
X38100703Y11136330D01*
X38100701Y11136327D01*
X38050409Y11001485D01*
X38044000Y10941879D01*
X27122434Y10941879D01*
X27218046Y11013454D01*
X27304296Y11128669D01*
X27354591Y11263517D01*
X27361000Y11323127D01*
X27360999Y12265443D01*
X27381001Y12333562D01*
X27434657Y12380055D01*
X27504931Y12390159D01*
X27569511Y12360666D01*
X27576094Y12354536D01*
X27631337Y12299293D01*
X27631343Y12299288D01*
X27631344Y12299287D01*
X27686217Y12265441D01*
X27780665Y12207185D01*
X27947196Y12152002D01*
X27947197Y12152002D01*
X27947203Y12152000D01*
X28049991Y12141499D01*
X29100008Y12141500D01*
X29100009Y12141500D01*
X29202797Y12152000D01*
X29369334Y12207185D01*
X29518656Y12299287D01*
X29642712Y12423343D01*
X29734814Y12572665D01*
X29750791Y12620879D01*
X68079500Y12620879D01*
X68079500Y11001136D01*
X68079502Y11001115D01*
X68085908Y10941520D01*
X68085908Y10941519D01*
X68136201Y10806674D01*
X68136203Y10806671D01*
X68136204Y10806669D01*
X68179086Y10749386D01*
X68222452Y10691456D01*
X68222453Y10691456D01*
X68222454Y10691454D01*
X68288693Y10641867D01*
X68331239Y10585032D01*
X68336303Y10514216D01*
X68302278Y10451904D01*
X68288697Y10440137D01*
X68254061Y10414208D01*
X68222452Y10390545D01*
X68136203Y10275330D01*
X68136201Y10275327D01*
X68085909Y10140485D01*
X68079500Y10080879D01*
X68079500Y8461136D01*
X68079502Y8461115D01*
X68085908Y8401520D01*
X68085908Y8401519D01*
X68136201Y8266674D01*
X68136203Y8266671D01*
X68222453Y8151454D01*
X68253397Y8128290D01*
X68337669Y8065204D01*
X68337671Y8065204D01*
X68337673Y8065202D01*
X68398030Y8042691D01*
X68472514Y8014910D01*
X68472517Y8014909D01*
X68532127Y8008500D01*
X70151872Y8008501D01*
X70211483Y8014909D01*
X70325646Y8057490D01*
X70346326Y8065202D01*
X70346326Y8065203D01*
X70346331Y8065204D01*
X70461546Y8151454D01*
X70511133Y8217694D01*
X70567968Y8260240D01*
X70638783Y8265304D01*
X70701095Y8231279D01*
X70712863Y8217698D01*
X70762454Y8151454D01*
X70877669Y8065204D01*
X70877671Y8065204D01*
X70877673Y8065202D01*
X70938030Y8042691D01*
X71012514Y8014910D01*
X71012517Y8014909D01*
X71072127Y8008500D01*
X72691872Y8008501D01*
X72751483Y8014909D01*
X72865646Y8057490D01*
X72886326Y8065202D01*
X72886326Y8065203D01*
X72886331Y8065204D01*
X73001546Y8151454D01*
X73087796Y8266669D01*
X73138091Y8401517D01*
X73144500Y8461127D01*
X73144499Y10080872D01*
X73138091Y10140483D01*
X73116800Y10197565D01*
X73087798Y10275327D01*
X73087796Y10275330D01*
X73087796Y10275331D01*
X73001546Y10390546D01*
X72935306Y10440134D01*
X72892760Y10496968D01*
X72887696Y10567783D01*
X72921721Y10630095D01*
X72935302Y10641864D01*
X73001546Y10691454D01*
X73087796Y10806669D01*
X73138091Y10941517D01*
X73144500Y11001127D01*
X73144499Y12620872D01*
X73138091Y12680483D01*
X73116800Y12737565D01*
X73087798Y12815327D01*
X73087796Y12815330D01*
X73087796Y12815331D01*
X73044671Y12872939D01*
X73001546Y12930547D01*
X72924591Y12988155D01*
X72886331Y13016796D01*
X72886329Y13016797D01*
X72886326Y13016799D01*
X72751483Y13067091D01*
X72751486Y13067091D01*
X72691873Y13073500D01*
X71072135Y13073500D01*
X71072114Y13073498D01*
X71012519Y13067092D01*
X71012518Y13067092D01*
X70877673Y13016799D01*
X70877670Y13016797D01*
X70762455Y12930548D01*
X70762454Y12930546D01*
X70712866Y12864307D01*
X70656032Y12821761D01*
X70585216Y12816697D01*
X70522904Y12850722D01*
X70511136Y12864303D01*
X70461546Y12930546D01*
X70461544Y12930547D01*
X70461544Y12930548D01*
X70403614Y12973914D01*
X70346331Y13016796D01*
X70346329Y13016797D01*
X70346326Y13016799D01*
X70211483Y13067091D01*
X70211486Y13067091D01*
X70151873Y13073500D01*
X68532135Y13073500D01*
X68532114Y13073498D01*
X68472519Y13067092D01*
X68472518Y13067092D01*
X68337673Y13016799D01*
X68337670Y13016797D01*
X68222453Y12930547D01*
X68136203Y12815330D01*
X68136201Y12815327D01*
X68085909Y12680485D01*
X68079500Y12620879D01*
X29750791Y12620879D01*
X29789999Y12739202D01*
X29800500Y12841990D01*
X29800499Y13442007D01*
X29789999Y13544796D01*
X29789001Y13547810D01*
X29734814Y13711334D01*
X29642711Y13860656D01*
X29642706Y13860662D01*
X29518662Y13984706D01*
X29518656Y13984711D01*
X29369334Y14076814D01*
X29202803Y14131997D01*
X29202791Y14131999D01*
X29100017Y14142499D01*
X28049990Y14142499D01*
X27947202Y14131999D01*
X27780665Y14076814D01*
X27631343Y13984711D01*
X27631337Y13984706D01*
X27576094Y13929462D01*
X27513782Y13895436D01*
X27442967Y13900501D01*
X27386131Y13943048D01*
X27361320Y14009568D01*
X27360999Y14018557D01*
X27360999Y15228865D01*
X27360999Y15228872D01*
X27354591Y15288483D01*
X27333300Y15345565D01*
X27304298Y15423327D01*
X27304296Y15423330D01*
X27304296Y15423331D01*
X27261171Y15480939D01*
X27218046Y15538547D01*
X27141091Y15596155D01*
X27102831Y15624796D01*
X27102829Y15624797D01*
X27102826Y15624799D01*
X26967983Y15675091D01*
X26967986Y15675091D01*
X26908373Y15681500D01*
X23002635Y15681500D01*
X23002614Y15681498D01*
X22943019Y15675092D01*
X22943018Y15675092D01*
X22808173Y15624799D01*
X22808170Y15624797D01*
X22692953Y15538547D01*
X22606703Y15423330D01*
X22606702Y15423329D01*
X22573556Y15334457D01*
X22531010Y15277621D01*
X22464490Y15252810D01*
X22395115Y15267901D01*
X22344913Y15318103D01*
X22337444Y15334457D01*
X22304297Y15423329D01*
X22304296Y15423330D01*
X22304296Y15423331D01*
X22261171Y15480939D01*
X22218046Y15538547D01*
X22141091Y15596155D01*
X22102831Y15624796D01*
X22102829Y15624797D01*
X22102826Y15624799D01*
X21967983Y15675091D01*
X21967986Y15675091D01*
X21908373Y15681500D01*
X18002635Y15681500D01*
X18002614Y15681498D01*
X17943019Y15675092D01*
X17943018Y15675092D01*
X17808173Y15624799D01*
X17808170Y15624797D01*
X17692953Y15538547D01*
X17606703Y15423330D01*
X17606701Y15423327D01*
X17556409Y15288485D01*
X17550000Y15228879D01*
X5344500Y15228879D01*
X5344500Y17772018D01*
X54208500Y17772018D01*
X54208500Y16771991D01*
X54219000Y16669203D01*
X54274185Y16502666D01*
X54366288Y16353344D01*
X54366293Y16353338D01*
X54490337Y16229294D01*
X54490343Y16229289D01*
X54490344Y16229288D01*
X54547563Y16193996D01*
X54639665Y16137186D01*
X54806196Y16082003D01*
X54806197Y16082003D01*
X54806203Y16082001D01*
X54908991Y16071500D01*
X55534008Y16071501D01*
X55534009Y16071501D01*
X55636797Y16082001D01*
X55803334Y16137186D01*
X55952656Y16229288D01*
X55952662Y16229294D01*
X56044905Y16321536D01*
X56107217Y16355562D01*
X56178032Y16350497D01*
X56223095Y16321536D01*
X56315337Y16229294D01*
X56315343Y16229289D01*
X56315344Y16229288D01*
X56372563Y16193996D01*
X56464665Y16137186D01*
X56631196Y16082003D01*
X56631197Y16082003D01*
X56631203Y16082001D01*
X56733991Y16071500D01*
X57359008Y16071501D01*
X57359009Y16071501D01*
X57461797Y16082001D01*
X57628334Y16137186D01*
X57777656Y16229288D01*
X57901712Y16353344D01*
X57993814Y16502666D01*
X58048999Y16669203D01*
X58059500Y16771991D01*
X58059499Y17772008D01*
X58053956Y17826266D01*
X58048999Y17874798D01*
X57993814Y18041335D01*
X57937004Y18133437D01*
X57901712Y18190656D01*
X57901711Y18190657D01*
X57901706Y18190663D01*
X57777662Y18314707D01*
X57777656Y18314712D01*
X57628334Y18406815D01*
X57461803Y18461998D01*
X57461791Y18462000D01*
X57359017Y18472500D01*
X56733990Y18472500D01*
X56631202Y18462000D01*
X56464665Y18406815D01*
X56315343Y18314712D01*
X56315337Y18314707D01*
X56223095Y18222464D01*
X56160783Y18188438D01*
X56089968Y18193503D01*
X56044905Y18222464D01*
X55952662Y18314707D01*
X55952656Y18314712D01*
X55803334Y18406815D01*
X55636803Y18461998D01*
X55636791Y18462000D01*
X55534017Y18472500D01*
X54908990Y18472500D01*
X54806202Y18462000D01*
X54639665Y18406815D01*
X54490343Y18314712D01*
X54490337Y18314707D01*
X54366293Y18190663D01*
X54366288Y18190657D01*
X54274185Y18041335D01*
X54219002Y17874804D01*
X54219000Y17874792D01*
X54208500Y17772018D01*
X5344500Y17772018D01*
X5344500Y18508618D01*
X60050500Y18508618D01*
X60050500Y17508591D01*
X60061000Y17405803D01*
X60116185Y17239266D01*
X60208288Y17089944D01*
X60208293Y17089938D01*
X60332337Y16965894D01*
X60332343Y16965889D01*
X60332344Y16965888D01*
X60389563Y16930596D01*
X60481665Y16873786D01*
X60648196Y16818603D01*
X60648197Y16818603D01*
X60648203Y16818601D01*
X60750991Y16808100D01*
X61376008Y16808101D01*
X61376009Y16808101D01*
X61478797Y16818601D01*
X61645334Y16873786D01*
X61794656Y16965888D01*
X61794662Y16965894D01*
X61886905Y17058136D01*
X61949217Y17092162D01*
X62020032Y17087097D01*
X62065095Y17058136D01*
X62157337Y16965894D01*
X62157343Y16965889D01*
X62157344Y16965888D01*
X62214563Y16930596D01*
X62306665Y16873786D01*
X62473196Y16818603D01*
X62473197Y16818603D01*
X62473203Y16818601D01*
X62575991Y16808100D01*
X63201008Y16808101D01*
X63201009Y16808101D01*
X63303797Y16818601D01*
X63470334Y16873786D01*
X63619656Y16965888D01*
X63743712Y17089944D01*
X63835814Y17239266D01*
X63882211Y17379286D01*
X63922623Y17437653D01*
X63988179Y17464909D01*
X64058064Y17452396D01*
X64090909Y17428744D01*
X64113129Y17406524D01*
X64113136Y17406518D01*
X64254598Y17322858D01*
X64254599Y17322858D01*
X64254602Y17322856D01*
X64412431Y17277002D01*
X64449306Y17274100D01*
X64449307Y17274100D01*
X65755693Y17274100D01*
X65755694Y17274100D01*
X65792569Y17277002D01*
X65950398Y17322856D01*
X66091865Y17406519D01*
X66208081Y17522735D01*
X66291744Y17664202D01*
X66337598Y17822031D01*
X66340500Y17858906D01*
X66340500Y18098100D01*
X66360502Y18166221D01*
X66414158Y18212714D01*
X66466500Y18224100D01*
X67630693Y18224100D01*
X67630694Y18224100D01*
X67667569Y18227002D01*
X67825398Y18272856D01*
X67966865Y18356519D01*
X68083081Y18472735D01*
X68166744Y18614202D01*
X68212598Y18772031D01*
X68215500Y18808906D01*
X68215500Y19240294D01*
X68212598Y19277169D01*
X68166744Y19434998D01*
X68166742Y19435002D01*
X68160464Y19445618D01*
X69102500Y19445618D01*
X69102500Y18095591D01*
X69113000Y17992803D01*
X69168185Y17826266D01*
X69260288Y17676944D01*
X69260293Y17676938D01*
X69384337Y17552894D01*
X69384343Y17552889D01*
X69384344Y17552888D01*
X69433227Y17522737D01*
X69533665Y17460786D01*
X69700196Y17405603D01*
X69700197Y17405603D01*
X69700203Y17405601D01*
X69802991Y17395100D01*
X70528008Y17395101D01*
X70528009Y17395101D01*
X70630797Y17405601D01*
X70797334Y17460786D01*
X70804018Y17464909D01*
X70946656Y17552888D01*
X71070712Y17676944D01*
X71162814Y17826266D01*
X71217999Y17992803D01*
X71228500Y18095591D01*
X71228499Y19445608D01*
X71228498Y19445618D01*
X72027500Y19445618D01*
X72027500Y18095591D01*
X72038000Y17992803D01*
X72093185Y17826266D01*
X72185288Y17676944D01*
X72185293Y17676938D01*
X72309337Y17552894D01*
X72309343Y17552889D01*
X72309344Y17552888D01*
X72358227Y17522737D01*
X72458665Y17460786D01*
X72625196Y17405603D01*
X72625197Y17405603D01*
X72625203Y17405601D01*
X72727991Y17395100D01*
X73453008Y17395101D01*
X73453009Y17395101D01*
X73555797Y17405601D01*
X73722334Y17460786D01*
X73729018Y17464909D01*
X73871656Y17552888D01*
X73995712Y17676944D01*
X74087814Y17826266D01*
X74142999Y17992803D01*
X74153500Y18095591D01*
X74153499Y19445608D01*
X74150187Y19478027D01*
X74142999Y19548398D01*
X74087814Y19714935D01*
X73995711Y19864257D01*
X73995706Y19864263D01*
X73871662Y19988307D01*
X73871656Y19988312D01*
X73722334Y20080415D01*
X73555803Y20135598D01*
X73555791Y20135600D01*
X73453017Y20146100D01*
X72727990Y20146100D01*
X72625202Y20135600D01*
X72458665Y20080415D01*
X72309343Y19988312D01*
X72309337Y19988307D01*
X72185293Y19864263D01*
X72185288Y19864257D01*
X72093185Y19714935D01*
X72038002Y19548404D01*
X72038000Y19548392D01*
X72027500Y19445618D01*
X71228498Y19445618D01*
X71225187Y19478027D01*
X71217999Y19548398D01*
X71162814Y19714935D01*
X71070711Y19864257D01*
X71070706Y19864263D01*
X70946662Y19988307D01*
X70946656Y19988312D01*
X70797334Y20080415D01*
X70630803Y20135598D01*
X70630791Y20135600D01*
X70528017Y20146100D01*
X69802990Y20146100D01*
X69700202Y20135600D01*
X69533665Y20080415D01*
X69384343Y19988312D01*
X69384337Y19988307D01*
X69260293Y19864263D01*
X69260288Y19864257D01*
X69168185Y19714935D01*
X69113002Y19548404D01*
X69113000Y19548392D01*
X69102500Y19445618D01*
X68160464Y19445618D01*
X68083082Y19576464D01*
X68083076Y19576471D01*
X67966870Y19692677D01*
X67966863Y19692683D01*
X67825401Y19776343D01*
X67667568Y19822199D01*
X67633595Y19824872D01*
X67630694Y19825100D01*
X67630693Y19825100D01*
X66466500Y19825100D01*
X66398379Y19845102D01*
X66351886Y19898758D01*
X66340500Y19951100D01*
X66340500Y20190294D01*
X66337598Y20227168D01*
X66337598Y20227169D01*
X66305063Y20339154D01*
X66291744Y20384998D01*
X66291742Y20385000D01*
X66291742Y20385003D01*
X66208082Y20526464D01*
X66208076Y20526471D01*
X66091870Y20642677D01*
X66091863Y20642683D01*
X65950401Y20726343D01*
X65792568Y20772199D01*
X65758595Y20774872D01*
X65755694Y20775100D01*
X64449306Y20775100D01*
X64446405Y20774872D01*
X64412432Y20772199D01*
X64412431Y20772199D01*
X64254598Y20726343D01*
X64113136Y20642683D01*
X64097791Y20627338D01*
X64035478Y20593315D01*
X63964663Y20598381D01*
X63907828Y20640929D01*
X63889096Y20676799D01*
X63872814Y20725934D01*
X63872561Y20726344D01*
X63818930Y20813295D01*
X63780712Y20875256D01*
X63780711Y20875257D01*
X63780706Y20875263D01*
X63688464Y20967505D01*
X63654438Y21029817D01*
X63659503Y21100632D01*
X63688464Y21145695D01*
X63780706Y21237938D01*
X63780712Y21237944D01*
X63872814Y21387266D01*
X63927999Y21553803D01*
X63938500Y21656591D01*
X63938499Y22281608D01*
X63927999Y22384397D01*
X63914288Y22425776D01*
X63872814Y22550935D01*
X63811401Y22650501D01*
X63780712Y22700256D01*
X63780711Y22700257D01*
X63780706Y22700263D01*
X63656662Y22824307D01*
X63656656Y22824312D01*
X63507334Y22916415D01*
X63340803Y22971598D01*
X63340791Y22971600D01*
X63238017Y22982100D01*
X62237990Y22982100D01*
X62135202Y22971600D01*
X61968665Y22916415D01*
X61819343Y22824312D01*
X61819337Y22824307D01*
X61695293Y22700263D01*
X61695288Y22700257D01*
X61603185Y22550935D01*
X61548002Y22384404D01*
X61548000Y22384392D01*
X61537500Y22281618D01*
X61537500Y21656591D01*
X61548000Y21553803D01*
X61603185Y21387266D01*
X61695288Y21237944D01*
X61695293Y21237938D01*
X61787536Y21145695D01*
X61821562Y21083383D01*
X61816497Y21012568D01*
X61787536Y20967505D01*
X61695293Y20875263D01*
X61695288Y20875257D01*
X61603185Y20725935D01*
X61548002Y20559404D01*
X61548000Y20559392D01*
X61537500Y20456618D01*
X61537500Y19831591D01*
X61548000Y19728803D01*
X61603185Y19562266D01*
X61695288Y19412944D01*
X61695293Y19412938D01*
X61747224Y19361007D01*
X61781250Y19298695D01*
X61776185Y19227880D01*
X61733638Y19171044D01*
X61667118Y19146233D01*
X61618497Y19152307D01*
X61478797Y19198599D01*
X61478793Y19198600D01*
X61478791Y19198600D01*
X61376017Y19209100D01*
X60750990Y19209100D01*
X60648202Y19198600D01*
X60481665Y19143415D01*
X60332343Y19051312D01*
X60332337Y19051307D01*
X60208293Y18927263D01*
X60208288Y18927257D01*
X60116185Y18777935D01*
X60061002Y18611404D01*
X60061000Y18611392D01*
X60050500Y18508618D01*
X5344500Y18508618D01*
X5344500Y19834014D01*
X39957900Y19834014D01*
X39957900Y19485197D01*
X39960634Y19450447D01*
X40003846Y19301709D01*
X40082682Y19168406D01*
X40082687Y19168399D01*
X40192198Y19058888D01*
X40192205Y19058883D01*
X40325508Y18980047D01*
X40325511Y18980047D01*
X40325513Y18980045D01*
X40474244Y18936835D01*
X40508995Y18934100D01*
X41007804Y18934101D01*
X41042556Y18936835D01*
X41191287Y18980045D01*
X41191289Y18980047D01*
X41191291Y18980047D01*
X41257942Y19019465D01*
X41324598Y19058885D01*
X41434115Y19168402D01*
X41473535Y19235058D01*
X41512953Y19301709D01*
X41512953Y19301711D01*
X41512955Y19301713D01*
X41556165Y19450444D01*
X41558900Y19485195D01*
X41558899Y19834004D01*
X41558898Y19834014D01*
X42057900Y19834014D01*
X42057900Y19485197D01*
X42060634Y19450447D01*
X42103846Y19301709D01*
X42182682Y19168406D01*
X42182687Y19168399D01*
X42292198Y19058888D01*
X42292205Y19058883D01*
X42425508Y18980047D01*
X42425511Y18980047D01*
X42425513Y18980045D01*
X42574244Y18936835D01*
X42608995Y18934100D01*
X43107804Y18934101D01*
X43142556Y18936835D01*
X43291287Y18980045D01*
X43291289Y18980047D01*
X43291291Y18980047D01*
X43357942Y19019465D01*
X43424598Y19058885D01*
X43534115Y19168402D01*
X43573535Y19235058D01*
X43612953Y19301709D01*
X43612953Y19301711D01*
X43612955Y19301713D01*
X43656165Y19450444D01*
X43658900Y19485195D01*
X43658899Y19834004D01*
X43656165Y19868756D01*
X43612955Y20017487D01*
X43612953Y20017489D01*
X43612953Y20017492D01*
X43534117Y20150795D01*
X43534112Y20150802D01*
X43424601Y20260313D01*
X43424594Y20260318D01*
X43291291Y20339154D01*
X43142554Y20382366D01*
X43107813Y20385100D01*
X42608996Y20385100D01*
X42574246Y20382366D01*
X42425508Y20339154D01*
X42292205Y20260318D01*
X42292198Y20260313D01*
X42182687Y20150802D01*
X42182682Y20150795D01*
X42103846Y20017492D01*
X42060634Y19868755D01*
X42057900Y19834014D01*
X41558898Y19834014D01*
X41556165Y19868756D01*
X41512955Y20017487D01*
X41512953Y20017489D01*
X41512953Y20017492D01*
X41434117Y20150795D01*
X41434112Y20150802D01*
X41324601Y20260313D01*
X41324594Y20260318D01*
X41191291Y20339154D01*
X41042554Y20382366D01*
X41007813Y20385100D01*
X40508996Y20385100D01*
X40474246Y20382366D01*
X40325508Y20339154D01*
X40192205Y20260318D01*
X40192198Y20260313D01*
X40082687Y20150802D01*
X40082682Y20150795D01*
X40003846Y20017492D01*
X39960634Y19868755D01*
X39957900Y19834014D01*
X5344500Y19834014D01*
X5344500Y27957879D01*
X6969500Y27957879D01*
X6969500Y23862136D01*
X6969502Y23862115D01*
X6975908Y23802520D01*
X6975908Y23802519D01*
X7026201Y23667674D01*
X7026203Y23667671D01*
X7112453Y23552454D01*
X7162772Y23514786D01*
X7227669Y23466204D01*
X7227671Y23466204D01*
X7227673Y23466202D01*
X7273527Y23449100D01*
X7362514Y23415910D01*
X7362517Y23415909D01*
X7422127Y23409500D01*
X11517872Y23409501D01*
X11577483Y23415909D01*
X11596927Y23423162D01*
X11667739Y23428228D01*
X11730053Y23394205D01*
X11764080Y23331894D01*
X11760565Y23265477D01*
X11750203Y23234205D01*
X11750200Y23234192D01*
X11739700Y23131418D01*
X11739700Y22131391D01*
X11750200Y22028603D01*
X11805385Y21862066D01*
X11897488Y21712744D01*
X11897493Y21712738D01*
X12021537Y21588694D01*
X12021543Y21588689D01*
X12021544Y21588688D01*
X12078092Y21553809D01*
X12170865Y21496586D01*
X12337396Y21441403D01*
X12337397Y21441403D01*
X12337403Y21441401D01*
X12440191Y21430900D01*
X13065208Y21430901D01*
X13065209Y21430901D01*
X13167997Y21441401D01*
X13334534Y21496586D01*
X13483856Y21588688D01*
X13483862Y21588694D01*
X13576105Y21680936D01*
X13638417Y21714962D01*
X13709232Y21709897D01*
X13754295Y21680936D01*
X13846537Y21588694D01*
X13846543Y21588689D01*
X13846544Y21588688D01*
X13903092Y21553809D01*
X13995865Y21496586D01*
X14162396Y21441403D01*
X14162397Y21441403D01*
X14162403Y21441401D01*
X14265191Y21430900D01*
X14890208Y21430901D01*
X14890209Y21430901D01*
X14992997Y21441401D01*
X15159534Y21496586D01*
X15308856Y21588688D01*
X15432912Y21712744D01*
X15525014Y21862066D01*
X15580199Y22028603D01*
X15590700Y22131391D01*
X15590699Y23131408D01*
X15588473Y23153196D01*
X15580199Y23234198D01*
X15525014Y23400735D01*
X15468204Y23492837D01*
X15432912Y23550056D01*
X15432911Y23550057D01*
X15432906Y23550063D01*
X15308862Y23674107D01*
X15308856Y23674112D01*
X15159534Y23766215D01*
X14993003Y23821398D01*
X14992991Y23821400D01*
X14890217Y23831900D01*
X14265190Y23831900D01*
X14162402Y23821400D01*
X13995865Y23766215D01*
X13846543Y23674112D01*
X13846537Y23674107D01*
X13754295Y23581864D01*
X13691983Y23547838D01*
X13621168Y23552903D01*
X13576105Y23581864D01*
X13483862Y23674107D01*
X13483856Y23674112D01*
X13334534Y23766215D01*
X13168003Y23821398D01*
X13167991Y23821400D01*
X13065217Y23831900D01*
X12440190Y23831900D01*
X12337402Y23821400D01*
X12170862Y23766214D01*
X12162642Y23761143D01*
X12094162Y23742408D01*
X12026424Y23763670D01*
X11980934Y23818179D01*
X11970499Y23868382D01*
X11970499Y27957872D01*
X11964091Y28017483D01*
X11932912Y28101078D01*
X11913798Y28152327D01*
X11913796Y28152330D01*
X11913796Y28152331D01*
X11861897Y28221659D01*
X11827546Y28267547D01*
X11739845Y28333199D01*
X11712331Y28353796D01*
X11712329Y28353797D01*
X11712326Y28353799D01*
X11577483Y28404091D01*
X11577486Y28404091D01*
X11517873Y28410500D01*
X7422135Y28410500D01*
X7422114Y28410498D01*
X7362519Y28404092D01*
X7362518Y28404092D01*
X7227673Y28353799D01*
X7227670Y28353797D01*
X7112453Y28267547D01*
X7026203Y28152330D01*
X7026201Y28152327D01*
X6975909Y28017485D01*
X6969500Y27957879D01*
X5344500Y27957879D01*
X5344500Y30515001D01*
X11809552Y30515001D01*
X11809553Y30515000D01*
X12552447Y30515000D01*
X12552447Y30515001D01*
X12181001Y30886447D01*
X12180999Y30886447D01*
X11809552Y30515001D01*
X5344500Y30515001D01*
X5344500Y31311409D01*
X10931000Y31311409D01*
X10931000Y31168592D01*
X10958861Y31028525D01*
X10958863Y31028520D01*
X11013513Y30896585D01*
X11092853Y30777844D01*
X11092854Y30777842D01*
X11193840Y30676855D01*
X11193842Y30676854D01*
X11236078Y30648633D01*
X11540982Y30953537D01*
X11591504Y30940000D01*
X12770496Y30940000D01*
X12821015Y30953537D01*
X13125919Y30648633D01*
X13125920Y30648633D01*
X13168159Y30676855D01*
X13269145Y30777842D01*
X13269146Y30777844D01*
X13285165Y30801818D01*
X13695900Y30801818D01*
X13695900Y29751791D01*
X13706400Y29649003D01*
X13761585Y29482466D01*
X13853688Y29333144D01*
X13853693Y29333138D01*
X13977737Y29209094D01*
X13977743Y29209089D01*
X13977744Y29209088D01*
X14033303Y29174819D01*
X14127065Y29116986D01*
X14293596Y29061803D01*
X14293597Y29061803D01*
X14293603Y29061801D01*
X14396391Y29051300D01*
X14996408Y29051301D01*
X14996409Y29051301D01*
X15099197Y29061801D01*
X15265734Y29116986D01*
X15279641Y29125564D01*
X15322914Y29152256D01*
X15391393Y29170992D01*
X15459132Y29149733D01*
X15504624Y29095226D01*
X15513425Y29024777D01*
X15496302Y28978867D01*
X15400985Y28824335D01*
X15345802Y28657804D01*
X15345800Y28657792D01*
X15335300Y28555018D01*
X15335300Y27954991D01*
X15345800Y27852203D01*
X15400985Y27685666D01*
X15493088Y27536344D01*
X15493093Y27536338D01*
X15617137Y27412294D01*
X15617143Y27412289D01*
X15617144Y27412288D01*
X15637608Y27399666D01*
X15766465Y27320186D01*
X15932996Y27265003D01*
X15932997Y27265003D01*
X15933003Y27265001D01*
X16035791Y27254500D01*
X17085808Y27254501D01*
X17085809Y27254501D01*
X17188597Y27265001D01*
X17355134Y27320186D01*
X17504456Y27412288D01*
X17526912Y27434744D01*
X17551205Y27459036D01*
X17613517Y27493062D01*
X17684332Y27487997D01*
X17729395Y27459036D01*
X17826937Y27361494D01*
X17826943Y27361489D01*
X17826944Y27361488D01*
X17858408Y27342081D01*
X17976265Y27269386D01*
X18142796Y27214203D01*
X18142797Y27214203D01*
X18142803Y27214201D01*
X18245591Y27203700D01*
X19295608Y27203701D01*
X19295609Y27203701D01*
X19398397Y27214201D01*
X19564934Y27269386D01*
X19584679Y27281565D01*
X19714256Y27361488D01*
X19724427Y27371659D01*
X19773705Y27420936D01*
X19836017Y27454962D01*
X19906832Y27449897D01*
X19951895Y27420936D01*
X20062137Y27310694D01*
X20062143Y27310689D01*
X20062144Y27310688D01*
X20109360Y27281565D01*
X20211465Y27218586D01*
X20377996Y27163403D01*
X20377997Y27163403D01*
X20378003Y27163401D01*
X20480791Y27152900D01*
X21530808Y27152901D01*
X21530809Y27152901D01*
X21633597Y27163401D01*
X21800134Y27218586D01*
X21858360Y27254500D01*
X21949456Y27310688D01*
X22073512Y27434744D01*
X22165614Y27584066D01*
X22220799Y27750603D01*
X22228912Y27830018D01*
X26238500Y27830018D01*
X26238500Y26779991D01*
X26249000Y26677203D01*
X26304185Y26510666D01*
X26396288Y26361344D01*
X26396293Y26361338D01*
X26520337Y26237294D01*
X26520343Y26237289D01*
X26520344Y26237288D01*
X26577563Y26201996D01*
X26669665Y26145186D01*
X26836196Y26090003D01*
X26836197Y26090003D01*
X26836203Y26090001D01*
X26938991Y26079500D01*
X27539008Y26079501D01*
X27539009Y26079501D01*
X27641797Y26090001D01*
X27808334Y26145186D01*
X27957656Y26237288D01*
X27977905Y26257538D01*
X28040214Y26291562D01*
X28111030Y26286499D01*
X28156094Y26257538D01*
X28176344Y26237288D01*
X28233563Y26201996D01*
X28325665Y26145186D01*
X28492196Y26090003D01*
X28492197Y26090003D01*
X28492203Y26090001D01*
X28594991Y26079500D01*
X29195008Y26079501D01*
X29195009Y26079501D01*
X29297797Y26090001D01*
X29464334Y26145186D01*
X29613656Y26237288D01*
X29737712Y26361344D01*
X29737759Y26361420D01*
X29737803Y26361460D01*
X29742262Y26367099D01*
X29743225Y26366338D01*
X29790544Y26408899D01*
X29860619Y26420302D01*
X29925735Y26392010D01*
X29947490Y26366903D01*
X29947738Y26367099D01*
X29952094Y26361589D01*
X29952241Y26361420D01*
X29952286Y26361347D01*
X29952293Y26361338D01*
X30076337Y26237294D01*
X30076343Y26237289D01*
X30076344Y26237288D01*
X30133563Y26201996D01*
X30225665Y26145186D01*
X30392196Y26090003D01*
X30392197Y26090003D01*
X30392203Y26090001D01*
X30494991Y26079500D01*
X31095008Y26079501D01*
X31095009Y26079501D01*
X31197797Y26090001D01*
X31364334Y26145186D01*
X31513656Y26237288D01*
X31637712Y26361344D01*
X31729814Y26510666D01*
X31784999Y26677203D01*
X31795500Y26779991D01*
X31795499Y27830008D01*
X31793110Y27853391D01*
X31784999Y27932798D01*
X31729814Y28099335D01*
X31654364Y28221659D01*
X31637712Y28248656D01*
X31637711Y28248657D01*
X31637706Y28248663D01*
X31513662Y28372707D01*
X31513656Y28372712D01*
X31364334Y28464815D01*
X31197803Y28519998D01*
X31197791Y28520000D01*
X31095017Y28530500D01*
X30494990Y28530500D01*
X30392202Y28520000D01*
X30225665Y28464815D01*
X30076343Y28372712D01*
X30076337Y28372707D01*
X29952293Y28248663D01*
X29952287Y28248656D01*
X29952237Y28248573D01*
X29952187Y28248529D01*
X29947738Y28242901D01*
X29946775Y28243662D01*
X29899448Y28201099D01*
X29829372Y28189700D01*
X29764258Y28217996D01*
X29742508Y28243097D01*
X29742262Y28242901D01*
X29737926Y28248385D01*
X29737763Y28248573D01*
X29737712Y28248656D01*
X29737706Y28248663D01*
X29613662Y28372707D01*
X29613656Y28372712D01*
X29464334Y28464815D01*
X29297803Y28519998D01*
X29297791Y28520000D01*
X29195017Y28530500D01*
X28594990Y28530500D01*
X28492202Y28520000D01*
X28325665Y28464815D01*
X28176343Y28372712D01*
X28176337Y28372707D01*
X28156095Y28352464D01*
X28093783Y28318438D01*
X28022968Y28323503D01*
X27977905Y28352464D01*
X27957662Y28372707D01*
X27957656Y28372712D01*
X27808334Y28464815D01*
X27641803Y28519998D01*
X27641791Y28520000D01*
X27539017Y28530500D01*
X26938990Y28530500D01*
X26836202Y28520000D01*
X26669665Y28464815D01*
X26520343Y28372712D01*
X26520337Y28372707D01*
X26396293Y28248663D01*
X26396288Y28248657D01*
X26304185Y28099335D01*
X26249002Y27932804D01*
X26249000Y27932792D01*
X26238500Y27830018D01*
X22228912Y27830018D01*
X22231300Y27853391D01*
X22231299Y28453408D01*
X22220919Y28555018D01*
X22220799Y28556198D01*
X22165614Y28722735D01*
X22086565Y28850893D01*
X22073512Y28872056D01*
X22073511Y28872057D01*
X22073506Y28872063D01*
X21949462Y28996107D01*
X21949456Y28996112D01*
X21800134Y29088215D01*
X21633603Y29143398D01*
X21633591Y29143400D01*
X21530817Y29153900D01*
X20480790Y29153900D01*
X20378002Y29143400D01*
X20211465Y29088215D01*
X20062143Y28996112D01*
X20062137Y28996107D01*
X20002695Y28936664D01*
X19940383Y28902638D01*
X19869568Y28907703D01*
X19824505Y28936664D01*
X19714262Y29046907D01*
X19714256Y29046912D01*
X19564934Y29139015D01*
X19398403Y29194198D01*
X19398391Y29194200D01*
X19295617Y29204700D01*
X18245590Y29204700D01*
X18142802Y29194200D01*
X17976265Y29139015D01*
X17826943Y29046912D01*
X17826937Y29046907D01*
X17780195Y29000164D01*
X17717883Y28966138D01*
X17647068Y28971203D01*
X17602005Y29000164D01*
X17504462Y29097707D01*
X17504456Y29097712D01*
X17355134Y29189815D01*
X17188603Y29244998D01*
X17188591Y29245000D01*
X17085817Y29255500D01*
X16035790Y29255500D01*
X15933002Y29245000D01*
X15766464Y29189814D01*
X15709283Y29154545D01*
X15640804Y29135809D01*
X15573065Y29157069D01*
X15527574Y29211577D01*
X15518774Y29282026D01*
X15535897Y29327934D01*
X15539108Y29333141D01*
X15539112Y29333144D01*
X15631214Y29482466D01*
X15686399Y29649003D01*
X15696900Y29751791D01*
X15696899Y30801808D01*
X15694237Y30827863D01*
X15686399Y30904598D01*
X15631214Y31071135D01*
X15571099Y31168596D01*
X15539112Y31220456D01*
X15539111Y31220457D01*
X15539106Y31220463D01*
X15415062Y31344507D01*
X15415056Y31344512D01*
X15265734Y31436615D01*
X15099203Y31491798D01*
X15099191Y31491800D01*
X14996417Y31502300D01*
X14396390Y31502300D01*
X14293602Y31491800D01*
X14127065Y31436615D01*
X13977743Y31344512D01*
X13977737Y31344507D01*
X13853693Y31220463D01*
X13853688Y31220457D01*
X13761585Y31071135D01*
X13706402Y30904604D01*
X13706400Y30904592D01*
X13695900Y30801818D01*
X13285165Y30801818D01*
X13348486Y30896585D01*
X13403136Y31028520D01*
X13403138Y31028525D01*
X13430999Y31168592D01*
X13431000Y31168596D01*
X13431000Y31311405D01*
X13430999Y31311409D01*
X13403138Y31451476D01*
X13403136Y31451481D01*
X13348486Y31583416D01*
X13269146Y31702157D01*
X13269145Y31702159D01*
X13168159Y31803146D01*
X13168157Y31803147D01*
X13125920Y31831369D01*
X12821015Y31526464D01*
X12770496Y31540000D01*
X11591504Y31540000D01*
X11540984Y31526464D01*
X11236079Y31831369D01*
X11193839Y31803145D01*
X11092854Y31702159D01*
X11092853Y31702157D01*
X11013513Y31583416D01*
X10958863Y31451481D01*
X10958861Y31451476D01*
X10931000Y31311409D01*
X5344500Y31311409D01*
X5344500Y31965000D01*
X11809552Y31965000D01*
X12180999Y31593553D01*
X12181001Y31593553D01*
X12552447Y31965000D01*
X11809552Y31965000D01*
X5344500Y31965000D01*
X5344500Y38494169D01*
X11345500Y38494169D01*
X11345500Y38405831D01*
X11368364Y38320502D01*
X11412533Y38243998D01*
X11412535Y38243996D01*
X11412538Y38243992D01*
X11474991Y38181539D01*
X11474995Y38181536D01*
X11474998Y38181533D01*
X11551502Y38137364D01*
X11587114Y38127822D01*
X11647734Y38090871D01*
X11678756Y38027010D01*
X11680500Y38006116D01*
X11680500Y37612136D01*
X11680502Y37612112D01*
X11684656Y37573469D01*
X11684656Y37546535D01*
X11680500Y37507885D01*
X11680500Y37112136D01*
X11680502Y37112112D01*
X11684656Y37073469D01*
X11684656Y37046535D01*
X11680500Y37007885D01*
X11680500Y36612136D01*
X11680502Y36612112D01*
X11684656Y36573469D01*
X11684656Y36546535D01*
X11680500Y36507885D01*
X11680500Y36112136D01*
X11680502Y36112112D01*
X11684656Y36073469D01*
X11684656Y36046535D01*
X11680500Y36007885D01*
X11680500Y35612136D01*
X11680502Y35612112D01*
X11684656Y35573469D01*
X11684656Y35546535D01*
X11680500Y35507885D01*
X11680500Y35112136D01*
X11680502Y35112112D01*
X11684656Y35073469D01*
X11684656Y35046535D01*
X11680500Y35007885D01*
X11680500Y34612136D01*
X11680502Y34612112D01*
X11684656Y34573469D01*
X11684656Y34546535D01*
X11680500Y34507885D01*
X11680500Y34112136D01*
X11680502Y34112112D01*
X11684656Y34073469D01*
X11684656Y34046535D01*
X11680500Y34007885D01*
X11680500Y33612136D01*
X11680502Y33612112D01*
X11684656Y33573469D01*
X11684656Y33546535D01*
X11680500Y33507885D01*
X11680500Y33104567D01*
X11660498Y33036446D01*
X11606842Y32989953D01*
X11587113Y32982861D01*
X11554978Y32974251D01*
X11480526Y32931266D01*
X11480518Y32931260D01*
X11419740Y32870482D01*
X11419734Y32870474D01*
X11376749Y32796021D01*
X11354500Y32712988D01*
X11354500Y32627013D01*
X11376749Y32543980D01*
X11376750Y32543977D01*
X11376751Y32543976D01*
X11419735Y32469525D01*
X11419737Y32469523D01*
X11419740Y32469519D01*
X11480518Y32408741D01*
X11480522Y32408738D01*
X11480525Y32408735D01*
X11554976Y32365751D01*
X11554978Y32365751D01*
X11554979Y32365750D01*
X11617729Y32348936D01*
X11638016Y32343500D01*
X11723984Y32343500D01*
X11807024Y32365751D01*
X11860373Y32396553D01*
X11929365Y32413289D01*
X11967397Y32405489D01*
X12073517Y32365909D01*
X12133127Y32359500D01*
X13378872Y32359501D01*
X13438483Y32365909D01*
X13560424Y32411390D01*
X13573326Y32416202D01*
X13573326Y32416203D01*
X13573331Y32416204D01*
X13688546Y32502454D01*
X13774796Y32617669D01*
X13779157Y32629360D01*
X13790060Y32658595D01*
X13825091Y32752517D01*
X13831500Y32812127D01*
X13831499Y33507872D01*
X13827343Y33546535D01*
X13827343Y33573470D01*
X13831500Y33612127D01*
X13831499Y34007872D01*
X13827343Y34046535D01*
X13827343Y34073470D01*
X13831498Y34112112D01*
X13831500Y34112127D01*
X13831499Y34507872D01*
X13827343Y34546535D01*
X13827343Y34573470D01*
X13831498Y34612112D01*
X13831500Y34612127D01*
X13831500Y34626018D01*
X14420500Y34626018D01*
X14420500Y34000991D01*
X14431000Y33898203D01*
X14486185Y33731666D01*
X14578288Y33582344D01*
X14578293Y33582338D01*
X14702337Y33458294D01*
X14702343Y33458289D01*
X14702344Y33458288D01*
X14732255Y33439839D01*
X14851665Y33366186D01*
X15018196Y33311003D01*
X15018197Y33311003D01*
X15018203Y33311001D01*
X15120991Y33300500D01*
X16121008Y33300501D01*
X16121009Y33300501D01*
X16223797Y33311001D01*
X16390334Y33366186D01*
X16419739Y33384323D01*
X16539656Y33458288D01*
X16663712Y33582344D01*
X16755814Y33731666D01*
X16810999Y33898203D01*
X16821500Y34000991D01*
X16821499Y34626008D01*
X16812408Y34714999D01*
X16810999Y34728798D01*
X16755814Y34895335D01*
X16699004Y34987437D01*
X16663712Y35044656D01*
X16663711Y35044657D01*
X16663706Y35044663D01*
X16539662Y35168707D01*
X16539656Y35168712D01*
X16390334Y35260815D01*
X16223803Y35315998D01*
X16223791Y35316000D01*
X16121017Y35326500D01*
X15120990Y35326500D01*
X15018202Y35316000D01*
X14851665Y35260815D01*
X14702343Y35168712D01*
X14702337Y35168707D01*
X14578293Y35044663D01*
X14578288Y35044657D01*
X14486185Y34895335D01*
X14431002Y34728804D01*
X14431000Y34728792D01*
X14420500Y34626018D01*
X13831500Y34626018D01*
X13831499Y35007872D01*
X13827343Y35046535D01*
X13827343Y35073470D01*
X13831500Y35112127D01*
X13831499Y35507872D01*
X13827343Y35546535D01*
X13827343Y35573470D01*
X13827898Y35578632D01*
X13831500Y35612127D01*
X13831499Y36007872D01*
X13827343Y36046535D01*
X13827343Y36073470D01*
X13827529Y36075197D01*
X13831500Y36112127D01*
X13831499Y36507872D01*
X13827343Y36546535D01*
X13827343Y36573470D01*
X13831498Y36612112D01*
X13831500Y36612127D01*
X13831499Y37007872D01*
X13827343Y37046535D01*
X13827343Y37073470D01*
X13831500Y37112127D01*
X13831499Y37507872D01*
X13827343Y37546535D01*
X13827343Y37573470D01*
X13831500Y37612127D01*
X13831500Y37881018D01*
X14420500Y37881018D01*
X14420500Y37255991D01*
X14431000Y37153203D01*
X14486185Y36986666D01*
X14578288Y36837344D01*
X14578293Y36837338D01*
X14702337Y36713294D01*
X14702343Y36713289D01*
X14702344Y36713288D01*
X14722678Y36700746D01*
X14851665Y36621186D01*
X15018196Y36566003D01*
X15018197Y36566003D01*
X15018203Y36566001D01*
X15120991Y36555500D01*
X16121008Y36555501D01*
X16121009Y36555501D01*
X16223797Y36566001D01*
X16390334Y36621186D01*
X16422419Y36640976D01*
X16539656Y36713288D01*
X16585986Y36759618D01*
X20084700Y36759618D01*
X20084700Y36134591D01*
X20095200Y36031803D01*
X20150385Y35865266D01*
X20242488Y35715944D01*
X20242493Y35715938D01*
X20334736Y35623695D01*
X20368762Y35561383D01*
X20363697Y35490568D01*
X20334736Y35445505D01*
X20242493Y35353263D01*
X20242488Y35353257D01*
X20150385Y35203935D01*
X20095202Y35037404D01*
X20095200Y35037392D01*
X20084700Y34934618D01*
X20084700Y34309591D01*
X20095200Y34206803D01*
X20150385Y34040266D01*
X20242488Y33890944D01*
X20242493Y33890938D01*
X20366537Y33766894D01*
X20366543Y33766889D01*
X20366544Y33766888D01*
X20398610Y33747110D01*
X20446088Y33694324D01*
X20457491Y33624249D01*
X20431307Y33561730D01*
X20428095Y33557668D01*
X20335985Y33408335D01*
X20280802Y33241804D01*
X20280800Y33241792D01*
X20270300Y33139018D01*
X20270300Y32138991D01*
X20280800Y32036203D01*
X20335985Y31869666D01*
X20428088Y31720344D01*
X20428093Y31720338D01*
X20436336Y31712095D01*
X20470362Y31649783D01*
X20465297Y31578968D01*
X20436336Y31533905D01*
X20428093Y31525663D01*
X20428088Y31525657D01*
X20335985Y31376335D01*
X20280802Y31209804D01*
X20280800Y31209792D01*
X20270300Y31107018D01*
X20270300Y30106991D01*
X20280800Y30004203D01*
X20335985Y29837666D01*
X20428088Y29688344D01*
X20428093Y29688338D01*
X20552137Y29564294D01*
X20552143Y29564289D01*
X20552144Y29564288D01*
X20591739Y29539866D01*
X20701465Y29472186D01*
X20867996Y29417003D01*
X20867997Y29417003D01*
X20868003Y29417001D01*
X20970791Y29406500D01*
X21595808Y29406501D01*
X21595809Y29406501D01*
X21698597Y29417001D01*
X21865134Y29472186D01*
X22014456Y29564288D01*
X22138512Y29688344D01*
X22230614Y29837666D01*
X22285799Y30004203D01*
X22296300Y30106991D01*
X22296299Y31107008D01*
X22294542Y31124204D01*
X22285799Y31209798D01*
X22230614Y31376335D01*
X22166636Y31480060D01*
X22138512Y31525656D01*
X22130264Y31533904D01*
X22096238Y31596212D01*
X22101301Y31667028D01*
X22130264Y31712097D01*
X22138512Y31720344D01*
X22230614Y31869666D01*
X22285799Y32036203D01*
X22296300Y32138991D01*
X22296299Y33139008D01*
X22295002Y33151700D01*
X22285799Y33241798D01*
X22230614Y33408335D01*
X22184563Y33482995D01*
X22138512Y33557656D01*
X22138508Y33557660D01*
X22136547Y33560140D01*
X22135729Y33562167D01*
X22134659Y33563902D01*
X22134955Y33564085D01*
X22109984Y33625980D01*
X22123233Y33695729D01*
X22169232Y33745533D01*
X22203856Y33766888D01*
X22281774Y33844806D01*
X26827000Y33844806D01*
X26827000Y33658593D01*
X26838032Y33566722D01*
X26838032Y33536678D01*
X26827000Y33444808D01*
X26827000Y33258593D01*
X26838032Y33166722D01*
X26838032Y33136678D01*
X26827000Y33044808D01*
X26827000Y32858595D01*
X26837622Y32770136D01*
X26893138Y32629359D01*
X26893140Y32629356D01*
X26894295Y32627833D01*
X26894917Y32626196D01*
X26897364Y32621844D01*
X26896710Y32621477D01*
X26919518Y32561468D01*
X26904857Y32492002D01*
X26894295Y32475567D01*
X26893140Y32474045D01*
X26893138Y32474042D01*
X26837622Y32333265D01*
X26827000Y32244806D01*
X26827000Y32058595D01*
X26837622Y31970136D01*
X26893138Y31829359D01*
X26893141Y31829355D01*
X26984577Y31708778D01*
X27059322Y31652097D01*
X27101515Y31594998D01*
X27106140Y31524152D01*
X27071728Y31462053D01*
X27059322Y31451303D01*
X26984577Y31394623D01*
X26893141Y31274046D01*
X26893138Y31274042D01*
X26837622Y31133265D01*
X26827000Y31044806D01*
X26827000Y30858595D01*
X26837622Y30770136D01*
X26893138Y30629359D01*
X26893141Y30629355D01*
X26984577Y30508778D01*
X27105154Y30417342D01*
X27105160Y30417338D01*
X27120431Y30411316D01*
X27245936Y30361823D01*
X27245937Y30361823D01*
X27247223Y30361316D01*
X27303257Y30317718D01*
X27326825Y30250748D01*
X27327000Y30244101D01*
X27327000Y30158595D01*
X27337622Y30070136D01*
X27393138Y29929359D01*
X27393141Y29929355D01*
X27484577Y29808778D01*
X27605154Y29717342D01*
X27605158Y29717339D01*
X27745935Y29661823D01*
X27745934Y29661823D01*
X27773894Y29658466D01*
X27834398Y29651200D01*
X27834401Y29651200D01*
X28020599Y29651200D01*
X28020602Y29651200D01*
X28109064Y29661823D01*
X28109064Y29661824D01*
X28112477Y29662233D01*
X28142523Y29662233D01*
X28145935Y29661824D01*
X28145936Y29661823D01*
X28234398Y29651200D01*
X28234401Y29651200D01*
X28420599Y29651200D01*
X28420602Y29651200D01*
X28509064Y29661823D01*
X28509064Y29661824D01*
X28512477Y29662233D01*
X28542523Y29662233D01*
X28545935Y29661824D01*
X28545936Y29661823D01*
X28634398Y29651200D01*
X28634401Y29651200D01*
X28820599Y29651200D01*
X28820602Y29651200D01*
X28909064Y29661823D01*
X28909064Y29661824D01*
X28912477Y29662233D01*
X28942523Y29662233D01*
X28945935Y29661824D01*
X28945936Y29661823D01*
X29034398Y29651200D01*
X29034401Y29651200D01*
X29220599Y29651200D01*
X29220602Y29651200D01*
X29309064Y29661823D01*
X29309064Y29661824D01*
X29312477Y29662233D01*
X29342523Y29662233D01*
X29345935Y29661824D01*
X29345936Y29661823D01*
X29434398Y29651200D01*
X29434401Y29651200D01*
X29620599Y29651200D01*
X29620602Y29651200D01*
X29709064Y29661823D01*
X29709064Y29661824D01*
X29712477Y29662233D01*
X29742523Y29662233D01*
X29745935Y29661824D01*
X29745936Y29661823D01*
X29834398Y29651200D01*
X29834401Y29651200D01*
X30020599Y29651200D01*
X30020602Y29651200D01*
X30109064Y29661823D01*
X30109064Y29661824D01*
X30112477Y29662233D01*
X30142523Y29662233D01*
X30145935Y29661824D01*
X30145936Y29661823D01*
X30234398Y29651200D01*
X30234401Y29651200D01*
X30420599Y29651200D01*
X30420602Y29651200D01*
X30509064Y29661823D01*
X30509064Y29661824D01*
X30512477Y29662233D01*
X30542523Y29662233D01*
X30545935Y29661824D01*
X30545936Y29661823D01*
X30634398Y29651200D01*
X30634401Y29651200D01*
X30820599Y29651200D01*
X30820602Y29651200D01*
X30909064Y29661823D01*
X30909064Y29661824D01*
X30912477Y29662233D01*
X30942523Y29662233D01*
X30945935Y29661824D01*
X30945936Y29661823D01*
X31034398Y29651200D01*
X31034401Y29651200D01*
X31220599Y29651200D01*
X31220602Y29651200D01*
X31309064Y29661823D01*
X31449842Y29717339D01*
X31570422Y29808778D01*
X31661861Y29929358D01*
X31717377Y30070136D01*
X31728000Y30158598D01*
X31728000Y30294101D01*
X31747160Y30359354D01*
X32679500Y30359354D01*
X32679500Y29812655D01*
X32689650Y29713296D01*
X32689650Y29713294D01*
X32689651Y29713292D01*
X32742997Y29552303D01*
X32814056Y29437099D01*
X32832032Y29407956D01*
X32832037Y29407950D01*
X32901214Y29338773D01*
X32935240Y29276461D01*
X32930175Y29205646D01*
X32901216Y29160584D01*
X32878289Y29137657D01*
X32786186Y28988335D01*
X32731003Y28821804D01*
X32731001Y28821792D01*
X32720501Y28719018D01*
X32720501Y27668991D01*
X32731001Y27566203D01*
X32786186Y27399666D01*
X32878289Y27250344D01*
X32878294Y27250338D01*
X32925037Y27203595D01*
X32959063Y27141283D01*
X32953998Y27070468D01*
X32925037Y27025405D01*
X32878294Y26978663D01*
X32878289Y26978657D01*
X32786186Y26829335D01*
X32731003Y26662804D01*
X32731001Y26662792D01*
X32720501Y26560018D01*
X32720501Y25509991D01*
X32731001Y25407203D01*
X32786186Y25240666D01*
X32878289Y25091344D01*
X32878294Y25091338D01*
X32925037Y25044595D01*
X32959063Y24982283D01*
X32953998Y24911468D01*
X32925037Y24866405D01*
X32878294Y24819663D01*
X32878289Y24819657D01*
X32786186Y24670335D01*
X32731003Y24503804D01*
X32731001Y24503792D01*
X32720501Y24401018D01*
X32720501Y23350991D01*
X32731001Y23248203D01*
X32786186Y23081666D01*
X32878289Y22932344D01*
X32878294Y22932338D01*
X33002338Y22808294D01*
X33002344Y22808289D01*
X33002345Y22808288D01*
X33018156Y22798536D01*
X33151666Y22716186D01*
X33318197Y22661003D01*
X33318198Y22661003D01*
X33318204Y22661001D01*
X33420992Y22650500D01*
X34021009Y22650501D01*
X34021010Y22650501D01*
X34123798Y22661001D01*
X34290335Y22716186D01*
X34359091Y22758595D01*
X34439657Y22808288D01*
X34563713Y22932344D01*
X34655815Y23081666D01*
X34711000Y23248203D01*
X34721501Y23350991D01*
X34721500Y24401008D01*
X34711000Y24503797D01*
X34710171Y24506301D01*
X34655815Y24670335D01*
X34583153Y24788138D01*
X34563713Y24819656D01*
X34563712Y24819657D01*
X34563707Y24819663D01*
X34516965Y24866405D01*
X34482939Y24928717D01*
X34488004Y24999532D01*
X34516965Y25044595D01*
X34563707Y25091338D01*
X34563713Y25091344D01*
X34655815Y25240666D01*
X34711000Y25407203D01*
X34721501Y25509991D01*
X34721501Y26031818D01*
X46287700Y26031818D01*
X46287700Y25206791D01*
X46298200Y25104003D01*
X46353385Y24937466D01*
X46445488Y24788144D01*
X46445493Y24788138D01*
X46569537Y24664094D01*
X46569543Y24664089D01*
X46569544Y24664088D01*
X46626763Y24628796D01*
X46718865Y24571986D01*
X46885396Y24516803D01*
X46885397Y24516803D01*
X46885403Y24516801D01*
X46988191Y24506300D01*
X49938208Y24506301D01*
X49938209Y24506301D01*
X50040997Y24516801D01*
X50207537Y24571987D01*
X50257822Y24603003D01*
X50326301Y24621741D01*
X50394040Y24600482D01*
X50439532Y24545975D01*
X50448333Y24475526D01*
X50443575Y24456135D01*
X50409001Y24351797D01*
X50409001Y24351795D01*
X50409000Y24351792D01*
X50398500Y24249018D01*
X50398500Y23248991D01*
X50409000Y23146203D01*
X50464185Y22979666D01*
X50556288Y22830344D01*
X50556293Y22830338D01*
X50680337Y22706294D01*
X50680343Y22706289D01*
X50680344Y22706288D01*
X50696565Y22696283D01*
X50829665Y22614186D01*
X50996196Y22559003D01*
X50996197Y22559003D01*
X50996203Y22559001D01*
X51098991Y22548500D01*
X51724008Y22548501D01*
X51724009Y22548501D01*
X51826797Y22559001D01*
X51993334Y22614186D01*
X52011625Y22625468D01*
X52142656Y22706288D01*
X52152554Y22716186D01*
X52234905Y22798536D01*
X52297217Y22832562D01*
X52368032Y22827497D01*
X52413095Y22798536D01*
X52453036Y22758595D01*
X52487062Y22696283D01*
X52481997Y22625468D01*
X52453036Y22580405D01*
X52381293Y22508663D01*
X52381288Y22508657D01*
X52289185Y22359335D01*
X52234002Y22192804D01*
X52234000Y22192792D01*
X52223500Y22090018D01*
X52223500Y21089991D01*
X52234000Y20987203D01*
X52289185Y20820666D01*
X52381288Y20671344D01*
X52381293Y20671338D01*
X52505337Y20547294D01*
X52505343Y20547289D01*
X52505344Y20547288D01*
X52562563Y20511996D01*
X52654665Y20455186D01*
X52821196Y20400003D01*
X52821197Y20400003D01*
X52821203Y20400001D01*
X52923991Y20389500D01*
X53549008Y20389501D01*
X53549009Y20389501D01*
X53651797Y20400001D01*
X53818334Y20455186D01*
X53820656Y20456618D01*
X53967656Y20547288D01*
X54091712Y20671344D01*
X54146762Y20760596D01*
X54199547Y20808074D01*
X54269622Y20819477D01*
X54320147Y20801691D01*
X54363259Y20775100D01*
X54450665Y20721187D01*
X54617196Y20666004D01*
X54617197Y20666004D01*
X54617203Y20666002D01*
X54719991Y20655501D01*
X55770008Y20655502D01*
X55770009Y20655502D01*
X55872797Y20666002D01*
X56039334Y20721187D01*
X56047695Y20726344D01*
X56188656Y20813289D01*
X56312712Y20937345D01*
X56404814Y21086667D01*
X56459999Y21253204D01*
X56470500Y21355992D01*
X56470499Y21956009D01*
X56463083Y22028603D01*
X56459999Y22058799D01*
X56404814Y22225336D01*
X56343957Y22324000D01*
X56312712Y22374657D01*
X56312711Y22374658D01*
X56312706Y22374664D01*
X56188662Y22498708D01*
X56188655Y22498714D01*
X56188586Y22498756D01*
X56188548Y22498798D01*
X56182901Y22503263D01*
X56183663Y22504228D01*
X56141105Y22551539D01*
X56129698Y22621613D01*
X56157987Y22686731D01*
X56183097Y22708489D01*
X56182901Y22708737D01*
X56188427Y22713107D01*
X56188586Y22713244D01*
X56188656Y22713287D01*
X56312712Y22837343D01*
X56404814Y22986665D01*
X56459999Y23153202D01*
X56470500Y23255990D01*
X56470499Y23856007D01*
X56469874Y23862122D01*
X56459999Y23958797D01*
X56404814Y24125334D01*
X56319285Y24263998D01*
X56312712Y24274655D01*
X56312711Y24274656D01*
X56312705Y24274663D01*
X56188662Y24398706D01*
X56188656Y24398711D01*
X56039334Y24490814D01*
X55872803Y24545997D01*
X55872791Y24545999D01*
X55770017Y24556499D01*
X54719990Y24556499D01*
X54617202Y24545999D01*
X54450664Y24490813D01*
X54372296Y24442476D01*
X54303817Y24423740D01*
X54236078Y24445000D01*
X54190587Y24499508D01*
X54186551Y24510075D01*
X54183814Y24518334D01*
X54091712Y24667656D01*
X54091711Y24667657D01*
X54091706Y24667663D01*
X53967662Y24791707D01*
X53967656Y24791712D01*
X53818334Y24883815D01*
X53651803Y24938998D01*
X53651791Y24939000D01*
X53549017Y24949500D01*
X52923990Y24949500D01*
X52821202Y24939000D01*
X52654665Y24883815D01*
X52505343Y24791712D01*
X52505337Y24791707D01*
X52413095Y24699464D01*
X52350783Y24665438D01*
X52279968Y24670503D01*
X52234905Y24699464D01*
X52142662Y24791707D01*
X52142656Y24791712D01*
X51993334Y24883815D01*
X51826803Y24938998D01*
X51826791Y24939000D01*
X51724017Y24949500D01*
X51098990Y24949500D01*
X50996202Y24939000D01*
X50829664Y24883814D01*
X50779375Y24852796D01*
X50710896Y24834060D01*
X50643157Y24855320D01*
X50597666Y24909828D01*
X50588866Y24980277D01*
X50593622Y24999660D01*
X50628199Y25104003D01*
X50638700Y25206791D01*
X50638699Y26031808D01*
X50628199Y26134597D01*
X50610172Y26189001D01*
X50573014Y26301135D01*
X50480911Y26450457D01*
X50480906Y26450463D01*
X50356862Y26574507D01*
X50356856Y26574512D01*
X50207534Y26666615D01*
X50041003Y26721798D01*
X50040991Y26721800D01*
X49938217Y26732300D01*
X46988190Y26732300D01*
X46885402Y26721800D01*
X46718865Y26666615D01*
X46569543Y26574512D01*
X46569537Y26574507D01*
X46445493Y26450463D01*
X46445488Y26450457D01*
X46353385Y26301135D01*
X46298202Y26134604D01*
X46298200Y26134592D01*
X46287700Y26031818D01*
X34721501Y26031818D01*
X34721500Y26560008D01*
X34720018Y26574512D01*
X34711000Y26662798D01*
X34655815Y26829335D01*
X34593780Y26929909D01*
X34563713Y26978656D01*
X34563712Y26978657D01*
X34563707Y26978663D01*
X34516965Y27025405D01*
X34482939Y27087717D01*
X34488004Y27158532D01*
X34516965Y27203595D01*
X34563707Y27250338D01*
X34563713Y27250344D01*
X34655815Y27399666D01*
X34711000Y27566203D01*
X34717795Y27632718D01*
X40621000Y27632718D01*
X40621000Y27032691D01*
X40631500Y26929903D01*
X40686685Y26763366D01*
X40778788Y26614044D01*
X40778793Y26614038D01*
X40902837Y26489994D01*
X40902843Y26489989D01*
X40902844Y26489988D01*
X40950905Y26460344D01*
X41052165Y26397886D01*
X41218696Y26342703D01*
X41218697Y26342703D01*
X41218703Y26342701D01*
X41321491Y26332200D01*
X42371508Y26332201D01*
X42371509Y26332201D01*
X42474297Y26342701D01*
X42640834Y26397886D01*
X42677176Y26420302D01*
X42790156Y26489988D01*
X42914212Y26614044D01*
X43006314Y26763366D01*
X43061499Y26929903D01*
X43072000Y27032691D01*
X43071999Y27632708D01*
X43068293Y27668983D01*
X43061499Y27735498D01*
X43006314Y27902035D01*
X42935106Y28017481D01*
X42914212Y28051356D01*
X42914211Y28051357D01*
X42914206Y28051363D01*
X42790162Y28175407D01*
X42790156Y28175412D01*
X42640834Y28267515D01*
X42474303Y28322698D01*
X42474291Y28322700D01*
X42371517Y28333200D01*
X41321490Y28333200D01*
X41218702Y28322700D01*
X41052165Y28267515D01*
X40902843Y28175412D01*
X40902837Y28175407D01*
X40778793Y28051363D01*
X40778788Y28051357D01*
X40686685Y27902035D01*
X40631502Y27735504D01*
X40631500Y27735492D01*
X40621000Y27632718D01*
X34717795Y27632718D01*
X34721501Y27668991D01*
X34721500Y28719008D01*
X34721119Y28722734D01*
X34711000Y28821798D01*
X34655815Y28988335D01*
X34589884Y29095226D01*
X34563713Y29137656D01*
X34563712Y29137657D01*
X34563707Y29137663D01*
X34474786Y29226584D01*
X34440760Y29288896D01*
X34445825Y29359711D01*
X34474789Y29404778D01*
X34477968Y29407956D01*
X34567003Y29552303D01*
X34620349Y29713292D01*
X34630500Y29812655D01*
X34630499Y30359344D01*
X34620349Y30458708D01*
X34567003Y30619697D01*
X34477968Y30764044D01*
X34477967Y30764045D01*
X34477962Y30764051D01*
X34358050Y30883963D01*
X34358044Y30883968D01*
X34213697Y30973003D01*
X34052708Y31026349D01*
X34052704Y31026350D01*
X34052702Y31026350D01*
X33953353Y31036500D01*
X33356654Y31036500D01*
X33257295Y31026350D01*
X33096303Y30973003D01*
X32951955Y30883968D01*
X32951949Y30883963D01*
X32832037Y30764051D01*
X32832032Y30764045D01*
X32742997Y30619698D01*
X32742997Y30619697D01*
X32706243Y30508778D01*
X32689651Y30458707D01*
X32689650Y30458703D01*
X32679500Y30359354D01*
X31747160Y30359354D01*
X31748002Y30362222D01*
X31801658Y30408715D01*
X31807777Y30411316D01*
X31809062Y30411823D01*
X31809064Y30411823D01*
X31949842Y30467339D01*
X32070422Y30558778D01*
X32161861Y30679358D01*
X32217377Y30820136D01*
X32228000Y30908598D01*
X32228000Y31094802D01*
X32217377Y31183264D01*
X32210610Y31200423D01*
X32161861Y31324042D01*
X32161858Y31324046D01*
X32149456Y31340401D01*
X32124232Y31406766D01*
X32124751Y31431552D01*
X32128000Y31458598D01*
X32128000Y31644802D01*
X32117377Y31733264D01*
X32117376Y31733265D01*
X32116967Y31736677D01*
X32116967Y31766723D01*
X32119305Y31786192D01*
X32128000Y31858598D01*
X32128000Y32044802D01*
X32117377Y32133264D01*
X32115118Y32138992D01*
X32073390Y32244806D01*
X32061861Y32274042D01*
X32060709Y32275561D01*
X32060088Y32277195D01*
X32057636Y32281556D01*
X32058290Y32281924D01*
X32035482Y32341923D01*
X32050138Y32411390D01*
X32060706Y32427836D01*
X32061861Y32429358D01*
X32117377Y32570136D01*
X32128000Y32658598D01*
X32128000Y32844802D01*
X32117377Y32933264D01*
X32117376Y32933265D01*
X32116967Y32936677D01*
X32116967Y32966723D01*
X32118905Y32982861D01*
X32128000Y33058598D01*
X32128000Y33244802D01*
X32124752Y33271844D01*
X32136488Y33341861D01*
X32149456Y33363001D01*
X32161861Y33379358D01*
X32217377Y33520136D01*
X32228000Y33608598D01*
X32228000Y33794802D01*
X32217377Y33883264D01*
X32216285Y33886032D01*
X32161861Y34024042D01*
X32161858Y34024046D01*
X32070422Y34144623D01*
X31949845Y34236059D01*
X31949843Y34236060D01*
X31949842Y34236061D01*
X31882972Y34262432D01*
X31807775Y34292086D01*
X31751742Y34335685D01*
X31728175Y34402656D01*
X31728000Y34409301D01*
X31728000Y34544799D01*
X31728000Y34544802D01*
X31717377Y34633264D01*
X31679705Y34728792D01*
X31661861Y34774042D01*
X31661858Y34774046D01*
X31570422Y34894623D01*
X31449845Y34986059D01*
X31449841Y34986062D01*
X31309064Y35041578D01*
X31309065Y35041578D01*
X31220605Y35052200D01*
X31220602Y35052200D01*
X31034398Y35052200D01*
X31034392Y35052200D01*
X30942522Y35041168D01*
X30912478Y35041168D01*
X30820607Y35052200D01*
X30820602Y35052200D01*
X30634398Y35052200D01*
X30634392Y35052200D01*
X30542522Y35041168D01*
X30512478Y35041168D01*
X30420607Y35052200D01*
X30420602Y35052200D01*
X30234398Y35052200D01*
X30234392Y35052200D01*
X30142522Y35041168D01*
X30112478Y35041168D01*
X30020607Y35052200D01*
X30020602Y35052200D01*
X29834398Y35052200D01*
X29834392Y35052200D01*
X29742522Y35041168D01*
X29712478Y35041168D01*
X29620607Y35052200D01*
X29620602Y35052200D01*
X29434398Y35052200D01*
X29434392Y35052200D01*
X29350867Y35042170D01*
X29317230Y35044324D01*
X29317085Y35043114D01*
X29220605Y35054700D01*
X29220602Y35054700D01*
X29034398Y35054700D01*
X29034394Y35054700D01*
X28937916Y35043114D01*
X28937770Y35044323D01*
X28904133Y35042170D01*
X28820607Y35052200D01*
X28820602Y35052200D01*
X28634398Y35052200D01*
X28634392Y35052200D01*
X28542522Y35041168D01*
X28512478Y35041168D01*
X28420607Y35052200D01*
X28420602Y35052200D01*
X28234398Y35052200D01*
X28234392Y35052200D01*
X28142522Y35041168D01*
X28112478Y35041168D01*
X28020607Y35052200D01*
X28020602Y35052200D01*
X27834398Y35052200D01*
X27834394Y35052200D01*
X27745935Y35041578D01*
X27605158Y34986062D01*
X27605154Y34986059D01*
X27484577Y34894623D01*
X27393141Y34774046D01*
X27393138Y34774042D01*
X27337622Y34633265D01*
X27327000Y34544806D01*
X27327000Y34459301D01*
X27306998Y34391180D01*
X27253342Y34344687D01*
X27247225Y34342086D01*
X27164805Y34309583D01*
X27105158Y34286061D01*
X27105157Y34286061D01*
X27105156Y34286060D01*
X27105154Y34286059D01*
X26984577Y34194623D01*
X26893141Y34074046D01*
X26893138Y34074042D01*
X26837622Y33933265D01*
X26827000Y33844806D01*
X22281774Y33844806D01*
X22327912Y33890944D01*
X22420014Y34040266D01*
X22475199Y34206803D01*
X22485700Y34309591D01*
X22485699Y34934608D01*
X22483376Y34957344D01*
X22475199Y35037398D01*
X22420014Y35203935D01*
X22357368Y35305500D01*
X22327912Y35353256D01*
X22327911Y35353257D01*
X22327906Y35353263D01*
X22235664Y35445505D01*
X22201638Y35507817D01*
X22206703Y35578632D01*
X22235664Y35623695D01*
X22327906Y35715938D01*
X22327912Y35715944D01*
X22420014Y35865266D01*
X22475199Y36031803D01*
X22485700Y36134591D01*
X22485699Y36759608D01*
X22475199Y36862397D01*
X22453442Y36928057D01*
X22420014Y37028935D01*
X22327911Y37178257D01*
X22327906Y37178263D01*
X22278151Y37228018D01*
X28021500Y37228018D01*
X28021500Y36177991D01*
X28032000Y36075203D01*
X28087185Y35908666D01*
X28179288Y35759344D01*
X28179293Y35759338D01*
X28303337Y35635294D01*
X28303343Y35635289D01*
X28303344Y35635288D01*
X28340880Y35612136D01*
X28452665Y35543186D01*
X28619196Y35488003D01*
X28619197Y35488003D01*
X28619203Y35488001D01*
X28721991Y35477500D01*
X29322008Y35477501D01*
X29322009Y35477501D01*
X29424797Y35488001D01*
X29591334Y35543186D01*
X29618594Y35560000D01*
X29740656Y35635288D01*
X29864712Y35759344D01*
X29864759Y35759420D01*
X29864803Y35759460D01*
X29869262Y35765099D01*
X29870225Y35764338D01*
X29917544Y35806899D01*
X29987619Y35818302D01*
X30052735Y35790010D01*
X30074490Y35764903D01*
X30074738Y35765099D01*
X30079094Y35759589D01*
X30079241Y35759420D01*
X30079286Y35759347D01*
X30079293Y35759338D01*
X30203337Y35635294D01*
X30203343Y35635289D01*
X30203344Y35635288D01*
X30240880Y35612136D01*
X30352665Y35543186D01*
X30519196Y35488003D01*
X30519197Y35488003D01*
X30519203Y35488001D01*
X30621991Y35477500D01*
X31222008Y35477501D01*
X31222009Y35477501D01*
X31324797Y35488001D01*
X31491334Y35543186D01*
X31518594Y35560000D01*
X31640656Y35635288D01*
X31764712Y35759344D01*
X31856814Y35908666D01*
X31911999Y36075203D01*
X31922500Y36177991D01*
X31922499Y37228008D01*
X31919641Y37255983D01*
X31911999Y37330798D01*
X31856814Y37497335D01*
X31786011Y37612124D01*
X31764712Y37646656D01*
X31764711Y37646657D01*
X31764706Y37646663D01*
X31640662Y37770707D01*
X31640653Y37770714D01*
X31625535Y37780039D01*
X31578057Y37832825D01*
X31566655Y37902900D01*
X31584443Y37953427D01*
X31614814Y38002666D01*
X31669999Y38169203D01*
X31680500Y38271991D01*
X31680499Y38897008D01*
X31673830Y38962289D01*
X31669999Y38999798D01*
X31614814Y39166335D01*
X31557030Y39260018D01*
X31522712Y39315656D01*
X31522711Y39315657D01*
X31522706Y39315663D01*
X31398662Y39439707D01*
X31398656Y39439712D01*
X31249334Y39531815D01*
X31082803Y39586998D01*
X31082791Y39587000D01*
X30980017Y39597500D01*
X29979990Y39597500D01*
X29877202Y39587000D01*
X29710665Y39531815D01*
X29561343Y39439712D01*
X29561337Y39439707D01*
X29437293Y39315663D01*
X29437288Y39315657D01*
X29345185Y39166335D01*
X29290002Y38999804D01*
X29290000Y38999792D01*
X29279500Y38897018D01*
X29279500Y38271991D01*
X29290000Y38169206D01*
X29314877Y38094132D01*
X29317317Y38023178D01*
X29281008Y37962168D01*
X29217479Y37930472D01*
X29195272Y37928500D01*
X28721990Y37928500D01*
X28619202Y37918000D01*
X28452665Y37862815D01*
X28303343Y37770712D01*
X28303337Y37770707D01*
X28179293Y37646663D01*
X28179288Y37646657D01*
X28087185Y37497335D01*
X28032002Y37330804D01*
X28032000Y37330792D01*
X28021500Y37228018D01*
X22278151Y37228018D01*
X22203862Y37302307D01*
X22203856Y37302312D01*
X22054534Y37394415D01*
X21888003Y37449598D01*
X21887991Y37449600D01*
X21785217Y37460100D01*
X20785190Y37460100D01*
X20682402Y37449600D01*
X20515865Y37394415D01*
X20366543Y37302312D01*
X20366537Y37302307D01*
X20242493Y37178263D01*
X20242488Y37178257D01*
X20150385Y37028935D01*
X20095202Y36862404D01*
X20095200Y36862392D01*
X20084700Y36759618D01*
X16585986Y36759618D01*
X16663712Y36837344D01*
X16755814Y36986666D01*
X16810999Y37153203D01*
X16821500Y37255991D01*
X16821499Y37881008D01*
X16813208Y37962168D01*
X16810999Y37983798D01*
X16755814Y38150335D01*
X16663711Y38299657D01*
X16663706Y38299663D01*
X16539662Y38423707D01*
X16539656Y38423712D01*
X16390334Y38515815D01*
X16223803Y38570998D01*
X16223791Y38571000D01*
X16121017Y38581500D01*
X15120990Y38581500D01*
X15018202Y38571000D01*
X14851665Y38515815D01*
X14702343Y38423712D01*
X14702337Y38423707D01*
X14578293Y38299663D01*
X14578288Y38299657D01*
X14486185Y38150335D01*
X14431002Y37983804D01*
X14431000Y37983792D01*
X14420500Y37881018D01*
X13831500Y37881018D01*
X13831499Y38307872D01*
X13825091Y38367483D01*
X13777841Y38494167D01*
X13774798Y38502327D01*
X13774796Y38502330D01*
X13774796Y38502331D01*
X13698885Y38603735D01*
X13688546Y38617547D01*
X13594488Y38687958D01*
X13573331Y38703796D01*
X13573329Y38703797D01*
X13573326Y38703799D01*
X13438483Y38754091D01*
X13438486Y38754091D01*
X13378873Y38760500D01*
X12133135Y38760500D01*
X12133114Y38760498D01*
X12073519Y38754092D01*
X12073518Y38754092D01*
X11978337Y38718592D01*
X11907521Y38713528D01*
X11871306Y38727529D01*
X11810501Y38762635D01*
X11810498Y38762636D01*
X11725169Y38785500D01*
X11636831Y38785500D01*
X11551502Y38762636D01*
X11551501Y38762636D01*
X11551499Y38762635D01*
X11474999Y38718468D01*
X11474991Y38718462D01*
X11412538Y38656009D01*
X11412532Y38656001D01*
X11368365Y38579501D01*
X11368364Y38579499D01*
X11368364Y38579498D01*
X11345500Y38494169D01*
X5344500Y38494169D01*
X5344500Y39155001D01*
X11809552Y39155001D01*
X11809553Y39155000D01*
X12552447Y39155000D01*
X12552447Y39155001D01*
X12181001Y39526447D01*
X12180999Y39526447D01*
X11809552Y39155001D01*
X5344500Y39155001D01*
X5344500Y39951409D01*
X10931000Y39951409D01*
X10931000Y39808592D01*
X10958861Y39668525D01*
X10958863Y39668520D01*
X11013513Y39536585D01*
X11092853Y39417844D01*
X11092854Y39417842D01*
X11193840Y39316855D01*
X11193842Y39316854D01*
X11236078Y39288633D01*
X11540982Y39593537D01*
X11591504Y39580000D01*
X12770496Y39580000D01*
X12821015Y39593537D01*
X13125919Y39288633D01*
X13125920Y39288633D01*
X13168159Y39316855D01*
X13269145Y39417842D01*
X13269146Y39417844D01*
X13348486Y39536585D01*
X13403136Y39668520D01*
X13403138Y39668525D01*
X13430999Y39808592D01*
X13431000Y39808596D01*
X13431000Y39951405D01*
X13430999Y39951409D01*
X13403138Y40091476D01*
X13403136Y40091481D01*
X13348486Y40223416D01*
X13269146Y40342157D01*
X13269145Y40342159D01*
X13168159Y40443146D01*
X13168157Y40443147D01*
X13125920Y40471369D01*
X12821015Y40166464D01*
X12770496Y40180000D01*
X11591504Y40180000D01*
X11540984Y40166464D01*
X11236079Y40471369D01*
X11193839Y40443145D01*
X11092854Y40342159D01*
X11092853Y40342157D01*
X11013513Y40223416D01*
X10958863Y40091481D01*
X10958861Y40091476D01*
X10931000Y39951409D01*
X5344500Y39951409D01*
X5344500Y40605000D01*
X11809552Y40605000D01*
X12180999Y40233553D01*
X12181001Y40233553D01*
X12452465Y40505018D01*
X21569500Y40505018D01*
X21569500Y39504991D01*
X21580000Y39402203D01*
X21635185Y39235666D01*
X21727288Y39086344D01*
X21727293Y39086338D01*
X21851337Y38962294D01*
X21851343Y38962289D01*
X21851344Y38962288D01*
X21908563Y38926996D01*
X22000665Y38870186D01*
X22167196Y38815003D01*
X22167197Y38815003D01*
X22167203Y38815001D01*
X22269991Y38804500D01*
X22895008Y38804501D01*
X22895009Y38804501D01*
X22997797Y38815001D01*
X23164334Y38870186D01*
X23175563Y38877112D01*
X23313656Y38962288D01*
X23351172Y38999804D01*
X23405905Y39054536D01*
X23468217Y39088562D01*
X23539032Y39083497D01*
X23584095Y39054536D01*
X23676337Y38962294D01*
X23676343Y38962289D01*
X23676344Y38962288D01*
X23733563Y38926996D01*
X23825665Y38870186D01*
X23992196Y38815003D01*
X23992197Y38815003D01*
X23992203Y38815001D01*
X24094991Y38804500D01*
X24720008Y38804501D01*
X24720009Y38804501D01*
X24822797Y38815001D01*
X24989334Y38870186D01*
X25000563Y38877112D01*
X25138656Y38962288D01*
X25262712Y39086344D01*
X25354814Y39235666D01*
X25409999Y39402203D01*
X25420500Y39504991D01*
X25420499Y40505008D01*
X25417636Y40533031D01*
X25409999Y40607798D01*
X25354814Y40774335D01*
X25262711Y40923657D01*
X25259633Y40926735D01*
X25254464Y40931904D01*
X25220438Y40994212D01*
X25225501Y41065028D01*
X25254461Y41110094D01*
X25325112Y41180744D01*
X25417214Y41330066D01*
X25472399Y41496603D01*
X25482900Y41599391D01*
X25482899Y42224408D01*
X25474409Y42307516D01*
X25472399Y42327198D01*
X25417214Y42493735D01*
X25348710Y42604797D01*
X25325112Y42643056D01*
X25325111Y42643057D01*
X25325106Y42643063D01*
X25201062Y42767107D01*
X25201056Y42767112D01*
X25051734Y42859215D01*
X24985937Y42881018D01*
X26231500Y42881018D01*
X26231500Y42255991D01*
X26242000Y42153203D01*
X26297185Y41986666D01*
X26389288Y41837344D01*
X26389293Y41837338D01*
X26481536Y41745095D01*
X26515562Y41682783D01*
X26510497Y41611968D01*
X26481536Y41566905D01*
X26389293Y41474663D01*
X26389288Y41474657D01*
X26297185Y41325335D01*
X26242002Y41158804D01*
X26242000Y41158792D01*
X26231500Y41056018D01*
X26231500Y40430991D01*
X26242000Y40328203D01*
X26297185Y40161666D01*
X26389288Y40012344D01*
X26389293Y40012338D01*
X26513337Y39888294D01*
X26513343Y39888289D01*
X26513344Y39888288D01*
X26570563Y39852996D01*
X26662665Y39796186D01*
X26829196Y39741003D01*
X26829197Y39741003D01*
X26829203Y39741001D01*
X26931991Y39730500D01*
X27932008Y39730501D01*
X27932009Y39730501D01*
X28034797Y39741001D01*
X28201334Y39796186D01*
X28274448Y39841283D01*
X28350656Y39888288D01*
X28474712Y40012344D01*
X28566814Y40161666D01*
X28621999Y40328203D01*
X28632500Y40430991D01*
X28632499Y41056008D01*
X28630450Y41076063D01*
X28621999Y41158798D01*
X28566814Y41325335D01*
X28509030Y41419018D01*
X32593500Y41419018D01*
X32593500Y40368991D01*
X32604000Y40266203D01*
X32659185Y40099666D01*
X32751288Y39950344D01*
X32751293Y39950338D01*
X32798036Y39903595D01*
X32832062Y39841283D01*
X32826997Y39770468D01*
X32798036Y39725405D01*
X32751293Y39678663D01*
X32751288Y39678657D01*
X32659185Y39529335D01*
X32604002Y39362804D01*
X32604000Y39362792D01*
X32593500Y39260018D01*
X32593500Y38209991D01*
X32604000Y38107203D01*
X32659185Y37940666D01*
X32751288Y37791344D01*
X32751293Y37791338D01*
X32798036Y37744595D01*
X32832062Y37682283D01*
X32826997Y37611468D01*
X32798036Y37566405D01*
X32751293Y37519663D01*
X32751288Y37519657D01*
X32659185Y37370335D01*
X32604002Y37203804D01*
X32604000Y37203792D01*
X32593500Y37101018D01*
X32593500Y36050991D01*
X32604000Y35948203D01*
X32659185Y35781666D01*
X32751288Y35632344D01*
X32751293Y35632338D01*
X32837713Y35545918D01*
X32871739Y35483606D01*
X32866674Y35412791D01*
X32837722Y35367736D01*
X32832037Y35362051D01*
X32832032Y35362045D01*
X32742997Y35217698D01*
X32731798Y35183901D01*
X32690743Y35060001D01*
X32689651Y35056707D01*
X32689650Y35056703D01*
X32679500Y34957354D01*
X32679500Y34410655D01*
X32689650Y34311296D01*
X32689650Y34311294D01*
X32689651Y34311292D01*
X32742997Y34150303D01*
X32820874Y34024046D01*
X32832032Y34005956D01*
X32832037Y34005950D01*
X32951949Y33886038D01*
X32951955Y33886033D01*
X32951956Y33886032D01*
X33096303Y33796997D01*
X33257292Y33743651D01*
X33356655Y33733500D01*
X33953344Y33733501D01*
X33953345Y33733501D01*
X33973216Y33735531D01*
X34052708Y33743651D01*
X34096065Y33758018D01*
X35991500Y33758018D01*
X35991500Y32907991D01*
X36002000Y32805203D01*
X36057185Y32638666D01*
X36149288Y32489344D01*
X36149293Y32489338D01*
X36273337Y32365294D01*
X36273344Y32365288D01*
X36273427Y32365237D01*
X36273471Y32365188D01*
X36279099Y32360738D01*
X36278338Y32359776D01*
X36320901Y32312448D01*
X36332300Y32242372D01*
X36304004Y32177258D01*
X36278903Y32155509D01*
X36279099Y32155262D01*
X36273615Y32150927D01*
X36273427Y32150763D01*
X36273344Y32150713D01*
X36273337Y32150707D01*
X36149293Y32026663D01*
X36149288Y32026657D01*
X36057185Y31877335D01*
X36002002Y31710804D01*
X36002000Y31710792D01*
X35991500Y31608018D01*
X35991500Y30757991D01*
X36002000Y30655203D01*
X36057185Y30488666D01*
X36149288Y30339344D01*
X36149293Y30339338D01*
X36273337Y30215294D01*
X36273343Y30215289D01*
X36273344Y30215288D01*
X36330563Y30179996D01*
X36422665Y30123186D01*
X36589196Y30068003D01*
X36589197Y30068003D01*
X36589203Y30068001D01*
X36691991Y30057500D01*
X38492008Y30057501D01*
X38492009Y30057501D01*
X38594797Y30068001D01*
X38761334Y30123186D01*
X38818751Y30158601D01*
X38910656Y30215288D01*
X39034712Y30339344D01*
X39077810Y30409218D01*
X53232100Y30409218D01*
X53232100Y29809191D01*
X53242600Y29706403D01*
X53297785Y29539866D01*
X53389888Y29390544D01*
X53389893Y29390538D01*
X53513937Y29266494D01*
X53513944Y29266488D01*
X53514027Y29266437D01*
X53514071Y29266388D01*
X53519699Y29261938D01*
X53518938Y29260976D01*
X53561501Y29213648D01*
X53572900Y29143572D01*
X53544604Y29078458D01*
X53519503Y29056709D01*
X53519699Y29056462D01*
X53514215Y29052127D01*
X53514027Y29051963D01*
X53513944Y29051913D01*
X53513937Y29051907D01*
X53389893Y28927863D01*
X53389888Y28927857D01*
X53297785Y28778535D01*
X53242602Y28612004D01*
X53242600Y28611992D01*
X53232100Y28509218D01*
X53232100Y27909191D01*
X53242600Y27806403D01*
X53297785Y27639866D01*
X53389888Y27490544D01*
X53389893Y27490538D01*
X53513937Y27366494D01*
X53513943Y27366489D01*
X53513944Y27366488D01*
X53553514Y27342081D01*
X53663265Y27274386D01*
X53829796Y27219203D01*
X53829797Y27219203D01*
X53829803Y27219201D01*
X53932591Y27208700D01*
X54982608Y27208701D01*
X54982609Y27208701D01*
X55085397Y27219201D01*
X55251934Y27274386D01*
X55310789Y27310688D01*
X55401256Y27366488D01*
X55455704Y27420936D01*
X55511505Y27476736D01*
X55573817Y27510762D01*
X55644632Y27505697D01*
X55689695Y27476736D01*
X55799937Y27366494D01*
X55799943Y27366489D01*
X55799944Y27366488D01*
X55839514Y27342081D01*
X55949265Y27274386D01*
X56115796Y27219203D01*
X56115797Y27219203D01*
X56115803Y27219201D01*
X56218591Y27208700D01*
X57268608Y27208701D01*
X57268609Y27208701D01*
X57371397Y27219201D01*
X57537934Y27274386D01*
X57596789Y27310688D01*
X57687256Y27366488D01*
X57811312Y27490544D01*
X57903414Y27639866D01*
X57958599Y27806403D01*
X57969100Y27909191D01*
X57969099Y28509208D01*
X57964420Y28555009D01*
X57958599Y28611998D01*
X57903414Y28778535D01*
X57811311Y28927857D01*
X57811306Y28927863D01*
X57687262Y29051907D01*
X57687253Y29051914D01*
X57687180Y29051959D01*
X57687140Y29052004D01*
X57681501Y29056462D01*
X57682262Y29057426D01*
X57639701Y29104744D01*
X57628298Y29174819D01*
X57656590Y29239935D01*
X57681697Y29261691D01*
X57681501Y29261938D01*
X57687011Y29266295D01*
X57687180Y29266441D01*
X57687189Y29266447D01*
X57687256Y29266488D01*
X57811312Y29390544D01*
X57903414Y29539866D01*
X57958599Y29706403D01*
X57958610Y29706518D01*
X57958636Y29706582D01*
X57960038Y29713128D01*
X57961205Y29712879D01*
X57985428Y29772253D01*
X58043529Y29813055D01*
X58086986Y29818629D01*
X58086986Y29819500D01*
X58809000Y29819500D01*
X58877121Y29799498D01*
X58923614Y29745842D01*
X58935000Y29693500D01*
X58935000Y29650893D01*
X58946032Y29559022D01*
X58946032Y29528978D01*
X58935000Y29437108D01*
X58935000Y29250893D01*
X58946032Y29159022D01*
X58946032Y29128978D01*
X58935000Y29037108D01*
X58935000Y28850893D01*
X58946032Y28759022D01*
X58946032Y28728978D01*
X58935000Y28637108D01*
X58935000Y28450895D01*
X58945622Y28362436D01*
X59001138Y28221659D01*
X59001141Y28221655D01*
X59092577Y28101078D01*
X59213154Y28009642D01*
X59213158Y28009639D01*
X59353935Y27954123D01*
X59353934Y27954123D01*
X59381894Y27950766D01*
X59442398Y27943500D01*
X59659000Y27943500D01*
X59727121Y27923498D01*
X59773614Y27869842D01*
X59785000Y27817500D01*
X59785000Y27600895D01*
X59795622Y27512436D01*
X59851138Y27371659D01*
X59851141Y27371655D01*
X59942577Y27251078D01*
X60063154Y27159642D01*
X60063158Y27159639D01*
X60203935Y27104123D01*
X60203934Y27104123D01*
X60231894Y27100766D01*
X60292398Y27093500D01*
X60292401Y27093500D01*
X60478599Y27093500D01*
X60478602Y27093500D01*
X60567064Y27104123D01*
X60567064Y27104124D01*
X60570477Y27104533D01*
X60600523Y27104533D01*
X60603935Y27104124D01*
X60603936Y27104123D01*
X60692398Y27093500D01*
X60692401Y27093500D01*
X60878599Y27093500D01*
X60878602Y27093500D01*
X60967064Y27104123D01*
X60967064Y27104124D01*
X60970477Y27104533D01*
X61000523Y27104533D01*
X61003935Y27104124D01*
X61003936Y27104123D01*
X61092398Y27093500D01*
X61092401Y27093500D01*
X61278599Y27093500D01*
X61278602Y27093500D01*
X61367064Y27104123D01*
X61367064Y27104124D01*
X61370477Y27104533D01*
X61400523Y27104533D01*
X61403935Y27104124D01*
X61403936Y27104123D01*
X61492398Y27093500D01*
X61492401Y27093500D01*
X61617541Y27093500D01*
X61685662Y27073498D01*
X61732155Y27019842D01*
X61742259Y26949568D01*
X61724782Y26901353D01*
X61704785Y26868935D01*
X61649602Y26702404D01*
X61649600Y26702392D01*
X61639100Y26599618D01*
X61639100Y25974591D01*
X61649600Y25871803D01*
X61704785Y25705266D01*
X61796888Y25555944D01*
X61796893Y25555938D01*
X61889136Y25463695D01*
X61923162Y25401383D01*
X61918097Y25330568D01*
X61889136Y25285505D01*
X61796893Y25193263D01*
X61796888Y25193257D01*
X61704785Y25043935D01*
X61649602Y24877404D01*
X61649600Y24877392D01*
X61639100Y24774618D01*
X61639100Y24149591D01*
X61649600Y24046803D01*
X61704785Y23880266D01*
X61796888Y23730944D01*
X61796893Y23730938D01*
X61920937Y23606894D01*
X61920943Y23606889D01*
X61920944Y23606888D01*
X61961515Y23581864D01*
X62070265Y23514786D01*
X62236796Y23459603D01*
X62236797Y23459603D01*
X62236803Y23459601D01*
X62339591Y23449100D01*
X63339608Y23449101D01*
X63339609Y23449101D01*
X63442397Y23459601D01*
X63608934Y23514786D01*
X63662520Y23547838D01*
X63704965Y23574018D01*
X73260000Y23574018D01*
X73260000Y22973991D01*
X73270500Y22871203D01*
X73325685Y22704666D01*
X73417788Y22555344D01*
X73417793Y22555338D01*
X73541837Y22431294D01*
X73541844Y22431288D01*
X73541927Y22431237D01*
X73541971Y22431188D01*
X73547599Y22426738D01*
X73546838Y22425776D01*
X73589401Y22378448D01*
X73600800Y22308372D01*
X73572504Y22243258D01*
X73547403Y22221509D01*
X73547599Y22221262D01*
X73542115Y22216927D01*
X73541927Y22216763D01*
X73541844Y22216713D01*
X73541837Y22216707D01*
X73417793Y22092663D01*
X73417788Y22092657D01*
X73325685Y21943335D01*
X73270502Y21776804D01*
X73270500Y21776792D01*
X73260000Y21674018D01*
X73260000Y21073991D01*
X73270500Y20971203D01*
X73325685Y20804666D01*
X73417788Y20655344D01*
X73417792Y20655339D01*
X73541837Y20531294D01*
X73541843Y20531289D01*
X73541844Y20531288D01*
X73599063Y20495996D01*
X73691165Y20439186D01*
X73857696Y20384003D01*
X73857697Y20384003D01*
X73857703Y20384001D01*
X73960491Y20373500D01*
X75010508Y20373501D01*
X75010509Y20373501D01*
X75113297Y20384001D01*
X75279834Y20439186D01*
X75305774Y20455186D01*
X75429156Y20531288D01*
X75491183Y20593315D01*
X75553208Y20655339D01*
X75553209Y20655342D01*
X75553212Y20655344D01*
X75645314Y20804666D01*
X75700499Y20971203D01*
X75711000Y21073991D01*
X75710999Y21674008D01*
X75700499Y21776797D01*
X75645314Y21943334D01*
X75645314Y21943335D01*
X75574095Y22058799D01*
X75553212Y22092656D01*
X75553211Y22092657D01*
X75553206Y22092663D01*
X75429162Y22216707D01*
X75429153Y22216714D01*
X75429080Y22216759D01*
X75429040Y22216804D01*
X75423401Y22221262D01*
X75424162Y22222226D01*
X75381601Y22269544D01*
X75370198Y22339619D01*
X75398490Y22404735D01*
X75423597Y22426491D01*
X75423401Y22426738D01*
X75428911Y22431095D01*
X75429080Y22431241D01*
X75429089Y22431247D01*
X75429156Y22431288D01*
X75553212Y22555344D01*
X75645314Y22704666D01*
X75700499Y22871203D01*
X75711000Y22973991D01*
X75710999Y23574008D01*
X75701431Y23667669D01*
X75700499Y23676798D01*
X75645314Y23843335D01*
X75553211Y23992657D01*
X75553206Y23992663D01*
X75429162Y24116707D01*
X75429156Y24116712D01*
X75279834Y24208815D01*
X75113303Y24263998D01*
X75113291Y24264000D01*
X75010517Y24274500D01*
X73960490Y24274500D01*
X73857702Y24264000D01*
X73691165Y24208815D01*
X73541843Y24116712D01*
X73541837Y24116707D01*
X73417793Y23992663D01*
X73417788Y23992657D01*
X73325685Y23843335D01*
X73270502Y23676804D01*
X73270500Y23676792D01*
X73260000Y23574018D01*
X63704965Y23574018D01*
X63758256Y23606888D01*
X63882312Y23730944D01*
X63974414Y23880266D01*
X64029599Y24046803D01*
X64040100Y24149591D01*
X64040099Y24774608D01*
X64038352Y24791707D01*
X64029599Y24877398D01*
X63974414Y25043935D01*
X63882311Y25193257D01*
X63882306Y25193263D01*
X63790064Y25285505D01*
X63756038Y25347817D01*
X63761103Y25418632D01*
X63790064Y25463695D01*
X63882306Y25555938D01*
X63882312Y25555944D01*
X63974414Y25705266D01*
X64029599Y25871803D01*
X64040100Y25974591D01*
X64040099Y26599608D01*
X64038624Y26614044D01*
X64029599Y26702398D01*
X63974414Y26868935D01*
X63882311Y27018257D01*
X63882306Y27018263D01*
X63758262Y27142307D01*
X63758256Y27142312D01*
X63731680Y27158704D01*
X63684202Y27211490D01*
X63672799Y27281565D01*
X63697429Y27342079D01*
X63719861Y27371658D01*
X63775377Y27512436D01*
X63786000Y27600898D01*
X63786000Y27817500D01*
X63806002Y27885621D01*
X63856085Y27929018D01*
X68974000Y27929018D01*
X68974000Y26878991D01*
X68984500Y26776203D01*
X69039685Y26609666D01*
X69131788Y26460344D01*
X69131793Y26460338D01*
X69255837Y26336294D01*
X69255843Y26336289D01*
X69255844Y26336288D01*
X69262472Y26332200D01*
X69405165Y26244186D01*
X69571696Y26189003D01*
X69571697Y26189003D01*
X69571703Y26189001D01*
X69674491Y26178500D01*
X70274508Y26178501D01*
X70274509Y26178501D01*
X70377297Y26189001D01*
X70543834Y26244186D01*
X70565478Y26257536D01*
X70693156Y26336288D01*
X70817212Y26460344D01*
X70909314Y26609666D01*
X70964499Y26776203D01*
X70975000Y26878991D01*
X70974999Y27929008D01*
X70974612Y27932792D01*
X70972049Y27957879D01*
X79469500Y27957879D01*
X79469500Y23862136D01*
X79469502Y23862115D01*
X79475908Y23802520D01*
X79475908Y23802519D01*
X79526201Y23667674D01*
X79526203Y23667671D01*
X79612453Y23552454D01*
X79662772Y23514786D01*
X79727669Y23466204D01*
X79727671Y23466204D01*
X79727673Y23466202D01*
X79773527Y23449100D01*
X79862514Y23415910D01*
X79862517Y23415909D01*
X79922127Y23409500D01*
X84017872Y23409501D01*
X84077483Y23415909D01*
X84212331Y23466204D01*
X84327546Y23552454D01*
X84413796Y23667669D01*
X84464091Y23802517D01*
X84470500Y23862127D01*
X84470499Y27957872D01*
X84464091Y28017483D01*
X84432912Y28101078D01*
X84413798Y28152327D01*
X84413796Y28152330D01*
X84413796Y28152331D01*
X84361897Y28221659D01*
X84327546Y28267547D01*
X84239845Y28333199D01*
X84212331Y28353796D01*
X84212329Y28353797D01*
X84212326Y28353799D01*
X84077483Y28404091D01*
X84077486Y28404091D01*
X84017873Y28410500D01*
X79922135Y28410500D01*
X79922114Y28410498D01*
X79862519Y28404092D01*
X79862518Y28404092D01*
X79727673Y28353799D01*
X79727670Y28353797D01*
X79612453Y28267547D01*
X79526203Y28152330D01*
X79526201Y28152327D01*
X79475909Y28017485D01*
X79469500Y27957879D01*
X70972049Y27957879D01*
X70964499Y28031798D01*
X70909314Y28198335D01*
X70832606Y28322698D01*
X70817212Y28347656D01*
X70817211Y28347657D01*
X70817206Y28347663D01*
X70693162Y28471707D01*
X70693156Y28471712D01*
X70543834Y28563815D01*
X70377303Y28618998D01*
X70377291Y28619000D01*
X70274517Y28629500D01*
X69674490Y28629500D01*
X69571702Y28619000D01*
X69405165Y28563815D01*
X69255843Y28471712D01*
X69255837Y28471707D01*
X69131793Y28347663D01*
X69131788Y28347657D01*
X69039685Y28198335D01*
X68984502Y28031804D01*
X68984500Y28031792D01*
X68974000Y27929018D01*
X63856085Y27929018D01*
X63859658Y27932114D01*
X63912000Y27943500D01*
X64128599Y27943500D01*
X64128602Y27943500D01*
X64217064Y27954123D01*
X64357842Y28009639D01*
X64478422Y28101078D01*
X64569861Y28221658D01*
X64625377Y28362436D01*
X64636000Y28450898D01*
X64636000Y28637102D01*
X64625377Y28725564D01*
X64625376Y28725565D01*
X64624967Y28728977D01*
X64624967Y28759023D01*
X64625377Y28762436D01*
X64636000Y28850898D01*
X64636000Y29037102D01*
X64625377Y29125564D01*
X64625376Y29125565D01*
X64624967Y29128977D01*
X64624967Y29159023D01*
X64626864Y29174819D01*
X64636000Y29250898D01*
X64636000Y29437102D01*
X64625377Y29525564D01*
X64625376Y29525565D01*
X64624967Y29528977D01*
X64624967Y29559023D01*
X64625599Y29564288D01*
X64636000Y29650898D01*
X64636000Y29837102D01*
X64625377Y29925564D01*
X64625376Y29925565D01*
X64624967Y29928977D01*
X64624967Y29959023D01*
X64625377Y29962436D01*
X64636000Y30050898D01*
X64636000Y30237102D01*
X64625377Y30325564D01*
X64625376Y30325565D01*
X64624967Y30328977D01*
X64624967Y30359023D01*
X64626093Y30368401D01*
X64636000Y30450898D01*
X64636000Y30637102D01*
X64625377Y30725564D01*
X64625376Y30725565D01*
X64624967Y30728977D01*
X64624967Y30759023D01*
X64625571Y30764051D01*
X64636000Y30850898D01*
X64636000Y31037102D01*
X64625377Y31125564D01*
X64625376Y31125565D01*
X64624967Y31128977D01*
X64624967Y31159023D01*
X64625377Y31162436D01*
X64636000Y31250898D01*
X64636000Y31437102D01*
X64627370Y31508961D01*
X64625377Y31525565D01*
X64569861Y31666342D01*
X64569858Y31666346D01*
X64478422Y31786923D01*
X64357845Y31878359D01*
X64357841Y31878362D01*
X64217064Y31933878D01*
X64217065Y31933878D01*
X64128605Y31944500D01*
X64128602Y31944500D01*
X63912000Y31944500D01*
X63843879Y31964502D01*
X63797386Y32018158D01*
X63786000Y32070500D01*
X63786000Y32287099D01*
X63786000Y32287102D01*
X63775377Y32375564D01*
X63773334Y32380744D01*
X63719861Y32516342D01*
X63719858Y32516346D01*
X63628422Y32636923D01*
X63507845Y32728359D01*
X63507841Y32728362D01*
X63367064Y32783878D01*
X63367065Y32783878D01*
X63278605Y32794500D01*
X63278602Y32794500D01*
X63092398Y32794500D01*
X63092392Y32794500D01*
X63000522Y32783468D01*
X62970478Y32783468D01*
X62878607Y32794500D01*
X62878602Y32794500D01*
X62692398Y32794500D01*
X62692392Y32794500D01*
X62600522Y32783468D01*
X62570478Y32783468D01*
X62478607Y32794500D01*
X62478602Y32794500D01*
X62292398Y32794500D01*
X62292392Y32794500D01*
X62200522Y32783468D01*
X62170478Y32783468D01*
X62078607Y32794500D01*
X62078602Y32794500D01*
X61892398Y32794500D01*
X61892392Y32794500D01*
X61800522Y32783468D01*
X61770478Y32783468D01*
X61678607Y32794500D01*
X61678602Y32794500D01*
X61492398Y32794500D01*
X61492392Y32794500D01*
X61400522Y32783468D01*
X61370478Y32783468D01*
X61278607Y32794500D01*
X61278602Y32794500D01*
X61092398Y32794500D01*
X61092392Y32794500D01*
X61000522Y32783468D01*
X60970478Y32783468D01*
X60878607Y32794500D01*
X60878602Y32794500D01*
X60692398Y32794500D01*
X60692392Y32794500D01*
X60600522Y32783468D01*
X60570478Y32783468D01*
X60478607Y32794500D01*
X60478602Y32794500D01*
X60292398Y32794500D01*
X60292394Y32794500D01*
X60203935Y32783878D01*
X60063158Y32728362D01*
X60063154Y32728359D01*
X59942577Y32636923D01*
X59851141Y32516346D01*
X59851138Y32516342D01*
X59795622Y32375565D01*
X59785000Y32287106D01*
X59785000Y32070500D01*
X59764998Y32002379D01*
X59711342Y31955886D01*
X59659000Y31944500D01*
X59442394Y31944500D01*
X59353935Y31933878D01*
X59223321Y31882369D01*
X59152612Y31875986D01*
X59124755Y31884970D01*
X59019535Y31933023D01*
X58951423Y31953022D01*
X58951416Y31953024D01*
X58922932Y31957120D01*
X58809000Y31973500D01*
X55180500Y31973500D01*
X55180490Y31973500D01*
X55073054Y31961949D01*
X55073032Y31961945D01*
X55020719Y31950565D01*
X55020698Y31950559D01*
X54918165Y31916433D01*
X54918164Y31916433D01*
X54797124Y31838644D01*
X54746038Y31794378D01*
X54743819Y31792559D01*
X54649251Y31683418D01*
X54649249Y31683416D01*
X54649248Y31683415D01*
X54649248Y31683414D01*
X54593720Y31561823D01*
X54589477Y31552533D01*
X54569478Y31484424D01*
X54569476Y31484417D01*
X54569476Y31484415D01*
X54549361Y31344507D01*
X54549000Y31341997D01*
X54549000Y31235700D01*
X54528998Y31167579D01*
X54475342Y31121086D01*
X54423000Y31109700D01*
X53932590Y31109700D01*
X53829802Y31099200D01*
X53663265Y31044015D01*
X53513943Y30951912D01*
X53513937Y30951907D01*
X53389893Y30827863D01*
X53389888Y30827857D01*
X53297785Y30678535D01*
X53242602Y30512004D01*
X53242600Y30511992D01*
X53232100Y30409218D01*
X39077810Y30409218D01*
X39126814Y30488666D01*
X39181999Y30655203D01*
X39192500Y30757991D01*
X39192499Y31608008D01*
X39188740Y31644802D01*
X39181999Y31710798D01*
X39126814Y31877335D01*
X39049686Y32002379D01*
X39034712Y32026656D01*
X39034711Y32026657D01*
X39034706Y32026663D01*
X38910662Y32150707D01*
X38910653Y32150714D01*
X38910580Y32150759D01*
X38910540Y32150804D01*
X38904901Y32155262D01*
X38905662Y32156226D01*
X38863101Y32203544D01*
X38851698Y32273619D01*
X38879990Y32338735D01*
X38905097Y32360491D01*
X38904901Y32360738D01*
X38910411Y32365095D01*
X38910580Y32365241D01*
X38910589Y32365247D01*
X38910656Y32365288D01*
X39034712Y32489344D01*
X39126814Y32638666D01*
X39181999Y32805203D01*
X39192500Y32907991D01*
X39192499Y33758008D01*
X39191591Y33766892D01*
X39181999Y33860798D01*
X39126814Y34027335D01*
X39055338Y34143215D01*
X39034712Y34176656D01*
X39034711Y34176657D01*
X39034706Y34176663D01*
X38910662Y34300707D01*
X38910656Y34300712D01*
X38761334Y34392815D01*
X38594803Y34447998D01*
X38594791Y34448000D01*
X38492017Y34458500D01*
X36691990Y34458500D01*
X36589202Y34448000D01*
X36422665Y34392815D01*
X36273343Y34300712D01*
X36273337Y34300707D01*
X36149293Y34176663D01*
X36149288Y34176657D01*
X36057185Y34027335D01*
X36002002Y33860804D01*
X36002000Y33860792D01*
X35991500Y33758018D01*
X34096065Y33758018D01*
X34213697Y33796997D01*
X34358044Y33886032D01*
X34477968Y34005956D01*
X34567003Y34150303D01*
X34620349Y34311292D01*
X34630500Y34410655D01*
X34630499Y34825518D01*
X55732500Y34825518D01*
X55732500Y33825491D01*
X55743000Y33722703D01*
X55798185Y33556166D01*
X55890288Y33406844D01*
X55890293Y33406838D01*
X56014337Y33282794D01*
X56014343Y33282789D01*
X56014344Y33282788D01*
X56053571Y33258593D01*
X56163665Y33190686D01*
X56330196Y33135503D01*
X56330197Y33135503D01*
X56330203Y33135501D01*
X56432991Y33125000D01*
X57058008Y33125001D01*
X57058009Y33125001D01*
X57160797Y33135501D01*
X57327334Y33190686D01*
X57476656Y33282788D01*
X57517894Y33324026D01*
X57568905Y33375036D01*
X57631217Y33409062D01*
X57702032Y33403997D01*
X57747095Y33375036D01*
X57839337Y33282794D01*
X57839343Y33282789D01*
X57839344Y33282788D01*
X57878571Y33258593D01*
X57988665Y33190686D01*
X58155196Y33135503D01*
X58155197Y33135503D01*
X58155203Y33135501D01*
X58257991Y33125000D01*
X58883008Y33125001D01*
X58883009Y33125001D01*
X58985797Y33135501D01*
X59152334Y33190686D01*
X59301656Y33282788D01*
X59425712Y33406844D01*
X59517814Y33556166D01*
X59572999Y33722703D01*
X59583500Y33825491D01*
X59583500Y34025018D01*
X67074000Y34025018D01*
X67074000Y32974991D01*
X67084500Y32872203D01*
X67139685Y32705666D01*
X67231788Y32556344D01*
X67231793Y32556338D01*
X67355837Y32432294D01*
X67355843Y32432289D01*
X67355844Y32432288D01*
X67394020Y32408741D01*
X67505165Y32340186D01*
X67671696Y32285003D01*
X67671697Y32285003D01*
X67671703Y32285001D01*
X67774491Y32274500D01*
X68374508Y32274501D01*
X68374509Y32274501D01*
X68477297Y32285001D01*
X68643834Y32340186D01*
X68649207Y32343500D01*
X68793156Y32432288D01*
X68917212Y32556344D01*
X68917259Y32556420D01*
X68917303Y32556460D01*
X68921762Y32562099D01*
X68922725Y32561338D01*
X68970044Y32603899D01*
X69040119Y32615302D01*
X69105235Y32587010D01*
X69126990Y32561903D01*
X69127238Y32562099D01*
X69131594Y32556589D01*
X69131741Y32556420D01*
X69131786Y32556347D01*
X69131793Y32556338D01*
X69255837Y32432294D01*
X69255843Y32432289D01*
X69255844Y32432288D01*
X69294020Y32408741D01*
X69405165Y32340186D01*
X69571696Y32285003D01*
X69571697Y32285003D01*
X69571703Y32285001D01*
X69674491Y32274500D01*
X70274508Y32274501D01*
X70274509Y32274501D01*
X70377297Y32285001D01*
X70543834Y32340186D01*
X70549207Y32343500D01*
X70693156Y32432288D01*
X70817212Y32556344D01*
X70909314Y32705666D01*
X70964499Y32872203D01*
X70975000Y32974991D01*
X70974999Y33799418D01*
X74630100Y33799418D01*
X74630100Y32799391D01*
X74640600Y32696603D01*
X74695785Y32530066D01*
X74787888Y32380744D01*
X74787893Y32380738D01*
X74911937Y32256694D01*
X74911943Y32256689D01*
X74911944Y32256688D01*
X74961516Y32226112D01*
X75061265Y32164586D01*
X75227796Y32109403D01*
X75227797Y32109403D01*
X75227803Y32109401D01*
X75330591Y32098900D01*
X75955608Y32098901D01*
X75955609Y32098901D01*
X76058397Y32109401D01*
X76224934Y32164586D01*
X76374256Y32256688D01*
X76409570Y32292002D01*
X76466505Y32348936D01*
X76528817Y32382962D01*
X76599632Y32377897D01*
X76644695Y32348936D01*
X76736937Y32256694D01*
X76736943Y32256689D01*
X76736944Y32256688D01*
X76786516Y32226112D01*
X76886265Y32164586D01*
X77052796Y32109403D01*
X77052797Y32109403D01*
X77052803Y32109401D01*
X77155591Y32098900D01*
X77780608Y32098901D01*
X77780609Y32098901D01*
X77883397Y32109401D01*
X78049934Y32164586D01*
X78199256Y32256688D01*
X78323312Y32380744D01*
X78415414Y32530066D01*
X78470599Y32696603D01*
X78481100Y32799391D01*
X78481099Y33508418D01*
X78911100Y33508418D01*
X78911100Y32883391D01*
X78921600Y32780603D01*
X78976785Y32614066D01*
X79068888Y32464744D01*
X79068893Y32464738D01*
X79161136Y32372495D01*
X79195162Y32310183D01*
X79190097Y32239368D01*
X79161136Y32194305D01*
X79068893Y32102063D01*
X79068888Y32102057D01*
X78976785Y31952735D01*
X78921602Y31786204D01*
X78921600Y31786192D01*
X78911100Y31683418D01*
X78911100Y31058391D01*
X78921600Y30955603D01*
X78976785Y30789066D01*
X79068888Y30639744D01*
X79068893Y30639738D01*
X79192937Y30515694D01*
X79192943Y30515689D01*
X79192944Y30515688D01*
X79204147Y30508778D01*
X79342265Y30423586D01*
X79508796Y30368403D01*
X79508797Y30368403D01*
X79508803Y30368401D01*
X79611591Y30357900D01*
X80611608Y30357901D01*
X80611609Y30357901D01*
X80714397Y30368401D01*
X80880934Y30423586D01*
X81030256Y30515688D01*
X81154312Y30639744D01*
X81246414Y30789066D01*
X81301599Y30955603D01*
X81312100Y31058391D01*
X81312099Y31683408D01*
X81312098Y31683414D01*
X81301599Y31786198D01*
X81246414Y31952735D01*
X81173776Y32070500D01*
X81154312Y32102056D01*
X81154311Y32102057D01*
X81154306Y32102063D01*
X81062064Y32194305D01*
X81028038Y32256617D01*
X81033103Y32327432D01*
X81062064Y32372495D01*
X81154306Y32464738D01*
X81154312Y32464744D01*
X81246414Y32614066D01*
X81301599Y32780603D01*
X81312100Y32883391D01*
X81312099Y33508408D01*
X81307220Y33556166D01*
X81301599Y33611198D01*
X81246414Y33777735D01*
X81179612Y33886038D01*
X81154312Y33927056D01*
X81154311Y33927057D01*
X81154306Y33927063D01*
X81030262Y34051107D01*
X81030256Y34051112D01*
X80880934Y34143215D01*
X80714403Y34198398D01*
X80714391Y34198400D01*
X80611617Y34208900D01*
X79611590Y34208900D01*
X79508802Y34198400D01*
X79342265Y34143215D01*
X79192943Y34051112D01*
X79192937Y34051107D01*
X79068893Y33927063D01*
X79068888Y33927057D01*
X78976785Y33777735D01*
X78921602Y33611204D01*
X78921600Y33611192D01*
X78911100Y33508418D01*
X78481099Y33508418D01*
X78481099Y33799408D01*
X78478435Y33825483D01*
X78470599Y33902198D01*
X78415414Y34068735D01*
X78358604Y34160837D01*
X78323312Y34218056D01*
X78323311Y34218057D01*
X78323306Y34218063D01*
X78199262Y34342107D01*
X78199256Y34342112D01*
X78049934Y34434215D01*
X77883403Y34489398D01*
X77883391Y34489400D01*
X77780617Y34499900D01*
X77155590Y34499900D01*
X77052802Y34489400D01*
X76886265Y34434215D01*
X76736943Y34342112D01*
X76736937Y34342107D01*
X76644695Y34249864D01*
X76582383Y34215838D01*
X76511568Y34220903D01*
X76466505Y34249864D01*
X76374262Y34342107D01*
X76374256Y34342112D01*
X76224934Y34434215D01*
X76058403Y34489398D01*
X76058391Y34489400D01*
X75955617Y34499900D01*
X75330590Y34499900D01*
X75227802Y34489400D01*
X75061265Y34434215D01*
X74911943Y34342112D01*
X74911937Y34342107D01*
X74787893Y34218063D01*
X74787888Y34218057D01*
X74695785Y34068735D01*
X74640602Y33902204D01*
X74640600Y33902192D01*
X74630100Y33799418D01*
X70974999Y33799418D01*
X70974999Y34025008D01*
X70974761Y34027334D01*
X70964499Y34127798D01*
X70909314Y34294335D01*
X70823035Y34434215D01*
X70817212Y34443656D01*
X70817211Y34443657D01*
X70817206Y34443663D01*
X70693162Y34567707D01*
X70693156Y34567712D01*
X70543834Y34659815D01*
X70377303Y34714998D01*
X70377291Y34715000D01*
X70274517Y34725500D01*
X69674490Y34725500D01*
X69571702Y34715000D01*
X69405165Y34659815D01*
X69255843Y34567712D01*
X69255837Y34567707D01*
X69131793Y34443663D01*
X69131787Y34443656D01*
X69131737Y34443573D01*
X69131687Y34443529D01*
X69127238Y34437901D01*
X69126275Y34438662D01*
X69078948Y34396099D01*
X69008872Y34384700D01*
X68943758Y34412996D01*
X68922008Y34438097D01*
X68921762Y34437901D01*
X68917426Y34443385D01*
X68917263Y34443573D01*
X68917212Y34443656D01*
X68917206Y34443663D01*
X68793162Y34567707D01*
X68793156Y34567712D01*
X68643834Y34659815D01*
X68477303Y34714998D01*
X68477291Y34715000D01*
X68374517Y34725500D01*
X67774490Y34725500D01*
X67671702Y34715000D01*
X67505165Y34659815D01*
X67355843Y34567712D01*
X67355837Y34567707D01*
X67231793Y34443663D01*
X67231788Y34443657D01*
X67139685Y34294335D01*
X67084502Y34127804D01*
X67084500Y34127792D01*
X67074000Y34025018D01*
X59583500Y34025018D01*
X59583499Y34825508D01*
X59572999Y34928297D01*
X59570908Y34934609D01*
X59517814Y35094835D01*
X59425711Y35244157D01*
X59425706Y35244163D01*
X59301662Y35368207D01*
X59301656Y35368212D01*
X59152334Y35460315D01*
X58985803Y35515498D01*
X58985791Y35515500D01*
X58883017Y35526000D01*
X58257990Y35526000D01*
X58155202Y35515500D01*
X57988665Y35460315D01*
X57839343Y35368212D01*
X57839337Y35368207D01*
X57747095Y35275964D01*
X57684783Y35241938D01*
X57613968Y35247003D01*
X57568905Y35275964D01*
X57476662Y35368207D01*
X57476656Y35368212D01*
X57327334Y35460315D01*
X57160803Y35515498D01*
X57160791Y35515500D01*
X57058017Y35526000D01*
X56432990Y35526000D01*
X56330202Y35515500D01*
X56163665Y35460315D01*
X56014343Y35368212D01*
X56014337Y35368207D01*
X55890293Y35244163D01*
X55890288Y35244157D01*
X55798185Y35094835D01*
X55743002Y34928304D01*
X55743000Y34928292D01*
X55732500Y34825518D01*
X34630499Y34825518D01*
X34630499Y34957344D01*
X34627565Y34986062D01*
X34622637Y35034307D01*
X34620349Y35056708D01*
X34567003Y35217697D01*
X34477968Y35362044D01*
X34477967Y35362045D01*
X34477962Y35362051D01*
X34411285Y35428728D01*
X34377259Y35491040D01*
X34382324Y35561855D01*
X34411283Y35606916D01*
X34436712Y35632344D01*
X34528814Y35781666D01*
X34583999Y35948203D01*
X34594500Y36050991D01*
X34594499Y37101008D01*
X34593363Y37112124D01*
X34583999Y37203798D01*
X34528814Y37370335D01*
X34450480Y37497334D01*
X34436712Y37519656D01*
X34436711Y37519657D01*
X34436706Y37519663D01*
X34389964Y37566405D01*
X34355938Y37628717D01*
X34361003Y37699532D01*
X34389964Y37744595D01*
X34436706Y37791338D01*
X34436712Y37791344D01*
X34528814Y37940666D01*
X34583999Y38107203D01*
X34594500Y38209991D01*
X34594500Y38334418D01*
X60038900Y38334418D01*
X60038900Y37709391D01*
X60049400Y37606603D01*
X60104585Y37440066D01*
X60196688Y37290744D01*
X60196693Y37290738D01*
X60288936Y37198495D01*
X60322962Y37136183D01*
X60317897Y37065368D01*
X60288936Y37020305D01*
X60196693Y36928063D01*
X60196688Y36928057D01*
X60104585Y36778735D01*
X60049402Y36612204D01*
X60049400Y36612192D01*
X60038900Y36509418D01*
X60038900Y35884391D01*
X60049400Y35781603D01*
X60104585Y35615066D01*
X60196688Y35465744D01*
X60196693Y35465738D01*
X60320737Y35341694D01*
X60320743Y35341689D01*
X60320744Y35341688D01*
X60371073Y35310645D01*
X60470065Y35249586D01*
X60636596Y35194403D01*
X60636597Y35194403D01*
X60636603Y35194401D01*
X60739391Y35183900D01*
X61739408Y35183901D01*
X61739409Y35183901D01*
X61842197Y35194401D01*
X62008734Y35249586D01*
X62158056Y35341688D01*
X62282112Y35465744D01*
X62374214Y35615066D01*
X62429399Y35781603D01*
X62439900Y35884391D01*
X62439899Y36509408D01*
X62436106Y36546535D01*
X62429399Y36612198D01*
X62374214Y36778735D01*
X62282111Y36928057D01*
X62282106Y36928063D01*
X62189864Y37020305D01*
X62155838Y37082617D01*
X62160903Y37153432D01*
X62189864Y37198495D01*
X62282106Y37290738D01*
X62282112Y37290744D01*
X62374214Y37440066D01*
X62429399Y37606603D01*
X62439900Y37709391D01*
X62439899Y38334408D01*
X62436520Y38367482D01*
X62429399Y38437198D01*
X62374214Y38603735D01*
X62306493Y38713528D01*
X62282112Y38753056D01*
X62282111Y38753057D01*
X62282106Y38753063D01*
X62158062Y38877107D01*
X62158056Y38877112D01*
X62094788Y38916136D01*
X62047310Y38968922D01*
X62035907Y39038997D01*
X62064200Y39104113D01*
X62071840Y39112473D01*
X62074053Y39114687D01*
X62074056Y39114688D01*
X62166305Y39206937D01*
X62228617Y39240962D01*
X62299433Y39235896D01*
X62344495Y39206936D01*
X62436737Y39114694D01*
X62436743Y39114689D01*
X62436744Y39114688D01*
X62453889Y39104113D01*
X62586065Y39022586D01*
X62752596Y38967403D01*
X62752597Y38967403D01*
X62752603Y38967401D01*
X62855391Y38956900D01*
X63480408Y38956901D01*
X63480409Y38956901D01*
X63583197Y38967401D01*
X63749734Y39022586D01*
X63752673Y39024399D01*
X63899056Y39114688D01*
X64023112Y39238744D01*
X64115214Y39388066D01*
X64170399Y39554603D01*
X64180900Y39657391D01*
X64180899Y40657408D01*
X64170399Y40760197D01*
X64165715Y40774334D01*
X64115214Y40926735D01*
X64040598Y41047707D01*
X64023112Y41076056D01*
X64023111Y41076057D01*
X64023106Y41076063D01*
X63899062Y41200107D01*
X63899056Y41200112D01*
X63749734Y41292215D01*
X63583203Y41347398D01*
X63583191Y41347400D01*
X63480417Y41357900D01*
X62855390Y41357900D01*
X62752602Y41347400D01*
X62586065Y41292215D01*
X62436743Y41200112D01*
X62436737Y41200107D01*
X62344495Y41107864D01*
X62282183Y41073838D01*
X62211368Y41078903D01*
X62166305Y41107864D01*
X62074062Y41200107D01*
X62074056Y41200112D01*
X61924734Y41292215D01*
X61758203Y41347398D01*
X61758191Y41347400D01*
X61655417Y41357900D01*
X61030390Y41357900D01*
X60927602Y41347400D01*
X60761065Y41292215D01*
X60611743Y41200112D01*
X60611737Y41200107D01*
X60487693Y41076063D01*
X60487688Y41076057D01*
X60395585Y40926735D01*
X60340402Y40760204D01*
X60340400Y40760192D01*
X60329900Y40657418D01*
X60329900Y39657391D01*
X60340400Y39554603D01*
X60395585Y39388066D01*
X60487688Y39238744D01*
X60487693Y39238738D01*
X60541302Y39185129D01*
X60575328Y39122817D01*
X60570263Y39052002D01*
X60527716Y38995166D01*
X60491842Y38976430D01*
X60470063Y38969213D01*
X60320743Y38877112D01*
X60320737Y38877107D01*
X60196693Y38753063D01*
X60196688Y38753057D01*
X60104585Y38603735D01*
X60049402Y38437204D01*
X60049400Y38437192D01*
X60038900Y38334418D01*
X34594500Y38334418D01*
X34594499Y39260008D01*
X34588814Y39315657D01*
X34583999Y39362798D01*
X34528814Y39529335D01*
X34449828Y39657391D01*
X34436712Y39678656D01*
X34436711Y39678657D01*
X34436706Y39678663D01*
X34389964Y39725405D01*
X34355938Y39787717D01*
X34361003Y39858532D01*
X34389964Y39903595D01*
X34436706Y39950338D01*
X34436712Y39950344D01*
X34528814Y40099666D01*
X34583999Y40266203D01*
X34594500Y40368991D01*
X34594499Y41419008D01*
X34588814Y41474657D01*
X34583999Y41521798D01*
X34528814Y41688335D01*
X34472004Y41780437D01*
X34436712Y41837656D01*
X34436711Y41837657D01*
X34436706Y41837663D01*
X34312662Y41961707D01*
X34312656Y41961712D01*
X34163334Y42053815D01*
X33996803Y42108998D01*
X33996791Y42109000D01*
X33894017Y42119500D01*
X33293990Y42119500D01*
X33191202Y42109000D01*
X33024665Y42053815D01*
X32875343Y41961712D01*
X32875337Y41961707D01*
X32751293Y41837663D01*
X32751288Y41837657D01*
X32659185Y41688335D01*
X32604002Y41521804D01*
X32604000Y41521792D01*
X32593500Y41419018D01*
X28509030Y41419018D01*
X28474711Y41474657D01*
X28474706Y41474663D01*
X28382464Y41566905D01*
X28348438Y41629217D01*
X28353503Y41700032D01*
X28382464Y41745095D01*
X28474706Y41837338D01*
X28474712Y41837344D01*
X28566814Y41986666D01*
X28621999Y42153203D01*
X28632500Y42255991D01*
X28632499Y42881008D01*
X28629017Y42915091D01*
X28621999Y42983798D01*
X28566814Y43150335D01*
X28474711Y43299657D01*
X28474706Y43299663D01*
X28350662Y43423707D01*
X28350656Y43423712D01*
X28201334Y43515815D01*
X28034803Y43570998D01*
X28034791Y43571000D01*
X27932017Y43581500D01*
X26931990Y43581500D01*
X26829202Y43571000D01*
X26662665Y43515815D01*
X26513343Y43423712D01*
X26513337Y43423707D01*
X26389293Y43299663D01*
X26389288Y43299657D01*
X26297185Y43150335D01*
X26242002Y42983804D01*
X26242000Y42983792D01*
X26231500Y42881018D01*
X24985937Y42881018D01*
X24885203Y42914398D01*
X24885191Y42914400D01*
X24782417Y42924900D01*
X23782390Y42924900D01*
X23679602Y42914400D01*
X23513065Y42859215D01*
X23363743Y42767112D01*
X23363737Y42767107D01*
X23239693Y42643063D01*
X23239688Y42643057D01*
X23147585Y42493735D01*
X23092402Y42327204D01*
X23092400Y42327192D01*
X23081900Y42224418D01*
X23081900Y41599391D01*
X23092400Y41496609D01*
X23092401Y41496603D01*
X23137903Y41359288D01*
X23137971Y41359083D01*
X23140411Y41288128D01*
X23104103Y41227118D01*
X23040574Y41195423D01*
X23004815Y41196027D01*
X23004639Y41194300D01*
X22895017Y41205500D01*
X22269990Y41205500D01*
X22167202Y41195000D01*
X22000665Y41139815D01*
X21851343Y41047712D01*
X21851337Y41047707D01*
X21727293Y40923663D01*
X21727288Y40923657D01*
X21635185Y40774335D01*
X21580002Y40607804D01*
X21580000Y40607792D01*
X21569500Y40505018D01*
X12452465Y40505018D01*
X12552447Y40605000D01*
X11809552Y40605000D01*
X5344500Y40605000D01*
X5344500Y47257879D01*
X6969500Y47257879D01*
X6969500Y43162136D01*
X6969502Y43162115D01*
X6975908Y43102520D01*
X6975908Y43102519D01*
X7026201Y42967674D01*
X7026203Y42967671D01*
X7112453Y42852454D01*
X7170061Y42809329D01*
X7227669Y42766204D01*
X7227671Y42766204D01*
X7227673Y42766202D01*
X7288030Y42743691D01*
X7362514Y42715910D01*
X7362517Y42715909D01*
X7422127Y42709500D01*
X11517872Y42709501D01*
X11577483Y42715909D01*
X11712331Y42766204D01*
X11827546Y42852454D01*
X11913796Y42967669D01*
X11919810Y42983792D01*
X11942531Y43044712D01*
X11964091Y43102517D01*
X11970500Y43162127D01*
X11970499Y43774459D01*
X11990501Y43842579D01*
X12044157Y43889072D01*
X12114430Y43899176D01*
X12136132Y43894062D01*
X12286596Y43844203D01*
X12286597Y43844203D01*
X12286603Y43844201D01*
X12389391Y43833700D01*
X13014408Y43833701D01*
X13014409Y43833701D01*
X13117197Y43844201D01*
X13283734Y43899386D01*
X13329037Y43927329D01*
X13433056Y43991488D01*
X13477136Y44035568D01*
X13525305Y44083736D01*
X13587617Y44117762D01*
X13658432Y44112697D01*
X13703495Y44083736D01*
X13795737Y43991494D01*
X13795743Y43991489D01*
X13795744Y43991488D01*
X13822464Y43975007D01*
X13945065Y43899386D01*
X14111596Y43844203D01*
X14111597Y43844203D01*
X14111603Y43844201D01*
X14214391Y43833700D01*
X14839408Y43833701D01*
X14839409Y43833701D01*
X14942197Y43844201D01*
X15108734Y43899386D01*
X15154037Y43927329D01*
X15258056Y43991488D01*
X15382112Y44115544D01*
X15474214Y44264866D01*
X15529399Y44431403D01*
X15539900Y44534191D01*
X15539899Y45534208D01*
X15537438Y45558295D01*
X15529399Y45636998D01*
X15474214Y45803535D01*
X15382111Y45952857D01*
X15382106Y45952863D01*
X15258062Y46076907D01*
X15258056Y46076912D01*
X15108734Y46169015D01*
X14942203Y46224198D01*
X14942191Y46224200D01*
X14839417Y46234700D01*
X14214390Y46234700D01*
X14111602Y46224200D01*
X13945065Y46169015D01*
X13795743Y46076912D01*
X13795737Y46076907D01*
X13703495Y45984664D01*
X13641183Y45950638D01*
X13570368Y45955703D01*
X13525305Y45984664D01*
X13433062Y46076907D01*
X13433056Y46076912D01*
X13283734Y46169015D01*
X13117203Y46224198D01*
X13117191Y46224200D01*
X13014417Y46234700D01*
X12389390Y46234700D01*
X12286605Y46224200D01*
X12136131Y46174338D01*
X12065177Y46171898D01*
X12004167Y46208207D01*
X11972471Y46271736D01*
X11970499Y46293943D01*
X11970499Y47257865D01*
X11970499Y47257872D01*
X11964091Y47317483D01*
X11942800Y47374565D01*
X11913798Y47452327D01*
X11913796Y47452330D01*
X11913796Y47452331D01*
X11870671Y47509939D01*
X11827546Y47567547D01*
X11750591Y47625155D01*
X11712331Y47653796D01*
X11712329Y47653797D01*
X11712326Y47653799D01*
X11577483Y47704091D01*
X11577486Y47704091D01*
X11522542Y47709998D01*
X38091500Y47709998D01*
X38091500Y47110006D01*
X38096644Y47038064D01*
X38096645Y47038060D01*
X38137181Y46900008D01*
X38214969Y46778968D01*
X38323706Y46684746D01*
X38454584Y46624976D01*
X38597000Y46604500D01*
X38720500Y46604500D01*
X38788621Y46584498D01*
X38835114Y46530842D01*
X38846500Y46478500D01*
X38846500Y45916500D01*
X38826498Y45848379D01*
X38772842Y45801886D01*
X38720500Y45790500D01*
X38597000Y45790500D01*
X38571588Y45788683D01*
X38525063Y45785356D01*
X38525055Y45785354D01*
X38387008Y45744819D01*
X38387006Y45744818D01*
X38265968Y45667032D01*
X38171746Y45558295D01*
X38111976Y45427417D01*
X38091500Y45284998D01*
X38091500Y44685006D01*
X38096644Y44613064D01*
X38096645Y44613060D01*
X38137181Y44475008D01*
X38165204Y44431403D01*
X38195765Y44383849D01*
X38214969Y44353968D01*
X38323706Y44259746D01*
X38454584Y44199976D01*
X38597000Y44179500D01*
X38685261Y44179500D01*
X38753382Y44159498D01*
X38799875Y44105842D01*
X38809979Y44035568D01*
X38786129Y43977991D01*
X38748203Y43927329D01*
X38748201Y43927326D01*
X38697909Y43792484D01*
X38691500Y43732878D01*
X38691500Y42367135D01*
X38691502Y42367114D01*
X38697908Y42307519D01*
X38697908Y42307518D01*
X38748201Y42172673D01*
X38748203Y42172670D01*
X38834453Y42057453D01*
X38892061Y42014328D01*
X38949669Y41971203D01*
X38949671Y41971203D01*
X38949673Y41971201D01*
X39010030Y41948690D01*
X39084514Y41920909D01*
X39084517Y41920908D01*
X39144127Y41914499D01*
X39849872Y41914500D01*
X39909483Y41920908D01*
X40044331Y41971203D01*
X40056487Y41980304D01*
X40123005Y42005118D01*
X40192380Y41990030D01*
X40207509Y41980307D01*
X40213826Y41975578D01*
X40219670Y41971203D01*
X40287093Y41946057D01*
X40354514Y41920910D01*
X40354517Y41920909D01*
X40414127Y41914500D01*
X41119872Y41914501D01*
X41179483Y41920909D01*
X41314331Y41971204D01*
X41326490Y41980307D01*
X41393009Y42005118D01*
X41462383Y41990028D01*
X41477507Y41980309D01*
X41489669Y41971204D01*
X41624517Y41920909D01*
X41684127Y41914500D01*
X42389872Y41914501D01*
X42449483Y41920909D01*
X42584331Y41971204D01*
X42596487Y41980305D01*
X42663005Y42005118D01*
X42732380Y41990029D01*
X42747505Y41980309D01*
X42759669Y41971203D01*
X42759671Y41971203D01*
X42759673Y41971201D01*
X42820030Y41948690D01*
X42894514Y41920909D01*
X42894517Y41920908D01*
X42954127Y41914499D01*
X43659872Y41914500D01*
X43719483Y41920908D01*
X43854331Y41971203D01*
X43969546Y42057453D01*
X44055796Y42172668D01*
X44106091Y42307516D01*
X44112500Y42367126D01*
X44112500Y42502018D01*
X50781000Y42502018D01*
X50781000Y41901991D01*
X50791500Y41799203D01*
X50846685Y41632666D01*
X50938788Y41483344D01*
X50938793Y41483338D01*
X51062837Y41359294D01*
X51062843Y41359289D01*
X51062844Y41359288D01*
X51082121Y41347398D01*
X51212165Y41267186D01*
X51378696Y41212003D01*
X51378697Y41212003D01*
X51378703Y41212001D01*
X51481491Y41201500D01*
X52531508Y41201501D01*
X52531509Y41201501D01*
X52634297Y41212001D01*
X52800834Y41267186D01*
X52950156Y41359288D01*
X53074212Y41483344D01*
X53166314Y41632666D01*
X53221499Y41799203D01*
X53232000Y41901991D01*
X53231999Y42502008D01*
X53221499Y42604797D01*
X53208822Y42643056D01*
X53166314Y42771335D01*
X53078071Y42914399D01*
X53074212Y42920656D01*
X53074211Y42920657D01*
X53074206Y42920663D01*
X52950162Y43044707D01*
X52950156Y43044712D01*
X52800834Y43136815D01*
X52634303Y43191998D01*
X52634291Y43192000D01*
X52531517Y43202500D01*
X51481490Y43202500D01*
X51378702Y43192000D01*
X51212165Y43136815D01*
X51062843Y43044712D01*
X51062837Y43044707D01*
X50938793Y42920663D01*
X50938788Y42920657D01*
X50846685Y42771335D01*
X50791502Y42604804D01*
X50791500Y42604792D01*
X50781000Y42502018D01*
X44112500Y42502018D01*
X44112499Y43732871D01*
X44106091Y43792482D01*
X44083158Y43853969D01*
X44055798Y43927326D01*
X44055796Y43927329D01*
X44055796Y43927330D01*
X44017870Y43977992D01*
X43993060Y44044511D01*
X44008151Y44113885D01*
X44058353Y44164087D01*
X44118739Y44179500D01*
X44206994Y44179500D01*
X44207000Y44179500D01*
X44278940Y44184645D01*
X44416992Y44225181D01*
X44538032Y44302969D01*
X44632254Y44411706D01*
X44692024Y44542584D01*
X44712500Y44685000D01*
X44712500Y45285000D01*
X44707355Y45356940D01*
X44666819Y45494992D01*
X44589031Y45616032D01*
X44480294Y45710254D01*
X44349416Y45770024D01*
X44207000Y45790500D01*
X44206997Y45790500D01*
X44083500Y45790500D01*
X44015379Y45810502D01*
X43968886Y45864158D01*
X43957500Y45916500D01*
X43957500Y46478500D01*
X43977502Y46546621D01*
X44031158Y46593114D01*
X44083500Y46604500D01*
X44206994Y46604500D01*
X44207000Y46604500D01*
X44278940Y46609645D01*
X44416992Y46650181D01*
X44538032Y46727969D01*
X44632254Y46836706D01*
X44692024Y46967584D01*
X44712500Y47110000D01*
X44712500Y47710000D01*
X44707355Y47781940D01*
X44666819Y47919992D01*
X44589031Y48041032D01*
X44480294Y48135254D01*
X44349416Y48195024D01*
X44225566Y48212831D01*
X44160988Y48242324D01*
X44122604Y48302050D01*
X44117500Y48337548D01*
X44117500Y49024995D01*
X44112355Y49096937D01*
X44112355Y49096940D01*
X44071819Y49234992D01*
X44063537Y49247879D01*
X53598500Y49247879D01*
X53598500Y48542136D01*
X53598502Y48542115D01*
X53604908Y48482520D01*
X53604908Y48482519D01*
X53655203Y48347670D01*
X53664307Y48335508D01*
X53689117Y48268988D01*
X53674025Y48199614D01*
X53664307Y48184492D01*
X53655203Y48172331D01*
X53604909Y48037485D01*
X53598500Y47977879D01*
X53598500Y47272136D01*
X53598502Y47272115D01*
X53604908Y47212520D01*
X53604908Y47212519D01*
X53655203Y47077670D01*
X53664307Y47065508D01*
X53689117Y46998988D01*
X53674025Y46929614D01*
X53664307Y46914492D01*
X53655203Y46902331D01*
X53604909Y46767485D01*
X53598500Y46707879D01*
X53598500Y46002136D01*
X53598502Y46002115D01*
X53604908Y45942520D01*
X53604908Y45942519D01*
X53655203Y45807670D01*
X53664307Y45795508D01*
X53689117Y45728988D01*
X53674025Y45659614D01*
X53664307Y45644492D01*
X53655203Y45632331D01*
X53604909Y45497485D01*
X53598500Y45437879D01*
X53598500Y44732136D01*
X53598502Y44732115D01*
X53604908Y44672520D01*
X53604908Y44672519D01*
X53655201Y44537674D01*
X53655203Y44537671D01*
X53741453Y44422454D01*
X53799061Y44379329D01*
X53856669Y44336204D01*
X53856671Y44336204D01*
X53856673Y44336202D01*
X53899626Y44320182D01*
X53991514Y44285910D01*
X53991517Y44285909D01*
X54051127Y44279500D01*
X55416872Y44279501D01*
X55476483Y44285909D01*
X55611331Y44336204D01*
X55661991Y44374129D01*
X55728510Y44398940D01*
X55797884Y44383849D01*
X55848087Y44333648D01*
X55863500Y44273261D01*
X55863500Y44185000D01*
X55864289Y44173968D01*
X55868644Y44113064D01*
X55868646Y44113056D01*
X55870764Y44105842D01*
X55909181Y43975008D01*
X55948075Y43914488D01*
X55957780Y43899386D01*
X55986969Y43853968D01*
X56095706Y43759746D01*
X56226584Y43699976D01*
X56369000Y43679500D01*
X56369003Y43679500D01*
X56968994Y43679500D01*
X56969000Y43679500D01*
X57040940Y43684645D01*
X57178992Y43725181D01*
X57300032Y43802969D01*
X57394254Y43911706D01*
X57454024Y44042584D01*
X57474500Y44185000D01*
X57474500Y44308500D01*
X57494502Y44376621D01*
X57548158Y44423114D01*
X57600500Y44434500D01*
X58162500Y44434500D01*
X58230621Y44414498D01*
X58277114Y44360842D01*
X58288500Y44308500D01*
X58288500Y44185000D01*
X58289289Y44173968D01*
X58293644Y44113064D01*
X58293646Y44113056D01*
X58295764Y44105842D01*
X58334181Y43975008D01*
X58373075Y43914488D01*
X58382780Y43899386D01*
X58411969Y43853968D01*
X58520706Y43759746D01*
X58651584Y43699976D01*
X58794000Y43679500D01*
X58794003Y43679500D01*
X59393994Y43679500D01*
X59394000Y43679500D01*
X59465940Y43684645D01*
X59603992Y43725181D01*
X59725032Y43802969D01*
X59819254Y43911706D01*
X59879024Y44042584D01*
X59896830Y44166434D01*
X59926324Y44231012D01*
X59986050Y44269396D01*
X60021548Y44274500D01*
X60708994Y44274500D01*
X60709000Y44274500D01*
X60780940Y44279645D01*
X60918992Y44320181D01*
X61040032Y44397969D01*
X61134254Y44506706D01*
X61194024Y44637584D01*
X61214500Y44780000D01*
X61214500Y45390000D01*
X61209355Y45461940D01*
X61168819Y45599992D01*
X61168817Y45599995D01*
X61168817Y45599996D01*
X61138532Y45647119D01*
X61118529Y45715240D01*
X61133736Y45767035D01*
X61130510Y45768508D01*
X61138204Y45785356D01*
X61194024Y45907584D01*
X61214500Y46050000D01*
X61214500Y46660000D01*
X61209355Y46731940D01*
X61168819Y46869992D01*
X61168817Y46869995D01*
X61168817Y46869996D01*
X61138532Y46917119D01*
X61118529Y46985240D01*
X61133736Y47037035D01*
X61130510Y47038508D01*
X61134254Y47046706D01*
X61194024Y47177584D01*
X61205568Y47257879D01*
X79469500Y47257879D01*
X79469500Y43162136D01*
X79469502Y43162115D01*
X79475908Y43102520D01*
X79475908Y43102519D01*
X79526201Y42967674D01*
X79526203Y42967671D01*
X79612453Y42852454D01*
X79670061Y42809329D01*
X79727669Y42766204D01*
X79727671Y42766204D01*
X79727673Y42766202D01*
X79788030Y42743691D01*
X79862514Y42715910D01*
X79862517Y42715909D01*
X79922127Y42709500D01*
X84017872Y42709501D01*
X84077483Y42715909D01*
X84212331Y42766204D01*
X84327546Y42852454D01*
X84413796Y42967669D01*
X84419810Y42983792D01*
X84442531Y43044712D01*
X84464091Y43102517D01*
X84470500Y43162127D01*
X84470499Y47257872D01*
X84464091Y47317483D01*
X84442800Y47374565D01*
X84413798Y47452327D01*
X84413796Y47452330D01*
X84413796Y47452331D01*
X84370671Y47509939D01*
X84327546Y47567547D01*
X84250591Y47625155D01*
X84212331Y47653796D01*
X84212329Y47653797D01*
X84212326Y47653799D01*
X84077483Y47704091D01*
X84077486Y47704091D01*
X84017873Y47710500D01*
X79922135Y47710500D01*
X79922114Y47710498D01*
X79862519Y47704092D01*
X79862518Y47704092D01*
X79727673Y47653799D01*
X79727670Y47653797D01*
X79612453Y47567547D01*
X79526203Y47452330D01*
X79526201Y47452327D01*
X79475909Y47317485D01*
X79469500Y47257879D01*
X61205568Y47257879D01*
X61214500Y47320000D01*
X61214500Y47930000D01*
X61209355Y48001940D01*
X61168819Y48139992D01*
X61168817Y48139995D01*
X61168817Y48139996D01*
X61138532Y48187119D01*
X61118529Y48255240D01*
X61133736Y48307035D01*
X61130510Y48308508D01*
X61134254Y48316706D01*
X61194024Y48447584D01*
X61214500Y48590000D01*
X61214500Y49200000D01*
X61209355Y49271940D01*
X61168819Y49409992D01*
X61091031Y49531032D01*
X60982294Y49625254D01*
X60851416Y49685024D01*
X60709000Y49705500D01*
X60708997Y49705500D01*
X60023211Y49705500D01*
X59955090Y49725502D01*
X59908597Y49779158D01*
X59897532Y49822512D01*
X59894355Y49866937D01*
X59894355Y49866940D01*
X59853819Y50004992D01*
X59776031Y50126032D01*
X59667294Y50220254D01*
X59536416Y50280024D01*
X59394000Y50300500D01*
X58794000Y50300500D01*
X58768588Y50298683D01*
X58722063Y50295356D01*
X58722055Y50295354D01*
X58584008Y50254819D01*
X58584006Y50254818D01*
X58462968Y50177032D01*
X58368746Y50068295D01*
X58308976Y49937417D01*
X58288500Y49794998D01*
X58288500Y49671500D01*
X58268498Y49603379D01*
X58214842Y49556886D01*
X58162500Y49545500D01*
X57600500Y49545500D01*
X57532379Y49565502D01*
X57485886Y49619158D01*
X57474500Y49671500D01*
X57474500Y49794995D01*
X57469355Y49866937D01*
X57469355Y49866940D01*
X57428819Y50004992D01*
X57351031Y50126032D01*
X57242294Y50220254D01*
X57111416Y50280024D01*
X56969000Y50300500D01*
X56369000Y50300500D01*
X56343588Y50298683D01*
X56297063Y50295356D01*
X56297055Y50295354D01*
X56159008Y50254819D01*
X56159006Y50254818D01*
X56037968Y50177032D01*
X55943746Y50068295D01*
X55883976Y49937417D01*
X55863500Y49794998D01*
X55863500Y49706740D01*
X55843498Y49638619D01*
X55789842Y49592126D01*
X55719568Y49582022D01*
X55661991Y49605872D01*
X55636100Y49625254D01*
X55611331Y49643796D01*
X55611329Y49643797D01*
X55611326Y49643799D01*
X55476483Y49694091D01*
X55476486Y49694091D01*
X55416873Y49700500D01*
X54051135Y49700500D01*
X54051114Y49700498D01*
X53991519Y49694092D01*
X53991518Y49694092D01*
X53856673Y49643799D01*
X53856670Y49643797D01*
X53741453Y49557547D01*
X53655203Y49442330D01*
X53655201Y49442327D01*
X53604909Y49307485D01*
X53598500Y49247879D01*
X44063537Y49247879D01*
X43994031Y49356032D01*
X43885294Y49450254D01*
X43754416Y49510024D01*
X43612000Y49530500D01*
X43002000Y49530500D01*
X42976588Y49528683D01*
X42930063Y49525356D01*
X42930055Y49525354D01*
X42792008Y49484819D01*
X42792002Y49484817D01*
X42744879Y49454532D01*
X42676758Y49434530D01*
X42624962Y49449730D01*
X42623492Y49446510D01*
X42484416Y49510024D01*
X42342000Y49530500D01*
X41732000Y49530500D01*
X41706588Y49528683D01*
X41660063Y49525356D01*
X41660055Y49525354D01*
X41522008Y49484819D01*
X41522002Y49484817D01*
X41474879Y49454532D01*
X41406758Y49434530D01*
X41354962Y49449730D01*
X41353492Y49446510D01*
X41214416Y49510024D01*
X41072000Y49530500D01*
X40462000Y49530500D01*
X40436588Y49528683D01*
X40390063Y49525356D01*
X40390055Y49525354D01*
X40252008Y49484819D01*
X40252002Y49484817D01*
X40204879Y49454532D01*
X40136758Y49434530D01*
X40084962Y49449730D01*
X40083492Y49446510D01*
X39944416Y49510024D01*
X39802000Y49530500D01*
X39192000Y49530500D01*
X39166588Y49528683D01*
X39120063Y49525356D01*
X39120055Y49525354D01*
X38982008Y49484819D01*
X38982006Y49484818D01*
X38860968Y49407032D01*
X38766746Y49298295D01*
X38721857Y49200000D01*
X38706976Y49167416D01*
X38693977Y49077001D01*
X38686500Y49024998D01*
X38686500Y48339212D01*
X38666498Y48271091D01*
X38612842Y48224598D01*
X38569490Y48213533D01*
X38535629Y48211111D01*
X38525060Y48210355D01*
X38525058Y48210355D01*
X38525055Y48210354D01*
X38387008Y48169819D01*
X38387006Y48169818D01*
X38265968Y48092032D01*
X38171746Y47983295D01*
X38111976Y47852417D01*
X38091500Y47709998D01*
X11522542Y47709998D01*
X11517873Y47710500D01*
X7422135Y47710500D01*
X7422114Y47710498D01*
X7362519Y47704092D01*
X7362518Y47704092D01*
X7227673Y47653799D01*
X7227670Y47653797D01*
X7112453Y47567547D01*
X7026203Y47452330D01*
X7026201Y47452327D01*
X6975909Y47317485D01*
X6969500Y47257879D01*
X5344500Y47257879D01*
X5344500Y52899818D01*
X19487100Y52899818D01*
X19487100Y51849791D01*
X19497600Y51747003D01*
X19552785Y51580466D01*
X19644888Y51431144D01*
X19666236Y51409796D01*
X19700261Y51347487D01*
X19695197Y51276671D01*
X19673322Y51242615D01*
X19674841Y51241414D01*
X19670288Y51235657D01*
X19578185Y51086335D01*
X19523002Y50919804D01*
X19523000Y50919792D01*
X19512500Y50817018D01*
X19512500Y49766991D01*
X19523000Y49664203D01*
X19578185Y49497666D01*
X19670288Y49348344D01*
X19670293Y49348338D01*
X19794337Y49224294D01*
X19794343Y49224289D01*
X19794344Y49224288D01*
X19851563Y49188996D01*
X19943665Y49132186D01*
X20110196Y49077003D01*
X20110197Y49077003D01*
X20110203Y49077001D01*
X20212991Y49066500D01*
X20813008Y49066501D01*
X20813009Y49066501D01*
X20915797Y49077001D01*
X21082334Y49132186D01*
X21139451Y49167416D01*
X21231656Y49224288D01*
X21355712Y49348344D01*
X21447814Y49497666D01*
X21502999Y49664203D01*
X21513500Y49766991D01*
X21513499Y50817008D01*
X21502999Y50919797D01*
X21447814Y51086334D01*
X21447814Y51086335D01*
X21355711Y51235657D01*
X21348753Y51242615D01*
X21334362Y51257006D01*
X21300338Y51319314D01*
X21305402Y51390130D01*
X21327290Y51424175D01*
X21325759Y51425386D01*
X21330307Y51431140D01*
X21330312Y51431144D01*
X21422414Y51580466D01*
X21477599Y51747003D01*
X21488100Y51849791D01*
X21488099Y52899808D01*
X21477599Y53002597D01*
X21422414Y53169134D01*
X21422414Y53169135D01*
X21330311Y53318457D01*
X21330306Y53318463D01*
X21206262Y53442507D01*
X21206256Y53442512D01*
X21056934Y53534615D01*
X20890403Y53589798D01*
X20890391Y53589800D01*
X20787617Y53600300D01*
X20187590Y53600300D01*
X20084802Y53589800D01*
X19918265Y53534615D01*
X19768943Y53442512D01*
X19768937Y53442507D01*
X19644893Y53318463D01*
X19644888Y53318457D01*
X19552785Y53169135D01*
X19497602Y53002604D01*
X19497600Y53002592D01*
X19487100Y52899818D01*
X5344500Y52899818D01*
X5344500Y59768879D01*
X16720701Y59768879D01*
X16720701Y55863136D01*
X16720703Y55863115D01*
X16727109Y55803520D01*
X16727109Y55803519D01*
X16777402Y55668674D01*
X16777404Y55668671D01*
X16863654Y55553454D01*
X16921262Y55510329D01*
X16978870Y55467204D01*
X16978872Y55467204D01*
X16978874Y55467202D01*
X17039231Y55444691D01*
X17113715Y55416910D01*
X17113718Y55416909D01*
X17173328Y55410500D01*
X21079073Y55410501D01*
X21138684Y55416909D01*
X21273532Y55467204D01*
X21388747Y55553454D01*
X21474997Y55668669D01*
X21508145Y55757543D01*
X21550691Y55814379D01*
X21617211Y55839191D01*
X21686585Y55824100D01*
X21736788Y55773898D01*
X21744257Y55757543D01*
X21777402Y55668674D01*
X21777404Y55668671D01*
X21863654Y55553454D01*
X21921262Y55510329D01*
X21978870Y55467204D01*
X21978872Y55467204D01*
X21978874Y55467202D01*
X22039231Y55444691D01*
X22113715Y55416910D01*
X22113718Y55416909D01*
X22173328Y55410500D01*
X26079073Y55410501D01*
X26138684Y55416909D01*
X26273532Y55467204D01*
X26388747Y55553454D01*
X26474997Y55668669D01*
X26525292Y55803517D01*
X26531701Y55863127D01*
X26531700Y59768872D01*
X26525292Y59828483D01*
X26503693Y59886392D01*
X26474999Y59963327D01*
X26474997Y59963330D01*
X26474997Y59963331D01*
X26431872Y60020939D01*
X26388747Y60078547D01*
X26311792Y60136155D01*
X26273532Y60164796D01*
X26273530Y60164797D01*
X26273527Y60164799D01*
X26138684Y60215091D01*
X26138687Y60215091D01*
X26079074Y60221500D01*
X22173336Y60221500D01*
X22173315Y60221498D01*
X22113720Y60215092D01*
X22113719Y60215092D01*
X21978874Y60164799D01*
X21978871Y60164797D01*
X21863654Y60078547D01*
X21777404Y59963330D01*
X21777403Y59963329D01*
X21744257Y59874457D01*
X21701711Y59817621D01*
X21635191Y59792810D01*
X21565816Y59807901D01*
X21515614Y59858103D01*
X21508145Y59874457D01*
X21474998Y59963329D01*
X21474997Y59963330D01*
X21474997Y59963331D01*
X21431872Y60020939D01*
X21388747Y60078547D01*
X21311792Y60136155D01*
X21273532Y60164796D01*
X21273530Y60164797D01*
X21273527Y60164799D01*
X21138684Y60215091D01*
X21138687Y60215091D01*
X21079074Y60221500D01*
X17173336Y60221500D01*
X17173315Y60221498D01*
X17113720Y60215092D01*
X17113719Y60215092D01*
X16978874Y60164799D01*
X16978871Y60164797D01*
X16863654Y60078547D01*
X16777404Y59963330D01*
X16777402Y59963327D01*
X16727110Y59828485D01*
X16720701Y59768879D01*
X5344500Y59768879D01*
X5344500Y62757879D01*
X45156000Y62757879D01*
X45156000Y61138136D01*
X45156002Y61138115D01*
X45162408Y61078520D01*
X45162408Y61078519D01*
X45212701Y60943674D01*
X45212703Y60943671D01*
X45298952Y60828456D01*
X45298953Y60828456D01*
X45298954Y60828454D01*
X45365193Y60778867D01*
X45407739Y60722032D01*
X45412803Y60651216D01*
X45378778Y60588904D01*
X45365197Y60577137D01*
X45330561Y60551208D01*
X45298952Y60527545D01*
X45212703Y60412330D01*
X45212701Y60412327D01*
X45162409Y60277485D01*
X45156000Y60217879D01*
X45156000Y58598136D01*
X45156002Y58598115D01*
X45162408Y58538520D01*
X45162408Y58538519D01*
X45212701Y58403674D01*
X45212703Y58403671D01*
X45298953Y58288454D01*
X45356561Y58245329D01*
X45414169Y58202204D01*
X45414171Y58202204D01*
X45414173Y58202202D01*
X45474530Y58179691D01*
X45549014Y58151910D01*
X45549017Y58151909D01*
X45608627Y58145500D01*
X47228372Y58145501D01*
X47287983Y58151909D01*
X47422831Y58202204D01*
X47538046Y58288454D01*
X47624296Y58403669D01*
X47674591Y58538517D01*
X47681000Y58598127D01*
X47680999Y59783618D01*
X47934700Y59783618D01*
X47934700Y58783591D01*
X47945200Y58680803D01*
X48000385Y58514266D01*
X48092488Y58364944D01*
X48092493Y58364938D01*
X48216537Y58240894D01*
X48216543Y58240889D01*
X48216544Y58240888D01*
X48273763Y58205596D01*
X48365865Y58148786D01*
X48532396Y58093603D01*
X48532397Y58093603D01*
X48532403Y58093601D01*
X48635191Y58083100D01*
X49260208Y58083101D01*
X49260209Y58083101D01*
X49362997Y58093601D01*
X49529534Y58148786D01*
X49534599Y58151910D01*
X49678856Y58240888D01*
X49678862Y58240894D01*
X49771105Y58333136D01*
X49833417Y58367162D01*
X49904232Y58362097D01*
X49949295Y58333136D01*
X50041537Y58240894D01*
X50041543Y58240889D01*
X50041544Y58240888D01*
X50098763Y58205596D01*
X50190865Y58148786D01*
X50357396Y58093603D01*
X50357397Y58093603D01*
X50357403Y58093601D01*
X50460191Y58083100D01*
X51085208Y58083101D01*
X51085209Y58083101D01*
X51187997Y58093601D01*
X51354534Y58148786D01*
X51359599Y58151910D01*
X51503856Y58240888D01*
X51627912Y58364944D01*
X51720014Y58514266D01*
X51775199Y58680803D01*
X51785700Y58783591D01*
X51785699Y59783608D01*
X51783217Y59807901D01*
X51775199Y59886398D01*
X51720014Y60052935D01*
X51651017Y60164797D01*
X51627912Y60202256D01*
X51627911Y60202257D01*
X51627906Y60202263D01*
X51503862Y60326307D01*
X51503856Y60326312D01*
X51354534Y60418415D01*
X51188003Y60473598D01*
X51187991Y60473600D01*
X51085217Y60484100D01*
X50460190Y60484100D01*
X50357402Y60473600D01*
X50190865Y60418415D01*
X50041543Y60326312D01*
X50041537Y60326307D01*
X49949295Y60234064D01*
X49886983Y60200038D01*
X49816168Y60205103D01*
X49771105Y60234064D01*
X49678862Y60326307D01*
X49678856Y60326312D01*
X49529534Y60418415D01*
X49363003Y60473598D01*
X49362991Y60473600D01*
X49260217Y60484100D01*
X48635190Y60484100D01*
X48532402Y60473600D01*
X48365865Y60418415D01*
X48216543Y60326312D01*
X48216537Y60326307D01*
X48092493Y60202263D01*
X48092488Y60202257D01*
X48000385Y60052935D01*
X47945202Y59886404D01*
X47945200Y59886392D01*
X47934700Y59783618D01*
X47680999Y59783618D01*
X47680999Y60217872D01*
X47674591Y60277483D01*
X47653300Y60334565D01*
X47624298Y60412327D01*
X47624296Y60412330D01*
X47624296Y60412331D01*
X47538046Y60527546D01*
X47471806Y60577134D01*
X47429260Y60633968D01*
X47424196Y60704783D01*
X47458221Y60767095D01*
X47471802Y60778864D01*
X47538046Y60828454D01*
X47624296Y60943669D01*
X47674591Y61078517D01*
X47681000Y61138127D01*
X47680999Y62757872D01*
X47674591Y62817483D01*
X47653300Y62874565D01*
X47624298Y62952327D01*
X47624296Y62952330D01*
X47624296Y62952331D01*
X47581171Y63009939D01*
X47538046Y63067547D01*
X47461091Y63125155D01*
X47422831Y63153796D01*
X47422829Y63153797D01*
X47422826Y63153799D01*
X47287983Y63204091D01*
X47287986Y63204091D01*
X47228373Y63210500D01*
X45608635Y63210500D01*
X45608614Y63210498D01*
X45549019Y63204092D01*
X45549018Y63204092D01*
X45414173Y63153799D01*
X45414170Y63153797D01*
X45298953Y63067547D01*
X45212703Y62952330D01*
X45212701Y62952327D01*
X45162409Y62817485D01*
X45156000Y62757879D01*
X5344500Y62757879D01*
X5344500Y63928879D01*
X55506500Y63928879D01*
X55506500Y62309136D01*
X55506502Y62309115D01*
X55512908Y62249520D01*
X55512908Y62249519D01*
X55563201Y62114674D01*
X55563203Y62114671D01*
X55563204Y62114669D01*
X55606086Y62057386D01*
X55649452Y61999456D01*
X55649453Y61999456D01*
X55649454Y61999454D01*
X55715693Y61949867D01*
X55758239Y61893032D01*
X55763303Y61822216D01*
X55729278Y61759904D01*
X55715697Y61748137D01*
X55681061Y61722208D01*
X55649452Y61698545D01*
X55563203Y61583330D01*
X55563201Y61583327D01*
X55512909Y61448485D01*
X55506500Y61388879D01*
X55506500Y59769136D01*
X55506502Y59769115D01*
X55512908Y59709520D01*
X55512908Y59709519D01*
X55563201Y59574674D01*
X55563203Y59574671D01*
X55649453Y59459454D01*
X55707061Y59416329D01*
X55764669Y59373204D01*
X55764671Y59373204D01*
X55764673Y59373202D01*
X55825030Y59350691D01*
X55899514Y59322910D01*
X55899517Y59322909D01*
X55959127Y59316500D01*
X57578872Y59316501D01*
X57638483Y59322909D01*
X57773331Y59373204D01*
X57888546Y59459454D01*
X57938133Y59525694D01*
X57994968Y59568240D01*
X58065783Y59573304D01*
X58128095Y59539279D01*
X58139863Y59525698D01*
X58189454Y59459454D01*
X58304669Y59373204D01*
X58304671Y59373204D01*
X58304673Y59373202D01*
X58365030Y59350691D01*
X58439514Y59322910D01*
X58439517Y59322909D01*
X58499127Y59316500D01*
X60118872Y59316501D01*
X60178483Y59322909D01*
X60313331Y59373204D01*
X60428546Y59459454D01*
X60514796Y59574669D01*
X60565091Y59709517D01*
X60571500Y59769127D01*
X60571499Y61007879D01*
X66555500Y61007879D01*
X66555500Y59388136D01*
X66555502Y59388115D01*
X66561908Y59328520D01*
X66561908Y59328519D01*
X66612201Y59193674D01*
X66612203Y59193671D01*
X66612204Y59193669D01*
X66655086Y59136386D01*
X66698452Y59078456D01*
X66698453Y59078456D01*
X66698454Y59078454D01*
X66764693Y59028867D01*
X66807239Y58972032D01*
X66812303Y58901216D01*
X66778278Y58838904D01*
X66764697Y58827137D01*
X66730061Y58801208D01*
X66698452Y58777545D01*
X66612203Y58662330D01*
X66612201Y58662327D01*
X66561909Y58527485D01*
X66555500Y58467879D01*
X66555500Y56848136D01*
X66555502Y56848115D01*
X66561908Y56788520D01*
X66561908Y56788519D01*
X66612201Y56653674D01*
X66612203Y56653671D01*
X66698453Y56538454D01*
X66756061Y56495329D01*
X66813669Y56452204D01*
X66813671Y56452204D01*
X66813673Y56452202D01*
X66874030Y56429691D01*
X66948514Y56401910D01*
X66948517Y56401909D01*
X67008127Y56395500D01*
X68627872Y56395501D01*
X68687483Y56401909D01*
X68822331Y56452204D01*
X68937546Y56538454D01*
X68987132Y56604694D01*
X69043966Y56647239D01*
X69114782Y56652304D01*
X69177094Y56618279D01*
X69188864Y56604696D01*
X69238454Y56538453D01*
X69353669Y56452203D01*
X69353671Y56452203D01*
X69353673Y56452201D01*
X69414030Y56429690D01*
X69488514Y56401909D01*
X69488517Y56401908D01*
X69548127Y56395499D01*
X71167872Y56395500D01*
X71227483Y56401908D01*
X71362331Y56452203D01*
X71477546Y56538453D01*
X71527133Y56604693D01*
X71583968Y56647239D01*
X71654783Y56652303D01*
X71717095Y56618278D01*
X71728864Y56604698D01*
X71778454Y56538454D01*
X71778455Y56538453D01*
X71807420Y56516771D01*
X71893669Y56452204D01*
X71893671Y56452204D01*
X71893673Y56452202D01*
X71954030Y56429691D01*
X72028514Y56401910D01*
X72028517Y56401909D01*
X72088127Y56395500D01*
X73707872Y56395501D01*
X73767483Y56401909D01*
X73902331Y56452204D01*
X74017546Y56538454D01*
X74103796Y56653669D01*
X74154091Y56788517D01*
X74160500Y56848127D01*
X74160499Y58467872D01*
X74154091Y58527483D01*
X74127739Y58598136D01*
X74103798Y58662327D01*
X74103796Y58662330D01*
X74103796Y58662331D01*
X74017546Y58777546D01*
X73951306Y58827134D01*
X73908760Y58883968D01*
X73903696Y58954783D01*
X73937721Y59017095D01*
X73951302Y59028864D01*
X74017546Y59078454D01*
X74103796Y59193669D01*
X74154091Y59328517D01*
X74160500Y59388127D01*
X74160499Y61007872D01*
X74154091Y61067483D01*
X74127739Y61138136D01*
X74103798Y61202327D01*
X74103796Y61202330D01*
X74103796Y61202331D01*
X74060671Y61259939D01*
X74017546Y61317547D01*
X73922267Y61388872D01*
X73902331Y61403796D01*
X73902329Y61403797D01*
X73902326Y61403799D01*
X73767483Y61454091D01*
X73767486Y61454091D01*
X73707873Y61460500D01*
X72088135Y61460500D01*
X72088114Y61460498D01*
X72028519Y61454092D01*
X72028518Y61454092D01*
X71893673Y61403799D01*
X71893670Y61403797D01*
X71778453Y61317546D01*
X71728867Y61251308D01*
X71672031Y61208762D01*
X71601215Y61203698D01*
X71538903Y61237724D01*
X71527133Y61251307D01*
X71477546Y61317547D01*
X71477544Y61317548D01*
X71477544Y61317549D01*
X71419614Y61360915D01*
X71362331Y61403797D01*
X71362329Y61403798D01*
X71362326Y61403800D01*
X71227483Y61454092D01*
X71227486Y61454092D01*
X71167873Y61460501D01*
X69548135Y61460501D01*
X69548114Y61460499D01*
X69488519Y61454093D01*
X69488518Y61454093D01*
X69353673Y61403800D01*
X69353670Y61403798D01*
X69238454Y61317548D01*
X69188866Y61251307D01*
X69132030Y61208762D01*
X69061214Y61203698D01*
X68998902Y61237724D01*
X68987131Y61251309D01*
X68937546Y61317547D01*
X68842267Y61388872D01*
X68822331Y61403796D01*
X68822329Y61403797D01*
X68822326Y61403799D01*
X68687483Y61454091D01*
X68687486Y61454091D01*
X68627873Y61460500D01*
X67008135Y61460500D01*
X67008114Y61460498D01*
X66948519Y61454092D01*
X66948518Y61454092D01*
X66813673Y61403799D01*
X66813670Y61403797D01*
X66698453Y61317547D01*
X66612203Y61202330D01*
X66612201Y61202327D01*
X66561909Y61067485D01*
X66555500Y61007879D01*
X60571499Y61007879D01*
X60571499Y61388872D01*
X60565091Y61448483D01*
X60543800Y61505565D01*
X60514798Y61583327D01*
X60514796Y61583330D01*
X60514796Y61583331D01*
X60428546Y61698546D01*
X60362306Y61748134D01*
X60319760Y61804968D01*
X60314696Y61875783D01*
X60348721Y61938095D01*
X60362302Y61949864D01*
X60428546Y61999454D01*
X60514796Y62114669D01*
X60565091Y62249517D01*
X60571500Y62309127D01*
X60571499Y63928872D01*
X60565091Y63988483D01*
X60543800Y64045565D01*
X60514798Y64123327D01*
X60514796Y64123330D01*
X60514796Y64123331D01*
X60471671Y64180939D01*
X60428546Y64238547D01*
X60351591Y64296155D01*
X60313331Y64324796D01*
X60313329Y64324797D01*
X60313326Y64324799D01*
X60178483Y64375091D01*
X60178486Y64375091D01*
X60118873Y64381500D01*
X58499135Y64381500D01*
X58499114Y64381498D01*
X58439519Y64375092D01*
X58439518Y64375092D01*
X58304673Y64324799D01*
X58304670Y64324797D01*
X58189455Y64238548D01*
X58189454Y64238546D01*
X58139866Y64172307D01*
X58083032Y64129761D01*
X58012216Y64124697D01*
X57949904Y64158722D01*
X57938136Y64172303D01*
X57888546Y64238546D01*
X57888544Y64238547D01*
X57888544Y64238548D01*
X57830614Y64281914D01*
X57773331Y64324796D01*
X57773329Y64324797D01*
X57773326Y64324799D01*
X57638483Y64375091D01*
X57638486Y64375091D01*
X57578873Y64381500D01*
X55959135Y64381500D01*
X55959114Y64381498D01*
X55899519Y64375092D01*
X55899518Y64375092D01*
X55764673Y64324799D01*
X55764670Y64324797D01*
X55649453Y64238547D01*
X55563203Y64123330D01*
X55563201Y64123327D01*
X55512909Y63988485D01*
X55506500Y63928879D01*
X5344500Y63928879D01*
X5344500Y65649500D01*
X5364502Y65717621D01*
X5418158Y65764114D01*
X5470500Y65775500D01*
X85969500Y65775500D01*
X86037621Y65755498D01*
G37*
%TD.AperFunction*%
%TD*%
%TA.AperFunction,Conductor*%
%TO.N,/Fuel Gauge/SR-*%
G36*
X58877121Y31447998D02*
G01*
X58923614Y31394342D01*
X58935000Y31342000D01*
X58935000Y31250893D01*
X58946032Y31159022D01*
X58946032Y31128978D01*
X58935000Y31037108D01*
X58935000Y30850895D01*
X58945622Y30762436D01*
X59001138Y30621659D01*
X59001140Y30621656D01*
X59002295Y30620133D01*
X59002917Y30618496D01*
X59005364Y30614144D01*
X59004710Y30613777D01*
X59027518Y30553768D01*
X59012857Y30484302D01*
X59002295Y30467867D01*
X59001140Y30466345D01*
X59001137Y30466340D01*
X58976861Y30404777D01*
X58933264Y30348743D01*
X58866293Y30325175D01*
X58859646Y30325000D01*
X58091486Y30325000D01*
X58023365Y30345002D01*
X57976872Y30398658D01*
X57966138Y30438196D01*
X57958599Y30511998D01*
X57903414Y30678535D01*
X57811311Y30827857D01*
X57811306Y30827863D01*
X57687262Y30951907D01*
X57687256Y30951912D01*
X57537934Y31044015D01*
X57371403Y31099198D01*
X57371391Y31099200D01*
X57268617Y31109700D01*
X56218590Y31109700D01*
X56115802Y31099200D01*
X55949265Y31044015D01*
X55799943Y30951912D01*
X55799937Y30951907D01*
X55689695Y30841664D01*
X55627383Y30807638D01*
X55556568Y30812703D01*
X55511505Y30841664D01*
X55401262Y30951907D01*
X55401256Y30951912D01*
X55251935Y31044014D01*
X55140866Y31080819D01*
X55082495Y31121233D01*
X55055240Y31186790D01*
X55054500Y31200423D01*
X55054500Y31342000D01*
X55074502Y31410121D01*
X55128158Y31456614D01*
X55180500Y31468000D01*
X58809000Y31468000D01*
X58877121Y31447998D01*
G37*
%TD.AperFunction*%
%TD*%
M02*
