%TF.GenerationSoftware,KiCad,Pcbnew,8.0.3+1*%
%TF.CreationDate,2024-07-20T09:56:42+00:00*%
%TF.ProjectId,LION2CELL02,4c494f4e-3243-4454-9c4c-30322e6b6963,rev?*%
%TF.SameCoordinates,Original*%
%TF.FileFunction,Paste,Bot*%
%TF.FilePolarity,Positive*%
%FSLAX46Y46*%
G04 Gerber Fmt 4.6, Leading zero omitted, Abs format (unit mm)*
G04 Created by KiCad (PCBNEW 8.0.3+1) date 2024-07-20 09:56:42*
%MOMM*%
%LPD*%
G01*
G04 APERTURE LIST*
G04 Aperture macros list*
%AMRoundRect*
0 Rectangle with rounded corners*
0 $1 Rounding radius*
0 $2 $3 $4 $5 $6 $7 $8 $9 X,Y pos of 4 corners*
0 Add a 4 corners polygon primitive as box body*
4,1,4,$2,$3,$4,$5,$6,$7,$8,$9,$2,$3,0*
0 Add four circle primitives for the rounded corners*
1,1,$1+$1,$2,$3*
1,1,$1+$1,$4,$5*
1,1,$1+$1,$6,$7*
1,1,$1+$1,$8,$9*
0 Add four rect primitives between the rounded corners*
20,1,$1+$1,$2,$3,$4,$5,0*
20,1,$1+$1,$4,$5,$6,$7,0*
20,1,$1+$1,$6,$7,$8,$9,0*
20,1,$1+$1,$8,$9,$2,$3,0*%
%AMFreePoly0*
4,1,27,0.405000,0.748540,0.473851,0.737775,0.540468,0.697134,0.586462,0.634092,0.604830,0.558249,0.592775,0.481149,0.592776,0.481149,0.558927,0.388685,0.517726,0.196112,0.503933,-0.000335,0.517820,-0.196775,0.559113,-0.389328,0.593006,-0.481776,0.593005,-0.481776,0.605097,-0.558870,0.586765,-0.634722,0.540802,-0.697786,0.474204,-0.738459,0.405000,-0.749313,0.405000,-0.750000,
0.400623,-0.750000,0.397110,-0.750551,0.394830,-0.750000,-0.645000,-0.750000,-0.645000,0.750000,0.405000,0.750000,0.405000,0.748540,0.405000,0.748540,$1*%
G04 Aperture macros list end*
%ADD10RoundRect,0.250000X-0.475000X0.250000X-0.475000X-0.250000X0.475000X-0.250000X0.475000X0.250000X0*%
%ADD11RoundRect,0.140000X-0.140000X-0.170000X0.140000X-0.170000X0.140000X0.170000X-0.140000X0.170000X0*%
%ADD12RoundRect,0.250000X0.475000X-0.250000X0.475000X0.250000X-0.475000X0.250000X-0.475000X-0.250000X0*%
%ADD13RoundRect,0.140000X0.170000X-0.140000X0.170000X0.140000X-0.170000X0.140000X-0.170000X-0.140000X0*%
%ADD14RoundRect,0.225000X-0.250000X0.225000X-0.250000X-0.225000X0.250000X-0.225000X0.250000X0.225000X0*%
%ADD15RoundRect,0.225000X-0.225000X-0.250000X0.225000X-0.250000X0.225000X0.250000X-0.225000X0.250000X0*%
%ADD16RoundRect,0.140000X-0.170000X0.140000X-0.170000X-0.140000X0.170000X-0.140000X0.170000X0.140000X0*%
%ADD17FreePoly0,180.000000*%
%ADD18FreePoly0,0.000000*%
%ADD19R,1.500000X1.050000*%
%ADD20RoundRect,0.250000X0.850000X-0.375000X0.850000X0.375000X-0.850000X0.375000X-0.850000X-0.375000X0*%
%ADD21RoundRect,0.100000X0.205000X0.535000X-0.205000X0.535000X-0.205000X-0.535000X0.205000X-0.535000X0*%
%ADD22RoundRect,0.200000X2.600000X2.050000X-2.600000X2.050000X-2.600000X-2.050000X2.600000X-2.050000X0*%
%ADD23RoundRect,0.250000X0.450000X-0.262500X0.450000X0.262500X-0.450000X0.262500X-0.450000X-0.262500X0*%
%ADD24RoundRect,0.135000X0.135000X0.185000X-0.135000X0.185000X-0.135000X-0.185000X0.135000X-0.185000X0*%
%ADD25RoundRect,0.135000X-0.185000X0.135000X-0.185000X-0.135000X0.185000X-0.135000X0.185000X0.135000X0*%
%ADD26RoundRect,0.135000X0.185000X-0.135000X0.185000X0.135000X-0.185000X0.135000X-0.185000X-0.135000X0*%
%ADD27RoundRect,0.135000X-0.135000X-0.185000X0.135000X-0.185000X0.135000X0.185000X-0.135000X0.185000X0*%
%ADD28RoundRect,0.050000X0.050000X-0.425000X0.050000X0.425000X-0.050000X0.425000X-0.050000X-0.425000X0*%
%ADD29RoundRect,0.050000X0.300000X-0.050000X0.300000X0.050000X-0.300000X0.050000X-0.300000X-0.050000X0*%
%ADD30RoundRect,0.050000X0.050000X-0.250000X0.050000X0.250000X-0.050000X0.250000X-0.050000X-0.250000X0*%
%ADD31RoundRect,0.050000X0.050000X-0.400000X0.050000X0.400000X-0.050000X0.400000X-0.050000X-0.400000X0*%
%ADD32RoundRect,0.050000X0.250000X-0.050000X0.250000X0.050000X-0.250000X0.050000X-0.250000X-0.050000X0*%
%ADD33RoundRect,0.050000X-0.300000X-0.050000X0.300000X-0.050000X0.300000X0.050000X-0.300000X0.050000X0*%
%ADD34RoundRect,0.050000X0.050000X-0.300000X0.050000X0.300000X-0.050000X0.300000X-0.050000X-0.300000X0*%
%ADD35RoundRect,0.050000X0.050000X-0.275000X0.050000X0.275000X-0.050000X0.275000X-0.050000X-0.275000X0*%
%ADD36RoundRect,0.050000X0.050000X-0.290000X0.050000X0.290000X-0.050000X0.290000X-0.050000X-0.290000X0*%
%ADD37RoundRect,0.050000X0.450000X-0.050000X0.450000X0.050000X-0.450000X0.050000X-0.450000X-0.050000X0*%
%ADD38RoundRect,0.118800X-0.181200X-0.181200X0.181200X-0.181200X0.181200X0.181200X-0.181200X0.181200X0*%
%ADD39RoundRect,0.050000X-0.050000X-0.300000X0.050000X-0.300000X0.050000X0.300000X-0.050000X0.300000X0*%
%ADD40RoundRect,0.250000X-0.250000X-0.475000X0.250000X-0.475000X0.250000X0.475000X-0.250000X0.475000X0*%
%ADD41RoundRect,0.250000X0.262500X0.450000X-0.262500X0.450000X-0.262500X-0.450000X0.262500X-0.450000X0*%
%ADD42RoundRect,0.250000X0.312500X0.625000X-0.312500X0.625000X-0.312500X-0.625000X0.312500X-0.625000X0*%
G04 APERTURE END LIST*
D10*
%TO.C,C1*%
X107746800Y-105501400D03*
X107746800Y-107401400D03*
%TD*%
D11*
%TO.C,C5*%
X110822800Y-101879400D03*
X111782800Y-101879400D03*
%TD*%
D12*
%TO.C,C6*%
X120573800Y-85176400D03*
X120573800Y-83276400D03*
%TD*%
D10*
%TO.C,C7*%
X120726200Y-89245400D03*
X120726200Y-91145400D03*
%TD*%
D12*
%TO.C,C8*%
X114604800Y-103337400D03*
X114604800Y-101437400D03*
%TD*%
D13*
%TO.C,C9*%
X131622800Y-85468400D03*
X131622800Y-84508400D03*
%TD*%
D10*
%TO.C,C11*%
X123621800Y-109946400D03*
X123621800Y-111846400D03*
%TD*%
D14*
%TO.C,C12*%
X149275800Y-108089400D03*
X149275800Y-109639400D03*
%TD*%
%TO.C,C13*%
X161848800Y-107454400D03*
X161848800Y-109004400D03*
%TD*%
%TO.C,C14*%
X168325800Y-115328400D03*
X168325800Y-116878400D03*
%TD*%
D15*
%TO.C,C15*%
X162089800Y-111023400D03*
X163639800Y-111023400D03*
%TD*%
%TO.C,C16*%
X162089800Y-104927400D03*
X163639800Y-104927400D03*
%TD*%
D13*
%TO.C,C17*%
X152768300Y-101597400D03*
X152768300Y-100637400D03*
%TD*%
D16*
%TO.C,C18*%
X145719800Y-112702400D03*
X145719800Y-113662400D03*
%TD*%
D17*
%TO.C,D1*%
X112478820Y-84099400D03*
D18*
X108668820Y-84099400D03*
%TD*%
D19*
%TO.C,D3*%
X123621800Y-79495400D03*
X123621800Y-75495400D03*
%TD*%
%TO.C,D4*%
X128701800Y-79495400D03*
X128701800Y-75495400D03*
%TD*%
%TO.C,D7*%
X141401800Y-130930400D03*
X141401800Y-126930400D03*
%TD*%
%TO.C,D8*%
X144068800Y-130930400D03*
X144068800Y-126930400D03*
%TD*%
D20*
%TO.C,L1*%
X126415800Y-100541400D03*
X126415800Y-98391400D03*
%TD*%
D21*
%TO.C,Q1*%
X119684800Y-102260400D03*
X118414800Y-102260400D03*
X117144800Y-102260400D03*
X115874800Y-102260400D03*
D22*
X117779800Y-98552000D03*
%TD*%
D23*
%TO.C,R1*%
X105333800Y-100378900D03*
X105333800Y-98553900D03*
%TD*%
D24*
%TO.C,R3*%
X105208800Y-103022400D03*
X104188800Y-103022400D03*
%TD*%
D25*
%TO.C,R5*%
X133908800Y-82509900D03*
X133908800Y-83529900D03*
%TD*%
D26*
%TO.C,R6*%
X121335800Y-81307400D03*
X121335800Y-80287400D03*
%TD*%
D23*
%TO.C,R7*%
X126288800Y-81836900D03*
X126288800Y-80011900D03*
%TD*%
%TO.C,R8*%
X131241800Y-81836900D03*
X131241800Y-80011900D03*
%TD*%
D27*
%TO.C,R9*%
X115110800Y-105689400D03*
X116130800Y-105689400D03*
%TD*%
D26*
%TO.C,R11*%
X124764800Y-84736400D03*
X124764800Y-83716400D03*
%TD*%
%TO.C,R18*%
X164388800Y-108739400D03*
X164388800Y-107719400D03*
%TD*%
D24*
%TO.C,R19*%
X168200800Y-107467400D03*
X167180800Y-107467400D03*
%TD*%
D23*
%TO.C,R20*%
X170357800Y-119936900D03*
X170357800Y-118111900D03*
%TD*%
D25*
%TO.C,R23*%
X154800300Y-100607400D03*
X154800300Y-101627400D03*
%TD*%
D27*
%TO.C,R24*%
X150988300Y-104101900D03*
X152008300Y-104101900D03*
%TD*%
D26*
%TO.C,R27*%
X141401800Y-124233400D03*
X141401800Y-123213400D03*
%TD*%
%TO.C,R28*%
X144068800Y-124233400D03*
X144068800Y-123213400D03*
%TD*%
D23*
%TO.C,R32*%
X154736800Y-124635900D03*
X154736800Y-122810900D03*
%TD*%
%TO.C,R33*%
X157403800Y-124635900D03*
X157403800Y-122810900D03*
%TD*%
D28*
%TO.C,U1*%
X112902800Y-106652400D03*
D29*
X113152800Y-106277400D03*
D30*
X112502800Y-106827400D03*
X112102800Y-106827400D03*
X111702800Y-106827400D03*
X111302800Y-106827400D03*
X110902800Y-106827400D03*
X110502800Y-106827400D03*
X110102800Y-106827400D03*
D31*
X109702800Y-106677400D03*
D29*
X109452800Y-106327400D03*
D32*
X109402800Y-105927400D03*
X109402800Y-105527400D03*
X109402800Y-105127400D03*
X109402800Y-104727400D03*
X109402800Y-104327400D03*
X109402800Y-103927400D03*
D33*
X109452800Y-103527400D03*
D31*
X109702800Y-103177400D03*
D34*
X110102800Y-103077400D03*
D35*
X110502800Y-103052400D03*
D36*
X110902800Y-103064900D03*
D30*
X111302800Y-103027400D03*
X111702800Y-103027400D03*
X112102800Y-103027400D03*
X112502800Y-103027400D03*
D29*
X113152800Y-103577400D03*
D28*
X112902800Y-103202400D03*
D37*
X112902800Y-104127400D03*
X112902800Y-104527400D03*
X112902800Y-104927400D03*
X112902800Y-105327400D03*
X112902800Y-105727400D03*
%TD*%
D38*
%TO.C,U3*%
X155275800Y-108133400D03*
X155275800Y-108833400D03*
X155975800Y-108133400D03*
X155975800Y-108833400D03*
D33*
X153625800Y-109883400D03*
X153625800Y-109483400D03*
X153625800Y-109083400D03*
X153625800Y-108683400D03*
X153625800Y-108283400D03*
X153625800Y-107883400D03*
X153625800Y-107483400D03*
X153625800Y-107083400D03*
D39*
X154225800Y-106483400D03*
X154625800Y-106483400D03*
X155025800Y-106483400D03*
X155425800Y-106483400D03*
X155825800Y-106483400D03*
X156225800Y-106483400D03*
X156625800Y-106483400D03*
X157025800Y-106483400D03*
D33*
X157625800Y-107083400D03*
X157625800Y-107483400D03*
X157625800Y-107883400D03*
X157625800Y-108283400D03*
X157625800Y-108683400D03*
X157625800Y-109083400D03*
X157625800Y-109483400D03*
X157625800Y-109883400D03*
D39*
X157025800Y-110483400D03*
X156625800Y-110483400D03*
X156225800Y-110483400D03*
X155825800Y-110483400D03*
X155425800Y-110483400D03*
X155025800Y-110483400D03*
X154625800Y-110483400D03*
X154225800Y-110483400D03*
%TD*%
D25*
%TO.C,R4*%
X145338800Y-82319400D03*
X145338800Y-83339400D03*
%TD*%
D19*
%TO.C,D5*%
X133781800Y-79495400D03*
X133781800Y-75495400D03*
%TD*%
D10*
%TO.C,C4*%
X107746800Y-101818400D03*
X107746800Y-103718400D03*
%TD*%
%TO.C,C3*%
X119049800Y-89245400D03*
X119049800Y-91145400D03*
%TD*%
D16*
%TO.C,C2*%
X116128800Y-86652160D03*
X116128800Y-87612160D03*
%TD*%
D40*
%TO.C,C10*%
X130164800Y-108991400D03*
X132064800Y-108991400D03*
%TD*%
D41*
%TO.C,R2*%
X105611300Y-105308400D03*
X103786300Y-105308400D03*
%TD*%
D26*
%TO.C,R34*%
X160070800Y-124233400D03*
X160070800Y-123213400D03*
%TD*%
D12*
%TO.C,C19*%
X145846800Y-96225400D03*
X145846800Y-94325400D03*
%TD*%
D13*
%TO.C,C20*%
X149466300Y-91627900D03*
X149466300Y-90667900D03*
%TD*%
D42*
%TO.C,R35*%
X155500800Y-98386900D03*
X152575800Y-98386900D03*
%TD*%
D24*
%TO.C,R36*%
X155881800Y-96481900D03*
X154861800Y-96481900D03*
%TD*%
D26*
%TO.C,R22*%
X171373800Y-109374400D03*
X171373800Y-108354400D03*
%TD*%
M02*
