%TF.GenerationSoftware,KiCad,Pcbnew,8.0.3+1*%
%TF.CreationDate,2024-07-21T00:01:47+00:00*%
%TF.ProjectId,LION2CELL02,4c494f4e-3243-4454-9c4c-30322e6b6963,rev?*%
%TF.SameCoordinates,Original*%
%TF.FileFunction,Legend,Bot*%
%TF.FilePolarity,Positive*%
%FSLAX46Y46*%
G04 Gerber Fmt 4.6, Leading zero omitted, Abs format (unit mm)*
G04 Created by KiCad (PCBNEW 8.0.3+1) date 2024-07-21 00:01:47*
%MOMM*%
%LPD*%
G01*
G04 APERTURE LIST*
%ADD10C,0.150000*%
%ADD11C,0.120000*%
%ADD12C,0.200000*%
G04 APERTURE END LIST*
D10*
X15533666Y27297420D02*
X15581285Y27249800D01*
X15581285Y27249800D02*
X15724142Y27202181D01*
X15724142Y27202181D02*
X15819380Y27202181D01*
X15819380Y27202181D02*
X15962237Y27249800D01*
X15962237Y27249800D02*
X16057475Y27345039D01*
X16057475Y27345039D02*
X16105094Y27440277D01*
X16105094Y27440277D02*
X16152713Y27630753D01*
X16152713Y27630753D02*
X16152713Y27773610D01*
X16152713Y27773610D02*
X16105094Y27964086D01*
X16105094Y27964086D02*
X16057475Y28059324D01*
X16057475Y28059324D02*
X15962237Y28154562D01*
X15962237Y28154562D02*
X15819380Y28202181D01*
X15819380Y28202181D02*
X15724142Y28202181D01*
X15724142Y28202181D02*
X15581285Y28154562D01*
X15581285Y28154562D02*
X15533666Y28106943D01*
X14581285Y27202181D02*
X15152713Y27202181D01*
X14866999Y27202181D02*
X14866999Y28202181D01*
X14866999Y28202181D02*
X14962237Y28059324D01*
X14962237Y28059324D02*
X15057475Y27964086D01*
X15057475Y27964086D02*
X15152713Y27916467D01*
X33059666Y26470420D02*
X33107285Y26422800D01*
X33107285Y26422800D02*
X33250142Y26375181D01*
X33250142Y26375181D02*
X33345380Y26375181D01*
X33345380Y26375181D02*
X33488237Y26422800D01*
X33488237Y26422800D02*
X33583475Y26518039D01*
X33583475Y26518039D02*
X33631094Y26613277D01*
X33631094Y26613277D02*
X33678713Y26803753D01*
X33678713Y26803753D02*
X33678713Y26946610D01*
X33678713Y26946610D02*
X33631094Y27137086D01*
X33631094Y27137086D02*
X33583475Y27232324D01*
X33583475Y27232324D02*
X33488237Y27327562D01*
X33488237Y27327562D02*
X33345380Y27375181D01*
X33345380Y27375181D02*
X33250142Y27375181D01*
X33250142Y27375181D02*
X33107285Y27327562D01*
X33107285Y27327562D02*
X33059666Y27279943D01*
X32154904Y27375181D02*
X32631094Y27375181D01*
X32631094Y27375181D02*
X32678713Y26898991D01*
X32678713Y26898991D02*
X32631094Y26946610D01*
X32631094Y26946610D02*
X32535856Y26994229D01*
X32535856Y26994229D02*
X32297761Y26994229D01*
X32297761Y26994229D02*
X32202523Y26946610D01*
X32202523Y26946610D02*
X32154904Y26898991D01*
X32154904Y26898991D02*
X32107285Y26803753D01*
X32107285Y26803753D02*
X32107285Y26565658D01*
X32107285Y26565658D02*
X32154904Y26470420D01*
X32154904Y26470420D02*
X32202523Y26422800D01*
X32202523Y26422800D02*
X32297761Y26375181D01*
X32297761Y26375181D02*
X32535856Y26375181D01*
X32535856Y26375181D02*
X32631094Y26422800D01*
X32631094Y26422800D02*
X32678713Y26470420D01*
X34239580Y24677667D02*
X34287200Y24725286D01*
X34287200Y24725286D02*
X34334819Y24868143D01*
X34334819Y24868143D02*
X34334819Y24963381D01*
X34334819Y24963381D02*
X34287200Y25106238D01*
X34287200Y25106238D02*
X34191961Y25201476D01*
X34191961Y25201476D02*
X34096723Y25249095D01*
X34096723Y25249095D02*
X33906247Y25296714D01*
X33906247Y25296714D02*
X33763390Y25296714D01*
X33763390Y25296714D02*
X33572914Y25249095D01*
X33572914Y25249095D02*
X33477676Y25201476D01*
X33477676Y25201476D02*
X33382438Y25106238D01*
X33382438Y25106238D02*
X33334819Y24963381D01*
X33334819Y24963381D02*
X33334819Y24868143D01*
X33334819Y24868143D02*
X33382438Y24725286D01*
X33382438Y24725286D02*
X33430057Y24677667D01*
X33334819Y23820524D02*
X33334819Y24011000D01*
X33334819Y24011000D02*
X33382438Y24106238D01*
X33382438Y24106238D02*
X33430057Y24153857D01*
X33430057Y24153857D02*
X33572914Y24249095D01*
X33572914Y24249095D02*
X33763390Y24296714D01*
X33763390Y24296714D02*
X34144342Y24296714D01*
X34144342Y24296714D02*
X34239580Y24249095D01*
X34239580Y24249095D02*
X34287200Y24201476D01*
X34287200Y24201476D02*
X34334819Y24106238D01*
X34334819Y24106238D02*
X34334819Y23915762D01*
X34334819Y23915762D02*
X34287200Y23820524D01*
X34287200Y23820524D02*
X34239580Y23772905D01*
X34239580Y23772905D02*
X34144342Y23725286D01*
X34144342Y23725286D02*
X33906247Y23725286D01*
X33906247Y23725286D02*
X33811009Y23772905D01*
X33811009Y23772905D02*
X33763390Y23820524D01*
X33763390Y23820524D02*
X33715771Y23915762D01*
X33715771Y23915762D02*
X33715771Y24106238D01*
X33715771Y24106238D02*
X33763390Y24201476D01*
X33763390Y24201476D02*
X33811009Y24249095D01*
X33811009Y24249095D02*
X33906247Y24296714D01*
X43956266Y23284220D02*
X44003885Y23236600D01*
X44003885Y23236600D02*
X44146742Y23188981D01*
X44146742Y23188981D02*
X44241980Y23188981D01*
X44241980Y23188981D02*
X44384837Y23236600D01*
X44384837Y23236600D02*
X44480075Y23331839D01*
X44480075Y23331839D02*
X44527694Y23427077D01*
X44527694Y23427077D02*
X44575313Y23617553D01*
X44575313Y23617553D02*
X44575313Y23760410D01*
X44575313Y23760410D02*
X44527694Y23950886D01*
X44527694Y23950886D02*
X44480075Y24046124D01*
X44480075Y24046124D02*
X44384837Y24141362D01*
X44384837Y24141362D02*
X44241980Y24188981D01*
X44241980Y24188981D02*
X44146742Y24188981D01*
X44146742Y24188981D02*
X44003885Y24141362D01*
X44003885Y24141362D02*
X43956266Y24093743D01*
X43622932Y24188981D02*
X42956266Y24188981D01*
X42956266Y24188981D02*
X43384837Y23188981D01*
X43981666Y21201420D02*
X44029285Y21153800D01*
X44029285Y21153800D02*
X44172142Y21106181D01*
X44172142Y21106181D02*
X44267380Y21106181D01*
X44267380Y21106181D02*
X44410237Y21153800D01*
X44410237Y21153800D02*
X44505475Y21249039D01*
X44505475Y21249039D02*
X44553094Y21344277D01*
X44553094Y21344277D02*
X44600713Y21534753D01*
X44600713Y21534753D02*
X44600713Y21677610D01*
X44600713Y21677610D02*
X44553094Y21868086D01*
X44553094Y21868086D02*
X44505475Y21963324D01*
X44505475Y21963324D02*
X44410237Y22058562D01*
X44410237Y22058562D02*
X44267380Y22106181D01*
X44267380Y22106181D02*
X44172142Y22106181D01*
X44172142Y22106181D02*
X44029285Y22058562D01*
X44029285Y22058562D02*
X43981666Y22010943D01*
X43410237Y21677610D02*
X43505475Y21725229D01*
X43505475Y21725229D02*
X43553094Y21772848D01*
X43553094Y21772848D02*
X43600713Y21868086D01*
X43600713Y21868086D02*
X43600713Y21915705D01*
X43600713Y21915705D02*
X43553094Y22010943D01*
X43553094Y22010943D02*
X43505475Y22058562D01*
X43505475Y22058562D02*
X43410237Y22106181D01*
X43410237Y22106181D02*
X43219761Y22106181D01*
X43219761Y22106181D02*
X43124523Y22058562D01*
X43124523Y22058562D02*
X43076904Y22010943D01*
X43076904Y22010943D02*
X43029285Y21915705D01*
X43029285Y21915705D02*
X43029285Y21868086D01*
X43029285Y21868086D02*
X43076904Y21772848D01*
X43076904Y21772848D02*
X43124523Y21725229D01*
X43124523Y21725229D02*
X43219761Y21677610D01*
X43219761Y21677610D02*
X43410237Y21677610D01*
X43410237Y21677610D02*
X43505475Y21629991D01*
X43505475Y21629991D02*
X43553094Y21582372D01*
X43553094Y21582372D02*
X43600713Y21487134D01*
X43600713Y21487134D02*
X43600713Y21296658D01*
X43600713Y21296658D02*
X43553094Y21201420D01*
X43553094Y21201420D02*
X43505475Y21153800D01*
X43505475Y21153800D02*
X43410237Y21106181D01*
X43410237Y21106181D02*
X43219761Y21106181D01*
X43219761Y21106181D02*
X43124523Y21153800D01*
X43124523Y21153800D02*
X43076904Y21201420D01*
X43076904Y21201420D02*
X43029285Y21296658D01*
X43029285Y21296658D02*
X43029285Y21487134D01*
X43029285Y21487134D02*
X43076904Y21582372D01*
X43076904Y21582372D02*
X43124523Y21629991D01*
X43124523Y21629991D02*
X43219761Y21677610D01*
X24968580Y28614667D02*
X25016200Y28662286D01*
X25016200Y28662286D02*
X25063819Y28805143D01*
X25063819Y28805143D02*
X25063819Y28900381D01*
X25063819Y28900381D02*
X25016200Y29043238D01*
X25016200Y29043238D02*
X24920961Y29138476D01*
X24920961Y29138476D02*
X24825723Y29186095D01*
X24825723Y29186095D02*
X24635247Y29233714D01*
X24635247Y29233714D02*
X24492390Y29233714D01*
X24492390Y29233714D02*
X24301914Y29186095D01*
X24301914Y29186095D02*
X24206676Y29138476D01*
X24206676Y29138476D02*
X24111438Y29043238D01*
X24111438Y29043238D02*
X24063819Y28900381D01*
X24063819Y28900381D02*
X24063819Y28805143D01*
X24063819Y28805143D02*
X24111438Y28662286D01*
X24111438Y28662286D02*
X24159057Y28614667D01*
X25063819Y28138476D02*
X25063819Y27948000D01*
X25063819Y27948000D02*
X25016200Y27852762D01*
X25016200Y27852762D02*
X24968580Y27805143D01*
X24968580Y27805143D02*
X24825723Y27709905D01*
X24825723Y27709905D02*
X24635247Y27662286D01*
X24635247Y27662286D02*
X24254295Y27662286D01*
X24254295Y27662286D02*
X24159057Y27709905D01*
X24159057Y27709905D02*
X24111438Y27757524D01*
X24111438Y27757524D02*
X24063819Y27852762D01*
X24063819Y27852762D02*
X24063819Y28043238D01*
X24063819Y28043238D02*
X24111438Y28138476D01*
X24111438Y28138476D02*
X24159057Y28186095D01*
X24159057Y28186095D02*
X24254295Y28233714D01*
X24254295Y28233714D02*
X24492390Y28233714D01*
X24492390Y28233714D02*
X24587628Y28186095D01*
X24587628Y28186095D02*
X24635247Y28138476D01*
X24635247Y28138476D02*
X24682866Y28043238D01*
X24682866Y28043238D02*
X24682866Y27852762D01*
X24682866Y27852762D02*
X24635247Y27757524D01*
X24635247Y27757524D02*
X24587628Y27709905D01*
X24587628Y27709905D02*
X24492390Y27662286D01*
X30233857Y49268420D02*
X30281476Y49220800D01*
X30281476Y49220800D02*
X30424333Y49173181D01*
X30424333Y49173181D02*
X30519571Y49173181D01*
X30519571Y49173181D02*
X30662428Y49220800D01*
X30662428Y49220800D02*
X30757666Y49316039D01*
X30757666Y49316039D02*
X30805285Y49411277D01*
X30805285Y49411277D02*
X30852904Y49601753D01*
X30852904Y49601753D02*
X30852904Y49744610D01*
X30852904Y49744610D02*
X30805285Y49935086D01*
X30805285Y49935086D02*
X30757666Y50030324D01*
X30757666Y50030324D02*
X30662428Y50125562D01*
X30662428Y50125562D02*
X30519571Y50173181D01*
X30519571Y50173181D02*
X30424333Y50173181D01*
X30424333Y50173181D02*
X30281476Y50125562D01*
X30281476Y50125562D02*
X30233857Y50077943D01*
X29281476Y49173181D02*
X29852904Y49173181D01*
X29567190Y49173181D02*
X29567190Y50173181D01*
X29567190Y50173181D02*
X29662428Y50030324D01*
X29662428Y50030324D02*
X29757666Y49935086D01*
X29757666Y49935086D02*
X29852904Y49887467D01*
X28329095Y49173181D02*
X28900523Y49173181D01*
X28614809Y49173181D02*
X28614809Y50173181D01*
X28614809Y50173181D02*
X28710047Y50030324D01*
X28710047Y50030324D02*
X28805285Y49935086D01*
X28805285Y49935086D02*
X28900523Y49887467D01*
X60332857Y34467420D02*
X60380476Y34419800D01*
X60380476Y34419800D02*
X60523333Y34372181D01*
X60523333Y34372181D02*
X60618571Y34372181D01*
X60618571Y34372181D02*
X60761428Y34419800D01*
X60761428Y34419800D02*
X60856666Y34515039D01*
X60856666Y34515039D02*
X60904285Y34610277D01*
X60904285Y34610277D02*
X60951904Y34800753D01*
X60951904Y34800753D02*
X60951904Y34943610D01*
X60951904Y34943610D02*
X60904285Y35134086D01*
X60904285Y35134086D02*
X60856666Y35229324D01*
X60856666Y35229324D02*
X60761428Y35324562D01*
X60761428Y35324562D02*
X60618571Y35372181D01*
X60618571Y35372181D02*
X60523333Y35372181D01*
X60523333Y35372181D02*
X60380476Y35324562D01*
X60380476Y35324562D02*
X60332857Y35276943D01*
X59380476Y34372181D02*
X59951904Y34372181D01*
X59666190Y34372181D02*
X59666190Y35372181D01*
X59666190Y35372181D02*
X59761428Y35229324D01*
X59761428Y35229324D02*
X59856666Y35134086D01*
X59856666Y35134086D02*
X59951904Y35086467D01*
X58523333Y35372181D02*
X58713809Y35372181D01*
X58713809Y35372181D02*
X58809047Y35324562D01*
X58809047Y35324562D02*
X58856666Y35276943D01*
X58856666Y35276943D02*
X58951904Y35134086D01*
X58951904Y35134086D02*
X58999523Y34943610D01*
X58999523Y34943610D02*
X58999523Y34562658D01*
X58999523Y34562658D02*
X58951904Y34467420D01*
X58951904Y34467420D02*
X58904285Y34419800D01*
X58904285Y34419800D02*
X58809047Y34372181D01*
X58809047Y34372181D02*
X58618571Y34372181D01*
X58618571Y34372181D02*
X58523333Y34419800D01*
X58523333Y34419800D02*
X58475714Y34467420D01*
X58475714Y34467420D02*
X58428095Y34562658D01*
X58428095Y34562658D02*
X58428095Y34800753D01*
X58428095Y34800753D02*
X58475714Y34895991D01*
X58475714Y34895991D02*
X58523333Y34943610D01*
X58523333Y34943610D02*
X58618571Y34991229D01*
X58618571Y34991229D02*
X58809047Y34991229D01*
X58809047Y34991229D02*
X58904285Y34943610D01*
X58904285Y34943610D02*
X58951904Y34895991D01*
X58951904Y34895991D02*
X58999523Y34800753D01*
X61798580Y30233858D02*
X61846200Y30281477D01*
X61846200Y30281477D02*
X61893819Y30424334D01*
X61893819Y30424334D02*
X61893819Y30519572D01*
X61893819Y30519572D02*
X61846200Y30662429D01*
X61846200Y30662429D02*
X61750961Y30757667D01*
X61750961Y30757667D02*
X61655723Y30805286D01*
X61655723Y30805286D02*
X61465247Y30852905D01*
X61465247Y30852905D02*
X61322390Y30852905D01*
X61322390Y30852905D02*
X61131914Y30805286D01*
X61131914Y30805286D02*
X61036676Y30757667D01*
X61036676Y30757667D02*
X60941438Y30662429D01*
X60941438Y30662429D02*
X60893819Y30519572D01*
X60893819Y30519572D02*
X60893819Y30424334D01*
X60893819Y30424334D02*
X60941438Y30281477D01*
X60941438Y30281477D02*
X60989057Y30233858D01*
X61893819Y29281477D02*
X61893819Y29852905D01*
X61893819Y29567191D02*
X60893819Y29567191D01*
X60893819Y29567191D02*
X61036676Y29662429D01*
X61036676Y29662429D02*
X61131914Y29757667D01*
X61131914Y29757667D02*
X61179533Y29852905D01*
X60893819Y28948143D02*
X60893819Y28281477D01*
X60893819Y28281477D02*
X61893819Y28710048D01*
X62961480Y30256658D02*
X63009100Y30304277D01*
X63009100Y30304277D02*
X63056719Y30447134D01*
X63056719Y30447134D02*
X63056719Y30542372D01*
X63056719Y30542372D02*
X63009100Y30685229D01*
X63009100Y30685229D02*
X62913861Y30780467D01*
X62913861Y30780467D02*
X62818623Y30828086D01*
X62818623Y30828086D02*
X62628147Y30875705D01*
X62628147Y30875705D02*
X62485290Y30875705D01*
X62485290Y30875705D02*
X62294814Y30828086D01*
X62294814Y30828086D02*
X62199576Y30780467D01*
X62199576Y30780467D02*
X62104338Y30685229D01*
X62104338Y30685229D02*
X62056719Y30542372D01*
X62056719Y30542372D02*
X62056719Y30447134D01*
X62056719Y30447134D02*
X62104338Y30304277D01*
X62104338Y30304277D02*
X62151957Y30256658D01*
X63056719Y29304277D02*
X63056719Y29875705D01*
X63056719Y29589991D02*
X62056719Y29589991D01*
X62056719Y29589991D02*
X62199576Y29685229D01*
X62199576Y29685229D02*
X62294814Y29780467D01*
X62294814Y29780467D02*
X62342433Y29875705D01*
X62485290Y28732848D02*
X62437671Y28828086D01*
X62437671Y28828086D02*
X62390052Y28875705D01*
X62390052Y28875705D02*
X62294814Y28923324D01*
X62294814Y28923324D02*
X62247195Y28923324D01*
X62247195Y28923324D02*
X62151957Y28875705D01*
X62151957Y28875705D02*
X62104338Y28828086D01*
X62104338Y28828086D02*
X62056719Y28732848D01*
X62056719Y28732848D02*
X62056719Y28542372D01*
X62056719Y28542372D02*
X62104338Y28447134D01*
X62104338Y28447134D02*
X62151957Y28399515D01*
X62151957Y28399515D02*
X62247195Y28351896D01*
X62247195Y28351896D02*
X62294814Y28351896D01*
X62294814Y28351896D02*
X62390052Y28399515D01*
X62390052Y28399515D02*
X62437671Y28447134D01*
X62437671Y28447134D02*
X62485290Y28542372D01*
X62485290Y28542372D02*
X62485290Y28732848D01*
X62485290Y28732848D02*
X62532909Y28828086D01*
X62532909Y28828086D02*
X62580528Y28875705D01*
X62580528Y28875705D02*
X62675766Y28923324D01*
X62675766Y28923324D02*
X62866242Y28923324D01*
X62866242Y28923324D02*
X62961480Y28875705D01*
X62961480Y28875705D02*
X63009100Y28828086D01*
X63009100Y28828086D02*
X63056719Y28732848D01*
X63056719Y28732848D02*
X63056719Y28542372D01*
X63056719Y28542372D02*
X63009100Y28447134D01*
X63009100Y28447134D02*
X62961480Y28399515D01*
X62961480Y28399515D02*
X62866242Y28351896D01*
X62866242Y28351896D02*
X62675766Y28351896D01*
X62675766Y28351896D02*
X62580528Y28399515D01*
X62580528Y28399515D02*
X62532909Y28447134D01*
X62532909Y28447134D02*
X62485290Y28542372D01*
X31408666Y23947181D02*
X31884856Y23947181D01*
X31884856Y23947181D02*
X31884856Y24947181D01*
X30551523Y23947181D02*
X31122951Y23947181D01*
X30837237Y23947181D02*
X30837237Y24947181D01*
X30837237Y24947181D02*
X30932475Y24804324D01*
X30932475Y24804324D02*
X31027713Y24709086D01*
X31027713Y24709086D02*
X31122951Y24661467D01*
X29559238Y39333943D02*
X29654476Y39381562D01*
X29654476Y39381562D02*
X29749714Y39476800D01*
X29749714Y39476800D02*
X29892571Y39619658D01*
X29892571Y39619658D02*
X29987809Y39667277D01*
X29987809Y39667277D02*
X30083047Y39667277D01*
X30035428Y39429181D02*
X30130666Y39476800D01*
X30130666Y39476800D02*
X30225904Y39572039D01*
X30225904Y39572039D02*
X30273523Y39762515D01*
X30273523Y39762515D02*
X30273523Y40095848D01*
X30273523Y40095848D02*
X30225904Y40286324D01*
X30225904Y40286324D02*
X30130666Y40381562D01*
X30130666Y40381562D02*
X30035428Y40429181D01*
X30035428Y40429181D02*
X29844952Y40429181D01*
X29844952Y40429181D02*
X29749714Y40381562D01*
X29749714Y40381562D02*
X29654476Y40286324D01*
X29654476Y40286324D02*
X29606857Y40095848D01*
X29606857Y40095848D02*
X29606857Y39762515D01*
X29606857Y39762515D02*
X29654476Y39572039D01*
X29654476Y39572039D02*
X29749714Y39476800D01*
X29749714Y39476800D02*
X29844952Y39429181D01*
X29844952Y39429181D02*
X30035428Y39429181D01*
X28654476Y39429181D02*
X29225904Y39429181D01*
X28940190Y39429181D02*
X28940190Y40429181D01*
X28940190Y40429181D02*
X29035428Y40286324D01*
X29035428Y40286324D02*
X29130666Y40191086D01*
X29130666Y40191086D02*
X29225904Y40143467D01*
X14552819Y37631667D02*
X14076628Y37965000D01*
X14552819Y38203095D02*
X13552819Y38203095D01*
X13552819Y38203095D02*
X13552819Y37822143D01*
X13552819Y37822143D02*
X13600438Y37726905D01*
X13600438Y37726905D02*
X13648057Y37679286D01*
X13648057Y37679286D02*
X13743295Y37631667D01*
X13743295Y37631667D02*
X13886152Y37631667D01*
X13886152Y37631667D02*
X13981390Y37679286D01*
X13981390Y37679286D02*
X14029009Y37726905D01*
X14029009Y37726905D02*
X14076628Y37822143D01*
X14076628Y37822143D02*
X14076628Y38203095D01*
X14552819Y36679286D02*
X14552819Y37250714D01*
X14552819Y36965000D02*
X13552819Y36965000D01*
X13552819Y36965000D02*
X13695676Y37060238D01*
X13695676Y37060238D02*
X13790914Y37155476D01*
X13790914Y37155476D02*
X13838533Y37250714D01*
X23661666Y45137181D02*
X23994999Y45613372D01*
X24233094Y45137181D02*
X24233094Y46137181D01*
X24233094Y46137181D02*
X23852142Y46137181D01*
X23852142Y46137181D02*
X23756904Y46089562D01*
X23756904Y46089562D02*
X23709285Y46041943D01*
X23709285Y46041943D02*
X23661666Y45946705D01*
X23661666Y45946705D02*
X23661666Y45803848D01*
X23661666Y45803848D02*
X23709285Y45708610D01*
X23709285Y45708610D02*
X23756904Y45660991D01*
X23756904Y45660991D02*
X23852142Y45613372D01*
X23852142Y45613372D02*
X24233094Y45613372D01*
X23328332Y46137181D02*
X22709285Y46137181D01*
X22709285Y46137181D02*
X23042618Y45756229D01*
X23042618Y45756229D02*
X22899761Y45756229D01*
X22899761Y45756229D02*
X22804523Y45708610D01*
X22804523Y45708610D02*
X22756904Y45660991D01*
X22756904Y45660991D02*
X22709285Y45565753D01*
X22709285Y45565753D02*
X22709285Y45327658D01*
X22709285Y45327658D02*
X22756904Y45232420D01*
X22756904Y45232420D02*
X22804523Y45184800D01*
X22804523Y45184800D02*
X22899761Y45137181D01*
X22899761Y45137181D02*
X23185475Y45137181D01*
X23185475Y45137181D02*
X23280713Y45184800D01*
X23280713Y45184800D02*
X23328332Y45232420D01*
X28487666Y33836181D02*
X28820999Y34312372D01*
X29059094Y33836181D02*
X29059094Y34836181D01*
X29059094Y34836181D02*
X28678142Y34836181D01*
X28678142Y34836181D02*
X28582904Y34788562D01*
X28582904Y34788562D02*
X28535285Y34740943D01*
X28535285Y34740943D02*
X28487666Y34645705D01*
X28487666Y34645705D02*
X28487666Y34502848D01*
X28487666Y34502848D02*
X28535285Y34407610D01*
X28535285Y34407610D02*
X28582904Y34359991D01*
X28582904Y34359991D02*
X28678142Y34312372D01*
X28678142Y34312372D02*
X29059094Y34312372D01*
X27582904Y34836181D02*
X28059094Y34836181D01*
X28059094Y34836181D02*
X28106713Y34359991D01*
X28106713Y34359991D02*
X28059094Y34407610D01*
X28059094Y34407610D02*
X27963856Y34455229D01*
X27963856Y34455229D02*
X27725761Y34455229D01*
X27725761Y34455229D02*
X27630523Y34407610D01*
X27630523Y34407610D02*
X27582904Y34359991D01*
X27582904Y34359991D02*
X27535285Y34264753D01*
X27535285Y34264753D02*
X27535285Y34026658D01*
X27535285Y34026658D02*
X27582904Y33931420D01*
X27582904Y33931420D02*
X27630523Y33883800D01*
X27630523Y33883800D02*
X27725761Y33836181D01*
X27725761Y33836181D02*
X27963856Y33836181D01*
X27963856Y33836181D02*
X28059094Y33883800D01*
X28059094Y33883800D02*
X28106713Y33931420D01*
X37791819Y40298667D02*
X37315628Y40632000D01*
X37791819Y40870095D02*
X36791819Y40870095D01*
X36791819Y40870095D02*
X36791819Y40489143D01*
X36791819Y40489143D02*
X36839438Y40393905D01*
X36839438Y40393905D02*
X36887057Y40346286D01*
X36887057Y40346286D02*
X36982295Y40298667D01*
X36982295Y40298667D02*
X37125152Y40298667D01*
X37125152Y40298667D02*
X37220390Y40346286D01*
X37220390Y40346286D02*
X37268009Y40393905D01*
X37268009Y40393905D02*
X37315628Y40489143D01*
X37315628Y40489143D02*
X37315628Y40870095D01*
X36791819Y39441524D02*
X36791819Y39632000D01*
X36791819Y39632000D02*
X36839438Y39727238D01*
X36839438Y39727238D02*
X36887057Y39774857D01*
X36887057Y39774857D02*
X37029914Y39870095D01*
X37029914Y39870095D02*
X37220390Y39917714D01*
X37220390Y39917714D02*
X37601342Y39917714D01*
X37601342Y39917714D02*
X37696580Y39870095D01*
X37696580Y39870095D02*
X37744200Y39822476D01*
X37744200Y39822476D02*
X37791819Y39727238D01*
X37791819Y39727238D02*
X37791819Y39536762D01*
X37791819Y39536762D02*
X37744200Y39441524D01*
X37744200Y39441524D02*
X37696580Y39393905D01*
X37696580Y39393905D02*
X37601342Y39346286D01*
X37601342Y39346286D02*
X37363247Y39346286D01*
X37363247Y39346286D02*
X37268009Y39393905D01*
X37268009Y39393905D02*
X37220390Y39441524D01*
X37220390Y39441524D02*
X37172771Y39536762D01*
X37172771Y39536762D02*
X37172771Y39727238D01*
X37172771Y39727238D02*
X37220390Y39822476D01*
X37220390Y39822476D02*
X37268009Y39870095D01*
X37268009Y39870095D02*
X37363247Y39917714D01*
X23534666Y32945181D02*
X23867999Y33421372D01*
X24106094Y32945181D02*
X24106094Y33945181D01*
X24106094Y33945181D02*
X23725142Y33945181D01*
X23725142Y33945181D02*
X23629904Y33897562D01*
X23629904Y33897562D02*
X23582285Y33849943D01*
X23582285Y33849943D02*
X23534666Y33754705D01*
X23534666Y33754705D02*
X23534666Y33611848D01*
X23534666Y33611848D02*
X23582285Y33516610D01*
X23582285Y33516610D02*
X23629904Y33468991D01*
X23629904Y33468991D02*
X23725142Y33421372D01*
X23725142Y33421372D02*
X24106094Y33421372D01*
X23201332Y33945181D02*
X22534666Y33945181D01*
X22534666Y33945181D02*
X22963237Y32945181D01*
X40806666Y29518181D02*
X41139999Y29994372D01*
X41378094Y29518181D02*
X41378094Y30518181D01*
X41378094Y30518181D02*
X40997142Y30518181D01*
X40997142Y30518181D02*
X40901904Y30470562D01*
X40901904Y30470562D02*
X40854285Y30422943D01*
X40854285Y30422943D02*
X40806666Y30327705D01*
X40806666Y30327705D02*
X40806666Y30184848D01*
X40806666Y30184848D02*
X40854285Y30089610D01*
X40854285Y30089610D02*
X40901904Y30041991D01*
X40901904Y30041991D02*
X40997142Y29994372D01*
X40997142Y29994372D02*
X41378094Y29994372D01*
X40235237Y30089610D02*
X40330475Y30137229D01*
X40330475Y30137229D02*
X40378094Y30184848D01*
X40378094Y30184848D02*
X40425713Y30280086D01*
X40425713Y30280086D02*
X40425713Y30327705D01*
X40425713Y30327705D02*
X40378094Y30422943D01*
X40378094Y30422943D02*
X40330475Y30470562D01*
X40330475Y30470562D02*
X40235237Y30518181D01*
X40235237Y30518181D02*
X40044761Y30518181D01*
X40044761Y30518181D02*
X39949523Y30470562D01*
X39949523Y30470562D02*
X39901904Y30422943D01*
X39901904Y30422943D02*
X39854285Y30327705D01*
X39854285Y30327705D02*
X39854285Y30280086D01*
X39854285Y30280086D02*
X39901904Y30184848D01*
X39901904Y30184848D02*
X39949523Y30137229D01*
X39949523Y30137229D02*
X40044761Y30089610D01*
X40044761Y30089610D02*
X40235237Y30089610D01*
X40235237Y30089610D02*
X40330475Y30041991D01*
X40330475Y30041991D02*
X40378094Y29994372D01*
X40378094Y29994372D02*
X40425713Y29899134D01*
X40425713Y29899134D02*
X40425713Y29708658D01*
X40425713Y29708658D02*
X40378094Y29613420D01*
X40378094Y29613420D02*
X40330475Y29565800D01*
X40330475Y29565800D02*
X40235237Y29518181D01*
X40235237Y29518181D02*
X40044761Y29518181D01*
X40044761Y29518181D02*
X39949523Y29565800D01*
X39949523Y29565800D02*
X39901904Y29613420D01*
X39901904Y29613420D02*
X39854285Y29708658D01*
X39854285Y29708658D02*
X39854285Y29899134D01*
X39854285Y29899134D02*
X39901904Y29994372D01*
X39901904Y29994372D02*
X39949523Y30041991D01*
X39949523Y30041991D02*
X40044761Y30089610D01*
X38647666Y26470181D02*
X38980999Y26946372D01*
X39219094Y26470181D02*
X39219094Y27470181D01*
X39219094Y27470181D02*
X38838142Y27470181D01*
X38838142Y27470181D02*
X38742904Y27422562D01*
X38742904Y27422562D02*
X38695285Y27374943D01*
X38695285Y27374943D02*
X38647666Y27279705D01*
X38647666Y27279705D02*
X38647666Y27136848D01*
X38647666Y27136848D02*
X38695285Y27041610D01*
X38695285Y27041610D02*
X38742904Y26993991D01*
X38742904Y26993991D02*
X38838142Y26946372D01*
X38838142Y26946372D02*
X39219094Y26946372D01*
X38171475Y26470181D02*
X37980999Y26470181D01*
X37980999Y26470181D02*
X37885761Y26517800D01*
X37885761Y26517800D02*
X37838142Y26565420D01*
X37838142Y26565420D02*
X37742904Y26708277D01*
X37742904Y26708277D02*
X37695285Y26898753D01*
X37695285Y26898753D02*
X37695285Y27279705D01*
X37695285Y27279705D02*
X37742904Y27374943D01*
X37742904Y27374943D02*
X37790523Y27422562D01*
X37790523Y27422562D02*
X37885761Y27470181D01*
X37885761Y27470181D02*
X38076237Y27470181D01*
X38076237Y27470181D02*
X38171475Y27422562D01*
X38171475Y27422562D02*
X38219094Y27374943D01*
X38219094Y27374943D02*
X38266713Y27279705D01*
X38266713Y27279705D02*
X38266713Y27041610D01*
X38266713Y27041610D02*
X38219094Y26946372D01*
X38219094Y26946372D02*
X38171475Y26898753D01*
X38171475Y26898753D02*
X38076237Y26851134D01*
X38076237Y26851134D02*
X37885761Y26851134D01*
X37885761Y26851134D02*
X37790523Y26898753D01*
X37790523Y26898753D02*
X37742904Y26946372D01*
X37742904Y26946372D02*
X37695285Y27041610D01*
X37853857Y61647181D02*
X38187190Y62123372D01*
X38425285Y61647181D02*
X38425285Y62647181D01*
X38425285Y62647181D02*
X38044333Y62647181D01*
X38044333Y62647181D02*
X37949095Y62599562D01*
X37949095Y62599562D02*
X37901476Y62551943D01*
X37901476Y62551943D02*
X37853857Y62456705D01*
X37853857Y62456705D02*
X37853857Y62313848D01*
X37853857Y62313848D02*
X37901476Y62218610D01*
X37901476Y62218610D02*
X37949095Y62170991D01*
X37949095Y62170991D02*
X38044333Y62123372D01*
X38044333Y62123372D02*
X38425285Y62123372D01*
X36901476Y61647181D02*
X37472904Y61647181D01*
X37187190Y61647181D02*
X37187190Y62647181D01*
X37187190Y62647181D02*
X37282428Y62504324D01*
X37282428Y62504324D02*
X37377666Y62409086D01*
X37377666Y62409086D02*
X37472904Y62361467D01*
X35949095Y61647181D02*
X36520523Y61647181D01*
X36234809Y61647181D02*
X36234809Y62647181D01*
X36234809Y62647181D02*
X36330047Y62504324D01*
X36330047Y62504324D02*
X36425285Y62409086D01*
X36425285Y62409086D02*
X36520523Y62361467D01*
X40012857Y44715181D02*
X40346190Y45191372D01*
X40584285Y44715181D02*
X40584285Y45715181D01*
X40584285Y45715181D02*
X40203333Y45715181D01*
X40203333Y45715181D02*
X40108095Y45667562D01*
X40108095Y45667562D02*
X40060476Y45619943D01*
X40060476Y45619943D02*
X40012857Y45524705D01*
X40012857Y45524705D02*
X40012857Y45381848D01*
X40012857Y45381848D02*
X40060476Y45286610D01*
X40060476Y45286610D02*
X40108095Y45238991D01*
X40108095Y45238991D02*
X40203333Y45191372D01*
X40203333Y45191372D02*
X40584285Y45191372D01*
X39060476Y44715181D02*
X39631904Y44715181D01*
X39346190Y44715181D02*
X39346190Y45715181D01*
X39346190Y45715181D02*
X39441428Y45572324D01*
X39441428Y45572324D02*
X39536666Y45477086D01*
X39536666Y45477086D02*
X39631904Y45429467D01*
X38727142Y45715181D02*
X38060476Y45715181D01*
X38060476Y45715181D02*
X38489047Y44715181D01*
X47064819Y45346858D02*
X46588628Y45680191D01*
X47064819Y45918286D02*
X46064819Y45918286D01*
X46064819Y45918286D02*
X46064819Y45537334D01*
X46064819Y45537334D02*
X46112438Y45442096D01*
X46112438Y45442096D02*
X46160057Y45394477D01*
X46160057Y45394477D02*
X46255295Y45346858D01*
X46255295Y45346858D02*
X46398152Y45346858D01*
X46398152Y45346858D02*
X46493390Y45394477D01*
X46493390Y45394477D02*
X46541009Y45442096D01*
X46541009Y45442096D02*
X46588628Y45537334D01*
X46588628Y45537334D02*
X46588628Y45918286D01*
X47064819Y44394477D02*
X47064819Y44965905D01*
X47064819Y44680191D02*
X46064819Y44680191D01*
X46064819Y44680191D02*
X46207676Y44775429D01*
X46207676Y44775429D02*
X46302914Y44870667D01*
X46302914Y44870667D02*
X46350533Y44965905D01*
X46493390Y43823048D02*
X46445771Y43918286D01*
X46445771Y43918286D02*
X46398152Y43965905D01*
X46398152Y43965905D02*
X46302914Y44013524D01*
X46302914Y44013524D02*
X46255295Y44013524D01*
X46255295Y44013524D02*
X46160057Y43965905D01*
X46160057Y43965905D02*
X46112438Y43918286D01*
X46112438Y43918286D02*
X46064819Y43823048D01*
X46064819Y43823048D02*
X46064819Y43632572D01*
X46064819Y43632572D02*
X46112438Y43537334D01*
X46112438Y43537334D02*
X46160057Y43489715D01*
X46160057Y43489715D02*
X46255295Y43442096D01*
X46255295Y43442096D02*
X46302914Y43442096D01*
X46302914Y43442096D02*
X46398152Y43489715D01*
X46398152Y43489715D02*
X46445771Y43537334D01*
X46445771Y43537334D02*
X46493390Y43632572D01*
X46493390Y43632572D02*
X46493390Y43823048D01*
X46493390Y43823048D02*
X46541009Y43918286D01*
X46541009Y43918286D02*
X46588628Y43965905D01*
X46588628Y43965905D02*
X46683866Y44013524D01*
X46683866Y44013524D02*
X46874342Y44013524D01*
X46874342Y44013524D02*
X46969580Y43965905D01*
X46969580Y43965905D02*
X47017200Y43918286D01*
X47017200Y43918286D02*
X47064819Y43823048D01*
X47064819Y43823048D02*
X47064819Y43632572D01*
X47064819Y43632572D02*
X47017200Y43537334D01*
X47017200Y43537334D02*
X46969580Y43489715D01*
X46969580Y43489715D02*
X46874342Y43442096D01*
X46874342Y43442096D02*
X46683866Y43442096D01*
X46683866Y43442096D02*
X46588628Y43489715D01*
X46588628Y43489715D02*
X46541009Y43537334D01*
X46541009Y43537334D02*
X46493390Y43632572D01*
X49664857Y48947181D02*
X49998190Y49423372D01*
X50236285Y48947181D02*
X50236285Y49947181D01*
X50236285Y49947181D02*
X49855333Y49947181D01*
X49855333Y49947181D02*
X49760095Y49899562D01*
X49760095Y49899562D02*
X49712476Y49851943D01*
X49712476Y49851943D02*
X49664857Y49756705D01*
X49664857Y49756705D02*
X49664857Y49613848D01*
X49664857Y49613848D02*
X49712476Y49518610D01*
X49712476Y49518610D02*
X49760095Y49470991D01*
X49760095Y49470991D02*
X49855333Y49423372D01*
X49855333Y49423372D02*
X50236285Y49423372D01*
X48712476Y48947181D02*
X49283904Y48947181D01*
X48998190Y48947181D02*
X48998190Y49947181D01*
X48998190Y49947181D02*
X49093428Y49804324D01*
X49093428Y49804324D02*
X49188666Y49709086D01*
X49188666Y49709086D02*
X49283904Y49661467D01*
X48236285Y48947181D02*
X48045809Y48947181D01*
X48045809Y48947181D02*
X47950571Y48994800D01*
X47950571Y48994800D02*
X47902952Y49042420D01*
X47902952Y49042420D02*
X47807714Y49185277D01*
X47807714Y49185277D02*
X47760095Y49375753D01*
X47760095Y49375753D02*
X47760095Y49756705D01*
X47760095Y49756705D02*
X47807714Y49851943D01*
X47807714Y49851943D02*
X47855333Y49899562D01*
X47855333Y49899562D02*
X47950571Y49947181D01*
X47950571Y49947181D02*
X48141047Y49947181D01*
X48141047Y49947181D02*
X48236285Y49899562D01*
X48236285Y49899562D02*
X48283904Y49851943D01*
X48283904Y49851943D02*
X48331523Y49756705D01*
X48331523Y49756705D02*
X48331523Y49518610D01*
X48331523Y49518610D02*
X48283904Y49423372D01*
X48283904Y49423372D02*
X48236285Y49375753D01*
X48236285Y49375753D02*
X48141047Y49328134D01*
X48141047Y49328134D02*
X47950571Y49328134D01*
X47950571Y49328134D02*
X47855333Y49375753D01*
X47855333Y49375753D02*
X47807714Y49423372D01*
X47807714Y49423372D02*
X47760095Y49518610D01*
X55825819Y34424858D02*
X55349628Y34758191D01*
X55825819Y34996286D02*
X54825819Y34996286D01*
X54825819Y34996286D02*
X54825819Y34615334D01*
X54825819Y34615334D02*
X54873438Y34520096D01*
X54873438Y34520096D02*
X54921057Y34472477D01*
X54921057Y34472477D02*
X55016295Y34424858D01*
X55016295Y34424858D02*
X55159152Y34424858D01*
X55159152Y34424858D02*
X55254390Y34472477D01*
X55254390Y34472477D02*
X55302009Y34520096D01*
X55302009Y34520096D02*
X55349628Y34615334D01*
X55349628Y34615334D02*
X55349628Y34996286D01*
X54921057Y34043905D02*
X54873438Y33996286D01*
X54873438Y33996286D02*
X54825819Y33901048D01*
X54825819Y33901048D02*
X54825819Y33662953D01*
X54825819Y33662953D02*
X54873438Y33567715D01*
X54873438Y33567715D02*
X54921057Y33520096D01*
X54921057Y33520096D02*
X55016295Y33472477D01*
X55016295Y33472477D02*
X55111533Y33472477D01*
X55111533Y33472477D02*
X55254390Y33520096D01*
X55254390Y33520096D02*
X55825819Y34091524D01*
X55825819Y34091524D02*
X55825819Y33472477D01*
X54825819Y32853429D02*
X54825819Y32758191D01*
X54825819Y32758191D02*
X54873438Y32662953D01*
X54873438Y32662953D02*
X54921057Y32615334D01*
X54921057Y32615334D02*
X55016295Y32567715D01*
X55016295Y32567715D02*
X55206771Y32520096D01*
X55206771Y32520096D02*
X55444866Y32520096D01*
X55444866Y32520096D02*
X55635342Y32567715D01*
X55635342Y32567715D02*
X55730580Y32615334D01*
X55730580Y32615334D02*
X55778200Y32662953D01*
X55778200Y32662953D02*
X55825819Y32758191D01*
X55825819Y32758191D02*
X55825819Y32853429D01*
X55825819Y32853429D02*
X55778200Y32948667D01*
X55778200Y32948667D02*
X55730580Y32996286D01*
X55730580Y32996286D02*
X55635342Y33043905D01*
X55635342Y33043905D02*
X55444866Y33091524D01*
X55444866Y33091524D02*
X55206771Y33091524D01*
X55206771Y33091524D02*
X55016295Y33043905D01*
X55016295Y33043905D02*
X54921057Y32996286D01*
X54921057Y32996286D02*
X54873438Y32948667D01*
X54873438Y32948667D02*
X54825819Y32853429D01*
X51255819Y48775858D02*
X50779628Y49109191D01*
X51255819Y49347286D02*
X50255819Y49347286D01*
X50255819Y49347286D02*
X50255819Y48966334D01*
X50255819Y48966334D02*
X50303438Y48871096D01*
X50303438Y48871096D02*
X50351057Y48823477D01*
X50351057Y48823477D02*
X50446295Y48775858D01*
X50446295Y48775858D02*
X50589152Y48775858D01*
X50589152Y48775858D02*
X50684390Y48823477D01*
X50684390Y48823477D02*
X50732009Y48871096D01*
X50732009Y48871096D02*
X50779628Y48966334D01*
X50779628Y48966334D02*
X50779628Y49347286D01*
X50351057Y48394905D02*
X50303438Y48347286D01*
X50303438Y48347286D02*
X50255819Y48252048D01*
X50255819Y48252048D02*
X50255819Y48013953D01*
X50255819Y48013953D02*
X50303438Y47918715D01*
X50303438Y47918715D02*
X50351057Y47871096D01*
X50351057Y47871096D02*
X50446295Y47823477D01*
X50446295Y47823477D02*
X50541533Y47823477D01*
X50541533Y47823477D02*
X50684390Y47871096D01*
X50684390Y47871096D02*
X51255819Y48442524D01*
X51255819Y48442524D02*
X51255819Y47823477D01*
X50255819Y47490143D02*
X50255819Y46871096D01*
X50255819Y46871096D02*
X50636771Y47204429D01*
X50636771Y47204429D02*
X50636771Y47061572D01*
X50636771Y47061572D02*
X50684390Y46966334D01*
X50684390Y46966334D02*
X50732009Y46918715D01*
X50732009Y46918715D02*
X50827247Y46871096D01*
X50827247Y46871096D02*
X51065342Y46871096D01*
X51065342Y46871096D02*
X51160580Y46918715D01*
X51160580Y46918715D02*
X51208200Y46966334D01*
X51208200Y46966334D02*
X51255819Y47061572D01*
X51255819Y47061572D02*
X51255819Y47347286D01*
X51255819Y47347286D02*
X51208200Y47442524D01*
X51208200Y47442524D02*
X51160580Y47490143D01*
X54557819Y34424858D02*
X54081628Y34758191D01*
X54557819Y34996286D02*
X53557819Y34996286D01*
X53557819Y34996286D02*
X53557819Y34615334D01*
X53557819Y34615334D02*
X53605438Y34520096D01*
X53605438Y34520096D02*
X53653057Y34472477D01*
X53653057Y34472477D02*
X53748295Y34424858D01*
X53748295Y34424858D02*
X53891152Y34424858D01*
X53891152Y34424858D02*
X53986390Y34472477D01*
X53986390Y34472477D02*
X54034009Y34520096D01*
X54034009Y34520096D02*
X54081628Y34615334D01*
X54081628Y34615334D02*
X54081628Y34996286D01*
X53653057Y34043905D02*
X53605438Y33996286D01*
X53605438Y33996286D02*
X53557819Y33901048D01*
X53557819Y33901048D02*
X53557819Y33662953D01*
X53557819Y33662953D02*
X53605438Y33567715D01*
X53605438Y33567715D02*
X53653057Y33520096D01*
X53653057Y33520096D02*
X53748295Y33472477D01*
X53748295Y33472477D02*
X53843533Y33472477D01*
X53843533Y33472477D02*
X53986390Y33520096D01*
X53986390Y33520096D02*
X54557819Y34091524D01*
X54557819Y34091524D02*
X54557819Y33472477D01*
X53891152Y32615334D02*
X54557819Y32615334D01*
X53510200Y32853429D02*
X54224485Y33091524D01*
X54224485Y33091524D02*
X54224485Y32472477D01*
X56589819Y41155858D02*
X56113628Y41489191D01*
X56589819Y41727286D02*
X55589819Y41727286D01*
X55589819Y41727286D02*
X55589819Y41346334D01*
X55589819Y41346334D02*
X55637438Y41251096D01*
X55637438Y41251096D02*
X55685057Y41203477D01*
X55685057Y41203477D02*
X55780295Y41155858D01*
X55780295Y41155858D02*
X55923152Y41155858D01*
X55923152Y41155858D02*
X56018390Y41203477D01*
X56018390Y41203477D02*
X56066009Y41251096D01*
X56066009Y41251096D02*
X56113628Y41346334D01*
X56113628Y41346334D02*
X56113628Y41727286D01*
X55685057Y40774905D02*
X55637438Y40727286D01*
X55637438Y40727286D02*
X55589819Y40632048D01*
X55589819Y40632048D02*
X55589819Y40393953D01*
X55589819Y40393953D02*
X55637438Y40298715D01*
X55637438Y40298715D02*
X55685057Y40251096D01*
X55685057Y40251096D02*
X55780295Y40203477D01*
X55780295Y40203477D02*
X55875533Y40203477D01*
X55875533Y40203477D02*
X56018390Y40251096D01*
X56018390Y40251096D02*
X56589819Y40822524D01*
X56589819Y40822524D02*
X56589819Y40203477D01*
X55589819Y39870143D02*
X55589819Y39203477D01*
X55589819Y39203477D02*
X56589819Y39632048D01*
X56649857Y38406181D02*
X56983190Y38882372D01*
X57221285Y38406181D02*
X57221285Y39406181D01*
X57221285Y39406181D02*
X56840333Y39406181D01*
X56840333Y39406181D02*
X56745095Y39358562D01*
X56745095Y39358562D02*
X56697476Y39310943D01*
X56697476Y39310943D02*
X56649857Y39215705D01*
X56649857Y39215705D02*
X56649857Y39072848D01*
X56649857Y39072848D02*
X56697476Y38977610D01*
X56697476Y38977610D02*
X56745095Y38929991D01*
X56745095Y38929991D02*
X56840333Y38882372D01*
X56840333Y38882372D02*
X57221285Y38882372D01*
X56268904Y39310943D02*
X56221285Y39358562D01*
X56221285Y39358562D02*
X56126047Y39406181D01*
X56126047Y39406181D02*
X55887952Y39406181D01*
X55887952Y39406181D02*
X55792714Y39358562D01*
X55792714Y39358562D02*
X55745095Y39310943D01*
X55745095Y39310943D02*
X55697476Y39215705D01*
X55697476Y39215705D02*
X55697476Y39120467D01*
X55697476Y39120467D02*
X55745095Y38977610D01*
X55745095Y38977610D02*
X56316523Y38406181D01*
X56316523Y38406181D02*
X55697476Y38406181D01*
X55126047Y38977610D02*
X55221285Y39025229D01*
X55221285Y39025229D02*
X55268904Y39072848D01*
X55268904Y39072848D02*
X55316523Y39168086D01*
X55316523Y39168086D02*
X55316523Y39215705D01*
X55316523Y39215705D02*
X55268904Y39310943D01*
X55268904Y39310943D02*
X55221285Y39358562D01*
X55221285Y39358562D02*
X55126047Y39406181D01*
X55126047Y39406181D02*
X54935571Y39406181D01*
X54935571Y39406181D02*
X54840333Y39358562D01*
X54840333Y39358562D02*
X54792714Y39310943D01*
X54792714Y39310943D02*
X54745095Y39215705D01*
X54745095Y39215705D02*
X54745095Y39168086D01*
X54745095Y39168086D02*
X54792714Y39072848D01*
X54792714Y39072848D02*
X54840333Y39025229D01*
X54840333Y39025229D02*
X54935571Y38977610D01*
X54935571Y38977610D02*
X55126047Y38977610D01*
X55126047Y38977610D02*
X55221285Y38929991D01*
X55221285Y38929991D02*
X55268904Y38882372D01*
X55268904Y38882372D02*
X55316523Y38787134D01*
X55316523Y38787134D02*
X55316523Y38596658D01*
X55316523Y38596658D02*
X55268904Y38501420D01*
X55268904Y38501420D02*
X55221285Y38453800D01*
X55221285Y38453800D02*
X55126047Y38406181D01*
X55126047Y38406181D02*
X54935571Y38406181D01*
X54935571Y38406181D02*
X54840333Y38453800D01*
X54840333Y38453800D02*
X54792714Y38501420D01*
X54792714Y38501420D02*
X54745095Y38596658D01*
X54745095Y38596658D02*
X54745095Y38787134D01*
X54745095Y38787134D02*
X54792714Y38882372D01*
X54792714Y38882372D02*
X54840333Y38929991D01*
X54840333Y38929991D02*
X54935571Y38977610D01*
X14257257Y42929381D02*
X14590590Y43405572D01*
X14828685Y42929381D02*
X14828685Y43929381D01*
X14828685Y43929381D02*
X14447733Y43929381D01*
X14447733Y43929381D02*
X14352495Y43881762D01*
X14352495Y43881762D02*
X14304876Y43834143D01*
X14304876Y43834143D02*
X14257257Y43738905D01*
X14257257Y43738905D02*
X14257257Y43596048D01*
X14257257Y43596048D02*
X14304876Y43500810D01*
X14304876Y43500810D02*
X14352495Y43453191D01*
X14352495Y43453191D02*
X14447733Y43405572D01*
X14447733Y43405572D02*
X14828685Y43405572D01*
X13923923Y43929381D02*
X13304876Y43929381D01*
X13304876Y43929381D02*
X13638209Y43548429D01*
X13638209Y43548429D02*
X13495352Y43548429D01*
X13495352Y43548429D02*
X13400114Y43500810D01*
X13400114Y43500810D02*
X13352495Y43453191D01*
X13352495Y43453191D02*
X13304876Y43357953D01*
X13304876Y43357953D02*
X13304876Y43119858D01*
X13304876Y43119858D02*
X13352495Y43024620D01*
X13352495Y43024620D02*
X13400114Y42977000D01*
X13400114Y42977000D02*
X13495352Y42929381D01*
X13495352Y42929381D02*
X13781066Y42929381D01*
X13781066Y42929381D02*
X13876304Y42977000D01*
X13876304Y42977000D02*
X13923923Y43024620D01*
X12923923Y43834143D02*
X12876304Y43881762D01*
X12876304Y43881762D02*
X12781066Y43929381D01*
X12781066Y43929381D02*
X12542971Y43929381D01*
X12542971Y43929381D02*
X12447733Y43881762D01*
X12447733Y43881762D02*
X12400114Y43834143D01*
X12400114Y43834143D02*
X12352495Y43738905D01*
X12352495Y43738905D02*
X12352495Y43643667D01*
X12352495Y43643667D02*
X12400114Y43500810D01*
X12400114Y43500810D02*
X12971542Y42929381D01*
X12971542Y42929381D02*
X12352495Y42929381D01*
X14485857Y23803181D02*
X14819190Y24279372D01*
X15057285Y23803181D02*
X15057285Y24803181D01*
X15057285Y24803181D02*
X14676333Y24803181D01*
X14676333Y24803181D02*
X14581095Y24755562D01*
X14581095Y24755562D02*
X14533476Y24707943D01*
X14533476Y24707943D02*
X14485857Y24612705D01*
X14485857Y24612705D02*
X14485857Y24469848D01*
X14485857Y24469848D02*
X14533476Y24374610D01*
X14533476Y24374610D02*
X14581095Y24326991D01*
X14581095Y24326991D02*
X14676333Y24279372D01*
X14676333Y24279372D02*
X15057285Y24279372D01*
X14152523Y24803181D02*
X13533476Y24803181D01*
X13533476Y24803181D02*
X13866809Y24422229D01*
X13866809Y24422229D02*
X13723952Y24422229D01*
X13723952Y24422229D02*
X13628714Y24374610D01*
X13628714Y24374610D02*
X13581095Y24326991D01*
X13581095Y24326991D02*
X13533476Y24231753D01*
X13533476Y24231753D02*
X13533476Y23993658D01*
X13533476Y23993658D02*
X13581095Y23898420D01*
X13581095Y23898420D02*
X13628714Y23850800D01*
X13628714Y23850800D02*
X13723952Y23803181D01*
X13723952Y23803181D02*
X14009666Y23803181D01*
X14009666Y23803181D02*
X14104904Y23850800D01*
X14104904Y23850800D02*
X14152523Y23898420D01*
X13200142Y24803181D02*
X12581095Y24803181D01*
X12581095Y24803181D02*
X12914428Y24422229D01*
X12914428Y24422229D02*
X12771571Y24422229D01*
X12771571Y24422229D02*
X12676333Y24374610D01*
X12676333Y24374610D02*
X12628714Y24326991D01*
X12628714Y24326991D02*
X12581095Y24231753D01*
X12581095Y24231753D02*
X12581095Y23993658D01*
X12581095Y23993658D02*
X12628714Y23898420D01*
X12628714Y23898420D02*
X12676333Y23850800D01*
X12676333Y23850800D02*
X12771571Y23803181D01*
X12771571Y23803181D02*
X13057285Y23803181D01*
X13057285Y23803181D02*
X13152523Y23850800D01*
X13152523Y23850800D02*
X13200142Y23898420D01*
X26387219Y46928067D02*
X25911028Y47261400D01*
X26387219Y47499495D02*
X25387219Y47499495D01*
X25387219Y47499495D02*
X25387219Y47118543D01*
X25387219Y47118543D02*
X25434838Y47023305D01*
X25434838Y47023305D02*
X25482457Y46975686D01*
X25482457Y46975686D02*
X25577695Y46928067D01*
X25577695Y46928067D02*
X25720552Y46928067D01*
X25720552Y46928067D02*
X25815790Y46975686D01*
X25815790Y46975686D02*
X25863409Y47023305D01*
X25863409Y47023305D02*
X25911028Y47118543D01*
X25911028Y47118543D02*
X25911028Y47499495D01*
X25720552Y46070924D02*
X26387219Y46070924D01*
X25339600Y46309019D02*
X26053885Y46547114D01*
X26053885Y46547114D02*
X26053885Y45928067D01*
X17838380Y41746467D02*
X17886000Y41794086D01*
X17886000Y41794086D02*
X17933619Y41936943D01*
X17933619Y41936943D02*
X17933619Y42032181D01*
X17933619Y42032181D02*
X17886000Y42175038D01*
X17886000Y42175038D02*
X17790761Y42270276D01*
X17790761Y42270276D02*
X17695523Y42317895D01*
X17695523Y42317895D02*
X17505047Y42365514D01*
X17505047Y42365514D02*
X17362190Y42365514D01*
X17362190Y42365514D02*
X17171714Y42317895D01*
X17171714Y42317895D02*
X17076476Y42270276D01*
X17076476Y42270276D02*
X16981238Y42175038D01*
X16981238Y42175038D02*
X16933619Y42032181D01*
X16933619Y42032181D02*
X16933619Y41936943D01*
X16933619Y41936943D02*
X16981238Y41794086D01*
X16981238Y41794086D02*
X17028857Y41746467D01*
X17266952Y40889324D02*
X17933619Y40889324D01*
X16886000Y41127419D02*
X17600285Y41365514D01*
X17600285Y41365514D02*
X17600285Y40746467D01*
X20073580Y41695667D02*
X20121200Y41743286D01*
X20121200Y41743286D02*
X20168819Y41886143D01*
X20168819Y41886143D02*
X20168819Y41981381D01*
X20168819Y41981381D02*
X20121200Y42124238D01*
X20121200Y42124238D02*
X20025961Y42219476D01*
X20025961Y42219476D02*
X19930723Y42267095D01*
X19930723Y42267095D02*
X19740247Y42314714D01*
X19740247Y42314714D02*
X19597390Y42314714D01*
X19597390Y42314714D02*
X19406914Y42267095D01*
X19406914Y42267095D02*
X19311676Y42219476D01*
X19311676Y42219476D02*
X19216438Y42124238D01*
X19216438Y42124238D02*
X19168819Y41981381D01*
X19168819Y41981381D02*
X19168819Y41886143D01*
X19168819Y41886143D02*
X19216438Y41743286D01*
X19216438Y41743286D02*
X19264057Y41695667D01*
X19168819Y41362333D02*
X19168819Y40743286D01*
X19168819Y40743286D02*
X19549771Y41076619D01*
X19549771Y41076619D02*
X19549771Y40933762D01*
X19549771Y40933762D02*
X19597390Y40838524D01*
X19597390Y40838524D02*
X19645009Y40790905D01*
X19645009Y40790905D02*
X19740247Y40743286D01*
X19740247Y40743286D02*
X19978342Y40743286D01*
X19978342Y40743286D02*
X20073580Y40790905D01*
X20073580Y40790905D02*
X20121200Y40838524D01*
X20121200Y40838524D02*
X20168819Y40933762D01*
X20168819Y40933762D02*
X20168819Y41219476D01*
X20168819Y41219476D02*
X20121200Y41314714D01*
X20121200Y41314714D02*
X20073580Y41362333D01*
X22283380Y41644867D02*
X22331000Y41692486D01*
X22331000Y41692486D02*
X22378619Y41835343D01*
X22378619Y41835343D02*
X22378619Y41930581D01*
X22378619Y41930581D02*
X22331000Y42073438D01*
X22331000Y42073438D02*
X22235761Y42168676D01*
X22235761Y42168676D02*
X22140523Y42216295D01*
X22140523Y42216295D02*
X21950047Y42263914D01*
X21950047Y42263914D02*
X21807190Y42263914D01*
X21807190Y42263914D02*
X21616714Y42216295D01*
X21616714Y42216295D02*
X21521476Y42168676D01*
X21521476Y42168676D02*
X21426238Y42073438D01*
X21426238Y42073438D02*
X21378619Y41930581D01*
X21378619Y41930581D02*
X21378619Y41835343D01*
X21378619Y41835343D02*
X21426238Y41692486D01*
X21426238Y41692486D02*
X21473857Y41644867D01*
X21473857Y41263914D02*
X21426238Y41216295D01*
X21426238Y41216295D02*
X21378619Y41121057D01*
X21378619Y41121057D02*
X21378619Y40882962D01*
X21378619Y40882962D02*
X21426238Y40787724D01*
X21426238Y40787724D02*
X21473857Y40740105D01*
X21473857Y40740105D02*
X21569095Y40692486D01*
X21569095Y40692486D02*
X21664333Y40692486D01*
X21664333Y40692486D02*
X21807190Y40740105D01*
X21807190Y40740105D02*
X22378619Y41311533D01*
X22378619Y41311533D02*
X22378619Y40692486D01*
X37726580Y29725858D02*
X37774200Y29773477D01*
X37774200Y29773477D02*
X37821819Y29916334D01*
X37821819Y29916334D02*
X37821819Y30011572D01*
X37821819Y30011572D02*
X37774200Y30154429D01*
X37774200Y30154429D02*
X37678961Y30249667D01*
X37678961Y30249667D02*
X37583723Y30297286D01*
X37583723Y30297286D02*
X37393247Y30344905D01*
X37393247Y30344905D02*
X37250390Y30344905D01*
X37250390Y30344905D02*
X37059914Y30297286D01*
X37059914Y30297286D02*
X36964676Y30249667D01*
X36964676Y30249667D02*
X36869438Y30154429D01*
X36869438Y30154429D02*
X36821819Y30011572D01*
X36821819Y30011572D02*
X36821819Y29916334D01*
X36821819Y29916334D02*
X36869438Y29773477D01*
X36869438Y29773477D02*
X36917057Y29725858D01*
X37821819Y28773477D02*
X37821819Y29344905D01*
X37821819Y29059191D02*
X36821819Y29059191D01*
X36821819Y29059191D02*
X36964676Y29154429D01*
X36964676Y29154429D02*
X37059914Y29249667D01*
X37059914Y29249667D02*
X37107533Y29344905D01*
X36821819Y28154429D02*
X36821819Y28059191D01*
X36821819Y28059191D02*
X36869438Y27963953D01*
X36869438Y27963953D02*
X36917057Y27916334D01*
X36917057Y27916334D02*
X37012295Y27868715D01*
X37012295Y27868715D02*
X37202771Y27821096D01*
X37202771Y27821096D02*
X37440866Y27821096D01*
X37440866Y27821096D02*
X37631342Y27868715D01*
X37631342Y27868715D02*
X37726580Y27916334D01*
X37726580Y27916334D02*
X37774200Y27963953D01*
X37774200Y27963953D02*
X37821819Y28059191D01*
X37821819Y28059191D02*
X37821819Y28154429D01*
X37821819Y28154429D02*
X37774200Y28249667D01*
X37774200Y28249667D02*
X37726580Y28297286D01*
X37726580Y28297286D02*
X37631342Y28344905D01*
X37631342Y28344905D02*
X37440866Y28392524D01*
X37440866Y28392524D02*
X37202771Y28392524D01*
X37202771Y28392524D02*
X37012295Y28344905D01*
X37012295Y28344905D02*
X36917057Y28297286D01*
X36917057Y28297286D02*
X36869438Y28249667D01*
X36869438Y28249667D02*
X36821819Y28154429D01*
X17725819Y33186667D02*
X17249628Y33520000D01*
X17725819Y33758095D02*
X16725819Y33758095D01*
X16725819Y33758095D02*
X16725819Y33377143D01*
X16725819Y33377143D02*
X16773438Y33281905D01*
X16773438Y33281905D02*
X16821057Y33234286D01*
X16821057Y33234286D02*
X16916295Y33186667D01*
X16916295Y33186667D02*
X17059152Y33186667D01*
X17059152Y33186667D02*
X17154390Y33234286D01*
X17154390Y33234286D02*
X17202009Y33281905D01*
X17202009Y33281905D02*
X17249628Y33377143D01*
X17249628Y33377143D02*
X17249628Y33758095D01*
X16821057Y32805714D02*
X16773438Y32758095D01*
X16773438Y32758095D02*
X16725819Y32662857D01*
X16725819Y32662857D02*
X16725819Y32424762D01*
X16725819Y32424762D02*
X16773438Y32329524D01*
X16773438Y32329524D02*
X16821057Y32281905D01*
X16821057Y32281905D02*
X16916295Y32234286D01*
X16916295Y32234286D02*
X17011533Y32234286D01*
X17011533Y32234286D02*
X17154390Y32281905D01*
X17154390Y32281905D02*
X17725819Y32853333D01*
X17725819Y32853333D02*
X17725819Y32234286D01*
X78620857Y32564181D02*
X78954190Y33040372D01*
X79192285Y32564181D02*
X79192285Y33564181D01*
X79192285Y33564181D02*
X78811333Y33564181D01*
X78811333Y33564181D02*
X78716095Y33516562D01*
X78716095Y33516562D02*
X78668476Y33468943D01*
X78668476Y33468943D02*
X78620857Y33373705D01*
X78620857Y33373705D02*
X78620857Y33230848D01*
X78620857Y33230848D02*
X78668476Y33135610D01*
X78668476Y33135610D02*
X78716095Y33087991D01*
X78716095Y33087991D02*
X78811333Y33040372D01*
X78811333Y33040372D02*
X79192285Y33040372D01*
X78287523Y33564181D02*
X77668476Y33564181D01*
X77668476Y33564181D02*
X78001809Y33183229D01*
X78001809Y33183229D02*
X77858952Y33183229D01*
X77858952Y33183229D02*
X77763714Y33135610D01*
X77763714Y33135610D02*
X77716095Y33087991D01*
X77716095Y33087991D02*
X77668476Y32992753D01*
X77668476Y32992753D02*
X77668476Y32754658D01*
X77668476Y32754658D02*
X77716095Y32659420D01*
X77716095Y32659420D02*
X77763714Y32611800D01*
X77763714Y32611800D02*
X77858952Y32564181D01*
X77858952Y32564181D02*
X78144666Y32564181D01*
X78144666Y32564181D02*
X78239904Y32611800D01*
X78239904Y32611800D02*
X78287523Y32659420D01*
X76811333Y33230848D02*
X76811333Y32564181D01*
X77049428Y33611800D02*
X77287523Y32897515D01*
X77287523Y32897515D02*
X76668476Y32897515D01*
X30233857Y46474420D02*
X30281476Y46426800D01*
X30281476Y46426800D02*
X30424333Y46379181D01*
X30424333Y46379181D02*
X30519571Y46379181D01*
X30519571Y46379181D02*
X30662428Y46426800D01*
X30662428Y46426800D02*
X30757666Y46522039D01*
X30757666Y46522039D02*
X30805285Y46617277D01*
X30805285Y46617277D02*
X30852904Y46807753D01*
X30852904Y46807753D02*
X30852904Y46950610D01*
X30852904Y46950610D02*
X30805285Y47141086D01*
X30805285Y47141086D02*
X30757666Y47236324D01*
X30757666Y47236324D02*
X30662428Y47331562D01*
X30662428Y47331562D02*
X30519571Y47379181D01*
X30519571Y47379181D02*
X30424333Y47379181D01*
X30424333Y47379181D02*
X30281476Y47331562D01*
X30281476Y47331562D02*
X30233857Y47283943D01*
X29281476Y46379181D02*
X29852904Y46379181D01*
X29567190Y46379181D02*
X29567190Y47379181D01*
X29567190Y47379181D02*
X29662428Y47236324D01*
X29662428Y47236324D02*
X29757666Y47141086D01*
X29757666Y47141086D02*
X29852904Y47093467D01*
X28805285Y46379181D02*
X28614809Y46379181D01*
X28614809Y46379181D02*
X28519571Y46426800D01*
X28519571Y46426800D02*
X28471952Y46474420D01*
X28471952Y46474420D02*
X28376714Y46617277D01*
X28376714Y46617277D02*
X28329095Y46807753D01*
X28329095Y46807753D02*
X28329095Y47188705D01*
X28329095Y47188705D02*
X28376714Y47283943D01*
X28376714Y47283943D02*
X28424333Y47331562D01*
X28424333Y47331562D02*
X28519571Y47379181D01*
X28519571Y47379181D02*
X28710047Y47379181D01*
X28710047Y47379181D02*
X28805285Y47331562D01*
X28805285Y47331562D02*
X28852904Y47283943D01*
X28852904Y47283943D02*
X28900523Y47188705D01*
X28900523Y47188705D02*
X28900523Y46950610D01*
X28900523Y46950610D02*
X28852904Y46855372D01*
X28852904Y46855372D02*
X28805285Y46807753D01*
X28805285Y46807753D02*
X28710047Y46760134D01*
X28710047Y46760134D02*
X28519571Y46760134D01*
X28519571Y46760134D02*
X28424333Y46807753D01*
X28424333Y46807753D02*
X28376714Y46855372D01*
X28376714Y46855372D02*
X28329095Y46950610D01*
X24010857Y30911419D02*
X24058476Y30863799D01*
X24058476Y30863799D02*
X24201333Y30816180D01*
X24201333Y30816180D02*
X24296571Y30816180D01*
X24296571Y30816180D02*
X24439428Y30863799D01*
X24439428Y30863799D02*
X24534666Y30959038D01*
X24534666Y30959038D02*
X24582285Y31054276D01*
X24582285Y31054276D02*
X24629904Y31244752D01*
X24629904Y31244752D02*
X24629904Y31387609D01*
X24629904Y31387609D02*
X24582285Y31578085D01*
X24582285Y31578085D02*
X24534666Y31673323D01*
X24534666Y31673323D02*
X24439428Y31768561D01*
X24439428Y31768561D02*
X24296571Y31816180D01*
X24296571Y31816180D02*
X24201333Y31816180D01*
X24201333Y31816180D02*
X24058476Y31768561D01*
X24058476Y31768561D02*
X24010857Y31720942D01*
X23629904Y31720942D02*
X23582285Y31768561D01*
X23582285Y31768561D02*
X23487047Y31816180D01*
X23487047Y31816180D02*
X23248952Y31816180D01*
X23248952Y31816180D02*
X23153714Y31768561D01*
X23153714Y31768561D02*
X23106095Y31720942D01*
X23106095Y31720942D02*
X23058476Y31625704D01*
X23058476Y31625704D02*
X23058476Y31530466D01*
X23058476Y31530466D02*
X23106095Y31387609D01*
X23106095Y31387609D02*
X23677523Y30816180D01*
X23677523Y30816180D02*
X23058476Y30816180D01*
X22439428Y31816180D02*
X22344190Y31816180D01*
X22344190Y31816180D02*
X22248952Y31768561D01*
X22248952Y31768561D02*
X22201333Y31720942D01*
X22201333Y31720942D02*
X22153714Y31625704D01*
X22153714Y31625704D02*
X22106095Y31435228D01*
X22106095Y31435228D02*
X22106095Y31197133D01*
X22106095Y31197133D02*
X22153714Y31006657D01*
X22153714Y31006657D02*
X22201333Y30911419D01*
X22201333Y30911419D02*
X22248952Y30863799D01*
X22248952Y30863799D02*
X22344190Y30816180D01*
X22344190Y30816180D02*
X22439428Y30816180D01*
X22439428Y30816180D02*
X22534666Y30863799D01*
X22534666Y30863799D02*
X22582285Y30911419D01*
X22582285Y30911419D02*
X22629904Y31006657D01*
X22629904Y31006657D02*
X22677523Y31197133D01*
X22677523Y31197133D02*
X22677523Y31435228D01*
X22677523Y31435228D02*
X22629904Y31625704D01*
X22629904Y31625704D02*
X22582285Y31720942D01*
X22582285Y31720942D02*
X22534666Y31768561D01*
X22534666Y31768561D02*
X22439428Y31816180D01*
X84989819Y33154858D02*
X84513628Y33488191D01*
X84989819Y33726286D02*
X83989819Y33726286D01*
X83989819Y33726286D02*
X83989819Y33345334D01*
X83989819Y33345334D02*
X84037438Y33250096D01*
X84037438Y33250096D02*
X84085057Y33202477D01*
X84085057Y33202477D02*
X84180295Y33154858D01*
X84180295Y33154858D02*
X84323152Y33154858D01*
X84323152Y33154858D02*
X84418390Y33202477D01*
X84418390Y33202477D02*
X84466009Y33250096D01*
X84466009Y33250096D02*
X84513628Y33345334D01*
X84513628Y33345334D02*
X84513628Y33726286D01*
X83989819Y32821524D02*
X83989819Y32202477D01*
X83989819Y32202477D02*
X84370771Y32535810D01*
X84370771Y32535810D02*
X84370771Y32392953D01*
X84370771Y32392953D02*
X84418390Y32297715D01*
X84418390Y32297715D02*
X84466009Y32250096D01*
X84466009Y32250096D02*
X84561247Y32202477D01*
X84561247Y32202477D02*
X84799342Y32202477D01*
X84799342Y32202477D02*
X84894580Y32250096D01*
X84894580Y32250096D02*
X84942200Y32297715D01*
X84942200Y32297715D02*
X84989819Y32392953D01*
X84989819Y32392953D02*
X84989819Y32678667D01*
X84989819Y32678667D02*
X84942200Y32773905D01*
X84942200Y32773905D02*
X84894580Y32821524D01*
X83989819Y31297715D02*
X83989819Y31773905D01*
X83989819Y31773905D02*
X84466009Y31821524D01*
X84466009Y31821524D02*
X84418390Y31773905D01*
X84418390Y31773905D02*
X84370771Y31678667D01*
X84370771Y31678667D02*
X84370771Y31440572D01*
X84370771Y31440572D02*
X84418390Y31345334D01*
X84418390Y31345334D02*
X84466009Y31297715D01*
X84466009Y31297715D02*
X84561247Y31250096D01*
X84561247Y31250096D02*
X84799342Y31250096D01*
X84799342Y31250096D02*
X84894580Y31297715D01*
X84894580Y31297715D02*
X84942200Y31345334D01*
X84942200Y31345334D02*
X84989819Y31440572D01*
X84989819Y31440572D02*
X84989819Y31678667D01*
X84989819Y31678667D02*
X84942200Y31773905D01*
X84942200Y31773905D02*
X84894580Y31821524D01*
X78620857Y34723181D02*
X78954190Y35199372D01*
X79192285Y34723181D02*
X79192285Y35723181D01*
X79192285Y35723181D02*
X78811333Y35723181D01*
X78811333Y35723181D02*
X78716095Y35675562D01*
X78716095Y35675562D02*
X78668476Y35627943D01*
X78668476Y35627943D02*
X78620857Y35532705D01*
X78620857Y35532705D02*
X78620857Y35389848D01*
X78620857Y35389848D02*
X78668476Y35294610D01*
X78668476Y35294610D02*
X78716095Y35246991D01*
X78716095Y35246991D02*
X78811333Y35199372D01*
X78811333Y35199372D02*
X79192285Y35199372D01*
X78287523Y35723181D02*
X77668476Y35723181D01*
X77668476Y35723181D02*
X78001809Y35342229D01*
X78001809Y35342229D02*
X77858952Y35342229D01*
X77858952Y35342229D02*
X77763714Y35294610D01*
X77763714Y35294610D02*
X77716095Y35246991D01*
X77716095Y35246991D02*
X77668476Y35151753D01*
X77668476Y35151753D02*
X77668476Y34913658D01*
X77668476Y34913658D02*
X77716095Y34818420D01*
X77716095Y34818420D02*
X77763714Y34770800D01*
X77763714Y34770800D02*
X77858952Y34723181D01*
X77858952Y34723181D02*
X78144666Y34723181D01*
X78144666Y34723181D02*
X78239904Y34770800D01*
X78239904Y34770800D02*
X78287523Y34818420D01*
X76811333Y35723181D02*
X77001809Y35723181D01*
X77001809Y35723181D02*
X77097047Y35675562D01*
X77097047Y35675562D02*
X77144666Y35627943D01*
X77144666Y35627943D02*
X77239904Y35485086D01*
X77239904Y35485086D02*
X77287523Y35294610D01*
X77287523Y35294610D02*
X77287523Y34913658D01*
X77287523Y34913658D02*
X77239904Y34818420D01*
X77239904Y34818420D02*
X77192285Y34770800D01*
X77192285Y34770800D02*
X77097047Y34723181D01*
X77097047Y34723181D02*
X76906571Y34723181D01*
X76906571Y34723181D02*
X76811333Y34770800D01*
X76811333Y34770800D02*
X76763714Y34818420D01*
X76763714Y34818420D02*
X76716095Y34913658D01*
X76716095Y34913658D02*
X76716095Y35151753D01*
X76716095Y35151753D02*
X76763714Y35246991D01*
X76763714Y35246991D02*
X76811333Y35294610D01*
X76811333Y35294610D02*
X76906571Y35342229D01*
X76906571Y35342229D02*
X77097047Y35342229D01*
X77097047Y35342229D02*
X77192285Y35294610D01*
X77192285Y35294610D02*
X77239904Y35246991D01*
X77239904Y35246991D02*
X77287523Y35151753D01*
X55063819Y38615858D02*
X54587628Y38949191D01*
X55063819Y39187286D02*
X54063819Y39187286D01*
X54063819Y39187286D02*
X54063819Y38806334D01*
X54063819Y38806334D02*
X54111438Y38711096D01*
X54111438Y38711096D02*
X54159057Y38663477D01*
X54159057Y38663477D02*
X54254295Y38615858D01*
X54254295Y38615858D02*
X54397152Y38615858D01*
X54397152Y38615858D02*
X54492390Y38663477D01*
X54492390Y38663477D02*
X54540009Y38711096D01*
X54540009Y38711096D02*
X54587628Y38806334D01*
X54587628Y38806334D02*
X54587628Y39187286D01*
X54159057Y38234905D02*
X54111438Y38187286D01*
X54111438Y38187286D02*
X54063819Y38092048D01*
X54063819Y38092048D02*
X54063819Y37853953D01*
X54063819Y37853953D02*
X54111438Y37758715D01*
X54111438Y37758715D02*
X54159057Y37711096D01*
X54159057Y37711096D02*
X54254295Y37663477D01*
X54254295Y37663477D02*
X54349533Y37663477D01*
X54349533Y37663477D02*
X54492390Y37711096D01*
X54492390Y37711096D02*
X55063819Y38282524D01*
X55063819Y38282524D02*
X55063819Y37663477D01*
X54159057Y37282524D02*
X54111438Y37234905D01*
X54111438Y37234905D02*
X54063819Y37139667D01*
X54063819Y37139667D02*
X54063819Y36901572D01*
X54063819Y36901572D02*
X54111438Y36806334D01*
X54111438Y36806334D02*
X54159057Y36758715D01*
X54159057Y36758715D02*
X54254295Y36711096D01*
X54254295Y36711096D02*
X54349533Y36711096D01*
X54349533Y36711096D02*
X54492390Y36758715D01*
X54492390Y36758715D02*
X55063819Y37330143D01*
X55063819Y37330143D02*
X55063819Y36711096D01*
X57499238Y49989943D02*
X57594476Y50037562D01*
X57594476Y50037562D02*
X57689714Y50132800D01*
X57689714Y50132800D02*
X57832571Y50275658D01*
X57832571Y50275658D02*
X57927809Y50323277D01*
X57927809Y50323277D02*
X58023047Y50323277D01*
X57975428Y50085181D02*
X58070666Y50132800D01*
X58070666Y50132800D02*
X58165904Y50228039D01*
X58165904Y50228039D02*
X58213523Y50418515D01*
X58213523Y50418515D02*
X58213523Y50751848D01*
X58213523Y50751848D02*
X58165904Y50942324D01*
X58165904Y50942324D02*
X58070666Y51037562D01*
X58070666Y51037562D02*
X57975428Y51085181D01*
X57975428Y51085181D02*
X57784952Y51085181D01*
X57784952Y51085181D02*
X57689714Y51037562D01*
X57689714Y51037562D02*
X57594476Y50942324D01*
X57594476Y50942324D02*
X57546857Y50751848D01*
X57546857Y50751848D02*
X57546857Y50418515D01*
X57546857Y50418515D02*
X57594476Y50228039D01*
X57594476Y50228039D02*
X57689714Y50132800D01*
X57689714Y50132800D02*
X57784952Y50085181D01*
X57784952Y50085181D02*
X57975428Y50085181D01*
X56642095Y51085181D02*
X57118285Y51085181D01*
X57118285Y51085181D02*
X57165904Y50608991D01*
X57165904Y50608991D02*
X57118285Y50656610D01*
X57118285Y50656610D02*
X57023047Y50704229D01*
X57023047Y50704229D02*
X56784952Y50704229D01*
X56784952Y50704229D02*
X56689714Y50656610D01*
X56689714Y50656610D02*
X56642095Y50608991D01*
X56642095Y50608991D02*
X56594476Y50513753D01*
X56594476Y50513753D02*
X56594476Y50275658D01*
X56594476Y50275658D02*
X56642095Y50180420D01*
X56642095Y50180420D02*
X56689714Y50132800D01*
X56689714Y50132800D02*
X56784952Y50085181D01*
X56784952Y50085181D02*
X57023047Y50085181D01*
X57023047Y50085181D02*
X57118285Y50132800D01*
X57118285Y50132800D02*
X57165904Y50180420D01*
X3611428Y69731991D02*
X3944761Y69731991D01*
X3944761Y69208181D02*
X3944761Y70208181D01*
X3944761Y70208181D02*
X3468571Y70208181D01*
X3087618Y69208181D02*
X3087618Y70208181D01*
X2611428Y69208181D02*
X2611428Y70208181D01*
X2611428Y70208181D02*
X2373333Y70208181D01*
X2373333Y70208181D02*
X2230476Y70160562D01*
X2230476Y70160562D02*
X2135238Y70065324D01*
X2135238Y70065324D02*
X2087619Y69970086D01*
X2087619Y69970086D02*
X2040000Y69779610D01*
X2040000Y69779610D02*
X2040000Y69636753D01*
X2040000Y69636753D02*
X2087619Y69446277D01*
X2087619Y69446277D02*
X2135238Y69351039D01*
X2135238Y69351039D02*
X2230476Y69255800D01*
X2230476Y69255800D02*
X2373333Y69208181D01*
X2373333Y69208181D02*
X2611428Y69208181D01*
X1182857Y69874848D02*
X1182857Y69208181D01*
X1420952Y70255800D02*
X1659047Y69541515D01*
X1659047Y69541515D02*
X1040000Y69541515D01*
X7802428Y8799991D02*
X8135761Y8799991D01*
X8135761Y8276181D02*
X8135761Y9276181D01*
X8135761Y9276181D02*
X7659571Y9276181D01*
X7278618Y8276181D02*
X7278618Y9276181D01*
X6802428Y8276181D02*
X6802428Y9276181D01*
X6802428Y9276181D02*
X6564333Y9276181D01*
X6564333Y9276181D02*
X6421476Y9228562D01*
X6421476Y9228562D02*
X6326238Y9133324D01*
X6326238Y9133324D02*
X6278619Y9038086D01*
X6278619Y9038086D02*
X6231000Y8847610D01*
X6231000Y8847610D02*
X6231000Y8704753D01*
X6231000Y8704753D02*
X6278619Y8514277D01*
X6278619Y8514277D02*
X6326238Y8419039D01*
X6326238Y8419039D02*
X6421476Y8323800D01*
X6421476Y8323800D02*
X6564333Y8276181D01*
X6564333Y8276181D02*
X6802428Y8276181D01*
X5278619Y8276181D02*
X5850047Y8276181D01*
X5564333Y8276181D02*
X5564333Y9276181D01*
X5564333Y9276181D02*
X5659571Y9133324D01*
X5659571Y9133324D02*
X5754809Y9038086D01*
X5754809Y9038086D02*
X5850047Y8990467D01*
X48101238Y35142943D02*
X48196476Y35190562D01*
X48196476Y35190562D02*
X48291714Y35285800D01*
X48291714Y35285800D02*
X48434571Y35428658D01*
X48434571Y35428658D02*
X48529809Y35476277D01*
X48529809Y35476277D02*
X48625047Y35476277D01*
X48577428Y35238181D02*
X48672666Y35285800D01*
X48672666Y35285800D02*
X48767904Y35381039D01*
X48767904Y35381039D02*
X48815523Y35571515D01*
X48815523Y35571515D02*
X48815523Y35904848D01*
X48815523Y35904848D02*
X48767904Y36095324D01*
X48767904Y36095324D02*
X48672666Y36190562D01*
X48672666Y36190562D02*
X48577428Y36238181D01*
X48577428Y36238181D02*
X48386952Y36238181D01*
X48386952Y36238181D02*
X48291714Y36190562D01*
X48291714Y36190562D02*
X48196476Y36095324D01*
X48196476Y36095324D02*
X48148857Y35904848D01*
X48148857Y35904848D02*
X48148857Y35571515D01*
X48148857Y35571515D02*
X48196476Y35381039D01*
X48196476Y35381039D02*
X48291714Y35285800D01*
X48291714Y35285800D02*
X48386952Y35238181D01*
X48386952Y35238181D02*
X48577428Y35238181D01*
X47815523Y36238181D02*
X47196476Y36238181D01*
X47196476Y36238181D02*
X47529809Y35857229D01*
X47529809Y35857229D02*
X47386952Y35857229D01*
X47386952Y35857229D02*
X47291714Y35809610D01*
X47291714Y35809610D02*
X47244095Y35761991D01*
X47244095Y35761991D02*
X47196476Y35666753D01*
X47196476Y35666753D02*
X47196476Y35428658D01*
X47196476Y35428658D02*
X47244095Y35333420D01*
X47244095Y35333420D02*
X47291714Y35285800D01*
X47291714Y35285800D02*
X47386952Y35238181D01*
X47386952Y35238181D02*
X47672666Y35238181D01*
X47672666Y35238181D02*
X47767904Y35285800D01*
X47767904Y35285800D02*
X47815523Y35333420D01*
X38823819Y41417714D02*
X38823819Y40846286D01*
X39823819Y41132000D02*
X38823819Y41132000D01*
X39823819Y40512952D02*
X38823819Y40512952D01*
X39300009Y40512952D02*
X39300009Y39941524D01*
X39823819Y39941524D02*
X38823819Y39941524D01*
X38823819Y39560571D02*
X38823819Y38941524D01*
X38823819Y38941524D02*
X39204771Y39274857D01*
X39204771Y39274857D02*
X39204771Y39132000D01*
X39204771Y39132000D02*
X39252390Y39036762D01*
X39252390Y39036762D02*
X39300009Y38989143D01*
X39300009Y38989143D02*
X39395247Y38941524D01*
X39395247Y38941524D02*
X39633342Y38941524D01*
X39633342Y38941524D02*
X39728580Y38989143D01*
X39728580Y38989143D02*
X39776200Y39036762D01*
X39776200Y39036762D02*
X39823819Y39132000D01*
X39823819Y39132000D02*
X39823819Y39417714D01*
X39823819Y39417714D02*
X39776200Y39512952D01*
X39776200Y39512952D02*
X39728580Y39560571D01*
X21539580Y25026858D02*
X21587200Y25074477D01*
X21587200Y25074477D02*
X21634819Y25217334D01*
X21634819Y25217334D02*
X21634819Y25312572D01*
X21634819Y25312572D02*
X21587200Y25455429D01*
X21587200Y25455429D02*
X21491961Y25550667D01*
X21491961Y25550667D02*
X21396723Y25598286D01*
X21396723Y25598286D02*
X21206247Y25645905D01*
X21206247Y25645905D02*
X21063390Y25645905D01*
X21063390Y25645905D02*
X20872914Y25598286D01*
X20872914Y25598286D02*
X20777676Y25550667D01*
X20777676Y25550667D02*
X20682438Y25455429D01*
X20682438Y25455429D02*
X20634819Y25312572D01*
X20634819Y25312572D02*
X20634819Y25217334D01*
X20634819Y25217334D02*
X20682438Y25074477D01*
X20682438Y25074477D02*
X20730057Y25026858D01*
X20730057Y24645905D02*
X20682438Y24598286D01*
X20682438Y24598286D02*
X20634819Y24503048D01*
X20634819Y24503048D02*
X20634819Y24264953D01*
X20634819Y24264953D02*
X20682438Y24169715D01*
X20682438Y24169715D02*
X20730057Y24122096D01*
X20730057Y24122096D02*
X20825295Y24074477D01*
X20825295Y24074477D02*
X20920533Y24074477D01*
X20920533Y24074477D02*
X21063390Y24122096D01*
X21063390Y24122096D02*
X21634819Y24693524D01*
X21634819Y24693524D02*
X21634819Y24074477D01*
X20634819Y23741143D02*
X20634819Y23074477D01*
X20634819Y23074477D02*
X21634819Y23503048D01*
X85780428Y66457991D02*
X86113761Y66457991D01*
X86113761Y65934181D02*
X86113761Y66934181D01*
X86113761Y66934181D02*
X85637571Y66934181D01*
X85256618Y65934181D02*
X85256618Y66934181D01*
X84780428Y65934181D02*
X84780428Y66934181D01*
X84780428Y66934181D02*
X84542333Y66934181D01*
X84542333Y66934181D02*
X84399476Y66886562D01*
X84399476Y66886562D02*
X84304238Y66791324D01*
X84304238Y66791324D02*
X84256619Y66696086D01*
X84256619Y66696086D02*
X84209000Y66505610D01*
X84209000Y66505610D02*
X84209000Y66362753D01*
X84209000Y66362753D02*
X84256619Y66172277D01*
X84256619Y66172277D02*
X84304238Y66077039D01*
X84304238Y66077039D02*
X84399476Y65981800D01*
X84399476Y65981800D02*
X84542333Y65934181D01*
X84542333Y65934181D02*
X84780428Y65934181D01*
X83828047Y66838943D02*
X83780428Y66886562D01*
X83780428Y66886562D02*
X83685190Y66934181D01*
X83685190Y66934181D02*
X83447095Y66934181D01*
X83447095Y66934181D02*
X83351857Y66886562D01*
X83351857Y66886562D02*
X83304238Y66838943D01*
X83304238Y66838943D02*
X83256619Y66743705D01*
X83256619Y66743705D02*
X83256619Y66648467D01*
X83256619Y66648467D02*
X83304238Y66505610D01*
X83304238Y66505610D02*
X83875666Y65934181D01*
X83875666Y65934181D02*
X83256619Y65934181D01*
X47332819Y33035714D02*
X47332819Y32464286D01*
X48332819Y32750000D02*
X47332819Y32750000D01*
X48332819Y32130952D02*
X47332819Y32130952D01*
X47809009Y32130952D02*
X47809009Y31559524D01*
X48332819Y31559524D02*
X47332819Y31559524D01*
X47666152Y30654762D02*
X48332819Y30654762D01*
X47285200Y30892857D02*
X47999485Y31130952D01*
X47999485Y31130952D02*
X47999485Y30511905D01*
X53539819Y34520095D02*
X52539819Y34520095D01*
X52539819Y34520095D02*
X52539819Y34282000D01*
X52539819Y34282000D02*
X52587438Y34139143D01*
X52587438Y34139143D02*
X52682676Y34043905D01*
X52682676Y34043905D02*
X52777914Y33996286D01*
X52777914Y33996286D02*
X52968390Y33948667D01*
X52968390Y33948667D02*
X53111247Y33948667D01*
X53111247Y33948667D02*
X53301723Y33996286D01*
X53301723Y33996286D02*
X53396961Y34043905D01*
X53396961Y34043905D02*
X53492200Y34139143D01*
X53492200Y34139143D02*
X53539819Y34282000D01*
X53539819Y34282000D02*
X53539819Y34520095D01*
X52539819Y33091524D02*
X52539819Y33282000D01*
X52539819Y33282000D02*
X52587438Y33377238D01*
X52587438Y33377238D02*
X52635057Y33424857D01*
X52635057Y33424857D02*
X52777914Y33520095D01*
X52777914Y33520095D02*
X52968390Y33567714D01*
X52968390Y33567714D02*
X53349342Y33567714D01*
X53349342Y33567714D02*
X53444580Y33520095D01*
X53444580Y33520095D02*
X53492200Y33472476D01*
X53492200Y33472476D02*
X53539819Y33377238D01*
X53539819Y33377238D02*
X53539819Y33186762D01*
X53539819Y33186762D02*
X53492200Y33091524D01*
X53492200Y33091524D02*
X53444580Y33043905D01*
X53444580Y33043905D02*
X53349342Y32996286D01*
X53349342Y32996286D02*
X53111247Y32996286D01*
X53111247Y32996286D02*
X53016009Y33043905D01*
X53016009Y33043905D02*
X52968390Y33091524D01*
X52968390Y33091524D02*
X52920771Y33186762D01*
X52920771Y33186762D02*
X52920771Y33377238D01*
X52920771Y33377238D02*
X52968390Y33472476D01*
X52968390Y33472476D02*
X53016009Y33520095D01*
X53016009Y33520095D02*
X53111247Y33567714D01*
X76842580Y33027858D02*
X76890200Y33075477D01*
X76890200Y33075477D02*
X76937819Y33218334D01*
X76937819Y33218334D02*
X76937819Y33313572D01*
X76937819Y33313572D02*
X76890200Y33456429D01*
X76890200Y33456429D02*
X76794961Y33551667D01*
X76794961Y33551667D02*
X76699723Y33599286D01*
X76699723Y33599286D02*
X76509247Y33646905D01*
X76509247Y33646905D02*
X76366390Y33646905D01*
X76366390Y33646905D02*
X76175914Y33599286D01*
X76175914Y33599286D02*
X76080676Y33551667D01*
X76080676Y33551667D02*
X75985438Y33456429D01*
X75985438Y33456429D02*
X75937819Y33313572D01*
X75937819Y33313572D02*
X75937819Y33218334D01*
X75937819Y33218334D02*
X75985438Y33075477D01*
X75985438Y33075477D02*
X76033057Y33027858D01*
X76033057Y32646905D02*
X75985438Y32599286D01*
X75985438Y32599286D02*
X75937819Y32504048D01*
X75937819Y32504048D02*
X75937819Y32265953D01*
X75937819Y32265953D02*
X75985438Y32170715D01*
X75985438Y32170715D02*
X76033057Y32123096D01*
X76033057Y32123096D02*
X76128295Y32075477D01*
X76128295Y32075477D02*
X76223533Y32075477D01*
X76223533Y32075477D02*
X76366390Y32123096D01*
X76366390Y32123096D02*
X76937819Y32694524D01*
X76937819Y32694524D02*
X76937819Y32075477D01*
X76937819Y31123096D02*
X76937819Y31694524D01*
X76937819Y31408810D02*
X75937819Y31408810D01*
X75937819Y31408810D02*
X76080676Y31504048D01*
X76080676Y31504048D02*
X76175914Y31599286D01*
X76175914Y31599286D02*
X76223533Y31694524D01*
X23698580Y25026858D02*
X23746200Y25074477D01*
X23746200Y25074477D02*
X23793819Y25217334D01*
X23793819Y25217334D02*
X23793819Y25312572D01*
X23793819Y25312572D02*
X23746200Y25455429D01*
X23746200Y25455429D02*
X23650961Y25550667D01*
X23650961Y25550667D02*
X23555723Y25598286D01*
X23555723Y25598286D02*
X23365247Y25645905D01*
X23365247Y25645905D02*
X23222390Y25645905D01*
X23222390Y25645905D02*
X23031914Y25598286D01*
X23031914Y25598286D02*
X22936676Y25550667D01*
X22936676Y25550667D02*
X22841438Y25455429D01*
X22841438Y25455429D02*
X22793819Y25312572D01*
X22793819Y25312572D02*
X22793819Y25217334D01*
X22793819Y25217334D02*
X22841438Y25074477D01*
X22841438Y25074477D02*
X22889057Y25026858D01*
X22889057Y24645905D02*
X22841438Y24598286D01*
X22841438Y24598286D02*
X22793819Y24503048D01*
X22793819Y24503048D02*
X22793819Y24264953D01*
X22793819Y24264953D02*
X22841438Y24169715D01*
X22841438Y24169715D02*
X22889057Y24122096D01*
X22889057Y24122096D02*
X22984295Y24074477D01*
X22984295Y24074477D02*
X23079533Y24074477D01*
X23079533Y24074477D02*
X23222390Y24122096D01*
X23222390Y24122096D02*
X23793819Y24693524D01*
X23793819Y24693524D02*
X23793819Y24074477D01*
X22793819Y23169715D02*
X22793819Y23645905D01*
X22793819Y23645905D02*
X23270009Y23693524D01*
X23270009Y23693524D02*
X23222390Y23645905D01*
X23222390Y23645905D02*
X23174771Y23550667D01*
X23174771Y23550667D02*
X23174771Y23312572D01*
X23174771Y23312572D02*
X23222390Y23217334D01*
X23222390Y23217334D02*
X23270009Y23169715D01*
X23270009Y23169715D02*
X23365247Y23122096D01*
X23365247Y23122096D02*
X23603342Y23122096D01*
X23603342Y23122096D02*
X23698580Y23169715D01*
X23698580Y23169715D02*
X23746200Y23217334D01*
X23746200Y23217334D02*
X23793819Y23312572D01*
X23793819Y23312572D02*
X23793819Y23550667D01*
X23793819Y23550667D02*
X23746200Y23645905D01*
X23746200Y23645905D02*
X23698580Y23693524D01*
X30487857Y23610420D02*
X30535476Y23562800D01*
X30535476Y23562800D02*
X30678333Y23515181D01*
X30678333Y23515181D02*
X30773571Y23515181D01*
X30773571Y23515181D02*
X30916428Y23562800D01*
X30916428Y23562800D02*
X31011666Y23658039D01*
X31011666Y23658039D02*
X31059285Y23753277D01*
X31059285Y23753277D02*
X31106904Y23943753D01*
X31106904Y23943753D02*
X31106904Y24086610D01*
X31106904Y24086610D02*
X31059285Y24277086D01*
X31059285Y24277086D02*
X31011666Y24372324D01*
X31011666Y24372324D02*
X30916428Y24467562D01*
X30916428Y24467562D02*
X30773571Y24515181D01*
X30773571Y24515181D02*
X30678333Y24515181D01*
X30678333Y24515181D02*
X30535476Y24467562D01*
X30535476Y24467562D02*
X30487857Y24419943D01*
X30106904Y24419943D02*
X30059285Y24467562D01*
X30059285Y24467562D02*
X29964047Y24515181D01*
X29964047Y24515181D02*
X29725952Y24515181D01*
X29725952Y24515181D02*
X29630714Y24467562D01*
X29630714Y24467562D02*
X29583095Y24419943D01*
X29583095Y24419943D02*
X29535476Y24324705D01*
X29535476Y24324705D02*
X29535476Y24229467D01*
X29535476Y24229467D02*
X29583095Y24086610D01*
X29583095Y24086610D02*
X30154523Y23515181D01*
X30154523Y23515181D02*
X29535476Y23515181D01*
X28678333Y24181848D02*
X28678333Y23515181D01*
X28916428Y24562800D02*
X29154523Y23848515D01*
X29154523Y23848515D02*
X28535476Y23848515D01*
X38557580Y25153858D02*
X38605200Y25201477D01*
X38605200Y25201477D02*
X38652819Y25344334D01*
X38652819Y25344334D02*
X38652819Y25439572D01*
X38652819Y25439572D02*
X38605200Y25582429D01*
X38605200Y25582429D02*
X38509961Y25677667D01*
X38509961Y25677667D02*
X38414723Y25725286D01*
X38414723Y25725286D02*
X38224247Y25772905D01*
X38224247Y25772905D02*
X38081390Y25772905D01*
X38081390Y25772905D02*
X37890914Y25725286D01*
X37890914Y25725286D02*
X37795676Y25677667D01*
X37795676Y25677667D02*
X37700438Y25582429D01*
X37700438Y25582429D02*
X37652819Y25439572D01*
X37652819Y25439572D02*
X37652819Y25344334D01*
X37652819Y25344334D02*
X37700438Y25201477D01*
X37700438Y25201477D02*
X37748057Y25153858D01*
X37652819Y24820524D02*
X37652819Y24201477D01*
X37652819Y24201477D02*
X38033771Y24534810D01*
X38033771Y24534810D02*
X38033771Y24391953D01*
X38033771Y24391953D02*
X38081390Y24296715D01*
X38081390Y24296715D02*
X38129009Y24249096D01*
X38129009Y24249096D02*
X38224247Y24201477D01*
X38224247Y24201477D02*
X38462342Y24201477D01*
X38462342Y24201477D02*
X38557580Y24249096D01*
X38557580Y24249096D02*
X38605200Y24296715D01*
X38605200Y24296715D02*
X38652819Y24391953D01*
X38652819Y24391953D02*
X38652819Y24677667D01*
X38652819Y24677667D02*
X38605200Y24772905D01*
X38605200Y24772905D02*
X38557580Y24820524D01*
X38652819Y23249096D02*
X38652819Y23820524D01*
X38652819Y23534810D02*
X37652819Y23534810D01*
X37652819Y23534810D02*
X37795676Y23630048D01*
X37795676Y23630048D02*
X37890914Y23725286D01*
X37890914Y23725286D02*
X37938533Y23820524D01*
X88574428Y6005991D02*
X88907761Y6005991D01*
X88907761Y5482181D02*
X88907761Y6482181D01*
X88907761Y6482181D02*
X88431571Y6482181D01*
X88050618Y5482181D02*
X88050618Y6482181D01*
X87574428Y5482181D02*
X87574428Y6482181D01*
X87574428Y6482181D02*
X87336333Y6482181D01*
X87336333Y6482181D02*
X87193476Y6434562D01*
X87193476Y6434562D02*
X87098238Y6339324D01*
X87098238Y6339324D02*
X87050619Y6244086D01*
X87050619Y6244086D02*
X87003000Y6053610D01*
X87003000Y6053610D02*
X87003000Y5910753D01*
X87003000Y5910753D02*
X87050619Y5720277D01*
X87050619Y5720277D02*
X87098238Y5625039D01*
X87098238Y5625039D02*
X87193476Y5529800D01*
X87193476Y5529800D02*
X87336333Y5482181D01*
X87336333Y5482181D02*
X87574428Y5482181D01*
X86669666Y6482181D02*
X86050619Y6482181D01*
X86050619Y6482181D02*
X86383952Y6101229D01*
X86383952Y6101229D02*
X86241095Y6101229D01*
X86241095Y6101229D02*
X86145857Y6053610D01*
X86145857Y6053610D02*
X86098238Y6005991D01*
X86098238Y6005991D02*
X86050619Y5910753D01*
X86050619Y5910753D02*
X86050619Y5672658D01*
X86050619Y5672658D02*
X86098238Y5577420D01*
X86098238Y5577420D02*
X86145857Y5529800D01*
X86145857Y5529800D02*
X86241095Y5482181D01*
X86241095Y5482181D02*
X86526809Y5482181D01*
X86526809Y5482181D02*
X86622047Y5529800D01*
X86622047Y5529800D02*
X86669666Y5577420D01*
X36398580Y25153858D02*
X36446200Y25201477D01*
X36446200Y25201477D02*
X36493819Y25344334D01*
X36493819Y25344334D02*
X36493819Y25439572D01*
X36493819Y25439572D02*
X36446200Y25582429D01*
X36446200Y25582429D02*
X36350961Y25677667D01*
X36350961Y25677667D02*
X36255723Y25725286D01*
X36255723Y25725286D02*
X36065247Y25772905D01*
X36065247Y25772905D02*
X35922390Y25772905D01*
X35922390Y25772905D02*
X35731914Y25725286D01*
X35731914Y25725286D02*
X35636676Y25677667D01*
X35636676Y25677667D02*
X35541438Y25582429D01*
X35541438Y25582429D02*
X35493819Y25439572D01*
X35493819Y25439572D02*
X35493819Y25344334D01*
X35493819Y25344334D02*
X35541438Y25201477D01*
X35541438Y25201477D02*
X35589057Y25153858D01*
X35493819Y24820524D02*
X35493819Y24201477D01*
X35493819Y24201477D02*
X35874771Y24534810D01*
X35874771Y24534810D02*
X35874771Y24391953D01*
X35874771Y24391953D02*
X35922390Y24296715D01*
X35922390Y24296715D02*
X35970009Y24249096D01*
X35970009Y24249096D02*
X36065247Y24201477D01*
X36065247Y24201477D02*
X36303342Y24201477D01*
X36303342Y24201477D02*
X36398580Y24249096D01*
X36398580Y24249096D02*
X36446200Y24296715D01*
X36446200Y24296715D02*
X36493819Y24391953D01*
X36493819Y24391953D02*
X36493819Y24677667D01*
X36493819Y24677667D02*
X36446200Y24772905D01*
X36446200Y24772905D02*
X36398580Y24820524D01*
X35493819Y23582429D02*
X35493819Y23487191D01*
X35493819Y23487191D02*
X35541438Y23391953D01*
X35541438Y23391953D02*
X35589057Y23344334D01*
X35589057Y23344334D02*
X35684295Y23296715D01*
X35684295Y23296715D02*
X35874771Y23249096D01*
X35874771Y23249096D02*
X36112866Y23249096D01*
X36112866Y23249096D02*
X36303342Y23296715D01*
X36303342Y23296715D02*
X36398580Y23344334D01*
X36398580Y23344334D02*
X36446200Y23391953D01*
X36446200Y23391953D02*
X36493819Y23487191D01*
X36493819Y23487191D02*
X36493819Y23582429D01*
X36493819Y23582429D02*
X36446200Y23677667D01*
X36446200Y23677667D02*
X36398580Y23725286D01*
X36398580Y23725286D02*
X36303342Y23772905D01*
X36303342Y23772905D02*
X36112866Y23820524D01*
X36112866Y23820524D02*
X35874771Y23820524D01*
X35874771Y23820524D02*
X35684295Y23772905D01*
X35684295Y23772905D02*
X35589057Y23725286D01*
X35589057Y23725286D02*
X35541438Y23677667D01*
X35541438Y23677667D02*
X35493819Y23582429D01*
X27254580Y12834858D02*
X27302200Y12882477D01*
X27302200Y12882477D02*
X27349819Y13025334D01*
X27349819Y13025334D02*
X27349819Y13120572D01*
X27349819Y13120572D02*
X27302200Y13263429D01*
X27302200Y13263429D02*
X27206961Y13358667D01*
X27206961Y13358667D02*
X27111723Y13406286D01*
X27111723Y13406286D02*
X26921247Y13453905D01*
X26921247Y13453905D02*
X26778390Y13453905D01*
X26778390Y13453905D02*
X26587914Y13406286D01*
X26587914Y13406286D02*
X26492676Y13358667D01*
X26492676Y13358667D02*
X26397438Y13263429D01*
X26397438Y13263429D02*
X26349819Y13120572D01*
X26349819Y13120572D02*
X26349819Y13025334D01*
X26349819Y13025334D02*
X26397438Y12882477D01*
X26397438Y12882477D02*
X26445057Y12834858D01*
X26445057Y12453905D02*
X26397438Y12406286D01*
X26397438Y12406286D02*
X26349819Y12311048D01*
X26349819Y12311048D02*
X26349819Y12072953D01*
X26349819Y12072953D02*
X26397438Y11977715D01*
X26397438Y11977715D02*
X26445057Y11930096D01*
X26445057Y11930096D02*
X26540295Y11882477D01*
X26540295Y11882477D02*
X26635533Y11882477D01*
X26635533Y11882477D02*
X26778390Y11930096D01*
X26778390Y11930096D02*
X27349819Y12501524D01*
X27349819Y12501524D02*
X27349819Y11882477D01*
X27349819Y11406286D02*
X27349819Y11215810D01*
X27349819Y11215810D02*
X27302200Y11120572D01*
X27302200Y11120572D02*
X27254580Y11072953D01*
X27254580Y11072953D02*
X27111723Y10977715D01*
X27111723Y10977715D02*
X26921247Y10930096D01*
X26921247Y10930096D02*
X26540295Y10930096D01*
X26540295Y10930096D02*
X26445057Y10977715D01*
X26445057Y10977715D02*
X26397438Y11025334D01*
X26397438Y11025334D02*
X26349819Y11120572D01*
X26349819Y11120572D02*
X26349819Y11311048D01*
X26349819Y11311048D02*
X26397438Y11406286D01*
X26397438Y11406286D02*
X26445057Y11453905D01*
X26445057Y11453905D02*
X26540295Y11501524D01*
X26540295Y11501524D02*
X26778390Y11501524D01*
X26778390Y11501524D02*
X26873628Y11453905D01*
X26873628Y11453905D02*
X26921247Y11406286D01*
X26921247Y11406286D02*
X26968866Y11311048D01*
X26968866Y11311048D02*
X26968866Y11120572D01*
X26968866Y11120572D02*
X26921247Y11025334D01*
X26921247Y11025334D02*
X26873628Y10977715D01*
X26873628Y10977715D02*
X26778390Y10930096D01*
X25857580Y25026858D02*
X25905200Y25074477D01*
X25905200Y25074477D02*
X25952819Y25217334D01*
X25952819Y25217334D02*
X25952819Y25312572D01*
X25952819Y25312572D02*
X25905200Y25455429D01*
X25905200Y25455429D02*
X25809961Y25550667D01*
X25809961Y25550667D02*
X25714723Y25598286D01*
X25714723Y25598286D02*
X25524247Y25645905D01*
X25524247Y25645905D02*
X25381390Y25645905D01*
X25381390Y25645905D02*
X25190914Y25598286D01*
X25190914Y25598286D02*
X25095676Y25550667D01*
X25095676Y25550667D02*
X25000438Y25455429D01*
X25000438Y25455429D02*
X24952819Y25312572D01*
X24952819Y25312572D02*
X24952819Y25217334D01*
X24952819Y25217334D02*
X25000438Y25074477D01*
X25000438Y25074477D02*
X25048057Y25026858D01*
X25048057Y24645905D02*
X25000438Y24598286D01*
X25000438Y24598286D02*
X24952819Y24503048D01*
X24952819Y24503048D02*
X24952819Y24264953D01*
X24952819Y24264953D02*
X25000438Y24169715D01*
X25000438Y24169715D02*
X25048057Y24122096D01*
X25048057Y24122096D02*
X25143295Y24074477D01*
X25143295Y24074477D02*
X25238533Y24074477D01*
X25238533Y24074477D02*
X25381390Y24122096D01*
X25381390Y24122096D02*
X25952819Y24693524D01*
X25952819Y24693524D02*
X25952819Y24074477D01*
X24952819Y23217334D02*
X24952819Y23407810D01*
X24952819Y23407810D02*
X25000438Y23503048D01*
X25000438Y23503048D02*
X25048057Y23550667D01*
X25048057Y23550667D02*
X25190914Y23645905D01*
X25190914Y23645905D02*
X25381390Y23693524D01*
X25381390Y23693524D02*
X25762342Y23693524D01*
X25762342Y23693524D02*
X25857580Y23645905D01*
X25857580Y23645905D02*
X25905200Y23598286D01*
X25905200Y23598286D02*
X25952819Y23503048D01*
X25952819Y23503048D02*
X25952819Y23312572D01*
X25952819Y23312572D02*
X25905200Y23217334D01*
X25905200Y23217334D02*
X25857580Y23169715D01*
X25857580Y23169715D02*
X25762342Y23122096D01*
X25762342Y23122096D02*
X25524247Y23122096D01*
X25524247Y23122096D02*
X25429009Y23169715D01*
X25429009Y23169715D02*
X25381390Y23217334D01*
X25381390Y23217334D02*
X25333771Y23312572D01*
X25333771Y23312572D02*
X25333771Y23503048D01*
X25333771Y23503048D02*
X25381390Y23598286D01*
X25381390Y23598286D02*
X25429009Y23645905D01*
X25429009Y23645905D02*
X25524247Y23693524D01*
X45053238Y48585943D02*
X45148476Y48633562D01*
X45148476Y48633562D02*
X45243714Y48728800D01*
X45243714Y48728800D02*
X45386571Y48871658D01*
X45386571Y48871658D02*
X45481809Y48919277D01*
X45481809Y48919277D02*
X45577047Y48919277D01*
X45529428Y48681181D02*
X45624666Y48728800D01*
X45624666Y48728800D02*
X45719904Y48824039D01*
X45719904Y48824039D02*
X45767523Y49014515D01*
X45767523Y49014515D02*
X45767523Y49347848D01*
X45767523Y49347848D02*
X45719904Y49538324D01*
X45719904Y49538324D02*
X45624666Y49633562D01*
X45624666Y49633562D02*
X45529428Y49681181D01*
X45529428Y49681181D02*
X45338952Y49681181D01*
X45338952Y49681181D02*
X45243714Y49633562D01*
X45243714Y49633562D02*
X45148476Y49538324D01*
X45148476Y49538324D02*
X45100857Y49347848D01*
X45100857Y49347848D02*
X45100857Y49014515D01*
X45100857Y49014515D02*
X45148476Y48824039D01*
X45148476Y48824039D02*
X45243714Y48728800D01*
X45243714Y48728800D02*
X45338952Y48681181D01*
X45338952Y48681181D02*
X45529428Y48681181D01*
X44719904Y49585943D02*
X44672285Y49633562D01*
X44672285Y49633562D02*
X44577047Y49681181D01*
X44577047Y49681181D02*
X44338952Y49681181D01*
X44338952Y49681181D02*
X44243714Y49633562D01*
X44243714Y49633562D02*
X44196095Y49585943D01*
X44196095Y49585943D02*
X44148476Y49490705D01*
X44148476Y49490705D02*
X44148476Y49395467D01*
X44148476Y49395467D02*
X44196095Y49252610D01*
X44196095Y49252610D02*
X44767523Y48681181D01*
X44767523Y48681181D02*
X44148476Y48681181D01*
D11*
%TO.C,C1*%
X15628252Y30072000D02*
X15105748Y30072000D01*
X15628252Y28602000D02*
X15105748Y28602000D01*
%TO.C,C5*%
X32752420Y25910000D02*
X33033580Y25910000D01*
X32752420Y24890000D02*
X33033580Y24890000D01*
%TO.C,C6*%
X34825000Y24249748D02*
X34825000Y24772252D01*
X36295000Y24249748D02*
X36295000Y24772252D01*
%TO.C,C7*%
X44050852Y26058800D02*
X43528348Y26058800D01*
X44050852Y24588800D02*
X43528348Y24588800D01*
%TO.C,C8*%
X44076252Y23976000D02*
X43553748Y23976000D01*
X44076252Y22506000D02*
X43553748Y22506000D01*
%TO.C,C9*%
X25554000Y28186748D02*
X25554000Y28709252D01*
X27024000Y28186748D02*
X27024000Y28709252D01*
%TO.C,C11*%
X29852252Y52043000D02*
X29329748Y52043000D01*
X29852252Y50573000D02*
X29329748Y50573000D01*
%TO.C,C16*%
X59428748Y33882000D02*
X59951252Y33882000D01*
X59428748Y32412000D02*
X59951252Y32412000D01*
%TO.C,C17*%
X62384000Y29329748D02*
X62384000Y29852252D01*
X63854000Y29329748D02*
X63854000Y29852252D01*
%TO.C,C18*%
X60186900Y29875052D02*
X60186900Y29352548D01*
X61656900Y29875052D02*
X61656900Y29352548D01*
D12*
%TO.C,J1*%
X5401000Y40350000D02*
X5401000Y30770000D01*
X5401000Y30770000D02*
X6681000Y30770000D01*
X6681000Y40350000D02*
X5401000Y40350000D01*
X9401000Y40350000D02*
X10651000Y40350000D01*
X9401000Y30770000D02*
X10651000Y30770000D01*
D11*
%TO.C,L1*%
X30980748Y23462000D02*
X31503252Y23462000D01*
X30980748Y21242000D02*
X31503252Y21242000D01*
%TO.C,Q1*%
X26314000Y45734000D02*
X26314000Y46114000D01*
X26314000Y41134000D02*
X26314000Y40734000D01*
X27364000Y46134000D02*
X26314000Y46134000D01*
X27364000Y40734000D02*
X26314000Y40734000D01*
X29764000Y46134000D02*
X28164000Y46134000D01*
X29764000Y40734000D02*
X28164000Y40734000D01*
X32614000Y46134000D02*
X30664000Y46134000D01*
X32614000Y45734000D02*
X32614000Y46134000D01*
X32614000Y41134000D02*
X32614000Y40734000D01*
X32614000Y40734000D02*
X30664000Y40734000D01*
%TO.C,R1*%
X15013000Y37237936D02*
X15013000Y37692064D01*
X16483000Y37237936D02*
X16483000Y37692064D01*
%TO.C,R3*%
X23267936Y44677000D02*
X23722064Y44677000D01*
X23267936Y43207000D02*
X23722064Y43207000D01*
%TO.C,R5*%
X28548064Y36676000D02*
X28093936Y36676000D01*
X28548064Y35206000D02*
X28093936Y35206000D01*
%TO.C,R6*%
X34952000Y40359064D02*
X34952000Y39904936D01*
X36422000Y40359064D02*
X36422000Y39904936D01*
%TO.C,R7*%
X23140936Y32485000D02*
X23595064Y32485000D01*
X23140936Y31015000D02*
X23595064Y31015000D01*
%TO.C,R8*%
X40867064Y32358000D02*
X40412936Y32358000D01*
X40867064Y30888000D02*
X40412936Y30888000D01*
%TO.C,R9*%
X38708064Y29310000D02*
X38253936Y29310000D01*
X38708064Y27840000D02*
X38253936Y27840000D01*
%TO.C,R11*%
X36983936Y61187000D02*
X37438064Y61187000D01*
X36983936Y59717000D02*
X37438064Y59717000D01*
%TO.C,R17*%
X40097064Y47900000D02*
X38642936Y47900000D01*
X40097064Y46080000D02*
X38642936Y46080000D01*
%TO.C,R18*%
X47525000Y44476936D02*
X47525000Y44931064D01*
X48995000Y44476936D02*
X48995000Y44931064D01*
%TO.C,R19*%
X48794936Y48487000D02*
X49249064Y48487000D01*
X48794936Y47017000D02*
X49249064Y47017000D01*
%TO.C,R20*%
X52986000Y34009064D02*
X52986000Y33554936D01*
X54456000Y34009064D02*
X54456000Y33554936D01*
%TO.C,R23*%
X51716000Y47905936D02*
X51716000Y48360064D01*
X53186000Y47905936D02*
X53186000Y48360064D01*
%TO.C,R24*%
X55018000Y33554936D02*
X55018000Y34009064D01*
X56488000Y33554936D02*
X56488000Y34009064D01*
%TO.C,R27*%
X57050000Y40285936D02*
X57050000Y40740064D01*
X58520000Y40285936D02*
X58520000Y40740064D01*
%TO.C,R28*%
X55779936Y37946000D02*
X56234064Y37946000D01*
X55779936Y36476000D02*
X56234064Y36476000D01*
%TO.C,R32*%
X13841464Y45769200D02*
X13387336Y45769200D01*
X13841464Y44299200D02*
X13387336Y44299200D01*
%TO.C,R33*%
X14070064Y26643000D02*
X13615936Y26643000D01*
X14070064Y25173000D02*
X13615936Y25173000D01*
%TO.C,U1*%
X29515700Y27227500D02*
X29035700Y27227500D01*
X29275700Y27557500D01*
X29515700Y27227500D01*
G36*
X29515700Y27227500D02*
G01*
X29035700Y27227500D01*
X29275700Y27557500D01*
X29515700Y27227500D01*
G37*
%TO.C,U3*%
X53770000Y30939000D02*
X54120000Y30939000D01*
X53770000Y30589000D02*
X53770000Y30939000D01*
X53770000Y27069000D02*
X53770000Y26719000D01*
X53770000Y26719000D02*
X54120000Y26719000D01*
X57990000Y27069000D02*
X57990000Y26719000D01*
X57990000Y26719000D02*
X57640000Y26719000D01*
X58100000Y30999000D02*
X57860000Y31329000D01*
X58340000Y31329000D01*
X58100000Y30999000D01*
G36*
X58100000Y30999000D02*
G01*
X57860000Y31329000D01*
X58340000Y31329000D01*
X58100000Y30999000D01*
G37*
%TO.C,R4*%
X23547400Y46988464D02*
X23547400Y46534336D01*
X25017400Y46988464D02*
X25017400Y46534336D01*
%TO.C,C4*%
X15063800Y41841052D02*
X15063800Y41318548D01*
X16533800Y41841052D02*
X16533800Y41318548D01*
%TO.C,C3*%
X17299000Y41790252D02*
X17299000Y41267748D01*
X18769000Y41790252D02*
X18769000Y41267748D01*
%TO.C,C2*%
X19508800Y41739452D02*
X19508800Y41216948D01*
X20978800Y41739452D02*
X20978800Y41216948D01*
%TO.C,C10*%
X34952000Y29344252D02*
X34952000Y28821748D01*
X36422000Y29344252D02*
X36422000Y28821748D01*
%TO.C,R2*%
X14886000Y33247064D02*
X14886000Y32792936D01*
X16356000Y33247064D02*
X16356000Y32792936D01*
%TO.C,R34*%
X77750936Y32104000D02*
X78205064Y32104000D01*
X77750936Y30634000D02*
X78205064Y30634000D01*
%TO.C,C19*%
X29852252Y49249000D02*
X29329748Y49249000D01*
X29852252Y47779000D02*
X29329748Y47779000D01*
%TO.C,C20*%
X23106747Y30326000D02*
X23629253Y30326000D01*
X23106747Y28856000D02*
X23629253Y28856000D01*
%TO.C,R35*%
X80205000Y34689064D02*
X80205000Y30334936D01*
X83625000Y34689064D02*
X83625000Y30334936D01*
%TO.C,R36*%
X77750936Y34263000D02*
X78205064Y34263000D01*
X77750936Y32793000D02*
X78205064Y32793000D01*
%TO.C,R22*%
X52224000Y38200064D02*
X52224000Y37745936D01*
X53694000Y38200064D02*
X53694000Y37745936D01*
%TO.C,Q5*%
X54254000Y49690000D02*
X56204000Y49690000D01*
X54254000Y49290000D02*
X54254000Y49690000D01*
X54254000Y44690000D02*
X54254000Y44290000D01*
X54254000Y44290000D02*
X56204000Y44290000D01*
X57104000Y49690000D02*
X58704000Y49690000D01*
X57104000Y44290000D02*
X58704000Y44290000D01*
X59504000Y49690000D02*
X60554000Y49690000D01*
X59504000Y44290000D02*
X60554000Y44290000D01*
X60554000Y49290000D02*
X60554000Y49690000D01*
X60554000Y44690000D02*
X60554000Y44310000D01*
%TO.C,Q3*%
X44856000Y41543000D02*
X44856000Y41923000D01*
X44856000Y36943000D02*
X44856000Y36543000D01*
X45906000Y41943000D02*
X44856000Y41943000D01*
X45906000Y36543000D02*
X44856000Y36543000D01*
X48306000Y41943000D02*
X46706000Y41943000D01*
X48306000Y36543000D02*
X46706000Y36543000D01*
X51156000Y41943000D02*
X49206000Y41943000D01*
X51156000Y41543000D02*
X51156000Y41943000D01*
X51156000Y36943000D02*
X51156000Y36543000D01*
X51156000Y36543000D02*
X49206000Y36543000D01*
%TO.C,TH3*%
X36984000Y40359064D02*
X36984000Y39904936D01*
X38454000Y40359064D02*
X38454000Y39904936D01*
%TO.C,C27*%
X22125000Y24122748D02*
X22125000Y24645252D01*
X23595000Y24122748D02*
X23595000Y24645252D01*
%TO.C,TH4*%
X45493000Y31977064D02*
X45493000Y31522936D01*
X46963000Y31977064D02*
X46963000Y31522936D01*
%TO.C,D6*%
X50475000Y34782000D02*
X50475000Y32097000D01*
X50475000Y32097000D02*
X52395000Y32097000D01*
X52395000Y32097000D02*
X52395000Y34782000D01*
%TO.C,C21*%
X74068000Y32646252D02*
X74068000Y32123748D01*
X75538000Y32646252D02*
X75538000Y32123748D01*
%TO.C,C25*%
X24284000Y24122748D02*
X24284000Y24645252D01*
X25754000Y24122748D02*
X25754000Y24645252D01*
%TO.C,C24*%
X29985580Y25910000D02*
X29704420Y25910000D01*
X29985580Y24890000D02*
X29704420Y24890000D01*
%TO.C,C31*%
X39143000Y24249748D02*
X39143000Y24772252D01*
X40613000Y24249748D02*
X40613000Y24772252D01*
%TO.C,C30*%
X36984000Y24249748D02*
X36984000Y24772252D01*
X38454000Y24249748D02*
X38454000Y24772252D01*
%TO.C,C29*%
X27840000Y11930748D02*
X27840000Y12453252D01*
X29310000Y11930748D02*
X29310000Y12453252D01*
%TO.C,C26*%
X26443000Y24122748D02*
X26443000Y24645252D01*
X27913000Y24122748D02*
X27913000Y24645252D01*
%TO.C,Q2*%
X44308000Y48296000D02*
X44958000Y48296000D01*
X44308000Y45176000D02*
X44958000Y45176000D01*
X45608000Y48296000D02*
X44958000Y48296000D01*
X45608000Y45176000D02*
X44958000Y45176000D01*
X46120500Y48246000D02*
X45880500Y48576000D01*
X46360500Y48576000D01*
X46120500Y48246000D01*
G36*
X46120500Y48246000D02*
G01*
X45880500Y48576000D01*
X46360500Y48576000D01*
X46120500Y48246000D01*
G37*
%TD*%
M02*
