%TF.GenerationSoftware,KiCad,Pcbnew,8.0.3+1*%
%TF.CreationDate,2024-07-22T23:36:19+00:00*%
%TF.ProjectId,LION2CELL02,4c494f4e-3243-4454-9c4c-30322e6b6963,rev?*%
%TF.SameCoordinates,Original*%
%TF.FileFunction,Legend,Bot*%
%TF.FilePolarity,Positive*%
%FSLAX46Y46*%
G04 Gerber Fmt 4.6, Leading zero omitted, Abs format (unit mm)*
G04 Created by KiCad (PCBNEW 8.0.3+1) date 2024-07-22 23:36:19*
%MOMM*%
%LPD*%
G01*
G04 APERTURE LIST*
%ADD10C,0.150000*%
%ADD11C,0.120000*%
%ADD12C,0.200000*%
G04 APERTURE END LIST*
D10*
X21724580Y39409667D02*
X21772200Y39457286D01*
X21772200Y39457286D02*
X21819819Y39600143D01*
X21819819Y39600143D02*
X21819819Y39695381D01*
X21819819Y39695381D02*
X21772200Y39838238D01*
X21772200Y39838238D02*
X21676961Y39933476D01*
X21676961Y39933476D02*
X21581723Y39981095D01*
X21581723Y39981095D02*
X21391247Y40028714D01*
X21391247Y40028714D02*
X21248390Y40028714D01*
X21248390Y40028714D02*
X21057914Y39981095D01*
X21057914Y39981095D02*
X20962676Y39933476D01*
X20962676Y39933476D02*
X20867438Y39838238D01*
X20867438Y39838238D02*
X20819819Y39695381D01*
X20819819Y39695381D02*
X20819819Y39600143D01*
X20819819Y39600143D02*
X20867438Y39457286D01*
X20867438Y39457286D02*
X20915057Y39409667D01*
X21819819Y38457286D02*
X21819819Y39028714D01*
X21819819Y38743000D02*
X20819819Y38743000D01*
X20819819Y38743000D02*
X20962676Y38838238D01*
X20962676Y38838238D02*
X21057914Y38933476D01*
X21057914Y38933476D02*
X21105533Y39028714D01*
X33059666Y26470420D02*
X33107285Y26422800D01*
X33107285Y26422800D02*
X33250142Y26375181D01*
X33250142Y26375181D02*
X33345380Y26375181D01*
X33345380Y26375181D02*
X33488237Y26422800D01*
X33488237Y26422800D02*
X33583475Y26518039D01*
X33583475Y26518039D02*
X33631094Y26613277D01*
X33631094Y26613277D02*
X33678713Y26803753D01*
X33678713Y26803753D02*
X33678713Y26946610D01*
X33678713Y26946610D02*
X33631094Y27137086D01*
X33631094Y27137086D02*
X33583475Y27232324D01*
X33583475Y27232324D02*
X33488237Y27327562D01*
X33488237Y27327562D02*
X33345380Y27375181D01*
X33345380Y27375181D02*
X33250142Y27375181D01*
X33250142Y27375181D02*
X33107285Y27327562D01*
X33107285Y27327562D02*
X33059666Y27279943D01*
X32154904Y27375181D02*
X32631094Y27375181D01*
X32631094Y27375181D02*
X32678713Y26898991D01*
X32678713Y26898991D02*
X32631094Y26946610D01*
X32631094Y26946610D02*
X32535856Y26994229D01*
X32535856Y26994229D02*
X32297761Y26994229D01*
X32297761Y26994229D02*
X32202523Y26946610D01*
X32202523Y26946610D02*
X32154904Y26898991D01*
X32154904Y26898991D02*
X32107285Y26803753D01*
X32107285Y26803753D02*
X32107285Y26565658D01*
X32107285Y26565658D02*
X32154904Y26470420D01*
X32154904Y26470420D02*
X32202523Y26422800D01*
X32202523Y26422800D02*
X32297761Y26375181D01*
X32297761Y26375181D02*
X32535856Y26375181D01*
X32535856Y26375181D02*
X32631094Y26422800D01*
X32631094Y26422800D02*
X32678713Y26470420D01*
X34239580Y24677667D02*
X34287200Y24725286D01*
X34287200Y24725286D02*
X34334819Y24868143D01*
X34334819Y24868143D02*
X34334819Y24963381D01*
X34334819Y24963381D02*
X34287200Y25106238D01*
X34287200Y25106238D02*
X34191961Y25201476D01*
X34191961Y25201476D02*
X34096723Y25249095D01*
X34096723Y25249095D02*
X33906247Y25296714D01*
X33906247Y25296714D02*
X33763390Y25296714D01*
X33763390Y25296714D02*
X33572914Y25249095D01*
X33572914Y25249095D02*
X33477676Y25201476D01*
X33477676Y25201476D02*
X33382438Y25106238D01*
X33382438Y25106238D02*
X33334819Y24963381D01*
X33334819Y24963381D02*
X33334819Y24868143D01*
X33334819Y24868143D02*
X33382438Y24725286D01*
X33382438Y24725286D02*
X33430057Y24677667D01*
X33334819Y23820524D02*
X33334819Y24011000D01*
X33334819Y24011000D02*
X33382438Y24106238D01*
X33382438Y24106238D02*
X33430057Y24153857D01*
X33430057Y24153857D02*
X33572914Y24249095D01*
X33572914Y24249095D02*
X33763390Y24296714D01*
X33763390Y24296714D02*
X34144342Y24296714D01*
X34144342Y24296714D02*
X34239580Y24249095D01*
X34239580Y24249095D02*
X34287200Y24201476D01*
X34287200Y24201476D02*
X34334819Y24106238D01*
X34334819Y24106238D02*
X34334819Y23915762D01*
X34334819Y23915762D02*
X34287200Y23820524D01*
X34287200Y23820524D02*
X34239580Y23772905D01*
X34239580Y23772905D02*
X34144342Y23725286D01*
X34144342Y23725286D02*
X33906247Y23725286D01*
X33906247Y23725286D02*
X33811009Y23772905D01*
X33811009Y23772905D02*
X33763390Y23820524D01*
X33763390Y23820524D02*
X33715771Y23915762D01*
X33715771Y23915762D02*
X33715771Y24106238D01*
X33715771Y24106238D02*
X33763390Y24201476D01*
X33763390Y24201476D02*
X33811009Y24249095D01*
X33811009Y24249095D02*
X33906247Y24296714D01*
X43704380Y24634667D02*
X43752000Y24682286D01*
X43752000Y24682286D02*
X43799619Y24825143D01*
X43799619Y24825143D02*
X43799619Y24920381D01*
X43799619Y24920381D02*
X43752000Y25063238D01*
X43752000Y25063238D02*
X43656761Y25158476D01*
X43656761Y25158476D02*
X43561523Y25206095D01*
X43561523Y25206095D02*
X43371047Y25253714D01*
X43371047Y25253714D02*
X43228190Y25253714D01*
X43228190Y25253714D02*
X43037714Y25206095D01*
X43037714Y25206095D02*
X42942476Y25158476D01*
X42942476Y25158476D02*
X42847238Y25063238D01*
X42847238Y25063238D02*
X42799619Y24920381D01*
X42799619Y24920381D02*
X42799619Y24825143D01*
X42799619Y24825143D02*
X42847238Y24682286D01*
X42847238Y24682286D02*
X42894857Y24634667D01*
X42799619Y24301333D02*
X42799619Y23634667D01*
X42799619Y23634667D02*
X43799619Y24063238D01*
X47089780Y28292267D02*
X47137400Y28339886D01*
X47137400Y28339886D02*
X47185019Y28482743D01*
X47185019Y28482743D02*
X47185019Y28577981D01*
X47185019Y28577981D02*
X47137400Y28720838D01*
X47137400Y28720838D02*
X47042161Y28816076D01*
X47042161Y28816076D02*
X46946923Y28863695D01*
X46946923Y28863695D02*
X46756447Y28911314D01*
X46756447Y28911314D02*
X46613590Y28911314D01*
X46613590Y28911314D02*
X46423114Y28863695D01*
X46423114Y28863695D02*
X46327876Y28816076D01*
X46327876Y28816076D02*
X46232638Y28720838D01*
X46232638Y28720838D02*
X46185019Y28577981D01*
X46185019Y28577981D02*
X46185019Y28482743D01*
X46185019Y28482743D02*
X46232638Y28339886D01*
X46232638Y28339886D02*
X46280257Y28292267D01*
X46613590Y27720838D02*
X46565971Y27816076D01*
X46565971Y27816076D02*
X46518352Y27863695D01*
X46518352Y27863695D02*
X46423114Y27911314D01*
X46423114Y27911314D02*
X46375495Y27911314D01*
X46375495Y27911314D02*
X46280257Y27863695D01*
X46280257Y27863695D02*
X46232638Y27816076D01*
X46232638Y27816076D02*
X46185019Y27720838D01*
X46185019Y27720838D02*
X46185019Y27530362D01*
X46185019Y27530362D02*
X46232638Y27435124D01*
X46232638Y27435124D02*
X46280257Y27387505D01*
X46280257Y27387505D02*
X46375495Y27339886D01*
X46375495Y27339886D02*
X46423114Y27339886D01*
X46423114Y27339886D02*
X46518352Y27387505D01*
X46518352Y27387505D02*
X46565971Y27435124D01*
X46565971Y27435124D02*
X46613590Y27530362D01*
X46613590Y27530362D02*
X46613590Y27720838D01*
X46613590Y27720838D02*
X46661209Y27816076D01*
X46661209Y27816076D02*
X46708828Y27863695D01*
X46708828Y27863695D02*
X46804066Y27911314D01*
X46804066Y27911314D02*
X46994542Y27911314D01*
X46994542Y27911314D02*
X47089780Y27863695D01*
X47089780Y27863695D02*
X47137400Y27816076D01*
X47137400Y27816076D02*
X47185019Y27720838D01*
X47185019Y27720838D02*
X47185019Y27530362D01*
X47185019Y27530362D02*
X47137400Y27435124D01*
X47137400Y27435124D02*
X47089780Y27387505D01*
X47089780Y27387505D02*
X46994542Y27339886D01*
X46994542Y27339886D02*
X46804066Y27339886D01*
X46804066Y27339886D02*
X46708828Y27387505D01*
X46708828Y27387505D02*
X46661209Y27435124D01*
X46661209Y27435124D02*
X46613590Y27530362D01*
X24968580Y28614667D02*
X25016200Y28662286D01*
X25016200Y28662286D02*
X25063819Y28805143D01*
X25063819Y28805143D02*
X25063819Y28900381D01*
X25063819Y28900381D02*
X25016200Y29043238D01*
X25016200Y29043238D02*
X24920961Y29138476D01*
X24920961Y29138476D02*
X24825723Y29186095D01*
X24825723Y29186095D02*
X24635247Y29233714D01*
X24635247Y29233714D02*
X24492390Y29233714D01*
X24492390Y29233714D02*
X24301914Y29186095D01*
X24301914Y29186095D02*
X24206676Y29138476D01*
X24206676Y29138476D02*
X24111438Y29043238D01*
X24111438Y29043238D02*
X24063819Y28900381D01*
X24063819Y28900381D02*
X24063819Y28805143D01*
X24063819Y28805143D02*
X24111438Y28662286D01*
X24111438Y28662286D02*
X24159057Y28614667D01*
X25063819Y28138476D02*
X25063819Y27948000D01*
X25063819Y27948000D02*
X25016200Y27852762D01*
X25016200Y27852762D02*
X24968580Y27805143D01*
X24968580Y27805143D02*
X24825723Y27709905D01*
X24825723Y27709905D02*
X24635247Y27662286D01*
X24635247Y27662286D02*
X24254295Y27662286D01*
X24254295Y27662286D02*
X24159057Y27709905D01*
X24159057Y27709905D02*
X24111438Y27757524D01*
X24111438Y27757524D02*
X24063819Y27852762D01*
X24063819Y27852762D02*
X24063819Y28043238D01*
X24063819Y28043238D02*
X24111438Y28138476D01*
X24111438Y28138476D02*
X24159057Y28186095D01*
X24159057Y28186095D02*
X24254295Y28233714D01*
X24254295Y28233714D02*
X24492390Y28233714D01*
X24492390Y28233714D02*
X24587628Y28186095D01*
X24587628Y28186095D02*
X24635247Y28138476D01*
X24635247Y28138476D02*
X24682866Y28043238D01*
X24682866Y28043238D02*
X24682866Y27852762D01*
X24682866Y27852762D02*
X24635247Y27757524D01*
X24635247Y27757524D02*
X24587628Y27709905D01*
X24587628Y27709905D02*
X24492390Y27662286D01*
X40901857Y33959419D02*
X40949476Y33911799D01*
X40949476Y33911799D02*
X41092333Y33864180D01*
X41092333Y33864180D02*
X41187571Y33864180D01*
X41187571Y33864180D02*
X41330428Y33911799D01*
X41330428Y33911799D02*
X41425666Y34007038D01*
X41425666Y34007038D02*
X41473285Y34102276D01*
X41473285Y34102276D02*
X41520904Y34292752D01*
X41520904Y34292752D02*
X41520904Y34435609D01*
X41520904Y34435609D02*
X41473285Y34626085D01*
X41473285Y34626085D02*
X41425666Y34721323D01*
X41425666Y34721323D02*
X41330428Y34816561D01*
X41330428Y34816561D02*
X41187571Y34864180D01*
X41187571Y34864180D02*
X41092333Y34864180D01*
X41092333Y34864180D02*
X40949476Y34816561D01*
X40949476Y34816561D02*
X40901857Y34768942D01*
X39949476Y33864180D02*
X40520904Y33864180D01*
X40235190Y33864180D02*
X40235190Y34864180D01*
X40235190Y34864180D02*
X40330428Y34721323D01*
X40330428Y34721323D02*
X40425666Y34626085D01*
X40425666Y34626085D02*
X40520904Y34578466D01*
X38997095Y33864180D02*
X39568523Y33864180D01*
X39282809Y33864180D02*
X39282809Y34864180D01*
X39282809Y34864180D02*
X39378047Y34721323D01*
X39378047Y34721323D02*
X39473285Y34626085D01*
X39473285Y34626085D02*
X39568523Y34578466D01*
X67163961Y41577924D02*
X67211580Y41530304D01*
X67211580Y41530304D02*
X67354437Y41482685D01*
X67354437Y41482685D02*
X67449675Y41482685D01*
X67449675Y41482685D02*
X67592532Y41530304D01*
X67592532Y41530304D02*
X67687770Y41625543D01*
X67687770Y41625543D02*
X67735389Y41720781D01*
X67735389Y41720781D02*
X67783008Y41911257D01*
X67783008Y41911257D02*
X67783008Y42054114D01*
X67783008Y42054114D02*
X67735389Y42244590D01*
X67735389Y42244590D02*
X67687770Y42339828D01*
X67687770Y42339828D02*
X67592532Y42435066D01*
X67592532Y42435066D02*
X67449675Y42482685D01*
X67449675Y42482685D02*
X67354437Y42482685D01*
X67354437Y42482685D02*
X67211580Y42435066D01*
X67211580Y42435066D02*
X67163961Y42387447D01*
X66211580Y41482685D02*
X66783008Y41482685D01*
X66497294Y41482685D02*
X66497294Y42482685D01*
X66497294Y42482685D02*
X66592532Y42339828D01*
X66592532Y42339828D02*
X66687770Y42244590D01*
X66687770Y42244590D02*
X66783008Y42196971D01*
X65354437Y42482685D02*
X65544913Y42482685D01*
X65544913Y42482685D02*
X65640151Y42435066D01*
X65640151Y42435066D02*
X65687770Y42387447D01*
X65687770Y42387447D02*
X65783008Y42244590D01*
X65783008Y42244590D02*
X65830627Y42054114D01*
X65830627Y42054114D02*
X65830627Y41673162D01*
X65830627Y41673162D02*
X65783008Y41577924D01*
X65783008Y41577924D02*
X65735389Y41530304D01*
X65735389Y41530304D02*
X65640151Y41482685D01*
X65640151Y41482685D02*
X65449675Y41482685D01*
X65449675Y41482685D02*
X65354437Y41530304D01*
X65354437Y41530304D02*
X65306818Y41577924D01*
X65306818Y41577924D02*
X65259199Y41673162D01*
X65259199Y41673162D02*
X65259199Y41911257D01*
X65259199Y41911257D02*
X65306818Y42006495D01*
X65306818Y42006495D02*
X65354437Y42054114D01*
X65354437Y42054114D02*
X65449675Y42101733D01*
X65449675Y42101733D02*
X65640151Y42101733D01*
X65640151Y42101733D02*
X65735389Y42054114D01*
X65735389Y42054114D02*
X65783008Y42006495D01*
X65783008Y42006495D02*
X65830627Y41911257D01*
X67740684Y37598362D02*
X67788304Y37645981D01*
X67788304Y37645981D02*
X67835923Y37788838D01*
X67835923Y37788838D02*
X67835923Y37884076D01*
X67835923Y37884076D02*
X67788304Y38026933D01*
X67788304Y38026933D02*
X67693065Y38122171D01*
X67693065Y38122171D02*
X67597827Y38169790D01*
X67597827Y38169790D02*
X67407351Y38217409D01*
X67407351Y38217409D02*
X67264494Y38217409D01*
X67264494Y38217409D02*
X67074018Y38169790D01*
X67074018Y38169790D02*
X66978780Y38122171D01*
X66978780Y38122171D02*
X66883542Y38026933D01*
X66883542Y38026933D02*
X66835923Y37884076D01*
X66835923Y37884076D02*
X66835923Y37788838D01*
X66835923Y37788838D02*
X66883542Y37645981D01*
X66883542Y37645981D02*
X66931161Y37598362D01*
X67835923Y36645981D02*
X67835923Y37217409D01*
X67835923Y36931695D02*
X66835923Y36931695D01*
X66835923Y36931695D02*
X66978780Y37026933D01*
X66978780Y37026933D02*
X67074018Y37122171D01*
X67074018Y37122171D02*
X67121637Y37217409D01*
X66835923Y36312647D02*
X66835923Y35645981D01*
X66835923Y35645981D02*
X67835923Y36074552D01*
X68903584Y37621162D02*
X68951204Y37668781D01*
X68951204Y37668781D02*
X68998823Y37811638D01*
X68998823Y37811638D02*
X68998823Y37906876D01*
X68998823Y37906876D02*
X68951204Y38049733D01*
X68951204Y38049733D02*
X68855965Y38144971D01*
X68855965Y38144971D02*
X68760727Y38192590D01*
X68760727Y38192590D02*
X68570251Y38240209D01*
X68570251Y38240209D02*
X68427394Y38240209D01*
X68427394Y38240209D02*
X68236918Y38192590D01*
X68236918Y38192590D02*
X68141680Y38144971D01*
X68141680Y38144971D02*
X68046442Y38049733D01*
X68046442Y38049733D02*
X67998823Y37906876D01*
X67998823Y37906876D02*
X67998823Y37811638D01*
X67998823Y37811638D02*
X68046442Y37668781D01*
X68046442Y37668781D02*
X68094061Y37621162D01*
X68998823Y36668781D02*
X68998823Y37240209D01*
X68998823Y36954495D02*
X67998823Y36954495D01*
X67998823Y36954495D02*
X68141680Y37049733D01*
X68141680Y37049733D02*
X68236918Y37144971D01*
X68236918Y37144971D02*
X68284537Y37240209D01*
X68427394Y36097352D02*
X68379775Y36192590D01*
X68379775Y36192590D02*
X68332156Y36240209D01*
X68332156Y36240209D02*
X68236918Y36287828D01*
X68236918Y36287828D02*
X68189299Y36287828D01*
X68189299Y36287828D02*
X68094061Y36240209D01*
X68094061Y36240209D02*
X68046442Y36192590D01*
X68046442Y36192590D02*
X67998823Y36097352D01*
X67998823Y36097352D02*
X67998823Y35906876D01*
X67998823Y35906876D02*
X68046442Y35811638D01*
X68046442Y35811638D02*
X68094061Y35764019D01*
X68094061Y35764019D02*
X68189299Y35716400D01*
X68189299Y35716400D02*
X68236918Y35716400D01*
X68236918Y35716400D02*
X68332156Y35764019D01*
X68332156Y35764019D02*
X68379775Y35811638D01*
X68379775Y35811638D02*
X68427394Y35906876D01*
X68427394Y35906876D02*
X68427394Y36097352D01*
X68427394Y36097352D02*
X68475013Y36192590D01*
X68475013Y36192590D02*
X68522632Y36240209D01*
X68522632Y36240209D02*
X68617870Y36287828D01*
X68617870Y36287828D02*
X68808346Y36287828D01*
X68808346Y36287828D02*
X68903584Y36240209D01*
X68903584Y36240209D02*
X68951204Y36192590D01*
X68951204Y36192590D02*
X68998823Y36097352D01*
X68998823Y36097352D02*
X68998823Y35906876D01*
X68998823Y35906876D02*
X68951204Y35811638D01*
X68951204Y35811638D02*
X68903584Y35764019D01*
X68903584Y35764019D02*
X68808346Y35716400D01*
X68808346Y35716400D02*
X68617870Y35716400D01*
X68617870Y35716400D02*
X68522632Y35764019D01*
X68522632Y35764019D02*
X68475013Y35811638D01*
X68475013Y35811638D02*
X68427394Y35906876D01*
X31408666Y22770181D02*
X31884856Y22770181D01*
X31884856Y22770181D02*
X31884856Y23770181D01*
X30551523Y22770181D02*
X31122951Y22770181D01*
X30837237Y22770181D02*
X30837237Y23770181D01*
X30837237Y23770181D02*
X30932475Y23627324D01*
X30932475Y23627324D02*
X31027713Y23532086D01*
X31027713Y23532086D02*
X31122951Y23484467D01*
X43724057Y51276239D02*
X43676438Y51371477D01*
X43676438Y51371477D02*
X43581200Y51466715D01*
X43581200Y51466715D02*
X43438342Y51609572D01*
X43438342Y51609572D02*
X43390723Y51704810D01*
X43390723Y51704810D02*
X43390723Y51800048D01*
X43628819Y51752429D02*
X43581200Y51847667D01*
X43581200Y51847667D02*
X43485961Y51942905D01*
X43485961Y51942905D02*
X43295485Y51990524D01*
X43295485Y51990524D02*
X42962152Y51990524D01*
X42962152Y51990524D02*
X42771676Y51942905D01*
X42771676Y51942905D02*
X42676438Y51847667D01*
X42676438Y51847667D02*
X42628819Y51752429D01*
X42628819Y51752429D02*
X42628819Y51561953D01*
X42628819Y51561953D02*
X42676438Y51466715D01*
X42676438Y51466715D02*
X42771676Y51371477D01*
X42771676Y51371477D02*
X42962152Y51323858D01*
X42962152Y51323858D02*
X43295485Y51323858D01*
X43295485Y51323858D02*
X43485961Y51371477D01*
X43485961Y51371477D02*
X43581200Y51466715D01*
X43581200Y51466715D02*
X43628819Y51561953D01*
X43628819Y51561953D02*
X43628819Y51752429D01*
X43628819Y50371477D02*
X43628819Y50942905D01*
X43628819Y50657191D02*
X42628819Y50657191D01*
X42628819Y50657191D02*
X42771676Y50752429D01*
X42771676Y50752429D02*
X42866914Y50847667D01*
X42866914Y50847667D02*
X42914533Y50942905D01*
X16803666Y38279181D02*
X17136999Y38755372D01*
X17375094Y38279181D02*
X17375094Y39279181D01*
X17375094Y39279181D02*
X16994142Y39279181D01*
X16994142Y39279181D02*
X16898904Y39231562D01*
X16898904Y39231562D02*
X16851285Y39183943D01*
X16851285Y39183943D02*
X16803666Y39088705D01*
X16803666Y39088705D02*
X16803666Y38945848D01*
X16803666Y38945848D02*
X16851285Y38850610D01*
X16851285Y38850610D02*
X16898904Y38802991D01*
X16898904Y38802991D02*
X16994142Y38755372D01*
X16994142Y38755372D02*
X17375094Y38755372D01*
X15851285Y38279181D02*
X16422713Y38279181D01*
X16136999Y38279181D02*
X16136999Y39279181D01*
X16136999Y39279181D02*
X16232237Y39136324D01*
X16232237Y39136324D02*
X16327475Y39041086D01*
X16327475Y39041086D02*
X16422713Y38993467D01*
X35091666Y36374181D02*
X35424999Y36850372D01*
X35663094Y36374181D02*
X35663094Y37374181D01*
X35663094Y37374181D02*
X35282142Y37374181D01*
X35282142Y37374181D02*
X35186904Y37326562D01*
X35186904Y37326562D02*
X35139285Y37278943D01*
X35139285Y37278943D02*
X35091666Y37183705D01*
X35091666Y37183705D02*
X35091666Y37040848D01*
X35091666Y37040848D02*
X35139285Y36945610D01*
X35139285Y36945610D02*
X35186904Y36897991D01*
X35186904Y36897991D02*
X35282142Y36850372D01*
X35282142Y36850372D02*
X35663094Y36850372D01*
X34758332Y37374181D02*
X34139285Y37374181D01*
X34139285Y37374181D02*
X34472618Y36993229D01*
X34472618Y36993229D02*
X34329761Y36993229D01*
X34329761Y36993229D02*
X34234523Y36945610D01*
X34234523Y36945610D02*
X34186904Y36897991D01*
X34186904Y36897991D02*
X34139285Y36802753D01*
X34139285Y36802753D02*
X34139285Y36564658D01*
X34139285Y36564658D02*
X34186904Y36469420D01*
X34186904Y36469420D02*
X34234523Y36421800D01*
X34234523Y36421800D02*
X34329761Y36374181D01*
X34329761Y36374181D02*
X34615475Y36374181D01*
X34615475Y36374181D02*
X34710713Y36421800D01*
X34710713Y36421800D02*
X34758332Y36469420D01*
X35091666Y35233181D02*
X35424999Y35709372D01*
X35663094Y35233181D02*
X35663094Y36233181D01*
X35663094Y36233181D02*
X35282142Y36233181D01*
X35282142Y36233181D02*
X35186904Y36185562D01*
X35186904Y36185562D02*
X35139285Y36137943D01*
X35139285Y36137943D02*
X35091666Y36042705D01*
X35091666Y36042705D02*
X35091666Y35899848D01*
X35091666Y35899848D02*
X35139285Y35804610D01*
X35139285Y35804610D02*
X35186904Y35756991D01*
X35186904Y35756991D02*
X35282142Y35709372D01*
X35282142Y35709372D02*
X35663094Y35709372D01*
X34186904Y36233181D02*
X34663094Y36233181D01*
X34663094Y36233181D02*
X34710713Y35756991D01*
X34710713Y35756991D02*
X34663094Y35804610D01*
X34663094Y35804610D02*
X34567856Y35852229D01*
X34567856Y35852229D02*
X34329761Y35852229D01*
X34329761Y35852229D02*
X34234523Y35804610D01*
X34234523Y35804610D02*
X34186904Y35756991D01*
X34186904Y35756991D02*
X34139285Y35661753D01*
X34139285Y35661753D02*
X34139285Y35423658D01*
X34139285Y35423658D02*
X34186904Y35328420D01*
X34186904Y35328420D02*
X34234523Y35280800D01*
X34234523Y35280800D02*
X34329761Y35233181D01*
X34329761Y35233181D02*
X34567856Y35233181D01*
X34567856Y35233181D02*
X34663094Y35280800D01*
X34663094Y35280800D02*
X34710713Y35328420D01*
X37791819Y40298667D02*
X37315628Y40632000D01*
X37791819Y40870095D02*
X36791819Y40870095D01*
X36791819Y40870095D02*
X36791819Y40489143D01*
X36791819Y40489143D02*
X36839438Y40393905D01*
X36839438Y40393905D02*
X36887057Y40346286D01*
X36887057Y40346286D02*
X36982295Y40298667D01*
X36982295Y40298667D02*
X37125152Y40298667D01*
X37125152Y40298667D02*
X37220390Y40346286D01*
X37220390Y40346286D02*
X37268009Y40393905D01*
X37268009Y40393905D02*
X37315628Y40489143D01*
X37315628Y40489143D02*
X37315628Y40870095D01*
X36791819Y39441524D02*
X36791819Y39632000D01*
X36791819Y39632000D02*
X36839438Y39727238D01*
X36839438Y39727238D02*
X36887057Y39774857D01*
X36887057Y39774857D02*
X37029914Y39870095D01*
X37029914Y39870095D02*
X37220390Y39917714D01*
X37220390Y39917714D02*
X37601342Y39917714D01*
X37601342Y39917714D02*
X37696580Y39870095D01*
X37696580Y39870095D02*
X37744200Y39822476D01*
X37744200Y39822476D02*
X37791819Y39727238D01*
X37791819Y39727238D02*
X37791819Y39536762D01*
X37791819Y39536762D02*
X37744200Y39441524D01*
X37744200Y39441524D02*
X37696580Y39393905D01*
X37696580Y39393905D02*
X37601342Y39346286D01*
X37601342Y39346286D02*
X37363247Y39346286D01*
X37363247Y39346286D02*
X37268009Y39393905D01*
X37268009Y39393905D02*
X37220390Y39441524D01*
X37220390Y39441524D02*
X37172771Y39536762D01*
X37172771Y39536762D02*
X37172771Y39727238D01*
X37172771Y39727238D02*
X37220390Y39822476D01*
X37220390Y39822476D02*
X37268009Y39870095D01*
X37268009Y39870095D02*
X37363247Y39917714D01*
X19378819Y28868667D02*
X18902628Y29202000D01*
X19378819Y29440095D02*
X18378819Y29440095D01*
X18378819Y29440095D02*
X18378819Y29059143D01*
X18378819Y29059143D02*
X18426438Y28963905D01*
X18426438Y28963905D02*
X18474057Y28916286D01*
X18474057Y28916286D02*
X18569295Y28868667D01*
X18569295Y28868667D02*
X18712152Y28868667D01*
X18712152Y28868667D02*
X18807390Y28916286D01*
X18807390Y28916286D02*
X18855009Y28963905D01*
X18855009Y28963905D02*
X18902628Y29059143D01*
X18902628Y29059143D02*
X18902628Y29440095D01*
X18378819Y28535333D02*
X18378819Y27868667D01*
X18378819Y27868667D02*
X19378819Y28297238D01*
X42076666Y33074181D02*
X42409999Y33550372D01*
X42648094Y33074181D02*
X42648094Y34074181D01*
X42648094Y34074181D02*
X42267142Y34074181D01*
X42267142Y34074181D02*
X42171904Y34026562D01*
X42171904Y34026562D02*
X42124285Y33978943D01*
X42124285Y33978943D02*
X42076666Y33883705D01*
X42076666Y33883705D02*
X42076666Y33740848D01*
X42076666Y33740848D02*
X42124285Y33645610D01*
X42124285Y33645610D02*
X42171904Y33597991D01*
X42171904Y33597991D02*
X42267142Y33550372D01*
X42267142Y33550372D02*
X42648094Y33550372D01*
X41505237Y33645610D02*
X41600475Y33693229D01*
X41600475Y33693229D02*
X41648094Y33740848D01*
X41648094Y33740848D02*
X41695713Y33836086D01*
X41695713Y33836086D02*
X41695713Y33883705D01*
X41695713Y33883705D02*
X41648094Y33978943D01*
X41648094Y33978943D02*
X41600475Y34026562D01*
X41600475Y34026562D02*
X41505237Y34074181D01*
X41505237Y34074181D02*
X41314761Y34074181D01*
X41314761Y34074181D02*
X41219523Y34026562D01*
X41219523Y34026562D02*
X41171904Y33978943D01*
X41171904Y33978943D02*
X41124285Y33883705D01*
X41124285Y33883705D02*
X41124285Y33836086D01*
X41124285Y33836086D02*
X41171904Y33740848D01*
X41171904Y33740848D02*
X41219523Y33693229D01*
X41219523Y33693229D02*
X41314761Y33645610D01*
X41314761Y33645610D02*
X41505237Y33645610D01*
X41505237Y33645610D02*
X41600475Y33597991D01*
X41600475Y33597991D02*
X41648094Y33550372D01*
X41648094Y33550372D02*
X41695713Y33455134D01*
X41695713Y33455134D02*
X41695713Y33264658D01*
X41695713Y33264658D02*
X41648094Y33169420D01*
X41648094Y33169420D02*
X41600475Y33121800D01*
X41600475Y33121800D02*
X41505237Y33074181D01*
X41505237Y33074181D02*
X41314761Y33074181D01*
X41314761Y33074181D02*
X41219523Y33121800D01*
X41219523Y33121800D02*
X41171904Y33169420D01*
X41171904Y33169420D02*
X41124285Y33264658D01*
X41124285Y33264658D02*
X41124285Y33455134D01*
X41124285Y33455134D02*
X41171904Y33550372D01*
X41171904Y33550372D02*
X41219523Y33597991D01*
X41219523Y33597991D02*
X41314761Y33645610D01*
X38647666Y26470181D02*
X38980999Y26946372D01*
X39219094Y26470181D02*
X39219094Y27470181D01*
X39219094Y27470181D02*
X38838142Y27470181D01*
X38838142Y27470181D02*
X38742904Y27422562D01*
X38742904Y27422562D02*
X38695285Y27374943D01*
X38695285Y27374943D02*
X38647666Y27279705D01*
X38647666Y27279705D02*
X38647666Y27136848D01*
X38647666Y27136848D02*
X38695285Y27041610D01*
X38695285Y27041610D02*
X38742904Y26993991D01*
X38742904Y26993991D02*
X38838142Y26946372D01*
X38838142Y26946372D02*
X39219094Y26946372D01*
X38171475Y26470181D02*
X37980999Y26470181D01*
X37980999Y26470181D02*
X37885761Y26517800D01*
X37885761Y26517800D02*
X37838142Y26565420D01*
X37838142Y26565420D02*
X37742904Y26708277D01*
X37742904Y26708277D02*
X37695285Y26898753D01*
X37695285Y26898753D02*
X37695285Y27279705D01*
X37695285Y27279705D02*
X37742904Y27374943D01*
X37742904Y27374943D02*
X37790523Y27422562D01*
X37790523Y27422562D02*
X37885761Y27470181D01*
X37885761Y27470181D02*
X38076237Y27470181D01*
X38076237Y27470181D02*
X38171475Y27422562D01*
X38171475Y27422562D02*
X38219094Y27374943D01*
X38219094Y27374943D02*
X38266713Y27279705D01*
X38266713Y27279705D02*
X38266713Y27041610D01*
X38266713Y27041610D02*
X38219094Y26946372D01*
X38219094Y26946372D02*
X38171475Y26898753D01*
X38171475Y26898753D02*
X38076237Y26851134D01*
X38076237Y26851134D02*
X37885761Y26851134D01*
X37885761Y26851134D02*
X37790523Y26898753D01*
X37790523Y26898753D02*
X37742904Y26946372D01*
X37742904Y26946372D02*
X37695285Y27041610D01*
X43822857Y64060181D02*
X44156190Y64536372D01*
X44394285Y64060181D02*
X44394285Y65060181D01*
X44394285Y65060181D02*
X44013333Y65060181D01*
X44013333Y65060181D02*
X43918095Y65012562D01*
X43918095Y65012562D02*
X43870476Y64964943D01*
X43870476Y64964943D02*
X43822857Y64869705D01*
X43822857Y64869705D02*
X43822857Y64726848D01*
X43822857Y64726848D02*
X43870476Y64631610D01*
X43870476Y64631610D02*
X43918095Y64583991D01*
X43918095Y64583991D02*
X44013333Y64536372D01*
X44013333Y64536372D02*
X44394285Y64536372D01*
X42870476Y64060181D02*
X43441904Y64060181D01*
X43156190Y64060181D02*
X43156190Y65060181D01*
X43156190Y65060181D02*
X43251428Y64917324D01*
X43251428Y64917324D02*
X43346666Y64822086D01*
X43346666Y64822086D02*
X43441904Y64774467D01*
X41918095Y64060181D02*
X42489523Y64060181D01*
X42203809Y64060181D02*
X42203809Y65060181D01*
X42203809Y65060181D02*
X42299047Y64917324D01*
X42299047Y64917324D02*
X42394285Y64822086D01*
X42394285Y64822086D02*
X42489523Y64774467D01*
X15398819Y50045858D02*
X14922628Y50379191D01*
X15398819Y50617286D02*
X14398819Y50617286D01*
X14398819Y50617286D02*
X14398819Y50236334D01*
X14398819Y50236334D02*
X14446438Y50141096D01*
X14446438Y50141096D02*
X14494057Y50093477D01*
X14494057Y50093477D02*
X14589295Y50045858D01*
X14589295Y50045858D02*
X14732152Y50045858D01*
X14732152Y50045858D02*
X14827390Y50093477D01*
X14827390Y50093477D02*
X14875009Y50141096D01*
X14875009Y50141096D02*
X14922628Y50236334D01*
X14922628Y50236334D02*
X14922628Y50617286D01*
X15398819Y49093477D02*
X15398819Y49664905D01*
X15398819Y49379191D02*
X14398819Y49379191D01*
X14398819Y49379191D02*
X14541676Y49474429D01*
X14541676Y49474429D02*
X14636914Y49569667D01*
X14636914Y49569667D02*
X14684533Y49664905D01*
X14398819Y48760143D02*
X14398819Y48093477D01*
X14398819Y48093477D02*
X15398819Y48522048D01*
X24772857Y49201181D02*
X25106190Y49677372D01*
X25344285Y49201181D02*
X25344285Y50201181D01*
X25344285Y50201181D02*
X24963333Y50201181D01*
X24963333Y50201181D02*
X24868095Y50153562D01*
X24868095Y50153562D02*
X24820476Y50105943D01*
X24820476Y50105943D02*
X24772857Y50010705D01*
X24772857Y50010705D02*
X24772857Y49867848D01*
X24772857Y49867848D02*
X24820476Y49772610D01*
X24820476Y49772610D02*
X24868095Y49724991D01*
X24868095Y49724991D02*
X24963333Y49677372D01*
X24963333Y49677372D02*
X25344285Y49677372D01*
X23820476Y49201181D02*
X24391904Y49201181D01*
X24106190Y49201181D02*
X24106190Y50201181D01*
X24106190Y50201181D02*
X24201428Y50058324D01*
X24201428Y50058324D02*
X24296666Y49963086D01*
X24296666Y49963086D02*
X24391904Y49915467D01*
X23249047Y49772610D02*
X23344285Y49820229D01*
X23344285Y49820229D02*
X23391904Y49867848D01*
X23391904Y49867848D02*
X23439523Y49963086D01*
X23439523Y49963086D02*
X23439523Y50010705D01*
X23439523Y50010705D02*
X23391904Y50105943D01*
X23391904Y50105943D02*
X23344285Y50153562D01*
X23344285Y50153562D02*
X23249047Y50201181D01*
X23249047Y50201181D02*
X23058571Y50201181D01*
X23058571Y50201181D02*
X22963333Y50153562D01*
X22963333Y50153562D02*
X22915714Y50105943D01*
X22915714Y50105943D02*
X22868095Y50010705D01*
X22868095Y50010705D02*
X22868095Y49963086D01*
X22868095Y49963086D02*
X22915714Y49867848D01*
X22915714Y49867848D02*
X22963333Y49820229D01*
X22963333Y49820229D02*
X23058571Y49772610D01*
X23058571Y49772610D02*
X23249047Y49772610D01*
X23249047Y49772610D02*
X23344285Y49724991D01*
X23344285Y49724991D02*
X23391904Y49677372D01*
X23391904Y49677372D02*
X23439523Y49582134D01*
X23439523Y49582134D02*
X23439523Y49391658D01*
X23439523Y49391658D02*
X23391904Y49296420D01*
X23391904Y49296420D02*
X23344285Y49248800D01*
X23344285Y49248800D02*
X23249047Y49201181D01*
X23249047Y49201181D02*
X23058571Y49201181D01*
X23058571Y49201181D02*
X22963333Y49248800D01*
X22963333Y49248800D02*
X22915714Y49296420D01*
X22915714Y49296420D02*
X22868095Y49391658D01*
X22868095Y49391658D02*
X22868095Y49582134D01*
X22868095Y49582134D02*
X22915714Y49677372D01*
X22915714Y49677372D02*
X22963333Y49724991D01*
X22963333Y49724991D02*
X23058571Y49772610D01*
X28709857Y47042181D02*
X29043190Y47518372D01*
X29281285Y47042181D02*
X29281285Y48042181D01*
X29281285Y48042181D02*
X28900333Y48042181D01*
X28900333Y48042181D02*
X28805095Y47994562D01*
X28805095Y47994562D02*
X28757476Y47946943D01*
X28757476Y47946943D02*
X28709857Y47851705D01*
X28709857Y47851705D02*
X28709857Y47708848D01*
X28709857Y47708848D02*
X28757476Y47613610D01*
X28757476Y47613610D02*
X28805095Y47565991D01*
X28805095Y47565991D02*
X28900333Y47518372D01*
X28900333Y47518372D02*
X29281285Y47518372D01*
X27757476Y47042181D02*
X28328904Y47042181D01*
X28043190Y47042181D02*
X28043190Y48042181D01*
X28043190Y48042181D02*
X28138428Y47899324D01*
X28138428Y47899324D02*
X28233666Y47804086D01*
X28233666Y47804086D02*
X28328904Y47756467D01*
X27281285Y47042181D02*
X27090809Y47042181D01*
X27090809Y47042181D02*
X26995571Y47089800D01*
X26995571Y47089800D02*
X26947952Y47137420D01*
X26947952Y47137420D02*
X26852714Y47280277D01*
X26852714Y47280277D02*
X26805095Y47470753D01*
X26805095Y47470753D02*
X26805095Y47851705D01*
X26805095Y47851705D02*
X26852714Y47946943D01*
X26852714Y47946943D02*
X26900333Y47994562D01*
X26900333Y47994562D02*
X26995571Y48042181D01*
X26995571Y48042181D02*
X27186047Y48042181D01*
X27186047Y48042181D02*
X27281285Y47994562D01*
X27281285Y47994562D02*
X27328904Y47946943D01*
X27328904Y47946943D02*
X27376523Y47851705D01*
X27376523Y47851705D02*
X27376523Y47613610D01*
X27376523Y47613610D02*
X27328904Y47518372D01*
X27328904Y47518372D02*
X27281285Y47470753D01*
X27281285Y47470753D02*
X27186047Y47423134D01*
X27186047Y47423134D02*
X26995571Y47423134D01*
X26995571Y47423134D02*
X26900333Y47470753D01*
X26900333Y47470753D02*
X26852714Y47518372D01*
X26852714Y47518372D02*
X26805095Y47613610D01*
X61767923Y41789362D02*
X61291732Y42122695D01*
X61767923Y42360790D02*
X60767923Y42360790D01*
X60767923Y42360790D02*
X60767923Y41979838D01*
X60767923Y41979838D02*
X60815542Y41884600D01*
X60815542Y41884600D02*
X60863161Y41836981D01*
X60863161Y41836981D02*
X60958399Y41789362D01*
X60958399Y41789362D02*
X61101256Y41789362D01*
X61101256Y41789362D02*
X61196494Y41836981D01*
X61196494Y41836981D02*
X61244113Y41884600D01*
X61244113Y41884600D02*
X61291732Y41979838D01*
X61291732Y41979838D02*
X61291732Y42360790D01*
X60863161Y41408409D02*
X60815542Y41360790D01*
X60815542Y41360790D02*
X60767923Y41265552D01*
X60767923Y41265552D02*
X60767923Y41027457D01*
X60767923Y41027457D02*
X60815542Y40932219D01*
X60815542Y40932219D02*
X60863161Y40884600D01*
X60863161Y40884600D02*
X60958399Y40836981D01*
X60958399Y40836981D02*
X61053637Y40836981D01*
X61053637Y40836981D02*
X61196494Y40884600D01*
X61196494Y40884600D02*
X61767923Y41456028D01*
X61767923Y41456028D02*
X61767923Y40836981D01*
X60767923Y40217933D02*
X60767923Y40122695D01*
X60767923Y40122695D02*
X60815542Y40027457D01*
X60815542Y40027457D02*
X60863161Y39979838D01*
X60863161Y39979838D02*
X60958399Y39932219D01*
X60958399Y39932219D02*
X61148875Y39884600D01*
X61148875Y39884600D02*
X61386970Y39884600D01*
X61386970Y39884600D02*
X61577446Y39932219D01*
X61577446Y39932219D02*
X61672684Y39979838D01*
X61672684Y39979838D02*
X61720304Y40027457D01*
X61720304Y40027457D02*
X61767923Y40122695D01*
X61767923Y40122695D02*
X61767923Y40217933D01*
X61767923Y40217933D02*
X61720304Y40313171D01*
X61720304Y40313171D02*
X61672684Y40360790D01*
X61672684Y40360790D02*
X61577446Y40408409D01*
X61577446Y40408409D02*
X61386970Y40456028D01*
X61386970Y40456028D02*
X61148875Y40456028D01*
X61148875Y40456028D02*
X60958399Y40408409D01*
X60958399Y40408409D02*
X60863161Y40360790D01*
X60863161Y40360790D02*
X60815542Y40313171D01*
X60815542Y40313171D02*
X60767923Y40217933D01*
X36267819Y51061858D02*
X35791628Y51395191D01*
X36267819Y51633286D02*
X35267819Y51633286D01*
X35267819Y51633286D02*
X35267819Y51252334D01*
X35267819Y51252334D02*
X35315438Y51157096D01*
X35315438Y51157096D02*
X35363057Y51109477D01*
X35363057Y51109477D02*
X35458295Y51061858D01*
X35458295Y51061858D02*
X35601152Y51061858D01*
X35601152Y51061858D02*
X35696390Y51109477D01*
X35696390Y51109477D02*
X35744009Y51157096D01*
X35744009Y51157096D02*
X35791628Y51252334D01*
X35791628Y51252334D02*
X35791628Y51633286D01*
X35363057Y50680905D02*
X35315438Y50633286D01*
X35315438Y50633286D02*
X35267819Y50538048D01*
X35267819Y50538048D02*
X35267819Y50299953D01*
X35267819Y50299953D02*
X35315438Y50204715D01*
X35315438Y50204715D02*
X35363057Y50157096D01*
X35363057Y50157096D02*
X35458295Y50109477D01*
X35458295Y50109477D02*
X35553533Y50109477D01*
X35553533Y50109477D02*
X35696390Y50157096D01*
X35696390Y50157096D02*
X36267819Y50728524D01*
X36267819Y50728524D02*
X36267819Y50109477D01*
X35267819Y49776143D02*
X35267819Y49157096D01*
X35267819Y49157096D02*
X35648771Y49490429D01*
X35648771Y49490429D02*
X35648771Y49347572D01*
X35648771Y49347572D02*
X35696390Y49252334D01*
X35696390Y49252334D02*
X35744009Y49204715D01*
X35744009Y49204715D02*
X35839247Y49157096D01*
X35839247Y49157096D02*
X36077342Y49157096D01*
X36077342Y49157096D02*
X36172580Y49204715D01*
X36172580Y49204715D02*
X36220200Y49252334D01*
X36220200Y49252334D02*
X36267819Y49347572D01*
X36267819Y49347572D02*
X36267819Y49633286D01*
X36267819Y49633286D02*
X36220200Y49728524D01*
X36220200Y49728524D02*
X36172580Y49776143D01*
X44457857Y35233181D02*
X44791190Y35709372D01*
X45029285Y35233181D02*
X45029285Y36233181D01*
X45029285Y36233181D02*
X44648333Y36233181D01*
X44648333Y36233181D02*
X44553095Y36185562D01*
X44553095Y36185562D02*
X44505476Y36137943D01*
X44505476Y36137943D02*
X44457857Y36042705D01*
X44457857Y36042705D02*
X44457857Y35899848D01*
X44457857Y35899848D02*
X44505476Y35804610D01*
X44505476Y35804610D02*
X44553095Y35756991D01*
X44553095Y35756991D02*
X44648333Y35709372D01*
X44648333Y35709372D02*
X45029285Y35709372D01*
X44076904Y36137943D02*
X44029285Y36185562D01*
X44029285Y36185562D02*
X43934047Y36233181D01*
X43934047Y36233181D02*
X43695952Y36233181D01*
X43695952Y36233181D02*
X43600714Y36185562D01*
X43600714Y36185562D02*
X43553095Y36137943D01*
X43553095Y36137943D02*
X43505476Y36042705D01*
X43505476Y36042705D02*
X43505476Y35947467D01*
X43505476Y35947467D02*
X43553095Y35804610D01*
X43553095Y35804610D02*
X44124523Y35233181D01*
X44124523Y35233181D02*
X43505476Y35233181D01*
X42648333Y35899848D02*
X42648333Y35233181D01*
X42886428Y36280800D02*
X43124523Y35566515D01*
X43124523Y35566515D02*
X42505476Y35566515D01*
X38742857Y43996181D02*
X39076190Y44472372D01*
X39314285Y43996181D02*
X39314285Y44996181D01*
X39314285Y44996181D02*
X38933333Y44996181D01*
X38933333Y44996181D02*
X38838095Y44948562D01*
X38838095Y44948562D02*
X38790476Y44900943D01*
X38790476Y44900943D02*
X38742857Y44805705D01*
X38742857Y44805705D02*
X38742857Y44662848D01*
X38742857Y44662848D02*
X38790476Y44567610D01*
X38790476Y44567610D02*
X38838095Y44519991D01*
X38838095Y44519991D02*
X38933333Y44472372D01*
X38933333Y44472372D02*
X39314285Y44472372D01*
X38361904Y44900943D02*
X38314285Y44948562D01*
X38314285Y44948562D02*
X38219047Y44996181D01*
X38219047Y44996181D02*
X37980952Y44996181D01*
X37980952Y44996181D02*
X37885714Y44948562D01*
X37885714Y44948562D02*
X37838095Y44900943D01*
X37838095Y44900943D02*
X37790476Y44805705D01*
X37790476Y44805705D02*
X37790476Y44710467D01*
X37790476Y44710467D02*
X37838095Y44567610D01*
X37838095Y44567610D02*
X38409523Y43996181D01*
X38409523Y43996181D02*
X37790476Y43996181D01*
X37457142Y44996181D02*
X36790476Y44996181D01*
X36790476Y44996181D02*
X37219047Y43996181D01*
X22678819Y46362858D02*
X22202628Y46696191D01*
X22678819Y46934286D02*
X21678819Y46934286D01*
X21678819Y46934286D02*
X21678819Y46553334D01*
X21678819Y46553334D02*
X21726438Y46458096D01*
X21726438Y46458096D02*
X21774057Y46410477D01*
X21774057Y46410477D02*
X21869295Y46362858D01*
X21869295Y46362858D02*
X22012152Y46362858D01*
X22012152Y46362858D02*
X22107390Y46410477D01*
X22107390Y46410477D02*
X22155009Y46458096D01*
X22155009Y46458096D02*
X22202628Y46553334D01*
X22202628Y46553334D02*
X22202628Y46934286D01*
X21774057Y45981905D02*
X21726438Y45934286D01*
X21726438Y45934286D02*
X21678819Y45839048D01*
X21678819Y45839048D02*
X21678819Y45600953D01*
X21678819Y45600953D02*
X21726438Y45505715D01*
X21726438Y45505715D02*
X21774057Y45458096D01*
X21774057Y45458096D02*
X21869295Y45410477D01*
X21869295Y45410477D02*
X21964533Y45410477D01*
X21964533Y45410477D02*
X22107390Y45458096D01*
X22107390Y45458096D02*
X22678819Y46029524D01*
X22678819Y46029524D02*
X22678819Y45410477D01*
X22107390Y44839048D02*
X22059771Y44934286D01*
X22059771Y44934286D02*
X22012152Y44981905D01*
X22012152Y44981905D02*
X21916914Y45029524D01*
X21916914Y45029524D02*
X21869295Y45029524D01*
X21869295Y45029524D02*
X21774057Y44981905D01*
X21774057Y44981905D02*
X21726438Y44934286D01*
X21726438Y44934286D02*
X21678819Y44839048D01*
X21678819Y44839048D02*
X21678819Y44648572D01*
X21678819Y44648572D02*
X21726438Y44553334D01*
X21726438Y44553334D02*
X21774057Y44505715D01*
X21774057Y44505715D02*
X21869295Y44458096D01*
X21869295Y44458096D02*
X21916914Y44458096D01*
X21916914Y44458096D02*
X22012152Y44505715D01*
X22012152Y44505715D02*
X22059771Y44553334D01*
X22059771Y44553334D02*
X22107390Y44648572D01*
X22107390Y44648572D02*
X22107390Y44839048D01*
X22107390Y44839048D02*
X22155009Y44934286D01*
X22155009Y44934286D02*
X22202628Y44981905D01*
X22202628Y44981905D02*
X22297866Y45029524D01*
X22297866Y45029524D02*
X22488342Y45029524D01*
X22488342Y45029524D02*
X22583580Y44981905D01*
X22583580Y44981905D02*
X22631200Y44934286D01*
X22631200Y44934286D02*
X22678819Y44839048D01*
X22678819Y44839048D02*
X22678819Y44648572D01*
X22678819Y44648572D02*
X22631200Y44553334D01*
X22631200Y44553334D02*
X22583580Y44505715D01*
X22583580Y44505715D02*
X22488342Y44458096D01*
X22488342Y44458096D02*
X22297866Y44458096D01*
X22297866Y44458096D02*
X22202628Y44505715D01*
X22202628Y44505715D02*
X22155009Y44553334D01*
X22155009Y44553334D02*
X22107390Y44648572D01*
X14257257Y42929381D02*
X14590590Y43405572D01*
X14828685Y42929381D02*
X14828685Y43929381D01*
X14828685Y43929381D02*
X14447733Y43929381D01*
X14447733Y43929381D02*
X14352495Y43881762D01*
X14352495Y43881762D02*
X14304876Y43834143D01*
X14304876Y43834143D02*
X14257257Y43738905D01*
X14257257Y43738905D02*
X14257257Y43596048D01*
X14257257Y43596048D02*
X14304876Y43500810D01*
X14304876Y43500810D02*
X14352495Y43453191D01*
X14352495Y43453191D02*
X14447733Y43405572D01*
X14447733Y43405572D02*
X14828685Y43405572D01*
X13923923Y43929381D02*
X13304876Y43929381D01*
X13304876Y43929381D02*
X13638209Y43548429D01*
X13638209Y43548429D02*
X13495352Y43548429D01*
X13495352Y43548429D02*
X13400114Y43500810D01*
X13400114Y43500810D02*
X13352495Y43453191D01*
X13352495Y43453191D02*
X13304876Y43357953D01*
X13304876Y43357953D02*
X13304876Y43119858D01*
X13304876Y43119858D02*
X13352495Y43024620D01*
X13352495Y43024620D02*
X13400114Y42977000D01*
X13400114Y42977000D02*
X13495352Y42929381D01*
X13495352Y42929381D02*
X13781066Y42929381D01*
X13781066Y42929381D02*
X13876304Y42977000D01*
X13876304Y42977000D02*
X13923923Y43024620D01*
X12923923Y43834143D02*
X12876304Y43881762D01*
X12876304Y43881762D02*
X12781066Y43929381D01*
X12781066Y43929381D02*
X12542971Y43929381D01*
X12542971Y43929381D02*
X12447733Y43881762D01*
X12447733Y43881762D02*
X12400114Y43834143D01*
X12400114Y43834143D02*
X12352495Y43738905D01*
X12352495Y43738905D02*
X12352495Y43643667D01*
X12352495Y43643667D02*
X12400114Y43500810D01*
X12400114Y43500810D02*
X12971542Y42929381D01*
X12971542Y42929381D02*
X12352495Y42929381D01*
X14485857Y23803181D02*
X14819190Y24279372D01*
X15057285Y23803181D02*
X15057285Y24803181D01*
X15057285Y24803181D02*
X14676333Y24803181D01*
X14676333Y24803181D02*
X14581095Y24755562D01*
X14581095Y24755562D02*
X14533476Y24707943D01*
X14533476Y24707943D02*
X14485857Y24612705D01*
X14485857Y24612705D02*
X14485857Y24469848D01*
X14485857Y24469848D02*
X14533476Y24374610D01*
X14533476Y24374610D02*
X14581095Y24326991D01*
X14581095Y24326991D02*
X14676333Y24279372D01*
X14676333Y24279372D02*
X15057285Y24279372D01*
X14152523Y24803181D02*
X13533476Y24803181D01*
X13533476Y24803181D02*
X13866809Y24422229D01*
X13866809Y24422229D02*
X13723952Y24422229D01*
X13723952Y24422229D02*
X13628714Y24374610D01*
X13628714Y24374610D02*
X13581095Y24326991D01*
X13581095Y24326991D02*
X13533476Y24231753D01*
X13533476Y24231753D02*
X13533476Y23993658D01*
X13533476Y23993658D02*
X13581095Y23898420D01*
X13581095Y23898420D02*
X13628714Y23850800D01*
X13628714Y23850800D02*
X13723952Y23803181D01*
X13723952Y23803181D02*
X14009666Y23803181D01*
X14009666Y23803181D02*
X14104904Y23850800D01*
X14104904Y23850800D02*
X14152523Y23898420D01*
X13200142Y24803181D02*
X12581095Y24803181D01*
X12581095Y24803181D02*
X12914428Y24422229D01*
X12914428Y24422229D02*
X12771571Y24422229D01*
X12771571Y24422229D02*
X12676333Y24374610D01*
X12676333Y24374610D02*
X12628714Y24326991D01*
X12628714Y24326991D02*
X12581095Y24231753D01*
X12581095Y24231753D02*
X12581095Y23993658D01*
X12581095Y23993658D02*
X12628714Y23898420D01*
X12628714Y23898420D02*
X12676333Y23850800D01*
X12676333Y23850800D02*
X12771571Y23803181D01*
X12771571Y23803181D02*
X13057285Y23803181D01*
X13057285Y23803181D02*
X13152523Y23850800D01*
X13152523Y23850800D02*
X13200142Y23898420D01*
X38647666Y33074181D02*
X38980999Y33550372D01*
X39219094Y33074181D02*
X39219094Y34074181D01*
X39219094Y34074181D02*
X38838142Y34074181D01*
X38838142Y34074181D02*
X38742904Y34026562D01*
X38742904Y34026562D02*
X38695285Y33978943D01*
X38695285Y33978943D02*
X38647666Y33883705D01*
X38647666Y33883705D02*
X38647666Y33740848D01*
X38647666Y33740848D02*
X38695285Y33645610D01*
X38695285Y33645610D02*
X38742904Y33597991D01*
X38742904Y33597991D02*
X38838142Y33550372D01*
X38838142Y33550372D02*
X39219094Y33550372D01*
X37790523Y33740848D02*
X37790523Y33074181D01*
X38028618Y34121800D02*
X38266713Y33407515D01*
X38266713Y33407515D02*
X37647666Y33407515D01*
X23534666Y29260419D02*
X23582285Y29212799D01*
X23582285Y29212799D02*
X23725142Y29165180D01*
X23725142Y29165180D02*
X23820380Y29165180D01*
X23820380Y29165180D02*
X23963237Y29212799D01*
X23963237Y29212799D02*
X24058475Y29308038D01*
X24058475Y29308038D02*
X24106094Y29403276D01*
X24106094Y29403276D02*
X24153713Y29593752D01*
X24153713Y29593752D02*
X24153713Y29736609D01*
X24153713Y29736609D02*
X24106094Y29927085D01*
X24106094Y29927085D02*
X24058475Y30022323D01*
X24058475Y30022323D02*
X23963237Y30117561D01*
X23963237Y30117561D02*
X23820380Y30165180D01*
X23820380Y30165180D02*
X23725142Y30165180D01*
X23725142Y30165180D02*
X23582285Y30117561D01*
X23582285Y30117561D02*
X23534666Y30069942D01*
X22677523Y29831847D02*
X22677523Y29165180D01*
X22915618Y30212799D02*
X23153713Y29498514D01*
X23153713Y29498514D02*
X22534666Y29498514D01*
X29979580Y34710667D02*
X30027200Y34758286D01*
X30027200Y34758286D02*
X30074819Y34901143D01*
X30074819Y34901143D02*
X30074819Y34996381D01*
X30074819Y34996381D02*
X30027200Y35139238D01*
X30027200Y35139238D02*
X29931961Y35234476D01*
X29931961Y35234476D02*
X29836723Y35282095D01*
X29836723Y35282095D02*
X29646247Y35329714D01*
X29646247Y35329714D02*
X29503390Y35329714D01*
X29503390Y35329714D02*
X29312914Y35282095D01*
X29312914Y35282095D02*
X29217676Y35234476D01*
X29217676Y35234476D02*
X29122438Y35139238D01*
X29122438Y35139238D02*
X29074819Y34996381D01*
X29074819Y34996381D02*
X29074819Y34901143D01*
X29074819Y34901143D02*
X29122438Y34758286D01*
X29122438Y34758286D02*
X29170057Y34710667D01*
X29074819Y34377333D02*
X29074819Y33758286D01*
X29074819Y33758286D02*
X29455771Y34091619D01*
X29455771Y34091619D02*
X29455771Y33948762D01*
X29455771Y33948762D02*
X29503390Y33853524D01*
X29503390Y33853524D02*
X29551009Y33805905D01*
X29551009Y33805905D02*
X29646247Y33758286D01*
X29646247Y33758286D02*
X29884342Y33758286D01*
X29884342Y33758286D02*
X29979580Y33805905D01*
X29979580Y33805905D02*
X30027200Y33853524D01*
X30027200Y33853524D02*
X30074819Y33948762D01*
X30074819Y33948762D02*
X30074819Y34234476D01*
X30074819Y34234476D02*
X30027200Y34329714D01*
X30027200Y34329714D02*
X29979580Y34377333D01*
X32011580Y34710667D02*
X32059200Y34758286D01*
X32059200Y34758286D02*
X32106819Y34901143D01*
X32106819Y34901143D02*
X32106819Y34996381D01*
X32106819Y34996381D02*
X32059200Y35139238D01*
X32059200Y35139238D02*
X31963961Y35234476D01*
X31963961Y35234476D02*
X31868723Y35282095D01*
X31868723Y35282095D02*
X31678247Y35329714D01*
X31678247Y35329714D02*
X31535390Y35329714D01*
X31535390Y35329714D02*
X31344914Y35282095D01*
X31344914Y35282095D02*
X31249676Y35234476D01*
X31249676Y35234476D02*
X31154438Y35139238D01*
X31154438Y35139238D02*
X31106819Y34996381D01*
X31106819Y34996381D02*
X31106819Y34901143D01*
X31106819Y34901143D02*
X31154438Y34758286D01*
X31154438Y34758286D02*
X31202057Y34710667D01*
X31202057Y34329714D02*
X31154438Y34282095D01*
X31154438Y34282095D02*
X31106819Y34186857D01*
X31106819Y34186857D02*
X31106819Y33948762D01*
X31106819Y33948762D02*
X31154438Y33853524D01*
X31154438Y33853524D02*
X31202057Y33805905D01*
X31202057Y33805905D02*
X31297295Y33758286D01*
X31297295Y33758286D02*
X31392533Y33758286D01*
X31392533Y33758286D02*
X31535390Y33805905D01*
X31535390Y33805905D02*
X32106819Y34377333D01*
X32106819Y34377333D02*
X32106819Y33758286D01*
X37726580Y29725858D02*
X37774200Y29773477D01*
X37774200Y29773477D02*
X37821819Y29916334D01*
X37821819Y29916334D02*
X37821819Y30011572D01*
X37821819Y30011572D02*
X37774200Y30154429D01*
X37774200Y30154429D02*
X37678961Y30249667D01*
X37678961Y30249667D02*
X37583723Y30297286D01*
X37583723Y30297286D02*
X37393247Y30344905D01*
X37393247Y30344905D02*
X37250390Y30344905D01*
X37250390Y30344905D02*
X37059914Y30297286D01*
X37059914Y30297286D02*
X36964676Y30249667D01*
X36964676Y30249667D02*
X36869438Y30154429D01*
X36869438Y30154429D02*
X36821819Y30011572D01*
X36821819Y30011572D02*
X36821819Y29916334D01*
X36821819Y29916334D02*
X36869438Y29773477D01*
X36869438Y29773477D02*
X36917057Y29725858D01*
X37821819Y28773477D02*
X37821819Y29344905D01*
X37821819Y29059191D02*
X36821819Y29059191D01*
X36821819Y29059191D02*
X36964676Y29154429D01*
X36964676Y29154429D02*
X37059914Y29249667D01*
X37059914Y29249667D02*
X37107533Y29344905D01*
X36821819Y28154429D02*
X36821819Y28059191D01*
X36821819Y28059191D02*
X36869438Y27963953D01*
X36869438Y27963953D02*
X36917057Y27916334D01*
X36917057Y27916334D02*
X37012295Y27868715D01*
X37012295Y27868715D02*
X37202771Y27821096D01*
X37202771Y27821096D02*
X37440866Y27821096D01*
X37440866Y27821096D02*
X37631342Y27868715D01*
X37631342Y27868715D02*
X37726580Y27916334D01*
X37726580Y27916334D02*
X37774200Y27963953D01*
X37774200Y27963953D02*
X37821819Y28059191D01*
X37821819Y28059191D02*
X37821819Y28154429D01*
X37821819Y28154429D02*
X37774200Y28249667D01*
X37774200Y28249667D02*
X37726580Y28297286D01*
X37726580Y28297286D02*
X37631342Y28344905D01*
X37631342Y28344905D02*
X37440866Y28392524D01*
X37440866Y28392524D02*
X37202771Y28392524D01*
X37202771Y28392524D02*
X37012295Y28344905D01*
X37012295Y28344905D02*
X36917057Y28297286D01*
X36917057Y28297286D02*
X36869438Y28249667D01*
X36869438Y28249667D02*
X36821819Y28154429D01*
X17725819Y33186667D02*
X17249628Y33520000D01*
X17725819Y33758095D02*
X16725819Y33758095D01*
X16725819Y33758095D02*
X16725819Y33377143D01*
X16725819Y33377143D02*
X16773438Y33281905D01*
X16773438Y33281905D02*
X16821057Y33234286D01*
X16821057Y33234286D02*
X16916295Y33186667D01*
X16916295Y33186667D02*
X17059152Y33186667D01*
X17059152Y33186667D02*
X17154390Y33234286D01*
X17154390Y33234286D02*
X17202009Y33281905D01*
X17202009Y33281905D02*
X17249628Y33377143D01*
X17249628Y33377143D02*
X17249628Y33758095D01*
X16821057Y32805714D02*
X16773438Y32758095D01*
X16773438Y32758095D02*
X16725819Y32662857D01*
X16725819Y32662857D02*
X16725819Y32424762D01*
X16725819Y32424762D02*
X16773438Y32329524D01*
X16773438Y32329524D02*
X16821057Y32281905D01*
X16821057Y32281905D02*
X16916295Y32234286D01*
X16916295Y32234286D02*
X17011533Y32234286D01*
X17011533Y32234286D02*
X17154390Y32281905D01*
X17154390Y32281905D02*
X17725819Y32853333D01*
X17725819Y32853333D02*
X17725819Y32234286D01*
X78620857Y32564181D02*
X78954190Y33040372D01*
X79192285Y32564181D02*
X79192285Y33564181D01*
X79192285Y33564181D02*
X78811333Y33564181D01*
X78811333Y33564181D02*
X78716095Y33516562D01*
X78716095Y33516562D02*
X78668476Y33468943D01*
X78668476Y33468943D02*
X78620857Y33373705D01*
X78620857Y33373705D02*
X78620857Y33230848D01*
X78620857Y33230848D02*
X78668476Y33135610D01*
X78668476Y33135610D02*
X78716095Y33087991D01*
X78716095Y33087991D02*
X78811333Y33040372D01*
X78811333Y33040372D02*
X79192285Y33040372D01*
X78287523Y33564181D02*
X77668476Y33564181D01*
X77668476Y33564181D02*
X78001809Y33183229D01*
X78001809Y33183229D02*
X77858952Y33183229D01*
X77858952Y33183229D02*
X77763714Y33135610D01*
X77763714Y33135610D02*
X77716095Y33087991D01*
X77716095Y33087991D02*
X77668476Y32992753D01*
X77668476Y32992753D02*
X77668476Y32754658D01*
X77668476Y32754658D02*
X77716095Y32659420D01*
X77716095Y32659420D02*
X77763714Y32611800D01*
X77763714Y32611800D02*
X77858952Y32564181D01*
X77858952Y32564181D02*
X78144666Y32564181D01*
X78144666Y32564181D02*
X78239904Y32611800D01*
X78239904Y32611800D02*
X78287523Y32659420D01*
X76811333Y33230848D02*
X76811333Y32564181D01*
X77049428Y33611800D02*
X77287523Y32897515D01*
X77287523Y32897515D02*
X76668476Y32897515D01*
X40901857Y31927419D02*
X40949476Y31879799D01*
X40949476Y31879799D02*
X41092333Y31832180D01*
X41092333Y31832180D02*
X41187571Y31832180D01*
X41187571Y31832180D02*
X41330428Y31879799D01*
X41330428Y31879799D02*
X41425666Y31975038D01*
X41425666Y31975038D02*
X41473285Y32070276D01*
X41473285Y32070276D02*
X41520904Y32260752D01*
X41520904Y32260752D02*
X41520904Y32403609D01*
X41520904Y32403609D02*
X41473285Y32594085D01*
X41473285Y32594085D02*
X41425666Y32689323D01*
X41425666Y32689323D02*
X41330428Y32784561D01*
X41330428Y32784561D02*
X41187571Y32832180D01*
X41187571Y32832180D02*
X41092333Y32832180D01*
X41092333Y32832180D02*
X40949476Y32784561D01*
X40949476Y32784561D02*
X40901857Y32736942D01*
X39949476Y31832180D02*
X40520904Y31832180D01*
X40235190Y31832180D02*
X40235190Y32832180D01*
X40235190Y32832180D02*
X40330428Y32689323D01*
X40330428Y32689323D02*
X40425666Y32594085D01*
X40425666Y32594085D02*
X40520904Y32546466D01*
X39473285Y31832180D02*
X39282809Y31832180D01*
X39282809Y31832180D02*
X39187571Y31879799D01*
X39187571Y31879799D02*
X39139952Y31927419D01*
X39139952Y31927419D02*
X39044714Y32070276D01*
X39044714Y32070276D02*
X38997095Y32260752D01*
X38997095Y32260752D02*
X38997095Y32641704D01*
X38997095Y32641704D02*
X39044714Y32736942D01*
X39044714Y32736942D02*
X39092333Y32784561D01*
X39092333Y32784561D02*
X39187571Y32832180D01*
X39187571Y32832180D02*
X39378047Y32832180D01*
X39378047Y32832180D02*
X39473285Y32784561D01*
X39473285Y32784561D02*
X39520904Y32736942D01*
X39520904Y32736942D02*
X39568523Y32641704D01*
X39568523Y32641704D02*
X39568523Y32403609D01*
X39568523Y32403609D02*
X39520904Y32308371D01*
X39520904Y32308371D02*
X39473285Y32260752D01*
X39473285Y32260752D02*
X39378047Y32213133D01*
X39378047Y32213133D02*
X39187571Y32213133D01*
X39187571Y32213133D02*
X39092333Y32260752D01*
X39092333Y32260752D02*
X39044714Y32308371D01*
X39044714Y32308371D02*
X38997095Y32403609D01*
X24645857Y32689419D02*
X24693476Y32641799D01*
X24693476Y32641799D02*
X24836333Y32594180D01*
X24836333Y32594180D02*
X24931571Y32594180D01*
X24931571Y32594180D02*
X25074428Y32641799D01*
X25074428Y32641799D02*
X25169666Y32737038D01*
X25169666Y32737038D02*
X25217285Y32832276D01*
X25217285Y32832276D02*
X25264904Y33022752D01*
X25264904Y33022752D02*
X25264904Y33165609D01*
X25264904Y33165609D02*
X25217285Y33356085D01*
X25217285Y33356085D02*
X25169666Y33451323D01*
X25169666Y33451323D02*
X25074428Y33546561D01*
X25074428Y33546561D02*
X24931571Y33594180D01*
X24931571Y33594180D02*
X24836333Y33594180D01*
X24836333Y33594180D02*
X24693476Y33546561D01*
X24693476Y33546561D02*
X24645857Y33498942D01*
X24264904Y33498942D02*
X24217285Y33546561D01*
X24217285Y33546561D02*
X24122047Y33594180D01*
X24122047Y33594180D02*
X23883952Y33594180D01*
X23883952Y33594180D02*
X23788714Y33546561D01*
X23788714Y33546561D02*
X23741095Y33498942D01*
X23741095Y33498942D02*
X23693476Y33403704D01*
X23693476Y33403704D02*
X23693476Y33308466D01*
X23693476Y33308466D02*
X23741095Y33165609D01*
X23741095Y33165609D02*
X24312523Y32594180D01*
X24312523Y32594180D02*
X23693476Y32594180D01*
X23074428Y33594180D02*
X22979190Y33594180D01*
X22979190Y33594180D02*
X22883952Y33546561D01*
X22883952Y33546561D02*
X22836333Y33498942D01*
X22836333Y33498942D02*
X22788714Y33403704D01*
X22788714Y33403704D02*
X22741095Y33213228D01*
X22741095Y33213228D02*
X22741095Y32975133D01*
X22741095Y32975133D02*
X22788714Y32784657D01*
X22788714Y32784657D02*
X22836333Y32689419D01*
X22836333Y32689419D02*
X22883952Y32641799D01*
X22883952Y32641799D02*
X22979190Y32594180D01*
X22979190Y32594180D02*
X23074428Y32594180D01*
X23074428Y32594180D02*
X23169666Y32641799D01*
X23169666Y32641799D02*
X23217285Y32689419D01*
X23217285Y32689419D02*
X23264904Y32784657D01*
X23264904Y32784657D02*
X23312523Y32975133D01*
X23312523Y32975133D02*
X23312523Y33213228D01*
X23312523Y33213228D02*
X23264904Y33403704D01*
X23264904Y33403704D02*
X23217285Y33498942D01*
X23217285Y33498942D02*
X23169666Y33546561D01*
X23169666Y33546561D02*
X23074428Y33594180D01*
X84989819Y33154858D02*
X84513628Y33488191D01*
X84989819Y33726286D02*
X83989819Y33726286D01*
X83989819Y33726286D02*
X83989819Y33345334D01*
X83989819Y33345334D02*
X84037438Y33250096D01*
X84037438Y33250096D02*
X84085057Y33202477D01*
X84085057Y33202477D02*
X84180295Y33154858D01*
X84180295Y33154858D02*
X84323152Y33154858D01*
X84323152Y33154858D02*
X84418390Y33202477D01*
X84418390Y33202477D02*
X84466009Y33250096D01*
X84466009Y33250096D02*
X84513628Y33345334D01*
X84513628Y33345334D02*
X84513628Y33726286D01*
X83989819Y32821524D02*
X83989819Y32202477D01*
X83989819Y32202477D02*
X84370771Y32535810D01*
X84370771Y32535810D02*
X84370771Y32392953D01*
X84370771Y32392953D02*
X84418390Y32297715D01*
X84418390Y32297715D02*
X84466009Y32250096D01*
X84466009Y32250096D02*
X84561247Y32202477D01*
X84561247Y32202477D02*
X84799342Y32202477D01*
X84799342Y32202477D02*
X84894580Y32250096D01*
X84894580Y32250096D02*
X84942200Y32297715D01*
X84942200Y32297715D02*
X84989819Y32392953D01*
X84989819Y32392953D02*
X84989819Y32678667D01*
X84989819Y32678667D02*
X84942200Y32773905D01*
X84942200Y32773905D02*
X84894580Y32821524D01*
X83989819Y31297715D02*
X83989819Y31773905D01*
X83989819Y31773905D02*
X84466009Y31821524D01*
X84466009Y31821524D02*
X84418390Y31773905D01*
X84418390Y31773905D02*
X84370771Y31678667D01*
X84370771Y31678667D02*
X84370771Y31440572D01*
X84370771Y31440572D02*
X84418390Y31345334D01*
X84418390Y31345334D02*
X84466009Y31297715D01*
X84466009Y31297715D02*
X84561247Y31250096D01*
X84561247Y31250096D02*
X84799342Y31250096D01*
X84799342Y31250096D02*
X84894580Y31297715D01*
X84894580Y31297715D02*
X84942200Y31345334D01*
X84942200Y31345334D02*
X84989819Y31440572D01*
X84989819Y31440572D02*
X84989819Y31678667D01*
X84989819Y31678667D02*
X84942200Y31773905D01*
X84942200Y31773905D02*
X84894580Y31821524D01*
X78620857Y34723181D02*
X78954190Y35199372D01*
X79192285Y34723181D02*
X79192285Y35723181D01*
X79192285Y35723181D02*
X78811333Y35723181D01*
X78811333Y35723181D02*
X78716095Y35675562D01*
X78716095Y35675562D02*
X78668476Y35627943D01*
X78668476Y35627943D02*
X78620857Y35532705D01*
X78620857Y35532705D02*
X78620857Y35389848D01*
X78620857Y35389848D02*
X78668476Y35294610D01*
X78668476Y35294610D02*
X78716095Y35246991D01*
X78716095Y35246991D02*
X78811333Y35199372D01*
X78811333Y35199372D02*
X79192285Y35199372D01*
X78287523Y35723181D02*
X77668476Y35723181D01*
X77668476Y35723181D02*
X78001809Y35342229D01*
X78001809Y35342229D02*
X77858952Y35342229D01*
X77858952Y35342229D02*
X77763714Y35294610D01*
X77763714Y35294610D02*
X77716095Y35246991D01*
X77716095Y35246991D02*
X77668476Y35151753D01*
X77668476Y35151753D02*
X77668476Y34913658D01*
X77668476Y34913658D02*
X77716095Y34818420D01*
X77716095Y34818420D02*
X77763714Y34770800D01*
X77763714Y34770800D02*
X77858952Y34723181D01*
X77858952Y34723181D02*
X78144666Y34723181D01*
X78144666Y34723181D02*
X78239904Y34770800D01*
X78239904Y34770800D02*
X78287523Y34818420D01*
X76811333Y35723181D02*
X77001809Y35723181D01*
X77001809Y35723181D02*
X77097047Y35675562D01*
X77097047Y35675562D02*
X77144666Y35627943D01*
X77144666Y35627943D02*
X77239904Y35485086D01*
X77239904Y35485086D02*
X77287523Y35294610D01*
X77287523Y35294610D02*
X77287523Y34913658D01*
X77287523Y34913658D02*
X77239904Y34818420D01*
X77239904Y34818420D02*
X77192285Y34770800D01*
X77192285Y34770800D02*
X77097047Y34723181D01*
X77097047Y34723181D02*
X76906571Y34723181D01*
X76906571Y34723181D02*
X76811333Y34770800D01*
X76811333Y34770800D02*
X76763714Y34818420D01*
X76763714Y34818420D02*
X76716095Y34913658D01*
X76716095Y34913658D02*
X76716095Y35151753D01*
X76716095Y35151753D02*
X76763714Y35246991D01*
X76763714Y35246991D02*
X76811333Y35294610D01*
X76811333Y35294610D02*
X76906571Y35342229D01*
X76906571Y35342229D02*
X77097047Y35342229D01*
X77097047Y35342229D02*
X77192285Y35294610D01*
X77192285Y35294610D02*
X77239904Y35246991D01*
X77239904Y35246991D02*
X77287523Y35151753D01*
X15568819Y54109858D02*
X15092628Y54443191D01*
X15568819Y54681286D02*
X14568819Y54681286D01*
X14568819Y54681286D02*
X14568819Y54300334D01*
X14568819Y54300334D02*
X14616438Y54205096D01*
X14616438Y54205096D02*
X14664057Y54157477D01*
X14664057Y54157477D02*
X14759295Y54109858D01*
X14759295Y54109858D02*
X14902152Y54109858D01*
X14902152Y54109858D02*
X14997390Y54157477D01*
X14997390Y54157477D02*
X15045009Y54205096D01*
X15045009Y54205096D02*
X15092628Y54300334D01*
X15092628Y54300334D02*
X15092628Y54681286D01*
X14664057Y53728905D02*
X14616438Y53681286D01*
X14616438Y53681286D02*
X14568819Y53586048D01*
X14568819Y53586048D02*
X14568819Y53347953D01*
X14568819Y53347953D02*
X14616438Y53252715D01*
X14616438Y53252715D02*
X14664057Y53205096D01*
X14664057Y53205096D02*
X14759295Y53157477D01*
X14759295Y53157477D02*
X14854533Y53157477D01*
X14854533Y53157477D02*
X14997390Y53205096D01*
X14997390Y53205096D02*
X15568819Y53776524D01*
X15568819Y53776524D02*
X15568819Y53157477D01*
X14664057Y52776524D02*
X14616438Y52728905D01*
X14616438Y52728905D02*
X14568819Y52633667D01*
X14568819Y52633667D02*
X14568819Y52395572D01*
X14568819Y52395572D02*
X14616438Y52300334D01*
X14616438Y52300334D02*
X14664057Y52252715D01*
X14664057Y52252715D02*
X14759295Y52205096D01*
X14759295Y52205096D02*
X14854533Y52205096D01*
X14854533Y52205096D02*
X14997390Y52252715D01*
X14997390Y52252715D02*
X15568819Y52824143D01*
X15568819Y52824143D02*
X15568819Y52205096D01*
X58449619Y19732467D02*
X58449619Y20208657D01*
X58449619Y20208657D02*
X57449619Y20208657D01*
X57544857Y19446752D02*
X57497238Y19399133D01*
X57497238Y19399133D02*
X57449619Y19303895D01*
X57449619Y19303895D02*
X57449619Y19065800D01*
X57449619Y19065800D02*
X57497238Y18970562D01*
X57497238Y18970562D02*
X57544857Y18922943D01*
X57544857Y18922943D02*
X57640095Y18875324D01*
X57640095Y18875324D02*
X57735333Y18875324D01*
X57735333Y18875324D02*
X57878190Y18922943D01*
X57878190Y18922943D02*
X58449619Y19494371D01*
X58449619Y19494371D02*
X58449619Y18875324D01*
X29178238Y47969943D02*
X29273476Y48017562D01*
X29273476Y48017562D02*
X29368714Y48112800D01*
X29368714Y48112800D02*
X29511571Y48255658D01*
X29511571Y48255658D02*
X29606809Y48303277D01*
X29606809Y48303277D02*
X29702047Y48303277D01*
X29654428Y48065181D02*
X29749666Y48112800D01*
X29749666Y48112800D02*
X29844904Y48208039D01*
X29844904Y48208039D02*
X29892523Y48398515D01*
X29892523Y48398515D02*
X29892523Y48731848D01*
X29892523Y48731848D02*
X29844904Y48922324D01*
X29844904Y48922324D02*
X29749666Y49017562D01*
X29749666Y49017562D02*
X29654428Y49065181D01*
X29654428Y49065181D02*
X29463952Y49065181D01*
X29463952Y49065181D02*
X29368714Y49017562D01*
X29368714Y49017562D02*
X29273476Y48922324D01*
X29273476Y48922324D02*
X29225857Y48731848D01*
X29225857Y48731848D02*
X29225857Y48398515D01*
X29225857Y48398515D02*
X29273476Y48208039D01*
X29273476Y48208039D02*
X29368714Y48112800D01*
X29368714Y48112800D02*
X29463952Y48065181D01*
X29463952Y48065181D02*
X29654428Y48065181D01*
X28321095Y49065181D02*
X28797285Y49065181D01*
X28797285Y49065181D02*
X28844904Y48588991D01*
X28844904Y48588991D02*
X28797285Y48636610D01*
X28797285Y48636610D02*
X28702047Y48684229D01*
X28702047Y48684229D02*
X28463952Y48684229D01*
X28463952Y48684229D02*
X28368714Y48636610D01*
X28368714Y48636610D02*
X28321095Y48588991D01*
X28321095Y48588991D02*
X28273476Y48493753D01*
X28273476Y48493753D02*
X28273476Y48255658D01*
X28273476Y48255658D02*
X28321095Y48160420D01*
X28321095Y48160420D02*
X28368714Y48112800D01*
X28368714Y48112800D02*
X28463952Y48065181D01*
X28463952Y48065181D02*
X28702047Y48065181D01*
X28702047Y48065181D02*
X28797285Y48112800D01*
X28797285Y48112800D02*
X28844904Y48160420D01*
X3611428Y69731991D02*
X3944761Y69731991D01*
X3944761Y69208181D02*
X3944761Y70208181D01*
X3944761Y70208181D02*
X3468571Y70208181D01*
X3087618Y69208181D02*
X3087618Y70208181D01*
X2611428Y69208181D02*
X2611428Y70208181D01*
X2611428Y70208181D02*
X2373333Y70208181D01*
X2373333Y70208181D02*
X2230476Y70160562D01*
X2230476Y70160562D02*
X2135238Y70065324D01*
X2135238Y70065324D02*
X2087619Y69970086D01*
X2087619Y69970086D02*
X2040000Y69779610D01*
X2040000Y69779610D02*
X2040000Y69636753D01*
X2040000Y69636753D02*
X2087619Y69446277D01*
X2087619Y69446277D02*
X2135238Y69351039D01*
X2135238Y69351039D02*
X2230476Y69255800D01*
X2230476Y69255800D02*
X2373333Y69208181D01*
X2373333Y69208181D02*
X2611428Y69208181D01*
X1182857Y69874848D02*
X1182857Y69208181D01*
X1420952Y70255800D02*
X1659047Y69541515D01*
X1659047Y69541515D02*
X1040000Y69541515D01*
X7802428Y8799991D02*
X8135761Y8799991D01*
X8135761Y8276181D02*
X8135761Y9276181D01*
X8135761Y9276181D02*
X7659571Y9276181D01*
X7278618Y8276181D02*
X7278618Y9276181D01*
X6802428Y8276181D02*
X6802428Y9276181D01*
X6802428Y9276181D02*
X6564333Y9276181D01*
X6564333Y9276181D02*
X6421476Y9228562D01*
X6421476Y9228562D02*
X6326238Y9133324D01*
X6326238Y9133324D02*
X6278619Y9038086D01*
X6278619Y9038086D02*
X6231000Y8847610D01*
X6231000Y8847610D02*
X6231000Y8704753D01*
X6231000Y8704753D02*
X6278619Y8514277D01*
X6278619Y8514277D02*
X6326238Y8419039D01*
X6326238Y8419039D02*
X6421476Y8323800D01*
X6421476Y8323800D02*
X6564333Y8276181D01*
X6564333Y8276181D02*
X6802428Y8276181D01*
X5278619Y8276181D02*
X5850047Y8276181D01*
X5564333Y8276181D02*
X5564333Y9276181D01*
X5564333Y9276181D02*
X5659571Y9133324D01*
X5659571Y9133324D02*
X5754809Y9038086D01*
X5754809Y9038086D02*
X5850047Y8990467D01*
X53035104Y23434181D02*
X53035104Y22624658D01*
X53035104Y22624658D02*
X52987485Y22529420D01*
X52987485Y22529420D02*
X52939866Y22481800D01*
X52939866Y22481800D02*
X52844628Y22434181D01*
X52844628Y22434181D02*
X52654152Y22434181D01*
X52654152Y22434181D02*
X52558914Y22481800D01*
X52558914Y22481800D02*
X52511295Y22529420D01*
X52511295Y22529420D02*
X52463676Y22624658D01*
X52463676Y22624658D02*
X52463676Y23434181D01*
X52035104Y23338943D02*
X51987485Y23386562D01*
X51987485Y23386562D02*
X51892247Y23434181D01*
X51892247Y23434181D02*
X51654152Y23434181D01*
X51654152Y23434181D02*
X51558914Y23386562D01*
X51558914Y23386562D02*
X51511295Y23338943D01*
X51511295Y23338943D02*
X51463676Y23243705D01*
X51463676Y23243705D02*
X51463676Y23148467D01*
X51463676Y23148467D02*
X51511295Y23005610D01*
X51511295Y23005610D02*
X52082723Y22434181D01*
X52082723Y22434181D02*
X51463676Y22434181D01*
X53236857Y18676420D02*
X53284476Y18628800D01*
X53284476Y18628800D02*
X53427333Y18581181D01*
X53427333Y18581181D02*
X53522571Y18581181D01*
X53522571Y18581181D02*
X53665428Y18628800D01*
X53665428Y18628800D02*
X53760666Y18724039D01*
X53760666Y18724039D02*
X53808285Y18819277D01*
X53808285Y18819277D02*
X53855904Y19009753D01*
X53855904Y19009753D02*
X53855904Y19152610D01*
X53855904Y19152610D02*
X53808285Y19343086D01*
X53808285Y19343086D02*
X53760666Y19438324D01*
X53760666Y19438324D02*
X53665428Y19533562D01*
X53665428Y19533562D02*
X53522571Y19581181D01*
X53522571Y19581181D02*
X53427333Y19581181D01*
X53427333Y19581181D02*
X53284476Y19533562D01*
X53284476Y19533562D02*
X53236857Y19485943D01*
X52903523Y19581181D02*
X52284476Y19581181D01*
X52284476Y19581181D02*
X52617809Y19200229D01*
X52617809Y19200229D02*
X52474952Y19200229D01*
X52474952Y19200229D02*
X52379714Y19152610D01*
X52379714Y19152610D02*
X52332095Y19104991D01*
X52332095Y19104991D02*
X52284476Y19009753D01*
X52284476Y19009753D02*
X52284476Y18771658D01*
X52284476Y18771658D02*
X52332095Y18676420D01*
X52332095Y18676420D02*
X52379714Y18628800D01*
X52379714Y18628800D02*
X52474952Y18581181D01*
X52474952Y18581181D02*
X52760666Y18581181D01*
X52760666Y18581181D02*
X52855904Y18628800D01*
X52855904Y18628800D02*
X52903523Y18676420D01*
X51379714Y19581181D02*
X51855904Y19581181D01*
X51855904Y19581181D02*
X51903523Y19104991D01*
X51903523Y19104991D02*
X51855904Y19152610D01*
X51855904Y19152610D02*
X51760666Y19200229D01*
X51760666Y19200229D02*
X51522571Y19200229D01*
X51522571Y19200229D02*
X51427333Y19152610D01*
X51427333Y19152610D02*
X51379714Y19104991D01*
X51379714Y19104991D02*
X51332095Y19009753D01*
X51332095Y19009753D02*
X51332095Y18771658D01*
X51332095Y18771658D02*
X51379714Y18676420D01*
X51379714Y18676420D02*
X51427333Y18628800D01*
X51427333Y18628800D02*
X51522571Y18581181D01*
X51522571Y18581181D02*
X51760666Y18581181D01*
X51760666Y18581181D02*
X51855904Y18628800D01*
X51855904Y18628800D02*
X51903523Y18676420D01*
X21812238Y55069943D02*
X21907476Y55117562D01*
X21907476Y55117562D02*
X22002714Y55212800D01*
X22002714Y55212800D02*
X22145571Y55355658D01*
X22145571Y55355658D02*
X22240809Y55403277D01*
X22240809Y55403277D02*
X22336047Y55403277D01*
X22288428Y55165181D02*
X22383666Y55212800D01*
X22383666Y55212800D02*
X22478904Y55308039D01*
X22478904Y55308039D02*
X22526523Y55498515D01*
X22526523Y55498515D02*
X22526523Y55831848D01*
X22526523Y55831848D02*
X22478904Y56022324D01*
X22478904Y56022324D02*
X22383666Y56117562D01*
X22383666Y56117562D02*
X22288428Y56165181D01*
X22288428Y56165181D02*
X22097952Y56165181D01*
X22097952Y56165181D02*
X22002714Y56117562D01*
X22002714Y56117562D02*
X21907476Y56022324D01*
X21907476Y56022324D02*
X21859857Y55831848D01*
X21859857Y55831848D02*
X21859857Y55498515D01*
X21859857Y55498515D02*
X21907476Y55308039D01*
X21907476Y55308039D02*
X22002714Y55212800D01*
X22002714Y55212800D02*
X22097952Y55165181D01*
X22097952Y55165181D02*
X22288428Y55165181D01*
X21526523Y56165181D02*
X20907476Y56165181D01*
X20907476Y56165181D02*
X21240809Y55784229D01*
X21240809Y55784229D02*
X21097952Y55784229D01*
X21097952Y55784229D02*
X21002714Y55736610D01*
X21002714Y55736610D02*
X20955095Y55688991D01*
X20955095Y55688991D02*
X20907476Y55593753D01*
X20907476Y55593753D02*
X20907476Y55355658D01*
X20907476Y55355658D02*
X20955095Y55260420D01*
X20955095Y55260420D02*
X21002714Y55212800D01*
X21002714Y55212800D02*
X21097952Y55165181D01*
X21097952Y55165181D02*
X21383666Y55165181D01*
X21383666Y55165181D02*
X21478904Y55212800D01*
X21478904Y55212800D02*
X21526523Y55260420D01*
X55794780Y17160658D02*
X55842400Y17208277D01*
X55842400Y17208277D02*
X55890019Y17351134D01*
X55890019Y17351134D02*
X55890019Y17446372D01*
X55890019Y17446372D02*
X55842400Y17589229D01*
X55842400Y17589229D02*
X55747161Y17684467D01*
X55747161Y17684467D02*
X55651923Y17732086D01*
X55651923Y17732086D02*
X55461447Y17779705D01*
X55461447Y17779705D02*
X55318590Y17779705D01*
X55318590Y17779705D02*
X55128114Y17732086D01*
X55128114Y17732086D02*
X55032876Y17684467D01*
X55032876Y17684467D02*
X54937638Y17589229D01*
X54937638Y17589229D02*
X54890019Y17446372D01*
X54890019Y17446372D02*
X54890019Y17351134D01*
X54890019Y17351134D02*
X54937638Y17208277D01*
X54937638Y17208277D02*
X54985257Y17160658D01*
X54890019Y16827324D02*
X54890019Y16208277D01*
X54890019Y16208277D02*
X55270971Y16541610D01*
X55270971Y16541610D02*
X55270971Y16398753D01*
X55270971Y16398753D02*
X55318590Y16303515D01*
X55318590Y16303515D02*
X55366209Y16255896D01*
X55366209Y16255896D02*
X55461447Y16208277D01*
X55461447Y16208277D02*
X55699542Y16208277D01*
X55699542Y16208277D02*
X55794780Y16255896D01*
X55794780Y16255896D02*
X55842400Y16303515D01*
X55842400Y16303515D02*
X55890019Y16398753D01*
X55890019Y16398753D02*
X55890019Y16684467D01*
X55890019Y16684467D02*
X55842400Y16779705D01*
X55842400Y16779705D02*
X55794780Y16827324D01*
X54890019Y15351134D02*
X54890019Y15541610D01*
X54890019Y15541610D02*
X54937638Y15636848D01*
X54937638Y15636848D02*
X54985257Y15684467D01*
X54985257Y15684467D02*
X55128114Y15779705D01*
X55128114Y15779705D02*
X55318590Y15827324D01*
X55318590Y15827324D02*
X55699542Y15827324D01*
X55699542Y15827324D02*
X55794780Y15779705D01*
X55794780Y15779705D02*
X55842400Y15732086D01*
X55842400Y15732086D02*
X55890019Y15636848D01*
X55890019Y15636848D02*
X55890019Y15446372D01*
X55890019Y15446372D02*
X55842400Y15351134D01*
X55842400Y15351134D02*
X55794780Y15303515D01*
X55794780Y15303515D02*
X55699542Y15255896D01*
X55699542Y15255896D02*
X55461447Y15255896D01*
X55461447Y15255896D02*
X55366209Y15303515D01*
X55366209Y15303515D02*
X55318590Y15351134D01*
X55318590Y15351134D02*
X55270971Y15446372D01*
X55270971Y15446372D02*
X55270971Y15636848D01*
X55270971Y15636848D02*
X55318590Y15732086D01*
X55318590Y15732086D02*
X55366209Y15779705D01*
X55366209Y15779705D02*
X55461447Y15827324D01*
X38823819Y41417714D02*
X38823819Y40846286D01*
X39823819Y41132000D02*
X38823819Y41132000D01*
X39823819Y40512952D02*
X38823819Y40512952D01*
X39300009Y40512952D02*
X39300009Y39941524D01*
X39823819Y39941524D02*
X38823819Y39941524D01*
X38823819Y39560571D02*
X38823819Y38941524D01*
X38823819Y38941524D02*
X39204771Y39274857D01*
X39204771Y39274857D02*
X39204771Y39132000D01*
X39204771Y39132000D02*
X39252390Y39036762D01*
X39252390Y39036762D02*
X39300009Y38989143D01*
X39300009Y38989143D02*
X39395247Y38941524D01*
X39395247Y38941524D02*
X39633342Y38941524D01*
X39633342Y38941524D02*
X39728580Y38989143D01*
X39728580Y38989143D02*
X39776200Y39036762D01*
X39776200Y39036762D02*
X39823819Y39132000D01*
X39823819Y39132000D02*
X39823819Y39417714D01*
X39823819Y39417714D02*
X39776200Y39512952D01*
X39776200Y39512952D02*
X39728580Y39560571D01*
X21539580Y25026858D02*
X21587200Y25074477D01*
X21587200Y25074477D02*
X21634819Y25217334D01*
X21634819Y25217334D02*
X21634819Y25312572D01*
X21634819Y25312572D02*
X21587200Y25455429D01*
X21587200Y25455429D02*
X21491961Y25550667D01*
X21491961Y25550667D02*
X21396723Y25598286D01*
X21396723Y25598286D02*
X21206247Y25645905D01*
X21206247Y25645905D02*
X21063390Y25645905D01*
X21063390Y25645905D02*
X20872914Y25598286D01*
X20872914Y25598286D02*
X20777676Y25550667D01*
X20777676Y25550667D02*
X20682438Y25455429D01*
X20682438Y25455429D02*
X20634819Y25312572D01*
X20634819Y25312572D02*
X20634819Y25217334D01*
X20634819Y25217334D02*
X20682438Y25074477D01*
X20682438Y25074477D02*
X20730057Y25026858D01*
X20730057Y24645905D02*
X20682438Y24598286D01*
X20682438Y24598286D02*
X20634819Y24503048D01*
X20634819Y24503048D02*
X20634819Y24264953D01*
X20634819Y24264953D02*
X20682438Y24169715D01*
X20682438Y24169715D02*
X20730057Y24122096D01*
X20730057Y24122096D02*
X20825295Y24074477D01*
X20825295Y24074477D02*
X20920533Y24074477D01*
X20920533Y24074477D02*
X21063390Y24122096D01*
X21063390Y24122096D02*
X21634819Y24693524D01*
X21634819Y24693524D02*
X21634819Y24074477D01*
X20634819Y23741143D02*
X20634819Y23074477D01*
X20634819Y23074477D02*
X21634819Y23503048D01*
X58266219Y27643058D02*
X57790028Y27976391D01*
X58266219Y28214486D02*
X57266219Y28214486D01*
X57266219Y28214486D02*
X57266219Y27833534D01*
X57266219Y27833534D02*
X57313838Y27738296D01*
X57313838Y27738296D02*
X57361457Y27690677D01*
X57361457Y27690677D02*
X57456695Y27643058D01*
X57456695Y27643058D02*
X57599552Y27643058D01*
X57599552Y27643058D02*
X57694790Y27690677D01*
X57694790Y27690677D02*
X57742409Y27738296D01*
X57742409Y27738296D02*
X57790028Y27833534D01*
X57790028Y27833534D02*
X57790028Y28214486D01*
X58266219Y26690677D02*
X58266219Y27262105D01*
X58266219Y26976391D02*
X57266219Y26976391D01*
X57266219Y26976391D02*
X57409076Y27071629D01*
X57409076Y27071629D02*
X57504314Y27166867D01*
X57504314Y27166867D02*
X57551933Y27262105D01*
X57266219Y26357343D02*
X57266219Y25738296D01*
X57266219Y25738296D02*
X57647171Y26071629D01*
X57647171Y26071629D02*
X57647171Y25928772D01*
X57647171Y25928772D02*
X57694790Y25833534D01*
X57694790Y25833534D02*
X57742409Y25785915D01*
X57742409Y25785915D02*
X57837647Y25738296D01*
X57837647Y25738296D02*
X58075742Y25738296D01*
X58075742Y25738296D02*
X58170980Y25785915D01*
X58170980Y25785915D02*
X58218600Y25833534D01*
X58218600Y25833534D02*
X58266219Y25928772D01*
X58266219Y25928772D02*
X58266219Y26214486D01*
X58266219Y26214486D02*
X58218600Y26309724D01*
X58218600Y26309724D02*
X58170980Y26357343D01*
X51408057Y28103581D02*
X51741390Y28579772D01*
X51979485Y28103581D02*
X51979485Y29103581D01*
X51979485Y29103581D02*
X51598533Y29103581D01*
X51598533Y29103581D02*
X51503295Y29055962D01*
X51503295Y29055962D02*
X51455676Y29008343D01*
X51455676Y29008343D02*
X51408057Y28913105D01*
X51408057Y28913105D02*
X51408057Y28770248D01*
X51408057Y28770248D02*
X51455676Y28675010D01*
X51455676Y28675010D02*
X51503295Y28627391D01*
X51503295Y28627391D02*
X51598533Y28579772D01*
X51598533Y28579772D02*
X51979485Y28579772D01*
X50455676Y28103581D02*
X51027104Y28103581D01*
X50741390Y28103581D02*
X50741390Y29103581D01*
X50741390Y29103581D02*
X50836628Y28960724D01*
X50836628Y28960724D02*
X50931866Y28865486D01*
X50931866Y28865486D02*
X51027104Y28817867D01*
X50074723Y29008343D02*
X50027104Y29055962D01*
X50027104Y29055962D02*
X49931866Y29103581D01*
X49931866Y29103581D02*
X49693771Y29103581D01*
X49693771Y29103581D02*
X49598533Y29055962D01*
X49598533Y29055962D02*
X49550914Y29008343D01*
X49550914Y29008343D02*
X49503295Y28913105D01*
X49503295Y28913105D02*
X49503295Y28817867D01*
X49503295Y28817867D02*
X49550914Y28675010D01*
X49550914Y28675010D02*
X50122342Y28103581D01*
X50122342Y28103581D02*
X49503295Y28103581D01*
X55440294Y23457181D02*
X55440294Y24457181D01*
X55440294Y24457181D02*
X55202199Y24457181D01*
X55202199Y24457181D02*
X55059342Y24409562D01*
X55059342Y24409562D02*
X54964104Y24314324D01*
X54964104Y24314324D02*
X54916485Y24219086D01*
X54916485Y24219086D02*
X54868866Y24028610D01*
X54868866Y24028610D02*
X54868866Y23885753D01*
X54868866Y23885753D02*
X54916485Y23695277D01*
X54916485Y23695277D02*
X54964104Y23600039D01*
X54964104Y23600039D02*
X55059342Y23504800D01*
X55059342Y23504800D02*
X55202199Y23457181D01*
X55202199Y23457181D02*
X55440294Y23457181D01*
X54487913Y24361943D02*
X54440294Y24409562D01*
X54440294Y24409562D02*
X54345056Y24457181D01*
X54345056Y24457181D02*
X54106961Y24457181D01*
X54106961Y24457181D02*
X54011723Y24409562D01*
X54011723Y24409562D02*
X53964104Y24361943D01*
X53964104Y24361943D02*
X53916485Y24266705D01*
X53916485Y24266705D02*
X53916485Y24171467D01*
X53916485Y24171467D02*
X53964104Y24028610D01*
X53964104Y24028610D02*
X54535532Y23457181D01*
X54535532Y23457181D02*
X53916485Y23457181D01*
X72524857Y60887181D02*
X72858190Y61363372D01*
X73096285Y60887181D02*
X73096285Y61887181D01*
X73096285Y61887181D02*
X72715333Y61887181D01*
X72715333Y61887181D02*
X72620095Y61839562D01*
X72620095Y61839562D02*
X72572476Y61791943D01*
X72572476Y61791943D02*
X72524857Y61696705D01*
X72524857Y61696705D02*
X72524857Y61553848D01*
X72524857Y61553848D02*
X72572476Y61458610D01*
X72572476Y61458610D02*
X72620095Y61410991D01*
X72620095Y61410991D02*
X72715333Y61363372D01*
X72715333Y61363372D02*
X73096285Y61363372D01*
X71572476Y60887181D02*
X72143904Y60887181D01*
X71858190Y60887181D02*
X71858190Y61887181D01*
X71858190Y61887181D02*
X71953428Y61744324D01*
X71953428Y61744324D02*
X72048666Y61649086D01*
X72048666Y61649086D02*
X72143904Y61601467D01*
X70715333Y61553848D02*
X70715333Y60887181D01*
X70953428Y61934800D02*
X71191523Y61220515D01*
X71191523Y61220515D02*
X70572476Y61220515D01*
X85780428Y66457991D02*
X86113761Y66457991D01*
X86113761Y65934181D02*
X86113761Y66934181D01*
X86113761Y66934181D02*
X85637571Y66934181D01*
X85256618Y65934181D02*
X85256618Y66934181D01*
X84780428Y65934181D02*
X84780428Y66934181D01*
X84780428Y66934181D02*
X84542333Y66934181D01*
X84542333Y66934181D02*
X84399476Y66886562D01*
X84399476Y66886562D02*
X84304238Y66791324D01*
X84304238Y66791324D02*
X84256619Y66696086D01*
X84256619Y66696086D02*
X84209000Y66505610D01*
X84209000Y66505610D02*
X84209000Y66362753D01*
X84209000Y66362753D02*
X84256619Y66172277D01*
X84256619Y66172277D02*
X84304238Y66077039D01*
X84304238Y66077039D02*
X84399476Y65981800D01*
X84399476Y65981800D02*
X84542333Y65934181D01*
X84542333Y65934181D02*
X84780428Y65934181D01*
X83828047Y66838943D02*
X83780428Y66886562D01*
X83780428Y66886562D02*
X83685190Y66934181D01*
X83685190Y66934181D02*
X83447095Y66934181D01*
X83447095Y66934181D02*
X83351857Y66886562D01*
X83351857Y66886562D02*
X83304238Y66838943D01*
X83304238Y66838943D02*
X83256619Y66743705D01*
X83256619Y66743705D02*
X83256619Y66648467D01*
X83256619Y66648467D02*
X83304238Y66505610D01*
X83304238Y66505610D02*
X83875666Y65934181D01*
X83875666Y65934181D02*
X83256619Y65934181D01*
X46062819Y35829714D02*
X46062819Y35258286D01*
X47062819Y35544000D02*
X46062819Y35544000D01*
X47062819Y34924952D02*
X46062819Y34924952D01*
X46539009Y34924952D02*
X46539009Y34353524D01*
X47062819Y34353524D02*
X46062819Y34353524D01*
X46396152Y33448762D02*
X47062819Y33448762D01*
X46015200Y33686857D02*
X46729485Y33924952D01*
X46729485Y33924952D02*
X46729485Y33305905D01*
X59481923Y41884599D02*
X58481923Y41884599D01*
X58481923Y41884599D02*
X58481923Y41646504D01*
X58481923Y41646504D02*
X58529542Y41503647D01*
X58529542Y41503647D02*
X58624780Y41408409D01*
X58624780Y41408409D02*
X58720018Y41360790D01*
X58720018Y41360790D02*
X58910494Y41313171D01*
X58910494Y41313171D02*
X59053351Y41313171D01*
X59053351Y41313171D02*
X59243827Y41360790D01*
X59243827Y41360790D02*
X59339065Y41408409D01*
X59339065Y41408409D02*
X59434304Y41503647D01*
X59434304Y41503647D02*
X59481923Y41646504D01*
X59481923Y41646504D02*
X59481923Y41884599D01*
X58481923Y40456028D02*
X58481923Y40646504D01*
X58481923Y40646504D02*
X58529542Y40741742D01*
X58529542Y40741742D02*
X58577161Y40789361D01*
X58577161Y40789361D02*
X58720018Y40884599D01*
X58720018Y40884599D02*
X58910494Y40932218D01*
X58910494Y40932218D02*
X59291446Y40932218D01*
X59291446Y40932218D02*
X59386684Y40884599D01*
X59386684Y40884599D02*
X59434304Y40836980D01*
X59434304Y40836980D02*
X59481923Y40741742D01*
X59481923Y40741742D02*
X59481923Y40551266D01*
X59481923Y40551266D02*
X59434304Y40456028D01*
X59434304Y40456028D02*
X59386684Y40408409D01*
X59386684Y40408409D02*
X59291446Y40360790D01*
X59291446Y40360790D02*
X59053351Y40360790D01*
X59053351Y40360790D02*
X58958113Y40408409D01*
X58958113Y40408409D02*
X58910494Y40456028D01*
X58910494Y40456028D02*
X58862875Y40551266D01*
X58862875Y40551266D02*
X58862875Y40741742D01*
X58862875Y40741742D02*
X58910494Y40836980D01*
X58910494Y40836980D02*
X58958113Y40884599D01*
X58958113Y40884599D02*
X59053351Y40932218D01*
X76842580Y33027858D02*
X76890200Y33075477D01*
X76890200Y33075477D02*
X76937819Y33218334D01*
X76937819Y33218334D02*
X76937819Y33313572D01*
X76937819Y33313572D02*
X76890200Y33456429D01*
X76890200Y33456429D02*
X76794961Y33551667D01*
X76794961Y33551667D02*
X76699723Y33599286D01*
X76699723Y33599286D02*
X76509247Y33646905D01*
X76509247Y33646905D02*
X76366390Y33646905D01*
X76366390Y33646905D02*
X76175914Y33599286D01*
X76175914Y33599286D02*
X76080676Y33551667D01*
X76080676Y33551667D02*
X75985438Y33456429D01*
X75985438Y33456429D02*
X75937819Y33313572D01*
X75937819Y33313572D02*
X75937819Y33218334D01*
X75937819Y33218334D02*
X75985438Y33075477D01*
X75985438Y33075477D02*
X76033057Y33027858D01*
X76033057Y32646905D02*
X75985438Y32599286D01*
X75985438Y32599286D02*
X75937819Y32504048D01*
X75937819Y32504048D02*
X75937819Y32265953D01*
X75937819Y32265953D02*
X75985438Y32170715D01*
X75985438Y32170715D02*
X76033057Y32123096D01*
X76033057Y32123096D02*
X76128295Y32075477D01*
X76128295Y32075477D02*
X76223533Y32075477D01*
X76223533Y32075477D02*
X76366390Y32123096D01*
X76366390Y32123096D02*
X76937819Y32694524D01*
X76937819Y32694524D02*
X76937819Y32075477D01*
X76937819Y31123096D02*
X76937819Y31694524D01*
X76937819Y31408810D02*
X75937819Y31408810D01*
X75937819Y31408810D02*
X76080676Y31504048D01*
X76080676Y31504048D02*
X76175914Y31599286D01*
X76175914Y31599286D02*
X76223533Y31694524D01*
X23698580Y25026858D02*
X23746200Y25074477D01*
X23746200Y25074477D02*
X23793819Y25217334D01*
X23793819Y25217334D02*
X23793819Y25312572D01*
X23793819Y25312572D02*
X23746200Y25455429D01*
X23746200Y25455429D02*
X23650961Y25550667D01*
X23650961Y25550667D02*
X23555723Y25598286D01*
X23555723Y25598286D02*
X23365247Y25645905D01*
X23365247Y25645905D02*
X23222390Y25645905D01*
X23222390Y25645905D02*
X23031914Y25598286D01*
X23031914Y25598286D02*
X22936676Y25550667D01*
X22936676Y25550667D02*
X22841438Y25455429D01*
X22841438Y25455429D02*
X22793819Y25312572D01*
X22793819Y25312572D02*
X22793819Y25217334D01*
X22793819Y25217334D02*
X22841438Y25074477D01*
X22841438Y25074477D02*
X22889057Y25026858D01*
X22889057Y24645905D02*
X22841438Y24598286D01*
X22841438Y24598286D02*
X22793819Y24503048D01*
X22793819Y24503048D02*
X22793819Y24264953D01*
X22793819Y24264953D02*
X22841438Y24169715D01*
X22841438Y24169715D02*
X22889057Y24122096D01*
X22889057Y24122096D02*
X22984295Y24074477D01*
X22984295Y24074477D02*
X23079533Y24074477D01*
X23079533Y24074477D02*
X23222390Y24122096D01*
X23222390Y24122096D02*
X23793819Y24693524D01*
X23793819Y24693524D02*
X23793819Y24074477D01*
X22793819Y23169715D02*
X22793819Y23645905D01*
X22793819Y23645905D02*
X23270009Y23693524D01*
X23270009Y23693524D02*
X23222390Y23645905D01*
X23222390Y23645905D02*
X23174771Y23550667D01*
X23174771Y23550667D02*
X23174771Y23312572D01*
X23174771Y23312572D02*
X23222390Y23217334D01*
X23222390Y23217334D02*
X23270009Y23169715D01*
X23270009Y23169715D02*
X23365247Y23122096D01*
X23365247Y23122096D02*
X23603342Y23122096D01*
X23603342Y23122096D02*
X23698580Y23169715D01*
X23698580Y23169715D02*
X23746200Y23217334D01*
X23746200Y23217334D02*
X23793819Y23312572D01*
X23793819Y23312572D02*
X23793819Y23550667D01*
X23793819Y23550667D02*
X23746200Y23645905D01*
X23746200Y23645905D02*
X23698580Y23693524D01*
X68460857Y64187181D02*
X68794190Y64663372D01*
X69032285Y64187181D02*
X69032285Y65187181D01*
X69032285Y65187181D02*
X68651333Y65187181D01*
X68651333Y65187181D02*
X68556095Y65139562D01*
X68556095Y65139562D02*
X68508476Y65091943D01*
X68508476Y65091943D02*
X68460857Y64996705D01*
X68460857Y64996705D02*
X68460857Y64853848D01*
X68460857Y64853848D02*
X68508476Y64758610D01*
X68508476Y64758610D02*
X68556095Y64710991D01*
X68556095Y64710991D02*
X68651333Y64663372D01*
X68651333Y64663372D02*
X69032285Y64663372D01*
X67508476Y64187181D02*
X68079904Y64187181D01*
X67794190Y64187181D02*
X67794190Y65187181D01*
X67794190Y65187181D02*
X67889428Y65044324D01*
X67889428Y65044324D02*
X67984666Y64949086D01*
X67984666Y64949086D02*
X68079904Y64901467D01*
X66603714Y65187181D02*
X67079904Y65187181D01*
X67079904Y65187181D02*
X67127523Y64710991D01*
X67127523Y64710991D02*
X67079904Y64758610D01*
X67079904Y64758610D02*
X66984666Y64806229D01*
X66984666Y64806229D02*
X66746571Y64806229D01*
X66746571Y64806229D02*
X66651333Y64758610D01*
X66651333Y64758610D02*
X66603714Y64710991D01*
X66603714Y64710991D02*
X66556095Y64615753D01*
X66556095Y64615753D02*
X66556095Y64377658D01*
X66556095Y64377658D02*
X66603714Y64282420D01*
X66603714Y64282420D02*
X66651333Y64234800D01*
X66651333Y64234800D02*
X66746571Y64187181D01*
X66746571Y64187181D02*
X66984666Y64187181D01*
X66984666Y64187181D02*
X67079904Y64234800D01*
X67079904Y64234800D02*
X67127523Y64282420D01*
X45863380Y25110858D02*
X45911000Y25158477D01*
X45911000Y25158477D02*
X45958619Y25301334D01*
X45958619Y25301334D02*
X45958619Y25396572D01*
X45958619Y25396572D02*
X45911000Y25539429D01*
X45911000Y25539429D02*
X45815761Y25634667D01*
X45815761Y25634667D02*
X45720523Y25682286D01*
X45720523Y25682286D02*
X45530047Y25729905D01*
X45530047Y25729905D02*
X45387190Y25729905D01*
X45387190Y25729905D02*
X45196714Y25682286D01*
X45196714Y25682286D02*
X45101476Y25634667D01*
X45101476Y25634667D02*
X45006238Y25539429D01*
X45006238Y25539429D02*
X44958619Y25396572D01*
X44958619Y25396572D02*
X44958619Y25301334D01*
X44958619Y25301334D02*
X45006238Y25158477D01*
X45006238Y25158477D02*
X45053857Y25110858D01*
X45958619Y24158477D02*
X45958619Y24729905D01*
X45958619Y24444191D02*
X44958619Y24444191D01*
X44958619Y24444191D02*
X45101476Y24539429D01*
X45101476Y24539429D02*
X45196714Y24634667D01*
X45196714Y24634667D02*
X45244333Y24729905D01*
X44958619Y23825143D02*
X44958619Y23206096D01*
X44958619Y23206096D02*
X45339571Y23539429D01*
X45339571Y23539429D02*
X45339571Y23396572D01*
X45339571Y23396572D02*
X45387190Y23301334D01*
X45387190Y23301334D02*
X45434809Y23253715D01*
X45434809Y23253715D02*
X45530047Y23206096D01*
X45530047Y23206096D02*
X45768142Y23206096D01*
X45768142Y23206096D02*
X45863380Y23253715D01*
X45863380Y23253715D02*
X45911000Y23301334D01*
X45911000Y23301334D02*
X45958619Y23396572D01*
X45958619Y23396572D02*
X45958619Y23682286D01*
X45958619Y23682286D02*
X45911000Y23777524D01*
X45911000Y23777524D02*
X45863380Y23825143D01*
X30487857Y23610420D02*
X30535476Y23562800D01*
X30535476Y23562800D02*
X30678333Y23515181D01*
X30678333Y23515181D02*
X30773571Y23515181D01*
X30773571Y23515181D02*
X30916428Y23562800D01*
X30916428Y23562800D02*
X31011666Y23658039D01*
X31011666Y23658039D02*
X31059285Y23753277D01*
X31059285Y23753277D02*
X31106904Y23943753D01*
X31106904Y23943753D02*
X31106904Y24086610D01*
X31106904Y24086610D02*
X31059285Y24277086D01*
X31059285Y24277086D02*
X31011666Y24372324D01*
X31011666Y24372324D02*
X30916428Y24467562D01*
X30916428Y24467562D02*
X30773571Y24515181D01*
X30773571Y24515181D02*
X30678333Y24515181D01*
X30678333Y24515181D02*
X30535476Y24467562D01*
X30535476Y24467562D02*
X30487857Y24419943D01*
X30106904Y24419943D02*
X30059285Y24467562D01*
X30059285Y24467562D02*
X29964047Y24515181D01*
X29964047Y24515181D02*
X29725952Y24515181D01*
X29725952Y24515181D02*
X29630714Y24467562D01*
X29630714Y24467562D02*
X29583095Y24419943D01*
X29583095Y24419943D02*
X29535476Y24324705D01*
X29535476Y24324705D02*
X29535476Y24229467D01*
X29535476Y24229467D02*
X29583095Y24086610D01*
X29583095Y24086610D02*
X30154523Y23515181D01*
X30154523Y23515181D02*
X29535476Y23515181D01*
X28678333Y24181848D02*
X28678333Y23515181D01*
X28916428Y24562800D02*
X29154523Y23848515D01*
X29154523Y23848515D02*
X28535476Y23848515D01*
X38557580Y25153858D02*
X38605200Y25201477D01*
X38605200Y25201477D02*
X38652819Y25344334D01*
X38652819Y25344334D02*
X38652819Y25439572D01*
X38652819Y25439572D02*
X38605200Y25582429D01*
X38605200Y25582429D02*
X38509961Y25677667D01*
X38509961Y25677667D02*
X38414723Y25725286D01*
X38414723Y25725286D02*
X38224247Y25772905D01*
X38224247Y25772905D02*
X38081390Y25772905D01*
X38081390Y25772905D02*
X37890914Y25725286D01*
X37890914Y25725286D02*
X37795676Y25677667D01*
X37795676Y25677667D02*
X37700438Y25582429D01*
X37700438Y25582429D02*
X37652819Y25439572D01*
X37652819Y25439572D02*
X37652819Y25344334D01*
X37652819Y25344334D02*
X37700438Y25201477D01*
X37700438Y25201477D02*
X37748057Y25153858D01*
X37652819Y24820524D02*
X37652819Y24201477D01*
X37652819Y24201477D02*
X38033771Y24534810D01*
X38033771Y24534810D02*
X38033771Y24391953D01*
X38033771Y24391953D02*
X38081390Y24296715D01*
X38081390Y24296715D02*
X38129009Y24249096D01*
X38129009Y24249096D02*
X38224247Y24201477D01*
X38224247Y24201477D02*
X38462342Y24201477D01*
X38462342Y24201477D02*
X38557580Y24249096D01*
X38557580Y24249096D02*
X38605200Y24296715D01*
X38605200Y24296715D02*
X38652819Y24391953D01*
X38652819Y24391953D02*
X38652819Y24677667D01*
X38652819Y24677667D02*
X38605200Y24772905D01*
X38605200Y24772905D02*
X38557580Y24820524D01*
X38652819Y23249096D02*
X38652819Y23820524D01*
X38652819Y23534810D02*
X37652819Y23534810D01*
X37652819Y23534810D02*
X37795676Y23630048D01*
X37795676Y23630048D02*
X37890914Y23725286D01*
X37890914Y23725286D02*
X37938533Y23820524D01*
X88574428Y6005991D02*
X88907761Y6005991D01*
X88907761Y5482181D02*
X88907761Y6482181D01*
X88907761Y6482181D02*
X88431571Y6482181D01*
X88050618Y5482181D02*
X88050618Y6482181D01*
X87574428Y5482181D02*
X87574428Y6482181D01*
X87574428Y6482181D02*
X87336333Y6482181D01*
X87336333Y6482181D02*
X87193476Y6434562D01*
X87193476Y6434562D02*
X87098238Y6339324D01*
X87098238Y6339324D02*
X87050619Y6244086D01*
X87050619Y6244086D02*
X87003000Y6053610D01*
X87003000Y6053610D02*
X87003000Y5910753D01*
X87003000Y5910753D02*
X87050619Y5720277D01*
X87050619Y5720277D02*
X87098238Y5625039D01*
X87098238Y5625039D02*
X87193476Y5529800D01*
X87193476Y5529800D02*
X87336333Y5482181D01*
X87336333Y5482181D02*
X87574428Y5482181D01*
X86669666Y6482181D02*
X86050619Y6482181D01*
X86050619Y6482181D02*
X86383952Y6101229D01*
X86383952Y6101229D02*
X86241095Y6101229D01*
X86241095Y6101229D02*
X86145857Y6053610D01*
X86145857Y6053610D02*
X86098238Y6005991D01*
X86098238Y6005991D02*
X86050619Y5910753D01*
X86050619Y5910753D02*
X86050619Y5672658D01*
X86050619Y5672658D02*
X86098238Y5577420D01*
X86098238Y5577420D02*
X86145857Y5529800D01*
X86145857Y5529800D02*
X86241095Y5482181D01*
X86241095Y5482181D02*
X86526809Y5482181D01*
X86526809Y5482181D02*
X86622047Y5529800D01*
X86622047Y5529800D02*
X86669666Y5577420D01*
X36398580Y25153858D02*
X36446200Y25201477D01*
X36446200Y25201477D02*
X36493819Y25344334D01*
X36493819Y25344334D02*
X36493819Y25439572D01*
X36493819Y25439572D02*
X36446200Y25582429D01*
X36446200Y25582429D02*
X36350961Y25677667D01*
X36350961Y25677667D02*
X36255723Y25725286D01*
X36255723Y25725286D02*
X36065247Y25772905D01*
X36065247Y25772905D02*
X35922390Y25772905D01*
X35922390Y25772905D02*
X35731914Y25725286D01*
X35731914Y25725286D02*
X35636676Y25677667D01*
X35636676Y25677667D02*
X35541438Y25582429D01*
X35541438Y25582429D02*
X35493819Y25439572D01*
X35493819Y25439572D02*
X35493819Y25344334D01*
X35493819Y25344334D02*
X35541438Y25201477D01*
X35541438Y25201477D02*
X35589057Y25153858D01*
X35493819Y24820524D02*
X35493819Y24201477D01*
X35493819Y24201477D02*
X35874771Y24534810D01*
X35874771Y24534810D02*
X35874771Y24391953D01*
X35874771Y24391953D02*
X35922390Y24296715D01*
X35922390Y24296715D02*
X35970009Y24249096D01*
X35970009Y24249096D02*
X36065247Y24201477D01*
X36065247Y24201477D02*
X36303342Y24201477D01*
X36303342Y24201477D02*
X36398580Y24249096D01*
X36398580Y24249096D02*
X36446200Y24296715D01*
X36446200Y24296715D02*
X36493819Y24391953D01*
X36493819Y24391953D02*
X36493819Y24677667D01*
X36493819Y24677667D02*
X36446200Y24772905D01*
X36446200Y24772905D02*
X36398580Y24820524D01*
X35493819Y23582429D02*
X35493819Y23487191D01*
X35493819Y23487191D02*
X35541438Y23391953D01*
X35541438Y23391953D02*
X35589057Y23344334D01*
X35589057Y23344334D02*
X35684295Y23296715D01*
X35684295Y23296715D02*
X35874771Y23249096D01*
X35874771Y23249096D02*
X36112866Y23249096D01*
X36112866Y23249096D02*
X36303342Y23296715D01*
X36303342Y23296715D02*
X36398580Y23344334D01*
X36398580Y23344334D02*
X36446200Y23391953D01*
X36446200Y23391953D02*
X36493819Y23487191D01*
X36493819Y23487191D02*
X36493819Y23582429D01*
X36493819Y23582429D02*
X36446200Y23677667D01*
X36446200Y23677667D02*
X36398580Y23725286D01*
X36398580Y23725286D02*
X36303342Y23772905D01*
X36303342Y23772905D02*
X36112866Y23820524D01*
X36112866Y23820524D02*
X35874771Y23820524D01*
X35874771Y23820524D02*
X35684295Y23772905D01*
X35684295Y23772905D02*
X35589057Y23725286D01*
X35589057Y23725286D02*
X35541438Y23677667D01*
X35541438Y23677667D02*
X35493819Y23582429D01*
X21470857Y15232420D02*
X21518476Y15184800D01*
X21518476Y15184800D02*
X21661333Y15137181D01*
X21661333Y15137181D02*
X21756571Y15137181D01*
X21756571Y15137181D02*
X21899428Y15184800D01*
X21899428Y15184800D02*
X21994666Y15280039D01*
X21994666Y15280039D02*
X22042285Y15375277D01*
X22042285Y15375277D02*
X22089904Y15565753D01*
X22089904Y15565753D02*
X22089904Y15708610D01*
X22089904Y15708610D02*
X22042285Y15899086D01*
X22042285Y15899086D02*
X21994666Y15994324D01*
X21994666Y15994324D02*
X21899428Y16089562D01*
X21899428Y16089562D02*
X21756571Y16137181D01*
X21756571Y16137181D02*
X21661333Y16137181D01*
X21661333Y16137181D02*
X21518476Y16089562D01*
X21518476Y16089562D02*
X21470857Y16041943D01*
X21089904Y16041943D02*
X21042285Y16089562D01*
X21042285Y16089562D02*
X20947047Y16137181D01*
X20947047Y16137181D02*
X20708952Y16137181D01*
X20708952Y16137181D02*
X20613714Y16089562D01*
X20613714Y16089562D02*
X20566095Y16041943D01*
X20566095Y16041943D02*
X20518476Y15946705D01*
X20518476Y15946705D02*
X20518476Y15851467D01*
X20518476Y15851467D02*
X20566095Y15708610D01*
X20566095Y15708610D02*
X21137523Y15137181D01*
X21137523Y15137181D02*
X20518476Y15137181D01*
X20042285Y15137181D02*
X19851809Y15137181D01*
X19851809Y15137181D02*
X19756571Y15184800D01*
X19756571Y15184800D02*
X19708952Y15232420D01*
X19708952Y15232420D02*
X19613714Y15375277D01*
X19613714Y15375277D02*
X19566095Y15565753D01*
X19566095Y15565753D02*
X19566095Y15946705D01*
X19566095Y15946705D02*
X19613714Y16041943D01*
X19613714Y16041943D02*
X19661333Y16089562D01*
X19661333Y16089562D02*
X19756571Y16137181D01*
X19756571Y16137181D02*
X19947047Y16137181D01*
X19947047Y16137181D02*
X20042285Y16089562D01*
X20042285Y16089562D02*
X20089904Y16041943D01*
X20089904Y16041943D02*
X20137523Y15946705D01*
X20137523Y15946705D02*
X20137523Y15708610D01*
X20137523Y15708610D02*
X20089904Y15613372D01*
X20089904Y15613372D02*
X20042285Y15565753D01*
X20042285Y15565753D02*
X19947047Y15518134D01*
X19947047Y15518134D02*
X19756571Y15518134D01*
X19756571Y15518134D02*
X19661333Y15565753D01*
X19661333Y15565753D02*
X19613714Y15613372D01*
X19613714Y15613372D02*
X19566095Y15708610D01*
X25857580Y25026858D02*
X25905200Y25074477D01*
X25905200Y25074477D02*
X25952819Y25217334D01*
X25952819Y25217334D02*
X25952819Y25312572D01*
X25952819Y25312572D02*
X25905200Y25455429D01*
X25905200Y25455429D02*
X25809961Y25550667D01*
X25809961Y25550667D02*
X25714723Y25598286D01*
X25714723Y25598286D02*
X25524247Y25645905D01*
X25524247Y25645905D02*
X25381390Y25645905D01*
X25381390Y25645905D02*
X25190914Y25598286D01*
X25190914Y25598286D02*
X25095676Y25550667D01*
X25095676Y25550667D02*
X25000438Y25455429D01*
X25000438Y25455429D02*
X24952819Y25312572D01*
X24952819Y25312572D02*
X24952819Y25217334D01*
X24952819Y25217334D02*
X25000438Y25074477D01*
X25000438Y25074477D02*
X25048057Y25026858D01*
X25048057Y24645905D02*
X25000438Y24598286D01*
X25000438Y24598286D02*
X24952819Y24503048D01*
X24952819Y24503048D02*
X24952819Y24264953D01*
X24952819Y24264953D02*
X25000438Y24169715D01*
X25000438Y24169715D02*
X25048057Y24122096D01*
X25048057Y24122096D02*
X25143295Y24074477D01*
X25143295Y24074477D02*
X25238533Y24074477D01*
X25238533Y24074477D02*
X25381390Y24122096D01*
X25381390Y24122096D02*
X25952819Y24693524D01*
X25952819Y24693524D02*
X25952819Y24074477D01*
X24952819Y23217334D02*
X24952819Y23407810D01*
X24952819Y23407810D02*
X25000438Y23503048D01*
X25000438Y23503048D02*
X25048057Y23550667D01*
X25048057Y23550667D02*
X25190914Y23645905D01*
X25190914Y23645905D02*
X25381390Y23693524D01*
X25381390Y23693524D02*
X25762342Y23693524D01*
X25762342Y23693524D02*
X25857580Y23645905D01*
X25857580Y23645905D02*
X25905200Y23598286D01*
X25905200Y23598286D02*
X25952819Y23503048D01*
X25952819Y23503048D02*
X25952819Y23312572D01*
X25952819Y23312572D02*
X25905200Y23217334D01*
X25905200Y23217334D02*
X25857580Y23169715D01*
X25857580Y23169715D02*
X25762342Y23122096D01*
X25762342Y23122096D02*
X25524247Y23122096D01*
X25524247Y23122096D02*
X25429009Y23169715D01*
X25429009Y23169715D02*
X25381390Y23217334D01*
X25381390Y23217334D02*
X25333771Y23312572D01*
X25333771Y23312572D02*
X25333771Y23503048D01*
X25333771Y23503048D02*
X25381390Y23598286D01*
X25381390Y23598286D02*
X25429009Y23645905D01*
X25429009Y23645905D02*
X25524247Y23693524D01*
X49223380Y28793858D02*
X49271000Y28841477D01*
X49271000Y28841477D02*
X49318619Y28984334D01*
X49318619Y28984334D02*
X49318619Y29079572D01*
X49318619Y29079572D02*
X49271000Y29222429D01*
X49271000Y29222429D02*
X49175761Y29317667D01*
X49175761Y29317667D02*
X49080523Y29365286D01*
X49080523Y29365286D02*
X48890047Y29412905D01*
X48890047Y29412905D02*
X48747190Y29412905D01*
X48747190Y29412905D02*
X48556714Y29365286D01*
X48556714Y29365286D02*
X48461476Y29317667D01*
X48461476Y29317667D02*
X48366238Y29222429D01*
X48366238Y29222429D02*
X48318619Y29079572D01*
X48318619Y29079572D02*
X48318619Y28984334D01*
X48318619Y28984334D02*
X48366238Y28841477D01*
X48366238Y28841477D02*
X48413857Y28793858D01*
X49318619Y27841477D02*
X49318619Y28412905D01*
X49318619Y28127191D02*
X48318619Y28127191D01*
X48318619Y28127191D02*
X48461476Y28222429D01*
X48461476Y28222429D02*
X48556714Y28317667D01*
X48556714Y28317667D02*
X48604333Y28412905D01*
X48413857Y27460524D02*
X48366238Y27412905D01*
X48366238Y27412905D02*
X48318619Y27317667D01*
X48318619Y27317667D02*
X48318619Y27079572D01*
X48318619Y27079572D02*
X48366238Y26984334D01*
X48366238Y26984334D02*
X48413857Y26936715D01*
X48413857Y26936715D02*
X48509095Y26889096D01*
X48509095Y26889096D02*
X48604333Y26889096D01*
X48604333Y26889096D02*
X48747190Y26936715D01*
X48747190Y26936715D02*
X49318619Y27508143D01*
X49318619Y27508143D02*
X49318619Y26889096D01*
X56058180Y26017458D02*
X56105800Y26065077D01*
X56105800Y26065077D02*
X56153419Y26207934D01*
X56153419Y26207934D02*
X56153419Y26303172D01*
X56153419Y26303172D02*
X56105800Y26446029D01*
X56105800Y26446029D02*
X56010561Y26541267D01*
X56010561Y26541267D02*
X55915323Y26588886D01*
X55915323Y26588886D02*
X55724847Y26636505D01*
X55724847Y26636505D02*
X55581990Y26636505D01*
X55581990Y26636505D02*
X55391514Y26588886D01*
X55391514Y26588886D02*
X55296276Y26541267D01*
X55296276Y26541267D02*
X55201038Y26446029D01*
X55201038Y26446029D02*
X55153419Y26303172D01*
X55153419Y26303172D02*
X55153419Y26207934D01*
X55153419Y26207934D02*
X55201038Y26065077D01*
X55201038Y26065077D02*
X55248657Y26017458D01*
X55153419Y25684124D02*
X55153419Y25065077D01*
X55153419Y25065077D02*
X55534371Y25398410D01*
X55534371Y25398410D02*
X55534371Y25255553D01*
X55534371Y25255553D02*
X55581990Y25160315D01*
X55581990Y25160315D02*
X55629609Y25112696D01*
X55629609Y25112696D02*
X55724847Y25065077D01*
X55724847Y25065077D02*
X55962942Y25065077D01*
X55962942Y25065077D02*
X56058180Y25112696D01*
X56058180Y25112696D02*
X56105800Y25160315D01*
X56105800Y25160315D02*
X56153419Y25255553D01*
X56153419Y25255553D02*
X56153419Y25541267D01*
X56153419Y25541267D02*
X56105800Y25636505D01*
X56105800Y25636505D02*
X56058180Y25684124D01*
X55581990Y24493648D02*
X55534371Y24588886D01*
X55534371Y24588886D02*
X55486752Y24636505D01*
X55486752Y24636505D02*
X55391514Y24684124D01*
X55391514Y24684124D02*
X55343895Y24684124D01*
X55343895Y24684124D02*
X55248657Y24636505D01*
X55248657Y24636505D02*
X55201038Y24588886D01*
X55201038Y24588886D02*
X55153419Y24493648D01*
X55153419Y24493648D02*
X55153419Y24303172D01*
X55153419Y24303172D02*
X55201038Y24207934D01*
X55201038Y24207934D02*
X55248657Y24160315D01*
X55248657Y24160315D02*
X55343895Y24112696D01*
X55343895Y24112696D02*
X55391514Y24112696D01*
X55391514Y24112696D02*
X55486752Y24160315D01*
X55486752Y24160315D02*
X55534371Y24207934D01*
X55534371Y24207934D02*
X55581990Y24303172D01*
X55581990Y24303172D02*
X55581990Y24493648D01*
X55581990Y24493648D02*
X55629609Y24588886D01*
X55629609Y24588886D02*
X55677228Y24636505D01*
X55677228Y24636505D02*
X55772466Y24684124D01*
X55772466Y24684124D02*
X55962942Y24684124D01*
X55962942Y24684124D02*
X56058180Y24636505D01*
X56058180Y24636505D02*
X56105800Y24588886D01*
X56105800Y24588886D02*
X56153419Y24493648D01*
X56153419Y24493648D02*
X56153419Y24303172D01*
X56153419Y24303172D02*
X56105800Y24207934D01*
X56105800Y24207934D02*
X56058180Y24160315D01*
X56058180Y24160315D02*
X55962942Y24112696D01*
X55962942Y24112696D02*
X55772466Y24112696D01*
X55772466Y24112696D02*
X55677228Y24160315D01*
X55677228Y24160315D02*
X55629609Y24207934D01*
X55629609Y24207934D02*
X55581990Y24303172D01*
X62999857Y29058981D02*
X63333190Y29535172D01*
X63571285Y29058981D02*
X63571285Y30058981D01*
X63571285Y30058981D02*
X63190333Y30058981D01*
X63190333Y30058981D02*
X63095095Y30011362D01*
X63095095Y30011362D02*
X63047476Y29963743D01*
X63047476Y29963743D02*
X62999857Y29868505D01*
X62999857Y29868505D02*
X62999857Y29725648D01*
X62999857Y29725648D02*
X63047476Y29630410D01*
X63047476Y29630410D02*
X63095095Y29582791D01*
X63095095Y29582791D02*
X63190333Y29535172D01*
X63190333Y29535172D02*
X63571285Y29535172D01*
X62047476Y29058981D02*
X62618904Y29058981D01*
X62333190Y29058981D02*
X62333190Y30058981D01*
X62333190Y30058981D02*
X62428428Y29916124D01*
X62428428Y29916124D02*
X62523666Y29820886D01*
X62523666Y29820886D02*
X62618904Y29773267D01*
X61428428Y30058981D02*
X61333190Y30058981D01*
X61333190Y30058981D02*
X61237952Y30011362D01*
X61237952Y30011362D02*
X61190333Y29963743D01*
X61190333Y29963743D02*
X61142714Y29868505D01*
X61142714Y29868505D02*
X61095095Y29678029D01*
X61095095Y29678029D02*
X61095095Y29439934D01*
X61095095Y29439934D02*
X61142714Y29249458D01*
X61142714Y29249458D02*
X61190333Y29154220D01*
X61190333Y29154220D02*
X61237952Y29106600D01*
X61237952Y29106600D02*
X61333190Y29058981D01*
X61333190Y29058981D02*
X61428428Y29058981D01*
X61428428Y29058981D02*
X61523666Y29106600D01*
X61523666Y29106600D02*
X61571285Y29154220D01*
X61571285Y29154220D02*
X61618904Y29249458D01*
X61618904Y29249458D02*
X61666523Y29439934D01*
X61666523Y29439934D02*
X61666523Y29678029D01*
X61666523Y29678029D02*
X61618904Y29868505D01*
X61618904Y29868505D02*
X61571285Y29963743D01*
X61571285Y29963743D02*
X61523666Y30011362D01*
X61523666Y30011362D02*
X61428428Y30058981D01*
X24225238Y46934943D02*
X24320476Y46982562D01*
X24320476Y46982562D02*
X24415714Y47077800D01*
X24415714Y47077800D02*
X24558571Y47220658D01*
X24558571Y47220658D02*
X24653809Y47268277D01*
X24653809Y47268277D02*
X24749047Y47268277D01*
X24701428Y47030181D02*
X24796666Y47077800D01*
X24796666Y47077800D02*
X24891904Y47173039D01*
X24891904Y47173039D02*
X24939523Y47363515D01*
X24939523Y47363515D02*
X24939523Y47696848D01*
X24939523Y47696848D02*
X24891904Y47887324D01*
X24891904Y47887324D02*
X24796666Y47982562D01*
X24796666Y47982562D02*
X24701428Y48030181D01*
X24701428Y48030181D02*
X24510952Y48030181D01*
X24510952Y48030181D02*
X24415714Y47982562D01*
X24415714Y47982562D02*
X24320476Y47887324D01*
X24320476Y47887324D02*
X24272857Y47696848D01*
X24272857Y47696848D02*
X24272857Y47363515D01*
X24272857Y47363515D02*
X24320476Y47173039D01*
X24320476Y47173039D02*
X24415714Y47077800D01*
X24415714Y47077800D02*
X24510952Y47030181D01*
X24510952Y47030181D02*
X24701428Y47030181D01*
X23891904Y47934943D02*
X23844285Y47982562D01*
X23844285Y47982562D02*
X23749047Y48030181D01*
X23749047Y48030181D02*
X23510952Y48030181D01*
X23510952Y48030181D02*
X23415714Y47982562D01*
X23415714Y47982562D02*
X23368095Y47934943D01*
X23368095Y47934943D02*
X23320476Y47839705D01*
X23320476Y47839705D02*
X23320476Y47744467D01*
X23320476Y47744467D02*
X23368095Y47601610D01*
X23368095Y47601610D02*
X23939523Y47030181D01*
X23939523Y47030181D02*
X23320476Y47030181D01*
X48276380Y22164458D02*
X48324000Y22212077D01*
X48324000Y22212077D02*
X48371619Y22354934D01*
X48371619Y22354934D02*
X48371619Y22450172D01*
X48371619Y22450172D02*
X48324000Y22593029D01*
X48324000Y22593029D02*
X48228761Y22688267D01*
X48228761Y22688267D02*
X48133523Y22735886D01*
X48133523Y22735886D02*
X47943047Y22783505D01*
X47943047Y22783505D02*
X47800190Y22783505D01*
X47800190Y22783505D02*
X47609714Y22735886D01*
X47609714Y22735886D02*
X47514476Y22688267D01*
X47514476Y22688267D02*
X47419238Y22593029D01*
X47419238Y22593029D02*
X47371619Y22450172D01*
X47371619Y22450172D02*
X47371619Y22354934D01*
X47371619Y22354934D02*
X47419238Y22212077D01*
X47419238Y22212077D02*
X47466857Y22164458D01*
X47466857Y21783505D02*
X47419238Y21735886D01*
X47419238Y21735886D02*
X47371619Y21640648D01*
X47371619Y21640648D02*
X47371619Y21402553D01*
X47371619Y21402553D02*
X47419238Y21307315D01*
X47419238Y21307315D02*
X47466857Y21259696D01*
X47466857Y21259696D02*
X47562095Y21212077D01*
X47562095Y21212077D02*
X47657333Y21212077D01*
X47657333Y21212077D02*
X47800190Y21259696D01*
X47800190Y21259696D02*
X48371619Y21831124D01*
X48371619Y21831124D02*
X48371619Y21212077D01*
X47371619Y20878743D02*
X47371619Y20259696D01*
X47371619Y20259696D02*
X47752571Y20593029D01*
X47752571Y20593029D02*
X47752571Y20450172D01*
X47752571Y20450172D02*
X47800190Y20354934D01*
X47800190Y20354934D02*
X47847809Y20307315D01*
X47847809Y20307315D02*
X47943047Y20259696D01*
X47943047Y20259696D02*
X48181142Y20259696D01*
X48181142Y20259696D02*
X48276380Y20307315D01*
X48276380Y20307315D02*
X48324000Y20354934D01*
X48324000Y20354934D02*
X48371619Y20450172D01*
X48371619Y20450172D02*
X48371619Y20735886D01*
X48371619Y20735886D02*
X48324000Y20831124D01*
X48324000Y20831124D02*
X48276380Y20878743D01*
D11*
%TO.C,C1*%
X18950000Y39504252D02*
X18950000Y38981748D01*
X20420000Y39504252D02*
X20420000Y38981748D01*
%TO.C,C5*%
X32752420Y25910000D02*
X33033580Y25910000D01*
X32752420Y24890000D02*
X33033580Y24890000D01*
%TO.C,C6*%
X34825000Y24249748D02*
X34825000Y24772252D01*
X36295000Y24249748D02*
X36295000Y24772252D01*
%TO.C,C7*%
X44289800Y24206748D02*
X44289800Y24729252D01*
X45759800Y24206748D02*
X45759800Y24729252D01*
%TO.C,C8*%
X44315200Y28386852D02*
X44315200Y27864348D01*
X45785200Y28386852D02*
X45785200Y27864348D01*
%TO.C,C9*%
X25554000Y28186748D02*
X25554000Y28709252D01*
X27024000Y28186748D02*
X27024000Y28709252D01*
%TO.C,C11*%
X39997747Y33374000D02*
X40520253Y33374000D01*
X39997747Y31904000D02*
X40520253Y31904000D01*
%TO.C,C16*%
X66259852Y40992504D02*
X66782356Y40992504D01*
X66259852Y39522504D02*
X66782356Y39522504D01*
%TO.C,C17*%
X68326104Y36694252D02*
X68326104Y37216756D01*
X69796104Y36694252D02*
X69796104Y37216756D01*
%TO.C,C18*%
X66129004Y37239556D02*
X66129004Y36717052D01*
X67599004Y37239556D02*
X67599004Y36717052D01*
D12*
%TO.C,J1*%
X5401000Y40350000D02*
X5401000Y30770000D01*
X5401000Y30770000D02*
X6681000Y30770000D01*
X6681000Y40350000D02*
X5401000Y40350000D01*
X9401000Y40350000D02*
X10651000Y40350000D01*
X9401000Y30770000D02*
X10651000Y30770000D01*
D11*
%TO.C,L1*%
X28602000Y22325000D02*
X33882000Y22325000D01*
X28602000Y21380000D02*
X28602000Y22325000D01*
X28602000Y17990000D02*
X28602000Y17045000D01*
X28602000Y17045000D02*
X33882000Y17045000D01*
X33882000Y22325000D02*
X33882000Y21380000D01*
X33882000Y17045000D02*
X33882000Y17990000D01*
%TO.C,Q1*%
X36924000Y54331000D02*
X36924000Y52381000D01*
X36924000Y51481000D02*
X36924000Y49881000D01*
X36924000Y49081000D02*
X36924000Y48031000D01*
X37324000Y54331000D02*
X36924000Y54331000D01*
X37324000Y48031000D02*
X36944000Y48031000D01*
X41924000Y54331000D02*
X42324000Y54331000D01*
X41924000Y48031000D02*
X42324000Y48031000D01*
X42324000Y54331000D02*
X42324000Y52381000D01*
X42324000Y51481000D02*
X42324000Y49881000D01*
X42324000Y49081000D02*
X42324000Y48031000D01*
%TO.C,R1*%
X16409936Y37819000D02*
X16864064Y37819000D01*
X16409936Y36349000D02*
X16864064Y36349000D01*
%TO.C,R3*%
X34697936Y35914000D02*
X35152064Y35914000D01*
X34697936Y34444000D02*
X35152064Y34444000D01*
%TO.C,R5*%
X35152064Y38073000D02*
X34697936Y38073000D01*
X35152064Y36603000D02*
X34697936Y36603000D01*
%TO.C,R6*%
X34952000Y40359064D02*
X34952000Y39904936D01*
X36422000Y40359064D02*
X36422000Y39904936D01*
%TO.C,R7*%
X19839000Y28474936D02*
X19839000Y28929064D01*
X21309000Y28474936D02*
X21309000Y28929064D01*
%TO.C,R8*%
X42137064Y35914000D02*
X41682936Y35914000D01*
X42137064Y34444000D02*
X41682936Y34444000D01*
%TO.C,R9*%
X38708064Y29310000D02*
X38253936Y29310000D01*
X38708064Y27840000D02*
X38253936Y27840000D01*
%TO.C,R11*%
X42952936Y63600000D02*
X43407064Y63600000D01*
X42952936Y62130000D02*
X43407064Y62130000D01*
%TO.C,R17*%
X15854000Y48675936D02*
X15854000Y50130064D01*
X17674000Y48675936D02*
X17674000Y50130064D01*
%TO.C,R18*%
X23902936Y48741000D02*
X24357064Y48741000D01*
X23902936Y47271000D02*
X24357064Y47271000D01*
%TO.C,R19*%
X27839936Y46582000D02*
X28294064Y46582000D01*
X27839936Y45112000D02*
X28294064Y45112000D01*
%TO.C,R20*%
X58928104Y41373568D02*
X58928104Y40919440D01*
X60398104Y41373568D02*
X60398104Y40919440D01*
%TO.C,R23*%
X33428000Y50646064D02*
X33428000Y50191936D01*
X34898000Y50646064D02*
X34898000Y50191936D01*
%TO.C,R24*%
X44042064Y38073000D02*
X43587936Y38073000D01*
X44042064Y36603000D02*
X43587936Y36603000D01*
%TO.C,R27*%
X38327064Y46836000D02*
X37872936Y46836000D01*
X38327064Y45366000D02*
X37872936Y45366000D01*
%TO.C,R28*%
X19839000Y45947064D02*
X19839000Y45492936D01*
X21309000Y45947064D02*
X21309000Y45492936D01*
%TO.C,R32*%
X13841464Y45769200D02*
X13387336Y45769200D01*
X13841464Y44299200D02*
X13387336Y44299200D01*
%TO.C,R33*%
X14070064Y26643000D02*
X13615936Y26643000D01*
X14070064Y25173000D02*
X13615936Y25173000D01*
%TO.C,U1*%
X29515700Y27227500D02*
X29035700Y27227500D01*
X29275700Y27557500D01*
X29515700Y27227500D01*
G36*
X29515700Y27227500D02*
G01*
X29035700Y27227500D01*
X29275700Y27557500D01*
X29515700Y27227500D01*
G37*
%TO.C,U3*%
X59712104Y38303504D02*
X60062104Y38303504D01*
X59712104Y37953504D02*
X59712104Y38303504D01*
X59712104Y34433504D02*
X59712104Y34083504D01*
X59712104Y34083504D02*
X60062104Y34083504D01*
X63932104Y34433504D02*
X63932104Y34083504D01*
X63932104Y34083504D02*
X63582104Y34083504D01*
X64042104Y38363504D02*
X63802104Y38693504D01*
X64282104Y38693504D01*
X64042104Y38363504D01*
G36*
X64042104Y38363504D02*
G01*
X63802104Y38693504D01*
X64282104Y38693504D01*
X64042104Y38363504D01*
G37*
%TO.C,R4*%
X38708064Y35914000D02*
X38253936Y35914000D01*
X38708064Y34444000D02*
X38253936Y34444000D01*
%TO.C,C4*%
X23106747Y28675000D02*
X23629253Y28675000D01*
X23106747Y27205000D02*
X23629253Y27205000D01*
%TO.C,C3*%
X27205000Y34805252D02*
X27205000Y34282748D01*
X28675000Y34805252D02*
X28675000Y34282748D01*
%TO.C,C2*%
X29237000Y34805252D02*
X29237000Y34282748D01*
X30707000Y34805252D02*
X30707000Y34282748D01*
%TO.C,C10*%
X34952000Y29344252D02*
X34952000Y28821748D01*
X36422000Y29344252D02*
X36422000Y28821748D01*
%TO.C,R2*%
X14886000Y33247064D02*
X14886000Y32792936D01*
X16356000Y33247064D02*
X16356000Y32792936D01*
%TO.C,R34*%
X77750936Y32104000D02*
X78205064Y32104000D01*
X77750936Y30634000D02*
X78205064Y30634000D01*
%TO.C,C19*%
X39997747Y31342000D02*
X40520253Y31342000D01*
X39997747Y29872000D02*
X40520253Y29872000D01*
%TO.C,C20*%
X23741747Y32104000D02*
X24264253Y32104000D01*
X23741747Y30634000D02*
X24264253Y30634000D01*
%TO.C,R35*%
X80205000Y34689064D02*
X80205000Y30334936D01*
X83625000Y34689064D02*
X83625000Y30334936D01*
%TO.C,R36*%
X77750936Y34263000D02*
X78205064Y34263000D01*
X77750936Y32793000D02*
X78205064Y32793000D01*
%TO.C,R22*%
X16029000Y53239936D02*
X16029000Y53694064D01*
X17499000Y53239936D02*
X17499000Y53694064D01*
%TO.C,L2*%
X58894800Y22205800D02*
X59839800Y22205800D01*
X58894800Y16925800D02*
X58894800Y22205800D01*
X59839800Y16925800D02*
X58894800Y16925800D01*
X63229800Y16925800D02*
X64174800Y16925800D01*
X64174800Y22205800D02*
X63229800Y22205800D01*
X64174800Y16925800D02*
X64174800Y22205800D01*
%TO.C,Q5*%
X25933000Y54370000D02*
X25933000Y54750000D01*
X25933000Y49770000D02*
X25933000Y49370000D01*
X26983000Y54770000D02*
X25933000Y54770000D01*
X26983000Y49370000D02*
X25933000Y49370000D01*
X29383000Y54770000D02*
X27783000Y54770000D01*
X29383000Y49370000D02*
X27783000Y49370000D01*
X32233000Y54770000D02*
X30283000Y54770000D01*
X32233000Y54370000D02*
X32233000Y54770000D01*
X32233000Y49770000D02*
X32233000Y49370000D01*
X32233000Y49370000D02*
X30283000Y49370000D01*
%TO.C,U2*%
X50323200Y28849000D02*
X52273200Y28849000D01*
X50323200Y23729000D02*
X52273200Y23729000D01*
X54223200Y28849000D02*
X52273200Y28849000D01*
X54223200Y23729000D02*
X52273200Y23729000D01*
X49813200Y23494000D02*
X49333200Y23494000D01*
X49573200Y23824000D01*
X49813200Y23494000D01*
G36*
X49813200Y23494000D02*
G01*
X49333200Y23494000D01*
X49573200Y23824000D01*
X49813200Y23494000D01*
G37*
%TO.C,C35*%
X52332748Y18091000D02*
X52855252Y18091000D01*
X52332748Y16621000D02*
X52855252Y16621000D01*
%TO.C,Q3*%
X18567000Y54770000D02*
X20517000Y54770000D01*
X18567000Y54370000D02*
X18567000Y54770000D01*
X18567000Y49770000D02*
X18567000Y49370000D01*
X18567000Y49370000D02*
X20517000Y49370000D01*
X21417000Y54770000D02*
X23017000Y54770000D01*
X21417000Y49370000D02*
X23017000Y49370000D01*
X23817000Y54770000D02*
X24867000Y54770000D01*
X23817000Y49370000D02*
X24867000Y49370000D01*
X24867000Y54370000D02*
X24867000Y54770000D01*
X24867000Y49770000D02*
X24867000Y49390000D01*
%TO.C,C36*%
X56380200Y16256548D02*
X56380200Y16779052D01*
X57850200Y16256548D02*
X57850200Y16779052D01*
%TO.C,TH3*%
X36984000Y40359064D02*
X36984000Y39904936D01*
X38454000Y40359064D02*
X38454000Y39904936D01*
%TO.C,C27*%
X22125000Y24122748D02*
X22125000Y24645252D01*
X23595000Y24122748D02*
X23595000Y24645252D01*
%TO.C,R13*%
X58726400Y26773136D02*
X58726400Y27227264D01*
X60196400Y26773136D02*
X60196400Y27227264D01*
%TO.C,R12*%
X50992264Y30943400D02*
X50538136Y30943400D01*
X50992264Y29473400D02*
X50538136Y29473400D01*
%TO.C,D2*%
X53702200Y18787000D02*
X58512200Y18787000D01*
X58512200Y23037000D02*
X53702200Y23037000D01*
X58512200Y23037000D02*
X58512200Y18787000D01*
%TO.C,R14*%
X72109064Y63727000D02*
X71654936Y63727000D01*
X72109064Y62257000D02*
X71654936Y62257000D01*
%TO.C,TH4*%
X44223000Y34771064D02*
X44223000Y34316936D01*
X45693000Y34771064D02*
X45693000Y34316936D01*
%TO.C,D6*%
X56417104Y42146504D02*
X56417104Y39461504D01*
X56417104Y39461504D02*
X58337104Y39461504D01*
X58337104Y39461504D02*
X58337104Y42146504D01*
%TO.C,C21*%
X74068000Y32646252D02*
X74068000Y32123748D01*
X75538000Y32646252D02*
X75538000Y32123748D01*
%TO.C,C25*%
X24284000Y24122748D02*
X24284000Y24645252D01*
X25754000Y24122748D02*
X25754000Y24645252D01*
%TO.C,R15*%
X67590936Y63727000D02*
X68045064Y63727000D01*
X67590936Y62257000D02*
X68045064Y62257000D01*
%TO.C,C13*%
X46448800Y24206748D02*
X46448800Y24729252D01*
X47918800Y24206748D02*
X47918800Y24729252D01*
%TO.C,C24*%
X29985580Y25910000D02*
X29704420Y25910000D01*
X29985580Y24890000D02*
X29704420Y24890000D01*
%TO.C,C31*%
X39143000Y24249748D02*
X39143000Y24772252D01*
X40613000Y24249748D02*
X40613000Y24772252D01*
%TO.C,C30*%
X36984000Y24249748D02*
X36984000Y24772252D01*
X38454000Y24249748D02*
X38454000Y24772252D01*
%TO.C,C29*%
X21089252Y18007000D02*
X20566748Y18007000D01*
X21089252Y16537000D02*
X20566748Y16537000D01*
%TO.C,C26*%
X26443000Y24122748D02*
X26443000Y24645252D01*
X27913000Y24122748D02*
X27913000Y24645252D01*
%TO.C,C12*%
X46448800Y28412252D02*
X46448800Y27889748D01*
X47918800Y28412252D02*
X47918800Y27889748D01*
%TO.C,C38*%
X56643600Y25113348D02*
X56643600Y25635852D01*
X58113600Y25113348D02*
X58113600Y25635852D01*
%TO.C,R10*%
X62129936Y28598800D02*
X62584064Y28598800D01*
X62129936Y27128800D02*
X62584064Y27128800D01*
%TO.C,Q2*%
X23480000Y46645000D02*
X24130000Y46645001D01*
X23480000Y43525000D02*
X24130000Y43524999D01*
X24780000Y46645000D02*
X24130000Y46645001D01*
X24780000Y43525000D02*
X24130000Y43524999D01*
X25292500Y46595000D02*
X25052500Y46924999D01*
X25532500Y46925000D01*
X25292500Y46595000D01*
G36*
X25292500Y46595000D02*
G01*
X25052500Y46924999D01*
X25532500Y46925000D01*
X25292500Y46595000D01*
G37*
%TO.C,C23*%
X48861800Y21260348D02*
X48861800Y21782852D01*
X50331800Y21260348D02*
X50331800Y21782852D01*
%TD*%
M02*
