%TF.GenerationSoftware,KiCad,Pcbnew,8.0.3+1*%
%TF.CreationDate,2024-07-20T09:56:42+00:00*%
%TF.ProjectId,LION2CELL02,4c494f4e-3243-4454-9c4c-30322e6b6963,rev?*%
%TF.SameCoordinates,Original*%
%TF.FileFunction,Paste,Top*%
%TF.FilePolarity,Positive*%
%FSLAX46Y46*%
G04 Gerber Fmt 4.6, Leading zero omitted, Abs format (unit mm)*
G04 Created by KiCad (PCBNEW 8.0.3+1) date 2024-07-20 09:56:42*
%MOMM*%
%LPD*%
G01*
G04 APERTURE LIST*
G04 Aperture macros list*
%AMRoundRect*
0 Rectangle with rounded corners*
0 $1 Rounding radius*
0 $2 $3 $4 $5 $6 $7 $8 $9 X,Y pos of 4 corners*
0 Add a 4 corners polygon primitive as box body*
4,1,4,$2,$3,$4,$5,$6,$7,$8,$9,$2,$3,0*
0 Add four circle primitives for the rounded corners*
1,1,$1+$1,$2,$3*
1,1,$1+$1,$4,$5*
1,1,$1+$1,$6,$7*
1,1,$1+$1,$8,$9*
0 Add four rect primitives between the rounded corners*
20,1,$1+$1,$2,$3,$4,$5,0*
20,1,$1+$1,$4,$5,$6,$7,0*
20,1,$1+$1,$6,$7,$8,$9,0*
20,1,$1+$1,$8,$9,$2,$3,0*%
G04 Aperture macros list end*
%ADD10R,1.150000X0.600000*%
%ADD11R,1.150000X0.300000*%
%ADD12R,0.600000X1.150000*%
%ADD13R,0.300000X1.150000*%
%ADD14RoundRect,0.250000X0.312500X0.625000X-0.312500X0.625000X-0.312500X-0.625000X0.312500X-0.625000X0*%
%ADD15RoundRect,0.150000X-0.150000X-0.750000X0.150000X-0.750000X0.150000X0.750000X-0.150000X0.750000X0*%
%ADD16RoundRect,0.187500X-0.187500X-0.712500X0.187500X-0.712500X0.187500X0.712500X-0.187500X0.712500X0*%
%ADD17RoundRect,0.225000X-0.425000X-0.225000X0.425000X-0.225000X0.425000X0.225000X-0.425000X0.225000X0*%
%ADD18RoundRect,0.100000X-0.205000X-0.535000X0.205000X-0.535000X0.205000X0.535000X-0.205000X0.535000X0*%
%ADD19RoundRect,0.200000X-2.600000X-2.050000X2.600000X-2.050000X2.600000X2.050000X-2.600000X2.050000X0*%
%ADD20RoundRect,0.250000X-0.262500X-0.450000X0.262500X-0.450000X0.262500X0.450000X-0.262500X0.450000X0*%
%ADD21RoundRect,0.250000X-0.250000X-0.475000X0.250000X-0.475000X0.250000X0.475000X-0.250000X0.475000X0*%
%ADD22RoundRect,0.112500X-0.187500X-0.112500X0.187500X-0.112500X0.187500X0.112500X-0.187500X0.112500X0*%
%ADD23RoundRect,0.140000X-0.140000X-0.170000X0.140000X-0.170000X0.140000X0.170000X-0.140000X0.170000X0*%
%ADD24RoundRect,0.225000X-0.225000X-0.250000X0.225000X-0.250000X0.225000X0.250000X-0.225000X0.250000X0*%
%ADD25RoundRect,0.150000X-0.587500X-0.150000X0.587500X-0.150000X0.587500X0.150000X-0.587500X0.150000X0*%
%ADD26RoundRect,0.135000X-0.135000X-0.185000X0.135000X-0.185000X0.135000X0.185000X-0.135000X0.185000X0*%
G04 APERTURE END LIST*
D10*
%TO.C,J1*%
X119359800Y-74295400D03*
X119359800Y-75095400D03*
D11*
X119359800Y-76245400D03*
X119359800Y-77245400D03*
X119359800Y-77745400D03*
X119359800Y-78745400D03*
D10*
X119359800Y-80695400D03*
X119359800Y-79895400D03*
D11*
X119359800Y-79245400D03*
X119359800Y-78245400D03*
X119359800Y-76745400D03*
X119359800Y-75745400D03*
%TD*%
D12*
%TO.C,J5*%
X142138800Y-72994400D03*
X142938800Y-72994400D03*
D13*
X144088800Y-72994400D03*
X145088800Y-72994400D03*
X145588800Y-72994400D03*
X146588800Y-72994400D03*
D12*
X148538800Y-72994400D03*
X147738800Y-72994400D03*
D13*
X147088800Y-72994400D03*
X146088800Y-72994400D03*
X144588800Y-72994400D03*
X143588800Y-72994400D03*
%TD*%
D14*
%TO.C,R17*%
X168772300Y-112293400D03*
X165847300Y-112293400D03*
%TD*%
D15*
%TO.C,SW1*%
X166039800Y-127787400D03*
D16*
X164814800Y-127787400D03*
X167264800Y-127787400D03*
D17*
X164189800Y-129737400D03*
X167889800Y-129737400D03*
%TD*%
D18*
%TO.C,Q5*%
X108063000Y-129781400D03*
X109333000Y-129781400D03*
X110603000Y-129781400D03*
X111873000Y-129781400D03*
D19*
X109968000Y-126073000D03*
%TD*%
D15*
%TO.C,SW2*%
X116343000Y-125153000D03*
D16*
X115118000Y-125153000D03*
X117568000Y-125153000D03*
D17*
X114493000Y-127103000D03*
X118193000Y-127103000D03*
%TD*%
D18*
%TO.C,Q3*%
X101463000Y-129781400D03*
X102733000Y-129781400D03*
X104003000Y-129781400D03*
X105273000Y-129781400D03*
D19*
X103368000Y-126073000D03*
%TD*%
D20*
%TO.C,TH3*%
X118450500Y-134388000D03*
X120275500Y-134388000D03*
%TD*%
D21*
%TO.C,C27*%
X113983000Y-137428000D03*
X115883000Y-137428000D03*
%TD*%
D20*
%TO.C,TH4*%
X120710500Y-129418000D03*
X122535500Y-129418000D03*
%TD*%
D22*
%TO.C,D6*%
X125428000Y-124798000D03*
X127528000Y-124798000D03*
%TD*%
D23*
%TO.C,C21*%
X129553000Y-124308000D03*
X130513000Y-124308000D03*
%TD*%
D24*
%TO.C,C25*%
X118388000Y-137118000D03*
X119938000Y-137118000D03*
%TD*%
D23*
%TO.C,C24*%
X118113000Y-139358000D03*
X119073000Y-139358000D03*
%TD*%
D21*
%TO.C,C31*%
X113983000Y-146458000D03*
X115883000Y-146458000D03*
%TD*%
%TO.C,C30*%
X113983000Y-143448000D03*
X115883000Y-143448000D03*
%TD*%
%TO.C,C29*%
X113983000Y-140438000D03*
X115883000Y-140438000D03*
%TD*%
%TO.C,C26*%
X113983000Y-134418000D03*
X115883000Y-134418000D03*
%TD*%
D25*
%TO.C,Q2*%
X120925500Y-124773000D03*
X120925500Y-126673000D03*
X122800500Y-125723000D03*
%TD*%
D26*
%TO.C,TH2*%
X125253000Y-129258000D03*
X126273000Y-129258000D03*
%TD*%
%TO.C,TH1*%
X125253000Y-127268000D03*
X126273000Y-127268000D03*
%TD*%
M02*
