M48
; DRILL file {KiCad 8.0.3+1} date 2024-07-20T09:56:42+0000
; FORMAT={3:3/ absolute / metric / suppress leading zeros}
; #@! TF.CreationDate,2024-07-20T09:56:42+00:00
; #@! TF.GenerationSoftware,Kicad,Pcbnew,8.0.3+1
; #@! TF.FileFunction,Plated,1,2,PTH
FMAT,2
METRIC,TZ
; #@! TA.AperFunction,Plated,PTH,ComponentDrill
T1C0.200
; #@! TA.AperFunction,Plated,PTH,ViaDrill
T2C0.500
; #@! TA.AperFunction,Plated,PTH,ComponentDrill
T3C0.500
; #@! TA.AperFunction,Plated,PTH,ComponentDrill
T4C0.600
; #@! TA.AperFunction,Plated,PTH,ComponentDrill
T5C0.889
; #@! TA.AperFunction,Plated,PTH,ComponentDrill
T6C1.300
; #@! TA.AperFunction,Plated,PTH,ComponentDrill
T7C1.600
; #@! TA.AperFunction,Plated,PTH,ComponentDrill
T8C3.000
%
G90
G05
T1
X155276Y-108133
X155276Y-108833
X155976Y-108133
X155976Y-108833
T2
X100127Y-97371
X101397Y-83337
X101397Y-84607
X101397Y-85877
X101397Y-87147
X101397Y-88417
X101397Y-89687
X101714Y-116040
X102476Y-117310
X102921Y-89687
X102984Y-99466
X103175Y-83337
X103429Y-100800
X103492Y-115786
X103873Y-118389
X104445Y-89687
X104953Y-83337
X105334Y-115786
X105969Y-89687
X106032Y-118897
X106477Y-84099
X106477Y-85369
X106477Y-108737
X106731Y-87147
X107112Y-115786
X107747Y-108737
X107810Y-118897
X107874Y-91465
X108001Y-92989
X108255Y-89052
X108509Y-100228
X108636Y-115786
X108763Y-75971
X108763Y-77114
X108763Y-78257
X108763Y-79527
X108763Y-80797
X109271Y-87655
X109398Y-92989
X109461Y-118897
X109779Y-99085
X109906Y-90703
X110477Y-115786
X110541Y-87655
X110541Y-88925
X111049Y-129057
X111049Y-130327
X111049Y-131851
X111303Y-90195
X111303Y-106451
X111303Y-118834
X111811Y-87655
X112128Y-115786
X112253Y-107071
X112827Y-90703
X113081Y-87655
X113081Y-100228
X113208Y-119024
X113525Y-117564
X113589Y-116167
X113691Y-104549
X114188Y-94082
X114351Y-87655
X114605Y-100228
X115621Y-87655
X115621Y-104419
X116256Y-102789
X117302Y-91460
X118923Y-80289
X119116Y-94107
X119748Y-82639
X120040Y-88138
X121173Y-94127
X121209Y-75463
X121844Y-130454
X122657Y-94945
X123114Y-130454
X123558Y-117627
X123749Y-114643
X123767Y-83274
X124257Y-130454
X125019Y-112928
X125400Y-130454
X125590Y-117564
X125781Y-86385
X126543Y-130454
X126670Y-113055
X126822Y-86284
X127305Y-84099
X127686Y-130454
X128067Y-117627
X128194Y-113055
X129337Y-131851
X129591Y-113055
X129845Y-75463
X129889Y-87633
X129972Y-117564
X130175Y-92227
X130861Y-131851
X131496Y-120167
X131623Y-113055
X132231Y-93135
X132385Y-117564
X132385Y-121818
X132385Y-131851
X132766Y-85029
X133193Y-89530
X133393Y-95743
X133401Y-112039
X133909Y-131851
X134290Y-116738
X134925Y-87021
X135179Y-112039
X135234Y-83930
X135433Y-75463
X135433Y-131851
X135687Y-86259
X135814Y-88036
X135814Y-102058
X136322Y-85369
X136449Y-84226
X136703Y-114452
X136830Y-87020
X136957Y-83083
X136957Y-131851
X137465Y-82321
X137592Y-84480
X137719Y-86004
X137973Y-110007
X138227Y-119659
X138227Y-121437
X138481Y-83591
X138544Y-112484
X138608Y-84988
X138735Y-82448
X138735Y-118135
X139243Y-80924
X139497Y-83972
X139878Y-111214
X140005Y-122199
X140259Y-109753
X140284Y-130988
X140513Y-82956
X141275Y-120167
X141783Y-88163
X142037Y-109372
X142215Y-118186
X142545Y-105600
X143053Y-97117
X143053Y-108356
X143116Y-100609
X143307Y-88163
X143561Y-86639
X144018Y-116408
X144386Y-89052
X145085Y-85115
X145085Y-86703
X145593Y-106261
X145593Y-115595
X146291Y-119151
X146672Y-99847
X147752Y-100292
X147815Y-96101
X147815Y-105054
X148450Y-83210
X148831Y-100800
X149022Y-111277
X149784Y-106832
X149784Y-112166
X150165Y-86449
X150228Y-81305
X150228Y-98895
X151244Y-106197
X151371Y-109182
X151478Y-100800
X151816Y-88735
X152006Y-98323
X152832Y-83655
X153403Y-88798
X153721Y-74193
X154737Y-116865
X154737Y-121564
X154767Y-109134
X155245Y-74193
X156070Y-116611
X156070Y-123723
X156324Y-85560
X156769Y-74193
X157277Y-111785
X157277Y-118262
X157277Y-121564
X158229Y-83718
X158293Y-74193
X158547Y-113055
X158801Y-105181
X159055Y-96037
X159055Y-99212
X159055Y-103403
X159817Y-74193
X160071Y-105181
X160325Y-114833
X162357Y-88925
X163119Y-115087
X163119Y-118389
X163119Y-119913
X163119Y-121437
X163246Y-123723
X163881Y-87401
X164389Y-123723
X164770Y-118516
X165151Y-86131
X165151Y-104927
X165405Y-112420
X165405Y-124231
X165786Y-88925
X165913Y-114325
X166421Y-116357
X166675Y-84607
X166929Y-104419
X167056Y-124231
X167183Y-105943
X167691Y-96037
X168199Y-113563
X168326Y-118516
X168453Y-104419
X168453Y-120167
X168707Y-105943
X168961Y-121437
X168961Y-122961
X169215Y-83083
X169977Y-104419
X170104Y-108483
X170358Y-83083
X170485Y-107086
X170485Y-114325
X170866Y-88989
X170993Y-115849
X171120Y-104419
X171247Y-108610
X171374Y-83083
X172009Y-107086
X172009Y-115087
X172009Y-121945
X172009Y-123977
X172263Y-116865
X172263Y-118389
X172263Y-120167
X172390Y-104419
X172517Y-108610
X172644Y-83083
X173533Y-108229
X173787Y-104292
X173787Y-116103
X174295Y-105689
X175057Y-106959
X175057Y-108229
X175311Y-116103
X175438Y-104292
X175565Y-105562
X175819Y-96037
X176263Y-88798
X176581Y-106959
X176581Y-108229
X176835Y-116103
X178105Y-106959
X178105Y-108229
X178359Y-116103
T5
X133147Y-128295
X135687Y-128295
X140259Y-76479
X140259Y-79019
X141529Y-73939
X141529Y-76479
X141529Y-79019
X141529Y-81559
X144069Y-73939
X144069Y-76479
X144069Y-79019
X144069Y-81559
X161722Y-78384
X161722Y-80924
X164262Y-78384
X164262Y-80924
X165532Y-74574
X165532Y-77114
X165532Y-79654
X165532Y-82194
X165532Y-84734
X168072Y-74574
X168072Y-77114
X168072Y-79654
X168072Y-82194
X168072Y-84734
T6
X113796Y-125151
X113796Y-130104
X118796Y-125151
X118796Y-130104
X135179Y-78099
X140179Y-78099
X145419Y-77399
X150419Y-77399
T7
X103268Y-92968
X103268Y-112268
X175768Y-92968
X175768Y-112268
T8
X103618Y-136463
X103618Y-143562
X103618Y-150662
X103618Y-157761
T3
G00X114218Y-125853
M15
G01X114218Y-126253
M16
G05
G00X118468Y-125853
M15
G01X118468Y-126253
M16
G05
G00X163915Y-128487
M15
G01X163915Y-128887
M16
G05
G00X168165Y-128487
M15
G01X168165Y-128887
M16
G05
T4
G00X115005Y-73175
M15
G01X114205Y-73175
M16
G05
G00X115005Y-81815
M15
G01X114205Y-81815
M16
G05
G00X119335Y-73175
M15
G01X118235Y-73175
M16
G05
G00X119335Y-81815
M15
G01X118235Y-81815
M16
G05
G00X141019Y-73019
M15
G01X141019Y-74119
M16
G05
G00X141019Y-77349
M15
G01X141019Y-78149
M16
G05
G00X149659Y-73019
M15
G01X149659Y-74119
M16
G05
G00X149659Y-77349
M15
G01X149659Y-78149
M16
G05
M30
