%TF.GenerationSoftware,KiCad,Pcbnew,8.0.3+1*%
%TF.CreationDate,2024-07-20T17:55:20+00:00*%
%TF.ProjectId,LION2CELL02,4c494f4e-3243-4454-9c4c-30322e6b6963,rev?*%
%TF.SameCoordinates,Original*%
%TF.FileFunction,Legend,Top*%
%TF.FilePolarity,Positive*%
%FSLAX46Y46*%
G04 Gerber Fmt 4.6, Leading zero omitted, Abs format (unit mm)*
G04 Created by KiCad (PCBNEW 8.0.3+1) date 2024-07-20 17:55:20*
%MOMM*%
%LPD*%
G01*
G04 APERTURE LIST*
%ADD10C,0.300000*%
%ADD11C,0.375000*%
%ADD12C,0.304800*%
%ADD13C,0.050000*%
%ADD14C,0.100000*%
%ADD15C,0.150000*%
%ADD16C,0.200000*%
%ADD17C,0.120000*%
%ADD18R,1.524000X1.524000*%
G04 APERTURE END LIST*
D10*
X73463400Y62059035D02*
X73530066Y62259035D01*
X73530066Y62259035D02*
X73530066Y62592368D01*
X73530066Y62592368D02*
X73463400Y62725702D01*
X73463400Y62725702D02*
X73396733Y62792368D01*
X73396733Y62792368D02*
X73263400Y62859035D01*
X73263400Y62859035D02*
X73130066Y62859035D01*
X73130066Y62859035D02*
X72996733Y62792368D01*
X72996733Y62792368D02*
X72930066Y62725702D01*
X72930066Y62725702D02*
X72863400Y62592368D01*
X72863400Y62592368D02*
X72796733Y62325702D01*
X72796733Y62325702D02*
X72730066Y62192368D01*
X72730066Y62192368D02*
X72663400Y62125702D01*
X72663400Y62125702D02*
X72530066Y62059035D01*
X72530066Y62059035D02*
X72396733Y62059035D01*
X72396733Y62059035D02*
X72263400Y62125702D01*
X72263400Y62125702D02*
X72196733Y62192368D01*
X72196733Y62192368D02*
X72130066Y62325702D01*
X72130066Y62325702D02*
X72130066Y62659035D01*
X72130066Y62659035D02*
X72196733Y62859035D01*
X73396733Y64259035D02*
X73463400Y64192368D01*
X73463400Y64192368D02*
X73530066Y63992368D01*
X73530066Y63992368D02*
X73530066Y63859035D01*
X73530066Y63859035D02*
X73463400Y63659035D01*
X73463400Y63659035D02*
X73330066Y63525701D01*
X73330066Y63525701D02*
X73196733Y63459035D01*
X73196733Y63459035D02*
X72930066Y63392368D01*
X72930066Y63392368D02*
X72730066Y63392368D01*
X72730066Y63392368D02*
X72463400Y63459035D01*
X72463400Y63459035D02*
X72330066Y63525701D01*
X72330066Y63525701D02*
X72196733Y63659035D01*
X72196733Y63659035D02*
X72130066Y63859035D01*
X72130066Y63859035D02*
X72130066Y63992368D01*
X72130066Y63992368D02*
X72196733Y64192368D01*
X72196733Y64192368D02*
X72263400Y64259035D01*
X73530066Y65525701D02*
X73530066Y64859035D01*
X73530066Y64859035D02*
X72130066Y64859035D01*
D11*
X17249685Y44732630D02*
X17178257Y44804058D01*
X17178257Y44804058D02*
X17106828Y44946915D01*
X17106828Y44946915D02*
X17106828Y45304058D01*
X17106828Y45304058D02*
X17178257Y45446915D01*
X17178257Y45446915D02*
X17249685Y45518344D01*
X17249685Y45518344D02*
X17392542Y45589773D01*
X17392542Y45589773D02*
X17535400Y45589773D01*
X17535400Y45589773D02*
X17749685Y45518344D01*
X17749685Y45518344D02*
X18606828Y44661201D01*
X18606828Y44661201D02*
X18606828Y45589773D01*
D10*
X68446900Y61904035D02*
X68513566Y62104035D01*
X68513566Y62104035D02*
X68513566Y62437368D01*
X68513566Y62437368D02*
X68446900Y62570702D01*
X68446900Y62570702D02*
X68380233Y62637368D01*
X68380233Y62637368D02*
X68246900Y62704035D01*
X68246900Y62704035D02*
X68113566Y62704035D01*
X68113566Y62704035D02*
X67980233Y62637368D01*
X67980233Y62637368D02*
X67913566Y62570702D01*
X67913566Y62570702D02*
X67846900Y62437368D01*
X67846900Y62437368D02*
X67780233Y62170702D01*
X67780233Y62170702D02*
X67713566Y62037368D01*
X67713566Y62037368D02*
X67646900Y61970702D01*
X67646900Y61970702D02*
X67513566Y61904035D01*
X67513566Y61904035D02*
X67380233Y61904035D01*
X67380233Y61904035D02*
X67246900Y61970702D01*
X67246900Y61970702D02*
X67180233Y62037368D01*
X67180233Y62037368D02*
X67113566Y62170702D01*
X67113566Y62170702D02*
X67113566Y62504035D01*
X67113566Y62504035D02*
X67180233Y62704035D01*
X68513566Y63304035D02*
X67113566Y63304035D01*
X67113566Y63304035D02*
X67113566Y63637368D01*
X67113566Y63637368D02*
X67180233Y63837368D01*
X67180233Y63837368D02*
X67313566Y63970701D01*
X67313566Y63970701D02*
X67446900Y64037368D01*
X67446900Y64037368D02*
X67713566Y64104035D01*
X67713566Y64104035D02*
X67913566Y64104035D01*
X67913566Y64104035D02*
X68180233Y64037368D01*
X68180233Y64037368D02*
X68313566Y63970701D01*
X68313566Y63970701D02*
X68446900Y63837368D01*
X68446900Y63837368D02*
X68513566Y63637368D01*
X68513566Y63637368D02*
X68513566Y63304035D01*
X68113566Y64637368D02*
X68113566Y65304035D01*
X68513566Y64504035D02*
X67113566Y64970701D01*
X67113566Y64970701D02*
X68513566Y65437368D01*
D11*
X18530628Y26336573D02*
X18530628Y25479430D01*
X18530628Y25908001D02*
X17030628Y25908001D01*
X17030628Y25908001D02*
X17244914Y25765144D01*
X17244914Y25765144D02*
X17387771Y25622287D01*
X17387771Y25622287D02*
X17459200Y25479430D01*
D10*
X34397927Y13263672D02*
X34397927Y14763672D01*
X34397927Y14763672D02*
X34969356Y14763672D01*
X34969356Y14763672D02*
X35112213Y14692243D01*
X35112213Y14692243D02*
X35183642Y14620815D01*
X35183642Y14620815D02*
X35255070Y14477958D01*
X35255070Y14477958D02*
X35255070Y14263672D01*
X35255070Y14263672D02*
X35183642Y14120815D01*
X35183642Y14120815D02*
X35112213Y14049386D01*
X35112213Y14049386D02*
X34969356Y13977958D01*
X34969356Y13977958D02*
X34397927Y13977958D01*
X36183642Y14763672D02*
X36469356Y14763672D01*
X36469356Y14763672D02*
X36612213Y14692243D01*
X36612213Y14692243D02*
X36755070Y14549386D01*
X36755070Y14549386D02*
X36826499Y14263672D01*
X36826499Y14263672D02*
X36826499Y13763672D01*
X36826499Y13763672D02*
X36755070Y13477958D01*
X36755070Y13477958D02*
X36612213Y13335100D01*
X36612213Y13335100D02*
X36469356Y13263672D01*
X36469356Y13263672D02*
X36183642Y13263672D01*
X36183642Y13263672D02*
X36040785Y13335100D01*
X36040785Y13335100D02*
X35897927Y13477958D01*
X35897927Y13477958D02*
X35826499Y13763672D01*
X35826499Y13763672D02*
X35826499Y14263672D01*
X35826499Y14263672D02*
X35897927Y14549386D01*
X35897927Y14549386D02*
X36040785Y14692243D01*
X36040785Y14692243D02*
X36183642Y14763672D01*
X37326499Y14763672D02*
X37683642Y13263672D01*
X37683642Y13263672D02*
X37969356Y14335100D01*
X37969356Y14335100D02*
X38255071Y13263672D01*
X38255071Y13263672D02*
X38612214Y14763672D01*
X39183642Y14049386D02*
X39683642Y14049386D01*
X39897928Y13263672D02*
X39183642Y13263672D01*
X39183642Y13263672D02*
X39183642Y14763672D01*
X39183642Y14763672D02*
X39897928Y14763672D01*
X41397928Y13263672D02*
X40897928Y13977958D01*
X40540785Y13263672D02*
X40540785Y14763672D01*
X40540785Y14763672D02*
X41112214Y14763672D01*
X41112214Y14763672D02*
X41255071Y14692243D01*
X41255071Y14692243D02*
X41326500Y14620815D01*
X41326500Y14620815D02*
X41397928Y14477958D01*
X41397928Y14477958D02*
X41397928Y14263672D01*
X41397928Y14263672D02*
X41326500Y14120815D01*
X41326500Y14120815D02*
X41255071Y14049386D01*
X41255071Y14049386D02*
X41112214Y13977958D01*
X41112214Y13977958D02*
X40540785Y13977958D01*
X43469357Y14763672D02*
X43755071Y14763672D01*
X43755071Y14763672D02*
X43897928Y14692243D01*
X43897928Y14692243D02*
X44040785Y14549386D01*
X44040785Y14549386D02*
X44112214Y14263672D01*
X44112214Y14263672D02*
X44112214Y13763672D01*
X44112214Y13763672D02*
X44040785Y13477958D01*
X44040785Y13477958D02*
X43897928Y13335100D01*
X43897928Y13335100D02*
X43755071Y13263672D01*
X43755071Y13263672D02*
X43469357Y13263672D01*
X43469357Y13263672D02*
X43326500Y13335100D01*
X43326500Y13335100D02*
X43183642Y13477958D01*
X43183642Y13477958D02*
X43112214Y13763672D01*
X43112214Y13763672D02*
X43112214Y14263672D01*
X43112214Y14263672D02*
X43183642Y14549386D01*
X43183642Y14549386D02*
X43326500Y14692243D01*
X43326500Y14692243D02*
X43469357Y14763672D01*
X44755071Y14763672D02*
X44755071Y13549386D01*
X44755071Y13549386D02*
X44826500Y13406529D01*
X44826500Y13406529D02*
X44897929Y13335100D01*
X44897929Y13335100D02*
X45040786Y13263672D01*
X45040786Y13263672D02*
X45326500Y13263672D01*
X45326500Y13263672D02*
X45469357Y13335100D01*
X45469357Y13335100D02*
X45540786Y13406529D01*
X45540786Y13406529D02*
X45612214Y13549386D01*
X45612214Y13549386D02*
X45612214Y14763672D01*
X46112215Y14763672D02*
X46969358Y14763672D01*
X46540786Y13263672D02*
X46540786Y14763672D01*
X30099071Y12946100D02*
X31241929Y12946100D01*
X30670500Y12374672D02*
X30670500Y13517529D01*
X8854642Y19740672D02*
X8854642Y21240672D01*
X8997500Y20312100D02*
X9426071Y19740672D01*
X9426071Y20740672D02*
X8854642Y20169243D01*
X10711786Y19740672D02*
X10711786Y20526386D01*
X10711786Y20526386D02*
X10640357Y20669243D01*
X10640357Y20669243D02*
X10497500Y20740672D01*
X10497500Y20740672D02*
X10211786Y20740672D01*
X10211786Y20740672D02*
X10068928Y20669243D01*
X10711786Y19812100D02*
X10568928Y19740672D01*
X10568928Y19740672D02*
X10211786Y19740672D01*
X10211786Y19740672D02*
X10068928Y19812100D01*
X10068928Y19812100D02*
X9997500Y19954958D01*
X9997500Y19954958D02*
X9997500Y20097815D01*
X9997500Y20097815D02*
X10068928Y20240672D01*
X10068928Y20240672D02*
X10211786Y20312100D01*
X10211786Y20312100D02*
X10568928Y20312100D01*
X10568928Y20312100D02*
X10711786Y20383529D01*
X11426071Y19740672D02*
X11426071Y21240672D01*
X11568929Y20312100D02*
X11997500Y19740672D01*
X11997500Y20740672D02*
X11426071Y20169243D01*
X12854643Y19740672D02*
X12711786Y19812100D01*
X12711786Y19812100D02*
X12640357Y19954958D01*
X12640357Y19954958D02*
X12640357Y21240672D01*
X13426071Y19740672D02*
X13426071Y20740672D01*
X13426071Y21240672D02*
X13354643Y21169243D01*
X13354643Y21169243D02*
X13426071Y21097815D01*
X13426071Y21097815D02*
X13497500Y21169243D01*
X13497500Y21169243D02*
X13426071Y21240672D01*
X13426071Y21240672D02*
X13426071Y21097815D01*
X14140357Y19740672D02*
X14140357Y21240672D01*
X14283215Y20312100D02*
X14711786Y19740672D01*
X14711786Y20740672D02*
X14140357Y20169243D01*
X33126828Y58416143D02*
X31626828Y58416143D01*
X31626828Y58416143D02*
X31626828Y58773286D01*
X31626828Y58773286D02*
X31698257Y58987572D01*
X31698257Y58987572D02*
X31841114Y59130429D01*
X31841114Y59130429D02*
X31983971Y59201858D01*
X31983971Y59201858D02*
X32269685Y59273286D01*
X32269685Y59273286D02*
X32483971Y59273286D01*
X32483971Y59273286D02*
X32769685Y59201858D01*
X32769685Y59201858D02*
X32912542Y59130429D01*
X32912542Y59130429D02*
X33055400Y58987572D01*
X33055400Y58987572D02*
X33126828Y58773286D01*
X33126828Y58773286D02*
X33126828Y58416143D01*
X31626828Y60201858D02*
X31626828Y60487572D01*
X31626828Y60487572D02*
X31698257Y60630429D01*
X31698257Y60630429D02*
X31841114Y60773286D01*
X31841114Y60773286D02*
X32126828Y60844715D01*
X32126828Y60844715D02*
X32626828Y60844715D01*
X32626828Y60844715D02*
X32912542Y60773286D01*
X32912542Y60773286D02*
X33055400Y60630429D01*
X33055400Y60630429D02*
X33126828Y60487572D01*
X33126828Y60487572D02*
X33126828Y60201858D01*
X33126828Y60201858D02*
X33055400Y60059000D01*
X33055400Y60059000D02*
X32912542Y59916143D01*
X32912542Y59916143D02*
X32626828Y59844715D01*
X32626828Y59844715D02*
X32126828Y59844715D01*
X32126828Y59844715D02*
X31841114Y59916143D01*
X31841114Y59916143D02*
X31698257Y60059000D01*
X31698257Y60059000D02*
X31626828Y60201858D01*
X33126828Y61487572D02*
X31626828Y61487572D01*
X31626828Y61487572D02*
X33126828Y62344715D01*
X33126828Y62344715D02*
X31626828Y62344715D01*
X32341114Y63059001D02*
X32341114Y63559001D01*
X33126828Y63773287D02*
X33126828Y63059001D01*
X33126828Y63059001D02*
X31626828Y63059001D01*
X31626828Y63059001D02*
X31626828Y63773287D01*
X27169400Y54083200D02*
X26969400Y54149867D01*
X26969400Y54149867D02*
X26636067Y54149867D01*
X26636067Y54149867D02*
X26502733Y54083200D01*
X26502733Y54083200D02*
X26436067Y54016534D01*
X26436067Y54016534D02*
X26369400Y53883200D01*
X26369400Y53883200D02*
X26369400Y53749867D01*
X26369400Y53749867D02*
X26436067Y53616534D01*
X26436067Y53616534D02*
X26502733Y53549867D01*
X26502733Y53549867D02*
X26636067Y53483200D01*
X26636067Y53483200D02*
X26902733Y53416534D01*
X26902733Y53416534D02*
X27036067Y53349867D01*
X27036067Y53349867D02*
X27102733Y53283200D01*
X27102733Y53283200D02*
X27169400Y53149867D01*
X27169400Y53149867D02*
X27169400Y53016534D01*
X27169400Y53016534D02*
X27102733Y52883200D01*
X27102733Y52883200D02*
X27036067Y52816534D01*
X27036067Y52816534D02*
X26902733Y52749867D01*
X26902733Y52749867D02*
X26569400Y52749867D01*
X26569400Y52749867D02*
X26369400Y52816534D01*
X25902734Y52749867D02*
X25569400Y54149867D01*
X25569400Y54149867D02*
X25302734Y53149867D01*
X25302734Y53149867D02*
X25036067Y54149867D01*
X25036067Y54149867D02*
X24702734Y52749867D01*
X23102733Y54149867D02*
X23102733Y52749867D01*
X23102733Y52749867D02*
X22569400Y52749867D01*
X22569400Y52749867D02*
X22436067Y52816534D01*
X22436067Y52816534D02*
X22369400Y52883200D01*
X22369400Y52883200D02*
X22302733Y53016534D01*
X22302733Y53016534D02*
X22302733Y53216534D01*
X22302733Y53216534D02*
X22369400Y53349867D01*
X22369400Y53349867D02*
X22436067Y53416534D01*
X22436067Y53416534D02*
X22569400Y53483200D01*
X22569400Y53483200D02*
X23102733Y53483200D01*
X21436067Y52749867D02*
X21169400Y52749867D01*
X21169400Y52749867D02*
X21036067Y52816534D01*
X21036067Y52816534D02*
X20902733Y52949867D01*
X20902733Y52949867D02*
X20836067Y53216534D01*
X20836067Y53216534D02*
X20836067Y53683200D01*
X20836067Y53683200D02*
X20902733Y53949867D01*
X20902733Y53949867D02*
X21036067Y54083200D01*
X21036067Y54083200D02*
X21169400Y54149867D01*
X21169400Y54149867D02*
X21436067Y54149867D01*
X21436067Y54149867D02*
X21569400Y54083200D01*
X21569400Y54083200D02*
X21702733Y53949867D01*
X21702733Y53949867D02*
X21769400Y53683200D01*
X21769400Y53683200D02*
X21769400Y53216534D01*
X21769400Y53216534D02*
X21702733Y52949867D01*
X21702733Y52949867D02*
X21569400Y52816534D01*
X21569400Y52816534D02*
X21436067Y52749867D01*
X20369400Y52749867D02*
X20036066Y54149867D01*
X20036066Y54149867D02*
X19769400Y53149867D01*
X19769400Y53149867D02*
X19502733Y54149867D01*
X19502733Y54149867D02*
X19169400Y52749867D01*
X18636066Y53416534D02*
X18169400Y53416534D01*
X17969400Y54149867D02*
X18636066Y54149867D01*
X18636066Y54149867D02*
X18636066Y52749867D01*
X18636066Y52749867D02*
X17969400Y52749867D01*
X16569399Y54149867D02*
X17036066Y53483200D01*
X17369399Y54149867D02*
X17369399Y52749867D01*
X17369399Y52749867D02*
X16836066Y52749867D01*
X16836066Y52749867D02*
X16702733Y52816534D01*
X16702733Y52816534D02*
X16636066Y52883200D01*
X16636066Y52883200D02*
X16569399Y53016534D01*
X16569399Y53016534D02*
X16569399Y53216534D01*
X16569399Y53216534D02*
X16636066Y53349867D01*
X16636066Y53349867D02*
X16702733Y53416534D01*
X16702733Y53416534D02*
X16836066Y53483200D01*
X16836066Y53483200D02*
X17369399Y53483200D01*
X26800828Y60003429D02*
X26800828Y60289143D01*
X26800828Y60289143D02*
X26872257Y60432000D01*
X26872257Y60432000D02*
X27015114Y60574857D01*
X27015114Y60574857D02*
X27300828Y60646286D01*
X27300828Y60646286D02*
X27800828Y60646286D01*
X27800828Y60646286D02*
X28086542Y60574857D01*
X28086542Y60574857D02*
X28229400Y60432000D01*
X28229400Y60432000D02*
X28300828Y60289143D01*
X28300828Y60289143D02*
X28300828Y60003429D01*
X28300828Y60003429D02*
X28229400Y59860571D01*
X28229400Y59860571D02*
X28086542Y59717714D01*
X28086542Y59717714D02*
X27800828Y59646286D01*
X27800828Y59646286D02*
X27300828Y59646286D01*
X27300828Y59646286D02*
X27015114Y59717714D01*
X27015114Y59717714D02*
X26872257Y59860571D01*
X26872257Y59860571D02*
X26800828Y60003429D01*
X28300828Y61289143D02*
X26800828Y61289143D01*
X26800828Y61289143D02*
X28300828Y62146286D01*
X28300828Y62146286D02*
X26800828Y62146286D01*
X74800233Y62577035D02*
X74733566Y62443702D01*
X74733566Y62443702D02*
X74733566Y62243702D01*
X74733566Y62243702D02*
X74800233Y62043702D01*
X74800233Y62043702D02*
X74933566Y61910368D01*
X74933566Y61910368D02*
X75066900Y61843702D01*
X75066900Y61843702D02*
X75333566Y61777035D01*
X75333566Y61777035D02*
X75533566Y61777035D01*
X75533566Y61777035D02*
X75800233Y61843702D01*
X75800233Y61843702D02*
X75933566Y61910368D01*
X75933566Y61910368D02*
X76066900Y62043702D01*
X76066900Y62043702D02*
X76133566Y62243702D01*
X76133566Y62243702D02*
X76133566Y62377035D01*
X76133566Y62377035D02*
X76066900Y62577035D01*
X76066900Y62577035D02*
X76000233Y62643702D01*
X76000233Y62643702D02*
X75533566Y62643702D01*
X75533566Y62643702D02*
X75533566Y62377035D01*
X76133566Y63243702D02*
X74733566Y63243702D01*
X74733566Y63243702D02*
X76133566Y64043702D01*
X76133566Y64043702D02*
X74733566Y64043702D01*
X76133566Y64710369D02*
X74733566Y64710369D01*
X74733566Y64710369D02*
X74733566Y65043702D01*
X74733566Y65043702D02*
X74800233Y65243702D01*
X74800233Y65243702D02*
X74933566Y65377035D01*
X74933566Y65377035D02*
X75066900Y65443702D01*
X75066900Y65443702D02*
X75333566Y65510369D01*
X75333566Y65510369D02*
X75533566Y65510369D01*
X75533566Y65510369D02*
X75800233Y65443702D01*
X75800233Y65443702D02*
X75933566Y65377035D01*
X75933566Y65377035D02*
X76066900Y65243702D01*
X76066900Y65243702D02*
X76133566Y65043702D01*
X76133566Y65043702D02*
X76133566Y64710369D01*
X9176072Y18811815D02*
X9247500Y18883243D01*
X9247500Y18883243D02*
X9390358Y18954672D01*
X9390358Y18954672D02*
X9747500Y18954672D01*
X9747500Y18954672D02*
X9890358Y18883243D01*
X9890358Y18883243D02*
X9961786Y18811815D01*
X9961786Y18811815D02*
X10033215Y18668958D01*
X10033215Y18668958D02*
X10033215Y18526100D01*
X10033215Y18526100D02*
X9961786Y18311815D01*
X9961786Y18311815D02*
X9104643Y17454672D01*
X9104643Y17454672D02*
X10033215Y17454672D01*
X10961786Y18954672D02*
X11104643Y18954672D01*
X11104643Y18954672D02*
X11247500Y18883243D01*
X11247500Y18883243D02*
X11318929Y18811815D01*
X11318929Y18811815D02*
X11390357Y18668958D01*
X11390357Y18668958D02*
X11461786Y18383243D01*
X11461786Y18383243D02*
X11461786Y18026100D01*
X11461786Y18026100D02*
X11390357Y17740386D01*
X11390357Y17740386D02*
X11318929Y17597529D01*
X11318929Y17597529D02*
X11247500Y17526100D01*
X11247500Y17526100D02*
X11104643Y17454672D01*
X11104643Y17454672D02*
X10961786Y17454672D01*
X10961786Y17454672D02*
X10818929Y17526100D01*
X10818929Y17526100D02*
X10747500Y17597529D01*
X10747500Y17597529D02*
X10676071Y17740386D01*
X10676071Y17740386D02*
X10604643Y18026100D01*
X10604643Y18026100D02*
X10604643Y18383243D01*
X10604643Y18383243D02*
X10676071Y18668958D01*
X10676071Y18668958D02*
X10747500Y18811815D01*
X10747500Y18811815D02*
X10818929Y18883243D01*
X10818929Y18883243D02*
X10961786Y18954672D01*
X12033214Y18811815D02*
X12104642Y18883243D01*
X12104642Y18883243D02*
X12247500Y18954672D01*
X12247500Y18954672D02*
X12604642Y18954672D01*
X12604642Y18954672D02*
X12747500Y18883243D01*
X12747500Y18883243D02*
X12818928Y18811815D01*
X12818928Y18811815D02*
X12890357Y18668958D01*
X12890357Y18668958D02*
X12890357Y18526100D01*
X12890357Y18526100D02*
X12818928Y18311815D01*
X12818928Y18311815D02*
X11961785Y17454672D01*
X11961785Y17454672D02*
X12890357Y17454672D01*
X14176071Y18454672D02*
X14176071Y17454672D01*
X13818928Y19026100D02*
X13461785Y17954672D01*
X13461785Y17954672D02*
X14390356Y17954672D01*
X17427427Y16212672D02*
X17427427Y17712672D01*
X17427427Y17712672D02*
X17998856Y17712672D01*
X17998856Y17712672D02*
X18141713Y17641243D01*
X18141713Y17641243D02*
X18213142Y17569815D01*
X18213142Y17569815D02*
X18284570Y17426958D01*
X18284570Y17426958D02*
X18284570Y17212672D01*
X18284570Y17212672D02*
X18213142Y17069815D01*
X18213142Y17069815D02*
X18141713Y16998386D01*
X18141713Y16998386D02*
X17998856Y16926958D01*
X17998856Y16926958D02*
X17427427Y16926958D01*
X19213142Y17712672D02*
X19498856Y17712672D01*
X19498856Y17712672D02*
X19641713Y17641243D01*
X19641713Y17641243D02*
X19784570Y17498386D01*
X19784570Y17498386D02*
X19855999Y17212672D01*
X19855999Y17212672D02*
X19855999Y16712672D01*
X19855999Y16712672D02*
X19784570Y16426958D01*
X19784570Y16426958D02*
X19641713Y16284100D01*
X19641713Y16284100D02*
X19498856Y16212672D01*
X19498856Y16212672D02*
X19213142Y16212672D01*
X19213142Y16212672D02*
X19070285Y16284100D01*
X19070285Y16284100D02*
X18927427Y16426958D01*
X18927427Y16426958D02*
X18855999Y16712672D01*
X18855999Y16712672D02*
X18855999Y17212672D01*
X18855999Y17212672D02*
X18927427Y17498386D01*
X18927427Y17498386D02*
X19070285Y17641243D01*
X19070285Y17641243D02*
X19213142Y17712672D01*
X20355999Y17712672D02*
X20713142Y16212672D01*
X20713142Y16212672D02*
X20998856Y17284100D01*
X20998856Y17284100D02*
X21284571Y16212672D01*
X21284571Y16212672D02*
X21641714Y17712672D01*
X22213142Y16998386D02*
X22713142Y16998386D01*
X22927428Y16212672D02*
X22213142Y16212672D01*
X22213142Y16212672D02*
X22213142Y17712672D01*
X22213142Y17712672D02*
X22927428Y17712672D01*
X24427428Y16212672D02*
X23927428Y16926958D01*
X23570285Y16212672D02*
X23570285Y17712672D01*
X23570285Y17712672D02*
X24141714Y17712672D01*
X24141714Y17712672D02*
X24284571Y17641243D01*
X24284571Y17641243D02*
X24356000Y17569815D01*
X24356000Y17569815D02*
X24427428Y17426958D01*
X24427428Y17426958D02*
X24427428Y17212672D01*
X24427428Y17212672D02*
X24356000Y17069815D01*
X24356000Y17069815D02*
X24284571Y16998386D01*
X24284571Y16998386D02*
X24141714Y16926958D01*
X24141714Y16926958D02*
X23570285Y16926958D01*
X26213142Y16212672D02*
X26213142Y17712672D01*
X26927428Y16212672D02*
X26927428Y17712672D01*
X26927428Y17712672D02*
X27784571Y16212672D01*
X27784571Y16212672D02*
X27784571Y17712672D01*
X39894595Y37035362D02*
X39894595Y39035362D01*
X39894595Y39035362D02*
X40561262Y37606791D01*
X40561262Y37606791D02*
X41227928Y39035362D01*
X41227928Y39035362D02*
X41227928Y37035362D01*
X43132690Y37035362D02*
X42180309Y37035362D01*
X42180309Y37035362D02*
X42180309Y39035362D01*
X43704119Y37606791D02*
X44656500Y37606791D01*
X43513643Y37035362D02*
X44180309Y39035362D01*
X44180309Y39035362D02*
X44846976Y37035362D01*
X46180310Y38082981D02*
X46466024Y37987743D01*
X46466024Y37987743D02*
X46561262Y37892505D01*
X46561262Y37892505D02*
X46656500Y37702029D01*
X46656500Y37702029D02*
X46656500Y37416315D01*
X46656500Y37416315D02*
X46561262Y37225839D01*
X46561262Y37225839D02*
X46466024Y37130600D01*
X46466024Y37130600D02*
X46275548Y37035362D01*
X46275548Y37035362D02*
X45513643Y37035362D01*
X45513643Y37035362D02*
X45513643Y39035362D01*
X45513643Y39035362D02*
X46180310Y39035362D01*
X46180310Y39035362D02*
X46370786Y38940124D01*
X46370786Y38940124D02*
X46466024Y38844886D01*
X46466024Y38844886D02*
X46561262Y38654410D01*
X46561262Y38654410D02*
X46561262Y38463934D01*
X46561262Y38463934D02*
X46466024Y38273458D01*
X46466024Y38273458D02*
X46370786Y38178220D01*
X46370786Y38178220D02*
X46180310Y38082981D01*
X46180310Y38082981D02*
X45513643Y38082981D01*
X47513643Y37225839D02*
X47608881Y37130600D01*
X47608881Y37130600D02*
X47513643Y37035362D01*
X47513643Y37035362D02*
X47418405Y37130600D01*
X47418405Y37130600D02*
X47513643Y37225839D01*
X47513643Y37225839D02*
X47513643Y37035362D01*
X49608881Y37225839D02*
X49513643Y37130600D01*
X49513643Y37130600D02*
X49227929Y37035362D01*
X49227929Y37035362D02*
X49037453Y37035362D01*
X49037453Y37035362D02*
X48751738Y37130600D01*
X48751738Y37130600D02*
X48561262Y37321077D01*
X48561262Y37321077D02*
X48466024Y37511553D01*
X48466024Y37511553D02*
X48370786Y37892505D01*
X48370786Y37892505D02*
X48370786Y38178220D01*
X48370786Y38178220D02*
X48466024Y38559172D01*
X48466024Y38559172D02*
X48561262Y38749648D01*
X48561262Y38749648D02*
X48751738Y38940124D01*
X48751738Y38940124D02*
X49037453Y39035362D01*
X49037453Y39035362D02*
X49227929Y39035362D01*
X49227929Y39035362D02*
X49513643Y38940124D01*
X49513643Y38940124D02*
X49608881Y38844886D01*
X50275548Y39035362D02*
X51608881Y39035362D01*
X51608881Y39035362D02*
X50275548Y37035362D01*
X50275548Y37035362D02*
X51608881Y37035362D01*
X36466023Y32844362D02*
X35513642Y32844362D01*
X35513642Y32844362D02*
X35513642Y34844362D01*
X37132690Y32844362D02*
X37132690Y34844362D01*
X38466023Y34844362D02*
X38846976Y34844362D01*
X38846976Y34844362D02*
X39037452Y34749124D01*
X39037452Y34749124D02*
X39227928Y34558648D01*
X39227928Y34558648D02*
X39323166Y34177696D01*
X39323166Y34177696D02*
X39323166Y33511029D01*
X39323166Y33511029D02*
X39227928Y33130077D01*
X39227928Y33130077D02*
X39037452Y32939600D01*
X39037452Y32939600D02*
X38846976Y32844362D01*
X38846976Y32844362D02*
X38466023Y32844362D01*
X38466023Y32844362D02*
X38275547Y32939600D01*
X38275547Y32939600D02*
X38085071Y33130077D01*
X38085071Y33130077D02*
X37989833Y33511029D01*
X37989833Y33511029D02*
X37989833Y34177696D01*
X37989833Y34177696D02*
X38085071Y34558648D01*
X38085071Y34558648D02*
X38275547Y34749124D01*
X38275547Y34749124D02*
X38466023Y34844362D01*
X40180309Y32844362D02*
X40180309Y34844362D01*
X40180309Y34844362D02*
X41323166Y32844362D01*
X41323166Y32844362D02*
X41323166Y34844362D01*
X42180309Y34653886D02*
X42275547Y34749124D01*
X42275547Y34749124D02*
X42466023Y34844362D01*
X42466023Y34844362D02*
X42942214Y34844362D01*
X42942214Y34844362D02*
X43132690Y34749124D01*
X43132690Y34749124D02*
X43227928Y34653886D01*
X43227928Y34653886D02*
X43323166Y34463410D01*
X43323166Y34463410D02*
X43323166Y34272934D01*
X43323166Y34272934D02*
X43227928Y33987220D01*
X43227928Y33987220D02*
X42085071Y32844362D01*
X42085071Y32844362D02*
X43323166Y32844362D01*
X45323166Y33034839D02*
X45227928Y32939600D01*
X45227928Y32939600D02*
X44942214Y32844362D01*
X44942214Y32844362D02*
X44751738Y32844362D01*
X44751738Y32844362D02*
X44466023Y32939600D01*
X44466023Y32939600D02*
X44275547Y33130077D01*
X44275547Y33130077D02*
X44180309Y33320553D01*
X44180309Y33320553D02*
X44085071Y33701505D01*
X44085071Y33701505D02*
X44085071Y33987220D01*
X44085071Y33987220D02*
X44180309Y34368172D01*
X44180309Y34368172D02*
X44275547Y34558648D01*
X44275547Y34558648D02*
X44466023Y34749124D01*
X44466023Y34749124D02*
X44751738Y34844362D01*
X44751738Y34844362D02*
X44942214Y34844362D01*
X44942214Y34844362D02*
X45227928Y34749124D01*
X45227928Y34749124D02*
X45323166Y34653886D01*
X46180309Y33891981D02*
X46846976Y33891981D01*
X47132690Y32844362D02*
X46180309Y32844362D01*
X46180309Y32844362D02*
X46180309Y34844362D01*
X46180309Y34844362D02*
X47132690Y34844362D01*
X48942214Y32844362D02*
X47989833Y32844362D01*
X47989833Y32844362D02*
X47989833Y34844362D01*
X50561262Y32844362D02*
X49608881Y32844362D01*
X49608881Y32844362D02*
X49608881Y34844362D01*
X51608881Y34844362D02*
X51799358Y34844362D01*
X51799358Y34844362D02*
X51989834Y34749124D01*
X51989834Y34749124D02*
X52085072Y34653886D01*
X52085072Y34653886D02*
X52180310Y34463410D01*
X52180310Y34463410D02*
X52275548Y34082458D01*
X52275548Y34082458D02*
X52275548Y33606267D01*
X52275548Y33606267D02*
X52180310Y33225315D01*
X52180310Y33225315D02*
X52085072Y33034839D01*
X52085072Y33034839D02*
X51989834Y32939600D01*
X51989834Y32939600D02*
X51799358Y32844362D01*
X51799358Y32844362D02*
X51608881Y32844362D01*
X51608881Y32844362D02*
X51418405Y32939600D01*
X51418405Y32939600D02*
X51323167Y33034839D01*
X51323167Y33034839D02*
X51227929Y33225315D01*
X51227929Y33225315D02*
X51132691Y33606267D01*
X51132691Y33606267D02*
X51132691Y34082458D01*
X51132691Y34082458D02*
X51227929Y34463410D01*
X51227929Y34463410D02*
X51323167Y34653886D01*
X51323167Y34653886D02*
X51418405Y34749124D01*
X51418405Y34749124D02*
X51608881Y34844362D01*
X53037453Y34653886D02*
X53132691Y34749124D01*
X53132691Y34749124D02*
X53323167Y34844362D01*
X53323167Y34844362D02*
X53799358Y34844362D01*
X53799358Y34844362D02*
X53989834Y34749124D01*
X53989834Y34749124D02*
X54085072Y34653886D01*
X54085072Y34653886D02*
X54180310Y34463410D01*
X54180310Y34463410D02*
X54180310Y34272934D01*
X54180310Y34272934D02*
X54085072Y33987220D01*
X54085072Y33987220D02*
X52942215Y32844362D01*
X52942215Y32844362D02*
X54180310Y32844362D01*
X54942215Y33415791D02*
X55894596Y33415791D01*
X54751739Y32844362D02*
X55418405Y34844362D01*
X55418405Y34844362D02*
X56085072Y32844362D01*
X37936971Y57789143D02*
X38008400Y57717715D01*
X38008400Y57717715D02*
X38079828Y57503429D01*
X38079828Y57503429D02*
X38079828Y57360572D01*
X38079828Y57360572D02*
X38008400Y57146286D01*
X38008400Y57146286D02*
X37865542Y57003429D01*
X37865542Y57003429D02*
X37722685Y56932000D01*
X37722685Y56932000D02*
X37436971Y56860572D01*
X37436971Y56860572D02*
X37222685Y56860572D01*
X37222685Y56860572D02*
X36936971Y56932000D01*
X36936971Y56932000D02*
X36794114Y57003429D01*
X36794114Y57003429D02*
X36651257Y57146286D01*
X36651257Y57146286D02*
X36579828Y57360572D01*
X36579828Y57360572D02*
X36579828Y57503429D01*
X36579828Y57503429D02*
X36651257Y57717715D01*
X36651257Y57717715D02*
X36722685Y57789143D01*
X38079828Y58432000D02*
X36579828Y58432000D01*
X37294114Y58432000D02*
X37294114Y59289143D01*
X38079828Y59289143D02*
X36579828Y59289143D01*
X37651257Y59932001D02*
X37651257Y60646286D01*
X38079828Y59789144D02*
X36579828Y60289144D01*
X36579828Y60289144D02*
X38079828Y60789144D01*
X38079828Y62146286D02*
X37365542Y61646286D01*
X38079828Y61289143D02*
X36579828Y61289143D01*
X36579828Y61289143D02*
X36579828Y61860572D01*
X36579828Y61860572D02*
X36651257Y62003429D01*
X36651257Y62003429D02*
X36722685Y62074858D01*
X36722685Y62074858D02*
X36865542Y62146286D01*
X36865542Y62146286D02*
X37079828Y62146286D01*
X37079828Y62146286D02*
X37222685Y62074858D01*
X37222685Y62074858D02*
X37294114Y62003429D01*
X37294114Y62003429D02*
X37365542Y61860572D01*
X37365542Y61860572D02*
X37365542Y61289143D01*
X36651257Y63574858D02*
X36579828Y63432000D01*
X36579828Y63432000D02*
X36579828Y63217715D01*
X36579828Y63217715D02*
X36651257Y63003429D01*
X36651257Y63003429D02*
X36794114Y62860572D01*
X36794114Y62860572D02*
X36936971Y62789143D01*
X36936971Y62789143D02*
X37222685Y62717715D01*
X37222685Y62717715D02*
X37436971Y62717715D01*
X37436971Y62717715D02*
X37722685Y62789143D01*
X37722685Y62789143D02*
X37865542Y62860572D01*
X37865542Y62860572D02*
X38008400Y63003429D01*
X38008400Y63003429D02*
X38079828Y63217715D01*
X38079828Y63217715D02*
X38079828Y63360572D01*
X38079828Y63360572D02*
X38008400Y63574858D01*
X38008400Y63574858D02*
X37936971Y63646286D01*
X37936971Y63646286D02*
X37436971Y63646286D01*
X37436971Y63646286D02*
X37436971Y63360572D01*
X37294114Y64289143D02*
X37294114Y64789143D01*
X38079828Y65003429D02*
X38079828Y64289143D01*
X38079828Y64289143D02*
X36579828Y64289143D01*
X36579828Y64289143D02*
X36579828Y65003429D01*
X48618215Y14001672D02*
X48761072Y14001672D01*
X48761072Y14001672D02*
X48903929Y13930243D01*
X48903929Y13930243D02*
X48975358Y13858815D01*
X48975358Y13858815D02*
X49046786Y13715958D01*
X49046786Y13715958D02*
X49118215Y13430243D01*
X49118215Y13430243D02*
X49118215Y13073100D01*
X49118215Y13073100D02*
X49046786Y12787386D01*
X49046786Y12787386D02*
X48975358Y12644529D01*
X48975358Y12644529D02*
X48903929Y12573100D01*
X48903929Y12573100D02*
X48761072Y12501672D01*
X48761072Y12501672D02*
X48618215Y12501672D01*
X48618215Y12501672D02*
X48475358Y12573100D01*
X48475358Y12573100D02*
X48403929Y12644529D01*
X48403929Y12644529D02*
X48332500Y12787386D01*
X48332500Y12787386D02*
X48261072Y13073100D01*
X48261072Y13073100D02*
X48261072Y13430243D01*
X48261072Y13430243D02*
X48332500Y13715958D01*
X48332500Y13715958D02*
X48403929Y13858815D01*
X48403929Y13858815D02*
X48475358Y13930243D01*
X48475358Y13930243D02*
X48618215Y14001672D01*
X49689643Y12501672D02*
X50832500Y14001672D01*
X49903929Y14001672D02*
X50046786Y13930243D01*
X50046786Y13930243D02*
X50118214Y13787386D01*
X50118214Y13787386D02*
X50046786Y13644529D01*
X50046786Y13644529D02*
X49903929Y13573100D01*
X49903929Y13573100D02*
X49761071Y13644529D01*
X49761071Y13644529D02*
X49689643Y13787386D01*
X49689643Y13787386D02*
X49761071Y13930243D01*
X49761071Y13930243D02*
X49903929Y14001672D01*
X50761071Y12573100D02*
X50832500Y12715958D01*
X50832500Y12715958D02*
X50761071Y12858815D01*
X50761071Y12858815D02*
X50618214Y12930243D01*
X50618214Y12930243D02*
X50475357Y12858815D01*
X50475357Y12858815D02*
X50403929Y12715958D01*
X50403929Y12715958D02*
X50475357Y12573100D01*
X50475357Y12573100D02*
X50618214Y12501672D01*
X50618214Y12501672D02*
X50761071Y12573100D01*
X52618214Y13073100D02*
X53761072Y13073100D01*
X54475357Y13073100D02*
X55618215Y13073100D01*
X56332500Y13073100D02*
X57475358Y13073100D01*
X58189643Y13073100D02*
X59332501Y13073100D01*
X60832501Y12501672D02*
X59975358Y12501672D01*
X60403929Y12501672D02*
X60403929Y14001672D01*
X60403929Y14001672D02*
X60261072Y13787386D01*
X60261072Y13787386D02*
X60118215Y13644529D01*
X60118215Y13644529D02*
X59975358Y13573100D01*
X61761072Y14001672D02*
X61903929Y14001672D01*
X61903929Y14001672D02*
X62046786Y13930243D01*
X62046786Y13930243D02*
X62118215Y13858815D01*
X62118215Y13858815D02*
X62189643Y13715958D01*
X62189643Y13715958D02*
X62261072Y13430243D01*
X62261072Y13430243D02*
X62261072Y13073100D01*
X62261072Y13073100D02*
X62189643Y12787386D01*
X62189643Y12787386D02*
X62118215Y12644529D01*
X62118215Y12644529D02*
X62046786Y12573100D01*
X62046786Y12573100D02*
X61903929Y12501672D01*
X61903929Y12501672D02*
X61761072Y12501672D01*
X61761072Y12501672D02*
X61618215Y12573100D01*
X61618215Y12573100D02*
X61546786Y12644529D01*
X61546786Y12644529D02*
X61475357Y12787386D01*
X61475357Y12787386D02*
X61403929Y13073100D01*
X61403929Y13073100D02*
X61403929Y13430243D01*
X61403929Y13430243D02*
X61475357Y13715958D01*
X61475357Y13715958D02*
X61546786Y13858815D01*
X61546786Y13858815D02*
X61618215Y13930243D01*
X61618215Y13930243D02*
X61761072Y14001672D01*
X63189643Y14001672D02*
X63332500Y14001672D01*
X63332500Y14001672D02*
X63475357Y13930243D01*
X63475357Y13930243D02*
X63546786Y13858815D01*
X63546786Y13858815D02*
X63618214Y13715958D01*
X63618214Y13715958D02*
X63689643Y13430243D01*
X63689643Y13430243D02*
X63689643Y13073100D01*
X63689643Y13073100D02*
X63618214Y12787386D01*
X63618214Y12787386D02*
X63546786Y12644529D01*
X63546786Y12644529D02*
X63475357Y12573100D01*
X63475357Y12573100D02*
X63332500Y12501672D01*
X63332500Y12501672D02*
X63189643Y12501672D01*
X63189643Y12501672D02*
X63046786Y12573100D01*
X63046786Y12573100D02*
X62975357Y12644529D01*
X62975357Y12644529D02*
X62903928Y12787386D01*
X62903928Y12787386D02*
X62832500Y13073100D01*
X62832500Y13073100D02*
X62832500Y13430243D01*
X62832500Y13430243D02*
X62903928Y13715958D01*
X62903928Y13715958D02*
X62975357Y13858815D01*
X62975357Y13858815D02*
X63046786Y13930243D01*
X63046786Y13930243D02*
X63189643Y14001672D01*
X64261071Y12501672D02*
X65403928Y14001672D01*
X64475357Y14001672D02*
X64618214Y13930243D01*
X64618214Y13930243D02*
X64689642Y13787386D01*
X64689642Y13787386D02*
X64618214Y13644529D01*
X64618214Y13644529D02*
X64475357Y13573100D01*
X64475357Y13573100D02*
X64332499Y13644529D01*
X64332499Y13644529D02*
X64261071Y13787386D01*
X64261071Y13787386D02*
X64332499Y13930243D01*
X64332499Y13930243D02*
X64475357Y14001672D01*
X65332499Y12573100D02*
X65403928Y12715958D01*
X65403928Y12715958D02*
X65332499Y12858815D01*
X65332499Y12858815D02*
X65189642Y12930243D01*
X65189642Y12930243D02*
X65046785Y12858815D01*
X65046785Y12858815D02*
X64975357Y12715958D01*
X64975357Y12715958D02*
X65046785Y12573100D01*
X65046785Y12573100D02*
X65189642Y12501672D01*
X65189642Y12501672D02*
X65332499Y12573100D01*
D12*
X26673382Y57658000D02*
X27761953Y57658000D01*
X27761953Y57658000D02*
X27979668Y57585429D01*
X27979668Y57585429D02*
X28124811Y57440286D01*
X28124811Y57440286D02*
X28197382Y57222572D01*
X28197382Y57222572D02*
X28197382Y57077429D01*
X26818525Y58311143D02*
X26745953Y58383715D01*
X26745953Y58383715D02*
X26673382Y58528857D01*
X26673382Y58528857D02*
X26673382Y58891715D01*
X26673382Y58891715D02*
X26745953Y59036857D01*
X26745953Y59036857D02*
X26818525Y59109429D01*
X26818525Y59109429D02*
X26963668Y59182000D01*
X26963668Y59182000D02*
X27108811Y59182000D01*
X27108811Y59182000D02*
X27326525Y59109429D01*
X27326525Y59109429D02*
X28197382Y58238572D01*
X28197382Y58238572D02*
X28197382Y59182000D01*
X26673381Y62661800D02*
X27761952Y62661800D01*
X27761952Y62661800D02*
X27979667Y62589229D01*
X27979667Y62589229D02*
X28124810Y62444086D01*
X28124810Y62444086D02*
X28197381Y62226372D01*
X28197381Y62226372D02*
X28197381Y62081229D01*
X26673381Y63242372D02*
X26673381Y64185800D01*
X26673381Y64185800D02*
X27253952Y63677800D01*
X27253952Y63677800D02*
X27253952Y63895515D01*
X27253952Y63895515D02*
X27326524Y64040657D01*
X27326524Y64040657D02*
X27399095Y64113229D01*
X27399095Y64113229D02*
X27544238Y64185800D01*
X27544238Y64185800D02*
X27907095Y64185800D01*
X27907095Y64185800D02*
X28052238Y64113229D01*
X28052238Y64113229D02*
X28124810Y64040657D01*
X28124810Y64040657D02*
X28197381Y63895515D01*
X28197381Y63895515D02*
X28197381Y63460086D01*
X28197381Y63460086D02*
X28124810Y63314943D01*
X28124810Y63314943D02*
X28052238Y63242372D01*
D13*
X74650709Y13604858D02*
X74650709Y13319144D01*
X74650709Y13462001D02*
X74150709Y13462001D01*
X74150709Y13462001D02*
X74222138Y13414382D01*
X74222138Y13414382D02*
X74269757Y13366763D01*
X74269757Y13366763D02*
X74293566Y13319144D01*
D12*
X15738681Y7465000D02*
X16827252Y7465000D01*
X16827252Y7465000D02*
X17044967Y7392429D01*
X17044967Y7392429D02*
X17190110Y7247286D01*
X17190110Y7247286D02*
X17262681Y7029572D01*
X17262681Y7029572D02*
X17262681Y6884429D01*
X17262681Y8263286D02*
X17262681Y8553572D01*
X17262681Y8553572D02*
X17190110Y8698715D01*
X17190110Y8698715D02*
X17117538Y8771286D01*
X17117538Y8771286D02*
X16899824Y8916429D01*
X16899824Y8916429D02*
X16609538Y8989000D01*
X16609538Y8989000D02*
X16028967Y8989000D01*
X16028967Y8989000D02*
X15883824Y8916429D01*
X15883824Y8916429D02*
X15811252Y8843857D01*
X15811252Y8843857D02*
X15738681Y8698715D01*
X15738681Y8698715D02*
X15738681Y8408429D01*
X15738681Y8408429D02*
X15811252Y8263286D01*
X15811252Y8263286D02*
X15883824Y8190715D01*
X15883824Y8190715D02*
X16028967Y8118143D01*
X16028967Y8118143D02*
X16391824Y8118143D01*
X16391824Y8118143D02*
X16536967Y8190715D01*
X16536967Y8190715D02*
X16609538Y8263286D01*
X16609538Y8263286D02*
X16682110Y8408429D01*
X16682110Y8408429D02*
X16682110Y8698715D01*
X16682110Y8698715D02*
X16609538Y8843857D01*
X16609538Y8843857D02*
X16536967Y8916429D01*
X16536967Y8916429D02*
X16391824Y8989000D01*
X15738681Y12418000D02*
X16827252Y12418000D01*
X16827252Y12418000D02*
X17044967Y12345429D01*
X17044967Y12345429D02*
X17190110Y12200286D01*
X17190110Y12200286D02*
X17262681Y11982572D01*
X17262681Y11982572D02*
X17262681Y11837429D01*
X16391824Y13361429D02*
X16319252Y13216286D01*
X16319252Y13216286D02*
X16246681Y13143715D01*
X16246681Y13143715D02*
X16101538Y13071143D01*
X16101538Y13071143D02*
X16028967Y13071143D01*
X16028967Y13071143D02*
X15883824Y13143715D01*
X15883824Y13143715D02*
X15811252Y13216286D01*
X15811252Y13216286D02*
X15738681Y13361429D01*
X15738681Y13361429D02*
X15738681Y13651715D01*
X15738681Y13651715D02*
X15811252Y13796857D01*
X15811252Y13796857D02*
X15883824Y13869429D01*
X15883824Y13869429D02*
X16028967Y13942000D01*
X16028967Y13942000D02*
X16101538Y13942000D01*
X16101538Y13942000D02*
X16246681Y13869429D01*
X16246681Y13869429D02*
X16319252Y13796857D01*
X16319252Y13796857D02*
X16391824Y13651715D01*
X16391824Y13651715D02*
X16391824Y13361429D01*
X16391824Y13361429D02*
X16464395Y13216286D01*
X16464395Y13216286D02*
X16536967Y13143715D01*
X16536967Y13143715D02*
X16682110Y13071143D01*
X16682110Y13071143D02*
X16972395Y13071143D01*
X16972395Y13071143D02*
X17117538Y13143715D01*
X17117538Y13143715D02*
X17190110Y13216286D01*
X17190110Y13216286D02*
X17262681Y13361429D01*
X17262681Y13361429D02*
X17262681Y13651715D01*
X17262681Y13651715D02*
X17190110Y13796857D01*
X17190110Y13796857D02*
X17117538Y13869429D01*
X17117538Y13869429D02*
X16972395Y13942000D01*
X16972395Y13942000D02*
X16682110Y13942000D01*
X16682110Y13942000D02*
X16536967Y13869429D01*
X16536967Y13869429D02*
X16464395Y13796857D01*
X16464395Y13796857D02*
X16391824Y13651715D01*
D14*
X63251100Y-3468532D02*
X63213004Y-3582818D01*
X63213004Y-3582818D02*
X63213004Y-3773294D01*
X63213004Y-3773294D02*
X63251100Y-3849485D01*
X63251100Y-3849485D02*
X63289195Y-3887580D01*
X63289195Y-3887580D02*
X63365385Y-3925675D01*
X63365385Y-3925675D02*
X63441576Y-3925675D01*
X63441576Y-3925675D02*
X63517766Y-3887580D01*
X63517766Y-3887580D02*
X63555861Y-3849485D01*
X63555861Y-3849485D02*
X63593957Y-3773294D01*
X63593957Y-3773294D02*
X63632052Y-3620913D01*
X63632052Y-3620913D02*
X63670147Y-3544723D01*
X63670147Y-3544723D02*
X63708242Y-3506628D01*
X63708242Y-3506628D02*
X63784433Y-3468532D01*
X63784433Y-3468532D02*
X63860623Y-3468532D01*
X63860623Y-3468532D02*
X63936814Y-3506628D01*
X63936814Y-3506628D02*
X63974909Y-3544723D01*
X63974909Y-3544723D02*
X64013004Y-3620913D01*
X64013004Y-3620913D02*
X64013004Y-3811390D01*
X64013004Y-3811390D02*
X63974909Y-3925675D01*
X64013004Y-4192342D02*
X63213004Y-4382818D01*
X63213004Y-4382818D02*
X63784433Y-4535199D01*
X63784433Y-4535199D02*
X63213004Y-4687580D01*
X63213004Y-4687580D02*
X64013004Y-4878057D01*
X63213004Y-5601866D02*
X63213004Y-5144723D01*
X63213004Y-5373295D02*
X64013004Y-5373295D01*
X64013004Y-5373295D02*
X63898719Y-5297104D01*
X63898719Y-5297104D02*
X63822528Y-5220914D01*
X63822528Y-5220914D02*
X63784433Y-5144723D01*
X53781100Y-3115532D02*
X53743004Y-3229818D01*
X53743004Y-3229818D02*
X53743004Y-3420294D01*
X53743004Y-3420294D02*
X53781100Y-3496485D01*
X53781100Y-3496485D02*
X53819195Y-3534580D01*
X53819195Y-3534580D02*
X53895385Y-3572675D01*
X53895385Y-3572675D02*
X53971576Y-3572675D01*
X53971576Y-3572675D02*
X54047766Y-3534580D01*
X54047766Y-3534580D02*
X54085861Y-3496485D01*
X54085861Y-3496485D02*
X54123957Y-3420294D01*
X54123957Y-3420294D02*
X54162052Y-3267913D01*
X54162052Y-3267913D02*
X54200147Y-3191723D01*
X54200147Y-3191723D02*
X54238242Y-3153628D01*
X54238242Y-3153628D02*
X54314433Y-3115532D01*
X54314433Y-3115532D02*
X54390623Y-3115532D01*
X54390623Y-3115532D02*
X54466814Y-3153628D01*
X54466814Y-3153628D02*
X54504909Y-3191723D01*
X54504909Y-3191723D02*
X54543004Y-3267913D01*
X54543004Y-3267913D02*
X54543004Y-3458390D01*
X54543004Y-3458390D02*
X54504909Y-3572675D01*
X54543004Y-3839342D02*
X53743004Y-4029818D01*
X53743004Y-4029818D02*
X54314433Y-4182199D01*
X54314433Y-4182199D02*
X53743004Y-4334580D01*
X53743004Y-4334580D02*
X54543004Y-4525057D01*
X54466814Y-4791723D02*
X54504909Y-4829819D01*
X54504909Y-4829819D02*
X54543004Y-4906009D01*
X54543004Y-4906009D02*
X54543004Y-5096485D01*
X54543004Y-5096485D02*
X54504909Y-5172676D01*
X54504909Y-5172676D02*
X54466814Y-5210771D01*
X54466814Y-5210771D02*
X54390623Y-5248866D01*
X54390623Y-5248866D02*
X54314433Y-5248866D01*
X54314433Y-5248866D02*
X54200147Y-5210771D01*
X54200147Y-5210771D02*
X53743004Y-4753628D01*
X53743004Y-4753628D02*
X53743004Y-5248866D01*
D15*
X32476357Y38517086D02*
X32690643Y38445658D01*
X32690643Y38445658D02*
X32762072Y38374229D01*
X32762072Y38374229D02*
X32833500Y38231372D01*
X32833500Y38231372D02*
X32833500Y38017086D01*
X32833500Y38017086D02*
X32762072Y37874229D01*
X32762072Y37874229D02*
X32690643Y37802800D01*
X32690643Y37802800D02*
X32547786Y37731372D01*
X32547786Y37731372D02*
X31976357Y37731372D01*
X31976357Y37731372D02*
X31976357Y39231372D01*
X31976357Y39231372D02*
X32476357Y39231372D01*
X32476357Y39231372D02*
X32619215Y39159943D01*
X32619215Y39159943D02*
X32690643Y39088515D01*
X32690643Y39088515D02*
X32762072Y38945658D01*
X32762072Y38945658D02*
X32762072Y38802800D01*
X32762072Y38802800D02*
X32690643Y38659943D01*
X32690643Y38659943D02*
X32619215Y38588515D01*
X32619215Y38588515D02*
X32476357Y38517086D01*
X32476357Y38517086D02*
X31976357Y38517086D01*
X34262072Y37731372D02*
X33404929Y37731372D01*
X33833500Y37731372D02*
X33833500Y39231372D01*
X33833500Y39231372D02*
X33690643Y39017086D01*
X33690643Y39017086D02*
X33547786Y38874229D01*
X33547786Y38874229D02*
X33404929Y38802800D01*
D16*
X67818095Y45567067D02*
X69341905Y45567067D01*
X22098095Y45567067D02*
X23621905Y45567067D01*
X22860000Y44805162D02*
X22860000Y46328972D01*
X67818095Y26517067D02*
X69341905Y26517067D01*
X22098095Y26517067D02*
X23621905Y26517067D01*
X22860000Y25755162D02*
X22860000Y27278972D01*
D15*
X72272686Y47356381D02*
X72844114Y47356381D01*
X72558400Y46356381D02*
X72558400Y47356381D01*
X73177448Y46356381D02*
X73177448Y47356381D01*
X73177448Y46880191D02*
X73748876Y46880191D01*
X73748876Y46356381D02*
X73748876Y47356381D01*
X74177448Y47261143D02*
X74225067Y47308762D01*
X74225067Y47308762D02*
X74320305Y47356381D01*
X74320305Y47356381D02*
X74558400Y47356381D01*
X74558400Y47356381D02*
X74653638Y47308762D01*
X74653638Y47308762D02*
X74701257Y47261143D01*
X74701257Y47261143D02*
X74748876Y47165905D01*
X74748876Y47165905D02*
X74748876Y47070667D01*
X74748876Y47070667D02*
X74701257Y46927810D01*
X74701257Y46927810D02*
X74129829Y46356381D01*
X74129829Y46356381D02*
X74748876Y46356381D01*
X72247286Y24803181D02*
X72818714Y24803181D01*
X72533000Y23803181D02*
X72533000Y24803181D01*
X73152048Y23803181D02*
X73152048Y24803181D01*
X73152048Y24326991D02*
X73723476Y24326991D01*
X73723476Y23803181D02*
X73723476Y24803181D01*
X74723476Y23803181D02*
X74152048Y23803181D01*
X74437762Y23803181D02*
X74437762Y24803181D01*
X74437762Y24803181D02*
X74342524Y24660324D01*
X74342524Y24660324D02*
X74247286Y24565086D01*
X74247286Y24565086D02*
X74152048Y24517467D01*
%TO.C,J2*%
X11626101Y56166000D02*
X11626101Y60166000D01*
X12126201Y59667000D02*
X12126201Y56665000D01*
X14126201Y60666000D02*
X14126201Y60166000D01*
X14126201Y56166000D02*
X14126201Y55666000D01*
X14626101Y59667000D02*
X14626101Y56665000D01*
X14626101Y59666000D02*
X12126201Y59666000D01*
X14626101Y56666000D02*
X12126201Y56666000D01*
X15126201Y60166000D02*
X11626101Y60166000D01*
X15126201Y56166000D02*
X11625201Y56166000D01*
X15126201Y56166000D02*
X15126201Y60166000D01*
X20126201Y60666000D02*
X14126201Y60666000D01*
X20126201Y60666000D02*
X29126201Y60666000D01*
X20126201Y55666000D02*
X14126201Y55666000D01*
X29126201Y60666100D02*
X29126201Y55665900D01*
X29126201Y55666000D02*
X20126201Y55666000D01*
%TO.C,J3*%
X11626100Y61169800D02*
X11626100Y65169800D01*
X12126200Y64670800D02*
X12126200Y61668800D01*
X14126200Y65669800D02*
X14126200Y65169800D01*
X14126200Y61169800D02*
X14126200Y60669800D01*
X14626100Y64670800D02*
X14626100Y61668800D01*
X14626100Y64669800D02*
X12126200Y64669800D01*
X14626100Y61669800D02*
X12126200Y61669800D01*
X15126200Y65169800D02*
X11626100Y65169800D01*
X15126200Y61169800D02*
X11625200Y61169800D01*
X15126200Y61169800D02*
X15126200Y65169800D01*
X20126200Y65669800D02*
X14126200Y65669800D01*
X20126200Y65669800D02*
X29126200Y65669800D01*
X20126200Y60669800D02*
X14126200Y60669800D01*
X29126200Y65669900D02*
X29126200Y60669700D01*
X29126200Y60669800D02*
X20126200Y60669800D01*
%TO.C,J4*%
X65532000Y13081000D02*
X75692000Y13081000D01*
X65532000Y8001000D02*
X65532000Y13081000D01*
X75692000Y13081000D02*
X75692000Y8001000D01*
X75692000Y8001000D02*
X65532000Y8001000D01*
%TO.C,J6*%
X45148500Y63218000D02*
X47688500Y63218000D01*
X45148500Y58138000D02*
X45148500Y63218000D01*
X47688500Y63218000D02*
X47688500Y58138000D01*
X47688500Y58138000D02*
X45148500Y58138000D01*
%TO.C,J7*%
X38036500Y11402000D02*
X43116500Y11402000D01*
X38036500Y8862000D02*
X38036500Y11402000D01*
X43116500Y11402000D02*
X43116500Y8862000D01*
X43116500Y8862000D02*
X38036500Y8862000D01*
%TO.C,J9*%
X14955500Y10473000D02*
X23955500Y10473000D01*
X14955500Y5472900D02*
X14955500Y10473100D01*
X23955500Y10473000D02*
X29955500Y10473000D01*
X23955500Y5473000D02*
X14955500Y5473000D01*
X23955500Y5473000D02*
X29955500Y5473000D01*
X28955500Y9973000D02*
X28955500Y5973000D01*
X28955500Y9973000D02*
X32456500Y9973000D01*
X28955500Y5973000D02*
X32455600Y5973000D01*
X29455600Y9473000D02*
X31955500Y9473000D01*
X29455600Y6473000D02*
X31955500Y6473000D01*
X29455600Y6472000D02*
X29455600Y9474000D01*
X29955500Y9973000D02*
X29955500Y10473000D01*
X29955500Y5473000D02*
X29955500Y5973000D01*
X31955500Y6472000D02*
X31955500Y9474000D01*
X32455600Y9973000D02*
X32455600Y5973000D01*
%TO.C,J10*%
X55499000Y64389000D02*
X58039000Y64389000D01*
X55499000Y59309000D02*
X55499000Y64389000D01*
X58039000Y64389000D02*
X58039000Y59309000D01*
X58039000Y59309000D02*
X55499000Y59309000D01*
%TO.C,J11*%
X58039000Y64389000D02*
X60579000Y64389000D01*
X58039000Y59309000D02*
X58039000Y64389000D01*
X60579000Y64389000D02*
X60579000Y59309000D01*
X60579000Y59309000D02*
X58039000Y59309000D01*
%TO.C,J12*%
X64008000Y61468000D02*
X76708000Y61468000D01*
X64008000Y56388000D02*
X64008000Y61468000D01*
X76708000Y61468000D02*
X76708000Y56388000D01*
X76708000Y56388000D02*
X64008000Y56388000D01*
%TO.C,J8*%
X14955500Y15426000D02*
X23955500Y15426000D01*
X14955500Y10425900D02*
X14955500Y15426100D01*
X23955500Y15426000D02*
X29955500Y15426000D01*
X23955500Y10426000D02*
X14955500Y10426000D01*
X23955500Y10426000D02*
X29955500Y10426000D01*
X28955500Y14926000D02*
X28955500Y10926000D01*
X28955500Y14926000D02*
X32456500Y14926000D01*
X28955500Y10926000D02*
X32455600Y10926000D01*
X29455600Y14426000D02*
X31955500Y14426000D01*
X29455600Y11426000D02*
X31955500Y11426000D01*
X29455600Y11425000D02*
X29455600Y14427000D01*
X29955500Y14926000D02*
X29955500Y15426000D01*
X29955500Y10426000D02*
X29955500Y10926000D01*
X31955500Y11425000D02*
X31955500Y14427000D01*
X32455600Y14926000D02*
X32455600Y10926000D01*
D14*
%TO.C,SW1*%
X58087700Y-3221600D02*
X58087700Y-4701600D01*
X58087700Y-3221600D02*
X62587700Y-3221600D01*
X59237700Y-6601600D02*
X61437700Y-6601600D01*
X59337700Y-7426600D02*
X59337700Y-5801600D01*
X59337700Y-7451600D02*
X61337700Y-7451600D01*
X61337700Y-7426600D02*
X61337700Y-5801600D01*
X62587700Y-3221600D02*
X62587700Y-4701600D01*
%TO.C,SW2*%
X48617700Y-2868600D02*
X48617700Y-4348600D01*
X48617700Y-2868600D02*
X53117700Y-2868600D01*
X49767700Y-6248600D02*
X51967700Y-6248600D01*
X49867700Y-7073600D02*
X49867700Y-5448600D01*
X49867700Y-7098600D02*
X51867700Y-7098600D01*
X51867700Y-7073600D02*
X51867700Y-5448600D01*
X53117700Y-2868600D02*
X53117700Y-4348600D01*
D16*
%TO.C,B1*%
X6870000Y55665000D02*
X6870000Y15455000D01*
X6870000Y15455000D02*
X84570000Y15455000D01*
X84570000Y55665000D02*
X6870000Y55665000D01*
X84570000Y15455000D02*
X84570000Y55665000D01*
D15*
X19510000Y45210000D02*
G75*
G02*
X16310000Y45210000I-1600000J0D01*
G01*
X16310000Y45210000D02*
G75*
G02*
X19510000Y45210000I1600000J0D01*
G01*
X19510000Y25910000D02*
G75*
G02*
X16310000Y25910000I-1600000J0D01*
G01*
X16310000Y25910000D02*
G75*
G02*
X19510000Y25910000I1600000J0D01*
G01*
X75130000Y45210000D02*
G75*
G02*
X71930000Y45210000I-1600000J0D01*
G01*
X71930000Y45210000D02*
G75*
G02*
X75130000Y45210000I1600000J0D01*
G01*
X75130000Y25910000D02*
G75*
G02*
X71930000Y25910000I-1600000J0D01*
G01*
X71930000Y25910000D02*
G75*
G02*
X75130000Y25910000I1600000J0D01*
G01*
D17*
%TO.C,TH2*%
X73331336Y45896200D02*
X73785464Y45896200D01*
X73331336Y44426200D02*
X73785464Y44426200D01*
%TO.C,TH1*%
X73760064Y26643000D02*
X73305936Y26643000D01*
X73760064Y25173000D02*
X73305936Y25173000D01*
%TD*%
D18*
%TO.C,J4*%
X74422000Y11811000D03*
X74422000Y9271000D03*
X71882000Y11811000D03*
X71882000Y9271000D03*
X69342000Y11811000D03*
X69342000Y9271000D03*
X66802000Y11811000D03*
X66802000Y9271000D03*
%TD*%
%TO.C,J6*%
X46418500Y61948000D03*
X46418500Y59408000D03*
%TD*%
%TO.C,J7*%
X39306500Y10132000D03*
X41846500Y10132000D03*
%TD*%
%TO.C,J10*%
X56769000Y63119000D03*
X56769000Y60579000D03*
%TD*%
%TO.C,J11*%
X59309000Y63119000D03*
X59309000Y60579000D03*
%TD*%
%TO.C,J12*%
X65278000Y57658000D03*
X65278000Y60198000D03*
X67818000Y57658000D03*
X67818000Y60198000D03*
X70358000Y57657999D03*
X70358000Y60198001D03*
X72898000Y57658000D03*
X72898000Y60198000D03*
X75438000Y57658000D03*
X75438000Y60198000D03*
%TD*%
M02*
