%TF.GenerationSoftware,KiCad,Pcbnew,8.0.3+1*%
%TF.CreationDate,2024-07-21T10:24:22+00:00*%
%TF.ProjectId,LION2CELL02,4c494f4e-3243-4454-9c4c-30322e6b6963,rev?*%
%TF.SameCoordinates,Original*%
%TF.FileFunction,Copper,L2,Bot*%
%TF.FilePolarity,Positive*%
%FSLAX46Y46*%
G04 Gerber Fmt 4.6, Leading zero omitted, Abs format (unit mm)*
G04 Created by KiCad (PCBNEW 8.0.3+1) date 2024-07-21 10:24:22*
%MOMM*%
%LPD*%
G01*
G04 APERTURE LIST*
G04 Aperture macros list*
%AMRoundRect*
0 Rectangle with rounded corners*
0 $1 Rounding radius*
0 $2 $3 $4 $5 $6 $7 $8 $9 X,Y pos of 4 corners*
0 Add a 4 corners polygon primitive as box body*
4,1,4,$2,$3,$4,$5,$6,$7,$8,$9,$2,$3,0*
0 Add four circle primitives for the rounded corners*
1,1,$1+$1,$2,$3*
1,1,$1+$1,$4,$5*
1,1,$1+$1,$6,$7*
1,1,$1+$1,$8,$9*
0 Add four rect primitives between the rounded corners*
20,1,$1+$1,$2,$3,$4,$5,0*
20,1,$1+$1,$4,$5,$6,$7,0*
20,1,$1+$1,$6,$7,$8,$9,0*
20,1,$1+$1,$8,$9,$2,$3,0*%
%AMFreePoly0*
4,1,27,0.405000,0.748540,0.473851,0.737775,0.540468,0.697134,0.586462,0.634092,0.604830,0.558249,0.592775,0.481149,0.592776,0.481149,0.558927,0.388685,0.517726,0.196112,0.503933,-0.000335,0.517820,-0.196775,0.559113,-0.389328,0.593006,-0.481776,0.593005,-0.481776,0.605097,-0.558870,0.586765,-0.634722,0.540802,-0.697786,0.474204,-0.738459,0.405000,-0.749313,0.405000,-0.750000,
0.400623,-0.750000,0.397110,-0.750551,0.394830,-0.750000,-0.645000,-0.750000,-0.645000,0.750000,0.405000,0.750000,0.405000,0.748540,0.405000,0.748540,$1*%
%AMFreePoly1*
4,1,37,-1.390000,2.050000,0.435000,2.050000,0.435000,2.805000,1.035000,2.805000,1.035000,2.050000,1.215000,2.050000,1.215000,-2.050000,1.035000,-2.050000,1.035000,-2.805000,0.435000,-2.805000,0.435000,-2.050000,-1.390000,-2.050000,-1.390000,-2.805000,-1.990000,-2.805000,-1.990000,-2.050000,-2.285000,-2.050000,-2.285000,-2.210000,-3.305000,-2.210000,-3.305000,-1.600000,-2.595000,-1.600000,
-2.595000,-0.940000,-3.305000,-0.940000,-3.305000,-0.330000,-2.595000,-0.330000,-2.595000,0.330000,-3.305000,0.330000,-3.305000,0.940000,-2.595000,0.940000,-2.595000,1.600000,-3.305000,1.600000,-3.305000,2.210000,-2.285000,2.210000,-2.285000,2.050000,-1.990000,2.050000,-1.990000,2.805000,-1.390000,2.805000,-1.390000,2.050000,-1.390000,2.050000,$1*%
G04 Aperture macros list end*
%ADD10C,0.300000*%
%TA.AperFunction,NonConductor*%
%ADD11C,0.300000*%
%TD*%
%TA.AperFunction,ComponentPad*%
%ADD12R,3.810000X3.810000*%
%TD*%
%TA.AperFunction,ComponentPad*%
%ADD13R,1.524000X1.524000*%
%TD*%
%TA.AperFunction,ComponentPad*%
%ADD14R,1.676400X1.676400*%
%TD*%
%TA.AperFunction,ComponentPad*%
%ADD15C,6.000000*%
%TD*%
%TA.AperFunction,ComponentPad*%
%ADD16R,4.000000X4.000000*%
%TD*%
%TA.AperFunction,SMDPad,CuDef*%
%ADD17RoundRect,0.250000X-0.250000X-0.475000X0.250000X-0.475000X0.250000X0.475000X-0.250000X0.475000X0*%
%TD*%
%TA.AperFunction,SMDPad,CuDef*%
%ADD18RoundRect,0.225000X0.225000X0.250000X-0.225000X0.250000X-0.225000X-0.250000X0.225000X-0.250000X0*%
%TD*%
%TA.AperFunction,SMDPad,CuDef*%
%ADD19RoundRect,0.250000X-0.475000X0.250000X-0.475000X-0.250000X0.475000X-0.250000X0.475000X0.250000X0*%
%TD*%
%TA.AperFunction,SMDPad,CuDef*%
%ADD20RoundRect,0.250000X0.250000X0.475000X-0.250000X0.475000X-0.250000X-0.475000X0.250000X-0.475000X0*%
%TD*%
%TA.AperFunction,SMDPad,CuDef*%
%ADD21RoundRect,0.250000X0.475000X-0.250000X0.475000X0.250000X-0.475000X0.250000X-0.475000X-0.250000X0*%
%TD*%
%TA.AperFunction,SMDPad,CuDef*%
%ADD22FreePoly0,90.000000*%
%TD*%
%TA.AperFunction,SMDPad,CuDef*%
%ADD23FreePoly0,270.000000*%
%TD*%
%TA.AperFunction,SMDPad,CuDef*%
%ADD24R,1.150000X0.600000*%
%TD*%
%TA.AperFunction,SMDPad,CuDef*%
%ADD25R,1.150000X0.300000*%
%TD*%
%TA.AperFunction,ComponentPad*%
%ADD26O,2.000000X1.000000*%
%TD*%
%TA.AperFunction,ComponentPad*%
%ADD27O,2.100000X1.050000*%
%TD*%
%TA.AperFunction,SMDPad,CuDef*%
%ADD28RoundRect,0.250000X0.375000X0.850000X-0.375000X0.850000X-0.375000X-0.850000X0.375000X-0.850000X0*%
%TD*%
%TA.AperFunction,SMDPad,CuDef*%
%ADD29R,1.270000X0.610000*%
%TD*%
%TA.AperFunction,SMDPad,CuDef*%
%ADD30FreePoly1,0.000000*%
%TD*%
%TA.AperFunction,SMDPad,CuDef*%
%ADD31RoundRect,0.250000X-0.450000X0.262500X-0.450000X-0.262500X0.450000X-0.262500X0.450000X0.262500X0*%
%TD*%
%TA.AperFunction,SMDPad,CuDef*%
%ADD32RoundRect,0.250000X0.262500X0.450000X-0.262500X0.450000X-0.262500X-0.450000X0.262500X-0.450000X0*%
%TD*%
%TA.AperFunction,SMDPad,CuDef*%
%ADD33RoundRect,0.250000X-0.262500X-0.450000X0.262500X-0.450000X0.262500X0.450000X-0.262500X0.450000X0*%
%TD*%
%TA.AperFunction,SMDPad,CuDef*%
%ADD34RoundRect,0.250000X0.450000X-0.262500X0.450000X0.262500X-0.450000X0.262500X-0.450000X-0.262500X0*%
%TD*%
%TA.AperFunction,SMDPad,CuDef*%
%ADD35RoundRect,0.250000X-0.312500X-0.625000X0.312500X-0.625000X0.312500X0.625000X-0.312500X0.625000X0*%
%TD*%
%TA.AperFunction,SMDPad,CuDef*%
%ADD36RoundRect,0.050000X-0.425000X-0.050000X0.425000X-0.050000X0.425000X0.050000X-0.425000X0.050000X0*%
%TD*%
%TA.AperFunction,SMDPad,CuDef*%
%ADD37RoundRect,0.050000X-0.050000X-0.300000X0.050000X-0.300000X0.050000X0.300000X-0.050000X0.300000X0*%
%TD*%
%TA.AperFunction,SMDPad,CuDef*%
%ADD38RoundRect,0.050000X-0.250000X-0.050000X0.250000X-0.050000X0.250000X0.050000X-0.250000X0.050000X0*%
%TD*%
%TA.AperFunction,SMDPad,CuDef*%
%ADD39RoundRect,0.050000X-0.400000X-0.050000X0.400000X-0.050000X0.400000X0.050000X-0.400000X0.050000X0*%
%TD*%
%TA.AperFunction,SMDPad,CuDef*%
%ADD40RoundRect,0.050000X-0.050000X-0.250000X0.050000X-0.250000X0.050000X0.250000X-0.050000X0.250000X0*%
%TD*%
%TA.AperFunction,SMDPad,CuDef*%
%ADD41RoundRect,0.050000X-0.050000X0.300000X-0.050000X-0.300000X0.050000X-0.300000X0.050000X0.300000X0*%
%TD*%
%TA.AperFunction,SMDPad,CuDef*%
%ADD42RoundRect,0.050000X-0.300000X-0.050000X0.300000X-0.050000X0.300000X0.050000X-0.300000X0.050000X0*%
%TD*%
%TA.AperFunction,SMDPad,CuDef*%
%ADD43RoundRect,0.050000X-0.275000X-0.050000X0.275000X-0.050000X0.275000X0.050000X-0.275000X0.050000X0*%
%TD*%
%TA.AperFunction,SMDPad,CuDef*%
%ADD44RoundRect,0.050000X-0.290000X-0.050000X0.290000X-0.050000X0.290000X0.050000X-0.290000X0.050000X0*%
%TD*%
%TA.AperFunction,SMDPad,CuDef*%
%ADD45RoundRect,0.050000X-0.050000X-0.450000X0.050000X-0.450000X0.050000X0.450000X-0.050000X0.450000X0*%
%TD*%
%TA.AperFunction,SMDPad,CuDef*%
%ADD46RoundRect,0.050000X0.300000X0.050000X-0.300000X0.050000X-0.300000X-0.050000X0.300000X-0.050000X0*%
%TD*%
%TA.AperFunction,SMDPad,CuDef*%
%ADD47RoundRect,0.050000X0.050000X0.300000X-0.050000X0.300000X-0.050000X-0.300000X0.050000X-0.300000X0*%
%TD*%
%TA.AperFunction,ComponentPad*%
%ADD48C,0.500000*%
%TD*%
%TA.AperFunction,SMDPad,CuDef*%
%ADD49RoundRect,0.120400X0.579600X0.579600X-0.579600X0.579600X-0.579600X-0.579600X0.579600X-0.579600X0*%
%TD*%
%TA.AperFunction,SMDPad,CuDef*%
%ADD50RoundRect,0.250000X1.425000X-0.362500X1.425000X0.362500X-1.425000X0.362500X-1.425000X-0.362500X0*%
%TD*%
%TA.AperFunction,SMDPad,CuDef*%
%ADD51FreePoly1,180.000000*%
%TD*%
%TA.AperFunction,SMDPad,CuDef*%
%ADD52C,1.000000*%
%TD*%
%TA.AperFunction,SMDPad,CuDef*%
%ADD53RoundRect,0.243750X0.456250X-0.243750X0.456250X0.243750X-0.456250X0.243750X-0.456250X-0.243750X0*%
%TD*%
%TA.AperFunction,SMDPad,CuDef*%
%ADD54RoundRect,0.225000X-0.225000X-0.250000X0.225000X-0.250000X0.225000X0.250000X-0.225000X0.250000X0*%
%TD*%
%TA.AperFunction,SMDPad,CuDef*%
%ADD55RoundRect,0.150000X0.587500X0.150000X-0.587500X0.150000X-0.587500X-0.150000X0.587500X-0.150000X0*%
%TD*%
%TA.AperFunction,ViaPad*%
%ADD56C,0.800000*%
%TD*%
%TA.AperFunction,Conductor*%
%ADD57C,0.500000*%
%TD*%
%TA.AperFunction,Conductor*%
%ADD58C,0.200000*%
%TD*%
%TA.AperFunction,Conductor*%
%ADD59C,0.800000*%
%TD*%
%TA.AperFunction,Conductor*%
%ADD60C,0.300000*%
%TD*%
G04 APERTURE END LIST*
D10*
D11*
X111687228Y38590072D02*
X111687228Y40090072D01*
X111687228Y40090072D02*
X111187228Y39018643D01*
X111187228Y39018643D02*
X110687228Y40090072D01*
X110687228Y40090072D02*
X110687228Y38590072D01*
X109258656Y38590072D02*
X109972942Y38590072D01*
X109972942Y38590072D02*
X109972942Y40090072D01*
X108830084Y39018643D02*
X108115799Y39018643D01*
X108972941Y38590072D02*
X108472941Y40090072D01*
X108472941Y40090072D02*
X107972941Y38590072D01*
X106972942Y39375786D02*
X106758656Y39304358D01*
X106758656Y39304358D02*
X106687227Y39232929D01*
X106687227Y39232929D02*
X106615799Y39090072D01*
X106615799Y39090072D02*
X106615799Y38875786D01*
X106615799Y38875786D02*
X106687227Y38732929D01*
X106687227Y38732929D02*
X106758656Y38661500D01*
X106758656Y38661500D02*
X106901513Y38590072D01*
X106901513Y38590072D02*
X107472942Y38590072D01*
X107472942Y38590072D02*
X107472942Y40090072D01*
X107472942Y40090072D02*
X106972942Y40090072D01*
X106972942Y40090072D02*
X106830085Y40018643D01*
X106830085Y40018643D02*
X106758656Y39947215D01*
X106758656Y39947215D02*
X106687227Y39804358D01*
X106687227Y39804358D02*
X106687227Y39661500D01*
X106687227Y39661500D02*
X106758656Y39518643D01*
X106758656Y39518643D02*
X106830085Y39447215D01*
X106830085Y39447215D02*
X106972942Y39375786D01*
X106972942Y39375786D02*
X107472942Y39375786D01*
X105972942Y38732929D02*
X105901513Y38661500D01*
X105901513Y38661500D02*
X105972942Y38590072D01*
X105972942Y38590072D02*
X106044370Y38661500D01*
X106044370Y38661500D02*
X105972942Y38732929D01*
X105972942Y38732929D02*
X105972942Y38590072D01*
X104401513Y38732929D02*
X104472941Y38661500D01*
X104472941Y38661500D02*
X104687227Y38590072D01*
X104687227Y38590072D02*
X104830084Y38590072D01*
X104830084Y38590072D02*
X105044370Y38661500D01*
X105044370Y38661500D02*
X105187227Y38804358D01*
X105187227Y38804358D02*
X105258656Y38947215D01*
X105258656Y38947215D02*
X105330084Y39232929D01*
X105330084Y39232929D02*
X105330084Y39447215D01*
X105330084Y39447215D02*
X105258656Y39732929D01*
X105258656Y39732929D02*
X105187227Y39875786D01*
X105187227Y39875786D02*
X105044370Y40018643D01*
X105044370Y40018643D02*
X104830084Y40090072D01*
X104830084Y40090072D02*
X104687227Y40090072D01*
X104687227Y40090072D02*
X104472941Y40018643D01*
X104472941Y40018643D02*
X104401513Y39947215D01*
X103901513Y40090072D02*
X102901513Y40090072D01*
X102901513Y40090072D02*
X103901513Y38590072D01*
X103901513Y38590072D02*
X102901513Y38590072D01*
D10*
D11*
X114385657Y35542072D02*
X115099943Y35542072D01*
X115099943Y35542072D02*
X115099943Y37042072D01*
X113885657Y35542072D02*
X113885657Y37042072D01*
X112885656Y37042072D02*
X112599942Y37042072D01*
X112599942Y37042072D02*
X112457085Y36970643D01*
X112457085Y36970643D02*
X112314228Y36827786D01*
X112314228Y36827786D02*
X112242799Y36542072D01*
X112242799Y36542072D02*
X112242799Y36042072D01*
X112242799Y36042072D02*
X112314228Y35756358D01*
X112314228Y35756358D02*
X112457085Y35613500D01*
X112457085Y35613500D02*
X112599942Y35542072D01*
X112599942Y35542072D02*
X112885656Y35542072D01*
X112885656Y35542072D02*
X113028514Y35613500D01*
X113028514Y35613500D02*
X113171371Y35756358D01*
X113171371Y35756358D02*
X113242799Y36042072D01*
X113242799Y36042072D02*
X113242799Y36542072D01*
X113242799Y36542072D02*
X113171371Y36827786D01*
X113171371Y36827786D02*
X113028514Y36970643D01*
X113028514Y36970643D02*
X112885656Y37042072D01*
X111599942Y35542072D02*
X111599942Y37042072D01*
X111599942Y37042072D02*
X110742799Y35542072D01*
X110742799Y35542072D02*
X110742799Y37042072D01*
X110099941Y36899215D02*
X110028513Y36970643D01*
X110028513Y36970643D02*
X109885656Y37042072D01*
X109885656Y37042072D02*
X109528513Y37042072D01*
X109528513Y37042072D02*
X109385656Y36970643D01*
X109385656Y36970643D02*
X109314227Y36899215D01*
X109314227Y36899215D02*
X109242798Y36756358D01*
X109242798Y36756358D02*
X109242798Y36613500D01*
X109242798Y36613500D02*
X109314227Y36399215D01*
X109314227Y36399215D02*
X110171370Y35542072D01*
X110171370Y35542072D02*
X109242798Y35542072D01*
X107742799Y35684929D02*
X107814227Y35613500D01*
X107814227Y35613500D02*
X108028513Y35542072D01*
X108028513Y35542072D02*
X108171370Y35542072D01*
X108171370Y35542072D02*
X108385656Y35613500D01*
X108385656Y35613500D02*
X108528513Y35756358D01*
X108528513Y35756358D02*
X108599942Y35899215D01*
X108599942Y35899215D02*
X108671370Y36184929D01*
X108671370Y36184929D02*
X108671370Y36399215D01*
X108671370Y36399215D02*
X108599942Y36684929D01*
X108599942Y36684929D02*
X108528513Y36827786D01*
X108528513Y36827786D02*
X108385656Y36970643D01*
X108385656Y36970643D02*
X108171370Y37042072D01*
X108171370Y37042072D02*
X108028513Y37042072D01*
X108028513Y37042072D02*
X107814227Y36970643D01*
X107814227Y36970643D02*
X107742799Y36899215D01*
X107099942Y36327786D02*
X106599942Y36327786D01*
X106385656Y35542072D02*
X107099942Y35542072D01*
X107099942Y35542072D02*
X107099942Y37042072D01*
X107099942Y37042072D02*
X106385656Y37042072D01*
X105028513Y35542072D02*
X105742799Y35542072D01*
X105742799Y35542072D02*
X105742799Y37042072D01*
X103814227Y35542072D02*
X104528513Y35542072D01*
X104528513Y35542072D02*
X104528513Y37042072D01*
X103028512Y37042072D02*
X102885655Y37042072D01*
X102885655Y37042072D02*
X102742798Y36970643D01*
X102742798Y36970643D02*
X102671370Y36899215D01*
X102671370Y36899215D02*
X102599941Y36756358D01*
X102599941Y36756358D02*
X102528512Y36470643D01*
X102528512Y36470643D02*
X102528512Y36113500D01*
X102528512Y36113500D02*
X102599941Y35827786D01*
X102599941Y35827786D02*
X102671370Y35684929D01*
X102671370Y35684929D02*
X102742798Y35613500D01*
X102742798Y35613500D02*
X102885655Y35542072D01*
X102885655Y35542072D02*
X103028512Y35542072D01*
X103028512Y35542072D02*
X103171370Y35613500D01*
X103171370Y35613500D02*
X103242798Y35684929D01*
X103242798Y35684929D02*
X103314227Y35827786D01*
X103314227Y35827786D02*
X103385655Y36113500D01*
X103385655Y36113500D02*
X103385655Y36470643D01*
X103385655Y36470643D02*
X103314227Y36756358D01*
X103314227Y36756358D02*
X103242798Y36899215D01*
X103242798Y36899215D02*
X103171370Y36970643D01*
X103171370Y36970643D02*
X103028512Y37042072D01*
X101957084Y36899215D02*
X101885656Y36970643D01*
X101885656Y36970643D02*
X101742799Y37042072D01*
X101742799Y37042072D02*
X101385656Y37042072D01*
X101385656Y37042072D02*
X101242799Y36970643D01*
X101242799Y36970643D02*
X101171370Y36899215D01*
X101171370Y36899215D02*
X101099941Y36756358D01*
X101099941Y36756358D02*
X101099941Y36613500D01*
X101099941Y36613500D02*
X101171370Y36399215D01*
X101171370Y36399215D02*
X102028513Y35542072D01*
X102028513Y35542072D02*
X101099941Y35542072D01*
X100528513Y35970643D02*
X99814228Y35970643D01*
X100671370Y35542072D02*
X100171370Y37042072D01*
X100171370Y37042072D02*
X99671370Y35542072D01*
D12*
%TO.P,J2,1,P1*%
%TO.N,/Power Input/Power_load*%
X24126200Y57816000D03*
X19126200Y57816000D03*
%TD*%
%TO.P,J3,1,P1*%
%TO.N,GND*%
X24126200Y62819800D03*
X19126200Y62819800D03*
%TD*%
D13*
%TO.P,J4,1,2*%
%TO.N,GND*%
X74422000Y11811000D03*
%TO.P,J4,2,2*%
X74422000Y9271000D03*
%TO.P,J4,3,4*%
%TO.N,/Power Input/System_load*%
X71882000Y11811000D03*
%TO.P,J4,4,4*%
X71882000Y9271000D03*
%TO.P,J4,5,5*%
X69342000Y11811000D03*
%TO.P,J4,6,5*%
X69342000Y9271000D03*
%TO.P,J4,7,8*%
%TO.N,GND*%
X66802000Y11811000D03*
%TO.P,J4,8,8*%
X66802000Y9271000D03*
%TD*%
%TO.P,J6,1*%
%TO.N,Net-(U1-INT)*%
X33655000Y63119000D03*
%TO.P,J6,2*%
X33655000Y60579000D03*
%TD*%
%TO.P,J7,1*%
%TO.N,Net-(U1-nQON)*%
X31115000Y60579000D03*
%TO.P,J7,2*%
X31115000Y63119000D03*
%TD*%
D12*
%TO.P,J9,1,P1*%
%TO.N,GND*%
X19955500Y8323000D03*
X24955500Y8323000D03*
%TD*%
D13*
%TO.P,J10,1*%
%TO.N,Net-(U3-BTP_INT)*%
X64262000Y11430000D03*
%TO.P,J10,2*%
X64262000Y8890000D03*
%TD*%
%TO.P,J11,1*%
%TO.N,Net-(U3-~{PRES{slash}SHDWN})*%
X48133000Y63246000D03*
%TO.P,J11,2*%
%TO.N,GND1*%
X48133000Y60706000D03*
%TD*%
%TO.P,J12,1*%
%TO.N,GND*%
X65278000Y57658000D03*
%TO.P,J12,2*%
X65278000Y60198000D03*
%TO.P,J12,3*%
%TO.N,/Fuel Gauge/SCL*%
X67818000Y57658000D03*
%TO.P,J12,4*%
X67818000Y60198000D03*
%TO.P,J12,5*%
%TO.N,+3.3V*%
X70358000Y57658000D03*
%TO.P,J12,6*%
X70358000Y60198000D03*
%TO.P,J12,7*%
%TO.N,/Fuel Gauge/SDA*%
X72898000Y57658000D03*
%TO.P,J12,8*%
X72898000Y60198000D03*
%TO.P,J12,9*%
%TO.N,GND*%
X75438000Y57658000D03*
%TO.P,J12,10*%
X75438000Y60198000D03*
%TD*%
D12*
%TO.P,J8,1,P1*%
%TO.N,VBUS*%
X19955500Y13276000D03*
X24955500Y13276000D03*
%TD*%
D14*
%TO.P,SW1,1,1*%
%TO.N,Net-(U3-~{PRES{slash}SHDWN})*%
X53365000Y63210000D03*
X59665000Y63210000D03*
%TO.P,SW1,2,2*%
%TO.N,GND1*%
X53365000Y58710000D03*
X59665000Y58710000D03*
%TD*%
%TO.P,SW2,1,1*%
%TO.N,Net-(U3-~{DISP})*%
X44287000Y13310000D03*
X44287000Y7010000D03*
%TO.P,SW2,2,2*%
%TO.N,GND1*%
X39787000Y13310000D03*
X39787000Y7010000D03*
%TD*%
D15*
%TO.P,H2,1,1*%
%TO.N,GND*%
X81280000Y60960000D03*
%TD*%
%TO.P,H3,1,1*%
%TO.N,GND*%
X10160000Y10160000D03*
%TD*%
D16*
%TO.P,B1,1,+*%
%TO.N,/Fuel Gauge/B+*%
X9470000Y45210000D03*
%TO.P,B1,2,-*%
%TO.N,/Fuel Gauge/BAT_MID*%
X81970000Y45210000D03*
%TO.P,B1,3,+*%
X9470000Y25910000D03*
%TO.P,B1,4,-*%
%TO.N,GND1*%
X81970000Y25910000D03*
%TD*%
D15*
%TO.P,H4,1,1*%
%TO.N,GND*%
X81280000Y10160000D03*
%TD*%
%TO.P,H1,1,1*%
%TO.N,GND*%
X10160000Y60960000D03*
%TD*%
D17*
%TO.P,C1,1*%
%TO.N,VBUS*%
X14417000Y29337000D03*
%TO.P,C1,2*%
%TO.N,GND*%
X16317000Y29337000D03*
%TD*%
D18*
%TO.P,C5,1*%
%TO.N,/Power Input/System_load*%
X33668000Y25400000D03*
%TO.P,C5,2*%
%TO.N,GND*%
X32118000Y25400000D03*
%TD*%
D19*
%TO.P,C6,1*%
%TO.N,/Power Input/System_load*%
X35560000Y25461000D03*
%TO.P,C6,2*%
%TO.N,GND*%
X35560000Y23561000D03*
%TD*%
D17*
%TO.P,C7,1*%
%TO.N,/Power Input/System_load*%
X42839600Y25323800D03*
%TO.P,C7,2*%
%TO.N,GND*%
X44739600Y25323800D03*
%TD*%
%TO.P,C8,1*%
%TO.N,/Power Input/System_load*%
X42865000Y23241000D03*
%TO.P,C8,2*%
%TO.N,GND*%
X44765000Y23241000D03*
%TD*%
D19*
%TO.P,C9,1*%
%TO.N,Net-(U1-BTST1)*%
X26289000Y29398000D03*
%TO.P,C9,2*%
%TO.N,Net-(U1-SW1)*%
X26289000Y27498000D03*
%TD*%
D17*
%TO.P,C11,1*%
%TO.N,/Power Input/Power_load*%
X37150000Y32258000D03*
%TO.P,C11,2*%
%TO.N,GND*%
X39050000Y32258000D03*
%TD*%
D20*
%TO.P,C16,1*%
%TO.N,GND1*%
X60640000Y33147000D03*
%TO.P,C16,2*%
%TO.N,Net-(U3-PBI)*%
X58740000Y33147000D03*
%TD*%
D19*
%TO.P,C17,1*%
%TO.N,Net-(U3-VC2)*%
X63119000Y30541000D03*
%TO.P,C17,2*%
%TO.N,Net-(U3-VC1)*%
X63119000Y28641000D03*
%TD*%
D21*
%TO.P,C18,1*%
%TO.N,Net-(U3-VC1)*%
X60921900Y28663800D03*
%TO.P,C18,2*%
%TO.N,GND1*%
X60921900Y30563800D03*
%TD*%
D22*
%TO.P,D1,1,K*%
%TO.N,Net-(D1-K)*%
X48895000Y7112000D03*
D23*
%TO.P,D1,2,A*%
%TO.N,Net-(D1-A)*%
X48895000Y10922000D03*
%TD*%
%TO.P,D3,1,K*%
%TO.N,Net-(D3-K)*%
X35179000Y12192000D03*
D22*
%TO.P,D3,2,A*%
%TO.N,Net-(D3-A)*%
X35179000Y8382000D03*
%TD*%
D23*
%TO.P,D4,1,K*%
%TO.N,Net-(D1-A)*%
X51943000Y10922000D03*
D22*
%TO.P,D4,2,A*%
%TO.N,Net-(D1-K)*%
X51943000Y7112000D03*
%TD*%
%TO.P,D7,1,K*%
%TO.N,Net-(D1-K)*%
X58166000Y7112000D03*
D23*
%TO.P,D7,2,A*%
%TO.N,Net-(D5-K)*%
X58166000Y10922000D03*
%TD*%
D22*
%TO.P,D8,1,K*%
%TO.N,Net-(D1-A)*%
X61214000Y7112000D03*
D23*
%TO.P,D8,2,A*%
%TO.N,Net-(D5-K)*%
X61214000Y10922000D03*
%TD*%
D24*
%TO.P,J1,A1/B12,GND*%
%TO.N,GND*%
X12756000Y32360000D03*
%TO.P,J1,A4/B9,VBUS*%
%TO.N,VBUS*%
X12756000Y33160000D03*
D25*
%TO.P,J1,A5,CC1*%
%TO.N,Net-(J1-CC1)*%
X12756000Y34310000D03*
%TO.P,J1,A6,D+*%
%TO.N,/Power Input/D+*%
X12756000Y35310000D03*
%TO.P,J1,A7,D-*%
%TO.N,/Power Input/D-*%
X12756000Y35810000D03*
%TO.P,J1,A8,SBU1*%
%TO.N,unconnected-(J1-SBU1-PadA8)*%
X12756000Y36810000D03*
D24*
%TO.P,J1,B1/A12,GND*%
%TO.N,GND*%
X12756000Y38760000D03*
%TO.P,J1,B4/A9,VBUS*%
%TO.N,VBUS*%
X12756000Y37960000D03*
D25*
%TO.P,J1,B5,CC2*%
%TO.N,Net-(J1-CC2)*%
X12756000Y37310000D03*
%TO.P,J1,B6,D+*%
%TO.N,/Power Input/D+*%
X12756000Y36310000D03*
%TO.P,J1,B7,D-*%
%TO.N,/Power Input/D-*%
X12756000Y34810000D03*
%TO.P,J1,B8,SBU2*%
%TO.N,unconnected-(J1-SBU2-PadB8)*%
X12756000Y33810000D03*
D26*
%TO.P,J1,G1,SHIELD*%
%TO.N,GND*%
X8001000Y31240000D03*
%TO.P,J1,G2,SHIELD*%
X8001000Y39880000D03*
D27*
%TO.P,J1,G3,SHIELD*%
X12181000Y31240000D03*
%TO.P,J1,G4,SHIELD*%
X12181000Y39880000D03*
%TD*%
D28*
%TO.P,L1,1*%
%TO.N,Net-(U1-SW2)*%
X32317000Y22352000D03*
%TO.P,L1,2*%
%TO.N,Net-(U1-SW1)*%
X30167000Y22352000D03*
%TD*%
D29*
%TO.P,Q1,1,S*%
%TO.N,/Power Input/Power_load*%
X32134000Y45339000D03*
X32134000Y44069000D03*
X32134000Y42799000D03*
%TO.P,Q1,2,G*%
%TO.N,Net-(Q1-G)*%
X32134000Y41529000D03*
D30*
%TO.P,Q1,3,D*%
%TO.N,/Fuel Gauge/PACK+*%
X29464000Y43434000D03*
%TD*%
D31*
%TO.P,R1,1*%
%TO.N,GND*%
X15748000Y38377500D03*
%TO.P,R1,2*%
%TO.N,Net-(J1-CC2)*%
X15748000Y36552500D03*
%TD*%
D32*
%TO.P,R3,1*%
%TO.N,Net-(U1-ILIM_HIZ)*%
X35837500Y35179000D03*
%TO.P,R3,2*%
%TO.N,/Power Input/REGN*%
X34012500Y35179000D03*
%TD*%
D33*
%TO.P,R5,1*%
%TO.N,/Power Input/REGN*%
X34012500Y37211000D03*
%TO.P,R5,2*%
%TO.N,Net-(U1-TS)*%
X35837500Y37211000D03*
%TD*%
D34*
%TO.P,R6,1*%
%TO.N,Net-(U1-TS)*%
X35687000Y39219500D03*
%TO.P,R6,2*%
%TO.N,GND*%
X35687000Y41044500D03*
%TD*%
D32*
%TO.P,R7,1*%
%TO.N,/Power Input/REGN*%
X24280500Y31750000D03*
%TO.P,R7,2*%
%TO.N,Net-(D3-A)*%
X22455500Y31750000D03*
%TD*%
D33*
%TO.P,R8,1*%
%TO.N,Net-(U1-BATP)*%
X40489500Y32512000D03*
%TO.P,R8,2*%
%TO.N,/Fuel Gauge/PACK+*%
X42314500Y32512000D03*
%TD*%
%TO.P,R9,1*%
%TO.N,Net-(U1-PROG)*%
X37568500Y28575000D03*
%TO.P,R9,2*%
%TO.N,GND*%
X39393500Y28575000D03*
%TD*%
D32*
%TO.P,R11,1*%
%TO.N,+3.3V*%
X38123500Y60452000D03*
%TO.P,R11,2*%
%TO.N,Net-(U1-INT)*%
X36298500Y60452000D03*
%TD*%
D35*
%TO.P,R17,1*%
%TO.N,/Fuel Gauge/B+*%
X37907500Y46990000D03*
%TO.P,R17,2*%
%TO.N,Net-(Q2-D)*%
X40832500Y46990000D03*
%TD*%
D31*
%TO.P,R18,1*%
%TO.N,Net-(Q2-G)*%
X48260000Y45616500D03*
%TO.P,R18,2*%
%TO.N,/Fuel Gauge/VCOM*%
X48260000Y43791500D03*
%TD*%
D32*
%TO.P,R19,1*%
%TO.N,Net-(U3-PCHG)*%
X49934500Y47752000D03*
%TO.P,R19,2*%
%TO.N,Net-(Q2-G)*%
X48109500Y47752000D03*
%TD*%
D34*
%TO.P,R20,1*%
%TO.N,Net-(U3-VCC)*%
X53721000Y32869500D03*
%TO.P,R20,2*%
%TO.N,/Fuel Gauge/VCOM*%
X53721000Y34694500D03*
%TD*%
D31*
%TO.P,R23,1*%
%TO.N,Net-(Q5-G)*%
X52451000Y49045500D03*
%TO.P,R23,2*%
%TO.N,/Fuel Gauge/PACK+*%
X52451000Y47220500D03*
%TD*%
%TO.P,R24,1*%
%TO.N,/Fuel Gauge/PACK+*%
X55753000Y34694500D03*
%TO.P,R24,2*%
%TO.N,Net-(U3-PACK)*%
X55753000Y32869500D03*
%TD*%
%TO.P,R27,1*%
%TO.N,Net-(Q5-G)*%
X57785000Y41425500D03*
%TO.P,R27,2*%
%TO.N,Net-(U3-DSG)*%
X57785000Y39600500D03*
%TD*%
D32*
%TO.P,R28,1*%
%TO.N,Net-(U3-CHG)*%
X56919500Y37211000D03*
%TO.P,R28,2*%
%TO.N,Net-(Q3-G)*%
X55094500Y37211000D03*
%TD*%
D33*
%TO.P,R32,1*%
%TO.N,/Fuel Gauge/B+*%
X12701900Y45034200D03*
%TO.P,R32,2*%
%TO.N,Net-(U3-VC2)*%
X14526900Y45034200D03*
%TD*%
%TO.P,R33,1*%
%TO.N,/Fuel Gauge/BAT_MID*%
X12930500Y25908000D03*
%TO.P,R33,2*%
%TO.N,Net-(U3-VC1)*%
X14755500Y25908000D03*
%TD*%
D36*
%TO.P,U1,1,STAT*%
%TO.N,Net-(D3-K)*%
X29610700Y27927500D03*
D37*
X29985700Y27677500D03*
D38*
%TO.P,U1,2,VBUS*%
%TO.N,VBUS*%
X29435700Y28327500D03*
%TO.P,U1,3,VBUS*%
X29435700Y28727500D03*
%TO.P,U1,4,BTST1*%
%TO.N,Net-(U1-BTST1)*%
X29435700Y29127500D03*
%TO.P,U1,5,REGN*%
%TO.N,/Power Input/REGN*%
X29435700Y29527500D03*
%TO.P,U1,6,D+*%
%TO.N,/Power Input/D+*%
X29435700Y29927500D03*
%TO.P,U1,7,D-*%
%TO.N,/Power Input/D-*%
X29435700Y30327500D03*
%TO.P,U1,8,VAC2*%
%TO.N,VBUS*%
X29435700Y30727500D03*
D39*
%TO.P,U1,9,VAC1*%
X29585700Y31127500D03*
D37*
X29935700Y31377500D03*
D40*
%TO.P,U1,10,ACDRV2*%
%TO.N,GND*%
X30335700Y31427500D03*
%TO.P,U1,11,ACDRV1*%
X30735700Y31427500D03*
%TO.P,U1,12,nQON*%
%TO.N,Net-(U1-nQON)*%
X31135700Y31427500D03*
%TO.P,U1,13,CE*%
%TO.N,GND*%
X31535700Y31427500D03*
%TO.P,U1,14,SCL*%
%TO.N,/Fuel Gauge/SCL*%
X31935700Y31427500D03*
%TO.P,U1,15,SDA*%
%TO.N,/Fuel Gauge/SDA*%
X32335700Y31427500D03*
D41*
%TO.P,U1,16,TS*%
%TO.N,Net-(U1-TS)*%
X32735700Y31377500D03*
D39*
X33085700Y31127500D03*
D42*
%TO.P,U1,17,ILIM_HIZ*%
%TO.N,Net-(U1-ILIM_HIZ)*%
X33185700Y30727500D03*
D43*
%TO.P,U1,18,BATP*%
%TO.N,Net-(U1-BATP)*%
X33210700Y30327500D03*
D44*
%TO.P,U1,19,BTST2*%
%TO.N,Net-(U1-BTST2)*%
X33198200Y29927500D03*
D38*
%TO.P,U1,20,PROG*%
%TO.N,Net-(U1-PROG)*%
X33235700Y29527500D03*
%TO.P,U1,21,INT*%
%TO.N,Net-(U1-INT)*%
X33235700Y29127500D03*
%TO.P,U1,22,BAT*%
%TO.N,/Power Input/Power_load*%
X33235700Y28727500D03*
%TO.P,U1,23,BAT*%
X33235700Y28327500D03*
D37*
%TO.P,U1,24,SDRV*%
%TO.N,Net-(Q1-G)*%
X32685700Y27677500D03*
D36*
X33060700Y27927500D03*
D45*
%TO.P,U1,25,SYS*%
%TO.N,/Power Input/System_load*%
X32135700Y27927500D03*
%TO.P,U1,26,SW2*%
%TO.N,Net-(U1-SW2)*%
X31735700Y27927500D03*
%TO.P,U1,27,GND*%
%TO.N,GND*%
X31335700Y27927500D03*
%TO.P,U1,28,SW1*%
%TO.N,Net-(U1-SW1)*%
X30935700Y27927500D03*
%TO.P,U1,29,PMID*%
%TO.N,Net-(U1-PMID)*%
X30535700Y27927500D03*
%TD*%
D46*
%TO.P,U3,1,PBI*%
%TO.N,Net-(U3-PBI)*%
X57880000Y30229000D03*
%TO.P,U3,2,VC4*%
%TO.N,Net-(U3-VC2)*%
X57880000Y29829000D03*
%TO.P,U3,3,VC3*%
X57880000Y29429000D03*
%TO.P,U3,4,VC2*%
X57880000Y29029000D03*
%TO.P,U3,5,VC1*%
%TO.N,Net-(U3-VC1)*%
X57880000Y28629000D03*
%TO.P,U3,6,SRN*%
%TO.N,/Fuel Gauge/SR-*%
X57880000Y28229000D03*
%TO.P,U3,7,NC*%
%TO.N,unconnected-(U3-NC-Pad7)*%
X57880000Y27829000D03*
%TO.P,U3,8,SRP*%
%TO.N,/Fuel Gauge/SR+*%
X57880000Y27429000D03*
D47*
%TO.P,U3,9,VSS*%
%TO.N,GND1*%
X57280000Y26829000D03*
%TO.P,U3,10,TS1*%
%TO.N,Net-(U3-TS1)*%
X56880000Y26829000D03*
%TO.P,U3,11,TS2*%
%TO.N,Net-(U3-TS2)*%
X56480000Y26829000D03*
%TO.P,U3,12,TS3*%
%TO.N,GND1*%
X56080000Y26829000D03*
%TO.P,U3,13,TS4*%
X55680000Y26829000D03*
%TO.P,U3,14,NC*%
%TO.N,unconnected-(U3-NC-Pad14)*%
X55280000Y26829000D03*
%TO.P,U3,15,BTP_INT*%
%TO.N,Net-(U3-BTP_INT)*%
X54880000Y26829000D03*
%TO.P,U3,16,~{PRES/SHDWN}*%
%TO.N,Net-(U3-~{PRES{slash}SHDWN})*%
X54480000Y26829000D03*
D46*
%TO.P,U3,17,~{DISP}*%
%TO.N,Net-(U3-~{DISP})*%
X53880000Y27429000D03*
%TO.P,U3,18,SMBD*%
%TO.N,/Fuel Gauge/SDA*%
X53880000Y27829000D03*
%TO.P,U3,19,SMBC*%
%TO.N,/Fuel Gauge/SCL*%
X53880000Y28229000D03*
%TO.P,U3,20,LEDCNTLA*%
%TO.N,Net-(D1-A)*%
X53880000Y28629000D03*
%TO.P,U3,21,LEDCNTLB*%
%TO.N,Net-(D1-K)*%
X53880000Y29029000D03*
%TO.P,U3,22,LEDCNTLC*%
%TO.N,Net-(D5-K)*%
X53880000Y29429000D03*
%TO.P,U3,23,PTC*%
%TO.N,Net-(U3-PTC)*%
X53880000Y29829000D03*
%TO.P,U3,24,PTCEN*%
%TO.N,/Fuel Gauge/BAT*%
X53880000Y30229000D03*
D47*
%TO.P,U3,25,FUSE*%
%TO.N,GND1*%
X54480000Y30829000D03*
%TO.P,U3,26,VCC*%
%TO.N,Net-(U3-VCC)*%
X54880000Y30829000D03*
%TO.P,U3,27,PACK*%
%TO.N,Net-(U3-PACK)*%
X55280000Y30829000D03*
%TO.P,U3,28,DSG*%
%TO.N,Net-(U3-DSG)*%
X55680000Y30829000D03*
%TO.P,U3,29,NC*%
%TO.N,unconnected-(U3-NC-Pad29)*%
X56080000Y30829000D03*
%TO.P,U3,30,PCHG*%
%TO.N,Net-(U3-PCHG)*%
X56480000Y30829000D03*
%TO.P,U3,31,CHG*%
%TO.N,Net-(U3-CHG)*%
X56880000Y30829000D03*
%TO.P,U3,32,BAT*%
%TO.N,/Fuel Gauge/BAT*%
X57280000Y30829000D03*
D48*
%TO.P,U3,33,PWRPD*%
%TO.N,GND1*%
X55880000Y28829000D03*
D49*
X55880000Y28829000D03*
%TD*%
D33*
%TO.P,R4,1*%
%TO.N,Net-(U1-ILIM_HIZ)*%
X37568500Y35179000D03*
%TO.P,R4,2*%
%TO.N,GND*%
X39393500Y35179000D03*
%TD*%
D23*
%TO.P,D5,1,K*%
%TO.N,Net-(D5-K)*%
X55118000Y10922000D03*
D22*
%TO.P,D5,2,A*%
%TO.N,Net-(D1-K)*%
X55118000Y7112000D03*
%TD*%
D21*
%TO.P,C4,1*%
%TO.N,VBUS*%
X15798800Y40629800D03*
%TO.P,C4,2*%
%TO.N,GND*%
X15798800Y42529800D03*
%TD*%
%TO.P,C3,1*%
%TO.N,VBUS*%
X18034000Y40579000D03*
%TO.P,C3,2*%
%TO.N,GND*%
X18034000Y42479000D03*
%TD*%
%TO.P,C2,1*%
%TO.N,VBUS*%
X20243800Y40528200D03*
%TO.P,C2,2*%
%TO.N,GND*%
X20243800Y42428200D03*
%TD*%
%TO.P,C10,1*%
%TO.N,Net-(U1-SW2)*%
X35687000Y28133000D03*
%TO.P,C10,2*%
%TO.N,Net-(U1-BTST2)*%
X35687000Y30033000D03*
%TD*%
D34*
%TO.P,R2,1*%
%TO.N,GND*%
X15621000Y32107500D03*
%TO.P,R2,2*%
%TO.N,Net-(J1-CC1)*%
X15621000Y33932500D03*
%TD*%
D32*
%TO.P,R34,1*%
%TO.N,GND1*%
X78890500Y31369000D03*
%TO.P,R34,2*%
%TO.N,/Fuel Gauge/SR+*%
X77065500Y31369000D03*
%TD*%
D17*
%TO.P,C19,1*%
%TO.N,/Power Input/Power_load*%
X37531000Y30353000D03*
%TO.P,C19,2*%
%TO.N,GND*%
X39431000Y30353000D03*
%TD*%
D20*
%TO.P,C20,1*%
%TO.N,/Power Input/REGN*%
X24317999Y29591000D03*
%TO.P,C20,2*%
%TO.N,GND*%
X22418001Y29591000D03*
%TD*%
D50*
%TO.P,R35,1*%
%TO.N,GND1*%
X81915000Y29549500D03*
%TO.P,R35,2*%
%TO.N,GND*%
X81915000Y35474500D03*
%TD*%
D32*
%TO.P,R36,1*%
%TO.N,GND*%
X78890500Y33528000D03*
%TO.P,R36,2*%
%TO.N,/Fuel Gauge/SR-*%
X77065500Y33528000D03*
%TD*%
D34*
%TO.P,R22,1*%
%TO.N,Net-(Q3-G)*%
X52959000Y37060500D03*
%TO.P,R22,2*%
%TO.N,/Fuel Gauge/B+*%
X52959000Y38885500D03*
%TD*%
D29*
%TO.P,Q5,1,S*%
%TO.N,/Fuel Gauge/PACK+*%
X54734000Y45085000D03*
X54734000Y46355000D03*
X54734000Y47625000D03*
%TO.P,Q5,2,G*%
%TO.N,Net-(Q5-G)*%
X54734000Y48895000D03*
D51*
%TO.P,Q5,3,D*%
%TO.N,/Fuel Gauge/VCOM*%
X57404000Y46990000D03*
%TD*%
D52*
%TO.P,FID4,*%
%TO.N,*%
X2540000Y67663000D03*
%TD*%
%TO.P,FID1,*%
%TO.N,*%
X6731000Y6731000D03*
%TD*%
D29*
%TO.P,Q3,1,S*%
%TO.N,/Fuel Gauge/B+*%
X50676000Y41148000D03*
X50676000Y39878000D03*
X50676000Y38608000D03*
%TO.P,Q3,2,G*%
%TO.N,Net-(Q3-G)*%
X50676000Y37338000D03*
D30*
%TO.P,Q3,3,D*%
%TO.N,/Fuel Gauge/VCOM*%
X48006000Y39243000D03*
%TD*%
D34*
%TO.P,TH3,1*%
%TO.N,Net-(U1-TS)*%
X37719000Y39219500D03*
%TO.P,TH3,2*%
%TO.N,GND*%
X37719000Y41044500D03*
%TD*%
D19*
%TO.P,C27,1*%
%TO.N,Net-(U1-PMID)*%
X22860000Y25334000D03*
%TO.P,C27,2*%
%TO.N,GND*%
X22860000Y23434000D03*
%TD*%
D52*
%TO.P,FID2,*%
%TO.N,*%
X84709000Y64389000D03*
%TD*%
D34*
%TO.P,TH4,1*%
%TO.N,Net-(U3-PTC)*%
X46228000Y30837500D03*
%TO.P,TH4,2*%
%TO.N,/Fuel Gauge/BAT*%
X46228000Y32662500D03*
%TD*%
D53*
%TO.P,D6,1,K*%
%TO.N,/Fuel Gauge/BAT*%
X51435000Y32844500D03*
%TO.P,D6,2,A*%
%TO.N,/Fuel Gauge/B+*%
X51435000Y34719500D03*
%TD*%
D21*
%TO.P,C21,1*%
%TO.N,/Fuel Gauge/SR+*%
X74803000Y31435000D03*
%TO.P,C21,2*%
%TO.N,/Fuel Gauge/SR-*%
X74803000Y33335000D03*
%TD*%
D19*
%TO.P,C25,1*%
%TO.N,Net-(U1-PMID)*%
X25019000Y25334000D03*
%TO.P,C25,2*%
%TO.N,GND*%
X25019000Y23434000D03*
%TD*%
D54*
%TO.P,C24,1*%
%TO.N,Net-(U1-PMID)*%
X29070000Y25400000D03*
%TO.P,C24,2*%
%TO.N,GND*%
X30620000Y25400000D03*
%TD*%
D19*
%TO.P,C31,1*%
%TO.N,/Power Input/System_load*%
X39878000Y25461000D03*
%TO.P,C31,2*%
%TO.N,GND*%
X39878000Y23561000D03*
%TD*%
D52*
%TO.P,FID3,*%
%TO.N,*%
X87503000Y3937000D03*
%TD*%
D19*
%TO.P,C30,1*%
%TO.N,/Power Input/System_load*%
X37719000Y25461000D03*
%TO.P,C30,2*%
%TO.N,GND*%
X37719000Y23561000D03*
%TD*%
%TO.P,C29,1*%
%TO.N,VBUS*%
X28575000Y13142000D03*
%TO.P,C29,2*%
%TO.N,GND*%
X28575000Y11242000D03*
%TD*%
%TO.P,C26,1*%
%TO.N,Net-(U1-PMID)*%
X27178000Y25334000D03*
%TO.P,C26,2*%
%TO.N,GND*%
X27178000Y23434000D03*
%TD*%
D55*
%TO.P,Q2,1,G*%
%TO.N,Net-(Q2-G)*%
X45895500Y47686000D03*
%TO.P,Q2,2,S*%
%TO.N,/Fuel Gauge/VCOM*%
X45895500Y45786000D03*
%TO.P,Q2,3,D*%
%TO.N,Net-(Q2-D)*%
X44020500Y46736000D03*
%TD*%
D56*
%TO.N,GND*%
X38354000Y32258000D03*
X40386000Y35306000D03*
X31369000Y29718000D03*
X31497000Y30606000D03*
%TO.N,GND1*%
X60263000Y31496000D03*
X53720990Y31115000D03*
X58024605Y26729000D03*
%TO.N,/Fuel Gauge/B+*%
X36322000Y49078000D03*
%TO.N,VBUS*%
X27813000Y28575000D03*
X28417500Y32354500D03*
%TO.N,/Power Input/System_load*%
X48234425Y24713375D03*
%TO.N,Net-(U1-SW1)*%
X30226000Y23622000D03*
X26289000Y27498000D03*
X30636000Y29026000D03*
%TO.N,Net-(U1-SW2)*%
X32258000Y23622000D03*
X35687000Y28133000D03*
X32195994Y29080023D03*
%TO.N,/Power Input/Power_load*%
X37338000Y31242000D03*
X34417000Y28702000D03*
%TO.N,/Fuel Gauge/PACK+*%
X55245000Y35906396D03*
X43623000Y32258000D03*
X47899900Y49132100D03*
X26561700Y48828200D03*
%TO.N,Net-(U3-VC2)*%
X60452000Y39751000D03*
X31888197Y39104803D03*
%TO.N,Net-(U3-VC1)*%
X63373000Y26741000D03*
X63119000Y28641000D03*
%TO.N,/Power Input/REGN*%
X31369000Y34417000D03*
X24384000Y30607000D03*
%TO.N,Net-(D1-A)*%
X52324000Y22098000D03*
X50735000Y28329000D03*
%TO.N,Net-(D1-K)*%
X49579877Y29145000D03*
X46990000Y7620000D03*
%TO.N,Net-(D3-A)*%
X20701000Y24892000D03*
X33655000Y14224000D03*
%TO.N,Net-(D3-K)*%
X23749000Y27051000D03*
X35179000Y13589000D03*
%TO.N,Net-(D5-K)*%
X52477789Y29812624D03*
X53848000Y23114000D03*
%TO.N,/Fuel Gauge/BAT*%
X57987394Y31461431D03*
X52596000Y31815000D03*
%TO.N,/Power Input/D+*%
X14389900Y36266400D03*
X17018000Y34925000D03*
%TO.N,Net-(U3-BTP_INT)*%
X55118000Y22733000D03*
X55118000Y25273000D03*
%TO.N,Net-(U3-~{PRES{slash}SHDWN})*%
X41783000Y57658000D03*
X51435000Y29845000D03*
X52705000Y25527000D03*
%TO.N,Net-(Q1-G)*%
X31999514Y37811658D03*
X41148000Y30353000D03*
%TO.N,Net-(U1-ILIM_HIZ)*%
X34225000Y31201983D03*
%TO.N,Net-(U3-CHG)*%
X58454990Y35693610D03*
X56919496Y37211002D03*
%TO.N,Net-(U3-~{DISP})*%
X44577000Y20955000D03*
%TO.N,Net-(U3-TS1)*%
X61722000Y25527000D03*
%TO.N,Net-(U3-TS2)*%
X59436004Y24954000D03*
%TO.N,/Fuel Gauge/SDA*%
X43316717Y30482424D03*
X64643000Y39878000D03*
%TD*%
D57*
%TO.N,GND*%
X78890000Y33528000D02*
X78890500Y33528000D01*
D58*
X31336000Y28702000D02*
X31336000Y29685000D01*
X39050000Y32258000D02*
X38354000Y32258000D01*
X31336000Y26116000D02*
X31402000Y26116000D01*
X31336000Y29685000D02*
X31369000Y29718000D01*
X31536000Y30647000D02*
X31496000Y30607000D01*
X31336000Y26116000D02*
X30620000Y25400000D01*
X31536000Y31428000D02*
X31536000Y30647000D01*
X31402000Y26116000D02*
X32118000Y25400000D01*
X30736000Y32260000D02*
X30861000Y32385000D01*
X31320000Y26798000D02*
X31336000Y26814000D01*
X31336000Y26116000D02*
X31320000Y26132000D01*
X31496000Y30607000D02*
X31497000Y30606000D01*
D57*
X81407000Y33528000D02*
X81915000Y34036000D01*
D58*
X31320000Y26132000D02*
X31320000Y26798000D01*
D57*
X81915000Y34036000D02*
X81915000Y35474000D01*
D58*
X30336000Y31428000D02*
X30336000Y32241000D01*
X39393500Y35179000D02*
X40259000Y35179000D01*
X30336000Y32241000D02*
X30353000Y32258000D01*
X40259000Y35179000D02*
X40386000Y35306000D01*
D57*
X78890500Y33528000D02*
X81407000Y33528000D01*
D58*
X31336000Y26814000D02*
X31336000Y28702000D01*
X30736000Y31428000D02*
X30736000Y32260000D01*
%TO.N,/Fuel Gauge/BAT_MID*%
X12930000Y25908000D02*
X9472000Y25908000D01*
X9472000Y25908000D02*
X9470000Y25910000D01*
X12930000Y25908000D02*
X12930500Y25908000D01*
%TO.N,GND1*%
X59665000Y58710000D02*
X59665000Y57570100D01*
D57*
X81915000Y30480000D02*
X81915000Y29550000D01*
D58*
X59665000Y57570100D02*
X62270400Y54964700D01*
D57*
X78890000Y31369000D02*
X78890500Y31369000D01*
D58*
X57280000Y27183000D02*
X57280000Y26829000D01*
X56080000Y28629000D02*
X55880000Y28829000D01*
D57*
X78890500Y31369000D02*
X80772000Y31369000D01*
D58*
X57924605Y26829000D02*
X58024605Y26729000D01*
X60558500Y30927000D02*
X60263000Y31222500D01*
D59*
X81915000Y29550000D02*
X81915000Y29549500D01*
D58*
X78890500Y31369000D02*
X80772000Y31369000D01*
X60195000Y31496000D02*
X60195000Y31623000D01*
X60558500Y30927000D02*
X60558700Y30927000D01*
X60195000Y31564000D02*
X60263000Y31496000D01*
X62270400Y54964700D02*
X62270400Y34777400D01*
X55680000Y28629000D02*
X55880000Y28829000D01*
D59*
X81915000Y25965000D02*
X81970000Y25910000D01*
D58*
X60195000Y32307500D02*
X60195000Y31564000D01*
X54194000Y31115000D02*
X53720990Y31115000D01*
X60640000Y32752500D02*
X60640000Y33147000D01*
X60263000Y31222500D02*
X60263000Y31496000D01*
X54480000Y30829000D02*
X54194000Y31115000D01*
X57280000Y26829000D02*
X57280000Y26383000D01*
D57*
X81026000Y31369000D02*
X81915000Y30480000D01*
D58*
X39787000Y7010000D02*
X39787000Y13310000D01*
X55680000Y26829000D02*
X55680000Y28629000D01*
X62270400Y34777400D02*
X60640000Y33147000D01*
X60922000Y30564000D02*
X60558500Y30927000D01*
X57280000Y26829000D02*
X57924605Y26829000D01*
X78890000Y31369000D02*
X78890500Y31369000D01*
X80772000Y31369000D02*
X80899000Y31242000D01*
X60195000Y32307500D02*
X60195000Y32992000D01*
D59*
X81915000Y29549500D02*
X81915000Y25965000D01*
D58*
X60195000Y32307500D02*
X60640000Y32752500D01*
D57*
X80772000Y31369000D02*
X81026000Y31369000D01*
D58*
X56080000Y26829000D02*
X56080000Y28629000D01*
X60558700Y30927000D02*
X60921900Y30563800D01*
X56080000Y26383000D02*
X56080000Y26829000D01*
%TO.N,/Fuel Gauge/B+*%
X51144400Y41148000D02*
X51612700Y41148000D01*
X11947500Y45034200D02*
X11771700Y45210000D01*
X37907500Y46990000D02*
X36322000Y48575500D01*
X51144400Y38608000D02*
X51612700Y39076300D01*
X50346000Y41148000D02*
X49739300Y40541300D01*
X49739300Y40541300D02*
X49739300Y36908000D01*
X51144400Y41148000D02*
X50676000Y41148000D01*
X52284600Y33869900D02*
X51435000Y34719500D01*
X36322000Y48575500D02*
X36322000Y49078000D01*
X50678700Y35968600D02*
X53944144Y35968600D01*
X42954700Y38241500D02*
X46476700Y34719500D01*
X50676000Y38608000D02*
X51144400Y38608000D01*
X53944144Y35968600D02*
X54721000Y35191744D01*
X52959000Y38885500D02*
X51890200Y38885500D01*
X9470000Y45210000D02*
X11771700Y45210000D01*
X46476700Y34719500D02*
X51435000Y34719500D01*
X51890200Y38885500D02*
X51612700Y38608000D01*
X51612700Y39076300D02*
X51612700Y39878000D01*
X50676000Y41148000D02*
X50346000Y41148000D01*
X51144400Y39878000D02*
X51612700Y39878000D01*
X49739300Y36908000D02*
X50678700Y35968600D01*
X37907500Y46990000D02*
X42954700Y41942800D01*
X51144400Y38608000D02*
X51612700Y38608000D01*
X54721000Y35191744D02*
X54721000Y34117600D01*
X54473300Y33869900D02*
X52284600Y33869900D01*
X54721000Y34117600D02*
X54473300Y33869900D01*
X51144400Y39878000D02*
X51612700Y40346300D01*
X51612700Y40346300D02*
X51612700Y41148000D01*
X50676000Y39878000D02*
X51144400Y39878000D01*
X12701900Y45034200D02*
X11947500Y45034200D01*
X42954700Y41942800D02*
X42954700Y38241500D01*
%TO.N,VBUS*%
X20243800Y40528200D02*
X18084800Y40528200D01*
X11455300Y37171500D02*
X11455300Y33950100D01*
X28568000Y28328000D02*
X29436000Y28328000D01*
X29936000Y31913000D02*
X29591000Y32258000D01*
X13194400Y37960000D02*
X12756000Y37960000D01*
X12756000Y37960000D02*
X12243800Y37960000D01*
X28950343Y30982343D02*
X29180857Y30982343D01*
X11455300Y33950100D02*
X12245400Y33160000D01*
X28321000Y28575000D02*
X27813000Y28575000D01*
X19955500Y15482700D02*
X13914700Y21523500D01*
X17983200Y40629800D02*
X15798800Y40629800D01*
X28575000Y13142000D02*
X27296200Y13142000D01*
X29585700Y31127500D02*
X28968500Y31127500D01*
X28886843Y31045843D02*
X28950343Y30982343D01*
X28968500Y31127500D02*
X28886843Y31045843D01*
X13914700Y21523500D02*
X13914700Y28834700D01*
X13914700Y28834700D02*
X14417000Y29337000D01*
X13632700Y30121300D02*
X14417000Y29337000D01*
X13194400Y37960000D02*
X13632700Y37960000D01*
X13632700Y38463700D02*
X15798800Y40629800D01*
X18084800Y40528200D02*
X18034000Y40579000D01*
X29936000Y31378000D02*
X29936000Y31913000D01*
X29436000Y28728000D02*
X28474000Y28728000D01*
X12756000Y33160000D02*
X13632700Y33160000D01*
X13632700Y37960000D02*
X13632700Y38463700D01*
X29180857Y30982343D02*
X29435700Y30727500D01*
X20243800Y40528200D02*
X28514000Y32258000D01*
X13632700Y33160000D02*
X13632700Y30121300D01*
X27296200Y13142000D02*
X27162200Y13276000D01*
X28514000Y32258000D02*
X29591000Y32258000D01*
X18034000Y40579000D02*
X17983200Y40629800D01*
X12245400Y33160000D02*
X12756000Y33160000D01*
X12243800Y37960000D02*
X11455300Y37171500D01*
X28321000Y28575000D02*
X28568000Y28328000D01*
X24955500Y13276000D02*
X27162200Y13276000D01*
X19955500Y13276000D02*
X19955500Y15482700D01*
X28474000Y28728000D02*
X28321000Y28575000D01*
%TO.N,/Power Input/System_load*%
X32489000Y27028000D02*
X32136000Y27381000D01*
X42865000Y25298400D02*
X42839600Y25323800D01*
D59*
X37719000Y25461000D02*
X39878000Y25461000D01*
D58*
X42839600Y25323800D02*
X40015200Y25323800D01*
D59*
X33668000Y25400000D02*
X35499000Y25400000D01*
D58*
X42865000Y23241000D02*
X42865000Y25298400D01*
X32136000Y27381000D02*
X32136000Y27928000D01*
X45725050Y22204000D02*
X48234425Y24713375D01*
X69342000Y9271000D02*
X69342000Y11811000D01*
X43902000Y22204000D02*
X45725050Y22204000D01*
D59*
X35499000Y25400000D02*
X35560000Y25461000D01*
D58*
X33668000Y25967000D02*
X32608000Y27028000D01*
X40015200Y25323800D02*
X39878000Y25461000D01*
D59*
X35560000Y25461000D02*
X37719000Y25461000D01*
D58*
X32608000Y27028000D02*
X32489000Y27028000D01*
X42865000Y23241000D02*
X43902000Y22204000D01*
X33668000Y25400000D02*
X33668000Y25967000D01*
D59*
%TO.N,Net-(U1-SW1)*%
X30167000Y22352000D02*
X30167000Y23563000D01*
D58*
X30936000Y27928000D02*
X30936000Y28726000D01*
X30936000Y28726000D02*
X30636000Y29026000D01*
D59*
X30167000Y23563000D02*
X30226000Y23622000D01*
D58*
%TO.N,Net-(U1-BTST1)*%
X28249950Y29128000D02*
X27979950Y29398000D01*
X27979950Y29398000D02*
X26289000Y29398000D01*
X29436000Y29128000D02*
X28249950Y29128000D01*
D59*
%TO.N,Net-(U1-SW2)*%
X32317000Y23563000D02*
X32258000Y23622000D01*
D58*
X31736000Y27928000D02*
X31736000Y28630314D01*
D59*
X32317000Y22352000D02*
X32317000Y23563000D01*
D58*
X32185709Y29080023D02*
X32195994Y29080023D01*
X31736000Y28630314D02*
X32185709Y29080023D01*
%TO.N,Net-(U1-BTST2)*%
X33198000Y29928000D02*
X35581000Y29928000D01*
X35581000Y29928000D02*
X35687000Y30033000D01*
%TO.N,/Power Input/Power_load*%
X31837200Y45339000D02*
X28662200Y48514000D01*
X37338000Y30546000D02*
X37531000Y30353000D01*
X32134000Y42799000D02*
X31298200Y42799000D01*
X37338000Y31242000D02*
X37338000Y32070000D01*
X33235700Y28727500D02*
X34010500Y28727500D01*
X33915500Y28327500D02*
X33235700Y28327500D01*
X28427500Y51308000D02*
X24126200Y55609300D01*
X32134000Y45339000D02*
X31837200Y45339000D01*
X31665700Y44069000D02*
X31197300Y44069000D01*
X34163000Y28575000D02*
X33915500Y28327500D01*
X34290000Y28575000D02*
X34417000Y28702000D01*
X34010500Y28727500D02*
X34163000Y28575000D01*
X31665700Y44069000D02*
X31197300Y44537400D01*
X31197300Y42799000D02*
X31197300Y44069000D01*
X31197300Y44537400D02*
X31197300Y45339000D01*
X31198800Y42799000D02*
X31197300Y42799000D01*
X31298200Y42799000D02*
X31198800Y42799000D01*
X28641000Y48514000D02*
X28641000Y51308000D01*
X28662200Y48514000D02*
X28641000Y48514000D01*
X28641000Y51308000D02*
X28427500Y51308000D01*
X32134000Y44069000D02*
X31665700Y44069000D01*
X31837200Y45339000D02*
X31197300Y45339000D01*
X37338000Y31242000D02*
X37338000Y30546000D01*
X37338000Y32070000D02*
X37150000Y32258000D01*
X24126200Y57816000D02*
X24126200Y55609300D01*
X34163000Y28575000D02*
X34290000Y28575000D01*
%TO.N,/Fuel Gauge/PACK+*%
X52451000Y47220500D02*
X54330000Y47220500D01*
X49409100Y48724000D02*
X49580000Y48895000D01*
X54734000Y46355000D02*
X54734000Y47625000D01*
X54734000Y45085000D02*
X54734000Y46355000D01*
X49409100Y48724100D02*
X49380000Y48753200D01*
X51104000Y48895000D02*
X52451000Y47548300D01*
X42314500Y32512000D02*
X42568500Y32258000D01*
X49580000Y48895000D02*
X51104000Y48895000D01*
X42568500Y32258000D02*
X43623000Y32258000D01*
X49380000Y48753200D02*
X48602300Y48753200D01*
X26561700Y48828200D02*
X29464000Y45925900D01*
X49409100Y48724000D02*
X49409100Y48724100D01*
X55830000Y34771000D02*
X55829500Y34771000D01*
X49022000Y47167300D02*
X49022000Y48336700D01*
X55907000Y34848000D02*
X55907000Y35629000D01*
X48602300Y48753200D02*
X48600800Y48754700D01*
X55522396Y35629000D02*
X55245000Y35906396D01*
X48277300Y48754700D02*
X47899900Y49132100D01*
X55830000Y34771000D02*
X55907000Y34848000D01*
X55907000Y35629000D02*
X55522396Y35629000D01*
X54330000Y47220500D02*
X54734000Y47625000D01*
X29464000Y45925900D02*
X29464000Y43434000D01*
X52451000Y47548300D02*
X52451000Y47220500D01*
X55907000Y35629000D02*
X55907000Y40282000D01*
X49022000Y48336700D02*
X49409100Y48724000D01*
X55907000Y40282000D02*
X49022000Y47167300D01*
X48600800Y48754700D02*
X48277300Y48754700D01*
X55753000Y34694000D02*
X55830000Y34771000D01*
X55829500Y34771000D02*
X55753000Y34694500D01*
%TO.N,Net-(U3-PBI)*%
X57880000Y30229000D02*
X58687394Y31036394D01*
X58295000Y32184600D02*
X58295000Y32992000D01*
X58740000Y32629600D02*
X58740000Y33147000D01*
X58687394Y31792206D02*
X58295000Y32184600D01*
X58295000Y32184600D02*
X58740000Y32629600D01*
X58687394Y31036394D02*
X58687394Y31792206D01*
%TO.N,Net-(U3-VC2)*%
X27747197Y39104803D02*
X31888197Y39104803D01*
X58682000Y29710000D02*
X58563000Y29829000D01*
X62042000Y29464000D02*
X63119000Y30541000D01*
X21817800Y45034200D02*
X27747197Y39104803D01*
X59563000Y30591000D02*
X59563000Y38862000D01*
X59563000Y38862000D02*
X60452000Y39751000D01*
X58563000Y29829000D02*
X57880000Y29829000D01*
X58928000Y29464000D02*
X62042000Y29464000D01*
X58801000Y29337000D02*
X58928000Y29464000D01*
X58493000Y29029000D02*
X58801000Y29337000D01*
X14526900Y45034200D02*
X21817800Y45034200D01*
X57880000Y29429000D02*
X58766000Y29429000D01*
X58801000Y29464000D02*
X58801000Y29591000D01*
X58682000Y29710000D02*
X59563000Y30591000D01*
X58801000Y29591000D02*
X58682000Y29710000D01*
X58801000Y29337000D02*
X58801000Y29464000D01*
X58766000Y29429000D02*
X58801000Y29464000D01*
X57880000Y29029000D02*
X58493000Y29029000D01*
%TO.N,Net-(U3-VC1)*%
X57456365Y24300000D02*
X57583364Y24173000D01*
X63119000Y28641000D02*
X60945000Y28641000D01*
X19708500Y20255000D02*
X46601686Y20255000D01*
X60887000Y28629000D02*
X57880000Y28629000D01*
X60904500Y28646500D02*
X60887000Y28629000D01*
X46601686Y20255000D02*
X50646686Y24300000D01*
X60922000Y28664000D02*
X60904500Y28646500D01*
X50646686Y24300000D02*
X57456365Y24300000D01*
X57583364Y24173000D02*
X61357950Y24173000D01*
X63373000Y26188050D02*
X63373000Y26741000D01*
X14755500Y25908000D02*
X14755500Y25208000D01*
X60945000Y28641000D02*
X60922000Y28664000D01*
X14755500Y25208000D02*
X19708500Y20255000D01*
X60904500Y28646500D02*
X60904600Y28646500D01*
X60904600Y28646500D02*
X60921900Y28663800D01*
X61357950Y24173000D02*
X63373000Y26188050D01*
%TO.N,/Power Input/REGN*%
X24924999Y30198000D02*
X28038314Y30198000D01*
X24384000Y31646500D02*
X24280500Y31750000D01*
X24317999Y30540999D02*
X24384000Y30607000D01*
X24317999Y29591000D02*
X24317999Y30540999D01*
X24384000Y30607000D02*
X24384000Y31646500D01*
X28708814Y29527500D02*
X29435700Y29527500D01*
X34012500Y35179000D02*
X32131000Y35179000D01*
X32131000Y35179000D02*
X31369000Y34417000D01*
X24317999Y29591000D02*
X24924999Y30198000D01*
X34012500Y37211000D02*
X34012500Y35179000D01*
X28038314Y30198000D02*
X28708814Y29527500D01*
D57*
%TO.N,Net-(D1-A)*%
X60114000Y6012000D02*
X47396000Y6012000D01*
X51943000Y10922000D02*
X48895000Y10922000D01*
X47396000Y6012000D02*
X46140000Y7268000D01*
X51943000Y21717000D02*
X52324000Y22098000D01*
D58*
X53880000Y28629000D02*
X51035000Y28629000D01*
D57*
X46140000Y7268000D02*
X46140000Y9056000D01*
X48006000Y10922000D02*
X48895000Y10922000D01*
D58*
X51035000Y28629000D02*
X50735000Y28329000D01*
D57*
X51943000Y10922000D02*
X51943000Y21717000D01*
X61214000Y7112000D02*
X60114000Y6012000D01*
X46140000Y9056000D02*
X48006000Y10922000D01*
%TO.N,Net-(D1-K)*%
X51943000Y7112000D02*
X55118000Y7112000D01*
D58*
X53880000Y29029000D02*
X49695877Y29029000D01*
D57*
X48895000Y7112000D02*
X48260000Y7112000D01*
X47752000Y7620000D02*
X46990000Y7620000D01*
X55118000Y7112000D02*
X58166000Y7112000D01*
X51943000Y7112000D02*
X48895000Y7112000D01*
D58*
X49695877Y29029000D02*
X49579877Y29145000D01*
D57*
X48260000Y7112000D02*
X47752000Y7620000D01*
X55118000Y7112000D02*
X51943000Y7112000D01*
X48895000Y7112000D02*
X51943000Y7112000D01*
D58*
%TO.N,Net-(D3-A)*%
X22455500Y31750000D02*
X22456000Y31750000D01*
X21082000Y25273000D02*
X20701000Y24892000D01*
X21082000Y30889000D02*
X21082000Y25273000D01*
X35033000Y8382000D02*
X33655000Y9760000D01*
X21943000Y31750000D02*
X21082000Y30889000D01*
X35179000Y8382000D02*
X35033000Y8382000D01*
X33655000Y9760000D02*
X33655000Y14224000D01*
X22455500Y31750000D02*
X21943000Y31750000D01*
%TO.N,Net-(D3-K)*%
X27422000Y27875000D02*
X26976000Y28321000D01*
X29611000Y27928000D02*
X29558000Y27875000D01*
X26976000Y28321000D02*
X25019000Y28321000D01*
X35179000Y13589000D02*
X35179000Y12192000D01*
X29558000Y27875000D02*
X27422000Y27875000D01*
X25019000Y28321000D02*
X23749000Y27051000D01*
D57*
%TO.N,Net-(D5-K)*%
X58166000Y10922000D02*
X61214000Y10922000D01*
D58*
X55118000Y10922000D02*
X53848000Y12192000D01*
X53848000Y12192000D02*
X53848000Y23114000D01*
X52861413Y29429000D02*
X52477789Y29812624D01*
X53880000Y29429000D02*
X52861413Y29429000D01*
D57*
X55118000Y10922000D02*
X58166000Y10922000D01*
D58*
%TO.N,/Fuel Gauge/BAT*%
X57280000Y30829000D02*
X57912431Y31461431D01*
X53880000Y30229000D02*
X53617050Y30229000D01*
X51435000Y32844000D02*
X46410000Y32844000D01*
X51435000Y32844500D02*
X51435000Y32844000D01*
X53617050Y30229000D02*
X52596000Y31250050D01*
X52596000Y31250050D02*
X52596000Y31815000D01*
X46319000Y32753000D02*
X46318500Y32753000D01*
X52464000Y31815000D02*
X52596000Y31815000D01*
X46410000Y32844000D02*
X46319000Y32753000D01*
X46318500Y32753000D02*
X46228000Y32662500D01*
X51435000Y32844000D02*
X52464000Y31815000D01*
X46319000Y32753000D02*
X46228000Y32662000D01*
X57912431Y31461431D02*
X57987394Y31461431D01*
%TO.N,/Power Input/D+*%
X17461000Y34482000D02*
X17018000Y34925000D01*
X28874000Y29928000D02*
X24320000Y34482000D01*
X24320000Y34482000D02*
X17461000Y34482000D01*
X29436000Y29928000D02*
X28874000Y29928000D01*
X14460500Y35310000D02*
X14033100Y35737400D01*
X14033100Y35909600D02*
X14389900Y36266400D01*
X14033100Y35909600D02*
X13632700Y36310000D01*
X12756000Y36310000D02*
X13632700Y36310000D01*
X14033100Y35737400D02*
X14033100Y35909600D01*
X12756000Y35310000D02*
X14460500Y35310000D01*
X14460500Y35310000D02*
X15490000Y35310000D01*
X15490000Y35310000D02*
X15494000Y35306000D01*
%TO.N,/Power Input/D-*%
X29039000Y30328000D02*
X25165000Y34202000D01*
X12756000Y34810000D02*
X11879300Y34810000D01*
X16379000Y35625000D02*
X15564000Y34810000D01*
X25165000Y34456000D02*
X23996000Y35625000D01*
X23996000Y35625000D02*
X16379000Y35625000D01*
X29436000Y30328000D02*
X29039000Y30328000D01*
X12756000Y35810000D02*
X11879300Y35810000D01*
X15564000Y34810000D02*
X12756000Y34810000D01*
X11879300Y35810000D02*
X11879300Y34810000D01*
X25165000Y34202000D02*
X25165000Y34456000D01*
D60*
%TO.N,Net-(J1-CC2)*%
X12756000Y37310000D02*
X14990000Y37310000D01*
X14990000Y37310000D02*
X15369000Y36931000D01*
D58*
X15369000Y36931000D02*
X15369500Y36931000D01*
X15369500Y36931000D02*
X15748000Y36552500D01*
D60*
X15369000Y36931000D02*
X15748000Y36552000D01*
D58*
%TO.N,Net-(J1-CC1)*%
X12756000Y34310000D02*
X15243500Y34310000D01*
X15243500Y34310000D02*
X15621000Y33932500D01*
%TO.N,Net-(U1-INT)*%
X33655000Y60579000D02*
X34186900Y60579000D01*
X36298500Y60452000D02*
X34845700Y60452000D01*
X33235700Y29127500D02*
X33852550Y29127500D01*
X34186900Y60579000D02*
X34718700Y60579000D01*
X34845700Y60452000D02*
X34718700Y60579000D01*
X33655000Y61110900D02*
X33655000Y63119000D01*
X34186900Y60579000D02*
X33655000Y61110900D01*
%TO.N,Net-(U1-nQON)*%
X33152900Y40030736D02*
X33152900Y58541100D01*
X33485000Y39698636D02*
X33152900Y40030736D01*
X31330314Y33465736D02*
X30669000Y34127050D01*
X31115000Y63119000D02*
X31115000Y60579000D01*
X31136000Y32094000D02*
X31330314Y32288314D01*
X33178697Y38354061D02*
X33485000Y38660364D01*
X33178697Y37496697D02*
X33178697Y38354061D01*
X30669000Y34987000D02*
X33178697Y37496697D01*
X30669000Y34127050D02*
X30669000Y34987000D01*
X33485000Y38660364D02*
X33485000Y39698636D01*
X31136000Y31428000D02*
X31136000Y32094000D01*
X31330314Y32288314D02*
X31330314Y33465736D01*
X33152900Y58541100D02*
X31115000Y60579000D01*
%TO.N,Net-(U3-BTP_INT)*%
X64262000Y13843000D02*
X55372000Y22733000D01*
X54880000Y26829000D02*
X54880000Y25511000D01*
X64262000Y8890000D02*
X64262000Y11430000D01*
X55372000Y22733000D02*
X55118000Y22733000D01*
X64262000Y11430000D02*
X64262000Y13843000D01*
X54880000Y25511000D02*
X55118000Y25273000D01*
%TO.N,Net-(U3-~{PRES{slash}SHDWN})*%
X45169000Y33475636D02*
X42418185Y36226451D01*
X42418185Y39809665D02*
X33952900Y48274950D01*
X53178000Y25527000D02*
X52705000Y25527000D01*
X33952900Y48274950D02*
X41783000Y56105050D01*
X45723256Y29845000D02*
X45169000Y30399256D01*
X41783000Y56105050D02*
X41783000Y57658000D01*
X45169000Y30399256D02*
X45169000Y33475636D01*
X51435000Y29845000D02*
X45723256Y29845000D01*
X42418185Y36226451D02*
X42418185Y39809665D01*
X54480000Y26829000D02*
X53178000Y25527000D01*
%TO.N,+3.3V*%
X50480300Y59642300D02*
X50747800Y59909800D01*
X62175300Y59909800D02*
X62950800Y59134300D01*
X70358000Y60198000D02*
X69826200Y60198000D01*
X70358000Y57658000D02*
X70358000Y58721700D01*
X68878700Y59134300D02*
X69412100Y59667700D01*
X38933200Y59642300D02*
X50480300Y59642300D01*
X38123500Y60452000D02*
X38933200Y59642300D01*
X50747800Y59909800D02*
X62175300Y59909800D01*
X69412100Y59667700D02*
X69826200Y60081800D01*
X62950800Y59134300D02*
X68878700Y59134300D01*
X69412100Y59667700D02*
X70358000Y58721700D01*
X69826200Y60081800D02*
X69826200Y60198000D01*
%TO.N,Net-(Q1-G)*%
X33060700Y27927500D02*
X33683200Y27305000D01*
X32134000Y40483950D02*
X33085000Y39532950D01*
X33683200Y27305000D02*
X39624000Y27305000D01*
X32134000Y41529000D02*
X32134000Y40483950D01*
X41148000Y28829000D02*
X41148000Y30353000D01*
X39624000Y27305000D02*
X41148000Y28829000D01*
X33085000Y39532950D02*
X33085000Y38897144D01*
X33085000Y38897144D02*
X31999514Y37811658D01*
%TO.N,Net-(Q2-G)*%
X48043500Y45833000D02*
X48260000Y45616500D01*
X45895500Y47686000D02*
X48043500Y47686000D01*
X48043500Y47686000D02*
X48109500Y47752000D01*
X48043500Y47686000D02*
X48043500Y45833000D01*
%TO.N,Net-(Q2-D)*%
X44020500Y46736000D02*
X43766500Y46990000D01*
X43766500Y46990000D02*
X40832500Y46990000D01*
%TO.N,/Fuel Gauge/VCOM*%
X48260000Y43791500D02*
X47890000Y43791500D01*
X55258700Y49911200D02*
X46667000Y49911200D01*
X49687000Y35507000D02*
X52908000Y35507000D01*
X48006000Y37188000D02*
X49687000Y35507000D01*
X53314500Y35100500D02*
X53315000Y35100500D01*
X52908000Y35507000D02*
X53314500Y35100500D01*
X47890000Y43791500D02*
X45896000Y45786000D01*
X45895500Y45786000D02*
X45896000Y45786000D01*
X53315000Y35100500D02*
X53721000Y34694500D01*
X46667000Y49911200D02*
X44826300Y48070500D01*
X44826300Y48070500D02*
X44826300Y47317700D01*
X53314500Y35100500D02*
X53721000Y34694000D01*
X48006000Y39243000D02*
X48006000Y37188000D01*
X57404000Y46990000D02*
X57404000Y47765900D01*
X57404000Y47765900D02*
X55258700Y49911200D01*
X45895500Y46248500D02*
X45895500Y45786000D01*
X48260000Y43791500D02*
X48260000Y39497000D01*
X48260000Y39497000D02*
X48006000Y39243000D01*
X44826300Y47317700D02*
X45895500Y46248500D01*
%TO.N,Net-(Q3-G)*%
X52959500Y37060000D02*
X52959000Y37060500D01*
X55019000Y37135500D02*
X55094500Y37211000D01*
X50954000Y37060000D02*
X50676000Y37338000D01*
X54944000Y37060000D02*
X52959500Y37060000D01*
X55019000Y37135500D02*
X54944000Y37060000D01*
X52959500Y37060000D02*
X50954000Y37060000D01*
X55094000Y37211000D02*
X55019000Y37135500D01*
%TO.N,Net-(Q5-G)*%
X56423950Y43880000D02*
X56242662Y43880000D01*
X52601500Y48895000D02*
X54734000Y48895000D01*
X57785000Y42518950D02*
X56423950Y43880000D01*
X55884000Y48075000D02*
X55064000Y48895000D01*
X57785000Y41425500D02*
X57785000Y42518950D01*
X52451000Y49045500D02*
X52601500Y48895000D01*
X56242662Y43880000D02*
X55884000Y44238662D01*
X55064000Y48895000D02*
X54734000Y48895000D01*
X55884000Y44238662D02*
X55884000Y48075000D01*
%TO.N,Net-(U1-ILIM_HIZ)*%
X35837500Y35179000D02*
X37568500Y35179000D01*
X33750517Y30727500D02*
X34225000Y31201983D01*
X33185700Y30727500D02*
X33750517Y30727500D01*
%TO.N,Net-(U1-TS)*%
X35687000Y37361500D02*
X35837500Y37211000D01*
X35687000Y39219500D02*
X35687000Y37361500D01*
X35687000Y39219500D02*
X37719000Y39219500D01*
%TO.N,Net-(U1-BATP)*%
X35560000Y33147000D02*
X39854500Y33147000D01*
X39854500Y33147000D02*
X40489500Y32512000D01*
X34925000Y30912033D02*
X34925000Y32512000D01*
X34340467Y30327500D02*
X34925000Y30912033D01*
X33210700Y30327500D02*
X34340467Y30327500D01*
X34925000Y32512000D02*
X35560000Y33147000D01*
%TO.N,Net-(U1-PROG)*%
X37568500Y28575000D02*
X37568000Y28575000D01*
X33236000Y29528000D02*
X34683000Y29528000D01*
X34683000Y29528000D02*
X35000000Y29210000D01*
X35000000Y29210000D02*
X36933000Y29210000D01*
X36933000Y29210000D02*
X37568000Y28575000D01*
%TO.N,Net-(U3-PCHG)*%
X58469744Y40413000D02*
X57273100Y40413000D01*
X57277000Y35505571D02*
X58785000Y37013571D01*
X49934500Y47751600D02*
X49934500Y47752000D01*
X58785000Y37013571D02*
X58785000Y40097744D01*
X56480000Y30829000D02*
X56480000Y31509674D01*
X50719100Y46967000D02*
X49934500Y47751600D01*
X57273100Y40413000D02*
X50719100Y46967000D01*
X50719100Y46967000D02*
X49934000Y47752000D01*
X56480000Y31509674D02*
X57277000Y32306674D01*
X58785000Y40097744D02*
X58469744Y40413000D01*
X57277000Y32306674D02*
X57277000Y35505571D01*
%TO.N,Net-(U3-VCC)*%
X54880000Y30829000D02*
X54880000Y31710500D01*
X54880000Y31710500D02*
X53721000Y32869500D01*
%TO.N,Net-(U3-PACK)*%
X55280000Y32396500D02*
X55280000Y30829000D01*
X55753000Y32869500D02*
X55280000Y32396500D01*
%TO.N,Net-(U3-DSG)*%
X57785000Y36579257D02*
X57785000Y39600500D01*
X55680000Y31275360D02*
X56877000Y32472360D01*
X55680000Y30829000D02*
X55680000Y31275360D01*
X56877000Y35671257D02*
X57785000Y36579257D01*
X56877000Y32472360D02*
X56877000Y35671257D01*
%TO.N,Net-(U3-CHG)*%
X56880000Y31343988D02*
X57895000Y32358988D01*
X57895000Y35133620D02*
X58454990Y35693610D01*
X56919498Y37211002D02*
X56919496Y37211002D01*
X56880000Y30829000D02*
X56880000Y31343988D01*
X56919500Y37211000D02*
X56919498Y37211002D01*
X57895000Y32358988D02*
X57895000Y35133620D01*
%TO.N,Net-(U3-~{DISP})*%
X53198372Y27429000D02*
X46724372Y20955000D01*
X44287000Y7010000D02*
X44287000Y13310000D01*
X46724372Y20955000D02*
X44577000Y20955000D01*
X53880000Y27429000D02*
X53198372Y27429000D01*
%TO.N,Net-(U3-TS1)*%
X56880000Y26217315D02*
X57443315Y25654000D01*
X56880000Y26829000D02*
X56880000Y26217315D01*
X57443315Y25654000D02*
X61595000Y25654000D01*
X61595000Y25654000D02*
X61722000Y25527000D01*
%TO.N,Net-(U3-TS2)*%
X56480000Y25842050D02*
X57368050Y24954000D01*
X57368050Y24954000D02*
X59436004Y24954000D01*
X56480000Y26829000D02*
X56480000Y25842050D01*
%TO.N,Net-(U3-PTC)*%
X46228000Y30838000D02*
X46228500Y30838000D01*
X53230000Y30050365D02*
X53230000Y30032640D01*
X52442365Y30838000D02*
X53230000Y30050365D01*
X46228500Y30838000D02*
X52442365Y30838000D01*
X53230000Y30032640D02*
X53433640Y29829000D01*
X53433640Y29829000D02*
X53880000Y29829000D01*
X46228500Y30838000D02*
X46228000Y30837500D01*
%TO.N,/Fuel Gauge/SCL*%
X37211000Y52098736D02*
X33552900Y48440636D01*
X40497100Y64359600D02*
X37211000Y61073500D01*
X51024950Y27629000D02*
X47373570Y27629000D01*
X31936000Y32120686D02*
X31936000Y31428000D01*
X34723364Y45509000D02*
X34781050Y45509000D01*
X35025000Y34494256D02*
X34825000Y34494256D01*
X51624950Y28229000D02*
X51024950Y27629000D01*
X41097525Y36981425D02*
X41097525Y39192525D01*
X35340256Y34179000D02*
X35025000Y34494256D01*
X34825000Y34494256D02*
X34509744Y34179000D01*
X67818000Y61160000D02*
X64618400Y64359600D01*
X37071256Y34179000D02*
X36756000Y34494256D01*
X36334744Y34179000D02*
X35340256Y34179000D01*
X64618400Y64359600D02*
X40497100Y64359600D01*
X33552900Y48440636D02*
X33552900Y46679464D01*
X53880000Y28229000D02*
X51624950Y28229000D01*
X33994314Y34179000D02*
X31936000Y32120686D01*
X38381000Y34494256D02*
X38065744Y34179000D01*
X44769000Y30233570D02*
X44769000Y33309950D01*
X41097525Y39192525D02*
X38381000Y36476000D01*
X47373570Y27629000D02*
X44769000Y30233570D01*
X37211000Y61073500D02*
X37211000Y52098736D01*
X36756000Y34494256D02*
X36650000Y34494256D01*
X38065744Y34179000D02*
X37071256Y34179000D01*
X34509744Y34179000D02*
X33994314Y34179000D01*
X38381000Y36476000D02*
X38381000Y34494256D01*
X34781050Y45509000D02*
X41148000Y39142050D01*
X36650000Y34494256D02*
X36334744Y34179000D01*
X33552900Y46679464D02*
X34723364Y45509000D01*
X67818000Y60198000D02*
X67818000Y61160000D01*
X44769000Y33309950D02*
X41097525Y36981425D01*
%TO.N,/Fuel Gauge/SDA*%
X43434000Y33909000D02*
X44323000Y33020000D01*
X32336000Y31955000D02*
X34160000Y33779000D01*
X38231430Y33779000D02*
X38361430Y33909000D01*
X38361430Y33909000D02*
X43434000Y33909000D01*
X53880000Y27829000D02*
X52118450Y27829000D01*
X51518450Y27229000D02*
X46570141Y27229000D01*
X46570141Y27229000D02*
X43316717Y30482424D01*
X32336000Y31428000D02*
X32336000Y31955000D01*
X52118450Y27829000D02*
X51518450Y27229000D01*
X34160000Y33779000D02*
X38231430Y33779000D01*
X72898000Y57658000D02*
X72898000Y48133000D01*
X72898000Y48133000D02*
X64643000Y39878000D01*
X44323000Y33020000D02*
X44323000Y31488707D01*
X44323000Y31488707D02*
X43316717Y30482424D01*
X72898000Y60198000D02*
X72898000Y57658000D01*
%TO.N,/Fuel Gauge/SR+*%
X74803000Y31435000D02*
X77000000Y31435000D01*
X77000000Y31435000D02*
X77065500Y31369500D01*
X77065500Y31369500D02*
X77066000Y31369000D01*
X57880000Y27429000D02*
X62761000Y27429000D01*
X62773000Y27441000D02*
X70809000Y27441000D01*
X77065500Y31369500D02*
X77065500Y31369000D01*
X62761000Y27429000D02*
X62773000Y27441000D01*
X70809000Y27441000D02*
X74803000Y31435000D01*
%TO.N,/Fuel Gauge/SR-*%
X74803000Y33335000D02*
X69309000Y27841000D01*
X77065500Y33528000D02*
X74996000Y33528000D01*
X77066000Y33528000D02*
X77065500Y33528000D01*
X59154000Y27841000D02*
X58766000Y28229000D01*
X69309000Y27841000D02*
X59154000Y27841000D01*
X74996000Y33528000D02*
X74803000Y33335000D01*
X58766000Y28229000D02*
X57880000Y28229000D01*
%TO.N,Net-(U1-PMID)*%
X29070000Y25924000D02*
X30174000Y27028000D01*
D59*
X29070000Y25400000D02*
X27244000Y25400000D01*
D58*
X30174000Y27028000D02*
X30182000Y27028000D01*
D59*
X27244000Y25400000D02*
X27178000Y25334000D01*
X25019000Y25334000D02*
X22860000Y25334000D01*
X27178000Y25334000D02*
X25019000Y25334000D01*
D58*
X30182000Y27028000D02*
X30536000Y27381000D01*
X29070000Y25400000D02*
X29070000Y25924000D01*
X30536000Y27381000D02*
X30536000Y27928000D01*
%TD*%
%TA.AperFunction,Conductor*%
%TO.N,GND*%
G36*
X86037621Y65755498D02*
G01*
X86084114Y65701842D01*
X86095500Y65649500D01*
X86095500Y5470500D01*
X86075498Y5402379D01*
X86021842Y5355886D01*
X85969500Y5344500D01*
X60812059Y5344500D01*
X60743938Y5364502D01*
X60697445Y5418158D01*
X60687341Y5488432D01*
X60716835Y5553012D01*
X60722963Y5559595D01*
X60891372Y5728004D01*
X61087964Y5924597D01*
X61150275Y5958620D01*
X61177058Y5961500D01*
X61963994Y5961500D01*
X61964000Y5961500D01*
X62035940Y5966645D01*
X62173992Y6007181D01*
X62295032Y6084969D01*
X62389254Y6193706D01*
X62449024Y6324584D01*
X62469500Y6467000D01*
X62469500Y7482745D01*
X62469605Y7487881D01*
X62471201Y7527009D01*
X62471252Y7528255D01*
X62470561Y7582358D01*
X62440692Y7723104D01*
X62413266Y7797793D01*
X62391918Y7847525D01*
X62310460Y7966125D01*
X62256539Y8024632D01*
X62217795Y8062399D01*
X62217792Y8062401D01*
X62217791Y8062402D01*
X62217788Y8062404D01*
X62097154Y8140800D01*
X62097147Y8140804D01*
X62024950Y8174220D01*
X61974685Y8194292D01*
X61834817Y8220259D01*
X61833223Y8220555D01*
X61833222Y8220556D01*
X61833217Y8220556D01*
X61753739Y8223798D01*
X61753728Y8223798D01*
X61753725Y8223798D01*
X61745530Y8223694D01*
X61699624Y8223108D01*
X61699623Y8223107D01*
X61558875Y8193238D01*
X61542404Y8187190D01*
X61533991Y8184432D01*
X61409331Y8148371D01*
X61392014Y8144658D01*
X61285609Y8129564D01*
X61267942Y8128315D01*
X61160476Y8128290D01*
X61142811Y8129530D01*
X61036401Y8144572D01*
X61019081Y8148278D01*
X60894417Y8184276D01*
X60886004Y8187029D01*
X60869525Y8193071D01*
X60817795Y8208954D01*
X60674655Y8223540D01*
X60595145Y8220259D01*
X60541287Y8215137D01*
X60541280Y8215135D01*
X60471727Y8194292D01*
X60404751Y8174221D01*
X60403456Y8173833D01*
X60403452Y8173832D01*
X60331297Y8140395D01*
X60331254Y8140373D01*
X60283465Y8115036D01*
X60172548Y8024634D01*
X60171935Y8024134D01*
X60168607Y8020519D01*
X60118043Y7965603D01*
X60083566Y7923880D01*
X60015316Y7797218D01*
X60015315Y7797217D01*
X59987932Y7722533D01*
X59987925Y7722513D01*
X59972046Y7670797D01*
X59972046Y7670795D01*
X59957460Y7527656D01*
X59958393Y7505049D01*
X59958500Y7499855D01*
X59958500Y6970058D01*
X59938498Y6901937D01*
X59921595Y6880963D01*
X59840037Y6799405D01*
X59777725Y6765379D01*
X59750942Y6762500D01*
X59547500Y6762500D01*
X59479379Y6782502D01*
X59432886Y6836158D01*
X59421500Y6888500D01*
X59421500Y7482745D01*
X59421605Y7487881D01*
X59423201Y7527009D01*
X59423252Y7528255D01*
X59422561Y7582358D01*
X59392692Y7723104D01*
X59365266Y7797793D01*
X59343918Y7847525D01*
X59262460Y7966125D01*
X59208539Y8024632D01*
X59169795Y8062399D01*
X59169792Y8062401D01*
X59169791Y8062402D01*
X59169788Y8062404D01*
X59049154Y8140800D01*
X59049147Y8140804D01*
X58976950Y8174220D01*
X58926685Y8194292D01*
X58786817Y8220259D01*
X58785223Y8220555D01*
X58785222Y8220556D01*
X58785217Y8220556D01*
X58705739Y8223798D01*
X58705728Y8223798D01*
X58705725Y8223798D01*
X58697530Y8223694D01*
X58651624Y8223108D01*
X58651623Y8223107D01*
X58510875Y8193238D01*
X58494404Y8187190D01*
X58485991Y8184432D01*
X58361331Y8148371D01*
X58344014Y8144658D01*
X58237609Y8129564D01*
X58219942Y8128315D01*
X58112476Y8128290D01*
X58094811Y8129530D01*
X57988401Y8144572D01*
X57971081Y8148278D01*
X57846417Y8184276D01*
X57838004Y8187029D01*
X57821525Y8193071D01*
X57769795Y8208954D01*
X57626655Y8223540D01*
X57547145Y8220259D01*
X57493287Y8215137D01*
X57493280Y8215135D01*
X57423727Y8194292D01*
X57356751Y8174221D01*
X57355456Y8173833D01*
X57355452Y8173832D01*
X57283297Y8140395D01*
X57283254Y8140373D01*
X57235465Y8115036D01*
X57124548Y8024634D01*
X57123935Y8024134D01*
X57120607Y8020519D01*
X57070043Y7965603D01*
X57035561Y7923875D01*
X57032108Y7918743D01*
X57029829Y7920277D01*
X56988224Y7878232D01*
X56927258Y7862500D01*
X56351950Y7862500D01*
X56283829Y7882502D01*
X56248089Y7917164D01*
X56214463Y7966121D01*
X56214462Y7966123D01*
X56214460Y7966125D01*
X56160539Y8024632D01*
X56121795Y8062399D01*
X56121792Y8062401D01*
X56121791Y8062402D01*
X56121788Y8062404D01*
X56001154Y8140800D01*
X56001147Y8140804D01*
X55928950Y8174220D01*
X55878685Y8194292D01*
X55738817Y8220259D01*
X55737223Y8220555D01*
X55737222Y8220556D01*
X55737217Y8220556D01*
X55657739Y8223798D01*
X55657728Y8223798D01*
X55657725Y8223798D01*
X55649530Y8223694D01*
X55603624Y8223108D01*
X55603623Y8223107D01*
X55462875Y8193238D01*
X55446404Y8187190D01*
X55437991Y8184432D01*
X55313331Y8148371D01*
X55296014Y8144658D01*
X55189609Y8129564D01*
X55171942Y8128315D01*
X55064476Y8128290D01*
X55046811Y8129530D01*
X54940401Y8144572D01*
X54923081Y8148278D01*
X54798417Y8184276D01*
X54790004Y8187029D01*
X54773525Y8193071D01*
X54721795Y8208954D01*
X54578655Y8223540D01*
X54499145Y8220259D01*
X54445287Y8215137D01*
X54445280Y8215135D01*
X54375727Y8194292D01*
X54308751Y8174221D01*
X54307456Y8173833D01*
X54307452Y8173832D01*
X54235297Y8140395D01*
X54235254Y8140373D01*
X54187465Y8115036D01*
X54076548Y8024634D01*
X54075935Y8024134D01*
X54072607Y8020519D01*
X54022043Y7965603D01*
X53987561Y7923875D01*
X53984108Y7918743D01*
X53981829Y7920277D01*
X53940224Y7878232D01*
X53879258Y7862500D01*
X53176950Y7862500D01*
X53108829Y7882502D01*
X53073089Y7917164D01*
X53039463Y7966121D01*
X53039462Y7966123D01*
X53039460Y7966125D01*
X52985539Y8024632D01*
X52946795Y8062399D01*
X52946792Y8062401D01*
X52946791Y8062402D01*
X52946788Y8062404D01*
X52826154Y8140800D01*
X52826147Y8140804D01*
X52753950Y8174220D01*
X52703685Y8194292D01*
X52563817Y8220259D01*
X52562223Y8220555D01*
X52562222Y8220556D01*
X52562217Y8220556D01*
X52482739Y8223798D01*
X52482728Y8223798D01*
X52482725Y8223798D01*
X52474530Y8223694D01*
X52428624Y8223108D01*
X52428623Y8223107D01*
X52287875Y8193238D01*
X52271404Y8187190D01*
X52262991Y8184432D01*
X52138331Y8148371D01*
X52121014Y8144658D01*
X52014609Y8129564D01*
X51996942Y8128315D01*
X51889476Y8128290D01*
X51871811Y8129530D01*
X51765401Y8144572D01*
X51748081Y8148278D01*
X51623417Y8184276D01*
X51615004Y8187029D01*
X51598525Y8193071D01*
X51546795Y8208954D01*
X51403655Y8223540D01*
X51324145Y8220259D01*
X51270287Y8215137D01*
X51270280Y8215135D01*
X51200727Y8194292D01*
X51133751Y8174221D01*
X51132456Y8173833D01*
X51132452Y8173832D01*
X51060297Y8140395D01*
X51060254Y8140373D01*
X51012465Y8115036D01*
X50901548Y8024634D01*
X50900935Y8024134D01*
X50897607Y8020519D01*
X50847043Y7965603D01*
X50812561Y7923875D01*
X50809108Y7918743D01*
X50806829Y7920277D01*
X50765224Y7878232D01*
X50704258Y7862500D01*
X50128950Y7862500D01*
X50060829Y7882502D01*
X50025089Y7917164D01*
X49991463Y7966121D01*
X49991462Y7966123D01*
X49991460Y7966125D01*
X49937539Y8024632D01*
X49898795Y8062399D01*
X49898792Y8062401D01*
X49898791Y8062402D01*
X49898788Y8062404D01*
X49778154Y8140800D01*
X49778147Y8140804D01*
X49705950Y8174220D01*
X49655685Y8194292D01*
X49515817Y8220259D01*
X49514223Y8220555D01*
X49514222Y8220556D01*
X49514217Y8220556D01*
X49434739Y8223798D01*
X49434728Y8223798D01*
X49434725Y8223798D01*
X49426530Y8223694D01*
X49380624Y8223108D01*
X49380623Y8223107D01*
X49239875Y8193238D01*
X49223404Y8187190D01*
X49214991Y8184432D01*
X49090331Y8148371D01*
X49073014Y8144658D01*
X48966609Y8129564D01*
X48948942Y8128315D01*
X48841476Y8128290D01*
X48823811Y8129530D01*
X48717401Y8144572D01*
X48700081Y8148278D01*
X48575417Y8184276D01*
X48567004Y8187029D01*
X48550525Y8193071D01*
X48498795Y8208954D01*
X48355655Y8223540D01*
X48276156Y8220259D01*
X48258078Y8218540D01*
X48188370Y8232006D01*
X48176154Y8239209D01*
X48135056Y8266669D01*
X48135055Y8266669D01*
X48107495Y8285084D01*
X47975493Y8339761D01*
X47970916Y8341657D01*
X47970913Y8341658D01*
X47935511Y8348700D01*
X47825918Y8370500D01*
X47825916Y8370500D01*
X47529987Y8370500D01*
X47461866Y8390502D01*
X47455925Y8394565D01*
X47442734Y8404149D01*
X47442732Y8404151D01*
X47284276Y8474700D01*
X47269803Y8481144D01*
X47269801Y8481145D01*
X47269800Y8481145D01*
X47084646Y8520500D01*
X47016500Y8520500D01*
X46948379Y8540502D01*
X46901886Y8594158D01*
X46890500Y8646500D01*
X46890500Y8692944D01*
X46910502Y8761065D01*
X46927400Y8782035D01*
X47968952Y9823587D01*
X48031262Y9857610D01*
X48102077Y9852546D01*
X48104770Y9851506D01*
X48127016Y9842624D01*
X48134314Y9839709D01*
X48275777Y9813445D01*
X48355275Y9810202D01*
X48409376Y9810893D01*
X48550122Y9840762D01*
X48566604Y9846815D01*
X48574983Y9849563D01*
X48699677Y9885634D01*
X48716974Y9889342D01*
X48823401Y9904439D01*
X48841043Y9905687D01*
X48948523Y9905712D01*
X48966186Y9904473D01*
X49072604Y9889429D01*
X49089914Y9885725D01*
X49214596Y9849722D01*
X49222987Y9846976D01*
X49239483Y9840927D01*
X49291206Y9825046D01*
X49434345Y9810460D01*
X49513842Y9813741D01*
X49513851Y9813742D01*
X49513854Y9813742D01*
X49528427Y9815128D01*
X49567716Y9818864D01*
X49705541Y9860166D01*
X49725841Y9869574D01*
X49777702Y9893606D01*
X49777713Y9893612D01*
X49777731Y9893620D01*
X49825537Y9918966D01*
X49937065Y10009866D01*
X49990958Y10068399D01*
X50025433Y10110119D01*
X50025434Y10110122D01*
X50025438Y10110126D01*
X50028892Y10115257D01*
X50031170Y10113724D01*
X50072776Y10155768D01*
X50133742Y10171500D01*
X50709050Y10171500D01*
X50777171Y10151498D01*
X50812911Y10116836D01*
X50846536Y10067880D01*
X50846537Y10067879D01*
X50846540Y10067875D01*
X50900461Y10009368D01*
X50939205Y9971601D01*
X50939207Y9971600D01*
X50939208Y9971599D01*
X50939211Y9971597D01*
X51059845Y9893201D01*
X51059852Y9893197D01*
X51132049Y9859781D01*
X51132053Y9859780D01*
X51132054Y9859779D01*
X51182314Y9839709D01*
X51323777Y9813445D01*
X51403275Y9810202D01*
X51457376Y9810893D01*
X51598122Y9840762D01*
X51614604Y9846815D01*
X51622983Y9849563D01*
X51747677Y9885634D01*
X51764974Y9889342D01*
X51871401Y9904439D01*
X51889043Y9905687D01*
X51996523Y9905712D01*
X52014186Y9904473D01*
X52120604Y9889429D01*
X52137914Y9885725D01*
X52262596Y9849722D01*
X52270987Y9846976D01*
X52287483Y9840927D01*
X52339206Y9825046D01*
X52482345Y9810460D01*
X52561842Y9813741D01*
X52561851Y9813742D01*
X52561854Y9813742D01*
X52576427Y9815128D01*
X52615716Y9818864D01*
X52753541Y9860166D01*
X52773841Y9869574D01*
X52825702Y9893606D01*
X52825713Y9893612D01*
X52825731Y9893620D01*
X52873537Y9918966D01*
X52985065Y10009866D01*
X53038958Y10068399D01*
X53073433Y10110119D01*
X53141683Y10236781D01*
X53169073Y10311483D01*
X53184954Y10363206D01*
X53199540Y10506345D01*
X53198607Y10528954D01*
X53198500Y10534147D01*
X53198500Y11566995D01*
X53198133Y11572120D01*
X53193355Y11638940D01*
X53183427Y11672752D01*
X53183427Y11743748D01*
X53221810Y11803474D01*
X53286391Y11832967D01*
X53356665Y11822864D01*
X53393418Y11797345D01*
X53486459Y11704304D01*
X53486473Y11704292D01*
X53825595Y11365170D01*
X53859621Y11302858D01*
X53862500Y11276075D01*
X53862500Y10551257D01*
X53862395Y10546121D01*
X53860748Y10505768D01*
X53860748Y10505750D01*
X53861439Y10451642D01*
X53891306Y10310905D01*
X53891309Y10310892D01*
X53918734Y10236207D01*
X53940081Y10186476D01*
X54021537Y10067879D01*
X54021540Y10067875D01*
X54075461Y10009368D01*
X54114205Y9971601D01*
X54114207Y9971600D01*
X54114208Y9971599D01*
X54114211Y9971597D01*
X54234845Y9893201D01*
X54234852Y9893197D01*
X54307049Y9859781D01*
X54307053Y9859780D01*
X54307054Y9859779D01*
X54357314Y9839709D01*
X54498777Y9813445D01*
X54578275Y9810202D01*
X54632376Y9810893D01*
X54773122Y9840762D01*
X54789604Y9846815D01*
X54797983Y9849563D01*
X54922677Y9885634D01*
X54939974Y9889342D01*
X55046401Y9904439D01*
X55064043Y9905687D01*
X55171523Y9905712D01*
X55189186Y9904473D01*
X55295604Y9889429D01*
X55312914Y9885725D01*
X55437596Y9849722D01*
X55445987Y9846976D01*
X55462483Y9840927D01*
X55514206Y9825046D01*
X55657345Y9810460D01*
X55736842Y9813741D01*
X55736851Y9813742D01*
X55736854Y9813742D01*
X55751427Y9815128D01*
X55790716Y9818864D01*
X55928541Y9860166D01*
X55948841Y9869574D01*
X56000702Y9893606D01*
X56000713Y9893612D01*
X56000731Y9893620D01*
X56048537Y9918966D01*
X56160065Y10009866D01*
X56213958Y10068399D01*
X56248433Y10110119D01*
X56248434Y10110122D01*
X56248438Y10110126D01*
X56251892Y10115257D01*
X56254170Y10113724D01*
X56295776Y10155768D01*
X56356742Y10171500D01*
X56932050Y10171500D01*
X57000171Y10151498D01*
X57035911Y10116836D01*
X57069536Y10067880D01*
X57069537Y10067879D01*
X57069540Y10067875D01*
X57123461Y10009368D01*
X57162205Y9971601D01*
X57162207Y9971600D01*
X57162208Y9971599D01*
X57162211Y9971597D01*
X57282845Y9893201D01*
X57282852Y9893197D01*
X57355049Y9859781D01*
X57355053Y9859780D01*
X57355054Y9859779D01*
X57405314Y9839709D01*
X57546777Y9813445D01*
X57626275Y9810202D01*
X57680376Y9810893D01*
X57821122Y9840762D01*
X57837604Y9846815D01*
X57845983Y9849563D01*
X57970677Y9885634D01*
X57987974Y9889342D01*
X58094401Y9904439D01*
X58112043Y9905687D01*
X58219523Y9905712D01*
X58237186Y9904473D01*
X58343604Y9889429D01*
X58360914Y9885725D01*
X58485596Y9849722D01*
X58493987Y9846976D01*
X58510483Y9840927D01*
X58562206Y9825046D01*
X58705345Y9810460D01*
X58784842Y9813741D01*
X58784851Y9813742D01*
X58784854Y9813742D01*
X58799427Y9815128D01*
X58838716Y9818864D01*
X58976541Y9860166D01*
X58996841Y9869574D01*
X59048702Y9893606D01*
X59048713Y9893612D01*
X59048731Y9893620D01*
X59096537Y9918966D01*
X59208065Y10009866D01*
X59261958Y10068399D01*
X59296433Y10110119D01*
X59296434Y10110122D01*
X59296438Y10110126D01*
X59299892Y10115257D01*
X59302170Y10113724D01*
X59343776Y10155768D01*
X59404742Y10171500D01*
X59980050Y10171500D01*
X60048171Y10151498D01*
X60083911Y10116836D01*
X60117536Y10067880D01*
X60117537Y10067879D01*
X60117540Y10067875D01*
X60171461Y10009368D01*
X60210205Y9971601D01*
X60210207Y9971600D01*
X60210208Y9971599D01*
X60210211Y9971597D01*
X60330845Y9893201D01*
X60330852Y9893197D01*
X60403049Y9859781D01*
X60403053Y9859780D01*
X60403054Y9859779D01*
X60453314Y9839709D01*
X60594777Y9813445D01*
X60674275Y9810202D01*
X60728376Y9810893D01*
X60869122Y9840762D01*
X60885604Y9846815D01*
X60893983Y9849563D01*
X61018677Y9885634D01*
X61035974Y9889342D01*
X61142401Y9904439D01*
X61160043Y9905687D01*
X61267523Y9905712D01*
X61285186Y9904473D01*
X61391604Y9889429D01*
X61408914Y9885725D01*
X61533596Y9849722D01*
X61541987Y9846976D01*
X61558483Y9840927D01*
X61610206Y9825046D01*
X61753345Y9810460D01*
X61832842Y9813741D01*
X61832851Y9813742D01*
X61832854Y9813742D01*
X61847427Y9815128D01*
X61886716Y9818864D01*
X62024541Y9860166D01*
X62044841Y9869574D01*
X62096702Y9893606D01*
X62096713Y9893612D01*
X62096731Y9893620D01*
X62144537Y9918966D01*
X62256065Y10009866D01*
X62309958Y10068399D01*
X62344433Y10110119D01*
X62412683Y10236781D01*
X62440073Y10311483D01*
X62455954Y10363206D01*
X62470540Y10506345D01*
X62469607Y10528954D01*
X62469500Y10534147D01*
X62469500Y11566995D01*
X62469133Y11572120D01*
X62464355Y11638940D01*
X62423819Y11776992D01*
X62346031Y11898032D01*
X62237294Y11992254D01*
X62106416Y12052024D01*
X61964000Y12072500D01*
X60464000Y12072500D01*
X60438588Y12070683D01*
X60392063Y12067356D01*
X60392055Y12067354D01*
X60254008Y12026819D01*
X60254006Y12026818D01*
X60132968Y11949032D01*
X60038746Y11840295D01*
X60030978Y11823284D01*
X60003448Y11763001D01*
X59995756Y11746158D01*
X59949263Y11692502D01*
X59881142Y11672500D01*
X59500823Y11672500D01*
X59432702Y11692502D01*
X59386209Y11746158D01*
X59379927Y11763001D01*
X59375819Y11776992D01*
X59298031Y11898032D01*
X59189294Y11992254D01*
X59058416Y12052024D01*
X58916000Y12072500D01*
X57416000Y12072500D01*
X57390588Y12070683D01*
X57344063Y12067356D01*
X57344055Y12067354D01*
X57206008Y12026819D01*
X57206006Y12026818D01*
X57084968Y11949032D01*
X56990746Y11840295D01*
X56982978Y11823284D01*
X56955448Y11763001D01*
X56947756Y11746158D01*
X56901263Y11692502D01*
X56833142Y11672500D01*
X56452823Y11672500D01*
X56384702Y11692502D01*
X56338209Y11746158D01*
X56331927Y11763001D01*
X56327819Y11776992D01*
X56250031Y11898032D01*
X56141294Y11992254D01*
X56010416Y12052024D01*
X55868000Y12072500D01*
X55867997Y12072500D01*
X54868925Y12072500D01*
X54800804Y12092502D01*
X54779830Y12109405D01*
X54485405Y12403830D01*
X54451379Y12466142D01*
X54448500Y12492925D01*
X54448500Y21859053D01*
X54468502Y21927174D01*
X54522158Y21973667D01*
X54592432Y21983771D01*
X54648562Y21960988D01*
X54656693Y21955081D01*
X54665268Y21948850D01*
X54665269Y21948850D01*
X54665270Y21948849D01*
X54838197Y21871856D01*
X55023354Y21832500D01*
X55212642Y21832500D01*
X55212646Y21832500D01*
X55319429Y21855198D01*
X55390218Y21849796D01*
X55434719Y21821046D01*
X63624595Y13631170D01*
X63658621Y13568858D01*
X63661500Y13542075D01*
X63661500Y12818500D01*
X63641498Y12750379D01*
X63587842Y12703886D01*
X63535501Y12692500D01*
X63452136Y12692500D01*
X63452114Y12692498D01*
X63392519Y12686092D01*
X63392518Y12686092D01*
X63257673Y12635799D01*
X63257670Y12635797D01*
X63142453Y12549547D01*
X63056203Y12434330D01*
X63056201Y12434327D01*
X63005909Y12299485D01*
X62999500Y12239879D01*
X62999500Y10620136D01*
X62999502Y10620115D01*
X63005908Y10560520D01*
X63005908Y10560519D01*
X63056201Y10425674D01*
X63056203Y10425671D01*
X63142452Y10310456D01*
X63142453Y10310456D01*
X63142454Y10310454D01*
X63208693Y10260867D01*
X63251239Y10204032D01*
X63256303Y10133216D01*
X63222278Y10070904D01*
X63208697Y10059137D01*
X63175310Y10034142D01*
X63142452Y10009545D01*
X63056203Y9894330D01*
X63056203Y9894329D01*
X63005909Y9759485D01*
X62999500Y9699879D01*
X62999500Y8080136D01*
X62999502Y8080115D01*
X63005908Y8020520D01*
X63005908Y8020519D01*
X63056201Y7885674D01*
X63056203Y7885671D01*
X63056204Y7885669D01*
X63084759Y7847525D01*
X63142453Y7770454D01*
X63187143Y7737000D01*
X63257669Y7684204D01*
X63257671Y7684204D01*
X63257673Y7684202D01*
X63293615Y7670797D01*
X63392514Y7633910D01*
X63392517Y7633909D01*
X63452127Y7627500D01*
X65071872Y7627501D01*
X65131483Y7633909D01*
X65266331Y7684204D01*
X65381546Y7770454D01*
X65467796Y7885669D01*
X65471674Y7896065D01*
X65493909Y7955682D01*
X65518091Y8020517D01*
X65524500Y8080127D01*
X65524499Y9699872D01*
X65518091Y9759483D01*
X65468218Y9893199D01*
X65467797Y9894329D01*
X65467796Y9894330D01*
X65467796Y9894331D01*
X65381546Y10009546D01*
X65315306Y10059134D01*
X65272760Y10115968D01*
X65267696Y10186783D01*
X65301721Y10249095D01*
X65315302Y10260864D01*
X65381546Y10310454D01*
X65467796Y10425669D01*
X65518091Y10560517D01*
X65524500Y10620127D01*
X65524499Y12239872D01*
X65518091Y12299483D01*
X65479172Y12403830D01*
X65467798Y12434327D01*
X65467796Y12434330D01*
X65467796Y12434331D01*
X65423933Y12492925D01*
X65381546Y12549547D01*
X65286267Y12620872D01*
X65286258Y12620879D01*
X68079500Y12620879D01*
X68079500Y11001136D01*
X68079502Y11001115D01*
X68085908Y10941520D01*
X68085908Y10941519D01*
X68136201Y10806674D01*
X68136203Y10806671D01*
X68136204Y10806669D01*
X68179086Y10749386D01*
X68222452Y10691456D01*
X68222453Y10691456D01*
X68222454Y10691454D01*
X68288693Y10641867D01*
X68331239Y10585032D01*
X68336303Y10514216D01*
X68302278Y10451904D01*
X68288697Y10440137D01*
X68254061Y10414208D01*
X68222452Y10390545D01*
X68136203Y10275330D01*
X68136201Y10275327D01*
X68085909Y10140485D01*
X68079500Y10080879D01*
X68079500Y8461136D01*
X68079502Y8461115D01*
X68085908Y8401520D01*
X68085908Y8401519D01*
X68136201Y8266674D01*
X68136203Y8266671D01*
X68222453Y8151454D01*
X68253397Y8128290D01*
X68337669Y8065204D01*
X68337671Y8065204D01*
X68337673Y8065202D01*
X68398030Y8042691D01*
X68472514Y8014910D01*
X68472517Y8014909D01*
X68532127Y8008500D01*
X70151872Y8008501D01*
X70211483Y8014909D01*
X70325646Y8057490D01*
X70346326Y8065202D01*
X70346326Y8065203D01*
X70346331Y8065204D01*
X70461546Y8151454D01*
X70511133Y8217694D01*
X70567968Y8260240D01*
X70638783Y8265304D01*
X70701095Y8231279D01*
X70712863Y8217698D01*
X70762454Y8151454D01*
X70877669Y8065204D01*
X70877671Y8065204D01*
X70877673Y8065202D01*
X70938030Y8042691D01*
X71012514Y8014910D01*
X71012517Y8014909D01*
X71072127Y8008500D01*
X72691872Y8008501D01*
X72751483Y8014909D01*
X72865646Y8057490D01*
X72886326Y8065202D01*
X72886326Y8065203D01*
X72886331Y8065204D01*
X73001546Y8151454D01*
X73087796Y8266669D01*
X73138091Y8401517D01*
X73144500Y8461127D01*
X73144499Y10080872D01*
X73138091Y10140483D01*
X73106865Y10224204D01*
X73087798Y10275327D01*
X73087796Y10275330D01*
X73087796Y10275331D01*
X73001546Y10390546D01*
X72935306Y10440134D01*
X72892760Y10496968D01*
X72887696Y10567783D01*
X72921721Y10630095D01*
X72935302Y10641864D01*
X73001546Y10691454D01*
X73087796Y10806669D01*
X73138091Y10941517D01*
X73144500Y11001127D01*
X73144499Y12620872D01*
X73138091Y12680483D01*
X73112022Y12750379D01*
X73087798Y12815327D01*
X73087796Y12815330D01*
X73087796Y12815331D01*
X73017723Y12908937D01*
X73001546Y12930547D01*
X72924591Y12988155D01*
X72886331Y13016796D01*
X72886329Y13016797D01*
X72886326Y13016799D01*
X72751483Y13067091D01*
X72751486Y13067091D01*
X72691873Y13073500D01*
X71072135Y13073500D01*
X71072114Y13073498D01*
X71012519Y13067092D01*
X71012518Y13067092D01*
X70877673Y13016799D01*
X70877670Y13016797D01*
X70762455Y12930548D01*
X70762454Y12930546D01*
X70712866Y12864307D01*
X70656032Y12821761D01*
X70585216Y12816697D01*
X70522904Y12850722D01*
X70511136Y12864303D01*
X70461546Y12930546D01*
X70461544Y12930547D01*
X70461544Y12930548D01*
X70403614Y12973914D01*
X70346331Y13016796D01*
X70346329Y13016797D01*
X70346326Y13016799D01*
X70211483Y13067091D01*
X70211486Y13067091D01*
X70151873Y13073500D01*
X68532135Y13073500D01*
X68532114Y13073498D01*
X68472519Y13067092D01*
X68472518Y13067092D01*
X68337673Y13016799D01*
X68337670Y13016797D01*
X68222453Y12930547D01*
X68136203Y12815330D01*
X68136201Y12815327D01*
X68085909Y12680485D01*
X68079500Y12620879D01*
X65286258Y12620879D01*
X65266331Y12635796D01*
X65266329Y12635797D01*
X65266326Y12635799D01*
X65131483Y12686091D01*
X65131486Y12686091D01*
X65071878Y12692500D01*
X65071873Y12692500D01*
X64988500Y12692500D01*
X64920379Y12712502D01*
X64873886Y12766158D01*
X64862500Y12818500D01*
X64862500Y13753779D01*
X64862501Y13753792D01*
X64862501Y13922057D01*
X64862500Y13922061D01*
X64821577Y14074784D01*
X64821576Y14074787D01*
X64742522Y14211713D01*
X64742514Y14211723D01*
X56010959Y22943276D01*
X55980221Y22993436D01*
X55945182Y23101277D01*
X55945179Y23101282D01*
X55945179Y23101284D01*
X55858158Y23252009D01*
X55850534Y23265215D01*
X55850533Y23265217D01*
X55723873Y23405887D01*
X55633476Y23471564D01*
X55590122Y23527786D01*
X55584047Y23598522D01*
X55617178Y23661314D01*
X55678998Y23696226D01*
X55707537Y23699500D01*
X57168728Y23699500D01*
X57231725Y23682621D01*
X57285296Y23651692D01*
X57285297Y23651691D01*
X57351577Y23613424D01*
X57351579Y23613424D01*
X57351580Y23613423D01*
X57357425Y23611857D01*
X57365414Y23609716D01*
X57365413Y23609716D01*
X57365428Y23609713D01*
X57504304Y23572500D01*
X57662419Y23572499D01*
X57662423Y23572500D01*
X61271159Y23572500D01*
X61271175Y23572499D01*
X61278893Y23572499D01*
X61437004Y23572499D01*
X61437007Y23572499D01*
X61589735Y23613423D01*
X61646534Y23646216D01*
X61726666Y23692480D01*
X61838470Y23804284D01*
X61848837Y23814651D01*
X61848844Y23814661D01*
X63731339Y25697156D01*
X63731349Y25697163D01*
X63853514Y25819328D01*
X63853520Y25819334D01*
X63914122Y25924301D01*
X63932577Y25956265D01*
X63947801Y26013084D01*
X63975871Y26064782D01*
X63978866Y26068109D01*
X63978871Y26068112D01*
X64105533Y26208784D01*
X64200179Y26372716D01*
X64210513Y26404519D01*
X64258674Y26552744D01*
X64277059Y26727670D01*
X64304072Y26793327D01*
X64362293Y26833957D01*
X64402369Y26840500D01*
X70722209Y26840500D01*
X70722225Y26840499D01*
X70729943Y26840499D01*
X70888054Y26840499D01*
X70888057Y26840499D01*
X71040785Y26881423D01*
X71119726Y26927000D01*
X71177716Y26960480D01*
X71289520Y27072284D01*
X71299887Y27082651D01*
X71299894Y27082661D01*
X74614830Y30397596D01*
X74677142Y30431622D01*
X74703925Y30434501D01*
X75328009Y30434501D01*
X75430797Y30445001D01*
X75597334Y30500186D01*
X75608934Y30507341D01*
X75746656Y30592288D01*
X75870712Y30716344D01*
X75870715Y30716351D01*
X75872916Y30719132D01*
X75874920Y30720552D01*
X75875902Y30721533D01*
X75876069Y30721366D01*
X75930855Y30760164D01*
X76001779Y30763358D01*
X76063172Y30727700D01*
X76091360Y30680620D01*
X76118185Y30599666D01*
X76210288Y30450344D01*
X76210293Y30450338D01*
X76334337Y30326294D01*
X76334343Y30326289D01*
X76334344Y30326288D01*
X76362848Y30308707D01*
X76483665Y30234186D01*
X76650196Y30179003D01*
X76650197Y30179003D01*
X76650203Y30179001D01*
X76752991Y30168500D01*
X77378008Y30168501D01*
X77378009Y30168501D01*
X77480797Y30179001D01*
X77647334Y30234186D01*
X77679782Y30254200D01*
X77796656Y30326288D01*
X77823368Y30353000D01*
X77888905Y30418536D01*
X77951217Y30452562D01*
X78022032Y30447497D01*
X78067095Y30418536D01*
X78159337Y30326294D01*
X78159343Y30326289D01*
X78159344Y30326288D01*
X78187848Y30308707D01*
X78308665Y30234186D01*
X78475196Y30179003D01*
X78475197Y30179003D01*
X78475203Y30179001D01*
X78577991Y30168500D01*
X79203008Y30168501D01*
X79203009Y30168501D01*
X79305797Y30179001D01*
X79305803Y30179003D01*
X79472334Y30234186D01*
X79597241Y30311229D01*
X79665718Y30329966D01*
X79733457Y30308707D01*
X79778949Y30254200D01*
X79787750Y30183751D01*
X79782991Y30164356D01*
X79750001Y30064799D01*
X79750000Y30064792D01*
X79739500Y29962018D01*
X79739500Y29136991D01*
X79750000Y29034203D01*
X79805185Y28867666D01*
X79897288Y28718344D01*
X79897293Y28718338D01*
X79991437Y28624194D01*
X80025463Y28561882D01*
X80020398Y28491067D01*
X79977851Y28434231D01*
X79915811Y28409821D01*
X79862518Y28404092D01*
X79727673Y28353799D01*
X79727670Y28353797D01*
X79612453Y28267547D01*
X79526203Y28152330D01*
X79526201Y28152327D01*
X79475909Y28017485D01*
X79469500Y27957879D01*
X79469500Y23862136D01*
X79469502Y23862115D01*
X79475908Y23802520D01*
X79475908Y23802519D01*
X79526201Y23667674D01*
X79526203Y23667671D01*
X79526204Y23667669D01*
X79538165Y23651691D01*
X79612453Y23552454D01*
X79666600Y23511920D01*
X79727669Y23466204D01*
X79727671Y23466204D01*
X79727673Y23466202D01*
X79788030Y23443691D01*
X79862514Y23415910D01*
X79862517Y23415909D01*
X79922127Y23409500D01*
X84017872Y23409501D01*
X84077483Y23415909D01*
X84212331Y23466204D01*
X84327546Y23552454D01*
X84413796Y23667669D01*
X84414911Y23670657D01*
X84425668Y23699500D01*
X84464091Y23802517D01*
X84470500Y23862127D01*
X84470499Y27957872D01*
X84464091Y28017483D01*
X84429025Y28111501D01*
X84413798Y28152327D01*
X84413796Y28152330D01*
X84413796Y28152331D01*
X84364339Y28218397D01*
X84327546Y28267547D01*
X84233295Y28338102D01*
X84212331Y28353796D01*
X84212329Y28353797D01*
X84212326Y28353799D01*
X84077483Y28404091D01*
X84077486Y28404091D01*
X84017878Y28410500D01*
X84017873Y28410500D01*
X83929059Y28410500D01*
X83860938Y28430502D01*
X83814445Y28484158D01*
X83804341Y28554432D01*
X83833835Y28619012D01*
X83839964Y28625595D01*
X83932706Y28718338D01*
X83932712Y28718344D01*
X84024814Y28867666D01*
X84079999Y29034203D01*
X84090500Y29136991D01*
X84090499Y29962008D01*
X84089512Y29971666D01*
X84079999Y30064798D01*
X84024814Y30231335D01*
X83932711Y30380657D01*
X83932706Y30380663D01*
X83808662Y30504707D01*
X83808656Y30504712D01*
X83659334Y30596815D01*
X83492803Y30651998D01*
X83492791Y30652000D01*
X83390017Y30662500D01*
X83390009Y30662500D01*
X82735931Y30662500D01*
X82667810Y30682502D01*
X82621317Y30736158D01*
X82619522Y30740282D01*
X82611287Y30760164D01*
X82580084Y30835495D01*
X82539990Y30895500D01*
X82528075Y30913332D01*
X82497954Y30958413D01*
X82497948Y30958421D01*
X81504420Y31951949D01*
X81504416Y31951952D01*
X81426019Y32004334D01*
X81410146Y32014940D01*
X81381495Y32034084D01*
X81381493Y32034085D01*
X81244916Y32090657D01*
X81244913Y32090658D01*
X81204303Y32098736D01*
X81099918Y32119500D01*
X81099916Y32119500D01*
X79919755Y32119500D01*
X79851634Y32139502D01*
X79812514Y32179353D01*
X79752747Y32276250D01*
X79745712Y32287656D01*
X79745711Y32287657D01*
X79745706Y32287663D01*
X79621662Y32411707D01*
X79621656Y32411712D01*
X79472334Y32503815D01*
X79305803Y32558998D01*
X79305791Y32559000D01*
X79203017Y32569500D01*
X78577990Y32569500D01*
X78475202Y32559000D01*
X78308665Y32503815D01*
X78159343Y32411712D01*
X78159337Y32411707D01*
X78067095Y32319464D01*
X78004783Y32285438D01*
X77933968Y32290503D01*
X77888905Y32319464D01*
X77848964Y32359405D01*
X77814938Y32421717D01*
X77820003Y32492532D01*
X77848964Y32537595D01*
X77920706Y32609338D01*
X77920712Y32609344D01*
X78012814Y32758666D01*
X78067999Y32925203D01*
X78078500Y33027991D01*
X78078499Y34028008D01*
X78077593Y34036874D01*
X78067999Y34130798D01*
X78012814Y34297335D01*
X77956004Y34389437D01*
X77920712Y34446656D01*
X77920711Y34446657D01*
X77920706Y34446663D01*
X77796662Y34570707D01*
X77796656Y34570712D01*
X77647334Y34662815D01*
X77480803Y34717998D01*
X77480791Y34718000D01*
X77378017Y34728500D01*
X76752990Y34728500D01*
X76650202Y34718000D01*
X76483665Y34662815D01*
X76334343Y34570712D01*
X76334337Y34570707D01*
X76210293Y34446663D01*
X76210288Y34446657D01*
X76135249Y34324998D01*
X76118186Y34297334D01*
X76090858Y34214865D01*
X76050446Y34156496D01*
X75984889Y34129240D01*
X75971255Y34128500D01*
X75848059Y34128500D01*
X75779938Y34148502D01*
X75758964Y34165405D01*
X75746662Y34177707D01*
X75746656Y34177712D01*
X75597334Y34269815D01*
X75430803Y34324998D01*
X75430791Y34325000D01*
X75328017Y34335500D01*
X74277990Y34335500D01*
X74175202Y34325000D01*
X74008665Y34269815D01*
X73859343Y34177712D01*
X73859337Y34177707D01*
X73735293Y34053663D01*
X73735288Y34053657D01*
X73643185Y33904335D01*
X73588002Y33737804D01*
X73588000Y33737792D01*
X73577500Y33635018D01*
X73577500Y33034991D01*
X73578484Y33025366D01*
X73565507Y32955565D01*
X73542231Y32923468D01*
X69097170Y28478405D01*
X69034858Y28444380D01*
X69008075Y28441500D01*
X64470500Y28441500D01*
X64402379Y28461502D01*
X64355886Y28515158D01*
X64344500Y28567500D01*
X64344499Y28941010D01*
X64333999Y29043798D01*
X64278814Y29210335D01*
X64196163Y29344333D01*
X64186712Y29359656D01*
X64186711Y29359657D01*
X64186706Y29359663D01*
X64062662Y29483707D01*
X64062653Y29483714D01*
X64062580Y29483759D01*
X64062540Y29483804D01*
X64056901Y29488262D01*
X64057662Y29489226D01*
X64015101Y29536544D01*
X64003698Y29606619D01*
X64031990Y29671735D01*
X64057097Y29693491D01*
X64056901Y29693738D01*
X64062411Y29698095D01*
X64062580Y29698241D01*
X64062589Y29698247D01*
X64062656Y29698288D01*
X64186712Y29822344D01*
X64278814Y29971666D01*
X64333999Y30138203D01*
X64344500Y30240991D01*
X64344499Y30841008D01*
X64340719Y30878008D01*
X64333999Y30943798D01*
X64278814Y31110335D01*
X64200166Y31237843D01*
X64186712Y31259656D01*
X64186711Y31259657D01*
X64186706Y31259663D01*
X64062662Y31383707D01*
X64062656Y31383712D01*
X63913334Y31475815D01*
X63746803Y31530998D01*
X63746791Y31531000D01*
X63644017Y31541500D01*
X62593990Y31541500D01*
X62491202Y31531000D01*
X62324665Y31475815D01*
X62175343Y31383712D01*
X62175337Y31383707D01*
X62120945Y31329314D01*
X62058633Y31295288D01*
X61987818Y31300353D01*
X61942755Y31329314D01*
X61865562Y31406507D01*
X61865556Y31406512D01*
X61716234Y31498615D01*
X61549703Y31553798D01*
X61549691Y31553800D01*
X61446917Y31564300D01*
X61446909Y31564300D01*
X61274733Y31564300D01*
X61206612Y31584302D01*
X61160119Y31637958D01*
X61149423Y31677131D01*
X61148674Y31684253D01*
X61148674Y31684256D01*
X61132839Y31732992D01*
X61104420Y31820457D01*
X61102392Y31891424D01*
X61139055Y31952222D01*
X61184619Y31978997D01*
X61209334Y31987186D01*
X61237136Y32004334D01*
X61243411Y32008205D01*
X61358656Y32079288D01*
X61482712Y32203344D01*
X61574814Y32352666D01*
X61629999Y32519203D01*
X61640500Y32621991D01*
X61640499Y33246076D01*
X61660501Y33314196D01*
X61677395Y33335161D01*
X62750920Y34408684D01*
X62829977Y34545615D01*
X62870901Y34698343D01*
X62870901Y34856458D01*
X62870901Y34864175D01*
X62870900Y34864193D01*
X62870900Y54875480D01*
X62870901Y54875493D01*
X62870901Y55043755D01*
X62870901Y55043757D01*
X62829977Y55196485D01*
X62801039Y55246605D01*
X62794623Y55257718D01*
X62750921Y55333415D01*
X62750916Y55333421D01*
X62634727Y55449610D01*
X62634704Y55449631D01*
X60797339Y57286996D01*
X60763313Y57349308D01*
X60768378Y57420123D01*
X60810923Y57476957D01*
X60860746Y57514254D01*
X60946996Y57629469D01*
X60997291Y57764317D01*
X61003700Y57823927D01*
X61003699Y59183301D01*
X61023701Y59251421D01*
X61077357Y59297914D01*
X61129699Y59309300D01*
X61874374Y59309300D01*
X61942495Y59289298D01*
X61963469Y59272396D01*
X62582084Y58653780D01*
X62582085Y58653779D01*
X62582087Y58653778D01*
X62719013Y58574724D01*
X62719016Y58574723D01*
X62871743Y58533799D01*
X63037576Y58533799D01*
X63037592Y58533800D01*
X66429500Y58533800D01*
X66497621Y58513798D01*
X66544114Y58460142D01*
X66555500Y58407800D01*
X66555500Y56848136D01*
X66555502Y56848115D01*
X66561908Y56788520D01*
X66561908Y56788519D01*
X66612201Y56653674D01*
X66612203Y56653671D01*
X66698453Y56538454D01*
X66756061Y56495329D01*
X66813669Y56452204D01*
X66813671Y56452204D01*
X66813673Y56452202D01*
X66874030Y56429691D01*
X66948514Y56401910D01*
X66948517Y56401909D01*
X67008127Y56395500D01*
X68627872Y56395501D01*
X68687483Y56401909D01*
X68822331Y56452204D01*
X68937546Y56538454D01*
X68987133Y56604694D01*
X69043968Y56647240D01*
X69114783Y56652304D01*
X69177095Y56618279D01*
X69188863Y56604698D01*
X69238454Y56538454D01*
X69353669Y56452204D01*
X69353671Y56452204D01*
X69353673Y56452202D01*
X69414030Y56429691D01*
X69488514Y56401910D01*
X69488517Y56401909D01*
X69548127Y56395500D01*
X71167872Y56395501D01*
X71227483Y56401909D01*
X71362331Y56452204D01*
X71477546Y56538454D01*
X71527133Y56604694D01*
X71583968Y56647240D01*
X71654783Y56652304D01*
X71717095Y56618279D01*
X71728863Y56604698D01*
X71778454Y56538454D01*
X71893669Y56452204D01*
X71893671Y56452204D01*
X71893673Y56452202D01*
X71954030Y56429691D01*
X72028514Y56401910D01*
X72028517Y56401909D01*
X72088127Y56395500D01*
X72171501Y56395501D01*
X72239620Y56375500D01*
X72286113Y56321845D01*
X72297500Y56269501D01*
X72297500Y48433925D01*
X72277498Y48365804D01*
X72260595Y48344830D01*
X64731170Y40815405D01*
X64668858Y40781379D01*
X64642075Y40778500D01*
X64548354Y40778500D01*
X64363199Y40739145D01*
X64190267Y40662151D01*
X64190267Y40662150D01*
X64037126Y40550887D01*
X63910466Y40410217D01*
X63910465Y40410215D01*
X63815822Y40246287D01*
X63815818Y40246279D01*
X63757325Y40066257D01*
X63737540Y39878000D01*
X63757325Y39689744D01*
X63815818Y39509722D01*
X63815822Y39509714D01*
X63910465Y39345786D01*
X63910466Y39345784D01*
X64037126Y39205114D01*
X64190267Y39093851D01*
X64190267Y39093850D01*
X64225611Y39078114D01*
X64363197Y39016856D01*
X64548354Y38977500D01*
X64737646Y38977500D01*
X64922803Y39016856D01*
X65095730Y39093849D01*
X65095730Y39093850D01*
X65095732Y39093850D01*
X65095732Y39093851D01*
X65248871Y39205112D01*
X65261182Y39218784D01*
X65375533Y39345784D01*
X65375534Y39345786D01*
X65391728Y39373835D01*
X65470179Y39509716D01*
X65477423Y39532009D01*
X65528674Y39689744D01*
X65530777Y39709753D01*
X65548460Y39878000D01*
X65548460Y39878002D01*
X65548460Y39882036D01*
X65549120Y39884286D01*
X65549150Y39884567D01*
X65549201Y39884562D01*
X65568462Y39950157D01*
X65585365Y39971131D01*
X69417203Y43802969D01*
X72872112Y47257879D01*
X79469500Y47257879D01*
X79469500Y43162136D01*
X79469502Y43162115D01*
X79475908Y43102520D01*
X79475908Y43102519D01*
X79526201Y42967674D01*
X79526203Y42967671D01*
X79612453Y42852454D01*
X79670061Y42809329D01*
X79727669Y42766204D01*
X79727671Y42766204D01*
X79727673Y42766202D01*
X79769146Y42750734D01*
X79862514Y42715910D01*
X79862517Y42715909D01*
X79922127Y42709500D01*
X84017872Y42709501D01*
X84077483Y42715909D01*
X84212331Y42766204D01*
X84327546Y42852454D01*
X84413796Y42967669D01*
X84464091Y43102517D01*
X84470500Y43162127D01*
X84470499Y47257872D01*
X84464091Y47317483D01*
X84415591Y47447519D01*
X84413798Y47452327D01*
X84413796Y47452330D01*
X84413796Y47452331D01*
X84370671Y47509939D01*
X84327546Y47567547D01*
X84236381Y47635792D01*
X84212331Y47653796D01*
X84212329Y47653797D01*
X84212326Y47653799D01*
X84077483Y47704091D01*
X84077486Y47704091D01*
X84017873Y47710500D01*
X79922135Y47710500D01*
X79922114Y47710498D01*
X79862519Y47704092D01*
X79862518Y47704092D01*
X79727673Y47653799D01*
X79727670Y47653797D01*
X79612453Y47567547D01*
X79526203Y47452330D01*
X79526201Y47452327D01*
X79475909Y47317485D01*
X79469500Y47257879D01*
X72872112Y47257879D01*
X73256339Y47642106D01*
X73256349Y47642113D01*
X73378514Y47764278D01*
X73378520Y47764284D01*
X73443756Y47877277D01*
X73457577Y47901215D01*
X73498501Y48053943D01*
X73498501Y48212057D01*
X73498501Y48219774D01*
X73498500Y48219792D01*
X73498500Y56269501D01*
X73518502Y56337622D01*
X73572158Y56384115D01*
X73624500Y56395501D01*
X73707865Y56395501D01*
X73707872Y56395501D01*
X73767483Y56401909D01*
X73902331Y56452204D01*
X74017546Y56538454D01*
X74103796Y56653669D01*
X74154091Y56788517D01*
X74160500Y56848127D01*
X74160499Y58467872D01*
X74154091Y58527483D01*
X74119526Y58620157D01*
X74103798Y58662327D01*
X74103796Y58662330D01*
X74103796Y58662331D01*
X74017546Y58777546D01*
X73951306Y58827134D01*
X73908760Y58883968D01*
X73903696Y58954783D01*
X73937721Y59017095D01*
X73951302Y59028864D01*
X74017546Y59078454D01*
X74103796Y59193669D01*
X74154091Y59328517D01*
X74160500Y59388127D01*
X74160499Y61007872D01*
X74154091Y61067483D01*
X74103798Y61202326D01*
X74103798Y61202327D01*
X74103796Y61202330D01*
X74103796Y61202331D01*
X74060671Y61259939D01*
X74017546Y61317547D01*
X73922267Y61388872D01*
X73902331Y61403796D01*
X73902329Y61403797D01*
X73902326Y61403799D01*
X73767483Y61454091D01*
X73767486Y61454091D01*
X73707873Y61460500D01*
X72088135Y61460500D01*
X72088114Y61460498D01*
X72028519Y61454092D01*
X72028518Y61454092D01*
X71893673Y61403799D01*
X71893670Y61403797D01*
X71778455Y61317548D01*
X71778454Y61317546D01*
X71728866Y61251307D01*
X71672032Y61208761D01*
X71601216Y61203697D01*
X71538904Y61237722D01*
X71527136Y61251303D01*
X71477546Y61317546D01*
X71477544Y61317547D01*
X71477544Y61317548D01*
X71382276Y61388865D01*
X71362331Y61403796D01*
X71362329Y61403797D01*
X71362326Y61403799D01*
X71227483Y61454091D01*
X71227486Y61454091D01*
X71167873Y61460500D01*
X69548135Y61460500D01*
X69548114Y61460498D01*
X69488519Y61454092D01*
X69488518Y61454092D01*
X69353673Y61403799D01*
X69353670Y61403797D01*
X69238455Y61317548D01*
X69238454Y61317546D01*
X69188866Y61251307D01*
X69132032Y61208761D01*
X69061216Y61203697D01*
X68998904Y61237722D01*
X68987136Y61251303D01*
X68937546Y61317546D01*
X68937544Y61317547D01*
X68937544Y61317548D01*
X68842276Y61388865D01*
X68822331Y61403796D01*
X68822329Y61403797D01*
X68822326Y61403799D01*
X68687483Y61454091D01*
X68687486Y61454091D01*
X68627878Y61460500D01*
X68627873Y61460500D01*
X68410651Y61460500D01*
X68342530Y61480502D01*
X68301533Y61523498D01*
X68298522Y61528713D01*
X68298514Y61528723D01*
X65438231Y64389004D01*
X83703659Y64389004D01*
X83703659Y64388997D01*
X83722974Y64192876D01*
X83722974Y64192874D01*
X83780186Y64004272D01*
X83820492Y63928865D01*
X83873090Y63830462D01*
X83998117Y63678117D01*
X84150462Y63553090D01*
X84324273Y63460186D01*
X84512868Y63402976D01*
X84512872Y63402976D01*
X84512874Y63402975D01*
X84708997Y63383659D01*
X84709000Y63383659D01*
X84709003Y63383659D01*
X84905124Y63402975D01*
X84905126Y63402975D01*
X84905127Y63402976D01*
X84905132Y63402976D01*
X85093727Y63460186D01*
X85267538Y63553090D01*
X85419883Y63678117D01*
X85544910Y63830462D01*
X85637814Y64004273D01*
X85695024Y64192868D01*
X85713602Y64381498D01*
X85714341Y64388997D01*
X85714341Y64389004D01*
X85695025Y64585125D01*
X85695025Y64585127D01*
X85695024Y64585130D01*
X85695024Y64585132D01*
X85637814Y64773727D01*
X85544910Y64947538D01*
X85419883Y65099883D01*
X85267538Y65224910D01*
X85093728Y65317814D01*
X84905125Y65375026D01*
X84709003Y65394341D01*
X84708997Y65394341D01*
X84512875Y65375026D01*
X84512873Y65375026D01*
X84324271Y65317814D01*
X84150461Y65224910D01*
X83998117Y65099883D01*
X83873090Y64947539D01*
X83780186Y64773729D01*
X83722974Y64585127D01*
X83722974Y64585125D01*
X83703659Y64389004D01*
X65438231Y64389004D01*
X65106108Y64721127D01*
X65106096Y64721141D01*
X64987123Y64840114D01*
X64987119Y64840117D01*
X64987116Y64840120D01*
X64932079Y64871895D01*
X64900303Y64890241D01*
X64900303Y64890242D01*
X64900301Y64890242D01*
X64885410Y64898839D01*
X64850188Y64919176D01*
X64850185Y64919177D01*
X64850181Y64919178D01*
X64697457Y64960101D01*
X64539343Y64960101D01*
X64531625Y64960101D01*
X64531609Y64960100D01*
X40576157Y64960100D01*
X40418043Y64960100D01*
X40371161Y64947538D01*
X40265317Y64919178D01*
X40265310Y64919175D01*
X40215195Y64890240D01*
X40128387Y64840123D01*
X40128382Y64840119D01*
X40072481Y64784218D01*
X40016580Y64728316D01*
X40016578Y64728314D01*
X36931341Y61643078D01*
X36869029Y61609052D01*
X36802614Y61612568D01*
X36713797Y61641999D01*
X36713791Y61642000D01*
X36611017Y61652500D01*
X35985990Y61652500D01*
X35883202Y61642000D01*
X35716665Y61586815D01*
X35567343Y61494712D01*
X35567337Y61494707D01*
X35443293Y61370663D01*
X35443288Y61370657D01*
X35351188Y61221338D01*
X35351186Y61221334D01*
X35323858Y61138865D01*
X35283446Y61080496D01*
X35217889Y61053240D01*
X35204255Y61052500D01*
X35133336Y61052500D01*
X35070336Y61069381D01*
X35000603Y61109641D01*
X35000603Y61109642D01*
X35000601Y61109642D01*
X34980496Y61121250D01*
X34931505Y61172633D01*
X34917499Y61230367D01*
X34917499Y61388865D01*
X34917499Y61388872D01*
X34911091Y61448483D01*
X34881166Y61528716D01*
X34860798Y61583327D01*
X34860796Y61583330D01*
X34860796Y61583331D01*
X34774546Y61698546D01*
X34708306Y61748134D01*
X34665760Y61804968D01*
X34660696Y61875783D01*
X34694721Y61938095D01*
X34708302Y61949864D01*
X34774546Y61999454D01*
X34860796Y62114669D01*
X34911091Y62249517D01*
X34917500Y62309127D01*
X34917499Y63928872D01*
X34911091Y63988483D01*
X34889800Y64045565D01*
X34860798Y64123327D01*
X34860796Y64123330D01*
X34860796Y64123331D01*
X34808735Y64192876D01*
X34774546Y64238547D01*
X34697591Y64296155D01*
X34659331Y64324796D01*
X34659329Y64324797D01*
X34659326Y64324799D01*
X34524483Y64375091D01*
X34524486Y64375091D01*
X34464873Y64381500D01*
X32845135Y64381500D01*
X32845114Y64381498D01*
X32785519Y64375092D01*
X32785518Y64375092D01*
X32650673Y64324799D01*
X32650670Y64324797D01*
X32535455Y64238548D01*
X32535454Y64238546D01*
X32485866Y64172307D01*
X32429032Y64129761D01*
X32358216Y64124697D01*
X32295904Y64158722D01*
X32284136Y64172303D01*
X32234546Y64238546D01*
X32234544Y64238547D01*
X32234544Y64238548D01*
X32176614Y64281914D01*
X32119331Y64324796D01*
X32119329Y64324797D01*
X32119326Y64324799D01*
X31984483Y64375091D01*
X31984486Y64375091D01*
X31924873Y64381500D01*
X30305135Y64381500D01*
X30305114Y64381498D01*
X30245519Y64375092D01*
X30245518Y64375092D01*
X30110673Y64324799D01*
X30110670Y64324797D01*
X29995453Y64238547D01*
X29909203Y64123330D01*
X29909201Y64123327D01*
X29858909Y63988485D01*
X29852500Y63928879D01*
X29852500Y62309136D01*
X29852502Y62309115D01*
X29858908Y62249520D01*
X29858908Y62249519D01*
X29909201Y62114674D01*
X29909203Y62114671D01*
X29909204Y62114669D01*
X29946315Y62065095D01*
X29995452Y61999456D01*
X29995453Y61999456D01*
X29995454Y61999454D01*
X30061693Y61949867D01*
X30104239Y61893032D01*
X30109303Y61822216D01*
X30075278Y61759904D01*
X30061697Y61748137D01*
X30052713Y61741410D01*
X29995452Y61698545D01*
X29909203Y61583330D01*
X29909201Y61583327D01*
X29858909Y61448485D01*
X29852500Y61388879D01*
X29852500Y59769136D01*
X29852502Y59769115D01*
X29858908Y59709520D01*
X29858908Y59709519D01*
X29909201Y59574674D01*
X29909203Y59574671D01*
X29995453Y59459454D01*
X30053061Y59416329D01*
X30110669Y59373204D01*
X30110671Y59373204D01*
X30110673Y59373202D01*
X30171030Y59350691D01*
X30245514Y59322910D01*
X30245517Y59322909D01*
X30305127Y59316500D01*
X31476074Y59316501D01*
X31544195Y59296499D01*
X31565169Y59279596D01*
X32515495Y58329270D01*
X32549521Y58266958D01*
X32552400Y58240175D01*
X32552400Y46270500D01*
X32532398Y46202379D01*
X32478742Y46155886D01*
X32426400Y46144500D01*
X32342351Y46144500D01*
X32301486Y46151311D01*
X31678752Y46364819D01*
X31630522Y46394913D01*
X29278405Y48747030D01*
X29244379Y48809342D01*
X29241500Y48836125D01*
X29241500Y51387056D01*
X29241500Y51387057D01*
X29200577Y51539784D01*
X29200575Y51539787D01*
X29200575Y51539789D01*
X29121522Y51676713D01*
X29121514Y51676723D01*
X29009722Y51788515D01*
X29009712Y51788523D01*
X28872788Y51867576D01*
X28821875Y51881218D01*
X28720057Y51908500D01*
X28720056Y51908500D01*
X28720049Y51908502D01*
X28711990Y51909563D01*
X28647064Y51938288D01*
X28639347Y51945389D01*
X25389329Y55195406D01*
X25355303Y55257718D01*
X25360368Y55328533D01*
X25402915Y55385369D01*
X25469435Y55410180D01*
X25478424Y55410501D01*
X26079065Y55410501D01*
X26079072Y55410501D01*
X26138683Y55416909D01*
X26273531Y55467204D01*
X26388746Y55553454D01*
X26474996Y55668669D01*
X26525291Y55803517D01*
X26531700Y55863127D01*
X26531699Y59768872D01*
X26525291Y59828483D01*
X26504000Y59885565D01*
X26474998Y59963327D01*
X26474996Y59963330D01*
X26474996Y59963331D01*
X26431871Y60020939D01*
X26388746Y60078547D01*
X26292314Y60150735D01*
X26273531Y60164796D01*
X26273529Y60164797D01*
X26273526Y60164799D01*
X26138683Y60215091D01*
X26138686Y60215091D01*
X26079073Y60221500D01*
X22173335Y60221500D01*
X22173314Y60221498D01*
X22113719Y60215092D01*
X22113718Y60215092D01*
X21978873Y60164799D01*
X21978870Y60164797D01*
X21863653Y60078547D01*
X21777403Y59963330D01*
X21777402Y59963329D01*
X21744256Y59874457D01*
X21701710Y59817621D01*
X21635190Y59792810D01*
X21565815Y59807901D01*
X21515613Y59858103D01*
X21508144Y59874457D01*
X21474997Y59963329D01*
X21474996Y59963330D01*
X21474996Y59963331D01*
X21431871Y60020939D01*
X21388746Y60078547D01*
X21292314Y60150735D01*
X21273531Y60164796D01*
X21273529Y60164797D01*
X21273526Y60164799D01*
X21138683Y60215091D01*
X21138686Y60215091D01*
X21079073Y60221500D01*
X17173335Y60221500D01*
X17173314Y60221498D01*
X17113719Y60215092D01*
X17113718Y60215092D01*
X16978873Y60164799D01*
X16978870Y60164797D01*
X16863653Y60078547D01*
X16777403Y59963330D01*
X16777401Y59963327D01*
X16727109Y59828485D01*
X16720700Y59768879D01*
X16720700Y55863136D01*
X16720702Y55863115D01*
X16727108Y55803520D01*
X16727108Y55803519D01*
X16777401Y55668674D01*
X16777403Y55668671D01*
X16863653Y55553454D01*
X16921261Y55510329D01*
X16978869Y55467204D01*
X16978871Y55467204D01*
X16978873Y55467202D01*
X17026041Y55449610D01*
X17113714Y55416910D01*
X17113717Y55416909D01*
X17173327Y55410500D01*
X21079072Y55410501D01*
X21138683Y55416909D01*
X21273531Y55467204D01*
X21388746Y55553454D01*
X21474996Y55668669D01*
X21500231Y55736328D01*
X21508144Y55757543D01*
X21550690Y55814379D01*
X21617210Y55839191D01*
X21686584Y55824100D01*
X21736787Y55773898D01*
X21744256Y55757543D01*
X21777401Y55668674D01*
X21777403Y55668671D01*
X21863653Y55553454D01*
X21921261Y55510329D01*
X21978869Y55467204D01*
X21978871Y55467204D01*
X21978873Y55467202D01*
X22026041Y55449610D01*
X22113714Y55416910D01*
X22113717Y55416909D01*
X22173327Y55410500D01*
X23474832Y55410501D01*
X23542953Y55390499D01*
X23583950Y55347504D01*
X23592084Y55333416D01*
X23645680Y55240584D01*
X23645682Y55240582D01*
X23645685Y55240578D01*
X23764659Y55121604D01*
X23764673Y55121592D01*
X28003595Y50882670D01*
X28037621Y50820358D01*
X28040500Y50793575D01*
X28040500Y48502825D01*
X28020498Y48434704D01*
X27966842Y48388211D01*
X27896568Y48378107D01*
X27831988Y48407601D01*
X27825405Y48413730D01*
X27504065Y48735070D01*
X27470039Y48797382D01*
X27467160Y48824165D01*
X27467160Y48828199D01*
X27460691Y48889745D01*
X27447374Y49016456D01*
X27427377Y49078000D01*
X27388881Y49196479D01*
X27388877Y49196487D01*
X27382748Y49207102D01*
X27345312Y49271945D01*
X27294234Y49360415D01*
X27294233Y49360417D01*
X27167573Y49501087D01*
X27014432Y49612350D01*
X27014432Y49612351D01*
X26870337Y49676506D01*
X26841503Y49689344D01*
X26841501Y49689345D01*
X26841500Y49689345D01*
X26656346Y49728700D01*
X26467054Y49728700D01*
X26281899Y49689345D01*
X26108967Y49612351D01*
X26108967Y49612350D01*
X25955826Y49501087D01*
X25829166Y49360417D01*
X25829165Y49360415D01*
X25734522Y49196487D01*
X25734518Y49196479D01*
X25676025Y49016457D01*
X25656240Y48828200D01*
X25676025Y48639944D01*
X25734518Y48459922D01*
X25734522Y48459914D01*
X25829165Y48295986D01*
X25829166Y48295984D01*
X25955826Y48155314D01*
X26108967Y48044051D01*
X26108967Y48044050D01*
X26123717Y48037483D01*
X26281897Y47967056D01*
X26467054Y47927700D01*
X26560775Y47927700D01*
X26628896Y47907698D01*
X26649870Y47890795D01*
X27581070Y46959595D01*
X27615096Y46897283D01*
X27610031Y46826468D01*
X27567484Y46769632D01*
X27500964Y46744821D01*
X27491975Y46744500D01*
X27474000Y46744500D01*
X27448588Y46742683D01*
X27402063Y46739356D01*
X27402055Y46739354D01*
X27264008Y46698819D01*
X27264006Y46698818D01*
X27142968Y46621032D01*
X27048746Y46512295D01*
X26992668Y46389500D01*
X26988976Y46381416D01*
X26975997Y46291139D01*
X26971170Y46257568D01*
X26941676Y46192988D01*
X26881950Y46154604D01*
X26846452Y46149500D01*
X26159000Y46149500D01*
X26133588Y46147683D01*
X26087063Y46144356D01*
X26087055Y46144354D01*
X25949008Y46103819D01*
X25949006Y46103818D01*
X25827968Y46026032D01*
X25733746Y45917295D01*
X25673976Y45786417D01*
X25671945Y45772289D01*
X25653500Y45644000D01*
X25653500Y45034000D01*
X25653895Y45028480D01*
X25658644Y44962064D01*
X25658646Y44962056D01*
X25699181Y44824009D01*
X25699183Y44824003D01*
X25729468Y44776879D01*
X25749470Y44708758D01*
X25734270Y44656963D01*
X25737490Y44655492D01*
X25676826Y44522656D01*
X25673976Y44516416D01*
X25653500Y44374000D01*
X25653500Y43764000D01*
X25654723Y43746905D01*
X25658644Y43692064D01*
X25658646Y43692056D01*
X25699181Y43554009D01*
X25699183Y43554003D01*
X25729468Y43506879D01*
X25749470Y43438758D01*
X25734270Y43386963D01*
X25737490Y43385492D01*
X25733746Y43377295D01*
X25733746Y43377294D01*
X25733248Y43376203D01*
X25689085Y43279499D01*
X25673976Y43246416D01*
X25661858Y43162128D01*
X25653500Y43103998D01*
X25653500Y42494006D01*
X25658644Y42422064D01*
X25658646Y42422053D01*
X25677303Y42358516D01*
X25677303Y42287520D01*
X25638920Y42227794D01*
X25574339Y42198301D01*
X25504065Y42208404D01*
X25467312Y42233923D01*
X22305508Y45395727D01*
X22305496Y45395741D01*
X22186523Y45514714D01*
X22186519Y45514717D01*
X22186516Y45514720D01*
X22131479Y45546495D01*
X22099703Y45564841D01*
X22099703Y45564842D01*
X22099701Y45564842D01*
X22081537Y45575329D01*
X22049588Y45593776D01*
X22049585Y45593777D01*
X21896857Y45634701D01*
X21738743Y45634701D01*
X21731025Y45634701D01*
X21731009Y45634700D01*
X15621145Y45634700D01*
X15553024Y45654702D01*
X15506531Y45708358D01*
X15501545Y45721053D01*
X15474214Y45803534D01*
X15382112Y45952856D01*
X15382111Y45952857D01*
X15382106Y45952863D01*
X15258062Y46076907D01*
X15258056Y46076912D01*
X15108734Y46169015D01*
X14942203Y46224198D01*
X14942191Y46224200D01*
X14839417Y46234700D01*
X14214390Y46234700D01*
X14111602Y46224200D01*
X13945065Y46169015D01*
X13795743Y46076912D01*
X13795737Y46076907D01*
X13703495Y45984664D01*
X13641183Y45950638D01*
X13570368Y45955703D01*
X13525305Y45984664D01*
X13433062Y46076907D01*
X13433056Y46076912D01*
X13283734Y46169015D01*
X13117203Y46224198D01*
X13117191Y46224200D01*
X13014417Y46234700D01*
X12389390Y46234700D01*
X12286605Y46224200D01*
X12136131Y46174338D01*
X12065177Y46171898D01*
X12004167Y46208207D01*
X11972471Y46271736D01*
X11970499Y46293943D01*
X11970499Y47257865D01*
X11970499Y47257872D01*
X11964091Y47317483D01*
X11915591Y47447519D01*
X11913798Y47452327D01*
X11913796Y47452330D01*
X11913796Y47452331D01*
X11870671Y47509939D01*
X11827546Y47567547D01*
X11736381Y47635792D01*
X11712331Y47653796D01*
X11712329Y47653797D01*
X11712326Y47653799D01*
X11577483Y47704091D01*
X11577486Y47704091D01*
X11517873Y47710500D01*
X7422135Y47710500D01*
X7422114Y47710498D01*
X7362519Y47704092D01*
X7362518Y47704092D01*
X7227673Y47653799D01*
X7227670Y47653797D01*
X7112453Y47567547D01*
X7026203Y47452330D01*
X7026201Y47452327D01*
X6975909Y47317485D01*
X6969500Y47257879D01*
X6969500Y43162136D01*
X6969502Y43162115D01*
X6975908Y43102520D01*
X6975908Y43102519D01*
X7026201Y42967674D01*
X7026203Y42967671D01*
X7112453Y42852454D01*
X7170061Y42809329D01*
X7227669Y42766204D01*
X7227671Y42766204D01*
X7227673Y42766202D01*
X7269146Y42750734D01*
X7362514Y42715910D01*
X7362517Y42715909D01*
X7422127Y42709500D01*
X11517872Y42709501D01*
X11577483Y42715909D01*
X11712331Y42766204D01*
X11827546Y42852454D01*
X11913796Y42967669D01*
X11964091Y43102517D01*
X11970500Y43162127D01*
X11970499Y43774459D01*
X11990501Y43842579D01*
X12044157Y43889072D01*
X12114430Y43899176D01*
X12136132Y43894062D01*
X12286596Y43844203D01*
X12286597Y43844203D01*
X12286603Y43844201D01*
X12389391Y43833700D01*
X13014408Y43833701D01*
X13014409Y43833701D01*
X13117197Y43844201D01*
X13283734Y43899386D01*
X13303708Y43911706D01*
X13433056Y43991488D01*
X13448445Y44006877D01*
X13525305Y44083736D01*
X13587617Y44117762D01*
X13658432Y44112697D01*
X13703495Y44083736D01*
X13795737Y43991494D01*
X13795743Y43991489D01*
X13795744Y43991488D01*
X13822464Y43975007D01*
X13945065Y43899386D01*
X14111596Y43844203D01*
X14111597Y43844203D01*
X14111603Y43844201D01*
X14214391Y43833700D01*
X14839408Y43833701D01*
X14839409Y43833701D01*
X14942197Y43844201D01*
X15108734Y43899386D01*
X15128708Y43911706D01*
X15258056Y43991488D01*
X15382112Y44115544D01*
X15474214Y44264866D01*
X15501541Y44347336D01*
X15541954Y44405704D01*
X15607511Y44432960D01*
X15621145Y44433700D01*
X21516875Y44433700D01*
X21584996Y44413698D01*
X21605970Y44396795D01*
X27378474Y38624289D01*
X27378479Y38624285D01*
X27378481Y38624283D01*
X27378482Y38624282D01*
X27378484Y38624281D01*
X27515410Y38545227D01*
X27515413Y38545226D01*
X27629868Y38514557D01*
X27668140Y38504302D01*
X27833973Y38504302D01*
X27833989Y38504303D01*
X31141366Y38504303D01*
X31209487Y38484301D01*
X31255980Y38430645D01*
X31266084Y38360371D01*
X31250485Y38315303D01*
X31172336Y38179945D01*
X31172332Y38179937D01*
X31113839Y37999915D01*
X31094054Y37811658D01*
X31113839Y37623402D01*
X31172332Y37443380D01*
X31172336Y37443372D01*
X31266979Y37279444D01*
X31266980Y37279442D01*
X31393640Y37138772D01*
X31546781Y37027509D01*
X31546781Y37027508D01*
X31596214Y37005499D01*
X31650310Y36959518D01*
X31670959Y36891591D01*
X31651606Y36823283D01*
X31634060Y36801297D01*
X30939733Y36106969D01*
X30300286Y35467522D01*
X30300284Y35467520D01*
X30244382Y35411619D01*
X30188481Y35355718D01*
X30188477Y35355713D01*
X30144233Y35279078D01*
X30109423Y35218787D01*
X30088961Y35142421D01*
X30068499Y35066057D01*
X30068499Y35066055D01*
X30068499Y34897793D01*
X30068500Y34897780D01*
X30068500Y34213842D01*
X30068499Y34213824D01*
X30068499Y34206107D01*
X30068499Y34047993D01*
X30091925Y33960567D01*
X30109423Y33895265D01*
X30109425Y33895260D01*
X30117369Y33881502D01*
X30117371Y33881499D01*
X30188477Y33758338D01*
X30188485Y33758328D01*
X30307459Y33639354D01*
X30307473Y33639342D01*
X30692909Y33253906D01*
X30726935Y33191594D01*
X30729814Y33164811D01*
X30729814Y32589241D01*
X30709812Y32521120D01*
X30692909Y32500146D01*
X30655485Y32462723D01*
X30655479Y32462715D01*
X30647272Y32448500D01*
X30615530Y32393520D01*
X30586651Y32343500D01*
X30583867Y32338678D01*
X30532484Y32289685D01*
X30462770Y32276250D01*
X30396859Y32302637D01*
X30385653Y32312583D01*
X30228709Y32469527D01*
X30071521Y32626715D01*
X30071520Y32626716D01*
X29959716Y32738520D01*
X29959715Y32738521D01*
X29959712Y32738523D01*
X29860114Y32796025D01*
X29860113Y32796025D01*
X29822785Y32817577D01*
X29670057Y32858501D01*
X29511943Y32858501D01*
X29504225Y32858501D01*
X29504209Y32858500D01*
X29231538Y32858500D01*
X29163417Y32878502D01*
X29137902Y32900189D01*
X29023371Y33027388D01*
X28870232Y33138650D01*
X28870232Y33138651D01*
X28729421Y33201344D01*
X28697303Y33215644D01*
X28697301Y33215645D01*
X28697300Y33215645D01*
X28512146Y33255000D01*
X28418425Y33255000D01*
X28350304Y33275002D01*
X28329330Y33291905D01*
X21504569Y40116666D01*
X21470543Y40178978D01*
X21468317Y40218572D01*
X21469300Y40228191D01*
X21469299Y40828208D01*
X21468924Y40831875D01*
X21458799Y40930998D01*
X21403614Y41097535D01*
X21333033Y41211965D01*
X21311512Y41246856D01*
X21311511Y41246857D01*
X21311506Y41246863D01*
X21187462Y41370907D01*
X21187456Y41370912D01*
X21038134Y41463015D01*
X20871603Y41518198D01*
X20871591Y41518200D01*
X20768817Y41528700D01*
X19718790Y41528700D01*
X19616002Y41518200D01*
X19449465Y41463015D01*
X19300143Y41370912D01*
X19300137Y41370907D01*
X19253395Y41324164D01*
X19191083Y41290138D01*
X19120268Y41295203D01*
X19075205Y41324164D01*
X18977662Y41421707D01*
X18977656Y41421712D01*
X18828334Y41513815D01*
X18661803Y41568998D01*
X18661791Y41569000D01*
X18559017Y41579500D01*
X17508990Y41579500D01*
X17406202Y41569000D01*
X17239665Y41513815D01*
X17090343Y41421712D01*
X17090337Y41421707D01*
X17030895Y41362264D01*
X16968583Y41328238D01*
X16897768Y41333303D01*
X16852705Y41362264D01*
X16742462Y41472507D01*
X16742456Y41472512D01*
X16593134Y41564615D01*
X16426603Y41619798D01*
X16426591Y41619800D01*
X16323817Y41630300D01*
X15273790Y41630300D01*
X15171002Y41619800D01*
X15004465Y41564615D01*
X14855143Y41472512D01*
X14855137Y41472507D01*
X14731093Y41348463D01*
X14731088Y41348457D01*
X14638985Y41199135D01*
X14583802Y41032604D01*
X14583800Y41032592D01*
X14573300Y40929818D01*
X14573300Y40329791D01*
X14574284Y40320166D01*
X14561307Y40250365D01*
X14538031Y40218268D01*
X13899764Y39580000D01*
X13263986Y38944222D01*
X13263984Y38944220D01*
X13232764Y38913000D01*
X13152181Y38832418D01*
X13152179Y38832415D01*
X13147032Y38823499D01*
X13095649Y38774506D01*
X13037913Y38760500D01*
X12133135Y38760500D01*
X12133114Y38760498D01*
X12073519Y38754092D01*
X12073518Y38754092D01*
X11978337Y38718592D01*
X11907521Y38713528D01*
X11871306Y38727529D01*
X11810501Y38762635D01*
X11810498Y38762636D01*
X11725169Y38785500D01*
X11636831Y38785500D01*
X11551502Y38762636D01*
X11551501Y38762636D01*
X11551499Y38762635D01*
X11474999Y38718468D01*
X11474991Y38718462D01*
X11412538Y38656009D01*
X11412532Y38656001D01*
X11368365Y38579501D01*
X11368364Y38579499D01*
X11368364Y38579498D01*
X11345500Y38494169D01*
X11345500Y38405831D01*
X11365684Y38330504D01*
X11368365Y38320500D01*
X11378084Y38303666D01*
X11412533Y38243998D01*
X11412535Y38243996D01*
X11412538Y38243992D01*
X11456452Y38200078D01*
X11490478Y38137766D01*
X11485413Y38066951D01*
X11456452Y38021888D01*
X11086586Y37652022D01*
X11086584Y37652020D01*
X11057966Y37623402D01*
X10974781Y37540218D01*
X10974779Y37540215D01*
X10937589Y37475798D01*
X10937588Y37475797D01*
X10895723Y37403287D01*
X10875625Y37328280D01*
X10854799Y37250557D01*
X10854799Y37250555D01*
X10854799Y37082293D01*
X10854800Y37082280D01*
X10854800Y34036892D01*
X10854799Y34036874D01*
X10854799Y34029157D01*
X10854799Y33871043D01*
X10888810Y33744114D01*
X10895723Y33718315D01*
X10895724Y33718312D01*
X10918613Y33678670D01*
X10918614Y33678667D01*
X10974777Y33581388D01*
X10974785Y33581378D01*
X11093759Y33462404D01*
X11093773Y33462392D01*
X11463617Y33092548D01*
X11497643Y33030236D01*
X11492578Y32959421D01*
X11463617Y32914358D01*
X11419740Y32870482D01*
X11419734Y32870474D01*
X11376750Y32796022D01*
X11354500Y32712988D01*
X11354500Y32627013D01*
X11376749Y32543980D01*
X11376750Y32543977D01*
X11376751Y32543976D01*
X11419735Y32469525D01*
X11419737Y32469523D01*
X11419740Y32469519D01*
X11480518Y32408741D01*
X11480522Y32408738D01*
X11480525Y32408735D01*
X11554976Y32365751D01*
X11554978Y32365751D01*
X11554979Y32365750D01*
X11638012Y32343501D01*
X11638016Y32343500D01*
X11723984Y32343500D01*
X11807024Y32365751D01*
X11860373Y32396553D01*
X11929365Y32413289D01*
X11967397Y32405489D01*
X12073517Y32365909D01*
X12133127Y32359500D01*
X12906200Y32359501D01*
X12974321Y32339499D01*
X13020814Y32285843D01*
X13032200Y32233501D01*
X13032200Y31789838D01*
X13012198Y31721717D01*
X12995295Y31700743D01*
X12821015Y31526464D01*
X12770496Y31540000D01*
X11591504Y31540000D01*
X11540984Y31526464D01*
X11236079Y31831369D01*
X11193839Y31803145D01*
X11092854Y31702159D01*
X11092853Y31702157D01*
X11013513Y31583416D01*
X10958863Y31451481D01*
X10958861Y31451476D01*
X10931000Y31311409D01*
X10931000Y31168592D01*
X10958861Y31028525D01*
X10958863Y31028520D01*
X11013513Y30896585D01*
X11092853Y30777844D01*
X11092854Y30777842D01*
X11193840Y30676855D01*
X11193842Y30676854D01*
X11236078Y30648633D01*
X11540982Y30953537D01*
X11591504Y30940000D01*
X12770496Y30940000D01*
X12821017Y30953537D01*
X12995295Y30779259D01*
X13029320Y30716946D01*
X13032200Y30690163D01*
X13032200Y30208092D01*
X13032199Y30208074D01*
X13032199Y30200357D01*
X13032199Y30042243D01*
X13059283Y29941167D01*
X13073123Y29889515D01*
X13073124Y29889512D01*
X13096546Y29848947D01*
X13096547Y29848943D01*
X13096548Y29848943D01*
X13152180Y29752584D01*
X13152182Y29752582D01*
X13152185Y29752578D01*
X13271159Y29633604D01*
X13271173Y29633592D01*
X13379595Y29525170D01*
X13413621Y29462858D01*
X13416500Y29436075D01*
X13416500Y29206555D01*
X13399620Y29143557D01*
X13393815Y29133502D01*
X13393814Y29133500D01*
X13355123Y29066487D01*
X13346473Y29034203D01*
X13314199Y28913757D01*
X13314199Y28913755D01*
X13314199Y28745493D01*
X13314200Y28745480D01*
X13314200Y27234500D01*
X13294198Y27166379D01*
X13240542Y27119886D01*
X13188200Y27108500D01*
X12617990Y27108500D01*
X12515202Y27098000D01*
X12348665Y27042815D01*
X12199343Y26950712D01*
X12199337Y26950707D01*
X12185594Y26936963D01*
X12123282Y26902937D01*
X12052467Y26908002D01*
X11995631Y26950549D01*
X11970820Y27017069D01*
X11970499Y27026058D01*
X11970499Y27957865D01*
X11970499Y27957872D01*
X11964091Y28017483D01*
X11929025Y28111501D01*
X11913798Y28152327D01*
X11913796Y28152330D01*
X11913796Y28152331D01*
X11864339Y28218397D01*
X11827546Y28267547D01*
X11733295Y28338102D01*
X11712331Y28353796D01*
X11712329Y28353797D01*
X11712326Y28353799D01*
X11577483Y28404091D01*
X11577486Y28404091D01*
X11517873Y28410500D01*
X7422135Y28410500D01*
X7422114Y28410498D01*
X7362519Y28404092D01*
X7362518Y28404092D01*
X7227673Y28353799D01*
X7227670Y28353797D01*
X7112453Y28267547D01*
X7026203Y28152330D01*
X7026201Y28152327D01*
X6975909Y28017485D01*
X6969500Y27957879D01*
X6969500Y23862136D01*
X6969502Y23862115D01*
X6975908Y23802520D01*
X6975908Y23802519D01*
X7026201Y23667674D01*
X7026203Y23667671D01*
X7026204Y23667669D01*
X7038165Y23651691D01*
X7112453Y23552454D01*
X7166600Y23511920D01*
X7227669Y23466204D01*
X7227671Y23466204D01*
X7227673Y23466202D01*
X7288030Y23443691D01*
X7362514Y23415910D01*
X7362517Y23415909D01*
X7422127Y23409500D01*
X11517872Y23409501D01*
X11577483Y23415909D01*
X11712331Y23466204D01*
X11827546Y23552454D01*
X11913796Y23667669D01*
X11914911Y23670657D01*
X11925668Y23699500D01*
X11964091Y23802517D01*
X11970500Y23862127D01*
X11970499Y24789944D01*
X11990501Y24858063D01*
X12044157Y24904556D01*
X12114431Y24914660D01*
X12179011Y24885167D01*
X12185594Y24879037D01*
X12199337Y24865294D01*
X12199343Y24865289D01*
X12199344Y24865288D01*
X12238230Y24841303D01*
X12348665Y24773186D01*
X12515196Y24718003D01*
X12515197Y24718003D01*
X12515203Y24718001D01*
X12617991Y24707500D01*
X13188200Y24707501D01*
X13256321Y24687499D01*
X13302814Y24633843D01*
X13314200Y24581501D01*
X13314200Y21610292D01*
X13314199Y21610274D01*
X13314199Y21602557D01*
X13314199Y21444443D01*
X13355123Y21291715D01*
X13355124Y21291712D01*
X13384058Y21241600D01*
X13384059Y21241597D01*
X13402405Y21209821D01*
X13434180Y21154784D01*
X13434183Y21154781D01*
X13434186Y21154777D01*
X13553159Y21035804D01*
X13553173Y21035792D01*
X18692370Y15896595D01*
X18726396Y15834283D01*
X18721331Y15763468D01*
X18678784Y15706632D01*
X18612264Y15681821D01*
X18603275Y15681500D01*
X18002635Y15681500D01*
X18002614Y15681498D01*
X17943019Y15675092D01*
X17943018Y15675092D01*
X17808173Y15624799D01*
X17808170Y15624797D01*
X17692953Y15538547D01*
X17606703Y15423330D01*
X17606701Y15423327D01*
X17556409Y15288485D01*
X17550000Y15228879D01*
X17550000Y11323136D01*
X17550002Y11323115D01*
X17556408Y11263520D01*
X17556408Y11263519D01*
X17606701Y11128674D01*
X17606703Y11128671D01*
X17606704Y11128669D01*
X17631874Y11095046D01*
X17692953Y11013454D01*
X17725362Y10989193D01*
X17808169Y10927204D01*
X17808171Y10927204D01*
X17808173Y10927202D01*
X17868530Y10904691D01*
X17943014Y10876910D01*
X17943017Y10876909D01*
X18002627Y10870500D01*
X21908372Y10870501D01*
X21967983Y10876909D01*
X22102831Y10927204D01*
X22218046Y11013454D01*
X22304296Y11128669D01*
X22304855Y11130168D01*
X22337444Y11217543D01*
X22379990Y11274379D01*
X22446510Y11299191D01*
X22515884Y11284100D01*
X22566087Y11233898D01*
X22573556Y11217543D01*
X22606701Y11128674D01*
X22606703Y11128671D01*
X22606704Y11128669D01*
X22631874Y11095046D01*
X22692953Y11013454D01*
X22725362Y10989193D01*
X22808169Y10927204D01*
X22808171Y10927204D01*
X22808173Y10927202D01*
X22868530Y10904691D01*
X22943014Y10876910D01*
X22943017Y10876909D01*
X23002627Y10870500D01*
X26908372Y10870501D01*
X26967983Y10876909D01*
X27102831Y10927204D01*
X27218046Y11013454D01*
X27304296Y11128669D01*
X27304856Y11130169D01*
X27321831Y11175684D01*
X27354591Y11263517D01*
X27361000Y11323127D01*
X27361000Y12265441D01*
X27381002Y12333562D01*
X27434658Y12380055D01*
X27504932Y12390159D01*
X27569512Y12360665D01*
X27576095Y12354536D01*
X27631337Y12299294D01*
X27631343Y12299289D01*
X27631344Y12299288D01*
X27664574Y12278792D01*
X27780665Y12207186D01*
X27947196Y12152003D01*
X27947197Y12152003D01*
X27947203Y12152001D01*
X28049991Y12141500D01*
X29100008Y12141501D01*
X29100009Y12141501D01*
X29202797Y12152001D01*
X29369334Y12207186D01*
X29518656Y12299288D01*
X29642712Y12423344D01*
X29734814Y12572666D01*
X29789999Y12739203D01*
X29800500Y12841991D01*
X29800499Y13442008D01*
X29789999Y13544797D01*
X29789200Y13547210D01*
X29734814Y13711335D01*
X29642711Y13860657D01*
X29642706Y13860663D01*
X29518662Y13984707D01*
X29518656Y13984712D01*
X29369334Y14076815D01*
X29202803Y14131998D01*
X29202791Y14132000D01*
X29100017Y14142500D01*
X28049990Y14142500D01*
X27947202Y14132000D01*
X27780665Y14076815D01*
X27631343Y13984712D01*
X27631337Y13984707D01*
X27576094Y13929463D01*
X27513782Y13895437D01*
X27442967Y13900502D01*
X27386131Y13943049D01*
X27361320Y14009569D01*
X27360999Y14018558D01*
X27360999Y14224000D01*
X32749540Y14224000D01*
X32769325Y14035744D01*
X32827818Y13855722D01*
X32827822Y13855714D01*
X32922464Y13691788D01*
X32922465Y13691786D01*
X32922467Y13691784D01*
X33022136Y13581091D01*
X33052853Y13517083D01*
X33054500Y13496780D01*
X33054500Y9846792D01*
X33054499Y9846774D01*
X33054499Y9839057D01*
X33054499Y9680943D01*
X33093760Y9534421D01*
X33095423Y9528215D01*
X33095425Y9528210D01*
X33115291Y9493802D01*
X33115293Y9493799D01*
X33115294Y9493798D01*
X33174480Y9391284D01*
X33174482Y9391282D01*
X33174485Y9391278D01*
X33293459Y9272304D01*
X33293473Y9272292D01*
X33886595Y8679170D01*
X33920621Y8616858D01*
X33923500Y8590075D01*
X33923500Y7737000D01*
X33924929Y7717024D01*
X33928644Y7665064D01*
X33928646Y7665056D01*
X33937792Y7633909D01*
X33969181Y7527008D01*
X34046969Y7405968D01*
X34155706Y7311746D01*
X34286584Y7251976D01*
X34429000Y7231500D01*
X34429003Y7231500D01*
X35928994Y7231500D01*
X35929000Y7231500D01*
X36000940Y7236645D01*
X36138992Y7277181D01*
X36260032Y7354969D01*
X36354254Y7463706D01*
X36414024Y7594584D01*
X36434500Y7737000D01*
X36434500Y8752745D01*
X36434605Y8757881D01*
X36436251Y8798233D01*
X36436252Y8798255D01*
X36435561Y8852358D01*
X36405692Y8993104D01*
X36378266Y9067793D01*
X36356918Y9117525D01*
X36275460Y9236125D01*
X36221539Y9294632D01*
X36182795Y9332399D01*
X36182792Y9332401D01*
X36182791Y9332402D01*
X36182788Y9332404D01*
X36062154Y9410800D01*
X36062147Y9410804D01*
X35989950Y9444220D01*
X35939685Y9464292D01*
X35815583Y9487332D01*
X35798223Y9490555D01*
X35798222Y9490556D01*
X35798217Y9490556D01*
X35718739Y9493798D01*
X35718728Y9493798D01*
X35718725Y9493798D01*
X35710530Y9493694D01*
X35664624Y9493108D01*
X35664623Y9493107D01*
X35523875Y9463238D01*
X35507404Y9457190D01*
X35498991Y9454432D01*
X35374331Y9418371D01*
X35357014Y9414658D01*
X35250609Y9399564D01*
X35232942Y9398315D01*
X35125476Y9398290D01*
X35107811Y9399530D01*
X35001401Y9414572D01*
X34984081Y9418278D01*
X34859417Y9454276D01*
X34851004Y9457029D01*
X34834527Y9463070D01*
X34834498Y9463079D01*
X34816333Y9468657D01*
X34764224Y9500011D01*
X34292405Y9971830D01*
X34258379Y10034142D01*
X34255500Y10060925D01*
X34255500Y10989193D01*
X34275502Y11057314D01*
X34329158Y11103807D01*
X34399432Y11113911D01*
X34416535Y11110224D01*
X34418307Y11109712D01*
X34418314Y11109709D01*
X34559777Y11083445D01*
X34639275Y11080202D01*
X34693376Y11080893D01*
X34834122Y11110762D01*
X34850604Y11116815D01*
X34858983Y11119563D01*
X34983677Y11155634D01*
X35000974Y11159342D01*
X35107401Y11174439D01*
X35125043Y11175687D01*
X35232523Y11175712D01*
X35250186Y11174473D01*
X35356604Y11159429D01*
X35373914Y11155725D01*
X35498596Y11119722D01*
X35506987Y11116976D01*
X35523483Y11110927D01*
X35575206Y11095046D01*
X35718345Y11080460D01*
X35797842Y11083741D01*
X35797851Y11083742D01*
X35797854Y11083742D01*
X35812427Y11085128D01*
X35851716Y11088864D01*
X35989541Y11130166D01*
X36044492Y11155631D01*
X36061702Y11163606D01*
X36061713Y11163612D01*
X36061731Y11163620D01*
X36109537Y11188966D01*
X36221065Y11279866D01*
X36274958Y11338399D01*
X36309433Y11380119D01*
X36377683Y11506781D01*
X36405073Y11581483D01*
X36420954Y11633206D01*
X36435540Y11776345D01*
X36434607Y11798954D01*
X36434500Y11804147D01*
X36434500Y12836995D01*
X36434143Y12841983D01*
X36429355Y12908940D01*
X36388819Y13046992D01*
X36311031Y13168032D01*
X36202294Y13262254D01*
X36202291Y13262256D01*
X36139528Y13290919D01*
X36085873Y13337412D01*
X36065871Y13405532D01*
X36066561Y13418702D01*
X36084460Y13589000D01*
X36064674Y13777256D01*
X36055127Y13806640D01*
X36006181Y13957279D01*
X36006177Y13957287D01*
X35970802Y14018558D01*
X35960880Y14035744D01*
X35911534Y14121215D01*
X35911533Y14121217D01*
X35844127Y14196079D01*
X38448300Y14196079D01*
X38448300Y12423936D01*
X38448302Y12423915D01*
X38454708Y12364320D01*
X38454708Y12364319D01*
X38505001Y12229474D01*
X38505003Y12229471D01*
X38591253Y12114254D01*
X38647030Y12072500D01*
X38706469Y12028004D01*
X38706471Y12028004D01*
X38706473Y12028002D01*
X38766830Y12005491D01*
X38841314Y11977710D01*
X38841317Y11977709D01*
X38900927Y11971300D01*
X39060500Y11971301D01*
X39128620Y11951299D01*
X39175113Y11897644D01*
X39186500Y11845301D01*
X39186500Y8474700D01*
X39166498Y8406579D01*
X39112842Y8360086D01*
X39060501Y8348700D01*
X38900935Y8348700D01*
X38900914Y8348698D01*
X38841319Y8342292D01*
X38841318Y8342292D01*
X38706473Y8291999D01*
X38706470Y8291997D01*
X38591253Y8205747D01*
X38505003Y8090530D01*
X38505001Y8090527D01*
X38454709Y7955685D01*
X38448300Y7896079D01*
X38448300Y6123936D01*
X38448302Y6123915D01*
X38454708Y6064320D01*
X38454708Y6064319D01*
X38505001Y5929474D01*
X38505003Y5929471D01*
X38591253Y5814254D01*
X38648861Y5771129D01*
X38706469Y5728004D01*
X38706471Y5728004D01*
X38706473Y5728002D01*
X38766830Y5705491D01*
X38841314Y5677710D01*
X38841317Y5677709D01*
X38900927Y5671300D01*
X40673072Y5671301D01*
X40732683Y5677709D01*
X40867531Y5728004D01*
X40982746Y5814254D01*
X41068996Y5929469D01*
X41119291Y6064317D01*
X41125700Y6123927D01*
X41125699Y7896072D01*
X41119291Y7955683D01*
X41095108Y8020520D01*
X41068998Y8090527D01*
X41068996Y8090530D01*
X41068996Y8090531D01*
X41006636Y8173833D01*
X40982746Y8205747D01*
X40876764Y8285084D01*
X40867531Y8291996D01*
X40867529Y8291997D01*
X40867526Y8291999D01*
X40732683Y8342291D01*
X40732686Y8342291D01*
X40673078Y8348700D01*
X40673073Y8348700D01*
X40513500Y8348700D01*
X40445379Y8368702D01*
X40398886Y8422358D01*
X40387500Y8474700D01*
X40387500Y11845301D01*
X40407502Y11913422D01*
X40461158Y11959915D01*
X40513500Y11971301D01*
X40673065Y11971301D01*
X40673072Y11971301D01*
X40732683Y11977709D01*
X40867531Y12028004D01*
X40982746Y12114254D01*
X41068996Y12229469D01*
X41072874Y12239865D01*
X41084509Y12271061D01*
X41119291Y12364317D01*
X41125700Y12423927D01*
X41125699Y14196072D01*
X41119291Y14255683D01*
X41076710Y14369849D01*
X41068998Y14390527D01*
X41068996Y14390530D01*
X41068996Y14390531D01*
X40994908Y14489500D01*
X40982746Y14505747D01*
X40905791Y14563355D01*
X40867531Y14591996D01*
X40867529Y14591997D01*
X40867526Y14591999D01*
X40732683Y14642291D01*
X40732686Y14642291D01*
X40673073Y14648700D01*
X38900935Y14648700D01*
X38900914Y14648698D01*
X38841319Y14642292D01*
X38841318Y14642292D01*
X38706473Y14591999D01*
X38706470Y14591997D01*
X38591253Y14505747D01*
X38505003Y14390530D01*
X38505001Y14390527D01*
X38454709Y14255685D01*
X38448300Y14196079D01*
X35844127Y14196079D01*
X35784873Y14261887D01*
X35631732Y14373150D01*
X35631732Y14373151D01*
X35489524Y14436466D01*
X35458803Y14450144D01*
X35458801Y14450145D01*
X35458800Y14450145D01*
X35273646Y14489500D01*
X35084354Y14489500D01*
X34899199Y14450145D01*
X34726267Y14373151D01*
X34720550Y14369849D01*
X34719869Y14371028D01*
X34659829Y14349607D01*
X34590678Y14365691D01*
X34541200Y14416607D01*
X34532808Y14436466D01*
X34482181Y14592279D01*
X34482177Y14592287D01*
X34453307Y14642291D01*
X34387534Y14756215D01*
X34387533Y14756217D01*
X34260873Y14896887D01*
X34107732Y15008150D01*
X34107732Y15008151D01*
X33982145Y15064066D01*
X33934803Y15085144D01*
X33934801Y15085145D01*
X33934800Y15085145D01*
X33749646Y15124500D01*
X33560354Y15124500D01*
X33375199Y15085145D01*
X33202267Y15008151D01*
X33202267Y15008150D01*
X33049126Y14896887D01*
X32922466Y14756217D01*
X32922465Y14756215D01*
X32827822Y14592287D01*
X32827818Y14592279D01*
X32769325Y14412257D01*
X32749540Y14224000D01*
X27360999Y14224000D01*
X27360999Y15228865D01*
X27360999Y15228872D01*
X27354591Y15288483D01*
X27333300Y15345565D01*
X27304298Y15423327D01*
X27304296Y15423330D01*
X27304296Y15423331D01*
X27261171Y15480939D01*
X27218046Y15538547D01*
X27141091Y15596155D01*
X27102831Y15624796D01*
X27102829Y15624797D01*
X27102826Y15624799D01*
X26967983Y15675091D01*
X26967986Y15675091D01*
X26908373Y15681500D01*
X23002635Y15681500D01*
X23002614Y15681498D01*
X22943019Y15675092D01*
X22943018Y15675092D01*
X22808173Y15624799D01*
X22808170Y15624797D01*
X22692953Y15538547D01*
X22606703Y15423330D01*
X22606702Y15423329D01*
X22573556Y15334457D01*
X22531010Y15277621D01*
X22464490Y15252810D01*
X22395115Y15267901D01*
X22344913Y15318103D01*
X22337444Y15334457D01*
X22304297Y15423329D01*
X22304296Y15423330D01*
X22304296Y15423331D01*
X22261171Y15480939D01*
X22218046Y15538547D01*
X22141091Y15596155D01*
X22102831Y15624796D01*
X22102829Y15624797D01*
X22102826Y15624799D01*
X21967983Y15675091D01*
X21967986Y15675091D01*
X21908378Y15681500D01*
X21908373Y15681500D01*
X20606866Y15681500D01*
X20538745Y15701502D01*
X20497748Y15744498D01*
X20486139Y15764605D01*
X20486137Y15764609D01*
X20436023Y15851412D01*
X20436016Y15851421D01*
X20319827Y15967610D01*
X20319804Y15967631D01*
X14552105Y21735330D01*
X14518079Y21797642D01*
X14515200Y21824425D01*
X14515200Y24294875D01*
X14535202Y24362996D01*
X14588858Y24409489D01*
X14659132Y24419593D01*
X14723712Y24390099D01*
X14730295Y24383970D01*
X19339777Y19774486D01*
X19339782Y19774482D01*
X19339784Y19774480D01*
X19339785Y19774479D01*
X19339787Y19774478D01*
X19476713Y19695424D01*
X19476716Y19695423D01*
X19629443Y19654499D01*
X19795276Y19654499D01*
X19795292Y19654500D01*
X46514895Y19654500D01*
X46514911Y19654499D01*
X46522629Y19654499D01*
X46680740Y19654499D01*
X46680743Y19654499D01*
X46833471Y19695423D01*
X46857994Y19709583D01*
X46883567Y19724347D01*
X46883577Y19724355D01*
X46883590Y19724361D01*
X46970402Y19774480D01*
X47082206Y19886284D01*
X47082206Y19886286D01*
X47092576Y19896655D01*
X47092579Y19896660D01*
X50858516Y23662595D01*
X50920828Y23696621D01*
X50947611Y23699500D01*
X52927992Y23699500D01*
X52996113Y23679498D01*
X53042606Y23625842D01*
X53052710Y23555568D01*
X53037112Y23510501D01*
X53020820Y23482284D01*
X53020818Y23482279D01*
X52962325Y23302257D01*
X52942540Y23114000D01*
X52953432Y23010365D01*
X52940659Y22940527D01*
X52892157Y22888680D01*
X52823324Y22871286D01*
X52776873Y22882088D01*
X52645617Y22940527D01*
X52603803Y22959144D01*
X52603801Y22959145D01*
X52603800Y22959145D01*
X52418646Y22998500D01*
X52229354Y22998500D01*
X52044199Y22959145D01*
X51871267Y22882151D01*
X51871267Y22882150D01*
X51718126Y22770887D01*
X51591466Y22630217D01*
X51591465Y22630215D01*
X51496822Y22466287D01*
X51496818Y22466279D01*
X51441628Y22296419D01*
X51410891Y22246260D01*
X51360050Y22195419D01*
X51331218Y22152267D01*
X51331217Y22152266D01*
X51277916Y22072496D01*
X51221343Y21935917D01*
X51221342Y21935914D01*
X51192500Y21790917D01*
X51192500Y12182655D01*
X51172498Y12114534D01*
X51118842Y12068041D01*
X51102000Y12061759D01*
X50983007Y12026819D01*
X50983006Y12026818D01*
X50861968Y11949032D01*
X50767746Y11840295D01*
X50759978Y11823284D01*
X50732448Y11763001D01*
X50724756Y11746158D01*
X50678263Y11692502D01*
X50610142Y11672500D01*
X50229823Y11672500D01*
X50161702Y11692502D01*
X50115209Y11746158D01*
X50108927Y11763001D01*
X50104819Y11776992D01*
X50027031Y11898032D01*
X49918294Y11992254D01*
X49787416Y12052024D01*
X49645000Y12072500D01*
X48145000Y12072500D01*
X48119588Y12070683D01*
X48073063Y12067356D01*
X48073055Y12067354D01*
X47935008Y12026819D01*
X47935006Y12026818D01*
X47813968Y11949032D01*
X47719746Y11840295D01*
X47659976Y11709417D01*
X47659974Y11709411D01*
X47649520Y11636700D01*
X47620027Y11572120D01*
X47594809Y11549870D01*
X47573085Y11535354D01*
X47527585Y11504952D01*
X47527583Y11504951D01*
X47527580Y11504948D01*
X45557051Y9534421D01*
X45557045Y9534413D01*
X45510194Y9464293D01*
X45510193Y9464291D01*
X45474916Y9411496D01*
X45418343Y9274917D01*
X45418342Y9274914D01*
X45389500Y9129917D01*
X45389500Y8464479D01*
X45369498Y8396358D01*
X45315842Y8349865D01*
X45245568Y8339761D01*
X45234530Y8341855D01*
X45232689Y8342290D01*
X45232684Y8342291D01*
X45232683Y8342291D01*
X45208983Y8344840D01*
X45173078Y8348700D01*
X45173073Y8348700D01*
X45013500Y8348700D01*
X44945379Y8368702D01*
X44898886Y8422358D01*
X44887500Y8474700D01*
X44887500Y11845301D01*
X44907502Y11913422D01*
X44961158Y11959915D01*
X45013500Y11971301D01*
X45173065Y11971301D01*
X45173072Y11971301D01*
X45232683Y11977709D01*
X45367531Y12028004D01*
X45482746Y12114254D01*
X45568996Y12229469D01*
X45572874Y12239865D01*
X45584509Y12271061D01*
X45619291Y12364317D01*
X45625700Y12423927D01*
X45625699Y14196072D01*
X45619291Y14255683D01*
X45576710Y14369849D01*
X45568998Y14390527D01*
X45568996Y14390530D01*
X45568996Y14390531D01*
X45494908Y14489500D01*
X45482746Y14505747D01*
X45405791Y14563355D01*
X45367531Y14591996D01*
X45367529Y14591997D01*
X45367526Y14591999D01*
X45232683Y14642291D01*
X45232686Y14642291D01*
X45173073Y14648700D01*
X43400935Y14648700D01*
X43400914Y14648698D01*
X43341319Y14642292D01*
X43341318Y14642292D01*
X43206473Y14591999D01*
X43206470Y14591997D01*
X43091253Y14505747D01*
X43005003Y14390530D01*
X43005001Y14390527D01*
X42954709Y14255685D01*
X42948300Y14196079D01*
X42948300Y12423936D01*
X42948302Y12423915D01*
X42954708Y12364320D01*
X42954708Y12364319D01*
X43005001Y12229474D01*
X43005003Y12229471D01*
X43091253Y12114254D01*
X43147030Y12072500D01*
X43206469Y12028004D01*
X43206471Y12028004D01*
X43206473Y12028002D01*
X43266830Y12005491D01*
X43341314Y11977710D01*
X43341317Y11977709D01*
X43400927Y11971300D01*
X43560500Y11971301D01*
X43628620Y11951299D01*
X43675113Y11897644D01*
X43686500Y11845301D01*
X43686500Y8474700D01*
X43666498Y8406579D01*
X43612842Y8360086D01*
X43560501Y8348700D01*
X43400935Y8348700D01*
X43400914Y8348698D01*
X43341319Y8342292D01*
X43341318Y8342292D01*
X43206473Y8291999D01*
X43206470Y8291997D01*
X43091253Y8205747D01*
X43005003Y8090530D01*
X43005001Y8090527D01*
X42954709Y7955685D01*
X42948300Y7896079D01*
X42948300Y6123936D01*
X42948302Y6123915D01*
X42954708Y6064320D01*
X42954708Y6064319D01*
X43005001Y5929474D01*
X43005003Y5929471D01*
X43091253Y5814254D01*
X43148861Y5771129D01*
X43206469Y5728004D01*
X43206471Y5728004D01*
X43206473Y5728002D01*
X43266830Y5705491D01*
X43341314Y5677710D01*
X43341317Y5677709D01*
X43400927Y5671300D01*
X45173072Y5671301D01*
X45232683Y5677709D01*
X45367531Y5728004D01*
X45482746Y5814254D01*
X45568996Y5929469D01*
X45619291Y6064317D01*
X45625700Y6123927D01*
X45625699Y6416745D01*
X45645701Y6484863D01*
X45699356Y6531356D01*
X45769630Y6541461D01*
X45834211Y6511968D01*
X45840781Y6505851D01*
X46787039Y5559594D01*
X46821063Y5497283D01*
X46815999Y5426468D01*
X46773452Y5369632D01*
X46706932Y5344821D01*
X46697943Y5344500D01*
X5470500Y5344500D01*
X5402379Y5364502D01*
X5355886Y5418158D01*
X5344500Y5470500D01*
X5344500Y6731004D01*
X5725659Y6731004D01*
X5725659Y6730997D01*
X5744974Y6534876D01*
X5744974Y6534874D01*
X5802186Y6346272D01*
X5813779Y6324584D01*
X5895090Y6172462D01*
X6020117Y6020117D01*
X6172462Y5895090D01*
X6346273Y5802186D01*
X6534868Y5744976D01*
X6534872Y5744976D01*
X6534874Y5744975D01*
X6730997Y5725659D01*
X6731000Y5725659D01*
X6731003Y5725659D01*
X6927124Y5744975D01*
X6927126Y5744975D01*
X6927127Y5744976D01*
X6927132Y5744976D01*
X7115727Y5802186D01*
X7289538Y5895090D01*
X7441883Y6020117D01*
X7566910Y6172462D01*
X7659814Y6346273D01*
X7717024Y6534868D01*
X7717025Y6534876D01*
X7736341Y6730997D01*
X7736341Y6731004D01*
X7717025Y6927125D01*
X7717025Y6927127D01*
X7717024Y6927130D01*
X7717024Y6927132D01*
X7659814Y7115727D01*
X7566910Y7289538D01*
X7441883Y7441883D01*
X7289538Y7566910D01*
X7237764Y7594584D01*
X7115728Y7659814D01*
X6927125Y7717026D01*
X6731003Y7736341D01*
X6730997Y7736341D01*
X6534875Y7717026D01*
X6534873Y7717026D01*
X6346271Y7659814D01*
X6172461Y7566910D01*
X6020117Y7441883D01*
X5895090Y7289539D01*
X5802186Y7115729D01*
X5744974Y6927127D01*
X5744974Y6927125D01*
X5725659Y6731004D01*
X5344500Y6731004D01*
X5344500Y30515001D01*
X11809552Y30515001D01*
X11809553Y30515000D01*
X12552447Y30515000D01*
X12552447Y30515001D01*
X12181001Y30886447D01*
X12180999Y30886447D01*
X11809552Y30515001D01*
X5344500Y30515001D01*
X5344500Y31965000D01*
X11809552Y31965000D01*
X12180999Y31593553D01*
X12181001Y31593553D01*
X12552447Y31965000D01*
X11809552Y31965000D01*
X5344500Y31965000D01*
X5344500Y39155001D01*
X11809552Y39155001D01*
X11809553Y39155000D01*
X12552447Y39155000D01*
X12552447Y39155001D01*
X12181001Y39526447D01*
X12180999Y39526447D01*
X11809552Y39155001D01*
X5344500Y39155001D01*
X5344500Y39951409D01*
X10931000Y39951409D01*
X10931000Y39808592D01*
X10958861Y39668525D01*
X10958863Y39668520D01*
X11013513Y39536585D01*
X11092853Y39417844D01*
X11092854Y39417842D01*
X11193840Y39316855D01*
X11193842Y39316854D01*
X11236078Y39288633D01*
X11540982Y39593537D01*
X11591504Y39580000D01*
X12770496Y39580000D01*
X12821015Y39593537D01*
X13125919Y39288633D01*
X13125920Y39288633D01*
X13168159Y39316855D01*
X13269145Y39417842D01*
X13269146Y39417844D01*
X13348486Y39536585D01*
X13403136Y39668520D01*
X13403138Y39668525D01*
X13430999Y39808592D01*
X13431000Y39808596D01*
X13431000Y39951405D01*
X13430999Y39951409D01*
X13403138Y40091476D01*
X13403136Y40091481D01*
X13348486Y40223416D01*
X13269146Y40342157D01*
X13269145Y40342159D01*
X13168159Y40443146D01*
X13168157Y40443147D01*
X13125920Y40471369D01*
X12821015Y40166464D01*
X12770496Y40180000D01*
X11591504Y40180000D01*
X11540984Y40166464D01*
X11236079Y40471369D01*
X11193839Y40443145D01*
X11092854Y40342159D01*
X11092853Y40342157D01*
X11013513Y40223416D01*
X10958863Y40091481D01*
X10958861Y40091476D01*
X10931000Y39951409D01*
X5344500Y39951409D01*
X5344500Y40605000D01*
X11809552Y40605000D01*
X12180999Y40233553D01*
X12181001Y40233553D01*
X12552447Y40605000D01*
X11809552Y40605000D01*
X5344500Y40605000D01*
X5344500Y65649500D01*
X5364502Y65717621D01*
X5418158Y65764114D01*
X5470500Y65775500D01*
X85969500Y65775500D01*
X86037621Y65755498D01*
G37*
%TD.AperFunction*%
%TA.AperFunction,Conductor*%
G36*
X17084946Y34005288D02*
G01*
X17085132Y34005609D01*
X17086458Y34004844D01*
X17087634Y34004498D01*
X17090283Y34002635D01*
X17229213Y33922424D01*
X17229216Y33922423D01*
X17380442Y33881901D01*
X17381943Y33881499D01*
X17547776Y33881499D01*
X17547792Y33881500D01*
X24019075Y33881500D01*
X24087196Y33861498D01*
X24108165Y33844600D01*
X24471359Y33481406D01*
X24798395Y33154370D01*
X24832420Y33092058D01*
X24827355Y33021242D01*
X24784808Y32964407D01*
X24718288Y32939596D01*
X24696492Y32939928D01*
X24593017Y32950500D01*
X23967990Y32950500D01*
X23865202Y32940000D01*
X23698665Y32884815D01*
X23549343Y32792712D01*
X23549337Y32792707D01*
X23457095Y32700464D01*
X23394783Y32666438D01*
X23323968Y32671503D01*
X23278905Y32700464D01*
X23186662Y32792707D01*
X23186656Y32792712D01*
X23037334Y32884815D01*
X22870803Y32939998D01*
X22870791Y32940000D01*
X22768017Y32950500D01*
X22142990Y32950500D01*
X22040202Y32940000D01*
X21873665Y32884815D01*
X21724343Y32792712D01*
X21724337Y32792707D01*
X21600293Y32668663D01*
X21600288Y32668657D01*
X21508185Y32519335D01*
X21453002Y32352804D01*
X21453000Y32352792D01*
X21442500Y32250018D01*
X21442500Y32150926D01*
X21422498Y32082805D01*
X21405595Y32061831D01*
X20713286Y31369522D01*
X20713284Y31369520D01*
X20673078Y31329314D01*
X20601481Y31257718D01*
X20601477Y31257713D01*
X20565435Y31195284D01*
X20522423Y31120787D01*
X20505009Y31055795D01*
X20481499Y30968057D01*
X20481499Y30968055D01*
X20481499Y30799793D01*
X20481500Y30799780D01*
X20481500Y25861818D01*
X20461498Y25793697D01*
X20407842Y25747204D01*
X20406793Y25746731D01*
X20381135Y25735308D01*
X20248267Y25676151D01*
X20248267Y25676150D01*
X20095126Y25564887D01*
X19968466Y25424217D01*
X19968465Y25424215D01*
X19873822Y25260287D01*
X19873818Y25260279D01*
X19815325Y25080257D01*
X19795540Y24892000D01*
X19815325Y24703744D01*
X19873818Y24523722D01*
X19873822Y24523714D01*
X19968465Y24359786D01*
X19968466Y24359784D01*
X20095126Y24219114D01*
X20248267Y24107851D01*
X20248267Y24107850D01*
X20262878Y24101345D01*
X20421197Y24030856D01*
X20606354Y23991500D01*
X20795646Y23991500D01*
X20980803Y24030856D01*
X21153730Y24107849D01*
X21153730Y24107850D01*
X21153732Y24107850D01*
X21153732Y24107851D01*
X21306871Y24219112D01*
X21308522Y24220945D01*
X21433533Y24359784D01*
X21433534Y24359786D01*
X21441264Y24373175D01*
X21528179Y24523716D01*
X21530048Y24529466D01*
X21554666Y24605234D01*
X21594739Y24663840D01*
X21660136Y24691477D01*
X21730093Y24679370D01*
X21781739Y24632446D01*
X21792286Y24615347D01*
X21792293Y24615338D01*
X21916337Y24491294D01*
X21916343Y24491289D01*
X21916344Y24491288D01*
X21949235Y24471001D01*
X22065665Y24399186D01*
X22232196Y24344003D01*
X22232197Y24344003D01*
X22232203Y24344001D01*
X22334991Y24333500D01*
X23385008Y24333501D01*
X23385009Y24333501D01*
X23487797Y24344001D01*
X23532451Y24358798D01*
X23654334Y24399186D01*
X23679553Y24414741D01*
X23745699Y24433500D01*
X24133301Y24433500D01*
X24199447Y24414741D01*
X24224666Y24399186D01*
X24252089Y24390099D01*
X24391196Y24344003D01*
X24391197Y24344003D01*
X24391203Y24344001D01*
X24493991Y24333500D01*
X25544008Y24333501D01*
X25544009Y24333501D01*
X25646797Y24344001D01*
X25691451Y24358798D01*
X25813334Y24399186D01*
X25838553Y24414741D01*
X25904699Y24433500D01*
X26292301Y24433500D01*
X26358447Y24414741D01*
X26383666Y24399186D01*
X26411089Y24390099D01*
X26550196Y24344003D01*
X26550197Y24344003D01*
X26550203Y24344001D01*
X26652991Y24333500D01*
X27703008Y24333501D01*
X27703009Y24333501D01*
X27805797Y24344001D01*
X27972334Y24399186D01*
X27983623Y24406149D01*
X28104556Y24480742D01*
X28170703Y24499500D01*
X28483702Y24499500D01*
X28529051Y24489446D01*
X28529337Y24490306D01*
X28536300Y24487999D01*
X28536303Y24487997D01*
X28697292Y24434651D01*
X28796655Y24424500D01*
X29343344Y24424501D01*
X29343345Y24424501D01*
X29449502Y24435345D01*
X29519302Y24422369D01*
X29571007Y24373716D01*
X29588200Y24304832D01*
X29565423Y24237589D01*
X29551401Y24220902D01*
X29467542Y24137044D01*
X29467537Y24137037D01*
X29467536Y24137036D01*
X29448035Y24107850D01*
X29428063Y24077960D01*
X29368989Y23989551D01*
X29348967Y23941213D01*
X29301105Y23825666D01*
X29301104Y23825662D01*
X29295352Y23796749D01*
X29262443Y23733841D01*
X29260871Y23732241D01*
X29199290Y23670659D01*
X29199288Y23670657D01*
X29107185Y23521335D01*
X29052002Y23354804D01*
X29052000Y23354792D01*
X29041500Y23252018D01*
X29041500Y21451991D01*
X29052000Y21349203D01*
X29107185Y21182666D01*
X29190466Y21047647D01*
X29209203Y20979167D01*
X29187944Y20911429D01*
X29133436Y20865937D01*
X29083225Y20855500D01*
X20009426Y20855500D01*
X19941305Y20875502D01*
X19920331Y20892405D01*
X15750615Y25062120D01*
X15716589Y25124432D01*
X15720105Y25190848D01*
X15757999Y25305203D01*
X15768500Y25407991D01*
X15768499Y26408008D01*
X15766881Y26423843D01*
X15757999Y26510798D01*
X15702814Y26677335D01*
X15610711Y26826657D01*
X15610706Y26826663D01*
X15486662Y26950707D01*
X15486656Y26950712D01*
X15337334Y27042815D01*
X15170803Y27097998D01*
X15170791Y27098000D01*
X15068017Y27108500D01*
X15068009Y27108500D01*
X14641200Y27108500D01*
X14573079Y27128502D01*
X14526586Y27182158D01*
X14515200Y27234500D01*
X14515200Y27985501D01*
X14535202Y28053622D01*
X14588858Y28100115D01*
X14641200Y28111501D01*
X14717009Y28111501D01*
X14819797Y28122001D01*
X14986334Y28177186D01*
X15135656Y28269288D01*
X15259712Y28393344D01*
X15351814Y28542666D01*
X15406999Y28709203D01*
X15417500Y28811991D01*
X15417499Y29862008D01*
X15414931Y29887144D01*
X15406999Y29964798D01*
X15351814Y30131335D01*
X15259711Y30280657D01*
X15259706Y30280663D01*
X15135662Y30404707D01*
X15135656Y30404712D01*
X14986334Y30496815D01*
X14819803Y30551998D01*
X14819791Y30552000D01*
X14717017Y30562500D01*
X14717009Y30562500D01*
X14359200Y30562500D01*
X14291079Y30582502D01*
X14244586Y30636158D01*
X14233200Y30688500D01*
X14233200Y33239056D01*
X14233200Y33239057D01*
X14192277Y33391784D01*
X14192275Y33391787D01*
X14192275Y33391789D01*
X14117964Y33520500D01*
X14101226Y33589496D01*
X14124447Y33656587D01*
X14180254Y33700474D01*
X14227083Y33709500D01*
X14297573Y33709500D01*
X14365694Y33689498D01*
X14412187Y33635842D01*
X14422921Y33596304D01*
X14431000Y33517203D01*
X14486185Y33350666D01*
X14578288Y33201344D01*
X14578293Y33201338D01*
X14702337Y33077294D01*
X14702343Y33077289D01*
X14702344Y33077288D01*
X14759563Y33041996D01*
X14851665Y32985186D01*
X15018196Y32930003D01*
X15018197Y32930003D01*
X15018203Y32930001D01*
X15120991Y32919500D01*
X16121008Y32919501D01*
X16121009Y32919501D01*
X16223797Y32930001D01*
X16390334Y32985186D01*
X16402224Y32992520D01*
X16539656Y33077288D01*
X16663712Y33201344D01*
X16755814Y33350666D01*
X16810999Y33517203D01*
X16821500Y33619991D01*
X16821499Y33898502D01*
X16841501Y33966620D01*
X16895156Y34013113D01*
X16947499Y34024500D01*
X17019513Y34024500D01*
X17084946Y34005288D01*
G37*
%TD.AperFunction*%
%TA.AperFunction,Conductor*%
G36*
X31395390Y27004862D02*
G01*
X31411835Y26994294D01*
X31413358Y26993139D01*
X31554135Y26937623D01*
X31554134Y26937623D01*
X31582094Y26934266D01*
X31642598Y26927000D01*
X31688575Y26927000D01*
X31756696Y26906998D01*
X31777670Y26890095D01*
X32004069Y26663696D01*
X32004090Y26663673D01*
X32120277Y26547486D01*
X32120282Y26547482D01*
X32120284Y26547480D01*
X32120285Y26547479D01*
X32120287Y26547478D01*
X32161819Y26523500D01*
X32257216Y26468423D01*
X32307871Y26454851D01*
X32364396Y26422197D01*
X32737668Y26048573D01*
X32771664Y25986245D01*
X32768136Y25919889D01*
X32727652Y25797713D01*
X32727650Y25797703D01*
X32717500Y25698354D01*
X32717500Y25101655D01*
X32727650Y25002296D01*
X32727650Y25002294D01*
X32727651Y25002292D01*
X32780997Y24841303D01*
X32863955Y24706808D01*
X32870032Y24696956D01*
X32870037Y24696950D01*
X32989949Y24577038D01*
X32989955Y24577033D01*
X32989956Y24577032D01*
X33134303Y24487997D01*
X33295292Y24434651D01*
X33394655Y24424500D01*
X33941344Y24424501D01*
X33941345Y24424501D01*
X33961501Y24426560D01*
X34040708Y24434651D01*
X34201697Y24487997D01*
X34201698Y24487998D01*
X34208664Y24490306D01*
X34208949Y24489446D01*
X34254298Y24499500D01*
X34825868Y24499500D01*
X34865501Y24493104D01*
X34932196Y24471003D01*
X34932197Y24471003D01*
X34932203Y24471001D01*
X35034991Y24460500D01*
X36085008Y24460501D01*
X36085009Y24460501D01*
X36187797Y24471001D01*
X36231911Y24485619D01*
X36354334Y24526186D01*
X36379553Y24541741D01*
X36445699Y24560500D01*
X36833301Y24560500D01*
X36899447Y24541741D01*
X36924666Y24526186D01*
X36990937Y24504226D01*
X37091196Y24471003D01*
X37091197Y24471003D01*
X37091203Y24471001D01*
X37193991Y24460500D01*
X38244008Y24460501D01*
X38244009Y24460501D01*
X38346797Y24471001D01*
X38390911Y24485619D01*
X38513334Y24526186D01*
X38538553Y24541741D01*
X38604699Y24560500D01*
X38992301Y24560500D01*
X39058447Y24541741D01*
X39083666Y24526186D01*
X39149937Y24504226D01*
X39250196Y24471003D01*
X39250197Y24471003D01*
X39250203Y24471001D01*
X39352991Y24460500D01*
X40403008Y24460501D01*
X40403009Y24460501D01*
X40505797Y24471001D01*
X40672334Y24526186D01*
X40727966Y24560500D01*
X40821656Y24618288D01*
X40889764Y24686397D01*
X40952074Y24720420D01*
X40978858Y24723300D01*
X41749570Y24723300D01*
X41817691Y24703298D01*
X41864184Y24649642D01*
X41869174Y24636934D01*
X41904786Y24529465D01*
X41976370Y24413409D01*
X41996888Y24380144D01*
X42018236Y24358796D01*
X42052261Y24296487D01*
X42047197Y24225671D01*
X42025322Y24191615D01*
X42026841Y24190414D01*
X42022288Y24184657D01*
X41930185Y24035335D01*
X41875002Y23868804D01*
X41875000Y23868792D01*
X41864500Y23766018D01*
X41864500Y22715991D01*
X41875000Y22613203D01*
X41930185Y22446666D01*
X42022288Y22297344D01*
X42022293Y22297338D01*
X42146337Y22173294D01*
X42146343Y22173289D01*
X42146344Y22173288D01*
X42203563Y22137996D01*
X42295665Y22081186D01*
X42462196Y22026003D01*
X42462197Y22026003D01*
X42462203Y22026001D01*
X42564991Y22015500D01*
X43165008Y22015501D01*
X43165009Y22015501D01*
X43166758Y22015680D01*
X43174627Y22016484D01*
X43244427Y22003512D01*
X43276533Y21980232D01*
X43417069Y21839696D01*
X43417090Y21839673D01*
X43533277Y21723486D01*
X43533282Y21723482D01*
X43533284Y21723480D01*
X43533285Y21723479D01*
X43533287Y21723478D01*
X43670211Y21644425D01*
X43670213Y21644425D01*
X43670216Y21644423D01*
X43741114Y21625426D01*
X43801736Y21588475D01*
X43832757Y21524615D01*
X43824329Y21454120D01*
X43817622Y21440721D01*
X43749820Y21323284D01*
X43749818Y21323279D01*
X43691325Y21143257D01*
X43672941Y20968330D01*
X43645928Y20902673D01*
X43587707Y20862043D01*
X43547631Y20855500D01*
X33400775Y20855500D01*
X33332654Y20875502D01*
X33286161Y20929158D01*
X33276057Y20999432D01*
X33293534Y21047647D01*
X33376814Y21182666D01*
X33431997Y21349197D01*
X33431996Y21349197D01*
X33431999Y21349203D01*
X33442500Y21451991D01*
X33442499Y23252008D01*
X33431999Y23354797D01*
X33415070Y23405887D01*
X33376814Y23521335D01*
X33307630Y23633500D01*
X33284712Y23670656D01*
X33284709Y23670659D01*
X33284706Y23670663D01*
X33223130Y23732239D01*
X33189104Y23794551D01*
X33188646Y23796755D01*
X33182896Y23825661D01*
X33182895Y23825662D01*
X33182895Y23825666D01*
X33117377Y23983837D01*
X33115706Y23988511D01*
X33016464Y24137035D01*
X32977210Y24176289D01*
X32932554Y24220945D01*
X32913759Y24239740D01*
X32909224Y24244518D01*
X32863869Y24294890D01*
X32863867Y24294891D01*
X32852657Y24303036D01*
X32837624Y24315876D01*
X32832038Y24321462D01*
X32832034Y24321465D01*
X32832034Y24321466D01*
X32832031Y24321468D01*
X32775046Y24359544D01*
X32770989Y24362372D01*
X32710733Y24406149D01*
X32710725Y24406154D01*
X32704235Y24409044D01*
X32685505Y24419373D01*
X32684552Y24420010D01*
X32684550Y24420011D01*
X32615031Y24448808D01*
X32612005Y24450109D01*
X32537807Y24483143D01*
X32537803Y24483144D01*
X32537473Y24483214D01*
X32526721Y24486553D01*
X32526584Y24486100D01*
X32520666Y24487895D01*
X32440245Y24503892D01*
X32438631Y24504224D01*
X32352647Y24522500D01*
X32352646Y24522500D01*
X32163354Y24522500D01*
X32163352Y24522500D01*
X32077365Y24504224D01*
X32075753Y24503892D01*
X32053559Y24499477D01*
X31995334Y24487895D01*
X31995332Y24487895D01*
X31995326Y24487893D01*
X31989414Y24486100D01*
X31989280Y24486542D01*
X31978546Y24483219D01*
X31978200Y24483146D01*
X31978196Y24483145D01*
X31904008Y24450114D01*
X31900981Y24448813D01*
X31831456Y24420013D01*
X31831451Y24420011D01*
X31831447Y24420009D01*
X31830493Y24419371D01*
X31811769Y24409046D01*
X31805278Y24406156D01*
X31805268Y24406150D01*
X31795683Y24399186D01*
X31745017Y24362376D01*
X31740977Y24359560D01*
X31717695Y24344003D01*
X31683966Y24321465D01*
X31683963Y24321463D01*
X31683958Y24321459D01*
X31678367Y24315868D01*
X31663342Y24303036D01*
X31652129Y24294889D01*
X31606789Y24244534D01*
X31602249Y24239750D01*
X31558535Y24196036D01*
X31550387Y24183841D01*
X31539264Y24169541D01*
X31525469Y24154220D01*
X31525463Y24154212D01*
X31494940Y24101345D01*
X31490589Y24094349D01*
X31459990Y24048553D01*
X31459983Y24048540D01*
X31451791Y24028763D01*
X31444507Y24013992D01*
X31430820Y23990283D01*
X31430818Y23990280D01*
X31414035Y23938628D01*
X31410612Y23929349D01*
X31392107Y23884675D01*
X31392104Y23884663D01*
X31386609Y23857042D01*
X31382865Y23842694D01*
X31372326Y23810259D01*
X31372325Y23810256D01*
X31367350Y23762926D01*
X31365594Y23751389D01*
X31365552Y23751179D01*
X31332579Y23688304D01*
X31270847Y23653237D01*
X31199956Y23657111D01*
X31142414Y23698697D01*
X31118358Y23751624D01*
X31118316Y23751838D01*
X31116647Y23762936D01*
X31112487Y23802520D01*
X31111674Y23810256D01*
X31101130Y23842703D01*
X31097388Y23857045D01*
X31096380Y23862115D01*
X31091895Y23884666D01*
X31091891Y23884675D01*
X31073383Y23929358D01*
X31069963Y23938628D01*
X31053179Y23990284D01*
X31039496Y24013984D01*
X31032209Y24028762D01*
X31024015Y24048542D01*
X31024013Y24048547D01*
X30993409Y24094349D01*
X30993397Y24094367D01*
X30989058Y24101345D01*
X30958533Y24154216D01*
X30944734Y24169542D01*
X30933609Y24183846D01*
X30929220Y24190414D01*
X30925464Y24196036D01*
X30881740Y24239760D01*
X30877217Y24244526D01*
X30854550Y24269700D01*
X30831871Y24294888D01*
X30831870Y24294889D01*
X30831868Y24294891D01*
X30820659Y24303035D01*
X30805625Y24315876D01*
X30800041Y24321460D01*
X30800035Y24321465D01*
X30743040Y24359548D01*
X30738982Y24362376D01*
X30700824Y24390099D01*
X30678730Y24406151D01*
X30678729Y24406152D01*
X30678727Y24406153D01*
X30672251Y24409036D01*
X30653507Y24419372D01*
X30652550Y24420012D01*
X30619987Y24433500D01*
X30582976Y24448831D01*
X30579998Y24450111D01*
X30505805Y24483144D01*
X30505615Y24483184D01*
X30505473Y24483214D01*
X30494721Y24486553D01*
X30494584Y24486100D01*
X30488666Y24487895D01*
X30408245Y24503892D01*
X30406631Y24504224D01*
X30320647Y24522500D01*
X30320646Y24522500D01*
X30131354Y24522500D01*
X30131353Y24522500D01*
X30045374Y24504226D01*
X30043760Y24503894D01*
X29989741Y24493149D01*
X29919027Y24499477D01*
X29862960Y24543032D01*
X29839341Y24609984D01*
X29855668Y24679078D01*
X29866329Y24694885D01*
X29867958Y24696947D01*
X29867968Y24696956D01*
X29957003Y24841303D01*
X30010349Y25002292D01*
X30020500Y25101655D01*
X30020499Y25698344D01*
X30010349Y25797708D01*
X29980682Y25887236D01*
X29978243Y25958186D01*
X30011191Y26015958D01*
X30519778Y26524544D01*
X30546030Y26544656D01*
X30550036Y26546960D01*
X30550037Y26546962D01*
X30550040Y26546963D01*
X30550709Y26547477D01*
X30550716Y26547480D01*
X30606687Y26603452D01*
X30606713Y26603426D01*
X30606808Y26603574D01*
X30894269Y26890223D01*
X30956628Y26924158D01*
X30983237Y26927000D01*
X31028799Y26927000D01*
X31028802Y26927000D01*
X31117264Y26937623D01*
X31258042Y26993139D01*
X31259560Y26994291D01*
X31261194Y26994912D01*
X31265556Y26997364D01*
X31265923Y26996710D01*
X31325923Y27019518D01*
X31395390Y27004862D01*
G37*
%TD.AperFunction*%
%TA.AperFunction,Conductor*%
G36*
X41446032Y31590497D02*
G01*
X41491095Y31561536D01*
X41583337Y31469294D01*
X41583343Y31469289D01*
X41583344Y31469288D01*
X41600831Y31458502D01*
X41732665Y31377186D01*
X41899196Y31322003D01*
X41899197Y31322003D01*
X41899203Y31322001D01*
X42001991Y31311500D01*
X42568478Y31311501D01*
X42636599Y31291499D01*
X42683092Y31237843D01*
X42693196Y31167570D01*
X42663703Y31102989D01*
X42662114Y31101191D01*
X42584183Y31014641D01*
X42584182Y31014639D01*
X42489539Y30850711D01*
X42489535Y30850703D01*
X42431042Y30670681D01*
X42411257Y30482424D01*
X42431042Y30294168D01*
X42489535Y30114146D01*
X42489539Y30114138D01*
X42584182Y29950210D01*
X42584183Y29950208D01*
X42710843Y29809538D01*
X42863984Y29698275D01*
X42863984Y29698274D01*
X42874727Y29693491D01*
X43036914Y29621280D01*
X43222071Y29581924D01*
X43315792Y29581924D01*
X43383913Y29561922D01*
X43404887Y29545019D01*
X46085210Y26864696D01*
X46085231Y26864673D01*
X46201418Y26748486D01*
X46201423Y26748482D01*
X46201425Y26748480D01*
X46201426Y26748479D01*
X46201428Y26748478D01*
X46237469Y26727670D01*
X46338357Y26669423D01*
X46450160Y26639466D01*
X46491083Y26628500D01*
X46491084Y26628500D01*
X51244446Y26628500D01*
X51312567Y26608498D01*
X51359060Y26554842D01*
X51369164Y26484568D01*
X51339670Y26419988D01*
X51333541Y26413405D01*
X49333109Y24412974D01*
X49270797Y24378948D01*
X49199981Y24384013D01*
X49143146Y24426560D01*
X49118335Y24493080D01*
X49120094Y24518479D01*
X49119409Y24518551D01*
X49129581Y24615338D01*
X49139885Y24713375D01*
X49120099Y24901631D01*
X49114195Y24919802D01*
X49061606Y25081654D01*
X49061602Y25081662D01*
X48966959Y25245590D01*
X48966958Y25245592D01*
X48840298Y25386262D01*
X48687157Y25497525D01*
X48687157Y25497526D01*
X48561570Y25553441D01*
X48514228Y25574519D01*
X48514226Y25574520D01*
X48514225Y25574520D01*
X48329071Y25613875D01*
X48139779Y25613875D01*
X47954624Y25574520D01*
X47781692Y25497526D01*
X47781692Y25497525D01*
X47628551Y25386262D01*
X47501891Y25245592D01*
X47501890Y25245590D01*
X47407247Y25081662D01*
X47407243Y25081654D01*
X47348750Y24901632D01*
X47335284Y24773500D01*
X47329706Y24720420D01*
X47328965Y24713374D01*
X47328965Y24709341D01*
X47328304Y24707094D01*
X47328275Y24706808D01*
X47328222Y24706814D01*
X47308963Y24641220D01*
X47292060Y24620246D01*
X45513220Y22841405D01*
X45450908Y22807380D01*
X45424125Y22804500D01*
X44202925Y22804500D01*
X44134804Y22824502D01*
X44113830Y22841405D01*
X43902404Y23052831D01*
X43868378Y23115143D01*
X43865499Y23141926D01*
X43865499Y23766010D01*
X43854999Y23868798D01*
X43799814Y24035335D01*
X43717035Y24169541D01*
X43707712Y24184656D01*
X43686362Y24206006D01*
X43652338Y24268314D01*
X43657402Y24339130D01*
X43679290Y24373175D01*
X43677759Y24374386D01*
X43682307Y24380140D01*
X43682312Y24380144D01*
X43774414Y24529466D01*
X43829599Y24696003D01*
X43840100Y24798791D01*
X43840099Y25848808D01*
X43832388Y25924290D01*
X43829599Y25951598D01*
X43774414Y26118135D01*
X43690176Y26254706D01*
X43682312Y26267456D01*
X43682311Y26267457D01*
X43682306Y26267463D01*
X43558262Y26391507D01*
X43558256Y26391512D01*
X43408934Y26483615D01*
X43242403Y26538798D01*
X43242391Y26538800D01*
X43139617Y26549300D01*
X42539590Y26549300D01*
X42436802Y26538800D01*
X42270265Y26483615D01*
X42120943Y26391512D01*
X42120937Y26391507D01*
X41996893Y26267463D01*
X41996888Y26267457D01*
X41904788Y26118138D01*
X41904786Y26118134D01*
X41869173Y26010664D01*
X41828762Y25952296D01*
X41763205Y25925040D01*
X41749571Y25924300D01*
X41163935Y25924300D01*
X41095814Y25944302D01*
X41049321Y25997958D01*
X41044334Y26010658D01*
X41037814Y26030334D01*
X41026564Y26048573D01*
X40960608Y26155506D01*
X40945712Y26179656D01*
X40945711Y26179657D01*
X40945706Y26179663D01*
X40821662Y26303707D01*
X40821656Y26303712D01*
X40672334Y26395815D01*
X40505803Y26450998D01*
X40505791Y26451000D01*
X40403017Y26461500D01*
X39753234Y26461500D01*
X39685113Y26481502D01*
X39638620Y26535158D01*
X39628516Y26605432D01*
X39658010Y26670012D01*
X39717736Y26708396D01*
X39720535Y26709183D01*
X39855785Y26745423D01*
X39914537Y26779344D01*
X39992716Y26824480D01*
X40104520Y26936284D01*
X40114887Y26946651D01*
X40114894Y26946661D01*
X41506339Y28338106D01*
X41506349Y28338113D01*
X41628514Y28460278D01*
X41628520Y28460284D01*
X41707577Y28597216D01*
X41744898Y28736500D01*
X41744898Y28736501D01*
X41744899Y28736501D01*
X41744899Y28736506D01*
X41748500Y28749942D01*
X41748500Y28908057D01*
X41748500Y28908058D01*
X41748500Y29625780D01*
X41768502Y29693901D01*
X41780864Y29710091D01*
X41880533Y29820784D01*
X41975179Y29984716D01*
X42033674Y30164744D01*
X42053460Y30353000D01*
X42033674Y30541256D01*
X42033035Y30543224D01*
X41975181Y30721279D01*
X41975177Y30721287D01*
X41975131Y30721366D01*
X41929852Y30799793D01*
X41880534Y30885215D01*
X41880533Y30885217D01*
X41753873Y31025887D01*
X41600732Y31137150D01*
X41600732Y31137151D01*
X41470163Y31195284D01*
X41427803Y31214144D01*
X41427801Y31214145D01*
X41427800Y31214145D01*
X41272535Y31247147D01*
X41210062Y31280875D01*
X41175740Y31343025D01*
X41180468Y31413864D01*
X41216278Y31463287D01*
X41215467Y31464098D01*
X41220547Y31469179D01*
X41220590Y31469237D01*
X41220645Y31469282D01*
X41220656Y31469288D01*
X41249983Y31498615D01*
X41312905Y31561536D01*
X41375217Y31595562D01*
X41446032Y31590497D01*
G37*
%TD.AperFunction*%
%TA.AperFunction,Conductor*%
G36*
X23406128Y30822594D02*
G01*
X23462964Y30780048D01*
X23487775Y30713527D01*
X23487406Y30691370D01*
X23478540Y30607002D01*
X23480071Y30592427D01*
X23467294Y30522590D01*
X23462001Y30513118D01*
X23383185Y30385337D01*
X23328001Y30218804D01*
X23327999Y30218792D01*
X23317499Y30116018D01*
X23317499Y29065991D01*
X23327999Y28963203D01*
X23383184Y28796666D01*
X23475287Y28647344D01*
X23475292Y28647338D01*
X23599336Y28523294D01*
X23599342Y28523289D01*
X23599343Y28523288D01*
X23612524Y28515158D01*
X23748664Y28431186D01*
X23915195Y28376003D01*
X23915197Y28376003D01*
X23915202Y28376001D01*
X23932287Y28374256D01*
X23998020Y28347436D01*
X24038820Y28289334D01*
X24041731Y28218397D01*
X24008577Y28159814D01*
X23837170Y27988405D01*
X23774858Y27954380D01*
X23748074Y27951500D01*
X23654354Y27951500D01*
X23469199Y27912145D01*
X23296267Y27835151D01*
X23296267Y27835150D01*
X23143126Y27723887D01*
X23016466Y27583217D01*
X23016465Y27583215D01*
X22921822Y27419287D01*
X22921818Y27419279D01*
X22863325Y27239257D01*
X22843540Y27051000D01*
X22863325Y26862744D01*
X22921818Y26682722D01*
X22921820Y26682717D01*
X23013744Y26523499D01*
X23030481Y26454504D01*
X23007260Y26387412D01*
X22951453Y26343525D01*
X22904624Y26334500D01*
X22334990Y26334500D01*
X22232202Y26324000D01*
X22065665Y26268815D01*
X21916343Y26176712D01*
X21916337Y26176707D01*
X21897595Y26157964D01*
X21835283Y26123938D01*
X21764468Y26129003D01*
X21707632Y26171550D01*
X21682821Y26238070D01*
X21682500Y26247059D01*
X21682500Y30507341D01*
X21702502Y30575462D01*
X21756158Y30621955D01*
X21826432Y30632059D01*
X21866640Y30617483D01*
X21867016Y30618287D01*
X21873662Y30615188D01*
X21873666Y30615186D01*
X21958440Y30587095D01*
X22040196Y30560003D01*
X22040197Y30560003D01*
X22040203Y30560001D01*
X22142991Y30549500D01*
X22768008Y30549501D01*
X22768009Y30549501D01*
X22870797Y30560001D01*
X23037334Y30615186D01*
X23041058Y30617483D01*
X23186656Y30707288D01*
X23273002Y30793635D01*
X23335312Y30827658D01*
X23406128Y30822594D01*
G37*
%TD.AperFunction*%
%TA.AperFunction,Conductor*%
G36*
X39418621Y32526498D02*
G01*
X39465114Y32472842D01*
X39476500Y32420500D01*
X39476500Y32011991D01*
X39487000Y31909203D01*
X39542185Y31742666D01*
X39634288Y31593344D01*
X39634293Y31593338D01*
X39758337Y31469294D01*
X39758343Y31469289D01*
X39758344Y31469288D01*
X39775831Y31458502D01*
X39907665Y31377186D01*
X40074196Y31322003D01*
X40074197Y31322003D01*
X40074203Y31322001D01*
X40176991Y31311500D01*
X40547453Y31311501D01*
X40615572Y31291499D01*
X40662065Y31237844D01*
X40672170Y31167570D01*
X40642677Y31102989D01*
X40621514Y31083565D01*
X40542124Y31025885D01*
X40415466Y30885217D01*
X40415465Y30885215D01*
X40320822Y30721287D01*
X40320818Y30721279D01*
X40262325Y30541257D01*
X40242540Y30353000D01*
X40262325Y30164744D01*
X40320818Y29984722D01*
X40320822Y29984714D01*
X40415464Y29820788D01*
X40415465Y29820786D01*
X40415467Y29820784D01*
X40515136Y29710091D01*
X40545853Y29646083D01*
X40547500Y29625780D01*
X40547500Y29129925D01*
X40527498Y29061804D01*
X40510595Y29040830D01*
X39412170Y27942405D01*
X39349858Y27908379D01*
X39323075Y27905500D01*
X38703713Y27905500D01*
X38635592Y27925502D01*
X38589099Y27979158D01*
X38578365Y28044306D01*
X38581500Y28074991D01*
X38581499Y29075008D01*
X38581220Y29077735D01*
X38570999Y29177798D01*
X38515814Y29344333D01*
X38515813Y29344335D01*
X38465513Y29425886D01*
X38446776Y29494365D01*
X38463585Y29551605D01*
X38462711Y29552012D01*
X38465395Y29557770D01*
X38465518Y29558186D01*
X38465543Y29558228D01*
X38465814Y29558666D01*
X38520999Y29725203D01*
X38531500Y29827991D01*
X38531499Y30878008D01*
X38529601Y30896585D01*
X38520999Y30980798D01*
X38465814Y31147335D01*
X38384296Y31279496D01*
X38373712Y31296656D01*
X38249656Y31420712D01*
X38249653Y31420714D01*
X38249651Y31420716D01*
X38248757Y31421423D01*
X38248303Y31422064D01*
X38244467Y31425900D01*
X38245122Y31426556D01*
X38207733Y31479368D01*
X38207106Y31481247D01*
X38165179Y31610284D01*
X38162421Y31615060D01*
X38145686Y31684055D01*
X38146196Y31690865D01*
X38149990Y31728000D01*
X38150500Y31732991D01*
X38150499Y32420501D01*
X38170501Y32488621D01*
X38224157Y32535114D01*
X38276499Y32546500D01*
X39350500Y32546500D01*
X39418621Y32526498D01*
G37*
%TD.AperFunction*%
%TA.AperFunction,Conductor*%
G36*
X30663263Y30821730D02*
G01*
X30674007Y30809331D01*
X30692778Y30784578D01*
X30692780Y30784576D01*
X30813354Y30693142D01*
X30813358Y30693139D01*
X30954135Y30637623D01*
X30954134Y30637623D01*
X30982094Y30634266D01*
X31042598Y30627000D01*
X31042601Y30627000D01*
X31228799Y30627000D01*
X31228802Y30627000D01*
X31317264Y30637623D01*
X31458042Y30693139D01*
X31459560Y30694291D01*
X31461194Y30694912D01*
X31465556Y30697364D01*
X31465923Y30696710D01*
X31525923Y30719518D01*
X31595390Y30704862D01*
X31611835Y30694294D01*
X31613358Y30693139D01*
X31754135Y30637623D01*
X31754134Y30637623D01*
X31782094Y30634266D01*
X31842598Y30627000D01*
X31842601Y30627000D01*
X32028799Y30627000D01*
X32028802Y30627000D01*
X32117264Y30637623D01*
X32117264Y30637624D01*
X32120677Y30638033D01*
X32150723Y30638033D01*
X32154135Y30637624D01*
X32154136Y30637623D01*
X32242598Y30627000D01*
X32242601Y30627000D01*
X32242776Y30626979D01*
X32308026Y30598998D01*
X32344968Y30548103D01*
X32358765Y30513118D01*
X32363864Y30500186D01*
X32376415Y30468361D01*
X32385200Y30422136D01*
X32385200Y30420603D01*
X32385200Y30420602D01*
X32385200Y30234398D01*
X32387074Y30218792D01*
X32389001Y30202746D01*
X32381115Y30141505D01*
X32368324Y30109069D01*
X32368322Y30109060D01*
X32366214Y30091501D01*
X32338234Y30026251D01*
X32279418Y29986487D01*
X32241113Y29980523D01*
X32101348Y29980523D01*
X31916193Y29941168D01*
X31743261Y29864174D01*
X31743261Y29864173D01*
X31590122Y29752911D01*
X31485311Y29636507D01*
X31424865Y29599268D01*
X31353881Y29600620D01*
X31298038Y29636508D01*
X31294192Y29640779D01*
X31241871Y29698888D01*
X31241870Y29698889D01*
X31088732Y29810150D01*
X31088732Y29810151D01*
X30963145Y29866066D01*
X30915803Y29887144D01*
X30915801Y29887145D01*
X30915800Y29887145D01*
X30730646Y29926500D01*
X30541354Y29926500D01*
X30541352Y29926500D01*
X30388396Y29893989D01*
X30317605Y29899392D01*
X30260973Y29942209D01*
X30236480Y30008846D01*
X30236200Y30017236D01*
X30236200Y30020599D01*
X30236200Y30020602D01*
X30225577Y30109064D01*
X30225576Y30109065D01*
X30225167Y30112477D01*
X30225167Y30142523D01*
X30227789Y30164356D01*
X30236200Y30234398D01*
X30236200Y30420602D01*
X30227649Y30491807D01*
X30239386Y30561824D01*
X30276614Y30607224D01*
X30378622Y30684578D01*
X30470061Y30805158D01*
X30470062Y30805162D01*
X30473218Y30809323D01*
X30530317Y30851516D01*
X30601163Y30856141D01*
X30663263Y30821730D01*
G37*
%TD.AperFunction*%
%TA.AperFunction,Conductor*%
G36*
X40415057Y37556656D02*
G01*
X40471893Y37514109D01*
X40496704Y37447589D01*
X40497025Y37438600D01*
X40497025Y37068217D01*
X40497024Y37068199D01*
X40497024Y37060482D01*
X40497024Y36902368D01*
X40532926Y36768383D01*
X40537948Y36749640D01*
X40537949Y36749639D01*
X40560262Y36710992D01*
X40560262Y36710991D01*
X40617002Y36612713D01*
X40617010Y36612703D01*
X40735984Y36493729D01*
X40735998Y36493717D01*
X42505119Y34724595D01*
X42539145Y34662283D01*
X42534080Y34591467D01*
X42491533Y34534632D01*
X42425013Y34509821D01*
X42416024Y34509500D01*
X39107500Y34509500D01*
X39039379Y34529502D01*
X38992886Y34583158D01*
X38981500Y34635500D01*
X38981500Y36175075D01*
X39001502Y36243196D01*
X39018405Y36264170D01*
X40281930Y37527695D01*
X40344242Y37561721D01*
X40415057Y37556656D01*
G37*
%TD.AperFunction*%
%TA.AperFunction,Conductor*%
G36*
X16935032Y39875497D02*
G01*
X16980095Y39846536D01*
X17090337Y39736294D01*
X17090343Y39736289D01*
X17090344Y39736288D01*
X17133364Y39709753D01*
X17239665Y39644186D01*
X17406196Y39589003D01*
X17406197Y39589003D01*
X17406203Y39589001D01*
X17508991Y39578500D01*
X18559008Y39578501D01*
X18559009Y39578501D01*
X18661797Y39589001D01*
X18828334Y39644186D01*
X18875125Y39673047D01*
X18977656Y39736288D01*
X18992368Y39751000D01*
X19024405Y39783036D01*
X19086717Y39817062D01*
X19157532Y39811997D01*
X19202595Y39783036D01*
X19300137Y39685494D01*
X19300143Y39685489D01*
X19300144Y39685488D01*
X19327646Y39668525D01*
X19449465Y39593386D01*
X19615996Y39538203D01*
X19615997Y39538203D01*
X19616003Y39538201D01*
X19718791Y39527700D01*
X20342874Y39527701D01*
X20410995Y39507699D01*
X20431969Y39490796D01*
X23482170Y36440595D01*
X23516196Y36378283D01*
X23511131Y36307468D01*
X23468584Y36250632D01*
X23402064Y36225821D01*
X23393075Y36225500D01*
X17074500Y36225500D01*
X17006379Y36245502D01*
X16959886Y36299158D01*
X16948500Y36351500D01*
X16948499Y36865010D01*
X16937999Y36967798D01*
X16882814Y37134335D01*
X16811129Y37250555D01*
X16790712Y37283656D01*
X16790711Y37283657D01*
X16790706Y37283663D01*
X16666662Y37407707D01*
X16666656Y37407712D01*
X16517334Y37499815D01*
X16350803Y37554998D01*
X16350791Y37555000D01*
X16248017Y37565500D01*
X16248009Y37565500D01*
X15706636Y37565500D01*
X15638515Y37585502D01*
X15617545Y37602401D01*
X15404669Y37815277D01*
X15298127Y37886465D01*
X15179745Y37935501D01*
X15137852Y37943834D01*
X15054069Y37960500D01*
X15054067Y37960500D01*
X14359200Y37960500D01*
X14291079Y37980502D01*
X14244586Y38034158D01*
X14233200Y38086500D01*
X14233200Y38162776D01*
X14253202Y38230897D01*
X14270100Y38251866D01*
X15610630Y39592397D01*
X15672942Y39626422D01*
X15699725Y39629301D01*
X16323809Y39629301D01*
X16426597Y39639801D01*
X16593134Y39694986D01*
X16601462Y39700123D01*
X16742456Y39787088D01*
X16767365Y39811997D01*
X16801905Y39846536D01*
X16864217Y39880562D01*
X16935032Y39875497D01*
G37*
%TD.AperFunction*%
%TA.AperFunction,Conductor*%
G36*
X33961912Y45420763D02*
G01*
X33968495Y45414634D01*
X34238433Y45144696D01*
X34238454Y45144673D01*
X34354641Y45028486D01*
X34354646Y45028482D01*
X34354648Y45028480D01*
X34354649Y45028479D01*
X34354651Y45028478D01*
X34428004Y44986128D01*
X34428006Y44986127D01*
X34476774Y44957971D01*
X34502866Y44937949D01*
X40159194Y39281621D01*
X40193220Y39219309D01*
X40188155Y39148494D01*
X40159194Y39103431D01*
X39082931Y38027167D01*
X38012286Y36956522D01*
X38012284Y36956520D01*
X37958135Y36902371D01*
X37900481Y36844718D01*
X37900479Y36844715D01*
X37856410Y36768383D01*
X37856409Y36768382D01*
X37821423Y36707787D01*
X37810628Y36667498D01*
X37780499Y36555057D01*
X37780499Y36555055D01*
X37780499Y36505500D01*
X37760497Y36437379D01*
X37706841Y36390886D01*
X37654499Y36379500D01*
X37255990Y36379500D01*
X37153202Y36369000D01*
X36986664Y36313814D01*
X36974349Y36306218D01*
X36905869Y36287482D01*
X36838130Y36308743D01*
X36792640Y36363251D01*
X36783840Y36433700D01*
X36788597Y36453084D01*
X36839999Y36608203D01*
X36850500Y36710991D01*
X36850499Y37711008D01*
X36847252Y37742790D01*
X36839999Y37813798D01*
X36784814Y37980335D01*
X36719088Y38086893D01*
X36692712Y38129656D01*
X36692711Y38129657D01*
X36692706Y38129663D01*
X36669409Y38152960D01*
X36635383Y38215272D01*
X36640448Y38286087D01*
X36682995Y38342923D01*
X36749515Y38367734D01*
X36818889Y38352643D01*
X36824634Y38349306D01*
X36855117Y38330504D01*
X36949665Y38272186D01*
X37116196Y38217003D01*
X37116197Y38217003D01*
X37116203Y38217001D01*
X37218991Y38206500D01*
X38219008Y38206501D01*
X38219009Y38206501D01*
X38321797Y38217001D01*
X38488334Y38272186D01*
X38510871Y38286087D01*
X38637656Y38364288D01*
X38761712Y38488344D01*
X38853814Y38637666D01*
X38908999Y38804203D01*
X38919500Y38906991D01*
X38919499Y39532008D01*
X38919031Y39536585D01*
X38908999Y39634798D01*
X38853814Y39801335D01*
X38795895Y39895236D01*
X38761712Y39950656D01*
X38761711Y39950657D01*
X38761706Y39950663D01*
X38637662Y40074707D01*
X38637656Y40074712D01*
X38488334Y40166815D01*
X38321803Y40221998D01*
X38321791Y40222000D01*
X38219017Y40232500D01*
X37218990Y40232500D01*
X37116202Y40222000D01*
X36949665Y40166815D01*
X36800343Y40074712D01*
X36800337Y40074707D01*
X36792095Y40066464D01*
X36729783Y40032438D01*
X36658968Y40037503D01*
X36613905Y40066464D01*
X36605662Y40074707D01*
X36605656Y40074712D01*
X36456334Y40166815D01*
X36289803Y40221998D01*
X36289791Y40222000D01*
X36187017Y40232500D01*
X35186990Y40232500D01*
X35084202Y40222000D01*
X34917665Y40166815D01*
X34768343Y40074712D01*
X34768337Y40074707D01*
X34644293Y39950663D01*
X34644288Y39950657D01*
X34552185Y39801335D01*
X34497002Y39634804D01*
X34497000Y39634792D01*
X34486500Y39532018D01*
X34486500Y38906991D01*
X34497000Y38804203D01*
X34552185Y38637666D01*
X34585882Y38583036D01*
X34604619Y38514557D01*
X34583360Y38446818D01*
X34528853Y38401326D01*
X34458404Y38392525D01*
X34439013Y38397283D01*
X34427802Y38400998D01*
X34427797Y38400999D01*
X34427795Y38401000D01*
X34427791Y38401000D01*
X34325017Y38411500D01*
X34325009Y38411500D01*
X34204208Y38411500D01*
X34136087Y38431502D01*
X34089594Y38485158D01*
X34079490Y38555432D01*
X34082501Y38570109D01*
X34085500Y38581304D01*
X34085501Y38581309D01*
X34085501Y38747138D01*
X34085500Y38747156D01*
X34085500Y39777696D01*
X34083080Y39786730D01*
X34083080Y39786731D01*
X34044579Y39930414D01*
X34044578Y39930415D01*
X34044577Y39930421D01*
X34002425Y40003430D01*
X33965520Y40067352D01*
X33965517Y40067355D01*
X33965514Y40067359D01*
X33849327Y40183546D01*
X33849304Y40183567D01*
X33790305Y40242566D01*
X33756279Y40304878D01*
X33753400Y40331661D01*
X33753400Y45325539D01*
X33773402Y45393660D01*
X33827058Y45440153D01*
X33897332Y45450257D01*
X33961912Y45420763D01*
G37*
%TD.AperFunction*%
%TA.AperFunction,Conductor*%
G36*
X51968421Y63739098D02*
G01*
X52014914Y63685442D01*
X52026300Y63633100D01*
X52026300Y62323936D01*
X52026302Y62323915D01*
X52032708Y62264320D01*
X52032708Y62264319D01*
X52083001Y62129474D01*
X52083003Y62129471D01*
X52083004Y62129469D01*
X52095105Y62113304D01*
X52169253Y62014254D01*
X52210336Y61983500D01*
X52284469Y61928004D01*
X52284471Y61928004D01*
X52284473Y61928002D01*
X52327925Y61911796D01*
X52419314Y61877710D01*
X52419317Y61877709D01*
X52478927Y61871300D01*
X54251072Y61871301D01*
X54310683Y61877709D01*
X54445531Y61928004D01*
X54560746Y62014254D01*
X54646996Y62129469D01*
X54697291Y62264317D01*
X54703700Y62323927D01*
X54703699Y63633101D01*
X54723701Y63701221D01*
X54777357Y63747714D01*
X54829699Y63759100D01*
X58200300Y63759100D01*
X58268421Y63739098D01*
X58314914Y63685442D01*
X58326300Y63633100D01*
X58326300Y62323936D01*
X58326302Y62323915D01*
X58332708Y62264320D01*
X58332708Y62264319D01*
X58383001Y62129474D01*
X58383003Y62129471D01*
X58383004Y62129469D01*
X58395105Y62113304D01*
X58469253Y62014254D01*
X58510336Y61983500D01*
X58584469Y61928004D01*
X58584471Y61928004D01*
X58584473Y61928002D01*
X58627925Y61911796D01*
X58719314Y61877710D01*
X58719317Y61877709D01*
X58778927Y61871300D01*
X60551072Y61871301D01*
X60610683Y61877709D01*
X60745531Y61928004D01*
X60860746Y62014254D01*
X60946996Y62129469D01*
X60997291Y62264317D01*
X61003700Y62323927D01*
X61003699Y63633101D01*
X61023701Y63701221D01*
X61077357Y63747714D01*
X61129699Y63759100D01*
X64317475Y63759100D01*
X64385596Y63739098D01*
X64406570Y63722195D01*
X66669528Y61459236D01*
X66703554Y61396924D01*
X66698489Y61326108D01*
X66681304Y61294637D01*
X66612204Y61202331D01*
X66612203Y61202330D01*
X66612201Y61202326D01*
X66561909Y61067485D01*
X66555500Y61007879D01*
X66555500Y61007873D01*
X66555500Y60390315D01*
X66555501Y59860800D01*
X66535499Y59792679D01*
X66481843Y59746186D01*
X66429501Y59734800D01*
X63251727Y59734800D01*
X63183606Y59754802D01*
X63162632Y59771704D01*
X62663005Y60271330D01*
X62662995Y60271342D01*
X62544022Y60390315D01*
X62544012Y60390323D01*
X62439753Y60450516D01*
X62407086Y60469377D01*
X62368903Y60479608D01*
X62254357Y60510301D01*
X62096243Y60510301D01*
X62088525Y60510301D01*
X62088509Y60510300D01*
X50826857Y60510300D01*
X50668743Y60510300D01*
X50586899Y60488371D01*
X50516017Y60469378D01*
X50516010Y60469375D01*
X50483347Y60450516D01*
X50379087Y60390323D01*
X50379082Y60390319D01*
X50323776Y60335012D01*
X50268467Y60279704D01*
X50206158Y60245680D01*
X50179374Y60242800D01*
X49521500Y60242800D01*
X49453379Y60262802D01*
X49406886Y60316458D01*
X49395500Y60368800D01*
X49395499Y61515865D01*
X49395499Y61515869D01*
X49395499Y61515872D01*
X49389091Y61575483D01*
X49343191Y61698548D01*
X49338798Y61710327D01*
X49338796Y61710330D01*
X49338796Y61710331D01*
X49252546Y61825546D01*
X49186306Y61875134D01*
X49143760Y61931968D01*
X49138696Y62002783D01*
X49172721Y62065095D01*
X49186302Y62076864D01*
X49252546Y62126454D01*
X49338796Y62241669D01*
X49389091Y62376517D01*
X49395500Y62436127D01*
X49395499Y63633101D01*
X49415501Y63701221D01*
X49469157Y63747714D01*
X49521499Y63759100D01*
X51900300Y63759100D01*
X51968421Y63739098D01*
G37*
%TD.AperFunction*%
%TD*%
%TA.AperFunction,Conductor*%
%TO.N,/Fuel Gauge/PACK+*%
G36*
X54742259Y47617714D02*
G01*
X55032214Y47326808D01*
X55035627Y47318530D01*
X55033637Y47312022D01*
X54837477Y47020173D01*
X54830018Y47015219D01*
X54827767Y47015000D01*
X54640233Y47015000D01*
X54631960Y47018427D01*
X54630523Y47020173D01*
X54434362Y47312022D01*
X54432591Y47320800D01*
X54435783Y47326806D01*
X54725713Y47617687D01*
X54733981Y47621126D01*
X54742259Y47617714D01*
G37*
%TD.AperFunction*%
%TD*%
%TA.AperFunction,Conductor*%
%TO.N,/Power Input/Power_load*%
G36*
X31394146Y45928012D02*
G01*
X32211997Y45647607D01*
X32218710Y45641683D01*
X32219446Y45633310D01*
X32137317Y45347381D01*
X32131740Y45340375D01*
X32125274Y45338938D01*
X31504974Y45381321D01*
X31496954Y45385304D01*
X31495840Y45386811D01*
X31250724Y45781072D01*
X31249266Y45789907D01*
X31252385Y45795520D01*
X31382082Y45925217D01*
X31390354Y45928643D01*
X31394146Y45928012D01*
G37*
%TD.AperFunction*%
%TD*%
%TA.AperFunction,Conductor*%
%TO.N,/Power Input/Power_load*%
G36*
X31505442Y45639024D02*
G01*
X32111934Y45350498D01*
X32117933Y45343850D01*
X32117473Y45334907D01*
X32111987Y45329393D01*
X31508156Y45038413D01*
X31499216Y45037909D01*
X31493351Y45042449D01*
X31297300Y45335700D01*
X31297299Y45335700D01*
X31131933Y45335700D01*
X31123660Y45339127D01*
X31120233Y45347400D01*
X31123660Y45355673D01*
X31124837Y45356703D01*
X31199556Y45413695D01*
X31493326Y45637762D01*
X31501981Y45640053D01*
X31505442Y45639024D01*
G37*
%TD.AperFunction*%
%TD*%
%TA.AperFunction,Conductor*%
%TO.N,/Fuel Gauge/PACK+*%
G36*
X54836040Y46961573D02*
G01*
X54837477Y46959827D01*
X55033637Y46667979D01*
X55035408Y46659201D01*
X55032214Y46653192D01*
X54742287Y46362315D01*
X54734019Y46358875D01*
X54725740Y46362288D01*
X54725713Y46362315D01*
X54573845Y46514680D01*
X54435784Y46653194D01*
X54432372Y46661471D01*
X54434361Y46667977D01*
X54630523Y46959828D01*
X54637982Y46964781D01*
X54640233Y46965000D01*
X54827767Y46965000D01*
X54836040Y46961573D01*
G37*
%TD.AperFunction*%
%TD*%
%TA.AperFunction,Conductor*%
%TO.N,/Power Input/Power_load*%
G36*
X31505442Y44369024D02*
G01*
X32111934Y44080498D01*
X32117933Y44073850D01*
X32117473Y44064907D01*
X32111987Y44059393D01*
X31508156Y43768413D01*
X31499216Y43767909D01*
X31493351Y43772449D01*
X31297300Y44065700D01*
X31297299Y44065700D01*
X31131933Y44065700D01*
X31123660Y44069127D01*
X31120233Y44077400D01*
X31123660Y44085673D01*
X31124837Y44086703D01*
X31199556Y44143695D01*
X31493326Y44367762D01*
X31501981Y44370053D01*
X31505442Y44369024D01*
G37*
%TD.AperFunction*%
%TD*%
%TA.AperFunction,Conductor*%
%TO.N,Net-(Q1-G)*%
G36*
X32142259Y41521714D02*
G01*
X32432214Y41230808D01*
X32435627Y41222530D01*
X32433637Y41216022D01*
X32237477Y40924173D01*
X32230018Y40919219D01*
X32227767Y40919000D01*
X32040233Y40919000D01*
X32031960Y40922427D01*
X32030523Y40924173D01*
X31834362Y41216022D01*
X31832591Y41224800D01*
X31835783Y41230806D01*
X32125713Y41521687D01*
X32133981Y41525126D01*
X32142259Y41521714D01*
G37*
%TD.AperFunction*%
%TD*%
%TA.AperFunction,Conductor*%
%TO.N,/Fuel Gauge/PACK+*%
G36*
X54836040Y45691573D02*
G01*
X54837477Y45689827D01*
X55033637Y45397979D01*
X55035408Y45389201D01*
X55032214Y45383192D01*
X54742287Y45092315D01*
X54734019Y45088875D01*
X54725740Y45092288D01*
X54725713Y45092315D01*
X54573845Y45244680D01*
X54435784Y45383194D01*
X54432372Y45391471D01*
X54434361Y45397977D01*
X54630523Y45689828D01*
X54637982Y45694781D01*
X54640233Y45695000D01*
X54827767Y45695000D01*
X54836040Y45691573D01*
G37*
%TD.AperFunction*%
%TD*%
%TA.AperFunction,Conductor*%
%TO.N,/Fuel Gauge/B+*%
G36*
X51316672Y40176763D02*
G01*
X51540809Y40005806D01*
X51685163Y39895703D01*
X51689662Y39887961D01*
X51687370Y39879304D01*
X51679628Y39874805D01*
X51678067Y39874700D01*
X51512700Y39874700D01*
X51349935Y39631240D01*
X51316649Y39581450D01*
X51309202Y39576477D01*
X51301843Y39577413D01*
X50698012Y39868393D01*
X50692047Y39875072D01*
X50692551Y39884012D01*
X50698063Y39889497D01*
X51304555Y40178024D01*
X51313496Y40178483D01*
X51316672Y40176763D01*
G37*
%TD.AperFunction*%
%TD*%
%TA.AperFunction,Conductor*%
%TO.N,/Fuel Gauge/B+*%
G36*
X51316865Y38907169D02*
G01*
X51544323Y38681044D01*
X51675365Y38550002D01*
X51678792Y38541729D01*
X51675365Y38533456D01*
X51673313Y38531820D01*
X51316447Y38307770D01*
X51307618Y38306273D01*
X51305193Y38307117D01*
X50697356Y38596779D01*
X50691361Y38603432D01*
X50691827Y38612374D01*
X50697317Y38617885D01*
X51303547Y38909417D01*
X51312486Y38909913D01*
X51316865Y38907169D01*
G37*
%TD.AperFunction*%
%TD*%
%TA.AperFunction,Conductor*%
%TO.N,/Fuel Gauge/B+*%
G36*
X51458704Y39057982D02*
G01*
X51460256Y39056678D01*
X51590000Y38926934D01*
X51593427Y38918661D01*
X51590891Y38911386D01*
X51314860Y38563680D01*
X51307032Y38559331D01*
X51304806Y38559289D01*
X50684058Y38606625D01*
X50676070Y38610671D01*
X50673495Y38615898D01*
X50613894Y38901172D01*
X50615557Y38909969D01*
X50622954Y38915016D01*
X50623258Y38915074D01*
X51449966Y39059929D01*
X51458704Y39057982D01*
G37*
%TD.AperFunction*%
%TD*%
%TA.AperFunction,Conductor*%
%TO.N,Net-(Q3-G)*%
G36*
X51313586Y37465171D02*
G01*
X51315454Y37463638D01*
X51612615Y37163420D01*
X51616000Y37155189D01*
X51616000Y36972600D01*
X51612573Y36964327D01*
X51604300Y36960900D01*
X51603435Y36960932D01*
X50643398Y37032073D01*
X50635401Y37036102D01*
X50632595Y37044606D01*
X50632680Y37045396D01*
X50673823Y37329865D01*
X50678398Y37337559D01*
X50683055Y37339649D01*
X51304796Y37466869D01*
X51313586Y37465171D01*
G37*
%TD.AperFunction*%
%TD*%
%TA.AperFunction,Conductor*%
%TO.N,Net-(Q5-G)*%
G36*
X55363200Y48864342D02*
G01*
X55371292Y48860507D01*
X55372277Y48859258D01*
X55649901Y48453057D01*
X55651741Y48444293D01*
X55648515Y48438182D01*
X55519056Y48308723D01*
X55510783Y48305296D01*
X55507108Y48305888D01*
X55086557Y48445044D01*
X54659054Y48586501D01*
X54652277Y48592353D01*
X54651456Y48600735D01*
X54730790Y48886686D01*
X54736303Y48893740D01*
X54742642Y48895242D01*
X55363200Y48864342D01*
G37*
%TD.AperFunction*%
%TD*%
%TA.AperFunction,Conductor*%
%TO.N,/Fuel Gauge/B+*%
G36*
X51458704Y40327982D02*
G01*
X51460256Y40326678D01*
X51590000Y40196934D01*
X51593427Y40188661D01*
X51590891Y40181386D01*
X51314860Y39833680D01*
X51307032Y39829331D01*
X51304806Y39829289D01*
X50684058Y39876625D01*
X50676070Y39880671D01*
X50673495Y39885898D01*
X50613894Y40171172D01*
X50615557Y40179969D01*
X50622954Y40185016D01*
X50623258Y40185074D01*
X51449966Y40329929D01*
X51458704Y40327982D01*
G37*
%TD.AperFunction*%
%TD*%
%TA.AperFunction,Conductor*%
%TO.N,/Fuel Gauge/B+*%
G36*
X50675787Y41145230D02*
G01*
X50679210Y41139684D01*
X50758543Y40853736D01*
X50757453Y40844848D01*
X50750944Y40839500D01*
X49902891Y40558888D01*
X49893961Y40559543D01*
X49890943Y40561723D01*
X49761484Y40691182D01*
X49758057Y40699455D01*
X49760097Y40706056D01*
X50037723Y41112259D01*
X50045219Y41117155D01*
X50046795Y41117342D01*
X50667355Y41148242D01*
X50675787Y41145230D01*
G37*
%TD.AperFunction*%
%TD*%
%TA.AperFunction,Conductor*%
%TO.N,/Power Input/Power_load*%
G36*
X31360029Y44521029D02*
G01*
X32186689Y44376088D01*
X32194245Y44371284D01*
X32196191Y44362543D01*
X32196120Y44362171D01*
X32136505Y44076899D01*
X32131458Y44069501D01*
X32125941Y44067626D01*
X31505192Y44020349D01*
X31496682Y44023137D01*
X31495139Y44024741D01*
X31461098Y44067626D01*
X31219106Y44372487D01*
X31216648Y44381096D01*
X31219997Y44388032D01*
X31349743Y44517778D01*
X31358015Y44521204D01*
X31360029Y44521029D01*
G37*
%TD.AperFunction*%
%TD*%
%TA.AperFunction,Conductor*%
%TO.N,/Fuel Gauge/B+*%
G36*
X51316672Y41446763D02*
G01*
X51540809Y41275806D01*
X51685163Y41165703D01*
X51689662Y41157961D01*
X51687370Y41149304D01*
X51679628Y41144805D01*
X51678067Y41144700D01*
X51512700Y41144700D01*
X51349935Y40901240D01*
X51316649Y40851450D01*
X51309202Y40846477D01*
X51301843Y40847413D01*
X50698012Y41138393D01*
X50692047Y41145072D01*
X50692551Y41154012D01*
X50698063Y41159497D01*
X51304555Y41448024D01*
X51313496Y41448483D01*
X51316672Y41446763D01*
G37*
%TD.AperFunction*%
%TD*%
%TA.AperFunction,Conductor*%
%TO.N,/Power Input/Power_load*%
G36*
X31505079Y43101085D02*
G01*
X31913027Y42905450D01*
X32113000Y42809550D01*
X32118978Y42802882D01*
X32118491Y42793941D01*
X32113000Y42788450D01*
X31505084Y42496918D01*
X31496143Y42496431D01*
X31493427Y42497806D01*
X31203902Y42695516D01*
X31199002Y42703011D01*
X31198800Y42705178D01*
X31198800Y42892823D01*
X31202227Y42901096D01*
X31203895Y42902480D01*
X31493428Y43100196D01*
X31502192Y43102031D01*
X31505079Y43101085D01*
G37*
%TD.AperFunction*%
%TD*%
%TA.AperFunction,Conductor*%
%TO.N,Net-(Q5-G)*%
G36*
X54105027Y49197110D02*
G01*
X54519225Y48998477D01*
X54713000Y48905550D01*
X54718978Y48898882D01*
X54718491Y48889941D01*
X54713000Y48884450D01*
X54105032Y48592893D01*
X54096091Y48592406D01*
X54093446Y48593733D01*
X53799173Y48791524D01*
X53794219Y48798983D01*
X53794000Y48801234D01*
X53794000Y48988767D01*
X53797427Y48997040D01*
X53799173Y48998477D01*
X54093448Y49196269D01*
X54102224Y49198039D01*
X54105027Y49197110D01*
G37*
%TD.AperFunction*%
%TD*%
%TA.AperFunction,Conductor*%
%TO.N,/Fuel Gauge/PACK+*%
G36*
X54742259Y46347714D02*
G01*
X55032214Y46056808D01*
X55035627Y46048530D01*
X55033637Y46042022D01*
X54837477Y45750173D01*
X54830018Y45745219D01*
X54827767Y45745000D01*
X54640233Y45745000D01*
X54631960Y45748427D01*
X54630523Y45750173D01*
X54434362Y46042022D01*
X54432591Y46050800D01*
X54435783Y46056806D01*
X54725713Y46347687D01*
X54733981Y46351126D01*
X54742259Y46347714D01*
G37*
%TD.AperFunction*%
%TD*%
M02*
