%TF.GenerationSoftware,KiCad,Pcbnew,8.0.3+1*%
%TF.CreationDate,2024-07-20T09:56:42+00:00*%
%TF.ProjectId,LION2CELL02,4c494f4e-3243-4454-9c4c-30322e6b6963,rev?*%
%TF.SameCoordinates,Original*%
%TF.FileFunction,Legend,Top*%
%TF.FilePolarity,Positive*%
%FSLAX46Y46*%
G04 Gerber Fmt 4.6, Leading zero omitted, Abs format (unit mm)*
G04 Created by KiCad (PCBNEW 8.0.3+1) date 2024-07-20 09:56:42*
%MOMM*%
%LPD*%
G01*
G04 APERTURE LIST*
%ADD10C,0.300000*%
%ADD11C,0.375000*%
%ADD12C,0.304800*%
%ADD13C,0.050000*%
%ADD14C,0.150000*%
%ADD15C,0.100000*%
%ADD16C,0.200000*%
%ADD17C,0.120000*%
%ADD18R,1.524000X1.524000*%
G04 APERTURE END LIST*
D10*
X164827200Y-76523365D02*
X164893866Y-76323365D01*
X164893866Y-76323365D02*
X164893866Y-75990032D01*
X164893866Y-75990032D02*
X164827200Y-75856698D01*
X164827200Y-75856698D02*
X164760533Y-75790032D01*
X164760533Y-75790032D02*
X164627200Y-75723365D01*
X164627200Y-75723365D02*
X164493866Y-75723365D01*
X164493866Y-75723365D02*
X164360533Y-75790032D01*
X164360533Y-75790032D02*
X164293866Y-75856698D01*
X164293866Y-75856698D02*
X164227200Y-75990032D01*
X164227200Y-75990032D02*
X164160533Y-76256698D01*
X164160533Y-76256698D02*
X164093866Y-76390032D01*
X164093866Y-76390032D02*
X164027200Y-76456698D01*
X164027200Y-76456698D02*
X163893866Y-76523365D01*
X163893866Y-76523365D02*
X163760533Y-76523365D01*
X163760533Y-76523365D02*
X163627200Y-76456698D01*
X163627200Y-76456698D02*
X163560533Y-76390032D01*
X163560533Y-76390032D02*
X163493866Y-76256698D01*
X163493866Y-76256698D02*
X163493866Y-75923365D01*
X163493866Y-75923365D02*
X163560533Y-75723365D01*
X164760533Y-74323365D02*
X164827200Y-74390032D01*
X164827200Y-74390032D02*
X164893866Y-74590032D01*
X164893866Y-74590032D02*
X164893866Y-74723365D01*
X164893866Y-74723365D02*
X164827200Y-74923365D01*
X164827200Y-74923365D02*
X164693866Y-75056699D01*
X164693866Y-75056699D02*
X164560533Y-75123365D01*
X164560533Y-75123365D02*
X164293866Y-75190032D01*
X164293866Y-75190032D02*
X164093866Y-75190032D01*
X164093866Y-75190032D02*
X163827200Y-75123365D01*
X163827200Y-75123365D02*
X163693866Y-75056699D01*
X163693866Y-75056699D02*
X163560533Y-74923365D01*
X163560533Y-74923365D02*
X163493866Y-74723365D01*
X163493866Y-74723365D02*
X163493866Y-74590032D01*
X163493866Y-74590032D02*
X163560533Y-74390032D01*
X163560533Y-74390032D02*
X163627200Y-74323365D01*
X164893866Y-73056699D02*
X164893866Y-73723365D01*
X164893866Y-73723365D02*
X163493866Y-73723365D01*
D11*
X166563585Y-93227470D02*
X166492157Y-93156042D01*
X166492157Y-93156042D02*
X166420728Y-93013185D01*
X166420728Y-93013185D02*
X166420728Y-92656042D01*
X166420728Y-92656042D02*
X166492157Y-92513185D01*
X166492157Y-92513185D02*
X166563585Y-92441756D01*
X166563585Y-92441756D02*
X166706442Y-92370327D01*
X166706442Y-92370327D02*
X166849300Y-92370327D01*
X166849300Y-92370327D02*
X167063585Y-92441756D01*
X167063585Y-92441756D02*
X167920728Y-93298899D01*
X167920728Y-93298899D02*
X167920728Y-92370327D01*
D10*
X143065467Y-80537466D02*
X142798800Y-80537466D01*
X142798800Y-80537466D02*
X142665467Y-80604133D01*
X142665467Y-80604133D02*
X142598800Y-80670800D01*
X142598800Y-80670800D02*
X142465467Y-80870800D01*
X142465467Y-80870800D02*
X142398800Y-81137466D01*
X142398800Y-81137466D02*
X142398800Y-81670800D01*
X142398800Y-81670800D02*
X142465467Y-81804133D01*
X142465467Y-81804133D02*
X142532134Y-81870800D01*
X142532134Y-81870800D02*
X142665467Y-81937466D01*
X142665467Y-81937466D02*
X142932134Y-81937466D01*
X142932134Y-81937466D02*
X143065467Y-81870800D01*
X143065467Y-81870800D02*
X143132134Y-81804133D01*
X143132134Y-81804133D02*
X143198800Y-81670800D01*
X143198800Y-81670800D02*
X143198800Y-81337466D01*
X143198800Y-81337466D02*
X143132134Y-81204133D01*
X143132134Y-81204133D02*
X143065467Y-81137466D01*
X143065467Y-81137466D02*
X142932134Y-81070800D01*
X142932134Y-81070800D02*
X142665467Y-81070800D01*
X142665467Y-81070800D02*
X142532134Y-81137466D01*
X142532134Y-81137466D02*
X142465467Y-81204133D01*
X142465467Y-81204133D02*
X142398800Y-81337466D01*
X162287200Y-76523365D02*
X162353866Y-76323365D01*
X162353866Y-76323365D02*
X162353866Y-75990032D01*
X162353866Y-75990032D02*
X162287200Y-75856698D01*
X162287200Y-75856698D02*
X162220533Y-75790032D01*
X162220533Y-75790032D02*
X162087200Y-75723365D01*
X162087200Y-75723365D02*
X161953866Y-75723365D01*
X161953866Y-75723365D02*
X161820533Y-75790032D01*
X161820533Y-75790032D02*
X161753866Y-75856698D01*
X161753866Y-75856698D02*
X161687200Y-75990032D01*
X161687200Y-75990032D02*
X161620533Y-76256698D01*
X161620533Y-76256698D02*
X161553866Y-76390032D01*
X161553866Y-76390032D02*
X161487200Y-76456698D01*
X161487200Y-76456698D02*
X161353866Y-76523365D01*
X161353866Y-76523365D02*
X161220533Y-76523365D01*
X161220533Y-76523365D02*
X161087200Y-76456698D01*
X161087200Y-76456698D02*
X161020533Y-76390032D01*
X161020533Y-76390032D02*
X160953866Y-76256698D01*
X160953866Y-76256698D02*
X160953866Y-75923365D01*
X160953866Y-75923365D02*
X161020533Y-75723365D01*
X162353866Y-75123365D02*
X160953866Y-75123365D01*
X160953866Y-75123365D02*
X160953866Y-74790032D01*
X160953866Y-74790032D02*
X161020533Y-74590032D01*
X161020533Y-74590032D02*
X161153866Y-74456699D01*
X161153866Y-74456699D02*
X161287200Y-74390032D01*
X161287200Y-74390032D02*
X161553866Y-74323365D01*
X161553866Y-74323365D02*
X161753866Y-74323365D01*
X161753866Y-74323365D02*
X162020533Y-74390032D01*
X162020533Y-74390032D02*
X162153866Y-74456699D01*
X162153866Y-74456699D02*
X162287200Y-74590032D01*
X162287200Y-74590032D02*
X162353866Y-74790032D01*
X162353866Y-74790032D02*
X162353866Y-75123365D01*
X161953866Y-73790032D02*
X161953866Y-73123365D01*
X162353866Y-73923365D02*
X160953866Y-73456699D01*
X160953866Y-73456699D02*
X162353866Y-72990032D01*
D11*
X112231228Y-111737827D02*
X112231228Y-112594970D01*
X112231228Y-112166399D02*
X110731228Y-112166399D01*
X110731228Y-112166399D02*
X110945514Y-112309256D01*
X110945514Y-112309256D02*
X111088371Y-112452113D01*
X111088371Y-112452113D02*
X111159800Y-112594970D01*
D10*
X142332134Y-73298466D02*
X143198800Y-73298466D01*
X143198800Y-73298466D02*
X142732134Y-73831800D01*
X142732134Y-73831800D02*
X142932134Y-73831800D01*
X142932134Y-73831800D02*
X143065467Y-73898466D01*
X143065467Y-73898466D02*
X143132134Y-73965133D01*
X143132134Y-73965133D02*
X143198800Y-74098466D01*
X143198800Y-74098466D02*
X143198800Y-74431800D01*
X143198800Y-74431800D02*
X143132134Y-74565133D01*
X143132134Y-74565133D02*
X143065467Y-74631800D01*
X143065467Y-74631800D02*
X142932134Y-74698466D01*
X142932134Y-74698466D02*
X142532134Y-74698466D01*
X142532134Y-74698466D02*
X142398800Y-74631800D01*
X142398800Y-74631800D02*
X142332134Y-74565133D01*
X128238227Y-125163728D02*
X128238227Y-123663728D01*
X128238227Y-123663728D02*
X128809656Y-123663728D01*
X128809656Y-123663728D02*
X128952513Y-123735157D01*
X128952513Y-123735157D02*
X129023942Y-123806585D01*
X129023942Y-123806585D02*
X129095370Y-123949442D01*
X129095370Y-123949442D02*
X129095370Y-124163728D01*
X129095370Y-124163728D02*
X129023942Y-124306585D01*
X129023942Y-124306585D02*
X128952513Y-124378014D01*
X128952513Y-124378014D02*
X128809656Y-124449442D01*
X128809656Y-124449442D02*
X128238227Y-124449442D01*
X130023942Y-123663728D02*
X130309656Y-123663728D01*
X130309656Y-123663728D02*
X130452513Y-123735157D01*
X130452513Y-123735157D02*
X130595370Y-123878014D01*
X130595370Y-123878014D02*
X130666799Y-124163728D01*
X130666799Y-124163728D02*
X130666799Y-124663728D01*
X130666799Y-124663728D02*
X130595370Y-124949442D01*
X130595370Y-124949442D02*
X130452513Y-125092300D01*
X130452513Y-125092300D02*
X130309656Y-125163728D01*
X130309656Y-125163728D02*
X130023942Y-125163728D01*
X130023942Y-125163728D02*
X129881085Y-125092300D01*
X129881085Y-125092300D02*
X129738227Y-124949442D01*
X129738227Y-124949442D02*
X129666799Y-124663728D01*
X129666799Y-124663728D02*
X129666799Y-124163728D01*
X129666799Y-124163728D02*
X129738227Y-123878014D01*
X129738227Y-123878014D02*
X129881085Y-123735157D01*
X129881085Y-123735157D02*
X130023942Y-123663728D01*
X131166799Y-123663728D02*
X131523942Y-125163728D01*
X131523942Y-125163728D02*
X131809656Y-124092300D01*
X131809656Y-124092300D02*
X132095371Y-125163728D01*
X132095371Y-125163728D02*
X132452514Y-123663728D01*
X133023942Y-124378014D02*
X133523942Y-124378014D01*
X133738228Y-125163728D02*
X133023942Y-125163728D01*
X133023942Y-125163728D02*
X133023942Y-123663728D01*
X133023942Y-123663728D02*
X133738228Y-123663728D01*
X135238228Y-125163728D02*
X134738228Y-124449442D01*
X134381085Y-125163728D02*
X134381085Y-123663728D01*
X134381085Y-123663728D02*
X134952514Y-123663728D01*
X134952514Y-123663728D02*
X135095371Y-123735157D01*
X135095371Y-123735157D02*
X135166800Y-123806585D01*
X135166800Y-123806585D02*
X135238228Y-123949442D01*
X135238228Y-123949442D02*
X135238228Y-124163728D01*
X135238228Y-124163728D02*
X135166800Y-124306585D01*
X135166800Y-124306585D02*
X135095371Y-124378014D01*
X135095371Y-124378014D02*
X134952514Y-124449442D01*
X134952514Y-124449442D02*
X134381085Y-124449442D01*
X137309657Y-123663728D02*
X137595371Y-123663728D01*
X137595371Y-123663728D02*
X137738228Y-123735157D01*
X137738228Y-123735157D02*
X137881085Y-123878014D01*
X137881085Y-123878014D02*
X137952514Y-124163728D01*
X137952514Y-124163728D02*
X137952514Y-124663728D01*
X137952514Y-124663728D02*
X137881085Y-124949442D01*
X137881085Y-124949442D02*
X137738228Y-125092300D01*
X137738228Y-125092300D02*
X137595371Y-125163728D01*
X137595371Y-125163728D02*
X137309657Y-125163728D01*
X137309657Y-125163728D02*
X137166800Y-125092300D01*
X137166800Y-125092300D02*
X137023942Y-124949442D01*
X137023942Y-124949442D02*
X136952514Y-124663728D01*
X136952514Y-124663728D02*
X136952514Y-124163728D01*
X136952514Y-124163728D02*
X137023942Y-123878014D01*
X137023942Y-123878014D02*
X137166800Y-123735157D01*
X137166800Y-123735157D02*
X137309657Y-123663728D01*
X138595371Y-123663728D02*
X138595371Y-124878014D01*
X138595371Y-124878014D02*
X138666800Y-125020871D01*
X138666800Y-125020871D02*
X138738229Y-125092300D01*
X138738229Y-125092300D02*
X138881086Y-125163728D01*
X138881086Y-125163728D02*
X139166800Y-125163728D01*
X139166800Y-125163728D02*
X139309657Y-125092300D01*
X139309657Y-125092300D02*
X139381086Y-125020871D01*
X139381086Y-125020871D02*
X139452514Y-124878014D01*
X139452514Y-124878014D02*
X139452514Y-123663728D01*
X139952515Y-123663728D02*
X140809658Y-123663728D01*
X140381086Y-125163728D02*
X140381086Y-123663728D01*
X138118800Y-74698466D02*
X137318800Y-74698466D01*
X137718800Y-74698466D02*
X137718800Y-73298466D01*
X137718800Y-73298466D02*
X137585467Y-73498466D01*
X137585467Y-73498466D02*
X137452134Y-73631800D01*
X137452134Y-73631800D02*
X137318800Y-73698466D01*
X123939371Y-125481300D02*
X125082229Y-125481300D01*
X124510800Y-126052728D02*
X124510800Y-124909871D01*
X148212134Y-73298466D02*
X147545467Y-73298466D01*
X147545467Y-73298466D02*
X147478800Y-73965133D01*
X147478800Y-73965133D02*
X147545467Y-73898466D01*
X147545467Y-73898466D02*
X147678800Y-73831800D01*
X147678800Y-73831800D02*
X148012134Y-73831800D01*
X148012134Y-73831800D02*
X148145467Y-73898466D01*
X148145467Y-73898466D02*
X148212134Y-73965133D01*
X148212134Y-73965133D02*
X148278800Y-74098466D01*
X148278800Y-74098466D02*
X148278800Y-74431800D01*
X148278800Y-74431800D02*
X148212134Y-74565133D01*
X148212134Y-74565133D02*
X148145467Y-74631800D01*
X148145467Y-74631800D02*
X148012134Y-74698466D01*
X148012134Y-74698466D02*
X147678800Y-74698466D01*
X147678800Y-74698466D02*
X147545467Y-74631800D01*
X147545467Y-74631800D02*
X147478800Y-74565133D01*
X102837800Y-117186728D02*
X102837800Y-118258157D01*
X102837800Y-118258157D02*
X102766371Y-118472442D01*
X102766371Y-118472442D02*
X102623514Y-118615300D01*
X102623514Y-118615300D02*
X102409228Y-118686728D01*
X102409228Y-118686728D02*
X102266371Y-118686728D01*
X103480657Y-118258157D02*
X104194943Y-118258157D01*
X103337800Y-118686728D02*
X103837800Y-117186728D01*
X103837800Y-117186728D02*
X104337800Y-118686728D01*
X105694942Y-118543871D02*
X105623514Y-118615300D01*
X105623514Y-118615300D02*
X105409228Y-118686728D01*
X105409228Y-118686728D02*
X105266371Y-118686728D01*
X105266371Y-118686728D02*
X105052085Y-118615300D01*
X105052085Y-118615300D02*
X104909228Y-118472442D01*
X104909228Y-118472442D02*
X104837799Y-118329585D01*
X104837799Y-118329585D02*
X104766371Y-118043871D01*
X104766371Y-118043871D02*
X104766371Y-117829585D01*
X104766371Y-117829585D02*
X104837799Y-117543871D01*
X104837799Y-117543871D02*
X104909228Y-117401014D01*
X104909228Y-117401014D02*
X105052085Y-117258157D01*
X105052085Y-117258157D02*
X105266371Y-117186728D01*
X105266371Y-117186728D02*
X105409228Y-117186728D01*
X105409228Y-117186728D02*
X105623514Y-117258157D01*
X105623514Y-117258157D02*
X105694942Y-117329585D01*
X106337799Y-118686728D02*
X106337799Y-117186728D01*
X106337799Y-117901014D02*
X107194942Y-117901014D01*
X107194942Y-118686728D02*
X107194942Y-117186728D01*
X108194943Y-117186728D02*
X108480657Y-117186728D01*
X108480657Y-117186728D02*
X108623514Y-117258157D01*
X108623514Y-117258157D02*
X108766371Y-117401014D01*
X108766371Y-117401014D02*
X108837800Y-117686728D01*
X108837800Y-117686728D02*
X108837800Y-118186728D01*
X108837800Y-118186728D02*
X108766371Y-118472442D01*
X108766371Y-118472442D02*
X108623514Y-118615300D01*
X108623514Y-118615300D02*
X108480657Y-118686728D01*
X108480657Y-118686728D02*
X108194943Y-118686728D01*
X108194943Y-118686728D02*
X108052086Y-118615300D01*
X108052086Y-118615300D02*
X107909228Y-118472442D01*
X107909228Y-118472442D02*
X107837800Y-118186728D01*
X107837800Y-118186728D02*
X107837800Y-117686728D01*
X107837800Y-117686728D02*
X107909228Y-117401014D01*
X107909228Y-117401014D02*
X108052086Y-117258157D01*
X108052086Y-117258157D02*
X108194943Y-117186728D01*
X126967128Y-80011257D02*
X125467128Y-80011257D01*
X125467128Y-80011257D02*
X125467128Y-79654114D01*
X125467128Y-79654114D02*
X125538557Y-79439828D01*
X125538557Y-79439828D02*
X125681414Y-79296971D01*
X125681414Y-79296971D02*
X125824271Y-79225542D01*
X125824271Y-79225542D02*
X126109985Y-79154114D01*
X126109985Y-79154114D02*
X126324271Y-79154114D01*
X126324271Y-79154114D02*
X126609985Y-79225542D01*
X126609985Y-79225542D02*
X126752842Y-79296971D01*
X126752842Y-79296971D02*
X126895700Y-79439828D01*
X126895700Y-79439828D02*
X126967128Y-79654114D01*
X126967128Y-79654114D02*
X126967128Y-80011257D01*
X125467128Y-78225542D02*
X125467128Y-77939828D01*
X125467128Y-77939828D02*
X125538557Y-77796971D01*
X125538557Y-77796971D02*
X125681414Y-77654114D01*
X125681414Y-77654114D02*
X125967128Y-77582685D01*
X125967128Y-77582685D02*
X126467128Y-77582685D01*
X126467128Y-77582685D02*
X126752842Y-77654114D01*
X126752842Y-77654114D02*
X126895700Y-77796971D01*
X126895700Y-77796971D02*
X126967128Y-77939828D01*
X126967128Y-77939828D02*
X126967128Y-78225542D01*
X126967128Y-78225542D02*
X126895700Y-78368400D01*
X126895700Y-78368400D02*
X126752842Y-78511257D01*
X126752842Y-78511257D02*
X126467128Y-78582685D01*
X126467128Y-78582685D02*
X125967128Y-78582685D01*
X125967128Y-78582685D02*
X125681414Y-78511257D01*
X125681414Y-78511257D02*
X125538557Y-78368400D01*
X125538557Y-78368400D02*
X125467128Y-78225542D01*
X126967128Y-76939828D02*
X125467128Y-76939828D01*
X125467128Y-76939828D02*
X126967128Y-76082685D01*
X126967128Y-76082685D02*
X125467128Y-76082685D01*
X126181414Y-75368399D02*
X126181414Y-74868399D01*
X126967128Y-74654113D02*
X126967128Y-75368399D01*
X126967128Y-75368399D02*
X125467128Y-75368399D01*
X125467128Y-75368399D02*
X125467128Y-74654113D01*
X149436799Y-81997800D02*
X149636799Y-82064466D01*
X149636799Y-82064466D02*
X149970133Y-82064466D01*
X149970133Y-82064466D02*
X150103466Y-81997800D01*
X150103466Y-81997800D02*
X150170133Y-81931133D01*
X150170133Y-81931133D02*
X150236799Y-81797800D01*
X150236799Y-81797800D02*
X150236799Y-81664466D01*
X150236799Y-81664466D02*
X150170133Y-81531133D01*
X150170133Y-81531133D02*
X150103466Y-81464466D01*
X150103466Y-81464466D02*
X149970133Y-81397800D01*
X149970133Y-81397800D02*
X149703466Y-81331133D01*
X149703466Y-81331133D02*
X149570133Y-81264466D01*
X149570133Y-81264466D02*
X149503466Y-81197800D01*
X149503466Y-81197800D02*
X149436799Y-81064466D01*
X149436799Y-81064466D02*
X149436799Y-80931133D01*
X149436799Y-80931133D02*
X149503466Y-80797800D01*
X149503466Y-80797800D02*
X149570133Y-80731133D01*
X149570133Y-80731133D02*
X149703466Y-80664466D01*
X149703466Y-80664466D02*
X150036799Y-80664466D01*
X150036799Y-80664466D02*
X150236799Y-80731133D01*
X150703466Y-80664466D02*
X151036799Y-82064466D01*
X151036799Y-82064466D02*
X151303466Y-81064466D01*
X151303466Y-81064466D02*
X151570132Y-82064466D01*
X151570132Y-82064466D02*
X151903466Y-80664466D01*
X153503466Y-82064466D02*
X153503466Y-80664466D01*
X153503466Y-80664466D02*
X154036799Y-80664466D01*
X154036799Y-80664466D02*
X154170133Y-80731133D01*
X154170133Y-80731133D02*
X154236799Y-80797800D01*
X154236799Y-80797800D02*
X154303466Y-80931133D01*
X154303466Y-80931133D02*
X154303466Y-81131133D01*
X154303466Y-81131133D02*
X154236799Y-81264466D01*
X154236799Y-81264466D02*
X154170133Y-81331133D01*
X154170133Y-81331133D02*
X154036799Y-81397800D01*
X154036799Y-81397800D02*
X153503466Y-81397800D01*
X155170133Y-80664466D02*
X155436799Y-80664466D01*
X155436799Y-80664466D02*
X155570133Y-80731133D01*
X155570133Y-80731133D02*
X155703466Y-80864466D01*
X155703466Y-80864466D02*
X155770133Y-81131133D01*
X155770133Y-81131133D02*
X155770133Y-81597800D01*
X155770133Y-81597800D02*
X155703466Y-81864466D01*
X155703466Y-81864466D02*
X155570133Y-81997800D01*
X155570133Y-81997800D02*
X155436799Y-82064466D01*
X155436799Y-82064466D02*
X155170133Y-82064466D01*
X155170133Y-82064466D02*
X155036799Y-81997800D01*
X155036799Y-81997800D02*
X154903466Y-81864466D01*
X154903466Y-81864466D02*
X154836799Y-81597800D01*
X154836799Y-81597800D02*
X154836799Y-81131133D01*
X154836799Y-81131133D02*
X154903466Y-80864466D01*
X154903466Y-80864466D02*
X155036799Y-80731133D01*
X155036799Y-80731133D02*
X155170133Y-80664466D01*
X156236800Y-80664466D02*
X156570133Y-82064466D01*
X156570133Y-82064466D02*
X156836800Y-81064466D01*
X156836800Y-81064466D02*
X157103466Y-82064466D01*
X157103466Y-82064466D02*
X157436800Y-80664466D01*
X157970133Y-81331133D02*
X158436800Y-81331133D01*
X158636800Y-82064466D02*
X157970133Y-82064466D01*
X157970133Y-82064466D02*
X157970133Y-80664466D01*
X157970133Y-80664466D02*
X158636800Y-80664466D01*
X160036800Y-82064466D02*
X159570133Y-81397800D01*
X159236800Y-82064466D02*
X159236800Y-80664466D01*
X159236800Y-80664466D02*
X159770133Y-80664466D01*
X159770133Y-80664466D02*
X159903467Y-80731133D01*
X159903467Y-80731133D02*
X159970133Y-80797800D01*
X159970133Y-80797800D02*
X160036800Y-80931133D01*
X160036800Y-80931133D02*
X160036800Y-81131133D01*
X160036800Y-81131133D02*
X159970133Y-81264466D01*
X159970133Y-81264466D02*
X159903467Y-81331133D01*
X159903467Y-81331133D02*
X159770133Y-81397800D01*
X159770133Y-81397800D02*
X159236800Y-81397800D01*
X139858800Y-73431800D02*
X139925467Y-73365133D01*
X139925467Y-73365133D02*
X140058800Y-73298466D01*
X140058800Y-73298466D02*
X140392134Y-73298466D01*
X140392134Y-73298466D02*
X140525467Y-73365133D01*
X140525467Y-73365133D02*
X140592134Y-73431800D01*
X140592134Y-73431800D02*
X140658800Y-73565133D01*
X140658800Y-73565133D02*
X140658800Y-73698466D01*
X140658800Y-73698466D02*
X140592134Y-73898466D01*
X140592134Y-73898466D02*
X139792134Y-74698466D01*
X139792134Y-74698466D02*
X140658800Y-74698466D01*
X120641128Y-78423971D02*
X120641128Y-78138257D01*
X120641128Y-78138257D02*
X120712557Y-77995400D01*
X120712557Y-77995400D02*
X120855414Y-77852543D01*
X120855414Y-77852543D02*
X121141128Y-77781114D01*
X121141128Y-77781114D02*
X121641128Y-77781114D01*
X121641128Y-77781114D02*
X121926842Y-77852543D01*
X121926842Y-77852543D02*
X122069700Y-77995400D01*
X122069700Y-77995400D02*
X122141128Y-78138257D01*
X122141128Y-78138257D02*
X122141128Y-78423971D01*
X122141128Y-78423971D02*
X122069700Y-78566829D01*
X122069700Y-78566829D02*
X121926842Y-78709686D01*
X121926842Y-78709686D02*
X121641128Y-78781114D01*
X121641128Y-78781114D02*
X121141128Y-78781114D01*
X121141128Y-78781114D02*
X120855414Y-78709686D01*
X120855414Y-78709686D02*
X120712557Y-78566829D01*
X120712557Y-78566829D02*
X120641128Y-78423971D01*
X122141128Y-77138257D02*
X120641128Y-77138257D01*
X120641128Y-77138257D02*
X122141128Y-76281114D01*
X122141128Y-76281114D02*
X120641128Y-76281114D01*
X168640533Y-75850365D02*
X168573866Y-75983698D01*
X168573866Y-75983698D02*
X168573866Y-76183698D01*
X168573866Y-76183698D02*
X168640533Y-76383698D01*
X168640533Y-76383698D02*
X168773866Y-76517032D01*
X168773866Y-76517032D02*
X168907200Y-76583698D01*
X168907200Y-76583698D02*
X169173866Y-76650365D01*
X169173866Y-76650365D02*
X169373866Y-76650365D01*
X169373866Y-76650365D02*
X169640533Y-76583698D01*
X169640533Y-76583698D02*
X169773866Y-76517032D01*
X169773866Y-76517032D02*
X169907200Y-76383698D01*
X169907200Y-76383698D02*
X169973866Y-76183698D01*
X169973866Y-76183698D02*
X169973866Y-76050365D01*
X169973866Y-76050365D02*
X169907200Y-75850365D01*
X169907200Y-75850365D02*
X169840533Y-75783698D01*
X169840533Y-75783698D02*
X169373866Y-75783698D01*
X169373866Y-75783698D02*
X169373866Y-76050365D01*
X169973866Y-75183698D02*
X168573866Y-75183698D01*
X168573866Y-75183698D02*
X169973866Y-74383698D01*
X169973866Y-74383698D02*
X168573866Y-74383698D01*
X169973866Y-73717031D02*
X168573866Y-73717031D01*
X168573866Y-73717031D02*
X168573866Y-73383698D01*
X168573866Y-73383698D02*
X168640533Y-73183698D01*
X168640533Y-73183698D02*
X168773866Y-73050365D01*
X168773866Y-73050365D02*
X168907200Y-72983698D01*
X168907200Y-72983698D02*
X169173866Y-72917031D01*
X169173866Y-72917031D02*
X169373866Y-72917031D01*
X169373866Y-72917031D02*
X169640533Y-72983698D01*
X169640533Y-72983698D02*
X169773866Y-73050365D01*
X169773866Y-73050365D02*
X169907200Y-73183698D01*
X169907200Y-73183698D02*
X169973866Y-73383698D01*
X169973866Y-73383698D02*
X169973866Y-73717031D01*
X103016372Y-119615585D02*
X103087800Y-119544157D01*
X103087800Y-119544157D02*
X103230658Y-119472728D01*
X103230658Y-119472728D02*
X103587800Y-119472728D01*
X103587800Y-119472728D02*
X103730658Y-119544157D01*
X103730658Y-119544157D02*
X103802086Y-119615585D01*
X103802086Y-119615585D02*
X103873515Y-119758442D01*
X103873515Y-119758442D02*
X103873515Y-119901300D01*
X103873515Y-119901300D02*
X103802086Y-120115585D01*
X103802086Y-120115585D02*
X102944943Y-120972728D01*
X102944943Y-120972728D02*
X103873515Y-120972728D01*
X104802086Y-119472728D02*
X104944943Y-119472728D01*
X104944943Y-119472728D02*
X105087800Y-119544157D01*
X105087800Y-119544157D02*
X105159229Y-119615585D01*
X105159229Y-119615585D02*
X105230657Y-119758442D01*
X105230657Y-119758442D02*
X105302086Y-120044157D01*
X105302086Y-120044157D02*
X105302086Y-120401300D01*
X105302086Y-120401300D02*
X105230657Y-120687014D01*
X105230657Y-120687014D02*
X105159229Y-120829871D01*
X105159229Y-120829871D02*
X105087800Y-120901300D01*
X105087800Y-120901300D02*
X104944943Y-120972728D01*
X104944943Y-120972728D02*
X104802086Y-120972728D01*
X104802086Y-120972728D02*
X104659229Y-120901300D01*
X104659229Y-120901300D02*
X104587800Y-120829871D01*
X104587800Y-120829871D02*
X104516371Y-120687014D01*
X104516371Y-120687014D02*
X104444943Y-120401300D01*
X104444943Y-120401300D02*
X104444943Y-120044157D01*
X104444943Y-120044157D02*
X104516371Y-119758442D01*
X104516371Y-119758442D02*
X104587800Y-119615585D01*
X104587800Y-119615585D02*
X104659229Y-119544157D01*
X104659229Y-119544157D02*
X104802086Y-119472728D01*
X106730657Y-120972728D02*
X105873514Y-120972728D01*
X106302085Y-120972728D02*
X106302085Y-119472728D01*
X106302085Y-119472728D02*
X106159228Y-119687014D01*
X106159228Y-119687014D02*
X106016371Y-119829871D01*
X106016371Y-119829871D02*
X105873514Y-119901300D01*
X108016371Y-119472728D02*
X107730656Y-119472728D01*
X107730656Y-119472728D02*
X107587799Y-119544157D01*
X107587799Y-119544157D02*
X107516371Y-119615585D01*
X107516371Y-119615585D02*
X107373513Y-119829871D01*
X107373513Y-119829871D02*
X107302085Y-120115585D01*
X107302085Y-120115585D02*
X107302085Y-120687014D01*
X107302085Y-120687014D02*
X107373513Y-120829871D01*
X107373513Y-120829871D02*
X107444942Y-120901300D01*
X107444942Y-120901300D02*
X107587799Y-120972728D01*
X107587799Y-120972728D02*
X107873513Y-120972728D01*
X107873513Y-120972728D02*
X108016371Y-120901300D01*
X108016371Y-120901300D02*
X108087799Y-120829871D01*
X108087799Y-120829871D02*
X108159228Y-120687014D01*
X108159228Y-120687014D02*
X108159228Y-120329871D01*
X108159228Y-120329871D02*
X108087799Y-120187014D01*
X108087799Y-120187014D02*
X108016371Y-120115585D01*
X108016371Y-120115585D02*
X107873513Y-120044157D01*
X107873513Y-120044157D02*
X107587799Y-120044157D01*
X107587799Y-120044157D02*
X107444942Y-120115585D01*
X107444942Y-120115585D02*
X107373513Y-120187014D01*
X107373513Y-120187014D02*
X107302085Y-120329871D01*
X109426227Y-74617728D02*
X109426227Y-73117728D01*
X109426227Y-73117728D02*
X109997656Y-73117728D01*
X109997656Y-73117728D02*
X110140513Y-73189157D01*
X110140513Y-73189157D02*
X110211942Y-73260585D01*
X110211942Y-73260585D02*
X110283370Y-73403442D01*
X110283370Y-73403442D02*
X110283370Y-73617728D01*
X110283370Y-73617728D02*
X110211942Y-73760585D01*
X110211942Y-73760585D02*
X110140513Y-73832014D01*
X110140513Y-73832014D02*
X109997656Y-73903442D01*
X109997656Y-73903442D02*
X109426227Y-73903442D01*
X111211942Y-73117728D02*
X111497656Y-73117728D01*
X111497656Y-73117728D02*
X111640513Y-73189157D01*
X111640513Y-73189157D02*
X111783370Y-73332014D01*
X111783370Y-73332014D02*
X111854799Y-73617728D01*
X111854799Y-73617728D02*
X111854799Y-74117728D01*
X111854799Y-74117728D02*
X111783370Y-74403442D01*
X111783370Y-74403442D02*
X111640513Y-74546300D01*
X111640513Y-74546300D02*
X111497656Y-74617728D01*
X111497656Y-74617728D02*
X111211942Y-74617728D01*
X111211942Y-74617728D02*
X111069085Y-74546300D01*
X111069085Y-74546300D02*
X110926227Y-74403442D01*
X110926227Y-74403442D02*
X110854799Y-74117728D01*
X110854799Y-74117728D02*
X110854799Y-73617728D01*
X110854799Y-73617728D02*
X110926227Y-73332014D01*
X110926227Y-73332014D02*
X111069085Y-73189157D01*
X111069085Y-73189157D02*
X111211942Y-73117728D01*
X112354799Y-73117728D02*
X112711942Y-74617728D01*
X112711942Y-74617728D02*
X112997656Y-73546300D01*
X112997656Y-73546300D02*
X113283371Y-74617728D01*
X113283371Y-74617728D02*
X113640514Y-73117728D01*
X114211942Y-73832014D02*
X114711942Y-73832014D01*
X114926228Y-74617728D02*
X114211942Y-74617728D01*
X114211942Y-74617728D02*
X114211942Y-73117728D01*
X114211942Y-73117728D02*
X114926228Y-73117728D01*
X116426228Y-74617728D02*
X115926228Y-73903442D01*
X115569085Y-74617728D02*
X115569085Y-73117728D01*
X115569085Y-73117728D02*
X116140514Y-73117728D01*
X116140514Y-73117728D02*
X116283371Y-73189157D01*
X116283371Y-73189157D02*
X116354800Y-73260585D01*
X116354800Y-73260585D02*
X116426228Y-73403442D01*
X116426228Y-73403442D02*
X116426228Y-73617728D01*
X116426228Y-73617728D02*
X116354800Y-73760585D01*
X116354800Y-73760585D02*
X116283371Y-73832014D01*
X116283371Y-73832014D02*
X116140514Y-73903442D01*
X116140514Y-73903442D02*
X115569085Y-73903442D01*
X118211942Y-74617728D02*
X118211942Y-73117728D01*
X118926228Y-74617728D02*
X118926228Y-73117728D01*
X118926228Y-73117728D02*
X119783371Y-74617728D01*
X119783371Y-74617728D02*
X119783371Y-73117728D01*
X133734895Y-101392038D02*
X133734895Y-99392038D01*
X133734895Y-99392038D02*
X134401562Y-100820609D01*
X134401562Y-100820609D02*
X135068228Y-99392038D01*
X135068228Y-99392038D02*
X135068228Y-101392038D01*
X136972990Y-101392038D02*
X136020609Y-101392038D01*
X136020609Y-101392038D02*
X136020609Y-99392038D01*
X137544419Y-100820609D02*
X138496800Y-100820609D01*
X137353943Y-101392038D02*
X138020609Y-99392038D01*
X138020609Y-99392038D02*
X138687276Y-101392038D01*
X140020610Y-100344419D02*
X140306324Y-100439657D01*
X140306324Y-100439657D02*
X140401562Y-100534895D01*
X140401562Y-100534895D02*
X140496800Y-100725371D01*
X140496800Y-100725371D02*
X140496800Y-101011085D01*
X140496800Y-101011085D02*
X140401562Y-101201561D01*
X140401562Y-101201561D02*
X140306324Y-101296800D01*
X140306324Y-101296800D02*
X140115848Y-101392038D01*
X140115848Y-101392038D02*
X139353943Y-101392038D01*
X139353943Y-101392038D02*
X139353943Y-99392038D01*
X139353943Y-99392038D02*
X140020610Y-99392038D01*
X140020610Y-99392038D02*
X140211086Y-99487276D01*
X140211086Y-99487276D02*
X140306324Y-99582514D01*
X140306324Y-99582514D02*
X140401562Y-99772990D01*
X140401562Y-99772990D02*
X140401562Y-99963466D01*
X140401562Y-99963466D02*
X140306324Y-100153942D01*
X140306324Y-100153942D02*
X140211086Y-100249180D01*
X140211086Y-100249180D02*
X140020610Y-100344419D01*
X140020610Y-100344419D02*
X139353943Y-100344419D01*
X141353943Y-101201561D02*
X141449181Y-101296800D01*
X141449181Y-101296800D02*
X141353943Y-101392038D01*
X141353943Y-101392038D02*
X141258705Y-101296800D01*
X141258705Y-101296800D02*
X141353943Y-101201561D01*
X141353943Y-101201561D02*
X141353943Y-101392038D01*
X143449181Y-101201561D02*
X143353943Y-101296800D01*
X143353943Y-101296800D02*
X143068229Y-101392038D01*
X143068229Y-101392038D02*
X142877753Y-101392038D01*
X142877753Y-101392038D02*
X142592038Y-101296800D01*
X142592038Y-101296800D02*
X142401562Y-101106323D01*
X142401562Y-101106323D02*
X142306324Y-100915847D01*
X142306324Y-100915847D02*
X142211086Y-100534895D01*
X142211086Y-100534895D02*
X142211086Y-100249180D01*
X142211086Y-100249180D02*
X142306324Y-99868228D01*
X142306324Y-99868228D02*
X142401562Y-99677752D01*
X142401562Y-99677752D02*
X142592038Y-99487276D01*
X142592038Y-99487276D02*
X142877753Y-99392038D01*
X142877753Y-99392038D02*
X143068229Y-99392038D01*
X143068229Y-99392038D02*
X143353943Y-99487276D01*
X143353943Y-99487276D02*
X143449181Y-99582514D01*
X144115848Y-99392038D02*
X145449181Y-99392038D01*
X145449181Y-99392038D02*
X144115848Y-101392038D01*
X144115848Y-101392038D02*
X145449181Y-101392038D01*
X130163466Y-105583038D02*
X129211085Y-105583038D01*
X129211085Y-105583038D02*
X129211085Y-103583038D01*
X130830133Y-105583038D02*
X130830133Y-103583038D01*
X132163466Y-103583038D02*
X132544419Y-103583038D01*
X132544419Y-103583038D02*
X132734895Y-103678276D01*
X132734895Y-103678276D02*
X132925371Y-103868752D01*
X132925371Y-103868752D02*
X133020609Y-104249704D01*
X133020609Y-104249704D02*
X133020609Y-104916371D01*
X133020609Y-104916371D02*
X132925371Y-105297323D01*
X132925371Y-105297323D02*
X132734895Y-105487800D01*
X132734895Y-105487800D02*
X132544419Y-105583038D01*
X132544419Y-105583038D02*
X132163466Y-105583038D01*
X132163466Y-105583038D02*
X131972990Y-105487800D01*
X131972990Y-105487800D02*
X131782514Y-105297323D01*
X131782514Y-105297323D02*
X131687276Y-104916371D01*
X131687276Y-104916371D02*
X131687276Y-104249704D01*
X131687276Y-104249704D02*
X131782514Y-103868752D01*
X131782514Y-103868752D02*
X131972990Y-103678276D01*
X131972990Y-103678276D02*
X132163466Y-103583038D01*
X133877752Y-105583038D02*
X133877752Y-103583038D01*
X133877752Y-103583038D02*
X135020609Y-105583038D01*
X135020609Y-105583038D02*
X135020609Y-103583038D01*
X135877752Y-103773514D02*
X135972990Y-103678276D01*
X135972990Y-103678276D02*
X136163466Y-103583038D01*
X136163466Y-103583038D02*
X136639657Y-103583038D01*
X136639657Y-103583038D02*
X136830133Y-103678276D01*
X136830133Y-103678276D02*
X136925371Y-103773514D01*
X136925371Y-103773514D02*
X137020609Y-103963990D01*
X137020609Y-103963990D02*
X137020609Y-104154466D01*
X137020609Y-104154466D02*
X136925371Y-104440180D01*
X136925371Y-104440180D02*
X135782514Y-105583038D01*
X135782514Y-105583038D02*
X137020609Y-105583038D01*
X139020609Y-105392561D02*
X138925371Y-105487800D01*
X138925371Y-105487800D02*
X138639657Y-105583038D01*
X138639657Y-105583038D02*
X138449181Y-105583038D01*
X138449181Y-105583038D02*
X138163466Y-105487800D01*
X138163466Y-105487800D02*
X137972990Y-105297323D01*
X137972990Y-105297323D02*
X137877752Y-105106847D01*
X137877752Y-105106847D02*
X137782514Y-104725895D01*
X137782514Y-104725895D02*
X137782514Y-104440180D01*
X137782514Y-104440180D02*
X137877752Y-104059228D01*
X137877752Y-104059228D02*
X137972990Y-103868752D01*
X137972990Y-103868752D02*
X138163466Y-103678276D01*
X138163466Y-103678276D02*
X138449181Y-103583038D01*
X138449181Y-103583038D02*
X138639657Y-103583038D01*
X138639657Y-103583038D02*
X138925371Y-103678276D01*
X138925371Y-103678276D02*
X139020609Y-103773514D01*
X139877752Y-104535419D02*
X140544419Y-104535419D01*
X140830133Y-105583038D02*
X139877752Y-105583038D01*
X139877752Y-105583038D02*
X139877752Y-103583038D01*
X139877752Y-103583038D02*
X140830133Y-103583038D01*
X142639657Y-105583038D02*
X141687276Y-105583038D01*
X141687276Y-105583038D02*
X141687276Y-103583038D01*
X144258705Y-105583038D02*
X143306324Y-105583038D01*
X143306324Y-105583038D02*
X143306324Y-103583038D01*
X145306324Y-103583038D02*
X145496801Y-103583038D01*
X145496801Y-103583038D02*
X145687277Y-103678276D01*
X145687277Y-103678276D02*
X145782515Y-103773514D01*
X145782515Y-103773514D02*
X145877753Y-103963990D01*
X145877753Y-103963990D02*
X145972991Y-104344942D01*
X145972991Y-104344942D02*
X145972991Y-104821133D01*
X145972991Y-104821133D02*
X145877753Y-105202085D01*
X145877753Y-105202085D02*
X145782515Y-105392561D01*
X145782515Y-105392561D02*
X145687277Y-105487800D01*
X145687277Y-105487800D02*
X145496801Y-105583038D01*
X145496801Y-105583038D02*
X145306324Y-105583038D01*
X145306324Y-105583038D02*
X145115848Y-105487800D01*
X145115848Y-105487800D02*
X145020610Y-105392561D01*
X145020610Y-105392561D02*
X144925372Y-105202085D01*
X144925372Y-105202085D02*
X144830134Y-104821133D01*
X144830134Y-104821133D02*
X144830134Y-104344942D01*
X144830134Y-104344942D02*
X144925372Y-103963990D01*
X144925372Y-103963990D02*
X145020610Y-103773514D01*
X145020610Y-103773514D02*
X145115848Y-103678276D01*
X145115848Y-103678276D02*
X145306324Y-103583038D01*
X147877753Y-105583038D02*
X146734896Y-105583038D01*
X147306324Y-105583038D02*
X147306324Y-103583038D01*
X147306324Y-103583038D02*
X147115848Y-103868752D01*
X147115848Y-103868752D02*
X146925372Y-104059228D01*
X146925372Y-104059228D02*
X146734896Y-104154466D01*
X148734896Y-105583038D02*
X148734896Y-103583038D01*
X148734896Y-103583038D02*
X149211086Y-103583038D01*
X149211086Y-103583038D02*
X149496801Y-103678276D01*
X149496801Y-103678276D02*
X149687277Y-103868752D01*
X149687277Y-103868752D02*
X149782515Y-104059228D01*
X149782515Y-104059228D02*
X149877753Y-104440180D01*
X149877753Y-104440180D02*
X149877753Y-104725895D01*
X149877753Y-104725895D02*
X149782515Y-105106847D01*
X149782515Y-105106847D02*
X149687277Y-105297323D01*
X149687277Y-105297323D02*
X149496801Y-105487800D01*
X149496801Y-105487800D02*
X149211086Y-105583038D01*
X149211086Y-105583038D02*
X148734896Y-105583038D01*
X145605467Y-73765133D02*
X145605467Y-74698466D01*
X145272134Y-73231800D02*
X144938800Y-74231800D01*
X144938800Y-74231800D02*
X145805467Y-74231800D01*
X167433866Y-76583698D02*
X166033866Y-76583698D01*
X166700533Y-76583698D02*
X166700533Y-75783698D01*
X167433866Y-75783698D02*
X166033866Y-75783698D01*
X167433866Y-75117031D02*
X166033866Y-75117031D01*
X166033866Y-75117031D02*
X166033866Y-74783698D01*
X166033866Y-74783698D02*
X166100533Y-74583698D01*
X166100533Y-74583698D02*
X166233866Y-74450365D01*
X166233866Y-74450365D02*
X166367200Y-74383698D01*
X166367200Y-74383698D02*
X166633866Y-74317031D01*
X166633866Y-74317031D02*
X166833866Y-74317031D01*
X166833866Y-74317031D02*
X167100533Y-74383698D01*
X167100533Y-74383698D02*
X167233866Y-74450365D01*
X167233866Y-74450365D02*
X167367200Y-74583698D01*
X167367200Y-74583698D02*
X167433866Y-74783698D01*
X167433866Y-74783698D02*
X167433866Y-75117031D01*
X167567200Y-72783698D02*
X167500533Y-72917031D01*
X167500533Y-72917031D02*
X167367200Y-73050365D01*
X167367200Y-73050365D02*
X167167200Y-73250365D01*
X167167200Y-73250365D02*
X167100533Y-73383698D01*
X167100533Y-73383698D02*
X167100533Y-73517031D01*
X167433866Y-73450365D02*
X167367200Y-73583698D01*
X167367200Y-73583698D02*
X167233866Y-73717031D01*
X167233866Y-73717031D02*
X166967200Y-73783698D01*
X166967200Y-73783698D02*
X166500533Y-73783698D01*
X166500533Y-73783698D02*
X166233866Y-73717031D01*
X166233866Y-73717031D02*
X166100533Y-73583698D01*
X166100533Y-73583698D02*
X166033866Y-73450365D01*
X166033866Y-73450365D02*
X166033866Y-73183698D01*
X166033866Y-73183698D02*
X166100533Y-73050365D01*
X166100533Y-73050365D02*
X166233866Y-72917031D01*
X166233866Y-72917031D02*
X166500533Y-72850365D01*
X166500533Y-72850365D02*
X166967200Y-72850365D01*
X166967200Y-72850365D02*
X167233866Y-72917031D01*
X167233866Y-72917031D02*
X167367200Y-73050365D01*
X167367200Y-73050365D02*
X167433866Y-73183698D01*
X167433866Y-73183698D02*
X167433866Y-73450365D01*
X131777271Y-80638257D02*
X131848700Y-80709685D01*
X131848700Y-80709685D02*
X131920128Y-80923971D01*
X131920128Y-80923971D02*
X131920128Y-81066828D01*
X131920128Y-81066828D02*
X131848700Y-81281114D01*
X131848700Y-81281114D02*
X131705842Y-81423971D01*
X131705842Y-81423971D02*
X131562985Y-81495400D01*
X131562985Y-81495400D02*
X131277271Y-81566828D01*
X131277271Y-81566828D02*
X131062985Y-81566828D01*
X131062985Y-81566828D02*
X130777271Y-81495400D01*
X130777271Y-81495400D02*
X130634414Y-81423971D01*
X130634414Y-81423971D02*
X130491557Y-81281114D01*
X130491557Y-81281114D02*
X130420128Y-81066828D01*
X130420128Y-81066828D02*
X130420128Y-80923971D01*
X130420128Y-80923971D02*
X130491557Y-80709685D01*
X130491557Y-80709685D02*
X130562985Y-80638257D01*
X131920128Y-79995400D02*
X130420128Y-79995400D01*
X131134414Y-79995400D02*
X131134414Y-79138257D01*
X131920128Y-79138257D02*
X130420128Y-79138257D01*
X131491557Y-78495399D02*
X131491557Y-77781114D01*
X131920128Y-78638256D02*
X130420128Y-78138256D01*
X130420128Y-78138256D02*
X131920128Y-77638256D01*
X131920128Y-76281114D02*
X131205842Y-76781114D01*
X131920128Y-77138257D02*
X130420128Y-77138257D01*
X130420128Y-77138257D02*
X130420128Y-76566828D01*
X130420128Y-76566828D02*
X130491557Y-76423971D01*
X130491557Y-76423971D02*
X130562985Y-76352542D01*
X130562985Y-76352542D02*
X130705842Y-76281114D01*
X130705842Y-76281114D02*
X130920128Y-76281114D01*
X130920128Y-76281114D02*
X131062985Y-76352542D01*
X131062985Y-76352542D02*
X131134414Y-76423971D01*
X131134414Y-76423971D02*
X131205842Y-76566828D01*
X131205842Y-76566828D02*
X131205842Y-77138257D01*
X130491557Y-74852542D02*
X130420128Y-74995400D01*
X130420128Y-74995400D02*
X130420128Y-75209685D01*
X130420128Y-75209685D02*
X130491557Y-75423971D01*
X130491557Y-75423971D02*
X130634414Y-75566828D01*
X130634414Y-75566828D02*
X130777271Y-75638257D01*
X130777271Y-75638257D02*
X131062985Y-75709685D01*
X131062985Y-75709685D02*
X131277271Y-75709685D01*
X131277271Y-75709685D02*
X131562985Y-75638257D01*
X131562985Y-75638257D02*
X131705842Y-75566828D01*
X131705842Y-75566828D02*
X131848700Y-75423971D01*
X131848700Y-75423971D02*
X131920128Y-75209685D01*
X131920128Y-75209685D02*
X131920128Y-75066828D01*
X131920128Y-75066828D02*
X131848700Y-74852542D01*
X131848700Y-74852542D02*
X131777271Y-74781114D01*
X131777271Y-74781114D02*
X131277271Y-74781114D01*
X131277271Y-74781114D02*
X131277271Y-75066828D01*
X131134414Y-74138257D02*
X131134414Y-73638257D01*
X131920128Y-73423971D02*
X131920128Y-74138257D01*
X131920128Y-74138257D02*
X130420128Y-74138257D01*
X130420128Y-74138257D02*
X130420128Y-73423971D01*
X142458515Y-124425728D02*
X142601372Y-124425728D01*
X142601372Y-124425728D02*
X142744229Y-124497157D01*
X142744229Y-124497157D02*
X142815658Y-124568585D01*
X142815658Y-124568585D02*
X142887086Y-124711442D01*
X142887086Y-124711442D02*
X142958515Y-124997157D01*
X142958515Y-124997157D02*
X142958515Y-125354300D01*
X142958515Y-125354300D02*
X142887086Y-125640014D01*
X142887086Y-125640014D02*
X142815658Y-125782871D01*
X142815658Y-125782871D02*
X142744229Y-125854300D01*
X142744229Y-125854300D02*
X142601372Y-125925728D01*
X142601372Y-125925728D02*
X142458515Y-125925728D01*
X142458515Y-125925728D02*
X142315658Y-125854300D01*
X142315658Y-125854300D02*
X142244229Y-125782871D01*
X142244229Y-125782871D02*
X142172800Y-125640014D01*
X142172800Y-125640014D02*
X142101372Y-125354300D01*
X142101372Y-125354300D02*
X142101372Y-124997157D01*
X142101372Y-124997157D02*
X142172800Y-124711442D01*
X142172800Y-124711442D02*
X142244229Y-124568585D01*
X142244229Y-124568585D02*
X142315658Y-124497157D01*
X142315658Y-124497157D02*
X142458515Y-124425728D01*
X143529943Y-125925728D02*
X144672800Y-124425728D01*
X143744229Y-124425728D02*
X143887086Y-124497157D01*
X143887086Y-124497157D02*
X143958514Y-124640014D01*
X143958514Y-124640014D02*
X143887086Y-124782871D01*
X143887086Y-124782871D02*
X143744229Y-124854300D01*
X143744229Y-124854300D02*
X143601371Y-124782871D01*
X143601371Y-124782871D02*
X143529943Y-124640014D01*
X143529943Y-124640014D02*
X143601371Y-124497157D01*
X143601371Y-124497157D02*
X143744229Y-124425728D01*
X144601371Y-125854300D02*
X144672800Y-125711442D01*
X144672800Y-125711442D02*
X144601371Y-125568585D01*
X144601371Y-125568585D02*
X144458514Y-125497157D01*
X144458514Y-125497157D02*
X144315657Y-125568585D01*
X144315657Y-125568585D02*
X144244229Y-125711442D01*
X144244229Y-125711442D02*
X144315657Y-125854300D01*
X144315657Y-125854300D02*
X144458514Y-125925728D01*
X144458514Y-125925728D02*
X144601371Y-125854300D01*
X146458514Y-125354300D02*
X147601372Y-125354300D01*
X148315657Y-125354300D02*
X149458515Y-125354300D01*
X150172800Y-125354300D02*
X151315658Y-125354300D01*
X152029943Y-125354300D02*
X153172801Y-125354300D01*
X154672801Y-125925728D02*
X153815658Y-125925728D01*
X154244229Y-125925728D02*
X154244229Y-124425728D01*
X154244229Y-124425728D02*
X154101372Y-124640014D01*
X154101372Y-124640014D02*
X153958515Y-124782871D01*
X153958515Y-124782871D02*
X153815658Y-124854300D01*
X155601372Y-124425728D02*
X155744229Y-124425728D01*
X155744229Y-124425728D02*
X155887086Y-124497157D01*
X155887086Y-124497157D02*
X155958515Y-124568585D01*
X155958515Y-124568585D02*
X156029943Y-124711442D01*
X156029943Y-124711442D02*
X156101372Y-124997157D01*
X156101372Y-124997157D02*
X156101372Y-125354300D01*
X156101372Y-125354300D02*
X156029943Y-125640014D01*
X156029943Y-125640014D02*
X155958515Y-125782871D01*
X155958515Y-125782871D02*
X155887086Y-125854300D01*
X155887086Y-125854300D02*
X155744229Y-125925728D01*
X155744229Y-125925728D02*
X155601372Y-125925728D01*
X155601372Y-125925728D02*
X155458515Y-125854300D01*
X155458515Y-125854300D02*
X155387086Y-125782871D01*
X155387086Y-125782871D02*
X155315657Y-125640014D01*
X155315657Y-125640014D02*
X155244229Y-125354300D01*
X155244229Y-125354300D02*
X155244229Y-124997157D01*
X155244229Y-124997157D02*
X155315657Y-124711442D01*
X155315657Y-124711442D02*
X155387086Y-124568585D01*
X155387086Y-124568585D02*
X155458515Y-124497157D01*
X155458515Y-124497157D02*
X155601372Y-124425728D01*
X157029943Y-124425728D02*
X157172800Y-124425728D01*
X157172800Y-124425728D02*
X157315657Y-124497157D01*
X157315657Y-124497157D02*
X157387086Y-124568585D01*
X157387086Y-124568585D02*
X157458514Y-124711442D01*
X157458514Y-124711442D02*
X157529943Y-124997157D01*
X157529943Y-124997157D02*
X157529943Y-125354300D01*
X157529943Y-125354300D02*
X157458514Y-125640014D01*
X157458514Y-125640014D02*
X157387086Y-125782871D01*
X157387086Y-125782871D02*
X157315657Y-125854300D01*
X157315657Y-125854300D02*
X157172800Y-125925728D01*
X157172800Y-125925728D02*
X157029943Y-125925728D01*
X157029943Y-125925728D02*
X156887086Y-125854300D01*
X156887086Y-125854300D02*
X156815657Y-125782871D01*
X156815657Y-125782871D02*
X156744228Y-125640014D01*
X156744228Y-125640014D02*
X156672800Y-125354300D01*
X156672800Y-125354300D02*
X156672800Y-124997157D01*
X156672800Y-124997157D02*
X156744228Y-124711442D01*
X156744228Y-124711442D02*
X156815657Y-124568585D01*
X156815657Y-124568585D02*
X156887086Y-124497157D01*
X156887086Y-124497157D02*
X157029943Y-124425728D01*
X158101371Y-125925728D02*
X159244228Y-124425728D01*
X158315657Y-124425728D02*
X158458514Y-124497157D01*
X158458514Y-124497157D02*
X158529942Y-124640014D01*
X158529942Y-124640014D02*
X158458514Y-124782871D01*
X158458514Y-124782871D02*
X158315657Y-124854300D01*
X158315657Y-124854300D02*
X158172799Y-124782871D01*
X158172799Y-124782871D02*
X158101371Y-124640014D01*
X158101371Y-124640014D02*
X158172799Y-124497157D01*
X158172799Y-124497157D02*
X158315657Y-124425728D01*
X159172799Y-125854300D02*
X159244228Y-125711442D01*
X159244228Y-125711442D02*
X159172799Y-125568585D01*
X159172799Y-125568585D02*
X159029942Y-125497157D01*
X159029942Y-125497157D02*
X158887085Y-125568585D01*
X158887085Y-125568585D02*
X158815657Y-125711442D01*
X158815657Y-125711442D02*
X158887085Y-125854300D01*
X158887085Y-125854300D02*
X159029942Y-125925728D01*
X159029942Y-125925728D02*
X159172799Y-125854300D01*
D12*
X141201981Y-78257400D02*
X142290552Y-78257400D01*
X142290552Y-78257400D02*
X142508267Y-78329971D01*
X142508267Y-78329971D02*
X142653410Y-78475114D01*
X142653410Y-78475114D02*
X142725981Y-78692828D01*
X142725981Y-78692828D02*
X142725981Y-78837971D01*
X141347124Y-77604257D02*
X141274552Y-77531685D01*
X141274552Y-77531685D02*
X141201981Y-77386543D01*
X141201981Y-77386543D02*
X141201981Y-77023685D01*
X141201981Y-77023685D02*
X141274552Y-76878543D01*
X141274552Y-76878543D02*
X141347124Y-76805971D01*
X141347124Y-76805971D02*
X141492267Y-76733400D01*
X141492267Y-76733400D02*
X141637410Y-76733400D01*
X141637410Y-76733400D02*
X141855124Y-76805971D01*
X141855124Y-76805971D02*
X142725981Y-77676828D01*
X142725981Y-77676828D02*
X142725981Y-76733400D01*
X142725981Y-78257400D02*
X143814552Y-78257400D01*
X143814552Y-78257400D02*
X144032267Y-78329971D01*
X144032267Y-78329971D02*
X144177410Y-78475114D01*
X144177410Y-78475114D02*
X144249981Y-78692828D01*
X144249981Y-78692828D02*
X144249981Y-78837971D01*
X142725981Y-77676828D02*
X142725981Y-76733400D01*
X142725981Y-76733400D02*
X143306552Y-77241400D01*
X143306552Y-77241400D02*
X143306552Y-77023685D01*
X143306552Y-77023685D02*
X143379124Y-76878543D01*
X143379124Y-76878543D02*
X143451695Y-76805971D01*
X143451695Y-76805971D02*
X143596838Y-76733400D01*
X143596838Y-76733400D02*
X143959695Y-76733400D01*
X143959695Y-76733400D02*
X144104838Y-76805971D01*
X144104838Y-76805971D02*
X144177410Y-76878543D01*
X144177410Y-76878543D02*
X144249981Y-77023685D01*
X144249981Y-77023685D02*
X144249981Y-77459114D01*
X144249981Y-77459114D02*
X144177410Y-77604257D01*
X144177410Y-77604257D02*
X144104838Y-77676828D01*
D13*
X145862657Y-81788109D02*
X145576943Y-81788109D01*
X145719800Y-81788109D02*
X145719800Y-81288109D01*
X145719800Y-81288109D02*
X145672181Y-81359538D01*
X145672181Y-81359538D02*
X145624562Y-81407157D01*
X145624562Y-81407157D02*
X145576943Y-81430966D01*
D12*
X109578981Y-130962400D02*
X110667552Y-130962400D01*
X110667552Y-130962400D02*
X110885267Y-131034971D01*
X110885267Y-131034971D02*
X111030410Y-131180114D01*
X111030410Y-131180114D02*
X111102981Y-131397828D01*
X111102981Y-131397828D02*
X111102981Y-131542971D01*
X111102981Y-130164114D02*
X111102981Y-129873828D01*
X111102981Y-129873828D02*
X111030410Y-129728685D01*
X111030410Y-129728685D02*
X110957838Y-129656114D01*
X110957838Y-129656114D02*
X110740124Y-129510971D01*
X110740124Y-129510971D02*
X110449838Y-129438400D01*
X110449838Y-129438400D02*
X109869267Y-129438400D01*
X109869267Y-129438400D02*
X109724124Y-129510971D01*
X109724124Y-129510971D02*
X109651552Y-129583543D01*
X109651552Y-129583543D02*
X109578981Y-129728685D01*
X109578981Y-129728685D02*
X109578981Y-130018971D01*
X109578981Y-130018971D02*
X109651552Y-130164114D01*
X109651552Y-130164114D02*
X109724124Y-130236685D01*
X109724124Y-130236685D02*
X109869267Y-130309257D01*
X109869267Y-130309257D02*
X110232124Y-130309257D01*
X110232124Y-130309257D02*
X110377267Y-130236685D01*
X110377267Y-130236685D02*
X110449838Y-130164114D01*
X110449838Y-130164114D02*
X110522410Y-130018971D01*
X110522410Y-130018971D02*
X110522410Y-129728685D01*
X110522410Y-129728685D02*
X110449838Y-129583543D01*
X110449838Y-129583543D02*
X110377267Y-129510971D01*
X110377267Y-129510971D02*
X110232124Y-129438400D01*
D14*
X153694657Y-87960528D02*
X153694657Y-86460528D01*
X153694657Y-87174814D02*
X154551800Y-87174814D01*
X154551800Y-87960528D02*
X154551800Y-86460528D01*
X155266086Y-87174814D02*
X155766086Y-87174814D01*
X155980372Y-87960528D02*
X155266086Y-87960528D01*
X155266086Y-87960528D02*
X155266086Y-86460528D01*
X155266086Y-86460528D02*
X155980372Y-86460528D01*
X156551801Y-87531957D02*
X157266087Y-87531957D01*
X156408944Y-87960528D02*
X156908944Y-86460528D01*
X156908944Y-86460528D02*
X157408944Y-87960528D01*
X157908943Y-87960528D02*
X157908943Y-86460528D01*
X157908943Y-86460528D02*
X158266086Y-86460528D01*
X158266086Y-86460528D02*
X158480372Y-86531957D01*
X158480372Y-86531957D02*
X158623229Y-86674814D01*
X158623229Y-86674814D02*
X158694658Y-86817671D01*
X158694658Y-86817671D02*
X158766086Y-87103385D01*
X158766086Y-87103385D02*
X158766086Y-87317671D01*
X158766086Y-87317671D02*
X158694658Y-87603385D01*
X158694658Y-87603385D02*
X158623229Y-87746242D01*
X158623229Y-87746242D02*
X158480372Y-87889100D01*
X158480372Y-87889100D02*
X158266086Y-87960528D01*
X158266086Y-87960528D02*
X157908943Y-87960528D01*
X159408943Y-87174814D02*
X159908943Y-87174814D01*
X160123229Y-87960528D02*
X159408943Y-87960528D01*
X159408943Y-87960528D02*
X159408943Y-86460528D01*
X159408943Y-86460528D02*
X160123229Y-86460528D01*
X161623229Y-87960528D02*
X161123229Y-87246242D01*
X160766086Y-87960528D02*
X160766086Y-86460528D01*
X160766086Y-86460528D02*
X161337515Y-86460528D01*
X161337515Y-86460528D02*
X161480372Y-86531957D01*
X161480372Y-86531957D02*
X161551801Y-86603385D01*
X161551801Y-86603385D02*
X161623229Y-86746242D01*
X161623229Y-86746242D02*
X161623229Y-86960528D01*
X161623229Y-86960528D02*
X161551801Y-87103385D01*
X161551801Y-87103385D02*
X161480372Y-87174814D01*
X161480372Y-87174814D02*
X161337515Y-87246242D01*
X161337515Y-87246242D02*
X160766086Y-87246242D01*
X161908944Y-88103385D02*
X163051801Y-88103385D01*
X163337515Y-86603385D02*
X163408943Y-86531957D01*
X163408943Y-86531957D02*
X163551801Y-86460528D01*
X163551801Y-86460528D02*
X163908943Y-86460528D01*
X163908943Y-86460528D02*
X164051801Y-86531957D01*
X164051801Y-86531957D02*
X164123229Y-86603385D01*
X164123229Y-86603385D02*
X164194658Y-86746242D01*
X164194658Y-86746242D02*
X164194658Y-86889100D01*
X164194658Y-86889100D02*
X164123229Y-87103385D01*
X164123229Y-87103385D02*
X163266086Y-87960528D01*
X163266086Y-87960528D02*
X164194658Y-87960528D01*
X164694657Y-87960528D02*
X165480372Y-86960528D01*
X164694657Y-86960528D02*
X165480372Y-87960528D01*
X166337515Y-86460528D02*
X166480372Y-86460528D01*
X166480372Y-86460528D02*
X166623229Y-86531957D01*
X166623229Y-86531957D02*
X166694658Y-86603385D01*
X166694658Y-86603385D02*
X166766086Y-86746242D01*
X166766086Y-86746242D02*
X166837515Y-87031957D01*
X166837515Y-87031957D02*
X166837515Y-87389100D01*
X166837515Y-87389100D02*
X166766086Y-87674814D01*
X166766086Y-87674814D02*
X166694658Y-87817671D01*
X166694658Y-87817671D02*
X166623229Y-87889100D01*
X166623229Y-87889100D02*
X166480372Y-87960528D01*
X166480372Y-87960528D02*
X166337515Y-87960528D01*
X166337515Y-87960528D02*
X166194658Y-87889100D01*
X166194658Y-87889100D02*
X166123229Y-87817671D01*
X166123229Y-87817671D02*
X166051800Y-87674814D01*
X166051800Y-87674814D02*
X165980372Y-87389100D01*
X165980372Y-87389100D02*
X165980372Y-87031957D01*
X165980372Y-87031957D02*
X166051800Y-86746242D01*
X166051800Y-86746242D02*
X166123229Y-86603385D01*
X166123229Y-86603385D02*
X166194658Y-86531957D01*
X166194658Y-86531957D02*
X166337515Y-86460528D01*
X168194657Y-86460528D02*
X167480371Y-86460528D01*
X167480371Y-86460528D02*
X167408943Y-87174814D01*
X167408943Y-87174814D02*
X167480371Y-87103385D01*
X167480371Y-87103385D02*
X167623229Y-87031957D01*
X167623229Y-87031957D02*
X167980371Y-87031957D01*
X167980371Y-87031957D02*
X168123229Y-87103385D01*
X168123229Y-87103385D02*
X168194657Y-87174814D01*
X168194657Y-87174814D02*
X168266086Y-87317671D01*
X168266086Y-87317671D02*
X168266086Y-87674814D01*
X168266086Y-87674814D02*
X168194657Y-87817671D01*
X168194657Y-87817671D02*
X168123229Y-87889100D01*
X168123229Y-87889100D02*
X167980371Y-87960528D01*
X167980371Y-87960528D02*
X167623229Y-87960528D01*
X167623229Y-87960528D02*
X167480371Y-87889100D01*
X167480371Y-87889100D02*
X167408943Y-87817671D01*
X168551800Y-88103385D02*
X169694657Y-88103385D01*
X170051799Y-87960528D02*
X170051799Y-86460528D01*
X170051799Y-86460528D02*
X170623228Y-86460528D01*
X170623228Y-86460528D02*
X170766085Y-86531957D01*
X170766085Y-86531957D02*
X170837514Y-86603385D01*
X170837514Y-86603385D02*
X170908942Y-86746242D01*
X170908942Y-86746242D02*
X170908942Y-86960528D01*
X170908942Y-86960528D02*
X170837514Y-87103385D01*
X170837514Y-87103385D02*
X170766085Y-87174814D01*
X170766085Y-87174814D02*
X170623228Y-87246242D01*
X170623228Y-87246242D02*
X170051799Y-87246242D01*
X171480371Y-87531957D02*
X172194657Y-87531957D01*
X171337514Y-87960528D02*
X171837514Y-86460528D01*
X171837514Y-86460528D02*
X172337514Y-87960528D01*
X173694656Y-87960528D02*
X173194656Y-87246242D01*
X172837513Y-87960528D02*
X172837513Y-86460528D01*
X172837513Y-86460528D02*
X173408942Y-86460528D01*
X173408942Y-86460528D02*
X173551799Y-86531957D01*
X173551799Y-86531957D02*
X173623228Y-86603385D01*
X173623228Y-86603385D02*
X173694656Y-86746242D01*
X173694656Y-86746242D02*
X173694656Y-86960528D01*
X173694656Y-86960528D02*
X173623228Y-87103385D01*
X173623228Y-87103385D02*
X173551799Y-87174814D01*
X173551799Y-87174814D02*
X173408942Y-87246242D01*
X173408942Y-87246242D02*
X172837513Y-87246242D01*
X174266085Y-87531957D02*
X174980371Y-87531957D01*
X174123228Y-87960528D02*
X174623228Y-86460528D01*
X174623228Y-86460528D02*
X175123228Y-87960528D01*
X176337513Y-87960528D02*
X175623227Y-87960528D01*
X175623227Y-87960528D02*
X175623227Y-86460528D01*
X177551799Y-87960528D02*
X176837513Y-87960528D01*
X176837513Y-87960528D02*
X176837513Y-86460528D01*
X178051799Y-87174814D02*
X178551799Y-87174814D01*
X178766085Y-87960528D02*
X178051799Y-87960528D01*
X178051799Y-87960528D02*
X178051799Y-86460528D01*
X178051799Y-86460528D02*
X178766085Y-86460528D01*
X180123228Y-87960528D02*
X179408942Y-87960528D01*
X179408942Y-87960528D02*
X179408942Y-86460528D01*
D13*
X164023657Y-74803109D02*
X163737943Y-74803109D01*
X163880800Y-74803109D02*
X163880800Y-74303109D01*
X163880800Y-74303109D02*
X163833181Y-74374538D01*
X163833181Y-74374538D02*
X163785562Y-74422157D01*
X163785562Y-74422157D02*
X163737943Y-74445966D01*
D14*
X166666942Y-114568219D02*
X166333609Y-114092028D01*
X166095514Y-114568219D02*
X166095514Y-113568219D01*
X166095514Y-113568219D02*
X166476466Y-113568219D01*
X166476466Y-113568219D02*
X166571704Y-113615838D01*
X166571704Y-113615838D02*
X166619323Y-113663457D01*
X166619323Y-113663457D02*
X166666942Y-113758695D01*
X166666942Y-113758695D02*
X166666942Y-113901552D01*
X166666942Y-113901552D02*
X166619323Y-113996790D01*
X166619323Y-113996790D02*
X166571704Y-114044409D01*
X166571704Y-114044409D02*
X166476466Y-114092028D01*
X166476466Y-114092028D02*
X166095514Y-114092028D01*
X167619323Y-114568219D02*
X167047895Y-114568219D01*
X167333609Y-114568219D02*
X167333609Y-113568219D01*
X167333609Y-113568219D02*
X167238371Y-113711076D01*
X167238371Y-113711076D02*
X167143133Y-113806314D01*
X167143133Y-113806314D02*
X167047895Y-113853933D01*
X167952657Y-113568219D02*
X168619323Y-113568219D01*
X168619323Y-113568219D02*
X168190752Y-114568219D01*
D12*
X109578981Y-126009400D02*
X110667552Y-126009400D01*
X110667552Y-126009400D02*
X110885267Y-126081971D01*
X110885267Y-126081971D02*
X111030410Y-126227114D01*
X111030410Y-126227114D02*
X111102981Y-126444828D01*
X111102981Y-126444828D02*
X111102981Y-126589971D01*
X110232124Y-125065971D02*
X110159552Y-125211114D01*
X110159552Y-125211114D02*
X110086981Y-125283685D01*
X110086981Y-125283685D02*
X109941838Y-125356257D01*
X109941838Y-125356257D02*
X109869267Y-125356257D01*
X109869267Y-125356257D02*
X109724124Y-125283685D01*
X109724124Y-125283685D02*
X109651552Y-125211114D01*
X109651552Y-125211114D02*
X109578981Y-125065971D01*
X109578981Y-125065971D02*
X109578981Y-124775685D01*
X109578981Y-124775685D02*
X109651552Y-124630543D01*
X109651552Y-124630543D02*
X109724124Y-124557971D01*
X109724124Y-124557971D02*
X109869267Y-124485400D01*
X109869267Y-124485400D02*
X109941838Y-124485400D01*
X109941838Y-124485400D02*
X110086981Y-124557971D01*
X110086981Y-124557971D02*
X110159552Y-124630543D01*
X110159552Y-124630543D02*
X110232124Y-124775685D01*
X110232124Y-124775685D02*
X110232124Y-125065971D01*
X110232124Y-125065971D02*
X110304695Y-125211114D01*
X110304695Y-125211114D02*
X110377267Y-125283685D01*
X110377267Y-125283685D02*
X110522410Y-125356257D01*
X110522410Y-125356257D02*
X110812695Y-125356257D01*
X110812695Y-125356257D02*
X110957838Y-125283685D01*
X110957838Y-125283685D02*
X111030410Y-125211114D01*
X111030410Y-125211114D02*
X111102981Y-125065971D01*
X111102981Y-125065971D02*
X111102981Y-124775685D01*
X111102981Y-124775685D02*
X111030410Y-124630543D01*
X111030410Y-124630543D02*
X110957838Y-124557971D01*
X110957838Y-124557971D02*
X110812695Y-124485400D01*
X110812695Y-124485400D02*
X110522410Y-124485400D01*
X110522410Y-124485400D02*
X110377267Y-124557971D01*
X110377267Y-124557971D02*
X110304695Y-124630543D01*
X110304695Y-124630543D02*
X110232124Y-124775685D01*
D15*
X168953200Y-126754332D02*
X168915104Y-126868618D01*
X168915104Y-126868618D02*
X168915104Y-127059094D01*
X168915104Y-127059094D02*
X168953200Y-127135285D01*
X168953200Y-127135285D02*
X168991295Y-127173380D01*
X168991295Y-127173380D02*
X169067485Y-127211475D01*
X169067485Y-127211475D02*
X169143676Y-127211475D01*
X169143676Y-127211475D02*
X169219866Y-127173380D01*
X169219866Y-127173380D02*
X169257961Y-127135285D01*
X169257961Y-127135285D02*
X169296057Y-127059094D01*
X169296057Y-127059094D02*
X169334152Y-126906713D01*
X169334152Y-126906713D02*
X169372247Y-126830523D01*
X169372247Y-126830523D02*
X169410342Y-126792428D01*
X169410342Y-126792428D02*
X169486533Y-126754332D01*
X169486533Y-126754332D02*
X169562723Y-126754332D01*
X169562723Y-126754332D02*
X169638914Y-126792428D01*
X169638914Y-126792428D02*
X169677009Y-126830523D01*
X169677009Y-126830523D02*
X169715104Y-126906713D01*
X169715104Y-126906713D02*
X169715104Y-127097190D01*
X169715104Y-127097190D02*
X169677009Y-127211475D01*
X169715104Y-127478142D02*
X168915104Y-127668618D01*
X168915104Y-127668618D02*
X169486533Y-127820999D01*
X169486533Y-127820999D02*
X168915104Y-127973380D01*
X168915104Y-127973380D02*
X169715104Y-128163857D01*
X168915104Y-128887666D02*
X168915104Y-128430523D01*
X168915104Y-128659095D02*
X169715104Y-128659095D01*
X169715104Y-128659095D02*
X169600819Y-128582904D01*
X169600819Y-128582904D02*
X169524628Y-128506714D01*
X169524628Y-128506714D02*
X169486533Y-128430523D01*
X109872761Y-129834057D02*
X109777523Y-129786438D01*
X109777523Y-129786438D02*
X109682285Y-129691200D01*
X109682285Y-129691200D02*
X109539428Y-129548342D01*
X109539428Y-129548342D02*
X109444190Y-129500723D01*
X109444190Y-129500723D02*
X109348952Y-129500723D01*
X109396571Y-129738819D02*
X109301333Y-129691200D01*
X109301333Y-129691200D02*
X109206095Y-129595961D01*
X109206095Y-129595961D02*
X109158476Y-129405485D01*
X109158476Y-129405485D02*
X109158476Y-129072152D01*
X109158476Y-129072152D02*
X109206095Y-128881676D01*
X109206095Y-128881676D02*
X109301333Y-128786438D01*
X109301333Y-128786438D02*
X109396571Y-128738819D01*
X109396571Y-128738819D02*
X109587047Y-128738819D01*
X109587047Y-128738819D02*
X109682285Y-128786438D01*
X109682285Y-128786438D02*
X109777523Y-128881676D01*
X109777523Y-128881676D02*
X109825142Y-129072152D01*
X109825142Y-129072152D02*
X109825142Y-129405485D01*
X109825142Y-129405485D02*
X109777523Y-129595961D01*
X109777523Y-129595961D02*
X109682285Y-129691200D01*
X109682285Y-129691200D02*
X109587047Y-129738819D01*
X109587047Y-129738819D02*
X109396571Y-129738819D01*
X110729904Y-128738819D02*
X110253714Y-128738819D01*
X110253714Y-128738819D02*
X110206095Y-129215009D01*
X110206095Y-129215009D02*
X110253714Y-129167390D01*
X110253714Y-129167390D02*
X110348952Y-129119771D01*
X110348952Y-129119771D02*
X110587047Y-129119771D01*
X110587047Y-129119771D02*
X110682285Y-129167390D01*
X110682285Y-129167390D02*
X110729904Y-129215009D01*
X110729904Y-129215009D02*
X110777523Y-129310247D01*
X110777523Y-129310247D02*
X110777523Y-129548342D01*
X110777523Y-129548342D02*
X110729904Y-129643580D01*
X110729904Y-129643580D02*
X110682285Y-129691200D01*
X110682285Y-129691200D02*
X110587047Y-129738819D01*
X110587047Y-129738819D02*
X110348952Y-129738819D01*
X110348952Y-129738819D02*
X110253714Y-129691200D01*
X110253714Y-129691200D02*
X110206095Y-129643580D01*
D14*
X107861571Y-143269009D02*
X107528238Y-143269009D01*
X107528238Y-143792819D02*
X107528238Y-142792819D01*
X107528238Y-142792819D02*
X108004428Y-142792819D01*
X108385381Y-143792819D02*
X108385381Y-142792819D01*
X108861571Y-143792819D02*
X108861571Y-142792819D01*
X108861571Y-142792819D02*
X109099666Y-142792819D01*
X109099666Y-142792819D02*
X109242523Y-142840438D01*
X109242523Y-142840438D02*
X109337761Y-142935676D01*
X109337761Y-142935676D02*
X109385380Y-143030914D01*
X109385380Y-143030914D02*
X109432999Y-143221390D01*
X109432999Y-143221390D02*
X109432999Y-143364247D01*
X109432999Y-143364247D02*
X109385380Y-143554723D01*
X109385380Y-143554723D02*
X109337761Y-143649961D01*
X109337761Y-143649961D02*
X109242523Y-143745200D01*
X109242523Y-143745200D02*
X109099666Y-143792819D01*
X109099666Y-143792819D02*
X108861571Y-143792819D01*
X110290142Y-143126152D02*
X110290142Y-143792819D01*
X110052047Y-142745200D02*
X109813952Y-143459485D01*
X109813952Y-143459485D02*
X110432999Y-143459485D01*
X107861571Y-132619009D02*
X107528238Y-132619009D01*
X107528238Y-133142819D02*
X107528238Y-132142819D01*
X107528238Y-132142819D02*
X108004428Y-132142819D01*
X108385381Y-133142819D02*
X108385381Y-132142819D01*
X108861571Y-133142819D02*
X108861571Y-132142819D01*
X108861571Y-132142819D02*
X109099666Y-132142819D01*
X109099666Y-132142819D02*
X109242523Y-132190438D01*
X109242523Y-132190438D02*
X109337761Y-132285676D01*
X109337761Y-132285676D02*
X109385380Y-132380914D01*
X109385380Y-132380914D02*
X109432999Y-132571390D01*
X109432999Y-132571390D02*
X109432999Y-132714247D01*
X109432999Y-132714247D02*
X109385380Y-132904723D01*
X109385380Y-132904723D02*
X109337761Y-132999961D01*
X109337761Y-132999961D02*
X109242523Y-133095200D01*
X109242523Y-133095200D02*
X109099666Y-133142819D01*
X109099666Y-133142819D02*
X108861571Y-133142819D01*
X110385380Y-133142819D02*
X109813952Y-133142819D01*
X110099666Y-133142819D02*
X110099666Y-132142819D01*
X110099666Y-132142819D02*
X110004428Y-132285676D01*
X110004428Y-132285676D02*
X109909190Y-132380914D01*
X109909190Y-132380914D02*
X109813952Y-132428533D01*
D15*
X119256400Y-124119932D02*
X119218304Y-124234218D01*
X119218304Y-124234218D02*
X119218304Y-124424694D01*
X119218304Y-124424694D02*
X119256400Y-124500885D01*
X119256400Y-124500885D02*
X119294495Y-124538980D01*
X119294495Y-124538980D02*
X119370685Y-124577075D01*
X119370685Y-124577075D02*
X119446876Y-124577075D01*
X119446876Y-124577075D02*
X119523066Y-124538980D01*
X119523066Y-124538980D02*
X119561161Y-124500885D01*
X119561161Y-124500885D02*
X119599257Y-124424694D01*
X119599257Y-124424694D02*
X119637352Y-124272313D01*
X119637352Y-124272313D02*
X119675447Y-124196123D01*
X119675447Y-124196123D02*
X119713542Y-124158028D01*
X119713542Y-124158028D02*
X119789733Y-124119932D01*
X119789733Y-124119932D02*
X119865923Y-124119932D01*
X119865923Y-124119932D02*
X119942114Y-124158028D01*
X119942114Y-124158028D02*
X119980209Y-124196123D01*
X119980209Y-124196123D02*
X120018304Y-124272313D01*
X120018304Y-124272313D02*
X120018304Y-124462790D01*
X120018304Y-124462790D02*
X119980209Y-124577075D01*
X120018304Y-124843742D02*
X119218304Y-125034218D01*
X119218304Y-125034218D02*
X119789733Y-125186599D01*
X119789733Y-125186599D02*
X119218304Y-125338980D01*
X119218304Y-125338980D02*
X120018304Y-125529457D01*
X119942114Y-125796123D02*
X119980209Y-125834219D01*
X119980209Y-125834219D02*
X120018304Y-125910409D01*
X120018304Y-125910409D02*
X120018304Y-126100885D01*
X120018304Y-126100885D02*
X119980209Y-126177076D01*
X119980209Y-126177076D02*
X119942114Y-126215171D01*
X119942114Y-126215171D02*
X119865923Y-126253266D01*
X119865923Y-126253266D02*
X119789733Y-126253266D01*
X119789733Y-126253266D02*
X119675447Y-126215171D01*
X119675447Y-126215171D02*
X119218304Y-125758028D01*
X119218304Y-125758028D02*
X119218304Y-126253266D01*
X103272761Y-129834057D02*
X103177523Y-129786438D01*
X103177523Y-129786438D02*
X103082285Y-129691200D01*
X103082285Y-129691200D02*
X102939428Y-129548342D01*
X102939428Y-129548342D02*
X102844190Y-129500723D01*
X102844190Y-129500723D02*
X102748952Y-129500723D01*
X102796571Y-129738819D02*
X102701333Y-129691200D01*
X102701333Y-129691200D02*
X102606095Y-129595961D01*
X102606095Y-129595961D02*
X102558476Y-129405485D01*
X102558476Y-129405485D02*
X102558476Y-129072152D01*
X102558476Y-129072152D02*
X102606095Y-128881676D01*
X102606095Y-128881676D02*
X102701333Y-128786438D01*
X102701333Y-128786438D02*
X102796571Y-128738819D01*
X102796571Y-128738819D02*
X102987047Y-128738819D01*
X102987047Y-128738819D02*
X103082285Y-128786438D01*
X103082285Y-128786438D02*
X103177523Y-128881676D01*
X103177523Y-128881676D02*
X103225142Y-129072152D01*
X103225142Y-129072152D02*
X103225142Y-129405485D01*
X103225142Y-129405485D02*
X103177523Y-129595961D01*
X103177523Y-129595961D02*
X103082285Y-129691200D01*
X103082285Y-129691200D02*
X102987047Y-129738819D01*
X102987047Y-129738819D02*
X102796571Y-129738819D01*
X103558476Y-128738819D02*
X104177523Y-128738819D01*
X104177523Y-128738819D02*
X103844190Y-129119771D01*
X103844190Y-129119771D02*
X103987047Y-129119771D01*
X103987047Y-129119771D02*
X104082285Y-129167390D01*
X104082285Y-129167390D02*
X104129904Y-129215009D01*
X104129904Y-129215009D02*
X104177523Y-129310247D01*
X104177523Y-129310247D02*
X104177523Y-129548342D01*
X104177523Y-129548342D02*
X104129904Y-129643580D01*
X104129904Y-129643580D02*
X104082285Y-129691200D01*
X104082285Y-129691200D02*
X103987047Y-129738819D01*
X103987047Y-129738819D02*
X103701333Y-129738819D01*
X103701333Y-129738819D02*
X103606095Y-129691200D01*
X103606095Y-129691200D02*
X103558476Y-129643580D01*
D14*
X118077286Y-132192819D02*
X118648714Y-132192819D01*
X118363000Y-133192819D02*
X118363000Y-132192819D01*
X118982048Y-133192819D02*
X118982048Y-132192819D01*
X118982048Y-132669009D02*
X119553476Y-132669009D01*
X119553476Y-133192819D02*
X119553476Y-132192819D01*
X119934429Y-132192819D02*
X120553476Y-132192819D01*
X120553476Y-132192819D02*
X120220143Y-132573771D01*
X120220143Y-132573771D02*
X120363000Y-132573771D01*
X120363000Y-132573771D02*
X120458238Y-132621390D01*
X120458238Y-132621390D02*
X120505857Y-132669009D01*
X120505857Y-132669009D02*
X120553476Y-132764247D01*
X120553476Y-132764247D02*
X120553476Y-133002342D01*
X120553476Y-133002342D02*
X120505857Y-133097580D01*
X120505857Y-133097580D02*
X120458238Y-133145200D01*
X120458238Y-133145200D02*
X120363000Y-133192819D01*
X120363000Y-133192819D02*
X120077286Y-133192819D01*
X120077286Y-133192819D02*
X119982048Y-133145200D01*
X119982048Y-133145200D02*
X119934429Y-133097580D01*
X114290142Y-136107580D02*
X114242523Y-136155200D01*
X114242523Y-136155200D02*
X114099666Y-136202819D01*
X114099666Y-136202819D02*
X114004428Y-136202819D01*
X114004428Y-136202819D02*
X113861571Y-136155200D01*
X113861571Y-136155200D02*
X113766333Y-136059961D01*
X113766333Y-136059961D02*
X113718714Y-135964723D01*
X113718714Y-135964723D02*
X113671095Y-135774247D01*
X113671095Y-135774247D02*
X113671095Y-135631390D01*
X113671095Y-135631390D02*
X113718714Y-135440914D01*
X113718714Y-135440914D02*
X113766333Y-135345676D01*
X113766333Y-135345676D02*
X113861571Y-135250438D01*
X113861571Y-135250438D02*
X114004428Y-135202819D01*
X114004428Y-135202819D02*
X114099666Y-135202819D01*
X114099666Y-135202819D02*
X114242523Y-135250438D01*
X114242523Y-135250438D02*
X114290142Y-135298057D01*
X114671095Y-135298057D02*
X114718714Y-135250438D01*
X114718714Y-135250438D02*
X114813952Y-135202819D01*
X114813952Y-135202819D02*
X115052047Y-135202819D01*
X115052047Y-135202819D02*
X115147285Y-135250438D01*
X115147285Y-135250438D02*
X115194904Y-135298057D01*
X115194904Y-135298057D02*
X115242523Y-135393295D01*
X115242523Y-135393295D02*
X115242523Y-135488533D01*
X115242523Y-135488533D02*
X115194904Y-135631390D01*
X115194904Y-135631390D02*
X114623476Y-136202819D01*
X114623476Y-136202819D02*
X115242523Y-136202819D01*
X115575857Y-135202819D02*
X116242523Y-135202819D01*
X116242523Y-135202819D02*
X115813952Y-136202819D01*
X126274357Y-99660914D02*
X126488643Y-99732342D01*
X126488643Y-99732342D02*
X126560072Y-99803771D01*
X126560072Y-99803771D02*
X126631500Y-99946628D01*
X126631500Y-99946628D02*
X126631500Y-100160914D01*
X126631500Y-100160914D02*
X126560072Y-100303771D01*
X126560072Y-100303771D02*
X126488643Y-100375200D01*
X126488643Y-100375200D02*
X126345786Y-100446628D01*
X126345786Y-100446628D02*
X125774357Y-100446628D01*
X125774357Y-100446628D02*
X125774357Y-98946628D01*
X125774357Y-98946628D02*
X126274357Y-98946628D01*
X126274357Y-98946628D02*
X126417215Y-99018057D01*
X126417215Y-99018057D02*
X126488643Y-99089485D01*
X126488643Y-99089485D02*
X126560072Y-99232342D01*
X126560072Y-99232342D02*
X126560072Y-99375200D01*
X126560072Y-99375200D02*
X126488643Y-99518057D01*
X126488643Y-99518057D02*
X126417215Y-99589485D01*
X126417215Y-99589485D02*
X126274357Y-99660914D01*
X126274357Y-99660914D02*
X125774357Y-99660914D01*
X128060072Y-100446628D02*
X127202929Y-100446628D01*
X127631500Y-100446628D02*
X127631500Y-98946628D01*
X127631500Y-98946628D02*
X127488643Y-99160914D01*
X127488643Y-99160914D02*
X127345786Y-99303771D01*
X127345786Y-99303771D02*
X127202929Y-99375200D01*
D16*
X161616095Y-92610933D02*
X163139905Y-92610933D01*
X115896095Y-111660933D02*
X117419905Y-111660933D01*
X116658000Y-112422838D02*
X116658000Y-110899028D01*
X115896095Y-92610933D02*
X117419905Y-92610933D01*
X116658000Y-93372838D02*
X116658000Y-91849028D01*
X161616095Y-111660933D02*
X163139905Y-111660933D01*
D14*
X107861571Y-136169009D02*
X107528238Y-136169009D01*
X107528238Y-136692819D02*
X107528238Y-135692819D01*
X107528238Y-135692819D02*
X108004428Y-135692819D01*
X108385381Y-136692819D02*
X108385381Y-135692819D01*
X108861571Y-136692819D02*
X108861571Y-135692819D01*
X108861571Y-135692819D02*
X109099666Y-135692819D01*
X109099666Y-135692819D02*
X109242523Y-135740438D01*
X109242523Y-135740438D02*
X109337761Y-135835676D01*
X109337761Y-135835676D02*
X109385380Y-135930914D01*
X109385380Y-135930914D02*
X109432999Y-136121390D01*
X109432999Y-136121390D02*
X109432999Y-136264247D01*
X109432999Y-136264247D02*
X109385380Y-136454723D01*
X109385380Y-136454723D02*
X109337761Y-136549961D01*
X109337761Y-136549961D02*
X109242523Y-136645200D01*
X109242523Y-136645200D02*
X109099666Y-136692819D01*
X109099666Y-136692819D02*
X108861571Y-136692819D01*
X109813952Y-135788057D02*
X109861571Y-135740438D01*
X109861571Y-135740438D02*
X109956809Y-135692819D01*
X109956809Y-135692819D02*
X110194904Y-135692819D01*
X110194904Y-135692819D02*
X110290142Y-135740438D01*
X110290142Y-135740438D02*
X110337761Y-135788057D01*
X110337761Y-135788057D02*
X110385380Y-135883295D01*
X110385380Y-135883295D02*
X110385380Y-135978533D01*
X110385380Y-135978533D02*
X110337761Y-136121390D01*
X110337761Y-136121390D02*
X109766333Y-136692819D01*
X109766333Y-136692819D02*
X110385380Y-136692819D01*
X120337286Y-127222819D02*
X120908714Y-127222819D01*
X120623000Y-128222819D02*
X120623000Y-127222819D01*
X121242048Y-128222819D02*
X121242048Y-127222819D01*
X121242048Y-127699009D02*
X121813476Y-127699009D01*
X121813476Y-128222819D02*
X121813476Y-127222819D01*
X122718238Y-127556152D02*
X122718238Y-128222819D01*
X122480143Y-127175200D02*
X122242048Y-127889485D01*
X122242048Y-127889485D02*
X122861095Y-127889485D01*
X125739905Y-123402819D02*
X125739905Y-122402819D01*
X125739905Y-122402819D02*
X125978000Y-122402819D01*
X125978000Y-122402819D02*
X126120857Y-122450438D01*
X126120857Y-122450438D02*
X126216095Y-122545676D01*
X126216095Y-122545676D02*
X126263714Y-122640914D01*
X126263714Y-122640914D02*
X126311333Y-122831390D01*
X126311333Y-122831390D02*
X126311333Y-122974247D01*
X126311333Y-122974247D02*
X126263714Y-123164723D01*
X126263714Y-123164723D02*
X126216095Y-123259961D01*
X126216095Y-123259961D02*
X126120857Y-123355200D01*
X126120857Y-123355200D02*
X125978000Y-123402819D01*
X125978000Y-123402819D02*
X125739905Y-123402819D01*
X127168476Y-122402819D02*
X126978000Y-122402819D01*
X126978000Y-122402819D02*
X126882762Y-122450438D01*
X126882762Y-122450438D02*
X126835143Y-122498057D01*
X126835143Y-122498057D02*
X126739905Y-122640914D01*
X126739905Y-122640914D02*
X126692286Y-122831390D01*
X126692286Y-122831390D02*
X126692286Y-123212342D01*
X126692286Y-123212342D02*
X126739905Y-123307580D01*
X126739905Y-123307580D02*
X126787524Y-123355200D01*
X126787524Y-123355200D02*
X126882762Y-123402819D01*
X126882762Y-123402819D02*
X127073238Y-123402819D01*
X127073238Y-123402819D02*
X127168476Y-123355200D01*
X127168476Y-123355200D02*
X127216095Y-123307580D01*
X127216095Y-123307580D02*
X127263714Y-123212342D01*
X127263714Y-123212342D02*
X127263714Y-122974247D01*
X127263714Y-122974247D02*
X127216095Y-122879009D01*
X127216095Y-122879009D02*
X127168476Y-122831390D01*
X127168476Y-122831390D02*
X127073238Y-122783771D01*
X127073238Y-122783771D02*
X126882762Y-122783771D01*
X126882762Y-122783771D02*
X126787524Y-122831390D01*
X126787524Y-122831390D02*
X126739905Y-122879009D01*
X126739905Y-122879009D02*
X126692286Y-122974247D01*
X129390142Y-123507580D02*
X129342523Y-123555200D01*
X129342523Y-123555200D02*
X129199666Y-123602819D01*
X129199666Y-123602819D02*
X129104428Y-123602819D01*
X129104428Y-123602819D02*
X128961571Y-123555200D01*
X128961571Y-123555200D02*
X128866333Y-123459961D01*
X128866333Y-123459961D02*
X128818714Y-123364723D01*
X128818714Y-123364723D02*
X128771095Y-123174247D01*
X128771095Y-123174247D02*
X128771095Y-123031390D01*
X128771095Y-123031390D02*
X128818714Y-122840914D01*
X128818714Y-122840914D02*
X128866333Y-122745676D01*
X128866333Y-122745676D02*
X128961571Y-122650438D01*
X128961571Y-122650438D02*
X129104428Y-122602819D01*
X129104428Y-122602819D02*
X129199666Y-122602819D01*
X129199666Y-122602819D02*
X129342523Y-122650438D01*
X129342523Y-122650438D02*
X129390142Y-122698057D01*
X129771095Y-122698057D02*
X129818714Y-122650438D01*
X129818714Y-122650438D02*
X129913952Y-122602819D01*
X129913952Y-122602819D02*
X130152047Y-122602819D01*
X130152047Y-122602819D02*
X130247285Y-122650438D01*
X130247285Y-122650438D02*
X130294904Y-122698057D01*
X130294904Y-122698057D02*
X130342523Y-122793295D01*
X130342523Y-122793295D02*
X130342523Y-122888533D01*
X130342523Y-122888533D02*
X130294904Y-123031390D01*
X130294904Y-123031390D02*
X129723476Y-123602819D01*
X129723476Y-123602819D02*
X130342523Y-123602819D01*
X131294904Y-123602819D02*
X130723476Y-123602819D01*
X131009190Y-123602819D02*
X131009190Y-122602819D01*
X131009190Y-122602819D02*
X130913952Y-122745676D01*
X130913952Y-122745676D02*
X130818714Y-122840914D01*
X130818714Y-122840914D02*
X130723476Y-122888533D01*
X118520142Y-136047580D02*
X118472523Y-136095200D01*
X118472523Y-136095200D02*
X118329666Y-136142819D01*
X118329666Y-136142819D02*
X118234428Y-136142819D01*
X118234428Y-136142819D02*
X118091571Y-136095200D01*
X118091571Y-136095200D02*
X117996333Y-135999961D01*
X117996333Y-135999961D02*
X117948714Y-135904723D01*
X117948714Y-135904723D02*
X117901095Y-135714247D01*
X117901095Y-135714247D02*
X117901095Y-135571390D01*
X117901095Y-135571390D02*
X117948714Y-135380914D01*
X117948714Y-135380914D02*
X117996333Y-135285676D01*
X117996333Y-135285676D02*
X118091571Y-135190438D01*
X118091571Y-135190438D02*
X118234428Y-135142819D01*
X118234428Y-135142819D02*
X118329666Y-135142819D01*
X118329666Y-135142819D02*
X118472523Y-135190438D01*
X118472523Y-135190438D02*
X118520142Y-135238057D01*
X118901095Y-135238057D02*
X118948714Y-135190438D01*
X118948714Y-135190438D02*
X119043952Y-135142819D01*
X119043952Y-135142819D02*
X119282047Y-135142819D01*
X119282047Y-135142819D02*
X119377285Y-135190438D01*
X119377285Y-135190438D02*
X119424904Y-135238057D01*
X119424904Y-135238057D02*
X119472523Y-135333295D01*
X119472523Y-135333295D02*
X119472523Y-135428533D01*
X119472523Y-135428533D02*
X119424904Y-135571390D01*
X119424904Y-135571390D02*
X118853476Y-136142819D01*
X118853476Y-136142819D02*
X119472523Y-136142819D01*
X120377285Y-135142819D02*
X119901095Y-135142819D01*
X119901095Y-135142819D02*
X119853476Y-135619009D01*
X119853476Y-135619009D02*
X119901095Y-135571390D01*
X119901095Y-135571390D02*
X119996333Y-135523771D01*
X119996333Y-135523771D02*
X120234428Y-135523771D01*
X120234428Y-135523771D02*
X120329666Y-135571390D01*
X120329666Y-135571390D02*
X120377285Y-135619009D01*
X120377285Y-135619009D02*
X120424904Y-135714247D01*
X120424904Y-135714247D02*
X120424904Y-135952342D01*
X120424904Y-135952342D02*
X120377285Y-136047580D01*
X120377285Y-136047580D02*
X120329666Y-136095200D01*
X120329666Y-136095200D02*
X120234428Y-136142819D01*
X120234428Y-136142819D02*
X119996333Y-136142819D01*
X119996333Y-136142819D02*
X119901095Y-136095200D01*
X119901095Y-136095200D02*
X119853476Y-136047580D01*
X117950142Y-138557580D02*
X117902523Y-138605200D01*
X117902523Y-138605200D02*
X117759666Y-138652819D01*
X117759666Y-138652819D02*
X117664428Y-138652819D01*
X117664428Y-138652819D02*
X117521571Y-138605200D01*
X117521571Y-138605200D02*
X117426333Y-138509961D01*
X117426333Y-138509961D02*
X117378714Y-138414723D01*
X117378714Y-138414723D02*
X117331095Y-138224247D01*
X117331095Y-138224247D02*
X117331095Y-138081390D01*
X117331095Y-138081390D02*
X117378714Y-137890914D01*
X117378714Y-137890914D02*
X117426333Y-137795676D01*
X117426333Y-137795676D02*
X117521571Y-137700438D01*
X117521571Y-137700438D02*
X117664428Y-137652819D01*
X117664428Y-137652819D02*
X117759666Y-137652819D01*
X117759666Y-137652819D02*
X117902523Y-137700438D01*
X117902523Y-137700438D02*
X117950142Y-137748057D01*
X118331095Y-137748057D02*
X118378714Y-137700438D01*
X118378714Y-137700438D02*
X118473952Y-137652819D01*
X118473952Y-137652819D02*
X118712047Y-137652819D01*
X118712047Y-137652819D02*
X118807285Y-137700438D01*
X118807285Y-137700438D02*
X118854904Y-137748057D01*
X118854904Y-137748057D02*
X118902523Y-137843295D01*
X118902523Y-137843295D02*
X118902523Y-137938533D01*
X118902523Y-137938533D02*
X118854904Y-138081390D01*
X118854904Y-138081390D02*
X118283476Y-138652819D01*
X118283476Y-138652819D02*
X118902523Y-138652819D01*
X119759666Y-137986152D02*
X119759666Y-138652819D01*
X119521571Y-137605200D02*
X119283476Y-138319485D01*
X119283476Y-138319485D02*
X119902523Y-138319485D01*
X114290142Y-145137580D02*
X114242523Y-145185200D01*
X114242523Y-145185200D02*
X114099666Y-145232819D01*
X114099666Y-145232819D02*
X114004428Y-145232819D01*
X114004428Y-145232819D02*
X113861571Y-145185200D01*
X113861571Y-145185200D02*
X113766333Y-145089961D01*
X113766333Y-145089961D02*
X113718714Y-144994723D01*
X113718714Y-144994723D02*
X113671095Y-144804247D01*
X113671095Y-144804247D02*
X113671095Y-144661390D01*
X113671095Y-144661390D02*
X113718714Y-144470914D01*
X113718714Y-144470914D02*
X113766333Y-144375676D01*
X113766333Y-144375676D02*
X113861571Y-144280438D01*
X113861571Y-144280438D02*
X114004428Y-144232819D01*
X114004428Y-144232819D02*
X114099666Y-144232819D01*
X114099666Y-144232819D02*
X114242523Y-144280438D01*
X114242523Y-144280438D02*
X114290142Y-144328057D01*
X114623476Y-144232819D02*
X115242523Y-144232819D01*
X115242523Y-144232819D02*
X114909190Y-144613771D01*
X114909190Y-144613771D02*
X115052047Y-144613771D01*
X115052047Y-144613771D02*
X115147285Y-144661390D01*
X115147285Y-144661390D02*
X115194904Y-144709009D01*
X115194904Y-144709009D02*
X115242523Y-144804247D01*
X115242523Y-144804247D02*
X115242523Y-145042342D01*
X115242523Y-145042342D02*
X115194904Y-145137580D01*
X115194904Y-145137580D02*
X115147285Y-145185200D01*
X115147285Y-145185200D02*
X115052047Y-145232819D01*
X115052047Y-145232819D02*
X114766333Y-145232819D01*
X114766333Y-145232819D02*
X114671095Y-145185200D01*
X114671095Y-145185200D02*
X114623476Y-145137580D01*
X116194904Y-145232819D02*
X115623476Y-145232819D01*
X115909190Y-145232819D02*
X115909190Y-144232819D01*
X115909190Y-144232819D02*
X115813952Y-144375676D01*
X115813952Y-144375676D02*
X115718714Y-144470914D01*
X115718714Y-144470914D02*
X115623476Y-144518533D01*
X107861571Y-139719009D02*
X107528238Y-139719009D01*
X107528238Y-140242819D02*
X107528238Y-139242819D01*
X107528238Y-139242819D02*
X108004428Y-139242819D01*
X108385381Y-140242819D02*
X108385381Y-139242819D01*
X108861571Y-140242819D02*
X108861571Y-139242819D01*
X108861571Y-139242819D02*
X109099666Y-139242819D01*
X109099666Y-139242819D02*
X109242523Y-139290438D01*
X109242523Y-139290438D02*
X109337761Y-139385676D01*
X109337761Y-139385676D02*
X109385380Y-139480914D01*
X109385380Y-139480914D02*
X109432999Y-139671390D01*
X109432999Y-139671390D02*
X109432999Y-139814247D01*
X109432999Y-139814247D02*
X109385380Y-140004723D01*
X109385380Y-140004723D02*
X109337761Y-140099961D01*
X109337761Y-140099961D02*
X109242523Y-140195200D01*
X109242523Y-140195200D02*
X109099666Y-140242819D01*
X109099666Y-140242819D02*
X108861571Y-140242819D01*
X109766333Y-139242819D02*
X110385380Y-139242819D01*
X110385380Y-139242819D02*
X110052047Y-139623771D01*
X110052047Y-139623771D02*
X110194904Y-139623771D01*
X110194904Y-139623771D02*
X110290142Y-139671390D01*
X110290142Y-139671390D02*
X110337761Y-139719009D01*
X110337761Y-139719009D02*
X110385380Y-139814247D01*
X110385380Y-139814247D02*
X110385380Y-140052342D01*
X110385380Y-140052342D02*
X110337761Y-140147580D01*
X110337761Y-140147580D02*
X110290142Y-140195200D01*
X110290142Y-140195200D02*
X110194904Y-140242819D01*
X110194904Y-140242819D02*
X109909190Y-140242819D01*
X109909190Y-140242819D02*
X109813952Y-140195200D01*
X109813952Y-140195200D02*
X109766333Y-140147580D01*
X114290142Y-142127580D02*
X114242523Y-142175200D01*
X114242523Y-142175200D02*
X114099666Y-142222819D01*
X114099666Y-142222819D02*
X114004428Y-142222819D01*
X114004428Y-142222819D02*
X113861571Y-142175200D01*
X113861571Y-142175200D02*
X113766333Y-142079961D01*
X113766333Y-142079961D02*
X113718714Y-141984723D01*
X113718714Y-141984723D02*
X113671095Y-141794247D01*
X113671095Y-141794247D02*
X113671095Y-141651390D01*
X113671095Y-141651390D02*
X113718714Y-141460914D01*
X113718714Y-141460914D02*
X113766333Y-141365676D01*
X113766333Y-141365676D02*
X113861571Y-141270438D01*
X113861571Y-141270438D02*
X114004428Y-141222819D01*
X114004428Y-141222819D02*
X114099666Y-141222819D01*
X114099666Y-141222819D02*
X114242523Y-141270438D01*
X114242523Y-141270438D02*
X114290142Y-141318057D01*
X114623476Y-141222819D02*
X115242523Y-141222819D01*
X115242523Y-141222819D02*
X114909190Y-141603771D01*
X114909190Y-141603771D02*
X115052047Y-141603771D01*
X115052047Y-141603771D02*
X115147285Y-141651390D01*
X115147285Y-141651390D02*
X115194904Y-141699009D01*
X115194904Y-141699009D02*
X115242523Y-141794247D01*
X115242523Y-141794247D02*
X115242523Y-142032342D01*
X115242523Y-142032342D02*
X115194904Y-142127580D01*
X115194904Y-142127580D02*
X115147285Y-142175200D01*
X115147285Y-142175200D02*
X115052047Y-142222819D01*
X115052047Y-142222819D02*
X114766333Y-142222819D01*
X114766333Y-142222819D02*
X114671095Y-142175200D01*
X114671095Y-142175200D02*
X114623476Y-142127580D01*
X115861571Y-141222819D02*
X115956809Y-141222819D01*
X115956809Y-141222819D02*
X116052047Y-141270438D01*
X116052047Y-141270438D02*
X116099666Y-141318057D01*
X116099666Y-141318057D02*
X116147285Y-141413295D01*
X116147285Y-141413295D02*
X116194904Y-141603771D01*
X116194904Y-141603771D02*
X116194904Y-141841866D01*
X116194904Y-141841866D02*
X116147285Y-142032342D01*
X116147285Y-142032342D02*
X116099666Y-142127580D01*
X116099666Y-142127580D02*
X116052047Y-142175200D01*
X116052047Y-142175200D02*
X115956809Y-142222819D01*
X115956809Y-142222819D02*
X115861571Y-142222819D01*
X115861571Y-142222819D02*
X115766333Y-142175200D01*
X115766333Y-142175200D02*
X115718714Y-142127580D01*
X115718714Y-142127580D02*
X115671095Y-142032342D01*
X115671095Y-142032342D02*
X115623476Y-141841866D01*
X115623476Y-141841866D02*
X115623476Y-141603771D01*
X115623476Y-141603771D02*
X115671095Y-141413295D01*
X115671095Y-141413295D02*
X115718714Y-141318057D01*
X115718714Y-141318057D02*
X115766333Y-141270438D01*
X115766333Y-141270438D02*
X115861571Y-141222819D01*
X114290142Y-139117580D02*
X114242523Y-139165200D01*
X114242523Y-139165200D02*
X114099666Y-139212819D01*
X114099666Y-139212819D02*
X114004428Y-139212819D01*
X114004428Y-139212819D02*
X113861571Y-139165200D01*
X113861571Y-139165200D02*
X113766333Y-139069961D01*
X113766333Y-139069961D02*
X113718714Y-138974723D01*
X113718714Y-138974723D02*
X113671095Y-138784247D01*
X113671095Y-138784247D02*
X113671095Y-138641390D01*
X113671095Y-138641390D02*
X113718714Y-138450914D01*
X113718714Y-138450914D02*
X113766333Y-138355676D01*
X113766333Y-138355676D02*
X113861571Y-138260438D01*
X113861571Y-138260438D02*
X114004428Y-138212819D01*
X114004428Y-138212819D02*
X114099666Y-138212819D01*
X114099666Y-138212819D02*
X114242523Y-138260438D01*
X114242523Y-138260438D02*
X114290142Y-138308057D01*
X114671095Y-138308057D02*
X114718714Y-138260438D01*
X114718714Y-138260438D02*
X114813952Y-138212819D01*
X114813952Y-138212819D02*
X115052047Y-138212819D01*
X115052047Y-138212819D02*
X115147285Y-138260438D01*
X115147285Y-138260438D02*
X115194904Y-138308057D01*
X115194904Y-138308057D02*
X115242523Y-138403295D01*
X115242523Y-138403295D02*
X115242523Y-138498533D01*
X115242523Y-138498533D02*
X115194904Y-138641390D01*
X115194904Y-138641390D02*
X114623476Y-139212819D01*
X114623476Y-139212819D02*
X115242523Y-139212819D01*
X115718714Y-139212819D02*
X115909190Y-139212819D01*
X115909190Y-139212819D02*
X116004428Y-139165200D01*
X116004428Y-139165200D02*
X116052047Y-139117580D01*
X116052047Y-139117580D02*
X116147285Y-138974723D01*
X116147285Y-138974723D02*
X116194904Y-138784247D01*
X116194904Y-138784247D02*
X116194904Y-138403295D01*
X116194904Y-138403295D02*
X116147285Y-138308057D01*
X116147285Y-138308057D02*
X116099666Y-138260438D01*
X116099666Y-138260438D02*
X116004428Y-138212819D01*
X116004428Y-138212819D02*
X115813952Y-138212819D01*
X115813952Y-138212819D02*
X115718714Y-138260438D01*
X115718714Y-138260438D02*
X115671095Y-138308057D01*
X115671095Y-138308057D02*
X115623476Y-138403295D01*
X115623476Y-138403295D02*
X115623476Y-138641390D01*
X115623476Y-138641390D02*
X115671095Y-138736628D01*
X115671095Y-138736628D02*
X115718714Y-138784247D01*
X115718714Y-138784247D02*
X115813952Y-138831866D01*
X115813952Y-138831866D02*
X116004428Y-138831866D01*
X116004428Y-138831866D02*
X116099666Y-138784247D01*
X116099666Y-138784247D02*
X116147285Y-138736628D01*
X116147285Y-138736628D02*
X116194904Y-138641390D01*
X114290142Y-133097580D02*
X114242523Y-133145200D01*
X114242523Y-133145200D02*
X114099666Y-133192819D01*
X114099666Y-133192819D02*
X114004428Y-133192819D01*
X114004428Y-133192819D02*
X113861571Y-133145200D01*
X113861571Y-133145200D02*
X113766333Y-133049961D01*
X113766333Y-133049961D02*
X113718714Y-132954723D01*
X113718714Y-132954723D02*
X113671095Y-132764247D01*
X113671095Y-132764247D02*
X113671095Y-132621390D01*
X113671095Y-132621390D02*
X113718714Y-132430914D01*
X113718714Y-132430914D02*
X113766333Y-132335676D01*
X113766333Y-132335676D02*
X113861571Y-132240438D01*
X113861571Y-132240438D02*
X114004428Y-132192819D01*
X114004428Y-132192819D02*
X114099666Y-132192819D01*
X114099666Y-132192819D02*
X114242523Y-132240438D01*
X114242523Y-132240438D02*
X114290142Y-132288057D01*
X114671095Y-132288057D02*
X114718714Y-132240438D01*
X114718714Y-132240438D02*
X114813952Y-132192819D01*
X114813952Y-132192819D02*
X115052047Y-132192819D01*
X115052047Y-132192819D02*
X115147285Y-132240438D01*
X115147285Y-132240438D02*
X115194904Y-132288057D01*
X115194904Y-132288057D02*
X115242523Y-132383295D01*
X115242523Y-132383295D02*
X115242523Y-132478533D01*
X115242523Y-132478533D02*
X115194904Y-132621390D01*
X115194904Y-132621390D02*
X114623476Y-133192819D01*
X114623476Y-133192819D02*
X115242523Y-133192819D01*
X116099666Y-132192819D02*
X115909190Y-132192819D01*
X115909190Y-132192819D02*
X115813952Y-132240438D01*
X115813952Y-132240438D02*
X115766333Y-132288057D01*
X115766333Y-132288057D02*
X115671095Y-132430914D01*
X115671095Y-132430914D02*
X115623476Y-132621390D01*
X115623476Y-132621390D02*
X115623476Y-133002342D01*
X115623476Y-133002342D02*
X115671095Y-133097580D01*
X115671095Y-133097580D02*
X115718714Y-133145200D01*
X115718714Y-133145200D02*
X115813952Y-133192819D01*
X115813952Y-133192819D02*
X116004428Y-133192819D01*
X116004428Y-133192819D02*
X116099666Y-133145200D01*
X116099666Y-133145200D02*
X116147285Y-133097580D01*
X116147285Y-133097580D02*
X116194904Y-133002342D01*
X116194904Y-133002342D02*
X116194904Y-132764247D01*
X116194904Y-132764247D02*
X116147285Y-132669009D01*
X116147285Y-132669009D02*
X116099666Y-132621390D01*
X116099666Y-132621390D02*
X116004428Y-132573771D01*
X116004428Y-132573771D02*
X115813952Y-132573771D01*
X115813952Y-132573771D02*
X115718714Y-132621390D01*
X115718714Y-132621390D02*
X115671095Y-132669009D01*
X115671095Y-132669009D02*
X115623476Y-132764247D01*
X121767761Y-123873057D02*
X121672523Y-123825438D01*
X121672523Y-123825438D02*
X121577285Y-123730200D01*
X121577285Y-123730200D02*
X121434428Y-123587342D01*
X121434428Y-123587342D02*
X121339190Y-123539723D01*
X121339190Y-123539723D02*
X121243952Y-123539723D01*
X121291571Y-123777819D02*
X121196333Y-123730200D01*
X121196333Y-123730200D02*
X121101095Y-123634961D01*
X121101095Y-123634961D02*
X121053476Y-123444485D01*
X121053476Y-123444485D02*
X121053476Y-123111152D01*
X121053476Y-123111152D02*
X121101095Y-122920676D01*
X121101095Y-122920676D02*
X121196333Y-122825438D01*
X121196333Y-122825438D02*
X121291571Y-122777819D01*
X121291571Y-122777819D02*
X121482047Y-122777819D01*
X121482047Y-122777819D02*
X121577285Y-122825438D01*
X121577285Y-122825438D02*
X121672523Y-122920676D01*
X121672523Y-122920676D02*
X121720142Y-123111152D01*
X121720142Y-123111152D02*
X121720142Y-123444485D01*
X121720142Y-123444485D02*
X121672523Y-123634961D01*
X121672523Y-123634961D02*
X121577285Y-123730200D01*
X121577285Y-123730200D02*
X121482047Y-123777819D01*
X121482047Y-123777819D02*
X121291571Y-123777819D01*
X122101095Y-122873057D02*
X122148714Y-122825438D01*
X122148714Y-122825438D02*
X122243952Y-122777819D01*
X122243952Y-122777819D02*
X122482047Y-122777819D01*
X122482047Y-122777819D02*
X122577285Y-122825438D01*
X122577285Y-122825438D02*
X122624904Y-122873057D01*
X122624904Y-122873057D02*
X122672523Y-122968295D01*
X122672523Y-122968295D02*
X122672523Y-123063533D01*
X122672523Y-123063533D02*
X122624904Y-123206390D01*
X122624904Y-123206390D02*
X122053476Y-123777819D01*
X122053476Y-123777819D02*
X122672523Y-123777819D01*
X124477286Y-127542819D02*
X125048714Y-127542819D01*
X124763000Y-128542819D02*
X124763000Y-127542819D01*
X125382048Y-128542819D02*
X125382048Y-127542819D01*
X125382048Y-128019009D02*
X125953476Y-128019009D01*
X125953476Y-128542819D02*
X125953476Y-127542819D01*
X126382048Y-127638057D02*
X126429667Y-127590438D01*
X126429667Y-127590438D02*
X126524905Y-127542819D01*
X126524905Y-127542819D02*
X126763000Y-127542819D01*
X126763000Y-127542819D02*
X126858238Y-127590438D01*
X126858238Y-127590438D02*
X126905857Y-127638057D01*
X126905857Y-127638057D02*
X126953476Y-127733295D01*
X126953476Y-127733295D02*
X126953476Y-127828533D01*
X126953476Y-127828533D02*
X126905857Y-127971390D01*
X126905857Y-127971390D02*
X126334429Y-128542819D01*
X126334429Y-128542819D02*
X126953476Y-128542819D01*
X124477286Y-125552819D02*
X125048714Y-125552819D01*
X124763000Y-126552819D02*
X124763000Y-125552819D01*
X125382048Y-126552819D02*
X125382048Y-125552819D01*
X125382048Y-126029009D02*
X125953476Y-126029009D01*
X125953476Y-126552819D02*
X125953476Y-125552819D01*
X126953476Y-126552819D02*
X126382048Y-126552819D01*
X126667762Y-126552819D02*
X126667762Y-125552819D01*
X126667762Y-125552819D02*
X126572524Y-125695676D01*
X126572524Y-125695676D02*
X126477286Y-125790914D01*
X126477286Y-125790914D02*
X126382048Y-125838533D01*
D16*
%TO.C,J1*%
X112004800Y-72705400D02*
X112004800Y-82285400D01*
X112004800Y-82285400D02*
X113284800Y-82285400D01*
X113284800Y-72705400D02*
X112004800Y-72705400D01*
X117254800Y-72705400D02*
X116004800Y-72705400D01*
X117254800Y-82285400D02*
X116004800Y-82285400D01*
D14*
%TO.C,J2*%
X140418800Y-75249400D02*
X149418800Y-75249400D01*
X140418800Y-80249500D02*
X140418800Y-75249300D01*
X149418800Y-75249400D02*
X155418800Y-75249400D01*
X149418800Y-80249400D02*
X140418800Y-80249400D01*
X149418800Y-80249400D02*
X155418800Y-80249400D01*
X154418800Y-75749400D02*
X154418800Y-79749400D01*
X154418800Y-75749400D02*
X157919800Y-75749400D01*
X154418800Y-79749400D02*
X157918900Y-79749400D01*
X154918900Y-76249400D02*
X157418800Y-76249400D01*
X154918900Y-79249400D02*
X157418800Y-79249400D01*
X154918900Y-79250400D02*
X154918900Y-76248400D01*
X155418800Y-75749400D02*
X155418800Y-75249400D01*
X155418800Y-80249400D02*
X155418800Y-79749400D01*
X157418800Y-79250400D02*
X157418800Y-76248400D01*
X157918900Y-75749400D02*
X157918900Y-79749400D01*
%TO.C,J3*%
X127678700Y-79749400D02*
X127678700Y-75749400D01*
X128178800Y-76248400D02*
X128178800Y-79250400D01*
X130178800Y-75249400D02*
X130178800Y-75749400D01*
X130178800Y-79749400D02*
X130178800Y-80249400D01*
X130678700Y-76248400D02*
X130678700Y-79250400D01*
X130678700Y-76249400D02*
X128178800Y-76249400D01*
X130678700Y-79249400D02*
X128178800Y-79249400D01*
X131178800Y-75749400D02*
X127678700Y-75749400D01*
X131178800Y-79749400D02*
X127677800Y-79749400D01*
X131178800Y-79749400D02*
X131178800Y-75749400D01*
X136178800Y-75249400D02*
X130178800Y-75249400D01*
X136178800Y-75249400D02*
X145178800Y-75249400D01*
X136178800Y-80249400D02*
X130178800Y-80249400D01*
X145178800Y-75249300D02*
X145178800Y-80249500D01*
X145178800Y-80249400D02*
X136178800Y-80249400D01*
%TO.C,J4*%
X140258800Y-72669400D02*
X145338800Y-72669400D01*
X140258800Y-82829400D02*
X140258800Y-72669400D01*
X145338800Y-72669400D02*
X145338800Y-82829400D01*
X145338800Y-82829400D02*
X140258800Y-82829400D01*
D16*
%TO.C,J5*%
X140548800Y-75099400D02*
X140548800Y-76349400D01*
X140548800Y-79069400D02*
X140548800Y-80349400D01*
X140548800Y-80349400D02*
X150128800Y-80349400D01*
X150128800Y-75099400D02*
X150128800Y-76349400D01*
X150128800Y-80349400D02*
X150128800Y-79069400D01*
D14*
%TO.C,J6*%
X138988800Y-75209400D02*
X141528800Y-75209400D01*
X138988800Y-80289400D02*
X138988800Y-75209400D01*
X141528800Y-75209400D02*
X141528800Y-80289400D01*
X141528800Y-80289400D02*
X138988800Y-80289400D01*
%TO.C,J7*%
X131876800Y-127025400D02*
X136956800Y-127025400D01*
X131876800Y-129565400D02*
X131876800Y-127025400D01*
X136956800Y-127025400D02*
X136956800Y-129565400D01*
X136956800Y-129565400D02*
X131876800Y-129565400D01*
%TO.C,J9*%
X108795800Y-127954400D02*
X117795800Y-127954400D01*
X108795800Y-132954500D02*
X108795800Y-127954300D01*
X117795800Y-127954400D02*
X123795800Y-127954400D01*
X117795800Y-132954400D02*
X108795800Y-132954400D01*
X117795800Y-132954400D02*
X123795800Y-132954400D01*
X122795800Y-128454400D02*
X122795800Y-132454400D01*
X122795800Y-128454400D02*
X126296800Y-128454400D01*
X122795800Y-132454400D02*
X126295900Y-132454400D01*
X123295900Y-128954400D02*
X125795800Y-128954400D01*
X123295900Y-131954400D02*
X125795800Y-131954400D01*
X123295900Y-131955400D02*
X123295900Y-128953400D01*
X123795800Y-128454400D02*
X123795800Y-127954400D01*
X123795800Y-132954400D02*
X123795800Y-132454400D01*
X125795800Y-131955400D02*
X125795800Y-128953400D01*
X126295900Y-128454400D02*
X126295900Y-132454400D01*
%TO.C,J10*%
X160451800Y-77114400D02*
X162991800Y-77114400D01*
X160451800Y-82194400D02*
X160451800Y-77114400D01*
X162991800Y-77114400D02*
X162991800Y-82194400D01*
X162991800Y-82194400D02*
X160451800Y-82194400D01*
%TO.C,J11*%
X162991800Y-77114400D02*
X165531800Y-77114400D01*
X162991800Y-82194400D02*
X162991800Y-77114400D01*
X165531800Y-77114400D02*
X165531800Y-82194400D01*
X165531800Y-82194400D02*
X162991800Y-82194400D01*
%TO.C,J12*%
X164261800Y-73304400D02*
X169341800Y-73304400D01*
X164261800Y-86004400D02*
X164261800Y-73304400D01*
X169341800Y-73304400D02*
X169341800Y-86004400D01*
X169341800Y-86004400D02*
X164261800Y-86004400D01*
D17*
%TO.C,R17*%
X168036864Y-111383400D02*
X166582736Y-111383400D01*
X168036864Y-113203400D02*
X166582736Y-113203400D01*
D14*
%TO.C,J8*%
X108795800Y-123001400D02*
X117795800Y-123001400D01*
X108795800Y-128001500D02*
X108795800Y-123001300D01*
X117795800Y-123001400D02*
X123795800Y-123001400D01*
X117795800Y-128001400D02*
X108795800Y-128001400D01*
X117795800Y-128001400D02*
X123795800Y-128001400D01*
X122795800Y-123501400D02*
X122795800Y-127501400D01*
X122795800Y-123501400D02*
X126296800Y-123501400D01*
X122795800Y-127501400D02*
X126295900Y-127501400D01*
X123295900Y-124001400D02*
X125795800Y-124001400D01*
X123295900Y-127001400D02*
X125795800Y-127001400D01*
X123295900Y-127002400D02*
X123295900Y-124000400D01*
X123795800Y-123501400D02*
X123795800Y-123001400D01*
X123795800Y-128001400D02*
X123795800Y-127501400D01*
X125795800Y-127002400D02*
X125795800Y-124000400D01*
X126295900Y-123501400D02*
X126295900Y-127501400D01*
D15*
%TO.C,SW1*%
X163789800Y-126507400D02*
X163789800Y-127987400D01*
X163789800Y-126507400D02*
X168289800Y-126507400D01*
X164939800Y-129887400D02*
X167139800Y-129887400D01*
X165039800Y-130712400D02*
X165039800Y-129087400D01*
X165039800Y-130737400D02*
X167039800Y-130737400D01*
X167039800Y-130712400D02*
X167039800Y-129087400D01*
X168289800Y-126507400D02*
X168289800Y-127987400D01*
%TO.C,SW2*%
X114093000Y-123873000D02*
X114093000Y-125353000D01*
X114093000Y-123873000D02*
X118593000Y-123873000D01*
X115243000Y-127253000D02*
X117443000Y-127253000D01*
X115343000Y-128078000D02*
X115343000Y-126453000D01*
X115343000Y-128103000D02*
X117343000Y-128103000D01*
X117343000Y-128078000D02*
X117343000Y-126453000D01*
X118593000Y-123873000D02*
X118593000Y-125353000D01*
D17*
%TO.C,TH3*%
X119135936Y-133653000D02*
X119590064Y-133653000D01*
X119135936Y-135123000D02*
X119590064Y-135123000D01*
%TO.C,C27*%
X114671748Y-136693000D02*
X115194252Y-136693000D01*
X114671748Y-138163000D02*
X115194252Y-138163000D01*
D16*
%TO.C,B1*%
X100668000Y-82513000D02*
X100668000Y-122723000D01*
X100668000Y-122723000D02*
X178368000Y-122723000D01*
X178368000Y-82513000D02*
X100668000Y-82513000D01*
X178368000Y-122723000D02*
X178368000Y-82513000D01*
D14*
X113308000Y-92968000D02*
G75*
G02*
X110108000Y-92968000I-1600000J0D01*
G01*
X110108000Y-92968000D02*
G75*
G02*
X113308000Y-92968000I1600000J0D01*
G01*
X113308000Y-112268000D02*
G75*
G02*
X110108000Y-112268000I-1600000J0D01*
G01*
X110108000Y-112268000D02*
G75*
G02*
X113308000Y-112268000I1600000J0D01*
G01*
X168928000Y-92968000D02*
G75*
G02*
X165728000Y-92968000I-1600000J0D01*
G01*
X165728000Y-92968000D02*
G75*
G02*
X168928000Y-92968000I1600000J0D01*
G01*
X168928000Y-112268000D02*
G75*
G02*
X165728000Y-112268000I-1600000J0D01*
G01*
X165728000Y-112268000D02*
G75*
G02*
X168928000Y-112268000I1600000J0D01*
G01*
D17*
%TO.C,TH4*%
X121395936Y-128683000D02*
X121850064Y-128683000D01*
X121395936Y-130153000D02*
X121850064Y-130153000D01*
%TO.C,D6*%
X124868000Y-123948000D02*
X124868000Y-125648000D01*
X124868000Y-123948000D02*
X127528000Y-123948000D01*
X124868000Y-125648000D02*
X127528000Y-125648000D01*
%TO.C,C21*%
X129925164Y-123948000D02*
X130140836Y-123948000D01*
X129925164Y-124668000D02*
X130140836Y-124668000D01*
%TO.C,C25*%
X119022420Y-136608000D02*
X119303580Y-136608000D01*
X119022420Y-137628000D02*
X119303580Y-137628000D01*
%TO.C,C24*%
X118485164Y-138998000D02*
X118700836Y-138998000D01*
X118485164Y-139718000D02*
X118700836Y-139718000D01*
%TO.C,C31*%
X114671748Y-145723000D02*
X115194252Y-145723000D01*
X114671748Y-147193000D02*
X115194252Y-147193000D01*
%TO.C,C30*%
X114671748Y-142713000D02*
X115194252Y-142713000D01*
X114671748Y-144183000D02*
X115194252Y-144183000D01*
%TO.C,C29*%
X114671748Y-139703000D02*
X115194252Y-139703000D01*
X114671748Y-141173000D02*
X115194252Y-141173000D01*
%TO.C,C26*%
X114671748Y-133683000D02*
X115194252Y-133683000D01*
X114671748Y-135153000D02*
X115194252Y-135153000D01*
%TO.C,Q2*%
X121863000Y-124163000D02*
X121213000Y-124163000D01*
X121863000Y-124163000D02*
X122513000Y-124163000D01*
X121863000Y-127283000D02*
X121213000Y-127283000D01*
X121863000Y-127283000D02*
X122513000Y-127283000D01*
X120700500Y-124213000D02*
X120460500Y-123883000D01*
X120940500Y-123883000D01*
X120700500Y-124213000D01*
G36*
X120700500Y-124213000D02*
G01*
X120460500Y-123883000D01*
X120940500Y-123883000D01*
X120700500Y-124213000D01*
G37*
%TO.C,TH2*%
X125609359Y-128878000D02*
X125916641Y-128878000D01*
X125609359Y-129638000D02*
X125916641Y-129638000D01*
%TO.C,TH1*%
X125609359Y-126888000D02*
X125916641Y-126888000D01*
X125609359Y-127648000D02*
X125916641Y-127648000D01*
%TD*%
D18*
%TO.C,J4*%
X144068800Y-81559400D03*
X141528800Y-81559400D03*
X144068800Y-79019400D03*
X141528800Y-79019400D03*
X144068800Y-76479400D03*
X141528800Y-76479400D03*
X144068800Y-73939400D03*
X141528800Y-73939400D03*
%TD*%
%TO.C,J6*%
X140258800Y-76479400D03*
X140258800Y-79019400D03*
%TD*%
%TO.C,J7*%
X133146800Y-128295400D03*
X135686800Y-128295400D03*
%TD*%
%TO.C,J10*%
X161721800Y-78384400D03*
X161721800Y-80924400D03*
%TD*%
%TO.C,J11*%
X164261800Y-78384400D03*
X164261800Y-80924400D03*
%TD*%
%TO.C,J12*%
X165531800Y-74574400D03*
X168071800Y-74574400D03*
X165531800Y-77114400D03*
X168071800Y-77114400D03*
X165531800Y-79654400D03*
X168071800Y-79654400D03*
X165531800Y-82194400D03*
X168071800Y-82194400D03*
X165531800Y-84734400D03*
X168071800Y-84734400D03*
%TD*%
M02*
