%TF.GenerationSoftware,KiCad,Pcbnew,8.0.3+1*%
%TF.CreationDate,2024-07-23T23:55:47+00:00*%
%TF.ProjectId,LION2CELL02,4c494f4e-3243-4454-9c4c-30322e6b6963,rev?*%
%TF.SameCoordinates,Original*%
%TF.FileFunction,Copper,L1,Top*%
%TF.FilePolarity,Positive*%
%FSLAX46Y46*%
G04 Gerber Fmt 4.6, Leading zero omitted, Abs format (unit mm)*
G04 Created by KiCad (PCBNEW 8.0.3+1) date 2024-07-23 23:55:47*
%MOMM*%
%LPD*%
G01*
G04 APERTURE LIST*
G04 Aperture macros list*
%AMRoundRect*
0 Rectangle with rounded corners*
0 $1 Rounding radius*
0 $2 $3 $4 $5 $6 $7 $8 $9 X,Y pos of 4 corners*
0 Add a 4 corners polygon primitive as box body*
4,1,4,$2,$3,$4,$5,$6,$7,$8,$9,$2,$3,0*
0 Add four circle primitives for the rounded corners*
1,1,$1+$1,$2,$3*
1,1,$1+$1,$4,$5*
1,1,$1+$1,$6,$7*
1,1,$1+$1,$8,$9*
0 Add four rect primitives between the rounded corners*
20,1,$1+$1,$2,$3,$4,$5,0*
20,1,$1+$1,$4,$5,$6,$7,0*
20,1,$1+$1,$6,$7,$8,$9,0*
20,1,$1+$1,$8,$9,$2,$3,0*%
G04 Aperture macros list end*
%TA.AperFunction,ComponentPad*%
%ADD10R,3.810000X3.810000*%
%TD*%
%TA.AperFunction,ComponentPad*%
%ADD11R,1.524000X1.524000*%
%TD*%
%TA.AperFunction,ComponentPad*%
%ADD12R,1.676400X1.676400*%
%TD*%
%TA.AperFunction,ComponentPad*%
%ADD13C,6.000000*%
%TD*%
%TA.AperFunction,ComponentPad*%
%ADD14R,4.000000X4.000000*%
%TD*%
%TA.AperFunction,SMDPad,CuDef*%
%ADD15RoundRect,0.250000X-0.262500X-0.450000X0.262500X-0.450000X0.262500X0.450000X-0.262500X0.450000X0*%
%TD*%
%TA.AperFunction,SMDPad,CuDef*%
%ADD16RoundRect,0.250000X0.262500X0.450000X-0.262500X0.450000X-0.262500X-0.450000X0.262500X-0.450000X0*%
%TD*%
%TA.AperFunction,ComponentPad*%
%ADD17O,2.000000X1.000000*%
%TD*%
%TA.AperFunction,ComponentPad*%
%ADD18O,2.100000X1.050000*%
%TD*%
%TA.AperFunction,ComponentPad*%
%ADD19C,0.500000*%
%TD*%
%TA.AperFunction,SMDPad,CuDef*%
%ADD20RoundRect,0.258000X1.242000X1.242000X-1.242000X1.242000X-1.242000X-1.242000X1.242000X-1.242000X0*%
%TD*%
%TA.AperFunction,HeatsinkPad*%
%ADD21C,0.500000*%
%TD*%
%TA.AperFunction,HeatsinkPad*%
%ADD22R,1.900000X2.900000*%
%TD*%
%TA.AperFunction,ViaPad*%
%ADD23C,0.800000*%
%TD*%
%TA.AperFunction,ViaPad*%
%ADD24C,0.400000*%
%TD*%
%TA.AperFunction,Conductor*%
%ADD25C,0.300000*%
%TD*%
%TA.AperFunction,Conductor*%
%ADD26C,4.500000*%
%TD*%
%TA.AperFunction,Conductor*%
%ADD27C,0.800000*%
%TD*%
%TA.AperFunction,Conductor*%
%ADD28C,0.500000*%
%TD*%
%TA.AperFunction,Conductor*%
%ADD29C,0.200000*%
%TD*%
%TA.AperFunction,Conductor*%
%ADD30C,1.500000*%
%TD*%
%TA.AperFunction,Conductor*%
%ADD31C,1.000000*%
%TD*%
G04 APERTURE END LIST*
D10*
%TO.P,J2,1,P1*%
%TO.N,/Power Input/Power_load*%
X31690500Y57892200D03*
X26690500Y57892200D03*
%TD*%
%TO.P,J3,1,P1*%
%TO.N,GND*%
X31690500Y62896000D03*
X26690500Y62896000D03*
%TD*%
D11*
%TO.P,J4,1,2*%
%TO.N,GND*%
X42799000Y12903200D03*
%TO.P,J4,2,2*%
X42799000Y10363200D03*
%TO.P,J4,3,4*%
%TO.N,/Power Input/System_load*%
X40259000Y12903200D03*
%TO.P,J4,4,4*%
X40259000Y10363200D03*
%TO.P,J4,5,5*%
X37719000Y12903200D03*
%TO.P,J4,6,5*%
X37719000Y10363200D03*
%TO.P,J4,7,8*%
%TO.N,GND*%
X35179000Y12903200D03*
%TO.P,J4,8,8*%
X35179000Y10363200D03*
%TD*%
%TO.P,J6,1*%
%TO.N,Net-(U1-INT)*%
X42164000Y60452000D03*
%TO.P,J6,2*%
X42164000Y57912000D03*
%TD*%
%TO.P,J7,1*%
%TO.N,Net-(U1-nQON)*%
X39624000Y57912000D03*
%TO.P,J7,2*%
X39624000Y60452000D03*
%TD*%
D10*
%TO.P,J9,1,P1*%
%TO.N,GND*%
X19955500Y8323000D03*
X24955500Y8323000D03*
%TD*%
D11*
%TO.P,J10,1*%
%TO.N,Net-(U3-BTP_INT)*%
X47244000Y60452000D03*
%TO.P,J10,2*%
X47244000Y57912000D03*
%TD*%
%TO.P,J11,1*%
%TO.N,Net-(U3-~{PRES{slash}SHDWN})*%
X49784000Y60452000D03*
%TO.P,J11,2*%
%TO.N,GND1*%
X49784000Y57912000D03*
%TD*%
%TO.P,J12,1*%
%TO.N,GND*%
X65278000Y57658000D03*
%TO.P,J12,2*%
X65278000Y60198000D03*
%TO.P,J12,3*%
%TO.N,/Fuel Gauge/SCL*%
X67818000Y57658000D03*
%TO.P,J12,4*%
X67818000Y60198000D03*
%TO.P,J12,5*%
%TO.N,+3.3V*%
X70358000Y57658000D03*
%TO.P,J12,6*%
X70358000Y60198000D03*
%TO.P,J12,7*%
%TO.N,/Fuel Gauge/SDA*%
X72898000Y57658000D03*
%TO.P,J12,8*%
X72898000Y60198000D03*
%TO.P,J12,9*%
%TO.N,GND*%
X75438000Y57658000D03*
%TO.P,J12,10*%
X75438000Y60198000D03*
%TD*%
D10*
%TO.P,J8,1,P1*%
%TO.N,VBUS*%
X19955500Y13276000D03*
X24955500Y13276000D03*
%TD*%
D12*
%TO.P,SW1,1,1*%
%TO.N,Net-(U3-~{PRES{slash}SHDWN})*%
X54508000Y62956000D03*
X60808000Y62956000D03*
%TO.P,SW1,2,2*%
%TO.N,GND1*%
X54508000Y58456000D03*
X60808000Y58456000D03*
%TD*%
%TO.P,SW2,1,1*%
%TO.N,Net-(U3-~{DISP})*%
X52984000Y13299000D03*
X59284000Y13299000D03*
%TO.P,SW2,2,2*%
%TO.N,GND1*%
X52984000Y8799000D03*
X59284000Y8799000D03*
%TD*%
D11*
%TO.P,JP1,1,A*%
%TO.N,buck_out*%
X44704000Y57912000D03*
%TO.P,JP1,2,B*%
%TO.N,+3.3V*%
X44704000Y60452000D03*
%TD*%
%TO.P,J5,1*%
%TO.N,GND*%
X46685200Y12954000D03*
%TO.P,J5,2*%
X49225200Y12954000D03*
%TO.P,J5,3*%
%TO.N,buck_out*%
X46685200Y10414000D03*
%TO.P,J5,4*%
X49225200Y10414000D03*
%TO.P,J5,5*%
%TO.N,GND*%
X46685200Y7874000D03*
%TO.P,J5,6*%
X49225200Y7874000D03*
%TD*%
D13*
%TO.P,H2,1,1*%
%TO.N,unconnected-(H2-Pad1)*%
X81280000Y60960000D03*
%TD*%
%TO.P,H3,1,1*%
%TO.N,unconnected-(H3-Pad1)*%
X10160000Y10160000D03*
%TD*%
D14*
%TO.P,B1,1,+*%
%TO.N,/Fuel Gauge/B+*%
X9470000Y45210000D03*
%TO.P,B1,2,-*%
%TO.N,/Fuel Gauge/BAT_MID*%
X81970000Y45210000D03*
%TO.P,B1,3,+*%
X9470000Y25910000D03*
%TO.P,B1,4,-*%
%TO.N,GND1*%
X81970000Y25910000D03*
%TD*%
D13*
%TO.P,H4,1,1*%
%TO.N,unconnected-(H4-Pad1)*%
X81280000Y10160000D03*
%TD*%
%TO.P,H1,1,1*%
%TO.N,unconnected-(H1-Pad1)*%
X10160000Y60960000D03*
%TD*%
D15*
%TO.P,TH2,1*%
%TO.N,GND1*%
X72645900Y45161200D03*
%TO.P,TH2,2*%
%TO.N,Net-(U3-TS2)*%
X74470900Y45161200D03*
%TD*%
D16*
%TO.P,TH1,1*%
%TO.N,GND1*%
X74445500Y25908000D03*
%TO.P,TH1,2*%
%TO.N,Net-(U3-TS1)*%
X72620500Y25908000D03*
%TD*%
D17*
%TO.P,J1,G1,SHIELD*%
%TO.N,GND*%
X8001000Y31240000D03*
%TO.P,J1,G2,SHIELD*%
X8001000Y39880000D03*
D18*
%TO.P,J1,G3,SHIELD*%
X12181000Y31240000D03*
%TO.P,J1,G4,SHIELD*%
X12181000Y39880000D03*
%TD*%
D19*
%TO.P,U3,33,PWRPD*%
%TO.N,GND1*%
X61822104Y36193504D03*
D20*
X61822104Y36193504D03*
%TD*%
D21*
%TO.P,U2,9,GND*%
%TO.N,GND*%
X51573200Y27489000D03*
X51573200Y26289000D03*
X51573200Y25089000D03*
D22*
X52273200Y26289000D03*
D21*
X52973200Y27489000D03*
X52973200Y26289000D03*
X52973200Y25089000D03*
%TD*%
D23*
%TO.N,GND*%
X19177000Y36195000D03*
X37912212Y31868739D03*
X14631000Y32854904D03*
X51816000Y32766000D03*
X44704000Y30226000D03*
X57150000Y29972000D03*
X53086000Y29972000D03*
X22555200Y29337000D03*
X48768000Y33274000D03*
X31497000Y30606000D03*
X31369000Y29718000D03*
X30734000Y32512000D03*
X40132000Y37465000D03*
X22860000Y17068800D03*
%TO.N,GND1*%
X59974496Y38298711D03*
X63967104Y34093504D03*
X67437000Y38860504D03*
%TO.N,/Fuel Gauge/B+*%
X50330000Y49350029D03*
%TO.N,VBUS*%
X28418000Y32354000D03*
X27808525Y28569065D03*
X20447000Y21844000D03*
%TO.N,Net-(U1-SW1)*%
X30167001Y22351998D03*
X30636000Y29026000D03*
X26289000Y27498000D03*
%TO.N,Net-(U1-SW2)*%
X32317014Y22352028D03*
X32196000Y29080000D03*
X35687000Y28133000D03*
%TO.N,/Fuel Gauge/PACK+*%
X42138600Y39471598D03*
X50698400Y40005000D03*
%TO.N,Net-(U3-VC2)*%
X66649600Y42494200D03*
X33484441Y40209302D03*
%TO.N,Net-(U3-VC1)*%
X16128998Y18923000D03*
X67918100Y36005504D03*
X46144000Y31216600D03*
X66243200Y31978600D03*
%TO.N,/Power Input/REGN*%
X25908000Y31369000D03*
X34012500Y36194994D03*
%TO.N,Net-(D1-A)*%
X57875400Y36344400D03*
X68061489Y13644905D03*
%TO.N,Net-(D1-K)*%
X66166996Y13589000D03*
X56937501Y37109278D03*
%TO.N,Net-(D5-K)*%
X69215004Y13107050D03*
X57607200Y37871400D03*
%TO.N,/Fuel Gauge/BAT*%
X58775600Y38961532D03*
X63958510Y38752280D03*
%TO.N,/Power Input/D+*%
X17018000Y33209000D03*
X14280500Y35510000D03*
D24*
%TO.N,Net-(U1-INT)*%
X34518600Y29019500D03*
D23*
X46008148Y37864400D03*
%TO.N,Net-(U1-nQON)*%
X45452600Y40081200D03*
X43129200Y55626000D03*
X39166800Y40106600D03*
%TO.N,Net-(U3-BTP_INT)*%
X48636135Y37481421D03*
X54356000Y33909000D03*
%TO.N,Net-(U3-~{PRES{slash}SHDWN})*%
X49559894Y37864400D03*
X54610000Y34925000D03*
%TO.N,Net-(Q1-G)*%
X42926000Y37363400D03*
X43279032Y31953200D03*
%TO.N,/Fuel Gauge/VCOM*%
X50330000Y50913927D03*
X26785025Y48602975D03*
%TO.N,Net-(Q3-G)*%
X15113000Y54356000D03*
X18161000Y48768000D03*
%TO.N,Net-(U1-TS)*%
X35172324Y33012020D03*
X36728401Y39217599D03*
%TO.N,Net-(U3-PCHG)*%
X62458600Y41325800D03*
X39040200Y42342200D03*
%TO.N,Net-(U3-DSG)*%
X40353905Y42533000D03*
X61493400Y41732200D03*
%TO.N,Net-(U3-CHG)*%
X63254416Y42914000D03*
X33754390Y41172179D03*
%TO.N,Net-(U3-~{DISP})*%
X57737269Y33886669D03*
%TO.N,Net-(U3-TS1)*%
X69037200Y30124400D03*
%TO.N,Net-(U3-TS2)*%
X65278000Y32359600D03*
%TO.N,/Fuel Gauge/SCL*%
X32766000Y37592000D03*
X56134000Y38735000D03*
X68097400Y43459400D03*
%TO.N,/Fuel Gauge/SDA*%
X35987496Y33772440D03*
X70670760Y43889941D03*
X55244996Y37592000D03*
%TO.N,Net-(D2-K)*%
X49968000Y19812000D03*
X59309000Y21971000D03*
%TO.N,buck_out*%
X47244000Y37084000D03*
%TD*%
D25*
%TO.N,GND*%
X14631000Y32792000D02*
X14631000Y32854904D01*
X14605000Y32766000D02*
X14631000Y32792000D01*
D26*
%TO.N,/Fuel Gauge/BAT_MID*%
X14208000Y25910000D02*
X34785200Y46487200D01*
X34785200Y46487200D02*
X63462491Y46487200D01*
X65469091Y48493800D02*
X78686200Y48493800D01*
X78686200Y48493800D02*
X81970000Y45210000D01*
X9470000Y25910000D02*
X14208000Y25910000D01*
X63462491Y46487200D02*
X65469091Y48493800D01*
D25*
%TO.N,GND1*%
X72771000Y24233500D02*
X74445500Y25908000D01*
D27*
X81970000Y25910000D02*
X74448000Y25910000D01*
D25*
X62739000Y12254000D02*
X72426600Y12254000D01*
D28*
X59974496Y38041112D02*
X59974496Y38298711D01*
X63967104Y34093504D02*
X63922104Y34093504D01*
X72646000Y41260800D02*
X70245704Y38860504D01*
X61822104Y36193504D02*
X59974496Y38041112D01*
X64770000Y36193504D02*
X67437000Y38860504D01*
X70245704Y38860504D02*
X67437000Y38860504D01*
D25*
X72426600Y12254000D02*
X72771000Y12598400D01*
D28*
X63922104Y34093504D02*
X61822104Y36193504D01*
X72646000Y44840700D02*
X72646000Y41260800D01*
X63967104Y32119051D02*
X71832155Y24254000D01*
X61822104Y36193504D02*
X64770000Y36193504D01*
X71832155Y24254000D02*
X72792000Y24254000D01*
D25*
X52984000Y8799000D02*
X59284000Y8799000D01*
X72771000Y12598400D02*
X72771000Y24233500D01*
X59284000Y8799000D02*
X62739000Y12254000D01*
D28*
X63967104Y34093504D02*
X63967104Y32119051D01*
X72792000Y24254000D02*
X74446000Y25908000D01*
%TO.N,/Fuel Gauge/B+*%
X30808029Y49350029D02*
X26668000Y45210000D01*
X26668000Y45210000D02*
X9470000Y45210000D01*
X50330000Y49350029D02*
X30808029Y49350029D01*
D27*
%TO.N,VBUS*%
X27813000Y28573540D02*
X27808525Y28569065D01*
X28418000Y32354000D02*
X27813000Y31750000D01*
X20447000Y24130000D02*
X24886065Y28569065D01*
D29*
X24955500Y13276000D02*
X19956000Y13276000D01*
D27*
X27813000Y31750000D02*
X27813000Y28573540D01*
X24886065Y28569065D02*
X27808525Y28569065D01*
X20447000Y21844000D02*
X20447000Y24130000D01*
D29*
%TO.N,/Power Input/System_load*%
X37719000Y10363200D02*
X40259000Y10363200D01*
D27*
%TO.N,Net-(U1-SW1)*%
X26289000Y27498000D02*
X29108000Y27498000D01*
X30636000Y22820997D02*
X30167001Y22351998D01*
X29108000Y27498000D02*
X30636000Y29026000D01*
X30636000Y29026000D02*
X30636000Y22820997D01*
%TO.N,Net-(U1-SW2)*%
X35737800Y28133000D02*
X35237800Y27633000D01*
X35237800Y27633000D02*
X33643000Y27633000D01*
X32196000Y22473042D02*
X32317014Y22352028D01*
X33643000Y27633000D02*
X32196000Y29080000D01*
X32196000Y29080000D02*
X32196000Y22473042D01*
D30*
%TO.N,/Power Input/Power_load*%
X31690500Y57892200D02*
X26690500Y57892200D01*
D25*
%TO.N,/Fuel Gauge/PACK+*%
X42283998Y39326200D02*
X42138600Y39471598D01*
X50019600Y39326200D02*
X42283998Y39326200D01*
X50698400Y40005000D02*
X50019600Y39326200D01*
%TO.N,Net-(U3-VC2)*%
X33484441Y40209302D02*
X34316502Y40209302D01*
X66319400Y42164000D02*
X66649600Y42494200D01*
X34316502Y40209302D02*
X37454600Y43347400D01*
X62122261Y42164000D02*
X66319400Y42164000D01*
X37454600Y43347400D02*
X60938861Y43347400D01*
X60938861Y43347400D02*
X62122261Y42164000D01*
D28*
%TO.N,Net-(U3-VC1)*%
X67918100Y36005504D02*
X67918100Y33653500D01*
X67918100Y33653500D02*
X66243200Y31978600D01*
X16128998Y18923000D02*
X38811200Y18923000D01*
X46101000Y31173600D02*
X46144000Y31216600D01*
X38811200Y18923000D02*
X46101000Y26212800D01*
X46101000Y26212800D02*
X46101000Y31173600D01*
%TO.N,/Power Input/REGN*%
X25908000Y33213017D02*
X25908000Y31369000D01*
X28889977Y36194994D02*
X25908000Y33213017D01*
X34012500Y36194994D02*
X28889977Y36194994D01*
D25*
%TO.N,Net-(D1-A)*%
X57875400Y35749000D02*
X57875400Y36344400D01*
X68061489Y13644905D02*
X68061489Y25562911D01*
X68061489Y25562911D02*
X57875400Y35749000D01*
%TO.N,Net-(D1-K)*%
X56937501Y37109278D02*
X56937501Y35747099D01*
X56937501Y35747099D02*
X66751200Y25933400D01*
X66751200Y25933400D02*
X66751200Y14173204D01*
X66751200Y14173204D02*
X66166996Y13589000D01*
%TO.N,Net-(D5-K)*%
X69215004Y25298396D02*
X59182000Y35331400D01*
X69215004Y13107050D02*
X69215004Y25298396D01*
X59182000Y36296600D02*
X57607200Y37871400D01*
X59182000Y35331400D02*
X59182000Y36296600D01*
%TO.N,/Fuel Gauge/BAT*%
X63958510Y38752280D02*
X63569390Y39141400D01*
X58955468Y39141400D02*
X58775600Y38961532D01*
X63569390Y39141400D02*
X58955468Y39141400D01*
%TO.N,/Power Input/D+*%
X17018000Y34110000D02*
X15618000Y35510000D01*
X15618000Y35510000D02*
X14280500Y35510000D01*
X17018000Y33209000D02*
X17018000Y34110000D01*
%TO.N,Net-(U1-INT)*%
X45720000Y37576252D02*
X46008148Y37864400D01*
X34518600Y29019500D02*
X41465500Y29019500D01*
X45085000Y34544000D02*
X45720000Y35179000D01*
X45085000Y32639000D02*
X45085000Y34544000D01*
X45720000Y35179000D02*
X45720000Y37576252D01*
X41465500Y29019500D02*
X45085000Y32639000D01*
%TO.N,Net-(U1-nQON)*%
X41910000Y55626000D02*
X39624000Y57912000D01*
X43129200Y55626000D02*
X41910000Y55626000D01*
X39573200Y40513000D02*
X45020800Y40513000D01*
X39166800Y40106600D02*
X39573200Y40513000D01*
X45020800Y40513000D02*
X45452600Y40081200D01*
%TO.N,Net-(U3-BTP_INT)*%
X54356000Y33909000D02*
X52208556Y33909000D01*
X52208556Y33909000D02*
X48636135Y37481421D01*
%TO.N,Net-(U3-~{PRES{slash}SHDWN})*%
X53026738Y34925000D02*
X50087338Y37864400D01*
X50087338Y37864400D02*
X49559894Y37864400D01*
X54610000Y34925000D02*
X53026738Y34925000D01*
%TO.N,Net-(Q1-G)*%
X43279032Y37010368D02*
X43279032Y31953200D01*
X42926000Y37363400D02*
X43279032Y37010368D01*
D28*
%TO.N,/Fuel Gauge/VCOM*%
X29095977Y50913927D02*
X26785025Y48602975D01*
X50330000Y50913927D02*
X29095977Y50913927D01*
D25*
%TO.N,Net-(Q3-G)*%
X15113000Y51816000D02*
X15113000Y54356000D01*
X18161000Y48768000D02*
X15113000Y51816000D01*
%TO.N,Net-(U1-TS)*%
X35172324Y33012020D02*
X35137496Y33046848D01*
X35137496Y37626694D02*
X36728401Y39217599D01*
X35137496Y33046848D02*
X35137496Y37626694D01*
%TO.N,Net-(U3-PCHG)*%
X39040200Y42342200D02*
X39599400Y41783000D01*
X39599400Y41783000D02*
X52782596Y41783000D01*
X62026800Y40894000D02*
X62458600Y41325800D01*
X53671596Y40894000D02*
X62026800Y40894000D01*
X52782596Y41783000D02*
X53671596Y40894000D01*
%TO.N,Net-(U3-DSG)*%
X40353905Y42533000D02*
X60692600Y42533000D01*
X60692600Y42533000D02*
X61493400Y41732200D01*
%TO.N,Net-(U3-CHG)*%
X62321016Y43847400D02*
X63254416Y42914000D01*
X33754390Y41172179D02*
X36429611Y43847400D01*
X36429611Y43847400D02*
X62321016Y43847400D01*
D29*
%TO.N,Net-(U3-~{DISP})*%
X52984000Y13299000D02*
X59284000Y13299000D01*
D25*
X65786000Y25654000D02*
X57737269Y33702731D01*
X65786000Y19801000D02*
X65786000Y25654000D01*
X57737269Y33702731D02*
X57737269Y33886669D01*
X59284000Y13299000D02*
X65786000Y19801000D01*
%TO.N,Net-(U3-TS1)*%
X69037200Y29692600D02*
X69037200Y30124400D01*
X72620500Y26109300D02*
X69037200Y29692600D01*
%TO.N,Net-(U3-TS2)*%
X66014600Y31089600D02*
X66624200Y31089600D01*
X66624200Y31089600D02*
X74471000Y38936400D01*
X65278000Y32359600D02*
X65278000Y31826200D01*
X65278000Y31826200D02*
X66014600Y31089600D01*
X74471000Y38936400D02*
X74471000Y45161100D01*
%TO.N,/Fuel Gauge/SCL*%
X52451000Y41021000D02*
X36195000Y41021000D01*
X65658350Y40259000D02*
X68097400Y42698050D01*
X57658000Y40259000D02*
X65658350Y40259000D01*
X36195000Y41021000D02*
X32766000Y37592000D01*
X68097400Y42698050D02*
X68097400Y43459400D01*
X54737000Y38735000D02*
X52451000Y41021000D01*
X56134000Y38735000D02*
X54737000Y38735000D01*
X56134000Y38735000D02*
X57658000Y40259000D01*
%TO.N,/Fuel Gauge/SDA*%
X50191346Y38724450D02*
X42712250Y38724450D01*
X55245000Y37592000D02*
X51323796Y37592000D01*
X37760240Y33772440D02*
X35987496Y33772440D01*
D29*
X55245000Y37592000D02*
X55244996Y37592000D01*
D25*
X58318400Y39751000D02*
X66531819Y39751000D01*
X55245000Y37592000D02*
X56159400Y37592000D01*
X56159400Y37592000D02*
X58318400Y39751000D01*
X42712250Y38724450D02*
X37760240Y33772440D01*
X66531819Y39751000D02*
X70670760Y43889941D01*
X51323796Y37592000D02*
X50191346Y38724450D01*
D31*
%TO.N,Net-(D2-K)*%
X57150000Y19812000D02*
X49968000Y19812000D01*
X59309000Y21971000D02*
X57150000Y19812000D01*
%TO.N,buck_out*%
X50800000Y11988800D02*
X49225200Y10414000D01*
X47244000Y37084000D02*
X47244000Y17526000D01*
X47244000Y17526000D02*
X50800000Y13970000D01*
X50800000Y13970000D02*
X50800000Y11988800D01*
%TD*%
%TA.AperFunction,Conductor*%
%TO.N,GND*%
G36*
X54635492Y36921498D02*
G01*
X54641432Y36917436D01*
X54792263Y36807851D01*
X54792263Y36807850D01*
X54833130Y36789655D01*
X54965193Y36730856D01*
X55150350Y36691500D01*
X55339642Y36691500D01*
X55524799Y36730856D01*
X55697726Y36807849D01*
X55697726Y36807850D01*
X55697728Y36807850D01*
X55697728Y36807851D01*
X55848560Y36917437D01*
X55915428Y36941294D01*
X55922621Y36941500D01*
X55953629Y36941500D01*
X56021750Y36921498D01*
X56068243Y36867842D01*
X56073462Y36854436D01*
X56110319Y36741000D01*
X56110322Y36740993D01*
X56204969Y36577060D01*
X56254636Y36521901D01*
X56285354Y36457894D01*
X56287001Y36437589D01*
X56287001Y35683030D01*
X56304909Y35593004D01*
X56312000Y35557355D01*
X56312001Y35557351D01*
X56312002Y35557350D01*
X56353478Y35457217D01*
X56361036Y35438972D01*
X56370711Y35424492D01*
X56431274Y35333851D01*
X56432224Y35332430D01*
X56786870Y34977784D01*
X57081767Y34682888D01*
X57115792Y34620575D01*
X57110728Y34549760D01*
X57086309Y34509482D01*
X57004733Y34418882D01*
X56910091Y34254956D01*
X56910087Y34254948D01*
X56851594Y34074926D01*
X56831809Y33886669D01*
X56851594Y33698413D01*
X56910087Y33518391D01*
X56910091Y33518383D01*
X57004734Y33354455D01*
X57004735Y33354453D01*
X57131395Y33213783D01*
X57284536Y33102520D01*
X57284536Y33102519D01*
X57358874Y33069422D01*
X57457466Y33025525D01*
X57464016Y33024133D01*
X57468023Y33023281D01*
X57530498Y32989555D01*
X57530925Y32989129D01*
X65098595Y25421459D01*
X65132621Y25359147D01*
X65135500Y25332364D01*
X65135500Y20122637D01*
X65115498Y20054516D01*
X65098595Y20033542D01*
X59739657Y14674605D01*
X59677345Y14640579D01*
X59650562Y14637700D01*
X58397935Y14637700D01*
X58397914Y14637698D01*
X58338319Y14631292D01*
X58338318Y14631292D01*
X58203473Y14580999D01*
X58203470Y14580997D01*
X58088253Y14494747D01*
X58002003Y14379530D01*
X58002001Y14379527D01*
X57951709Y14244685D01*
X57945300Y14185079D01*
X57945300Y14025500D01*
X57925298Y13957379D01*
X57871642Y13910886D01*
X57819300Y13899500D01*
X54448699Y13899500D01*
X54380578Y13919502D01*
X54334085Y13973158D01*
X54322699Y14025500D01*
X54322699Y14185065D01*
X54322699Y14185072D01*
X54316291Y14244683D01*
X54268376Y14373151D01*
X54265998Y14379527D01*
X54265996Y14379530D01*
X54265996Y14379531D01*
X54213133Y14450147D01*
X54179746Y14494747D01*
X54102791Y14552355D01*
X54064531Y14580996D01*
X54064529Y14580997D01*
X54064526Y14580999D01*
X53929683Y14631291D01*
X53929686Y14631291D01*
X53870073Y14637700D01*
X52097935Y14637700D01*
X52097914Y14637698D01*
X52038319Y14631292D01*
X52038318Y14631292D01*
X51903473Y14580999D01*
X51903470Y14580997D01*
X51804294Y14506754D01*
X51737774Y14481943D01*
X51668400Y14497034D01*
X51624020Y14537620D01*
X51583969Y14597560D01*
X51577139Y14607782D01*
X51437782Y14747139D01*
X51437781Y14747140D01*
X48281405Y17903516D01*
X48247379Y17965828D01*
X48244500Y17992611D01*
X48244500Y19910545D01*
X48967500Y19910545D01*
X48967500Y19713456D01*
X49005949Y19520165D01*
X49005950Y19520162D01*
X49032852Y19455215D01*
X49081368Y19338086D01*
X49190861Y19174218D01*
X49330218Y19034861D01*
X49494086Y18925368D01*
X49676165Y18849949D01*
X49869459Y18811500D01*
X57248536Y18811500D01*
X57248540Y18811500D01*
X57248541Y18811500D01*
X57345188Y18830725D01*
X57441836Y18849949D01*
X57476721Y18864400D01*
X57495156Y18872035D01*
X57495159Y18872037D01*
X57495165Y18872039D01*
X57623914Y18925368D01*
X57787782Y19034861D01*
X57927139Y19174218D01*
X57927140Y19174221D01*
X57934316Y19181396D01*
X57934322Y19181404D01*
X60086139Y21333219D01*
X60195631Y21497086D01*
X60271051Y21679164D01*
X60309500Y21872460D01*
X60309500Y22069540D01*
X60271051Y22262836D01*
X60195631Y22444914D01*
X60086139Y22608781D01*
X59946781Y22748139D01*
X59782914Y22857631D01*
X59600837Y22933051D01*
X59407542Y22971500D01*
X59407540Y22971500D01*
X59210460Y22971500D01*
X59210457Y22971500D01*
X59017162Y22933051D01*
X59017161Y22933050D01*
X58835084Y22857630D01*
X58671220Y22748140D01*
X58671214Y22748135D01*
X56772485Y20849405D01*
X56710173Y20815379D01*
X56683390Y20812500D01*
X49869455Y20812500D01*
X49676164Y20774051D01*
X49676161Y20774050D01*
X49494085Y20698632D01*
X49330222Y20589142D01*
X49330215Y20589137D01*
X49190863Y20449785D01*
X49190858Y20449778D01*
X49081368Y20285915D01*
X49005950Y20103839D01*
X49005949Y20103836D01*
X48967500Y19910545D01*
X48244500Y19910545D01*
X48244500Y36488451D01*
X48264502Y36556572D01*
X48318158Y36603065D01*
X48388432Y36613169D01*
X48396697Y36611697D01*
X48541484Y36580921D01*
X48541489Y36580921D01*
X48564499Y36580921D01*
X48632620Y36560919D01*
X48653594Y36544016D01*
X51703280Y33494331D01*
X51793887Y33403724D01*
X51900429Y33332535D01*
X52018812Y33283499D01*
X52144487Y33258500D01*
X53678375Y33258500D01*
X53746496Y33238498D01*
X53752433Y33234439D01*
X53778763Y33215308D01*
X53903267Y33124851D01*
X53903267Y33124850D01*
X53910266Y33121734D01*
X54076197Y33047856D01*
X54261354Y33008500D01*
X54450646Y33008500D01*
X54635803Y33047856D01*
X54808730Y33124849D01*
X54808730Y33124850D01*
X54808732Y33124850D01*
X54808732Y33124851D01*
X54961871Y33236112D01*
X54964020Y33238498D01*
X55088533Y33376784D01*
X55088534Y33376786D01*
X55100353Y33397257D01*
X55183179Y33540716D01*
X55192830Y33570417D01*
X55241674Y33720744D01*
X55242145Y33725226D01*
X55261460Y33909000D01*
X55241674Y34097256D01*
X55220338Y34162921D01*
X55218310Y34233889D01*
X55246533Y34286166D01*
X55342533Y34392784D01*
X55437179Y34556716D01*
X55495674Y34736744D01*
X55515460Y34925000D01*
X55495674Y35113256D01*
X55495674Y35113257D01*
X55437181Y35293279D01*
X55437177Y35293287D01*
X55420747Y35321744D01*
X55371185Y35407589D01*
X55342534Y35457215D01*
X55342533Y35457217D01*
X55215873Y35597887D01*
X55062732Y35709150D01*
X55062732Y35709151D01*
X54937145Y35765066D01*
X54889803Y35786144D01*
X54889801Y35786145D01*
X54889800Y35786145D01*
X54704646Y35825500D01*
X54515354Y35825500D01*
X54330199Y35786145D01*
X54157267Y35709151D01*
X54157267Y35709150D01*
X54006436Y35599564D01*
X53939568Y35575706D01*
X53932375Y35575500D01*
X53348374Y35575500D01*
X53280253Y35595502D01*
X53259279Y35612405D01*
X52145279Y36726405D01*
X52111253Y36788717D01*
X52116318Y36859532D01*
X52158865Y36916368D01*
X52225385Y36941179D01*
X52234374Y36941500D01*
X54567371Y36941500D01*
X54635492Y36921498D01*
G37*
%TD.AperFunction*%
%TA.AperFunction,Conductor*%
G36*
X42044110Y37032200D02*
G01*
X42100946Y36989653D01*
X42109197Y36977144D01*
X42193465Y36831186D01*
X42193466Y36831184D01*
X42320126Y36690514D01*
X42470969Y36580921D01*
X42473270Y36579249D01*
X42553780Y36543404D01*
X42607876Y36497424D01*
X42628526Y36429497D01*
X42628532Y36428297D01*
X42628532Y32624890D01*
X42608530Y32556769D01*
X42596168Y32540580D01*
X42546498Y32485417D01*
X42546497Y32485415D01*
X42451854Y32321487D01*
X42451850Y32321479D01*
X42393357Y32141457D01*
X42373572Y31953200D01*
X42393357Y31764944D01*
X42451850Y31584922D01*
X42451854Y31584914D01*
X42546496Y31420988D01*
X42546497Y31420986D01*
X42546499Y31420984D01*
X42553254Y31413482D01*
X42656265Y31299076D01*
X42686982Y31235068D01*
X42678217Y31164615D01*
X42651723Y31125671D01*
X41232957Y29706904D01*
X41170647Y29672880D01*
X41143864Y29670000D01*
X34816412Y29670000D01*
X34771732Y29678188D01*
X34768827Y29679290D01*
X34603659Y29720000D01*
X34603656Y29720000D01*
X34433544Y29720000D01*
X34433540Y29720000D01*
X34268378Y29679292D01*
X34268374Y29679290D01*
X34117748Y29600235D01*
X34117742Y29600230D01*
X33990418Y29487431D01*
X33990416Y29487429D01*
X33893781Y29347430D01*
X33893779Y29347426D01*
X33833459Y29188372D01*
X33813509Y29024074D01*
X33785442Y28958861D01*
X33726573Y28919175D01*
X33655593Y28917615D01*
X33599333Y28950167D01*
X32851760Y29697740D01*
X32847219Y29702525D01*
X32801873Y29752887D01*
X32801867Y29752892D01*
X32790659Y29761035D01*
X32775623Y29773877D01*
X32770038Y29779462D01*
X32770031Y29779468D01*
X32713046Y29817544D01*
X32708989Y29820372D01*
X32648732Y29864150D01*
X32648728Y29864152D01*
X32642247Y29867038D01*
X32623506Y29877372D01*
X32622544Y29878015D01*
X32622540Y29878017D01*
X32553020Y29906812D01*
X32549988Y29908115D01*
X32475807Y29941143D01*
X32475803Y29941144D01*
X32475473Y29941214D01*
X32464721Y29944553D01*
X32464584Y29944100D01*
X32458666Y29945895D01*
X32378245Y29961892D01*
X32376631Y29962224D01*
X32290647Y29980500D01*
X32290646Y29980500D01*
X32101354Y29980500D01*
X32101352Y29980500D01*
X32015365Y29962224D01*
X32013753Y29961892D01*
X31978345Y29954849D01*
X31933334Y29945895D01*
X31933332Y29945895D01*
X31933326Y29945893D01*
X31927414Y29944100D01*
X31927280Y29944542D01*
X31916546Y29941219D01*
X31916199Y29941146D01*
X31916198Y29941145D01*
X31842005Y29908112D01*
X31838975Y29906810D01*
X31769449Y29878012D01*
X31768482Y29877365D01*
X31749759Y29867041D01*
X31743272Y29864153D01*
X31743271Y29864152D01*
X31729456Y29854115D01*
X31683013Y29820374D01*
X31678977Y29817560D01*
X31621963Y29779463D01*
X31621958Y29779459D01*
X31616367Y29773868D01*
X31601342Y29761036D01*
X31590129Y29752889D01*
X31544789Y29702534D01*
X31540249Y29697750D01*
X31496538Y29654039D01*
X31496528Y29654027D01*
X31495674Y29652748D01*
X31495054Y29652231D01*
X31492612Y29649254D01*
X31492046Y29649718D01*
X31441189Y29607230D01*
X31370744Y29598394D01*
X31306706Y29629046D01*
X31301826Y29633673D01*
X31291768Y29643731D01*
X31287226Y29648516D01*
X31241870Y29698890D01*
X31230658Y29707035D01*
X31215623Y29719876D01*
X31210035Y29725464D01*
X31210034Y29725465D01*
X31210032Y29725467D01*
X31210031Y29725468D01*
X31153035Y29763552D01*
X31148978Y29766379D01*
X31132716Y29778194D01*
X31088730Y29810151D01*
X31082247Y29813038D01*
X31063506Y29823372D01*
X31062544Y29824015D01*
X31062540Y29824017D01*
X30993020Y29852812D01*
X30989988Y29854115D01*
X30915809Y29887142D01*
X30915798Y29887146D01*
X30915462Y29887217D01*
X30904720Y29890546D01*
X30904585Y29890099D01*
X30898667Y29891894D01*
X30818291Y29907882D01*
X30816677Y29908214D01*
X30730647Y29926500D01*
X30730646Y29926500D01*
X30541354Y29926500D01*
X30541352Y29926500D01*
X30455356Y29908222D01*
X30453745Y29907891D01*
X30373335Y29891895D01*
X30367410Y29890098D01*
X30367275Y29890542D01*
X30356543Y29887218D01*
X30356197Y29887145D01*
X30282004Y29854112D01*
X30278975Y29852810D01*
X30209449Y29824012D01*
X30208482Y29823365D01*
X30189759Y29813041D01*
X30183272Y29810153D01*
X30183266Y29810149D01*
X30123026Y29766383D01*
X30118972Y29763557D01*
X30061966Y29725466D01*
X30061959Y29725459D01*
X30056366Y29719867D01*
X30041340Y29707034D01*
X30030132Y29698891D01*
X30030129Y29698889D01*
X30030129Y29698888D01*
X30011490Y29678188D01*
X29984780Y29648524D01*
X29980240Y29643741D01*
X28928595Y28592095D01*
X28866283Y28558070D01*
X28795468Y28563134D01*
X28738632Y28605681D01*
X28713821Y28672201D01*
X28713500Y28681190D01*
X28713500Y31324313D01*
X28733502Y31392434D01*
X28750478Y31413482D01*
X28856727Y31519556D01*
X28997361Y31659958D01*
X29012307Y31672712D01*
X29023871Y31681112D01*
X29068973Y31731205D01*
X29073518Y31735990D01*
X29116988Y31779386D01*
X29125383Y31791929D01*
X29136443Y31806137D01*
X29150533Y31821784D01*
X29180860Y31874314D01*
X29185235Y31881343D01*
X29215659Y31926793D01*
X29224031Y31946961D01*
X29231275Y31961636D01*
X29245179Y31985716D01*
X29261844Y32037009D01*
X29265286Y32046324D01*
X29283677Y32090617D01*
X29289275Y32118648D01*
X29292998Y32132892D01*
X29303674Y32165744D01*
X29308603Y32212658D01*
X29310348Y32224135D01*
X29318426Y32264563D01*
X29318454Y32299889D01*
X29319143Y32312933D01*
X29323460Y32354000D01*
X29319234Y32394204D01*
X29318543Y32407473D01*
X29318573Y32441947D01*
X29310400Y32483206D01*
X29308691Y32494513D01*
X29303674Y32542256D01*
X29303673Y32542261D01*
X29293263Y32574298D01*
X29289497Y32588752D01*
X29284111Y32615950D01*
X29265473Y32661049D01*
X29262099Y32670205D01*
X29245179Y32722284D01*
X29231702Y32745626D01*
X29224379Y32760493D01*
X29216365Y32779886D01*
X29185569Y32826057D01*
X29181273Y32832971D01*
X29176803Y32840714D01*
X29150533Y32886216D01*
X29137020Y32901223D01*
X29125836Y32915616D01*
X29117938Y32927457D01*
X29117938Y32927458D01*
X29073970Y32971498D01*
X29069503Y32976209D01*
X29023871Y33026888D01*
X29013001Y33034786D01*
X28997900Y33047694D01*
X28992613Y33052989D01*
X28992610Y33052992D01*
X28935307Y33091348D01*
X28931333Y33094120D01*
X28930656Y33094612D01*
X28870730Y33138151D01*
X28870726Y33138153D01*
X28864633Y33140866D01*
X28845802Y33151260D01*
X28845207Y33151658D01*
X28845206Y33151659D01*
X28845203Y33151661D01*
X28845200Y33151662D01*
X28775306Y33180682D01*
X28772373Y33181943D01*
X28697800Y33215146D01*
X28697285Y33215313D01*
X28687448Y33218348D01*
X28687305Y33217875D01*
X28681378Y33219679D01*
X28600568Y33235823D01*
X28599058Y33236134D01*
X28512648Y33254500D01*
X28512646Y33254500D01*
X28418141Y33254500D01*
X28324761Y33254578D01*
X28323503Y33254517D01*
X28323354Y33254501D01*
X28237754Y33236307D01*
X28236041Y33235955D01*
X28199032Y33228625D01*
X28156050Y33220111D01*
X28156048Y33220111D01*
X28156042Y33220109D01*
X28150125Y33218320D01*
X28150001Y33218728D01*
X28138962Y33215308D01*
X28138203Y33215147D01*
X28138202Y33215147D01*
X28064370Y33182274D01*
X28061308Y33180960D01*
X28023409Y33165298D01*
X27992105Y33152362D01*
X27990799Y33151490D01*
X27972151Y33141216D01*
X27965275Y33138155D01*
X27965272Y33138153D01*
X27905342Y33094612D01*
X27901199Y33091728D01*
X27844544Y33053940D01*
X27844543Y33053939D01*
X27838639Y33048045D01*
X27823694Y33035292D01*
X27812133Y33026892D01*
X27812128Y33026888D01*
X27767066Y32976843D01*
X27762454Y32971987D01*
X27243842Y32454232D01*
X27242672Y32453172D01*
X27176904Y32387404D01*
X27176831Y32387332D01*
X27114008Y32324613D01*
X27113817Y32324379D01*
X27113547Y32324052D01*
X27097393Y32299876D01*
X27073798Y32264563D01*
X27064417Y32250524D01*
X27064360Y32250439D01*
X27015329Y32177191D01*
X27015158Y32176868D01*
X27015019Y32176609D01*
X27014991Y32176558D01*
X26981148Y32094854D01*
X26981109Y32094759D01*
X26947317Y32013369D01*
X26947219Y32013045D01*
X26947112Y32012695D01*
X26947106Y32012668D01*
X26947106Y32012666D01*
X26937625Y31965000D01*
X26930045Y31926894D01*
X26930025Y31926793D01*
X26917311Y31863150D01*
X26884351Y31800267D01*
X26822627Y31765186D01*
X26751736Y31769045D01*
X26694184Y31810618D01*
X26684631Y31824836D01*
X26675379Y31840862D01*
X26658500Y31903859D01*
X26658500Y32849960D01*
X26678502Y32918081D01*
X26695405Y32939055D01*
X29163939Y35407589D01*
X29226251Y35441615D01*
X29253034Y35444494D01*
X33472513Y35444494D01*
X33540634Y35424492D01*
X33546575Y35420429D01*
X33559765Y35410846D01*
X33559767Y35410844D01*
X33607112Y35389765D01*
X33732697Y35333850D01*
X33917854Y35294494D01*
X34107146Y35294494D01*
X34292303Y35333850D01*
X34309746Y35341617D01*
X34380111Y35351053D01*
X34444409Y35320948D01*
X34482224Y35260860D01*
X34486996Y35226511D01*
X34486996Y33645030D01*
X34466994Y33576909D01*
X34454633Y33560721D01*
X34439794Y33544242D01*
X34439789Y33544234D01*
X34345145Y33380306D01*
X34345142Y33380299D01*
X34286649Y33200277D01*
X34266864Y33012020D01*
X34286649Y32823764D01*
X34345142Y32643742D01*
X34345146Y32643734D01*
X34439789Y32479806D01*
X34439790Y32479804D01*
X34566450Y32339134D01*
X34719591Y32227871D01*
X34719591Y32227870D01*
X34744585Y32216742D01*
X34892521Y32150876D01*
X35077678Y32111520D01*
X35266970Y32111520D01*
X35452127Y32150876D01*
X35625054Y32227869D01*
X35625054Y32227870D01*
X35625056Y32227870D01*
X35625056Y32227871D01*
X35778195Y32339132D01*
X35821660Y32387404D01*
X35904857Y32479804D01*
X35904858Y32479806D01*
X35999503Y32643736D01*
X36022005Y32712988D01*
X36043743Y32779892D01*
X36050541Y32800817D01*
X36090614Y32859421D01*
X36144176Y32885126D01*
X36267299Y32911296D01*
X36440226Y32988289D01*
X36440226Y32988290D01*
X36440228Y32988290D01*
X36440228Y32988291D01*
X36591060Y33097877D01*
X36657928Y33121734D01*
X36665121Y33121940D01*
X37824304Y33121940D01*
X37824309Y33121940D01*
X37949984Y33146939D01*
X38068367Y33195975D01*
X38087112Y33208500D01*
X38174909Y33267163D01*
X41910985Y37003241D01*
X41973295Y37037264D01*
X42044110Y37032200D01*
G37*
%TD.AperFunction*%
%TA.AperFunction,Conductor*%
G36*
X38217260Y40350498D02*
G01*
X38263753Y40296842D01*
X38274449Y40231330D01*
X38261340Y40106601D01*
X38281125Y39918344D01*
X38339618Y39738322D01*
X38339622Y39738314D01*
X38434265Y39574386D01*
X38434266Y39574384D01*
X38560926Y39433714D01*
X38714067Y39322451D01*
X38714067Y39322450D01*
X38726634Y39316855D01*
X38886997Y39245456D01*
X39072154Y39206100D01*
X39261446Y39206100D01*
X39446603Y39245456D01*
X39619530Y39322449D01*
X39619530Y39322450D01*
X39619532Y39322450D01*
X39619532Y39322451D01*
X39772671Y39433712D01*
X39807854Y39472786D01*
X39899333Y39574384D01*
X39899334Y39574386D01*
X39993979Y39738316D01*
X40006040Y39775438D01*
X40046112Y39834041D01*
X40111509Y39861679D01*
X40125873Y39862500D01*
X41145345Y39862500D01*
X41213466Y39842498D01*
X41259959Y39788842D01*
X41270063Y39718568D01*
X41265178Y39697564D01*
X41252925Y39659856D01*
X41233140Y39471598D01*
X41252925Y39283342D01*
X41311418Y39103320D01*
X41311422Y39103312D01*
X41406065Y38939384D01*
X41406066Y38939382D01*
X41532726Y38798712D01*
X41606731Y38744944D01*
X41650085Y38688722D01*
X41656160Y38617985D01*
X41623028Y38555194D01*
X41621765Y38553913D01*
X37527699Y34459845D01*
X37465387Y34425820D01*
X37438604Y34422940D01*
X36665121Y34422940D01*
X36597000Y34442942D01*
X36591060Y34447004D01*
X36570718Y34461783D01*
X36535524Y34487353D01*
X36440228Y34556590D01*
X36440228Y34556591D01*
X36296517Y34620575D01*
X36267299Y34633584D01*
X36267297Y34633585D01*
X36267296Y34633585D01*
X36082142Y34672940D01*
X35913996Y34672940D01*
X35845875Y34692942D01*
X35799382Y34746598D01*
X35787996Y34798940D01*
X35787996Y37305058D01*
X35807998Y37373179D01*
X35824901Y37394153D01*
X36710942Y38280194D01*
X36773254Y38314220D01*
X36800037Y38317099D01*
X36823047Y38317099D01*
X37008204Y38356455D01*
X37181131Y38433448D01*
X37181131Y38433449D01*
X37181133Y38433449D01*
X37181133Y38433450D01*
X37334272Y38544711D01*
X37365595Y38579498D01*
X37460934Y38685383D01*
X37460935Y38685385D01*
X37555580Y38849315D01*
X37614075Y39029343D01*
X37633861Y39217599D01*
X37614075Y39405855D01*
X37614075Y39405856D01*
X37555582Y39585878D01*
X37555578Y39585886D01*
X37527182Y39635069D01*
X37502923Y39677088D01*
X37460935Y39749814D01*
X37460934Y39749816D01*
X37334274Y39890486D01*
X37181133Y40001749D01*
X37181133Y40001750D01*
X37040856Y40064205D01*
X37008204Y40078743D01*
X37008202Y40078744D01*
X37008201Y40078744D01*
X36823047Y40118099D01*
X36633755Y40118099D01*
X36633753Y40118099D01*
X36514284Y40092706D01*
X36443493Y40098109D01*
X36386861Y40140926D01*
X36362368Y40207564D01*
X36377790Y40276865D01*
X36398987Y40305043D01*
X36427544Y40333599D01*
X36489855Y40367621D01*
X36516636Y40370500D01*
X38149139Y40370500D01*
X38217260Y40350498D01*
G37*
%TD.AperFunction*%
%TA.AperFunction,Conductor*%
G36*
X86037621Y65755498D02*
G01*
X86084114Y65701842D01*
X86095500Y65649500D01*
X86095500Y5470500D01*
X86075498Y5402379D01*
X86021842Y5355886D01*
X85969500Y5344500D01*
X5470500Y5344500D01*
X5402379Y5364502D01*
X5355886Y5418158D01*
X5344500Y5470500D01*
X5344500Y10160004D01*
X6154675Y10160004D01*
X6154675Y10159997D01*
X6173962Y9767413D01*
X6173963Y9767399D01*
X6214560Y9493720D01*
X6231636Y9378600D01*
X6288521Y9151503D01*
X6327144Y8997311D01*
X6448289Y8658734D01*
X6459562Y8627228D01*
X6627619Y8271903D01*
X6627621Y8271900D01*
X6829696Y7934757D01*
X7063834Y7619058D01*
X7063841Y7619050D01*
X7063842Y7619049D01*
X7327808Y7327808D01*
X7619049Y7063842D01*
X7619057Y7063835D01*
X7934756Y6829697D01*
X7934760Y6829695D01*
X7934761Y6829694D01*
X8271903Y6627619D01*
X8627228Y6459562D01*
X8997316Y6327143D01*
X9378600Y6231636D01*
X9767409Y6173962D01*
X10102590Y6157496D01*
X10159996Y6154675D01*
X10160000Y6154675D01*
X10160004Y6154675D01*
X10215384Y6157396D01*
X10552591Y6173962D01*
X10941400Y6231636D01*
X11322684Y6327143D01*
X11692772Y6459562D01*
X12048097Y6627619D01*
X12385239Y6829694D01*
X12700951Y7063842D01*
X12992192Y7327808D01*
X13256158Y7619049D01*
X13329895Y7718471D01*
X13490303Y7934757D01*
X13490302Y7934757D01*
X13490306Y7934761D01*
X13692381Y8271903D01*
X13860438Y8627228D01*
X13992857Y8997316D01*
X14088364Y9378600D01*
X14146038Y9767409D01*
X14164229Y10137699D01*
X14165325Y10159997D01*
X14165325Y10160004D01*
X14162504Y10217410D01*
X14146038Y10552591D01*
X14088364Y10941400D01*
X13992857Y11322684D01*
X13992698Y11323127D01*
X13970311Y11385695D01*
X13860438Y11692772D01*
X13692381Y12048097D01*
X13490306Y12385239D01*
X13490305Y12385240D01*
X13490303Y12385244D01*
X13256165Y12700943D01*
X13094329Y12879501D01*
X12992192Y12992192D01*
X12700951Y13256158D01*
X12700950Y13256159D01*
X12700942Y13256166D01*
X12385243Y13490304D01*
X12048100Y13692379D01*
X12048101Y13692379D01*
X12048097Y13692381D01*
X11692772Y13860438D01*
X11583601Y13899500D01*
X11322689Y13992856D01*
X11192366Y14025500D01*
X10941400Y14088364D01*
X10912816Y14092604D01*
X10552601Y14146037D01*
X10552594Y14146038D01*
X10552591Y14146038D01*
X10356295Y14155682D01*
X10160004Y14165325D01*
X10159996Y14165325D01*
X9935662Y14154304D01*
X9767409Y14146038D01*
X9767406Y14146038D01*
X9767398Y14146037D01*
X9378606Y14088365D01*
X9378604Y14088365D01*
X9378600Y14088364D01*
X9187958Y14040611D01*
X8997310Y13992856D01*
X8627230Y13860439D01*
X8627228Y13860438D01*
X8315636Y13713065D01*
X8271899Y13692379D01*
X7934756Y13490304D01*
X7619057Y13256166D01*
X7327808Y12992192D01*
X7063834Y12700943D01*
X6829696Y12385244D01*
X6627621Y12048101D01*
X6627619Y12048097D01*
X6555839Y11896332D01*
X6459561Y11692770D01*
X6327144Y11322690D01*
X6289669Y11173079D01*
X6231636Y10941400D01*
X6231635Y10941396D01*
X6231635Y10941394D01*
X6173963Y10552602D01*
X6173962Y10552588D01*
X6154675Y10160004D01*
X5344500Y10160004D01*
X5344500Y15228879D01*
X17550000Y15228879D01*
X17550000Y11323136D01*
X17550002Y11323115D01*
X17556408Y11263520D01*
X17556408Y11263519D01*
X17606701Y11128674D01*
X17606703Y11128671D01*
X17692953Y11013454D01*
X17750561Y10970329D01*
X17808169Y10927204D01*
X17808171Y10927204D01*
X17808173Y10927202D01*
X17868530Y10904691D01*
X17943014Y10876910D01*
X17943017Y10876909D01*
X18002627Y10870500D01*
X21908372Y10870501D01*
X21967983Y10876909D01*
X22102831Y10927204D01*
X22218046Y11013454D01*
X22304296Y11128669D01*
X22320860Y11173079D01*
X22337444Y11217543D01*
X22379990Y11274379D01*
X22446510Y11299191D01*
X22515884Y11284100D01*
X22566087Y11233898D01*
X22573556Y11217543D01*
X22606701Y11128674D01*
X22606703Y11128671D01*
X22692953Y11013454D01*
X22750561Y10970329D01*
X22808169Y10927204D01*
X22808171Y10927204D01*
X22808173Y10927202D01*
X22868530Y10904691D01*
X22943014Y10876910D01*
X22943017Y10876909D01*
X23002627Y10870500D01*
X26908372Y10870501D01*
X26967983Y10876909D01*
X27102831Y10927204D01*
X27218046Y11013454D01*
X27304296Y11128669D01*
X27354591Y11263517D01*
X27361000Y11323127D01*
X27360999Y13713079D01*
X36456500Y13713079D01*
X36456500Y12093336D01*
X36456502Y12093315D01*
X36462908Y12033720D01*
X36462908Y12033719D01*
X36513201Y11898874D01*
X36513203Y11898871D01*
X36513204Y11898869D01*
X36556086Y11841586D01*
X36599452Y11783656D01*
X36599453Y11783656D01*
X36599454Y11783654D01*
X36665693Y11734067D01*
X36708239Y11677232D01*
X36713303Y11606416D01*
X36679278Y11544104D01*
X36665697Y11532337D01*
X36642386Y11514885D01*
X36599452Y11482745D01*
X36513203Y11367530D01*
X36513201Y11367527D01*
X36462909Y11232685D01*
X36456500Y11173079D01*
X36456500Y9553336D01*
X36456502Y9553315D01*
X36462908Y9493720D01*
X36462908Y9493719D01*
X36513201Y9358874D01*
X36513203Y9358871D01*
X36599453Y9243654D01*
X36646809Y9208204D01*
X36714669Y9157404D01*
X36714671Y9157404D01*
X36714673Y9157402D01*
X36775030Y9134891D01*
X36849514Y9107110D01*
X36849517Y9107109D01*
X36909127Y9100700D01*
X38528872Y9100701D01*
X38588483Y9107109D01*
X38723331Y9157404D01*
X38838546Y9243654D01*
X38888133Y9309894D01*
X38944968Y9352440D01*
X39015783Y9357504D01*
X39078095Y9323479D01*
X39089863Y9309898D01*
X39139454Y9243654D01*
X39254669Y9157404D01*
X39254671Y9157404D01*
X39254673Y9157402D01*
X39315030Y9134891D01*
X39389514Y9107110D01*
X39389517Y9107109D01*
X39449127Y9100700D01*
X41068872Y9100701D01*
X41128483Y9107109D01*
X41263331Y9157404D01*
X41378546Y9243654D01*
X41464796Y9358869D01*
X41515091Y9493717D01*
X41521500Y9553327D01*
X41521499Y11173072D01*
X41515091Y11232683D01*
X41481362Y11323115D01*
X41464798Y11367527D01*
X41464796Y11367530D01*
X41464796Y11367531D01*
X41378546Y11482746D01*
X41312306Y11532334D01*
X41269760Y11589168D01*
X41264696Y11659983D01*
X41298721Y11722295D01*
X41312302Y11734064D01*
X41378546Y11783654D01*
X41464796Y11898869D01*
X41515091Y12033717D01*
X41521500Y12093327D01*
X41521499Y13713072D01*
X41515091Y13772683D01*
X41476370Y13876500D01*
X41464798Y13907527D01*
X41464796Y13907530D01*
X41464796Y13907531D01*
X41400921Y13992857D01*
X41378546Y14022747D01*
X41290890Y14088365D01*
X41263331Y14108996D01*
X41263329Y14108997D01*
X41263326Y14108999D01*
X41128483Y14159291D01*
X41128486Y14159291D01*
X41068873Y14165700D01*
X39449135Y14165700D01*
X39449114Y14165698D01*
X39389519Y14159292D01*
X39389518Y14159292D01*
X39254673Y14108999D01*
X39254670Y14108997D01*
X39139455Y14022748D01*
X39139454Y14022746D01*
X39089866Y13956507D01*
X39033032Y13913961D01*
X38962216Y13908897D01*
X38899904Y13942922D01*
X38888136Y13956503D01*
X38838546Y14022746D01*
X38838544Y14022747D01*
X38838544Y14022748D01*
X38780614Y14066114D01*
X38723331Y14108996D01*
X38723329Y14108997D01*
X38723326Y14108999D01*
X38588483Y14159291D01*
X38588486Y14159291D01*
X38528873Y14165700D01*
X36909135Y14165700D01*
X36909114Y14165698D01*
X36849519Y14159292D01*
X36849518Y14159292D01*
X36714673Y14108999D01*
X36714670Y14108997D01*
X36599453Y14022747D01*
X36513203Y13907530D01*
X36513201Y13907527D01*
X36462909Y13772685D01*
X36456500Y13713079D01*
X27360999Y13713079D01*
X27360999Y15228872D01*
X27354591Y15288483D01*
X27333300Y15345565D01*
X27304298Y15423327D01*
X27304296Y15423330D01*
X27304296Y15423331D01*
X27261171Y15480939D01*
X27218046Y15538547D01*
X27141091Y15596155D01*
X27102831Y15624796D01*
X27102829Y15624797D01*
X27102826Y15624799D01*
X26967983Y15675091D01*
X26967986Y15675091D01*
X26908373Y15681500D01*
X23002635Y15681500D01*
X23002614Y15681498D01*
X22943019Y15675092D01*
X22943018Y15675092D01*
X22808173Y15624799D01*
X22808170Y15624797D01*
X22692953Y15538547D01*
X22606703Y15423330D01*
X22606702Y15423329D01*
X22573556Y15334457D01*
X22531010Y15277621D01*
X22464490Y15252810D01*
X22395115Y15267901D01*
X22344913Y15318103D01*
X22337444Y15334457D01*
X22304297Y15423329D01*
X22304296Y15423330D01*
X22304296Y15423331D01*
X22261171Y15480939D01*
X22218046Y15538547D01*
X22141091Y15596155D01*
X22102831Y15624796D01*
X22102829Y15624797D01*
X22102826Y15624799D01*
X21967983Y15675091D01*
X21967986Y15675091D01*
X21908373Y15681500D01*
X18002635Y15681500D01*
X18002614Y15681498D01*
X17943019Y15675092D01*
X17943018Y15675092D01*
X17808173Y15624799D01*
X17808170Y15624797D01*
X17692953Y15538547D01*
X17606703Y15423330D01*
X17606701Y15423327D01*
X17556409Y15288485D01*
X17550000Y15228879D01*
X5344500Y15228879D01*
X5344500Y26064466D01*
X6719500Y26064466D01*
X6719500Y25755535D01*
X6754089Y25448544D01*
X6768695Y25384554D01*
X6822832Y25147364D01*
X6822834Y25147358D01*
X6822833Y25147358D01*
X6924858Y24855789D01*
X6924869Y24855762D01*
X6957022Y24788996D01*
X6969500Y24734327D01*
X6969500Y23862136D01*
X6969502Y23862115D01*
X6975908Y23802520D01*
X6975908Y23802519D01*
X7026201Y23667674D01*
X7026203Y23667671D01*
X7026204Y23667669D01*
X7054845Y23629409D01*
X7112453Y23552454D01*
X7139320Y23532342D01*
X7227669Y23466204D01*
X7227671Y23466204D01*
X7227673Y23466202D01*
X7288030Y23443691D01*
X7362514Y23415910D01*
X7362517Y23415909D01*
X7422127Y23409500D01*
X8294325Y23409501D01*
X8348995Y23397023D01*
X8415774Y23364863D01*
X8707357Y23262834D01*
X8707360Y23262834D01*
X8707364Y23262832D01*
X8930290Y23211951D01*
X9008543Y23194090D01*
X9008544Y23194090D01*
X9008548Y23194089D01*
X9252565Y23166595D01*
X9315534Y23159500D01*
X9315535Y23159500D01*
X14362466Y23159500D01*
X14414717Y23165388D01*
X14669452Y23194089D01*
X14970636Y23262832D01*
X15188131Y23338937D01*
X15262230Y23364865D01*
X15540565Y23498904D01*
X15802143Y23663265D01*
X16043674Y23855880D01*
X24942405Y32754611D01*
X25004717Y32788637D01*
X25075532Y32783572D01*
X25132368Y32741025D01*
X25157179Y32674505D01*
X25157500Y32665516D01*
X25157500Y31903859D01*
X25140620Y31840860D01*
X25080820Y31737284D01*
X25080818Y31737279D01*
X25022325Y31557257D01*
X25002540Y31369000D01*
X25022325Y31180744D01*
X25080818Y31000722D01*
X25080822Y31000714D01*
X25175465Y30836786D01*
X25175466Y30836784D01*
X25302126Y30696114D01*
X25455267Y30584851D01*
X25455267Y30584850D01*
X25456451Y30584323D01*
X25628197Y30507856D01*
X25813354Y30468500D01*
X26002646Y30468500D01*
X26187803Y30507856D01*
X26360730Y30584849D01*
X26360730Y30584850D01*
X26360732Y30584850D01*
X26360732Y30584851D01*
X26513871Y30696112D01*
X26640533Y30836784D01*
X26677380Y30900605D01*
X26728763Y30949599D01*
X26798476Y30963036D01*
X26864387Y30936649D01*
X26905570Y30878817D01*
X26912500Y30837606D01*
X26912500Y29595565D01*
X26892498Y29527444D01*
X26838842Y29480951D01*
X26786500Y29469565D01*
X24797369Y29469565D01*
X24623398Y29434960D01*
X24623393Y29434958D01*
X24541458Y29401020D01*
X24541458Y29401019D01*
X24503723Y29385389D01*
X24459512Y29367076D01*
X24400477Y29327628D01*
X24400476Y29327627D01*
X24326095Y29277927D01*
X24312028Y29268528D01*
X24312021Y29268523D01*
X19747542Y24704044D01*
X19747537Y24704037D01*
X19708063Y24644960D01*
X19648988Y24556549D01*
X19615046Y24474606D01*
X19581107Y24392672D01*
X19581105Y24392667D01*
X19546500Y24218696D01*
X19546500Y21897798D01*
X19545809Y21884628D01*
X19541540Y21844000D01*
X19544085Y21819788D01*
X19545810Y21803374D01*
X19546500Y21790204D01*
X19546500Y21755304D01*
X19554620Y21714483D01*
X19556351Y21703074D01*
X19561325Y21655745D01*
X19571867Y21623300D01*
X19575611Y21608953D01*
X19581105Y21581337D01*
X19581108Y21581326D01*
X19599610Y21536656D01*
X19603032Y21527382D01*
X19614914Y21490817D01*
X19619821Y21475716D01*
X19619823Y21475712D01*
X19619826Y21475706D01*
X19633501Y21452020D01*
X19640791Y21437239D01*
X19648985Y21417455D01*
X19679597Y21371643D01*
X19683952Y21364638D01*
X19714462Y21311790D01*
X19714465Y21311786D01*
X19728260Y21296466D01*
X19739391Y21282155D01*
X19747536Y21269965D01*
X19791248Y21226253D01*
X19795770Y21221488D01*
X19841129Y21171112D01*
X19852347Y21162962D01*
X19867374Y21150127D01*
X19872965Y21144536D01*
X19929974Y21106443D01*
X19933997Y21103640D01*
X19994270Y21059849D01*
X19997380Y21058465D01*
X20000749Y21056964D01*
X20019498Y21046625D01*
X20020454Y21045986D01*
X20052339Y21032780D01*
X20090022Y21017172D01*
X20092950Y21015914D01*
X20167197Y20982856D01*
X20167509Y20982790D01*
X20178268Y20979445D01*
X20178408Y20979904D01*
X20184331Y20978108D01*
X20184334Y20978106D01*
X20229179Y20969187D01*
X20264748Y20962111D01*
X20266247Y20961803D01*
X20352354Y20943500D01*
X20352358Y20943500D01*
X20541644Y20943500D01*
X20541646Y20943500D01*
X20627846Y20961824D01*
X20629149Y20962091D01*
X20709666Y20978106D01*
X20709668Y20978108D01*
X20715593Y20979904D01*
X20715734Y20979439D01*
X20726485Y20982789D01*
X20726803Y20982856D01*
X20801022Y21015903D01*
X20803967Y21017168D01*
X20873547Y21045987D01*
X20874492Y21046619D01*
X20893255Y21056967D01*
X20899730Y21059849D01*
X20960039Y21103667D01*
X20964012Y21106436D01*
X21021035Y21144536D01*
X21026622Y21150125D01*
X21041664Y21162970D01*
X21052867Y21171109D01*
X21052867Y21171110D01*
X21052871Y21171112D01*
X21098248Y21221510D01*
X21102732Y21226235D01*
X21146464Y21269965D01*
X21154605Y21282152D01*
X21165738Y21296465D01*
X21179533Y21311784D01*
X21210060Y21364661D01*
X21214404Y21371646D01*
X21245013Y21417453D01*
X21253211Y21437247D01*
X21260494Y21452014D01*
X21274179Y21475716D01*
X21290974Y21527409D01*
X21294373Y21536623D01*
X21312894Y21581334D01*
X21318387Y21608953D01*
X21322126Y21623285D01*
X21332674Y21655744D01*
X21337647Y21703079D01*
X21339378Y21714483D01*
X21347500Y21755309D01*
X21347500Y21790204D01*
X21348190Y21803374D01*
X21348308Y21804495D01*
X21352460Y21844000D01*
X21348190Y21884628D01*
X21347500Y21897798D01*
X21347500Y23704810D01*
X21367502Y23772931D01*
X21384405Y23793905D01*
X23130523Y25540023D01*
X25168689Y27578190D01*
X25230999Y27612214D01*
X25301814Y27607149D01*
X25358650Y27564602D01*
X25383092Y27502264D01*
X25387810Y27457375D01*
X25388500Y27444204D01*
X25388500Y27409304D01*
X25396620Y27368483D01*
X25398351Y27357074D01*
X25403325Y27309745D01*
X25413867Y27277300D01*
X25417611Y27262953D01*
X25423105Y27235337D01*
X25423108Y27235326D01*
X25441610Y27190656D01*
X25445032Y27181382D01*
X25456723Y27145405D01*
X25461821Y27129716D01*
X25461823Y27129712D01*
X25461826Y27129706D01*
X25475501Y27106020D01*
X25482791Y27091239D01*
X25490985Y27071455D01*
X25521597Y27025643D01*
X25525952Y27018638D01*
X25556462Y26965790D01*
X25556465Y26965786D01*
X25570260Y26950466D01*
X25581391Y26936155D01*
X25589536Y26923965D01*
X25633248Y26880253D01*
X25637770Y26875488D01*
X25683129Y26825112D01*
X25694347Y26816962D01*
X25709374Y26804127D01*
X25714965Y26798536D01*
X25771974Y26760443D01*
X25775997Y26757640D01*
X25836270Y26713849D01*
X25839380Y26712465D01*
X25842749Y26710964D01*
X25861498Y26700625D01*
X25862454Y26699986D01*
X25894339Y26686780D01*
X25932022Y26671172D01*
X25934950Y26669914D01*
X26009197Y26636856D01*
X26009509Y26636790D01*
X26020268Y26633445D01*
X26020408Y26633904D01*
X26026331Y26632108D01*
X26026334Y26632106D01*
X26071179Y26623187D01*
X26106748Y26616111D01*
X26108247Y26615803D01*
X26194354Y26597500D01*
X26194358Y26597500D01*
X29196691Y26597500D01*
X29196692Y26597500D01*
X29370666Y26632105D01*
X29468515Y26672636D01*
X29534547Y26699987D01*
X29539496Y26703295D01*
X29607245Y26724511D01*
X29675713Y26705731D01*
X29723158Y26652916D01*
X29735500Y26598531D01*
X29735500Y23246189D01*
X29715498Y23178068D01*
X29698595Y23157093D01*
X29587370Y23045869D01*
X29572343Y23033034D01*
X29561128Y23024886D01*
X29515780Y22974522D01*
X29511241Y22969739D01*
X29467536Y22926034D01*
X29459388Y22913839D01*
X29448265Y22899539D01*
X29434470Y22884218D01*
X29434464Y22884210D01*
X29403941Y22831343D01*
X29399590Y22824347D01*
X29368991Y22778551D01*
X29368984Y22778538D01*
X29360792Y22758761D01*
X29353508Y22743990D01*
X29339821Y22720281D01*
X29339819Y22720278D01*
X29323036Y22668626D01*
X29319613Y22659347D01*
X29301108Y22614673D01*
X29301105Y22614661D01*
X29295610Y22587040D01*
X29291866Y22572692D01*
X29281327Y22540257D01*
X29281326Y22540254D01*
X29276351Y22492924D01*
X29274621Y22481519D01*
X29266502Y22440700D01*
X29266501Y22440688D01*
X29266501Y22405796D01*
X29265811Y22392626D01*
X29261541Y22351999D01*
X29265811Y22311372D01*
X29266501Y22298202D01*
X29266501Y22263301D01*
X29274621Y22222481D01*
X29276351Y22211074D01*
X29281326Y22163743D01*
X29281327Y22163738D01*
X29291866Y22131305D01*
X29295611Y22116953D01*
X29301104Y22089340D01*
X29301106Y22089333D01*
X29319615Y22044646D01*
X29323038Y22035368D01*
X29339821Y21983716D01*
X29353507Y21960010D01*
X29360793Y21945236D01*
X29368989Y21925450D01*
X29399591Y21879651D01*
X29403944Y21872650D01*
X29434463Y21819788D01*
X29434466Y21819784D01*
X29448260Y21804465D01*
X29459390Y21790155D01*
X29467537Y21777962D01*
X29511258Y21734241D01*
X29515781Y21729474D01*
X29561125Y21679115D01*
X29561130Y21679110D01*
X29572343Y21670963D01*
X29587370Y21658129D01*
X29592965Y21652534D01*
X29649961Y21614451D01*
X29653998Y21611638D01*
X29714267Y21567850D01*
X29714266Y21567850D01*
X29714268Y21567849D01*
X29714271Y21567847D01*
X29720760Y21564958D01*
X29739503Y21554621D01*
X29740452Y21553987D01*
X29740456Y21553985D01*
X29810016Y21525171D01*
X29813018Y21523882D01*
X29855169Y21505115D01*
X29887195Y21490855D01*
X29887196Y21490855D01*
X29887198Y21490854D01*
X29887515Y21490787D01*
X29898272Y21487448D01*
X29898410Y21487901D01*
X29904324Y21486108D01*
X29904335Y21486103D01*
X29984758Y21470107D01*
X29986306Y21469789D01*
X30072355Y21451498D01*
X30072358Y21451498D01*
X30261646Y21451498D01*
X30261647Y21451498D01*
X30347642Y21469778D01*
X30349220Y21470102D01*
X30429667Y21486103D01*
X30429669Y21486105D01*
X30435590Y21487900D01*
X30435729Y21487440D01*
X30446489Y21490788D01*
X30446804Y21490854D01*
X30521055Y21523914D01*
X30523919Y21525145D01*
X30593548Y21553986D01*
X30594494Y21554619D01*
X30613246Y21564961D01*
X30619731Y21567847D01*
X30680022Y21611652D01*
X30684040Y21614451D01*
X30741037Y21652534D01*
X30746631Y21658130D01*
X30761659Y21670964D01*
X30772872Y21679110D01*
X30818240Y21729499D01*
X30822745Y21734245D01*
X31187620Y22099120D01*
X31249930Y22133144D01*
X31320745Y22128079D01*
X31377581Y22085532D01*
X31393122Y22058240D01*
X31397987Y22046495D01*
X31402275Y22040078D01*
X31457063Y21958083D01*
X31457064Y21958081D01*
X31496535Y21899007D01*
X31661264Y21734279D01*
X31665806Y21729492D01*
X31711136Y21679146D01*
X31711140Y21679143D01*
X31711143Y21679140D01*
X31722357Y21670993D01*
X31737391Y21658152D01*
X31742979Y21652564D01*
X31799982Y21614476D01*
X31804007Y21611671D01*
X31843766Y21582785D01*
X31864285Y21567876D01*
X31870765Y21564991D01*
X31889520Y21554648D01*
X31890075Y21554278D01*
X31890468Y21554015D01*
X31948571Y21529949D01*
X31960012Y21525209D01*
X31963044Y21523906D01*
X31963127Y21523869D01*
X32037211Y21490884D01*
X32037528Y21490817D01*
X32048285Y21487478D01*
X32048423Y21487931D01*
X32054342Y21486136D01*
X32054348Y21486133D01*
X32134776Y21470135D01*
X32136301Y21469822D01*
X32222368Y21451528D01*
X32411659Y21451528D01*
X32411660Y21451528D01*
X32497655Y21469808D01*
X32499233Y21470132D01*
X32579680Y21486133D01*
X32579682Y21486135D01*
X32585603Y21487930D01*
X32585742Y21487470D01*
X32596502Y21490818D01*
X32596817Y21490884D01*
X32671021Y21523923D01*
X32674007Y21525205D01*
X32743552Y21554011D01*
X32743553Y21554012D01*
X32743561Y21554015D01*
X32744506Y21554647D01*
X32763269Y21564995D01*
X32769744Y21567877D01*
X32830005Y21611661D01*
X32834046Y21614476D01*
X32836674Y21616232D01*
X32891050Y21652564D01*
X32896644Y21658160D01*
X32911672Y21670994D01*
X32922885Y21679140D01*
X32968253Y21729528D01*
X32972745Y21734260D01*
X33016478Y21777992D01*
X33024628Y21790191D01*
X33035755Y21804495D01*
X33049547Y21819812D01*
X33080065Y21872674D01*
X33084410Y21879662D01*
X33115027Y21925481D01*
X33123225Y21945274D01*
X33130505Y21960038D01*
X33144193Y21983744D01*
X33160981Y22035416D01*
X33164389Y22044653D01*
X33182909Y22089362D01*
X33188403Y22116988D01*
X33192146Y22131330D01*
X33202688Y22163772D01*
X33207662Y22211104D01*
X33209387Y22222484D01*
X33217514Y22263336D01*
X33217514Y22298232D01*
X33218204Y22311402D01*
X33222474Y22352028D01*
X33218204Y22392656D01*
X33217514Y22405826D01*
X33217514Y22440715D01*
X33217514Y22440719D01*
X33209392Y22481550D01*
X33207661Y22492963D01*
X33202691Y22540254D01*
X33202688Y22540284D01*
X33192144Y22572731D01*
X33188402Y22587073D01*
X33182909Y22614694D01*
X33164401Y22659377D01*
X33160976Y22668659D01*
X33144193Y22720312D01*
X33130510Y22744010D01*
X33123219Y22758796D01*
X33115026Y22778577D01*
X33112109Y22784035D01*
X33114372Y22785245D01*
X33096520Y22842301D01*
X33096500Y22844524D01*
X33096500Y26696102D01*
X33116502Y26764223D01*
X33170158Y26810716D01*
X33240432Y26820820D01*
X33270717Y26812511D01*
X33274031Y26811138D01*
X33298395Y26801046D01*
X33304455Y26798536D01*
X33380334Y26767105D01*
X33554308Y26732500D01*
X33554309Y26732500D01*
X35326491Y26732500D01*
X35326492Y26732500D01*
X35500466Y26767105D01*
X35582406Y26801047D01*
X35664347Y26834987D01*
X35752759Y26894064D01*
X35811836Y26933536D01*
X36437264Y27558965D01*
X36535813Y27706454D01*
X36603695Y27870334D01*
X36638300Y28044308D01*
X36638300Y28221692D01*
X36638299Y28221693D01*
X36637693Y28227856D01*
X36639818Y28228066D01*
X36645272Y28289115D01*
X36688818Y28345189D01*
X36755767Y28368818D01*
X36762530Y28369000D01*
X41529564Y28369000D01*
X41529569Y28369000D01*
X41655244Y28393999D01*
X41773627Y28443035D01*
X41800409Y28460930D01*
X41880169Y28514223D01*
X45140026Y31774080D01*
X45202338Y31808106D01*
X45273153Y31803041D01*
X45329989Y31760494D01*
X45354800Y31693974D01*
X45339709Y31624600D01*
X45338241Y31621987D01*
X45316822Y31584889D01*
X45316818Y31584879D01*
X45258325Y31404857D01*
X45238540Y31216600D01*
X45258325Y31028345D01*
X45316822Y30848313D01*
X45333618Y30819223D01*
X45350500Y30756221D01*
X45350500Y26575858D01*
X45330498Y26507737D01*
X45313595Y26486763D01*
X38537237Y19710405D01*
X38474925Y19676379D01*
X38448142Y19673500D01*
X16668985Y19673500D01*
X16600864Y19693502D01*
X16594923Y19697565D01*
X16581732Y19707149D01*
X16581730Y19707151D01*
X16456143Y19763066D01*
X16408801Y19784144D01*
X16408799Y19784145D01*
X16408798Y19784145D01*
X16223644Y19823500D01*
X16034352Y19823500D01*
X15849197Y19784145D01*
X15676265Y19707151D01*
X15676265Y19707150D01*
X15523124Y19595887D01*
X15396464Y19455217D01*
X15396463Y19455215D01*
X15301820Y19291287D01*
X15301816Y19291279D01*
X15243323Y19111257D01*
X15223538Y18923000D01*
X15243323Y18734744D01*
X15301816Y18554722D01*
X15301820Y18554714D01*
X15396463Y18390786D01*
X15396464Y18390784D01*
X15523124Y18250114D01*
X15676265Y18138851D01*
X15676265Y18138850D01*
X15723610Y18117771D01*
X15849195Y18061856D01*
X16034352Y18022500D01*
X16223644Y18022500D01*
X16408801Y18061856D01*
X16581728Y18138849D01*
X16581728Y18138850D01*
X16581730Y18138850D01*
X16581732Y18138852D01*
X16594923Y18148435D01*
X16661790Y18172294D01*
X16668985Y18172500D01*
X38885113Y18172500D01*
X38885117Y18172500D01*
X38885118Y18172500D01*
X39030113Y18201342D01*
X39166695Y18257916D01*
X39215929Y18290814D01*
X39289616Y18340048D01*
X46028405Y25078837D01*
X46090717Y25112863D01*
X46161532Y25107798D01*
X46218368Y25065251D01*
X46243179Y24998731D01*
X46243500Y24989742D01*
X46243500Y17427456D01*
X46281949Y17234165D01*
X46357368Y17052086D01*
X46466861Y16888218D01*
X46606218Y16748861D01*
X46613400Y16741679D01*
X46613407Y16741673D01*
X49762595Y13592485D01*
X49796621Y13530173D01*
X49799500Y13503390D01*
X49799500Y12455411D01*
X49779498Y12387290D01*
X49762599Y12366321D01*
X49429999Y12033720D01*
X49109683Y11713404D01*
X49047371Y11679379D01*
X49020588Y11676500D01*
X48415335Y11676500D01*
X48415314Y11676498D01*
X48355719Y11670092D01*
X48355718Y11670092D01*
X48220873Y11619799D01*
X48220870Y11619797D01*
X48105655Y11533548D01*
X48105654Y11533546D01*
X48056066Y11467307D01*
X47999232Y11424761D01*
X47928416Y11419697D01*
X47866104Y11453722D01*
X47854336Y11467303D01*
X47804746Y11533546D01*
X47804744Y11533547D01*
X47804744Y11533548D01*
X47746814Y11576914D01*
X47689531Y11619796D01*
X47689529Y11619797D01*
X47689526Y11619799D01*
X47554683Y11670091D01*
X47554686Y11670091D01*
X47495073Y11676500D01*
X45875335Y11676500D01*
X45875314Y11676498D01*
X45815719Y11670092D01*
X45815718Y11670092D01*
X45680873Y11619799D01*
X45680870Y11619797D01*
X45565653Y11533547D01*
X45479403Y11418330D01*
X45479401Y11418327D01*
X45429109Y11283485D01*
X45422700Y11223879D01*
X45422700Y9604136D01*
X45422702Y9604115D01*
X45429108Y9544520D01*
X45429108Y9544519D01*
X45479401Y9409674D01*
X45479403Y9409671D01*
X45565653Y9294454D01*
X45618812Y9254660D01*
X45680869Y9208204D01*
X45680871Y9208204D01*
X45680873Y9208202D01*
X45741230Y9185691D01*
X45815714Y9157910D01*
X45815717Y9157909D01*
X45875327Y9151500D01*
X47495072Y9151501D01*
X47554683Y9157909D01*
X47689531Y9208204D01*
X47804746Y9294454D01*
X47854333Y9360694D01*
X47911168Y9403240D01*
X47981983Y9408304D01*
X48044295Y9374279D01*
X48056063Y9360698D01*
X48105654Y9294454D01*
X48220869Y9208204D01*
X48220871Y9208204D01*
X48220873Y9208202D01*
X48281230Y9185691D01*
X48355714Y9157910D01*
X48355717Y9157909D01*
X48415327Y9151500D01*
X50035072Y9151501D01*
X50094683Y9157909D01*
X50229531Y9208204D01*
X50344746Y9294454D01*
X50430996Y9409669D01*
X50481291Y9544517D01*
X50487700Y9604127D01*
X50487699Y10209391D01*
X50507701Y10277511D01*
X50524599Y10298481D01*
X51577140Y11351019D01*
X51686632Y11514886D01*
X51762052Y11696965D01*
X51765322Y11713404D01*
X51801709Y11896332D01*
X51803888Y11895899D01*
X51826707Y11952452D01*
X51884651Y11993477D01*
X51955576Y11996662D01*
X51969549Y11992358D01*
X52038317Y11966709D01*
X52097927Y11960300D01*
X53870072Y11960301D01*
X53929683Y11966709D01*
X54064531Y12017004D01*
X54179746Y12103254D01*
X54265996Y12218469D01*
X54316291Y12353317D01*
X54322700Y12412927D01*
X54322700Y12572500D01*
X54342702Y12640621D01*
X54396358Y12687114D01*
X54448700Y12698500D01*
X57819301Y12698500D01*
X57887422Y12678498D01*
X57933915Y12624842D01*
X57945301Y12572500D01*
X57945301Y12412936D01*
X57945302Y12412915D01*
X57951708Y12353320D01*
X57951708Y12353319D01*
X58002001Y12218474D01*
X58002003Y12218471D01*
X58088253Y12103254D01*
X58145861Y12060129D01*
X58203469Y12017004D01*
X58203471Y12017004D01*
X58203473Y12017002D01*
X58258009Y11996662D01*
X58338314Y11966710D01*
X58338317Y11966709D01*
X58397927Y11960300D01*
X60170072Y11960301D01*
X60229683Y11966709D01*
X60364531Y12017004D01*
X60479746Y12103254D01*
X60565996Y12218469D01*
X60616291Y12353317D01*
X60622700Y12412927D01*
X60622699Y13665566D01*
X60642701Y13733686D01*
X60659599Y13754655D01*
X65885607Y18980662D01*
X65947917Y19014686D01*
X66018732Y19009621D01*
X66075568Y18967074D01*
X66100379Y18900554D01*
X66100700Y18891565D01*
X66100700Y14597560D01*
X66080698Y14529439D01*
X66027042Y14482946D01*
X66000897Y14474314D01*
X65887199Y14450147D01*
X65714263Y14373151D01*
X65714263Y14373150D01*
X65561122Y14261887D01*
X65434462Y14121217D01*
X65434461Y14121215D01*
X65339818Y13957287D01*
X65339814Y13957279D01*
X65281321Y13777257D01*
X65261536Y13589000D01*
X65281321Y13400744D01*
X65339814Y13220722D01*
X65339816Y13220717D01*
X65413265Y13093499D01*
X65430002Y13024504D01*
X65406781Y12957412D01*
X65350974Y12913525D01*
X65304145Y12904500D01*
X62674931Y12904500D01*
X62633039Y12896167D01*
X62549254Y12879501D01*
X62549253Y12879500D01*
X62430872Y12830465D01*
X62324330Y12759277D01*
X62324326Y12759274D01*
X59739657Y10174605D01*
X59677345Y10140579D01*
X59650562Y10137700D01*
X58397935Y10137700D01*
X58397914Y10137698D01*
X58338319Y10131292D01*
X58338318Y10131292D01*
X58203473Y10080999D01*
X58203470Y10080997D01*
X58088253Y9994747D01*
X58002003Y9879530D01*
X58002001Y9879527D01*
X57951709Y9744685D01*
X57945300Y9685079D01*
X57945300Y9575500D01*
X57925298Y9507379D01*
X57871642Y9460886D01*
X57819300Y9449500D01*
X54448699Y9449500D01*
X54380578Y9469502D01*
X54334085Y9523158D01*
X54322699Y9575500D01*
X54322699Y9685065D01*
X54322699Y9685072D01*
X54316291Y9744683D01*
X54295000Y9801765D01*
X54265998Y9879527D01*
X54265996Y9879530D01*
X54265996Y9879531D01*
X54222871Y9937139D01*
X54179746Y9994747D01*
X54102791Y10052355D01*
X54064531Y10080996D01*
X54064529Y10080997D01*
X54064526Y10080999D01*
X53929683Y10131291D01*
X53929686Y10131291D01*
X53870073Y10137700D01*
X52097935Y10137700D01*
X52097914Y10137698D01*
X52038319Y10131292D01*
X52038318Y10131292D01*
X51903473Y10080999D01*
X51903470Y10080997D01*
X51788253Y9994747D01*
X51702003Y9879530D01*
X51702001Y9879527D01*
X51651709Y9744685D01*
X51645300Y9685079D01*
X51645300Y7912936D01*
X51645302Y7912915D01*
X51651708Y7853320D01*
X51651708Y7853319D01*
X51702001Y7718474D01*
X51702003Y7718471D01*
X51788253Y7603254D01*
X51845861Y7560129D01*
X51903469Y7517004D01*
X51903471Y7517004D01*
X51903473Y7517002D01*
X51963830Y7494491D01*
X52038314Y7466710D01*
X52038317Y7466709D01*
X52097927Y7460300D01*
X53870072Y7460301D01*
X53929683Y7466709D01*
X54064531Y7517004D01*
X54179746Y7603254D01*
X54265996Y7718469D01*
X54316291Y7853317D01*
X54322700Y7912927D01*
X54322700Y8022500D01*
X54342702Y8090621D01*
X54396358Y8137114D01*
X54448700Y8148500D01*
X57819301Y8148500D01*
X57887422Y8128498D01*
X57933915Y8074842D01*
X57945301Y8022500D01*
X57945301Y7912936D01*
X57945302Y7912915D01*
X57951708Y7853320D01*
X57951708Y7853319D01*
X58002001Y7718474D01*
X58002003Y7718471D01*
X58088253Y7603254D01*
X58145861Y7560129D01*
X58203469Y7517004D01*
X58203471Y7517004D01*
X58203473Y7517002D01*
X58263830Y7494491D01*
X58338314Y7466710D01*
X58338317Y7466709D01*
X58397927Y7460300D01*
X60170072Y7460301D01*
X60229683Y7466709D01*
X60364531Y7517004D01*
X60479746Y7603254D01*
X60565996Y7718469D01*
X60616291Y7853317D01*
X60622700Y7912927D01*
X60622699Y9165566D01*
X60642701Y9233686D01*
X60659599Y9254655D01*
X61564949Y10160004D01*
X77274675Y10160004D01*
X77274675Y10159997D01*
X77293962Y9767413D01*
X77293963Y9767399D01*
X77334560Y9493720D01*
X77351636Y9378600D01*
X77408521Y9151503D01*
X77447144Y8997311D01*
X77568289Y8658734D01*
X77579562Y8627228D01*
X77747619Y8271903D01*
X77747621Y8271900D01*
X77949696Y7934757D01*
X78183834Y7619058D01*
X78183841Y7619050D01*
X78183842Y7619049D01*
X78447808Y7327808D01*
X78739049Y7063842D01*
X78739057Y7063835D01*
X79054756Y6829697D01*
X79054760Y6829695D01*
X79054761Y6829694D01*
X79391903Y6627619D01*
X79747228Y6459562D01*
X80117316Y6327143D01*
X80498600Y6231636D01*
X80887409Y6173962D01*
X81222590Y6157496D01*
X81279996Y6154675D01*
X81280000Y6154675D01*
X81280004Y6154675D01*
X81335384Y6157396D01*
X81672591Y6173962D01*
X82061400Y6231636D01*
X82442684Y6327143D01*
X82812772Y6459562D01*
X83168097Y6627619D01*
X83505239Y6829694D01*
X83820951Y7063842D01*
X84112192Y7327808D01*
X84376158Y7619049D01*
X84449895Y7718471D01*
X84610303Y7934757D01*
X84610302Y7934757D01*
X84610306Y7934761D01*
X84812381Y8271903D01*
X84980438Y8627228D01*
X85112857Y8997316D01*
X85208364Y9378600D01*
X85266038Y9767409D01*
X85284229Y10137699D01*
X85285325Y10159997D01*
X85285325Y10160004D01*
X85282504Y10217410D01*
X85266038Y10552591D01*
X85208364Y10941400D01*
X85112857Y11322684D01*
X85112698Y11323127D01*
X85090311Y11385695D01*
X84980438Y11692772D01*
X84812381Y12048097D01*
X84610306Y12385239D01*
X84610305Y12385240D01*
X84610303Y12385244D01*
X84376165Y12700943D01*
X84214329Y12879501D01*
X84112192Y12992192D01*
X83820951Y13256158D01*
X83820950Y13256159D01*
X83820942Y13256166D01*
X83505243Y13490304D01*
X83168100Y13692379D01*
X83168101Y13692379D01*
X83168097Y13692381D01*
X82812772Y13860438D01*
X82703601Y13899500D01*
X82442689Y13992856D01*
X82312366Y14025500D01*
X82061400Y14088364D01*
X82032816Y14092604D01*
X81672601Y14146037D01*
X81672594Y14146038D01*
X81672591Y14146038D01*
X81476295Y14155682D01*
X81280004Y14165325D01*
X81279996Y14165325D01*
X81055662Y14154304D01*
X80887409Y14146038D01*
X80887406Y14146038D01*
X80887398Y14146037D01*
X80498606Y14088365D01*
X80498604Y14088365D01*
X80498600Y14088364D01*
X80307958Y14040611D01*
X80117310Y13992856D01*
X79747230Y13860439D01*
X79747228Y13860438D01*
X79435636Y13713065D01*
X79391899Y13692379D01*
X79054756Y13490304D01*
X78739057Y13256166D01*
X78447808Y12992192D01*
X78183834Y12700943D01*
X77949696Y12385244D01*
X77747621Y12048101D01*
X77747619Y12048097D01*
X77675839Y11896332D01*
X77579561Y11692770D01*
X77447144Y11322690D01*
X77409669Y11173079D01*
X77351636Y10941400D01*
X77351635Y10941396D01*
X77351635Y10941394D01*
X77293963Y10552602D01*
X77293962Y10552588D01*
X77274675Y10160004D01*
X61564949Y10160004D01*
X62971541Y11566595D01*
X63033853Y11600621D01*
X63060636Y11603500D01*
X72490664Y11603500D01*
X72490669Y11603500D01*
X72616344Y11628499D01*
X72734727Y11677535D01*
X72763806Y11696965D01*
X72841269Y11748723D01*
X73276276Y12183731D01*
X73347465Y12290273D01*
X73396501Y12408656D01*
X73397351Y12412928D01*
X73421500Y12534331D01*
X73421500Y23769943D01*
X73441502Y23838064D01*
X73458405Y23859038D01*
X74269963Y24670596D01*
X74332275Y24704622D01*
X74359058Y24707501D01*
X74758009Y24707501D01*
X74860797Y24718001D01*
X75027334Y24773186D01*
X75052966Y24788996D01*
X75176656Y24865288D01*
X75194868Y24883500D01*
X75283964Y24972595D01*
X75346276Y25006621D01*
X75373059Y25009500D01*
X79343501Y25009500D01*
X79411622Y24989498D01*
X79458115Y24935842D01*
X79469501Y24883500D01*
X79469501Y23862136D01*
X79469502Y23862115D01*
X79475908Y23802520D01*
X79475908Y23802519D01*
X79526201Y23667674D01*
X79526203Y23667671D01*
X79526204Y23667669D01*
X79554845Y23629409D01*
X79612453Y23552454D01*
X79639320Y23532342D01*
X79727669Y23466204D01*
X79727671Y23466204D01*
X79727673Y23466202D01*
X79788030Y23443691D01*
X79862514Y23415910D01*
X79862517Y23415909D01*
X79922127Y23409500D01*
X84017872Y23409501D01*
X84077483Y23415909D01*
X84212331Y23466204D01*
X84327546Y23552454D01*
X84413796Y23667669D01*
X84464091Y23802517D01*
X84470500Y23862127D01*
X84470499Y27957872D01*
X84464091Y28017483D01*
X84442800Y28074565D01*
X84413798Y28152327D01*
X84413796Y28152330D01*
X84413796Y28152331D01*
X84357101Y28228066D01*
X84327546Y28267547D01*
X84223828Y28345189D01*
X84212331Y28353796D01*
X84212329Y28353797D01*
X84212326Y28353799D01*
X84077483Y28404091D01*
X84077486Y28404091D01*
X84017873Y28410500D01*
X79922135Y28410500D01*
X79922114Y28410498D01*
X79862519Y28404092D01*
X79862518Y28404092D01*
X79727673Y28353799D01*
X79727670Y28353797D01*
X79612453Y28267547D01*
X79526203Y28152330D01*
X79526201Y28152327D01*
X79475909Y28017485D01*
X79469500Y27957879D01*
X79469500Y26936500D01*
X79449498Y26868379D01*
X79395842Y26821886D01*
X79343500Y26810500D01*
X75369059Y26810500D01*
X75300938Y26830502D01*
X75279964Y26847405D01*
X75176662Y26950707D01*
X75176656Y26950712D01*
X75027334Y27042815D01*
X74860803Y27097998D01*
X74860791Y27098000D01*
X74758017Y27108500D01*
X74132990Y27108500D01*
X74030202Y27098000D01*
X73863665Y27042815D01*
X73714343Y26950712D01*
X73714337Y26950707D01*
X73622095Y26858464D01*
X73559783Y26824438D01*
X73488968Y26829503D01*
X73443905Y26858464D01*
X73351662Y26950707D01*
X73351656Y26950712D01*
X73202334Y27042815D01*
X73035803Y27097998D01*
X73035791Y27098000D01*
X72933017Y27108500D01*
X72933009Y27108500D01*
X72593436Y27108500D01*
X72525315Y27128502D01*
X72504341Y27145405D01*
X69926150Y29723596D01*
X69892124Y29785908D01*
X69895411Y29851626D01*
X69922874Y29936144D01*
X69942660Y30124400D01*
X69922874Y30312656D01*
X69872237Y30468500D01*
X69864381Y30492679D01*
X69864377Y30492687D01*
X69852571Y30513135D01*
X69811167Y30584850D01*
X69769734Y30656615D01*
X69769733Y30656617D01*
X69643073Y30797287D01*
X69489932Y30908550D01*
X69489932Y30908551D01*
X69364345Y30964466D01*
X69317003Y30985544D01*
X69317001Y30985545D01*
X69317000Y30985545D01*
X69131846Y31024900D01*
X68942554Y31024900D01*
X68757399Y30985545D01*
X68584467Y30908551D01*
X68584467Y30908550D01*
X68431326Y30797287D01*
X68304666Y30656617D01*
X68304665Y30656615D01*
X68210022Y30492687D01*
X68210018Y30492679D01*
X68151525Y30312657D01*
X68131740Y30124400D01*
X68151525Y29936144D01*
X68210018Y29756122D01*
X68210022Y29756114D01*
X68304664Y29592188D01*
X68304665Y29592186D01*
X68304667Y29592184D01*
X68419876Y29464232D01*
X68442647Y29428142D01*
X68460734Y29384474D01*
X68531923Y29277931D01*
X68531926Y29277927D01*
X71570595Y26239259D01*
X71604621Y26176947D01*
X71607500Y26150164D01*
X71607500Y25844213D01*
X71587498Y25776092D01*
X71533842Y25729599D01*
X71463568Y25719495D01*
X71398988Y25748989D01*
X71392405Y25755118D01*
X66854993Y30292530D01*
X66820967Y30354842D01*
X66826032Y30425657D01*
X66868579Y30482493D01*
X66895870Y30498034D01*
X66932327Y30513135D01*
X67038869Y30584323D01*
X74976277Y38521731D01*
X75047465Y38628273D01*
X75096501Y38746656D01*
X75102562Y38777127D01*
X75121500Y38872331D01*
X75121500Y43998478D01*
X75141502Y44066599D01*
X75181354Y44105719D01*
X75202056Y44118488D01*
X75326112Y44242544D01*
X75418214Y44391866D01*
X75473399Y44558403D01*
X75483900Y44661191D01*
X75483899Y45617301D01*
X75503901Y45685421D01*
X75557557Y45731914D01*
X75609899Y45743300D01*
X77494716Y45743300D01*
X77562837Y45723298D01*
X77583811Y45706395D01*
X79432595Y43857611D01*
X79466621Y43795299D01*
X79469500Y43768516D01*
X79469500Y43162136D01*
X79469502Y43162115D01*
X79475908Y43102520D01*
X79475908Y43102519D01*
X79526201Y42967674D01*
X79526203Y42967671D01*
X79612453Y42852454D01*
X79644443Y42828507D01*
X79727669Y42766204D01*
X79727671Y42766204D01*
X79727673Y42766202D01*
X79788030Y42743691D01*
X79862514Y42715910D01*
X79862517Y42715909D01*
X79922127Y42709500D01*
X80794325Y42709501D01*
X80848994Y42697023D01*
X80915759Y42664871D01*
X80915762Y42664870D01*
X80915770Y42664866D01*
X80915785Y42664861D01*
X80915787Y42664860D01*
X81207357Y42562835D01*
X81207360Y42562835D01*
X81207364Y42562833D01*
X81508543Y42494090D01*
X81508544Y42494090D01*
X81508547Y42494089D01*
X81689602Y42473690D01*
X81815533Y42459501D01*
X81815535Y42459501D01*
X82124466Y42459501D01*
X82202425Y42468285D01*
X82431452Y42494089D01*
X82732636Y42562833D01*
X83024229Y42664866D01*
X83084770Y42694021D01*
X83091004Y42697023D01*
X83145673Y42709501D01*
X84017865Y42709501D01*
X84017872Y42709501D01*
X84077483Y42715909D01*
X84212331Y42766204D01*
X84327546Y42852454D01*
X84413796Y42967669D01*
X84464091Y43102517D01*
X84470500Y43162127D01*
X84470499Y44034329D01*
X84482978Y44088999D01*
X84515134Y44155771D01*
X84515134Y44155772D01*
X84545850Y44243551D01*
X84617167Y44447364D01*
X84685911Y44748548D01*
X84720499Y45055536D01*
X84720499Y45364465D01*
X84685911Y45671453D01*
X84617167Y45972636D01*
X84577324Y46086500D01*
X84515140Y46264213D01*
X84515139Y46264215D01*
X84515134Y46264230D01*
X84482977Y46331006D01*
X84470499Y46385675D01*
X84470499Y47257865D01*
X84470499Y47257872D01*
X84464091Y47317483D01*
X84442800Y47374565D01*
X84413798Y47452327D01*
X84413796Y47452330D01*
X84413796Y47452331D01*
X84370671Y47509939D01*
X84327546Y47567547D01*
X84250591Y47625155D01*
X84212331Y47653796D01*
X84212329Y47653797D01*
X84212326Y47653799D01*
X84077483Y47704091D01*
X84077486Y47704091D01*
X84017878Y47710500D01*
X84017873Y47710500D01*
X83411484Y47710500D01*
X83343363Y47730502D01*
X83322389Y47747405D01*
X80521877Y50547918D01*
X80280340Y50740538D01*
X80018769Y50904894D01*
X80018760Y50904899D01*
X79740433Y51038934D01*
X79731020Y51042228D01*
X79664845Y51065384D01*
X79664844Y51065385D01*
X79448842Y51140967D01*
X79147656Y51209711D01*
X78840666Y51244300D01*
X78840665Y51244300D01*
X65314626Y51244300D01*
X65314625Y51244300D01*
X65007634Y51209711D01*
X64784949Y51158884D01*
X64706455Y51140968D01*
X64706451Y51140967D01*
X64706448Y51140966D01*
X64490445Y51065385D01*
X64490445Y51065384D01*
X64414861Y51038935D01*
X64414857Y51038934D01*
X64414851Y51038931D01*
X64136530Y50904899D01*
X64136521Y50904894D01*
X63874950Y50740538D01*
X63633413Y50547918D01*
X62360102Y49274605D01*
X62297790Y49240580D01*
X62271007Y49237700D01*
X51360717Y49237700D01*
X51292596Y49257702D01*
X51246103Y49311358D01*
X51235407Y49350530D01*
X51225910Y49440888D01*
X51215674Y49538285D01*
X51186152Y49629145D01*
X51157181Y49718308D01*
X51157177Y49718316D01*
X51062534Y49882244D01*
X51062533Y49882246D01*
X50935873Y50022916D01*
X50935872Y50022917D01*
X50926066Y50030041D01*
X50882711Y50086262D01*
X50876634Y50156998D01*
X50909765Y50219791D01*
X50926066Y50233915D01*
X50935872Y50241040D01*
X50935873Y50241041D01*
X51062533Y50381711D01*
X51062534Y50381713D01*
X51157179Y50545643D01*
X51215674Y50725671D01*
X51235460Y50913927D01*
X51215674Y51102183D01*
X51203073Y51140966D01*
X51157181Y51282206D01*
X51157177Y51282214D01*
X51062534Y51446142D01*
X51062533Y51446144D01*
X50935873Y51586814D01*
X50782732Y51698077D01*
X50782732Y51698078D01*
X50657145Y51753993D01*
X50609803Y51775071D01*
X50609801Y51775072D01*
X50609800Y51775072D01*
X50424646Y51814427D01*
X50235354Y51814427D01*
X50050199Y51775072D01*
X49877267Y51698078D01*
X49877265Y51698076D01*
X49864075Y51688492D01*
X49797208Y51664633D01*
X49790013Y51664427D01*
X29022059Y51664427D01*
X29022056Y51664427D01*
X29022050Y51664426D01*
X28993219Y51658692D01*
X28993218Y51658691D01*
X28915782Y51643288D01*
X28877064Y51635586D01*
X28877057Y51635584D01*
X28797057Y51602448D01*
X28797058Y51602447D01*
X28740486Y51579014D01*
X28740485Y51579013D01*
X28658349Y51524132D01*
X28617562Y51496880D01*
X28617556Y51496875D01*
X26632673Y49511993D01*
X26570361Y49477967D01*
X26569776Y49477842D01*
X26505228Y49464122D01*
X26332292Y49387126D01*
X26332292Y49387125D01*
X26179151Y49275862D01*
X26052491Y49135192D01*
X26052490Y49135190D01*
X25957847Y48971262D01*
X25957843Y48971254D01*
X25899350Y48791232D01*
X25879565Y48602975D01*
X25899350Y48414719D01*
X25957843Y48234697D01*
X25957847Y48234689D01*
X26052490Y48070761D01*
X26052491Y48070759D01*
X26179151Y47930089D01*
X26332292Y47818826D01*
X26332292Y47818825D01*
X26379637Y47797746D01*
X26505222Y47741831D01*
X26690379Y47702475D01*
X26879671Y47702475D01*
X27064828Y47741831D01*
X27237755Y47818824D01*
X27237755Y47818825D01*
X27237757Y47818825D01*
X27237757Y47818826D01*
X27390896Y47930087D01*
X27439306Y47983851D01*
X27517558Y48070759D01*
X27517559Y48070761D01*
X27531619Y48095114D01*
X27612204Y48234691D01*
X27612560Y48235784D01*
X27637442Y48312367D01*
X27667398Y48404563D01*
X27698134Y48454718D01*
X29369939Y50126522D01*
X29432251Y50160548D01*
X29459034Y50163427D01*
X30259135Y50163427D01*
X30327256Y50143425D01*
X30373749Y50089769D01*
X30383853Y50019495D01*
X30354359Y49954915D01*
X30334214Y49937142D01*
X30334403Y49936911D01*
X30329610Y49932978D01*
X26394037Y45997405D01*
X26331725Y45963379D01*
X26304942Y45960500D01*
X12096499Y45960500D01*
X12028378Y45980502D01*
X11981885Y46034158D01*
X11970499Y46086500D01*
X11970499Y47257865D01*
X11970499Y47257872D01*
X11964091Y47317483D01*
X11942800Y47374565D01*
X11913798Y47452327D01*
X11913796Y47452330D01*
X11913796Y47452331D01*
X11870671Y47509939D01*
X11827546Y47567547D01*
X11750591Y47625155D01*
X11712331Y47653796D01*
X11712329Y47653797D01*
X11712326Y47653799D01*
X11577483Y47704091D01*
X11577486Y47704091D01*
X11517873Y47710500D01*
X7422135Y47710500D01*
X7422114Y47710498D01*
X7362519Y47704092D01*
X7362518Y47704092D01*
X7227673Y47653799D01*
X7227670Y47653797D01*
X7112453Y47567547D01*
X7026203Y47452330D01*
X7026201Y47452327D01*
X6975909Y47317485D01*
X6969500Y47257879D01*
X6969500Y43162136D01*
X6969502Y43162115D01*
X6975908Y43102520D01*
X6975908Y43102519D01*
X7026201Y42967674D01*
X7026203Y42967671D01*
X7112453Y42852454D01*
X7144443Y42828507D01*
X7227669Y42766204D01*
X7227671Y42766204D01*
X7227673Y42766202D01*
X7288030Y42743691D01*
X7362514Y42715910D01*
X7362517Y42715909D01*
X7422127Y42709500D01*
X11517872Y42709501D01*
X11577483Y42715909D01*
X11712331Y42766204D01*
X11827546Y42852454D01*
X11913796Y42967669D01*
X11964091Y43102517D01*
X11970500Y43162127D01*
X11970500Y44333500D01*
X11990502Y44401621D01*
X12044158Y44448114D01*
X12096500Y44459500D01*
X26741913Y44459500D01*
X26741917Y44459500D01*
X26741918Y44459500D01*
X26886913Y44488342D01*
X27023495Y44544916D01*
X27072729Y44577814D01*
X27146416Y44627048D01*
X31081991Y48562625D01*
X31144303Y48596649D01*
X31171086Y48599529D01*
X32703544Y48599529D01*
X32771665Y48579527D01*
X32818158Y48525871D01*
X32828262Y48455597D01*
X32798768Y48391017D01*
X32792639Y48384434D01*
X18012647Y33604443D01*
X17950335Y33570417D01*
X17879520Y33575482D01*
X17822684Y33618029D01*
X17814432Y33630539D01*
X17750532Y33741218D01*
X17700864Y33796380D01*
X17670146Y33860387D01*
X17668500Y33880690D01*
X17668500Y34174065D01*
X17668500Y34174069D01*
X17643501Y34299744D01*
X17594465Y34418127D01*
X17593959Y34418885D01*
X17585042Y34432231D01*
X17585042Y34432230D01*
X17523277Y34524669D01*
X17523276Y34524670D01*
X17523273Y34524674D01*
X16032673Y36015274D01*
X16032669Y36015277D01*
X15926127Y36086465D01*
X15807746Y36135500D01*
X15807745Y36135501D01*
X15765852Y36143834D01*
X15682069Y36160500D01*
X15682067Y36160500D01*
X14958125Y36160500D01*
X14890004Y36180502D01*
X14884064Y36184564D01*
X14871405Y36193761D01*
X14851073Y36208534D01*
X14733232Y36294150D01*
X14733232Y36294151D01*
X14607645Y36350066D01*
X14560303Y36371144D01*
X14560301Y36371145D01*
X14560300Y36371145D01*
X14375146Y36410500D01*
X14185854Y36410500D01*
X14000699Y36371145D01*
X13827767Y36294151D01*
X13827767Y36294150D01*
X13674626Y36182887D01*
X13547966Y36042217D01*
X13547965Y36042215D01*
X13453322Y35878287D01*
X13453318Y35878279D01*
X13394825Y35698257D01*
X13375040Y35510000D01*
X13394825Y35321744D01*
X13453318Y35141722D01*
X13453322Y35141714D01*
X13547965Y34977786D01*
X13547966Y34977784D01*
X13674626Y34837114D01*
X13827767Y34725851D01*
X13827767Y34725850D01*
X13875112Y34704771D01*
X14000697Y34648856D01*
X14185854Y34609500D01*
X14375146Y34609500D01*
X14560303Y34648856D01*
X14733230Y34725849D01*
X14733230Y34725850D01*
X14733232Y34725850D01*
X14733232Y34725851D01*
X14884064Y34835437D01*
X14950932Y34859294D01*
X14958125Y34859500D01*
X15296364Y34859500D01*
X15364485Y34839498D01*
X15385459Y34822595D01*
X16286851Y33921203D01*
X16320877Y33858891D01*
X16315812Y33788076D01*
X16291395Y33747801D01*
X16285466Y33741217D01*
X16285465Y33741215D01*
X16190822Y33577287D01*
X16190818Y33577279D01*
X16132325Y33397257D01*
X16112540Y33209000D01*
X16132325Y33020744D01*
X16190818Y32840722D01*
X16190822Y32840714D01*
X16285465Y32676786D01*
X16285466Y32676784D01*
X16412126Y32536114D01*
X16565267Y32424851D01*
X16565270Y32424849D01*
X16583076Y32416921D01*
X16637172Y32370942D01*
X16657822Y32303015D01*
X16638470Y32234706D01*
X16620923Y32212719D01*
X13105611Y28697405D01*
X13043299Y28663380D01*
X13016516Y28660500D01*
X9315534Y28660500D01*
X9008543Y28625911D01*
X8707357Y28557167D01*
X8415788Y28455142D01*
X8415760Y28455131D01*
X8348995Y28422978D01*
X8294326Y28410500D01*
X7422135Y28410500D01*
X7422114Y28410498D01*
X7362519Y28404092D01*
X7362518Y28404092D01*
X7227673Y28353799D01*
X7227670Y28353797D01*
X7112453Y28267547D01*
X7026203Y28152330D01*
X7026201Y28152327D01*
X6975909Y28017485D01*
X6969500Y27957879D01*
X6969500Y27085674D01*
X6957022Y27031005D01*
X6924869Y26964240D01*
X6924858Y26964212D01*
X6822833Y26672643D01*
X6754089Y26371457D01*
X6719500Y26064466D01*
X5344500Y26064466D01*
X5344500Y30515001D01*
X11809552Y30515001D01*
X11809553Y30515000D01*
X12552447Y30515000D01*
X12552447Y30515001D01*
X12181001Y30886447D01*
X12180999Y30886447D01*
X11809552Y30515001D01*
X5344500Y30515001D01*
X5344500Y31311409D01*
X10931000Y31311409D01*
X10931000Y31168592D01*
X10958861Y31028525D01*
X10958863Y31028520D01*
X11013513Y30896585D01*
X11092853Y30777844D01*
X11092854Y30777842D01*
X11193840Y30676855D01*
X11193842Y30676854D01*
X11236078Y30648633D01*
X11540982Y30953537D01*
X11591504Y30940000D01*
X12770496Y30940000D01*
X12821015Y30953537D01*
X13125919Y30648633D01*
X13125920Y30648633D01*
X13168159Y30676855D01*
X13269145Y30777842D01*
X13269146Y30777844D01*
X13348486Y30896585D01*
X13403136Y31028520D01*
X13403138Y31028525D01*
X13430999Y31168592D01*
X13431000Y31168596D01*
X13431000Y31311405D01*
X13430999Y31311409D01*
X13403138Y31451476D01*
X13403136Y31451481D01*
X13348486Y31583416D01*
X13269146Y31702157D01*
X13269145Y31702159D01*
X13168159Y31803146D01*
X13168157Y31803147D01*
X13125920Y31831369D01*
X12821015Y31526464D01*
X12770496Y31540000D01*
X11591504Y31540000D01*
X11540984Y31526464D01*
X11236079Y31831369D01*
X11193839Y31803145D01*
X11092854Y31702159D01*
X11092853Y31702157D01*
X11013513Y31583416D01*
X10958863Y31451481D01*
X10958861Y31451476D01*
X10931000Y31311409D01*
X5344500Y31311409D01*
X5344500Y31965000D01*
X11809552Y31965000D01*
X12180999Y31593553D01*
X12181001Y31593553D01*
X12552447Y31965000D01*
X11809552Y31965000D01*
X5344500Y31965000D01*
X5344500Y32712988D01*
X11354500Y32712988D01*
X11354500Y32627013D01*
X11376749Y32543980D01*
X11376750Y32543977D01*
X11376751Y32543976D01*
X11419735Y32469525D01*
X11419737Y32469523D01*
X11419740Y32469519D01*
X11480518Y32408741D01*
X11480522Y32408738D01*
X11480525Y32408735D01*
X11554976Y32365751D01*
X11554978Y32365751D01*
X11554979Y32365750D01*
X11633444Y32344725D01*
X11638016Y32343500D01*
X11723984Y32343500D01*
X11807024Y32365751D01*
X11881475Y32408735D01*
X11942265Y32469525D01*
X11985249Y32543976D01*
X12007500Y32627016D01*
X12007500Y32712984D01*
X11994770Y32760493D01*
X11985250Y32796021D01*
X11985249Y32796022D01*
X11985249Y32796024D01*
X11942265Y32870475D01*
X11942262Y32870478D01*
X11942259Y32870482D01*
X11881481Y32931260D01*
X11881477Y32931263D01*
X11881475Y32931265D01*
X11807024Y32974249D01*
X11807023Y32974250D01*
X11807020Y32974251D01*
X11723987Y32996500D01*
X11723984Y32996500D01*
X11638016Y32996500D01*
X11638012Y32996500D01*
X11554979Y32974251D01*
X11480526Y32931266D01*
X11480518Y32931260D01*
X11419740Y32870482D01*
X11419734Y32870474D01*
X11376749Y32796021D01*
X11354500Y32712988D01*
X5344500Y32712988D01*
X5344500Y38494169D01*
X11345500Y38494169D01*
X11345500Y38405831D01*
X11368364Y38320502D01*
X11412533Y38243998D01*
X11412535Y38243996D01*
X11412538Y38243992D01*
X11474991Y38181539D01*
X11474995Y38181536D01*
X11474998Y38181533D01*
X11551502Y38137364D01*
X11636831Y38114500D01*
X11636834Y38114500D01*
X11725166Y38114500D01*
X11725169Y38114500D01*
X11810498Y38137364D01*
X11887002Y38181533D01*
X11949467Y38243998D01*
X11993636Y38320502D01*
X12016500Y38405831D01*
X12016500Y38494169D01*
X11993636Y38579498D01*
X11949467Y38656002D01*
X11949464Y38656005D01*
X11949461Y38656009D01*
X11887008Y38718462D01*
X11887004Y38718465D01*
X11887002Y38718467D01*
X11838177Y38746656D01*
X11810500Y38762635D01*
X11810499Y38762636D01*
X11810498Y38762636D01*
X11725169Y38785500D01*
X11636831Y38785500D01*
X11551502Y38762636D01*
X11551501Y38762636D01*
X11551499Y38762635D01*
X11474999Y38718468D01*
X11474991Y38718462D01*
X11412538Y38656009D01*
X11412532Y38656001D01*
X11368365Y38579501D01*
X11368364Y38579499D01*
X11368364Y38579498D01*
X11345500Y38494169D01*
X5344500Y38494169D01*
X5344500Y39155001D01*
X11809552Y39155001D01*
X11809553Y39155000D01*
X12552447Y39155000D01*
X12552447Y39155001D01*
X12181001Y39526447D01*
X12180999Y39526447D01*
X11809552Y39155001D01*
X5344500Y39155001D01*
X5344500Y39951409D01*
X10931000Y39951409D01*
X10931000Y39808592D01*
X10958861Y39668525D01*
X10958863Y39668520D01*
X11013513Y39536585D01*
X11092853Y39417844D01*
X11092854Y39417842D01*
X11193840Y39316855D01*
X11193842Y39316854D01*
X11236078Y39288633D01*
X11540982Y39593537D01*
X11591504Y39580000D01*
X12770496Y39580000D01*
X12821015Y39593537D01*
X13125919Y39288633D01*
X13125920Y39288633D01*
X13168159Y39316855D01*
X13269145Y39417842D01*
X13269146Y39417844D01*
X13348486Y39536585D01*
X13403136Y39668520D01*
X13403138Y39668525D01*
X13430999Y39808592D01*
X13431000Y39808596D01*
X13431000Y39951405D01*
X13430999Y39951409D01*
X13403138Y40091476D01*
X13403136Y40091481D01*
X13348486Y40223416D01*
X13269146Y40342157D01*
X13269145Y40342159D01*
X13168159Y40443146D01*
X13168157Y40443147D01*
X13125920Y40471369D01*
X12821015Y40166464D01*
X12770496Y40180000D01*
X11591504Y40180000D01*
X11540984Y40166464D01*
X11236079Y40471369D01*
X11193839Y40443145D01*
X11092854Y40342159D01*
X11092853Y40342157D01*
X11013513Y40223416D01*
X10958863Y40091481D01*
X10958861Y40091476D01*
X10931000Y39951409D01*
X5344500Y39951409D01*
X5344500Y40605000D01*
X11809552Y40605000D01*
X12180999Y40233553D01*
X12181001Y40233553D01*
X12552447Y40605000D01*
X11809552Y40605000D01*
X5344500Y40605000D01*
X5344500Y54356000D01*
X14207540Y54356000D01*
X14227325Y54167744D01*
X14285818Y53987722D01*
X14285821Y53987715D01*
X14380468Y53823782D01*
X14430135Y53768623D01*
X14460853Y53704616D01*
X14462500Y53684311D01*
X14462500Y51751928D01*
X14473212Y51698078D01*
X14479906Y51664427D01*
X14487499Y51626256D01*
X14536534Y51507874D01*
X14607723Y51401331D01*
X14607726Y51401327D01*
X17225689Y48783365D01*
X17259715Y48721053D01*
X17261904Y48707441D01*
X17275325Y48579743D01*
X17333818Y48399722D01*
X17333822Y48399714D01*
X17428465Y48235786D01*
X17428466Y48235784D01*
X17555126Y48095114D01*
X17708267Y47983851D01*
X17708267Y47983850D01*
X17755612Y47962771D01*
X17881197Y47906856D01*
X18066354Y47867500D01*
X18255646Y47867500D01*
X18440803Y47906856D01*
X18613730Y47983849D01*
X18613730Y47983850D01*
X18613732Y47983850D01*
X18613732Y47983851D01*
X18766871Y48095112D01*
X18893533Y48235784D01*
X18988179Y48399716D01*
X19029170Y48525871D01*
X19046674Y48579744D01*
X19048753Y48599529D01*
X19066460Y48768000D01*
X19046674Y48956256D01*
X19041801Y48971254D01*
X18988181Y49136279D01*
X18988177Y49136287D01*
X18893534Y49300215D01*
X18893533Y49300217D01*
X18766873Y49440887D01*
X18613732Y49552150D01*
X18613732Y49552151D01*
X18488145Y49608066D01*
X18440803Y49629144D01*
X18440801Y49629145D01*
X18440800Y49629145D01*
X18255646Y49668500D01*
X18232636Y49668500D01*
X18164515Y49688502D01*
X18143541Y49705405D01*
X15800405Y52048541D01*
X15766379Y52110853D01*
X15763500Y52137636D01*
X15763500Y53684311D01*
X15783502Y53752432D01*
X15795865Y53768623D01*
X15845531Y53823782D01*
X15845530Y53823782D01*
X15845533Y53823784D01*
X15940179Y53987716D01*
X15998674Y54167744D01*
X16018460Y54356000D01*
X15998674Y54544256D01*
X15940179Y54724284D01*
X15872303Y54841849D01*
X15845534Y54888215D01*
X15845533Y54888217D01*
X15718873Y55028887D01*
X15565732Y55140150D01*
X15565732Y55140151D01*
X15405859Y55211331D01*
X15392803Y55217144D01*
X15392801Y55217145D01*
X15392800Y55217145D01*
X15207646Y55256500D01*
X15018354Y55256500D01*
X14833199Y55217145D01*
X14660267Y55140151D01*
X14660267Y55140150D01*
X14507126Y55028887D01*
X14380466Y54888217D01*
X14380465Y54888215D01*
X14285822Y54724287D01*
X14285818Y54724279D01*
X14227325Y54544257D01*
X14207540Y54356000D01*
X5344500Y54356000D01*
X5344500Y60960004D01*
X6154675Y60960004D01*
X6154675Y60959997D01*
X6173962Y60567413D01*
X6173963Y60567399D01*
X6214920Y60291292D01*
X6231636Y60178600D01*
X6300248Y59904685D01*
X6327144Y59797311D01*
X6403998Y59582520D01*
X6459562Y59427228D01*
X6627619Y59071903D01*
X6627621Y59071900D01*
X6829696Y58734757D01*
X7063834Y58419058D01*
X7063841Y58419050D01*
X7063842Y58419049D01*
X7327808Y58127808D01*
X7619049Y57863842D01*
X7619057Y57863835D01*
X7934756Y57629697D01*
X7934760Y57629695D01*
X7934761Y57629694D01*
X8271903Y57427619D01*
X8627228Y57259562D01*
X8997316Y57127143D01*
X9378600Y57031636D01*
X9767409Y56973962D01*
X10102590Y56957496D01*
X10159996Y56954675D01*
X10160000Y56954675D01*
X10160004Y56954675D01*
X10215384Y56957396D01*
X10552591Y56973962D01*
X10941400Y57031636D01*
X11322684Y57127143D01*
X11692772Y57259562D01*
X12048097Y57427619D01*
X12385239Y57629694D01*
X12700951Y57863842D01*
X12992192Y58127808D01*
X13256158Y58419049D01*
X13292363Y58467865D01*
X13490303Y58734757D01*
X13490302Y58734757D01*
X13490306Y58734761D01*
X13692381Y59071903D01*
X13860438Y59427228D01*
X13992857Y59797316D01*
X14004821Y59845079D01*
X24285000Y59845079D01*
X24285000Y55939336D01*
X24285002Y55939315D01*
X24291408Y55879720D01*
X24291408Y55879719D01*
X24341701Y55744874D01*
X24341703Y55744871D01*
X24427953Y55629654D01*
X24485561Y55586529D01*
X24543169Y55543404D01*
X24543171Y55543404D01*
X24543173Y55543402D01*
X24603530Y55520891D01*
X24678014Y55493110D01*
X24678017Y55493109D01*
X24737627Y55486700D01*
X28643372Y55486701D01*
X28702983Y55493109D01*
X28837831Y55543404D01*
X28953046Y55629654D01*
X29039296Y55744869D01*
X29072444Y55833743D01*
X29114990Y55890579D01*
X29181510Y55915391D01*
X29250884Y55900300D01*
X29301087Y55850098D01*
X29308556Y55833743D01*
X29341701Y55744874D01*
X29341703Y55744871D01*
X29427953Y55629654D01*
X29485561Y55586529D01*
X29543169Y55543404D01*
X29543171Y55543404D01*
X29543173Y55543402D01*
X29603530Y55520891D01*
X29678014Y55493110D01*
X29678017Y55493109D01*
X29737627Y55486700D01*
X33643372Y55486701D01*
X33702983Y55493109D01*
X33837831Y55543404D01*
X33953046Y55629654D01*
X34039296Y55744869D01*
X34089591Y55879717D01*
X34096000Y55939327D01*
X34095999Y59845072D01*
X34089591Y59904683D01*
X34068300Y59961765D01*
X34039298Y60039527D01*
X34039296Y60039530D01*
X34039296Y60039531D01*
X33996171Y60097139D01*
X33953046Y60154747D01*
X33876091Y60212355D01*
X33837831Y60240996D01*
X33837829Y60240997D01*
X33837826Y60240999D01*
X33702983Y60291291D01*
X33702986Y60291291D01*
X33643373Y60297700D01*
X29737635Y60297700D01*
X29737614Y60297698D01*
X29678019Y60291292D01*
X29678018Y60291292D01*
X29543173Y60240999D01*
X29543170Y60240997D01*
X29427953Y60154747D01*
X29341703Y60039530D01*
X29341702Y60039529D01*
X29308556Y59950657D01*
X29266010Y59893821D01*
X29199490Y59869010D01*
X29130115Y59884101D01*
X29079913Y59934303D01*
X29072444Y59950657D01*
X29039297Y60039529D01*
X29039296Y60039530D01*
X29039296Y60039531D01*
X28996171Y60097139D01*
X28953046Y60154747D01*
X28876091Y60212355D01*
X28837831Y60240996D01*
X28837829Y60240997D01*
X28837826Y60240999D01*
X28702983Y60291291D01*
X28702986Y60291291D01*
X28643373Y60297700D01*
X24737635Y60297700D01*
X24737614Y60297698D01*
X24678019Y60291292D01*
X24678018Y60291292D01*
X24543173Y60240999D01*
X24543170Y60240997D01*
X24427953Y60154747D01*
X24341703Y60039530D01*
X24341701Y60039527D01*
X24291409Y59904685D01*
X24285000Y59845079D01*
X14004821Y59845079D01*
X14088364Y60178600D01*
X14146038Y60567409D01*
X14165325Y60960000D01*
X14162972Y61007886D01*
X14160045Y61067482D01*
X14150495Y61261879D01*
X38361500Y61261879D01*
X38361500Y59642136D01*
X38361502Y59642115D01*
X38367908Y59582520D01*
X38367908Y59582519D01*
X38418201Y59447674D01*
X38418203Y59447671D01*
X38418204Y59447669D01*
X38461086Y59390386D01*
X38504452Y59332456D01*
X38504453Y59332456D01*
X38504454Y59332454D01*
X38570693Y59282867D01*
X38613239Y59226032D01*
X38618303Y59155216D01*
X38584278Y59092904D01*
X38570697Y59081137D01*
X38558364Y59071903D01*
X38504452Y59031545D01*
X38418203Y58916330D01*
X38418201Y58916327D01*
X38367909Y58781485D01*
X38361500Y58721879D01*
X38361500Y57102136D01*
X38361502Y57102115D01*
X38367908Y57042520D01*
X38367908Y57042519D01*
X38418201Y56907674D01*
X38418203Y56907671D01*
X38504453Y56792454D01*
X38509714Y56788516D01*
X38619669Y56706204D01*
X38619671Y56706204D01*
X38619673Y56706202D01*
X38678067Y56684423D01*
X38754514Y56655910D01*
X38754517Y56655909D01*
X38814127Y56649500D01*
X39914363Y56649501D01*
X39982484Y56629499D01*
X40003458Y56612596D01*
X40715755Y55900300D01*
X41404724Y55211331D01*
X41495331Y55120724D01*
X41601873Y55049535D01*
X41720256Y55000499D01*
X41845931Y54975500D01*
X42451575Y54975500D01*
X42519696Y54955498D01*
X42525636Y54951436D01*
X42676467Y54841851D01*
X42676467Y54841850D01*
X42723812Y54820771D01*
X42849397Y54764856D01*
X43034554Y54725500D01*
X43223846Y54725500D01*
X43409003Y54764856D01*
X43581930Y54841849D01*
X43581930Y54841850D01*
X43581932Y54841850D01*
X43581932Y54841851D01*
X43735071Y54953112D01*
X43737220Y54955498D01*
X43861733Y55093784D01*
X43861734Y55093786D01*
X43956379Y55257716D01*
X44014874Y55437744D01*
X44034660Y55626000D01*
X44014874Y55814256D01*
X44014874Y55814257D01*
X43956381Y55994279D01*
X43956377Y55994287D01*
X43861734Y56158215D01*
X43861733Y56158217D01*
X43735073Y56298887D01*
X43581932Y56410150D01*
X43581932Y56410151D01*
X43456345Y56466066D01*
X43409003Y56487144D01*
X43409001Y56487145D01*
X43409000Y56487145D01*
X43265220Y56517706D01*
X43202747Y56551435D01*
X43168425Y56613584D01*
X43173153Y56684423D01*
X43215429Y56741461D01*
X43215625Y56741609D01*
X43283546Y56792454D01*
X43333133Y56858694D01*
X43389968Y56901240D01*
X43460783Y56906304D01*
X43523095Y56872279D01*
X43534863Y56858698D01*
X43584454Y56792454D01*
X43699669Y56706204D01*
X43699671Y56706204D01*
X43699673Y56706202D01*
X43758067Y56684423D01*
X43834514Y56655910D01*
X43834517Y56655909D01*
X43894127Y56649500D01*
X45513872Y56649501D01*
X45573483Y56655909D01*
X45708331Y56706204D01*
X45823546Y56792454D01*
X45873133Y56858694D01*
X45929968Y56901240D01*
X46000783Y56906304D01*
X46063095Y56872279D01*
X46074863Y56858698D01*
X46124454Y56792454D01*
X46239669Y56706204D01*
X46239671Y56706204D01*
X46239673Y56706202D01*
X46298067Y56684423D01*
X46374514Y56655910D01*
X46374517Y56655909D01*
X46434127Y56649500D01*
X48053872Y56649501D01*
X48113483Y56655909D01*
X48248331Y56706204D01*
X48363546Y56792454D01*
X48413133Y56858694D01*
X48469968Y56901240D01*
X48540783Y56906304D01*
X48603095Y56872279D01*
X48614863Y56858698D01*
X48664454Y56792454D01*
X48779669Y56706204D01*
X48779671Y56706204D01*
X48779673Y56706202D01*
X48838067Y56684423D01*
X48914514Y56655910D01*
X48914517Y56655909D01*
X48974127Y56649500D01*
X50593872Y56649501D01*
X50653483Y56655909D01*
X50788331Y56706204D01*
X50903546Y56792454D01*
X50989796Y56907669D01*
X51040091Y57042517D01*
X51046500Y57102127D01*
X51046499Y58721872D01*
X51040091Y58781483D01*
X50995434Y58901216D01*
X50989798Y58916327D01*
X50989796Y58916330D01*
X50989796Y58916331D01*
X50903546Y59031546D01*
X50837306Y59081134D01*
X50794760Y59137968D01*
X50789696Y59208783D01*
X50823721Y59271095D01*
X50837302Y59282864D01*
X50903546Y59332454D01*
X50910751Y59342079D01*
X53169300Y59342079D01*
X53169300Y57569936D01*
X53169302Y57569915D01*
X53175708Y57510320D01*
X53175708Y57510319D01*
X53226001Y57375474D01*
X53226003Y57375471D01*
X53312253Y57260254D01*
X53369861Y57217129D01*
X53427469Y57174004D01*
X53427471Y57174004D01*
X53427473Y57174002D01*
X53487830Y57151491D01*
X53562314Y57123710D01*
X53562317Y57123709D01*
X53621927Y57117300D01*
X55394072Y57117301D01*
X55453683Y57123709D01*
X55588531Y57174004D01*
X55703746Y57260254D01*
X55789996Y57375469D01*
X55840291Y57510317D01*
X55846700Y57569927D01*
X55846699Y59342072D01*
X55846698Y59342079D01*
X59469300Y59342079D01*
X59469300Y57569936D01*
X59469302Y57569915D01*
X59475708Y57510320D01*
X59475708Y57510319D01*
X59526001Y57375474D01*
X59526003Y57375471D01*
X59612253Y57260254D01*
X59669861Y57217129D01*
X59727469Y57174004D01*
X59727471Y57174004D01*
X59727473Y57174002D01*
X59787830Y57151491D01*
X59862314Y57123710D01*
X59862317Y57123709D01*
X59921927Y57117300D01*
X61694072Y57117301D01*
X61753683Y57123709D01*
X61888531Y57174004D01*
X62003746Y57260254D01*
X62089996Y57375469D01*
X62140291Y57510317D01*
X62146700Y57569927D01*
X62146699Y59342072D01*
X62140291Y59401683D01*
X62119000Y59458765D01*
X62089998Y59536527D01*
X62089996Y59536530D01*
X62089996Y59536531D01*
X62010947Y59642127D01*
X62003746Y59651747D01*
X61926791Y59709355D01*
X61888531Y59737996D01*
X61888529Y59737997D01*
X61888526Y59737999D01*
X61753683Y59788291D01*
X61753686Y59788291D01*
X61694073Y59794700D01*
X59921935Y59794700D01*
X59921914Y59794698D01*
X59862319Y59788292D01*
X59862318Y59788292D01*
X59727473Y59737999D01*
X59727470Y59737997D01*
X59612253Y59651747D01*
X59526003Y59536530D01*
X59526001Y59536527D01*
X59475709Y59401685D01*
X59469300Y59342079D01*
X55846698Y59342079D01*
X55840291Y59401683D01*
X55819000Y59458765D01*
X55789998Y59536527D01*
X55789996Y59536530D01*
X55789996Y59536531D01*
X55710947Y59642127D01*
X55703746Y59651747D01*
X55626791Y59709355D01*
X55588531Y59737996D01*
X55588529Y59737997D01*
X55588526Y59737999D01*
X55453683Y59788291D01*
X55453686Y59788291D01*
X55394073Y59794700D01*
X53621935Y59794700D01*
X53621914Y59794698D01*
X53562319Y59788292D01*
X53562318Y59788292D01*
X53427473Y59737999D01*
X53427470Y59737997D01*
X53312253Y59651747D01*
X53226003Y59536530D01*
X53226001Y59536527D01*
X53175709Y59401685D01*
X53169300Y59342079D01*
X50910751Y59342079D01*
X50989796Y59447669D01*
X51040091Y59582517D01*
X51046500Y59642127D01*
X51046499Y61007879D01*
X66555500Y61007879D01*
X66555500Y59388136D01*
X66555502Y59388115D01*
X66561908Y59328520D01*
X66561908Y59328519D01*
X66612201Y59193674D01*
X66612203Y59193671D01*
X66612204Y59193669D01*
X66650359Y59142700D01*
X66698452Y59078456D01*
X66698453Y59078456D01*
X66698454Y59078454D01*
X66764693Y59028867D01*
X66807239Y58972032D01*
X66812303Y58901216D01*
X66778278Y58838904D01*
X66764697Y58827137D01*
X66730061Y58801208D01*
X66698452Y58777545D01*
X66612203Y58662330D01*
X66612201Y58662327D01*
X66561909Y58527485D01*
X66555500Y58467879D01*
X66555500Y56848136D01*
X66555502Y56848115D01*
X66561908Y56788520D01*
X66561908Y56788519D01*
X66612201Y56653674D01*
X66612203Y56653671D01*
X66612204Y56653669D01*
X66617017Y56647240D01*
X66698453Y56538454D01*
X66754206Y56496718D01*
X66813669Y56452204D01*
X66813671Y56452204D01*
X66813673Y56452202D01*
X66861388Y56434406D01*
X66948514Y56401910D01*
X66948517Y56401909D01*
X67008127Y56395500D01*
X68627872Y56395501D01*
X68687483Y56401909D01*
X68822331Y56452204D01*
X68937546Y56538454D01*
X68987133Y56604694D01*
X69043968Y56647240D01*
X69114783Y56652304D01*
X69177095Y56618279D01*
X69188863Y56604698D01*
X69238454Y56538454D01*
X69353669Y56452204D01*
X69353671Y56452204D01*
X69353673Y56452202D01*
X69401388Y56434406D01*
X69488514Y56401910D01*
X69488517Y56401909D01*
X69548127Y56395500D01*
X71167872Y56395501D01*
X71227483Y56401909D01*
X71362331Y56452204D01*
X71477546Y56538454D01*
X71527133Y56604694D01*
X71583968Y56647240D01*
X71654783Y56652304D01*
X71717095Y56618279D01*
X71728863Y56604698D01*
X71778454Y56538454D01*
X71893669Y56452204D01*
X71893671Y56452204D01*
X71893673Y56452202D01*
X71941388Y56434406D01*
X72028514Y56401910D01*
X72028517Y56401909D01*
X72088127Y56395500D01*
X73707872Y56395501D01*
X73767483Y56401909D01*
X73902331Y56452204D01*
X74017546Y56538454D01*
X74103796Y56653669D01*
X74104632Y56655909D01*
X74115266Y56684423D01*
X74154091Y56788517D01*
X74160500Y56848127D01*
X74160499Y58467872D01*
X74154091Y58527483D01*
X74132800Y58584565D01*
X74103798Y58662327D01*
X74103796Y58662330D01*
X74103796Y58662331D01*
X74017546Y58777546D01*
X73951306Y58827134D01*
X73908760Y58883968D01*
X73903696Y58954783D01*
X73937721Y59017095D01*
X73951302Y59028864D01*
X74017546Y59078454D01*
X74103796Y59193669D01*
X74104632Y59195909D01*
X74137065Y59282868D01*
X74154091Y59328517D01*
X74160500Y59388127D01*
X74160499Y60960004D01*
X77274675Y60960004D01*
X77274675Y60959997D01*
X77293962Y60567413D01*
X77293963Y60567399D01*
X77334920Y60291292D01*
X77351636Y60178600D01*
X77420248Y59904685D01*
X77447144Y59797311D01*
X77523998Y59582520D01*
X77579562Y59427228D01*
X77747619Y59071903D01*
X77747621Y59071900D01*
X77949696Y58734757D01*
X78183834Y58419058D01*
X78183841Y58419050D01*
X78183842Y58419049D01*
X78447808Y58127808D01*
X78739049Y57863842D01*
X78739057Y57863835D01*
X79054756Y57629697D01*
X79054760Y57629695D01*
X79054761Y57629694D01*
X79391903Y57427619D01*
X79747228Y57259562D01*
X80117316Y57127143D01*
X80498600Y57031636D01*
X80887409Y56973962D01*
X81222590Y56957496D01*
X81279996Y56954675D01*
X81280000Y56954675D01*
X81280004Y56954675D01*
X81335384Y56957396D01*
X81672591Y56973962D01*
X82061400Y57031636D01*
X82442684Y57127143D01*
X82812772Y57259562D01*
X83168097Y57427619D01*
X83505239Y57629694D01*
X83820951Y57863842D01*
X84112192Y58127808D01*
X84376158Y58419049D01*
X84412363Y58467865D01*
X84610303Y58734757D01*
X84610302Y58734757D01*
X84610306Y58734761D01*
X84812381Y59071903D01*
X84980438Y59427228D01*
X85112857Y59797316D01*
X85208364Y60178600D01*
X85266038Y60567409D01*
X85285325Y60960000D01*
X85282972Y61007886D01*
X85280045Y61067482D01*
X85266038Y61352591D01*
X85208364Y61741400D01*
X85112857Y62122684D01*
X84980438Y62492772D01*
X84812381Y62848097D01*
X84610306Y63185239D01*
X84610305Y63185240D01*
X84610303Y63185244D01*
X84376165Y63500943D01*
X84376158Y63500951D01*
X84112192Y63792192D01*
X83820951Y64056158D01*
X83820950Y64056159D01*
X83820942Y64056166D01*
X83505243Y64290304D01*
X83168100Y64492379D01*
X83168101Y64492379D01*
X83168097Y64492381D01*
X82812772Y64660438D01*
X82781266Y64671711D01*
X82442689Y64792856D01*
X82346995Y64816826D01*
X82061400Y64888364D01*
X82032816Y64892604D01*
X81672601Y64946037D01*
X81672594Y64946038D01*
X81672591Y64946038D01*
X81476295Y64955682D01*
X81280004Y64965325D01*
X81279996Y64965325D01*
X81055662Y64954304D01*
X80887409Y64946038D01*
X80887406Y64946038D01*
X80887398Y64946037D01*
X80498606Y64888365D01*
X80498604Y64888365D01*
X80498600Y64888364D01*
X80307958Y64840611D01*
X80117310Y64792856D01*
X79747230Y64660439D01*
X79391899Y64492379D01*
X79054756Y64290304D01*
X78739057Y64056166D01*
X78447808Y63792192D01*
X78183834Y63500943D01*
X77949696Y63185244D01*
X77747621Y62848101D01*
X77579561Y62492770D01*
X77447144Y62122690D01*
X77433925Y62069915D01*
X77351636Y61741400D01*
X77351635Y61741396D01*
X77351635Y61741394D01*
X77293963Y61352602D01*
X77293962Y61352594D01*
X77293962Y61352591D01*
X77292240Y61317547D01*
X77274675Y60960004D01*
X74160499Y60960004D01*
X74160499Y61007872D01*
X74154091Y61067483D01*
X74132800Y61124565D01*
X74103798Y61202327D01*
X74103796Y61202330D01*
X74103796Y61202331D01*
X74059213Y61261886D01*
X74017546Y61317547D01*
X73940591Y61375155D01*
X73902331Y61403796D01*
X73902329Y61403797D01*
X73902326Y61403799D01*
X73767483Y61454091D01*
X73767486Y61454091D01*
X73707873Y61460500D01*
X72088135Y61460500D01*
X72088114Y61460498D01*
X72028519Y61454092D01*
X72028518Y61454092D01*
X71893673Y61403799D01*
X71893670Y61403797D01*
X71778455Y61317548D01*
X71778454Y61317546D01*
X71728866Y61251307D01*
X71672032Y61208761D01*
X71601216Y61203697D01*
X71538904Y61237722D01*
X71527136Y61251303D01*
X71477546Y61317546D01*
X71477544Y61317547D01*
X71477544Y61317548D01*
X71419614Y61360914D01*
X71362331Y61403796D01*
X71362329Y61403797D01*
X71362326Y61403799D01*
X71227483Y61454091D01*
X71227486Y61454091D01*
X71167873Y61460500D01*
X69548135Y61460500D01*
X69548114Y61460498D01*
X69488519Y61454092D01*
X69488518Y61454092D01*
X69353673Y61403799D01*
X69353670Y61403797D01*
X69238455Y61317548D01*
X69238454Y61317546D01*
X69188866Y61251307D01*
X69132032Y61208761D01*
X69061216Y61203697D01*
X68998904Y61237722D01*
X68987136Y61251303D01*
X68937546Y61317546D01*
X68937544Y61317547D01*
X68937544Y61317548D01*
X68879614Y61360914D01*
X68822331Y61403796D01*
X68822329Y61403797D01*
X68822326Y61403799D01*
X68687483Y61454091D01*
X68687486Y61454091D01*
X68627873Y61460500D01*
X67008135Y61460500D01*
X67008114Y61460498D01*
X66948519Y61454092D01*
X66948518Y61454092D01*
X66813673Y61403799D01*
X66813670Y61403797D01*
X66698453Y61317547D01*
X66612203Y61202330D01*
X66612201Y61202327D01*
X66561909Y61067485D01*
X66555500Y61007879D01*
X51046499Y61007879D01*
X51046499Y61261872D01*
X51040091Y61321483D01*
X51009389Y61403799D01*
X50989798Y61456327D01*
X50989796Y61456330D01*
X50989796Y61456331D01*
X50946671Y61513939D01*
X50903546Y61571547D01*
X50826591Y61629155D01*
X50788331Y61657796D01*
X50788329Y61657797D01*
X50788326Y61657799D01*
X50653483Y61708091D01*
X50653486Y61708091D01*
X50593873Y61714500D01*
X48974135Y61714500D01*
X48974114Y61714498D01*
X48914519Y61708092D01*
X48914518Y61708092D01*
X48779673Y61657799D01*
X48779670Y61657797D01*
X48664455Y61571548D01*
X48664454Y61571546D01*
X48614866Y61505307D01*
X48558032Y61462761D01*
X48487216Y61457697D01*
X48424904Y61491722D01*
X48413136Y61505303D01*
X48363546Y61571546D01*
X48363544Y61571547D01*
X48363544Y61571548D01*
X48293864Y61623710D01*
X48248331Y61657796D01*
X48248329Y61657797D01*
X48248326Y61657799D01*
X48113483Y61708091D01*
X48113486Y61708091D01*
X48053873Y61714500D01*
X46434135Y61714500D01*
X46434114Y61714498D01*
X46374519Y61708092D01*
X46374518Y61708092D01*
X46239673Y61657799D01*
X46239670Y61657797D01*
X46124455Y61571548D01*
X46124454Y61571546D01*
X46074866Y61505307D01*
X46018032Y61462761D01*
X45947216Y61457697D01*
X45884904Y61491722D01*
X45873136Y61505303D01*
X45823546Y61571546D01*
X45823544Y61571547D01*
X45823544Y61571548D01*
X45753864Y61623710D01*
X45708331Y61657796D01*
X45708329Y61657797D01*
X45708326Y61657799D01*
X45573483Y61708091D01*
X45573486Y61708091D01*
X45513873Y61714500D01*
X43894135Y61714500D01*
X43894114Y61714498D01*
X43834519Y61708092D01*
X43834518Y61708092D01*
X43699673Y61657799D01*
X43699670Y61657797D01*
X43584455Y61571548D01*
X43584454Y61571546D01*
X43534866Y61505307D01*
X43478032Y61462761D01*
X43407216Y61457697D01*
X43344904Y61491722D01*
X43333136Y61505303D01*
X43283546Y61571546D01*
X43283544Y61571547D01*
X43283544Y61571548D01*
X43213864Y61623710D01*
X43168331Y61657796D01*
X43168329Y61657797D01*
X43168326Y61657799D01*
X43033483Y61708091D01*
X43033486Y61708091D01*
X42973873Y61714500D01*
X41354135Y61714500D01*
X41354114Y61714498D01*
X41294519Y61708092D01*
X41294518Y61708092D01*
X41159673Y61657799D01*
X41159670Y61657797D01*
X41044455Y61571548D01*
X41044454Y61571546D01*
X40994866Y61505307D01*
X40938032Y61462761D01*
X40867216Y61457697D01*
X40804904Y61491722D01*
X40793136Y61505303D01*
X40743546Y61571546D01*
X40743544Y61571547D01*
X40743544Y61571548D01*
X40673864Y61623710D01*
X40628331Y61657796D01*
X40628329Y61657797D01*
X40628326Y61657799D01*
X40493483Y61708091D01*
X40493486Y61708091D01*
X40433873Y61714500D01*
X38814135Y61714500D01*
X38814114Y61714498D01*
X38754519Y61708092D01*
X38754518Y61708092D01*
X38619673Y61657799D01*
X38619670Y61657797D01*
X38504453Y61571547D01*
X38418203Y61456330D01*
X38418201Y61456327D01*
X38367909Y61321485D01*
X38361500Y61261879D01*
X14150495Y61261879D01*
X14146038Y61352591D01*
X14088364Y61741400D01*
X13992857Y62122684D01*
X13860438Y62492772D01*
X13692381Y62848097D01*
X13490306Y63185239D01*
X13490305Y63185240D01*
X13490303Y63185244D01*
X13256165Y63500943D01*
X13256158Y63500951D01*
X12992192Y63792192D01*
X12937150Y63842079D01*
X53169300Y63842079D01*
X53169300Y62069936D01*
X53169302Y62069915D01*
X53175708Y62010320D01*
X53175708Y62010319D01*
X53226001Y61875474D01*
X53226003Y61875471D01*
X53312253Y61760254D01*
X53369861Y61717129D01*
X53427469Y61674004D01*
X53427471Y61674004D01*
X53427473Y61674002D01*
X53470917Y61657799D01*
X53562314Y61623710D01*
X53562317Y61623709D01*
X53621927Y61617300D01*
X55394072Y61617301D01*
X55453683Y61623709D01*
X55588531Y61674004D01*
X55703746Y61760254D01*
X55789996Y61875469D01*
X55840291Y62010317D01*
X55846700Y62069927D01*
X55846699Y63842072D01*
X55846698Y63842079D01*
X59469300Y63842079D01*
X59469300Y62069936D01*
X59469302Y62069915D01*
X59475708Y62010320D01*
X59475708Y62010319D01*
X59526001Y61875474D01*
X59526003Y61875471D01*
X59612253Y61760254D01*
X59669861Y61717129D01*
X59727469Y61674004D01*
X59727471Y61674004D01*
X59727473Y61674002D01*
X59770917Y61657799D01*
X59862314Y61623710D01*
X59862317Y61623709D01*
X59921927Y61617300D01*
X61694072Y61617301D01*
X61753683Y61623709D01*
X61888531Y61674004D01*
X62003746Y61760254D01*
X62089996Y61875469D01*
X62140291Y62010317D01*
X62146700Y62069927D01*
X62146699Y63842072D01*
X62140291Y63901683D01*
X62119000Y63958765D01*
X62089998Y64036527D01*
X62089996Y64036530D01*
X62089996Y64036531D01*
X62046871Y64094139D01*
X62003746Y64151747D01*
X61926791Y64209355D01*
X61888531Y64237996D01*
X61888529Y64237997D01*
X61888526Y64237999D01*
X61753683Y64288291D01*
X61753686Y64288291D01*
X61694073Y64294700D01*
X59921935Y64294700D01*
X59921914Y64294698D01*
X59862319Y64288292D01*
X59862318Y64288292D01*
X59727473Y64237999D01*
X59727470Y64237997D01*
X59612253Y64151747D01*
X59526003Y64036530D01*
X59526001Y64036527D01*
X59475709Y63901685D01*
X59469300Y63842079D01*
X55846698Y63842079D01*
X55840291Y63901683D01*
X55819000Y63958765D01*
X55789998Y64036527D01*
X55789996Y64036530D01*
X55789996Y64036531D01*
X55746871Y64094139D01*
X55703746Y64151747D01*
X55626791Y64209355D01*
X55588531Y64237996D01*
X55588529Y64237997D01*
X55588526Y64237999D01*
X55453683Y64288291D01*
X55453686Y64288291D01*
X55394073Y64294700D01*
X53621935Y64294700D01*
X53621914Y64294698D01*
X53562319Y64288292D01*
X53562318Y64288292D01*
X53427473Y64237999D01*
X53427470Y64237997D01*
X53312253Y64151747D01*
X53226003Y64036530D01*
X53226001Y64036527D01*
X53175709Y63901685D01*
X53169300Y63842079D01*
X12937150Y63842079D01*
X12700951Y64056158D01*
X12700950Y64056159D01*
X12700942Y64056166D01*
X12385243Y64290304D01*
X12048100Y64492379D01*
X12048101Y64492379D01*
X12048097Y64492381D01*
X11692772Y64660438D01*
X11661266Y64671711D01*
X11322689Y64792856D01*
X11226995Y64816826D01*
X10941400Y64888364D01*
X10912816Y64892604D01*
X10552601Y64946037D01*
X10552594Y64946038D01*
X10552591Y64946038D01*
X10356295Y64955682D01*
X10160004Y64965325D01*
X10159996Y64965325D01*
X9935662Y64954304D01*
X9767409Y64946038D01*
X9767406Y64946038D01*
X9767398Y64946037D01*
X9378606Y64888365D01*
X9378604Y64888365D01*
X9378600Y64888364D01*
X9187958Y64840611D01*
X8997310Y64792856D01*
X8627230Y64660439D01*
X8271899Y64492379D01*
X7934756Y64290304D01*
X7619057Y64056166D01*
X7327808Y63792192D01*
X7063834Y63500943D01*
X6829696Y63185244D01*
X6627621Y62848101D01*
X6459561Y62492770D01*
X6327144Y62122690D01*
X6313925Y62069915D01*
X6231636Y61741400D01*
X6231635Y61741396D01*
X6231635Y61741394D01*
X6173963Y61352602D01*
X6173962Y61352594D01*
X6173962Y61352591D01*
X6172240Y61317547D01*
X6154675Y60960004D01*
X5344500Y60960004D01*
X5344500Y65649500D01*
X5364502Y65717621D01*
X5418158Y65764114D01*
X5470500Y65775500D01*
X85969500Y65775500D01*
X86037621Y65755498D01*
G37*
%TD.AperFunction*%
%TD*%
M02*
