%TF.GenerationSoftware,KiCad,Pcbnew,8.0.3+1*%
%TF.CreationDate,2024-07-21T23:12:17+00:00*%
%TF.ProjectId,LION2CELL02,4c494f4e-3243-4454-9c4c-30322e6b6963,rev?*%
%TF.SameCoordinates,Original*%
%TF.FileFunction,Soldermask,Top*%
%TF.FilePolarity,Negative*%
%FSLAX46Y46*%
G04 Gerber Fmt 4.6, Leading zero omitted, Abs format (unit mm)*
G04 Created by KiCad (PCBNEW 8.0.3+1) date 2024-07-21 23:12:17*
%MOMM*%
%LPD*%
G01*
G04 APERTURE LIST*
G04 Aperture macros list*
%AMRoundRect*
0 Rectangle with rounded corners*
0 $1 Rounding radius*
0 $2 $3 $4 $5 $6 $7 $8 $9 X,Y pos of 4 corners*
0 Add a 4 corners polygon primitive as box body*
4,1,4,$2,$3,$4,$5,$6,$7,$8,$9,$2,$3,0*
0 Add four circle primitives for the rounded corners*
1,1,$1+$1,$2,$3*
1,1,$1+$1,$4,$5*
1,1,$1+$1,$6,$7*
1,1,$1+$1,$8,$9*
0 Add four rect primitives between the rounded corners*
20,1,$1+$1,$2,$3,$4,$5,0*
20,1,$1+$1,$4,$5,$6,$7,0*
20,1,$1+$1,$6,$7,$8,$9,0*
20,1,$1+$1,$8,$9,$2,$3,0*%
G04 Aperture macros list end*
%ADD10R,3.810000X3.810000*%
%ADD11R,1.524000X1.524000*%
%ADD12R,1.676400X1.676400*%
%ADD13C,6.000000*%
%ADD14R,4.000000X4.000000*%
%ADD15RoundRect,0.250000X-0.262500X-0.450000X0.262500X-0.450000X0.262500X0.450000X-0.262500X0.450000X0*%
%ADD16RoundRect,0.250000X0.262500X0.450000X-0.262500X0.450000X-0.262500X-0.450000X0.262500X-0.450000X0*%
%ADD17C,2.700000*%
%ADD18C,0.650000*%
%ADD19O,2.000000X1.000000*%
%ADD20O,2.100000X1.050000*%
%ADD21C,0.500000*%
G04 APERTURE END LIST*
D10*
%TO.C,J2*%
X31690500Y57892200D03*
X26690500Y57892200D03*
%TD*%
%TO.C,J3*%
X31690500Y62896000D03*
X26690500Y62896000D03*
%TD*%
D11*
%TO.C,J4*%
X47625000Y12827000D03*
X47625000Y10287000D03*
X45085000Y12827000D03*
X45085000Y10287000D03*
X42545000Y12827000D03*
X42545000Y10287000D03*
X40005000Y12827000D03*
X40005000Y10287000D03*
%TD*%
%TO.C,J6*%
X43180000Y62357000D03*
X43180000Y59817000D03*
%TD*%
%TO.C,J7*%
X40640000Y59817000D03*
X40640000Y62357000D03*
%TD*%
D10*
%TO.C,J9*%
X19955500Y8323000D03*
X24955500Y8323000D03*
%TD*%
D11*
%TO.C,J10*%
X45720000Y62230000D03*
X45720000Y59690000D03*
%TD*%
%TO.C,J11*%
X47752000Y62230000D03*
X47752000Y59690000D03*
%TD*%
%TO.C,J12*%
X65278000Y57658000D03*
X65278000Y60198000D03*
X67818000Y57658000D03*
X67818000Y60198000D03*
X70358000Y57658000D03*
X70358000Y60198000D03*
X72898000Y57658000D03*
X72898000Y60198000D03*
X75438000Y57658000D03*
X75438000Y60198000D03*
%TD*%
D10*
%TO.C,J8*%
X19955500Y13276000D03*
X24955500Y13276000D03*
%TD*%
D12*
%TO.C,SW1*%
X53365000Y63210000D03*
X59665000Y63210000D03*
X53365000Y58710000D03*
X59665000Y58710000D03*
%TD*%
%TO.C,SW2*%
X52984000Y13299000D03*
X59284000Y13299000D03*
X52984000Y8799000D03*
X59284000Y8799000D03*
%TD*%
D13*
%TO.C,H2*%
X81280000Y60960000D03*
%TD*%
%TO.C,H3*%
X10160000Y10160000D03*
%TD*%
D14*
%TO.C,B1*%
X9470000Y45210000D03*
X81970000Y45210000D03*
X9470000Y25910000D03*
X81970000Y25910000D03*
%TD*%
D13*
%TO.C,H4*%
X81280000Y10160000D03*
%TD*%
%TO.C,H1*%
X10160000Y60960000D03*
%TD*%
D15*
%TO.C,TH2*%
X72645900Y45161200D03*
X74470900Y45161200D03*
%TD*%
D16*
%TO.C,TH1*%
X74445500Y25908000D03*
X72620500Y25908000D03*
%TD*%
D17*
%TO.C,D1*%
X62992000Y9906000D03*
%TD*%
%TO.C,D3*%
X35179000Y10287000D03*
%TD*%
%TO.C,D4*%
X66040000Y9906000D03*
%TD*%
%TO.C,D7*%
X72263000Y9906000D03*
%TD*%
%TO.C,D8*%
X75311000Y9906000D03*
%TD*%
D18*
%TO.C,J1*%
X11681000Y32670000D03*
X11681000Y38450000D03*
D19*
X8001000Y31240000D03*
X8001000Y39880000D03*
D20*
X12181000Y31240000D03*
X12181000Y39880000D03*
%TD*%
D21*
%TO.C,U3*%
X55880000Y28829000D03*
%TD*%
D17*
%TO.C,D5*%
X69215000Y9906000D03*
%TD*%
M02*
