M48
; DRILL file {KiCad 8.0.3+1} date 2024-07-22T16:08:54+0000
; FORMAT={3:3/ absolute / metric / suppress leading zeros}
; #@! TF.CreationDate,2024-07-22T16:08:54+00:00
; #@! TF.GenerationSoftware,Kicad,Pcbnew,8.0.3+1
; #@! TF.FileFunction,Plated,1,2,PTH
FMAT,2
METRIC,TZ
; #@! TA.AperFunction,Plated,PTH,ViaDrill
T1C0.200
; #@! TA.AperFunction,Plated,PTH,ComponentDrill
T2C0.200
; #@! TA.AperFunction,Plated,PTH,ViaDrill
T3C0.400
; #@! TA.AperFunction,Plated,PTH,ComponentDrill
T4C0.600
; #@! TA.AperFunction,Plated,PTH,ComponentDrill
T5C0.889
; #@! TA.AperFunction,Plated,PTH,ComponentDrill
T6C1.000
; #@! TA.AperFunction,Plated,PTH,ComponentDrill
T7C1.300
; #@! TA.AperFunction,Plated,PTH,ComponentDrill
T8C1.600
; #@! TA.AperFunction,Plated,PTH,ComponentDrill
T9C3.000
%
G90
G05
T1
X34345Y29028
T2
X44020Y-13448
X44020Y-14648
X44020Y-15848
X45420Y-13448
X45420Y-14648
X45420Y-15848
X55880Y28829
T3
X14390Y36266
X14478Y32893
X14605Y38227
X15113Y54356
X16129Y22225
X17018Y33209
X18161Y48768
X21590Y26797
X26162Y31369
X26289Y27498
X26785Y48603
X27809Y28569
X28418Y32354
X30226Y23622
X30636Y29026
X30734Y32512
X31369Y29718
X31497Y30606
X32196Y29080
X32258Y23622
X32766Y37592
X33707Y40047
X33726Y41047
X34012Y36195
X35172Y33012
X35687Y28133
X35941Y42926
X35941Y33779
X36632Y38874
X37912Y31869
X39243Y41974
X40132Y37465
X40894Y40032
X43279Y33007
X43751Y38854
X45413Y40705
X46163Y38184
X47244Y56261
X48133Y36957
X48133Y32385
X48452Y31192
X49276Y49403
X49399Y31609
X49530Y50800
X49655Y32576
X50509Y28635
X50714Y21291
X50800Y29845
X51181Y40005
X51370Y28127
X52005Y25691
X52070Y29845
X52451Y41148
X52596Y31815
X52705Y26797
X53297Y21570
X53721Y31115
X55688Y20972
X56388Y42291
X56769Y37846
X57277Y20890
X57658Y40005
X57987Y31461
X58025Y26729
X58710Y34114
X59436Y24954
X60263Y31496
X61722Y25527
X61730Y34561
X61976Y28641
X63373Y26741
T5
X40005Y12827
X40005Y10287
X40640Y62357
X40640Y59817
X42545Y12827
X42545Y10287
X43180Y62357
X43180Y59817
X45085Y12827
X45085Y10287
X45720Y62230
X45720Y59690
X47625Y12827
X47625Y10287
X47752Y62230
X47752Y59690
X65278Y60198
X65278Y57658
X67818Y60198
X67818Y57658
X70358Y60198
X70358Y57658
X72898Y60198
X72898Y57658
X75438Y60198
X75438Y57658
T6
X52984Y13299
X52984Y8799
X53365Y63210
X53365Y58710
X59284Y13299
X59284Y8799
X59665Y63210
X59665Y58710
T7
X19956Y13276
X19956Y8323
X24955Y13276
X24955Y8323
X26690Y62896
X26690Y57892
X31690Y62896
X31690Y57892
T8
X9470Y45210
X9470Y25910
X81970Y45210
X81970Y25910
T9
X10160Y60960
X10160Y10160
X81280Y60960
X81280Y10160
T4
G00X7601Y39880
M15
G01X8401Y39880
M16
G05
G00X7601Y31240
M15
G01X8401Y31240
M16
G05
G00X11631Y39880
M15
G01X12731Y39880
M16
G05
G00X11631Y31240
M15
G01X12731Y31240
M16
G05
M30
