M48
; DRILL file {KiCad 8.0.3+1} date 2024-07-21T14:57:17+0000
; FORMAT={3:3/ absolute / metric / suppress leading zeros}
; #@! TF.CreationDate,2024-07-21T14:57:17+00:00
; #@! TF.GenerationSoftware,Kicad,Pcbnew,8.0.3+1
; #@! TF.FileFunction,Plated,1,2,PTH
FMAT,2
METRIC,TZ
; #@! TA.AperFunction,Plated,PTH,ComponentDrill
T1C0.200
; #@! TA.AperFunction,Plated,PTH,ViaDrill
T2C0.400
; #@! TA.AperFunction,Plated,PTH,ComponentDrill
T3C0.600
; #@! TA.AperFunction,Plated,PTH,ComponentDrill
T4C0.889
; #@! TA.AperFunction,Plated,PTH,ComponentDrill
T5C1.000
; #@! TA.AperFunction,Plated,PTH,ComponentDrill
T6C1.300
; #@! TA.AperFunction,Plated,PTH,ComponentDrill
T7C1.600
; #@! TA.AperFunction,Plated,PTH,ComponentDrill
T8C3.000
%
G90
G05
T1
X55880Y28829
T2
X14390Y36266
X15113Y54356
X17018Y34925
X18161Y48768
X18701Y22293
X24384Y30607
X26289Y27498
X27813Y28575
X28418Y32354
X30226Y23622
X30636Y29026
X31369Y34417
X31369Y29718
X31497Y30606
X32196Y29080
X32258Y23622
X33606Y39744
X33774Y40774
X34225Y31202
X35687Y28133
X35941Y42926
X36846Y34479
X39764Y37452
X41783Y38481
X43111Y49601
X48589Y31939
X48676Y30445
X49530Y27559
X50611Y28575
X50714Y21291
X50800Y29845
X51505Y28127
X52070Y29845
X52596Y31815
X53086Y25527
X53297Y21570
X53721Y31115
X53876Y39181
X55466Y34189
X55936Y20972
X56388Y42291
X56676Y22762
X56877Y35671
X57214Y38518
X57987Y31461
X58025Y26729
X58710Y34114
X59436Y24954
X60263Y31496
X61722Y25527
X61730Y34561
X63119Y28641
X63373Y26741
X66535Y54908
T4
X40005Y12827
X40005Y10287
X42545Y12827
X42545Y10287
X44577Y-10668
X44577Y-13208
X45085Y12827
X45085Y10287
X47117Y-10668
X47117Y-13208
X47625Y12827
X47625Y10287
X62484Y-13716
X62484Y-16256
X64516Y-13716
X64516Y-16256
X65278Y60198
X65278Y57658
X67818Y60198
X67818Y57658
X70358Y60198
X70358Y57658
X72898Y60198
X72898Y57658
X75438Y60198
X75438Y57658
T5
X52984Y13299
X52984Y8799
X53365Y63210
X53365Y58710
X59284Y13299
X59284Y8799
X59665Y63210
X59665Y58710
T6
X19956Y13276
X19956Y8323
X24955Y13276
X24955Y8323
X26690Y62896
X26690Y57892
X31690Y62896
X31690Y57892
T7
X9470Y45210
X9470Y25910
X81970Y45210
X81970Y25910
T8
X10160Y60960
X10160Y10160
X81280Y60960
X81280Y10160
T3
G00X7601Y39880
M15
G01X8401Y39880
M16
G05
G00X7601Y31240
M15
G01X8401Y31240
M16
G05
G00X11631Y39880
M15
G01X12731Y39880
M16
G05
G00X11631Y31240
M15
G01X12731Y31240
M16
G05
M30
