%TF.GenerationSoftware,KiCad,Pcbnew,8.0.3+1*%
%TF.CreationDate,2024-07-22T11:02:22+00:00*%
%TF.ProjectId,LION2CELL02,4c494f4e-3243-4454-9c4c-30322e6b6963,rev?*%
%TF.SameCoordinates,Original*%
%TF.FileFunction,Paste,Bot*%
%TF.FilePolarity,Positive*%
%FSLAX46Y46*%
G04 Gerber Fmt 4.6, Leading zero omitted, Abs format (unit mm)*
G04 Created by KiCad (PCBNEW 8.0.3+1) date 2024-07-22 11:02:22*
%MOMM*%
%LPD*%
G01*
G04 APERTURE LIST*
G04 Aperture macros list*
%AMRoundRect*
0 Rectangle with rounded corners*
0 $1 Rounding radius*
0 $2 $3 $4 $5 $6 $7 $8 $9 X,Y pos of 4 corners*
0 Add a 4 corners polygon primitive as box body*
4,1,4,$2,$3,$4,$5,$6,$7,$8,$9,$2,$3,0*
0 Add four circle primitives for the rounded corners*
1,1,$1+$1,$2,$3*
1,1,$1+$1,$4,$5*
1,1,$1+$1,$6,$7*
1,1,$1+$1,$8,$9*
0 Add four rect primitives between the rounded corners*
20,1,$1+$1,$2,$3,$4,$5,0*
20,1,$1+$1,$4,$5,$6,$7,0*
20,1,$1+$1,$6,$7,$8,$9,0*
20,1,$1+$1,$8,$9,$2,$3,0*%
%AMFreePoly0*
4,1,27,0.405000,0.748540,0.473851,0.737775,0.540468,0.697134,0.586462,0.634092,0.604830,0.558249,0.592775,0.481149,0.592776,0.481149,0.558927,0.388685,0.517726,0.196112,0.503933,-0.000335,0.517820,-0.196775,0.559113,-0.389328,0.593006,-0.481776,0.593005,-0.481776,0.605097,-0.558870,0.586765,-0.634722,0.540802,-0.697786,0.474204,-0.738459,0.405000,-0.749313,0.405000,-0.750000,
0.400623,-0.750000,0.397110,-0.750551,0.394830,-0.750000,-0.645000,-0.750000,-0.645000,0.750000,0.405000,0.750000,0.405000,0.748540,0.405000,0.748540,$1*%
%AMFreePoly1*
4,1,37,-1.390000,2.050000,0.435000,2.050000,0.435000,2.805000,1.035000,2.805000,1.035000,2.050000,1.215000,2.050000,1.215000,-2.050000,1.035000,-2.050000,1.035000,-2.805000,0.435000,-2.805000,0.435000,-2.050000,-1.390000,-2.050000,-1.390000,-2.805000,-1.990000,-2.805000,-1.990000,-2.050000,-2.285000,-2.050000,-2.285000,-2.210000,-3.305000,-2.210000,-3.305000,-1.600000,-2.595000,-1.600000,
-2.595000,-0.940000,-3.305000,-0.940000,-3.305000,-0.330000,-2.595000,-0.330000,-2.595000,0.330000,-3.305000,0.330000,-3.305000,0.940000,-2.595000,0.940000,-2.595000,1.600000,-3.305000,1.600000,-3.305000,2.210000,-2.285000,2.210000,-2.285000,2.050000,-1.990000,2.050000,-1.990000,2.805000,-1.390000,2.805000,-1.390000,2.050000,-1.390000,2.050000,$1*%
G04 Aperture macros list end*
%ADD10RoundRect,0.250000X-0.250000X-0.475000X0.250000X-0.475000X0.250000X0.475000X-0.250000X0.475000X0*%
%ADD11RoundRect,0.225000X0.225000X0.250000X-0.225000X0.250000X-0.225000X-0.250000X0.225000X-0.250000X0*%
%ADD12RoundRect,0.250000X-0.475000X0.250000X-0.475000X-0.250000X0.475000X-0.250000X0.475000X0.250000X0*%
%ADD13RoundRect,0.250000X0.250000X0.475000X-0.250000X0.475000X-0.250000X-0.475000X0.250000X-0.475000X0*%
%ADD14RoundRect,0.250000X0.475000X-0.250000X0.475000X0.250000X-0.475000X0.250000X-0.475000X-0.250000X0*%
%ADD15FreePoly0,90.000000*%
%ADD16FreePoly0,270.000000*%
%ADD17R,1.150000X0.600000*%
%ADD18R,1.150000X0.300000*%
%ADD19RoundRect,0.250000X0.375000X0.850000X-0.375000X0.850000X-0.375000X-0.850000X0.375000X-0.850000X0*%
%ADD20R,0.610000X1.270000*%
%ADD21FreePoly1,90.000000*%
%ADD22RoundRect,0.250000X-0.450000X0.262500X-0.450000X-0.262500X0.450000X-0.262500X0.450000X0.262500X0*%
%ADD23RoundRect,0.250000X0.262500X0.450000X-0.262500X0.450000X-0.262500X-0.450000X0.262500X-0.450000X0*%
%ADD24RoundRect,0.250000X-0.262500X-0.450000X0.262500X-0.450000X0.262500X0.450000X-0.262500X0.450000X0*%
%ADD25RoundRect,0.250000X0.450000X-0.262500X0.450000X0.262500X-0.450000X0.262500X-0.450000X-0.262500X0*%
%ADD26RoundRect,0.250000X-0.625000X0.312500X-0.625000X-0.312500X0.625000X-0.312500X0.625000X0.312500X0*%
%ADD27RoundRect,0.050000X-0.425000X-0.050000X0.425000X-0.050000X0.425000X0.050000X-0.425000X0.050000X0*%
%ADD28RoundRect,0.050000X-0.050000X-0.300000X0.050000X-0.300000X0.050000X0.300000X-0.050000X0.300000X0*%
%ADD29RoundRect,0.050000X-0.250000X-0.050000X0.250000X-0.050000X0.250000X0.050000X-0.250000X0.050000X0*%
%ADD30RoundRect,0.050000X-0.400000X-0.050000X0.400000X-0.050000X0.400000X0.050000X-0.400000X0.050000X0*%
%ADD31RoundRect,0.050000X-0.050000X-0.250000X0.050000X-0.250000X0.050000X0.250000X-0.050000X0.250000X0*%
%ADD32RoundRect,0.050000X-0.050000X0.300000X-0.050000X-0.300000X0.050000X-0.300000X0.050000X0.300000X0*%
%ADD33RoundRect,0.050000X-0.300000X-0.050000X0.300000X-0.050000X0.300000X0.050000X-0.300000X0.050000X0*%
%ADD34RoundRect,0.050000X-0.275000X-0.050000X0.275000X-0.050000X0.275000X0.050000X-0.275000X0.050000X0*%
%ADD35RoundRect,0.050000X-0.290000X-0.050000X0.290000X-0.050000X0.290000X0.050000X-0.290000X0.050000X0*%
%ADD36RoundRect,0.050000X-0.050000X-0.450000X0.050000X-0.450000X0.050000X0.450000X-0.050000X0.450000X0*%
%ADD37RoundRect,0.118800X0.181200X0.181200X-0.181200X0.181200X-0.181200X-0.181200X0.181200X-0.181200X0*%
%ADD38RoundRect,0.050000X0.300000X0.050000X-0.300000X0.050000X-0.300000X-0.050000X0.300000X-0.050000X0*%
%ADD39RoundRect,0.050000X0.050000X0.300000X-0.050000X0.300000X-0.050000X-0.300000X0.050000X-0.300000X0*%
%ADD40RoundRect,0.250000X1.425000X-0.362500X1.425000X0.362500X-1.425000X0.362500X-1.425000X-0.362500X0*%
%ADD41R,4.000000X3.850000*%
%ADD42R,1.270000X0.610000*%
%ADD43FreePoly1,0.000000*%
%ADD44RoundRect,0.250000X0.255000X0.440000X-0.255000X0.440000X-0.255000X-0.440000X0.255000X-0.440000X0*%
%ADD45RoundRect,0.150000X0.825000X0.150000X-0.825000X0.150000X-0.825000X-0.150000X0.825000X-0.150000X0*%
%ADD46RoundRect,0.250000X0.325000X0.650000X-0.325000X0.650000X-0.325000X-0.650000X0.325000X-0.650000X0*%
%ADD47FreePoly1,180.000000*%
%ADD48R,4.860000X3.360000*%
%ADD49R,1.400000X1.390000*%
%ADD50RoundRect,0.243750X0.456250X-0.243750X0.456250X0.243750X-0.456250X0.243750X-0.456250X-0.243750X0*%
%ADD51RoundRect,0.225000X-0.225000X-0.250000X0.225000X-0.250000X0.225000X0.250000X-0.225000X0.250000X0*%
%ADD52RoundRect,0.150000X0.587500X0.150000X-0.587500X0.150000X-0.587500X-0.150000X0.587500X-0.150000X0*%
G04 APERTURE END LIST*
D10*
%TO.C,C1*%
X14417000Y29337000D03*
X16317000Y29337000D03*
%TD*%
D11*
%TO.C,C5*%
X33668000Y25400000D03*
X32118000Y25400000D03*
%TD*%
D12*
%TO.C,C6*%
X35560000Y25461000D03*
X35560000Y23561000D03*
%TD*%
D10*
%TO.C,C7*%
X42839600Y25323800D03*
X44739600Y25323800D03*
%TD*%
%TO.C,C8*%
X42865000Y23241000D03*
X44765000Y23241000D03*
%TD*%
D12*
%TO.C,C9*%
X26289000Y29398000D03*
X26289000Y27498000D03*
%TD*%
D13*
%TO.C,C11*%
X41208999Y32639000D03*
X39309001Y32639000D03*
%TD*%
%TO.C,C16*%
X61529000Y32893000D03*
X59629000Y32893000D03*
%TD*%
D12*
%TO.C,C17*%
X63119000Y30541000D03*
X63119000Y28641000D03*
%TD*%
D14*
%TO.C,C18*%
X60921900Y28663800D03*
X60921900Y30563800D03*
%TD*%
D15*
%TO.C,D1*%
X62992000Y8001000D03*
D16*
X62992000Y11811000D03*
%TD*%
%TO.C,D3*%
X35179000Y12192000D03*
D15*
X35179000Y8382000D03*
%TD*%
D16*
%TO.C,D4*%
X66040000Y11811000D03*
D15*
X66040000Y8001000D03*
%TD*%
%TO.C,D7*%
X72263000Y8001000D03*
D16*
X72263000Y11811000D03*
%TD*%
D15*
%TO.C,D8*%
X75311000Y8001000D03*
D16*
X75311000Y11811000D03*
%TD*%
D17*
%TO.C,J1*%
X12756000Y32360000D03*
X12756000Y33160000D03*
D18*
X12756000Y34310000D03*
X12756000Y35310000D03*
X12756000Y35810000D03*
X12756000Y36810000D03*
D17*
X12756000Y38760000D03*
X12756000Y37960000D03*
D18*
X12756000Y37310000D03*
X12756000Y36310000D03*
X12756000Y34810000D03*
X12756000Y33810000D03*
%TD*%
D19*
%TO.C,L1*%
X32317000Y22352000D03*
X30167000Y22352000D03*
%TD*%
D20*
%TO.C,Q1*%
X38989000Y53851000D03*
X40259000Y53851000D03*
X37719000Y53851001D03*
X41529000Y53851001D03*
D21*
X39624000Y51181000D03*
%TD*%
D22*
%TO.C,R1*%
X15748000Y38377500D03*
X15748000Y36552500D03*
%TD*%
D23*
%TO.C,R3*%
X35837500Y35179000D03*
X34012500Y35179000D03*
%TD*%
D24*
%TO.C,R5*%
X34012500Y37338000D03*
X35837500Y37338000D03*
%TD*%
D25*
%TO.C,R6*%
X35687000Y39219500D03*
X35687000Y41044500D03*
%TD*%
D22*
%TO.C,R7*%
X20574000Y29614500D03*
X20574000Y27789500D03*
%TD*%
D24*
%TO.C,R8*%
X40997500Y35179000D03*
X42822500Y35179000D03*
%TD*%
%TO.C,R9*%
X37568500Y28575000D03*
X39393500Y28575000D03*
%TD*%
D23*
%TO.C,R11*%
X44854500Y57150000D03*
X43029500Y57150000D03*
%TD*%
D26*
%TO.C,R17*%
X16764000Y50865500D03*
X16764000Y47940500D03*
%TD*%
D23*
%TO.C,R18*%
X25042500Y48006000D03*
X23217500Y48006000D03*
%TD*%
%TO.C,R19*%
X28979500Y45847000D03*
X27154500Y45847000D03*
%TD*%
D25*
%TO.C,R20*%
X53721000Y32869500D03*
X53721000Y34694500D03*
%TD*%
%TO.C,R23*%
X34163000Y49506500D03*
X34163000Y51331500D03*
%TD*%
D24*
%TO.C,R24*%
X42902500Y37211000D03*
X44727500Y37211000D03*
%TD*%
%TO.C,R27*%
X37187500Y46101000D03*
X39012500Y46101000D03*
%TD*%
D25*
%TO.C,R28*%
X20574000Y44807500D03*
X20574000Y46632500D03*
%TD*%
D24*
%TO.C,R32*%
X12701900Y45034200D03*
X14526900Y45034200D03*
%TD*%
%TO.C,R33*%
X12930500Y25908000D03*
X14755500Y25908000D03*
%TD*%
D27*
%TO.C,U1*%
X29610700Y27927500D03*
D28*
X29985700Y27677500D03*
D29*
X29435700Y28327500D03*
X29435700Y28727500D03*
X29435700Y29127500D03*
X29435700Y29527500D03*
X29435700Y29927500D03*
X29435700Y30327500D03*
X29435700Y30727500D03*
D30*
X29585700Y31127500D03*
D28*
X29935700Y31377500D03*
D31*
X30335700Y31427500D03*
X30735700Y31427500D03*
X31135700Y31427500D03*
X31535700Y31427500D03*
X31935700Y31427500D03*
X32335700Y31427500D03*
D32*
X32735700Y31377500D03*
D30*
X33085700Y31127500D03*
D33*
X33185700Y30727500D03*
D34*
X33210700Y30327500D03*
D35*
X33198200Y29927500D03*
D29*
X33235700Y29527500D03*
X33235700Y29127500D03*
X33235700Y28727500D03*
X33235700Y28327500D03*
D28*
X32685700Y27677500D03*
D27*
X33060700Y27927500D03*
D36*
X32135700Y27927500D03*
X31735700Y27927500D03*
X31335700Y27927500D03*
X30935700Y27927500D03*
X30535700Y27927500D03*
%TD*%
D37*
%TO.C,U3*%
X56230000Y28479000D03*
X56230000Y29179000D03*
X55530000Y29179000D03*
D38*
X57880000Y30229000D03*
X57880000Y29829000D03*
X57880000Y29429000D03*
X57880000Y29029000D03*
X57880000Y28629000D03*
X57880000Y28229000D03*
X57880000Y27829000D03*
X57880000Y27429000D03*
D39*
X57280000Y26829000D03*
X56880000Y26829000D03*
X56480000Y26829000D03*
X56080000Y26829000D03*
X55680000Y26829000D03*
X55280000Y26829000D03*
X54880000Y26829000D03*
X54480000Y26829000D03*
D38*
X53880000Y27429000D03*
X53880000Y27829000D03*
X53880000Y28229000D03*
X53880000Y28629000D03*
X53880000Y29029000D03*
X53880000Y29429000D03*
X53880000Y29829000D03*
X53880000Y30229000D03*
D39*
X54480000Y30829000D03*
X54880000Y30829000D03*
X55280000Y30829000D03*
X55680000Y30829000D03*
X56080000Y30829000D03*
X56480000Y30829000D03*
X56880000Y30829000D03*
X57280000Y30829000D03*
%TD*%
D24*
%TO.C,R4*%
X37568500Y35179000D03*
X39393500Y35179000D03*
%TD*%
D16*
%TO.C,D5*%
X69215000Y11811000D03*
D15*
X69215000Y8001000D03*
%TD*%
D13*
%TO.C,C4*%
X24317999Y27940000D03*
X22418001Y27940000D03*
%TD*%
D14*
%TO.C,C3*%
X27940000Y33594000D03*
X27940000Y35494000D03*
%TD*%
%TO.C,C2*%
X29972000Y33594000D03*
X29972000Y35494000D03*
%TD*%
%TO.C,C10*%
X35687000Y28133000D03*
X35687000Y30033000D03*
%TD*%
D25*
%TO.C,R2*%
X15621000Y32107500D03*
X15621000Y33932500D03*
%TD*%
D23*
%TO.C,R34*%
X78890500Y31369000D03*
X77065500Y31369000D03*
%TD*%
D13*
%TO.C,C19*%
X41208999Y30607000D03*
X39309001Y30607000D03*
%TD*%
%TO.C,C20*%
X24952999Y31369000D03*
X23053001Y31369000D03*
%TD*%
D40*
%TO.C,R35*%
X81915000Y29549500D03*
X81915000Y35474500D03*
%TD*%
D23*
%TO.C,R36*%
X78890500Y33528000D03*
X77065500Y33528000D03*
%TD*%
D22*
%TO.C,R22*%
X16764000Y54379500D03*
X16764000Y52554500D03*
%TD*%
D41*
%TO.C,L2*%
X32893000Y-9286000D03*
X32893000Y-1636000D03*
%TD*%
D42*
%TO.C,Q5*%
X31753000Y52705000D03*
X31753000Y51435000D03*
X31753001Y53975000D03*
X31753001Y50165000D03*
D43*
X29083000Y52070000D03*
%TD*%
D44*
%TO.C,U2*%
X45320000Y-15473000D03*
X45320000Y-13823000D03*
X44120000Y-15473000D03*
X44120000Y-13823000D03*
D45*
X47195000Y-12743000D03*
X47195000Y-14013000D03*
X47195000Y-15283000D03*
X47195000Y-16553000D03*
X42245000Y-16553000D03*
X42245000Y-15283000D03*
X42245000Y-14013000D03*
X42245000Y-12743000D03*
%TD*%
D46*
%TO.C,C15*%
X57179000Y-14976000D03*
X54229000Y-14976000D03*
%TD*%
D13*
%TO.C,C35*%
X51750000Y-10146000D03*
X49850000Y-10146000D03*
%TD*%
D42*
%TO.C,Q3*%
X19047000Y51435000D03*
X19047000Y52705000D03*
X19046999Y50165000D03*
X19046999Y53975000D03*
D47*
X21717000Y52070000D03*
%TD*%
D13*
%TO.C,C36*%
X47813000Y-24638000D03*
X45913000Y-24638000D03*
%TD*%
D25*
%TO.C,TH3*%
X37719000Y39219500D03*
X37719000Y41044500D03*
%TD*%
D12*
%TO.C,C27*%
X22860000Y25334000D03*
X22860000Y23434000D03*
%TD*%
D25*
%TO.C,R13*%
X36576000Y-15136500D03*
X36576000Y-13311500D03*
%TD*%
D23*
%TO.C,R12*%
X51712500Y-18168000D03*
X49887500Y-18168000D03*
%TD*%
D48*
%TO.C,D2*%
X41170999Y-9271000D03*
D49*
X45153000Y-8351000D03*
X45153000Y-10191000D03*
%TD*%
D13*
%TO.C,C22*%
X51750000Y-4798000D03*
X49850000Y-4798000D03*
%TD*%
D25*
%TO.C,TH4*%
X46609000Y33377500D03*
X46609000Y35202500D03*
%TD*%
D50*
%TO.C,D6*%
X51435000Y32844500D03*
X51435000Y34719500D03*
%TD*%
D14*
%TO.C,C21*%
X74803000Y31435000D03*
X74803000Y33335000D03*
%TD*%
D12*
%TO.C,C25*%
X25019000Y25334000D03*
X25019000Y23434000D03*
%TD*%
D51*
%TO.C,C24*%
X29070000Y25400000D03*
X30620000Y25400000D03*
%TD*%
D12*
%TO.C,C31*%
X39878000Y25461000D03*
X39878000Y23561000D03*
%TD*%
%TO.C,C30*%
X37719000Y25461000D03*
X37719000Y23561000D03*
%TD*%
%TO.C,C29*%
X28575000Y13142000D03*
X28575000Y11242000D03*
%TD*%
%TO.C,C26*%
X27178000Y25334000D03*
X27178000Y23434000D03*
%TD*%
D14*
%TO.C,C38*%
X38735000Y-15174000D03*
X38735000Y-13274000D03*
%TD*%
D24*
%TO.C,R10*%
X32869500Y-16256000D03*
X34694500Y-16256000D03*
%TD*%
D52*
%TO.C,Q2*%
X25067500Y46035000D03*
X25067500Y44135000D03*
X23192499Y45085000D03*
%TD*%
D13*
%TO.C,C23*%
X51750000Y-7472000D03*
X49850000Y-7472000D03*
%TD*%
M02*
