%TF.GenerationSoftware,KiCad,Pcbnew,8.0.3+1*%
%TF.CreationDate,2024-07-20T17:55:20+00:00*%
%TF.ProjectId,LION2CELL02,4c494f4e-3243-4454-9c4c-30322e6b6963,rev?*%
%TF.SameCoordinates,Original*%
%TF.FileFunction,Legend,Bot*%
%TF.FilePolarity,Positive*%
%FSLAX46Y46*%
G04 Gerber Fmt 4.6, Leading zero omitted, Abs format (unit mm)*
G04 Created by KiCad (PCBNEW 8.0.3+1) date 2024-07-20 17:55:20*
%MOMM*%
%LPD*%
G01*
G04 APERTURE LIST*
%ADD10C,0.150000*%
%ADD11C,0.120000*%
%ADD12C,0.200000*%
G04 APERTURE END LIST*
D10*
X15813066Y28237221D02*
X15860685Y28189601D01*
X15860685Y28189601D02*
X16003542Y28141982D01*
X16003542Y28141982D02*
X16098780Y28141982D01*
X16098780Y28141982D02*
X16241637Y28189601D01*
X16241637Y28189601D02*
X16336875Y28284840D01*
X16336875Y28284840D02*
X16384494Y28380078D01*
X16384494Y28380078D02*
X16432113Y28570554D01*
X16432113Y28570554D02*
X16432113Y28713411D01*
X16432113Y28713411D02*
X16384494Y28903887D01*
X16384494Y28903887D02*
X16336875Y28999125D01*
X16336875Y28999125D02*
X16241637Y29094363D01*
X16241637Y29094363D02*
X16098780Y29141982D01*
X16098780Y29141982D02*
X16003542Y29141982D01*
X16003542Y29141982D02*
X15860685Y29094363D01*
X15860685Y29094363D02*
X15813066Y29046744D01*
X14860685Y28141982D02*
X15432113Y28141982D01*
X15146399Y28141982D02*
X15146399Y29141982D01*
X15146399Y29141982D02*
X15241637Y28999125D01*
X15241637Y28999125D02*
X15336875Y28903887D01*
X15336875Y28903887D02*
X15432113Y28856268D01*
X32584580Y34075667D02*
X32632200Y34123286D01*
X32632200Y34123286D02*
X32679819Y34266143D01*
X32679819Y34266143D02*
X32679819Y34361381D01*
X32679819Y34361381D02*
X32632200Y34504238D01*
X32632200Y34504238D02*
X32536961Y34599476D01*
X32536961Y34599476D02*
X32441723Y34647095D01*
X32441723Y34647095D02*
X32251247Y34694714D01*
X32251247Y34694714D02*
X32108390Y34694714D01*
X32108390Y34694714D02*
X31917914Y34647095D01*
X31917914Y34647095D02*
X31822676Y34599476D01*
X31822676Y34599476D02*
X31727438Y34504238D01*
X31727438Y34504238D02*
X31679819Y34361381D01*
X31679819Y34361381D02*
X31679819Y34266143D01*
X31679819Y34266143D02*
X31727438Y34123286D01*
X31727438Y34123286D02*
X31775057Y34075667D01*
X31679819Y33170905D02*
X31679819Y33647095D01*
X31679819Y33647095D02*
X32156009Y33694714D01*
X32156009Y33694714D02*
X32108390Y33647095D01*
X32108390Y33647095D02*
X32060771Y33551857D01*
X32060771Y33551857D02*
X32060771Y33313762D01*
X32060771Y33313762D02*
X32108390Y33218524D01*
X32108390Y33218524D02*
X32156009Y33170905D01*
X32156009Y33170905D02*
X32251247Y33123286D01*
X32251247Y33123286D02*
X32489342Y33123286D01*
X32489342Y33123286D02*
X32584580Y33170905D01*
X32584580Y33170905D02*
X32632200Y33218524D01*
X32632200Y33218524D02*
X32679819Y33313762D01*
X32679819Y33313762D02*
X32679819Y33551857D01*
X32679819Y33551857D02*
X32632200Y33647095D01*
X32632200Y33647095D02*
X32584580Y33694714D01*
X34710666Y34536421D02*
X34758285Y34488801D01*
X34758285Y34488801D02*
X34901142Y34441182D01*
X34901142Y34441182D02*
X34996380Y34441182D01*
X34996380Y34441182D02*
X35139237Y34488801D01*
X35139237Y34488801D02*
X35234475Y34584040D01*
X35234475Y34584040D02*
X35282094Y34679278D01*
X35282094Y34679278D02*
X35329713Y34869754D01*
X35329713Y34869754D02*
X35329713Y35012611D01*
X35329713Y35012611D02*
X35282094Y35203087D01*
X35282094Y35203087D02*
X35234475Y35298325D01*
X35234475Y35298325D02*
X35139237Y35393563D01*
X35139237Y35393563D02*
X34996380Y35441182D01*
X34996380Y35441182D02*
X34901142Y35441182D01*
X34901142Y35441182D02*
X34758285Y35393563D01*
X34758285Y35393563D02*
X34710666Y35345944D01*
X33853523Y35441182D02*
X34043999Y35441182D01*
X34043999Y35441182D02*
X34139237Y35393563D01*
X34139237Y35393563D02*
X34186856Y35345944D01*
X34186856Y35345944D02*
X34282094Y35203087D01*
X34282094Y35203087D02*
X34329713Y35012611D01*
X34329713Y35012611D02*
X34329713Y34631659D01*
X34329713Y34631659D02*
X34282094Y34536421D01*
X34282094Y34536421D02*
X34234475Y34488801D01*
X34234475Y34488801D02*
X34139237Y34441182D01*
X34139237Y34441182D02*
X33948761Y34441182D01*
X33948761Y34441182D02*
X33853523Y34488801D01*
X33853523Y34488801D02*
X33805904Y34536421D01*
X33805904Y34536421D02*
X33758285Y34631659D01*
X33758285Y34631659D02*
X33758285Y34869754D01*
X33758285Y34869754D02*
X33805904Y34964992D01*
X33805904Y34964992D02*
X33853523Y35012611D01*
X33853523Y35012611D02*
X33948761Y35060230D01*
X33948761Y35060230D02*
X34139237Y35060230D01*
X34139237Y35060230D02*
X34234475Y35012611D01*
X34234475Y35012611D02*
X34282094Y34964992D01*
X34282094Y34964992D02*
X34329713Y34869754D01*
X21604266Y50335221D02*
X21651885Y50287601D01*
X21651885Y50287601D02*
X21794742Y50239982D01*
X21794742Y50239982D02*
X21889980Y50239982D01*
X21889980Y50239982D02*
X22032837Y50287601D01*
X22032837Y50287601D02*
X22128075Y50382840D01*
X22128075Y50382840D02*
X22175694Y50478078D01*
X22175694Y50478078D02*
X22223313Y50668554D01*
X22223313Y50668554D02*
X22223313Y50811411D01*
X22223313Y50811411D02*
X22175694Y51001887D01*
X22175694Y51001887D02*
X22128075Y51097125D01*
X22128075Y51097125D02*
X22032837Y51192363D01*
X22032837Y51192363D02*
X21889980Y51239982D01*
X21889980Y51239982D02*
X21794742Y51239982D01*
X21794742Y51239982D02*
X21651885Y51192363D01*
X21651885Y51192363D02*
X21604266Y51144744D01*
X21270932Y51239982D02*
X20604266Y51239982D01*
X20604266Y51239982D02*
X21032837Y50239982D01*
X21629666Y48252421D02*
X21677285Y48204801D01*
X21677285Y48204801D02*
X21820142Y48157182D01*
X21820142Y48157182D02*
X21915380Y48157182D01*
X21915380Y48157182D02*
X22058237Y48204801D01*
X22058237Y48204801D02*
X22153475Y48300040D01*
X22153475Y48300040D02*
X22201094Y48395278D01*
X22201094Y48395278D02*
X22248713Y48585754D01*
X22248713Y48585754D02*
X22248713Y48728611D01*
X22248713Y48728611D02*
X22201094Y48919087D01*
X22201094Y48919087D02*
X22153475Y49014325D01*
X22153475Y49014325D02*
X22058237Y49109563D01*
X22058237Y49109563D02*
X21915380Y49157182D01*
X21915380Y49157182D02*
X21820142Y49157182D01*
X21820142Y49157182D02*
X21677285Y49109563D01*
X21677285Y49109563D02*
X21629666Y49061944D01*
X21058237Y48728611D02*
X21153475Y48776230D01*
X21153475Y48776230D02*
X21201094Y48823849D01*
X21201094Y48823849D02*
X21248713Y48919087D01*
X21248713Y48919087D02*
X21248713Y48966706D01*
X21248713Y48966706D02*
X21201094Y49061944D01*
X21201094Y49061944D02*
X21153475Y49109563D01*
X21153475Y49109563D02*
X21058237Y49157182D01*
X21058237Y49157182D02*
X20867761Y49157182D01*
X20867761Y49157182D02*
X20772523Y49109563D01*
X20772523Y49109563D02*
X20724904Y49061944D01*
X20724904Y49061944D02*
X20677285Y48966706D01*
X20677285Y48966706D02*
X20677285Y48919087D01*
X20677285Y48919087D02*
X20724904Y48823849D01*
X20724904Y48823849D02*
X20772523Y48776230D01*
X20772523Y48776230D02*
X20867761Y48728611D01*
X20867761Y48728611D02*
X21058237Y48728611D01*
X21058237Y48728611D02*
X21153475Y48680992D01*
X21153475Y48680992D02*
X21201094Y48633373D01*
X21201094Y48633373D02*
X21248713Y48538135D01*
X21248713Y48538135D02*
X21248713Y48347659D01*
X21248713Y48347659D02*
X21201094Y48252421D01*
X21201094Y48252421D02*
X21153475Y48204801D01*
X21153475Y48204801D02*
X21058237Y48157182D01*
X21058237Y48157182D02*
X20867761Y48157182D01*
X20867761Y48157182D02*
X20772523Y48204801D01*
X20772523Y48204801D02*
X20724904Y48252421D01*
X20724904Y48252421D02*
X20677285Y48347659D01*
X20677285Y48347659D02*
X20677285Y48538135D01*
X20677285Y48538135D02*
X20724904Y48633373D01*
X20724904Y48633373D02*
X20772523Y48680992D01*
X20772523Y48680992D02*
X20867761Y48728611D01*
X30011666Y25265421D02*
X30059285Y25217801D01*
X30059285Y25217801D02*
X30202142Y25170182D01*
X30202142Y25170182D02*
X30297380Y25170182D01*
X30297380Y25170182D02*
X30440237Y25217801D01*
X30440237Y25217801D02*
X30535475Y25313040D01*
X30535475Y25313040D02*
X30583094Y25408278D01*
X30583094Y25408278D02*
X30630713Y25598754D01*
X30630713Y25598754D02*
X30630713Y25741611D01*
X30630713Y25741611D02*
X30583094Y25932087D01*
X30583094Y25932087D02*
X30535475Y26027325D01*
X30535475Y26027325D02*
X30440237Y26122563D01*
X30440237Y26122563D02*
X30297380Y26170182D01*
X30297380Y26170182D02*
X30202142Y26170182D01*
X30202142Y26170182D02*
X30059285Y26122563D01*
X30059285Y26122563D02*
X30011666Y26074944D01*
X29535475Y25170182D02*
X29344999Y25170182D01*
X29344999Y25170182D02*
X29249761Y25217801D01*
X29249761Y25217801D02*
X29202142Y25265421D01*
X29202142Y25265421D02*
X29106904Y25408278D01*
X29106904Y25408278D02*
X29059285Y25598754D01*
X29059285Y25598754D02*
X29059285Y25979706D01*
X29059285Y25979706D02*
X29106904Y26074944D01*
X29106904Y26074944D02*
X29154523Y26122563D01*
X29154523Y26122563D02*
X29249761Y26170182D01*
X29249761Y26170182D02*
X29440237Y26170182D01*
X29440237Y26170182D02*
X29535475Y26122563D01*
X29535475Y26122563D02*
X29583094Y26074944D01*
X29583094Y26074944D02*
X29630713Y25979706D01*
X29630713Y25979706D02*
X29630713Y25741611D01*
X29630713Y25741611D02*
X29583094Y25646373D01*
X29583094Y25646373D02*
X29535475Y25598754D01*
X29535475Y25598754D02*
X29440237Y25551135D01*
X29440237Y25551135D02*
X29249761Y25551135D01*
X29249761Y25551135D02*
X29154523Y25598754D01*
X29154523Y25598754D02*
X29106904Y25646373D01*
X29106904Y25646373D02*
X29059285Y25741611D01*
X40526080Y27025558D02*
X40573700Y27073177D01*
X40573700Y27073177D02*
X40621319Y27216034D01*
X40621319Y27216034D02*
X40621319Y27311272D01*
X40621319Y27311272D02*
X40573700Y27454129D01*
X40573700Y27454129D02*
X40478461Y27549367D01*
X40478461Y27549367D02*
X40383223Y27596986D01*
X40383223Y27596986D02*
X40192747Y27644605D01*
X40192747Y27644605D02*
X40049890Y27644605D01*
X40049890Y27644605D02*
X39859414Y27596986D01*
X39859414Y27596986D02*
X39764176Y27549367D01*
X39764176Y27549367D02*
X39668938Y27454129D01*
X39668938Y27454129D02*
X39621319Y27311272D01*
X39621319Y27311272D02*
X39621319Y27216034D01*
X39621319Y27216034D02*
X39668938Y27073177D01*
X39668938Y27073177D02*
X39716557Y27025558D01*
X40621319Y26073177D02*
X40621319Y26644605D01*
X40621319Y26358891D02*
X39621319Y26358891D01*
X39621319Y26358891D02*
X39764176Y26454129D01*
X39764176Y26454129D02*
X39859414Y26549367D01*
X39859414Y26549367D02*
X39907033Y26644605D01*
X40621319Y25120796D02*
X40621319Y25692224D01*
X40621319Y25406510D02*
X39621319Y25406510D01*
X39621319Y25406510D02*
X39764176Y25501748D01*
X39764176Y25501748D02*
X39859414Y25596986D01*
X39859414Y25596986D02*
X39907033Y25692224D01*
X91237181Y31910259D02*
X91284801Y31957878D01*
X91284801Y31957878D02*
X91332420Y32100735D01*
X91332420Y32100735D02*
X91332420Y32195973D01*
X91332420Y32195973D02*
X91284801Y32338830D01*
X91284801Y32338830D02*
X91189562Y32434068D01*
X91189562Y32434068D02*
X91094324Y32481687D01*
X91094324Y32481687D02*
X90903848Y32529306D01*
X90903848Y32529306D02*
X90760991Y32529306D01*
X90760991Y32529306D02*
X90570515Y32481687D01*
X90570515Y32481687D02*
X90475277Y32434068D01*
X90475277Y32434068D02*
X90380039Y32338830D01*
X90380039Y32338830D02*
X90332420Y32195973D01*
X90332420Y32195973D02*
X90332420Y32100735D01*
X90332420Y32100735D02*
X90380039Y31957878D01*
X90380039Y31957878D02*
X90427658Y31910259D01*
X91332420Y30957878D02*
X91332420Y31529306D01*
X91332420Y31243592D02*
X90332420Y31243592D01*
X90332420Y31243592D02*
X90475277Y31338830D01*
X90475277Y31338830D02*
X90570515Y31434068D01*
X90570515Y31434068D02*
X90618134Y31529306D01*
X90427658Y30576925D02*
X90380039Y30529306D01*
X90380039Y30529306D02*
X90332420Y30434068D01*
X90332420Y30434068D02*
X90332420Y30195973D01*
X90332420Y30195973D02*
X90380039Y30100735D01*
X90380039Y30100735D02*
X90427658Y30053116D01*
X90427658Y30053116D02*
X90522896Y30005497D01*
X90522896Y30005497D02*
X90618134Y30005497D01*
X90618134Y30005497D02*
X90760991Y30053116D01*
X90760991Y30053116D02*
X91332420Y30624544D01*
X91332420Y30624544D02*
X91332420Y30005497D01*
X91237181Y28608258D02*
X91284801Y28655877D01*
X91284801Y28655877D02*
X91332420Y28798734D01*
X91332420Y28798734D02*
X91332420Y28893972D01*
X91332420Y28893972D02*
X91284801Y29036829D01*
X91284801Y29036829D02*
X91189562Y29132067D01*
X91189562Y29132067D02*
X91094324Y29179686D01*
X91094324Y29179686D02*
X90903848Y29227305D01*
X90903848Y29227305D02*
X90760991Y29227305D01*
X90760991Y29227305D02*
X90570515Y29179686D01*
X90570515Y29179686D02*
X90475277Y29132067D01*
X90475277Y29132067D02*
X90380039Y29036829D01*
X90380039Y29036829D02*
X90332420Y28893972D01*
X90332420Y28893972D02*
X90332420Y28798734D01*
X90332420Y28798734D02*
X90380039Y28655877D01*
X90380039Y28655877D02*
X90427658Y28608258D01*
X91332420Y27655877D02*
X91332420Y28227305D01*
X91332420Y27941591D02*
X90332420Y27941591D01*
X90332420Y27941591D02*
X90475277Y28036829D01*
X90475277Y28036829D02*
X90570515Y28132067D01*
X90570515Y28132067D02*
X90618134Y28227305D01*
X90332420Y27322543D02*
X90332420Y26703496D01*
X90332420Y26703496D02*
X90713372Y27036829D01*
X90713372Y27036829D02*
X90713372Y26893972D01*
X90713372Y26893972D02*
X90760991Y26798734D01*
X90760991Y26798734D02*
X90808610Y26751115D01*
X90808610Y26751115D02*
X90903848Y26703496D01*
X90903848Y26703496D02*
X91141943Y26703496D01*
X91141943Y26703496D02*
X91237181Y26751115D01*
X91237181Y26751115D02*
X91284801Y26798734D01*
X91284801Y26798734D02*
X91332420Y26893972D01*
X91332420Y26893972D02*
X91332420Y27179686D01*
X91332420Y27179686D02*
X91284801Y27274924D01*
X91284801Y27274924D02*
X91237181Y27322543D01*
X73165080Y22966858D02*
X73212700Y23014477D01*
X73212700Y23014477D02*
X73260319Y23157334D01*
X73260319Y23157334D02*
X73260319Y23252572D01*
X73260319Y23252572D02*
X73212700Y23395429D01*
X73212700Y23395429D02*
X73117461Y23490667D01*
X73117461Y23490667D02*
X73022223Y23538286D01*
X73022223Y23538286D02*
X72831747Y23585905D01*
X72831747Y23585905D02*
X72688890Y23585905D01*
X72688890Y23585905D02*
X72498414Y23538286D01*
X72498414Y23538286D02*
X72403176Y23490667D01*
X72403176Y23490667D02*
X72307938Y23395429D01*
X72307938Y23395429D02*
X72260319Y23252572D01*
X72260319Y23252572D02*
X72260319Y23157334D01*
X72260319Y23157334D02*
X72307938Y23014477D01*
X72307938Y23014477D02*
X72355557Y22966858D01*
X73260319Y22014477D02*
X73260319Y22585905D01*
X73260319Y22300191D02*
X72260319Y22300191D01*
X72260319Y22300191D02*
X72403176Y22395429D01*
X72403176Y22395429D02*
X72498414Y22490667D01*
X72498414Y22490667D02*
X72546033Y22585905D01*
X72593652Y21157334D02*
X73260319Y21157334D01*
X72212700Y21395429D02*
X72926985Y21633524D01*
X72926985Y21633524D02*
X72926985Y21014477D01*
X69667357Y25364420D02*
X69714976Y25316800D01*
X69714976Y25316800D02*
X69857833Y25269181D01*
X69857833Y25269181D02*
X69953071Y25269181D01*
X69953071Y25269181D02*
X70095928Y25316800D01*
X70095928Y25316800D02*
X70191166Y25412039D01*
X70191166Y25412039D02*
X70238785Y25507277D01*
X70238785Y25507277D02*
X70286404Y25697753D01*
X70286404Y25697753D02*
X70286404Y25840610D01*
X70286404Y25840610D02*
X70238785Y26031086D01*
X70238785Y26031086D02*
X70191166Y26126324D01*
X70191166Y26126324D02*
X70095928Y26221562D01*
X70095928Y26221562D02*
X69953071Y26269181D01*
X69953071Y26269181D02*
X69857833Y26269181D01*
X69857833Y26269181D02*
X69714976Y26221562D01*
X69714976Y26221562D02*
X69667357Y26173943D01*
X68714976Y25269181D02*
X69286404Y25269181D01*
X69000690Y25269181D02*
X69000690Y26269181D01*
X69000690Y26269181D02*
X69095928Y26126324D01*
X69095928Y26126324D02*
X69191166Y26031086D01*
X69191166Y26031086D02*
X69286404Y25983467D01*
X67810214Y26269181D02*
X68286404Y26269181D01*
X68286404Y26269181D02*
X68334023Y25792991D01*
X68334023Y25792991D02*
X68286404Y25840610D01*
X68286404Y25840610D02*
X68191166Y25888229D01*
X68191166Y25888229D02*
X67953071Y25888229D01*
X67953071Y25888229D02*
X67857833Y25840610D01*
X67857833Y25840610D02*
X67810214Y25792991D01*
X67810214Y25792991D02*
X67762595Y25697753D01*
X67762595Y25697753D02*
X67762595Y25459658D01*
X67762595Y25459658D02*
X67810214Y25364420D01*
X67810214Y25364420D02*
X67857833Y25316800D01*
X67857833Y25316800D02*
X67953071Y25269181D01*
X67953071Y25269181D02*
X68191166Y25269181D01*
X68191166Y25269181D02*
X68286404Y25316800D01*
X68286404Y25316800D02*
X68334023Y25364420D01*
X69667357Y31460420D02*
X69714976Y31412800D01*
X69714976Y31412800D02*
X69857833Y31365181D01*
X69857833Y31365181D02*
X69953071Y31365181D01*
X69953071Y31365181D02*
X70095928Y31412800D01*
X70095928Y31412800D02*
X70191166Y31508039D01*
X70191166Y31508039D02*
X70238785Y31603277D01*
X70238785Y31603277D02*
X70286404Y31793753D01*
X70286404Y31793753D02*
X70286404Y31936610D01*
X70286404Y31936610D02*
X70238785Y32127086D01*
X70238785Y32127086D02*
X70191166Y32222324D01*
X70191166Y32222324D02*
X70095928Y32317562D01*
X70095928Y32317562D02*
X69953071Y32365181D01*
X69953071Y32365181D02*
X69857833Y32365181D01*
X69857833Y32365181D02*
X69714976Y32317562D01*
X69714976Y32317562D02*
X69667357Y32269943D01*
X68714976Y31365181D02*
X69286404Y31365181D01*
X69000690Y31365181D02*
X69000690Y32365181D01*
X69000690Y32365181D02*
X69095928Y32222324D01*
X69095928Y32222324D02*
X69191166Y32127086D01*
X69191166Y32127086D02*
X69286404Y32079467D01*
X67857833Y32365181D02*
X68048309Y32365181D01*
X68048309Y32365181D02*
X68143547Y32317562D01*
X68143547Y32317562D02*
X68191166Y32269943D01*
X68191166Y32269943D02*
X68286404Y32127086D01*
X68286404Y32127086D02*
X68334023Y31936610D01*
X68334023Y31936610D02*
X68334023Y31555658D01*
X68334023Y31555658D02*
X68286404Y31460420D01*
X68286404Y31460420D02*
X68238785Y31412800D01*
X68238785Y31412800D02*
X68143547Y31365181D01*
X68143547Y31365181D02*
X67953071Y31365181D01*
X67953071Y31365181D02*
X67857833Y31412800D01*
X67857833Y31412800D02*
X67810214Y31460420D01*
X67810214Y31460420D02*
X67762595Y31555658D01*
X67762595Y31555658D02*
X67762595Y31793753D01*
X67762595Y31793753D02*
X67810214Y31888991D01*
X67810214Y31888991D02*
X67857833Y31936610D01*
X67857833Y31936610D02*
X67953071Y31984229D01*
X67953071Y31984229D02*
X68143547Y31984229D01*
X68143547Y31984229D02*
X68238785Y31936610D01*
X68238785Y31936610D02*
X68286404Y31888991D01*
X68286404Y31888991D02*
X68334023Y31793753D01*
X56497179Y29802058D02*
X56544799Y29849677D01*
X56544799Y29849677D02*
X56592418Y29992534D01*
X56592418Y29992534D02*
X56592418Y30087772D01*
X56592418Y30087772D02*
X56544799Y30230629D01*
X56544799Y30230629D02*
X56449560Y30325867D01*
X56449560Y30325867D02*
X56354322Y30373486D01*
X56354322Y30373486D02*
X56163846Y30421105D01*
X56163846Y30421105D02*
X56020989Y30421105D01*
X56020989Y30421105D02*
X55830513Y30373486D01*
X55830513Y30373486D02*
X55735275Y30325867D01*
X55735275Y30325867D02*
X55640037Y30230629D01*
X55640037Y30230629D02*
X55592418Y30087772D01*
X55592418Y30087772D02*
X55592418Y29992534D01*
X55592418Y29992534D02*
X55640037Y29849677D01*
X55640037Y29849677D02*
X55687656Y29802058D01*
X56592418Y28849677D02*
X56592418Y29421105D01*
X56592418Y29135391D02*
X55592418Y29135391D01*
X55592418Y29135391D02*
X55735275Y29230629D01*
X55735275Y29230629D02*
X55830513Y29325867D01*
X55830513Y29325867D02*
X55878132Y29421105D01*
X55592418Y28516343D02*
X55592418Y27849677D01*
X55592418Y27849677D02*
X56592418Y28278248D01*
X55423180Y29802058D02*
X55470800Y29849677D01*
X55470800Y29849677D02*
X55518419Y29992534D01*
X55518419Y29992534D02*
X55518419Y30087772D01*
X55518419Y30087772D02*
X55470800Y30230629D01*
X55470800Y30230629D02*
X55375561Y30325867D01*
X55375561Y30325867D02*
X55280323Y30373486D01*
X55280323Y30373486D02*
X55089847Y30421105D01*
X55089847Y30421105D02*
X54946990Y30421105D01*
X54946990Y30421105D02*
X54756514Y30373486D01*
X54756514Y30373486D02*
X54661276Y30325867D01*
X54661276Y30325867D02*
X54566038Y30230629D01*
X54566038Y30230629D02*
X54518419Y30087772D01*
X54518419Y30087772D02*
X54518419Y29992534D01*
X54518419Y29992534D02*
X54566038Y29849677D01*
X54566038Y29849677D02*
X54613657Y29802058D01*
X55518419Y28849677D02*
X55518419Y29421105D01*
X55518419Y29135391D02*
X54518419Y29135391D01*
X54518419Y29135391D02*
X54661276Y29230629D01*
X54661276Y29230629D02*
X54756514Y29325867D01*
X54756514Y29325867D02*
X54804133Y29421105D01*
X54946990Y28278248D02*
X54899371Y28373486D01*
X54899371Y28373486D02*
X54851752Y28421105D01*
X54851752Y28421105D02*
X54756514Y28468724D01*
X54756514Y28468724D02*
X54708895Y28468724D01*
X54708895Y28468724D02*
X54613657Y28421105D01*
X54613657Y28421105D02*
X54566038Y28373486D01*
X54566038Y28373486D02*
X54518419Y28278248D01*
X54518419Y28278248D02*
X54518419Y28087772D01*
X54518419Y28087772D02*
X54566038Y27992534D01*
X54566038Y27992534D02*
X54613657Y27944915D01*
X54613657Y27944915D02*
X54708895Y27897296D01*
X54708895Y27897296D02*
X54756514Y27897296D01*
X54756514Y27897296D02*
X54851752Y27944915D01*
X54851752Y27944915D02*
X54899371Y27992534D01*
X54899371Y27992534D02*
X54946990Y28087772D01*
X54946990Y28087772D02*
X54946990Y28278248D01*
X54946990Y28278248D02*
X54994609Y28373486D01*
X54994609Y28373486D02*
X55042228Y28421105D01*
X55042228Y28421105D02*
X55137466Y28468724D01*
X55137466Y28468724D02*
X55327942Y28468724D01*
X55327942Y28468724D02*
X55423180Y28421105D01*
X55423180Y28421105D02*
X55470800Y28373486D01*
X55470800Y28373486D02*
X55518419Y28278248D01*
X55518419Y28278248D02*
X55518419Y28087772D01*
X55518419Y28087772D02*
X55470800Y27992534D01*
X55470800Y27992534D02*
X55423180Y27944915D01*
X55423180Y27944915D02*
X55327942Y27897296D01*
X55327942Y27897296D02*
X55137466Y27897296D01*
X55137466Y27897296D02*
X55042228Y27944915D01*
X55042228Y27944915D02*
X54994609Y27992534D01*
X54994609Y27992534D02*
X54946990Y28087772D01*
X35996819Y32424667D02*
X35996819Y32900857D01*
X35996819Y32900857D02*
X34996819Y32900857D01*
X35996819Y31567524D02*
X35996819Y32138952D01*
X35996819Y31853238D02*
X34996819Y31853238D01*
X34996819Y31853238D02*
X35139676Y31948476D01*
X35139676Y31948476D02*
X35234914Y32043714D01*
X35234914Y32043714D02*
X35282533Y32138952D01*
X38402057Y45815239D02*
X38354438Y45910477D01*
X38354438Y45910477D02*
X38259200Y46005715D01*
X38259200Y46005715D02*
X38116342Y46148572D01*
X38116342Y46148572D02*
X38068723Y46243810D01*
X38068723Y46243810D02*
X38068723Y46339048D01*
X38306819Y46291429D02*
X38259200Y46386667D01*
X38259200Y46386667D02*
X38163961Y46481905D01*
X38163961Y46481905D02*
X37973485Y46529524D01*
X37973485Y46529524D02*
X37640152Y46529524D01*
X37640152Y46529524D02*
X37449676Y46481905D01*
X37449676Y46481905D02*
X37354438Y46386667D01*
X37354438Y46386667D02*
X37306819Y46291429D01*
X37306819Y46291429D02*
X37306819Y46100953D01*
X37306819Y46100953D02*
X37354438Y46005715D01*
X37354438Y46005715D02*
X37449676Y45910477D01*
X37449676Y45910477D02*
X37640152Y45862858D01*
X37640152Y45862858D02*
X37973485Y45862858D01*
X37973485Y45862858D02*
X38163961Y45910477D01*
X38163961Y45910477D02*
X38259200Y46005715D01*
X38259200Y46005715D02*
X38306819Y46100953D01*
X38306819Y46100953D02*
X38306819Y46291429D01*
X38306819Y44910477D02*
X38306819Y45481905D01*
X38306819Y45196191D02*
X37306819Y45196191D01*
X37306819Y45196191D02*
X37449676Y45291429D01*
X37449676Y45291429D02*
X37544914Y45386667D01*
X37544914Y45386667D02*
X37592533Y45481905D01*
X14425819Y38647667D02*
X13949628Y38981000D01*
X14425819Y39219095D02*
X13425819Y39219095D01*
X13425819Y39219095D02*
X13425819Y38838143D01*
X13425819Y38838143D02*
X13473438Y38742905D01*
X13473438Y38742905D02*
X13521057Y38695286D01*
X13521057Y38695286D02*
X13616295Y38647667D01*
X13616295Y38647667D02*
X13759152Y38647667D01*
X13759152Y38647667D02*
X13854390Y38695286D01*
X13854390Y38695286D02*
X13902009Y38742905D01*
X13902009Y38742905D02*
X13949628Y38838143D01*
X13949628Y38838143D02*
X13949628Y39219095D01*
X14425819Y37695286D02*
X14425819Y38266714D01*
X14425819Y37981000D02*
X13425819Y37981000D01*
X13425819Y37981000D02*
X13568676Y38076238D01*
X13568676Y38076238D02*
X13663914Y38171476D01*
X13663914Y38171476D02*
X13711533Y38266714D01*
X23661666Y41200181D02*
X23994999Y41676372D01*
X24233094Y41200181D02*
X24233094Y42200181D01*
X24233094Y42200181D02*
X23852142Y42200181D01*
X23852142Y42200181D02*
X23756904Y42152562D01*
X23756904Y42152562D02*
X23709285Y42104943D01*
X23709285Y42104943D02*
X23661666Y42009705D01*
X23661666Y42009705D02*
X23661666Y41866848D01*
X23661666Y41866848D02*
X23709285Y41771610D01*
X23709285Y41771610D02*
X23756904Y41723991D01*
X23756904Y41723991D02*
X23852142Y41676372D01*
X23852142Y41676372D02*
X24233094Y41676372D01*
X23328332Y42200181D02*
X22709285Y42200181D01*
X22709285Y42200181D02*
X23042618Y41819229D01*
X23042618Y41819229D02*
X22899761Y41819229D01*
X22899761Y41819229D02*
X22804523Y41771610D01*
X22804523Y41771610D02*
X22756904Y41723991D01*
X22756904Y41723991D02*
X22709285Y41628753D01*
X22709285Y41628753D02*
X22709285Y41390658D01*
X22709285Y41390658D02*
X22756904Y41295420D01*
X22756904Y41295420D02*
X22804523Y41247800D01*
X22804523Y41247800D02*
X22899761Y41200181D01*
X22899761Y41200181D02*
X23185475Y41200181D01*
X23185475Y41200181D02*
X23280713Y41247800D01*
X23280713Y41247800D02*
X23328332Y41295420D01*
X20090019Y35701267D02*
X19613828Y36034600D01*
X20090019Y36272695D02*
X19090019Y36272695D01*
X19090019Y36272695D02*
X19090019Y35891743D01*
X19090019Y35891743D02*
X19137638Y35796505D01*
X19137638Y35796505D02*
X19185257Y35748886D01*
X19185257Y35748886D02*
X19280495Y35701267D01*
X19280495Y35701267D02*
X19423352Y35701267D01*
X19423352Y35701267D02*
X19518590Y35748886D01*
X19518590Y35748886D02*
X19566209Y35796505D01*
X19566209Y35796505D02*
X19613828Y35891743D01*
X19613828Y35891743D02*
X19613828Y36272695D01*
X19090019Y34796505D02*
X19090019Y35272695D01*
X19090019Y35272695D02*
X19566209Y35320314D01*
X19566209Y35320314D02*
X19518590Y35272695D01*
X19518590Y35272695D02*
X19470971Y35177457D01*
X19470971Y35177457D02*
X19470971Y34939362D01*
X19470971Y34939362D02*
X19518590Y34844124D01*
X19518590Y34844124D02*
X19566209Y34796505D01*
X19566209Y34796505D02*
X19661447Y34748886D01*
X19661447Y34748886D02*
X19899542Y34748886D01*
X19899542Y34748886D02*
X19994780Y34796505D01*
X19994780Y34796505D02*
X20042400Y34844124D01*
X20042400Y34844124D02*
X20090019Y34939362D01*
X20090019Y34939362D02*
X20090019Y35177457D01*
X20090019Y35177457D02*
X20042400Y35272695D01*
X20042400Y35272695D02*
X19994780Y35320314D01*
X20537466Y31802181D02*
X20870799Y32278372D01*
X21108894Y31802181D02*
X21108894Y32802181D01*
X21108894Y32802181D02*
X20727942Y32802181D01*
X20727942Y32802181D02*
X20632704Y32754562D01*
X20632704Y32754562D02*
X20585085Y32706943D01*
X20585085Y32706943D02*
X20537466Y32611705D01*
X20537466Y32611705D02*
X20537466Y32468848D01*
X20537466Y32468848D02*
X20585085Y32373610D01*
X20585085Y32373610D02*
X20632704Y32325991D01*
X20632704Y32325991D02*
X20727942Y32278372D01*
X20727942Y32278372D02*
X21108894Y32278372D01*
X19680323Y32802181D02*
X19870799Y32802181D01*
X19870799Y32802181D02*
X19966037Y32754562D01*
X19966037Y32754562D02*
X20013656Y32706943D01*
X20013656Y32706943D02*
X20108894Y32564086D01*
X20108894Y32564086D02*
X20156513Y32373610D01*
X20156513Y32373610D02*
X20156513Y31992658D01*
X20156513Y31992658D02*
X20108894Y31897420D01*
X20108894Y31897420D02*
X20061275Y31849800D01*
X20061275Y31849800D02*
X19966037Y31802181D01*
X19966037Y31802181D02*
X19775561Y31802181D01*
X19775561Y31802181D02*
X19680323Y31849800D01*
X19680323Y31849800D02*
X19632704Y31897420D01*
X19632704Y31897420D02*
X19585085Y31992658D01*
X19585085Y31992658D02*
X19585085Y32230753D01*
X19585085Y32230753D02*
X19632704Y32325991D01*
X19632704Y32325991D02*
X19680323Y32373610D01*
X19680323Y32373610D02*
X19775561Y32421229D01*
X19775561Y32421229D02*
X19966037Y32421229D01*
X19966037Y32421229D02*
X20061275Y32373610D01*
X20061275Y32373610D02*
X20108894Y32325991D01*
X20108894Y32325991D02*
X20156513Y32230753D01*
X42109819Y-8469333D02*
X41633628Y-8136000D01*
X42109819Y-7897905D02*
X41109819Y-7897905D01*
X41109819Y-7897905D02*
X41109819Y-8278857D01*
X41109819Y-8278857D02*
X41157438Y-8374095D01*
X41157438Y-8374095D02*
X41205057Y-8421714D01*
X41205057Y-8421714D02*
X41300295Y-8469333D01*
X41300295Y-8469333D02*
X41443152Y-8469333D01*
X41443152Y-8469333D02*
X41538390Y-8421714D01*
X41538390Y-8421714D02*
X41586009Y-8374095D01*
X41586009Y-8374095D02*
X41633628Y-8278857D01*
X41633628Y-8278857D02*
X41633628Y-7897905D01*
X41109819Y-8802667D02*
X41109819Y-9469333D01*
X41109819Y-9469333D02*
X42109819Y-9040762D01*
X29536819Y41822667D02*
X29060628Y42156000D01*
X29536819Y42394095D02*
X28536819Y42394095D01*
X28536819Y42394095D02*
X28536819Y42013143D01*
X28536819Y42013143D02*
X28584438Y41917905D01*
X28584438Y41917905D02*
X28632057Y41870286D01*
X28632057Y41870286D02*
X28727295Y41822667D01*
X28727295Y41822667D02*
X28870152Y41822667D01*
X28870152Y41822667D02*
X28965390Y41870286D01*
X28965390Y41870286D02*
X29013009Y41917905D01*
X29013009Y41917905D02*
X29060628Y42013143D01*
X29060628Y42013143D02*
X29060628Y42394095D01*
X28965390Y41251238D02*
X28917771Y41346476D01*
X28917771Y41346476D02*
X28870152Y41394095D01*
X28870152Y41394095D02*
X28774914Y41441714D01*
X28774914Y41441714D02*
X28727295Y41441714D01*
X28727295Y41441714D02*
X28632057Y41394095D01*
X28632057Y41394095D02*
X28584438Y41346476D01*
X28584438Y41346476D02*
X28536819Y41251238D01*
X28536819Y41251238D02*
X28536819Y41060762D01*
X28536819Y41060762D02*
X28584438Y40965524D01*
X28584438Y40965524D02*
X28632057Y40917905D01*
X28632057Y40917905D02*
X28727295Y40870286D01*
X28727295Y40870286D02*
X28774914Y40870286D01*
X28774914Y40870286D02*
X28870152Y40917905D01*
X28870152Y40917905D02*
X28917771Y40965524D01*
X28917771Y40965524D02*
X28965390Y41060762D01*
X28965390Y41060762D02*
X28965390Y41251238D01*
X28965390Y41251238D02*
X29013009Y41346476D01*
X29013009Y41346476D02*
X29060628Y41394095D01*
X29060628Y41394095D02*
X29155866Y41441714D01*
X29155866Y41441714D02*
X29346342Y41441714D01*
X29346342Y41441714D02*
X29441580Y41394095D01*
X29441580Y41394095D02*
X29489200Y41346476D01*
X29489200Y41346476D02*
X29536819Y41251238D01*
X29536819Y41251238D02*
X29536819Y41060762D01*
X29536819Y41060762D02*
X29489200Y40965524D01*
X29489200Y40965524D02*
X29441580Y40917905D01*
X29441580Y40917905D02*
X29346342Y40870286D01*
X29346342Y40870286D02*
X29155866Y40870286D01*
X29155866Y40870286D02*
X29060628Y40917905D01*
X29060628Y40917905D02*
X29013009Y40965524D01*
X29013009Y40965524D02*
X28965390Y41060762D01*
X32584819Y39663667D02*
X32108628Y39997000D01*
X32584819Y40235095D02*
X31584819Y40235095D01*
X31584819Y40235095D02*
X31584819Y39854143D01*
X31584819Y39854143D02*
X31632438Y39758905D01*
X31632438Y39758905D02*
X31680057Y39711286D01*
X31680057Y39711286D02*
X31775295Y39663667D01*
X31775295Y39663667D02*
X31918152Y39663667D01*
X31918152Y39663667D02*
X32013390Y39711286D01*
X32013390Y39711286D02*
X32061009Y39758905D01*
X32061009Y39758905D02*
X32108628Y39854143D01*
X32108628Y39854143D02*
X32108628Y40235095D01*
X32584819Y39187476D02*
X32584819Y38997000D01*
X32584819Y38997000D02*
X32537200Y38901762D01*
X32537200Y38901762D02*
X32489580Y38854143D01*
X32489580Y38854143D02*
X32346723Y38758905D01*
X32346723Y38758905D02*
X32156247Y38711286D01*
X32156247Y38711286D02*
X31775295Y38711286D01*
X31775295Y38711286D02*
X31680057Y38758905D01*
X31680057Y38758905D02*
X31632438Y38806524D01*
X31632438Y38806524D02*
X31584819Y38901762D01*
X31584819Y38901762D02*
X31584819Y39092238D01*
X31584819Y39092238D02*
X31632438Y39187476D01*
X31632438Y39187476D02*
X31680057Y39235095D01*
X31680057Y39235095D02*
X31775295Y39282714D01*
X31775295Y39282714D02*
X32013390Y39282714D01*
X32013390Y39282714D02*
X32108628Y39235095D01*
X32108628Y39235095D02*
X32156247Y39187476D01*
X32156247Y39187476D02*
X32203866Y39092238D01*
X32203866Y39092238D02*
X32203866Y38901762D01*
X32203866Y38901762D02*
X32156247Y38806524D01*
X32156247Y38806524D02*
X32108628Y38758905D01*
X32108628Y38758905D02*
X32013390Y38711286D01*
X50503057Y60478781D02*
X50836390Y60954972D01*
X51074485Y60478781D02*
X51074485Y61478781D01*
X51074485Y61478781D02*
X50693533Y61478781D01*
X50693533Y61478781D02*
X50598295Y61431162D01*
X50598295Y61431162D02*
X50550676Y61383543D01*
X50550676Y61383543D02*
X50503057Y61288305D01*
X50503057Y61288305D02*
X50503057Y61145448D01*
X50503057Y61145448D02*
X50550676Y61050210D01*
X50550676Y61050210D02*
X50598295Y61002591D01*
X50598295Y61002591D02*
X50693533Y60954972D01*
X50693533Y60954972D02*
X51074485Y60954972D01*
X49550676Y60478781D02*
X50122104Y60478781D01*
X49836390Y60478781D02*
X49836390Y61478781D01*
X49836390Y61478781D02*
X49931628Y61335924D01*
X49931628Y61335924D02*
X50026866Y61240686D01*
X50026866Y61240686D02*
X50122104Y61193067D01*
X48598295Y60478781D02*
X49169723Y60478781D01*
X48884009Y60478781D02*
X48884009Y61478781D01*
X48884009Y61478781D02*
X48979247Y61335924D01*
X48979247Y61335924D02*
X49074485Y61240686D01*
X49074485Y61240686D02*
X49169723Y61193067D01*
X72270857Y20135781D02*
X72604190Y20611972D01*
X72842285Y20135781D02*
X72842285Y21135781D01*
X72842285Y21135781D02*
X72461333Y21135781D01*
X72461333Y21135781D02*
X72366095Y21088162D01*
X72366095Y21088162D02*
X72318476Y21040543D01*
X72318476Y21040543D02*
X72270857Y20945305D01*
X72270857Y20945305D02*
X72270857Y20802448D01*
X72270857Y20802448D02*
X72318476Y20707210D01*
X72318476Y20707210D02*
X72366095Y20659591D01*
X72366095Y20659591D02*
X72461333Y20611972D01*
X72461333Y20611972D02*
X72842285Y20611972D01*
X71318476Y20135781D02*
X71889904Y20135781D01*
X71604190Y20135781D02*
X71604190Y21135781D01*
X71604190Y21135781D02*
X71699428Y20992924D01*
X71699428Y20992924D02*
X71794666Y20897686D01*
X71794666Y20897686D02*
X71889904Y20850067D01*
X70985142Y21135781D02*
X70318476Y21135781D01*
X70318476Y21135781D02*
X70747047Y20135781D01*
X64842819Y21699458D02*
X64366628Y22032791D01*
X64842819Y22270886D02*
X63842819Y22270886D01*
X63842819Y22270886D02*
X63842819Y21889934D01*
X63842819Y21889934D02*
X63890438Y21794696D01*
X63890438Y21794696D02*
X63938057Y21747077D01*
X63938057Y21747077D02*
X64033295Y21699458D01*
X64033295Y21699458D02*
X64176152Y21699458D01*
X64176152Y21699458D02*
X64271390Y21747077D01*
X64271390Y21747077D02*
X64319009Y21794696D01*
X64319009Y21794696D02*
X64366628Y21889934D01*
X64366628Y21889934D02*
X64366628Y22270886D01*
X64842819Y20747077D02*
X64842819Y21318505D01*
X64842819Y21032791D02*
X63842819Y21032791D01*
X63842819Y21032791D02*
X63985676Y21128029D01*
X63985676Y21128029D02*
X64080914Y21223267D01*
X64080914Y21223267D02*
X64128533Y21318505D01*
X64271390Y20175648D02*
X64223771Y20270886D01*
X64223771Y20270886D02*
X64176152Y20318505D01*
X64176152Y20318505D02*
X64080914Y20366124D01*
X64080914Y20366124D02*
X64033295Y20366124D01*
X64033295Y20366124D02*
X63938057Y20318505D01*
X63938057Y20318505D02*
X63890438Y20270886D01*
X63890438Y20270886D02*
X63842819Y20175648D01*
X63842819Y20175648D02*
X63842819Y19985172D01*
X63842819Y19985172D02*
X63890438Y19889934D01*
X63890438Y19889934D02*
X63938057Y19842315D01*
X63938057Y19842315D02*
X64033295Y19794696D01*
X64033295Y19794696D02*
X64080914Y19794696D01*
X64080914Y19794696D02*
X64176152Y19842315D01*
X64176152Y19842315D02*
X64223771Y19889934D01*
X64223771Y19889934D02*
X64271390Y19985172D01*
X64271390Y19985172D02*
X64271390Y20175648D01*
X64271390Y20175648D02*
X64319009Y20270886D01*
X64319009Y20270886D02*
X64366628Y20318505D01*
X64366628Y20318505D02*
X64461866Y20366124D01*
X64461866Y20366124D02*
X64652342Y20366124D01*
X64652342Y20366124D02*
X64747580Y20318505D01*
X64747580Y20318505D02*
X64795200Y20270886D01*
X64795200Y20270886D02*
X64842819Y20175648D01*
X64842819Y20175648D02*
X64842819Y19985172D01*
X64842819Y19985172D02*
X64795200Y19889934D01*
X64795200Y19889934D02*
X64747580Y19842315D01*
X64747580Y19842315D02*
X64652342Y19794696D01*
X64652342Y19794696D02*
X64461866Y19794696D01*
X64461866Y19794696D02*
X64366628Y19842315D01*
X64366628Y19842315D02*
X64319009Y19889934D01*
X64319009Y19889934D02*
X64271390Y19985172D01*
X62618857Y15903781D02*
X62952190Y16379972D01*
X63190285Y15903781D02*
X63190285Y16903781D01*
X63190285Y16903781D02*
X62809333Y16903781D01*
X62809333Y16903781D02*
X62714095Y16856162D01*
X62714095Y16856162D02*
X62666476Y16808543D01*
X62666476Y16808543D02*
X62618857Y16713305D01*
X62618857Y16713305D02*
X62618857Y16570448D01*
X62618857Y16570448D02*
X62666476Y16475210D01*
X62666476Y16475210D02*
X62714095Y16427591D01*
X62714095Y16427591D02*
X62809333Y16379972D01*
X62809333Y16379972D02*
X63190285Y16379972D01*
X61666476Y15903781D02*
X62237904Y15903781D01*
X61952190Y15903781D02*
X61952190Y16903781D01*
X61952190Y16903781D02*
X62047428Y16760924D01*
X62047428Y16760924D02*
X62142666Y16665686D01*
X62142666Y16665686D02*
X62237904Y16618067D01*
X61190285Y15903781D02*
X60999809Y15903781D01*
X60999809Y15903781D02*
X60904571Y15951400D01*
X60904571Y15951400D02*
X60856952Y15999020D01*
X60856952Y15999020D02*
X60761714Y16141877D01*
X60761714Y16141877D02*
X60714095Y16332353D01*
X60714095Y16332353D02*
X60714095Y16713305D01*
X60714095Y16713305D02*
X60761714Y16808543D01*
X60761714Y16808543D02*
X60809333Y16856162D01*
X60809333Y16856162D02*
X60904571Y16903781D01*
X60904571Y16903781D02*
X61095047Y16903781D01*
X61095047Y16903781D02*
X61190285Y16856162D01*
X61190285Y16856162D02*
X61237904Y16808543D01*
X61237904Y16808543D02*
X61285523Y16713305D01*
X61285523Y16713305D02*
X61285523Y16475210D01*
X61285523Y16475210D02*
X61237904Y16379972D01*
X61237904Y16379972D02*
X61190285Y16332353D01*
X61190285Y16332353D02*
X61095047Y16284734D01*
X61095047Y16284734D02*
X60904571Y16284734D01*
X60904571Y16284734D02*
X60809333Y16332353D01*
X60809333Y16332353D02*
X60761714Y16379972D01*
X60761714Y16379972D02*
X60714095Y16475210D01*
X61644419Y26017458D02*
X61168228Y26350791D01*
X61644419Y26588886D02*
X60644419Y26588886D01*
X60644419Y26588886D02*
X60644419Y26207934D01*
X60644419Y26207934D02*
X60692038Y26112696D01*
X60692038Y26112696D02*
X60739657Y26065077D01*
X60739657Y26065077D02*
X60834895Y26017458D01*
X60834895Y26017458D02*
X60977752Y26017458D01*
X60977752Y26017458D02*
X61072990Y26065077D01*
X61072990Y26065077D02*
X61120609Y26112696D01*
X61120609Y26112696D02*
X61168228Y26207934D01*
X61168228Y26207934D02*
X61168228Y26588886D01*
X60739657Y25636505D02*
X60692038Y25588886D01*
X60692038Y25588886D02*
X60644419Y25493648D01*
X60644419Y25493648D02*
X60644419Y25255553D01*
X60644419Y25255553D02*
X60692038Y25160315D01*
X60692038Y25160315D02*
X60739657Y25112696D01*
X60739657Y25112696D02*
X60834895Y25065077D01*
X60834895Y25065077D02*
X60930133Y25065077D01*
X60930133Y25065077D02*
X61072990Y25112696D01*
X61072990Y25112696D02*
X61644419Y25684124D01*
X61644419Y25684124D02*
X61644419Y25065077D01*
X60644419Y24446029D02*
X60644419Y24350791D01*
X60644419Y24350791D02*
X60692038Y24255553D01*
X60692038Y24255553D02*
X60739657Y24207934D01*
X60739657Y24207934D02*
X60834895Y24160315D01*
X60834895Y24160315D02*
X61025371Y24112696D01*
X61025371Y24112696D02*
X61263466Y24112696D01*
X61263466Y24112696D02*
X61453942Y24160315D01*
X61453942Y24160315D02*
X61549180Y24207934D01*
X61549180Y24207934D02*
X61596800Y24255553D01*
X61596800Y24255553D02*
X61644419Y24350791D01*
X61644419Y24350791D02*
X61644419Y24446029D01*
X61644419Y24446029D02*
X61596800Y24541267D01*
X61596800Y24541267D02*
X61549180Y24588886D01*
X61549180Y24588886D02*
X61453942Y24636505D01*
X61453942Y24636505D02*
X61263466Y24684124D01*
X61263466Y24684124D02*
X61025371Y24684124D01*
X61025371Y24684124D02*
X60834895Y24636505D01*
X60834895Y24636505D02*
X60739657Y24588886D01*
X60739657Y24588886D02*
X60692038Y24541267D01*
X60692038Y24541267D02*
X60644419Y24446029D01*
X62898257Y38052581D02*
X63231590Y38528772D01*
X63469685Y38052581D02*
X63469685Y39052581D01*
X63469685Y39052581D02*
X63088733Y39052581D01*
X63088733Y39052581D02*
X62993495Y39004962D01*
X62993495Y39004962D02*
X62945876Y38957343D01*
X62945876Y38957343D02*
X62898257Y38862105D01*
X62898257Y38862105D02*
X62898257Y38719248D01*
X62898257Y38719248D02*
X62945876Y38624010D01*
X62945876Y38624010D02*
X62993495Y38576391D01*
X62993495Y38576391D02*
X63088733Y38528772D01*
X63088733Y38528772D02*
X63469685Y38528772D01*
X62517304Y38957343D02*
X62469685Y39004962D01*
X62469685Y39004962D02*
X62374447Y39052581D01*
X62374447Y39052581D02*
X62136352Y39052581D01*
X62136352Y39052581D02*
X62041114Y39004962D01*
X62041114Y39004962D02*
X61993495Y38957343D01*
X61993495Y38957343D02*
X61945876Y38862105D01*
X61945876Y38862105D02*
X61945876Y38766867D01*
X61945876Y38766867D02*
X61993495Y38624010D01*
X61993495Y38624010D02*
X62564923Y38052581D01*
X62564923Y38052581D02*
X61945876Y38052581D01*
X61612542Y39052581D02*
X60993495Y39052581D01*
X60993495Y39052581D02*
X61326828Y38671629D01*
X61326828Y38671629D02*
X61183971Y38671629D01*
X61183971Y38671629D02*
X61088733Y38624010D01*
X61088733Y38624010D02*
X61041114Y38576391D01*
X61041114Y38576391D02*
X60993495Y38481153D01*
X60993495Y38481153D02*
X60993495Y38243058D01*
X60993495Y38243058D02*
X61041114Y38147820D01*
X61041114Y38147820D02*
X61088733Y38100200D01*
X61088733Y38100200D02*
X61183971Y38052581D01*
X61183971Y38052581D02*
X61469685Y38052581D01*
X61469685Y38052581D02*
X61564923Y38100200D01*
X61564923Y38100200D02*
X61612542Y38147820D01*
X58300857Y32220681D02*
X58634190Y32696872D01*
X58872285Y32220681D02*
X58872285Y33220681D01*
X58872285Y33220681D02*
X58491333Y33220681D01*
X58491333Y33220681D02*
X58396095Y33173062D01*
X58396095Y33173062D02*
X58348476Y33125443D01*
X58348476Y33125443D02*
X58300857Y33030205D01*
X58300857Y33030205D02*
X58300857Y32887348D01*
X58300857Y32887348D02*
X58348476Y32792110D01*
X58348476Y32792110D02*
X58396095Y32744491D01*
X58396095Y32744491D02*
X58491333Y32696872D01*
X58491333Y32696872D02*
X58872285Y32696872D01*
X57919904Y33125443D02*
X57872285Y33173062D01*
X57872285Y33173062D02*
X57777047Y33220681D01*
X57777047Y33220681D02*
X57538952Y33220681D01*
X57538952Y33220681D02*
X57443714Y33173062D01*
X57443714Y33173062D02*
X57396095Y33125443D01*
X57396095Y33125443D02*
X57348476Y33030205D01*
X57348476Y33030205D02*
X57348476Y32934967D01*
X57348476Y32934967D02*
X57396095Y32792110D01*
X57396095Y32792110D02*
X57967523Y32220681D01*
X57967523Y32220681D02*
X57348476Y32220681D01*
X56491333Y32887348D02*
X56491333Y32220681D01*
X56729428Y33268300D02*
X56967523Y32554015D01*
X56967523Y32554015D02*
X56348476Y32554015D01*
X60044219Y37752258D02*
X59568028Y38085591D01*
X60044219Y38323686D02*
X59044219Y38323686D01*
X59044219Y38323686D02*
X59044219Y37942734D01*
X59044219Y37942734D02*
X59091838Y37847496D01*
X59091838Y37847496D02*
X59139457Y37799877D01*
X59139457Y37799877D02*
X59234695Y37752258D01*
X59234695Y37752258D02*
X59377552Y37752258D01*
X59377552Y37752258D02*
X59472790Y37799877D01*
X59472790Y37799877D02*
X59520409Y37847496D01*
X59520409Y37847496D02*
X59568028Y37942734D01*
X59568028Y37942734D02*
X59568028Y38323686D01*
X59139457Y37371305D02*
X59091838Y37323686D01*
X59091838Y37323686D02*
X59044219Y37228448D01*
X59044219Y37228448D02*
X59044219Y36990353D01*
X59044219Y36990353D02*
X59091838Y36895115D01*
X59091838Y36895115D02*
X59139457Y36847496D01*
X59139457Y36847496D02*
X59234695Y36799877D01*
X59234695Y36799877D02*
X59329933Y36799877D01*
X59329933Y36799877D02*
X59472790Y36847496D01*
X59472790Y36847496D02*
X60044219Y37418924D01*
X60044219Y37418924D02*
X60044219Y36799877D01*
X59044219Y36466543D02*
X59044219Y35799877D01*
X59044219Y35799877D02*
X60044219Y36228448D01*
X77198457Y31194581D02*
X77531790Y31670772D01*
X77769885Y31194581D02*
X77769885Y32194581D01*
X77769885Y32194581D02*
X77388933Y32194581D01*
X77388933Y32194581D02*
X77293695Y32146962D01*
X77293695Y32146962D02*
X77246076Y32099343D01*
X77246076Y32099343D02*
X77198457Y32004105D01*
X77198457Y32004105D02*
X77198457Y31861248D01*
X77198457Y31861248D02*
X77246076Y31766010D01*
X77246076Y31766010D02*
X77293695Y31718391D01*
X77293695Y31718391D02*
X77388933Y31670772D01*
X77388933Y31670772D02*
X77769885Y31670772D01*
X76817504Y32099343D02*
X76769885Y32146962D01*
X76769885Y32146962D02*
X76674647Y32194581D01*
X76674647Y32194581D02*
X76436552Y32194581D01*
X76436552Y32194581D02*
X76341314Y32146962D01*
X76341314Y32146962D02*
X76293695Y32099343D01*
X76293695Y32099343D02*
X76246076Y32004105D01*
X76246076Y32004105D02*
X76246076Y31908867D01*
X76246076Y31908867D02*
X76293695Y31766010D01*
X76293695Y31766010D02*
X76865123Y31194581D01*
X76865123Y31194581D02*
X76246076Y31194581D01*
X75674647Y31766010D02*
X75769885Y31813629D01*
X75769885Y31813629D02*
X75817504Y31861248D01*
X75817504Y31861248D02*
X75865123Y31956486D01*
X75865123Y31956486D02*
X75865123Y32004105D01*
X75865123Y32004105D02*
X75817504Y32099343D01*
X75817504Y32099343D02*
X75769885Y32146962D01*
X75769885Y32146962D02*
X75674647Y32194581D01*
X75674647Y32194581D02*
X75484171Y32194581D01*
X75484171Y32194581D02*
X75388933Y32146962D01*
X75388933Y32146962D02*
X75341314Y32099343D01*
X75341314Y32099343D02*
X75293695Y32004105D01*
X75293695Y32004105D02*
X75293695Y31956486D01*
X75293695Y31956486D02*
X75341314Y31861248D01*
X75341314Y31861248D02*
X75388933Y31813629D01*
X75388933Y31813629D02*
X75484171Y31766010D01*
X75484171Y31766010D02*
X75674647Y31766010D01*
X75674647Y31766010D02*
X75769885Y31718391D01*
X75769885Y31718391D02*
X75817504Y31670772D01*
X75817504Y31670772D02*
X75865123Y31575534D01*
X75865123Y31575534D02*
X75865123Y31385058D01*
X75865123Y31385058D02*
X75817504Y31289820D01*
X75817504Y31289820D02*
X75769885Y31242200D01*
X75769885Y31242200D02*
X75674647Y31194581D01*
X75674647Y31194581D02*
X75484171Y31194581D01*
X75484171Y31194581D02*
X75388933Y31242200D01*
X75388933Y31242200D02*
X75341314Y31289820D01*
X75341314Y31289820D02*
X75293695Y31385058D01*
X75293695Y31385058D02*
X75293695Y31575534D01*
X75293695Y31575534D02*
X75341314Y31670772D01*
X75341314Y31670772D02*
X75388933Y31718391D01*
X75388933Y31718391D02*
X75484171Y31766010D01*
X14257257Y42929381D02*
X14590590Y43405572D01*
X14828685Y42929381D02*
X14828685Y43929381D01*
X14828685Y43929381D02*
X14447733Y43929381D01*
X14447733Y43929381D02*
X14352495Y43881762D01*
X14352495Y43881762D02*
X14304876Y43834143D01*
X14304876Y43834143D02*
X14257257Y43738905D01*
X14257257Y43738905D02*
X14257257Y43596048D01*
X14257257Y43596048D02*
X14304876Y43500810D01*
X14304876Y43500810D02*
X14352495Y43453191D01*
X14352495Y43453191D02*
X14447733Y43405572D01*
X14447733Y43405572D02*
X14828685Y43405572D01*
X13923923Y43929381D02*
X13304876Y43929381D01*
X13304876Y43929381D02*
X13638209Y43548429D01*
X13638209Y43548429D02*
X13495352Y43548429D01*
X13495352Y43548429D02*
X13400114Y43500810D01*
X13400114Y43500810D02*
X13352495Y43453191D01*
X13352495Y43453191D02*
X13304876Y43357953D01*
X13304876Y43357953D02*
X13304876Y43119858D01*
X13304876Y43119858D02*
X13352495Y43024620D01*
X13352495Y43024620D02*
X13400114Y42977000D01*
X13400114Y42977000D02*
X13495352Y42929381D01*
X13495352Y42929381D02*
X13781066Y42929381D01*
X13781066Y42929381D02*
X13876304Y42977000D01*
X13876304Y42977000D02*
X13923923Y43024620D01*
X12923923Y43834143D02*
X12876304Y43881762D01*
X12876304Y43881762D02*
X12781066Y43929381D01*
X12781066Y43929381D02*
X12542971Y43929381D01*
X12542971Y43929381D02*
X12447733Y43881762D01*
X12447733Y43881762D02*
X12400114Y43834143D01*
X12400114Y43834143D02*
X12352495Y43738905D01*
X12352495Y43738905D02*
X12352495Y43643667D01*
X12352495Y43643667D02*
X12400114Y43500810D01*
X12400114Y43500810D02*
X12971542Y42929381D01*
X12971542Y42929381D02*
X12352495Y42929381D01*
X14308057Y20526581D02*
X14641390Y21002772D01*
X14879485Y20526581D02*
X14879485Y21526581D01*
X14879485Y21526581D02*
X14498533Y21526581D01*
X14498533Y21526581D02*
X14403295Y21478962D01*
X14403295Y21478962D02*
X14355676Y21431343D01*
X14355676Y21431343D02*
X14308057Y21336105D01*
X14308057Y21336105D02*
X14308057Y21193248D01*
X14308057Y21193248D02*
X14355676Y21098010D01*
X14355676Y21098010D02*
X14403295Y21050391D01*
X14403295Y21050391D02*
X14498533Y21002772D01*
X14498533Y21002772D02*
X14879485Y21002772D01*
X13974723Y21526581D02*
X13355676Y21526581D01*
X13355676Y21526581D02*
X13689009Y21145629D01*
X13689009Y21145629D02*
X13546152Y21145629D01*
X13546152Y21145629D02*
X13450914Y21098010D01*
X13450914Y21098010D02*
X13403295Y21050391D01*
X13403295Y21050391D02*
X13355676Y20955153D01*
X13355676Y20955153D02*
X13355676Y20717058D01*
X13355676Y20717058D02*
X13403295Y20621820D01*
X13403295Y20621820D02*
X13450914Y20574200D01*
X13450914Y20574200D02*
X13546152Y20526581D01*
X13546152Y20526581D02*
X13831866Y20526581D01*
X13831866Y20526581D02*
X13927104Y20574200D01*
X13927104Y20574200D02*
X13974723Y20621820D01*
X13022342Y21526581D02*
X12403295Y21526581D01*
X12403295Y21526581D02*
X12736628Y21145629D01*
X12736628Y21145629D02*
X12593771Y21145629D01*
X12593771Y21145629D02*
X12498533Y21098010D01*
X12498533Y21098010D02*
X12450914Y21050391D01*
X12450914Y21050391D02*
X12403295Y20955153D01*
X12403295Y20955153D02*
X12403295Y20717058D01*
X12403295Y20717058D02*
X12450914Y20621820D01*
X12450914Y20621820D02*
X12498533Y20574200D01*
X12498533Y20574200D02*
X12593771Y20526581D01*
X12593771Y20526581D02*
X12879485Y20526581D01*
X12879485Y20526581D02*
X12974723Y20574200D01*
X12974723Y20574200D02*
X13022342Y20621820D01*
X26387219Y42991067D02*
X25911028Y43324400D01*
X26387219Y43562495D02*
X25387219Y43562495D01*
X25387219Y43562495D02*
X25387219Y43181543D01*
X25387219Y43181543D02*
X25434838Y43086305D01*
X25434838Y43086305D02*
X25482457Y43038686D01*
X25482457Y43038686D02*
X25577695Y42991067D01*
X25577695Y42991067D02*
X25720552Y42991067D01*
X25720552Y42991067D02*
X25815790Y43038686D01*
X25815790Y43038686D02*
X25863409Y43086305D01*
X25863409Y43086305D02*
X25911028Y43181543D01*
X25911028Y43181543D02*
X25911028Y43562495D01*
X25720552Y42133924D02*
X26387219Y42133924D01*
X25339600Y42372019D02*
X26053885Y42610114D01*
X26053885Y42610114D02*
X26053885Y41991067D01*
X19685380Y27370067D02*
X19733000Y27417686D01*
X19733000Y27417686D02*
X19780619Y27560543D01*
X19780619Y27560543D02*
X19780619Y27655781D01*
X19780619Y27655781D02*
X19733000Y27798638D01*
X19733000Y27798638D02*
X19637761Y27893876D01*
X19637761Y27893876D02*
X19542523Y27941495D01*
X19542523Y27941495D02*
X19352047Y27989114D01*
X19352047Y27989114D02*
X19209190Y27989114D01*
X19209190Y27989114D02*
X19018714Y27941495D01*
X19018714Y27941495D02*
X18923476Y27893876D01*
X18923476Y27893876D02*
X18828238Y27798638D01*
X18828238Y27798638D02*
X18780619Y27655781D01*
X18780619Y27655781D02*
X18780619Y27560543D01*
X18780619Y27560543D02*
X18828238Y27417686D01*
X18828238Y27417686D02*
X18875857Y27370067D01*
X19113952Y26512924D02*
X19780619Y26512924D01*
X18733000Y26751019D02*
X19447285Y26989114D01*
X19447285Y26989114D02*
X19447285Y26370067D01*
X17450180Y27420867D02*
X17497800Y27468486D01*
X17497800Y27468486D02*
X17545419Y27611343D01*
X17545419Y27611343D02*
X17545419Y27706581D01*
X17545419Y27706581D02*
X17497800Y27849438D01*
X17497800Y27849438D02*
X17402561Y27944676D01*
X17402561Y27944676D02*
X17307323Y27992295D01*
X17307323Y27992295D02*
X17116847Y28039914D01*
X17116847Y28039914D02*
X16973990Y28039914D01*
X16973990Y28039914D02*
X16783514Y27992295D01*
X16783514Y27992295D02*
X16688276Y27944676D01*
X16688276Y27944676D02*
X16593038Y27849438D01*
X16593038Y27849438D02*
X16545419Y27706581D01*
X16545419Y27706581D02*
X16545419Y27611343D01*
X16545419Y27611343D02*
X16593038Y27468486D01*
X16593038Y27468486D02*
X16640657Y27420867D01*
X16545419Y27087533D02*
X16545419Y26468486D01*
X16545419Y26468486D02*
X16926371Y26801819D01*
X16926371Y26801819D02*
X16926371Y26658962D01*
X16926371Y26658962D02*
X16973990Y26563724D01*
X16973990Y26563724D02*
X17021609Y26516105D01*
X17021609Y26516105D02*
X17116847Y26468486D01*
X17116847Y26468486D02*
X17354942Y26468486D01*
X17354942Y26468486D02*
X17450180Y26516105D01*
X17450180Y26516105D02*
X17497800Y26563724D01*
X17497800Y26563724D02*
X17545419Y26658962D01*
X17545419Y26658962D02*
X17545419Y26944676D01*
X17545419Y26944676D02*
X17497800Y27039914D01*
X17497800Y27039914D02*
X17450180Y27087533D01*
X15240381Y27471667D02*
X15288001Y27519286D01*
X15288001Y27519286D02*
X15335620Y27662143D01*
X15335620Y27662143D02*
X15335620Y27757381D01*
X15335620Y27757381D02*
X15288001Y27900238D01*
X15288001Y27900238D02*
X15192762Y27995476D01*
X15192762Y27995476D02*
X15097524Y28043095D01*
X15097524Y28043095D02*
X14907048Y28090714D01*
X14907048Y28090714D02*
X14764191Y28090714D01*
X14764191Y28090714D02*
X14573715Y28043095D01*
X14573715Y28043095D02*
X14478477Y27995476D01*
X14478477Y27995476D02*
X14383239Y27900238D01*
X14383239Y27900238D02*
X14335620Y27757381D01*
X14335620Y27757381D02*
X14335620Y27662143D01*
X14335620Y27662143D02*
X14383239Y27519286D01*
X14383239Y27519286D02*
X14430858Y27471667D01*
X14430858Y27090714D02*
X14383239Y27043095D01*
X14383239Y27043095D02*
X14335620Y26947857D01*
X14335620Y26947857D02*
X14335620Y26709762D01*
X14335620Y26709762D02*
X14383239Y26614524D01*
X14383239Y26614524D02*
X14430858Y26566905D01*
X14430858Y26566905D02*
X14526096Y26519286D01*
X14526096Y26519286D02*
X14621334Y26519286D01*
X14621334Y26519286D02*
X14764191Y26566905D01*
X14764191Y26566905D02*
X15335620Y27138333D01*
X15335620Y27138333D02*
X15335620Y26519286D01*
X30614857Y38023419D02*
X30662476Y37975799D01*
X30662476Y37975799D02*
X30805333Y37928180D01*
X30805333Y37928180D02*
X30900571Y37928180D01*
X30900571Y37928180D02*
X31043428Y37975799D01*
X31043428Y37975799D02*
X31138666Y38071038D01*
X31138666Y38071038D02*
X31186285Y38166276D01*
X31186285Y38166276D02*
X31233904Y38356752D01*
X31233904Y38356752D02*
X31233904Y38499609D01*
X31233904Y38499609D02*
X31186285Y38690085D01*
X31186285Y38690085D02*
X31138666Y38785323D01*
X31138666Y38785323D02*
X31043428Y38880561D01*
X31043428Y38880561D02*
X30900571Y38928180D01*
X30900571Y38928180D02*
X30805333Y38928180D01*
X30805333Y38928180D02*
X30662476Y38880561D01*
X30662476Y38880561D02*
X30614857Y38832942D01*
X29662476Y37928180D02*
X30233904Y37928180D01*
X29948190Y37928180D02*
X29948190Y38928180D01*
X29948190Y38928180D02*
X30043428Y38785323D01*
X30043428Y38785323D02*
X30138666Y38690085D01*
X30138666Y38690085D02*
X30233904Y38642466D01*
X29043428Y38928180D02*
X28948190Y38928180D01*
X28948190Y38928180D02*
X28852952Y38880561D01*
X28852952Y38880561D02*
X28805333Y38832942D01*
X28805333Y38832942D02*
X28757714Y38737704D01*
X28757714Y38737704D02*
X28710095Y38547228D01*
X28710095Y38547228D02*
X28710095Y38309133D01*
X28710095Y38309133D02*
X28757714Y38118657D01*
X28757714Y38118657D02*
X28805333Y38023419D01*
X28805333Y38023419D02*
X28852952Y37975799D01*
X28852952Y37975799D02*
X28948190Y37928180D01*
X28948190Y37928180D02*
X29043428Y37928180D01*
X29043428Y37928180D02*
X29138666Y37975799D01*
X29138666Y37975799D02*
X29186285Y38023419D01*
X29186285Y38023419D02*
X29233904Y38118657D01*
X29233904Y38118657D02*
X29281523Y38309133D01*
X29281523Y38309133D02*
X29281523Y38547228D01*
X29281523Y38547228D02*
X29233904Y38737704D01*
X29233904Y38737704D02*
X29186285Y38832942D01*
X29186285Y38832942D02*
X29138666Y38880561D01*
X29138666Y38880561D02*
X29043428Y38928180D01*
X17725819Y33567667D02*
X17249628Y33901000D01*
X17725819Y34139095D02*
X16725819Y34139095D01*
X16725819Y34139095D02*
X16725819Y33758143D01*
X16725819Y33758143D02*
X16773438Y33662905D01*
X16773438Y33662905D02*
X16821057Y33615286D01*
X16821057Y33615286D02*
X16916295Y33567667D01*
X16916295Y33567667D02*
X17059152Y33567667D01*
X17059152Y33567667D02*
X17154390Y33615286D01*
X17154390Y33615286D02*
X17202009Y33662905D01*
X17202009Y33662905D02*
X17249628Y33758143D01*
X17249628Y33758143D02*
X17249628Y34139095D01*
X16821057Y33186714D02*
X16773438Y33139095D01*
X16773438Y33139095D02*
X16725819Y33043857D01*
X16725819Y33043857D02*
X16725819Y32805762D01*
X16725819Y32805762D02*
X16773438Y32710524D01*
X16773438Y32710524D02*
X16821057Y32662905D01*
X16821057Y32662905D02*
X16916295Y32615286D01*
X16916295Y32615286D02*
X17011533Y32615286D01*
X17011533Y32615286D02*
X17154390Y32662905D01*
X17154390Y32662905D02*
X17725819Y33234333D01*
X17725819Y33234333D02*
X17725819Y32615286D01*
X52966857Y21644181D02*
X53300190Y22120372D01*
X53538285Y21644181D02*
X53538285Y22644181D01*
X53538285Y22644181D02*
X53157333Y22644181D01*
X53157333Y22644181D02*
X53062095Y22596562D01*
X53062095Y22596562D02*
X53014476Y22548943D01*
X53014476Y22548943D02*
X52966857Y22453705D01*
X52966857Y22453705D02*
X52966857Y22310848D01*
X52966857Y22310848D02*
X53014476Y22215610D01*
X53014476Y22215610D02*
X53062095Y22167991D01*
X53062095Y22167991D02*
X53157333Y22120372D01*
X53157333Y22120372D02*
X53538285Y22120372D01*
X52633523Y22644181D02*
X52014476Y22644181D01*
X52014476Y22644181D02*
X52347809Y22263229D01*
X52347809Y22263229D02*
X52204952Y22263229D01*
X52204952Y22263229D02*
X52109714Y22215610D01*
X52109714Y22215610D02*
X52062095Y22167991D01*
X52062095Y22167991D02*
X52014476Y22072753D01*
X52014476Y22072753D02*
X52014476Y21834658D01*
X52014476Y21834658D02*
X52062095Y21739420D01*
X52062095Y21739420D02*
X52109714Y21691800D01*
X52109714Y21691800D02*
X52204952Y21644181D01*
X52204952Y21644181D02*
X52490666Y21644181D01*
X52490666Y21644181D02*
X52585904Y21691800D01*
X52585904Y21691800D02*
X52633523Y21739420D01*
X51157333Y22310848D02*
X51157333Y21644181D01*
X51395428Y22691800D02*
X51633523Y21977515D01*
X51633523Y21977515D02*
X51014476Y21977515D01*
X54046080Y43794858D02*
X54093700Y43842477D01*
X54093700Y43842477D02*
X54141319Y43985334D01*
X54141319Y43985334D02*
X54141319Y44080572D01*
X54141319Y44080572D02*
X54093700Y44223429D01*
X54093700Y44223429D02*
X53998461Y44318667D01*
X53998461Y44318667D02*
X53903223Y44366286D01*
X53903223Y44366286D02*
X53712747Y44413905D01*
X53712747Y44413905D02*
X53569890Y44413905D01*
X53569890Y44413905D02*
X53379414Y44366286D01*
X53379414Y44366286D02*
X53284176Y44318667D01*
X53284176Y44318667D02*
X53188938Y44223429D01*
X53188938Y44223429D02*
X53141319Y44080572D01*
X53141319Y44080572D02*
X53141319Y43985334D01*
X53141319Y43985334D02*
X53188938Y43842477D01*
X53188938Y43842477D02*
X53236557Y43794858D01*
X54141319Y42842477D02*
X54141319Y43413905D01*
X54141319Y43128191D02*
X53141319Y43128191D01*
X53141319Y43128191D02*
X53284176Y43223429D01*
X53284176Y43223429D02*
X53379414Y43318667D01*
X53379414Y43318667D02*
X53427033Y43413905D01*
X54141319Y42366286D02*
X54141319Y42175810D01*
X54141319Y42175810D02*
X54093700Y42080572D01*
X54093700Y42080572D02*
X54046080Y42032953D01*
X54046080Y42032953D02*
X53903223Y41937715D01*
X53903223Y41937715D02*
X53712747Y41890096D01*
X53712747Y41890096D02*
X53331795Y41890096D01*
X53331795Y41890096D02*
X53236557Y41937715D01*
X53236557Y41937715D02*
X53188938Y41985334D01*
X53188938Y41985334D02*
X53141319Y42080572D01*
X53141319Y42080572D02*
X53141319Y42271048D01*
X53141319Y42271048D02*
X53188938Y42366286D01*
X53188938Y42366286D02*
X53236557Y42413905D01*
X53236557Y42413905D02*
X53331795Y42461524D01*
X53331795Y42461524D02*
X53569890Y42461524D01*
X53569890Y42461524D02*
X53665128Y42413905D01*
X53665128Y42413905D02*
X53712747Y42366286D01*
X53712747Y42366286D02*
X53760366Y42271048D01*
X53760366Y42271048D02*
X53760366Y42080572D01*
X53760366Y42080572D02*
X53712747Y41985334D01*
X53712747Y41985334D02*
X53665128Y41937715D01*
X53665128Y41937715D02*
X53569890Y41890096D01*
X26931857Y28625419D02*
X26979476Y28577799D01*
X26979476Y28577799D02*
X27122333Y28530180D01*
X27122333Y28530180D02*
X27217571Y28530180D01*
X27217571Y28530180D02*
X27360428Y28577799D01*
X27360428Y28577799D02*
X27455666Y28673038D01*
X27455666Y28673038D02*
X27503285Y28768276D01*
X27503285Y28768276D02*
X27550904Y28958752D01*
X27550904Y28958752D02*
X27550904Y29101609D01*
X27550904Y29101609D02*
X27503285Y29292085D01*
X27503285Y29292085D02*
X27455666Y29387323D01*
X27455666Y29387323D02*
X27360428Y29482561D01*
X27360428Y29482561D02*
X27217571Y29530180D01*
X27217571Y29530180D02*
X27122333Y29530180D01*
X27122333Y29530180D02*
X26979476Y29482561D01*
X26979476Y29482561D02*
X26931857Y29434942D01*
X26550904Y29434942D02*
X26503285Y29482561D01*
X26503285Y29482561D02*
X26408047Y29530180D01*
X26408047Y29530180D02*
X26169952Y29530180D01*
X26169952Y29530180D02*
X26074714Y29482561D01*
X26074714Y29482561D02*
X26027095Y29434942D01*
X26027095Y29434942D02*
X25979476Y29339704D01*
X25979476Y29339704D02*
X25979476Y29244466D01*
X25979476Y29244466D02*
X26027095Y29101609D01*
X26027095Y29101609D02*
X26598523Y28530180D01*
X26598523Y28530180D02*
X25979476Y28530180D01*
X25360428Y29530180D02*
X25265190Y29530180D01*
X25265190Y29530180D02*
X25169952Y29482561D01*
X25169952Y29482561D02*
X25122333Y29434942D01*
X25122333Y29434942D02*
X25074714Y29339704D01*
X25074714Y29339704D02*
X25027095Y29149228D01*
X25027095Y29149228D02*
X25027095Y28911133D01*
X25027095Y28911133D02*
X25074714Y28720657D01*
X25074714Y28720657D02*
X25122333Y28625419D01*
X25122333Y28625419D02*
X25169952Y28577799D01*
X25169952Y28577799D02*
X25265190Y28530180D01*
X25265190Y28530180D02*
X25360428Y28530180D01*
X25360428Y28530180D02*
X25455666Y28577799D01*
X25455666Y28577799D02*
X25503285Y28625419D01*
X25503285Y28625419D02*
X25550904Y28720657D01*
X25550904Y28720657D02*
X25598523Y28911133D01*
X25598523Y28911133D02*
X25598523Y29149228D01*
X25598523Y29149228D02*
X25550904Y29339704D01*
X25550904Y29339704D02*
X25503285Y29434942D01*
X25503285Y29434942D02*
X25455666Y29482561D01*
X25455666Y29482561D02*
X25360428Y29530180D01*
X46298019Y23299658D02*
X45821828Y23632991D01*
X46298019Y23871086D02*
X45298019Y23871086D01*
X45298019Y23871086D02*
X45298019Y23490134D01*
X45298019Y23490134D02*
X45345638Y23394896D01*
X45345638Y23394896D02*
X45393257Y23347277D01*
X45393257Y23347277D02*
X45488495Y23299658D01*
X45488495Y23299658D02*
X45631352Y23299658D01*
X45631352Y23299658D02*
X45726590Y23347277D01*
X45726590Y23347277D02*
X45774209Y23394896D01*
X45774209Y23394896D02*
X45821828Y23490134D01*
X45821828Y23490134D02*
X45821828Y23871086D01*
X45298019Y22966324D02*
X45298019Y22347277D01*
X45298019Y22347277D02*
X45678971Y22680610D01*
X45678971Y22680610D02*
X45678971Y22537753D01*
X45678971Y22537753D02*
X45726590Y22442515D01*
X45726590Y22442515D02*
X45774209Y22394896D01*
X45774209Y22394896D02*
X45869447Y22347277D01*
X45869447Y22347277D02*
X46107542Y22347277D01*
X46107542Y22347277D02*
X46202780Y22394896D01*
X46202780Y22394896D02*
X46250400Y22442515D01*
X46250400Y22442515D02*
X46298019Y22537753D01*
X46298019Y22537753D02*
X46298019Y22823467D01*
X46298019Y22823467D02*
X46250400Y22918705D01*
X46250400Y22918705D02*
X46202780Y22966324D01*
X45298019Y21442515D02*
X45298019Y21918705D01*
X45298019Y21918705D02*
X45774209Y21966324D01*
X45774209Y21966324D02*
X45726590Y21918705D01*
X45726590Y21918705D02*
X45678971Y21823467D01*
X45678971Y21823467D02*
X45678971Y21585372D01*
X45678971Y21585372D02*
X45726590Y21490134D01*
X45726590Y21490134D02*
X45774209Y21442515D01*
X45774209Y21442515D02*
X45869447Y21394896D01*
X45869447Y21394896D02*
X46107542Y21394896D01*
X46107542Y21394896D02*
X46202780Y21442515D01*
X46202780Y21442515D02*
X46250400Y21490134D01*
X46250400Y21490134D02*
X46298019Y21585372D01*
X46298019Y21585372D02*
X46298019Y21823467D01*
X46298019Y21823467D02*
X46250400Y21918705D01*
X46250400Y21918705D02*
X46202780Y21966324D01*
X52966857Y19485181D02*
X53300190Y19961372D01*
X53538285Y19485181D02*
X53538285Y20485181D01*
X53538285Y20485181D02*
X53157333Y20485181D01*
X53157333Y20485181D02*
X53062095Y20437562D01*
X53062095Y20437562D02*
X53014476Y20389943D01*
X53014476Y20389943D02*
X52966857Y20294705D01*
X52966857Y20294705D02*
X52966857Y20151848D01*
X52966857Y20151848D02*
X53014476Y20056610D01*
X53014476Y20056610D02*
X53062095Y20008991D01*
X53062095Y20008991D02*
X53157333Y19961372D01*
X53157333Y19961372D02*
X53538285Y19961372D01*
X52633523Y20485181D02*
X52014476Y20485181D01*
X52014476Y20485181D02*
X52347809Y20104229D01*
X52347809Y20104229D02*
X52204952Y20104229D01*
X52204952Y20104229D02*
X52109714Y20056610D01*
X52109714Y20056610D02*
X52062095Y20008991D01*
X52062095Y20008991D02*
X52014476Y19913753D01*
X52014476Y19913753D02*
X52014476Y19675658D01*
X52014476Y19675658D02*
X52062095Y19580420D01*
X52062095Y19580420D02*
X52109714Y19532800D01*
X52109714Y19532800D02*
X52204952Y19485181D01*
X52204952Y19485181D02*
X52490666Y19485181D01*
X52490666Y19485181D02*
X52585904Y19532800D01*
X52585904Y19532800D02*
X52633523Y19580420D01*
X51157333Y20485181D02*
X51347809Y20485181D01*
X51347809Y20485181D02*
X51443047Y20437562D01*
X51443047Y20437562D02*
X51490666Y20389943D01*
X51490666Y20389943D02*
X51585904Y20247086D01*
X51585904Y20247086D02*
X51633523Y20056610D01*
X51633523Y20056610D02*
X51633523Y19675658D01*
X51633523Y19675658D02*
X51585904Y19580420D01*
X51585904Y19580420D02*
X51538285Y19532800D01*
X51538285Y19532800D02*
X51443047Y19485181D01*
X51443047Y19485181D02*
X51252571Y19485181D01*
X51252571Y19485181D02*
X51157333Y19532800D01*
X51157333Y19532800D02*
X51109714Y19580420D01*
X51109714Y19580420D02*
X51062095Y19675658D01*
X51062095Y19675658D02*
X51062095Y19913753D01*
X51062095Y19913753D02*
X51109714Y20008991D01*
X51109714Y20008991D02*
X51157333Y20056610D01*
X51157333Y20056610D02*
X51252571Y20104229D01*
X51252571Y20104229D02*
X51443047Y20104229D01*
X51443047Y20104229D02*
X51538285Y20056610D01*
X51538285Y20056610D02*
X51585904Y20008991D01*
X51585904Y20008991D02*
X51633523Y19913753D01*
X78916419Y32926258D02*
X78440228Y33259591D01*
X78916419Y33497686D02*
X77916419Y33497686D01*
X77916419Y33497686D02*
X77916419Y33116734D01*
X77916419Y33116734D02*
X77964038Y33021496D01*
X77964038Y33021496D02*
X78011657Y32973877D01*
X78011657Y32973877D02*
X78106895Y32926258D01*
X78106895Y32926258D02*
X78249752Y32926258D01*
X78249752Y32926258D02*
X78344990Y32973877D01*
X78344990Y32973877D02*
X78392609Y33021496D01*
X78392609Y33021496D02*
X78440228Y33116734D01*
X78440228Y33116734D02*
X78440228Y33497686D01*
X78011657Y32545305D02*
X77964038Y32497686D01*
X77964038Y32497686D02*
X77916419Y32402448D01*
X77916419Y32402448D02*
X77916419Y32164353D01*
X77916419Y32164353D02*
X77964038Y32069115D01*
X77964038Y32069115D02*
X78011657Y32021496D01*
X78011657Y32021496D02*
X78106895Y31973877D01*
X78106895Y31973877D02*
X78202133Y31973877D01*
X78202133Y31973877D02*
X78344990Y32021496D01*
X78344990Y32021496D02*
X78916419Y32592924D01*
X78916419Y32592924D02*
X78916419Y31973877D01*
X78011657Y31592924D02*
X77964038Y31545305D01*
X77964038Y31545305D02*
X77916419Y31450067D01*
X77916419Y31450067D02*
X77916419Y31211972D01*
X77916419Y31211972D02*
X77964038Y31116734D01*
X77964038Y31116734D02*
X78011657Y31069115D01*
X78011657Y31069115D02*
X78106895Y31021496D01*
X78106895Y31021496D02*
X78202133Y31021496D01*
X78202133Y31021496D02*
X78344990Y31069115D01*
X78344990Y31069115D02*
X78916419Y31640543D01*
X78916419Y31640543D02*
X78916419Y31021496D01*
X57499238Y49989943D02*
X57594476Y50037562D01*
X57594476Y50037562D02*
X57689714Y50132800D01*
X57689714Y50132800D02*
X57832571Y50275658D01*
X57832571Y50275658D02*
X57927809Y50323277D01*
X57927809Y50323277D02*
X58023047Y50323277D01*
X57975428Y50085181D02*
X58070666Y50132800D01*
X58070666Y50132800D02*
X58165904Y50228039D01*
X58165904Y50228039D02*
X58213523Y50418515D01*
X58213523Y50418515D02*
X58213523Y50751848D01*
X58213523Y50751848D02*
X58165904Y50942324D01*
X58165904Y50942324D02*
X58070666Y51037562D01*
X58070666Y51037562D02*
X57975428Y51085181D01*
X57975428Y51085181D02*
X57784952Y51085181D01*
X57784952Y51085181D02*
X57689714Y51037562D01*
X57689714Y51037562D02*
X57594476Y50942324D01*
X57594476Y50942324D02*
X57546857Y50751848D01*
X57546857Y50751848D02*
X57546857Y50418515D01*
X57546857Y50418515D02*
X57594476Y50228039D01*
X57594476Y50228039D02*
X57689714Y50132800D01*
X57689714Y50132800D02*
X57784952Y50085181D01*
X57784952Y50085181D02*
X57975428Y50085181D01*
X56642095Y51085181D02*
X57118285Y51085181D01*
X57118285Y51085181D02*
X57165904Y50608991D01*
X57165904Y50608991D02*
X57118285Y50656610D01*
X57118285Y50656610D02*
X57023047Y50704229D01*
X57023047Y50704229D02*
X56784952Y50704229D01*
X56784952Y50704229D02*
X56689714Y50656610D01*
X56689714Y50656610D02*
X56642095Y50608991D01*
X56642095Y50608991D02*
X56594476Y50513753D01*
X56594476Y50513753D02*
X56594476Y50275658D01*
X56594476Y50275658D02*
X56642095Y50180420D01*
X56642095Y50180420D02*
X56689714Y50132800D01*
X56689714Y50132800D02*
X56784952Y50085181D01*
X56784952Y50085181D02*
X57023047Y50085181D01*
X57023047Y50085181D02*
X57118285Y50132800D01*
X57118285Y50132800D02*
X57165904Y50180420D01*
X21285128Y-12041609D02*
X21618461Y-12041609D01*
X21618461Y-12565419D02*
X21618461Y-11565419D01*
X21618461Y-11565419D02*
X21142271Y-11565419D01*
X20761318Y-12565419D02*
X20761318Y-11565419D01*
X20285128Y-12565419D02*
X20285128Y-11565419D01*
X20285128Y-11565419D02*
X20047033Y-11565419D01*
X20047033Y-11565419D02*
X19904176Y-11613038D01*
X19904176Y-11613038D02*
X19808938Y-11708276D01*
X19808938Y-11708276D02*
X19761319Y-11803514D01*
X19761319Y-11803514D02*
X19713700Y-11993990D01*
X19713700Y-11993990D02*
X19713700Y-12136847D01*
X19713700Y-12136847D02*
X19761319Y-12327323D01*
X19761319Y-12327323D02*
X19808938Y-12422561D01*
X19808938Y-12422561D02*
X19904176Y-12517800D01*
X19904176Y-12517800D02*
X20047033Y-12565419D01*
X20047033Y-12565419D02*
X20285128Y-12565419D01*
X18856557Y-11898752D02*
X18856557Y-12565419D01*
X19094652Y-11517800D02*
X19332747Y-12232085D01*
X19332747Y-12232085D02*
X18713700Y-12232085D01*
X21285128Y-1391609D02*
X21618461Y-1391609D01*
X21618461Y-1915419D02*
X21618461Y-915419D01*
X21618461Y-915419D02*
X21142271Y-915419D01*
X20761318Y-1915419D02*
X20761318Y-915419D01*
X20285128Y-1915419D02*
X20285128Y-915419D01*
X20285128Y-915419D02*
X20047033Y-915419D01*
X20047033Y-915419D02*
X19904176Y-963038D01*
X19904176Y-963038D02*
X19808938Y-1058276D01*
X19808938Y-1058276D02*
X19761319Y-1153514D01*
X19761319Y-1153514D02*
X19713700Y-1343990D01*
X19713700Y-1343990D02*
X19713700Y-1486847D01*
X19713700Y-1486847D02*
X19761319Y-1677323D01*
X19761319Y-1677323D02*
X19808938Y-1772561D01*
X19808938Y-1772561D02*
X19904176Y-1867800D01*
X19904176Y-1867800D02*
X20047033Y-1915419D01*
X20047033Y-1915419D02*
X20285128Y-1915419D01*
X18761319Y-1915419D02*
X19332747Y-1915419D01*
X19047033Y-1915419D02*
X19047033Y-915419D01*
X19047033Y-915419D02*
X19142271Y-1058276D01*
X19142271Y-1058276D02*
X19237509Y-1153514D01*
X19237509Y-1153514D02*
X19332747Y-1201133D01*
X94778057Y39211239D02*
X94730438Y39306477D01*
X94730438Y39306477D02*
X94635200Y39401715D01*
X94635200Y39401715D02*
X94492342Y39544572D01*
X94492342Y39544572D02*
X94444723Y39639810D01*
X94444723Y39639810D02*
X94444723Y39735048D01*
X94682819Y39687429D02*
X94635200Y39782667D01*
X94635200Y39782667D02*
X94539961Y39877905D01*
X94539961Y39877905D02*
X94349485Y39925524D01*
X94349485Y39925524D02*
X94016152Y39925524D01*
X94016152Y39925524D02*
X93825676Y39877905D01*
X93825676Y39877905D02*
X93730438Y39782667D01*
X93730438Y39782667D02*
X93682819Y39687429D01*
X93682819Y39687429D02*
X93682819Y39496953D01*
X93682819Y39496953D02*
X93730438Y39401715D01*
X93730438Y39401715D02*
X93825676Y39306477D01*
X93825676Y39306477D02*
X94016152Y39258858D01*
X94016152Y39258858D02*
X94349485Y39258858D01*
X94349485Y39258858D02*
X94539961Y39306477D01*
X94539961Y39306477D02*
X94635200Y39401715D01*
X94635200Y39401715D02*
X94682819Y39496953D01*
X94682819Y39496953D02*
X94682819Y39687429D01*
X93682819Y38925524D02*
X93682819Y38306477D01*
X93682819Y38306477D02*
X94063771Y38639810D01*
X94063771Y38639810D02*
X94063771Y38496953D01*
X94063771Y38496953D02*
X94111390Y38401715D01*
X94111390Y38401715D02*
X94159009Y38354096D01*
X94159009Y38354096D02*
X94254247Y38306477D01*
X94254247Y38306477D02*
X94492342Y38306477D01*
X94492342Y38306477D02*
X94587580Y38354096D01*
X94587580Y38354096D02*
X94635200Y38401715D01*
X94635200Y38401715D02*
X94682819Y38496953D01*
X94682819Y38496953D02*
X94682819Y38782667D01*
X94682819Y38782667D02*
X94635200Y38877905D01*
X94635200Y38877905D02*
X94587580Y38925524D01*
X21656513Y34834181D02*
X21085085Y34834181D01*
X21370799Y33834181D02*
X21370799Y34834181D01*
X20751751Y33834181D02*
X20751751Y34834181D01*
X20751751Y34357991D02*
X20180323Y34357991D01*
X20180323Y33834181D02*
X20180323Y34834181D01*
X19799370Y34834181D02*
X19180323Y34834181D01*
X19180323Y34834181D02*
X19513656Y34453229D01*
X19513656Y34453229D02*
X19370799Y34453229D01*
X19370799Y34453229D02*
X19275561Y34405610D01*
X19275561Y34405610D02*
X19227942Y34357991D01*
X19227942Y34357991D02*
X19180323Y34262753D01*
X19180323Y34262753D02*
X19180323Y34024658D01*
X19180323Y34024658D02*
X19227942Y33929420D01*
X19227942Y33929420D02*
X19275561Y33881800D01*
X19275561Y33881800D02*
X19370799Y33834181D01*
X19370799Y33834181D02*
X19656513Y33834181D01*
X19656513Y33834181D02*
X19751751Y33881800D01*
X19751751Y33881800D02*
X19799370Y33929420D01*
X35313857Y21836421D02*
X35361476Y21788801D01*
X35361476Y21788801D02*
X35504333Y21741182D01*
X35504333Y21741182D02*
X35599571Y21741182D01*
X35599571Y21741182D02*
X35742428Y21788801D01*
X35742428Y21788801D02*
X35837666Y21884040D01*
X35837666Y21884040D02*
X35885285Y21979278D01*
X35885285Y21979278D02*
X35932904Y22169754D01*
X35932904Y22169754D02*
X35932904Y22312611D01*
X35932904Y22312611D02*
X35885285Y22503087D01*
X35885285Y22503087D02*
X35837666Y22598325D01*
X35837666Y22598325D02*
X35742428Y22693563D01*
X35742428Y22693563D02*
X35599571Y22741182D01*
X35599571Y22741182D02*
X35504333Y22741182D01*
X35504333Y22741182D02*
X35361476Y22693563D01*
X35361476Y22693563D02*
X35313857Y22645944D01*
X34932904Y22645944D02*
X34885285Y22693563D01*
X34885285Y22693563D02*
X34790047Y22741182D01*
X34790047Y22741182D02*
X34551952Y22741182D01*
X34551952Y22741182D02*
X34456714Y22693563D01*
X34456714Y22693563D02*
X34409095Y22645944D01*
X34409095Y22645944D02*
X34361476Y22550706D01*
X34361476Y22550706D02*
X34361476Y22455468D01*
X34361476Y22455468D02*
X34409095Y22312611D01*
X34409095Y22312611D02*
X34980523Y21741182D01*
X34980523Y21741182D02*
X34361476Y21741182D01*
X34028142Y22741182D02*
X33361476Y22741182D01*
X33361476Y22741182D02*
X33790047Y21741182D01*
X21285128Y-4941609D02*
X21618461Y-4941609D01*
X21618461Y-5465419D02*
X21618461Y-4465419D01*
X21618461Y-4465419D02*
X21142271Y-4465419D01*
X20761318Y-5465419D02*
X20761318Y-4465419D01*
X20285128Y-5465419D02*
X20285128Y-4465419D01*
X20285128Y-4465419D02*
X20047033Y-4465419D01*
X20047033Y-4465419D02*
X19904176Y-4513038D01*
X19904176Y-4513038D02*
X19808938Y-4608276D01*
X19808938Y-4608276D02*
X19761319Y-4703514D01*
X19761319Y-4703514D02*
X19713700Y-4893990D01*
X19713700Y-4893990D02*
X19713700Y-5036847D01*
X19713700Y-5036847D02*
X19761319Y-5227323D01*
X19761319Y-5227323D02*
X19808938Y-5322561D01*
X19808938Y-5322561D02*
X19904176Y-5417800D01*
X19904176Y-5417800D02*
X20047033Y-5465419D01*
X20047033Y-5465419D02*
X20285128Y-5465419D01*
X19332747Y-4560657D02*
X19285128Y-4513038D01*
X19285128Y-4513038D02*
X19189890Y-4465419D01*
X19189890Y-4465419D02*
X18951795Y-4465419D01*
X18951795Y-4465419D02*
X18856557Y-4513038D01*
X18856557Y-4513038D02*
X18808938Y-4560657D01*
X18808938Y-4560657D02*
X18761319Y-4655895D01*
X18761319Y-4655895D02*
X18761319Y-4751133D01*
X18761319Y-4751133D02*
X18808938Y-4893990D01*
X18808938Y-4893990D02*
X19380366Y-5465419D01*
X19380366Y-5465419D02*
X18761319Y-5465419D01*
X57419713Y19467181D02*
X56848285Y19467181D01*
X57133999Y18467181D02*
X57133999Y19467181D01*
X56514951Y18467181D02*
X56514951Y19467181D01*
X56514951Y18990991D02*
X55943523Y18990991D01*
X55943523Y18467181D02*
X55943523Y19467181D01*
X55038761Y19133848D02*
X55038761Y18467181D01*
X55276856Y19514800D02*
X55514951Y18800515D01*
X55514951Y18800515D02*
X54895904Y18800515D01*
X42546494Y21054781D02*
X42546494Y22054781D01*
X42546494Y22054781D02*
X42308399Y22054781D01*
X42308399Y22054781D02*
X42165542Y22007162D01*
X42165542Y22007162D02*
X42070304Y21911924D01*
X42070304Y21911924D02*
X42022685Y21816686D01*
X42022685Y21816686D02*
X41975066Y21626210D01*
X41975066Y21626210D02*
X41975066Y21483353D01*
X41975066Y21483353D02*
X42022685Y21292877D01*
X42022685Y21292877D02*
X42070304Y21197639D01*
X42070304Y21197639D02*
X42165542Y21102400D01*
X42165542Y21102400D02*
X42308399Y21054781D01*
X42308399Y21054781D02*
X42546494Y21054781D01*
X41117923Y22054781D02*
X41308399Y22054781D01*
X41308399Y22054781D02*
X41403637Y22007162D01*
X41403637Y22007162D02*
X41451256Y21959543D01*
X41451256Y21959543D02*
X41546494Y21816686D01*
X41546494Y21816686D02*
X41594113Y21626210D01*
X41594113Y21626210D02*
X41594113Y21245258D01*
X41594113Y21245258D02*
X41546494Y21150020D01*
X41546494Y21150020D02*
X41498875Y21102400D01*
X41498875Y21102400D02*
X41403637Y21054781D01*
X41403637Y21054781D02*
X41213161Y21054781D01*
X41213161Y21054781D02*
X41117923Y21102400D01*
X41117923Y21102400D02*
X41070304Y21150020D01*
X41070304Y21150020D02*
X41022685Y21245258D01*
X41022685Y21245258D02*
X41022685Y21483353D01*
X41022685Y21483353D02*
X41070304Y21578591D01*
X41070304Y21578591D02*
X41117923Y21626210D01*
X41117923Y21626210D02*
X41213161Y21673829D01*
X41213161Y21673829D02*
X41403637Y21673829D01*
X41403637Y21673829D02*
X41498875Y21626210D01*
X41498875Y21626210D02*
X41546494Y21578591D01*
X41546494Y21578591D02*
X41594113Y21483353D01*
X53924581Y23248858D02*
X53972201Y23296477D01*
X53972201Y23296477D02*
X54019820Y23439334D01*
X54019820Y23439334D02*
X54019820Y23534572D01*
X54019820Y23534572D02*
X53972201Y23677429D01*
X53972201Y23677429D02*
X53876962Y23772667D01*
X53876962Y23772667D02*
X53781724Y23820286D01*
X53781724Y23820286D02*
X53591248Y23867905D01*
X53591248Y23867905D02*
X53448391Y23867905D01*
X53448391Y23867905D02*
X53257915Y23820286D01*
X53257915Y23820286D02*
X53162677Y23772667D01*
X53162677Y23772667D02*
X53067439Y23677429D01*
X53067439Y23677429D02*
X53019820Y23534572D01*
X53019820Y23534572D02*
X53019820Y23439334D01*
X53019820Y23439334D02*
X53067439Y23296477D01*
X53067439Y23296477D02*
X53115058Y23248858D01*
X53115058Y22867905D02*
X53067439Y22820286D01*
X53067439Y22820286D02*
X53019820Y22725048D01*
X53019820Y22725048D02*
X53019820Y22486953D01*
X53019820Y22486953D02*
X53067439Y22391715D01*
X53067439Y22391715D02*
X53115058Y22344096D01*
X53115058Y22344096D02*
X53210296Y22296477D01*
X53210296Y22296477D02*
X53305534Y22296477D01*
X53305534Y22296477D02*
X53448391Y22344096D01*
X53448391Y22344096D02*
X54019820Y22915524D01*
X54019820Y22915524D02*
X54019820Y22296477D01*
X54019820Y21344096D02*
X54019820Y21915524D01*
X54019820Y21629810D02*
X53019820Y21629810D01*
X53019820Y21629810D02*
X53162677Y21725048D01*
X53162677Y21725048D02*
X53257915Y21820286D01*
X53257915Y21820286D02*
X53305534Y21915524D01*
X35313857Y23995421D02*
X35361476Y23947801D01*
X35361476Y23947801D02*
X35504333Y23900182D01*
X35504333Y23900182D02*
X35599571Y23900182D01*
X35599571Y23900182D02*
X35742428Y23947801D01*
X35742428Y23947801D02*
X35837666Y24043040D01*
X35837666Y24043040D02*
X35885285Y24138278D01*
X35885285Y24138278D02*
X35932904Y24328754D01*
X35932904Y24328754D02*
X35932904Y24471611D01*
X35932904Y24471611D02*
X35885285Y24662087D01*
X35885285Y24662087D02*
X35837666Y24757325D01*
X35837666Y24757325D02*
X35742428Y24852563D01*
X35742428Y24852563D02*
X35599571Y24900182D01*
X35599571Y24900182D02*
X35504333Y24900182D01*
X35504333Y24900182D02*
X35361476Y24852563D01*
X35361476Y24852563D02*
X35313857Y24804944D01*
X34932904Y24804944D02*
X34885285Y24852563D01*
X34885285Y24852563D02*
X34790047Y24900182D01*
X34790047Y24900182D02*
X34551952Y24900182D01*
X34551952Y24900182D02*
X34456714Y24852563D01*
X34456714Y24852563D02*
X34409095Y24804944D01*
X34409095Y24804944D02*
X34361476Y24709706D01*
X34361476Y24709706D02*
X34361476Y24614468D01*
X34361476Y24614468D02*
X34409095Y24471611D01*
X34409095Y24471611D02*
X34980523Y23900182D01*
X34980523Y23900182D02*
X34361476Y23900182D01*
X33456714Y24900182D02*
X33932904Y24900182D01*
X33932904Y24900182D02*
X33980523Y24423992D01*
X33980523Y24423992D02*
X33932904Y24471611D01*
X33932904Y24471611D02*
X33837666Y24519230D01*
X33837666Y24519230D02*
X33599571Y24519230D01*
X33599571Y24519230D02*
X33504333Y24471611D01*
X33504333Y24471611D02*
X33456714Y24423992D01*
X33456714Y24423992D02*
X33409095Y24328754D01*
X33409095Y24328754D02*
X33409095Y24090659D01*
X33409095Y24090659D02*
X33456714Y23995421D01*
X33456714Y23995421D02*
X33504333Y23947801D01*
X33504333Y23947801D02*
X33599571Y23900182D01*
X33599571Y23900182D02*
X33837666Y23900182D01*
X33837666Y23900182D02*
X33932904Y23947801D01*
X33932904Y23947801D02*
X33980523Y23995421D01*
X35444580Y31503858D02*
X35492200Y31551477D01*
X35492200Y31551477D02*
X35539819Y31694334D01*
X35539819Y31694334D02*
X35539819Y31789572D01*
X35539819Y31789572D02*
X35492200Y31932429D01*
X35492200Y31932429D02*
X35396961Y32027667D01*
X35396961Y32027667D02*
X35301723Y32075286D01*
X35301723Y32075286D02*
X35111247Y32122905D01*
X35111247Y32122905D02*
X34968390Y32122905D01*
X34968390Y32122905D02*
X34777914Y32075286D01*
X34777914Y32075286D02*
X34682676Y32027667D01*
X34682676Y32027667D02*
X34587438Y31932429D01*
X34587438Y31932429D02*
X34539819Y31789572D01*
X34539819Y31789572D02*
X34539819Y31694334D01*
X34539819Y31694334D02*
X34587438Y31551477D01*
X34587438Y31551477D02*
X34635057Y31503858D01*
X34635057Y31122905D02*
X34587438Y31075286D01*
X34587438Y31075286D02*
X34539819Y30980048D01*
X34539819Y30980048D02*
X34539819Y30741953D01*
X34539819Y30741953D02*
X34587438Y30646715D01*
X34587438Y30646715D02*
X34635057Y30599096D01*
X34635057Y30599096D02*
X34730295Y30551477D01*
X34730295Y30551477D02*
X34825533Y30551477D01*
X34825533Y30551477D02*
X34968390Y30599096D01*
X34968390Y30599096D02*
X35539819Y31170524D01*
X35539819Y31170524D02*
X35539819Y30551477D01*
X34873152Y29694334D02*
X35539819Y29694334D01*
X34492200Y29932429D02*
X35206485Y30170524D01*
X35206485Y30170524D02*
X35206485Y29551477D01*
X35186857Y38854421D02*
X35234476Y38806801D01*
X35234476Y38806801D02*
X35377333Y38759182D01*
X35377333Y38759182D02*
X35472571Y38759182D01*
X35472571Y38759182D02*
X35615428Y38806801D01*
X35615428Y38806801D02*
X35710666Y38902040D01*
X35710666Y38902040D02*
X35758285Y38997278D01*
X35758285Y38997278D02*
X35805904Y39187754D01*
X35805904Y39187754D02*
X35805904Y39330611D01*
X35805904Y39330611D02*
X35758285Y39521087D01*
X35758285Y39521087D02*
X35710666Y39616325D01*
X35710666Y39616325D02*
X35615428Y39711563D01*
X35615428Y39711563D02*
X35472571Y39759182D01*
X35472571Y39759182D02*
X35377333Y39759182D01*
X35377333Y39759182D02*
X35234476Y39711563D01*
X35234476Y39711563D02*
X35186857Y39663944D01*
X34853523Y39759182D02*
X34234476Y39759182D01*
X34234476Y39759182D02*
X34567809Y39378230D01*
X34567809Y39378230D02*
X34424952Y39378230D01*
X34424952Y39378230D02*
X34329714Y39330611D01*
X34329714Y39330611D02*
X34282095Y39282992D01*
X34282095Y39282992D02*
X34234476Y39187754D01*
X34234476Y39187754D02*
X34234476Y38949659D01*
X34234476Y38949659D02*
X34282095Y38854421D01*
X34282095Y38854421D02*
X34329714Y38806801D01*
X34329714Y38806801D02*
X34424952Y38759182D01*
X34424952Y38759182D02*
X34710666Y38759182D01*
X34710666Y38759182D02*
X34805904Y38806801D01*
X34805904Y38806801D02*
X34853523Y38854421D01*
X33282095Y38759182D02*
X33853523Y38759182D01*
X33567809Y38759182D02*
X33567809Y39759182D01*
X33567809Y39759182D02*
X33663047Y39616325D01*
X33663047Y39616325D02*
X33758285Y39521087D01*
X33758285Y39521087D02*
X33853523Y39473468D01*
X21285128Y-8491609D02*
X21618461Y-8491609D01*
X21618461Y-9015419D02*
X21618461Y-8015419D01*
X21618461Y-8015419D02*
X21142271Y-8015419D01*
X20761318Y-9015419D02*
X20761318Y-8015419D01*
X20285128Y-9015419D02*
X20285128Y-8015419D01*
X20285128Y-8015419D02*
X20047033Y-8015419D01*
X20047033Y-8015419D02*
X19904176Y-8063038D01*
X19904176Y-8063038D02*
X19808938Y-8158276D01*
X19808938Y-8158276D02*
X19761319Y-8253514D01*
X19761319Y-8253514D02*
X19713700Y-8443990D01*
X19713700Y-8443990D02*
X19713700Y-8586847D01*
X19713700Y-8586847D02*
X19761319Y-8777323D01*
X19761319Y-8777323D02*
X19808938Y-8872561D01*
X19808938Y-8872561D02*
X19904176Y-8967800D01*
X19904176Y-8967800D02*
X20047033Y-9015419D01*
X20047033Y-9015419D02*
X20285128Y-9015419D01*
X19380366Y-8015419D02*
X18761319Y-8015419D01*
X18761319Y-8015419D02*
X19094652Y-8396371D01*
X19094652Y-8396371D02*
X18951795Y-8396371D01*
X18951795Y-8396371D02*
X18856557Y-8443990D01*
X18856557Y-8443990D02*
X18808938Y-8491609D01*
X18808938Y-8491609D02*
X18761319Y-8586847D01*
X18761319Y-8586847D02*
X18761319Y-8824942D01*
X18761319Y-8824942D02*
X18808938Y-8920180D01*
X18808938Y-8920180D02*
X18856557Y-8967800D01*
X18856557Y-8967800D02*
X18951795Y-9015419D01*
X18951795Y-9015419D02*
X19237509Y-9015419D01*
X19237509Y-9015419D02*
X19332747Y-8967800D01*
X19332747Y-8967800D02*
X19380366Y-8920180D01*
X35186857Y36695421D02*
X35234476Y36647801D01*
X35234476Y36647801D02*
X35377333Y36600182D01*
X35377333Y36600182D02*
X35472571Y36600182D01*
X35472571Y36600182D02*
X35615428Y36647801D01*
X35615428Y36647801D02*
X35710666Y36743040D01*
X35710666Y36743040D02*
X35758285Y36838278D01*
X35758285Y36838278D02*
X35805904Y37028754D01*
X35805904Y37028754D02*
X35805904Y37171611D01*
X35805904Y37171611D02*
X35758285Y37362087D01*
X35758285Y37362087D02*
X35710666Y37457325D01*
X35710666Y37457325D02*
X35615428Y37552563D01*
X35615428Y37552563D02*
X35472571Y37600182D01*
X35472571Y37600182D02*
X35377333Y37600182D01*
X35377333Y37600182D02*
X35234476Y37552563D01*
X35234476Y37552563D02*
X35186857Y37504944D01*
X34853523Y37600182D02*
X34234476Y37600182D01*
X34234476Y37600182D02*
X34567809Y37219230D01*
X34567809Y37219230D02*
X34424952Y37219230D01*
X34424952Y37219230D02*
X34329714Y37171611D01*
X34329714Y37171611D02*
X34282095Y37123992D01*
X34282095Y37123992D02*
X34234476Y37028754D01*
X34234476Y37028754D02*
X34234476Y36790659D01*
X34234476Y36790659D02*
X34282095Y36695421D01*
X34282095Y36695421D02*
X34329714Y36647801D01*
X34329714Y36647801D02*
X34424952Y36600182D01*
X34424952Y36600182D02*
X34710666Y36600182D01*
X34710666Y36600182D02*
X34805904Y36647801D01*
X34805904Y36647801D02*
X34853523Y36695421D01*
X33615428Y37600182D02*
X33520190Y37600182D01*
X33520190Y37600182D02*
X33424952Y37552563D01*
X33424952Y37552563D02*
X33377333Y37504944D01*
X33377333Y37504944D02*
X33329714Y37409706D01*
X33329714Y37409706D02*
X33282095Y37219230D01*
X33282095Y37219230D02*
X33282095Y36981135D01*
X33282095Y36981135D02*
X33329714Y36790659D01*
X33329714Y36790659D02*
X33377333Y36695421D01*
X33377333Y36695421D02*
X33424952Y36647801D01*
X33424952Y36647801D02*
X33520190Y36600182D01*
X33520190Y36600182D02*
X33615428Y36600182D01*
X33615428Y36600182D02*
X33710666Y36647801D01*
X33710666Y36647801D02*
X33758285Y36695421D01*
X33758285Y36695421D02*
X33805904Y36790659D01*
X33805904Y36790659D02*
X33853523Y36981135D01*
X33853523Y36981135D02*
X33853523Y37219230D01*
X33853523Y37219230D02*
X33805904Y37409706D01*
X33805904Y37409706D02*
X33758285Y37504944D01*
X33758285Y37504944D02*
X33710666Y37552563D01*
X33710666Y37552563D02*
X33615428Y37600182D01*
X27254581Y12834858D02*
X27302201Y12882477D01*
X27302201Y12882477D02*
X27349820Y13025334D01*
X27349820Y13025334D02*
X27349820Y13120572D01*
X27349820Y13120572D02*
X27302201Y13263429D01*
X27302201Y13263429D02*
X27206962Y13358667D01*
X27206962Y13358667D02*
X27111724Y13406286D01*
X27111724Y13406286D02*
X26921248Y13453905D01*
X26921248Y13453905D02*
X26778391Y13453905D01*
X26778391Y13453905D02*
X26587915Y13406286D01*
X26587915Y13406286D02*
X26492677Y13358667D01*
X26492677Y13358667D02*
X26397439Y13263429D01*
X26397439Y13263429D02*
X26349820Y13120572D01*
X26349820Y13120572D02*
X26349820Y13025334D01*
X26349820Y13025334D02*
X26397439Y12882477D01*
X26397439Y12882477D02*
X26445058Y12834858D01*
X26445058Y12453905D02*
X26397439Y12406286D01*
X26397439Y12406286D02*
X26349820Y12311048D01*
X26349820Y12311048D02*
X26349820Y12072953D01*
X26349820Y12072953D02*
X26397439Y11977715D01*
X26397439Y11977715D02*
X26445058Y11930096D01*
X26445058Y11930096D02*
X26540296Y11882477D01*
X26540296Y11882477D02*
X26635534Y11882477D01*
X26635534Y11882477D02*
X26778391Y11930096D01*
X26778391Y11930096D02*
X27349820Y12501524D01*
X27349820Y12501524D02*
X27349820Y11882477D01*
X27349820Y11406286D02*
X27349820Y11215810D01*
X27349820Y11215810D02*
X27302201Y11120572D01*
X27302201Y11120572D02*
X27254581Y11072953D01*
X27254581Y11072953D02*
X27111724Y10977715D01*
X27111724Y10977715D02*
X26921248Y10930096D01*
X26921248Y10930096D02*
X26540296Y10930096D01*
X26540296Y10930096D02*
X26445058Y10977715D01*
X26445058Y10977715D02*
X26397439Y11025334D01*
X26397439Y11025334D02*
X26349820Y11120572D01*
X26349820Y11120572D02*
X26349820Y11311048D01*
X26349820Y11311048D02*
X26397439Y11406286D01*
X26397439Y11406286D02*
X26445058Y11453905D01*
X26445058Y11453905D02*
X26540296Y11501524D01*
X26540296Y11501524D02*
X26778391Y11501524D01*
X26778391Y11501524D02*
X26873629Y11453905D01*
X26873629Y11453905D02*
X26921248Y11406286D01*
X26921248Y11406286D02*
X26968867Y11311048D01*
X26968867Y11311048D02*
X26968867Y11120572D01*
X26968867Y11120572D02*
X26921248Y11025334D01*
X26921248Y11025334D02*
X26873629Y10977715D01*
X26873629Y10977715D02*
X26778391Y10930096D01*
X35313857Y26154421D02*
X35361476Y26106801D01*
X35361476Y26106801D02*
X35504333Y26059182D01*
X35504333Y26059182D02*
X35599571Y26059182D01*
X35599571Y26059182D02*
X35742428Y26106801D01*
X35742428Y26106801D02*
X35837666Y26202040D01*
X35837666Y26202040D02*
X35885285Y26297278D01*
X35885285Y26297278D02*
X35932904Y26487754D01*
X35932904Y26487754D02*
X35932904Y26630611D01*
X35932904Y26630611D02*
X35885285Y26821087D01*
X35885285Y26821087D02*
X35837666Y26916325D01*
X35837666Y26916325D02*
X35742428Y27011563D01*
X35742428Y27011563D02*
X35599571Y27059182D01*
X35599571Y27059182D02*
X35504333Y27059182D01*
X35504333Y27059182D02*
X35361476Y27011563D01*
X35361476Y27011563D02*
X35313857Y26963944D01*
X34932904Y26963944D02*
X34885285Y27011563D01*
X34885285Y27011563D02*
X34790047Y27059182D01*
X34790047Y27059182D02*
X34551952Y27059182D01*
X34551952Y27059182D02*
X34456714Y27011563D01*
X34456714Y27011563D02*
X34409095Y26963944D01*
X34409095Y26963944D02*
X34361476Y26868706D01*
X34361476Y26868706D02*
X34361476Y26773468D01*
X34361476Y26773468D02*
X34409095Y26630611D01*
X34409095Y26630611D02*
X34980523Y26059182D01*
X34980523Y26059182D02*
X34361476Y26059182D01*
X33504333Y27059182D02*
X33694809Y27059182D01*
X33694809Y27059182D02*
X33790047Y27011563D01*
X33790047Y27011563D02*
X33837666Y26963944D01*
X33837666Y26963944D02*
X33932904Y26821087D01*
X33932904Y26821087D02*
X33980523Y26630611D01*
X33980523Y26630611D02*
X33980523Y26249659D01*
X33980523Y26249659D02*
X33932904Y26154421D01*
X33932904Y26154421D02*
X33885285Y26106801D01*
X33885285Y26106801D02*
X33790047Y26059182D01*
X33790047Y26059182D02*
X33599571Y26059182D01*
X33599571Y26059182D02*
X33504333Y26106801D01*
X33504333Y26106801D02*
X33456714Y26154421D01*
X33456714Y26154421D02*
X33409095Y26249659D01*
X33409095Y26249659D02*
X33409095Y26487754D01*
X33409095Y26487754D02*
X33456714Y26582992D01*
X33456714Y26582992D02*
X33504333Y26630611D01*
X33504333Y26630611D02*
X33599571Y26678230D01*
X33599571Y26678230D02*
X33790047Y26678230D01*
X33790047Y26678230D02*
X33885285Y26630611D01*
X33885285Y26630611D02*
X33932904Y26582992D01*
X33932904Y26582992D02*
X33980523Y26487754D01*
X66135238Y16074543D02*
X66230476Y16122162D01*
X66230476Y16122162D02*
X66325714Y16217400D01*
X66325714Y16217400D02*
X66468571Y16360258D01*
X66468571Y16360258D02*
X66563809Y16407877D01*
X66563809Y16407877D02*
X66659047Y16407877D01*
X66611428Y16169781D02*
X66706666Y16217400D01*
X66706666Y16217400D02*
X66801904Y16312639D01*
X66801904Y16312639D02*
X66849523Y16503115D01*
X66849523Y16503115D02*
X66849523Y16836448D01*
X66849523Y16836448D02*
X66801904Y17026924D01*
X66801904Y17026924D02*
X66706666Y17122162D01*
X66706666Y17122162D02*
X66611428Y17169781D01*
X66611428Y17169781D02*
X66420952Y17169781D01*
X66420952Y17169781D02*
X66325714Y17122162D01*
X66325714Y17122162D02*
X66230476Y17026924D01*
X66230476Y17026924D02*
X66182857Y16836448D01*
X66182857Y16836448D02*
X66182857Y16503115D01*
X66182857Y16503115D02*
X66230476Y16312639D01*
X66230476Y16312639D02*
X66325714Y16217400D01*
X66325714Y16217400D02*
X66420952Y16169781D01*
X66420952Y16169781D02*
X66611428Y16169781D01*
X65801904Y17074543D02*
X65754285Y17122162D01*
X65754285Y17122162D02*
X65659047Y17169781D01*
X65659047Y17169781D02*
X65420952Y17169781D01*
X65420952Y17169781D02*
X65325714Y17122162D01*
X65325714Y17122162D02*
X65278095Y17074543D01*
X65278095Y17074543D02*
X65230476Y16979305D01*
X65230476Y16979305D02*
X65230476Y16884067D01*
X65230476Y16884067D02*
X65278095Y16741210D01*
X65278095Y16741210D02*
X65849523Y16169781D01*
X65849523Y16169781D02*
X65230476Y16169781D01*
D11*
%TO.C,C1*%
X15907652Y31011800D02*
X15385148Y31011800D01*
X15907652Y29541800D02*
X15385148Y29541800D01*
%TO.C,C5*%
X33145000Y33768419D02*
X33145000Y34049581D01*
X34165000Y33768419D02*
X34165000Y34049581D01*
%TO.C,C6*%
X34805252Y37311000D02*
X34282748Y37311000D01*
X34805252Y35841000D02*
X34282748Y35841000D01*
%TO.C,C7*%
X21698852Y53109800D02*
X21176348Y53109800D01*
X21698852Y51639800D02*
X21176348Y51639800D01*
%TO.C,C8*%
X21724252Y51027000D02*
X21201748Y51027000D01*
X21724252Y49557000D02*
X21201748Y49557000D01*
%TO.C,C9*%
X30106252Y28040000D02*
X29583748Y28040000D01*
X30106252Y26570000D02*
X29583748Y26570000D01*
%TO.C,C11*%
X41111500Y26121448D02*
X41111500Y26643952D01*
X42581500Y26121448D02*
X42581500Y26643952D01*
%TO.C,C12*%
X91822600Y31006149D02*
X91822600Y31528653D01*
X93292600Y31006149D02*
X93292600Y31528653D01*
%TO.C,C13*%
X91822600Y27704148D02*
X91822600Y28226652D01*
X93292600Y27704148D02*
X93292600Y28226652D01*
%TO.C,C14*%
X73750500Y22062748D02*
X73750500Y22585252D01*
X75220500Y22062748D02*
X75220500Y22585252D01*
%TO.C,C15*%
X69285752Y28139000D02*
X68763248Y28139000D01*
X69285752Y26669000D02*
X68763248Y26669000D01*
%TO.C,C16*%
X69285752Y34235000D02*
X68763248Y34235000D01*
X69285752Y32765000D02*
X68763248Y32765000D01*
%TO.C,C17*%
X53722600Y29420452D02*
X53722600Y28897948D01*
X55192600Y29420452D02*
X55192600Y28897948D01*
%TO.C,C18*%
X56008600Y28897948D02*
X56008600Y29420452D01*
X57478600Y28897948D02*
X57478600Y29420452D01*
D12*
%TO.C,J1*%
X5401000Y40350000D02*
X5401000Y30770000D01*
X5401000Y30770000D02*
X6681000Y30770000D01*
X6681000Y40350000D02*
X5401000Y40350000D01*
X9401000Y40350000D02*
X10651000Y40350000D01*
X9401000Y30770000D02*
X10651000Y30770000D01*
D11*
%TO.C,L1*%
X36482000Y31996748D02*
X36482000Y32519252D01*
X38702000Y31996748D02*
X38702000Y32519252D01*
%TO.C,Q1*%
X38702000Y47820000D02*
X38702000Y48870000D01*
X38702000Y45420000D02*
X38702000Y47020000D01*
X38702000Y42570000D02*
X38702000Y44520000D01*
X39102000Y48870000D02*
X38702000Y48870000D01*
X39102000Y42570000D02*
X38702000Y42570000D01*
X43702000Y48870000D02*
X44082000Y48870000D01*
X43702000Y42570000D02*
X44102000Y42570000D01*
X44102000Y47820000D02*
X44102000Y48870000D01*
X44102000Y45420000D02*
X44102000Y47020000D01*
X44102000Y42570000D02*
X44102000Y44520000D01*
%TO.C,R1*%
X14886000Y38253936D02*
X14886000Y38708064D01*
X16356000Y38253936D02*
X16356000Y38708064D01*
%TO.C,R3*%
X23267936Y40740000D02*
X23722064Y40740000D01*
X23267936Y39270000D02*
X23722064Y39270000D01*
%TO.C,R5*%
X20550200Y35307536D02*
X20550200Y35761664D01*
X22020200Y35307536D02*
X22020200Y35761664D01*
%TO.C,R6*%
X20143736Y31342000D02*
X20597864Y31342000D01*
X20143736Y29872000D02*
X20597864Y29872000D01*
%TO.C,R7*%
X39270000Y-8408936D02*
X39270000Y-8863064D01*
X40740000Y-8408936D02*
X40740000Y-8863064D01*
%TO.C,R8*%
X26697000Y41883064D02*
X26697000Y41428936D01*
X28167000Y41883064D02*
X28167000Y41428936D01*
%TO.C,R9*%
X29745000Y39724064D02*
X29745000Y39269936D01*
X31215000Y39724064D02*
X31215000Y39269936D01*
%TO.C,R11*%
X49633136Y60018600D02*
X50087264Y60018600D01*
X49633136Y58548600D02*
X50087264Y58548600D01*
%TO.C,R17*%
X70900936Y19680600D02*
X72355064Y19680600D01*
X70900936Y17860600D02*
X72355064Y17860600D01*
%TO.C,R18*%
X62003000Y21283664D02*
X62003000Y20829536D01*
X63473000Y21283664D02*
X63473000Y20829536D01*
%TO.C,R19*%
X62203064Y18743600D02*
X61748936Y18743600D01*
X62203064Y17273600D02*
X61748936Y17273600D01*
%TO.C,R20*%
X62104600Y25147536D02*
X62104600Y25601664D01*
X63574600Y25147536D02*
X63574600Y25601664D01*
%TO.C,R23*%
X62482464Y40892400D02*
X62028336Y40892400D01*
X62482464Y39422400D02*
X62028336Y39422400D01*
%TO.C,R24*%
X57885064Y35060500D02*
X57430936Y35060500D01*
X57885064Y33590500D02*
X57430936Y33590500D01*
%TO.C,R27*%
X60504400Y36882336D02*
X60504400Y37336464D01*
X61974400Y36882336D02*
X61974400Y37336464D01*
%TO.C,R28*%
X76782664Y34034400D02*
X76328536Y34034400D01*
X76782664Y32564400D02*
X76328536Y32564400D01*
%TO.C,R32*%
X13841464Y45769200D02*
X13387336Y45769200D01*
X13841464Y44299200D02*
X13387336Y44299200D01*
%TO.C,R33*%
X13892264Y23366400D02*
X13438136Y23366400D01*
X13892264Y21896400D02*
X13438136Y21896400D01*
%TO.C,U1*%
X31827500Y30051700D02*
X31497500Y30291700D01*
X31827500Y30531700D01*
X31827500Y30051700D01*
G36*
X31827500Y30051700D02*
G01*
X31497500Y30291700D01*
X31827500Y30531700D01*
X31827500Y30051700D01*
G37*
%TO.C,U3*%
X59675500Y32054000D02*
X60025500Y32054000D01*
X59675500Y31704000D02*
X59675500Y32054000D01*
X63895500Y32054000D02*
X63545500Y32054000D01*
X63895500Y31704000D02*
X63895500Y32054000D01*
X63895500Y28184000D02*
X63895500Y27834000D01*
X63895500Y27834000D02*
X63545500Y27834000D01*
X59805500Y27444000D02*
X59325500Y27444000D01*
X59565500Y27774000D01*
X59805500Y27444000D01*
G36*
X59805500Y27444000D02*
G01*
X59325500Y27444000D01*
X59565500Y27774000D01*
X59805500Y27444000D01*
G37*
%TO.C,R4*%
X23547400Y43051464D02*
X23547400Y42597336D01*
X25017400Y43051464D02*
X25017400Y42597336D01*
%TO.C,C4*%
X20270800Y26942148D02*
X20270800Y27464652D01*
X21740800Y26942148D02*
X21740800Y27464652D01*
%TO.C,C3*%
X18035600Y26992948D02*
X18035600Y27515452D01*
X19505600Y26992948D02*
X19505600Y27515452D01*
%TO.C,C2*%
X15825800Y27043748D02*
X15825800Y27566252D01*
X17295800Y27043748D02*
X17295800Y27566252D01*
%TO.C,C10*%
X29710748Y37438000D02*
X30233252Y37438000D01*
X29710748Y35968000D02*
X30233252Y35968000D01*
%TO.C,R2*%
X14886000Y33628064D02*
X14886000Y33173936D01*
X16356000Y33628064D02*
X16356000Y33173936D01*
%TO.C,R34*%
X52551064Y24484000D02*
X52096936Y24484000D01*
X52551064Y23014000D02*
X52096936Y23014000D01*
%TO.C,C19*%
X51271500Y43413252D02*
X51271500Y42890748D01*
X52741500Y43413252D02*
X52741500Y42890748D01*
%TO.C,C20*%
X26027748Y28040000D02*
X26550252Y28040000D01*
X26027748Y26570000D02*
X26550252Y26570000D01*
%TO.C,R35*%
X46753200Y20479736D02*
X46753200Y24833864D01*
X50173200Y20479736D02*
X50173200Y24833864D01*
%TO.C,R36*%
X52551064Y22325000D02*
X52096936Y22325000D01*
X52551064Y20855000D02*
X52096936Y20855000D01*
%TO.C,R22*%
X79376600Y32056336D02*
X79376600Y32510464D01*
X80846600Y32056336D02*
X80846600Y32510464D01*
%TO.C,Q5*%
X54254000Y49690000D02*
X56204000Y49690000D01*
X54254000Y49290000D02*
X54254000Y49690000D01*
X54254000Y44690000D02*
X54254000Y44290000D01*
X54254000Y44290000D02*
X56204000Y44290000D01*
X57104000Y49690000D02*
X58704000Y49690000D01*
X57104000Y44290000D02*
X58704000Y44290000D01*
X59504000Y49690000D02*
X60554000Y49690000D01*
X59504000Y44290000D02*
X60554000Y44290000D01*
X60554000Y49290000D02*
X60554000Y49690000D01*
X60554000Y44690000D02*
X60554000Y44310000D01*
%TO.C,Q3*%
X87978000Y42266000D02*
X87978000Y40316000D01*
X87978000Y39416000D02*
X87978000Y37816000D01*
X87978000Y37016000D02*
X87978000Y35966000D01*
X88378000Y42266000D02*
X87978000Y42266000D01*
X88378000Y35966000D02*
X87998000Y35966000D01*
X92978000Y42266000D02*
X93378000Y42266000D01*
X92978000Y35966000D02*
X93378000Y35966000D01*
X93378000Y42266000D02*
X93378000Y40316000D01*
X93378000Y39416000D02*
X93378000Y37816000D01*
X93378000Y37016000D02*
X93378000Y35966000D01*
%TO.C,TH3*%
X20143736Y33374000D02*
X20597864Y33374000D01*
X20143736Y31904000D02*
X20597864Y31904000D01*
%TO.C,C27*%
X34932253Y24611000D02*
X34409747Y24611000D01*
X34932253Y23141000D02*
X34409747Y23141000D01*
%TO.C,TH4*%
X55906936Y18007000D02*
X56361064Y18007000D01*
X55906936Y16537000D02*
X56361064Y16537000D01*
%TO.C,D6*%
X40758400Y20509600D02*
X43418400Y20509600D01*
X40758400Y18809600D02*
X43418400Y18809600D01*
X43418400Y18809600D02*
X43418400Y20509600D01*
%TO.C,C21*%
X54510000Y22344747D02*
X54510000Y22867253D01*
X55980000Y22344747D02*
X55980000Y22867253D01*
%TO.C,C25*%
X34932253Y26770000D02*
X34409747Y26770000D01*
X34932253Y25300000D02*
X34409747Y25300000D01*
%TO.C,C24*%
X33145000Y31001581D02*
X33145000Y30720419D01*
X34165000Y31001581D02*
X34165000Y30720419D01*
%TO.C,C31*%
X34805252Y41629000D02*
X34282748Y41629000D01*
X34805252Y40159000D02*
X34282748Y40159000D01*
%TO.C,C30*%
X34805252Y39470000D02*
X34282748Y39470000D01*
X34805252Y38000000D02*
X34282748Y38000000D01*
%TO.C,C29*%
X27840000Y11930747D02*
X27840000Y12453253D01*
X29310000Y11930747D02*
X29310000Y12453253D01*
%TO.C,C26*%
X34932253Y28929000D02*
X34409747Y28929000D01*
X34932253Y27459000D02*
X34409747Y27459000D01*
%TO.C,Q2*%
X65390000Y20584600D02*
X66040000Y20584600D01*
X65390000Y17464600D02*
X66040000Y17464600D01*
X66690000Y20584600D02*
X66040000Y20584600D01*
X66690000Y17464600D02*
X66040000Y17464600D01*
X65117500Y17184600D02*
X64637500Y17184600D01*
X64877500Y17514600D01*
X65117500Y17184600D01*
G36*
X65117500Y17184600D02*
G01*
X64637500Y17184600D01*
X64877500Y17514600D01*
X65117500Y17184600D01*
G37*
%TD*%
M02*
