M48
; DRILL file {KiCad 8.0.3+1} date 2024-07-21T00:01:47+0000
; FORMAT={3:3/ absolute / metric / suppress leading zeros}
; #@! TF.CreationDate,2024-07-21T00:01:47+00:00
; #@! TF.GenerationSoftware,Kicad,Pcbnew,8.0.3+1
; #@! TF.FileFunction,Plated,1,2,PTH
FMAT,2
METRIC,TZ
; #@! TA.AperFunction,Plated,PTH,ComponentDrill
T1C0.200
; #@! TA.AperFunction,Plated,PTH,ViaDrill
T2C0.400
; #@! TA.AperFunction,Plated,PTH,ComponentDrill
T3C0.600
; #@! TA.AperFunction,Plated,PTH,ComponentDrill
T4C0.889
; #@! TA.AperFunction,Plated,PTH,ComponentDrill
T5C1.000
; #@! TA.AperFunction,Plated,PTH,ComponentDrill
T6C1.300
; #@! TA.AperFunction,Plated,PTH,ComponentDrill
T7C1.600
; #@! TA.AperFunction,Plated,PTH,ComponentDrill
T8C3.000
%
G90
G05
T1
X55880Y28829
T2
X14390Y36266
X17018Y34925
X21209Y31750
X23749Y33782
X23749Y27051
X26162Y35941
X26289Y27498
X26562Y48828
X27022Y39830
X27674Y29871
X30226Y23622
X30637Y29026
X31497Y30606
X31985Y29045
X32131Y38608
X32258Y23622
X33655Y14224
X34225Y31202
X35179Y13589
X35687Y28133
X36322Y46990
X38354Y30988
X41321Y32924
X41783Y57658
X43053Y30226
X44577Y20955
X46990Y7620
X47900Y49132
X48234Y24713
X49580Y29145
X50735Y28329
X51435Y29845
X52324Y22098
X52478Y29813
X52596Y31815
X52705Y25527
X53721Y31115
X53848Y23114
X55118Y25273
X55118Y22733
X55245Y35906
X56919Y37211
X57987Y31461
X58025Y26729
X58455Y35694
X59436Y24954
X60263Y31496
X60452Y39751
X61722Y25527
X63119Y28641
X63373Y26741
X65001Y44606
T4
X31115Y63119
X31115Y60579
X33655Y63119
X33655Y60579
X48133Y63246
X48133Y60706
X64262Y11430
X64262Y8890
X65278Y60198
X65278Y57658
X66802Y11811
X66802Y9271
X67818Y60198
X67818Y57658
X69342Y11811
X69342Y9271
X70358Y60198
X70358Y57658
X71882Y11811
X71882Y9271
X72898Y60198
X72898Y57658
X74422Y11811
X74422Y9271
X75438Y60198
X75438Y57658
T5
X39787Y13310
X39787Y7010
X44287Y13310
X44287Y7010
X53365Y63210
X53365Y58710
X59665Y63210
X59665Y58710
T6
X19126Y62820
X19126Y57816
X19956Y13276
X19956Y8323
X24126Y62820
X24126Y57816
X24955Y13276
X24955Y8323
T7
X9470Y45210
X9470Y25910
X81970Y45210
X81970Y25910
T8
X10160Y60960
X10160Y10160
X81280Y60960
X81280Y10160
T3
G00X7601Y39880
M15
G01X8401Y39880
M16
G05
G00X7601Y31240
M15
G01X8401Y31240
M16
G05
G00X11631Y39880
M15
G01X12731Y39880
M16
G05
G00X11631Y31240
M15
G01X12731Y31240
M16
G05
M30
