%TF.GenerationSoftware,KiCad,Pcbnew,8.0.3+1*%
%TF.CreationDate,2024-07-20T17:55:20+00:00*%
%TF.ProjectId,LION2CELL02,4c494f4e-3243-4454-9c4c-30322e6b6963,rev?*%
%TF.SameCoordinates,Original*%
%TF.FileFunction,Soldermask,Bot*%
%TF.FilePolarity,Negative*%
%FSLAX46Y46*%
G04 Gerber Fmt 4.6, Leading zero omitted, Abs format (unit mm)*
G04 Created by KiCad (PCBNEW 8.0.3+1) date 2024-07-20 17:55:20*
%MOMM*%
%LPD*%
G01*
G04 APERTURE LIST*
G04 Aperture macros list*
%AMRoundRect*
0 Rectangle with rounded corners*
0 $1 Rounding radius*
0 $2 $3 $4 $5 $6 $7 $8 $9 X,Y pos of 4 corners*
0 Add a 4 corners polygon primitive as box body*
4,1,4,$2,$3,$4,$5,$6,$7,$8,$9,$2,$3,0*
0 Add four circle primitives for the rounded corners*
1,1,$1+$1,$2,$3*
1,1,$1+$1,$4,$5*
1,1,$1+$1,$6,$7*
1,1,$1+$1,$8,$9*
0 Add four rect primitives between the rounded corners*
20,1,$1+$1,$2,$3,$4,$5,0*
20,1,$1+$1,$4,$5,$6,$7,0*
20,1,$1+$1,$6,$7,$8,$9,0*
20,1,$1+$1,$8,$9,$2,$3,0*%
%AMFreePoly0*
4,1,27,0.405000,0.748540,0.473851,0.737775,0.540468,0.697134,0.586462,0.634092,0.604830,0.558249,0.592775,0.481149,0.592776,0.481149,0.558927,0.388685,0.517726,0.196112,0.503933,-0.000335,0.517820,-0.196775,0.559113,-0.389328,0.593006,-0.481776,0.593005,-0.481776,0.605097,-0.558870,0.586765,-0.634722,0.540802,-0.697786,0.474204,-0.738459,0.405000,-0.749313,0.405000,-0.750000,
0.400623,-0.750000,0.397110,-0.750551,0.394830,-0.750000,-0.645000,-0.750000,-0.645000,0.750000,0.405000,0.750000,0.405000,0.748540,0.405000,0.748540,$1*%
%AMFreePoly1*
4,1,37,-1.390000,2.050000,0.435000,2.050000,0.435000,2.805000,1.035000,2.805000,1.035000,2.050000,1.215000,2.050000,1.215000,-2.050000,1.035000,-2.050000,1.035000,-2.805000,0.435000,-2.805000,0.435000,-2.050000,-1.390000,-2.050000,-1.390000,-2.805000,-1.990000,-2.805000,-1.990000,-2.050000,-2.285000,-2.050000,-2.285000,-2.210000,-3.305000,-2.210000,-3.305000,-1.600000,-2.595000,-1.600000,
-2.595000,-0.940000,-3.305000,-0.940000,-3.305000,-0.330000,-2.595000,-0.330000,-2.595000,0.330000,-3.305000,0.330000,-3.305000,0.940000,-2.595000,0.940000,-2.595000,1.600000,-3.305000,1.600000,-3.305000,2.210000,-2.285000,2.210000,-2.285000,2.050000,-1.990000,2.050000,-1.990000,2.805000,-1.390000,2.805000,-1.390000,2.050000,-1.390000,2.050000,$1*%
G04 Aperture macros list end*
%ADD10R,3.810000X3.810000*%
%ADD11R,1.524000X1.524000*%
%ADD12O,0.900000X1.300000*%
%ADD13C,6.000000*%
%ADD14R,4.000000X4.000000*%
%ADD15RoundRect,0.250000X-0.250000X-0.475000X0.250000X-0.475000X0.250000X0.475000X-0.250000X0.475000X0*%
%ADD16RoundRect,0.225000X-0.250000X0.225000X-0.250000X-0.225000X0.250000X-0.225000X0.250000X0.225000X0*%
%ADD17RoundRect,0.250000X-0.475000X0.250000X-0.475000X-0.250000X0.475000X-0.250000X0.475000X0.250000X0*%
%ADD18RoundRect,0.250000X0.475000X-0.250000X0.475000X0.250000X-0.475000X0.250000X-0.475000X-0.250000X0*%
%ADD19C,2.700000*%
%ADD20FreePoly0,90.000000*%
%ADD21FreePoly0,270.000000*%
%ADD22C,0.650000*%
%ADD23R,1.150000X0.600000*%
%ADD24R,1.150000X0.300000*%
%ADD25O,2.000000X1.000000*%
%ADD26O,2.100000X1.050000*%
%ADD27RoundRect,0.250000X-0.850000X0.375000X-0.850000X-0.375000X0.850000X-0.375000X0.850000X0.375000X0*%
%ADD28R,0.610000X1.270000*%
%ADD29FreePoly1,270.000000*%
%ADD30RoundRect,0.250000X-0.450000X0.262500X-0.450000X-0.262500X0.450000X-0.262500X0.450000X0.262500X0*%
%ADD31RoundRect,0.250000X0.262500X0.450000X-0.262500X0.450000X-0.262500X-0.450000X0.262500X-0.450000X0*%
%ADD32RoundRect,0.250000X0.450000X-0.262500X0.450000X0.262500X-0.450000X0.262500X-0.450000X-0.262500X0*%
%ADD33RoundRect,0.250000X0.312500X0.625000X-0.312500X0.625000X-0.312500X-0.625000X0.312500X-0.625000X0*%
%ADD34RoundRect,0.250000X-0.262500X-0.450000X0.262500X-0.450000X0.262500X0.450000X-0.262500X0.450000X0*%
%ADD35RoundRect,0.050000X0.050000X-0.425000X0.050000X0.425000X-0.050000X0.425000X-0.050000X-0.425000X0*%
%ADD36RoundRect,0.050000X0.300000X-0.050000X0.300000X0.050000X-0.300000X0.050000X-0.300000X-0.050000X0*%
%ADD37RoundRect,0.050000X0.050000X-0.250000X0.050000X0.250000X-0.050000X0.250000X-0.050000X-0.250000X0*%
%ADD38RoundRect,0.050000X0.050000X-0.400000X0.050000X0.400000X-0.050000X0.400000X-0.050000X-0.400000X0*%
%ADD39RoundRect,0.050000X0.250000X-0.050000X0.250000X0.050000X-0.250000X0.050000X-0.250000X-0.050000X0*%
%ADD40RoundRect,0.050000X-0.300000X-0.050000X0.300000X-0.050000X0.300000X0.050000X-0.300000X0.050000X0*%
%ADD41RoundRect,0.050000X0.050000X-0.300000X0.050000X0.300000X-0.050000X0.300000X-0.050000X-0.300000X0*%
%ADD42RoundRect,0.050000X0.050000X-0.275000X0.050000X0.275000X-0.050000X0.275000X-0.050000X-0.275000X0*%
%ADD43RoundRect,0.050000X0.050000X-0.290000X0.050000X0.290000X-0.050000X0.290000X-0.050000X-0.290000X0*%
%ADD44RoundRect,0.050000X0.450000X-0.050000X0.450000X0.050000X-0.450000X0.050000X-0.450000X-0.050000X0*%
%ADD45RoundRect,0.050000X-0.050000X-0.300000X0.050000X-0.300000X0.050000X0.300000X-0.050000X0.300000X0*%
%ADD46RoundRect,0.120400X-0.579600X-0.579600X0.579600X-0.579600X0.579600X0.579600X-0.579600X0.579600X0*%
%ADD47RoundRect,0.250000X0.250000X0.475000X-0.250000X0.475000X-0.250000X-0.475000X0.250000X-0.475000X0*%
%ADD48RoundRect,0.250000X-1.425000X0.362500X-1.425000X-0.362500X1.425000X-0.362500X1.425000X0.362500X0*%
%ADD49R,1.270000X0.610000*%
%ADD50FreePoly1,180.000000*%
%ADD51C,2.000000*%
%ADD52FreePoly1,90.000000*%
%ADD53RoundRect,0.112500X0.187500X0.112500X-0.187500X0.112500X-0.187500X-0.112500X0.187500X-0.112500X0*%
%ADD54RoundRect,0.225000X0.250000X-0.225000X0.250000X0.225000X-0.250000X0.225000X-0.250000X-0.225000X0*%
%ADD55RoundRect,0.150000X-0.587500X-0.150000X0.587500X-0.150000X0.587500X0.150000X-0.587500X0.150000X0*%
G04 APERTURE END LIST*
D10*
%TO.C,J2*%
X24126201Y57816000D03*
X19126201Y57816000D03*
%TD*%
%TO.C,J3*%
X24126200Y62819800D03*
X19126200Y62819800D03*
%TD*%
D11*
%TO.C,J4*%
X74422000Y11811000D03*
X74422000Y9271000D03*
X71882000Y11811000D03*
X71882000Y9271000D03*
X69342000Y11811000D03*
X69342000Y9271000D03*
X66802000Y11811000D03*
X66802000Y9271000D03*
%TD*%
%TO.C,J6*%
X46418500Y61948000D03*
X46418500Y59408000D03*
%TD*%
%TO.C,J7*%
X39306500Y10132000D03*
X41846500Y10132000D03*
%TD*%
D10*
%TO.C,J9*%
X19955500Y8323000D03*
X24955500Y8323000D03*
%TD*%
D11*
%TO.C,J10*%
X56769000Y63119000D03*
X56769000Y60579000D03*
%TD*%
%TO.C,J11*%
X59309000Y63119000D03*
X59309000Y60579000D03*
%TD*%
%TO.C,J12*%
X65278000Y57658000D03*
X65278000Y60198000D03*
X67818000Y57658000D03*
X67818000Y60198000D03*
X70358000Y57657999D03*
X70358000Y60198001D03*
X72898000Y57658000D03*
X72898000Y60198000D03*
X75438000Y57658000D03*
X75438000Y60198000D03*
%TD*%
D10*
%TO.C,J8*%
X19955500Y13276000D03*
X24955500Y13276000D03*
%TD*%
D12*
%TO.C,SW1*%
X58212700Y-5401600D03*
X62462700Y-5401600D03*
%TD*%
%TO.C,SW2*%
X48742700Y-5048600D03*
X52992700Y-5048600D03*
%TD*%
D13*
%TO.C,H2*%
X81280000Y60960000D03*
%TD*%
%TO.C,H3*%
X10160000Y10160000D03*
%TD*%
D14*
%TO.C,B1*%
X9470000Y45210000D03*
X81970000Y45210000D03*
X9470000Y25910000D03*
X81970000Y25910000D03*
%TD*%
D13*
%TO.C,H4*%
X81280000Y10160000D03*
%TD*%
%TO.C,H1*%
X10160000Y60960000D03*
%TD*%
D15*
%TO.C,C1*%
X14696400Y30276800D03*
X16596400Y30276800D03*
%TD*%
D16*
%TO.C,C5*%
X33655000Y34684000D03*
X33655000Y33134000D03*
%TD*%
D15*
%TO.C,C6*%
X33594000Y36576000D03*
X35494000Y36576000D03*
%TD*%
%TO.C,C7*%
X20487600Y52374800D03*
X22387600Y52374800D03*
%TD*%
%TO.C,C8*%
X20513000Y50292000D03*
X22413000Y50292000D03*
%TD*%
%TO.C,C9*%
X28895000Y27305000D03*
X30795000Y27305000D03*
%TD*%
D17*
%TO.C,C11*%
X41846500Y27332700D03*
X41846500Y25432700D03*
%TD*%
%TO.C,C12*%
X92557600Y32217401D03*
X92557600Y30317401D03*
%TD*%
%TO.C,C13*%
X92557600Y28915400D03*
X92557600Y27015400D03*
%TD*%
%TO.C,C14*%
X74485500Y23274000D03*
X74485500Y21374000D03*
%TD*%
D15*
%TO.C,C15*%
X68074500Y27404000D03*
X69974500Y27404000D03*
%TD*%
%TO.C,C16*%
X68074500Y33500000D03*
X69974500Y33500000D03*
%TD*%
D18*
%TO.C,C17*%
X54457600Y28209200D03*
X54457600Y30109200D03*
%TD*%
D17*
%TO.C,C18*%
X56743600Y30109200D03*
X56743600Y28209200D03*
%TD*%
D19*
%TO.C,D1*%
X48895000Y9017000D03*
D20*
X48895000Y7112000D03*
D21*
X48895000Y10922000D03*
%TD*%
D19*
%TO.C,D3*%
X40144700Y-4015800D03*
D21*
X40144700Y-2110800D03*
D20*
X40144700Y-5920800D03*
%TD*%
D19*
%TO.C,D4*%
X51943000Y9017000D03*
D21*
X51943000Y10922000D03*
D20*
X51943000Y7112000D03*
%TD*%
D19*
%TO.C,D7*%
X58166000Y9017000D03*
D20*
X58166000Y7112000D03*
D21*
X58166000Y10922000D03*
%TD*%
D19*
%TO.C,D8*%
X61214000Y9017000D03*
D20*
X61214000Y7112000D03*
D21*
X61214000Y10922000D03*
%TD*%
D22*
%TO.C,J1*%
X11681000Y32670000D03*
X11681000Y38450000D03*
D23*
X12756000Y32360000D03*
X12756000Y33160000D03*
D24*
X12756000Y34310000D03*
X12756000Y35310000D03*
X12756000Y35810000D03*
X12756000Y36810000D03*
D23*
X12756000Y38760000D03*
X12756000Y37960000D03*
D24*
X12756000Y37310000D03*
X12756000Y36310000D03*
X12756000Y34810000D03*
X12756000Y33810000D03*
D25*
X8001000Y31240000D03*
X8001000Y39880000D03*
D26*
X12181000Y31240000D03*
X12181000Y39880000D03*
%TD*%
D27*
%TO.C,L1*%
X37592000Y33333000D03*
X37592000Y31183000D03*
%TD*%
D28*
%TO.C,Q1*%
X42037000Y43050000D03*
X40767000Y43050000D03*
X43307000Y43049999D03*
X39497000Y43049999D03*
D29*
X41402000Y45720000D03*
%TD*%
D30*
%TO.C,R1*%
X15621000Y39393500D03*
X15621000Y37568500D03*
%TD*%
D31*
%TO.C,R3*%
X24407500Y40005000D03*
X22582500Y40005000D03*
%TD*%
D30*
%TO.C,R5*%
X21285200Y36447100D03*
X21285200Y34622100D03*
%TD*%
D31*
%TO.C,R6*%
X21283300Y30607000D03*
X19458300Y30607000D03*
%TD*%
D32*
%TO.C,R7*%
X40005000Y-9548500D03*
X40005000Y-7723500D03*
%TD*%
%TO.C,R8*%
X27432000Y40743500D03*
X27432000Y42568500D03*
%TD*%
%TO.C,R9*%
X30480000Y38584500D03*
X30480000Y40409500D03*
%TD*%
D31*
%TO.C,R11*%
X50772700Y59283600D03*
X48947700Y59283600D03*
%TD*%
D33*
%TO.C,R17*%
X73090500Y18770600D03*
X70165500Y18770600D03*
%TD*%
D32*
%TO.C,R18*%
X62738000Y20144100D03*
X62738000Y21969100D03*
%TD*%
D34*
%TO.C,R19*%
X61063500Y18008600D03*
X62888500Y18008600D03*
%TD*%
D30*
%TO.C,R20*%
X62839600Y26287100D03*
X62839600Y24462100D03*
%TD*%
D34*
%TO.C,R23*%
X61342900Y40157400D03*
X63167900Y40157400D03*
%TD*%
%TO.C,R24*%
X56745500Y34325500D03*
X58570500Y34325500D03*
%TD*%
D30*
%TO.C,R27*%
X61239400Y38021900D03*
X61239400Y36196900D03*
%TD*%
D34*
%TO.C,R28*%
X75643100Y33299400D03*
X77468100Y33299400D03*
%TD*%
%TO.C,R32*%
X12701900Y45034200D03*
X14526900Y45034200D03*
%TD*%
%TO.C,R33*%
X12752700Y22631400D03*
X14577700Y22631400D03*
%TD*%
D35*
%TO.C,U1*%
X31127500Y30626700D03*
D36*
X31377500Y31001700D03*
D37*
X30727500Y30451700D03*
X30327500Y30451700D03*
X29927500Y30451700D03*
X29527500Y30451700D03*
X29127500Y30451700D03*
X28727500Y30451700D03*
X28327500Y30451700D03*
D38*
X27927500Y30601700D03*
D36*
X27677500Y30951700D03*
D39*
X27627500Y31351700D03*
X27627500Y31751700D03*
X27627500Y32151700D03*
X27627500Y32551700D03*
X27627500Y32951700D03*
X27627500Y33351700D03*
D40*
X27677500Y33751700D03*
D38*
X27927500Y34101700D03*
D41*
X28327500Y34201700D03*
D42*
X28727500Y34226700D03*
D43*
X29127500Y34214200D03*
D37*
X29527500Y34251700D03*
X29927500Y34251700D03*
X30327500Y34251700D03*
X30727500Y34251700D03*
D36*
X31377500Y33701700D03*
D35*
X31127500Y34076700D03*
D44*
X31127500Y33151700D03*
X31127500Y32751700D03*
X31127500Y32351700D03*
X31127500Y31951700D03*
X31127500Y31551700D03*
%TD*%
D40*
%TO.C,U3*%
X59785500Y28544000D03*
X59785500Y28944000D03*
X59785500Y29344000D03*
X59785500Y29744000D03*
X59785500Y30144000D03*
X59785500Y30544000D03*
X59785500Y30944000D03*
X59785500Y31344000D03*
D45*
X60385500Y31944000D03*
X60785500Y31944000D03*
X61185500Y31944000D03*
X61585500Y31944000D03*
X61985500Y31944000D03*
X62385500Y31944000D03*
X62785500Y31944000D03*
X63185500Y31944000D03*
D40*
X63785500Y31344000D03*
X63785500Y30944000D03*
X63785500Y30544000D03*
X63785500Y30144000D03*
X63785500Y29744000D03*
X63785500Y29344000D03*
X63785500Y28944000D03*
X63785500Y28544000D03*
D45*
X63185500Y27944000D03*
X62785500Y27944000D03*
X62385500Y27944000D03*
X61985500Y27944000D03*
X61585500Y27944000D03*
X61185500Y27944000D03*
X60785500Y27944000D03*
X60385500Y27944000D03*
D46*
X61785500Y29944000D03*
%TD*%
D32*
%TO.C,R4*%
X24282400Y41911900D03*
X24282400Y43736900D03*
%TD*%
D19*
%TO.C,D5*%
X55118000Y9017000D03*
D21*
X55118000Y10922000D03*
D20*
X55118000Y7112000D03*
%TD*%
D17*
%TO.C,C4*%
X21005800Y28153400D03*
X21005800Y26253400D03*
%TD*%
%TO.C,C3*%
X18770600Y28204200D03*
X18770600Y26304200D03*
%TD*%
%TO.C,C2*%
X16560800Y28255000D03*
X16560800Y26355000D03*
%TD*%
D47*
%TO.C,C10*%
X30922000Y36703000D03*
X29022000Y36703000D03*
%TD*%
D32*
%TO.C,R2*%
X15621000Y32488500D03*
X15621000Y34313500D03*
%TD*%
D34*
%TO.C,R34*%
X51411500Y23749000D03*
X53236500Y23749000D03*
%TD*%
D18*
%TO.C,C19*%
X52006500Y42202000D03*
X52006500Y44102000D03*
%TD*%
D47*
%TO.C,C20*%
X27239000Y27305000D03*
X25339000Y27305000D03*
%TD*%
D48*
%TO.C,R35*%
X48463200Y25619300D03*
X48463200Y19694300D03*
%TD*%
D34*
%TO.C,R36*%
X51411500Y21590000D03*
X53236500Y21590000D03*
%TD*%
D30*
%TO.C,R22*%
X80111600Y33195900D03*
X80111600Y31370900D03*
%TD*%
D49*
%TO.C,Q5*%
X54734000Y45085000D03*
X54734000Y46355000D03*
X54734000Y47625000D03*
X54734000Y48895000D03*
D50*
X57404000Y46990000D03*
%TD*%
D51*
%TO.C,FID4*%
X20213700Y-14110600D03*
%TD*%
%TO.C,FID1*%
X20213700Y-3460600D03*
%TD*%
D28*
%TO.C,Q3*%
X88773000Y41786000D03*
X90043000Y41786000D03*
X91313000Y41786000D03*
X92583000Y41786000D03*
D52*
X90678000Y39116000D03*
%TD*%
D31*
%TO.C,TH3*%
X21283300Y32639000D03*
X19458300Y32639000D03*
%TD*%
D15*
%TO.C,C27*%
X33721001Y23876000D03*
X35620999Y23876000D03*
%TD*%
D51*
%TO.C,FID2*%
X20213700Y-7010600D03*
%TD*%
D31*
%TO.C,TH4*%
X57046500Y17272000D03*
X55221500Y17272000D03*
%TD*%
D53*
%TO.C,D6*%
X42858400Y19659600D03*
X40758400Y19659600D03*
%TD*%
D17*
%TO.C,C21*%
X55245000Y23555999D03*
X55245000Y21656001D03*
%TD*%
D15*
%TO.C,C25*%
X33721001Y26035000D03*
X35620999Y26035000D03*
%TD*%
D54*
%TO.C,C24*%
X33655000Y30086000D03*
X33655000Y31636000D03*
%TD*%
D15*
%TO.C,C31*%
X33594000Y40894000D03*
X35494000Y40894000D03*
%TD*%
D51*
%TO.C,FID3*%
X20213700Y-10560600D03*
%TD*%
D15*
%TO.C,C30*%
X33594000Y38735000D03*
X35494000Y38735000D03*
%TD*%
D17*
%TO.C,C29*%
X28575000Y13141999D03*
X28575000Y11242001D03*
%TD*%
D15*
%TO.C,C26*%
X33721001Y28194000D03*
X35620999Y28194000D03*
%TD*%
D55*
%TO.C,Q2*%
X65102500Y18074600D03*
X65102500Y19974600D03*
X66977500Y19024600D03*
%TD*%
M02*
