%TF.GenerationSoftware,KiCad,Pcbnew,8.0.6+1*%
%TF.CreationDate,2024-11-09T00:28:00+00:00*%
%TF.ProjectId,LION2CELL02,4c494f4e-3243-4454-9c4c-30322e6b6963,rev?*%
%TF.SameCoordinates,Original*%
%TF.FileFunction,Legend,Top*%
%TF.FilePolarity,Positive*%
%FSLAX46Y46*%
G04 Gerber Fmt 4.6, Leading zero omitted, Abs format (unit mm)*
G04 Created by KiCad (PCBNEW 8.0.6+1) date 2024-11-09 00:28:00*
%MOMM*%
%LPD*%
G01*
G04 APERTURE LIST*
%ADD10C,0.300000*%
%ADD11C,0.375000*%
%ADD12C,0.304800*%
%ADD13C,0.150000*%
%ADD14C,0.200000*%
%ADD15C,0.120000*%
%ADD16C,0.127000*%
G04 APERTURE END LIST*
D10*
X68383400Y61932035D02*
X68450066Y62132035D01*
X68450066Y62132035D02*
X68450066Y62465368D01*
X68450066Y62465368D02*
X68383400Y62598702D01*
X68383400Y62598702D02*
X68316733Y62665368D01*
X68316733Y62665368D02*
X68183400Y62732035D01*
X68183400Y62732035D02*
X68050066Y62732035D01*
X68050066Y62732035D02*
X67916733Y62665368D01*
X67916733Y62665368D02*
X67850066Y62598702D01*
X67850066Y62598702D02*
X67783400Y62465368D01*
X67783400Y62465368D02*
X67716733Y62198702D01*
X67716733Y62198702D02*
X67650066Y62065368D01*
X67650066Y62065368D02*
X67583400Y61998702D01*
X67583400Y61998702D02*
X67450066Y61932035D01*
X67450066Y61932035D02*
X67316733Y61932035D01*
X67316733Y61932035D02*
X67183400Y61998702D01*
X67183400Y61998702D02*
X67116733Y62065368D01*
X67116733Y62065368D02*
X67050066Y62198702D01*
X67050066Y62198702D02*
X67050066Y62532035D01*
X67050066Y62532035D02*
X67116733Y62732035D01*
X68316733Y64132035D02*
X68383400Y64065368D01*
X68383400Y64065368D02*
X68450066Y63865368D01*
X68450066Y63865368D02*
X68450066Y63732035D01*
X68450066Y63732035D02*
X68383400Y63532035D01*
X68383400Y63532035D02*
X68250066Y63398701D01*
X68250066Y63398701D02*
X68116733Y63332035D01*
X68116733Y63332035D02*
X67850066Y63265368D01*
X67850066Y63265368D02*
X67650066Y63265368D01*
X67650066Y63265368D02*
X67383400Y63332035D01*
X67383400Y63332035D02*
X67250066Y63398701D01*
X67250066Y63398701D02*
X67116733Y63532035D01*
X67116733Y63532035D02*
X67050066Y63732035D01*
X67050066Y63732035D02*
X67050066Y63865368D01*
X67050066Y63865368D02*
X67116733Y64065368D01*
X67116733Y64065368D02*
X67183400Y64132035D01*
X68450066Y65398701D02*
X68450066Y64732035D01*
X68450066Y64732035D02*
X67050066Y64732035D01*
D11*
X17249685Y44732630D02*
X17178257Y44804058D01*
X17178257Y44804058D02*
X17106828Y44946915D01*
X17106828Y44946915D02*
X17106828Y45304058D01*
X17106828Y45304058D02*
X17178257Y45446915D01*
X17178257Y45446915D02*
X17249685Y45518344D01*
X17249685Y45518344D02*
X17392542Y45589773D01*
X17392542Y45589773D02*
X17535400Y45589773D01*
X17535400Y45589773D02*
X17749685Y45518344D01*
X17749685Y45518344D02*
X18606828Y44661201D01*
X18606828Y44661201D02*
X18606828Y45589773D01*
D10*
X73590400Y61932035D02*
X73657066Y62132035D01*
X73657066Y62132035D02*
X73657066Y62465368D01*
X73657066Y62465368D02*
X73590400Y62598702D01*
X73590400Y62598702D02*
X73523733Y62665368D01*
X73523733Y62665368D02*
X73390400Y62732035D01*
X73390400Y62732035D02*
X73257066Y62732035D01*
X73257066Y62732035D02*
X73123733Y62665368D01*
X73123733Y62665368D02*
X73057066Y62598702D01*
X73057066Y62598702D02*
X72990400Y62465368D01*
X72990400Y62465368D02*
X72923733Y62198702D01*
X72923733Y62198702D02*
X72857066Y62065368D01*
X72857066Y62065368D02*
X72790400Y61998702D01*
X72790400Y61998702D02*
X72657066Y61932035D01*
X72657066Y61932035D02*
X72523733Y61932035D01*
X72523733Y61932035D02*
X72390400Y61998702D01*
X72390400Y61998702D02*
X72323733Y62065368D01*
X72323733Y62065368D02*
X72257066Y62198702D01*
X72257066Y62198702D02*
X72257066Y62532035D01*
X72257066Y62532035D02*
X72323733Y62732035D01*
X73657066Y63332035D02*
X72257066Y63332035D01*
X72257066Y63332035D02*
X72257066Y63665368D01*
X72257066Y63665368D02*
X72323733Y63865368D01*
X72323733Y63865368D02*
X72457066Y63998701D01*
X72457066Y63998701D02*
X72590400Y64065368D01*
X72590400Y64065368D02*
X72857066Y64132035D01*
X72857066Y64132035D02*
X73057066Y64132035D01*
X73057066Y64132035D02*
X73323733Y64065368D01*
X73323733Y64065368D02*
X73457066Y63998701D01*
X73457066Y63998701D02*
X73590400Y63865368D01*
X73590400Y63865368D02*
X73657066Y63665368D01*
X73657066Y63665368D02*
X73657066Y63332035D01*
X73257066Y64665368D02*
X73257066Y65332035D01*
X73657066Y64532035D02*
X72257066Y64998701D01*
X72257066Y64998701D02*
X73657066Y65465368D01*
D11*
X18530628Y26336573D02*
X18530628Y25479430D01*
X18530628Y25908001D02*
X17030628Y25908001D01*
X17030628Y25908001D02*
X17244914Y25765144D01*
X17244914Y25765144D02*
X17387771Y25622287D01*
X17387771Y25622287D02*
X17459200Y25479430D01*
D10*
X41954427Y16085672D02*
X41954427Y17585672D01*
X41954427Y17585672D02*
X42525856Y17585672D01*
X42525856Y17585672D02*
X42668713Y17514243D01*
X42668713Y17514243D02*
X42740142Y17442815D01*
X42740142Y17442815D02*
X42811570Y17299958D01*
X42811570Y17299958D02*
X42811570Y17085672D01*
X42811570Y17085672D02*
X42740142Y16942815D01*
X42740142Y16942815D02*
X42668713Y16871386D01*
X42668713Y16871386D02*
X42525856Y16799958D01*
X42525856Y16799958D02*
X41954427Y16799958D01*
X43740142Y17585672D02*
X44025856Y17585672D01*
X44025856Y17585672D02*
X44168713Y17514243D01*
X44168713Y17514243D02*
X44311570Y17371386D01*
X44311570Y17371386D02*
X44382999Y17085672D01*
X44382999Y17085672D02*
X44382999Y16585672D01*
X44382999Y16585672D02*
X44311570Y16299958D01*
X44311570Y16299958D02*
X44168713Y16157100D01*
X44168713Y16157100D02*
X44025856Y16085672D01*
X44025856Y16085672D02*
X43740142Y16085672D01*
X43740142Y16085672D02*
X43597285Y16157100D01*
X43597285Y16157100D02*
X43454427Y16299958D01*
X43454427Y16299958D02*
X43382999Y16585672D01*
X43382999Y16585672D02*
X43382999Y17085672D01*
X43382999Y17085672D02*
X43454427Y17371386D01*
X43454427Y17371386D02*
X43597285Y17514243D01*
X43597285Y17514243D02*
X43740142Y17585672D01*
X44882999Y17585672D02*
X45240142Y16085672D01*
X45240142Y16085672D02*
X45525856Y17157100D01*
X45525856Y17157100D02*
X45811571Y16085672D01*
X45811571Y16085672D02*
X46168714Y17585672D01*
X46740142Y16871386D02*
X47240142Y16871386D01*
X47454428Y16085672D02*
X46740142Y16085672D01*
X46740142Y16085672D02*
X46740142Y17585672D01*
X46740142Y17585672D02*
X47454428Y17585672D01*
X48954428Y16085672D02*
X48454428Y16799958D01*
X48097285Y16085672D02*
X48097285Y17585672D01*
X48097285Y17585672D02*
X48668714Y17585672D01*
X48668714Y17585672D02*
X48811571Y17514243D01*
X48811571Y17514243D02*
X48883000Y17442815D01*
X48883000Y17442815D02*
X48954428Y17299958D01*
X48954428Y17299958D02*
X48954428Y17085672D01*
X48954428Y17085672D02*
X48883000Y16942815D01*
X48883000Y16942815D02*
X48811571Y16871386D01*
X48811571Y16871386D02*
X48668714Y16799958D01*
X48668714Y16799958D02*
X48097285Y16799958D01*
X51025857Y17585672D02*
X51311571Y17585672D01*
X51311571Y17585672D02*
X51454428Y17514243D01*
X51454428Y17514243D02*
X51597285Y17371386D01*
X51597285Y17371386D02*
X51668714Y17085672D01*
X51668714Y17085672D02*
X51668714Y16585672D01*
X51668714Y16585672D02*
X51597285Y16299958D01*
X51597285Y16299958D02*
X51454428Y16157100D01*
X51454428Y16157100D02*
X51311571Y16085672D01*
X51311571Y16085672D02*
X51025857Y16085672D01*
X51025857Y16085672D02*
X50883000Y16157100D01*
X50883000Y16157100D02*
X50740142Y16299958D01*
X50740142Y16299958D02*
X50668714Y16585672D01*
X50668714Y16585672D02*
X50668714Y17085672D01*
X50668714Y17085672D02*
X50740142Y17371386D01*
X50740142Y17371386D02*
X50883000Y17514243D01*
X50883000Y17514243D02*
X51025857Y17585672D01*
X52311571Y17585672D02*
X52311571Y16371386D01*
X52311571Y16371386D02*
X52383000Y16228529D01*
X52383000Y16228529D02*
X52454429Y16157100D01*
X52454429Y16157100D02*
X52597286Y16085672D01*
X52597286Y16085672D02*
X52883000Y16085672D01*
X52883000Y16085672D02*
X53025857Y16157100D01*
X53025857Y16157100D02*
X53097286Y16228529D01*
X53097286Y16228529D02*
X53168714Y16371386D01*
X53168714Y16371386D02*
X53168714Y17585672D01*
X53668715Y17585672D02*
X54525858Y17585672D01*
X54097286Y16085672D02*
X54097286Y17585672D01*
X30099071Y12946100D02*
X31241929Y12946100D01*
X30670500Y12374672D02*
X30670500Y13517529D01*
X8854642Y19740672D02*
X8854642Y21240672D01*
X8997500Y20312100D02*
X9426071Y19740672D01*
X9426071Y20740672D02*
X8854642Y20169243D01*
X10711786Y19740672D02*
X10711786Y20526386D01*
X10711786Y20526386D02*
X10640357Y20669243D01*
X10640357Y20669243D02*
X10497500Y20740672D01*
X10497500Y20740672D02*
X10211786Y20740672D01*
X10211786Y20740672D02*
X10068928Y20669243D01*
X10711786Y19812100D02*
X10568928Y19740672D01*
X10568928Y19740672D02*
X10211786Y19740672D01*
X10211786Y19740672D02*
X10068928Y19812100D01*
X10068928Y19812100D02*
X9997500Y19954958D01*
X9997500Y19954958D02*
X9997500Y20097815D01*
X9997500Y20097815D02*
X10068928Y20240672D01*
X10068928Y20240672D02*
X10211786Y20312100D01*
X10211786Y20312100D02*
X10568928Y20312100D01*
X10568928Y20312100D02*
X10711786Y20383529D01*
X11426071Y19740672D02*
X11426071Y21240672D01*
X11568929Y20312100D02*
X11997500Y19740672D01*
X11997500Y20740672D02*
X11426071Y20169243D01*
X12854643Y19740672D02*
X12711786Y19812100D01*
X12711786Y19812100D02*
X12640357Y19954958D01*
X12640357Y19954958D02*
X12640357Y21240672D01*
X13426071Y19740672D02*
X13426071Y20740672D01*
X13426071Y21240672D02*
X13354643Y21169243D01*
X13354643Y21169243D02*
X13426071Y21097815D01*
X13426071Y21097815D02*
X13497500Y21169243D01*
X13497500Y21169243D02*
X13426071Y21240672D01*
X13426071Y21240672D02*
X13426071Y21097815D01*
X14140357Y19740672D02*
X14140357Y21240672D01*
X14283215Y20312100D02*
X14711786Y19740672D01*
X14711786Y20740672D02*
X14140357Y20169243D01*
X17670928Y55940914D02*
X16170928Y55940914D01*
X16170928Y55940914D02*
X16170928Y56512343D01*
X16170928Y56512343D02*
X16242357Y56655200D01*
X16242357Y56655200D02*
X16313785Y56726629D01*
X16313785Y56726629D02*
X16456642Y56798057D01*
X16456642Y56798057D02*
X16670928Y56798057D01*
X16670928Y56798057D02*
X16813785Y56726629D01*
X16813785Y56726629D02*
X16885214Y56655200D01*
X16885214Y56655200D02*
X16956642Y56512343D01*
X16956642Y56512343D02*
X16956642Y55940914D01*
X16170928Y57298057D02*
X17670928Y57655200D01*
X17670928Y57655200D02*
X16599500Y57940914D01*
X16599500Y57940914D02*
X17670928Y58226629D01*
X17670928Y58226629D02*
X16170928Y58583771D01*
X17670928Y60012343D02*
X16956642Y59512343D01*
X17670928Y59155200D02*
X16170928Y59155200D01*
X16170928Y59155200D02*
X16170928Y59726629D01*
X16170928Y59726629D02*
X16242357Y59869486D01*
X16242357Y59869486D02*
X16313785Y59940915D01*
X16313785Y59940915D02*
X16456642Y60012343D01*
X16456642Y60012343D02*
X16670928Y60012343D01*
X16670928Y60012343D02*
X16813785Y59940915D01*
X16813785Y59940915D02*
X16885214Y59869486D01*
X16885214Y59869486D02*
X16956642Y59726629D01*
X16956642Y59726629D02*
X16956642Y59155200D01*
X16170928Y62083772D02*
X16170928Y62369486D01*
X16170928Y62369486D02*
X16242357Y62512343D01*
X16242357Y62512343D02*
X16385214Y62655200D01*
X16385214Y62655200D02*
X16670928Y62726629D01*
X16670928Y62726629D02*
X17170928Y62726629D01*
X17170928Y62726629D02*
X17456642Y62655200D01*
X17456642Y62655200D02*
X17599500Y62512343D01*
X17599500Y62512343D02*
X17670928Y62369486D01*
X17670928Y62369486D02*
X17670928Y62083772D01*
X17670928Y62083772D02*
X17599500Y61940914D01*
X17599500Y61940914D02*
X17456642Y61798057D01*
X17456642Y61798057D02*
X17170928Y61726629D01*
X17170928Y61726629D02*
X16670928Y61726629D01*
X16670928Y61726629D02*
X16385214Y61798057D01*
X16385214Y61798057D02*
X16242357Y61940914D01*
X16242357Y61940914D02*
X16170928Y62083772D01*
X16170928Y63369486D02*
X17385214Y63369486D01*
X17385214Y63369486D02*
X17528071Y63440915D01*
X17528071Y63440915D02*
X17599500Y63512343D01*
X17599500Y63512343D02*
X17670928Y63655201D01*
X17670928Y63655201D02*
X17670928Y63940915D01*
X17670928Y63940915D02*
X17599500Y64083772D01*
X17599500Y64083772D02*
X17528071Y64155201D01*
X17528071Y64155201D02*
X17385214Y64226629D01*
X17385214Y64226629D02*
X16170928Y64226629D01*
X16170928Y64726630D02*
X16170928Y65583772D01*
X17670928Y65155201D02*
X16170928Y65155201D01*
X33561999Y7054600D02*
X33761999Y6987934D01*
X33761999Y6987934D02*
X34095333Y6987934D01*
X34095333Y6987934D02*
X34228666Y7054600D01*
X34228666Y7054600D02*
X34295333Y7121267D01*
X34295333Y7121267D02*
X34361999Y7254600D01*
X34361999Y7254600D02*
X34361999Y7387934D01*
X34361999Y7387934D02*
X34295333Y7521267D01*
X34295333Y7521267D02*
X34228666Y7587934D01*
X34228666Y7587934D02*
X34095333Y7654600D01*
X34095333Y7654600D02*
X33828666Y7721267D01*
X33828666Y7721267D02*
X33695333Y7787934D01*
X33695333Y7787934D02*
X33628666Y7854600D01*
X33628666Y7854600D02*
X33561999Y7987934D01*
X33561999Y7987934D02*
X33561999Y8121267D01*
X33561999Y8121267D02*
X33628666Y8254600D01*
X33628666Y8254600D02*
X33695333Y8321267D01*
X33695333Y8321267D02*
X33828666Y8387934D01*
X33828666Y8387934D02*
X34161999Y8387934D01*
X34161999Y8387934D02*
X34361999Y8321267D01*
X34828666Y8387934D02*
X35161999Y6987934D01*
X35161999Y6987934D02*
X35428666Y7987934D01*
X35428666Y7987934D02*
X35695332Y6987934D01*
X35695332Y6987934D02*
X36028666Y8387934D01*
X37628666Y6987934D02*
X37628666Y8387934D01*
X37628666Y8387934D02*
X38161999Y8387934D01*
X38161999Y8387934D02*
X38295333Y8321267D01*
X38295333Y8321267D02*
X38361999Y8254600D01*
X38361999Y8254600D02*
X38428666Y8121267D01*
X38428666Y8121267D02*
X38428666Y7921267D01*
X38428666Y7921267D02*
X38361999Y7787934D01*
X38361999Y7787934D02*
X38295333Y7721267D01*
X38295333Y7721267D02*
X38161999Y7654600D01*
X38161999Y7654600D02*
X37628666Y7654600D01*
X39295333Y8387934D02*
X39561999Y8387934D01*
X39561999Y8387934D02*
X39695333Y8321267D01*
X39695333Y8321267D02*
X39828666Y8187934D01*
X39828666Y8187934D02*
X39895333Y7921267D01*
X39895333Y7921267D02*
X39895333Y7454600D01*
X39895333Y7454600D02*
X39828666Y7187934D01*
X39828666Y7187934D02*
X39695333Y7054600D01*
X39695333Y7054600D02*
X39561999Y6987934D01*
X39561999Y6987934D02*
X39295333Y6987934D01*
X39295333Y6987934D02*
X39161999Y7054600D01*
X39161999Y7054600D02*
X39028666Y7187934D01*
X39028666Y7187934D02*
X38961999Y7454600D01*
X38961999Y7454600D02*
X38961999Y7921267D01*
X38961999Y7921267D02*
X39028666Y8187934D01*
X39028666Y8187934D02*
X39161999Y8321267D01*
X39161999Y8321267D02*
X39295333Y8387934D01*
X40362000Y8387934D02*
X40695333Y6987934D01*
X40695333Y6987934D02*
X40962000Y7987934D01*
X40962000Y7987934D02*
X41228666Y6987934D01*
X41228666Y6987934D02*
X41562000Y8387934D01*
X42095333Y7721267D02*
X42562000Y7721267D01*
X42762000Y6987934D02*
X42095333Y6987934D01*
X42095333Y6987934D02*
X42095333Y8387934D01*
X42095333Y8387934D02*
X42762000Y8387934D01*
X44162000Y6987934D02*
X43695333Y7654600D01*
X43362000Y6987934D02*
X43362000Y8387934D01*
X43362000Y8387934D02*
X43895333Y8387934D01*
X43895333Y8387934D02*
X44028667Y8321267D01*
X44028667Y8321267D02*
X44095333Y8254600D01*
X44095333Y8254600D02*
X44162000Y8121267D01*
X44162000Y8121267D02*
X44162000Y7921267D01*
X44162000Y7921267D02*
X44095333Y7787934D01*
X44095333Y7787934D02*
X44028667Y7721267D01*
X44028667Y7721267D02*
X43895333Y7654600D01*
X43895333Y7654600D02*
X43362000Y7654600D01*
X74800233Y62577035D02*
X74733566Y62443702D01*
X74733566Y62443702D02*
X74733566Y62243702D01*
X74733566Y62243702D02*
X74800233Y62043702D01*
X74800233Y62043702D02*
X74933566Y61910368D01*
X74933566Y61910368D02*
X75066900Y61843702D01*
X75066900Y61843702D02*
X75333566Y61777035D01*
X75333566Y61777035D02*
X75533566Y61777035D01*
X75533566Y61777035D02*
X75800233Y61843702D01*
X75800233Y61843702D02*
X75933566Y61910368D01*
X75933566Y61910368D02*
X76066900Y62043702D01*
X76066900Y62043702D02*
X76133566Y62243702D01*
X76133566Y62243702D02*
X76133566Y62377035D01*
X76133566Y62377035D02*
X76066900Y62577035D01*
X76066900Y62577035D02*
X76000233Y62643702D01*
X76000233Y62643702D02*
X75533566Y62643702D01*
X75533566Y62643702D02*
X75533566Y62377035D01*
X76133566Y63243702D02*
X74733566Y63243702D01*
X74733566Y63243702D02*
X76133566Y64043702D01*
X76133566Y64043702D02*
X74733566Y64043702D01*
X76133566Y64710369D02*
X74733566Y64710369D01*
X74733566Y64710369D02*
X74733566Y65043702D01*
X74733566Y65043702D02*
X74800233Y65243702D01*
X74800233Y65243702D02*
X74933566Y65377035D01*
X74933566Y65377035D02*
X75066900Y65443702D01*
X75066900Y65443702D02*
X75333566Y65510369D01*
X75333566Y65510369D02*
X75533566Y65510369D01*
X75533566Y65510369D02*
X75800233Y65443702D01*
X75800233Y65443702D02*
X75933566Y65377035D01*
X75933566Y65377035D02*
X76066900Y65243702D01*
X76066900Y65243702D02*
X76133566Y65043702D01*
X76133566Y65043702D02*
X76133566Y64710369D01*
X9176072Y18811815D02*
X9247500Y18883243D01*
X9247500Y18883243D02*
X9390358Y18954672D01*
X9390358Y18954672D02*
X9747500Y18954672D01*
X9747500Y18954672D02*
X9890358Y18883243D01*
X9890358Y18883243D02*
X9961786Y18811815D01*
X9961786Y18811815D02*
X10033215Y18668958D01*
X10033215Y18668958D02*
X10033215Y18526100D01*
X10033215Y18526100D02*
X9961786Y18311815D01*
X9961786Y18311815D02*
X9104643Y17454672D01*
X9104643Y17454672D02*
X10033215Y17454672D01*
X10961786Y18954672D02*
X11104643Y18954672D01*
X11104643Y18954672D02*
X11247500Y18883243D01*
X11247500Y18883243D02*
X11318929Y18811815D01*
X11318929Y18811815D02*
X11390357Y18668958D01*
X11390357Y18668958D02*
X11461786Y18383243D01*
X11461786Y18383243D02*
X11461786Y18026100D01*
X11461786Y18026100D02*
X11390357Y17740386D01*
X11390357Y17740386D02*
X11318929Y17597529D01*
X11318929Y17597529D02*
X11247500Y17526100D01*
X11247500Y17526100D02*
X11104643Y17454672D01*
X11104643Y17454672D02*
X10961786Y17454672D01*
X10961786Y17454672D02*
X10818929Y17526100D01*
X10818929Y17526100D02*
X10747500Y17597529D01*
X10747500Y17597529D02*
X10676071Y17740386D01*
X10676071Y17740386D02*
X10604643Y18026100D01*
X10604643Y18026100D02*
X10604643Y18383243D01*
X10604643Y18383243D02*
X10676071Y18668958D01*
X10676071Y18668958D02*
X10747500Y18811815D01*
X10747500Y18811815D02*
X10818929Y18883243D01*
X10818929Y18883243D02*
X10961786Y18954672D01*
X12033214Y18811815D02*
X12104642Y18883243D01*
X12104642Y18883243D02*
X12247500Y18954672D01*
X12247500Y18954672D02*
X12604642Y18954672D01*
X12604642Y18954672D02*
X12747500Y18883243D01*
X12747500Y18883243D02*
X12818928Y18811815D01*
X12818928Y18811815D02*
X12890357Y18668958D01*
X12890357Y18668958D02*
X12890357Y18526100D01*
X12890357Y18526100D02*
X12818928Y18311815D01*
X12818928Y18311815D02*
X11961785Y17454672D01*
X11961785Y17454672D02*
X12890357Y17454672D01*
X14176071Y18454672D02*
X14176071Y17454672D01*
X13818928Y19026100D02*
X13461785Y17954672D01*
X13461785Y17954672D02*
X14390356Y17954672D01*
X17427427Y16212672D02*
X17427427Y17712672D01*
X17427427Y17712672D02*
X17998856Y17712672D01*
X17998856Y17712672D02*
X18141713Y17641243D01*
X18141713Y17641243D02*
X18213142Y17569815D01*
X18213142Y17569815D02*
X18284570Y17426958D01*
X18284570Y17426958D02*
X18284570Y17212672D01*
X18284570Y17212672D02*
X18213142Y17069815D01*
X18213142Y17069815D02*
X18141713Y16998386D01*
X18141713Y16998386D02*
X17998856Y16926958D01*
X17998856Y16926958D02*
X17427427Y16926958D01*
X19213142Y17712672D02*
X19498856Y17712672D01*
X19498856Y17712672D02*
X19641713Y17641243D01*
X19641713Y17641243D02*
X19784570Y17498386D01*
X19784570Y17498386D02*
X19855999Y17212672D01*
X19855999Y17212672D02*
X19855999Y16712672D01*
X19855999Y16712672D02*
X19784570Y16426958D01*
X19784570Y16426958D02*
X19641713Y16284100D01*
X19641713Y16284100D02*
X19498856Y16212672D01*
X19498856Y16212672D02*
X19213142Y16212672D01*
X19213142Y16212672D02*
X19070285Y16284100D01*
X19070285Y16284100D02*
X18927427Y16426958D01*
X18927427Y16426958D02*
X18855999Y16712672D01*
X18855999Y16712672D02*
X18855999Y17212672D01*
X18855999Y17212672D02*
X18927427Y17498386D01*
X18927427Y17498386D02*
X19070285Y17641243D01*
X19070285Y17641243D02*
X19213142Y17712672D01*
X20355999Y17712672D02*
X20713142Y16212672D01*
X20713142Y16212672D02*
X20998856Y17284100D01*
X20998856Y17284100D02*
X21284571Y16212672D01*
X21284571Y16212672D02*
X21641714Y17712672D01*
X22213142Y16998386D02*
X22713142Y16998386D01*
X22927428Y16212672D02*
X22213142Y16212672D01*
X22213142Y16212672D02*
X22213142Y17712672D01*
X22213142Y17712672D02*
X22927428Y17712672D01*
X24427428Y16212672D02*
X23927428Y16926958D01*
X23570285Y16212672D02*
X23570285Y17712672D01*
X23570285Y17712672D02*
X24141714Y17712672D01*
X24141714Y17712672D02*
X24284571Y17641243D01*
X24284571Y17641243D02*
X24356000Y17569815D01*
X24356000Y17569815D02*
X24427428Y17426958D01*
X24427428Y17426958D02*
X24427428Y17212672D01*
X24427428Y17212672D02*
X24356000Y17069815D01*
X24356000Y17069815D02*
X24284571Y16998386D01*
X24284571Y16998386D02*
X24141714Y16926958D01*
X24141714Y16926958D02*
X23570285Y16926958D01*
X26213142Y16212672D02*
X26213142Y17712672D01*
X26927428Y16212672D02*
X26927428Y17712672D01*
X26927428Y17712672D02*
X27784571Y16212672D01*
X27784571Y16212672D02*
X27784571Y17712672D01*
X40180309Y37035362D02*
X40180309Y39035362D01*
X40180309Y39035362D02*
X40846976Y37606791D01*
X40846976Y37606791D02*
X41513642Y39035362D01*
X41513642Y39035362D02*
X41513642Y37035362D01*
X43418404Y37035362D02*
X42466023Y37035362D01*
X42466023Y37035362D02*
X42466023Y39035362D01*
X43989833Y37606791D02*
X44942214Y37606791D01*
X43799357Y37035362D02*
X44466023Y39035362D01*
X44466023Y39035362D02*
X45132690Y37035362D01*
X46466024Y38082981D02*
X46751738Y37987743D01*
X46751738Y37987743D02*
X46846976Y37892505D01*
X46846976Y37892505D02*
X46942214Y37702029D01*
X46942214Y37702029D02*
X46942214Y37416315D01*
X46942214Y37416315D02*
X46846976Y37225839D01*
X46846976Y37225839D02*
X46751738Y37130600D01*
X46751738Y37130600D02*
X46561262Y37035362D01*
X46561262Y37035362D02*
X45799357Y37035362D01*
X45799357Y37035362D02*
X45799357Y39035362D01*
X45799357Y39035362D02*
X46466024Y39035362D01*
X46466024Y39035362D02*
X46656500Y38940124D01*
X46656500Y38940124D02*
X46751738Y38844886D01*
X46751738Y38844886D02*
X46846976Y38654410D01*
X46846976Y38654410D02*
X46846976Y38463934D01*
X46846976Y38463934D02*
X46751738Y38273458D01*
X46751738Y38273458D02*
X46656500Y38178220D01*
X46656500Y38178220D02*
X46466024Y38082981D01*
X46466024Y38082981D02*
X45799357Y38082981D01*
X47799357Y37225839D02*
X47894595Y37130600D01*
X47894595Y37130600D02*
X47799357Y37035362D01*
X47799357Y37035362D02*
X47704119Y37130600D01*
X47704119Y37130600D02*
X47799357Y37225839D01*
X47799357Y37225839D02*
X47799357Y37035362D01*
X49608881Y37130600D02*
X49418405Y37035362D01*
X49418405Y37035362D02*
X49037452Y37035362D01*
X49037452Y37035362D02*
X48846976Y37130600D01*
X48846976Y37130600D02*
X48751738Y37225839D01*
X48751738Y37225839D02*
X48656500Y37416315D01*
X48656500Y37416315D02*
X48656500Y37987743D01*
X48656500Y37987743D02*
X48751738Y38178220D01*
X48751738Y38178220D02*
X48846976Y38273458D01*
X48846976Y38273458D02*
X49037452Y38368696D01*
X49037452Y38368696D02*
X49418405Y38368696D01*
X49418405Y38368696D02*
X49608881Y38273458D01*
X50275548Y38368696D02*
X51323167Y38368696D01*
X51323167Y38368696D02*
X50275548Y37035362D01*
X50275548Y37035362D02*
X51323167Y37035362D01*
X36466023Y32844362D02*
X35513642Y32844362D01*
X35513642Y32844362D02*
X35513642Y34844362D01*
X37132690Y32844362D02*
X37132690Y34844362D01*
X38466023Y34844362D02*
X38846976Y34844362D01*
X38846976Y34844362D02*
X39037452Y34749124D01*
X39037452Y34749124D02*
X39227928Y34558648D01*
X39227928Y34558648D02*
X39323166Y34177696D01*
X39323166Y34177696D02*
X39323166Y33511029D01*
X39323166Y33511029D02*
X39227928Y33130077D01*
X39227928Y33130077D02*
X39037452Y32939600D01*
X39037452Y32939600D02*
X38846976Y32844362D01*
X38846976Y32844362D02*
X38466023Y32844362D01*
X38466023Y32844362D02*
X38275547Y32939600D01*
X38275547Y32939600D02*
X38085071Y33130077D01*
X38085071Y33130077D02*
X37989833Y33511029D01*
X37989833Y33511029D02*
X37989833Y34177696D01*
X37989833Y34177696D02*
X38085071Y34558648D01*
X38085071Y34558648D02*
X38275547Y34749124D01*
X38275547Y34749124D02*
X38466023Y34844362D01*
X40180309Y32844362D02*
X40180309Y34844362D01*
X40180309Y34844362D02*
X41323166Y32844362D01*
X41323166Y32844362D02*
X41323166Y34844362D01*
X42180309Y34653886D02*
X42275547Y34749124D01*
X42275547Y34749124D02*
X42466023Y34844362D01*
X42466023Y34844362D02*
X42942214Y34844362D01*
X42942214Y34844362D02*
X43132690Y34749124D01*
X43132690Y34749124D02*
X43227928Y34653886D01*
X43227928Y34653886D02*
X43323166Y34463410D01*
X43323166Y34463410D02*
X43323166Y34272934D01*
X43323166Y34272934D02*
X43227928Y33987220D01*
X43227928Y33987220D02*
X42085071Y32844362D01*
X42085071Y32844362D02*
X43323166Y32844362D01*
X45323166Y33034839D02*
X45227928Y32939600D01*
X45227928Y32939600D02*
X44942214Y32844362D01*
X44942214Y32844362D02*
X44751738Y32844362D01*
X44751738Y32844362D02*
X44466023Y32939600D01*
X44466023Y32939600D02*
X44275547Y33130077D01*
X44275547Y33130077D02*
X44180309Y33320553D01*
X44180309Y33320553D02*
X44085071Y33701505D01*
X44085071Y33701505D02*
X44085071Y33987220D01*
X44085071Y33987220D02*
X44180309Y34368172D01*
X44180309Y34368172D02*
X44275547Y34558648D01*
X44275547Y34558648D02*
X44466023Y34749124D01*
X44466023Y34749124D02*
X44751738Y34844362D01*
X44751738Y34844362D02*
X44942214Y34844362D01*
X44942214Y34844362D02*
X45227928Y34749124D01*
X45227928Y34749124D02*
X45323166Y34653886D01*
X46180309Y33891981D02*
X46846976Y33891981D01*
X47132690Y32844362D02*
X46180309Y32844362D01*
X46180309Y32844362D02*
X46180309Y34844362D01*
X46180309Y34844362D02*
X47132690Y34844362D01*
X48942214Y32844362D02*
X47989833Y32844362D01*
X47989833Y32844362D02*
X47989833Y34844362D01*
X50561262Y32844362D02*
X49608881Y32844362D01*
X49608881Y32844362D02*
X49608881Y34844362D01*
X51608881Y34844362D02*
X51799358Y34844362D01*
X51799358Y34844362D02*
X51989834Y34749124D01*
X51989834Y34749124D02*
X52085072Y34653886D01*
X52085072Y34653886D02*
X52180310Y34463410D01*
X52180310Y34463410D02*
X52275548Y34082458D01*
X52275548Y34082458D02*
X52275548Y33606267D01*
X52275548Y33606267D02*
X52180310Y33225315D01*
X52180310Y33225315D02*
X52085072Y33034839D01*
X52085072Y33034839D02*
X51989834Y32939600D01*
X51989834Y32939600D02*
X51799358Y32844362D01*
X51799358Y32844362D02*
X51608881Y32844362D01*
X51608881Y32844362D02*
X51418405Y32939600D01*
X51418405Y32939600D02*
X51323167Y33034839D01*
X51323167Y33034839D02*
X51227929Y33225315D01*
X51227929Y33225315D02*
X51132691Y33606267D01*
X51132691Y33606267D02*
X51132691Y34082458D01*
X51132691Y34082458D02*
X51227929Y34463410D01*
X51227929Y34463410D02*
X51323167Y34653886D01*
X51323167Y34653886D02*
X51418405Y34749124D01*
X51418405Y34749124D02*
X51608881Y34844362D01*
X53037453Y34653886D02*
X53132691Y34749124D01*
X53132691Y34749124D02*
X53323167Y34844362D01*
X53323167Y34844362D02*
X53799358Y34844362D01*
X53799358Y34844362D02*
X53989834Y34749124D01*
X53989834Y34749124D02*
X54085072Y34653886D01*
X54085072Y34653886D02*
X54180310Y34463410D01*
X54180310Y34463410D02*
X54180310Y34272934D01*
X54180310Y34272934D02*
X54085072Y33987220D01*
X54085072Y33987220D02*
X52942215Y32844362D01*
X52942215Y32844362D02*
X54180310Y32844362D01*
X54942215Y33415791D02*
X55894596Y33415791D01*
X54751739Y32844362D02*
X55418405Y34844362D01*
X55418405Y34844362D02*
X56085072Y32844362D01*
X69590066Y61798702D02*
X70990066Y62265368D01*
X70990066Y62265368D02*
X69590066Y62732035D01*
X70923400Y63798702D02*
X70990066Y63665368D01*
X70990066Y63665368D02*
X70990066Y63398702D01*
X70990066Y63398702D02*
X70923400Y63265368D01*
X70923400Y63265368D02*
X70856733Y63198702D01*
X70856733Y63198702D02*
X70723400Y63132035D01*
X70723400Y63132035D02*
X70323400Y63132035D01*
X70323400Y63132035D02*
X70190066Y63198702D01*
X70190066Y63198702D02*
X70123400Y63265368D01*
X70123400Y63265368D02*
X70056733Y63398702D01*
X70056733Y63398702D02*
X70056733Y63665368D01*
X70056733Y63665368D02*
X70123400Y63798702D01*
X70923400Y64998702D02*
X70990066Y64865368D01*
X70990066Y64865368D02*
X70990066Y64598702D01*
X70990066Y64598702D02*
X70923400Y64465368D01*
X70923400Y64465368D02*
X70856733Y64398702D01*
X70856733Y64398702D02*
X70723400Y64332035D01*
X70723400Y64332035D02*
X70323400Y64332035D01*
X70323400Y64332035D02*
X70190066Y64398702D01*
X70190066Y64398702D02*
X70123400Y64465368D01*
X70123400Y64465368D02*
X70056733Y64598702D01*
X70056733Y64598702D02*
X70056733Y64865368D01*
X70056733Y64865368D02*
X70123400Y64998702D01*
X64703733Y62605035D02*
X64637066Y62471702D01*
X64637066Y62471702D02*
X64637066Y62271702D01*
X64637066Y62271702D02*
X64703733Y62071702D01*
X64703733Y62071702D02*
X64837066Y61938368D01*
X64837066Y61938368D02*
X64970400Y61871702D01*
X64970400Y61871702D02*
X65237066Y61805035D01*
X65237066Y61805035D02*
X65437066Y61805035D01*
X65437066Y61805035D02*
X65703733Y61871702D01*
X65703733Y61871702D02*
X65837066Y61938368D01*
X65837066Y61938368D02*
X65970400Y62071702D01*
X65970400Y62071702D02*
X66037066Y62271702D01*
X66037066Y62271702D02*
X66037066Y62405035D01*
X66037066Y62405035D02*
X65970400Y62605035D01*
X65970400Y62605035D02*
X65903733Y62671702D01*
X65903733Y62671702D02*
X65437066Y62671702D01*
X65437066Y62671702D02*
X65437066Y62405035D01*
X66037066Y63271702D02*
X64637066Y63271702D01*
X64637066Y63271702D02*
X66037066Y64071702D01*
X66037066Y64071702D02*
X64637066Y64071702D01*
X66037066Y64738369D02*
X64637066Y64738369D01*
X64637066Y64738369D02*
X64637066Y65071702D01*
X64637066Y65071702D02*
X64703733Y65271702D01*
X64703733Y65271702D02*
X64837066Y65405035D01*
X64837066Y65405035D02*
X64970400Y65471702D01*
X64970400Y65471702D02*
X65237066Y65538369D01*
X65237066Y65538369D02*
X65437066Y65538369D01*
X65437066Y65538369D02*
X65703733Y65471702D01*
X65703733Y65471702D02*
X65837066Y65405035D01*
X65837066Y65405035D02*
X65970400Y65271702D01*
X65970400Y65271702D02*
X66037066Y65071702D01*
X66037066Y65071702D02*
X66037066Y64738369D01*
X61572143Y14156672D02*
X61715000Y14156672D01*
X61715000Y14156672D02*
X61857857Y14085243D01*
X61857857Y14085243D02*
X61929286Y14013815D01*
X61929286Y14013815D02*
X62000714Y13870958D01*
X62000714Y13870958D02*
X62072143Y13585243D01*
X62072143Y13585243D02*
X62072143Y13228100D01*
X62072143Y13228100D02*
X62000714Y12942386D01*
X62000714Y12942386D02*
X61929286Y12799529D01*
X61929286Y12799529D02*
X61857857Y12728100D01*
X61857857Y12728100D02*
X61715000Y12656672D01*
X61715000Y12656672D02*
X61572143Y12656672D01*
X61572143Y12656672D02*
X61429286Y12728100D01*
X61429286Y12728100D02*
X61357857Y12799529D01*
X61357857Y12799529D02*
X61286428Y12942386D01*
X61286428Y12942386D02*
X61215000Y13228100D01*
X61215000Y13228100D02*
X61215000Y13585243D01*
X61215000Y13585243D02*
X61286428Y13870958D01*
X61286428Y13870958D02*
X61357857Y14013815D01*
X61357857Y14013815D02*
X61429286Y14085243D01*
X61429286Y14085243D02*
X61572143Y14156672D01*
X62643571Y12656672D02*
X63786428Y14156672D01*
X62857857Y14156672D02*
X63000714Y14085243D01*
X63000714Y14085243D02*
X63072142Y13942386D01*
X63072142Y13942386D02*
X63000714Y13799529D01*
X63000714Y13799529D02*
X62857857Y13728100D01*
X62857857Y13728100D02*
X62714999Y13799529D01*
X62714999Y13799529D02*
X62643571Y13942386D01*
X62643571Y13942386D02*
X62714999Y14085243D01*
X62714999Y14085243D02*
X62857857Y14156672D01*
X63714999Y12728100D02*
X63786428Y12870958D01*
X63786428Y12870958D02*
X63714999Y13013815D01*
X63714999Y13013815D02*
X63572142Y13085243D01*
X63572142Y13085243D02*
X63429285Y13013815D01*
X63429285Y13013815D02*
X63357857Y12870958D01*
X63357857Y12870958D02*
X63429285Y12728100D01*
X63429285Y12728100D02*
X63572142Y12656672D01*
X63572142Y12656672D02*
X63714999Y12728100D01*
X64429285Y13228100D02*
X65572143Y13228100D01*
X66286428Y13228100D02*
X67429286Y13228100D01*
X68143571Y13228100D02*
X69286429Y13228100D01*
X70000714Y13228100D02*
X71143572Y13228100D01*
X72643572Y12656672D02*
X71786429Y12656672D01*
X72215000Y12656672D02*
X72215000Y14156672D01*
X72215000Y14156672D02*
X72072143Y13942386D01*
X72072143Y13942386D02*
X71929286Y13799529D01*
X71929286Y13799529D02*
X71786429Y13728100D01*
X73572143Y14156672D02*
X73715000Y14156672D01*
X73715000Y14156672D02*
X73857857Y14085243D01*
X73857857Y14085243D02*
X73929286Y14013815D01*
X73929286Y14013815D02*
X74000714Y13870958D01*
X74000714Y13870958D02*
X74072143Y13585243D01*
X74072143Y13585243D02*
X74072143Y13228100D01*
X74072143Y13228100D02*
X74000714Y12942386D01*
X74000714Y12942386D02*
X73929286Y12799529D01*
X73929286Y12799529D02*
X73857857Y12728100D01*
X73857857Y12728100D02*
X73715000Y12656672D01*
X73715000Y12656672D02*
X73572143Y12656672D01*
X73572143Y12656672D02*
X73429286Y12728100D01*
X73429286Y12728100D02*
X73357857Y12799529D01*
X73357857Y12799529D02*
X73286428Y12942386D01*
X73286428Y12942386D02*
X73215000Y13228100D01*
X73215000Y13228100D02*
X73215000Y13585243D01*
X73215000Y13585243D02*
X73286428Y13870958D01*
X73286428Y13870958D02*
X73357857Y14013815D01*
X73357857Y14013815D02*
X73429286Y14085243D01*
X73429286Y14085243D02*
X73572143Y14156672D01*
X75000714Y14156672D02*
X75143571Y14156672D01*
X75143571Y14156672D02*
X75286428Y14085243D01*
X75286428Y14085243D02*
X75357857Y14013815D01*
X75357857Y14013815D02*
X75429285Y13870958D01*
X75429285Y13870958D02*
X75500714Y13585243D01*
X75500714Y13585243D02*
X75500714Y13228100D01*
X75500714Y13228100D02*
X75429285Y12942386D01*
X75429285Y12942386D02*
X75357857Y12799529D01*
X75357857Y12799529D02*
X75286428Y12728100D01*
X75286428Y12728100D02*
X75143571Y12656672D01*
X75143571Y12656672D02*
X75000714Y12656672D01*
X75000714Y12656672D02*
X74857857Y12728100D01*
X74857857Y12728100D02*
X74786428Y12799529D01*
X74786428Y12799529D02*
X74714999Y12942386D01*
X74714999Y12942386D02*
X74643571Y13228100D01*
X74643571Y13228100D02*
X74643571Y13585243D01*
X74643571Y13585243D02*
X74714999Y13870958D01*
X74714999Y13870958D02*
X74786428Y14013815D01*
X74786428Y14013815D02*
X74857857Y14085243D01*
X74857857Y14085243D02*
X75000714Y14156672D01*
X76072142Y12656672D02*
X77214999Y14156672D01*
X76286428Y14156672D02*
X76429285Y14085243D01*
X76429285Y14085243D02*
X76500713Y13942386D01*
X76500713Y13942386D02*
X76429285Y13799529D01*
X76429285Y13799529D02*
X76286428Y13728100D01*
X76286428Y13728100D02*
X76143570Y13799529D01*
X76143570Y13799529D02*
X76072142Y13942386D01*
X76072142Y13942386D02*
X76143570Y14085243D01*
X76143570Y14085243D02*
X76286428Y14156672D01*
X77143570Y12728100D02*
X77214999Y12870958D01*
X77214999Y12870958D02*
X77143570Y13013815D01*
X77143570Y13013815D02*
X77000713Y13085243D01*
X77000713Y13085243D02*
X76857856Y13013815D01*
X76857856Y13013815D02*
X76786428Y12870958D01*
X76786428Y12870958D02*
X76857856Y12728100D01*
X76857856Y12728100D02*
X77000713Y12656672D01*
X77000713Y12656672D02*
X77143570Y12728100D01*
D12*
X34237681Y57734200D02*
X35326252Y57734200D01*
X35326252Y57734200D02*
X35543967Y57661629D01*
X35543967Y57661629D02*
X35689110Y57516486D01*
X35689110Y57516486D02*
X35761681Y57298772D01*
X35761681Y57298772D02*
X35761681Y57153629D01*
X34382824Y58387343D02*
X34310252Y58459915D01*
X34310252Y58459915D02*
X34237681Y58605057D01*
X34237681Y58605057D02*
X34237681Y58967915D01*
X34237681Y58967915D02*
X34310252Y59113057D01*
X34310252Y59113057D02*
X34382824Y59185629D01*
X34382824Y59185629D02*
X34527967Y59258200D01*
X34527967Y59258200D02*
X34673110Y59258200D01*
X34673110Y59258200D02*
X34890824Y59185629D01*
X34890824Y59185629D02*
X35761681Y58314772D01*
X35761681Y58314772D02*
X35761681Y59258200D01*
X34237681Y62738000D02*
X35326252Y62738000D01*
X35326252Y62738000D02*
X35543967Y62665429D01*
X35543967Y62665429D02*
X35689110Y62520286D01*
X35689110Y62520286D02*
X35761681Y62302572D01*
X35761681Y62302572D02*
X35761681Y62157429D01*
X34237681Y63318572D02*
X34237681Y64262000D01*
X34237681Y64262000D02*
X34818252Y63754000D01*
X34818252Y63754000D02*
X34818252Y63971715D01*
X34818252Y63971715D02*
X34890824Y64116857D01*
X34890824Y64116857D02*
X34963395Y64189429D01*
X34963395Y64189429D02*
X35108538Y64262000D01*
X35108538Y64262000D02*
X35471395Y64262000D01*
X35471395Y64262000D02*
X35616538Y64189429D01*
X35616538Y64189429D02*
X35689110Y64116857D01*
X35689110Y64116857D02*
X35761681Y63971715D01*
X35761681Y63971715D02*
X35761681Y63536286D01*
X35761681Y63536286D02*
X35689110Y63391143D01*
X35689110Y63391143D02*
X35616538Y63318572D01*
X15738681Y7465000D02*
X16827252Y7465000D01*
X16827252Y7465000D02*
X17044967Y7392429D01*
X17044967Y7392429D02*
X17190110Y7247286D01*
X17190110Y7247286D02*
X17262681Y7029572D01*
X17262681Y7029572D02*
X17262681Y6884429D01*
X17262681Y8263286D02*
X17262681Y8553572D01*
X17262681Y8553572D02*
X17190110Y8698715D01*
X17190110Y8698715D02*
X17117538Y8771286D01*
X17117538Y8771286D02*
X16899824Y8916429D01*
X16899824Y8916429D02*
X16609538Y8989000D01*
X16609538Y8989000D02*
X16028967Y8989000D01*
X16028967Y8989000D02*
X15883824Y8916429D01*
X15883824Y8916429D02*
X15811252Y8843857D01*
X15811252Y8843857D02*
X15738681Y8698715D01*
X15738681Y8698715D02*
X15738681Y8408429D01*
X15738681Y8408429D02*
X15811252Y8263286D01*
X15811252Y8263286D02*
X15883824Y8190715D01*
X15883824Y8190715D02*
X16028967Y8118143D01*
X16028967Y8118143D02*
X16391824Y8118143D01*
X16391824Y8118143D02*
X16536967Y8190715D01*
X16536967Y8190715D02*
X16609538Y8263286D01*
X16609538Y8263286D02*
X16682110Y8408429D01*
X16682110Y8408429D02*
X16682110Y8698715D01*
X16682110Y8698715D02*
X16609538Y8843857D01*
X16609538Y8843857D02*
X16536967Y8916429D01*
X16536967Y8916429D02*
X16391824Y8989000D01*
X15738681Y12418000D02*
X16827252Y12418000D01*
X16827252Y12418000D02*
X17044967Y12345429D01*
X17044967Y12345429D02*
X17190110Y12200286D01*
X17190110Y12200286D02*
X17262681Y11982572D01*
X17262681Y11982572D02*
X17262681Y11837429D01*
X16391824Y13361429D02*
X16319252Y13216286D01*
X16319252Y13216286D02*
X16246681Y13143715D01*
X16246681Y13143715D02*
X16101538Y13071143D01*
X16101538Y13071143D02*
X16028967Y13071143D01*
X16028967Y13071143D02*
X15883824Y13143715D01*
X15883824Y13143715D02*
X15811252Y13216286D01*
X15811252Y13216286D02*
X15738681Y13361429D01*
X15738681Y13361429D02*
X15738681Y13651715D01*
X15738681Y13651715D02*
X15811252Y13796857D01*
X15811252Y13796857D02*
X15883824Y13869429D01*
X15883824Y13869429D02*
X16028967Y13942000D01*
X16028967Y13942000D02*
X16101538Y13942000D01*
X16101538Y13942000D02*
X16246681Y13869429D01*
X16246681Y13869429D02*
X16319252Y13796857D01*
X16319252Y13796857D02*
X16391824Y13651715D01*
X16391824Y13651715D02*
X16391824Y13361429D01*
X16391824Y13361429D02*
X16464395Y13216286D01*
X16464395Y13216286D02*
X16536967Y13143715D01*
X16536967Y13143715D02*
X16682110Y13071143D01*
X16682110Y13071143D02*
X16972395Y13071143D01*
X16972395Y13071143D02*
X17117538Y13143715D01*
X17117538Y13143715D02*
X17190110Y13216286D01*
X17190110Y13216286D02*
X17262681Y13361429D01*
X17262681Y13361429D02*
X17262681Y13651715D01*
X17262681Y13651715D02*
X17190110Y13796857D01*
X17190110Y13796857D02*
X17117538Y13869429D01*
X17117538Y13869429D02*
X16972395Y13942000D01*
X16972395Y13942000D02*
X16682110Y13942000D01*
X16682110Y13942000D02*
X16536967Y13869429D01*
X16536967Y13869429D02*
X16464395Y13796857D01*
X16464395Y13796857D02*
X16391824Y13651715D01*
D13*
X26850257Y35913586D02*
X27064543Y35842158D01*
X27064543Y35842158D02*
X27135972Y35770729D01*
X27135972Y35770729D02*
X27207400Y35627872D01*
X27207400Y35627872D02*
X27207400Y35413586D01*
X27207400Y35413586D02*
X27135972Y35270729D01*
X27135972Y35270729D02*
X27064543Y35199300D01*
X27064543Y35199300D02*
X26921686Y35127872D01*
X26921686Y35127872D02*
X26350257Y35127872D01*
X26350257Y35127872D02*
X26350257Y36627872D01*
X26350257Y36627872D02*
X26850257Y36627872D01*
X26850257Y36627872D02*
X26993115Y36556443D01*
X26993115Y36556443D02*
X27064543Y36485015D01*
X27064543Y36485015D02*
X27135972Y36342158D01*
X27135972Y36342158D02*
X27135972Y36199300D01*
X27135972Y36199300D02*
X27064543Y36056443D01*
X27064543Y36056443D02*
X26993115Y35985015D01*
X26993115Y35985015D02*
X26850257Y35913586D01*
X26850257Y35913586D02*
X26350257Y35913586D01*
X28635972Y35127872D02*
X27778829Y35127872D01*
X28207400Y35127872D02*
X28207400Y36627872D01*
X28207400Y36627872D02*
X28064543Y36413586D01*
X28064543Y36413586D02*
X27921686Y36270729D01*
X27921686Y36270729D02*
X27778829Y36199300D01*
D14*
X22098095Y26517067D02*
X23621905Y26517067D01*
X22860000Y25755162D02*
X22860000Y27278972D01*
X67818095Y26517067D02*
X69341905Y26517067D01*
X22098095Y45567067D02*
X23621905Y45567067D01*
X22860000Y44805162D02*
X22860000Y46328972D01*
X67818095Y45567067D02*
X69341905Y45567067D01*
D13*
X75527819Y44053287D02*
X75527819Y44624715D01*
X76527819Y44339001D02*
X75527819Y44339001D01*
X76527819Y44958049D02*
X75527819Y44958049D01*
X76004009Y44958049D02*
X76004009Y45529477D01*
X76527819Y45529477D02*
X75527819Y45529477D01*
X75623057Y45958049D02*
X75575438Y46005668D01*
X75575438Y46005668D02*
X75527819Y46100906D01*
X75527819Y46100906D02*
X75527819Y46339001D01*
X75527819Y46339001D02*
X75575438Y46434239D01*
X75575438Y46434239D02*
X75623057Y46481858D01*
X75623057Y46481858D02*
X75718295Y46529477D01*
X75718295Y46529477D02*
X75813533Y46529477D01*
X75813533Y46529477D02*
X75956390Y46481858D01*
X75956390Y46481858D02*
X76527819Y45910430D01*
X76527819Y45910430D02*
X76527819Y46529477D01*
X75400819Y24749287D02*
X75400819Y25320715D01*
X76400819Y25035001D02*
X75400819Y25035001D01*
X76400819Y25654049D02*
X75400819Y25654049D01*
X75877009Y25654049D02*
X75877009Y26225477D01*
X76400819Y26225477D02*
X75400819Y26225477D01*
X76400819Y27225477D02*
X76400819Y26654049D01*
X76400819Y26939763D02*
X75400819Y26939763D01*
X75400819Y26939763D02*
X75543676Y26844525D01*
X75543676Y26844525D02*
X75638914Y26749287D01*
X75638914Y26749287D02*
X75686533Y26654049D01*
%TO.C,J2*%
X19190400Y56242200D02*
X19190400Y60242200D01*
X19690500Y59743200D02*
X19690500Y56741200D01*
X21690500Y60742200D02*
X21690500Y60242200D01*
X21690500Y56242200D02*
X21690500Y55742200D01*
X22190400Y59743200D02*
X22190400Y56741200D01*
X22190400Y59742200D02*
X19690500Y59742200D01*
X22190400Y56742200D02*
X19690500Y56742200D01*
X22690500Y60242200D02*
X19190400Y60242200D01*
X22690500Y56242200D02*
X19189500Y56242200D01*
X22690500Y56242200D02*
X22690500Y60242200D01*
X27690500Y60742200D02*
X21690500Y60742200D01*
X27690500Y60742200D02*
X36690500Y60742200D01*
X27690500Y55742200D02*
X21690500Y55742200D01*
X36690500Y60742300D02*
X36690500Y55742100D01*
X36690500Y55742200D02*
X27690500Y55742200D01*
%TO.C,J3*%
X19190400Y61246000D02*
X19190400Y65246000D01*
X19690500Y64747000D02*
X19690500Y61745000D01*
X21690500Y65746000D02*
X21690500Y65246000D01*
X21690500Y61246000D02*
X21690500Y60746000D01*
X22190400Y64747000D02*
X22190400Y61745000D01*
X22190400Y64746000D02*
X19690500Y64746000D01*
X22190400Y61746000D02*
X19690500Y61746000D01*
X22690500Y65246000D02*
X19190400Y65246000D01*
X22690500Y61246000D02*
X19189500Y61246000D01*
X22690500Y61246000D02*
X22690500Y65246000D01*
X27690500Y65746000D02*
X21690500Y65746000D01*
X27690500Y65746000D02*
X36690500Y65746000D01*
X27690500Y60746000D02*
X21690500Y60746000D01*
X36690500Y65746100D02*
X36690500Y60745900D01*
X36690500Y60746000D02*
X27690500Y60746000D01*
%TO.C,J4*%
X33909000Y14173200D02*
X44069000Y14173200D01*
X33909000Y9093200D02*
X33909000Y14173200D01*
X44069000Y14173200D02*
X44069000Y9093200D01*
X44069000Y9093200D02*
X33909000Y9093200D01*
%TO.C,J6*%
X41148000Y61722000D02*
X43434000Y61722000D01*
X43434000Y61722000D02*
X43434000Y56642000D01*
X43434000Y56642000D02*
X41148000Y56642000D01*
%TO.C,J7*%
X38608000Y61722000D02*
X40894000Y61722000D01*
X40894000Y61722000D02*
X40894000Y56642000D01*
X40894000Y56642000D02*
X38608000Y56642000D01*
%TO.C,J9*%
X14955500Y10473000D02*
X23955500Y10473000D01*
X14955500Y5472900D02*
X14955500Y10473100D01*
X23955500Y10473000D02*
X29955500Y10473000D01*
X23955500Y5473000D02*
X14955500Y5473000D01*
X23955500Y5473000D02*
X29955500Y5473000D01*
X28955500Y9973000D02*
X28955500Y5973000D01*
X28955500Y9973000D02*
X32456500Y9973000D01*
X28955500Y5973000D02*
X32455600Y5973000D01*
X29455600Y9473000D02*
X31955500Y9473000D01*
X29455600Y6473000D02*
X31955500Y6473000D01*
X29455600Y6472000D02*
X29455600Y9474000D01*
X29955500Y9973000D02*
X29955500Y10473000D01*
X29955500Y5473000D02*
X29955500Y5973000D01*
X31955500Y6472000D02*
X31955500Y9474000D01*
X32455600Y9973000D02*
X32455600Y5973000D01*
%TO.C,J10*%
X46228000Y61722000D02*
X48514000Y61722000D01*
X48514000Y61722000D02*
X48514000Y56642000D01*
X48514000Y56642000D02*
X46228000Y56642000D01*
%TO.C,J11*%
X48768000Y61722000D02*
X51054000Y61722000D01*
X51054000Y61722000D02*
X51054000Y56642000D01*
X51054000Y56642000D02*
X48768000Y56642000D01*
%TO.C,J12*%
X64008000Y61468000D02*
X76708000Y61468000D01*
X64008000Y56388000D02*
X64008000Y61468000D01*
X76708000Y61468000D02*
X76708000Y56388000D01*
X76708000Y56388000D02*
X64008000Y56388000D01*
%TO.C,J8*%
X14955500Y15426000D02*
X23955500Y15426000D01*
X14955500Y10425900D02*
X14955500Y15426100D01*
X23955500Y15426000D02*
X29955500Y15426000D01*
X23955500Y10426000D02*
X14955500Y10426000D01*
X23955500Y10426000D02*
X29955500Y10426000D01*
X28955500Y14926000D02*
X28955500Y10926000D01*
X28955500Y14926000D02*
X32456500Y14926000D01*
X28955500Y10926000D02*
X32455600Y10926000D01*
X29455600Y14426000D02*
X31955500Y14426000D01*
X29455600Y11426000D02*
X31955500Y11426000D01*
X29455600Y11425000D02*
X29455600Y14427000D01*
X29955500Y14926000D02*
X29955500Y15426000D01*
X29955500Y10426000D02*
X29955500Y10926000D01*
X31955500Y11425000D02*
X31955500Y14427000D01*
X32455600Y14926000D02*
X32455600Y10926000D01*
D15*
%TO.C,SW1*%
X53858000Y64506000D02*
X61458000Y64506000D01*
X53858000Y63906000D02*
X53858000Y64506000D01*
X53858000Y62006000D02*
X53858000Y59406000D01*
X53858000Y57506000D02*
X53858000Y56896000D01*
X53858000Y56896000D02*
X61468000Y56896000D01*
X61458000Y62006000D02*
X61458000Y59406000D01*
X61468000Y56896000D02*
X61468741Y57502674D01*
D16*
X60198000Y60706000D02*
G75*
G02*
X55118000Y60706000I-2540000J0D01*
G01*
X55118000Y60706000D02*
G75*
G02*
X60198000Y60706000I2540000J0D01*
G01*
D15*
%TO.C,SW2*%
X52334000Y14849000D02*
X59934000Y14849000D01*
X52334000Y14249000D02*
X52334000Y14849000D01*
X52334000Y12349000D02*
X52334000Y9749000D01*
X52334000Y7849000D02*
X52334000Y7239000D01*
X52334000Y7239000D02*
X59944000Y7239000D01*
X59934000Y12349000D02*
X59934000Y9749000D01*
X59944000Y7239000D02*
X59944741Y7845674D01*
D16*
X58674000Y11049000D02*
G75*
G02*
X53594000Y11049000I-2540000J0D01*
G01*
X53594000Y11049000D02*
G75*
G02*
X58674000Y11049000I2540000J0D01*
G01*
D13*
%TO.C,JP1*%
X43688000Y61722000D02*
X45974000Y61722000D01*
X45974000Y61722000D02*
X45974000Y56642000D01*
X45974000Y56642000D02*
X43688000Y56642000D01*
%TO.C,J5*%
X45415200Y14224000D02*
X50495200Y14224000D01*
X45415200Y6604000D02*
X45415200Y14224000D01*
X50495200Y14224000D02*
X50495200Y6604000D01*
X50495200Y6604000D02*
X45415200Y6604000D01*
D14*
%TO.C,B1*%
X6870000Y55665000D02*
X6870000Y15455000D01*
X6870000Y15455000D02*
X84570000Y15455000D01*
X84570000Y55665000D02*
X6870000Y55665000D01*
X84570000Y15455000D02*
X84570000Y55665000D01*
D13*
X19510000Y45210000D02*
G75*
G02*
X16310000Y45210000I-1600000J0D01*
G01*
X16310000Y45210000D02*
G75*
G02*
X19510000Y45210000I1600000J0D01*
G01*
X19510000Y25910000D02*
G75*
G02*
X16310000Y25910000I-1600000J0D01*
G01*
X16310000Y25910000D02*
G75*
G02*
X19510000Y25910000I1600000J0D01*
G01*
X75130000Y45210000D02*
G75*
G02*
X71930000Y45210000I-1600000J0D01*
G01*
X71930000Y45210000D02*
G75*
G02*
X75130000Y45210000I1600000J0D01*
G01*
X75130000Y25910000D02*
G75*
G02*
X71930000Y25910000I-1600000J0D01*
G01*
X71930000Y25910000D02*
G75*
G02*
X75130000Y25910000I1600000J0D01*
G01*
D15*
%TO.C,TH2*%
X73331336Y45896200D02*
X73785464Y45896200D01*
X73331336Y44426200D02*
X73785464Y44426200D01*
%TO.C,TH1*%
X73760064Y26643000D02*
X73305936Y26643000D01*
X73760064Y25173000D02*
X73305936Y25173000D01*
%TD*%
M02*
