%TF.GenerationSoftware,KiCad,Pcbnew,8.0.3+1*%
%TF.CreationDate,2024-07-21T14:57:17+00:00*%
%TF.ProjectId,LION2CELL02,4c494f4e-3243-4454-9c4c-30322e6b6963,rev?*%
%TF.SameCoordinates,Original*%
%TF.FileFunction,Legend,Bot*%
%TF.FilePolarity,Positive*%
%FSLAX46Y46*%
G04 Gerber Fmt 4.6, Leading zero omitted, Abs format (unit mm)*
G04 Created by KiCad (PCBNEW 8.0.3+1) date 2024-07-21 14:57:17*
%MOMM*%
%LPD*%
G01*
G04 APERTURE LIST*
%ADD10C,0.150000*%
%ADD11C,0.120000*%
%ADD12C,0.200000*%
G04 APERTURE END LIST*
D10*
X15533666Y27297420D02*
X15581285Y27249800D01*
X15581285Y27249800D02*
X15724142Y27202181D01*
X15724142Y27202181D02*
X15819380Y27202181D01*
X15819380Y27202181D02*
X15962237Y27249800D01*
X15962237Y27249800D02*
X16057475Y27345039D01*
X16057475Y27345039D02*
X16105094Y27440277D01*
X16105094Y27440277D02*
X16152713Y27630753D01*
X16152713Y27630753D02*
X16152713Y27773610D01*
X16152713Y27773610D02*
X16105094Y27964086D01*
X16105094Y27964086D02*
X16057475Y28059324D01*
X16057475Y28059324D02*
X15962237Y28154562D01*
X15962237Y28154562D02*
X15819380Y28202181D01*
X15819380Y28202181D02*
X15724142Y28202181D01*
X15724142Y28202181D02*
X15581285Y28154562D01*
X15581285Y28154562D02*
X15533666Y28106943D01*
X14581285Y27202181D02*
X15152713Y27202181D01*
X14866999Y27202181D02*
X14866999Y28202181D01*
X14866999Y28202181D02*
X14962237Y28059324D01*
X14962237Y28059324D02*
X15057475Y27964086D01*
X15057475Y27964086D02*
X15152713Y27916467D01*
X33059666Y26470420D02*
X33107285Y26422800D01*
X33107285Y26422800D02*
X33250142Y26375181D01*
X33250142Y26375181D02*
X33345380Y26375181D01*
X33345380Y26375181D02*
X33488237Y26422800D01*
X33488237Y26422800D02*
X33583475Y26518039D01*
X33583475Y26518039D02*
X33631094Y26613277D01*
X33631094Y26613277D02*
X33678713Y26803753D01*
X33678713Y26803753D02*
X33678713Y26946610D01*
X33678713Y26946610D02*
X33631094Y27137086D01*
X33631094Y27137086D02*
X33583475Y27232324D01*
X33583475Y27232324D02*
X33488237Y27327562D01*
X33488237Y27327562D02*
X33345380Y27375181D01*
X33345380Y27375181D02*
X33250142Y27375181D01*
X33250142Y27375181D02*
X33107285Y27327562D01*
X33107285Y27327562D02*
X33059666Y27279943D01*
X32154904Y27375181D02*
X32631094Y27375181D01*
X32631094Y27375181D02*
X32678713Y26898991D01*
X32678713Y26898991D02*
X32631094Y26946610D01*
X32631094Y26946610D02*
X32535856Y26994229D01*
X32535856Y26994229D02*
X32297761Y26994229D01*
X32297761Y26994229D02*
X32202523Y26946610D01*
X32202523Y26946610D02*
X32154904Y26898991D01*
X32154904Y26898991D02*
X32107285Y26803753D01*
X32107285Y26803753D02*
X32107285Y26565658D01*
X32107285Y26565658D02*
X32154904Y26470420D01*
X32154904Y26470420D02*
X32202523Y26422800D01*
X32202523Y26422800D02*
X32297761Y26375181D01*
X32297761Y26375181D02*
X32535856Y26375181D01*
X32535856Y26375181D02*
X32631094Y26422800D01*
X32631094Y26422800D02*
X32678713Y26470420D01*
X34239580Y24677667D02*
X34287200Y24725286D01*
X34287200Y24725286D02*
X34334819Y24868143D01*
X34334819Y24868143D02*
X34334819Y24963381D01*
X34334819Y24963381D02*
X34287200Y25106238D01*
X34287200Y25106238D02*
X34191961Y25201476D01*
X34191961Y25201476D02*
X34096723Y25249095D01*
X34096723Y25249095D02*
X33906247Y25296714D01*
X33906247Y25296714D02*
X33763390Y25296714D01*
X33763390Y25296714D02*
X33572914Y25249095D01*
X33572914Y25249095D02*
X33477676Y25201476D01*
X33477676Y25201476D02*
X33382438Y25106238D01*
X33382438Y25106238D02*
X33334819Y24963381D01*
X33334819Y24963381D02*
X33334819Y24868143D01*
X33334819Y24868143D02*
X33382438Y24725286D01*
X33382438Y24725286D02*
X33430057Y24677667D01*
X33334819Y23820524D02*
X33334819Y24011000D01*
X33334819Y24011000D02*
X33382438Y24106238D01*
X33382438Y24106238D02*
X33430057Y24153857D01*
X33430057Y24153857D02*
X33572914Y24249095D01*
X33572914Y24249095D02*
X33763390Y24296714D01*
X33763390Y24296714D02*
X34144342Y24296714D01*
X34144342Y24296714D02*
X34239580Y24249095D01*
X34239580Y24249095D02*
X34287200Y24201476D01*
X34287200Y24201476D02*
X34334819Y24106238D01*
X34334819Y24106238D02*
X34334819Y23915762D01*
X34334819Y23915762D02*
X34287200Y23820524D01*
X34287200Y23820524D02*
X34239580Y23772905D01*
X34239580Y23772905D02*
X34144342Y23725286D01*
X34144342Y23725286D02*
X33906247Y23725286D01*
X33906247Y23725286D02*
X33811009Y23772905D01*
X33811009Y23772905D02*
X33763390Y23820524D01*
X33763390Y23820524D02*
X33715771Y23915762D01*
X33715771Y23915762D02*
X33715771Y24106238D01*
X33715771Y24106238D02*
X33763390Y24201476D01*
X33763390Y24201476D02*
X33811009Y24249095D01*
X33811009Y24249095D02*
X33906247Y24296714D01*
X43956266Y23284220D02*
X44003885Y23236600D01*
X44003885Y23236600D02*
X44146742Y23188981D01*
X44146742Y23188981D02*
X44241980Y23188981D01*
X44241980Y23188981D02*
X44384837Y23236600D01*
X44384837Y23236600D02*
X44480075Y23331839D01*
X44480075Y23331839D02*
X44527694Y23427077D01*
X44527694Y23427077D02*
X44575313Y23617553D01*
X44575313Y23617553D02*
X44575313Y23760410D01*
X44575313Y23760410D02*
X44527694Y23950886D01*
X44527694Y23950886D02*
X44480075Y24046124D01*
X44480075Y24046124D02*
X44384837Y24141362D01*
X44384837Y24141362D02*
X44241980Y24188981D01*
X44241980Y24188981D02*
X44146742Y24188981D01*
X44146742Y24188981D02*
X44003885Y24141362D01*
X44003885Y24141362D02*
X43956266Y24093743D01*
X43622932Y24188981D02*
X42956266Y24188981D01*
X42956266Y24188981D02*
X43384837Y23188981D01*
X43981666Y21201420D02*
X44029285Y21153800D01*
X44029285Y21153800D02*
X44172142Y21106181D01*
X44172142Y21106181D02*
X44267380Y21106181D01*
X44267380Y21106181D02*
X44410237Y21153800D01*
X44410237Y21153800D02*
X44505475Y21249039D01*
X44505475Y21249039D02*
X44553094Y21344277D01*
X44553094Y21344277D02*
X44600713Y21534753D01*
X44600713Y21534753D02*
X44600713Y21677610D01*
X44600713Y21677610D02*
X44553094Y21868086D01*
X44553094Y21868086D02*
X44505475Y21963324D01*
X44505475Y21963324D02*
X44410237Y22058562D01*
X44410237Y22058562D02*
X44267380Y22106181D01*
X44267380Y22106181D02*
X44172142Y22106181D01*
X44172142Y22106181D02*
X44029285Y22058562D01*
X44029285Y22058562D02*
X43981666Y22010943D01*
X43410237Y21677610D02*
X43505475Y21725229D01*
X43505475Y21725229D02*
X43553094Y21772848D01*
X43553094Y21772848D02*
X43600713Y21868086D01*
X43600713Y21868086D02*
X43600713Y21915705D01*
X43600713Y21915705D02*
X43553094Y22010943D01*
X43553094Y22010943D02*
X43505475Y22058562D01*
X43505475Y22058562D02*
X43410237Y22106181D01*
X43410237Y22106181D02*
X43219761Y22106181D01*
X43219761Y22106181D02*
X43124523Y22058562D01*
X43124523Y22058562D02*
X43076904Y22010943D01*
X43076904Y22010943D02*
X43029285Y21915705D01*
X43029285Y21915705D02*
X43029285Y21868086D01*
X43029285Y21868086D02*
X43076904Y21772848D01*
X43076904Y21772848D02*
X43124523Y21725229D01*
X43124523Y21725229D02*
X43219761Y21677610D01*
X43219761Y21677610D02*
X43410237Y21677610D01*
X43410237Y21677610D02*
X43505475Y21629991D01*
X43505475Y21629991D02*
X43553094Y21582372D01*
X43553094Y21582372D02*
X43600713Y21487134D01*
X43600713Y21487134D02*
X43600713Y21296658D01*
X43600713Y21296658D02*
X43553094Y21201420D01*
X43553094Y21201420D02*
X43505475Y21153800D01*
X43505475Y21153800D02*
X43410237Y21106181D01*
X43410237Y21106181D02*
X43219761Y21106181D01*
X43219761Y21106181D02*
X43124523Y21153800D01*
X43124523Y21153800D02*
X43076904Y21201420D01*
X43076904Y21201420D02*
X43029285Y21296658D01*
X43029285Y21296658D02*
X43029285Y21487134D01*
X43029285Y21487134D02*
X43076904Y21582372D01*
X43076904Y21582372D02*
X43124523Y21629991D01*
X43124523Y21629991D02*
X43219761Y21677610D01*
X24968580Y28614667D02*
X25016200Y28662286D01*
X25016200Y28662286D02*
X25063819Y28805143D01*
X25063819Y28805143D02*
X25063819Y28900381D01*
X25063819Y28900381D02*
X25016200Y29043238D01*
X25016200Y29043238D02*
X24920961Y29138476D01*
X24920961Y29138476D02*
X24825723Y29186095D01*
X24825723Y29186095D02*
X24635247Y29233714D01*
X24635247Y29233714D02*
X24492390Y29233714D01*
X24492390Y29233714D02*
X24301914Y29186095D01*
X24301914Y29186095D02*
X24206676Y29138476D01*
X24206676Y29138476D02*
X24111438Y29043238D01*
X24111438Y29043238D02*
X24063819Y28900381D01*
X24063819Y28900381D02*
X24063819Y28805143D01*
X24063819Y28805143D02*
X24111438Y28662286D01*
X24111438Y28662286D02*
X24159057Y28614667D01*
X25063819Y28138476D02*
X25063819Y27948000D01*
X25063819Y27948000D02*
X25016200Y27852762D01*
X25016200Y27852762D02*
X24968580Y27805143D01*
X24968580Y27805143D02*
X24825723Y27709905D01*
X24825723Y27709905D02*
X24635247Y27662286D01*
X24635247Y27662286D02*
X24254295Y27662286D01*
X24254295Y27662286D02*
X24159057Y27709905D01*
X24159057Y27709905D02*
X24111438Y27757524D01*
X24111438Y27757524D02*
X24063819Y27852762D01*
X24063819Y27852762D02*
X24063819Y28043238D01*
X24063819Y28043238D02*
X24111438Y28138476D01*
X24111438Y28138476D02*
X24159057Y28186095D01*
X24159057Y28186095D02*
X24254295Y28233714D01*
X24254295Y28233714D02*
X24492390Y28233714D01*
X24492390Y28233714D02*
X24587628Y28186095D01*
X24587628Y28186095D02*
X24635247Y28138476D01*
X24635247Y28138476D02*
X24682866Y28043238D01*
X24682866Y28043238D02*
X24682866Y27852762D01*
X24682866Y27852762D02*
X24635247Y27757524D01*
X24635247Y27757524D02*
X24587628Y27709905D01*
X24587628Y27709905D02*
X24492390Y27662286D01*
X40901857Y33959419D02*
X40949476Y33911799D01*
X40949476Y33911799D02*
X41092333Y33864180D01*
X41092333Y33864180D02*
X41187571Y33864180D01*
X41187571Y33864180D02*
X41330428Y33911799D01*
X41330428Y33911799D02*
X41425666Y34007038D01*
X41425666Y34007038D02*
X41473285Y34102276D01*
X41473285Y34102276D02*
X41520904Y34292752D01*
X41520904Y34292752D02*
X41520904Y34435609D01*
X41520904Y34435609D02*
X41473285Y34626085D01*
X41473285Y34626085D02*
X41425666Y34721323D01*
X41425666Y34721323D02*
X41330428Y34816561D01*
X41330428Y34816561D02*
X41187571Y34864180D01*
X41187571Y34864180D02*
X41092333Y34864180D01*
X41092333Y34864180D02*
X40949476Y34816561D01*
X40949476Y34816561D02*
X40901857Y34768942D01*
X39949476Y33864180D02*
X40520904Y33864180D01*
X40235190Y33864180D02*
X40235190Y34864180D01*
X40235190Y34864180D02*
X40330428Y34721323D01*
X40330428Y34721323D02*
X40425666Y34626085D01*
X40425666Y34626085D02*
X40520904Y34578466D01*
X38997095Y33864180D02*
X39568523Y33864180D01*
X39282809Y33864180D02*
X39282809Y34864180D01*
X39282809Y34864180D02*
X39378047Y34721323D01*
X39378047Y34721323D02*
X39473285Y34626085D01*
X39473285Y34626085D02*
X39568523Y34578466D01*
X61221857Y34213420D02*
X61269476Y34165800D01*
X61269476Y34165800D02*
X61412333Y34118181D01*
X61412333Y34118181D02*
X61507571Y34118181D01*
X61507571Y34118181D02*
X61650428Y34165800D01*
X61650428Y34165800D02*
X61745666Y34261039D01*
X61745666Y34261039D02*
X61793285Y34356277D01*
X61793285Y34356277D02*
X61840904Y34546753D01*
X61840904Y34546753D02*
X61840904Y34689610D01*
X61840904Y34689610D02*
X61793285Y34880086D01*
X61793285Y34880086D02*
X61745666Y34975324D01*
X61745666Y34975324D02*
X61650428Y35070562D01*
X61650428Y35070562D02*
X61507571Y35118181D01*
X61507571Y35118181D02*
X61412333Y35118181D01*
X61412333Y35118181D02*
X61269476Y35070562D01*
X61269476Y35070562D02*
X61221857Y35022943D01*
X60269476Y34118181D02*
X60840904Y34118181D01*
X60555190Y34118181D02*
X60555190Y35118181D01*
X60555190Y35118181D02*
X60650428Y34975324D01*
X60650428Y34975324D02*
X60745666Y34880086D01*
X60745666Y34880086D02*
X60840904Y34832467D01*
X59412333Y35118181D02*
X59602809Y35118181D01*
X59602809Y35118181D02*
X59698047Y35070562D01*
X59698047Y35070562D02*
X59745666Y35022943D01*
X59745666Y35022943D02*
X59840904Y34880086D01*
X59840904Y34880086D02*
X59888523Y34689610D01*
X59888523Y34689610D02*
X59888523Y34308658D01*
X59888523Y34308658D02*
X59840904Y34213420D01*
X59840904Y34213420D02*
X59793285Y34165800D01*
X59793285Y34165800D02*
X59698047Y34118181D01*
X59698047Y34118181D02*
X59507571Y34118181D01*
X59507571Y34118181D02*
X59412333Y34165800D01*
X59412333Y34165800D02*
X59364714Y34213420D01*
X59364714Y34213420D02*
X59317095Y34308658D01*
X59317095Y34308658D02*
X59317095Y34546753D01*
X59317095Y34546753D02*
X59364714Y34641991D01*
X59364714Y34641991D02*
X59412333Y34689610D01*
X59412333Y34689610D02*
X59507571Y34737229D01*
X59507571Y34737229D02*
X59698047Y34737229D01*
X59698047Y34737229D02*
X59793285Y34689610D01*
X59793285Y34689610D02*
X59840904Y34641991D01*
X59840904Y34641991D02*
X59888523Y34546753D01*
X61798580Y30233858D02*
X61846200Y30281477D01*
X61846200Y30281477D02*
X61893819Y30424334D01*
X61893819Y30424334D02*
X61893819Y30519572D01*
X61893819Y30519572D02*
X61846200Y30662429D01*
X61846200Y30662429D02*
X61750961Y30757667D01*
X61750961Y30757667D02*
X61655723Y30805286D01*
X61655723Y30805286D02*
X61465247Y30852905D01*
X61465247Y30852905D02*
X61322390Y30852905D01*
X61322390Y30852905D02*
X61131914Y30805286D01*
X61131914Y30805286D02*
X61036676Y30757667D01*
X61036676Y30757667D02*
X60941438Y30662429D01*
X60941438Y30662429D02*
X60893819Y30519572D01*
X60893819Y30519572D02*
X60893819Y30424334D01*
X60893819Y30424334D02*
X60941438Y30281477D01*
X60941438Y30281477D02*
X60989057Y30233858D01*
X61893819Y29281477D02*
X61893819Y29852905D01*
X61893819Y29567191D02*
X60893819Y29567191D01*
X60893819Y29567191D02*
X61036676Y29662429D01*
X61036676Y29662429D02*
X61131914Y29757667D01*
X61131914Y29757667D02*
X61179533Y29852905D01*
X60893819Y28948143D02*
X60893819Y28281477D01*
X60893819Y28281477D02*
X61893819Y28710048D01*
X62961480Y30256658D02*
X63009100Y30304277D01*
X63009100Y30304277D02*
X63056719Y30447134D01*
X63056719Y30447134D02*
X63056719Y30542372D01*
X63056719Y30542372D02*
X63009100Y30685229D01*
X63009100Y30685229D02*
X62913861Y30780467D01*
X62913861Y30780467D02*
X62818623Y30828086D01*
X62818623Y30828086D02*
X62628147Y30875705D01*
X62628147Y30875705D02*
X62485290Y30875705D01*
X62485290Y30875705D02*
X62294814Y30828086D01*
X62294814Y30828086D02*
X62199576Y30780467D01*
X62199576Y30780467D02*
X62104338Y30685229D01*
X62104338Y30685229D02*
X62056719Y30542372D01*
X62056719Y30542372D02*
X62056719Y30447134D01*
X62056719Y30447134D02*
X62104338Y30304277D01*
X62104338Y30304277D02*
X62151957Y30256658D01*
X63056719Y29304277D02*
X63056719Y29875705D01*
X63056719Y29589991D02*
X62056719Y29589991D01*
X62056719Y29589991D02*
X62199576Y29685229D01*
X62199576Y29685229D02*
X62294814Y29780467D01*
X62294814Y29780467D02*
X62342433Y29875705D01*
X62485290Y28732848D02*
X62437671Y28828086D01*
X62437671Y28828086D02*
X62390052Y28875705D01*
X62390052Y28875705D02*
X62294814Y28923324D01*
X62294814Y28923324D02*
X62247195Y28923324D01*
X62247195Y28923324D02*
X62151957Y28875705D01*
X62151957Y28875705D02*
X62104338Y28828086D01*
X62104338Y28828086D02*
X62056719Y28732848D01*
X62056719Y28732848D02*
X62056719Y28542372D01*
X62056719Y28542372D02*
X62104338Y28447134D01*
X62104338Y28447134D02*
X62151957Y28399515D01*
X62151957Y28399515D02*
X62247195Y28351896D01*
X62247195Y28351896D02*
X62294814Y28351896D01*
X62294814Y28351896D02*
X62390052Y28399515D01*
X62390052Y28399515D02*
X62437671Y28447134D01*
X62437671Y28447134D02*
X62485290Y28542372D01*
X62485290Y28542372D02*
X62485290Y28732848D01*
X62485290Y28732848D02*
X62532909Y28828086D01*
X62532909Y28828086D02*
X62580528Y28875705D01*
X62580528Y28875705D02*
X62675766Y28923324D01*
X62675766Y28923324D02*
X62866242Y28923324D01*
X62866242Y28923324D02*
X62961480Y28875705D01*
X62961480Y28875705D02*
X63009100Y28828086D01*
X63009100Y28828086D02*
X63056719Y28732848D01*
X63056719Y28732848D02*
X63056719Y28542372D01*
X63056719Y28542372D02*
X63009100Y28447134D01*
X63009100Y28447134D02*
X62961480Y28399515D01*
X62961480Y28399515D02*
X62866242Y28351896D01*
X62866242Y28351896D02*
X62675766Y28351896D01*
X62675766Y28351896D02*
X62580528Y28399515D01*
X62580528Y28399515D02*
X62532909Y28447134D01*
X62532909Y28447134D02*
X62485290Y28542372D01*
X31408666Y23947181D02*
X31884856Y23947181D01*
X31884856Y23947181D02*
X31884856Y24947181D01*
X30551523Y23947181D02*
X31122951Y23947181D01*
X30837237Y23947181D02*
X30837237Y24947181D01*
X30837237Y24947181D02*
X30932475Y24804324D01*
X30932475Y24804324D02*
X31027713Y24709086D01*
X31027713Y24709086D02*
X31122951Y24661467D01*
X43724057Y51276239D02*
X43676438Y51371477D01*
X43676438Y51371477D02*
X43581200Y51466715D01*
X43581200Y51466715D02*
X43438342Y51609572D01*
X43438342Y51609572D02*
X43390723Y51704810D01*
X43390723Y51704810D02*
X43390723Y51800048D01*
X43628819Y51752429D02*
X43581200Y51847667D01*
X43581200Y51847667D02*
X43485961Y51942905D01*
X43485961Y51942905D02*
X43295485Y51990524D01*
X43295485Y51990524D02*
X42962152Y51990524D01*
X42962152Y51990524D02*
X42771676Y51942905D01*
X42771676Y51942905D02*
X42676438Y51847667D01*
X42676438Y51847667D02*
X42628819Y51752429D01*
X42628819Y51752429D02*
X42628819Y51561953D01*
X42628819Y51561953D02*
X42676438Y51466715D01*
X42676438Y51466715D02*
X42771676Y51371477D01*
X42771676Y51371477D02*
X42962152Y51323858D01*
X42962152Y51323858D02*
X43295485Y51323858D01*
X43295485Y51323858D02*
X43485961Y51371477D01*
X43485961Y51371477D02*
X43581200Y51466715D01*
X43581200Y51466715D02*
X43628819Y51561953D01*
X43628819Y51561953D02*
X43628819Y51752429D01*
X43628819Y50371477D02*
X43628819Y50942905D01*
X43628819Y50657191D02*
X42628819Y50657191D01*
X42628819Y50657191D02*
X42771676Y50752429D01*
X42771676Y50752429D02*
X42866914Y50847667D01*
X42866914Y50847667D02*
X42914533Y50942905D01*
X14552819Y37631667D02*
X14076628Y37965000D01*
X14552819Y38203095D02*
X13552819Y38203095D01*
X13552819Y38203095D02*
X13552819Y37822143D01*
X13552819Y37822143D02*
X13600438Y37726905D01*
X13600438Y37726905D02*
X13648057Y37679286D01*
X13648057Y37679286D02*
X13743295Y37631667D01*
X13743295Y37631667D02*
X13886152Y37631667D01*
X13886152Y37631667D02*
X13981390Y37679286D01*
X13981390Y37679286D02*
X14029009Y37726905D01*
X14029009Y37726905D02*
X14076628Y37822143D01*
X14076628Y37822143D02*
X14076628Y38203095D01*
X14552819Y36679286D02*
X14552819Y37250714D01*
X14552819Y36965000D02*
X13552819Y36965000D01*
X13552819Y36965000D02*
X13695676Y37060238D01*
X13695676Y37060238D02*
X13790914Y37155476D01*
X13790914Y37155476D02*
X13838533Y37250714D01*
X35091666Y36374181D02*
X35424999Y36850372D01*
X35663094Y36374181D02*
X35663094Y37374181D01*
X35663094Y37374181D02*
X35282142Y37374181D01*
X35282142Y37374181D02*
X35186904Y37326562D01*
X35186904Y37326562D02*
X35139285Y37278943D01*
X35139285Y37278943D02*
X35091666Y37183705D01*
X35091666Y37183705D02*
X35091666Y37040848D01*
X35091666Y37040848D02*
X35139285Y36945610D01*
X35139285Y36945610D02*
X35186904Y36897991D01*
X35186904Y36897991D02*
X35282142Y36850372D01*
X35282142Y36850372D02*
X35663094Y36850372D01*
X34758332Y37374181D02*
X34139285Y37374181D01*
X34139285Y37374181D02*
X34472618Y36993229D01*
X34472618Y36993229D02*
X34329761Y36993229D01*
X34329761Y36993229D02*
X34234523Y36945610D01*
X34234523Y36945610D02*
X34186904Y36897991D01*
X34186904Y36897991D02*
X34139285Y36802753D01*
X34139285Y36802753D02*
X34139285Y36564658D01*
X34139285Y36564658D02*
X34186904Y36469420D01*
X34186904Y36469420D02*
X34234523Y36421800D01*
X34234523Y36421800D02*
X34329761Y36374181D01*
X34329761Y36374181D02*
X34615475Y36374181D01*
X34615475Y36374181D02*
X34710713Y36421800D01*
X34710713Y36421800D02*
X34758332Y36469420D01*
X35091666Y35106181D02*
X35424999Y35582372D01*
X35663094Y35106181D02*
X35663094Y36106181D01*
X35663094Y36106181D02*
X35282142Y36106181D01*
X35282142Y36106181D02*
X35186904Y36058562D01*
X35186904Y36058562D02*
X35139285Y36010943D01*
X35139285Y36010943D02*
X35091666Y35915705D01*
X35091666Y35915705D02*
X35091666Y35772848D01*
X35091666Y35772848D02*
X35139285Y35677610D01*
X35139285Y35677610D02*
X35186904Y35629991D01*
X35186904Y35629991D02*
X35282142Y35582372D01*
X35282142Y35582372D02*
X35663094Y35582372D01*
X34186904Y36106181D02*
X34663094Y36106181D01*
X34663094Y36106181D02*
X34710713Y35629991D01*
X34710713Y35629991D02*
X34663094Y35677610D01*
X34663094Y35677610D02*
X34567856Y35725229D01*
X34567856Y35725229D02*
X34329761Y35725229D01*
X34329761Y35725229D02*
X34234523Y35677610D01*
X34234523Y35677610D02*
X34186904Y35629991D01*
X34186904Y35629991D02*
X34139285Y35534753D01*
X34139285Y35534753D02*
X34139285Y35296658D01*
X34139285Y35296658D02*
X34186904Y35201420D01*
X34186904Y35201420D02*
X34234523Y35153800D01*
X34234523Y35153800D02*
X34329761Y35106181D01*
X34329761Y35106181D02*
X34567856Y35106181D01*
X34567856Y35106181D02*
X34663094Y35153800D01*
X34663094Y35153800D02*
X34710713Y35201420D01*
X37791819Y40298667D02*
X37315628Y40632000D01*
X37791819Y40870095D02*
X36791819Y40870095D01*
X36791819Y40870095D02*
X36791819Y40489143D01*
X36791819Y40489143D02*
X36839438Y40393905D01*
X36839438Y40393905D02*
X36887057Y40346286D01*
X36887057Y40346286D02*
X36982295Y40298667D01*
X36982295Y40298667D02*
X37125152Y40298667D01*
X37125152Y40298667D02*
X37220390Y40346286D01*
X37220390Y40346286D02*
X37268009Y40393905D01*
X37268009Y40393905D02*
X37315628Y40489143D01*
X37315628Y40489143D02*
X37315628Y40870095D01*
X36791819Y39441524D02*
X36791819Y39632000D01*
X36791819Y39632000D02*
X36839438Y39727238D01*
X36839438Y39727238D02*
X36887057Y39774857D01*
X36887057Y39774857D02*
X37029914Y39870095D01*
X37029914Y39870095D02*
X37220390Y39917714D01*
X37220390Y39917714D02*
X37601342Y39917714D01*
X37601342Y39917714D02*
X37696580Y39870095D01*
X37696580Y39870095D02*
X37744200Y39822476D01*
X37744200Y39822476D02*
X37791819Y39727238D01*
X37791819Y39727238D02*
X37791819Y39536762D01*
X37791819Y39536762D02*
X37744200Y39441524D01*
X37744200Y39441524D02*
X37696580Y39393905D01*
X37696580Y39393905D02*
X37601342Y39346286D01*
X37601342Y39346286D02*
X37363247Y39346286D01*
X37363247Y39346286D02*
X37268009Y39393905D01*
X37268009Y39393905D02*
X37220390Y39441524D01*
X37220390Y39441524D02*
X37172771Y39536762D01*
X37172771Y39536762D02*
X37172771Y39727238D01*
X37172771Y39727238D02*
X37220390Y39822476D01*
X37220390Y39822476D02*
X37268009Y39870095D01*
X37268009Y39870095D02*
X37363247Y39917714D01*
X23534666Y32945181D02*
X23867999Y33421372D01*
X24106094Y32945181D02*
X24106094Y33945181D01*
X24106094Y33945181D02*
X23725142Y33945181D01*
X23725142Y33945181D02*
X23629904Y33897562D01*
X23629904Y33897562D02*
X23582285Y33849943D01*
X23582285Y33849943D02*
X23534666Y33754705D01*
X23534666Y33754705D02*
X23534666Y33611848D01*
X23534666Y33611848D02*
X23582285Y33516610D01*
X23582285Y33516610D02*
X23629904Y33468991D01*
X23629904Y33468991D02*
X23725142Y33421372D01*
X23725142Y33421372D02*
X24106094Y33421372D01*
X23201332Y33945181D02*
X22534666Y33945181D01*
X22534666Y33945181D02*
X22963237Y32945181D01*
X44776819Y36107667D02*
X44300628Y36441000D01*
X44776819Y36679095D02*
X43776819Y36679095D01*
X43776819Y36679095D02*
X43776819Y36298143D01*
X43776819Y36298143D02*
X43824438Y36202905D01*
X43824438Y36202905D02*
X43872057Y36155286D01*
X43872057Y36155286D02*
X43967295Y36107667D01*
X43967295Y36107667D02*
X44110152Y36107667D01*
X44110152Y36107667D02*
X44205390Y36155286D01*
X44205390Y36155286D02*
X44253009Y36202905D01*
X44253009Y36202905D02*
X44300628Y36298143D01*
X44300628Y36298143D02*
X44300628Y36679095D01*
X44205390Y35536238D02*
X44157771Y35631476D01*
X44157771Y35631476D02*
X44110152Y35679095D01*
X44110152Y35679095D02*
X44014914Y35726714D01*
X44014914Y35726714D02*
X43967295Y35726714D01*
X43967295Y35726714D02*
X43872057Y35679095D01*
X43872057Y35679095D02*
X43824438Y35631476D01*
X43824438Y35631476D02*
X43776819Y35536238D01*
X43776819Y35536238D02*
X43776819Y35345762D01*
X43776819Y35345762D02*
X43824438Y35250524D01*
X43824438Y35250524D02*
X43872057Y35202905D01*
X43872057Y35202905D02*
X43967295Y35155286D01*
X43967295Y35155286D02*
X44014914Y35155286D01*
X44014914Y35155286D02*
X44110152Y35202905D01*
X44110152Y35202905D02*
X44157771Y35250524D01*
X44157771Y35250524D02*
X44205390Y35345762D01*
X44205390Y35345762D02*
X44205390Y35536238D01*
X44205390Y35536238D02*
X44253009Y35631476D01*
X44253009Y35631476D02*
X44300628Y35679095D01*
X44300628Y35679095D02*
X44395866Y35726714D01*
X44395866Y35726714D02*
X44586342Y35726714D01*
X44586342Y35726714D02*
X44681580Y35679095D01*
X44681580Y35679095D02*
X44729200Y35631476D01*
X44729200Y35631476D02*
X44776819Y35536238D01*
X44776819Y35536238D02*
X44776819Y35345762D01*
X44776819Y35345762D02*
X44729200Y35250524D01*
X44729200Y35250524D02*
X44681580Y35202905D01*
X44681580Y35202905D02*
X44586342Y35155286D01*
X44586342Y35155286D02*
X44395866Y35155286D01*
X44395866Y35155286D02*
X44300628Y35202905D01*
X44300628Y35202905D02*
X44253009Y35250524D01*
X44253009Y35250524D02*
X44205390Y35345762D01*
X38647666Y26470181D02*
X38980999Y26946372D01*
X39219094Y26470181D02*
X39219094Y27470181D01*
X39219094Y27470181D02*
X38838142Y27470181D01*
X38838142Y27470181D02*
X38742904Y27422562D01*
X38742904Y27422562D02*
X38695285Y27374943D01*
X38695285Y27374943D02*
X38647666Y27279705D01*
X38647666Y27279705D02*
X38647666Y27136848D01*
X38647666Y27136848D02*
X38695285Y27041610D01*
X38695285Y27041610D02*
X38742904Y26993991D01*
X38742904Y26993991D02*
X38838142Y26946372D01*
X38838142Y26946372D02*
X39219094Y26946372D01*
X38171475Y26470181D02*
X37980999Y26470181D01*
X37980999Y26470181D02*
X37885761Y26517800D01*
X37885761Y26517800D02*
X37838142Y26565420D01*
X37838142Y26565420D02*
X37742904Y26708277D01*
X37742904Y26708277D02*
X37695285Y26898753D01*
X37695285Y26898753D02*
X37695285Y27279705D01*
X37695285Y27279705D02*
X37742904Y27374943D01*
X37742904Y27374943D02*
X37790523Y27422562D01*
X37790523Y27422562D02*
X37885761Y27470181D01*
X37885761Y27470181D02*
X38076237Y27470181D01*
X38076237Y27470181D02*
X38171475Y27422562D01*
X38171475Y27422562D02*
X38219094Y27374943D01*
X38219094Y27374943D02*
X38266713Y27279705D01*
X38266713Y27279705D02*
X38266713Y27041610D01*
X38266713Y27041610D02*
X38219094Y26946372D01*
X38219094Y26946372D02*
X38171475Y26898753D01*
X38171475Y26898753D02*
X38076237Y26851134D01*
X38076237Y26851134D02*
X37885761Y26851134D01*
X37885761Y26851134D02*
X37790523Y26898753D01*
X37790523Y26898753D02*
X37742904Y26946372D01*
X37742904Y26946372D02*
X37695285Y27041610D01*
X51315857Y-12139819D02*
X51649190Y-11663628D01*
X51887285Y-12139819D02*
X51887285Y-11139819D01*
X51887285Y-11139819D02*
X51506333Y-11139819D01*
X51506333Y-11139819D02*
X51411095Y-11187438D01*
X51411095Y-11187438D02*
X51363476Y-11235057D01*
X51363476Y-11235057D02*
X51315857Y-11330295D01*
X51315857Y-11330295D02*
X51315857Y-11473152D01*
X51315857Y-11473152D02*
X51363476Y-11568390D01*
X51363476Y-11568390D02*
X51411095Y-11616009D01*
X51411095Y-11616009D02*
X51506333Y-11663628D01*
X51506333Y-11663628D02*
X51887285Y-11663628D01*
X50363476Y-12139819D02*
X50934904Y-12139819D01*
X50649190Y-12139819D02*
X50649190Y-11139819D01*
X50649190Y-11139819D02*
X50744428Y-11282676D01*
X50744428Y-11282676D02*
X50839666Y-11377914D01*
X50839666Y-11377914D02*
X50934904Y-11425533D01*
X49411095Y-12139819D02*
X49982523Y-12139819D01*
X49696809Y-12139819D02*
X49696809Y-11139819D01*
X49696809Y-11139819D02*
X49792047Y-11282676D01*
X49792047Y-11282676D02*
X49887285Y-11377914D01*
X49887285Y-11377914D02*
X49982523Y-11425533D01*
X15398819Y50045858D02*
X14922628Y50379191D01*
X15398819Y50617286D02*
X14398819Y50617286D01*
X14398819Y50617286D02*
X14398819Y50236334D01*
X14398819Y50236334D02*
X14446438Y50141096D01*
X14446438Y50141096D02*
X14494057Y50093477D01*
X14494057Y50093477D02*
X14589295Y50045858D01*
X14589295Y50045858D02*
X14732152Y50045858D01*
X14732152Y50045858D02*
X14827390Y50093477D01*
X14827390Y50093477D02*
X14875009Y50141096D01*
X14875009Y50141096D02*
X14922628Y50236334D01*
X14922628Y50236334D02*
X14922628Y50617286D01*
X15398819Y49093477D02*
X15398819Y49664905D01*
X15398819Y49379191D02*
X14398819Y49379191D01*
X14398819Y49379191D02*
X14541676Y49474429D01*
X14541676Y49474429D02*
X14636914Y49569667D01*
X14636914Y49569667D02*
X14684533Y49664905D01*
X14398819Y48760143D02*
X14398819Y48093477D01*
X14398819Y48093477D02*
X15398819Y48522048D01*
X24772857Y49201181D02*
X25106190Y49677372D01*
X25344285Y49201181D02*
X25344285Y50201181D01*
X25344285Y50201181D02*
X24963333Y50201181D01*
X24963333Y50201181D02*
X24868095Y50153562D01*
X24868095Y50153562D02*
X24820476Y50105943D01*
X24820476Y50105943D02*
X24772857Y50010705D01*
X24772857Y50010705D02*
X24772857Y49867848D01*
X24772857Y49867848D02*
X24820476Y49772610D01*
X24820476Y49772610D02*
X24868095Y49724991D01*
X24868095Y49724991D02*
X24963333Y49677372D01*
X24963333Y49677372D02*
X25344285Y49677372D01*
X23820476Y49201181D02*
X24391904Y49201181D01*
X24106190Y49201181D02*
X24106190Y50201181D01*
X24106190Y50201181D02*
X24201428Y50058324D01*
X24201428Y50058324D02*
X24296666Y49963086D01*
X24296666Y49963086D02*
X24391904Y49915467D01*
X23249047Y49772610D02*
X23344285Y49820229D01*
X23344285Y49820229D02*
X23391904Y49867848D01*
X23391904Y49867848D02*
X23439523Y49963086D01*
X23439523Y49963086D02*
X23439523Y50010705D01*
X23439523Y50010705D02*
X23391904Y50105943D01*
X23391904Y50105943D02*
X23344285Y50153562D01*
X23344285Y50153562D02*
X23249047Y50201181D01*
X23249047Y50201181D02*
X23058571Y50201181D01*
X23058571Y50201181D02*
X22963333Y50153562D01*
X22963333Y50153562D02*
X22915714Y50105943D01*
X22915714Y50105943D02*
X22868095Y50010705D01*
X22868095Y50010705D02*
X22868095Y49963086D01*
X22868095Y49963086D02*
X22915714Y49867848D01*
X22915714Y49867848D02*
X22963333Y49820229D01*
X22963333Y49820229D02*
X23058571Y49772610D01*
X23058571Y49772610D02*
X23249047Y49772610D01*
X23249047Y49772610D02*
X23344285Y49724991D01*
X23344285Y49724991D02*
X23391904Y49677372D01*
X23391904Y49677372D02*
X23439523Y49582134D01*
X23439523Y49582134D02*
X23439523Y49391658D01*
X23439523Y49391658D02*
X23391904Y49296420D01*
X23391904Y49296420D02*
X23344285Y49248800D01*
X23344285Y49248800D02*
X23249047Y49201181D01*
X23249047Y49201181D02*
X23058571Y49201181D01*
X23058571Y49201181D02*
X22963333Y49248800D01*
X22963333Y49248800D02*
X22915714Y49296420D01*
X22915714Y49296420D02*
X22868095Y49391658D01*
X22868095Y49391658D02*
X22868095Y49582134D01*
X22868095Y49582134D02*
X22915714Y49677372D01*
X22915714Y49677372D02*
X22963333Y49724991D01*
X22963333Y49724991D02*
X23058571Y49772610D01*
X28709857Y47042181D02*
X29043190Y47518372D01*
X29281285Y47042181D02*
X29281285Y48042181D01*
X29281285Y48042181D02*
X28900333Y48042181D01*
X28900333Y48042181D02*
X28805095Y47994562D01*
X28805095Y47994562D02*
X28757476Y47946943D01*
X28757476Y47946943D02*
X28709857Y47851705D01*
X28709857Y47851705D02*
X28709857Y47708848D01*
X28709857Y47708848D02*
X28757476Y47613610D01*
X28757476Y47613610D02*
X28805095Y47565991D01*
X28805095Y47565991D02*
X28900333Y47518372D01*
X28900333Y47518372D02*
X29281285Y47518372D01*
X27757476Y47042181D02*
X28328904Y47042181D01*
X28043190Y47042181D02*
X28043190Y48042181D01*
X28043190Y48042181D02*
X28138428Y47899324D01*
X28138428Y47899324D02*
X28233666Y47804086D01*
X28233666Y47804086D02*
X28328904Y47756467D01*
X27281285Y47042181D02*
X27090809Y47042181D01*
X27090809Y47042181D02*
X26995571Y47089800D01*
X26995571Y47089800D02*
X26947952Y47137420D01*
X26947952Y47137420D02*
X26852714Y47280277D01*
X26852714Y47280277D02*
X26805095Y47470753D01*
X26805095Y47470753D02*
X26805095Y47851705D01*
X26805095Y47851705D02*
X26852714Y47946943D01*
X26852714Y47946943D02*
X26900333Y47994562D01*
X26900333Y47994562D02*
X26995571Y48042181D01*
X26995571Y48042181D02*
X27186047Y48042181D01*
X27186047Y48042181D02*
X27281285Y47994562D01*
X27281285Y47994562D02*
X27328904Y47946943D01*
X27328904Y47946943D02*
X27376523Y47851705D01*
X27376523Y47851705D02*
X27376523Y47613610D01*
X27376523Y47613610D02*
X27328904Y47518372D01*
X27328904Y47518372D02*
X27281285Y47470753D01*
X27281285Y47470753D02*
X27186047Y47423134D01*
X27186047Y47423134D02*
X26995571Y47423134D01*
X26995571Y47423134D02*
X26900333Y47470753D01*
X26900333Y47470753D02*
X26852714Y47518372D01*
X26852714Y47518372D02*
X26805095Y47613610D01*
X55825819Y34424858D02*
X55349628Y34758191D01*
X55825819Y34996286D02*
X54825819Y34996286D01*
X54825819Y34996286D02*
X54825819Y34615334D01*
X54825819Y34615334D02*
X54873438Y34520096D01*
X54873438Y34520096D02*
X54921057Y34472477D01*
X54921057Y34472477D02*
X55016295Y34424858D01*
X55016295Y34424858D02*
X55159152Y34424858D01*
X55159152Y34424858D02*
X55254390Y34472477D01*
X55254390Y34472477D02*
X55302009Y34520096D01*
X55302009Y34520096D02*
X55349628Y34615334D01*
X55349628Y34615334D02*
X55349628Y34996286D01*
X54921057Y34043905D02*
X54873438Y33996286D01*
X54873438Y33996286D02*
X54825819Y33901048D01*
X54825819Y33901048D02*
X54825819Y33662953D01*
X54825819Y33662953D02*
X54873438Y33567715D01*
X54873438Y33567715D02*
X54921057Y33520096D01*
X54921057Y33520096D02*
X55016295Y33472477D01*
X55016295Y33472477D02*
X55111533Y33472477D01*
X55111533Y33472477D02*
X55254390Y33520096D01*
X55254390Y33520096D02*
X55825819Y34091524D01*
X55825819Y34091524D02*
X55825819Y33472477D01*
X54825819Y32853429D02*
X54825819Y32758191D01*
X54825819Y32758191D02*
X54873438Y32662953D01*
X54873438Y32662953D02*
X54921057Y32615334D01*
X54921057Y32615334D02*
X55016295Y32567715D01*
X55016295Y32567715D02*
X55206771Y32520096D01*
X55206771Y32520096D02*
X55444866Y32520096D01*
X55444866Y32520096D02*
X55635342Y32567715D01*
X55635342Y32567715D02*
X55730580Y32615334D01*
X55730580Y32615334D02*
X55778200Y32662953D01*
X55778200Y32662953D02*
X55825819Y32758191D01*
X55825819Y32758191D02*
X55825819Y32853429D01*
X55825819Y32853429D02*
X55778200Y32948667D01*
X55778200Y32948667D02*
X55730580Y32996286D01*
X55730580Y32996286D02*
X55635342Y33043905D01*
X55635342Y33043905D02*
X55444866Y33091524D01*
X55444866Y33091524D02*
X55206771Y33091524D01*
X55206771Y33091524D02*
X55016295Y33043905D01*
X55016295Y33043905D02*
X54921057Y32996286D01*
X54921057Y32996286D02*
X54873438Y32948667D01*
X54873438Y32948667D02*
X54825819Y32853429D01*
X36267819Y51061858D02*
X35791628Y51395191D01*
X36267819Y51633286D02*
X35267819Y51633286D01*
X35267819Y51633286D02*
X35267819Y51252334D01*
X35267819Y51252334D02*
X35315438Y51157096D01*
X35315438Y51157096D02*
X35363057Y51109477D01*
X35363057Y51109477D02*
X35458295Y51061858D01*
X35458295Y51061858D02*
X35601152Y51061858D01*
X35601152Y51061858D02*
X35696390Y51109477D01*
X35696390Y51109477D02*
X35744009Y51157096D01*
X35744009Y51157096D02*
X35791628Y51252334D01*
X35791628Y51252334D02*
X35791628Y51633286D01*
X35363057Y50680905D02*
X35315438Y50633286D01*
X35315438Y50633286D02*
X35267819Y50538048D01*
X35267819Y50538048D02*
X35267819Y50299953D01*
X35267819Y50299953D02*
X35315438Y50204715D01*
X35315438Y50204715D02*
X35363057Y50157096D01*
X35363057Y50157096D02*
X35458295Y50109477D01*
X35458295Y50109477D02*
X35553533Y50109477D01*
X35553533Y50109477D02*
X35696390Y50157096D01*
X35696390Y50157096D02*
X36267819Y50728524D01*
X36267819Y50728524D02*
X36267819Y50109477D01*
X35267819Y49776143D02*
X35267819Y49157096D01*
X35267819Y49157096D02*
X35648771Y49490429D01*
X35648771Y49490429D02*
X35648771Y49347572D01*
X35648771Y49347572D02*
X35696390Y49252334D01*
X35696390Y49252334D02*
X35744009Y49204715D01*
X35744009Y49204715D02*
X35839247Y49157096D01*
X35839247Y49157096D02*
X36077342Y49157096D01*
X36077342Y49157096D02*
X36172580Y49204715D01*
X36172580Y49204715D02*
X36220200Y49252334D01*
X36220200Y49252334D02*
X36267819Y49347572D01*
X36267819Y49347572D02*
X36267819Y49633286D01*
X36267819Y49633286D02*
X36220200Y49728524D01*
X36220200Y49728524D02*
X36172580Y49776143D01*
X44457857Y37011181D02*
X44791190Y37487372D01*
X45029285Y37011181D02*
X45029285Y38011181D01*
X45029285Y38011181D02*
X44648333Y38011181D01*
X44648333Y38011181D02*
X44553095Y37963562D01*
X44553095Y37963562D02*
X44505476Y37915943D01*
X44505476Y37915943D02*
X44457857Y37820705D01*
X44457857Y37820705D02*
X44457857Y37677848D01*
X44457857Y37677848D02*
X44505476Y37582610D01*
X44505476Y37582610D02*
X44553095Y37534991D01*
X44553095Y37534991D02*
X44648333Y37487372D01*
X44648333Y37487372D02*
X45029285Y37487372D01*
X44076904Y37915943D02*
X44029285Y37963562D01*
X44029285Y37963562D02*
X43934047Y38011181D01*
X43934047Y38011181D02*
X43695952Y38011181D01*
X43695952Y38011181D02*
X43600714Y37963562D01*
X43600714Y37963562D02*
X43553095Y37915943D01*
X43553095Y37915943D02*
X43505476Y37820705D01*
X43505476Y37820705D02*
X43505476Y37725467D01*
X43505476Y37725467D02*
X43553095Y37582610D01*
X43553095Y37582610D02*
X44124523Y37011181D01*
X44124523Y37011181D02*
X43505476Y37011181D01*
X42648333Y37677848D02*
X42648333Y37011181D01*
X42886428Y38058800D02*
X43124523Y37344515D01*
X43124523Y37344515D02*
X42505476Y37344515D01*
X40460819Y42679858D02*
X39984628Y43013191D01*
X40460819Y43251286D02*
X39460819Y43251286D01*
X39460819Y43251286D02*
X39460819Y42870334D01*
X39460819Y42870334D02*
X39508438Y42775096D01*
X39508438Y42775096D02*
X39556057Y42727477D01*
X39556057Y42727477D02*
X39651295Y42679858D01*
X39651295Y42679858D02*
X39794152Y42679858D01*
X39794152Y42679858D02*
X39889390Y42727477D01*
X39889390Y42727477D02*
X39937009Y42775096D01*
X39937009Y42775096D02*
X39984628Y42870334D01*
X39984628Y42870334D02*
X39984628Y43251286D01*
X39556057Y42298905D02*
X39508438Y42251286D01*
X39508438Y42251286D02*
X39460819Y42156048D01*
X39460819Y42156048D02*
X39460819Y41917953D01*
X39460819Y41917953D02*
X39508438Y41822715D01*
X39508438Y41822715D02*
X39556057Y41775096D01*
X39556057Y41775096D02*
X39651295Y41727477D01*
X39651295Y41727477D02*
X39746533Y41727477D01*
X39746533Y41727477D02*
X39889390Y41775096D01*
X39889390Y41775096D02*
X40460819Y42346524D01*
X40460819Y42346524D02*
X40460819Y41727477D01*
X39460819Y41394143D02*
X39460819Y40727477D01*
X39460819Y40727477D02*
X40460819Y41156048D01*
X22678819Y46362858D02*
X22202628Y46696191D01*
X22678819Y46934286D02*
X21678819Y46934286D01*
X21678819Y46934286D02*
X21678819Y46553334D01*
X21678819Y46553334D02*
X21726438Y46458096D01*
X21726438Y46458096D02*
X21774057Y46410477D01*
X21774057Y46410477D02*
X21869295Y46362858D01*
X21869295Y46362858D02*
X22012152Y46362858D01*
X22012152Y46362858D02*
X22107390Y46410477D01*
X22107390Y46410477D02*
X22155009Y46458096D01*
X22155009Y46458096D02*
X22202628Y46553334D01*
X22202628Y46553334D02*
X22202628Y46934286D01*
X21774057Y45981905D02*
X21726438Y45934286D01*
X21726438Y45934286D02*
X21678819Y45839048D01*
X21678819Y45839048D02*
X21678819Y45600953D01*
X21678819Y45600953D02*
X21726438Y45505715D01*
X21726438Y45505715D02*
X21774057Y45458096D01*
X21774057Y45458096D02*
X21869295Y45410477D01*
X21869295Y45410477D02*
X21964533Y45410477D01*
X21964533Y45410477D02*
X22107390Y45458096D01*
X22107390Y45458096D02*
X22678819Y46029524D01*
X22678819Y46029524D02*
X22678819Y45410477D01*
X22107390Y44839048D02*
X22059771Y44934286D01*
X22059771Y44934286D02*
X22012152Y44981905D01*
X22012152Y44981905D02*
X21916914Y45029524D01*
X21916914Y45029524D02*
X21869295Y45029524D01*
X21869295Y45029524D02*
X21774057Y44981905D01*
X21774057Y44981905D02*
X21726438Y44934286D01*
X21726438Y44934286D02*
X21678819Y44839048D01*
X21678819Y44839048D02*
X21678819Y44648572D01*
X21678819Y44648572D02*
X21726438Y44553334D01*
X21726438Y44553334D02*
X21774057Y44505715D01*
X21774057Y44505715D02*
X21869295Y44458096D01*
X21869295Y44458096D02*
X21916914Y44458096D01*
X21916914Y44458096D02*
X22012152Y44505715D01*
X22012152Y44505715D02*
X22059771Y44553334D01*
X22059771Y44553334D02*
X22107390Y44648572D01*
X22107390Y44648572D02*
X22107390Y44839048D01*
X22107390Y44839048D02*
X22155009Y44934286D01*
X22155009Y44934286D02*
X22202628Y44981905D01*
X22202628Y44981905D02*
X22297866Y45029524D01*
X22297866Y45029524D02*
X22488342Y45029524D01*
X22488342Y45029524D02*
X22583580Y44981905D01*
X22583580Y44981905D02*
X22631200Y44934286D01*
X22631200Y44934286D02*
X22678819Y44839048D01*
X22678819Y44839048D02*
X22678819Y44648572D01*
X22678819Y44648572D02*
X22631200Y44553334D01*
X22631200Y44553334D02*
X22583580Y44505715D01*
X22583580Y44505715D02*
X22488342Y44458096D01*
X22488342Y44458096D02*
X22297866Y44458096D01*
X22297866Y44458096D02*
X22202628Y44505715D01*
X22202628Y44505715D02*
X22155009Y44553334D01*
X22155009Y44553334D02*
X22107390Y44648572D01*
X14257257Y42929381D02*
X14590590Y43405572D01*
X14828685Y42929381D02*
X14828685Y43929381D01*
X14828685Y43929381D02*
X14447733Y43929381D01*
X14447733Y43929381D02*
X14352495Y43881762D01*
X14352495Y43881762D02*
X14304876Y43834143D01*
X14304876Y43834143D02*
X14257257Y43738905D01*
X14257257Y43738905D02*
X14257257Y43596048D01*
X14257257Y43596048D02*
X14304876Y43500810D01*
X14304876Y43500810D02*
X14352495Y43453191D01*
X14352495Y43453191D02*
X14447733Y43405572D01*
X14447733Y43405572D02*
X14828685Y43405572D01*
X13923923Y43929381D02*
X13304876Y43929381D01*
X13304876Y43929381D02*
X13638209Y43548429D01*
X13638209Y43548429D02*
X13495352Y43548429D01*
X13495352Y43548429D02*
X13400114Y43500810D01*
X13400114Y43500810D02*
X13352495Y43453191D01*
X13352495Y43453191D02*
X13304876Y43357953D01*
X13304876Y43357953D02*
X13304876Y43119858D01*
X13304876Y43119858D02*
X13352495Y43024620D01*
X13352495Y43024620D02*
X13400114Y42977000D01*
X13400114Y42977000D02*
X13495352Y42929381D01*
X13495352Y42929381D02*
X13781066Y42929381D01*
X13781066Y42929381D02*
X13876304Y42977000D01*
X13876304Y42977000D02*
X13923923Y43024620D01*
X12923923Y43834143D02*
X12876304Y43881762D01*
X12876304Y43881762D02*
X12781066Y43929381D01*
X12781066Y43929381D02*
X12542971Y43929381D01*
X12542971Y43929381D02*
X12447733Y43881762D01*
X12447733Y43881762D02*
X12400114Y43834143D01*
X12400114Y43834143D02*
X12352495Y43738905D01*
X12352495Y43738905D02*
X12352495Y43643667D01*
X12352495Y43643667D02*
X12400114Y43500810D01*
X12400114Y43500810D02*
X12971542Y42929381D01*
X12971542Y42929381D02*
X12352495Y42929381D01*
X14485857Y23803181D02*
X14819190Y24279372D01*
X15057285Y23803181D02*
X15057285Y24803181D01*
X15057285Y24803181D02*
X14676333Y24803181D01*
X14676333Y24803181D02*
X14581095Y24755562D01*
X14581095Y24755562D02*
X14533476Y24707943D01*
X14533476Y24707943D02*
X14485857Y24612705D01*
X14485857Y24612705D02*
X14485857Y24469848D01*
X14485857Y24469848D02*
X14533476Y24374610D01*
X14533476Y24374610D02*
X14581095Y24326991D01*
X14581095Y24326991D02*
X14676333Y24279372D01*
X14676333Y24279372D02*
X15057285Y24279372D01*
X14152523Y24803181D02*
X13533476Y24803181D01*
X13533476Y24803181D02*
X13866809Y24422229D01*
X13866809Y24422229D02*
X13723952Y24422229D01*
X13723952Y24422229D02*
X13628714Y24374610D01*
X13628714Y24374610D02*
X13581095Y24326991D01*
X13581095Y24326991D02*
X13533476Y24231753D01*
X13533476Y24231753D02*
X13533476Y23993658D01*
X13533476Y23993658D02*
X13581095Y23898420D01*
X13581095Y23898420D02*
X13628714Y23850800D01*
X13628714Y23850800D02*
X13723952Y23803181D01*
X13723952Y23803181D02*
X14009666Y23803181D01*
X14009666Y23803181D02*
X14104904Y23850800D01*
X14104904Y23850800D02*
X14152523Y23898420D01*
X13200142Y24803181D02*
X12581095Y24803181D01*
X12581095Y24803181D02*
X12914428Y24422229D01*
X12914428Y24422229D02*
X12771571Y24422229D01*
X12771571Y24422229D02*
X12676333Y24374610D01*
X12676333Y24374610D02*
X12628714Y24326991D01*
X12628714Y24326991D02*
X12581095Y24231753D01*
X12581095Y24231753D02*
X12581095Y23993658D01*
X12581095Y23993658D02*
X12628714Y23898420D01*
X12628714Y23898420D02*
X12676333Y23850800D01*
X12676333Y23850800D02*
X12771571Y23803181D01*
X12771571Y23803181D02*
X13057285Y23803181D01*
X13057285Y23803181D02*
X13152523Y23850800D01*
X13152523Y23850800D02*
X13200142Y23898420D01*
X38647666Y33074181D02*
X38980999Y33550372D01*
X39219094Y33074181D02*
X39219094Y34074181D01*
X39219094Y34074181D02*
X38838142Y34074181D01*
X38838142Y34074181D02*
X38742904Y34026562D01*
X38742904Y34026562D02*
X38695285Y33978943D01*
X38695285Y33978943D02*
X38647666Y33883705D01*
X38647666Y33883705D02*
X38647666Y33740848D01*
X38647666Y33740848D02*
X38695285Y33645610D01*
X38695285Y33645610D02*
X38742904Y33597991D01*
X38742904Y33597991D02*
X38838142Y33550372D01*
X38838142Y33550372D02*
X39219094Y33550372D01*
X37790523Y33740848D02*
X37790523Y33074181D01*
X38028618Y34121800D02*
X38266713Y33407515D01*
X38266713Y33407515D02*
X37647666Y33407515D01*
X17838380Y41746467D02*
X17886000Y41794086D01*
X17886000Y41794086D02*
X17933619Y41936943D01*
X17933619Y41936943D02*
X17933619Y42032181D01*
X17933619Y42032181D02*
X17886000Y42175038D01*
X17886000Y42175038D02*
X17790761Y42270276D01*
X17790761Y42270276D02*
X17695523Y42317895D01*
X17695523Y42317895D02*
X17505047Y42365514D01*
X17505047Y42365514D02*
X17362190Y42365514D01*
X17362190Y42365514D02*
X17171714Y42317895D01*
X17171714Y42317895D02*
X17076476Y42270276D01*
X17076476Y42270276D02*
X16981238Y42175038D01*
X16981238Y42175038D02*
X16933619Y42032181D01*
X16933619Y42032181D02*
X16933619Y41936943D01*
X16933619Y41936943D02*
X16981238Y41794086D01*
X16981238Y41794086D02*
X17028857Y41746467D01*
X17266952Y40889324D02*
X17933619Y40889324D01*
X16886000Y41127419D02*
X17600285Y41365514D01*
X17600285Y41365514D02*
X17600285Y40746467D01*
X20073580Y41695667D02*
X20121200Y41743286D01*
X20121200Y41743286D02*
X20168819Y41886143D01*
X20168819Y41886143D02*
X20168819Y41981381D01*
X20168819Y41981381D02*
X20121200Y42124238D01*
X20121200Y42124238D02*
X20025961Y42219476D01*
X20025961Y42219476D02*
X19930723Y42267095D01*
X19930723Y42267095D02*
X19740247Y42314714D01*
X19740247Y42314714D02*
X19597390Y42314714D01*
X19597390Y42314714D02*
X19406914Y42267095D01*
X19406914Y42267095D02*
X19311676Y42219476D01*
X19311676Y42219476D02*
X19216438Y42124238D01*
X19216438Y42124238D02*
X19168819Y41981381D01*
X19168819Y41981381D02*
X19168819Y41886143D01*
X19168819Y41886143D02*
X19216438Y41743286D01*
X19216438Y41743286D02*
X19264057Y41695667D01*
X19168819Y41362333D02*
X19168819Y40743286D01*
X19168819Y40743286D02*
X19549771Y41076619D01*
X19549771Y41076619D02*
X19549771Y40933762D01*
X19549771Y40933762D02*
X19597390Y40838524D01*
X19597390Y40838524D02*
X19645009Y40790905D01*
X19645009Y40790905D02*
X19740247Y40743286D01*
X19740247Y40743286D02*
X19978342Y40743286D01*
X19978342Y40743286D02*
X20073580Y40790905D01*
X20073580Y40790905D02*
X20121200Y40838524D01*
X20121200Y40838524D02*
X20168819Y40933762D01*
X20168819Y40933762D02*
X20168819Y41219476D01*
X20168819Y41219476D02*
X20121200Y41314714D01*
X20121200Y41314714D02*
X20073580Y41362333D01*
X22283380Y41644867D02*
X22331000Y41692486D01*
X22331000Y41692486D02*
X22378619Y41835343D01*
X22378619Y41835343D02*
X22378619Y41930581D01*
X22378619Y41930581D02*
X22331000Y42073438D01*
X22331000Y42073438D02*
X22235761Y42168676D01*
X22235761Y42168676D02*
X22140523Y42216295D01*
X22140523Y42216295D02*
X21950047Y42263914D01*
X21950047Y42263914D02*
X21807190Y42263914D01*
X21807190Y42263914D02*
X21616714Y42216295D01*
X21616714Y42216295D02*
X21521476Y42168676D01*
X21521476Y42168676D02*
X21426238Y42073438D01*
X21426238Y42073438D02*
X21378619Y41930581D01*
X21378619Y41930581D02*
X21378619Y41835343D01*
X21378619Y41835343D02*
X21426238Y41692486D01*
X21426238Y41692486D02*
X21473857Y41644867D01*
X21473857Y41263914D02*
X21426238Y41216295D01*
X21426238Y41216295D02*
X21378619Y41121057D01*
X21378619Y41121057D02*
X21378619Y40882962D01*
X21378619Y40882962D02*
X21426238Y40787724D01*
X21426238Y40787724D02*
X21473857Y40740105D01*
X21473857Y40740105D02*
X21569095Y40692486D01*
X21569095Y40692486D02*
X21664333Y40692486D01*
X21664333Y40692486D02*
X21807190Y40740105D01*
X21807190Y40740105D02*
X22378619Y41311533D01*
X22378619Y41311533D02*
X22378619Y40692486D01*
X37726580Y29725858D02*
X37774200Y29773477D01*
X37774200Y29773477D02*
X37821819Y29916334D01*
X37821819Y29916334D02*
X37821819Y30011572D01*
X37821819Y30011572D02*
X37774200Y30154429D01*
X37774200Y30154429D02*
X37678961Y30249667D01*
X37678961Y30249667D02*
X37583723Y30297286D01*
X37583723Y30297286D02*
X37393247Y30344905D01*
X37393247Y30344905D02*
X37250390Y30344905D01*
X37250390Y30344905D02*
X37059914Y30297286D01*
X37059914Y30297286D02*
X36964676Y30249667D01*
X36964676Y30249667D02*
X36869438Y30154429D01*
X36869438Y30154429D02*
X36821819Y30011572D01*
X36821819Y30011572D02*
X36821819Y29916334D01*
X36821819Y29916334D02*
X36869438Y29773477D01*
X36869438Y29773477D02*
X36917057Y29725858D01*
X37821819Y28773477D02*
X37821819Y29344905D01*
X37821819Y29059191D02*
X36821819Y29059191D01*
X36821819Y29059191D02*
X36964676Y29154429D01*
X36964676Y29154429D02*
X37059914Y29249667D01*
X37059914Y29249667D02*
X37107533Y29344905D01*
X36821819Y28154429D02*
X36821819Y28059191D01*
X36821819Y28059191D02*
X36869438Y27963953D01*
X36869438Y27963953D02*
X36917057Y27916334D01*
X36917057Y27916334D02*
X37012295Y27868715D01*
X37012295Y27868715D02*
X37202771Y27821096D01*
X37202771Y27821096D02*
X37440866Y27821096D01*
X37440866Y27821096D02*
X37631342Y27868715D01*
X37631342Y27868715D02*
X37726580Y27916334D01*
X37726580Y27916334D02*
X37774200Y27963953D01*
X37774200Y27963953D02*
X37821819Y28059191D01*
X37821819Y28059191D02*
X37821819Y28154429D01*
X37821819Y28154429D02*
X37774200Y28249667D01*
X37774200Y28249667D02*
X37726580Y28297286D01*
X37726580Y28297286D02*
X37631342Y28344905D01*
X37631342Y28344905D02*
X37440866Y28392524D01*
X37440866Y28392524D02*
X37202771Y28392524D01*
X37202771Y28392524D02*
X37012295Y28344905D01*
X37012295Y28344905D02*
X36917057Y28297286D01*
X36917057Y28297286D02*
X36869438Y28249667D01*
X36869438Y28249667D02*
X36821819Y28154429D01*
X17725819Y33186667D02*
X17249628Y33520000D01*
X17725819Y33758095D02*
X16725819Y33758095D01*
X16725819Y33758095D02*
X16725819Y33377143D01*
X16725819Y33377143D02*
X16773438Y33281905D01*
X16773438Y33281905D02*
X16821057Y33234286D01*
X16821057Y33234286D02*
X16916295Y33186667D01*
X16916295Y33186667D02*
X17059152Y33186667D01*
X17059152Y33186667D02*
X17154390Y33234286D01*
X17154390Y33234286D02*
X17202009Y33281905D01*
X17202009Y33281905D02*
X17249628Y33377143D01*
X17249628Y33377143D02*
X17249628Y33758095D01*
X16821057Y32805714D02*
X16773438Y32758095D01*
X16773438Y32758095D02*
X16725819Y32662857D01*
X16725819Y32662857D02*
X16725819Y32424762D01*
X16725819Y32424762D02*
X16773438Y32329524D01*
X16773438Y32329524D02*
X16821057Y32281905D01*
X16821057Y32281905D02*
X16916295Y32234286D01*
X16916295Y32234286D02*
X17011533Y32234286D01*
X17011533Y32234286D02*
X17154390Y32281905D01*
X17154390Y32281905D02*
X17725819Y32853333D01*
X17725819Y32853333D02*
X17725819Y32234286D01*
X78620857Y32564181D02*
X78954190Y33040372D01*
X79192285Y32564181D02*
X79192285Y33564181D01*
X79192285Y33564181D02*
X78811333Y33564181D01*
X78811333Y33564181D02*
X78716095Y33516562D01*
X78716095Y33516562D02*
X78668476Y33468943D01*
X78668476Y33468943D02*
X78620857Y33373705D01*
X78620857Y33373705D02*
X78620857Y33230848D01*
X78620857Y33230848D02*
X78668476Y33135610D01*
X78668476Y33135610D02*
X78716095Y33087991D01*
X78716095Y33087991D02*
X78811333Y33040372D01*
X78811333Y33040372D02*
X79192285Y33040372D01*
X78287523Y33564181D02*
X77668476Y33564181D01*
X77668476Y33564181D02*
X78001809Y33183229D01*
X78001809Y33183229D02*
X77858952Y33183229D01*
X77858952Y33183229D02*
X77763714Y33135610D01*
X77763714Y33135610D02*
X77716095Y33087991D01*
X77716095Y33087991D02*
X77668476Y32992753D01*
X77668476Y32992753D02*
X77668476Y32754658D01*
X77668476Y32754658D02*
X77716095Y32659420D01*
X77716095Y32659420D02*
X77763714Y32611800D01*
X77763714Y32611800D02*
X77858952Y32564181D01*
X77858952Y32564181D02*
X78144666Y32564181D01*
X78144666Y32564181D02*
X78239904Y32611800D01*
X78239904Y32611800D02*
X78287523Y32659420D01*
X76811333Y33230848D02*
X76811333Y32564181D01*
X77049428Y33611800D02*
X77287523Y32897515D01*
X77287523Y32897515D02*
X76668476Y32897515D01*
X40901857Y31927419D02*
X40949476Y31879799D01*
X40949476Y31879799D02*
X41092333Y31832180D01*
X41092333Y31832180D02*
X41187571Y31832180D01*
X41187571Y31832180D02*
X41330428Y31879799D01*
X41330428Y31879799D02*
X41425666Y31975038D01*
X41425666Y31975038D02*
X41473285Y32070276D01*
X41473285Y32070276D02*
X41520904Y32260752D01*
X41520904Y32260752D02*
X41520904Y32403609D01*
X41520904Y32403609D02*
X41473285Y32594085D01*
X41473285Y32594085D02*
X41425666Y32689323D01*
X41425666Y32689323D02*
X41330428Y32784561D01*
X41330428Y32784561D02*
X41187571Y32832180D01*
X41187571Y32832180D02*
X41092333Y32832180D01*
X41092333Y32832180D02*
X40949476Y32784561D01*
X40949476Y32784561D02*
X40901857Y32736942D01*
X39949476Y31832180D02*
X40520904Y31832180D01*
X40235190Y31832180D02*
X40235190Y32832180D01*
X40235190Y32832180D02*
X40330428Y32689323D01*
X40330428Y32689323D02*
X40425666Y32594085D01*
X40425666Y32594085D02*
X40520904Y32546466D01*
X39473285Y31832180D02*
X39282809Y31832180D01*
X39282809Y31832180D02*
X39187571Y31879799D01*
X39187571Y31879799D02*
X39139952Y31927419D01*
X39139952Y31927419D02*
X39044714Y32070276D01*
X39044714Y32070276D02*
X38997095Y32260752D01*
X38997095Y32260752D02*
X38997095Y32641704D01*
X38997095Y32641704D02*
X39044714Y32736942D01*
X39044714Y32736942D02*
X39092333Y32784561D01*
X39092333Y32784561D02*
X39187571Y32832180D01*
X39187571Y32832180D02*
X39378047Y32832180D01*
X39378047Y32832180D02*
X39473285Y32784561D01*
X39473285Y32784561D02*
X39520904Y32736942D01*
X39520904Y32736942D02*
X39568523Y32641704D01*
X39568523Y32641704D02*
X39568523Y32403609D01*
X39568523Y32403609D02*
X39520904Y32308371D01*
X39520904Y32308371D02*
X39473285Y32260752D01*
X39473285Y32260752D02*
X39378047Y32213133D01*
X39378047Y32213133D02*
X39187571Y32213133D01*
X39187571Y32213133D02*
X39092333Y32260752D01*
X39092333Y32260752D02*
X39044714Y32308371D01*
X39044714Y32308371D02*
X38997095Y32403609D01*
X24010857Y30911419D02*
X24058476Y30863799D01*
X24058476Y30863799D02*
X24201333Y30816180D01*
X24201333Y30816180D02*
X24296571Y30816180D01*
X24296571Y30816180D02*
X24439428Y30863799D01*
X24439428Y30863799D02*
X24534666Y30959038D01*
X24534666Y30959038D02*
X24582285Y31054276D01*
X24582285Y31054276D02*
X24629904Y31244752D01*
X24629904Y31244752D02*
X24629904Y31387609D01*
X24629904Y31387609D02*
X24582285Y31578085D01*
X24582285Y31578085D02*
X24534666Y31673323D01*
X24534666Y31673323D02*
X24439428Y31768561D01*
X24439428Y31768561D02*
X24296571Y31816180D01*
X24296571Y31816180D02*
X24201333Y31816180D01*
X24201333Y31816180D02*
X24058476Y31768561D01*
X24058476Y31768561D02*
X24010857Y31720942D01*
X23629904Y31720942D02*
X23582285Y31768561D01*
X23582285Y31768561D02*
X23487047Y31816180D01*
X23487047Y31816180D02*
X23248952Y31816180D01*
X23248952Y31816180D02*
X23153714Y31768561D01*
X23153714Y31768561D02*
X23106095Y31720942D01*
X23106095Y31720942D02*
X23058476Y31625704D01*
X23058476Y31625704D02*
X23058476Y31530466D01*
X23058476Y31530466D02*
X23106095Y31387609D01*
X23106095Y31387609D02*
X23677523Y30816180D01*
X23677523Y30816180D02*
X23058476Y30816180D01*
X22439428Y31816180D02*
X22344190Y31816180D01*
X22344190Y31816180D02*
X22248952Y31768561D01*
X22248952Y31768561D02*
X22201333Y31720942D01*
X22201333Y31720942D02*
X22153714Y31625704D01*
X22153714Y31625704D02*
X22106095Y31435228D01*
X22106095Y31435228D02*
X22106095Y31197133D01*
X22106095Y31197133D02*
X22153714Y31006657D01*
X22153714Y31006657D02*
X22201333Y30911419D01*
X22201333Y30911419D02*
X22248952Y30863799D01*
X22248952Y30863799D02*
X22344190Y30816180D01*
X22344190Y30816180D02*
X22439428Y30816180D01*
X22439428Y30816180D02*
X22534666Y30863799D01*
X22534666Y30863799D02*
X22582285Y30911419D01*
X22582285Y30911419D02*
X22629904Y31006657D01*
X22629904Y31006657D02*
X22677523Y31197133D01*
X22677523Y31197133D02*
X22677523Y31435228D01*
X22677523Y31435228D02*
X22629904Y31625704D01*
X22629904Y31625704D02*
X22582285Y31720942D01*
X22582285Y31720942D02*
X22534666Y31768561D01*
X22534666Y31768561D02*
X22439428Y31816180D01*
X84989819Y33154858D02*
X84513628Y33488191D01*
X84989819Y33726286D02*
X83989819Y33726286D01*
X83989819Y33726286D02*
X83989819Y33345334D01*
X83989819Y33345334D02*
X84037438Y33250096D01*
X84037438Y33250096D02*
X84085057Y33202477D01*
X84085057Y33202477D02*
X84180295Y33154858D01*
X84180295Y33154858D02*
X84323152Y33154858D01*
X84323152Y33154858D02*
X84418390Y33202477D01*
X84418390Y33202477D02*
X84466009Y33250096D01*
X84466009Y33250096D02*
X84513628Y33345334D01*
X84513628Y33345334D02*
X84513628Y33726286D01*
X83989819Y32821524D02*
X83989819Y32202477D01*
X83989819Y32202477D02*
X84370771Y32535810D01*
X84370771Y32535810D02*
X84370771Y32392953D01*
X84370771Y32392953D02*
X84418390Y32297715D01*
X84418390Y32297715D02*
X84466009Y32250096D01*
X84466009Y32250096D02*
X84561247Y32202477D01*
X84561247Y32202477D02*
X84799342Y32202477D01*
X84799342Y32202477D02*
X84894580Y32250096D01*
X84894580Y32250096D02*
X84942200Y32297715D01*
X84942200Y32297715D02*
X84989819Y32392953D01*
X84989819Y32392953D02*
X84989819Y32678667D01*
X84989819Y32678667D02*
X84942200Y32773905D01*
X84942200Y32773905D02*
X84894580Y32821524D01*
X83989819Y31297715D02*
X83989819Y31773905D01*
X83989819Y31773905D02*
X84466009Y31821524D01*
X84466009Y31821524D02*
X84418390Y31773905D01*
X84418390Y31773905D02*
X84370771Y31678667D01*
X84370771Y31678667D02*
X84370771Y31440572D01*
X84370771Y31440572D02*
X84418390Y31345334D01*
X84418390Y31345334D02*
X84466009Y31297715D01*
X84466009Y31297715D02*
X84561247Y31250096D01*
X84561247Y31250096D02*
X84799342Y31250096D01*
X84799342Y31250096D02*
X84894580Y31297715D01*
X84894580Y31297715D02*
X84942200Y31345334D01*
X84942200Y31345334D02*
X84989819Y31440572D01*
X84989819Y31440572D02*
X84989819Y31678667D01*
X84989819Y31678667D02*
X84942200Y31773905D01*
X84942200Y31773905D02*
X84894580Y31821524D01*
X78620857Y34723181D02*
X78954190Y35199372D01*
X79192285Y34723181D02*
X79192285Y35723181D01*
X79192285Y35723181D02*
X78811333Y35723181D01*
X78811333Y35723181D02*
X78716095Y35675562D01*
X78716095Y35675562D02*
X78668476Y35627943D01*
X78668476Y35627943D02*
X78620857Y35532705D01*
X78620857Y35532705D02*
X78620857Y35389848D01*
X78620857Y35389848D02*
X78668476Y35294610D01*
X78668476Y35294610D02*
X78716095Y35246991D01*
X78716095Y35246991D02*
X78811333Y35199372D01*
X78811333Y35199372D02*
X79192285Y35199372D01*
X78287523Y35723181D02*
X77668476Y35723181D01*
X77668476Y35723181D02*
X78001809Y35342229D01*
X78001809Y35342229D02*
X77858952Y35342229D01*
X77858952Y35342229D02*
X77763714Y35294610D01*
X77763714Y35294610D02*
X77716095Y35246991D01*
X77716095Y35246991D02*
X77668476Y35151753D01*
X77668476Y35151753D02*
X77668476Y34913658D01*
X77668476Y34913658D02*
X77716095Y34818420D01*
X77716095Y34818420D02*
X77763714Y34770800D01*
X77763714Y34770800D02*
X77858952Y34723181D01*
X77858952Y34723181D02*
X78144666Y34723181D01*
X78144666Y34723181D02*
X78239904Y34770800D01*
X78239904Y34770800D02*
X78287523Y34818420D01*
X76811333Y35723181D02*
X77001809Y35723181D01*
X77001809Y35723181D02*
X77097047Y35675562D01*
X77097047Y35675562D02*
X77144666Y35627943D01*
X77144666Y35627943D02*
X77239904Y35485086D01*
X77239904Y35485086D02*
X77287523Y35294610D01*
X77287523Y35294610D02*
X77287523Y34913658D01*
X77287523Y34913658D02*
X77239904Y34818420D01*
X77239904Y34818420D02*
X77192285Y34770800D01*
X77192285Y34770800D02*
X77097047Y34723181D01*
X77097047Y34723181D02*
X76906571Y34723181D01*
X76906571Y34723181D02*
X76811333Y34770800D01*
X76811333Y34770800D02*
X76763714Y34818420D01*
X76763714Y34818420D02*
X76716095Y34913658D01*
X76716095Y34913658D02*
X76716095Y35151753D01*
X76716095Y35151753D02*
X76763714Y35246991D01*
X76763714Y35246991D02*
X76811333Y35294610D01*
X76811333Y35294610D02*
X76906571Y35342229D01*
X76906571Y35342229D02*
X77097047Y35342229D01*
X77097047Y35342229D02*
X77192285Y35294610D01*
X77192285Y35294610D02*
X77239904Y35246991D01*
X77239904Y35246991D02*
X77287523Y35151753D01*
X15568819Y54109858D02*
X15092628Y54443191D01*
X15568819Y54681286D02*
X14568819Y54681286D01*
X14568819Y54681286D02*
X14568819Y54300334D01*
X14568819Y54300334D02*
X14616438Y54205096D01*
X14616438Y54205096D02*
X14664057Y54157477D01*
X14664057Y54157477D02*
X14759295Y54109858D01*
X14759295Y54109858D02*
X14902152Y54109858D01*
X14902152Y54109858D02*
X14997390Y54157477D01*
X14997390Y54157477D02*
X15045009Y54205096D01*
X15045009Y54205096D02*
X15092628Y54300334D01*
X15092628Y54300334D02*
X15092628Y54681286D01*
X14664057Y53728905D02*
X14616438Y53681286D01*
X14616438Y53681286D02*
X14568819Y53586048D01*
X14568819Y53586048D02*
X14568819Y53347953D01*
X14568819Y53347953D02*
X14616438Y53252715D01*
X14616438Y53252715D02*
X14664057Y53205096D01*
X14664057Y53205096D02*
X14759295Y53157477D01*
X14759295Y53157477D02*
X14854533Y53157477D01*
X14854533Y53157477D02*
X14997390Y53205096D01*
X14997390Y53205096D02*
X15568819Y53776524D01*
X15568819Y53776524D02*
X15568819Y53157477D01*
X14664057Y52776524D02*
X14616438Y52728905D01*
X14616438Y52728905D02*
X14568819Y52633667D01*
X14568819Y52633667D02*
X14568819Y52395572D01*
X14568819Y52395572D02*
X14616438Y52300334D01*
X14616438Y52300334D02*
X14664057Y52252715D01*
X14664057Y52252715D02*
X14759295Y52205096D01*
X14759295Y52205096D02*
X14854533Y52205096D01*
X14854533Y52205096D02*
X14997390Y52252715D01*
X14997390Y52252715D02*
X15568819Y52824143D01*
X15568819Y52824143D02*
X15568819Y52205096D01*
X29178238Y47969943D02*
X29273476Y48017562D01*
X29273476Y48017562D02*
X29368714Y48112800D01*
X29368714Y48112800D02*
X29511571Y48255658D01*
X29511571Y48255658D02*
X29606809Y48303277D01*
X29606809Y48303277D02*
X29702047Y48303277D01*
X29654428Y48065181D02*
X29749666Y48112800D01*
X29749666Y48112800D02*
X29844904Y48208039D01*
X29844904Y48208039D02*
X29892523Y48398515D01*
X29892523Y48398515D02*
X29892523Y48731848D01*
X29892523Y48731848D02*
X29844904Y48922324D01*
X29844904Y48922324D02*
X29749666Y49017562D01*
X29749666Y49017562D02*
X29654428Y49065181D01*
X29654428Y49065181D02*
X29463952Y49065181D01*
X29463952Y49065181D02*
X29368714Y49017562D01*
X29368714Y49017562D02*
X29273476Y48922324D01*
X29273476Y48922324D02*
X29225857Y48731848D01*
X29225857Y48731848D02*
X29225857Y48398515D01*
X29225857Y48398515D02*
X29273476Y48208039D01*
X29273476Y48208039D02*
X29368714Y48112800D01*
X29368714Y48112800D02*
X29463952Y48065181D01*
X29463952Y48065181D02*
X29654428Y48065181D01*
X28321095Y49065181D02*
X28797285Y49065181D01*
X28797285Y49065181D02*
X28844904Y48588991D01*
X28844904Y48588991D02*
X28797285Y48636610D01*
X28797285Y48636610D02*
X28702047Y48684229D01*
X28702047Y48684229D02*
X28463952Y48684229D01*
X28463952Y48684229D02*
X28368714Y48636610D01*
X28368714Y48636610D02*
X28321095Y48588991D01*
X28321095Y48588991D02*
X28273476Y48493753D01*
X28273476Y48493753D02*
X28273476Y48255658D01*
X28273476Y48255658D02*
X28321095Y48160420D01*
X28321095Y48160420D02*
X28368714Y48112800D01*
X28368714Y48112800D02*
X28463952Y48065181D01*
X28463952Y48065181D02*
X28702047Y48065181D01*
X28702047Y48065181D02*
X28797285Y48112800D01*
X28797285Y48112800D02*
X28844904Y48160420D01*
X3611428Y69731991D02*
X3944761Y69731991D01*
X3944761Y69208181D02*
X3944761Y70208181D01*
X3944761Y70208181D02*
X3468571Y70208181D01*
X3087618Y69208181D02*
X3087618Y70208181D01*
X2611428Y69208181D02*
X2611428Y70208181D01*
X2611428Y70208181D02*
X2373333Y70208181D01*
X2373333Y70208181D02*
X2230476Y70160562D01*
X2230476Y70160562D02*
X2135238Y70065324D01*
X2135238Y70065324D02*
X2087619Y69970086D01*
X2087619Y69970086D02*
X2040000Y69779610D01*
X2040000Y69779610D02*
X2040000Y69636753D01*
X2040000Y69636753D02*
X2087619Y69446277D01*
X2087619Y69446277D02*
X2135238Y69351039D01*
X2135238Y69351039D02*
X2230476Y69255800D01*
X2230476Y69255800D02*
X2373333Y69208181D01*
X2373333Y69208181D02*
X2611428Y69208181D01*
X1182857Y69874848D02*
X1182857Y69208181D01*
X1420952Y70255800D02*
X1659047Y69541515D01*
X1659047Y69541515D02*
X1040000Y69541515D01*
X7802428Y8799991D02*
X8135761Y8799991D01*
X8135761Y8276181D02*
X8135761Y9276181D01*
X8135761Y9276181D02*
X7659571Y9276181D01*
X7278618Y8276181D02*
X7278618Y9276181D01*
X6802428Y8276181D02*
X6802428Y9276181D01*
X6802428Y9276181D02*
X6564333Y9276181D01*
X6564333Y9276181D02*
X6421476Y9228562D01*
X6421476Y9228562D02*
X6326238Y9133324D01*
X6326238Y9133324D02*
X6278619Y9038086D01*
X6278619Y9038086D02*
X6231000Y8847610D01*
X6231000Y8847610D02*
X6231000Y8704753D01*
X6231000Y8704753D02*
X6278619Y8514277D01*
X6278619Y8514277D02*
X6326238Y8419039D01*
X6326238Y8419039D02*
X6421476Y8323800D01*
X6421476Y8323800D02*
X6564333Y8276181D01*
X6564333Y8276181D02*
X6802428Y8276181D01*
X5278619Y8276181D02*
X5850047Y8276181D01*
X5564333Y8276181D02*
X5564333Y9276181D01*
X5564333Y9276181D02*
X5659571Y9133324D01*
X5659571Y9133324D02*
X5754809Y9038086D01*
X5754809Y9038086D02*
X5850047Y8990467D01*
X21812238Y55069943D02*
X21907476Y55117562D01*
X21907476Y55117562D02*
X22002714Y55212800D01*
X22002714Y55212800D02*
X22145571Y55355658D01*
X22145571Y55355658D02*
X22240809Y55403277D01*
X22240809Y55403277D02*
X22336047Y55403277D01*
X22288428Y55165181D02*
X22383666Y55212800D01*
X22383666Y55212800D02*
X22478904Y55308039D01*
X22478904Y55308039D02*
X22526523Y55498515D01*
X22526523Y55498515D02*
X22526523Y55831848D01*
X22526523Y55831848D02*
X22478904Y56022324D01*
X22478904Y56022324D02*
X22383666Y56117562D01*
X22383666Y56117562D02*
X22288428Y56165181D01*
X22288428Y56165181D02*
X22097952Y56165181D01*
X22097952Y56165181D02*
X22002714Y56117562D01*
X22002714Y56117562D02*
X21907476Y56022324D01*
X21907476Y56022324D02*
X21859857Y55831848D01*
X21859857Y55831848D02*
X21859857Y55498515D01*
X21859857Y55498515D02*
X21907476Y55308039D01*
X21907476Y55308039D02*
X22002714Y55212800D01*
X22002714Y55212800D02*
X22097952Y55165181D01*
X22097952Y55165181D02*
X22288428Y55165181D01*
X21526523Y56165181D02*
X20907476Y56165181D01*
X20907476Y56165181D02*
X21240809Y55784229D01*
X21240809Y55784229D02*
X21097952Y55784229D01*
X21097952Y55784229D02*
X21002714Y55736610D01*
X21002714Y55736610D02*
X20955095Y55688991D01*
X20955095Y55688991D02*
X20907476Y55593753D01*
X20907476Y55593753D02*
X20907476Y55355658D01*
X20907476Y55355658D02*
X20955095Y55260420D01*
X20955095Y55260420D02*
X21002714Y55212800D01*
X21002714Y55212800D02*
X21097952Y55165181D01*
X21097952Y55165181D02*
X21383666Y55165181D01*
X21383666Y55165181D02*
X21478904Y55212800D01*
X21478904Y55212800D02*
X21526523Y55260420D01*
X38823819Y41417714D02*
X38823819Y40846286D01*
X39823819Y41132000D02*
X38823819Y41132000D01*
X39823819Y40512952D02*
X38823819Y40512952D01*
X39300009Y40512952D02*
X39300009Y39941524D01*
X39823819Y39941524D02*
X38823819Y39941524D01*
X38823819Y39560571D02*
X38823819Y38941524D01*
X38823819Y38941524D02*
X39204771Y39274857D01*
X39204771Y39274857D02*
X39204771Y39132000D01*
X39204771Y39132000D02*
X39252390Y39036762D01*
X39252390Y39036762D02*
X39300009Y38989143D01*
X39300009Y38989143D02*
X39395247Y38941524D01*
X39395247Y38941524D02*
X39633342Y38941524D01*
X39633342Y38941524D02*
X39728580Y38989143D01*
X39728580Y38989143D02*
X39776200Y39036762D01*
X39776200Y39036762D02*
X39823819Y39132000D01*
X39823819Y39132000D02*
X39823819Y39417714D01*
X39823819Y39417714D02*
X39776200Y39512952D01*
X39776200Y39512952D02*
X39728580Y39560571D01*
X21539580Y25026858D02*
X21587200Y25074477D01*
X21587200Y25074477D02*
X21634819Y25217334D01*
X21634819Y25217334D02*
X21634819Y25312572D01*
X21634819Y25312572D02*
X21587200Y25455429D01*
X21587200Y25455429D02*
X21491961Y25550667D01*
X21491961Y25550667D02*
X21396723Y25598286D01*
X21396723Y25598286D02*
X21206247Y25645905D01*
X21206247Y25645905D02*
X21063390Y25645905D01*
X21063390Y25645905D02*
X20872914Y25598286D01*
X20872914Y25598286D02*
X20777676Y25550667D01*
X20777676Y25550667D02*
X20682438Y25455429D01*
X20682438Y25455429D02*
X20634819Y25312572D01*
X20634819Y25312572D02*
X20634819Y25217334D01*
X20634819Y25217334D02*
X20682438Y25074477D01*
X20682438Y25074477D02*
X20730057Y25026858D01*
X20730057Y24645905D02*
X20682438Y24598286D01*
X20682438Y24598286D02*
X20634819Y24503048D01*
X20634819Y24503048D02*
X20634819Y24264953D01*
X20634819Y24264953D02*
X20682438Y24169715D01*
X20682438Y24169715D02*
X20730057Y24122096D01*
X20730057Y24122096D02*
X20825295Y24074477D01*
X20825295Y24074477D02*
X20920533Y24074477D01*
X20920533Y24074477D02*
X21063390Y24122096D01*
X21063390Y24122096D02*
X21634819Y24693524D01*
X21634819Y24693524D02*
X21634819Y24074477D01*
X20634819Y23741143D02*
X20634819Y23074477D01*
X20634819Y23074477D02*
X21634819Y23503048D01*
X85780428Y66457991D02*
X86113761Y66457991D01*
X86113761Y65934181D02*
X86113761Y66934181D01*
X86113761Y66934181D02*
X85637571Y66934181D01*
X85256618Y65934181D02*
X85256618Y66934181D01*
X84780428Y65934181D02*
X84780428Y66934181D01*
X84780428Y66934181D02*
X84542333Y66934181D01*
X84542333Y66934181D02*
X84399476Y66886562D01*
X84399476Y66886562D02*
X84304238Y66791324D01*
X84304238Y66791324D02*
X84256619Y66696086D01*
X84256619Y66696086D02*
X84209000Y66505610D01*
X84209000Y66505610D02*
X84209000Y66362753D01*
X84209000Y66362753D02*
X84256619Y66172277D01*
X84256619Y66172277D02*
X84304238Y66077039D01*
X84304238Y66077039D02*
X84399476Y65981800D01*
X84399476Y65981800D02*
X84542333Y65934181D01*
X84542333Y65934181D02*
X84780428Y65934181D01*
X83828047Y66838943D02*
X83780428Y66886562D01*
X83780428Y66886562D02*
X83685190Y66934181D01*
X83685190Y66934181D02*
X83447095Y66934181D01*
X83447095Y66934181D02*
X83351857Y66886562D01*
X83351857Y66886562D02*
X83304238Y66838943D01*
X83304238Y66838943D02*
X83256619Y66743705D01*
X83256619Y66743705D02*
X83256619Y66648467D01*
X83256619Y66648467D02*
X83304238Y66505610D01*
X83304238Y66505610D02*
X83875666Y65934181D01*
X83875666Y65934181D02*
X83256619Y65934181D01*
X47713819Y35575714D02*
X47713819Y35004286D01*
X48713819Y35290000D02*
X47713819Y35290000D01*
X48713819Y34670952D02*
X47713819Y34670952D01*
X48190009Y34670952D02*
X48190009Y34099524D01*
X48713819Y34099524D02*
X47713819Y34099524D01*
X48047152Y33194762D02*
X48713819Y33194762D01*
X47666200Y33432857D02*
X48380485Y33670952D01*
X48380485Y33670952D02*
X48380485Y33051905D01*
X53539819Y34520095D02*
X52539819Y34520095D01*
X52539819Y34520095D02*
X52539819Y34282000D01*
X52539819Y34282000D02*
X52587438Y34139143D01*
X52587438Y34139143D02*
X52682676Y34043905D01*
X52682676Y34043905D02*
X52777914Y33996286D01*
X52777914Y33996286D02*
X52968390Y33948667D01*
X52968390Y33948667D02*
X53111247Y33948667D01*
X53111247Y33948667D02*
X53301723Y33996286D01*
X53301723Y33996286D02*
X53396961Y34043905D01*
X53396961Y34043905D02*
X53492200Y34139143D01*
X53492200Y34139143D02*
X53539819Y34282000D01*
X53539819Y34282000D02*
X53539819Y34520095D01*
X52539819Y33091524D02*
X52539819Y33282000D01*
X52539819Y33282000D02*
X52587438Y33377238D01*
X52587438Y33377238D02*
X52635057Y33424857D01*
X52635057Y33424857D02*
X52777914Y33520095D01*
X52777914Y33520095D02*
X52968390Y33567714D01*
X52968390Y33567714D02*
X53349342Y33567714D01*
X53349342Y33567714D02*
X53444580Y33520095D01*
X53444580Y33520095D02*
X53492200Y33472476D01*
X53492200Y33472476D02*
X53539819Y33377238D01*
X53539819Y33377238D02*
X53539819Y33186762D01*
X53539819Y33186762D02*
X53492200Y33091524D01*
X53492200Y33091524D02*
X53444580Y33043905D01*
X53444580Y33043905D02*
X53349342Y32996286D01*
X53349342Y32996286D02*
X53111247Y32996286D01*
X53111247Y32996286D02*
X53016009Y33043905D01*
X53016009Y33043905D02*
X52968390Y33091524D01*
X52968390Y33091524D02*
X52920771Y33186762D01*
X52920771Y33186762D02*
X52920771Y33377238D01*
X52920771Y33377238D02*
X52968390Y33472476D01*
X52968390Y33472476D02*
X53016009Y33520095D01*
X53016009Y33520095D02*
X53111247Y33567714D01*
X76842580Y33027858D02*
X76890200Y33075477D01*
X76890200Y33075477D02*
X76937819Y33218334D01*
X76937819Y33218334D02*
X76937819Y33313572D01*
X76937819Y33313572D02*
X76890200Y33456429D01*
X76890200Y33456429D02*
X76794961Y33551667D01*
X76794961Y33551667D02*
X76699723Y33599286D01*
X76699723Y33599286D02*
X76509247Y33646905D01*
X76509247Y33646905D02*
X76366390Y33646905D01*
X76366390Y33646905D02*
X76175914Y33599286D01*
X76175914Y33599286D02*
X76080676Y33551667D01*
X76080676Y33551667D02*
X75985438Y33456429D01*
X75985438Y33456429D02*
X75937819Y33313572D01*
X75937819Y33313572D02*
X75937819Y33218334D01*
X75937819Y33218334D02*
X75985438Y33075477D01*
X75985438Y33075477D02*
X76033057Y33027858D01*
X76033057Y32646905D02*
X75985438Y32599286D01*
X75985438Y32599286D02*
X75937819Y32504048D01*
X75937819Y32504048D02*
X75937819Y32265953D01*
X75937819Y32265953D02*
X75985438Y32170715D01*
X75985438Y32170715D02*
X76033057Y32123096D01*
X76033057Y32123096D02*
X76128295Y32075477D01*
X76128295Y32075477D02*
X76223533Y32075477D01*
X76223533Y32075477D02*
X76366390Y32123096D01*
X76366390Y32123096D02*
X76937819Y32694524D01*
X76937819Y32694524D02*
X76937819Y32075477D01*
X76937819Y31123096D02*
X76937819Y31694524D01*
X76937819Y31408810D02*
X75937819Y31408810D01*
X75937819Y31408810D02*
X76080676Y31504048D01*
X76080676Y31504048D02*
X76175914Y31599286D01*
X76175914Y31599286D02*
X76223533Y31694524D01*
X23698580Y25026858D02*
X23746200Y25074477D01*
X23746200Y25074477D02*
X23793819Y25217334D01*
X23793819Y25217334D02*
X23793819Y25312572D01*
X23793819Y25312572D02*
X23746200Y25455429D01*
X23746200Y25455429D02*
X23650961Y25550667D01*
X23650961Y25550667D02*
X23555723Y25598286D01*
X23555723Y25598286D02*
X23365247Y25645905D01*
X23365247Y25645905D02*
X23222390Y25645905D01*
X23222390Y25645905D02*
X23031914Y25598286D01*
X23031914Y25598286D02*
X22936676Y25550667D01*
X22936676Y25550667D02*
X22841438Y25455429D01*
X22841438Y25455429D02*
X22793819Y25312572D01*
X22793819Y25312572D02*
X22793819Y25217334D01*
X22793819Y25217334D02*
X22841438Y25074477D01*
X22841438Y25074477D02*
X22889057Y25026858D01*
X22889057Y24645905D02*
X22841438Y24598286D01*
X22841438Y24598286D02*
X22793819Y24503048D01*
X22793819Y24503048D02*
X22793819Y24264953D01*
X22793819Y24264953D02*
X22841438Y24169715D01*
X22841438Y24169715D02*
X22889057Y24122096D01*
X22889057Y24122096D02*
X22984295Y24074477D01*
X22984295Y24074477D02*
X23079533Y24074477D01*
X23079533Y24074477D02*
X23222390Y24122096D01*
X23222390Y24122096D02*
X23793819Y24693524D01*
X23793819Y24693524D02*
X23793819Y24074477D01*
X22793819Y23169715D02*
X22793819Y23645905D01*
X22793819Y23645905D02*
X23270009Y23693524D01*
X23270009Y23693524D02*
X23222390Y23645905D01*
X23222390Y23645905D02*
X23174771Y23550667D01*
X23174771Y23550667D02*
X23174771Y23312572D01*
X23174771Y23312572D02*
X23222390Y23217334D01*
X23222390Y23217334D02*
X23270009Y23169715D01*
X23270009Y23169715D02*
X23365247Y23122096D01*
X23365247Y23122096D02*
X23603342Y23122096D01*
X23603342Y23122096D02*
X23698580Y23169715D01*
X23698580Y23169715D02*
X23746200Y23217334D01*
X23746200Y23217334D02*
X23793819Y23312572D01*
X23793819Y23312572D02*
X23793819Y23550667D01*
X23793819Y23550667D02*
X23746200Y23645905D01*
X23746200Y23645905D02*
X23698580Y23693524D01*
X30487857Y23610420D02*
X30535476Y23562800D01*
X30535476Y23562800D02*
X30678333Y23515181D01*
X30678333Y23515181D02*
X30773571Y23515181D01*
X30773571Y23515181D02*
X30916428Y23562800D01*
X30916428Y23562800D02*
X31011666Y23658039D01*
X31011666Y23658039D02*
X31059285Y23753277D01*
X31059285Y23753277D02*
X31106904Y23943753D01*
X31106904Y23943753D02*
X31106904Y24086610D01*
X31106904Y24086610D02*
X31059285Y24277086D01*
X31059285Y24277086D02*
X31011666Y24372324D01*
X31011666Y24372324D02*
X30916428Y24467562D01*
X30916428Y24467562D02*
X30773571Y24515181D01*
X30773571Y24515181D02*
X30678333Y24515181D01*
X30678333Y24515181D02*
X30535476Y24467562D01*
X30535476Y24467562D02*
X30487857Y24419943D01*
X30106904Y24419943D02*
X30059285Y24467562D01*
X30059285Y24467562D02*
X29964047Y24515181D01*
X29964047Y24515181D02*
X29725952Y24515181D01*
X29725952Y24515181D02*
X29630714Y24467562D01*
X29630714Y24467562D02*
X29583095Y24419943D01*
X29583095Y24419943D02*
X29535476Y24324705D01*
X29535476Y24324705D02*
X29535476Y24229467D01*
X29535476Y24229467D02*
X29583095Y24086610D01*
X29583095Y24086610D02*
X30154523Y23515181D01*
X30154523Y23515181D02*
X29535476Y23515181D01*
X28678333Y24181848D02*
X28678333Y23515181D01*
X28916428Y24562800D02*
X29154523Y23848515D01*
X29154523Y23848515D02*
X28535476Y23848515D01*
X38557580Y25153858D02*
X38605200Y25201477D01*
X38605200Y25201477D02*
X38652819Y25344334D01*
X38652819Y25344334D02*
X38652819Y25439572D01*
X38652819Y25439572D02*
X38605200Y25582429D01*
X38605200Y25582429D02*
X38509961Y25677667D01*
X38509961Y25677667D02*
X38414723Y25725286D01*
X38414723Y25725286D02*
X38224247Y25772905D01*
X38224247Y25772905D02*
X38081390Y25772905D01*
X38081390Y25772905D02*
X37890914Y25725286D01*
X37890914Y25725286D02*
X37795676Y25677667D01*
X37795676Y25677667D02*
X37700438Y25582429D01*
X37700438Y25582429D02*
X37652819Y25439572D01*
X37652819Y25439572D02*
X37652819Y25344334D01*
X37652819Y25344334D02*
X37700438Y25201477D01*
X37700438Y25201477D02*
X37748057Y25153858D01*
X37652819Y24820524D02*
X37652819Y24201477D01*
X37652819Y24201477D02*
X38033771Y24534810D01*
X38033771Y24534810D02*
X38033771Y24391953D01*
X38033771Y24391953D02*
X38081390Y24296715D01*
X38081390Y24296715D02*
X38129009Y24249096D01*
X38129009Y24249096D02*
X38224247Y24201477D01*
X38224247Y24201477D02*
X38462342Y24201477D01*
X38462342Y24201477D02*
X38557580Y24249096D01*
X38557580Y24249096D02*
X38605200Y24296715D01*
X38605200Y24296715D02*
X38652819Y24391953D01*
X38652819Y24391953D02*
X38652819Y24677667D01*
X38652819Y24677667D02*
X38605200Y24772905D01*
X38605200Y24772905D02*
X38557580Y24820524D01*
X38652819Y23249096D02*
X38652819Y23820524D01*
X38652819Y23534810D02*
X37652819Y23534810D01*
X37652819Y23534810D02*
X37795676Y23630048D01*
X37795676Y23630048D02*
X37890914Y23725286D01*
X37890914Y23725286D02*
X37938533Y23820524D01*
X88574428Y6005991D02*
X88907761Y6005991D01*
X88907761Y5482181D02*
X88907761Y6482181D01*
X88907761Y6482181D02*
X88431571Y6482181D01*
X88050618Y5482181D02*
X88050618Y6482181D01*
X87574428Y5482181D02*
X87574428Y6482181D01*
X87574428Y6482181D02*
X87336333Y6482181D01*
X87336333Y6482181D02*
X87193476Y6434562D01*
X87193476Y6434562D02*
X87098238Y6339324D01*
X87098238Y6339324D02*
X87050619Y6244086D01*
X87050619Y6244086D02*
X87003000Y6053610D01*
X87003000Y6053610D02*
X87003000Y5910753D01*
X87003000Y5910753D02*
X87050619Y5720277D01*
X87050619Y5720277D02*
X87098238Y5625039D01*
X87098238Y5625039D02*
X87193476Y5529800D01*
X87193476Y5529800D02*
X87336333Y5482181D01*
X87336333Y5482181D02*
X87574428Y5482181D01*
X86669666Y6482181D02*
X86050619Y6482181D01*
X86050619Y6482181D02*
X86383952Y6101229D01*
X86383952Y6101229D02*
X86241095Y6101229D01*
X86241095Y6101229D02*
X86145857Y6053610D01*
X86145857Y6053610D02*
X86098238Y6005991D01*
X86098238Y6005991D02*
X86050619Y5910753D01*
X86050619Y5910753D02*
X86050619Y5672658D01*
X86050619Y5672658D02*
X86098238Y5577420D01*
X86098238Y5577420D02*
X86145857Y5529800D01*
X86145857Y5529800D02*
X86241095Y5482181D01*
X86241095Y5482181D02*
X86526809Y5482181D01*
X86526809Y5482181D02*
X86622047Y5529800D01*
X86622047Y5529800D02*
X86669666Y5577420D01*
X36398580Y25153858D02*
X36446200Y25201477D01*
X36446200Y25201477D02*
X36493819Y25344334D01*
X36493819Y25344334D02*
X36493819Y25439572D01*
X36493819Y25439572D02*
X36446200Y25582429D01*
X36446200Y25582429D02*
X36350961Y25677667D01*
X36350961Y25677667D02*
X36255723Y25725286D01*
X36255723Y25725286D02*
X36065247Y25772905D01*
X36065247Y25772905D02*
X35922390Y25772905D01*
X35922390Y25772905D02*
X35731914Y25725286D01*
X35731914Y25725286D02*
X35636676Y25677667D01*
X35636676Y25677667D02*
X35541438Y25582429D01*
X35541438Y25582429D02*
X35493819Y25439572D01*
X35493819Y25439572D02*
X35493819Y25344334D01*
X35493819Y25344334D02*
X35541438Y25201477D01*
X35541438Y25201477D02*
X35589057Y25153858D01*
X35493819Y24820524D02*
X35493819Y24201477D01*
X35493819Y24201477D02*
X35874771Y24534810D01*
X35874771Y24534810D02*
X35874771Y24391953D01*
X35874771Y24391953D02*
X35922390Y24296715D01*
X35922390Y24296715D02*
X35970009Y24249096D01*
X35970009Y24249096D02*
X36065247Y24201477D01*
X36065247Y24201477D02*
X36303342Y24201477D01*
X36303342Y24201477D02*
X36398580Y24249096D01*
X36398580Y24249096D02*
X36446200Y24296715D01*
X36446200Y24296715D02*
X36493819Y24391953D01*
X36493819Y24391953D02*
X36493819Y24677667D01*
X36493819Y24677667D02*
X36446200Y24772905D01*
X36446200Y24772905D02*
X36398580Y24820524D01*
X35493819Y23582429D02*
X35493819Y23487191D01*
X35493819Y23487191D02*
X35541438Y23391953D01*
X35541438Y23391953D02*
X35589057Y23344334D01*
X35589057Y23344334D02*
X35684295Y23296715D01*
X35684295Y23296715D02*
X35874771Y23249096D01*
X35874771Y23249096D02*
X36112866Y23249096D01*
X36112866Y23249096D02*
X36303342Y23296715D01*
X36303342Y23296715D02*
X36398580Y23344334D01*
X36398580Y23344334D02*
X36446200Y23391953D01*
X36446200Y23391953D02*
X36493819Y23487191D01*
X36493819Y23487191D02*
X36493819Y23582429D01*
X36493819Y23582429D02*
X36446200Y23677667D01*
X36446200Y23677667D02*
X36398580Y23725286D01*
X36398580Y23725286D02*
X36303342Y23772905D01*
X36303342Y23772905D02*
X36112866Y23820524D01*
X36112866Y23820524D02*
X35874771Y23820524D01*
X35874771Y23820524D02*
X35684295Y23772905D01*
X35684295Y23772905D02*
X35589057Y23725286D01*
X35589057Y23725286D02*
X35541438Y23677667D01*
X35541438Y23677667D02*
X35493819Y23582429D01*
X27254580Y12834858D02*
X27302200Y12882477D01*
X27302200Y12882477D02*
X27349819Y13025334D01*
X27349819Y13025334D02*
X27349819Y13120572D01*
X27349819Y13120572D02*
X27302200Y13263429D01*
X27302200Y13263429D02*
X27206961Y13358667D01*
X27206961Y13358667D02*
X27111723Y13406286D01*
X27111723Y13406286D02*
X26921247Y13453905D01*
X26921247Y13453905D02*
X26778390Y13453905D01*
X26778390Y13453905D02*
X26587914Y13406286D01*
X26587914Y13406286D02*
X26492676Y13358667D01*
X26492676Y13358667D02*
X26397438Y13263429D01*
X26397438Y13263429D02*
X26349819Y13120572D01*
X26349819Y13120572D02*
X26349819Y13025334D01*
X26349819Y13025334D02*
X26397438Y12882477D01*
X26397438Y12882477D02*
X26445057Y12834858D01*
X26445057Y12453905D02*
X26397438Y12406286D01*
X26397438Y12406286D02*
X26349819Y12311048D01*
X26349819Y12311048D02*
X26349819Y12072953D01*
X26349819Y12072953D02*
X26397438Y11977715D01*
X26397438Y11977715D02*
X26445057Y11930096D01*
X26445057Y11930096D02*
X26540295Y11882477D01*
X26540295Y11882477D02*
X26635533Y11882477D01*
X26635533Y11882477D02*
X26778390Y11930096D01*
X26778390Y11930096D02*
X27349819Y12501524D01*
X27349819Y12501524D02*
X27349819Y11882477D01*
X27349819Y11406286D02*
X27349819Y11215810D01*
X27349819Y11215810D02*
X27302200Y11120572D01*
X27302200Y11120572D02*
X27254580Y11072953D01*
X27254580Y11072953D02*
X27111723Y10977715D01*
X27111723Y10977715D02*
X26921247Y10930096D01*
X26921247Y10930096D02*
X26540295Y10930096D01*
X26540295Y10930096D02*
X26445057Y10977715D01*
X26445057Y10977715D02*
X26397438Y11025334D01*
X26397438Y11025334D02*
X26349819Y11120572D01*
X26349819Y11120572D02*
X26349819Y11311048D01*
X26349819Y11311048D02*
X26397438Y11406286D01*
X26397438Y11406286D02*
X26445057Y11453905D01*
X26445057Y11453905D02*
X26540295Y11501524D01*
X26540295Y11501524D02*
X26778390Y11501524D01*
X26778390Y11501524D02*
X26873628Y11453905D01*
X26873628Y11453905D02*
X26921247Y11406286D01*
X26921247Y11406286D02*
X26968866Y11311048D01*
X26968866Y11311048D02*
X26968866Y11120572D01*
X26968866Y11120572D02*
X26921247Y11025334D01*
X26921247Y11025334D02*
X26873628Y10977715D01*
X26873628Y10977715D02*
X26778390Y10930096D01*
X25857580Y25026858D02*
X25905200Y25074477D01*
X25905200Y25074477D02*
X25952819Y25217334D01*
X25952819Y25217334D02*
X25952819Y25312572D01*
X25952819Y25312572D02*
X25905200Y25455429D01*
X25905200Y25455429D02*
X25809961Y25550667D01*
X25809961Y25550667D02*
X25714723Y25598286D01*
X25714723Y25598286D02*
X25524247Y25645905D01*
X25524247Y25645905D02*
X25381390Y25645905D01*
X25381390Y25645905D02*
X25190914Y25598286D01*
X25190914Y25598286D02*
X25095676Y25550667D01*
X25095676Y25550667D02*
X25000438Y25455429D01*
X25000438Y25455429D02*
X24952819Y25312572D01*
X24952819Y25312572D02*
X24952819Y25217334D01*
X24952819Y25217334D02*
X25000438Y25074477D01*
X25000438Y25074477D02*
X25048057Y25026858D01*
X25048057Y24645905D02*
X25000438Y24598286D01*
X25000438Y24598286D02*
X24952819Y24503048D01*
X24952819Y24503048D02*
X24952819Y24264953D01*
X24952819Y24264953D02*
X25000438Y24169715D01*
X25000438Y24169715D02*
X25048057Y24122096D01*
X25048057Y24122096D02*
X25143295Y24074477D01*
X25143295Y24074477D02*
X25238533Y24074477D01*
X25238533Y24074477D02*
X25381390Y24122096D01*
X25381390Y24122096D02*
X25952819Y24693524D01*
X25952819Y24693524D02*
X25952819Y24074477D01*
X24952819Y23217334D02*
X24952819Y23407810D01*
X24952819Y23407810D02*
X25000438Y23503048D01*
X25000438Y23503048D02*
X25048057Y23550667D01*
X25048057Y23550667D02*
X25190914Y23645905D01*
X25190914Y23645905D02*
X25381390Y23693524D01*
X25381390Y23693524D02*
X25762342Y23693524D01*
X25762342Y23693524D02*
X25857580Y23645905D01*
X25857580Y23645905D02*
X25905200Y23598286D01*
X25905200Y23598286D02*
X25952819Y23503048D01*
X25952819Y23503048D02*
X25952819Y23312572D01*
X25952819Y23312572D02*
X25905200Y23217334D01*
X25905200Y23217334D02*
X25857580Y23169715D01*
X25857580Y23169715D02*
X25762342Y23122096D01*
X25762342Y23122096D02*
X25524247Y23122096D01*
X25524247Y23122096D02*
X25429009Y23169715D01*
X25429009Y23169715D02*
X25381390Y23217334D01*
X25381390Y23217334D02*
X25333771Y23312572D01*
X25333771Y23312572D02*
X25333771Y23503048D01*
X25333771Y23503048D02*
X25381390Y23598286D01*
X25381390Y23598286D02*
X25429009Y23645905D01*
X25429009Y23645905D02*
X25524247Y23693524D01*
X24225238Y46934943D02*
X24320476Y46982562D01*
X24320476Y46982562D02*
X24415714Y47077800D01*
X24415714Y47077800D02*
X24558571Y47220658D01*
X24558571Y47220658D02*
X24653809Y47268277D01*
X24653809Y47268277D02*
X24749047Y47268277D01*
X24701428Y47030181D02*
X24796666Y47077800D01*
X24796666Y47077800D02*
X24891904Y47173039D01*
X24891904Y47173039D02*
X24939523Y47363515D01*
X24939523Y47363515D02*
X24939523Y47696848D01*
X24939523Y47696848D02*
X24891904Y47887324D01*
X24891904Y47887324D02*
X24796666Y47982562D01*
X24796666Y47982562D02*
X24701428Y48030181D01*
X24701428Y48030181D02*
X24510952Y48030181D01*
X24510952Y48030181D02*
X24415714Y47982562D01*
X24415714Y47982562D02*
X24320476Y47887324D01*
X24320476Y47887324D02*
X24272857Y47696848D01*
X24272857Y47696848D02*
X24272857Y47363515D01*
X24272857Y47363515D02*
X24320476Y47173039D01*
X24320476Y47173039D02*
X24415714Y47077800D01*
X24415714Y47077800D02*
X24510952Y47030181D01*
X24510952Y47030181D02*
X24701428Y47030181D01*
X23891904Y47934943D02*
X23844285Y47982562D01*
X23844285Y47982562D02*
X23749047Y48030181D01*
X23749047Y48030181D02*
X23510952Y48030181D01*
X23510952Y48030181D02*
X23415714Y47982562D01*
X23415714Y47982562D02*
X23368095Y47934943D01*
X23368095Y47934943D02*
X23320476Y47839705D01*
X23320476Y47839705D02*
X23320476Y47744467D01*
X23320476Y47744467D02*
X23368095Y47601610D01*
X23368095Y47601610D02*
X23939523Y47030181D01*
X23939523Y47030181D02*
X23320476Y47030181D01*
D11*
%TO.C,C1*%
X15628252Y30072000D02*
X15105748Y30072000D01*
X15628252Y28602000D02*
X15105748Y28602000D01*
%TO.C,C5*%
X32752420Y25910000D02*
X33033580Y25910000D01*
X32752420Y24890000D02*
X33033580Y24890000D01*
%TO.C,C6*%
X34825000Y24249748D02*
X34825000Y24772252D01*
X36295000Y24249748D02*
X36295000Y24772252D01*
%TO.C,C7*%
X44050852Y26058800D02*
X43528348Y26058800D01*
X44050852Y24588800D02*
X43528348Y24588800D01*
%TO.C,C8*%
X44076252Y23976000D02*
X43553748Y23976000D01*
X44076252Y22506000D02*
X43553748Y22506000D01*
%TO.C,C9*%
X25554000Y28186748D02*
X25554000Y28709252D01*
X27024000Y28186748D02*
X27024000Y28709252D01*
%TO.C,C11*%
X39997747Y33374000D02*
X40520253Y33374000D01*
X39997747Y31904000D02*
X40520253Y31904000D01*
%TO.C,C16*%
X60317748Y33628000D02*
X60840252Y33628000D01*
X60317748Y32158000D02*
X60840252Y32158000D01*
%TO.C,C17*%
X62384000Y29329748D02*
X62384000Y29852252D01*
X63854000Y29329748D02*
X63854000Y29852252D01*
%TO.C,C18*%
X60186900Y29875052D02*
X60186900Y29352548D01*
X61656900Y29875052D02*
X61656900Y29352548D01*
D12*
%TO.C,J1*%
X5401000Y40350000D02*
X5401000Y30770000D01*
X5401000Y30770000D02*
X6681000Y30770000D01*
X6681000Y40350000D02*
X5401000Y40350000D01*
X9401000Y40350000D02*
X10651000Y40350000D01*
X9401000Y30770000D02*
X10651000Y30770000D01*
D11*
%TO.C,L1*%
X30980748Y23462000D02*
X31503252Y23462000D01*
X30980748Y21242000D02*
X31503252Y21242000D01*
%TO.C,Q1*%
X36924000Y54331000D02*
X36924000Y52381000D01*
X36924000Y51481000D02*
X36924000Y49881000D01*
X36924000Y49081000D02*
X36924000Y48031000D01*
X37324000Y54331000D02*
X36924000Y54331000D01*
X37324000Y48031000D02*
X36944000Y48031000D01*
X41924000Y54331000D02*
X42324000Y54331000D01*
X41924000Y48031000D02*
X42324000Y48031000D01*
X42324000Y54331000D02*
X42324000Y52381000D01*
X42324000Y51481000D02*
X42324000Y49881000D01*
X42324000Y49081000D02*
X42324000Y48031000D01*
%TO.C,R1*%
X15013000Y37237936D02*
X15013000Y37692064D01*
X16483000Y37237936D02*
X16483000Y37692064D01*
%TO.C,R3*%
X34697936Y35914000D02*
X35152064Y35914000D01*
X34697936Y34444000D02*
X35152064Y34444000D01*
%TO.C,R5*%
X35152064Y37946000D02*
X34697936Y37946000D01*
X35152064Y36476000D02*
X34697936Y36476000D01*
%TO.C,R6*%
X34952000Y40359064D02*
X34952000Y39904936D01*
X36422000Y40359064D02*
X36422000Y39904936D01*
%TO.C,R7*%
X23140936Y32485000D02*
X23595064Y32485000D01*
X23140936Y31015000D02*
X23595064Y31015000D01*
%TO.C,R8*%
X41937000Y36168064D02*
X41937000Y35713936D01*
X43407000Y36168064D02*
X43407000Y35713936D01*
%TO.C,R9*%
X38708064Y29310000D02*
X38253936Y29310000D01*
X38708064Y27840000D02*
X38253936Y27840000D01*
%TO.C,R11*%
X50445936Y-12600000D02*
X50900064Y-12600000D01*
X50445936Y-14070000D02*
X50900064Y-14070000D01*
%TO.C,R17*%
X15854000Y48675936D02*
X15854000Y50130064D01*
X17674000Y48675936D02*
X17674000Y50130064D01*
%TO.C,R18*%
X23902936Y48741000D02*
X24357064Y48741000D01*
X23902936Y47271000D02*
X24357064Y47271000D01*
%TO.C,R19*%
X27839936Y46582000D02*
X28294064Y46582000D01*
X27839936Y45112000D02*
X28294064Y45112000D01*
%TO.C,R20*%
X52986000Y34009064D02*
X52986000Y33554936D01*
X54456000Y34009064D02*
X54456000Y33554936D01*
%TO.C,R23*%
X33428000Y50646064D02*
X33428000Y50191936D01*
X34898000Y50646064D02*
X34898000Y50191936D01*
%TO.C,R24*%
X44042064Y39851000D02*
X43587936Y39851000D01*
X44042064Y38381000D02*
X43587936Y38381000D01*
%TO.C,R27*%
X40921000Y41809936D02*
X40921000Y42264064D01*
X42391000Y41809936D02*
X42391000Y42264064D01*
%TO.C,R28*%
X19839000Y45947064D02*
X19839000Y45492936D01*
X21309000Y45947064D02*
X21309000Y45492936D01*
%TO.C,R32*%
X13841464Y45769200D02*
X13387336Y45769200D01*
X13841464Y44299200D02*
X13387336Y44299200D01*
%TO.C,R33*%
X14070064Y26643000D02*
X13615936Y26643000D01*
X14070064Y25173000D02*
X13615936Y25173000D01*
%TO.C,U1*%
X29515700Y27227500D02*
X29035700Y27227500D01*
X29275700Y27557500D01*
X29515700Y27227500D01*
G36*
X29515700Y27227500D02*
G01*
X29035700Y27227500D01*
X29275700Y27557500D01*
X29515700Y27227500D01*
G37*
%TO.C,U3*%
X53770000Y30939000D02*
X54120000Y30939000D01*
X53770000Y30589000D02*
X53770000Y30939000D01*
X53770000Y27069000D02*
X53770000Y26719000D01*
X53770000Y26719000D02*
X54120000Y26719000D01*
X57990000Y27069000D02*
X57990000Y26719000D01*
X57990000Y26719000D02*
X57640000Y26719000D01*
X58100000Y30999000D02*
X57860000Y31329000D01*
X58340000Y31329000D01*
X58100000Y30999000D01*
G36*
X58100000Y30999000D02*
G01*
X57860000Y31329000D01*
X58340000Y31329000D01*
X58100000Y30999000D01*
G37*
%TO.C,R4*%
X38708064Y35914000D02*
X38253936Y35914000D01*
X38708064Y34444000D02*
X38253936Y34444000D01*
%TO.C,C4*%
X15063800Y41841052D02*
X15063800Y41318548D01*
X16533800Y41841052D02*
X16533800Y41318548D01*
%TO.C,C3*%
X17299000Y41790252D02*
X17299000Y41267748D01*
X18769000Y41790252D02*
X18769000Y41267748D01*
%TO.C,C2*%
X19508800Y41739452D02*
X19508800Y41216948D01*
X20978800Y41739452D02*
X20978800Y41216948D01*
%TO.C,C10*%
X34952000Y29344252D02*
X34952000Y28821748D01*
X36422000Y29344252D02*
X36422000Y28821748D01*
%TO.C,R2*%
X14886000Y33247064D02*
X14886000Y32792936D01*
X16356000Y33247064D02*
X16356000Y32792936D01*
%TO.C,R34*%
X77750936Y32104000D02*
X78205064Y32104000D01*
X77750936Y30634000D02*
X78205064Y30634000D01*
%TO.C,C19*%
X39997747Y31342000D02*
X40520253Y31342000D01*
X39997747Y29872000D02*
X40520253Y29872000D01*
%TO.C,C20*%
X23106747Y30326000D02*
X23629253Y30326000D01*
X23106747Y28856000D02*
X23629253Y28856000D01*
%TO.C,R35*%
X80205000Y34689064D02*
X80205000Y30334936D01*
X83625000Y34689064D02*
X83625000Y30334936D01*
%TO.C,R36*%
X77750936Y34263000D02*
X78205064Y34263000D01*
X77750936Y32793000D02*
X78205064Y32793000D01*
%TO.C,R22*%
X16029000Y53239936D02*
X16029000Y53694064D01*
X17499000Y53239936D02*
X17499000Y53694064D01*
%TO.C,Q5*%
X25933000Y54370000D02*
X25933000Y54750000D01*
X25933000Y49770000D02*
X25933000Y49370000D01*
X26983000Y54770000D02*
X25933000Y54770000D01*
X26983000Y49370000D02*
X25933000Y49370000D01*
X29383000Y54770000D02*
X27783000Y54770000D01*
X29383000Y49370000D02*
X27783000Y49370000D01*
X32233000Y54770000D02*
X30283000Y54770000D01*
X32233000Y54370000D02*
X32233000Y54770000D01*
X32233000Y49770000D02*
X32233000Y49370000D01*
X32233000Y49370000D02*
X30283000Y49370000D01*
%TO.C,Q3*%
X18567000Y54770000D02*
X20517000Y54770000D01*
X18567000Y54370000D02*
X18567000Y54770000D01*
X18567000Y49770000D02*
X18567000Y49370000D01*
X18567000Y49370000D02*
X20517000Y49370000D01*
X21417000Y54770000D02*
X23017000Y54770000D01*
X21417000Y49370000D02*
X23017000Y49370000D01*
X23817000Y54770000D02*
X24867000Y54770000D01*
X23817000Y49370000D02*
X24867000Y49370000D01*
X24867000Y54370000D02*
X24867000Y54770000D01*
X24867000Y49770000D02*
X24867000Y49390000D01*
%TO.C,TH3*%
X36984000Y40359064D02*
X36984000Y39904936D01*
X38454000Y40359064D02*
X38454000Y39904936D01*
%TO.C,C27*%
X22125000Y24122748D02*
X22125000Y24645252D01*
X23595000Y24122748D02*
X23595000Y24645252D01*
%TO.C,TH4*%
X45874000Y34517064D02*
X45874000Y34062936D01*
X47344000Y34517064D02*
X47344000Y34062936D01*
%TO.C,D6*%
X50475000Y34782000D02*
X50475000Y32097000D01*
X50475000Y32097000D02*
X52395000Y32097000D01*
X52395000Y32097000D02*
X52395000Y34782000D01*
%TO.C,C21*%
X74068000Y32646252D02*
X74068000Y32123748D01*
X75538000Y32646252D02*
X75538000Y32123748D01*
%TO.C,C25*%
X24284000Y24122748D02*
X24284000Y24645252D01*
X25754000Y24122748D02*
X25754000Y24645252D01*
%TO.C,C24*%
X29985580Y25910000D02*
X29704420Y25910000D01*
X29985580Y24890000D02*
X29704420Y24890000D01*
%TO.C,C31*%
X39143000Y24249748D02*
X39143000Y24772252D01*
X40613000Y24249748D02*
X40613000Y24772252D01*
%TO.C,C30*%
X36984000Y24249748D02*
X36984000Y24772252D01*
X38454000Y24249748D02*
X38454000Y24772252D01*
%TO.C,C29*%
X27840000Y11930748D02*
X27840000Y12453252D01*
X29310000Y11930748D02*
X29310000Y12453252D01*
%TO.C,C26*%
X26443000Y24122748D02*
X26443000Y24645252D01*
X27913000Y24122748D02*
X27913000Y24645252D01*
%TO.C,Q2*%
X23480000Y46645000D02*
X24130000Y46645001D01*
X23480000Y43525000D02*
X24130000Y43524999D01*
X24780000Y46645000D02*
X24130000Y46645001D01*
X24780000Y43525000D02*
X24130000Y43524999D01*
X25292500Y46595000D02*
X25052500Y46924999D01*
X25532500Y46925000D01*
X25292500Y46595000D01*
G36*
X25292500Y46595000D02*
G01*
X25052500Y46924999D01*
X25532500Y46925000D01*
X25292500Y46595000D01*
G37*
%TD*%
M02*
