M48
; DRILL file {KiCad 8.0.3+1} date 2024-07-23T23:45:16+0000
; FORMAT={3:3/ absolute / metric / suppress leading zeros}
; #@! TF.CreationDate,2024-07-23T23:45:16+00:00
; #@! TF.GenerationSoftware,Kicad,Pcbnew,8.0.3+1
; #@! TF.FileFunction,Plated,1,2,PTH
FMAT,2
METRIC,TZ
; #@! TA.AperFunction,Plated,PTH,ViaDrill
T1C0.200
; #@! TA.AperFunction,Plated,PTH,ComponentDrill
T2C0.200
; #@! TA.AperFunction,Plated,PTH,ViaDrill
T3C0.400
; #@! TA.AperFunction,Plated,PTH,ComponentDrill
T4C0.600
; #@! TA.AperFunction,Plated,PTH,ComponentDrill
T5C0.889
; #@! TA.AperFunction,Plated,PTH,ComponentDrill
T6C1.000
; #@! TA.AperFunction,Plated,PTH,ComponentDrill
T7C1.300
; #@! TA.AperFunction,Plated,PTH,ComponentDrill
T8C1.600
; #@! TA.AperFunction,Plated,PTH,ComponentDrill
T9C3.000
%
G90
G05
T1
X34519Y29020
T2
X51573Y27489
X51573Y26289
X51573Y25089
X52973Y27489
X52973Y26289
X52973Y25089
X61822Y36194
T3
X14281Y35510
X14631Y32855
X15113Y54356
X16129Y18923
X17018Y33209
X18161Y48768
X19177Y36195
X20447Y21844
X22555Y29337
X22860Y17069
X25908Y31369
X26289Y27498
X26785Y48603
X27809Y28569
X28418Y32354
X30167Y22352
X30636Y29026
X30734Y32512
X31369Y29718
X31497Y30606
X32196Y29080
X32317Y22352
X32766Y37592
X33484Y40209
X33754Y41172
X34012Y36195
X35172Y33012
X35687Y28133
X35987Y33772
X36728Y39218
X37912Y31869
X39040Y42342
X39167Y40107
X40132Y37465
X40354Y42533
X42139Y39472
X42926Y37363
X43129Y55626
X43279Y31953
X44704Y30226
X45453Y40081
X46008Y37864
X46144Y31217
X47244Y37084
X48636Y37481
X48768Y33274
X49560Y37864
X49968Y19812
X50330Y50914
X50330Y49350
X50698Y40005
X51816Y32766
X53086Y29972
X54356Y33909
X54610Y34925
X55245Y37592
X56134Y38735
X56938Y37109
X57150Y29972
X57607Y37871
X57737Y33887
X57875Y36344
X58776Y38962
X59309Y21971
X59974Y38299
X61493Y41732
X62459Y41326
X63254Y42914
X63959Y38752
X63967Y34094
X65278Y32360
X66167Y13589
X66243Y31979
X66650Y42494
X67437Y38861
X67918Y36006
X68061Y13645
X68097Y43459
X69037Y30124
X69215Y13107
X70671Y43890
T5
X35179Y12903
X35179Y10363
X37719Y12903
X37719Y10363
X39624Y60452
X39624Y57912
X40259Y12903
X40259Y10363
X42164Y60452
X42164Y57912
X42799Y12903
X42799Y10363
X44704Y60452
X44704Y57912
X46685Y12954
X46685Y10414
X46685Y7874
X47244Y60452
X47244Y57912
X49225Y12954
X49225Y10414
X49225Y7874
X49784Y60452
X49784Y57912
X65278Y60198
X65278Y57658
X67818Y60198
X67818Y57658
X70358Y60198
X70358Y57658
X72898Y60198
X72898Y57658
X75438Y60198
X75438Y57658
T6
X52984Y13299
X52984Y8799
X54508Y62956
X54508Y58456
X59284Y13299
X59284Y8799
X60808Y62956
X60808Y58456
T7
X19956Y13276
X19956Y8323
X24955Y13276
X24955Y8323
X26690Y62896
X26690Y57892
X31690Y62896
X31690Y57892
T8
X9470Y45210
X9470Y25910
X81970Y45210
X81970Y25910
T9
X10160Y60960
X10160Y10160
X81280Y60960
X81280Y10160
T4
G00X7601Y39880
M15
G01X8401Y39880
M16
G05
G00X7601Y31240
M15
G01X8401Y31240
M16
G05
G00X11631Y39880
M15
G01X12731Y39880
M16
G05
G00X11631Y31240
M15
G01X12731Y31240
M16
G05
M30
