%TF.GenerationSoftware,KiCad,Pcbnew,8.0.3+1*%
%TF.CreationDate,2024-07-20T09:56:42+00:00*%
%TF.ProjectId,LION2CELL02,4c494f4e-3243-4454-9c4c-30322e6b6963,rev?*%
%TF.SameCoordinates,Original*%
%TF.FileFunction,Legend,Bot*%
%TF.FilePolarity,Positive*%
%FSLAX46Y46*%
G04 Gerber Fmt 4.6, Leading zero omitted, Abs format (unit mm)*
G04 Created by KiCad (PCBNEW 8.0.3+1) date 2024-07-20 09:56:42*
%MOMM*%
%LPD*%
G01*
G04 APERTURE LIST*
%ADD10C,0.150000*%
%ADD11C,0.304800*%
%ADD12C,0.099060*%
%ADD13C,0.100000*%
%ADD14C,0.120000*%
%ADD15C,2.700000*%
G04 APERTURE END LIST*
D10*
X106426380Y-106284733D02*
X106474000Y-106237114D01*
X106474000Y-106237114D02*
X106521619Y-106094257D01*
X106521619Y-106094257D02*
X106521619Y-105999019D01*
X106521619Y-105999019D02*
X106474000Y-105856162D01*
X106474000Y-105856162D02*
X106378761Y-105760924D01*
X106378761Y-105760924D02*
X106283523Y-105713305D01*
X106283523Y-105713305D02*
X106093047Y-105665686D01*
X106093047Y-105665686D02*
X105950190Y-105665686D01*
X105950190Y-105665686D02*
X105759714Y-105713305D01*
X105759714Y-105713305D02*
X105664476Y-105760924D01*
X105664476Y-105760924D02*
X105569238Y-105856162D01*
X105569238Y-105856162D02*
X105521619Y-105999019D01*
X105521619Y-105999019D02*
X105521619Y-106094257D01*
X105521619Y-106094257D02*
X105569238Y-106237114D01*
X105569238Y-106237114D02*
X105616857Y-106284733D01*
X106521619Y-107237114D02*
X106521619Y-106665686D01*
X106521619Y-106951400D02*
X105521619Y-106951400D01*
X105521619Y-106951400D02*
X105664476Y-106856162D01*
X105664476Y-106856162D02*
X105759714Y-106760924D01*
X105759714Y-106760924D02*
X105807333Y-106665686D01*
X111469466Y-103398980D02*
X111517085Y-103446600D01*
X111517085Y-103446600D02*
X111659942Y-103494219D01*
X111659942Y-103494219D02*
X111755180Y-103494219D01*
X111755180Y-103494219D02*
X111898037Y-103446600D01*
X111898037Y-103446600D02*
X111993275Y-103351361D01*
X111993275Y-103351361D02*
X112040894Y-103256123D01*
X112040894Y-103256123D02*
X112088513Y-103065647D01*
X112088513Y-103065647D02*
X112088513Y-102922790D01*
X112088513Y-102922790D02*
X112040894Y-102732314D01*
X112040894Y-102732314D02*
X111993275Y-102637076D01*
X111993275Y-102637076D02*
X111898037Y-102541838D01*
X111898037Y-102541838D02*
X111755180Y-102494219D01*
X111755180Y-102494219D02*
X111659942Y-102494219D01*
X111659942Y-102494219D02*
X111517085Y-102541838D01*
X111517085Y-102541838D02*
X111469466Y-102589457D01*
X110564704Y-102494219D02*
X111040894Y-102494219D01*
X111040894Y-102494219D02*
X111088513Y-102970409D01*
X111088513Y-102970409D02*
X111040894Y-102922790D01*
X111040894Y-102922790D02*
X110945656Y-102875171D01*
X110945656Y-102875171D02*
X110707561Y-102875171D01*
X110707561Y-102875171D02*
X110612323Y-102922790D01*
X110612323Y-102922790D02*
X110564704Y-102970409D01*
X110564704Y-102970409D02*
X110517085Y-103065647D01*
X110517085Y-103065647D02*
X110517085Y-103303742D01*
X110517085Y-103303742D02*
X110564704Y-103398980D01*
X110564704Y-103398980D02*
X110612323Y-103446600D01*
X110612323Y-103446600D02*
X110707561Y-103494219D01*
X110707561Y-103494219D02*
X110945656Y-103494219D01*
X110945656Y-103494219D02*
X111040894Y-103446600D01*
X111040894Y-103446600D02*
X111088513Y-103398980D01*
X122613380Y-84059733D02*
X122661000Y-84012114D01*
X122661000Y-84012114D02*
X122708619Y-83869257D01*
X122708619Y-83869257D02*
X122708619Y-83774019D01*
X122708619Y-83774019D02*
X122661000Y-83631162D01*
X122661000Y-83631162D02*
X122565761Y-83535924D01*
X122565761Y-83535924D02*
X122470523Y-83488305D01*
X122470523Y-83488305D02*
X122280047Y-83440686D01*
X122280047Y-83440686D02*
X122137190Y-83440686D01*
X122137190Y-83440686D02*
X121946714Y-83488305D01*
X121946714Y-83488305D02*
X121851476Y-83535924D01*
X121851476Y-83535924D02*
X121756238Y-83631162D01*
X121756238Y-83631162D02*
X121708619Y-83774019D01*
X121708619Y-83774019D02*
X121708619Y-83869257D01*
X121708619Y-83869257D02*
X121756238Y-84012114D01*
X121756238Y-84012114D02*
X121803857Y-84059733D01*
X121708619Y-84916876D02*
X121708619Y-84726400D01*
X121708619Y-84726400D02*
X121756238Y-84631162D01*
X121756238Y-84631162D02*
X121803857Y-84583543D01*
X121803857Y-84583543D02*
X121946714Y-84488305D01*
X121946714Y-84488305D02*
X122137190Y-84440686D01*
X122137190Y-84440686D02*
X122518142Y-84440686D01*
X122518142Y-84440686D02*
X122613380Y-84488305D01*
X122613380Y-84488305D02*
X122661000Y-84535924D01*
X122661000Y-84535924D02*
X122708619Y-84631162D01*
X122708619Y-84631162D02*
X122708619Y-84821638D01*
X122708619Y-84821638D02*
X122661000Y-84916876D01*
X122661000Y-84916876D02*
X122613380Y-84964495D01*
X122613380Y-84964495D02*
X122518142Y-85012114D01*
X122518142Y-85012114D02*
X122280047Y-85012114D01*
X122280047Y-85012114D02*
X122184809Y-84964495D01*
X122184809Y-84964495D02*
X122137190Y-84916876D01*
X122137190Y-84916876D02*
X122089571Y-84821638D01*
X122089571Y-84821638D02*
X122089571Y-84631162D01*
X122089571Y-84631162D02*
X122137190Y-84535924D01*
X122137190Y-84535924D02*
X122184809Y-84488305D01*
X122184809Y-84488305D02*
X122280047Y-84440686D01*
X119405780Y-90028733D02*
X119453400Y-89981114D01*
X119453400Y-89981114D02*
X119501019Y-89838257D01*
X119501019Y-89838257D02*
X119501019Y-89743019D01*
X119501019Y-89743019D02*
X119453400Y-89600162D01*
X119453400Y-89600162D02*
X119358161Y-89504924D01*
X119358161Y-89504924D02*
X119262923Y-89457305D01*
X119262923Y-89457305D02*
X119072447Y-89409686D01*
X119072447Y-89409686D02*
X118929590Y-89409686D01*
X118929590Y-89409686D02*
X118739114Y-89457305D01*
X118739114Y-89457305D02*
X118643876Y-89504924D01*
X118643876Y-89504924D02*
X118548638Y-89600162D01*
X118548638Y-89600162D02*
X118501019Y-89743019D01*
X118501019Y-89743019D02*
X118501019Y-89838257D01*
X118501019Y-89838257D02*
X118548638Y-89981114D01*
X118548638Y-89981114D02*
X118596257Y-90028733D01*
X118501019Y-90362067D02*
X118501019Y-91028733D01*
X118501019Y-91028733D02*
X119501019Y-90600162D01*
X116644380Y-102220733D02*
X116692000Y-102173114D01*
X116692000Y-102173114D02*
X116739619Y-102030257D01*
X116739619Y-102030257D02*
X116739619Y-101935019D01*
X116739619Y-101935019D02*
X116692000Y-101792162D01*
X116692000Y-101792162D02*
X116596761Y-101696924D01*
X116596761Y-101696924D02*
X116501523Y-101649305D01*
X116501523Y-101649305D02*
X116311047Y-101601686D01*
X116311047Y-101601686D02*
X116168190Y-101601686D01*
X116168190Y-101601686D02*
X115977714Y-101649305D01*
X115977714Y-101649305D02*
X115882476Y-101696924D01*
X115882476Y-101696924D02*
X115787238Y-101792162D01*
X115787238Y-101792162D02*
X115739619Y-101935019D01*
X115739619Y-101935019D02*
X115739619Y-102030257D01*
X115739619Y-102030257D02*
X115787238Y-102173114D01*
X115787238Y-102173114D02*
X115834857Y-102220733D01*
X116168190Y-102792162D02*
X116120571Y-102696924D01*
X116120571Y-102696924D02*
X116072952Y-102649305D01*
X116072952Y-102649305D02*
X115977714Y-102601686D01*
X115977714Y-102601686D02*
X115930095Y-102601686D01*
X115930095Y-102601686D02*
X115834857Y-102649305D01*
X115834857Y-102649305D02*
X115787238Y-102696924D01*
X115787238Y-102696924D02*
X115739619Y-102792162D01*
X115739619Y-102792162D02*
X115739619Y-102982638D01*
X115739619Y-102982638D02*
X115787238Y-103077876D01*
X115787238Y-103077876D02*
X115834857Y-103125495D01*
X115834857Y-103125495D02*
X115930095Y-103173114D01*
X115930095Y-103173114D02*
X115977714Y-103173114D01*
X115977714Y-103173114D02*
X116072952Y-103125495D01*
X116072952Y-103125495D02*
X116120571Y-103077876D01*
X116120571Y-103077876D02*
X116168190Y-102982638D01*
X116168190Y-102982638D02*
X116168190Y-102792162D01*
X116168190Y-102792162D02*
X116215809Y-102696924D01*
X116215809Y-102696924D02*
X116263428Y-102649305D01*
X116263428Y-102649305D02*
X116358666Y-102601686D01*
X116358666Y-102601686D02*
X116549142Y-102601686D01*
X116549142Y-102601686D02*
X116644380Y-102649305D01*
X116644380Y-102649305D02*
X116692000Y-102696924D01*
X116692000Y-102696924D02*
X116739619Y-102792162D01*
X116739619Y-102792162D02*
X116739619Y-102982638D01*
X116739619Y-102982638D02*
X116692000Y-103077876D01*
X116692000Y-103077876D02*
X116644380Y-103125495D01*
X116644380Y-103125495D02*
X116549142Y-103173114D01*
X116549142Y-103173114D02*
X116358666Y-103173114D01*
X116358666Y-103173114D02*
X116263428Y-103125495D01*
X116263428Y-103125495D02*
X116215809Y-103077876D01*
X116215809Y-103077876D02*
X116168190Y-102982638D01*
X133142380Y-84821733D02*
X133190000Y-84774114D01*
X133190000Y-84774114D02*
X133237619Y-84631257D01*
X133237619Y-84631257D02*
X133237619Y-84536019D01*
X133237619Y-84536019D02*
X133190000Y-84393162D01*
X133190000Y-84393162D02*
X133094761Y-84297924D01*
X133094761Y-84297924D02*
X132999523Y-84250305D01*
X132999523Y-84250305D02*
X132809047Y-84202686D01*
X132809047Y-84202686D02*
X132666190Y-84202686D01*
X132666190Y-84202686D02*
X132475714Y-84250305D01*
X132475714Y-84250305D02*
X132380476Y-84297924D01*
X132380476Y-84297924D02*
X132285238Y-84393162D01*
X132285238Y-84393162D02*
X132237619Y-84536019D01*
X132237619Y-84536019D02*
X132237619Y-84631257D01*
X132237619Y-84631257D02*
X132285238Y-84774114D01*
X132285238Y-84774114D02*
X132332857Y-84821733D01*
X133237619Y-85297924D02*
X133237619Y-85488400D01*
X133237619Y-85488400D02*
X133190000Y-85583638D01*
X133190000Y-85583638D02*
X133142380Y-85631257D01*
X133142380Y-85631257D02*
X132999523Y-85726495D01*
X132999523Y-85726495D02*
X132809047Y-85774114D01*
X132809047Y-85774114D02*
X132428095Y-85774114D01*
X132428095Y-85774114D02*
X132332857Y-85726495D01*
X132332857Y-85726495D02*
X132285238Y-85678876D01*
X132285238Y-85678876D02*
X132237619Y-85583638D01*
X132237619Y-85583638D02*
X132237619Y-85393162D01*
X132237619Y-85393162D02*
X132285238Y-85297924D01*
X132285238Y-85297924D02*
X132332857Y-85250305D01*
X132332857Y-85250305D02*
X132428095Y-85202686D01*
X132428095Y-85202686D02*
X132666190Y-85202686D01*
X132666190Y-85202686D02*
X132761428Y-85250305D01*
X132761428Y-85250305D02*
X132809047Y-85297924D01*
X132809047Y-85297924D02*
X132856666Y-85393162D01*
X132856666Y-85393162D02*
X132856666Y-85583638D01*
X132856666Y-85583638D02*
X132809047Y-85678876D01*
X132809047Y-85678876D02*
X132761428Y-85726495D01*
X132761428Y-85726495D02*
X132666190Y-85774114D01*
X122301380Y-110253542D02*
X122349000Y-110205923D01*
X122349000Y-110205923D02*
X122396619Y-110063066D01*
X122396619Y-110063066D02*
X122396619Y-109967828D01*
X122396619Y-109967828D02*
X122349000Y-109824971D01*
X122349000Y-109824971D02*
X122253761Y-109729733D01*
X122253761Y-109729733D02*
X122158523Y-109682114D01*
X122158523Y-109682114D02*
X121968047Y-109634495D01*
X121968047Y-109634495D02*
X121825190Y-109634495D01*
X121825190Y-109634495D02*
X121634714Y-109682114D01*
X121634714Y-109682114D02*
X121539476Y-109729733D01*
X121539476Y-109729733D02*
X121444238Y-109824971D01*
X121444238Y-109824971D02*
X121396619Y-109967828D01*
X121396619Y-109967828D02*
X121396619Y-110063066D01*
X121396619Y-110063066D02*
X121444238Y-110205923D01*
X121444238Y-110205923D02*
X121491857Y-110253542D01*
X122396619Y-111205923D02*
X122396619Y-110634495D01*
X122396619Y-110920209D02*
X121396619Y-110920209D01*
X121396619Y-110920209D02*
X121539476Y-110824971D01*
X121539476Y-110824971D02*
X121634714Y-110729733D01*
X121634714Y-110729733D02*
X121682333Y-110634495D01*
X122396619Y-112158304D02*
X122396619Y-111586876D01*
X122396619Y-111872590D02*
X121396619Y-111872590D01*
X121396619Y-111872590D02*
X121539476Y-111777352D01*
X121539476Y-111777352D02*
X121634714Y-111682114D01*
X121634714Y-111682114D02*
X121682333Y-111586876D01*
X148205380Y-108221542D02*
X148253000Y-108173923D01*
X148253000Y-108173923D02*
X148300619Y-108031066D01*
X148300619Y-108031066D02*
X148300619Y-107935828D01*
X148300619Y-107935828D02*
X148253000Y-107792971D01*
X148253000Y-107792971D02*
X148157761Y-107697733D01*
X148157761Y-107697733D02*
X148062523Y-107650114D01*
X148062523Y-107650114D02*
X147872047Y-107602495D01*
X147872047Y-107602495D02*
X147729190Y-107602495D01*
X147729190Y-107602495D02*
X147538714Y-107650114D01*
X147538714Y-107650114D02*
X147443476Y-107697733D01*
X147443476Y-107697733D02*
X147348238Y-107792971D01*
X147348238Y-107792971D02*
X147300619Y-107935828D01*
X147300619Y-107935828D02*
X147300619Y-108031066D01*
X147300619Y-108031066D02*
X147348238Y-108173923D01*
X147348238Y-108173923D02*
X147395857Y-108221542D01*
X148300619Y-109173923D02*
X148300619Y-108602495D01*
X148300619Y-108888209D02*
X147300619Y-108888209D01*
X147300619Y-108888209D02*
X147443476Y-108792971D01*
X147443476Y-108792971D02*
X147538714Y-108697733D01*
X147538714Y-108697733D02*
X147586333Y-108602495D01*
X147395857Y-109554876D02*
X147348238Y-109602495D01*
X147348238Y-109602495D02*
X147300619Y-109697733D01*
X147300619Y-109697733D02*
X147300619Y-109935828D01*
X147300619Y-109935828D02*
X147348238Y-110031066D01*
X147348238Y-110031066D02*
X147395857Y-110078685D01*
X147395857Y-110078685D02*
X147491095Y-110126304D01*
X147491095Y-110126304D02*
X147586333Y-110126304D01*
X147586333Y-110126304D02*
X147729190Y-110078685D01*
X147729190Y-110078685D02*
X148300619Y-109507257D01*
X148300619Y-109507257D02*
X148300619Y-110126304D01*
X160778380Y-107586542D02*
X160826000Y-107538923D01*
X160826000Y-107538923D02*
X160873619Y-107396066D01*
X160873619Y-107396066D02*
X160873619Y-107300828D01*
X160873619Y-107300828D02*
X160826000Y-107157971D01*
X160826000Y-107157971D02*
X160730761Y-107062733D01*
X160730761Y-107062733D02*
X160635523Y-107015114D01*
X160635523Y-107015114D02*
X160445047Y-106967495D01*
X160445047Y-106967495D02*
X160302190Y-106967495D01*
X160302190Y-106967495D02*
X160111714Y-107015114D01*
X160111714Y-107015114D02*
X160016476Y-107062733D01*
X160016476Y-107062733D02*
X159921238Y-107157971D01*
X159921238Y-107157971D02*
X159873619Y-107300828D01*
X159873619Y-107300828D02*
X159873619Y-107396066D01*
X159873619Y-107396066D02*
X159921238Y-107538923D01*
X159921238Y-107538923D02*
X159968857Y-107586542D01*
X160873619Y-108538923D02*
X160873619Y-107967495D01*
X160873619Y-108253209D02*
X159873619Y-108253209D01*
X159873619Y-108253209D02*
X160016476Y-108157971D01*
X160016476Y-108157971D02*
X160111714Y-108062733D01*
X160111714Y-108062733D02*
X160159333Y-107967495D01*
X159873619Y-108872257D02*
X159873619Y-109491304D01*
X159873619Y-109491304D02*
X160254571Y-109157971D01*
X160254571Y-109157971D02*
X160254571Y-109300828D01*
X160254571Y-109300828D02*
X160302190Y-109396066D01*
X160302190Y-109396066D02*
X160349809Y-109443685D01*
X160349809Y-109443685D02*
X160445047Y-109491304D01*
X160445047Y-109491304D02*
X160683142Y-109491304D01*
X160683142Y-109491304D02*
X160778380Y-109443685D01*
X160778380Y-109443685D02*
X160826000Y-109396066D01*
X160826000Y-109396066D02*
X160873619Y-109300828D01*
X160873619Y-109300828D02*
X160873619Y-109015114D01*
X160873619Y-109015114D02*
X160826000Y-108919876D01*
X160826000Y-108919876D02*
X160778380Y-108872257D01*
X167255380Y-115460542D02*
X167303000Y-115412923D01*
X167303000Y-115412923D02*
X167350619Y-115270066D01*
X167350619Y-115270066D02*
X167350619Y-115174828D01*
X167350619Y-115174828D02*
X167303000Y-115031971D01*
X167303000Y-115031971D02*
X167207761Y-114936733D01*
X167207761Y-114936733D02*
X167112523Y-114889114D01*
X167112523Y-114889114D02*
X166922047Y-114841495D01*
X166922047Y-114841495D02*
X166779190Y-114841495D01*
X166779190Y-114841495D02*
X166588714Y-114889114D01*
X166588714Y-114889114D02*
X166493476Y-114936733D01*
X166493476Y-114936733D02*
X166398238Y-115031971D01*
X166398238Y-115031971D02*
X166350619Y-115174828D01*
X166350619Y-115174828D02*
X166350619Y-115270066D01*
X166350619Y-115270066D02*
X166398238Y-115412923D01*
X166398238Y-115412923D02*
X166445857Y-115460542D01*
X167350619Y-116412923D02*
X167350619Y-115841495D01*
X167350619Y-116127209D02*
X166350619Y-116127209D01*
X166350619Y-116127209D02*
X166493476Y-116031971D01*
X166493476Y-116031971D02*
X166588714Y-115936733D01*
X166588714Y-115936733D02*
X166636333Y-115841495D01*
X166683952Y-117270066D02*
X167350619Y-117270066D01*
X166303000Y-117031971D02*
X167017285Y-116793876D01*
X167017285Y-116793876D02*
X167017285Y-117412923D01*
X163507657Y-112812980D02*
X163555276Y-112860600D01*
X163555276Y-112860600D02*
X163698133Y-112908219D01*
X163698133Y-112908219D02*
X163793371Y-112908219D01*
X163793371Y-112908219D02*
X163936228Y-112860600D01*
X163936228Y-112860600D02*
X164031466Y-112765361D01*
X164031466Y-112765361D02*
X164079085Y-112670123D01*
X164079085Y-112670123D02*
X164126704Y-112479647D01*
X164126704Y-112479647D02*
X164126704Y-112336790D01*
X164126704Y-112336790D02*
X164079085Y-112146314D01*
X164079085Y-112146314D02*
X164031466Y-112051076D01*
X164031466Y-112051076D02*
X163936228Y-111955838D01*
X163936228Y-111955838D02*
X163793371Y-111908219D01*
X163793371Y-111908219D02*
X163698133Y-111908219D01*
X163698133Y-111908219D02*
X163555276Y-111955838D01*
X163555276Y-111955838D02*
X163507657Y-112003457D01*
X162555276Y-112908219D02*
X163126704Y-112908219D01*
X162840990Y-112908219D02*
X162840990Y-111908219D01*
X162840990Y-111908219D02*
X162936228Y-112051076D01*
X162936228Y-112051076D02*
X163031466Y-112146314D01*
X163031466Y-112146314D02*
X163126704Y-112193933D01*
X161650514Y-111908219D02*
X162126704Y-111908219D01*
X162126704Y-111908219D02*
X162174323Y-112384409D01*
X162174323Y-112384409D02*
X162126704Y-112336790D01*
X162126704Y-112336790D02*
X162031466Y-112289171D01*
X162031466Y-112289171D02*
X161793371Y-112289171D01*
X161793371Y-112289171D02*
X161698133Y-112336790D01*
X161698133Y-112336790D02*
X161650514Y-112384409D01*
X161650514Y-112384409D02*
X161602895Y-112479647D01*
X161602895Y-112479647D02*
X161602895Y-112717742D01*
X161602895Y-112717742D02*
X161650514Y-112812980D01*
X161650514Y-112812980D02*
X161698133Y-112860600D01*
X161698133Y-112860600D02*
X161793371Y-112908219D01*
X161793371Y-112908219D02*
X162031466Y-112908219D01*
X162031466Y-112908219D02*
X162126704Y-112860600D01*
X162126704Y-112860600D02*
X162174323Y-112812980D01*
X163507657Y-106716980D02*
X163555276Y-106764600D01*
X163555276Y-106764600D02*
X163698133Y-106812219D01*
X163698133Y-106812219D02*
X163793371Y-106812219D01*
X163793371Y-106812219D02*
X163936228Y-106764600D01*
X163936228Y-106764600D02*
X164031466Y-106669361D01*
X164031466Y-106669361D02*
X164079085Y-106574123D01*
X164079085Y-106574123D02*
X164126704Y-106383647D01*
X164126704Y-106383647D02*
X164126704Y-106240790D01*
X164126704Y-106240790D02*
X164079085Y-106050314D01*
X164079085Y-106050314D02*
X164031466Y-105955076D01*
X164031466Y-105955076D02*
X163936228Y-105859838D01*
X163936228Y-105859838D02*
X163793371Y-105812219D01*
X163793371Y-105812219D02*
X163698133Y-105812219D01*
X163698133Y-105812219D02*
X163555276Y-105859838D01*
X163555276Y-105859838D02*
X163507657Y-105907457D01*
X162555276Y-106812219D02*
X163126704Y-106812219D01*
X162840990Y-106812219D02*
X162840990Y-105812219D01*
X162840990Y-105812219D02*
X162936228Y-105955076D01*
X162936228Y-105955076D02*
X163031466Y-106050314D01*
X163031466Y-106050314D02*
X163126704Y-106097933D01*
X161698133Y-105812219D02*
X161888609Y-105812219D01*
X161888609Y-105812219D02*
X161983847Y-105859838D01*
X161983847Y-105859838D02*
X162031466Y-105907457D01*
X162031466Y-105907457D02*
X162126704Y-106050314D01*
X162126704Y-106050314D02*
X162174323Y-106240790D01*
X162174323Y-106240790D02*
X162174323Y-106621742D01*
X162174323Y-106621742D02*
X162126704Y-106716980D01*
X162126704Y-106716980D02*
X162079085Y-106764600D01*
X162079085Y-106764600D02*
X161983847Y-106812219D01*
X161983847Y-106812219D02*
X161793371Y-106812219D01*
X161793371Y-106812219D02*
X161698133Y-106764600D01*
X161698133Y-106764600D02*
X161650514Y-106716980D01*
X161650514Y-106716980D02*
X161602895Y-106621742D01*
X161602895Y-106621742D02*
X161602895Y-106383647D01*
X161602895Y-106383647D02*
X161650514Y-106288409D01*
X161650514Y-106288409D02*
X161698133Y-106240790D01*
X161698133Y-106240790D02*
X161793371Y-106193171D01*
X161793371Y-106193171D02*
X161983847Y-106193171D01*
X161983847Y-106193171D02*
X162079085Y-106240790D01*
X162079085Y-106240790D02*
X162126704Y-106288409D01*
X162126704Y-106288409D02*
X162174323Y-106383647D01*
X154287880Y-100474542D02*
X154335500Y-100426923D01*
X154335500Y-100426923D02*
X154383119Y-100284066D01*
X154383119Y-100284066D02*
X154383119Y-100188828D01*
X154383119Y-100188828D02*
X154335500Y-100045971D01*
X154335500Y-100045971D02*
X154240261Y-99950733D01*
X154240261Y-99950733D02*
X154145023Y-99903114D01*
X154145023Y-99903114D02*
X153954547Y-99855495D01*
X153954547Y-99855495D02*
X153811690Y-99855495D01*
X153811690Y-99855495D02*
X153621214Y-99903114D01*
X153621214Y-99903114D02*
X153525976Y-99950733D01*
X153525976Y-99950733D02*
X153430738Y-100045971D01*
X153430738Y-100045971D02*
X153383119Y-100188828D01*
X153383119Y-100188828D02*
X153383119Y-100284066D01*
X153383119Y-100284066D02*
X153430738Y-100426923D01*
X153430738Y-100426923D02*
X153478357Y-100474542D01*
X154383119Y-101426923D02*
X154383119Y-100855495D01*
X154383119Y-101141209D02*
X153383119Y-101141209D01*
X153383119Y-101141209D02*
X153525976Y-101045971D01*
X153525976Y-101045971D02*
X153621214Y-100950733D01*
X153621214Y-100950733D02*
X153668833Y-100855495D01*
X153383119Y-101760257D02*
X153383119Y-102426923D01*
X153383119Y-102426923D02*
X154383119Y-101998352D01*
X144919380Y-112539542D02*
X144967000Y-112491923D01*
X144967000Y-112491923D02*
X145014619Y-112349066D01*
X145014619Y-112349066D02*
X145014619Y-112253828D01*
X145014619Y-112253828D02*
X144967000Y-112110971D01*
X144967000Y-112110971D02*
X144871761Y-112015733D01*
X144871761Y-112015733D02*
X144776523Y-111968114D01*
X144776523Y-111968114D02*
X144586047Y-111920495D01*
X144586047Y-111920495D02*
X144443190Y-111920495D01*
X144443190Y-111920495D02*
X144252714Y-111968114D01*
X144252714Y-111968114D02*
X144157476Y-112015733D01*
X144157476Y-112015733D02*
X144062238Y-112110971D01*
X144062238Y-112110971D02*
X144014619Y-112253828D01*
X144014619Y-112253828D02*
X144014619Y-112349066D01*
X144014619Y-112349066D02*
X144062238Y-112491923D01*
X144062238Y-112491923D02*
X144109857Y-112539542D01*
X145014619Y-113491923D02*
X145014619Y-112920495D01*
X145014619Y-113206209D02*
X144014619Y-113206209D01*
X144014619Y-113206209D02*
X144157476Y-113110971D01*
X144157476Y-113110971D02*
X144252714Y-113015733D01*
X144252714Y-113015733D02*
X144300333Y-112920495D01*
X144443190Y-114063352D02*
X144395571Y-113968114D01*
X144395571Y-113968114D02*
X144347952Y-113920495D01*
X144347952Y-113920495D02*
X144252714Y-113872876D01*
X144252714Y-113872876D02*
X144205095Y-113872876D01*
X144205095Y-113872876D02*
X144109857Y-113920495D01*
X144109857Y-113920495D02*
X144062238Y-113968114D01*
X144062238Y-113968114D02*
X144014619Y-114063352D01*
X144014619Y-114063352D02*
X144014619Y-114253828D01*
X144014619Y-114253828D02*
X144062238Y-114349066D01*
X144062238Y-114349066D02*
X144109857Y-114396685D01*
X144109857Y-114396685D02*
X144205095Y-114444304D01*
X144205095Y-114444304D02*
X144252714Y-114444304D01*
X144252714Y-114444304D02*
X144347952Y-114396685D01*
X144347952Y-114396685D02*
X144395571Y-114349066D01*
X144395571Y-114349066D02*
X144443190Y-114253828D01*
X144443190Y-114253828D02*
X144443190Y-114063352D01*
X144443190Y-114063352D02*
X144490809Y-113968114D01*
X144490809Y-113968114D02*
X144538428Y-113920495D01*
X144538428Y-113920495D02*
X144633666Y-113872876D01*
X144633666Y-113872876D02*
X144824142Y-113872876D01*
X144824142Y-113872876D02*
X144919380Y-113920495D01*
X144919380Y-113920495D02*
X144967000Y-113968114D01*
X144967000Y-113968114D02*
X145014619Y-114063352D01*
X145014619Y-114063352D02*
X145014619Y-114253828D01*
X145014619Y-114253828D02*
X144967000Y-114349066D01*
X144967000Y-114349066D02*
X144919380Y-114396685D01*
X144919380Y-114396685D02*
X144824142Y-114444304D01*
X144824142Y-114444304D02*
X144633666Y-114444304D01*
X144633666Y-114444304D02*
X144538428Y-114396685D01*
X144538428Y-114396685D02*
X144490809Y-114349066D01*
X144490809Y-114349066D02*
X144443190Y-114253828D01*
D11*
X124310981Y-76370543D02*
X122786981Y-76370543D01*
X122786981Y-76370543D02*
X122786981Y-76733400D01*
X122786981Y-76733400D02*
X122859552Y-76951114D01*
X122859552Y-76951114D02*
X123004695Y-77096257D01*
X123004695Y-77096257D02*
X123149838Y-77168828D01*
X123149838Y-77168828D02*
X123440124Y-77241400D01*
X123440124Y-77241400D02*
X123657838Y-77241400D01*
X123657838Y-77241400D02*
X123948124Y-77168828D01*
X123948124Y-77168828D02*
X124093267Y-77096257D01*
X124093267Y-77096257D02*
X124238410Y-76951114D01*
X124238410Y-76951114D02*
X124310981Y-76733400D01*
X124310981Y-76733400D02*
X124310981Y-76370543D01*
X122786981Y-77749400D02*
X122786981Y-78692828D01*
X122786981Y-78692828D02*
X123367552Y-78184828D01*
X123367552Y-78184828D02*
X123367552Y-78402543D01*
X123367552Y-78402543D02*
X123440124Y-78547686D01*
X123440124Y-78547686D02*
X123512695Y-78620257D01*
X123512695Y-78620257D02*
X123657838Y-78692828D01*
X123657838Y-78692828D02*
X124020695Y-78692828D01*
X124020695Y-78692828D02*
X124165838Y-78620257D01*
X124165838Y-78620257D02*
X124238410Y-78547686D01*
X124238410Y-78547686D02*
X124310981Y-78402543D01*
X124310981Y-78402543D02*
X124310981Y-77967114D01*
X124310981Y-77967114D02*
X124238410Y-77821971D01*
X124238410Y-77821971D02*
X124165838Y-77749400D01*
D12*
X122298733Y-75563488D02*
X121798353Y-75563488D01*
X122298733Y-75849419D02*
X122012802Y-75634970D01*
X121798353Y-75849419D02*
X122084285Y-75563488D01*
X122155767Y-79177122D02*
X122155767Y-79415398D01*
X122298733Y-79129467D02*
X121798353Y-79296260D01*
X121798353Y-79296260D02*
X122298733Y-79463053D01*
D11*
X129390981Y-76370543D02*
X127866981Y-76370543D01*
X127866981Y-76370543D02*
X127866981Y-76733400D01*
X127866981Y-76733400D02*
X127939552Y-76951114D01*
X127939552Y-76951114D02*
X128084695Y-77096257D01*
X128084695Y-77096257D02*
X128229838Y-77168828D01*
X128229838Y-77168828D02*
X128520124Y-77241400D01*
X128520124Y-77241400D02*
X128737838Y-77241400D01*
X128737838Y-77241400D02*
X129028124Y-77168828D01*
X129028124Y-77168828D02*
X129173267Y-77096257D01*
X129173267Y-77096257D02*
X129318410Y-76951114D01*
X129318410Y-76951114D02*
X129390981Y-76733400D01*
X129390981Y-76733400D02*
X129390981Y-76370543D01*
X128374981Y-78547686D02*
X129390981Y-78547686D01*
X127794410Y-78184828D02*
X128882981Y-77821971D01*
X128882981Y-77821971D02*
X128882981Y-78765400D01*
D12*
X127235767Y-79177122D02*
X127235767Y-79415398D01*
X127378733Y-79129467D02*
X126878353Y-79296260D01*
X126878353Y-79296260D02*
X127378733Y-79463053D01*
X127378733Y-75563488D02*
X126878353Y-75563488D01*
X127378733Y-75849419D02*
X127092802Y-75634970D01*
X126878353Y-75849419D02*
X127164285Y-75563488D01*
D11*
X142090981Y-127805543D02*
X140566981Y-127805543D01*
X140566981Y-127805543D02*
X140566981Y-128168400D01*
X140566981Y-128168400D02*
X140639552Y-128386114D01*
X140639552Y-128386114D02*
X140784695Y-128531257D01*
X140784695Y-128531257D02*
X140929838Y-128603828D01*
X140929838Y-128603828D02*
X141220124Y-128676400D01*
X141220124Y-128676400D02*
X141437838Y-128676400D01*
X141437838Y-128676400D02*
X141728124Y-128603828D01*
X141728124Y-128603828D02*
X141873267Y-128531257D01*
X141873267Y-128531257D02*
X142018410Y-128386114D01*
X142018410Y-128386114D02*
X142090981Y-128168400D01*
X142090981Y-128168400D02*
X142090981Y-127805543D01*
X140566981Y-129184400D02*
X140566981Y-130200400D01*
X140566981Y-130200400D02*
X142090981Y-129547257D01*
D12*
X139935767Y-130612122D02*
X139935767Y-130850398D01*
X140078733Y-130564467D02*
X139578353Y-130731260D01*
X139578353Y-130731260D02*
X140078733Y-130898053D01*
X140078733Y-126998488D02*
X139578353Y-126998488D01*
X140078733Y-127284419D02*
X139792802Y-127069970D01*
X139578353Y-127284419D02*
X139864285Y-126998488D01*
D11*
X144757981Y-127805543D02*
X143233981Y-127805543D01*
X143233981Y-127805543D02*
X143233981Y-128168400D01*
X143233981Y-128168400D02*
X143306552Y-128386114D01*
X143306552Y-128386114D02*
X143451695Y-128531257D01*
X143451695Y-128531257D02*
X143596838Y-128603828D01*
X143596838Y-128603828D02*
X143887124Y-128676400D01*
X143887124Y-128676400D02*
X144104838Y-128676400D01*
X144104838Y-128676400D02*
X144395124Y-128603828D01*
X144395124Y-128603828D02*
X144540267Y-128531257D01*
X144540267Y-128531257D02*
X144685410Y-128386114D01*
X144685410Y-128386114D02*
X144757981Y-128168400D01*
X144757981Y-128168400D02*
X144757981Y-127805543D01*
X143887124Y-129547257D02*
X143814552Y-129402114D01*
X143814552Y-129402114D02*
X143741981Y-129329543D01*
X143741981Y-129329543D02*
X143596838Y-129256971D01*
X143596838Y-129256971D02*
X143524267Y-129256971D01*
X143524267Y-129256971D02*
X143379124Y-129329543D01*
X143379124Y-129329543D02*
X143306552Y-129402114D01*
X143306552Y-129402114D02*
X143233981Y-129547257D01*
X143233981Y-129547257D02*
X143233981Y-129837543D01*
X143233981Y-129837543D02*
X143306552Y-129982686D01*
X143306552Y-129982686D02*
X143379124Y-130055257D01*
X143379124Y-130055257D02*
X143524267Y-130127828D01*
X143524267Y-130127828D02*
X143596838Y-130127828D01*
X143596838Y-130127828D02*
X143741981Y-130055257D01*
X143741981Y-130055257D02*
X143814552Y-129982686D01*
X143814552Y-129982686D02*
X143887124Y-129837543D01*
X143887124Y-129837543D02*
X143887124Y-129547257D01*
X143887124Y-129547257D02*
X143959695Y-129402114D01*
X143959695Y-129402114D02*
X144032267Y-129329543D01*
X144032267Y-129329543D02*
X144177410Y-129256971D01*
X144177410Y-129256971D02*
X144467695Y-129256971D01*
X144467695Y-129256971D02*
X144612838Y-129329543D01*
X144612838Y-129329543D02*
X144685410Y-129402114D01*
X144685410Y-129402114D02*
X144757981Y-129547257D01*
X144757981Y-129547257D02*
X144757981Y-129837543D01*
X144757981Y-129837543D02*
X144685410Y-129982686D01*
X144685410Y-129982686D02*
X144612838Y-130055257D01*
X144612838Y-130055257D02*
X144467695Y-130127828D01*
X144467695Y-130127828D02*
X144177410Y-130127828D01*
X144177410Y-130127828D02*
X144032267Y-130055257D01*
X144032267Y-130055257D02*
X143959695Y-129982686D01*
X143959695Y-129982686D02*
X143887124Y-129837543D01*
D12*
X142745733Y-126998488D02*
X142245353Y-126998488D01*
X142745733Y-127284419D02*
X142459802Y-127069970D01*
X142245353Y-127284419D02*
X142531285Y-126998488D01*
X142602767Y-130612122D02*
X142602767Y-130850398D01*
X142745733Y-130564467D02*
X142245353Y-130731260D01*
X142245353Y-130731260D02*
X142745733Y-130898053D01*
D10*
X128920619Y-99299733D02*
X128920619Y-98823543D01*
X128920619Y-98823543D02*
X127920619Y-98823543D01*
X128920619Y-100156876D02*
X128920619Y-99585448D01*
X128920619Y-99871162D02*
X127920619Y-99871162D01*
X127920619Y-99871162D02*
X128063476Y-99775924D01*
X128063476Y-99775924D02*
X128158714Y-99680686D01*
X128158714Y-99680686D02*
X128206333Y-99585448D01*
D13*
X117875038Y-102313057D02*
X117970276Y-102265438D01*
X117970276Y-102265438D02*
X118065514Y-102170200D01*
X118065514Y-102170200D02*
X118208371Y-102027342D01*
X118208371Y-102027342D02*
X118303609Y-101979723D01*
X118303609Y-101979723D02*
X118398847Y-101979723D01*
X118351228Y-102217819D02*
X118446466Y-102170200D01*
X118446466Y-102170200D02*
X118541704Y-102074961D01*
X118541704Y-102074961D02*
X118589323Y-101884485D01*
X118589323Y-101884485D02*
X118589323Y-101551152D01*
X118589323Y-101551152D02*
X118541704Y-101360676D01*
X118541704Y-101360676D02*
X118446466Y-101265438D01*
X118446466Y-101265438D02*
X118351228Y-101217819D01*
X118351228Y-101217819D02*
X118160752Y-101217819D01*
X118160752Y-101217819D02*
X118065514Y-101265438D01*
X118065514Y-101265438D02*
X117970276Y-101360676D01*
X117970276Y-101360676D02*
X117922657Y-101551152D01*
X117922657Y-101551152D02*
X117922657Y-101884485D01*
X117922657Y-101884485D02*
X117970276Y-102074961D01*
X117970276Y-102074961D02*
X118065514Y-102170200D01*
X118065514Y-102170200D02*
X118160752Y-102217819D01*
X118160752Y-102217819D02*
X118351228Y-102217819D01*
X116970276Y-102217819D02*
X117541704Y-102217819D01*
X117255990Y-102217819D02*
X117255990Y-101217819D01*
X117255990Y-101217819D02*
X117351228Y-101360676D01*
X117351228Y-101360676D02*
X117446466Y-101455914D01*
X117446466Y-101455914D02*
X117541704Y-101503533D01*
D10*
X107438619Y-99299733D02*
X106962428Y-98966400D01*
X107438619Y-98728305D02*
X106438619Y-98728305D01*
X106438619Y-98728305D02*
X106438619Y-99109257D01*
X106438619Y-99109257D02*
X106486238Y-99204495D01*
X106486238Y-99204495D02*
X106533857Y-99252114D01*
X106533857Y-99252114D02*
X106629095Y-99299733D01*
X106629095Y-99299733D02*
X106771952Y-99299733D01*
X106771952Y-99299733D02*
X106867190Y-99252114D01*
X106867190Y-99252114D02*
X106914809Y-99204495D01*
X106914809Y-99204495D02*
X106962428Y-99109257D01*
X106962428Y-99109257D02*
X106962428Y-98728305D01*
X107438619Y-100252114D02*
X107438619Y-99680686D01*
X107438619Y-99966400D02*
X106438619Y-99966400D01*
X106438619Y-99966400D02*
X106581476Y-99871162D01*
X106581476Y-99871162D02*
X106676714Y-99775924D01*
X106676714Y-99775924D02*
X106724333Y-99680686D01*
X104865466Y-102307219D02*
X105198799Y-101831028D01*
X105436894Y-102307219D02*
X105436894Y-101307219D01*
X105436894Y-101307219D02*
X105055942Y-101307219D01*
X105055942Y-101307219D02*
X104960704Y-101354838D01*
X104960704Y-101354838D02*
X104913085Y-101402457D01*
X104913085Y-101402457D02*
X104865466Y-101497695D01*
X104865466Y-101497695D02*
X104865466Y-101640552D01*
X104865466Y-101640552D02*
X104913085Y-101735790D01*
X104913085Y-101735790D02*
X104960704Y-101783409D01*
X104960704Y-101783409D02*
X105055942Y-101831028D01*
X105055942Y-101831028D02*
X105436894Y-101831028D01*
X104532132Y-101307219D02*
X103913085Y-101307219D01*
X103913085Y-101307219D02*
X104246418Y-101688171D01*
X104246418Y-101688171D02*
X104103561Y-101688171D01*
X104103561Y-101688171D02*
X104008323Y-101735790D01*
X104008323Y-101735790D02*
X103960704Y-101783409D01*
X103960704Y-101783409D02*
X103913085Y-101878647D01*
X103913085Y-101878647D02*
X103913085Y-102116742D01*
X103913085Y-102116742D02*
X103960704Y-102211980D01*
X103960704Y-102211980D02*
X104008323Y-102259600D01*
X104008323Y-102259600D02*
X104103561Y-102307219D01*
X104103561Y-102307219D02*
X104389275Y-102307219D01*
X104389275Y-102307219D02*
X104484513Y-102259600D01*
X104484513Y-102259600D02*
X104532132Y-102211980D01*
X133193619Y-82853233D02*
X132717428Y-82519900D01*
X133193619Y-82281805D02*
X132193619Y-82281805D01*
X132193619Y-82281805D02*
X132193619Y-82662757D01*
X132193619Y-82662757D02*
X132241238Y-82757995D01*
X132241238Y-82757995D02*
X132288857Y-82805614D01*
X132288857Y-82805614D02*
X132384095Y-82853233D01*
X132384095Y-82853233D02*
X132526952Y-82853233D01*
X132526952Y-82853233D02*
X132622190Y-82805614D01*
X132622190Y-82805614D02*
X132669809Y-82757995D01*
X132669809Y-82757995D02*
X132717428Y-82662757D01*
X132717428Y-82662757D02*
X132717428Y-82281805D01*
X132193619Y-83757995D02*
X132193619Y-83281805D01*
X132193619Y-83281805D02*
X132669809Y-83234186D01*
X132669809Y-83234186D02*
X132622190Y-83281805D01*
X132622190Y-83281805D02*
X132574571Y-83377043D01*
X132574571Y-83377043D02*
X132574571Y-83615138D01*
X132574571Y-83615138D02*
X132622190Y-83710376D01*
X132622190Y-83710376D02*
X132669809Y-83757995D01*
X132669809Y-83757995D02*
X132765047Y-83805614D01*
X132765047Y-83805614D02*
X133003142Y-83805614D01*
X133003142Y-83805614D02*
X133098380Y-83757995D01*
X133098380Y-83757995D02*
X133146000Y-83710376D01*
X133146000Y-83710376D02*
X133193619Y-83615138D01*
X133193619Y-83615138D02*
X133193619Y-83377043D01*
X133193619Y-83377043D02*
X133146000Y-83281805D01*
X133146000Y-83281805D02*
X133098380Y-83234186D01*
X122960619Y-80630733D02*
X122484428Y-80297400D01*
X122960619Y-80059305D02*
X121960619Y-80059305D01*
X121960619Y-80059305D02*
X121960619Y-80440257D01*
X121960619Y-80440257D02*
X122008238Y-80535495D01*
X122008238Y-80535495D02*
X122055857Y-80583114D01*
X122055857Y-80583114D02*
X122151095Y-80630733D01*
X122151095Y-80630733D02*
X122293952Y-80630733D01*
X122293952Y-80630733D02*
X122389190Y-80583114D01*
X122389190Y-80583114D02*
X122436809Y-80535495D01*
X122436809Y-80535495D02*
X122484428Y-80440257D01*
X122484428Y-80440257D02*
X122484428Y-80059305D01*
X121960619Y-81487876D02*
X121960619Y-81297400D01*
X121960619Y-81297400D02*
X122008238Y-81202162D01*
X122008238Y-81202162D02*
X122055857Y-81154543D01*
X122055857Y-81154543D02*
X122198714Y-81059305D01*
X122198714Y-81059305D02*
X122389190Y-81011686D01*
X122389190Y-81011686D02*
X122770142Y-81011686D01*
X122770142Y-81011686D02*
X122865380Y-81059305D01*
X122865380Y-81059305D02*
X122913000Y-81106924D01*
X122913000Y-81106924D02*
X122960619Y-81202162D01*
X122960619Y-81202162D02*
X122960619Y-81392638D01*
X122960619Y-81392638D02*
X122913000Y-81487876D01*
X122913000Y-81487876D02*
X122865380Y-81535495D01*
X122865380Y-81535495D02*
X122770142Y-81583114D01*
X122770142Y-81583114D02*
X122532047Y-81583114D01*
X122532047Y-81583114D02*
X122436809Y-81535495D01*
X122436809Y-81535495D02*
X122389190Y-81487876D01*
X122389190Y-81487876D02*
X122341571Y-81392638D01*
X122341571Y-81392638D02*
X122341571Y-81202162D01*
X122341571Y-81202162D02*
X122389190Y-81106924D01*
X122389190Y-81106924D02*
X122436809Y-81059305D01*
X122436809Y-81059305D02*
X122532047Y-81011686D01*
X128393619Y-80757733D02*
X127917428Y-80424400D01*
X128393619Y-80186305D02*
X127393619Y-80186305D01*
X127393619Y-80186305D02*
X127393619Y-80567257D01*
X127393619Y-80567257D02*
X127441238Y-80662495D01*
X127441238Y-80662495D02*
X127488857Y-80710114D01*
X127488857Y-80710114D02*
X127584095Y-80757733D01*
X127584095Y-80757733D02*
X127726952Y-80757733D01*
X127726952Y-80757733D02*
X127822190Y-80710114D01*
X127822190Y-80710114D02*
X127869809Y-80662495D01*
X127869809Y-80662495D02*
X127917428Y-80567257D01*
X127917428Y-80567257D02*
X127917428Y-80186305D01*
X127393619Y-81091067D02*
X127393619Y-81757733D01*
X127393619Y-81757733D02*
X128393619Y-81329162D01*
X133346619Y-80757733D02*
X132870428Y-80424400D01*
X133346619Y-80186305D02*
X132346619Y-80186305D01*
X132346619Y-80186305D02*
X132346619Y-80567257D01*
X132346619Y-80567257D02*
X132394238Y-80662495D01*
X132394238Y-80662495D02*
X132441857Y-80710114D01*
X132441857Y-80710114D02*
X132537095Y-80757733D01*
X132537095Y-80757733D02*
X132679952Y-80757733D01*
X132679952Y-80757733D02*
X132775190Y-80710114D01*
X132775190Y-80710114D02*
X132822809Y-80662495D01*
X132822809Y-80662495D02*
X132870428Y-80567257D01*
X132870428Y-80567257D02*
X132870428Y-80186305D01*
X132775190Y-81329162D02*
X132727571Y-81233924D01*
X132727571Y-81233924D02*
X132679952Y-81186305D01*
X132679952Y-81186305D02*
X132584714Y-81138686D01*
X132584714Y-81138686D02*
X132537095Y-81138686D01*
X132537095Y-81138686D02*
X132441857Y-81186305D01*
X132441857Y-81186305D02*
X132394238Y-81233924D01*
X132394238Y-81233924D02*
X132346619Y-81329162D01*
X132346619Y-81329162D02*
X132346619Y-81519638D01*
X132346619Y-81519638D02*
X132394238Y-81614876D01*
X132394238Y-81614876D02*
X132441857Y-81662495D01*
X132441857Y-81662495D02*
X132537095Y-81710114D01*
X132537095Y-81710114D02*
X132584714Y-81710114D01*
X132584714Y-81710114D02*
X132679952Y-81662495D01*
X132679952Y-81662495D02*
X132727571Y-81614876D01*
X132727571Y-81614876D02*
X132775190Y-81519638D01*
X132775190Y-81519638D02*
X132775190Y-81329162D01*
X132775190Y-81329162D02*
X132822809Y-81233924D01*
X132822809Y-81233924D02*
X132870428Y-81186305D01*
X132870428Y-81186305D02*
X132965666Y-81138686D01*
X132965666Y-81138686D02*
X133156142Y-81138686D01*
X133156142Y-81138686D02*
X133251380Y-81186305D01*
X133251380Y-81186305D02*
X133299000Y-81233924D01*
X133299000Y-81233924D02*
X133346619Y-81329162D01*
X133346619Y-81329162D02*
X133346619Y-81519638D01*
X133346619Y-81519638D02*
X133299000Y-81614876D01*
X133299000Y-81614876D02*
X133251380Y-81662495D01*
X133251380Y-81662495D02*
X133156142Y-81710114D01*
X133156142Y-81710114D02*
X132965666Y-81710114D01*
X132965666Y-81710114D02*
X132870428Y-81662495D01*
X132870428Y-81662495D02*
X132822809Y-81614876D01*
X132822809Y-81614876D02*
X132775190Y-81519638D01*
X115787466Y-107314219D02*
X116120799Y-106838028D01*
X116358894Y-107314219D02*
X116358894Y-106314219D01*
X116358894Y-106314219D02*
X115977942Y-106314219D01*
X115977942Y-106314219D02*
X115882704Y-106361838D01*
X115882704Y-106361838D02*
X115835085Y-106409457D01*
X115835085Y-106409457D02*
X115787466Y-106504695D01*
X115787466Y-106504695D02*
X115787466Y-106647552D01*
X115787466Y-106647552D02*
X115835085Y-106742790D01*
X115835085Y-106742790D02*
X115882704Y-106790409D01*
X115882704Y-106790409D02*
X115977942Y-106838028D01*
X115977942Y-106838028D02*
X116358894Y-106838028D01*
X115311275Y-107314219D02*
X115120799Y-107314219D01*
X115120799Y-107314219D02*
X115025561Y-107266600D01*
X115025561Y-107266600D02*
X114977942Y-107218980D01*
X114977942Y-107218980D02*
X114882704Y-107076123D01*
X114882704Y-107076123D02*
X114835085Y-106885647D01*
X114835085Y-106885647D02*
X114835085Y-106504695D01*
X114835085Y-106504695D02*
X114882704Y-106409457D01*
X114882704Y-106409457D02*
X114930323Y-106361838D01*
X114930323Y-106361838D02*
X115025561Y-106314219D01*
X115025561Y-106314219D02*
X115216037Y-106314219D01*
X115216037Y-106314219D02*
X115311275Y-106361838D01*
X115311275Y-106361838D02*
X115358894Y-106409457D01*
X115358894Y-106409457D02*
X115406513Y-106504695D01*
X115406513Y-106504695D02*
X115406513Y-106742790D01*
X115406513Y-106742790D02*
X115358894Y-106838028D01*
X115358894Y-106838028D02*
X115311275Y-106885647D01*
X115311275Y-106885647D02*
X115216037Y-106933266D01*
X115216037Y-106933266D02*
X115025561Y-106933266D01*
X115025561Y-106933266D02*
X114930323Y-106885647D01*
X114930323Y-106885647D02*
X114882704Y-106838028D01*
X114882704Y-106838028D02*
X114835085Y-106742790D01*
X126389619Y-83583542D02*
X125913428Y-83250209D01*
X126389619Y-83012114D02*
X125389619Y-83012114D01*
X125389619Y-83012114D02*
X125389619Y-83393066D01*
X125389619Y-83393066D02*
X125437238Y-83488304D01*
X125437238Y-83488304D02*
X125484857Y-83535923D01*
X125484857Y-83535923D02*
X125580095Y-83583542D01*
X125580095Y-83583542D02*
X125722952Y-83583542D01*
X125722952Y-83583542D02*
X125818190Y-83535923D01*
X125818190Y-83535923D02*
X125865809Y-83488304D01*
X125865809Y-83488304D02*
X125913428Y-83393066D01*
X125913428Y-83393066D02*
X125913428Y-83012114D01*
X126389619Y-84535923D02*
X126389619Y-83964495D01*
X126389619Y-84250209D02*
X125389619Y-84250209D01*
X125389619Y-84250209D02*
X125532476Y-84154971D01*
X125532476Y-84154971D02*
X125627714Y-84059733D01*
X125627714Y-84059733D02*
X125675333Y-83964495D01*
X126389619Y-85488304D02*
X126389619Y-84916876D01*
X126389619Y-85202590D02*
X125389619Y-85202590D01*
X125389619Y-85202590D02*
X125532476Y-85107352D01*
X125532476Y-85107352D02*
X125627714Y-85012114D01*
X125627714Y-85012114D02*
X125675333Y-84916876D01*
X166013619Y-107586542D02*
X165537428Y-107253209D01*
X166013619Y-107015114D02*
X165013619Y-107015114D01*
X165013619Y-107015114D02*
X165013619Y-107396066D01*
X165013619Y-107396066D02*
X165061238Y-107491304D01*
X165061238Y-107491304D02*
X165108857Y-107538923D01*
X165108857Y-107538923D02*
X165204095Y-107586542D01*
X165204095Y-107586542D02*
X165346952Y-107586542D01*
X165346952Y-107586542D02*
X165442190Y-107538923D01*
X165442190Y-107538923D02*
X165489809Y-107491304D01*
X165489809Y-107491304D02*
X165537428Y-107396066D01*
X165537428Y-107396066D02*
X165537428Y-107015114D01*
X166013619Y-108538923D02*
X166013619Y-107967495D01*
X166013619Y-108253209D02*
X165013619Y-108253209D01*
X165013619Y-108253209D02*
X165156476Y-108157971D01*
X165156476Y-108157971D02*
X165251714Y-108062733D01*
X165251714Y-108062733D02*
X165299333Y-107967495D01*
X165442190Y-109110352D02*
X165394571Y-109015114D01*
X165394571Y-109015114D02*
X165346952Y-108967495D01*
X165346952Y-108967495D02*
X165251714Y-108919876D01*
X165251714Y-108919876D02*
X165204095Y-108919876D01*
X165204095Y-108919876D02*
X165108857Y-108967495D01*
X165108857Y-108967495D02*
X165061238Y-109015114D01*
X165061238Y-109015114D02*
X165013619Y-109110352D01*
X165013619Y-109110352D02*
X165013619Y-109300828D01*
X165013619Y-109300828D02*
X165061238Y-109396066D01*
X165061238Y-109396066D02*
X165108857Y-109443685D01*
X165108857Y-109443685D02*
X165204095Y-109491304D01*
X165204095Y-109491304D02*
X165251714Y-109491304D01*
X165251714Y-109491304D02*
X165346952Y-109443685D01*
X165346952Y-109443685D02*
X165394571Y-109396066D01*
X165394571Y-109396066D02*
X165442190Y-109300828D01*
X165442190Y-109300828D02*
X165442190Y-109110352D01*
X165442190Y-109110352D02*
X165489809Y-109015114D01*
X165489809Y-109015114D02*
X165537428Y-108967495D01*
X165537428Y-108967495D02*
X165632666Y-108919876D01*
X165632666Y-108919876D02*
X165823142Y-108919876D01*
X165823142Y-108919876D02*
X165918380Y-108967495D01*
X165918380Y-108967495D02*
X165966000Y-109015114D01*
X165966000Y-109015114D02*
X166013619Y-109110352D01*
X166013619Y-109110352D02*
X166013619Y-109300828D01*
X166013619Y-109300828D02*
X165966000Y-109396066D01*
X165966000Y-109396066D02*
X165918380Y-109443685D01*
X165918380Y-109443685D02*
X165823142Y-109491304D01*
X165823142Y-109491304D02*
X165632666Y-109491304D01*
X165632666Y-109491304D02*
X165537428Y-109443685D01*
X165537428Y-109443685D02*
X165489809Y-109396066D01*
X165489809Y-109396066D02*
X165442190Y-109300828D01*
X168333657Y-106752219D02*
X168666990Y-106276028D01*
X168905085Y-106752219D02*
X168905085Y-105752219D01*
X168905085Y-105752219D02*
X168524133Y-105752219D01*
X168524133Y-105752219D02*
X168428895Y-105799838D01*
X168428895Y-105799838D02*
X168381276Y-105847457D01*
X168381276Y-105847457D02*
X168333657Y-105942695D01*
X168333657Y-105942695D02*
X168333657Y-106085552D01*
X168333657Y-106085552D02*
X168381276Y-106180790D01*
X168381276Y-106180790D02*
X168428895Y-106228409D01*
X168428895Y-106228409D02*
X168524133Y-106276028D01*
X168524133Y-106276028D02*
X168905085Y-106276028D01*
X167381276Y-106752219D02*
X167952704Y-106752219D01*
X167666990Y-106752219D02*
X167666990Y-105752219D01*
X167666990Y-105752219D02*
X167762228Y-105895076D01*
X167762228Y-105895076D02*
X167857466Y-105990314D01*
X167857466Y-105990314D02*
X167952704Y-106037933D01*
X166905085Y-106752219D02*
X166714609Y-106752219D01*
X166714609Y-106752219D02*
X166619371Y-106704600D01*
X166619371Y-106704600D02*
X166571752Y-106656980D01*
X166571752Y-106656980D02*
X166476514Y-106514123D01*
X166476514Y-106514123D02*
X166428895Y-106323647D01*
X166428895Y-106323647D02*
X166428895Y-105942695D01*
X166428895Y-105942695D02*
X166476514Y-105847457D01*
X166476514Y-105847457D02*
X166524133Y-105799838D01*
X166524133Y-105799838D02*
X166619371Y-105752219D01*
X166619371Y-105752219D02*
X166809847Y-105752219D01*
X166809847Y-105752219D02*
X166905085Y-105799838D01*
X166905085Y-105799838D02*
X166952704Y-105847457D01*
X166952704Y-105847457D02*
X167000323Y-105942695D01*
X167000323Y-105942695D02*
X167000323Y-106180790D01*
X167000323Y-106180790D02*
X166952704Y-106276028D01*
X166952704Y-106276028D02*
X166905085Y-106323647D01*
X166905085Y-106323647D02*
X166809847Y-106371266D01*
X166809847Y-106371266D02*
X166619371Y-106371266D01*
X166619371Y-106371266D02*
X166524133Y-106323647D01*
X166524133Y-106323647D02*
X166476514Y-106276028D01*
X166476514Y-106276028D02*
X166428895Y-106180790D01*
X172462619Y-118381542D02*
X171986428Y-118048209D01*
X172462619Y-117810114D02*
X171462619Y-117810114D01*
X171462619Y-117810114D02*
X171462619Y-118191066D01*
X171462619Y-118191066D02*
X171510238Y-118286304D01*
X171510238Y-118286304D02*
X171557857Y-118333923D01*
X171557857Y-118333923D02*
X171653095Y-118381542D01*
X171653095Y-118381542D02*
X171795952Y-118381542D01*
X171795952Y-118381542D02*
X171891190Y-118333923D01*
X171891190Y-118333923D02*
X171938809Y-118286304D01*
X171938809Y-118286304D02*
X171986428Y-118191066D01*
X171986428Y-118191066D02*
X171986428Y-117810114D01*
X171557857Y-118762495D02*
X171510238Y-118810114D01*
X171510238Y-118810114D02*
X171462619Y-118905352D01*
X171462619Y-118905352D02*
X171462619Y-119143447D01*
X171462619Y-119143447D02*
X171510238Y-119238685D01*
X171510238Y-119238685D02*
X171557857Y-119286304D01*
X171557857Y-119286304D02*
X171653095Y-119333923D01*
X171653095Y-119333923D02*
X171748333Y-119333923D01*
X171748333Y-119333923D02*
X171891190Y-119286304D01*
X171891190Y-119286304D02*
X172462619Y-118714876D01*
X172462619Y-118714876D02*
X172462619Y-119333923D01*
X171462619Y-119952971D02*
X171462619Y-120048209D01*
X171462619Y-120048209D02*
X171510238Y-120143447D01*
X171510238Y-120143447D02*
X171557857Y-120191066D01*
X171557857Y-120191066D02*
X171653095Y-120238685D01*
X171653095Y-120238685D02*
X171843571Y-120286304D01*
X171843571Y-120286304D02*
X172081666Y-120286304D01*
X172081666Y-120286304D02*
X172272142Y-120238685D01*
X172272142Y-120238685D02*
X172367380Y-120191066D01*
X172367380Y-120191066D02*
X172415000Y-120143447D01*
X172415000Y-120143447D02*
X172462619Y-120048209D01*
X172462619Y-120048209D02*
X172462619Y-119952971D01*
X172462619Y-119952971D02*
X172415000Y-119857733D01*
X172415000Y-119857733D02*
X172367380Y-119810114D01*
X172367380Y-119810114D02*
X172272142Y-119762495D01*
X172272142Y-119762495D02*
X172081666Y-119714876D01*
X172081666Y-119714876D02*
X171843571Y-119714876D01*
X171843571Y-119714876D02*
X171653095Y-119762495D01*
X171653095Y-119762495D02*
X171557857Y-119810114D01*
X171557857Y-119810114D02*
X171510238Y-119857733D01*
X171510238Y-119857733D02*
X171462619Y-119952971D01*
X154085119Y-100474542D02*
X153608928Y-100141209D01*
X154085119Y-99903114D02*
X153085119Y-99903114D01*
X153085119Y-99903114D02*
X153085119Y-100284066D01*
X153085119Y-100284066D02*
X153132738Y-100379304D01*
X153132738Y-100379304D02*
X153180357Y-100426923D01*
X153180357Y-100426923D02*
X153275595Y-100474542D01*
X153275595Y-100474542D02*
X153418452Y-100474542D01*
X153418452Y-100474542D02*
X153513690Y-100426923D01*
X153513690Y-100426923D02*
X153561309Y-100379304D01*
X153561309Y-100379304D02*
X153608928Y-100284066D01*
X153608928Y-100284066D02*
X153608928Y-99903114D01*
X153180357Y-100855495D02*
X153132738Y-100903114D01*
X153132738Y-100903114D02*
X153085119Y-100998352D01*
X153085119Y-100998352D02*
X153085119Y-101236447D01*
X153085119Y-101236447D02*
X153132738Y-101331685D01*
X153132738Y-101331685D02*
X153180357Y-101379304D01*
X153180357Y-101379304D02*
X153275595Y-101426923D01*
X153275595Y-101426923D02*
X153370833Y-101426923D01*
X153370833Y-101426923D02*
X153513690Y-101379304D01*
X153513690Y-101379304D02*
X154085119Y-100807876D01*
X154085119Y-100807876D02*
X154085119Y-101426923D01*
X153085119Y-101760257D02*
X153085119Y-102379304D01*
X153085119Y-102379304D02*
X153466071Y-102045971D01*
X153466071Y-102045971D02*
X153466071Y-102188828D01*
X153466071Y-102188828D02*
X153513690Y-102284066D01*
X153513690Y-102284066D02*
X153561309Y-102331685D01*
X153561309Y-102331685D02*
X153656547Y-102379304D01*
X153656547Y-102379304D02*
X153894642Y-102379304D01*
X153894642Y-102379304D02*
X153989880Y-102331685D01*
X153989880Y-102331685D02*
X154037500Y-102284066D01*
X154037500Y-102284066D02*
X154085119Y-102188828D01*
X154085119Y-102188828D02*
X154085119Y-101903114D01*
X154085119Y-101903114D02*
X154037500Y-101807876D01*
X154037500Y-101807876D02*
X153989880Y-101760257D01*
X152141157Y-105726719D02*
X152474490Y-105250528D01*
X152712585Y-105726719D02*
X152712585Y-104726719D01*
X152712585Y-104726719D02*
X152331633Y-104726719D01*
X152331633Y-104726719D02*
X152236395Y-104774338D01*
X152236395Y-104774338D02*
X152188776Y-104821957D01*
X152188776Y-104821957D02*
X152141157Y-104917195D01*
X152141157Y-104917195D02*
X152141157Y-105060052D01*
X152141157Y-105060052D02*
X152188776Y-105155290D01*
X152188776Y-105155290D02*
X152236395Y-105202909D01*
X152236395Y-105202909D02*
X152331633Y-105250528D01*
X152331633Y-105250528D02*
X152712585Y-105250528D01*
X151760204Y-104821957D02*
X151712585Y-104774338D01*
X151712585Y-104774338D02*
X151617347Y-104726719D01*
X151617347Y-104726719D02*
X151379252Y-104726719D01*
X151379252Y-104726719D02*
X151284014Y-104774338D01*
X151284014Y-104774338D02*
X151236395Y-104821957D01*
X151236395Y-104821957D02*
X151188776Y-104917195D01*
X151188776Y-104917195D02*
X151188776Y-105012433D01*
X151188776Y-105012433D02*
X151236395Y-105155290D01*
X151236395Y-105155290D02*
X151807823Y-105726719D01*
X151807823Y-105726719D02*
X151188776Y-105726719D01*
X150331633Y-105060052D02*
X150331633Y-105726719D01*
X150569728Y-104679100D02*
X150807823Y-105393385D01*
X150807823Y-105393385D02*
X150188776Y-105393385D01*
X143026619Y-123080542D02*
X142550428Y-122747209D01*
X143026619Y-122509114D02*
X142026619Y-122509114D01*
X142026619Y-122509114D02*
X142026619Y-122890066D01*
X142026619Y-122890066D02*
X142074238Y-122985304D01*
X142074238Y-122985304D02*
X142121857Y-123032923D01*
X142121857Y-123032923D02*
X142217095Y-123080542D01*
X142217095Y-123080542D02*
X142359952Y-123080542D01*
X142359952Y-123080542D02*
X142455190Y-123032923D01*
X142455190Y-123032923D02*
X142502809Y-122985304D01*
X142502809Y-122985304D02*
X142550428Y-122890066D01*
X142550428Y-122890066D02*
X142550428Y-122509114D01*
X142121857Y-123461495D02*
X142074238Y-123509114D01*
X142074238Y-123509114D02*
X142026619Y-123604352D01*
X142026619Y-123604352D02*
X142026619Y-123842447D01*
X142026619Y-123842447D02*
X142074238Y-123937685D01*
X142074238Y-123937685D02*
X142121857Y-123985304D01*
X142121857Y-123985304D02*
X142217095Y-124032923D01*
X142217095Y-124032923D02*
X142312333Y-124032923D01*
X142312333Y-124032923D02*
X142455190Y-123985304D01*
X142455190Y-123985304D02*
X143026619Y-123413876D01*
X143026619Y-123413876D02*
X143026619Y-124032923D01*
X142026619Y-124366257D02*
X142026619Y-125032923D01*
X142026619Y-125032923D02*
X143026619Y-124604352D01*
X145693619Y-123080542D02*
X145217428Y-122747209D01*
X145693619Y-122509114D02*
X144693619Y-122509114D01*
X144693619Y-122509114D02*
X144693619Y-122890066D01*
X144693619Y-122890066D02*
X144741238Y-122985304D01*
X144741238Y-122985304D02*
X144788857Y-123032923D01*
X144788857Y-123032923D02*
X144884095Y-123080542D01*
X144884095Y-123080542D02*
X145026952Y-123080542D01*
X145026952Y-123080542D02*
X145122190Y-123032923D01*
X145122190Y-123032923D02*
X145169809Y-122985304D01*
X145169809Y-122985304D02*
X145217428Y-122890066D01*
X145217428Y-122890066D02*
X145217428Y-122509114D01*
X144788857Y-123461495D02*
X144741238Y-123509114D01*
X144741238Y-123509114D02*
X144693619Y-123604352D01*
X144693619Y-123604352D02*
X144693619Y-123842447D01*
X144693619Y-123842447D02*
X144741238Y-123937685D01*
X144741238Y-123937685D02*
X144788857Y-123985304D01*
X144788857Y-123985304D02*
X144884095Y-124032923D01*
X144884095Y-124032923D02*
X144979333Y-124032923D01*
X144979333Y-124032923D02*
X145122190Y-123985304D01*
X145122190Y-123985304D02*
X145693619Y-123413876D01*
X145693619Y-123413876D02*
X145693619Y-124032923D01*
X145122190Y-124604352D02*
X145074571Y-124509114D01*
X145074571Y-124509114D02*
X145026952Y-124461495D01*
X145026952Y-124461495D02*
X144931714Y-124413876D01*
X144931714Y-124413876D02*
X144884095Y-124413876D01*
X144884095Y-124413876D02*
X144788857Y-124461495D01*
X144788857Y-124461495D02*
X144741238Y-124509114D01*
X144741238Y-124509114D02*
X144693619Y-124604352D01*
X144693619Y-124604352D02*
X144693619Y-124794828D01*
X144693619Y-124794828D02*
X144741238Y-124890066D01*
X144741238Y-124890066D02*
X144788857Y-124937685D01*
X144788857Y-124937685D02*
X144884095Y-124985304D01*
X144884095Y-124985304D02*
X144931714Y-124985304D01*
X144931714Y-124985304D02*
X145026952Y-124937685D01*
X145026952Y-124937685D02*
X145074571Y-124890066D01*
X145074571Y-124890066D02*
X145122190Y-124794828D01*
X145122190Y-124794828D02*
X145122190Y-124604352D01*
X145122190Y-124604352D02*
X145169809Y-124509114D01*
X145169809Y-124509114D02*
X145217428Y-124461495D01*
X145217428Y-124461495D02*
X145312666Y-124413876D01*
X145312666Y-124413876D02*
X145503142Y-124413876D01*
X145503142Y-124413876D02*
X145598380Y-124461495D01*
X145598380Y-124461495D02*
X145646000Y-124509114D01*
X145646000Y-124509114D02*
X145693619Y-124604352D01*
X145693619Y-124604352D02*
X145693619Y-124794828D01*
X145693619Y-124794828D02*
X145646000Y-124890066D01*
X145646000Y-124890066D02*
X145598380Y-124937685D01*
X145598380Y-124937685D02*
X145503142Y-124985304D01*
X145503142Y-124985304D02*
X145312666Y-124985304D01*
X145312666Y-124985304D02*
X145217428Y-124937685D01*
X145217428Y-124937685D02*
X145169809Y-124890066D01*
X145169809Y-124890066D02*
X145122190Y-124794828D01*
X156841619Y-123080542D02*
X156365428Y-122747209D01*
X156841619Y-122509114D02*
X155841619Y-122509114D01*
X155841619Y-122509114D02*
X155841619Y-122890066D01*
X155841619Y-122890066D02*
X155889238Y-122985304D01*
X155889238Y-122985304D02*
X155936857Y-123032923D01*
X155936857Y-123032923D02*
X156032095Y-123080542D01*
X156032095Y-123080542D02*
X156174952Y-123080542D01*
X156174952Y-123080542D02*
X156270190Y-123032923D01*
X156270190Y-123032923D02*
X156317809Y-122985304D01*
X156317809Y-122985304D02*
X156365428Y-122890066D01*
X156365428Y-122890066D02*
X156365428Y-122509114D01*
X155841619Y-123413876D02*
X155841619Y-124032923D01*
X155841619Y-124032923D02*
X156222571Y-123699590D01*
X156222571Y-123699590D02*
X156222571Y-123842447D01*
X156222571Y-123842447D02*
X156270190Y-123937685D01*
X156270190Y-123937685D02*
X156317809Y-123985304D01*
X156317809Y-123985304D02*
X156413047Y-124032923D01*
X156413047Y-124032923D02*
X156651142Y-124032923D01*
X156651142Y-124032923D02*
X156746380Y-123985304D01*
X156746380Y-123985304D02*
X156794000Y-123937685D01*
X156794000Y-123937685D02*
X156841619Y-123842447D01*
X156841619Y-123842447D02*
X156841619Y-123556733D01*
X156841619Y-123556733D02*
X156794000Y-123461495D01*
X156794000Y-123461495D02*
X156746380Y-123413876D01*
X155936857Y-124413876D02*
X155889238Y-124461495D01*
X155889238Y-124461495D02*
X155841619Y-124556733D01*
X155841619Y-124556733D02*
X155841619Y-124794828D01*
X155841619Y-124794828D02*
X155889238Y-124890066D01*
X155889238Y-124890066D02*
X155936857Y-124937685D01*
X155936857Y-124937685D02*
X156032095Y-124985304D01*
X156032095Y-124985304D02*
X156127333Y-124985304D01*
X156127333Y-124985304D02*
X156270190Y-124937685D01*
X156270190Y-124937685D02*
X156841619Y-124366257D01*
X156841619Y-124366257D02*
X156841619Y-124985304D01*
X159508619Y-123080542D02*
X159032428Y-122747209D01*
X159508619Y-122509114D02*
X158508619Y-122509114D01*
X158508619Y-122509114D02*
X158508619Y-122890066D01*
X158508619Y-122890066D02*
X158556238Y-122985304D01*
X158556238Y-122985304D02*
X158603857Y-123032923D01*
X158603857Y-123032923D02*
X158699095Y-123080542D01*
X158699095Y-123080542D02*
X158841952Y-123080542D01*
X158841952Y-123080542D02*
X158937190Y-123032923D01*
X158937190Y-123032923D02*
X158984809Y-122985304D01*
X158984809Y-122985304D02*
X159032428Y-122890066D01*
X159032428Y-122890066D02*
X159032428Y-122509114D01*
X158508619Y-123413876D02*
X158508619Y-124032923D01*
X158508619Y-124032923D02*
X158889571Y-123699590D01*
X158889571Y-123699590D02*
X158889571Y-123842447D01*
X158889571Y-123842447D02*
X158937190Y-123937685D01*
X158937190Y-123937685D02*
X158984809Y-123985304D01*
X158984809Y-123985304D02*
X159080047Y-124032923D01*
X159080047Y-124032923D02*
X159318142Y-124032923D01*
X159318142Y-124032923D02*
X159413380Y-123985304D01*
X159413380Y-123985304D02*
X159461000Y-123937685D01*
X159461000Y-123937685D02*
X159508619Y-123842447D01*
X159508619Y-123842447D02*
X159508619Y-123556733D01*
X159508619Y-123556733D02*
X159461000Y-123461495D01*
X159461000Y-123461495D02*
X159413380Y-123413876D01*
X158508619Y-124366257D02*
X158508619Y-124985304D01*
X158508619Y-124985304D02*
X158889571Y-124651971D01*
X158889571Y-124651971D02*
X158889571Y-124794828D01*
X158889571Y-124794828D02*
X158937190Y-124890066D01*
X158937190Y-124890066D02*
X158984809Y-124937685D01*
X158984809Y-124937685D02*
X159080047Y-124985304D01*
X159080047Y-124985304D02*
X159318142Y-124985304D01*
X159318142Y-124985304D02*
X159413380Y-124937685D01*
X159413380Y-124937685D02*
X159461000Y-124890066D01*
X159461000Y-124890066D02*
X159508619Y-124794828D01*
X159508619Y-124794828D02*
X159508619Y-124509114D01*
X159508619Y-124509114D02*
X159461000Y-124413876D01*
X159461000Y-124413876D02*
X159413380Y-124366257D01*
X144623619Y-82662733D02*
X144147428Y-82329400D01*
X144623619Y-82091305D02*
X143623619Y-82091305D01*
X143623619Y-82091305D02*
X143623619Y-82472257D01*
X143623619Y-82472257D02*
X143671238Y-82567495D01*
X143671238Y-82567495D02*
X143718857Y-82615114D01*
X143718857Y-82615114D02*
X143814095Y-82662733D01*
X143814095Y-82662733D02*
X143956952Y-82662733D01*
X143956952Y-82662733D02*
X144052190Y-82615114D01*
X144052190Y-82615114D02*
X144099809Y-82567495D01*
X144099809Y-82567495D02*
X144147428Y-82472257D01*
X144147428Y-82472257D02*
X144147428Y-82091305D01*
X143956952Y-83519876D02*
X144623619Y-83519876D01*
X143576000Y-83281781D02*
X144290285Y-83043686D01*
X144290285Y-83043686D02*
X144290285Y-83662733D01*
D11*
X134470981Y-76370543D02*
X132946981Y-76370543D01*
X132946981Y-76370543D02*
X132946981Y-76733400D01*
X132946981Y-76733400D02*
X133019552Y-76951114D01*
X133019552Y-76951114D02*
X133164695Y-77096257D01*
X133164695Y-77096257D02*
X133309838Y-77168828D01*
X133309838Y-77168828D02*
X133600124Y-77241400D01*
X133600124Y-77241400D02*
X133817838Y-77241400D01*
X133817838Y-77241400D02*
X134108124Y-77168828D01*
X134108124Y-77168828D02*
X134253267Y-77096257D01*
X134253267Y-77096257D02*
X134398410Y-76951114D01*
X134398410Y-76951114D02*
X134470981Y-76733400D01*
X134470981Y-76733400D02*
X134470981Y-76370543D01*
X132946981Y-78620257D02*
X132946981Y-77894543D01*
X132946981Y-77894543D02*
X133672695Y-77821971D01*
X133672695Y-77821971D02*
X133600124Y-77894543D01*
X133600124Y-77894543D02*
X133527552Y-78039686D01*
X133527552Y-78039686D02*
X133527552Y-78402543D01*
X133527552Y-78402543D02*
X133600124Y-78547686D01*
X133600124Y-78547686D02*
X133672695Y-78620257D01*
X133672695Y-78620257D02*
X133817838Y-78692828D01*
X133817838Y-78692828D02*
X134180695Y-78692828D01*
X134180695Y-78692828D02*
X134325838Y-78620257D01*
X134325838Y-78620257D02*
X134398410Y-78547686D01*
X134398410Y-78547686D02*
X134470981Y-78402543D01*
X134470981Y-78402543D02*
X134470981Y-78039686D01*
X134470981Y-78039686D02*
X134398410Y-77894543D01*
X134398410Y-77894543D02*
X134325838Y-77821971D01*
D12*
X132315767Y-79177122D02*
X132315767Y-79415398D01*
X132458733Y-79129467D02*
X131958353Y-79296260D01*
X131958353Y-79296260D02*
X132458733Y-79463053D01*
X132458733Y-75563488D02*
X131958353Y-75563488D01*
X132458733Y-75849419D02*
X132172802Y-75634970D01*
X131958353Y-75849419D02*
X132244285Y-75563488D01*
D10*
X106426380Y-102601733D02*
X106474000Y-102554114D01*
X106474000Y-102554114D02*
X106521619Y-102411257D01*
X106521619Y-102411257D02*
X106521619Y-102316019D01*
X106521619Y-102316019D02*
X106474000Y-102173162D01*
X106474000Y-102173162D02*
X106378761Y-102077924D01*
X106378761Y-102077924D02*
X106283523Y-102030305D01*
X106283523Y-102030305D02*
X106093047Y-101982686D01*
X106093047Y-101982686D02*
X105950190Y-101982686D01*
X105950190Y-101982686D02*
X105759714Y-102030305D01*
X105759714Y-102030305D02*
X105664476Y-102077924D01*
X105664476Y-102077924D02*
X105569238Y-102173162D01*
X105569238Y-102173162D02*
X105521619Y-102316019D01*
X105521619Y-102316019D02*
X105521619Y-102411257D01*
X105521619Y-102411257D02*
X105569238Y-102554114D01*
X105569238Y-102554114D02*
X105616857Y-102601733D01*
X105854952Y-103458876D02*
X106521619Y-103458876D01*
X105474000Y-103220781D02*
X106188285Y-102982686D01*
X106188285Y-102982686D02*
X106188285Y-103601733D01*
X117729380Y-90028733D02*
X117777000Y-89981114D01*
X117777000Y-89981114D02*
X117824619Y-89838257D01*
X117824619Y-89838257D02*
X117824619Y-89743019D01*
X117824619Y-89743019D02*
X117777000Y-89600162D01*
X117777000Y-89600162D02*
X117681761Y-89504924D01*
X117681761Y-89504924D02*
X117586523Y-89457305D01*
X117586523Y-89457305D02*
X117396047Y-89409686D01*
X117396047Y-89409686D02*
X117253190Y-89409686D01*
X117253190Y-89409686D02*
X117062714Y-89457305D01*
X117062714Y-89457305D02*
X116967476Y-89504924D01*
X116967476Y-89504924D02*
X116872238Y-89600162D01*
X116872238Y-89600162D02*
X116824619Y-89743019D01*
X116824619Y-89743019D02*
X116824619Y-89838257D01*
X116824619Y-89838257D02*
X116872238Y-89981114D01*
X116872238Y-89981114D02*
X116919857Y-90028733D01*
X116824619Y-90362067D02*
X116824619Y-90981114D01*
X116824619Y-90981114D02*
X117205571Y-90647781D01*
X117205571Y-90647781D02*
X117205571Y-90790638D01*
X117205571Y-90790638D02*
X117253190Y-90885876D01*
X117253190Y-90885876D02*
X117300809Y-90933495D01*
X117300809Y-90933495D02*
X117396047Y-90981114D01*
X117396047Y-90981114D02*
X117634142Y-90981114D01*
X117634142Y-90981114D02*
X117729380Y-90933495D01*
X117729380Y-90933495D02*
X117777000Y-90885876D01*
X117777000Y-90885876D02*
X117824619Y-90790638D01*
X117824619Y-90790638D02*
X117824619Y-90504924D01*
X117824619Y-90504924D02*
X117777000Y-90409686D01*
X117777000Y-90409686D02*
X117729380Y-90362067D01*
X115328380Y-86965493D02*
X115376000Y-86917874D01*
X115376000Y-86917874D02*
X115423619Y-86775017D01*
X115423619Y-86775017D02*
X115423619Y-86679779D01*
X115423619Y-86679779D02*
X115376000Y-86536922D01*
X115376000Y-86536922D02*
X115280761Y-86441684D01*
X115280761Y-86441684D02*
X115185523Y-86394065D01*
X115185523Y-86394065D02*
X114995047Y-86346446D01*
X114995047Y-86346446D02*
X114852190Y-86346446D01*
X114852190Y-86346446D02*
X114661714Y-86394065D01*
X114661714Y-86394065D02*
X114566476Y-86441684D01*
X114566476Y-86441684D02*
X114471238Y-86536922D01*
X114471238Y-86536922D02*
X114423619Y-86679779D01*
X114423619Y-86679779D02*
X114423619Y-86775017D01*
X114423619Y-86775017D02*
X114471238Y-86917874D01*
X114471238Y-86917874D02*
X114518857Y-86965493D01*
X114518857Y-87346446D02*
X114471238Y-87394065D01*
X114471238Y-87394065D02*
X114423619Y-87489303D01*
X114423619Y-87489303D02*
X114423619Y-87727398D01*
X114423619Y-87727398D02*
X114471238Y-87822636D01*
X114471238Y-87822636D02*
X114518857Y-87870255D01*
X114518857Y-87870255D02*
X114614095Y-87917874D01*
X114614095Y-87917874D02*
X114709333Y-87917874D01*
X114709333Y-87917874D02*
X114852190Y-87870255D01*
X114852190Y-87870255D02*
X115423619Y-87298827D01*
X115423619Y-87298827D02*
X115423619Y-87917874D01*
X131757657Y-111030980D02*
X131805276Y-111078600D01*
X131805276Y-111078600D02*
X131948133Y-111126219D01*
X131948133Y-111126219D02*
X132043371Y-111126219D01*
X132043371Y-111126219D02*
X132186228Y-111078600D01*
X132186228Y-111078600D02*
X132281466Y-110983361D01*
X132281466Y-110983361D02*
X132329085Y-110888123D01*
X132329085Y-110888123D02*
X132376704Y-110697647D01*
X132376704Y-110697647D02*
X132376704Y-110554790D01*
X132376704Y-110554790D02*
X132329085Y-110364314D01*
X132329085Y-110364314D02*
X132281466Y-110269076D01*
X132281466Y-110269076D02*
X132186228Y-110173838D01*
X132186228Y-110173838D02*
X132043371Y-110126219D01*
X132043371Y-110126219D02*
X131948133Y-110126219D01*
X131948133Y-110126219D02*
X131805276Y-110173838D01*
X131805276Y-110173838D02*
X131757657Y-110221457D01*
X130805276Y-111126219D02*
X131376704Y-111126219D01*
X131090990Y-111126219D02*
X131090990Y-110126219D01*
X131090990Y-110126219D02*
X131186228Y-110269076D01*
X131186228Y-110269076D02*
X131281466Y-110364314D01*
X131281466Y-110364314D02*
X131376704Y-110411933D01*
X130186228Y-110126219D02*
X130090990Y-110126219D01*
X130090990Y-110126219D02*
X129995752Y-110173838D01*
X129995752Y-110173838D02*
X129948133Y-110221457D01*
X129948133Y-110221457D02*
X129900514Y-110316695D01*
X129900514Y-110316695D02*
X129852895Y-110507171D01*
X129852895Y-110507171D02*
X129852895Y-110745266D01*
X129852895Y-110745266D02*
X129900514Y-110935742D01*
X129900514Y-110935742D02*
X129948133Y-111030980D01*
X129948133Y-111030980D02*
X129995752Y-111078600D01*
X129995752Y-111078600D02*
X130090990Y-111126219D01*
X130090990Y-111126219D02*
X130186228Y-111126219D01*
X130186228Y-111126219D02*
X130281466Y-111078600D01*
X130281466Y-111078600D02*
X130329085Y-111030980D01*
X130329085Y-111030980D02*
X130376704Y-110935742D01*
X130376704Y-110935742D02*
X130424323Y-110745266D01*
X130424323Y-110745266D02*
X130424323Y-110507171D01*
X130424323Y-110507171D02*
X130376704Y-110316695D01*
X130376704Y-110316695D02*
X130329085Y-110221457D01*
X130329085Y-110221457D02*
X130281466Y-110173838D01*
X130281466Y-110173838D02*
X130186228Y-110126219D01*
X104865466Y-104113219D02*
X105198799Y-103637028D01*
X105436894Y-104113219D02*
X105436894Y-103113219D01*
X105436894Y-103113219D02*
X105055942Y-103113219D01*
X105055942Y-103113219D02*
X104960704Y-103160838D01*
X104960704Y-103160838D02*
X104913085Y-103208457D01*
X104913085Y-103208457D02*
X104865466Y-103303695D01*
X104865466Y-103303695D02*
X104865466Y-103446552D01*
X104865466Y-103446552D02*
X104913085Y-103541790D01*
X104913085Y-103541790D02*
X104960704Y-103589409D01*
X104960704Y-103589409D02*
X105055942Y-103637028D01*
X105055942Y-103637028D02*
X105436894Y-103637028D01*
X104484513Y-103208457D02*
X104436894Y-103160838D01*
X104436894Y-103160838D02*
X104341656Y-103113219D01*
X104341656Y-103113219D02*
X104103561Y-103113219D01*
X104103561Y-103113219D02*
X104008323Y-103160838D01*
X104008323Y-103160838D02*
X103960704Y-103208457D01*
X103960704Y-103208457D02*
X103913085Y-103303695D01*
X103913085Y-103303695D02*
X103913085Y-103398933D01*
X103913085Y-103398933D02*
X103960704Y-103541790D01*
X103960704Y-103541790D02*
X104532132Y-104113219D01*
X104532132Y-104113219D02*
X103913085Y-104113219D01*
X161695619Y-123080542D02*
X161219428Y-122747209D01*
X161695619Y-122509114D02*
X160695619Y-122509114D01*
X160695619Y-122509114D02*
X160695619Y-122890066D01*
X160695619Y-122890066D02*
X160743238Y-122985304D01*
X160743238Y-122985304D02*
X160790857Y-123032923D01*
X160790857Y-123032923D02*
X160886095Y-123080542D01*
X160886095Y-123080542D02*
X161028952Y-123080542D01*
X161028952Y-123080542D02*
X161124190Y-123032923D01*
X161124190Y-123032923D02*
X161171809Y-122985304D01*
X161171809Y-122985304D02*
X161219428Y-122890066D01*
X161219428Y-122890066D02*
X161219428Y-122509114D01*
X160695619Y-123413876D02*
X160695619Y-124032923D01*
X160695619Y-124032923D02*
X161076571Y-123699590D01*
X161076571Y-123699590D02*
X161076571Y-123842447D01*
X161076571Y-123842447D02*
X161124190Y-123937685D01*
X161124190Y-123937685D02*
X161171809Y-123985304D01*
X161171809Y-123985304D02*
X161267047Y-124032923D01*
X161267047Y-124032923D02*
X161505142Y-124032923D01*
X161505142Y-124032923D02*
X161600380Y-123985304D01*
X161600380Y-123985304D02*
X161648000Y-123937685D01*
X161648000Y-123937685D02*
X161695619Y-123842447D01*
X161695619Y-123842447D02*
X161695619Y-123556733D01*
X161695619Y-123556733D02*
X161648000Y-123461495D01*
X161648000Y-123461495D02*
X161600380Y-123413876D01*
X161028952Y-124890066D02*
X161695619Y-124890066D01*
X160648000Y-124651971D02*
X161362285Y-124413876D01*
X161362285Y-124413876D02*
X161362285Y-125032923D01*
X147886380Y-94632542D02*
X147934000Y-94584923D01*
X147934000Y-94584923D02*
X147981619Y-94442066D01*
X147981619Y-94442066D02*
X147981619Y-94346828D01*
X147981619Y-94346828D02*
X147934000Y-94203971D01*
X147934000Y-94203971D02*
X147838761Y-94108733D01*
X147838761Y-94108733D02*
X147743523Y-94061114D01*
X147743523Y-94061114D02*
X147553047Y-94013495D01*
X147553047Y-94013495D02*
X147410190Y-94013495D01*
X147410190Y-94013495D02*
X147219714Y-94061114D01*
X147219714Y-94061114D02*
X147124476Y-94108733D01*
X147124476Y-94108733D02*
X147029238Y-94203971D01*
X147029238Y-94203971D02*
X146981619Y-94346828D01*
X146981619Y-94346828D02*
X146981619Y-94442066D01*
X146981619Y-94442066D02*
X147029238Y-94584923D01*
X147029238Y-94584923D02*
X147076857Y-94632542D01*
X147981619Y-95584923D02*
X147981619Y-95013495D01*
X147981619Y-95299209D02*
X146981619Y-95299209D01*
X146981619Y-95299209D02*
X147124476Y-95203971D01*
X147124476Y-95203971D02*
X147219714Y-95108733D01*
X147219714Y-95108733D02*
X147267333Y-95013495D01*
X147981619Y-96061114D02*
X147981619Y-96251590D01*
X147981619Y-96251590D02*
X147934000Y-96346828D01*
X147934000Y-96346828D02*
X147886380Y-96394447D01*
X147886380Y-96394447D02*
X147743523Y-96489685D01*
X147743523Y-96489685D02*
X147553047Y-96537304D01*
X147553047Y-96537304D02*
X147172095Y-96537304D01*
X147172095Y-96537304D02*
X147076857Y-96489685D01*
X147076857Y-96489685D02*
X147029238Y-96442066D01*
X147029238Y-96442066D02*
X146981619Y-96346828D01*
X146981619Y-96346828D02*
X146981619Y-96156352D01*
X146981619Y-96156352D02*
X147029238Y-96061114D01*
X147029238Y-96061114D02*
X147076857Y-96013495D01*
X147076857Y-96013495D02*
X147172095Y-95965876D01*
X147172095Y-95965876D02*
X147410190Y-95965876D01*
X147410190Y-95965876D02*
X147505428Y-96013495D01*
X147505428Y-96013495D02*
X147553047Y-96061114D01*
X147553047Y-96061114D02*
X147600666Y-96156352D01*
X147600666Y-96156352D02*
X147600666Y-96346828D01*
X147600666Y-96346828D02*
X147553047Y-96442066D01*
X147553047Y-96442066D02*
X147505428Y-96489685D01*
X147505428Y-96489685D02*
X147410190Y-96537304D01*
X150985880Y-90505042D02*
X151033500Y-90457423D01*
X151033500Y-90457423D02*
X151081119Y-90314566D01*
X151081119Y-90314566D02*
X151081119Y-90219328D01*
X151081119Y-90219328D02*
X151033500Y-90076471D01*
X151033500Y-90076471D02*
X150938261Y-89981233D01*
X150938261Y-89981233D02*
X150843023Y-89933614D01*
X150843023Y-89933614D02*
X150652547Y-89885995D01*
X150652547Y-89885995D02*
X150509690Y-89885995D01*
X150509690Y-89885995D02*
X150319214Y-89933614D01*
X150319214Y-89933614D02*
X150223976Y-89981233D01*
X150223976Y-89981233D02*
X150128738Y-90076471D01*
X150128738Y-90076471D02*
X150081119Y-90219328D01*
X150081119Y-90219328D02*
X150081119Y-90314566D01*
X150081119Y-90314566D02*
X150128738Y-90457423D01*
X150128738Y-90457423D02*
X150176357Y-90505042D01*
X150176357Y-90885995D02*
X150128738Y-90933614D01*
X150128738Y-90933614D02*
X150081119Y-91028852D01*
X150081119Y-91028852D02*
X150081119Y-91266947D01*
X150081119Y-91266947D02*
X150128738Y-91362185D01*
X150128738Y-91362185D02*
X150176357Y-91409804D01*
X150176357Y-91409804D02*
X150271595Y-91457423D01*
X150271595Y-91457423D02*
X150366833Y-91457423D01*
X150366833Y-91457423D02*
X150509690Y-91409804D01*
X150509690Y-91409804D02*
X151081119Y-90838376D01*
X151081119Y-90838376D02*
X151081119Y-91457423D01*
X150081119Y-92076471D02*
X150081119Y-92171709D01*
X150081119Y-92171709D02*
X150128738Y-92266947D01*
X150128738Y-92266947D02*
X150176357Y-92314566D01*
X150176357Y-92314566D02*
X150271595Y-92362185D01*
X150271595Y-92362185D02*
X150462071Y-92409804D01*
X150462071Y-92409804D02*
X150700166Y-92409804D01*
X150700166Y-92409804D02*
X150890642Y-92362185D01*
X150890642Y-92362185D02*
X150985880Y-92314566D01*
X150985880Y-92314566D02*
X151033500Y-92266947D01*
X151033500Y-92266947D02*
X151081119Y-92171709D01*
X151081119Y-92171709D02*
X151081119Y-92076471D01*
X151081119Y-92076471D02*
X151033500Y-91981233D01*
X151033500Y-91981233D02*
X150985880Y-91933614D01*
X150985880Y-91933614D02*
X150890642Y-91885995D01*
X150890642Y-91885995D02*
X150700166Y-91838376D01*
X150700166Y-91838376D02*
X150462071Y-91838376D01*
X150462071Y-91838376D02*
X150271595Y-91885995D01*
X150271595Y-91885995D02*
X150176357Y-91933614D01*
X150176357Y-91933614D02*
X150128738Y-91981233D01*
X150128738Y-91981233D02*
X150081119Y-92076471D01*
X154681157Y-97021719D02*
X155014490Y-96545528D01*
X155252585Y-97021719D02*
X155252585Y-96021719D01*
X155252585Y-96021719D02*
X154871633Y-96021719D01*
X154871633Y-96021719D02*
X154776395Y-96069338D01*
X154776395Y-96069338D02*
X154728776Y-96116957D01*
X154728776Y-96116957D02*
X154681157Y-96212195D01*
X154681157Y-96212195D02*
X154681157Y-96355052D01*
X154681157Y-96355052D02*
X154728776Y-96450290D01*
X154728776Y-96450290D02*
X154776395Y-96497909D01*
X154776395Y-96497909D02*
X154871633Y-96545528D01*
X154871633Y-96545528D02*
X155252585Y-96545528D01*
X154347823Y-96021719D02*
X153728776Y-96021719D01*
X153728776Y-96021719D02*
X154062109Y-96402671D01*
X154062109Y-96402671D02*
X153919252Y-96402671D01*
X153919252Y-96402671D02*
X153824014Y-96450290D01*
X153824014Y-96450290D02*
X153776395Y-96497909D01*
X153776395Y-96497909D02*
X153728776Y-96593147D01*
X153728776Y-96593147D02*
X153728776Y-96831242D01*
X153728776Y-96831242D02*
X153776395Y-96926480D01*
X153776395Y-96926480D02*
X153824014Y-96974100D01*
X153824014Y-96974100D02*
X153919252Y-97021719D01*
X153919252Y-97021719D02*
X154204966Y-97021719D01*
X154204966Y-97021719D02*
X154300204Y-96974100D01*
X154300204Y-96974100D02*
X154347823Y-96926480D01*
X152824014Y-96021719D02*
X153300204Y-96021719D01*
X153300204Y-96021719D02*
X153347823Y-96497909D01*
X153347823Y-96497909D02*
X153300204Y-96450290D01*
X153300204Y-96450290D02*
X153204966Y-96402671D01*
X153204966Y-96402671D02*
X152966871Y-96402671D01*
X152966871Y-96402671D02*
X152871633Y-96450290D01*
X152871633Y-96450290D02*
X152824014Y-96497909D01*
X152824014Y-96497909D02*
X152776395Y-96593147D01*
X152776395Y-96593147D02*
X152776395Y-96831242D01*
X152776395Y-96831242D02*
X152824014Y-96926480D01*
X152824014Y-96926480D02*
X152871633Y-96974100D01*
X152871633Y-96974100D02*
X152966871Y-97021719D01*
X152966871Y-97021719D02*
X153204966Y-97021719D01*
X153204966Y-97021719D02*
X153300204Y-96974100D01*
X153300204Y-96974100D02*
X153347823Y-96926480D01*
X156014657Y-95766719D02*
X156347990Y-95290528D01*
X156586085Y-95766719D02*
X156586085Y-94766719D01*
X156586085Y-94766719D02*
X156205133Y-94766719D01*
X156205133Y-94766719D02*
X156109895Y-94814338D01*
X156109895Y-94814338D02*
X156062276Y-94861957D01*
X156062276Y-94861957D02*
X156014657Y-94957195D01*
X156014657Y-94957195D02*
X156014657Y-95100052D01*
X156014657Y-95100052D02*
X156062276Y-95195290D01*
X156062276Y-95195290D02*
X156109895Y-95242909D01*
X156109895Y-95242909D02*
X156205133Y-95290528D01*
X156205133Y-95290528D02*
X156586085Y-95290528D01*
X155681323Y-94766719D02*
X155062276Y-94766719D01*
X155062276Y-94766719D02*
X155395609Y-95147671D01*
X155395609Y-95147671D02*
X155252752Y-95147671D01*
X155252752Y-95147671D02*
X155157514Y-95195290D01*
X155157514Y-95195290D02*
X155109895Y-95242909D01*
X155109895Y-95242909D02*
X155062276Y-95338147D01*
X155062276Y-95338147D02*
X155062276Y-95576242D01*
X155062276Y-95576242D02*
X155109895Y-95671480D01*
X155109895Y-95671480D02*
X155157514Y-95719100D01*
X155157514Y-95719100D02*
X155252752Y-95766719D01*
X155252752Y-95766719D02*
X155538466Y-95766719D01*
X155538466Y-95766719D02*
X155633704Y-95719100D01*
X155633704Y-95719100D02*
X155681323Y-95671480D01*
X154205133Y-94766719D02*
X154395609Y-94766719D01*
X154395609Y-94766719D02*
X154490847Y-94814338D01*
X154490847Y-94814338D02*
X154538466Y-94861957D01*
X154538466Y-94861957D02*
X154633704Y-95004814D01*
X154633704Y-95004814D02*
X154681323Y-95195290D01*
X154681323Y-95195290D02*
X154681323Y-95576242D01*
X154681323Y-95576242D02*
X154633704Y-95671480D01*
X154633704Y-95671480D02*
X154586085Y-95719100D01*
X154586085Y-95719100D02*
X154490847Y-95766719D01*
X154490847Y-95766719D02*
X154300371Y-95766719D01*
X154300371Y-95766719D02*
X154205133Y-95719100D01*
X154205133Y-95719100D02*
X154157514Y-95671480D01*
X154157514Y-95671480D02*
X154109895Y-95576242D01*
X154109895Y-95576242D02*
X154109895Y-95338147D01*
X154109895Y-95338147D02*
X154157514Y-95242909D01*
X154157514Y-95242909D02*
X154205133Y-95195290D01*
X154205133Y-95195290D02*
X154300371Y-95147671D01*
X154300371Y-95147671D02*
X154490847Y-95147671D01*
X154490847Y-95147671D02*
X154586085Y-95195290D01*
X154586085Y-95195290D02*
X154633704Y-95242909D01*
X154633704Y-95242909D02*
X154681323Y-95338147D01*
X172998619Y-108221542D02*
X172522428Y-107888209D01*
X172998619Y-107650114D02*
X171998619Y-107650114D01*
X171998619Y-107650114D02*
X171998619Y-108031066D01*
X171998619Y-108031066D02*
X172046238Y-108126304D01*
X172046238Y-108126304D02*
X172093857Y-108173923D01*
X172093857Y-108173923D02*
X172189095Y-108221542D01*
X172189095Y-108221542D02*
X172331952Y-108221542D01*
X172331952Y-108221542D02*
X172427190Y-108173923D01*
X172427190Y-108173923D02*
X172474809Y-108126304D01*
X172474809Y-108126304D02*
X172522428Y-108031066D01*
X172522428Y-108031066D02*
X172522428Y-107650114D01*
X172093857Y-108602495D02*
X172046238Y-108650114D01*
X172046238Y-108650114D02*
X171998619Y-108745352D01*
X171998619Y-108745352D02*
X171998619Y-108983447D01*
X171998619Y-108983447D02*
X172046238Y-109078685D01*
X172046238Y-109078685D02*
X172093857Y-109126304D01*
X172093857Y-109126304D02*
X172189095Y-109173923D01*
X172189095Y-109173923D02*
X172284333Y-109173923D01*
X172284333Y-109173923D02*
X172427190Y-109126304D01*
X172427190Y-109126304D02*
X172998619Y-108554876D01*
X172998619Y-108554876D02*
X172998619Y-109173923D01*
X172093857Y-109554876D02*
X172046238Y-109602495D01*
X172046238Y-109602495D02*
X171998619Y-109697733D01*
X171998619Y-109697733D02*
X171998619Y-109935828D01*
X171998619Y-109935828D02*
X172046238Y-110031066D01*
X172046238Y-110031066D02*
X172093857Y-110078685D01*
X172093857Y-110078685D02*
X172189095Y-110126304D01*
X172189095Y-110126304D02*
X172284333Y-110126304D01*
X172284333Y-110126304D02*
X172427190Y-110078685D01*
X172427190Y-110078685D02*
X172998619Y-109507257D01*
X172998619Y-109507257D02*
X172998619Y-110126304D01*
D14*
%TO.C,C1*%
X107011800Y-106712652D02*
X107011800Y-106190148D01*
X108481800Y-106712652D02*
X108481800Y-106190148D01*
%TO.C,C5*%
X111410636Y-101519400D02*
X111194964Y-101519400D01*
X111410636Y-102239400D02*
X111194964Y-102239400D01*
%TO.C,C6*%
X119838800Y-83965148D02*
X119838800Y-84487652D01*
X121308800Y-83965148D02*
X121308800Y-84487652D01*
%TO.C,C7*%
X119991200Y-90456652D02*
X119991200Y-89934148D01*
X121461200Y-90456652D02*
X121461200Y-89934148D01*
%TO.C,C8*%
X113869800Y-102126148D02*
X113869800Y-102648652D01*
X115339800Y-102126148D02*
X115339800Y-102648652D01*
%TO.C,C9*%
X131262800Y-84880564D02*
X131262800Y-85096236D01*
X131982800Y-84880564D02*
X131982800Y-85096236D01*
%TO.C,C11*%
X122886800Y-111157652D02*
X122886800Y-110635148D01*
X124356800Y-111157652D02*
X124356800Y-110635148D01*
%TO.C,C12*%
X148765800Y-109004980D02*
X148765800Y-108723820D01*
X149785800Y-109004980D02*
X149785800Y-108723820D01*
%TO.C,C13*%
X161338800Y-108369980D02*
X161338800Y-108088820D01*
X162358800Y-108369980D02*
X162358800Y-108088820D01*
%TO.C,C14*%
X167815800Y-116243980D02*
X167815800Y-115962820D01*
X168835800Y-116243980D02*
X168835800Y-115962820D01*
%TO.C,C15*%
X163005380Y-110513400D02*
X162724220Y-110513400D01*
X163005380Y-111533400D02*
X162724220Y-111533400D01*
%TO.C,C16*%
X163005380Y-104417400D02*
X162724220Y-104417400D01*
X163005380Y-105437400D02*
X162724220Y-105437400D01*
%TO.C,C17*%
X152408300Y-101009564D02*
X152408300Y-101225236D01*
X153128300Y-101009564D02*
X153128300Y-101225236D01*
%TO.C,C18*%
X145359800Y-113290236D02*
X145359800Y-113074564D01*
X146079800Y-113290236D02*
X146079800Y-113074564D01*
%TO.C,L1*%
X125305800Y-99205148D02*
X125305800Y-99727652D01*
X127525800Y-99205148D02*
X127525800Y-99727652D01*
%TO.C,R1*%
X104598800Y-99239336D02*
X104598800Y-99693464D01*
X106068800Y-99239336D02*
X106068800Y-99693464D01*
%TO.C,R3*%
X104545159Y-102642400D02*
X104852441Y-102642400D01*
X104545159Y-103402400D02*
X104852441Y-103402400D01*
%TO.C,R5*%
X133528800Y-83173541D02*
X133528800Y-82866259D01*
X134288800Y-83173541D02*
X134288800Y-82866259D01*
%TO.C,R6*%
X120955800Y-80643759D02*
X120955800Y-80951041D01*
X121715800Y-80643759D02*
X121715800Y-80951041D01*
%TO.C,R7*%
X125553800Y-80697336D02*
X125553800Y-81151464D01*
X127023800Y-80697336D02*
X127023800Y-81151464D01*
%TO.C,R8*%
X130506800Y-80697336D02*
X130506800Y-81151464D01*
X131976800Y-80697336D02*
X131976800Y-81151464D01*
%TO.C,R9*%
X115774441Y-105309400D02*
X115467159Y-105309400D01*
X115774441Y-106069400D02*
X115467159Y-106069400D01*
%TO.C,R11*%
X124384800Y-84072759D02*
X124384800Y-84380041D01*
X125144800Y-84072759D02*
X125144800Y-84380041D01*
%TO.C,R18*%
X164008800Y-108075759D02*
X164008800Y-108383041D01*
X164768800Y-108075759D02*
X164768800Y-108383041D01*
%TO.C,R19*%
X167537159Y-107087400D02*
X167844441Y-107087400D01*
X167537159Y-107847400D02*
X167844441Y-107847400D01*
%TO.C,R20*%
X169622800Y-118797336D02*
X169622800Y-119251464D01*
X171092800Y-118797336D02*
X171092800Y-119251464D01*
%TO.C,R23*%
X154420300Y-101271041D02*
X154420300Y-100963759D01*
X155180300Y-101271041D02*
X155180300Y-100963759D01*
%TO.C,R24*%
X151651941Y-103721900D02*
X151344659Y-103721900D01*
X151651941Y-104481900D02*
X151344659Y-104481900D01*
%TO.C,R27*%
X141021800Y-123569759D02*
X141021800Y-123877041D01*
X141781800Y-123569759D02*
X141781800Y-123877041D01*
%TO.C,R28*%
X143688800Y-123569759D02*
X143688800Y-123877041D01*
X144448800Y-123569759D02*
X144448800Y-123877041D01*
%TO.C,R32*%
X154001800Y-123496336D02*
X154001800Y-123950464D01*
X155471800Y-123496336D02*
X155471800Y-123950464D01*
%TO.C,R33*%
X156668800Y-123496336D02*
X156668800Y-123950464D01*
X158138800Y-123496336D02*
X158138800Y-123950464D01*
D13*
%TO.C,U1*%
X113802800Y-107327400D02*
G75*
G02*
X113602800Y-107327400I-100000J0D01*
G01*
X113602800Y-107327400D02*
G75*
G02*
X113802800Y-107327400I100000J0D01*
G01*
D14*
%TO.C,U3*%
X153515800Y-106373400D02*
X153865800Y-106373400D01*
X153515800Y-106723400D02*
X153515800Y-106373400D01*
X153515800Y-110593400D02*
X153865800Y-110593400D01*
X157735800Y-106373400D02*
X157385800Y-106373400D01*
X157735800Y-106723400D02*
X157735800Y-106373400D01*
X157735800Y-110243400D02*
X157735800Y-110593400D01*
X157735800Y-110593400D02*
X157385800Y-110593400D01*
%TO.C,R4*%
X144958800Y-82983041D02*
X144958800Y-82675759D01*
X145718800Y-82983041D02*
X145718800Y-82675759D01*
%TO.C,C4*%
X107011800Y-103029652D02*
X107011800Y-102507148D01*
X108481800Y-103029652D02*
X108481800Y-102507148D01*
%TO.C,C3*%
X118314800Y-90456652D02*
X118314800Y-89934148D01*
X119784800Y-90456652D02*
X119784800Y-89934148D01*
%TO.C,C2*%
X115768800Y-87239996D02*
X115768800Y-87024324D01*
X116488800Y-87239996D02*
X116488800Y-87024324D01*
%TO.C,C10*%
X131376052Y-108256400D02*
X130853548Y-108256400D01*
X131376052Y-109726400D02*
X130853548Y-109726400D01*
%TO.C,R2*%
X104471736Y-104573400D02*
X104925864Y-104573400D01*
X104471736Y-106043400D02*
X104925864Y-106043400D01*
%TO.C,R34*%
X159690800Y-123569759D02*
X159690800Y-123877041D01*
X160450800Y-123569759D02*
X160450800Y-123877041D01*
%TO.C,C19*%
X145111800Y-95014148D02*
X145111800Y-95536652D01*
X146581800Y-95014148D02*
X146581800Y-95536652D01*
%TO.C,C20*%
X149106300Y-91040064D02*
X149106300Y-91255736D01*
X149826300Y-91040064D02*
X149826300Y-91255736D01*
%TO.C,R35*%
X153311236Y-97476900D02*
X154765364Y-97476900D01*
X153311236Y-99296900D02*
X154765364Y-99296900D01*
%TO.C,R36*%
X155218159Y-96101900D02*
X155525441Y-96101900D01*
X155218159Y-96861900D02*
X155525441Y-96861900D01*
%TO.C,R22*%
X170993800Y-108710759D02*
X170993800Y-109018041D01*
X171753800Y-108710759D02*
X171753800Y-109018041D01*
%TD*%
D15*
%TO.C,D3*%
X123621800Y-77495400D03*
%TD*%
%TO.C,D4*%
X128701800Y-77495400D03*
%TD*%
%TO.C,D7*%
X141401800Y-128930400D03*
%TD*%
%TO.C,D8*%
X144068800Y-128930400D03*
%TD*%
%TO.C,D5*%
X133781800Y-77495400D03*
%TD*%
M02*
