%TF.GenerationSoftware,KiCad,Pcbnew,8.0.3+1*%
%TF.CreationDate,2024-07-21T10:24:22+00:00*%
%TF.ProjectId,LION2CELL02,4c494f4e-3243-4454-9c4c-30322e6b6963,rev?*%
%TF.SameCoordinates,Original*%
%TF.FileFunction,Soldermask,Bot*%
%TF.FilePolarity,Negative*%
%FSLAX46Y46*%
G04 Gerber Fmt 4.6, Leading zero omitted, Abs format (unit mm)*
G04 Created by KiCad (PCBNEW 8.0.3+1) date 2024-07-21 10:24:22*
%MOMM*%
%LPD*%
G01*
G04 APERTURE LIST*
G04 Aperture macros list*
%AMRoundRect*
0 Rectangle with rounded corners*
0 $1 Rounding radius*
0 $2 $3 $4 $5 $6 $7 $8 $9 X,Y pos of 4 corners*
0 Add a 4 corners polygon primitive as box body*
4,1,4,$2,$3,$4,$5,$6,$7,$8,$9,$2,$3,0*
0 Add four circle primitives for the rounded corners*
1,1,$1+$1,$2,$3*
1,1,$1+$1,$4,$5*
1,1,$1+$1,$6,$7*
1,1,$1+$1,$8,$9*
0 Add four rect primitives between the rounded corners*
20,1,$1+$1,$2,$3,$4,$5,0*
20,1,$1+$1,$4,$5,$6,$7,0*
20,1,$1+$1,$6,$7,$8,$9,0*
20,1,$1+$1,$8,$9,$2,$3,0*%
%AMFreePoly0*
4,1,27,0.405000,0.748540,0.473851,0.737775,0.540468,0.697134,0.586462,0.634092,0.604830,0.558249,0.592775,0.481149,0.592776,0.481149,0.558927,0.388685,0.517726,0.196112,0.503933,-0.000335,0.517820,-0.196775,0.559113,-0.389328,0.593006,-0.481776,0.593005,-0.481776,0.605097,-0.558870,0.586765,-0.634722,0.540802,-0.697786,0.474204,-0.738459,0.405000,-0.749313,0.405000,-0.750000,
0.400623,-0.750000,0.397110,-0.750551,0.394830,-0.750000,-0.645000,-0.750000,-0.645000,0.750000,0.405000,0.750000,0.405000,0.748540,0.405000,0.748540,$1*%
%AMFreePoly1*
4,1,37,-1.390000,2.050000,0.435000,2.050000,0.435000,2.805000,1.035000,2.805000,1.035000,2.050000,1.215000,2.050000,1.215000,-2.050000,1.035000,-2.050000,1.035000,-2.805000,0.435000,-2.805000,0.435000,-2.050000,-1.390000,-2.050000,-1.390000,-2.805000,-1.990000,-2.805000,-1.990000,-2.050000,-2.285000,-2.050000,-2.285000,-2.210000,-3.305000,-2.210000,-3.305000,-1.600000,-2.595000,-1.600000,
-2.595000,-0.940000,-3.305000,-0.940000,-3.305000,-0.330000,-2.595000,-0.330000,-2.595000,0.330000,-3.305000,0.330000,-3.305000,0.940000,-2.595000,0.940000,-2.595000,1.600000,-3.305000,1.600000,-3.305000,2.210000,-2.285000,2.210000,-2.285000,2.050000,-1.990000,2.050000,-1.990000,2.805000,-1.390000,2.805000,-1.390000,2.050000,-1.390000,2.050000,$1*%
G04 Aperture macros list end*
%ADD10R,3.810000X3.810000*%
%ADD11R,1.524000X1.524000*%
%ADD12R,1.676400X1.676400*%
%ADD13C,6.000000*%
%ADD14R,4.000000X4.000000*%
%ADD15RoundRect,0.250000X-0.250000X-0.475000X0.250000X-0.475000X0.250000X0.475000X-0.250000X0.475000X0*%
%ADD16RoundRect,0.225000X0.225000X0.250000X-0.225000X0.250000X-0.225000X-0.250000X0.225000X-0.250000X0*%
%ADD17RoundRect,0.250000X-0.475000X0.250000X-0.475000X-0.250000X0.475000X-0.250000X0.475000X0.250000X0*%
%ADD18RoundRect,0.250000X0.250000X0.475000X-0.250000X0.475000X-0.250000X-0.475000X0.250000X-0.475000X0*%
%ADD19RoundRect,0.250000X0.475000X-0.250000X0.475000X0.250000X-0.475000X0.250000X-0.475000X-0.250000X0*%
%ADD20C,2.700000*%
%ADD21FreePoly0,90.000000*%
%ADD22FreePoly0,270.000000*%
%ADD23C,0.650000*%
%ADD24R,1.150000X0.600000*%
%ADD25R,1.150000X0.300000*%
%ADD26O,2.000000X1.000000*%
%ADD27O,2.100000X1.050000*%
%ADD28RoundRect,0.250000X0.375000X0.850000X-0.375000X0.850000X-0.375000X-0.850000X0.375000X-0.850000X0*%
%ADD29R,1.270000X0.610000*%
%ADD30FreePoly1,0.000000*%
%ADD31RoundRect,0.250000X-0.450000X0.262500X-0.450000X-0.262500X0.450000X-0.262500X0.450000X0.262500X0*%
%ADD32RoundRect,0.250000X0.262500X0.450000X-0.262500X0.450000X-0.262500X-0.450000X0.262500X-0.450000X0*%
%ADD33RoundRect,0.250000X-0.262500X-0.450000X0.262500X-0.450000X0.262500X0.450000X-0.262500X0.450000X0*%
%ADD34RoundRect,0.250000X0.450000X-0.262500X0.450000X0.262500X-0.450000X0.262500X-0.450000X-0.262500X0*%
%ADD35RoundRect,0.250000X-0.312500X-0.625000X0.312500X-0.625000X0.312500X0.625000X-0.312500X0.625000X0*%
%ADD36RoundRect,0.050000X-0.425000X-0.050000X0.425000X-0.050000X0.425000X0.050000X-0.425000X0.050000X0*%
%ADD37RoundRect,0.050000X-0.050000X-0.300000X0.050000X-0.300000X0.050000X0.300000X-0.050000X0.300000X0*%
%ADD38RoundRect,0.050000X-0.250000X-0.050000X0.250000X-0.050000X0.250000X0.050000X-0.250000X0.050000X0*%
%ADD39RoundRect,0.050000X-0.400000X-0.050000X0.400000X-0.050000X0.400000X0.050000X-0.400000X0.050000X0*%
%ADD40RoundRect,0.050000X-0.050000X-0.250000X0.050000X-0.250000X0.050000X0.250000X-0.050000X0.250000X0*%
%ADD41RoundRect,0.050000X-0.050000X0.300000X-0.050000X-0.300000X0.050000X-0.300000X0.050000X0.300000X0*%
%ADD42RoundRect,0.050000X-0.300000X-0.050000X0.300000X-0.050000X0.300000X0.050000X-0.300000X0.050000X0*%
%ADD43RoundRect,0.050000X-0.275000X-0.050000X0.275000X-0.050000X0.275000X0.050000X-0.275000X0.050000X0*%
%ADD44RoundRect,0.050000X-0.290000X-0.050000X0.290000X-0.050000X0.290000X0.050000X-0.290000X0.050000X0*%
%ADD45RoundRect,0.050000X-0.050000X-0.450000X0.050000X-0.450000X0.050000X0.450000X-0.050000X0.450000X0*%
%ADD46RoundRect,0.050000X0.300000X0.050000X-0.300000X0.050000X-0.300000X-0.050000X0.300000X-0.050000X0*%
%ADD47RoundRect,0.050000X0.050000X0.300000X-0.050000X0.300000X-0.050000X-0.300000X0.050000X-0.300000X0*%
%ADD48RoundRect,0.120400X0.579600X0.579600X-0.579600X0.579600X-0.579600X-0.579600X0.579600X-0.579600X0*%
%ADD49RoundRect,0.250000X1.425000X-0.362500X1.425000X0.362500X-1.425000X0.362500X-1.425000X-0.362500X0*%
%ADD50FreePoly1,180.000000*%
%ADD51C,2.000000*%
%ADD52RoundRect,0.243750X0.456250X-0.243750X0.456250X0.243750X-0.456250X0.243750X-0.456250X-0.243750X0*%
%ADD53RoundRect,0.225000X-0.225000X-0.250000X0.225000X-0.250000X0.225000X0.250000X-0.225000X0.250000X0*%
%ADD54RoundRect,0.150000X0.587500X0.150000X-0.587500X0.150000X-0.587500X-0.150000X0.587500X-0.150000X0*%
G04 APERTURE END LIST*
D10*
%TO.C,J2*%
X24126200Y57816000D03*
X19126200Y57816000D03*
%TD*%
%TO.C,J3*%
X24126200Y62819800D03*
X19126200Y62819800D03*
%TD*%
D11*
%TO.C,J4*%
X74422000Y11811000D03*
X74422000Y9271000D03*
X71882000Y11811000D03*
X71882000Y9271000D03*
X69342000Y11811000D03*
X69342000Y9271000D03*
X66802000Y11811000D03*
X66802000Y9271000D03*
%TD*%
%TO.C,J6*%
X33655000Y63119000D03*
X33655000Y60579000D03*
%TD*%
%TO.C,J7*%
X31115000Y60579000D03*
X31115000Y63119000D03*
%TD*%
D10*
%TO.C,J9*%
X19955500Y8323000D03*
X24955500Y8323000D03*
%TD*%
D11*
%TO.C,J10*%
X64262000Y11430000D03*
X64262000Y8890000D03*
%TD*%
%TO.C,J11*%
X48133000Y63246000D03*
X48133000Y60706000D03*
%TD*%
%TO.C,J12*%
X65278000Y57658000D03*
X65278000Y60198000D03*
X67818000Y57658000D03*
X67818000Y60198000D03*
X70358000Y57658000D03*
X70358000Y60198000D03*
X72898000Y57658000D03*
X72898000Y60198000D03*
X75438000Y57658000D03*
X75438000Y60198000D03*
%TD*%
D10*
%TO.C,J8*%
X19955500Y13276000D03*
X24955500Y13276000D03*
%TD*%
D12*
%TO.C,SW1*%
X53365000Y63210000D03*
X59665000Y63210000D03*
X53365000Y58710000D03*
X59665000Y58710000D03*
%TD*%
%TO.C,SW2*%
X44287000Y13310000D03*
X44287000Y7010000D03*
X39787000Y13310000D03*
X39787000Y7010000D03*
%TD*%
D13*
%TO.C,H2*%
X81280000Y60960000D03*
%TD*%
%TO.C,H3*%
X10160000Y10160000D03*
%TD*%
D14*
%TO.C,B1*%
X9470000Y45210000D03*
X81970000Y45210000D03*
X9470000Y25910000D03*
X81970000Y25910000D03*
%TD*%
D13*
%TO.C,H4*%
X81280000Y10160000D03*
%TD*%
%TO.C,H1*%
X10160000Y60960000D03*
%TD*%
D15*
%TO.C,C1*%
X14417000Y29337000D03*
X16317000Y29337000D03*
%TD*%
D16*
%TO.C,C5*%
X33668000Y25400000D03*
X32118000Y25400000D03*
%TD*%
D17*
%TO.C,C6*%
X35560000Y25461000D03*
X35560000Y23561000D03*
%TD*%
D15*
%TO.C,C7*%
X42839600Y25323800D03*
X44739600Y25323800D03*
%TD*%
%TO.C,C8*%
X42865000Y23241000D03*
X44765000Y23241000D03*
%TD*%
D17*
%TO.C,C9*%
X26289000Y29398000D03*
X26289000Y27498000D03*
%TD*%
D15*
%TO.C,C11*%
X37150000Y32258000D03*
X39050000Y32258000D03*
%TD*%
D18*
%TO.C,C16*%
X60640000Y33147000D03*
X58740000Y33147000D03*
%TD*%
D17*
%TO.C,C17*%
X63119000Y30541000D03*
X63119000Y28641000D03*
%TD*%
D19*
%TO.C,C18*%
X60921900Y28663800D03*
X60921900Y30563800D03*
%TD*%
D20*
%TO.C,D1*%
X48895000Y9017000D03*
D21*
X48895000Y7112000D03*
D22*
X48895000Y10922000D03*
%TD*%
D20*
%TO.C,D3*%
X35179000Y10287000D03*
D22*
X35179000Y12192000D03*
D21*
X35179000Y8382000D03*
%TD*%
D20*
%TO.C,D4*%
X51943000Y9017000D03*
D22*
X51943000Y10922000D03*
D21*
X51943000Y7112000D03*
%TD*%
D20*
%TO.C,D7*%
X58166000Y9017000D03*
D21*
X58166000Y7112000D03*
D22*
X58166000Y10922000D03*
%TD*%
D20*
%TO.C,D8*%
X61214000Y9017000D03*
D21*
X61214000Y7112000D03*
D22*
X61214000Y10922000D03*
%TD*%
D23*
%TO.C,J1*%
X11681000Y32670000D03*
X11681000Y38450000D03*
D24*
X12756000Y32360000D03*
X12756000Y33160000D03*
D25*
X12756000Y34310000D03*
X12756000Y35310000D03*
X12756000Y35810000D03*
X12756000Y36810000D03*
D24*
X12756000Y38760000D03*
X12756000Y37960000D03*
D25*
X12756000Y37310000D03*
X12756000Y36310000D03*
X12756000Y34810000D03*
X12756000Y33810000D03*
D26*
X8001000Y31240000D03*
X8001000Y39880000D03*
D27*
X12181000Y31240000D03*
X12181000Y39880000D03*
%TD*%
D28*
%TO.C,L1*%
X32317000Y22352000D03*
X30167000Y22352000D03*
%TD*%
D29*
%TO.C,Q1*%
X32134000Y45339000D03*
X32134000Y44069000D03*
X32134000Y42799000D03*
X32134000Y41529000D03*
D30*
X29464000Y43434000D03*
%TD*%
D31*
%TO.C,R1*%
X15748000Y38377500D03*
X15748000Y36552500D03*
%TD*%
D32*
%TO.C,R3*%
X35837500Y35179000D03*
X34012500Y35179000D03*
%TD*%
D33*
%TO.C,R5*%
X34012500Y37211000D03*
X35837500Y37211000D03*
%TD*%
D34*
%TO.C,R6*%
X35687000Y39219500D03*
X35687000Y41044500D03*
%TD*%
D32*
%TO.C,R7*%
X24280500Y31750000D03*
X22455500Y31750000D03*
%TD*%
D33*
%TO.C,R8*%
X40489500Y32512000D03*
X42314500Y32512000D03*
%TD*%
%TO.C,R9*%
X37568500Y28575000D03*
X39393500Y28575000D03*
%TD*%
D32*
%TO.C,R11*%
X38123500Y60452000D03*
X36298500Y60452000D03*
%TD*%
D35*
%TO.C,R17*%
X37907500Y46990000D03*
X40832500Y46990000D03*
%TD*%
D31*
%TO.C,R18*%
X48260000Y45616500D03*
X48260000Y43791500D03*
%TD*%
D32*
%TO.C,R19*%
X49934500Y47752000D03*
X48109500Y47752000D03*
%TD*%
D34*
%TO.C,R20*%
X53721000Y32869500D03*
X53721000Y34694500D03*
%TD*%
D31*
%TO.C,R23*%
X52451000Y49045500D03*
X52451000Y47220500D03*
%TD*%
%TO.C,R24*%
X55753000Y34694500D03*
X55753000Y32869500D03*
%TD*%
%TO.C,R27*%
X57785000Y41425500D03*
X57785000Y39600500D03*
%TD*%
D32*
%TO.C,R28*%
X56919500Y37211000D03*
X55094500Y37211000D03*
%TD*%
D33*
%TO.C,R32*%
X12701900Y45034200D03*
X14526900Y45034200D03*
%TD*%
%TO.C,R33*%
X12930500Y25908000D03*
X14755500Y25908000D03*
%TD*%
D36*
%TO.C,U1*%
X29610700Y27927500D03*
D37*
X29985700Y27677500D03*
D38*
X29435700Y28327500D03*
X29435700Y28727500D03*
X29435700Y29127500D03*
X29435700Y29527500D03*
X29435700Y29927500D03*
X29435700Y30327500D03*
X29435700Y30727500D03*
D39*
X29585700Y31127500D03*
D37*
X29935700Y31377500D03*
D40*
X30335700Y31427500D03*
X30735700Y31427500D03*
X31135700Y31427500D03*
X31535700Y31427500D03*
X31935700Y31427500D03*
X32335700Y31427500D03*
D41*
X32735700Y31377500D03*
D39*
X33085700Y31127500D03*
D42*
X33185700Y30727500D03*
D43*
X33210700Y30327500D03*
D44*
X33198200Y29927500D03*
D38*
X33235700Y29527500D03*
X33235700Y29127500D03*
X33235700Y28727500D03*
X33235700Y28327500D03*
D37*
X32685700Y27677500D03*
D36*
X33060700Y27927500D03*
D45*
X32135700Y27927500D03*
X31735700Y27927500D03*
X31335700Y27927500D03*
X30935700Y27927500D03*
X30535700Y27927500D03*
%TD*%
D46*
%TO.C,U3*%
X57880000Y30229000D03*
X57880000Y29829000D03*
X57880000Y29429000D03*
X57880000Y29029000D03*
X57880000Y28629000D03*
X57880000Y28229000D03*
X57880000Y27829000D03*
X57880000Y27429000D03*
D47*
X57280000Y26829000D03*
X56880000Y26829000D03*
X56480000Y26829000D03*
X56080000Y26829000D03*
X55680000Y26829000D03*
X55280000Y26829000D03*
X54880000Y26829000D03*
X54480000Y26829000D03*
D46*
X53880000Y27429000D03*
X53880000Y27829000D03*
X53880000Y28229000D03*
X53880000Y28629000D03*
X53880000Y29029000D03*
X53880000Y29429000D03*
X53880000Y29829000D03*
X53880000Y30229000D03*
D47*
X54480000Y30829000D03*
X54880000Y30829000D03*
X55280000Y30829000D03*
X55680000Y30829000D03*
X56080000Y30829000D03*
X56480000Y30829000D03*
X56880000Y30829000D03*
X57280000Y30829000D03*
D48*
X55880000Y28829000D03*
%TD*%
D33*
%TO.C,R4*%
X37568500Y35179000D03*
X39393500Y35179000D03*
%TD*%
D20*
%TO.C,D5*%
X55118000Y9017000D03*
D22*
X55118000Y10922000D03*
D21*
X55118000Y7112000D03*
%TD*%
D19*
%TO.C,C4*%
X15798800Y40629800D03*
X15798800Y42529800D03*
%TD*%
%TO.C,C3*%
X18034000Y40579000D03*
X18034000Y42479000D03*
%TD*%
%TO.C,C2*%
X20243800Y40528200D03*
X20243800Y42428200D03*
%TD*%
%TO.C,C10*%
X35687000Y28133000D03*
X35687000Y30033000D03*
%TD*%
D34*
%TO.C,R2*%
X15621000Y32107500D03*
X15621000Y33932500D03*
%TD*%
D32*
%TO.C,R34*%
X78890500Y31369000D03*
X77065500Y31369000D03*
%TD*%
D15*
%TO.C,C19*%
X37531000Y30353000D03*
X39431000Y30353000D03*
%TD*%
D18*
%TO.C,C20*%
X24317999Y29591000D03*
X22418001Y29591000D03*
%TD*%
D49*
%TO.C,R35*%
X81915000Y29549500D03*
X81915000Y35474500D03*
%TD*%
D32*
%TO.C,R36*%
X78890500Y33528000D03*
X77065500Y33528000D03*
%TD*%
D34*
%TO.C,R22*%
X52959000Y37060500D03*
X52959000Y38885500D03*
%TD*%
D29*
%TO.C,Q5*%
X54734000Y45085000D03*
X54734000Y46355000D03*
X54734000Y47625000D03*
X54734000Y48895000D03*
D50*
X57404000Y46990000D03*
%TD*%
D51*
%TO.C,FID4*%
X2540000Y67663000D03*
%TD*%
%TO.C,FID1*%
X6731000Y6731000D03*
%TD*%
D29*
%TO.C,Q3*%
X50676000Y41148000D03*
X50676000Y39878000D03*
X50676000Y38608000D03*
X50676000Y37338000D03*
D30*
X48006000Y39243000D03*
%TD*%
D34*
%TO.C,TH3*%
X37719000Y39219500D03*
X37719000Y41044500D03*
%TD*%
D17*
%TO.C,C27*%
X22860000Y25334000D03*
X22860000Y23434000D03*
%TD*%
D51*
%TO.C,FID2*%
X84709000Y64389000D03*
%TD*%
D34*
%TO.C,TH4*%
X46228000Y30837500D03*
X46228000Y32662500D03*
%TD*%
D52*
%TO.C,D6*%
X51435000Y32844500D03*
X51435000Y34719500D03*
%TD*%
D19*
%TO.C,C21*%
X74803000Y31435000D03*
X74803000Y33335000D03*
%TD*%
D17*
%TO.C,C25*%
X25019000Y25334000D03*
X25019000Y23434000D03*
%TD*%
D53*
%TO.C,C24*%
X29070000Y25400000D03*
X30620000Y25400000D03*
%TD*%
D17*
%TO.C,C31*%
X39878000Y25461000D03*
X39878000Y23561000D03*
%TD*%
D51*
%TO.C,FID3*%
X87503000Y3937000D03*
%TD*%
D17*
%TO.C,C30*%
X37719000Y25461000D03*
X37719000Y23561000D03*
%TD*%
%TO.C,C29*%
X28575000Y13142000D03*
X28575000Y11242000D03*
%TD*%
%TO.C,C26*%
X27178000Y25334000D03*
X27178000Y23434000D03*
%TD*%
D54*
%TO.C,Q2*%
X45895500Y47686000D03*
X45895500Y45786000D03*
X44020500Y46736000D03*
%TD*%
M02*
