%TF.GenerationSoftware,KiCad,Pcbnew,8.0.3+1*%
%TF.CreationDate,2024-07-21T16:53:17+00:00*%
%TF.ProjectId,LION2CELL02,4c494f4e-3243-4454-9c4c-30322e6b6963,rev?*%
%TF.SameCoordinates,Original*%
%TF.FileFunction,Copper,L1,Top*%
%TF.FilePolarity,Positive*%
%FSLAX46Y46*%
G04 Gerber Fmt 4.6, Leading zero omitted, Abs format (unit mm)*
G04 Created by KiCad (PCBNEW 8.0.3+1) date 2024-07-21 16:53:17*
%MOMM*%
%LPD*%
G01*
G04 APERTURE LIST*
G04 Aperture macros list*
%AMRoundRect*
0 Rectangle with rounded corners*
0 $1 Rounding radius*
0 $2 $3 $4 $5 $6 $7 $8 $9 X,Y pos of 4 corners*
0 Add a 4 corners polygon primitive as box body*
4,1,4,$2,$3,$4,$5,$6,$7,$8,$9,$2,$3,0*
0 Add four circle primitives for the rounded corners*
1,1,$1+$1,$2,$3*
1,1,$1+$1,$4,$5*
1,1,$1+$1,$6,$7*
1,1,$1+$1,$8,$9*
0 Add four rect primitives between the rounded corners*
20,1,$1+$1,$2,$3,$4,$5,0*
20,1,$1+$1,$4,$5,$6,$7,0*
20,1,$1+$1,$6,$7,$8,$9,0*
20,1,$1+$1,$8,$9,$2,$3,0*%
G04 Aperture macros list end*
%TA.AperFunction,ComponentPad*%
%ADD10R,3.810000X3.810000*%
%TD*%
%TA.AperFunction,ComponentPad*%
%ADD11R,1.524000X1.524000*%
%TD*%
%TA.AperFunction,ComponentPad*%
%ADD12R,1.676400X1.676400*%
%TD*%
%TA.AperFunction,ComponentPad*%
%ADD13C,6.000000*%
%TD*%
%TA.AperFunction,ComponentPad*%
%ADD14R,4.000000X4.000000*%
%TD*%
%TA.AperFunction,SMDPad,CuDef*%
%ADD15RoundRect,0.250000X-0.262500X-0.450000X0.262500X-0.450000X0.262500X0.450000X-0.262500X0.450000X0*%
%TD*%
%TA.AperFunction,SMDPad,CuDef*%
%ADD16RoundRect,0.250000X0.262500X0.450000X-0.262500X0.450000X-0.262500X-0.450000X0.262500X-0.450000X0*%
%TD*%
%TA.AperFunction,ComponentPad*%
%ADD17O,2.000000X1.000000*%
%TD*%
%TA.AperFunction,ComponentPad*%
%ADD18O,2.100000X1.050000*%
%TD*%
%TA.AperFunction,ComponentPad*%
%ADD19C,0.500000*%
%TD*%
%TA.AperFunction,SMDPad,CuDef*%
%ADD20RoundRect,0.258000X1.242000X1.242000X-1.242000X1.242000X-1.242000X-1.242000X1.242000X-1.242000X0*%
%TD*%
%TA.AperFunction,ViaPad*%
%ADD21C,0.800000*%
%TD*%
%TA.AperFunction,Conductor*%
%ADD22C,4.500000*%
%TD*%
%TA.AperFunction,Conductor*%
%ADD23C,0.200000*%
%TD*%
%TA.AperFunction,Conductor*%
%ADD24C,0.800000*%
%TD*%
%TA.AperFunction,Conductor*%
%ADD25C,0.300000*%
%TD*%
G04 APERTURE END LIST*
D10*
%TO.P,J2,1,P1*%
%TO.N,/Power Input/Power_load*%
X31690500Y57892200D03*
X26690500Y57892200D03*
%TD*%
%TO.P,J3,1,P1*%
%TO.N,GND*%
X31690500Y62896000D03*
X26690500Y62896000D03*
%TD*%
D11*
%TO.P,J4,1,2*%
%TO.N,GND*%
X47625000Y12827000D03*
%TO.P,J4,2,2*%
X47625000Y10287000D03*
%TO.P,J4,3,4*%
%TO.N,/Power Input/System_load*%
X45085000Y12827000D03*
%TO.P,J4,4,4*%
X45085000Y10287000D03*
%TO.P,J4,5,5*%
X42545000Y12827000D03*
%TO.P,J4,6,5*%
X42545000Y10287000D03*
%TO.P,J4,7,8*%
%TO.N,GND*%
X40005000Y12827000D03*
%TO.P,J4,8,8*%
X40005000Y10287000D03*
%TD*%
%TO.P,J6,1*%
%TO.N,Net-(U1-INT)*%
X43180000Y62357000D03*
%TO.P,J6,2*%
X43180000Y59817000D03*
%TD*%
%TO.P,J7,1*%
%TO.N,Net-(U1-nQON)*%
X40640000Y59817000D03*
%TO.P,J7,2*%
X40640000Y62357000D03*
%TD*%
D10*
%TO.P,J9,1,P1*%
%TO.N,GND*%
X19955500Y8323000D03*
X24955500Y8323000D03*
%TD*%
D11*
%TO.P,J10,1*%
%TO.N,Net-(U3-BTP_INT)*%
X45720000Y62230000D03*
%TO.P,J10,2*%
X45720000Y59690000D03*
%TD*%
%TO.P,J11,1*%
%TO.N,Net-(U3-~{PRES{slash}SHDWN})*%
X47752000Y62230000D03*
%TO.P,J11,2*%
%TO.N,GND1*%
X47752000Y59690000D03*
%TD*%
%TO.P,J12,1*%
%TO.N,GND*%
X65278000Y57658000D03*
%TO.P,J12,2*%
X65278000Y60198000D03*
%TO.P,J12,3*%
%TO.N,/Fuel Gauge/SCL*%
X67818000Y57658000D03*
%TO.P,J12,4*%
X67818000Y60198000D03*
%TO.P,J12,5*%
%TO.N,+3.3V*%
X70358000Y57658000D03*
%TO.P,J12,6*%
X70358000Y60198000D03*
%TO.P,J12,7*%
%TO.N,/Fuel Gauge/SDA*%
X72898000Y57658000D03*
%TO.P,J12,8*%
X72898000Y60198000D03*
%TO.P,J12,9*%
%TO.N,GND*%
X75438000Y57658000D03*
%TO.P,J12,10*%
X75438000Y60198000D03*
%TD*%
D10*
%TO.P,J8,1,P1*%
%TO.N,VBUS*%
X19955500Y13276000D03*
X24955500Y13276000D03*
%TD*%
D12*
%TO.P,SW1,1,1*%
%TO.N,Net-(U3-~{PRES{slash}SHDWN})*%
X53365000Y63210000D03*
X59665000Y63210000D03*
%TO.P,SW1,2,2*%
%TO.N,GND1*%
X53365000Y58710000D03*
X59665000Y58710000D03*
%TD*%
%TO.P,SW2,1,1*%
%TO.N,Net-(U3-~{DISP})*%
X52984000Y13299000D03*
X59284000Y13299000D03*
%TO.P,SW2,2,2*%
%TO.N,GND1*%
X52984000Y8799000D03*
X59284000Y8799000D03*
%TD*%
D13*
%TO.P,H2,1,1*%
%TO.N,GND*%
X81280000Y60960000D03*
%TD*%
%TO.P,H3,1,1*%
%TO.N,GND*%
X10160000Y10160000D03*
%TD*%
D14*
%TO.P,B1,1,+*%
%TO.N,/Fuel Gauge/B+*%
X9470000Y45210000D03*
%TO.P,B1,2,-*%
%TO.N,/Fuel Gauge/BAT_MID*%
X81970000Y45210000D03*
%TO.P,B1,3,+*%
X9470000Y25910000D03*
%TO.P,B1,4,-*%
%TO.N,GND1*%
X81970000Y25910000D03*
%TD*%
D13*
%TO.P,H4,1,1*%
%TO.N,GND*%
X81280000Y10160000D03*
%TD*%
%TO.P,H1,1,1*%
%TO.N,GND*%
X10160000Y60960000D03*
%TD*%
D15*
%TO.P,TH2,1*%
%TO.N,GND1*%
X72645900Y45161200D03*
%TO.P,TH2,2*%
%TO.N,Net-(U3-TS2)*%
X74470900Y45161200D03*
%TD*%
D16*
%TO.P,TH1,1*%
%TO.N,GND1*%
X74445500Y25908000D03*
%TO.P,TH1,2*%
%TO.N,Net-(U3-TS1)*%
X72620500Y25908000D03*
%TD*%
D17*
%TO.P,J1,G1,SHIELD*%
%TO.N,GND*%
X8001000Y31240000D03*
%TO.P,J1,G2,SHIELD*%
X8001000Y39880000D03*
D18*
%TO.P,J1,G3,SHIELD*%
X12181000Y31240000D03*
%TO.P,J1,G4,SHIELD*%
X12181000Y39880000D03*
%TD*%
D19*
%TO.P,U3,33,PWRPD*%
%TO.N,GND1*%
X55880000Y28829000D03*
D20*
X55880000Y28829000D03*
%TD*%
D21*
%TO.N,GND*%
X37912212Y31868739D03*
X31497000Y30606000D03*
X31369000Y29718000D03*
X30734000Y32512000D03*
X40259000Y36830000D03*
%TO.N,GND1*%
X53721000Y31115000D03*
X58025000Y26729000D03*
X60263000Y31496000D03*
%TO.N,/Fuel Gauge/B+*%
X46105439Y49492605D03*
%TO.N,VBUS*%
X28418000Y32354000D03*
X27808525Y28569065D03*
%TO.N,Net-(U1-SW1)*%
X30226000Y23622000D03*
X30636000Y29026000D03*
X26289000Y27498000D03*
%TO.N,Net-(U1-SW2)*%
X32258000Y23622000D03*
X32196000Y29080000D03*
X35687000Y28133000D03*
%TO.N,Net-(U3-VC2)*%
X61729900Y34561100D03*
X33606000Y39744000D03*
%TO.N,Net-(U3-VC1)*%
X16128998Y22225000D03*
X61975996Y28641000D03*
X50714000Y21291000D03*
X63373000Y26741000D03*
%TO.N,/Power Input/REGN*%
X24384000Y31369000D03*
X31369000Y34417000D03*
%TO.N,Net-(D1-A)*%
X51505110Y28127148D03*
X55936000Y20972000D03*
%TO.N,Net-(D1-K)*%
X53297000Y21570000D03*
X50611000Y28575000D03*
%TO.N,Net-(D5-K)*%
X56676000Y22762000D03*
X52070000Y29845000D03*
%TO.N,/Fuel Gauge/BAT*%
X52596000Y31815000D03*
X57987000Y31461000D03*
%TO.N,/Power Input/D+*%
X17018000Y33209000D03*
X14390000Y36266000D03*
%TO.N,Net-(U1-nQON)*%
X31623000Y33020000D03*
%TO.N,Net-(U3-~{PRES{slash}SHDWN})*%
X66535100Y54907700D03*
X53086000Y25527000D03*
X50800000Y29845000D03*
X54864004Y38989000D03*
X49518000Y32450000D03*
%TO.N,Net-(Q1-G)*%
X43652500Y39242999D03*
X43279032Y33006915D03*
%TO.N,/Fuel Gauge/VCOM*%
X47243998Y50800000D03*
X26785025Y48602975D03*
%TO.N,Net-(Q3-G)*%
X15113000Y54356000D03*
X18161000Y48768000D03*
%TO.N,Net-(U1-ILIM_HIZ)*%
X36702988Y32766000D03*
X36702994Y35179000D03*
%TO.N,Net-(U1-TS)*%
X35179000Y33020000D03*
X35838000Y38215500D03*
%TO.N,Net-(U3-PCHG)*%
X56388000Y42291000D03*
X35941000Y42926000D03*
%TO.N,Net-(U3-DSG)*%
X41171500Y41148000D03*
X56769000Y37846000D03*
%TO.N,Net-(U3-CHG)*%
X57658000Y40005000D03*
X33720472Y40848422D03*
%TO.N,Net-(U3-TS1)*%
X61722000Y25527000D03*
%TO.N,Net-(U3-TS2)*%
X59436000Y24954000D03*
%TO.N,/Fuel Gauge/SCL*%
X52832000Y39243000D03*
X37719000Y37465000D03*
X48768000Y30353000D03*
%TO.N,/Fuel Gauge/SDA*%
X37592000Y33655000D03*
X58710200Y34114400D03*
X48006000Y29526000D03*
%TD*%
D22*
%TO.N,/Fuel Gauge/BAT_MID*%
X34526000Y46228000D02*
X69088000Y46228000D01*
X9470000Y25910000D02*
X14208000Y25910000D01*
X78869000Y48311200D02*
X81970000Y45210000D01*
X14208000Y25910000D02*
X34526000Y46228000D01*
X71171000Y48311200D02*
X78869000Y48311200D01*
X69088000Y46228000D02*
X71171000Y48311200D01*
D23*
%TO.N,GND1*%
X57596000Y28829000D02*
X60263000Y31496000D01*
D24*
X81970000Y25910000D02*
X74448000Y25910000D01*
D23*
X72792000Y24254000D02*
X58010000Y24254000D01*
X59665000Y58710000D02*
X53365000Y58710000D01*
X53721000Y30988000D02*
X53721000Y31115000D01*
X55880000Y28829000D02*
X57596000Y28829000D01*
X58010000Y24254000D02*
X57810000Y24254000D01*
X58010000Y8799000D02*
X58010000Y24254000D01*
X57613000Y27096000D02*
X55880000Y28829000D01*
X55880000Y28829000D02*
X53721000Y30988000D01*
X74446000Y25908000D02*
X72792000Y24254000D01*
X72646000Y44520200D02*
X72646000Y44520100D01*
X57810000Y24254000D02*
X55880000Y26184000D01*
X72646000Y44520100D02*
X72646000Y43878900D01*
X58010000Y8799000D02*
X52984000Y8799000D01*
X72646000Y44840700D02*
X72646000Y44520200D01*
X57658000Y27096000D02*
X57613000Y27096000D01*
X59284000Y8799000D02*
X58010000Y8799000D01*
X72646000Y43878900D02*
X60263000Y31496000D01*
X55880000Y26184000D02*
X55880000Y28829000D01*
X58025000Y26729000D02*
X57658000Y27096000D01*
%TO.N,/Fuel Gauge/B+*%
X28664605Y49492605D02*
X46105439Y49492605D01*
X24382000Y45210000D02*
X28664605Y49492605D01*
X9470000Y45210000D02*
X24382000Y45210000D01*
%TO.N,VBUS*%
X27813000Y28573540D02*
X27808525Y28569065D01*
X28418000Y32354000D02*
X27813000Y31750000D01*
X24955500Y13276000D02*
X19956000Y13276000D01*
X27813000Y31750000D02*
X27813000Y28573540D01*
%TO.N,/Power Input/System_load*%
X42545000Y10287000D02*
X45085000Y10287000D01*
X42545000Y12827000D02*
X45085000Y12827000D01*
D24*
%TO.N,Net-(U1-SW1)*%
X26289000Y27498000D02*
X29108000Y27498000D01*
X30861000Y24257000D02*
X30861000Y28801000D01*
X29108000Y27498000D02*
X30636000Y29026000D01*
X30861000Y28801000D02*
X30636000Y29026000D01*
X30226000Y23622000D02*
X30861000Y24257000D01*
%TO.N,Net-(U1-SW2)*%
X35187000Y27633000D02*
X33643000Y27633000D01*
X33643000Y27633000D02*
X32196000Y29080000D01*
X31861000Y28745000D02*
X32196000Y29080000D01*
X32258000Y23622000D02*
X31861000Y24019000D01*
X31861000Y24019000D02*
X31861000Y28745000D01*
X35687000Y28133000D02*
X35187000Y27633000D01*
D23*
%TO.N,/Power Input/Power_load*%
X26690500Y57892200D02*
X31690500Y57892200D01*
%TO.N,Net-(U3-VC2)*%
X43086364Y41848000D02*
X40881550Y41848000D01*
X43105364Y41867000D02*
X43086364Y41848000D01*
X44016636Y41867000D02*
X43105364Y41867000D01*
X44035635Y41848000D02*
X44016636Y41867000D01*
X40881550Y41848000D02*
X38777550Y39744000D01*
X54443000Y41848000D02*
X44035635Y41848000D01*
X38777550Y39744000D02*
X33606000Y39744000D01*
X61729900Y34561100D02*
X54443000Y41848000D01*
%TO.N,Net-(U3-VC1)*%
X63373000Y27243996D02*
X61975996Y28641000D01*
X50714000Y21291000D02*
X17062998Y21291000D01*
X17062998Y21291000D02*
X16128998Y22225000D01*
X63373000Y26741000D02*
X63373000Y27243996D01*
%TO.N,/Power Input/REGN*%
X31369000Y34417000D02*
X27432000Y34417000D01*
X27432000Y34417000D02*
X24384000Y31369000D01*
%TO.N,Net-(D1-A)*%
X51505110Y25402890D02*
X51505110Y28127148D01*
X55936000Y20972000D02*
X51505110Y25402890D01*
%TO.N,Net-(D1-K)*%
X50692000Y24175000D02*
X50692000Y28494000D01*
X50692000Y28494000D02*
X50611000Y28575000D01*
X53297000Y21570000D02*
X50692000Y24175000D01*
%TO.N,Net-(D5-K)*%
X54164000Y25274000D02*
X56676000Y22762000D01*
X53848000Y28067000D02*
X53848000Y25846951D01*
X52070000Y29845000D02*
X53848000Y28067000D01*
X53848000Y25846951D02*
X54164000Y25530951D01*
X54164000Y25530951D02*
X54164000Y25274000D01*
%TO.N,/Fuel Gauge/BAT*%
X57987000Y31461000D02*
X57634000Y31815000D01*
X57634000Y31815000D02*
X52596000Y31815000D01*
%TO.N,/Power Input/D+*%
X14390000Y36266000D02*
X14862000Y36266000D01*
X17018000Y34110000D02*
X17018000Y33209000D01*
X14862000Y36266000D02*
X17018000Y34110000D01*
%TO.N,Net-(U3-~{PRES{slash}SHDWN})*%
X57333300Y63210000D02*
X53365000Y63210000D01*
X53721000Y38989000D02*
X54864004Y38989000D01*
X65635600Y54907700D02*
X66535100Y54907700D01*
X53086000Y27686000D02*
X50927000Y29845000D01*
X49518000Y34786000D02*
X53721000Y38989000D01*
X53086000Y25527000D02*
X53086000Y27686000D01*
X57333300Y63210000D02*
X65635600Y54907700D01*
X59665000Y63210000D02*
X57333300Y63210000D01*
X50927000Y29845000D02*
X50800000Y29845000D01*
X49518000Y32450000D02*
X49518000Y34786000D01*
D25*
%TO.N,Net-(Q1-G)*%
X43279032Y38869531D02*
X43652500Y39242999D01*
X43279032Y33006915D02*
X43279032Y38869531D01*
%TO.N,/Fuel Gauge/VCOM*%
X26785025Y48602975D02*
X28982050Y50800000D01*
X28982050Y50800000D02*
X47243998Y50800000D01*
D23*
%TO.N,Net-(Q3-G)*%
X15113000Y51816000D02*
X15113000Y54356000D01*
X18161000Y48768000D02*
X15113000Y51816000D01*
%TO.N,Net-(U1-ILIM_HIZ)*%
X36702994Y35179000D02*
X36702994Y32766006D01*
X36702994Y32766006D02*
X36702988Y32766000D01*
%TO.N,Net-(U1-TS)*%
X35179000Y33020000D02*
X35179000Y37556500D01*
X35179000Y37556500D02*
X35838000Y38215500D01*
%TO.N,Net-(U3-PCHG)*%
X56388000Y42291000D02*
X55753000Y42926000D01*
X55753000Y42926000D02*
X35941000Y42926000D01*
%TO.N,Net-(U3-DSG)*%
X56769000Y38454950D02*
X54006950Y41217000D01*
X54006950Y41217000D02*
X41240500Y41217000D01*
X41240500Y41217000D02*
X41171500Y41148000D01*
X56769000Y37846000D02*
X56769000Y38454950D01*
%TO.N,Net-(U3-CHG)*%
X42920679Y42248000D02*
X40715864Y42248000D01*
X42939678Y42267000D02*
X42920679Y42248000D01*
X57658000Y40005000D02*
X55395996Y42267004D01*
X39316286Y40848422D02*
X33720472Y40848422D01*
X40715864Y42248000D02*
X39316286Y40848422D01*
X55395996Y42267004D02*
X43850961Y42267004D01*
X43850961Y42267004D02*
X43850957Y42267000D01*
X43850957Y42267000D02*
X42939678Y42267000D01*
%TO.N,Net-(U3-TS1)*%
X72620000Y25908000D02*
X62103000Y25908000D01*
X62103000Y25908000D02*
X61722000Y25527000D01*
%TO.N,Net-(U3-TS2)*%
X74471000Y45161100D02*
X74471000Y43179100D01*
X59021000Y27729000D02*
X74471000Y43179100D01*
X59436000Y24954000D02*
X59021000Y25369000D01*
X59021000Y25369000D02*
X59021000Y27729000D01*
D25*
%TO.N,/Fuel Gauge/SCL*%
X38608000Y37465000D02*
X37719000Y37465000D01*
X52832000Y39243000D02*
X51308000Y40767000D01*
X41910000Y40767000D02*
X38608000Y37465000D01*
X48768000Y35179000D02*
X52832000Y39243000D01*
X51308000Y40767000D02*
X41910000Y40767000D01*
X48768000Y30353000D02*
X48768000Y35179000D01*
D23*
%TO.N,/Fuel Gauge/SDA*%
X41721000Y29526000D02*
X37592000Y33655000D01*
X53799400Y34114400D02*
X49211000Y29526000D01*
X58710200Y34114400D02*
X53799400Y34114400D01*
X49211000Y29526000D02*
X41721000Y29526000D01*
%TD*%
%TA.AperFunction,Conductor*%
%TO.N,GND*%
G36*
X43012382Y40096498D02*
G01*
X43058875Y40042842D01*
X43068979Y39972568D01*
X43039485Y39907988D01*
X43037897Y39906189D01*
X42919964Y39775212D01*
X42825322Y39611286D01*
X42825318Y39611278D01*
X42766827Y39431262D01*
X42766826Y39431257D01*
X42766826Y39431255D01*
X42750444Y39275394D01*
X42729899Y39218566D01*
X42725369Y39211784D01*
X42725368Y39211782D01*
X42702567Y39177659D01*
X42653532Y39059278D01*
X42653531Y39059277D01*
X42628532Y38933599D01*
X42628532Y33678605D01*
X42608530Y33610484D01*
X42596168Y33594295D01*
X42546498Y33539132D01*
X42546497Y33539130D01*
X42451854Y33375202D01*
X42451850Y33375194D01*
X42393357Y33195172D01*
X42373572Y33006915D01*
X42393357Y32818659D01*
X42451850Y32638637D01*
X42451854Y32638629D01*
X42546497Y32474701D01*
X42546498Y32474699D01*
X42673158Y32334029D01*
X42826299Y32222766D01*
X42826299Y32222765D01*
X42848863Y32212719D01*
X42999229Y32145771D01*
X43184386Y32106415D01*
X43373678Y32106415D01*
X43558835Y32145771D01*
X43731762Y32222764D01*
X43731762Y32222765D01*
X43731764Y32222765D01*
X43731764Y32222766D01*
X43884903Y32334027D01*
X43893434Y32343501D01*
X44011565Y32474699D01*
X44011566Y32474701D01*
X44106211Y32638631D01*
X44164706Y32818659D01*
X44184492Y33006915D01*
X44164706Y33195171D01*
X44164706Y33195172D01*
X44106213Y33375194D01*
X44106209Y33375202D01*
X44098654Y33388287D01*
X44037680Y33493898D01*
X44011566Y33539130D01*
X44011565Y33539132D01*
X43961896Y33594295D01*
X43931178Y33658302D01*
X43929532Y33678605D01*
X43929532Y38298796D01*
X43949534Y38366917D01*
X44003190Y38413410D01*
X44004283Y38413903D01*
X44105232Y38458849D01*
X44105232Y38458850D01*
X44258371Y38570111D01*
X44385033Y38710783D01*
X44479679Y38874715D01*
X44538174Y39054743D01*
X44557960Y39242999D01*
X44538174Y39431255D01*
X44538172Y39431262D01*
X44479681Y39611278D01*
X44479677Y39611286D01*
X44385035Y39775212D01*
X44385034Y39775213D01*
X44385033Y39775215D01*
X44267102Y39906190D01*
X44236386Y39970197D01*
X44245150Y40040651D01*
X44290612Y40095182D01*
X44358340Y40116477D01*
X44360739Y40116500D01*
X50986364Y40116500D01*
X51054485Y40096498D01*
X51075459Y40079595D01*
X51822958Y39332096D01*
X51856984Y39269784D01*
X51851919Y39198969D01*
X51822958Y39153906D01*
X48262723Y35593671D01*
X48204768Y35506931D01*
X48204767Y35506930D01*
X48199138Y35498505D01*
X48191535Y35487127D01*
X48183503Y35467736D01*
X48142500Y35368747D01*
X48142499Y35368746D01*
X48117500Y35243068D01*
X48117500Y31024690D01*
X48097498Y30956569D01*
X48085136Y30940380D01*
X48035466Y30885217D01*
X48035465Y30885215D01*
X47940822Y30721287D01*
X47940818Y30721279D01*
X47882325Y30541258D01*
X47878894Y30508609D01*
X47851880Y30442952D01*
X47793658Y30402323D01*
X47779782Y30398535D01*
X47726202Y30387146D01*
X47726197Y30387145D01*
X47726197Y30387144D01*
X47703901Y30377217D01*
X47553267Y30310151D01*
X47553267Y30310150D01*
X47400131Y30198891D01*
X47386661Y30183931D01*
X47372486Y30168188D01*
X47312042Y30130950D01*
X47278852Y30126500D01*
X42021926Y30126500D01*
X41953805Y30146502D01*
X41932831Y30163405D01*
X38534365Y33561871D01*
X38500339Y33624183D01*
X38497460Y33650966D01*
X38497460Y33654999D01*
X38496628Y33662911D01*
X38477674Y33843256D01*
X38464181Y33884784D01*
X38419181Y34023279D01*
X38419177Y34023287D01*
X38415944Y34028886D01*
X38324534Y34187215D01*
X38324533Y34187217D01*
X38197873Y34327887D01*
X38044732Y34439150D01*
X38044732Y34439151D01*
X37894335Y34506112D01*
X37871803Y34516144D01*
X37871801Y34516145D01*
X37871800Y34516145D01*
X37686646Y34555500D01*
X37601062Y34555500D01*
X37532941Y34575502D01*
X37486448Y34629158D01*
X37476344Y34699432D01*
X37491943Y34744500D01*
X37515490Y34785284D01*
X37530173Y34810716D01*
X37558713Y34898551D01*
X37588668Y34990744D01*
X37593582Y35037503D01*
X37608454Y35179000D01*
X37588668Y35367256D01*
X37574181Y35411843D01*
X37530175Y35547279D01*
X37530171Y35547287D01*
X37503391Y35593671D01*
X37438640Y35705824D01*
X37435528Y35711215D01*
X37435527Y35711217D01*
X37308867Y35851887D01*
X37155726Y35963150D01*
X37155726Y35963151D01*
X37030139Y36019066D01*
X36982797Y36040144D01*
X36982795Y36040145D01*
X36982794Y36040145D01*
X36797640Y36079500D01*
X36608348Y36079500D01*
X36423193Y36040145D01*
X36250261Y35963151D01*
X36250261Y35963150D01*
X36097122Y35851888D01*
X35999136Y35743063D01*
X35938690Y35705824D01*
X35867706Y35707176D01*
X35808722Y35746690D01*
X35780464Y35811820D01*
X35779500Y35827374D01*
X35779500Y37189000D01*
X35799502Y37257121D01*
X35853158Y37303614D01*
X35905500Y37315000D01*
X35932646Y37315000D01*
X36117803Y37354356D01*
X36290730Y37431349D01*
X36290730Y37431350D01*
X36290732Y37431350D01*
X36290732Y37431351D01*
X36443871Y37542612D01*
X36570533Y37683284D01*
X36599279Y37733075D01*
X36650661Y37782068D01*
X36720375Y37795505D01*
X36786286Y37769118D01*
X36827469Y37711287D01*
X36833709Y37656905D01*
X36813540Y37465001D01*
X36833325Y37276744D01*
X36891818Y37096722D01*
X36891822Y37096714D01*
X36986465Y36932786D01*
X36986466Y36932784D01*
X37113126Y36792114D01*
X37266267Y36680851D01*
X37266267Y36680850D01*
X37313612Y36659771D01*
X37439197Y36603856D01*
X37624354Y36564500D01*
X37813646Y36564500D01*
X37998803Y36603856D01*
X38171730Y36680849D01*
X38171730Y36680850D01*
X38171732Y36680850D01*
X38171732Y36680851D01*
X38322564Y36790437D01*
X38389432Y36814294D01*
X38396625Y36814500D01*
X38672064Y36814500D01*
X38672069Y36814500D01*
X38797744Y36839499D01*
X38916127Y36888535D01*
X39022669Y36959723D01*
X42142540Y40079596D01*
X42204852Y40113620D01*
X42231635Y40116500D01*
X42944261Y40116500D01*
X43012382Y40096498D01*
G37*
%TD.AperFunction*%
%TA.AperFunction,Conductor*%
G36*
X86037621Y65755498D02*
G01*
X86084114Y65701842D01*
X86095500Y65649500D01*
X86095500Y5470500D01*
X86075498Y5402379D01*
X86021842Y5355886D01*
X85969500Y5344500D01*
X5470500Y5344500D01*
X5402379Y5364502D01*
X5355886Y5418158D01*
X5344500Y5470500D01*
X5344500Y15228879D01*
X17550000Y15228879D01*
X17550000Y11323136D01*
X17550002Y11323115D01*
X17556408Y11263520D01*
X17556408Y11263519D01*
X17606701Y11128674D01*
X17606703Y11128671D01*
X17606704Y11128669D01*
X17635345Y11090409D01*
X17692953Y11013454D01*
X17750561Y10970329D01*
X17808169Y10927204D01*
X17808171Y10927204D01*
X17808173Y10927202D01*
X17868530Y10904691D01*
X17943014Y10876910D01*
X17943017Y10876909D01*
X18002627Y10870500D01*
X21908372Y10870501D01*
X21967983Y10876909D01*
X22102831Y10927204D01*
X22218046Y11013454D01*
X22304296Y11128669D01*
X22337444Y11217543D01*
X22379990Y11274379D01*
X22446510Y11299191D01*
X22515884Y11284100D01*
X22566087Y11233898D01*
X22573556Y11217543D01*
X22606701Y11128674D01*
X22606703Y11128671D01*
X22606704Y11128669D01*
X22635345Y11090409D01*
X22692953Y11013454D01*
X22750561Y10970329D01*
X22808169Y10927204D01*
X22808171Y10927204D01*
X22808173Y10927202D01*
X22868530Y10904691D01*
X22943014Y10876910D01*
X22943017Y10876909D01*
X23002627Y10870500D01*
X26908372Y10870501D01*
X26967983Y10876909D01*
X27102831Y10927204D01*
X27218046Y11013454D01*
X27304296Y11128669D01*
X27354591Y11263517D01*
X27361000Y11323127D01*
X27360999Y13636879D01*
X41282500Y13636879D01*
X41282500Y12017136D01*
X41282502Y12017115D01*
X41288908Y11957520D01*
X41288908Y11957519D01*
X41339201Y11822674D01*
X41339203Y11822671D01*
X41339204Y11822669D01*
X41382086Y11765386D01*
X41425452Y11707456D01*
X41425453Y11707456D01*
X41425454Y11707454D01*
X41491693Y11657867D01*
X41534239Y11601032D01*
X41539303Y11530216D01*
X41505278Y11467904D01*
X41491697Y11456137D01*
X41457061Y11430208D01*
X41425452Y11406545D01*
X41339203Y11291330D01*
X41339201Y11291327D01*
X41288909Y11156485D01*
X41282500Y11096879D01*
X41282500Y9477136D01*
X41282502Y9477115D01*
X41288908Y9417520D01*
X41288908Y9417519D01*
X41339201Y9282674D01*
X41339203Y9282671D01*
X41425453Y9167454D01*
X41483061Y9124329D01*
X41540669Y9081204D01*
X41540671Y9081204D01*
X41540673Y9081202D01*
X41601030Y9058691D01*
X41675514Y9030910D01*
X41675517Y9030909D01*
X41735127Y9024500D01*
X43354872Y9024501D01*
X43414483Y9030909D01*
X43549331Y9081204D01*
X43664546Y9167454D01*
X43714133Y9233694D01*
X43770968Y9276240D01*
X43841783Y9281304D01*
X43904095Y9247279D01*
X43915863Y9233698D01*
X43965454Y9167454D01*
X44080669Y9081204D01*
X44080671Y9081204D01*
X44080673Y9081202D01*
X44141030Y9058691D01*
X44215514Y9030910D01*
X44215517Y9030909D01*
X44275127Y9024500D01*
X45894872Y9024501D01*
X45954483Y9030909D01*
X46089331Y9081204D01*
X46204546Y9167454D01*
X46290796Y9282669D01*
X46341091Y9417517D01*
X46347500Y9477127D01*
X46347499Y11096872D01*
X46341091Y11156483D01*
X46312217Y11233898D01*
X46290798Y11291327D01*
X46290796Y11291330D01*
X46290796Y11291331D01*
X46204546Y11406546D01*
X46138306Y11456134D01*
X46095760Y11512968D01*
X46090696Y11583783D01*
X46124721Y11646095D01*
X46138302Y11657864D01*
X46204546Y11707454D01*
X46290796Y11822669D01*
X46295135Y11834301D01*
X46320542Y11902422D01*
X46341091Y11957517D01*
X46347500Y12017127D01*
X46347499Y13636872D01*
X46341091Y13696483D01*
X46319800Y13753565D01*
X46290798Y13831327D01*
X46290796Y13831330D01*
X46290796Y13831331D01*
X46247671Y13888939D01*
X46204546Y13946547D01*
X46127591Y14004155D01*
X46089331Y14032796D01*
X46089329Y14032797D01*
X46089326Y14032799D01*
X45954483Y14083091D01*
X45954486Y14083091D01*
X45894873Y14089500D01*
X44275135Y14089500D01*
X44275114Y14089498D01*
X44215519Y14083092D01*
X44215518Y14083092D01*
X44080673Y14032799D01*
X44080670Y14032797D01*
X43965455Y13946548D01*
X43965454Y13946546D01*
X43915866Y13880307D01*
X43859032Y13837761D01*
X43788216Y13832697D01*
X43725904Y13866722D01*
X43714136Y13880303D01*
X43664546Y13946546D01*
X43664544Y13946547D01*
X43664544Y13946548D01*
X43606614Y13989914D01*
X43549331Y14032796D01*
X43549329Y14032797D01*
X43549326Y14032799D01*
X43414483Y14083091D01*
X43414486Y14083091D01*
X43354873Y14089500D01*
X41735135Y14089500D01*
X41735114Y14089498D01*
X41675519Y14083092D01*
X41675518Y14083092D01*
X41540673Y14032799D01*
X41540670Y14032797D01*
X41425453Y13946547D01*
X41339203Y13831330D01*
X41339201Y13831327D01*
X41288909Y13696485D01*
X41282500Y13636879D01*
X27360999Y13636879D01*
X27360999Y14185079D01*
X51645300Y14185079D01*
X51645300Y12412936D01*
X51645302Y12412915D01*
X51651708Y12353320D01*
X51651708Y12353319D01*
X51702001Y12218474D01*
X51702003Y12218471D01*
X51788253Y12103254D01*
X51845861Y12060129D01*
X51903469Y12017004D01*
X51903471Y12017004D01*
X51903473Y12017002D01*
X51963830Y11994491D01*
X52038314Y11966710D01*
X52038317Y11966709D01*
X52097927Y11960300D01*
X53870072Y11960301D01*
X53929683Y11966709D01*
X54064531Y12017004D01*
X54179746Y12103254D01*
X54265996Y12218469D01*
X54316291Y12353317D01*
X54322700Y12412927D01*
X54322699Y14185072D01*
X54316291Y14244683D01*
X54295000Y14301765D01*
X54265998Y14379527D01*
X54265996Y14379530D01*
X54265996Y14379531D01*
X54222871Y14437139D01*
X54179746Y14494747D01*
X54102791Y14552355D01*
X54064531Y14580996D01*
X54064529Y14580997D01*
X54064526Y14580999D01*
X53929683Y14631291D01*
X53929686Y14631291D01*
X53870073Y14637700D01*
X52097935Y14637700D01*
X52097914Y14637698D01*
X52038319Y14631292D01*
X52038318Y14631292D01*
X51903473Y14580999D01*
X51903470Y14580997D01*
X51788253Y14494747D01*
X51702003Y14379530D01*
X51702001Y14379527D01*
X51651709Y14244685D01*
X51645300Y14185079D01*
X27360999Y14185079D01*
X27360999Y15228872D01*
X27354591Y15288483D01*
X27333300Y15345565D01*
X27304298Y15423327D01*
X27304296Y15423330D01*
X27304296Y15423331D01*
X27261171Y15480939D01*
X27218046Y15538547D01*
X27141091Y15596155D01*
X27102831Y15624796D01*
X27102829Y15624797D01*
X27102826Y15624799D01*
X26967983Y15675091D01*
X26967986Y15675091D01*
X26908373Y15681500D01*
X23002635Y15681500D01*
X23002614Y15681498D01*
X22943019Y15675092D01*
X22943018Y15675092D01*
X22808173Y15624799D01*
X22808170Y15624797D01*
X22692953Y15538547D01*
X22606703Y15423330D01*
X22606702Y15423329D01*
X22573556Y15334457D01*
X22531010Y15277621D01*
X22464490Y15252810D01*
X22395115Y15267901D01*
X22344913Y15318103D01*
X22337444Y15334457D01*
X22304297Y15423329D01*
X22304296Y15423330D01*
X22304296Y15423331D01*
X22261171Y15480939D01*
X22218046Y15538547D01*
X22141091Y15596155D01*
X22102831Y15624796D01*
X22102829Y15624797D01*
X22102826Y15624799D01*
X21967983Y15675091D01*
X21967986Y15675091D01*
X21908373Y15681500D01*
X18002635Y15681500D01*
X18002614Y15681498D01*
X17943019Y15675092D01*
X17943018Y15675092D01*
X17808173Y15624799D01*
X17808170Y15624797D01*
X17692953Y15538547D01*
X17606703Y15423330D01*
X17606701Y15423327D01*
X17556409Y15288485D01*
X17550000Y15228879D01*
X5344500Y15228879D01*
X5344500Y22225000D01*
X15223538Y22225000D01*
X15243323Y22036744D01*
X15301816Y21856722D01*
X15301820Y21856714D01*
X15396463Y21692786D01*
X15396464Y21692784D01*
X15523124Y21552114D01*
X15676265Y21440851D01*
X15676265Y21440850D01*
X15723610Y21419771D01*
X15849195Y21363856D01*
X16034352Y21324500D01*
X16128073Y21324500D01*
X16196194Y21304498D01*
X16217168Y21287595D01*
X16578067Y20926696D01*
X16578088Y20926673D01*
X16694275Y20810486D01*
X16694280Y20810482D01*
X16694282Y20810480D01*
X16694283Y20810479D01*
X16694285Y20810478D01*
X16762748Y20770952D01*
X16831214Y20731423D01*
X16943017Y20701466D01*
X16983940Y20690500D01*
X16983941Y20690500D01*
X49986852Y20690500D01*
X50054973Y20670498D01*
X50080484Y20648814D01*
X50108127Y20618114D01*
X50108131Y20618110D01*
X50261267Y20506851D01*
X50261267Y20506850D01*
X50308612Y20485771D01*
X50434197Y20429856D01*
X50619354Y20390500D01*
X50808646Y20390500D01*
X50993803Y20429856D01*
X51166730Y20506849D01*
X51166730Y20506850D01*
X51166732Y20506850D01*
X51166732Y20506851D01*
X51319871Y20618112D01*
X51394924Y20701466D01*
X51446533Y20758784D01*
X51446534Y20758786D01*
X51541179Y20922716D01*
X51573724Y21022877D01*
X51599674Y21102744D01*
X51619460Y21291000D01*
X51599674Y21479256D01*
X51599674Y21479257D01*
X51541181Y21659279D01*
X51541177Y21659287D01*
X51538958Y21663130D01*
X51484038Y21758256D01*
X51446534Y21823215D01*
X51446533Y21823217D01*
X51319873Y21963887D01*
X51166732Y22075150D01*
X51166732Y22075151D01*
X51039339Y22131870D01*
X50993803Y22152144D01*
X50993801Y22152145D01*
X50993800Y22152145D01*
X50808646Y22191500D01*
X50619354Y22191500D01*
X50434199Y22152145D01*
X50261267Y22075151D01*
X50261267Y22075150D01*
X50108131Y21963891D01*
X50094661Y21948931D01*
X50080486Y21933188D01*
X50020042Y21895950D01*
X49986852Y21891500D01*
X17363923Y21891500D01*
X17295802Y21911502D01*
X17274828Y21928405D01*
X17071363Y22131870D01*
X17037337Y22194182D01*
X17034458Y22220965D01*
X17034458Y22224999D01*
X17014672Y22413257D01*
X16956179Y22593279D01*
X16956175Y22593287D01*
X16861532Y22757215D01*
X16861531Y22757217D01*
X16734871Y22897887D01*
X16581730Y23009150D01*
X16581730Y23009151D01*
X16450199Y23067712D01*
X16408801Y23086144D01*
X16408799Y23086145D01*
X16408798Y23086145D01*
X16223644Y23125500D01*
X16034352Y23125500D01*
X15849197Y23086145D01*
X15676265Y23009151D01*
X15676265Y23009150D01*
X15523124Y22897887D01*
X15396464Y22757217D01*
X15396463Y22757215D01*
X15301820Y22593287D01*
X15301816Y22593279D01*
X15243323Y22413257D01*
X15223538Y22225000D01*
X5344500Y22225000D01*
X5344500Y26064466D01*
X6719500Y26064466D01*
X6719500Y25755535D01*
X6754089Y25448544D01*
X6786806Y25305203D01*
X6822832Y25147364D01*
X6822834Y25147358D01*
X6822833Y25147358D01*
X6924858Y24855789D01*
X6924869Y24855762D01*
X6957022Y24788996D01*
X6969500Y24734327D01*
X6969500Y23862136D01*
X6969502Y23862115D01*
X6975908Y23802520D01*
X6975908Y23802519D01*
X7026201Y23667674D01*
X7026203Y23667671D01*
X7026204Y23667669D01*
X7054845Y23629409D01*
X7112453Y23552454D01*
X7170061Y23509329D01*
X7227669Y23466204D01*
X7227671Y23466204D01*
X7227673Y23466202D01*
X7288030Y23443691D01*
X7362514Y23415910D01*
X7362517Y23415909D01*
X7422127Y23409500D01*
X8294325Y23409501D01*
X8348995Y23397023D01*
X8415774Y23364863D01*
X8707357Y23262834D01*
X8707360Y23262834D01*
X8707364Y23262832D01*
X8930290Y23211951D01*
X9008543Y23194090D01*
X9008544Y23194090D01*
X9008548Y23194089D01*
X9252565Y23166595D01*
X9315534Y23159500D01*
X9315535Y23159500D01*
X14362466Y23159500D01*
X14425434Y23166595D01*
X14669452Y23194089D01*
X14669455Y23194090D01*
X14669457Y23194090D01*
X14675425Y23195452D01*
X14675428Y23195453D01*
X14762081Y23215231D01*
X14970636Y23262832D01*
X15006571Y23275406D01*
X15186645Y23338417D01*
X15262230Y23364865D01*
X15540565Y23498904D01*
X15802143Y23663265D01*
X16043674Y23855880D01*
X19685793Y27498000D01*
X25383540Y27498000D01*
X25385404Y27480267D01*
X25387810Y27457374D01*
X25388500Y27444204D01*
X25388500Y27409304D01*
X25396620Y27368483D01*
X25398351Y27357074D01*
X25403325Y27309745D01*
X25413867Y27277300D01*
X25417611Y27262953D01*
X25423105Y27235337D01*
X25423108Y27235326D01*
X25441610Y27190656D01*
X25445032Y27181382D01*
X25457442Y27143193D01*
X25461821Y27129716D01*
X25461823Y27129712D01*
X25461826Y27129706D01*
X25475501Y27106020D01*
X25482791Y27091239D01*
X25490985Y27071455D01*
X25521597Y27025643D01*
X25525952Y27018638D01*
X25556462Y26965790D01*
X25556465Y26965786D01*
X25570260Y26950466D01*
X25581391Y26936155D01*
X25589536Y26923965D01*
X25633248Y26880253D01*
X25637770Y26875488D01*
X25683129Y26825112D01*
X25694347Y26816962D01*
X25709374Y26804127D01*
X25714965Y26798536D01*
X25771974Y26760443D01*
X25775997Y26757640D01*
X25836270Y26713849D01*
X25839380Y26712465D01*
X25842749Y26710964D01*
X25861498Y26700625D01*
X25862454Y26699986D01*
X25894339Y26686780D01*
X25932022Y26671172D01*
X25934950Y26669914D01*
X26009197Y26636856D01*
X26009509Y26636790D01*
X26020268Y26633445D01*
X26020408Y26633904D01*
X26026331Y26632108D01*
X26026334Y26632106D01*
X26071179Y26623187D01*
X26106748Y26616111D01*
X26108247Y26615803D01*
X26194354Y26597500D01*
X26194358Y26597500D01*
X29196691Y26597500D01*
X29196692Y26597500D01*
X29370666Y26632105D01*
X29468515Y26672636D01*
X29534547Y26699987D01*
X29595927Y26741000D01*
X29634996Y26767105D01*
X29634997Y26767106D01*
X29671649Y26791596D01*
X29682036Y26798536D01*
X29745405Y26861905D01*
X29807717Y26895931D01*
X29878532Y26890866D01*
X29935368Y26848319D01*
X29960179Y26781799D01*
X29960500Y26772810D01*
X29960500Y24682192D01*
X29940498Y24614071D01*
X29923595Y24593096D01*
X29646369Y24315871D01*
X29631342Y24303036D01*
X29620127Y24294888D01*
X29574779Y24244524D01*
X29570240Y24239741D01*
X29526535Y24196036D01*
X29518387Y24183841D01*
X29507264Y24169541D01*
X29493469Y24154220D01*
X29493463Y24154212D01*
X29462940Y24101345D01*
X29458589Y24094349D01*
X29427990Y24048553D01*
X29427983Y24048540D01*
X29419791Y24028763D01*
X29412507Y24013992D01*
X29398820Y23990283D01*
X29398818Y23990280D01*
X29382035Y23938628D01*
X29378612Y23929349D01*
X29360107Y23884675D01*
X29360104Y23884663D01*
X29354609Y23857042D01*
X29350865Y23842694D01*
X29340326Y23810259D01*
X29340325Y23810256D01*
X29335350Y23762926D01*
X29333620Y23751521D01*
X29325501Y23710702D01*
X29325500Y23710690D01*
X29325500Y23675798D01*
X29324810Y23662628D01*
X29320540Y23622001D01*
X29324810Y23581374D01*
X29325500Y23568204D01*
X29325500Y23533303D01*
X29333620Y23492483D01*
X29335350Y23481076D01*
X29340325Y23433745D01*
X29340326Y23433740D01*
X29350865Y23401307D01*
X29354610Y23386955D01*
X29359005Y23364863D01*
X29360105Y23359334D01*
X29366206Y23344604D01*
X29378614Y23314648D01*
X29382037Y23305370D01*
X29398820Y23253718D01*
X29412506Y23230012D01*
X29419792Y23215238D01*
X29427988Y23195452D01*
X29458590Y23149653D01*
X29462943Y23142652D01*
X29493462Y23089790D01*
X29493465Y23089786D01*
X29507259Y23074467D01*
X29518389Y23060157D01*
X29526536Y23047964D01*
X29570257Y23004243D01*
X29574780Y22999476D01*
X29620124Y22949117D01*
X29620129Y22949112D01*
X29631342Y22940965D01*
X29646369Y22928131D01*
X29651964Y22922536D01*
X29708960Y22884453D01*
X29712997Y22881640D01*
X29773266Y22837852D01*
X29773265Y22837852D01*
X29773267Y22837851D01*
X29773270Y22837849D01*
X29779759Y22834960D01*
X29798502Y22824623D01*
X29799451Y22823989D01*
X29799455Y22823987D01*
X29869015Y22795173D01*
X29872017Y22793884D01*
X29914168Y22775117D01*
X29946194Y22760857D01*
X29946195Y22760857D01*
X29946197Y22760856D01*
X29946514Y22760789D01*
X29957271Y22757450D01*
X29957409Y22757903D01*
X29963323Y22756110D01*
X29963334Y22756105D01*
X30043757Y22740109D01*
X30045305Y22739791D01*
X30131354Y22721500D01*
X30131357Y22721500D01*
X30320645Y22721500D01*
X30320646Y22721500D01*
X30406641Y22739780D01*
X30408219Y22740104D01*
X30488666Y22756105D01*
X30488668Y22756107D01*
X30494589Y22757902D01*
X30494728Y22757442D01*
X30505488Y22760790D01*
X30505803Y22760856D01*
X30580054Y22793916D01*
X30582918Y22795147D01*
X30652547Y22823988D01*
X30653493Y22824621D01*
X30672245Y22834963D01*
X30678730Y22837849D01*
X30739021Y22881654D01*
X30743039Y22884453D01*
X30800036Y22922536D01*
X30805630Y22928132D01*
X30820658Y22940966D01*
X30831871Y22949112D01*
X30877230Y22999490D01*
X30881733Y23004235D01*
X31152905Y23275408D01*
X31215216Y23309431D01*
X31286031Y23304367D01*
X31331094Y23275406D01*
X31602240Y23004260D01*
X31606780Y22999477D01*
X31652129Y22949112D01*
X31663343Y22940965D01*
X31678376Y22928125D01*
X31683965Y22922536D01*
X31740968Y22884448D01*
X31744993Y22881643D01*
X31781485Y22855130D01*
X31805271Y22837848D01*
X31811751Y22834963D01*
X31830506Y22824620D01*
X31831061Y22824250D01*
X31831454Y22823987D01*
X31858274Y22812878D01*
X31900998Y22795181D01*
X31904021Y22793882D01*
X31978197Y22760856D01*
X31978514Y22760789D01*
X31989271Y22757450D01*
X31989409Y22757903D01*
X31995323Y22756110D01*
X31995334Y22756105D01*
X32075757Y22740109D01*
X32077305Y22739791D01*
X32163354Y22721500D01*
X32163357Y22721500D01*
X32352645Y22721500D01*
X32352646Y22721500D01*
X32438641Y22739780D01*
X32440219Y22740104D01*
X32520666Y22756105D01*
X32520668Y22756107D01*
X32526589Y22757902D01*
X32526728Y22757442D01*
X32537488Y22760790D01*
X32537803Y22760856D01*
X32612007Y22793895D01*
X32614993Y22795177D01*
X32684538Y22823983D01*
X32684539Y22823984D01*
X32684547Y22823987D01*
X32685492Y22824619D01*
X32704255Y22834967D01*
X32710730Y22837849D01*
X32770991Y22881633D01*
X32775032Y22884448D01*
X32832036Y22922536D01*
X32837630Y22928132D01*
X32852658Y22940966D01*
X32863871Y22949112D01*
X32909239Y22999500D01*
X32913723Y23004225D01*
X32957464Y23047964D01*
X32965614Y23060163D01*
X32976741Y23074467D01*
X32990533Y23089784D01*
X33021056Y23142652D01*
X33025396Y23149634D01*
X33056013Y23195453D01*
X33064211Y23215246D01*
X33071493Y23230012D01*
X33085179Y23253716D01*
X33101967Y23305388D01*
X33105375Y23314625D01*
X33123895Y23359334D01*
X33129389Y23386960D01*
X33133132Y23401302D01*
X33143674Y23433744D01*
X33148648Y23481076D01*
X33150373Y23492456D01*
X33158500Y23533308D01*
X33158500Y23568204D01*
X33159190Y23581374D01*
X33160687Y23595621D01*
X33163460Y23622000D01*
X33159190Y23662628D01*
X33158500Y23675798D01*
X33158500Y23710688D01*
X33158500Y23710690D01*
X33158500Y23710692D01*
X33150378Y23751523D01*
X33148647Y23762936D01*
X33144487Y23802520D01*
X33143674Y23810256D01*
X33133130Y23842703D01*
X33129388Y23857045D01*
X33128380Y23862115D01*
X33123895Y23884666D01*
X33121816Y23889685D01*
X33105387Y23929349D01*
X33101962Y23938631D01*
X33085179Y23990283D01*
X33085179Y23990284D01*
X33071496Y24013982D01*
X33064206Y24028766D01*
X33056015Y24048540D01*
X33056013Y24048546D01*
X33025395Y24094369D01*
X33021052Y24101354D01*
X32990535Y24154214D01*
X32990533Y24154215D01*
X32990533Y24154216D01*
X32976734Y24169542D01*
X32965609Y24183845D01*
X32957464Y24196035D01*
X32913740Y24239759D01*
X32909217Y24244526D01*
X32863874Y24294886D01*
X32852660Y24303033D01*
X32837623Y24315876D01*
X32798403Y24355097D01*
X32764379Y24417409D01*
X32761500Y24444191D01*
X32761500Y26936810D01*
X32781502Y27004931D01*
X32835158Y27051424D01*
X32905432Y27061528D01*
X32970012Y27032034D01*
X32976581Y27025919D01*
X33036710Y26965790D01*
X33068964Y26933536D01*
X33126810Y26894885D01*
X33126811Y26894884D01*
X33152189Y26877927D01*
X33216453Y26834987D01*
X33274031Y26811138D01*
X33298393Y26801047D01*
X33298395Y26801046D01*
X33350073Y26779640D01*
X33380334Y26767105D01*
X33554308Y26732500D01*
X33554309Y26732500D01*
X35275691Y26732500D01*
X35275692Y26732500D01*
X35449666Y26767105D01*
X35531606Y26801047D01*
X35613547Y26834987D01*
X35703190Y26894885D01*
X35704756Y26895931D01*
X35714695Y26902573D01*
X35761036Y26933536D01*
X36266628Y27439131D01*
X36281658Y27451966D01*
X36292871Y27460112D01*
X36338248Y27510510D01*
X36342732Y27515235D01*
X36386464Y27558965D01*
X36394610Y27571158D01*
X36405731Y27585457D01*
X36419533Y27600784D01*
X36450063Y27653666D01*
X36454385Y27660619D01*
X36485013Y27706454D01*
X36493205Y27726234D01*
X36500492Y27741012D01*
X36514179Y27764716D01*
X36530974Y27816408D01*
X36534378Y27825633D01*
X36552895Y27870334D01*
X36558389Y27897960D01*
X36562132Y27912302D01*
X36572674Y27944744D01*
X36577648Y27992076D01*
X36579373Y28003456D01*
X36587500Y28044308D01*
X36587500Y28079204D01*
X36588190Y28092374D01*
X36588751Y28097713D01*
X36592460Y28133000D01*
X36588190Y28173628D01*
X36587500Y28186798D01*
X36587500Y28221688D01*
X36587500Y28221692D01*
X36579378Y28262523D01*
X36577647Y28273936D01*
X36575327Y28296013D01*
X36572674Y28321256D01*
X36562130Y28353703D01*
X36558388Y28368045D01*
X36554669Y28386744D01*
X36552895Y28395666D01*
X36546751Y28410499D01*
X36534383Y28440358D01*
X36530965Y28449620D01*
X36514179Y28501284D01*
X36500496Y28524984D01*
X36493209Y28539762D01*
X36485015Y28559542D01*
X36485013Y28559547D01*
X36477758Y28570405D01*
X36454397Y28605367D01*
X36450062Y28612338D01*
X36419533Y28665216D01*
X36405734Y28680542D01*
X36394609Y28694846D01*
X36386464Y28707036D01*
X36342740Y28750760D01*
X36338217Y28755526D01*
X36292868Y28805891D01*
X36281659Y28814035D01*
X36266625Y28826876D01*
X36261041Y28832460D01*
X36261035Y28832465D01*
X36204040Y28870548D01*
X36199982Y28873376D01*
X36139727Y28917153D01*
X36133251Y28920036D01*
X36114507Y28930372D01*
X36113550Y28931012D01*
X36097097Y28937827D01*
X36043976Y28959831D01*
X36040998Y28961111D01*
X35966805Y28994144D01*
X35966615Y28994184D01*
X35966473Y28994214D01*
X35955721Y28997553D01*
X35955584Y28997100D01*
X35949666Y28998895D01*
X35869245Y29014892D01*
X35867631Y29015224D01*
X35781647Y29033500D01*
X35781646Y29033500D01*
X35592354Y29033500D01*
X35592352Y29033500D01*
X35506365Y29015224D01*
X35504753Y29014892D01*
X35469345Y29007849D01*
X35424334Y28998895D01*
X35424332Y28998895D01*
X35424326Y28998893D01*
X35418414Y28997100D01*
X35418280Y28997542D01*
X35407546Y28994219D01*
X35407200Y28994146D01*
X35407192Y28994143D01*
X35332990Y28961107D01*
X35329963Y28959806D01*
X35260453Y28931013D01*
X35259499Y28930375D01*
X35240758Y28920040D01*
X35234271Y28917152D01*
X35173999Y28873363D01*
X35169943Y28870537D01*
X35112963Y28832464D01*
X35107365Y28826866D01*
X35092342Y28814036D01*
X35081130Y28805890D01*
X35081129Y28805890D01*
X35035790Y28755535D01*
X35031250Y28750751D01*
X34850906Y28570405D01*
X34788594Y28536380D01*
X34761810Y28533500D01*
X34068190Y28533500D01*
X34000069Y28553502D01*
X33979095Y28570405D01*
X32851760Y29697740D01*
X32847219Y29702525D01*
X32801873Y29752887D01*
X32801869Y29752890D01*
X32790659Y29761035D01*
X32775625Y29773876D01*
X32770043Y29779458D01*
X32770034Y29779466D01*
X32768493Y29780495D01*
X32713040Y29817548D01*
X32708982Y29820376D01*
X32664342Y29852808D01*
X32648730Y29864151D01*
X32648729Y29864152D01*
X32648727Y29864153D01*
X32642251Y29867036D01*
X32623507Y29877372D01*
X32622550Y29878012D01*
X32589038Y29891893D01*
X32552976Y29906831D01*
X32549998Y29908111D01*
X32475805Y29941144D01*
X32475615Y29941184D01*
X32475473Y29941214D01*
X32464721Y29944553D01*
X32464584Y29944100D01*
X32458666Y29945895D01*
X32378245Y29961892D01*
X32376631Y29962224D01*
X32290647Y29980500D01*
X32290646Y29980500D01*
X32101354Y29980500D01*
X32101352Y29980500D01*
X32015365Y29962224D01*
X32013753Y29961892D01*
X31978393Y29954858D01*
X31933334Y29945895D01*
X31933332Y29945895D01*
X31933326Y29945893D01*
X31927414Y29944100D01*
X31927280Y29944542D01*
X31916546Y29941219D01*
X31916200Y29941146D01*
X31916192Y29941143D01*
X31841990Y29908107D01*
X31838963Y29906806D01*
X31769451Y29878012D01*
X31768500Y29877376D01*
X31749771Y29867047D01*
X31743277Y29864155D01*
X31743268Y29864150D01*
X31729455Y29854114D01*
X31683017Y29820376D01*
X31678977Y29817560D01*
X31646584Y29795916D01*
X31623515Y29780500D01*
X31621963Y29779463D01*
X31621958Y29779459D01*
X31616367Y29773868D01*
X31601342Y29761036D01*
X31590129Y29752889D01*
X31544789Y29702534D01*
X31540250Y29697752D01*
X31496538Y29654038D01*
X31478095Y29635595D01*
X31415783Y29601569D01*
X31344968Y29606634D01*
X31299905Y29635595D01*
X31291760Y29643740D01*
X31287219Y29648525D01*
X31241873Y29698887D01*
X31241867Y29698892D01*
X31230659Y29707035D01*
X31215623Y29719877D01*
X31210038Y29725462D01*
X31210031Y29725468D01*
X31153046Y29763544D01*
X31148989Y29766372D01*
X31088733Y29810149D01*
X31088725Y29810154D01*
X31082235Y29813044D01*
X31063505Y29823373D01*
X31062552Y29824010D01*
X31062550Y29824011D01*
X30993031Y29852808D01*
X30990005Y29854109D01*
X30915807Y29887143D01*
X30915803Y29887144D01*
X30915473Y29887214D01*
X30904721Y29890553D01*
X30904584Y29890100D01*
X30898666Y29891895D01*
X30818245Y29907892D01*
X30816631Y29908224D01*
X30730647Y29926500D01*
X30730646Y29926500D01*
X30541354Y29926500D01*
X30541352Y29926500D01*
X30455365Y29908224D01*
X30453753Y29907892D01*
X30418345Y29900849D01*
X30373334Y29891895D01*
X30373332Y29891895D01*
X30373326Y29891893D01*
X30367414Y29890100D01*
X30367280Y29890542D01*
X30356546Y29887219D01*
X30356200Y29887146D01*
X30356196Y29887145D01*
X30282008Y29854114D01*
X30278981Y29852813D01*
X30209451Y29824011D01*
X30209447Y29824009D01*
X30208493Y29823371D01*
X30189769Y29813046D01*
X30183278Y29810156D01*
X30183268Y29810150D01*
X30183267Y29810149D01*
X30123013Y29766374D01*
X30118977Y29763560D01*
X30061963Y29725463D01*
X30061958Y29725459D01*
X30056367Y29719868D01*
X30041342Y29707036D01*
X30030129Y29698889D01*
X29984789Y29648534D01*
X29980250Y29643752D01*
X29936538Y29600038D01*
X29936534Y29600034D01*
X28918998Y28582499D01*
X28856686Y28548473D01*
X28785870Y28553538D01*
X28729035Y28596085D01*
X28704593Y28658424D01*
X28694199Y28757322D01*
X28635706Y28937344D01*
X28635702Y28937352D01*
X28618917Y28966424D01*
X28573271Y29045486D01*
X28541059Y29101280D01*
X28541057Y29101282D01*
X28445864Y29207006D01*
X28415146Y29271013D01*
X28413500Y29291316D01*
X28413500Y31330393D01*
X28433502Y31398514D01*
X28487158Y31445007D01*
X28513300Y31453640D01*
X28697803Y31492856D01*
X28870730Y31569849D01*
X28870730Y31569850D01*
X28870732Y31569850D01*
X28870732Y31569851D01*
X29023871Y31681112D01*
X29150533Y31821784D01*
X29245179Y31985716D01*
X29258989Y32028217D01*
X29303674Y32165744D01*
X29304004Y32168888D01*
X29323460Y32354000D01*
X29303674Y32542256D01*
X29296763Y32563527D01*
X29245181Y32722279D01*
X29245177Y32722287D01*
X29150534Y32886215D01*
X29150533Y32886217D01*
X29023873Y33026887D01*
X28870732Y33138150D01*
X28870732Y33138151D01*
X28742660Y33195172D01*
X28697803Y33215144D01*
X28697801Y33215145D01*
X28697800Y33215145D01*
X28512646Y33254500D01*
X28323354Y33254500D01*
X28138199Y33215145D01*
X27965267Y33138151D01*
X27965267Y33138150D01*
X27812126Y33026887D01*
X27685466Y32886217D01*
X27685465Y32886215D01*
X27590822Y32722287D01*
X27590818Y32722279D01*
X27532325Y32542257D01*
X27512540Y32354000D01*
X27512540Y32350823D01*
X27512020Y32349053D01*
X27511850Y32347434D01*
X27511554Y32347466D01*
X27492538Y32282702D01*
X27475559Y32261651D01*
X27450460Y32236595D01*
X27449626Y32235863D01*
X27387885Y32174122D01*
X27332769Y32119096D01*
X27332500Y32118744D01*
X27332484Y32118725D01*
X27292866Y32050103D01*
X27292814Y32050013D01*
X27253608Y31982236D01*
X27253494Y31981959D01*
X27253425Y31981795D01*
X27233150Y31906128D01*
X27233124Y31906030D01*
X27212563Y31829547D01*
X27212520Y31829219D01*
X27212500Y31829070D01*
X27212500Y31750995D01*
X27212427Y31663835D01*
X27212500Y31662724D01*
X27212500Y29301255D01*
X27192498Y29233134D01*
X27180137Y29216946D01*
X27154909Y29188927D01*
X27075989Y29101278D01*
X26981347Y28937352D01*
X26981343Y28937344D01*
X26922850Y28757322D01*
X26906879Y28605356D01*
X26903065Y28569065D01*
X26905229Y28548473D01*
X26906365Y28537671D01*
X26893593Y28467832D01*
X26845091Y28415986D01*
X26781055Y28398500D01*
X26194353Y28398500D01*
X26108320Y28380214D01*
X26106707Y28379882D01*
X26057976Y28370189D01*
X26026334Y28363894D01*
X26026333Y28363894D01*
X26026325Y28363892D01*
X26020413Y28362099D01*
X26020277Y28362547D01*
X26009537Y28359217D01*
X26009200Y28359146D01*
X26009197Y28359145D01*
X25935004Y28326112D01*
X25931975Y28324810D01*
X25862449Y28296012D01*
X25861482Y28295365D01*
X25842759Y28285041D01*
X25836272Y28282153D01*
X25836266Y28282149D01*
X25776026Y28238383D01*
X25771971Y28235556D01*
X25714962Y28197463D01*
X25709365Y28191866D01*
X25694342Y28179036D01*
X25683132Y28170892D01*
X25637780Y28120524D01*
X25633241Y28115741D01*
X25589538Y28072038D01*
X25589533Y28072032D01*
X25581385Y28059838D01*
X25570263Y28045539D01*
X25556465Y28030215D01*
X25525946Y27977354D01*
X25521594Y27970356D01*
X25490988Y27924550D01*
X25482790Y27904759D01*
X25475505Y27889986D01*
X25461820Y27866282D01*
X25445034Y27814623D01*
X25441612Y27805349D01*
X25423108Y27760675D01*
X25423106Y27760666D01*
X25417612Y27733052D01*
X25413869Y27718709D01*
X25403325Y27686257D01*
X25398351Y27638926D01*
X25396620Y27627518D01*
X25388500Y27586699D01*
X25388500Y27551798D01*
X25387810Y27538632D01*
X25383540Y27498000D01*
X19685793Y27498000D01*
X23321108Y31133316D01*
X23383418Y31167339D01*
X23454233Y31162275D01*
X23511069Y31119728D01*
X23530034Y31083156D01*
X23556819Y31000719D01*
X23556822Y31000714D01*
X23651465Y30836786D01*
X23651466Y30836784D01*
X23778126Y30696114D01*
X23931267Y30584851D01*
X23931267Y30584850D01*
X23944135Y30579121D01*
X24104197Y30507856D01*
X24289354Y30468500D01*
X24478646Y30468500D01*
X24663803Y30507856D01*
X24836730Y30584849D01*
X24836730Y30584850D01*
X24836732Y30584850D01*
X24836732Y30584851D01*
X24989871Y30696112D01*
X25004043Y30711851D01*
X25116533Y30836784D01*
X25116534Y30836786D01*
X25130843Y30861570D01*
X25211179Y31000716D01*
X25269674Y31180744D01*
X25289460Y31369000D01*
X25289460Y31369002D01*
X25289460Y31373036D01*
X25290120Y31375286D01*
X25290150Y31375567D01*
X25290201Y31375562D01*
X25309462Y31441157D01*
X25326365Y31462131D01*
X27643830Y33779595D01*
X27706142Y33813621D01*
X27732925Y33816500D01*
X30641852Y33816500D01*
X30709973Y33796498D01*
X30735484Y33774814D01*
X30763129Y33744112D01*
X30786795Y33726918D01*
X30839104Y33688913D01*
X30882458Y33632691D01*
X30888533Y33561955D01*
X30874163Y33523978D01*
X30795820Y33388284D01*
X30795818Y33388279D01*
X30737325Y33208257D01*
X30717540Y33020000D01*
X30737325Y32831744D01*
X30795818Y32651722D01*
X30795822Y32651714D01*
X30890465Y32487786D01*
X30890466Y32487784D01*
X31017126Y32347114D01*
X31170267Y32235851D01*
X31170267Y32235850D01*
X31199657Y32222765D01*
X31343197Y32158856D01*
X31528354Y32119500D01*
X31717646Y32119500D01*
X31902803Y32158856D01*
X32075730Y32235849D01*
X32075730Y32235850D01*
X32075732Y32235850D01*
X32075732Y32235851D01*
X32228871Y32347112D01*
X32232213Y32350823D01*
X32355533Y32487784D01*
X32355534Y32487786D01*
X32387975Y32543976D01*
X32450179Y32651716D01*
X32508674Y32831744D01*
X32528460Y33020000D01*
X32508674Y33208256D01*
X32508674Y33208257D01*
X32450181Y33388279D01*
X32450177Y33388287D01*
X32355534Y33552215D01*
X32355533Y33552217D01*
X32228873Y33692887D01*
X32152895Y33748088D01*
X32109541Y33804310D01*
X32103466Y33875046D01*
X32117837Y33913024D01*
X32181493Y34023279D01*
X32196179Y34048716D01*
X32254674Y34228744D01*
X32274460Y34417000D01*
X32254674Y34605256D01*
X32252490Y34611978D01*
X32196181Y34785279D01*
X32196177Y34785287D01*
X32195022Y34787287D01*
X32130785Y34898550D01*
X32101534Y34949215D01*
X32101533Y34949217D01*
X31974873Y35089887D01*
X31821732Y35201150D01*
X31821732Y35201151D01*
X31696145Y35257066D01*
X31648803Y35278144D01*
X31648801Y35278145D01*
X31648800Y35278145D01*
X31463646Y35317500D01*
X31274354Y35317500D01*
X31089199Y35278145D01*
X30916267Y35201151D01*
X30916267Y35201150D01*
X30763131Y35089891D01*
X30749661Y35074931D01*
X30735486Y35059188D01*
X30675042Y35021950D01*
X30641852Y35017500D01*
X27518791Y35017500D01*
X27518775Y35017501D01*
X27511057Y35017501D01*
X27509484Y35017501D01*
X27506983Y35018236D01*
X27503163Y35018473D01*
X27503155Y35018474D01*
X27503261Y35019329D01*
X27441363Y35037503D01*
X27394870Y35091159D01*
X27384766Y35161433D01*
X27414260Y35226013D01*
X27420389Y35232596D01*
X30035009Y37847216D01*
X32694695Y40506903D01*
X32757005Y40540927D01*
X32827820Y40535862D01*
X32884656Y40493315D01*
X32892908Y40480805D01*
X32911511Y40448583D01*
X32928248Y40379588D01*
X32905027Y40312496D01*
X32896030Y40301276D01*
X32873466Y40276216D01*
X32873465Y40276214D01*
X32778821Y40112286D01*
X32778818Y40112279D01*
X32720325Y39932257D01*
X32700540Y39744000D01*
X32720325Y39555744D01*
X32778818Y39375722D01*
X32778822Y39375714D01*
X32873465Y39211786D01*
X32873466Y39211784D01*
X33000126Y39071114D01*
X33153267Y38959851D01*
X33153267Y38959850D01*
X33200612Y38938771D01*
X33326197Y38882856D01*
X33511354Y38843500D01*
X33700646Y38843500D01*
X33885803Y38882856D01*
X34058730Y38959849D01*
X34058730Y38959850D01*
X34058732Y38959850D01*
X34058732Y38959851D01*
X34211871Y39071112D01*
X34239513Y39101813D01*
X34299958Y39139050D01*
X34333148Y39143500D01*
X35195472Y39143500D01*
X35263593Y39123498D01*
X35310086Y39069842D01*
X35320190Y38999568D01*
X35290696Y38934988D01*
X35269533Y38915564D01*
X35232126Y38888387D01*
X35105466Y38747717D01*
X35105465Y38747715D01*
X35010822Y38583787D01*
X35010818Y38583779D01*
X34952325Y38403757D01*
X34932540Y38215499D01*
X34932540Y38211466D01*
X34931879Y38209219D01*
X34931850Y38208933D01*
X34931797Y38208939D01*
X34912538Y38143345D01*
X34895635Y38122371D01*
X34810286Y38037022D01*
X34810284Y38037020D01*
X34770481Y37997217D01*
X34698483Y37925220D01*
X34698479Y37925214D01*
X34672184Y37879669D01*
X34619423Y37788287D01*
X34617757Y37782068D01*
X34578499Y37635557D01*
X34578499Y37635555D01*
X34578499Y37467293D01*
X34578500Y37467280D01*
X34578500Y33747221D01*
X34558498Y33679100D01*
X34546136Y33662911D01*
X34446467Y33552217D01*
X34446465Y33552215D01*
X34351822Y33388287D01*
X34351818Y33388279D01*
X34293325Y33208257D01*
X34273540Y33020000D01*
X34293325Y32831744D01*
X34351818Y32651722D01*
X34351822Y32651714D01*
X34446465Y32487786D01*
X34446466Y32487784D01*
X34573126Y32347114D01*
X34726267Y32235851D01*
X34726267Y32235850D01*
X34755657Y32222765D01*
X34899197Y32158856D01*
X35084354Y32119500D01*
X35273646Y32119500D01*
X35458803Y32158856D01*
X35631730Y32235849D01*
X35631730Y32235850D01*
X35631732Y32235850D01*
X35631732Y32235851D01*
X35756307Y32326360D01*
X35823173Y32350217D01*
X35892325Y32334137D01*
X35939486Y32287423D01*
X35970453Y32233786D01*
X35970454Y32233784D01*
X36097114Y32093114D01*
X36250255Y31981851D01*
X36250255Y31981850D01*
X36288101Y31965000D01*
X36423185Y31904856D01*
X36608342Y31865500D01*
X36797634Y31865500D01*
X36982791Y31904856D01*
X37155718Y31981849D01*
X37155718Y31981850D01*
X37155720Y31981850D01*
X37155720Y31981851D01*
X37308859Y32093112D01*
X37332271Y32119113D01*
X37435521Y32233784D01*
X37435522Y32233786D01*
X37451610Y32261651D01*
X37530167Y32397716D01*
X37530708Y32399379D01*
X37581862Y32556816D01*
X37621935Y32615422D01*
X37687332Y32643059D01*
X37757289Y32630952D01*
X37790790Y32606975D01*
X41352277Y29045486D01*
X41352282Y29045482D01*
X41352284Y29045480D01*
X41352285Y29045479D01*
X41352287Y29045478D01*
X41441202Y28994143D01*
X41489215Y28966423D01*
X41641943Y28925499D01*
X41641946Y28925499D01*
X41807776Y28925499D01*
X41807792Y28925500D01*
X47278852Y28925500D01*
X47346973Y28905498D01*
X47372484Y28883814D01*
X47400129Y28853112D01*
X47400131Y28853110D01*
X47553267Y28741851D01*
X47553267Y28741850D01*
X47600612Y28720771D01*
X47726197Y28664856D01*
X47911354Y28625500D01*
X48100646Y28625500D01*
X48285803Y28664856D01*
X48458730Y28741849D01*
X48458730Y28741850D01*
X48458732Y28741850D01*
X48458732Y28741851D01*
X48611871Y28853112D01*
X48639513Y28883813D01*
X48699958Y28921050D01*
X48733148Y28925500D01*
X49124209Y28925500D01*
X49124225Y28925499D01*
X49131943Y28925499D01*
X49290054Y28925499D01*
X49290057Y28925499D01*
X49442785Y28966423D01*
X49499028Y28998895D01*
X49579716Y29045480D01*
X49579715Y29045480D01*
X49586868Y29049609D01*
X49588559Y29046679D01*
X49640070Y29066621D01*
X49709625Y29052390D01*
X49760445Y29002813D01*
X49776395Y28933631D01*
X49770447Y28902127D01*
X49725325Y28763258D01*
X49705540Y28575000D01*
X49725325Y28386744D01*
X49783818Y28206722D01*
X49783822Y28206714D01*
X49878464Y28042788D01*
X49878465Y28042786D01*
X49878467Y28042784D01*
X50005129Y27902112D01*
X50039561Y27877096D01*
X50082914Y27820876D01*
X50091500Y27775161D01*
X50091500Y24261792D01*
X50091499Y24261774D01*
X50091499Y24254057D01*
X50091499Y24095943D01*
X50119811Y23990284D01*
X50132423Y23943215D01*
X50132425Y23943210D01*
X50139873Y23930311D01*
X50139875Y23930308D01*
X50211477Y23806288D01*
X50211485Y23806278D01*
X50330459Y23687304D01*
X50330473Y23687292D01*
X52354635Y21663130D01*
X52388661Y21600818D01*
X52391540Y21574035D01*
X52391540Y21570002D01*
X52411325Y21381744D01*
X52469818Y21201722D01*
X52469822Y21201714D01*
X52564465Y21037786D01*
X52564466Y21037784D01*
X52691126Y20897114D01*
X52844267Y20785851D01*
X52844267Y20785850D01*
X52891612Y20764771D01*
X53017197Y20708856D01*
X53202354Y20669500D01*
X53391646Y20669500D01*
X53576803Y20708856D01*
X53749730Y20785849D01*
X53749730Y20785850D01*
X53749732Y20785850D01*
X53749732Y20785851D01*
X53902871Y20897112D01*
X53925931Y20922722D01*
X54029533Y21037784D01*
X54029534Y21037786D01*
X54045321Y21065130D01*
X54124179Y21201716D01*
X54182674Y21381744D01*
X54202077Y21566360D01*
X54229088Y21632013D01*
X54287310Y21672644D01*
X54358255Y21675347D01*
X54416481Y21642283D01*
X54617913Y21440851D01*
X54993636Y21065128D01*
X55027660Y21002817D01*
X55030540Y20976034D01*
X55030540Y20972002D01*
X55050325Y20783744D01*
X55108818Y20603722D01*
X55108822Y20603714D01*
X55203465Y20439786D01*
X55203466Y20439784D01*
X55330126Y20299114D01*
X55483267Y20187851D01*
X55483267Y20187850D01*
X55530612Y20166771D01*
X55656197Y20110856D01*
X55841354Y20071500D01*
X56030646Y20071500D01*
X56215803Y20110856D01*
X56388730Y20187849D01*
X56388730Y20187850D01*
X56388732Y20187850D01*
X56388732Y20187851D01*
X56541871Y20299112D01*
X56668533Y20439784D01*
X56763179Y20603716D01*
X56821674Y20783744D01*
X56841460Y20972000D01*
X56821674Y21160256D01*
X56821674Y21160257D01*
X56763181Y21340279D01*
X56763177Y21340287D01*
X56668534Y21504215D01*
X56668533Y21504217D01*
X56537453Y21649796D01*
X56539311Y21651470D01*
X56507989Y21702317D01*
X56509345Y21773301D01*
X56548862Y21832283D01*
X56613995Y21860537D01*
X56629541Y21861500D01*
X56770646Y21861500D01*
X56955803Y21900856D01*
X57128730Y21977849D01*
X57128730Y21977850D01*
X57128732Y21977850D01*
X57128732Y21977851D01*
X57181847Y22016441D01*
X57209439Y22036487D01*
X57276307Y22060345D01*
X57345458Y22044265D01*
X57394938Y21993351D01*
X57409500Y21934551D01*
X57409500Y9525500D01*
X57389498Y9457379D01*
X57335842Y9410886D01*
X57283500Y9399500D01*
X54448699Y9399500D01*
X54380578Y9419502D01*
X54334085Y9473158D01*
X54322699Y9525500D01*
X54322699Y9685065D01*
X54322699Y9685072D01*
X54316291Y9744683D01*
X54295000Y9801765D01*
X54265998Y9879527D01*
X54265996Y9879530D01*
X54265996Y9879531D01*
X54222871Y9937139D01*
X54179746Y9994747D01*
X54102791Y10052355D01*
X54064531Y10080996D01*
X54064529Y10080997D01*
X54064526Y10080999D01*
X53929683Y10131291D01*
X53929686Y10131291D01*
X53870073Y10137700D01*
X52097935Y10137700D01*
X52097914Y10137698D01*
X52038319Y10131292D01*
X52038318Y10131292D01*
X51903473Y10080999D01*
X51903470Y10080997D01*
X51788253Y9994747D01*
X51702003Y9879530D01*
X51702001Y9879527D01*
X51651709Y9744685D01*
X51645300Y9685079D01*
X51645300Y7912936D01*
X51645302Y7912915D01*
X51651708Y7853320D01*
X51651708Y7853319D01*
X51702001Y7718474D01*
X51702003Y7718471D01*
X51788253Y7603254D01*
X51845861Y7560129D01*
X51903469Y7517004D01*
X51903471Y7517004D01*
X51903473Y7517002D01*
X51963830Y7494491D01*
X52038314Y7466710D01*
X52038317Y7466709D01*
X52097927Y7460300D01*
X53870072Y7460301D01*
X53929683Y7466709D01*
X54064531Y7517004D01*
X54179746Y7603254D01*
X54265996Y7718469D01*
X54316291Y7853317D01*
X54322700Y7912927D01*
X54322700Y8072500D01*
X54342702Y8140621D01*
X54396358Y8187114D01*
X54448700Y8198500D01*
X57819301Y8198500D01*
X57887422Y8178498D01*
X57933915Y8124842D01*
X57945301Y8072500D01*
X57945301Y7912936D01*
X57945302Y7912915D01*
X57951708Y7853320D01*
X57951708Y7853319D01*
X58002001Y7718474D01*
X58002003Y7718471D01*
X58088253Y7603254D01*
X58145861Y7560129D01*
X58203469Y7517004D01*
X58203471Y7517004D01*
X58203473Y7517002D01*
X58263830Y7494491D01*
X58338314Y7466710D01*
X58338317Y7466709D01*
X58397927Y7460300D01*
X60170072Y7460301D01*
X60229683Y7466709D01*
X60364531Y7517004D01*
X60479746Y7603254D01*
X60565996Y7718469D01*
X60616291Y7853317D01*
X60622700Y7912927D01*
X60622699Y9685072D01*
X60616291Y9744683D01*
X60595000Y9801765D01*
X60565998Y9879527D01*
X60565996Y9879530D01*
X60565996Y9879531D01*
X60522871Y9937139D01*
X60479746Y9994747D01*
X60402791Y10052355D01*
X60364531Y10080996D01*
X60364529Y10080997D01*
X60364526Y10080999D01*
X60229683Y10131291D01*
X60229686Y10131291D01*
X60170078Y10137700D01*
X60170073Y10137700D01*
X58736500Y10137700D01*
X58668379Y10157702D01*
X58621886Y10211358D01*
X58610500Y10263700D01*
X58610500Y11834301D01*
X58630502Y11902422D01*
X58684158Y11948915D01*
X58736500Y11960301D01*
X60170065Y11960301D01*
X60170072Y11960301D01*
X60229683Y11966709D01*
X60364531Y12017004D01*
X60479746Y12103254D01*
X60565996Y12218469D01*
X60616291Y12353317D01*
X60622700Y12412927D01*
X60622699Y14185072D01*
X60616291Y14244683D01*
X60595000Y14301765D01*
X60565998Y14379527D01*
X60565996Y14379530D01*
X60565996Y14379531D01*
X60522871Y14437139D01*
X60479746Y14494747D01*
X60402791Y14552355D01*
X60364531Y14580996D01*
X60364529Y14580997D01*
X60364526Y14580999D01*
X60229683Y14631291D01*
X60229686Y14631291D01*
X60170078Y14637700D01*
X60170073Y14637700D01*
X58736500Y14637700D01*
X58668379Y14657702D01*
X58621886Y14711358D01*
X58610500Y14763700D01*
X58610500Y23527500D01*
X58630502Y23595621D01*
X58684158Y23642114D01*
X58736500Y23653500D01*
X72705209Y23653500D01*
X72705225Y23653499D01*
X72712943Y23653499D01*
X72871054Y23653499D01*
X72871057Y23653499D01*
X73023785Y23694423D01*
X73051979Y23710702D01*
X73073881Y23723347D01*
X73073891Y23723355D01*
X73073904Y23723361D01*
X73160716Y23773480D01*
X73272520Y23885284D01*
X73272520Y23885286D01*
X73282890Y23895655D01*
X73282894Y23895660D01*
X74057831Y24670598D01*
X74120141Y24704622D01*
X74146914Y24707501D01*
X74758008Y24707501D01*
X74758009Y24707501D01*
X74860797Y24718001D01*
X75027334Y24773186D01*
X75064354Y24796020D01*
X75176656Y24865288D01*
X75221797Y24910429D01*
X75283964Y24972595D01*
X75346276Y25006621D01*
X75373059Y25009500D01*
X79343501Y25009500D01*
X79411622Y24989498D01*
X79458115Y24935842D01*
X79469501Y24883500D01*
X79469501Y23862136D01*
X79469502Y23862115D01*
X79475908Y23802520D01*
X79475908Y23802519D01*
X79526201Y23667674D01*
X79526203Y23667671D01*
X79526204Y23667669D01*
X79554845Y23629409D01*
X79612453Y23552454D01*
X79670061Y23509329D01*
X79727669Y23466204D01*
X79727671Y23466204D01*
X79727673Y23466202D01*
X79788030Y23443691D01*
X79862514Y23415910D01*
X79862517Y23415909D01*
X79922127Y23409500D01*
X84017872Y23409501D01*
X84077483Y23415909D01*
X84191646Y23458490D01*
X84212326Y23466202D01*
X84212326Y23466203D01*
X84212331Y23466204D01*
X84327546Y23552454D01*
X84413796Y23667669D01*
X84414365Y23669193D01*
X84429842Y23710690D01*
X84464091Y23802517D01*
X84470500Y23862127D01*
X84470499Y27957872D01*
X84464091Y28017483D01*
X84441071Y28079204D01*
X84413798Y28152327D01*
X84413796Y28152330D01*
X84413796Y28152331D01*
X84350473Y28236920D01*
X84327546Y28267547D01*
X84219432Y28348480D01*
X84212331Y28353796D01*
X84212329Y28353797D01*
X84212326Y28353799D01*
X84077483Y28404091D01*
X84077486Y28404091D01*
X84017873Y28410500D01*
X79922135Y28410500D01*
X79922114Y28410498D01*
X79862519Y28404092D01*
X79862518Y28404092D01*
X79727673Y28353799D01*
X79727670Y28353797D01*
X79612453Y28267547D01*
X79526203Y28152330D01*
X79526201Y28152327D01*
X79475909Y28017485D01*
X79469500Y27957879D01*
X79469500Y26936500D01*
X79449498Y26868379D01*
X79395842Y26821886D01*
X79343500Y26810500D01*
X75369059Y26810500D01*
X75300938Y26830502D01*
X75279964Y26847405D01*
X75176662Y26950707D01*
X75176656Y26950712D01*
X75027334Y27042815D01*
X74860803Y27097998D01*
X74860791Y27098000D01*
X74758017Y27108500D01*
X74132990Y27108500D01*
X74030202Y27098000D01*
X73863665Y27042815D01*
X73714343Y26950712D01*
X73714337Y26950707D01*
X73622095Y26858464D01*
X73559783Y26824438D01*
X73488968Y26829503D01*
X73443905Y26858464D01*
X73351662Y26950707D01*
X73351656Y26950712D01*
X73202334Y27042815D01*
X73035803Y27097998D01*
X73035791Y27098000D01*
X72933017Y27108500D01*
X72307990Y27108500D01*
X72205202Y27098000D01*
X72038665Y27042815D01*
X71889343Y26950712D01*
X71889337Y26950707D01*
X71765293Y26826663D01*
X71765288Y26826657D01*
X71673188Y26677338D01*
X71673186Y26677334D01*
X71645858Y26594865D01*
X71605446Y26536496D01*
X71539889Y26509240D01*
X71526255Y26508500D01*
X64393961Y26508500D01*
X64325840Y26528502D01*
X64279347Y26582158D01*
X64268651Y26647670D01*
X64271123Y26671191D01*
X64278460Y26741000D01*
X64258674Y26929256D01*
X64258674Y26929257D01*
X64200181Y27109279D01*
X64200177Y27109287D01*
X64188382Y27129716D01*
X64127404Y27235334D01*
X64105534Y27273215D01*
X64105533Y27273217D01*
X63978874Y27413886D01*
X63978872Y27413888D01*
X63978069Y27414471D01*
X63977689Y27414953D01*
X63973968Y27418303D01*
X63974543Y27418943D01*
X63935722Y27468188D01*
X63932576Y27475783D01*
X63903639Y27525901D01*
X63903637Y27525905D01*
X63853523Y27612708D01*
X63853516Y27612717D01*
X63737327Y27728906D01*
X63737304Y27728927D01*
X62918361Y28547870D01*
X62884335Y28610182D01*
X62881456Y28636965D01*
X62881456Y28640999D01*
X62879406Y28660500D01*
X62869418Y28755535D01*
X62861670Y28829257D01*
X62803177Y29009279D01*
X62803173Y29009287D01*
X62799745Y29015224D01*
X62738788Y29120806D01*
X62708530Y29173215D01*
X62708529Y29173217D01*
X62581869Y29313887D01*
X62428728Y29425150D01*
X62428728Y29425151D01*
X62303141Y29481066D01*
X62255799Y29502144D01*
X62255797Y29502145D01*
X62255796Y29502145D01*
X62070642Y29541500D01*
X61986908Y29541500D01*
X61918787Y29561502D01*
X61872294Y29615158D01*
X61862190Y29685432D01*
X61891684Y29750012D01*
X61897812Y29756595D01*
X61982184Y29840967D01*
X74869656Y42728520D01*
X74951520Y42810384D01*
X75030577Y42947316D01*
X75038313Y42976187D01*
X75046050Y43005058D01*
X75054264Y43035719D01*
X75071501Y43100044D01*
X75071500Y43258159D01*
X75071500Y43967638D01*
X75091502Y44035759D01*
X75131354Y44074879D01*
X75146902Y44084469D01*
X75202056Y44118488D01*
X75326112Y44242544D01*
X75418214Y44391866D01*
X75473399Y44558403D01*
X75483900Y44661191D01*
X75483899Y45434701D01*
X75503901Y45502821D01*
X75557557Y45549314D01*
X75609899Y45560700D01*
X77677460Y45560700D01*
X77745581Y45540698D01*
X77766556Y45523795D01*
X79432598Y43857645D01*
X79466621Y43795332D01*
X79469500Y43768553D01*
X79469500Y43162136D01*
X79469502Y43162115D01*
X79475908Y43102520D01*
X79475908Y43102519D01*
X79526201Y42967674D01*
X79526203Y42967671D01*
X79526204Y42967669D01*
X79541440Y42947316D01*
X79612453Y42852454D01*
X79651511Y42823216D01*
X79727669Y42766204D01*
X79727671Y42766204D01*
X79727673Y42766202D01*
X79788030Y42743691D01*
X79862514Y42715910D01*
X79862517Y42715909D01*
X79922127Y42709500D01*
X80794318Y42709501D01*
X80848991Y42697021D01*
X80891127Y42676728D01*
X80915688Y42664899D01*
X81207279Y42562857D01*
X81508460Y42494104D01*
X81815447Y42459505D01*
X81815464Y42459505D01*
X82124376Y42459495D01*
X82431365Y42494074D01*
X82732551Y42562808D01*
X83024148Y42664831D01*
X83077068Y42690314D01*
X83091005Y42697025D01*
X83145671Y42709501D01*
X84017865Y42709501D01*
X84017872Y42709501D01*
X84077483Y42715909D01*
X84212331Y42766204D01*
X84327546Y42852454D01*
X84413796Y42967669D01*
X84464091Y43102517D01*
X84470500Y43162127D01*
X84470499Y44034321D01*
X84482978Y44088992D01*
X84515101Y44155688D01*
X84617143Y44447279D01*
X84685896Y44748460D01*
X84720495Y45055446D01*
X84720505Y45364376D01*
X84685926Y45671364D01*
X84617192Y45972550D01*
X84515169Y46264147D01*
X84515166Y46264154D01*
X84482975Y46331006D01*
X84470499Y46385671D01*
X84470499Y47257865D01*
X84470499Y47257872D01*
X84464091Y47317483D01*
X84442800Y47374565D01*
X84413798Y47452327D01*
X84413796Y47452330D01*
X84413796Y47452331D01*
X84370671Y47509939D01*
X84327546Y47567547D01*
X84250591Y47625155D01*
X84212331Y47653796D01*
X84212329Y47653797D01*
X84212326Y47653799D01*
X84077483Y47704091D01*
X84077486Y47704091D01*
X84017878Y47710500D01*
X84017873Y47710500D01*
X83411523Y47710500D01*
X83343402Y47730502D01*
X83322425Y47747407D01*
X83224135Y47845703D01*
X81389096Y49680861D01*
X80925722Y50144265D01*
X80925600Y50144394D01*
X80920494Y50149500D01*
X80813319Y50256675D01*
X80704740Y50365261D01*
X80704739Y50365262D01*
X80704736Y50365265D01*
X80704674Y50365320D01*
X80591527Y50455552D01*
X80591527Y50455553D01*
X80591523Y50455555D01*
X80584526Y50461135D01*
X80463216Y50557884D01*
X80463217Y50557884D01*
X80463210Y50557889D01*
X80463154Y50557929D01*
X80377506Y50611744D01*
X80346659Y50631127D01*
X80346657Y50631129D01*
X80346657Y50631128D01*
X80201643Y50722253D01*
X80201642Y50722254D01*
X80201611Y50722273D01*
X80082985Y50779400D01*
X80082981Y50779402D01*
X79923305Y50856305D01*
X79923258Y50856324D01*
X79923231Y50856335D01*
X79774300Y50908448D01*
X79774298Y50908450D01*
X79774298Y50908449D01*
X79631701Y50958350D01*
X79631655Y50958364D01*
X79473885Y50994374D01*
X79473885Y50994375D01*
X79473881Y50994375D01*
X79330538Y51027097D01*
X79330463Y51027110D01*
X79224372Y51039064D01*
X79174442Y51044689D01*
X79174441Y51044690D01*
X79174437Y51044690D01*
X79023510Y51061700D01*
X79023465Y51061700D01*
X78869089Y51061700D01*
X78714624Y51061705D01*
X78714623Y51061705D01*
X78711149Y51061705D01*
X78710974Y51061700D01*
X71328994Y51061700D01*
X71328745Y51061707D01*
X71325333Y51061707D01*
X71325332Y51061707D01*
X71181165Y51061700D01*
X71016475Y51061700D01*
X71016404Y51061693D01*
X71016403Y51061692D01*
X70990487Y51058771D01*
X70866906Y51044842D01*
X70866902Y51044841D01*
X70709507Y51027107D01*
X70709451Y51027097D01*
X70559899Y50992956D01*
X70559896Y50992956D01*
X70408364Y50958368D01*
X70408363Y50958368D01*
X70408347Y50958364D01*
X70408254Y50958338D01*
X70267381Y50909036D01*
X70267375Y50909034D01*
X70116756Y50856331D01*
X70116671Y50856296D01*
X69976665Y50788864D01*
X69976661Y50788862D01*
X69838377Y50722268D01*
X69709363Y50641195D01*
X69709360Y50641193D01*
X69576800Y50557899D01*
X69576749Y50557858D01*
X69455473Y50461135D01*
X69418581Y50431714D01*
X69335269Y50365275D01*
X69220678Y50250673D01*
X69114729Y50144724D01*
X69114552Y50144538D01*
X67985533Y49015409D01*
X67923222Y48981381D01*
X67896433Y48978500D01*
X47058662Y48978500D01*
X46990541Y48998502D01*
X46944048Y49052158D01*
X46933944Y49122432D01*
X46938829Y49143437D01*
X46981857Y49275863D01*
X46991113Y49304349D01*
X47010899Y49492605D01*
X46991113Y49680861D01*
X46970501Y49744296D01*
X46968474Y49815259D01*
X47005136Y49876057D01*
X47068847Y49907383D01*
X47116532Y49906476D01*
X47149352Y49899500D01*
X47338644Y49899500D01*
X47523801Y49938856D01*
X47696728Y50015849D01*
X47696728Y50015850D01*
X47696730Y50015850D01*
X47696730Y50015851D01*
X47849869Y50127112D01*
X47865560Y50144538D01*
X47976531Y50267784D01*
X47976532Y50267786D01*
X48071177Y50431716D01*
X48112181Y50557911D01*
X48129672Y50611744D01*
X48141284Y50722231D01*
X48149458Y50800000D01*
X48129672Y50988256D01*
X48129672Y50988257D01*
X48071179Y51168279D01*
X48071175Y51168287D01*
X47976532Y51332215D01*
X47976531Y51332217D01*
X47849871Y51472887D01*
X47696730Y51584150D01*
X47696730Y51584151D01*
X47571143Y51640066D01*
X47523801Y51661144D01*
X47523799Y51661145D01*
X47523798Y51661145D01*
X47338644Y51700500D01*
X47149352Y51700500D01*
X46964197Y51661145D01*
X46791265Y51584151D01*
X46791265Y51584150D01*
X46640434Y51474564D01*
X46573566Y51450706D01*
X46566373Y51450500D01*
X28917981Y51450500D01*
X28876089Y51442167D01*
X28792304Y51425501D01*
X28792294Y51425498D01*
X28743272Y51405191D01*
X28743271Y51405190D01*
X28673922Y51376465D01*
X28567379Y51305276D01*
X28567373Y51305271D01*
X26802484Y49540380D01*
X26740172Y49506355D01*
X26713389Y49503475D01*
X26690379Y49503475D01*
X26505224Y49464120D01*
X26332292Y49387126D01*
X26332292Y49387125D01*
X26179151Y49275862D01*
X26052491Y49135192D01*
X26052490Y49135190D01*
X25957847Y48971262D01*
X25957843Y48971254D01*
X25899350Y48791232D01*
X25879565Y48602975D01*
X25899350Y48414719D01*
X25957843Y48234697D01*
X25957847Y48234689D01*
X26052490Y48070761D01*
X26052492Y48070759D01*
X26134063Y47980164D01*
X26164781Y47916157D01*
X26156016Y47845703D01*
X26129522Y47806759D01*
X24170170Y45847405D01*
X24107858Y45813380D01*
X24081075Y45810500D01*
X12096499Y45810500D01*
X12028378Y45830502D01*
X11981885Y45884158D01*
X11970499Y45936500D01*
X11970499Y47257865D01*
X11970499Y47257872D01*
X11964091Y47317483D01*
X11942800Y47374565D01*
X11913798Y47452327D01*
X11913796Y47452330D01*
X11913796Y47452331D01*
X11870671Y47509939D01*
X11827546Y47567547D01*
X11750591Y47625155D01*
X11712331Y47653796D01*
X11712329Y47653797D01*
X11712326Y47653799D01*
X11577483Y47704091D01*
X11577486Y47704091D01*
X11517873Y47710500D01*
X7422135Y47710500D01*
X7422114Y47710498D01*
X7362519Y47704092D01*
X7362518Y47704092D01*
X7227673Y47653799D01*
X7227670Y47653797D01*
X7112453Y47567547D01*
X7026203Y47452330D01*
X7026201Y47452327D01*
X6975909Y47317485D01*
X6969500Y47257879D01*
X6969500Y43162136D01*
X6969502Y43162115D01*
X6975908Y43102520D01*
X6975908Y43102519D01*
X7026201Y42967674D01*
X7026203Y42967671D01*
X7026204Y42967669D01*
X7041440Y42947316D01*
X7112453Y42852454D01*
X7151511Y42823216D01*
X7227669Y42766204D01*
X7227671Y42766204D01*
X7227673Y42766202D01*
X7288030Y42743691D01*
X7362514Y42715910D01*
X7362517Y42715909D01*
X7422127Y42709500D01*
X11517872Y42709501D01*
X11577483Y42715909D01*
X11712331Y42766204D01*
X11827546Y42852454D01*
X11913796Y42967669D01*
X11964091Y43102517D01*
X11970500Y43162127D01*
X11970500Y44483500D01*
X11990502Y44551621D01*
X12044158Y44598114D01*
X12096500Y44609500D01*
X24295209Y44609500D01*
X24295225Y44609499D01*
X24302943Y44609499D01*
X24461054Y44609499D01*
X24461057Y44609499D01*
X24613785Y44650423D01*
X24638308Y44664583D01*
X24663881Y44679347D01*
X24663891Y44679355D01*
X24663904Y44679361D01*
X24750716Y44729480D01*
X24862520Y44841284D01*
X24862520Y44841286D01*
X24872890Y44851655D01*
X24872893Y44851660D01*
X28876435Y48855200D01*
X28938747Y48889226D01*
X28965530Y48892105D01*
X33166773Y48892105D01*
X33234894Y48872103D01*
X33281387Y48818447D01*
X33291491Y48748173D01*
X33261997Y48683593D01*
X33221443Y48652583D01*
X33193432Y48639094D01*
X33193430Y48639093D01*
X32931856Y48474735D01*
X32690322Y48282118D01*
X18012647Y33604443D01*
X17950335Y33570417D01*
X17879520Y33575482D01*
X17822684Y33618029D01*
X17814432Y33630539D01*
X17813098Y33632849D01*
X17750533Y33741216D01*
X17750532Y33741218D01*
X17650864Y33851911D01*
X17620146Y33915918D01*
X17618500Y33936221D01*
X17618500Y34189056D01*
X17588061Y34302656D01*
X17577577Y34341784D01*
X17577575Y34341787D01*
X17577575Y34341789D01*
X17498522Y34478713D01*
X17498514Y34478723D01*
X17382327Y34594910D01*
X17382304Y34594931D01*
X15349708Y36627527D01*
X15349696Y36627541D01*
X15230722Y36746515D01*
X15230712Y36746523D01*
X15129063Y36805209D01*
X15129062Y36805210D01*
X15119632Y36810654D01*
X15088998Y36835461D01*
X14995871Y36938888D01*
X14995870Y36938889D01*
X14995868Y36938891D01*
X14842732Y37050150D01*
X14842732Y37050151D01*
X14717145Y37106066D01*
X14669803Y37127144D01*
X14669801Y37127145D01*
X14669800Y37127145D01*
X14484646Y37166500D01*
X14295354Y37166500D01*
X14110199Y37127145D01*
X13937267Y37050151D01*
X13937267Y37050150D01*
X13784126Y36938887D01*
X13657466Y36798217D01*
X13657465Y36798215D01*
X13562822Y36634287D01*
X13562818Y36634279D01*
X13504325Y36454257D01*
X13484540Y36266000D01*
X13504325Y36077744D01*
X13562818Y35897722D01*
X13562822Y35897714D01*
X13657465Y35733786D01*
X13657466Y35733784D01*
X13784126Y35593114D01*
X13937267Y35481851D01*
X13937267Y35481850D01*
X13968968Y35467736D01*
X14110197Y35404856D01*
X14295354Y35365500D01*
X14484646Y35365500D01*
X14669803Y35404856D01*
X14731920Y35432514D01*
X14802284Y35441949D01*
X14866581Y35411843D01*
X14872263Y35406502D01*
X16320353Y33958412D01*
X16354379Y33896100D01*
X16349314Y33825285D01*
X16324896Y33785009D01*
X16285466Y33741217D01*
X16285465Y33741215D01*
X16190822Y33577287D01*
X16190818Y33577279D01*
X16132325Y33397257D01*
X16112540Y33209000D01*
X16132325Y33020744D01*
X16190818Y32840722D01*
X16190822Y32840714D01*
X16285465Y32676786D01*
X16285466Y32676784D01*
X16412126Y32536114D01*
X16565267Y32424851D01*
X16565270Y32424849D01*
X16583076Y32416921D01*
X16637172Y32370942D01*
X16657822Y32303015D01*
X16638470Y32234706D01*
X16620923Y32212719D01*
X13105611Y28697405D01*
X13043299Y28663380D01*
X13016516Y28660500D01*
X9315534Y28660500D01*
X9008543Y28625911D01*
X8707357Y28557167D01*
X8415788Y28455142D01*
X8415760Y28455131D01*
X8348995Y28422978D01*
X8294326Y28410500D01*
X7422135Y28410500D01*
X7422114Y28410498D01*
X7362519Y28404092D01*
X7362518Y28404092D01*
X7227673Y28353799D01*
X7227670Y28353797D01*
X7112453Y28267547D01*
X7026203Y28152330D01*
X7026201Y28152327D01*
X6975909Y28017485D01*
X6969500Y27957879D01*
X6969500Y27085674D01*
X6957022Y27031005D01*
X6924869Y26964240D01*
X6924858Y26964212D01*
X6822833Y26672643D01*
X6754089Y26371457D01*
X6719500Y26064466D01*
X5344500Y26064466D01*
X5344500Y30515001D01*
X11809552Y30515001D01*
X11809553Y30515000D01*
X12552447Y30515000D01*
X12552447Y30515001D01*
X12181001Y30886447D01*
X12180999Y30886447D01*
X11809552Y30515001D01*
X5344500Y30515001D01*
X5344500Y31311409D01*
X10931000Y31311409D01*
X10931000Y31168592D01*
X10958861Y31028525D01*
X10958863Y31028520D01*
X11013513Y30896585D01*
X11092853Y30777844D01*
X11092854Y30777842D01*
X11193840Y30676855D01*
X11193842Y30676854D01*
X11236078Y30648633D01*
X11540982Y30953537D01*
X11591504Y30940000D01*
X12770496Y30940000D01*
X12821015Y30953537D01*
X13125919Y30648633D01*
X13125920Y30648633D01*
X13168159Y30676855D01*
X13269145Y30777842D01*
X13269146Y30777844D01*
X13348486Y30896585D01*
X13403136Y31028520D01*
X13403138Y31028525D01*
X13430999Y31168592D01*
X13431000Y31168596D01*
X13431000Y31311405D01*
X13430999Y31311409D01*
X13403138Y31451476D01*
X13403136Y31451481D01*
X13348486Y31583416D01*
X13269146Y31702157D01*
X13269145Y31702159D01*
X13168159Y31803146D01*
X13168157Y31803147D01*
X13125920Y31831369D01*
X12821015Y31526464D01*
X12770496Y31540000D01*
X11591504Y31540000D01*
X11540984Y31526464D01*
X11236079Y31831369D01*
X11193839Y31803145D01*
X11092854Y31702159D01*
X11092853Y31702157D01*
X11013513Y31583416D01*
X10958863Y31451481D01*
X10958861Y31451476D01*
X10931000Y31311409D01*
X5344500Y31311409D01*
X5344500Y31965000D01*
X11809552Y31965000D01*
X12180999Y31593553D01*
X12181001Y31593553D01*
X12552447Y31965000D01*
X11809552Y31965000D01*
X5344500Y31965000D01*
X5344500Y32712988D01*
X11354500Y32712988D01*
X11354500Y32627013D01*
X11376749Y32543980D01*
X11376750Y32543977D01*
X11376751Y32543976D01*
X11419735Y32469525D01*
X11419737Y32469523D01*
X11419740Y32469519D01*
X11480518Y32408741D01*
X11480522Y32408738D01*
X11480525Y32408735D01*
X11554976Y32365751D01*
X11554978Y32365751D01*
X11554979Y32365750D01*
X11624536Y32347112D01*
X11638016Y32343500D01*
X11723984Y32343500D01*
X11807024Y32365751D01*
X11881475Y32408735D01*
X11942265Y32469525D01*
X11985249Y32543976D01*
X12007500Y32627016D01*
X12007500Y32712984D01*
X11985249Y32796024D01*
X11942265Y32870475D01*
X11942262Y32870478D01*
X11942259Y32870482D01*
X11881481Y32931260D01*
X11881477Y32931263D01*
X11881475Y32931265D01*
X11807024Y32974249D01*
X11807023Y32974250D01*
X11807020Y32974251D01*
X11723987Y32996500D01*
X11723984Y32996500D01*
X11638016Y32996500D01*
X11638012Y32996500D01*
X11554979Y32974251D01*
X11480526Y32931266D01*
X11480518Y32931260D01*
X11419740Y32870482D01*
X11419734Y32870474D01*
X11376749Y32796021D01*
X11354500Y32712988D01*
X5344500Y32712988D01*
X5344500Y38494169D01*
X11345500Y38494169D01*
X11345500Y38405831D01*
X11368364Y38320502D01*
X11368365Y38320500D01*
X11370900Y38316110D01*
X11412533Y38243998D01*
X11412535Y38243996D01*
X11412538Y38243992D01*
X11474991Y38181539D01*
X11474995Y38181536D01*
X11474998Y38181533D01*
X11551502Y38137364D01*
X11636831Y38114500D01*
X11636834Y38114500D01*
X11725166Y38114500D01*
X11725169Y38114500D01*
X11810498Y38137364D01*
X11887002Y38181533D01*
X11949467Y38243998D01*
X11993636Y38320502D01*
X12016500Y38405831D01*
X12016500Y38494169D01*
X11993636Y38579498D01*
X11949467Y38656002D01*
X11949464Y38656005D01*
X11949461Y38656009D01*
X11887008Y38718462D01*
X11887004Y38718465D01*
X11887002Y38718467D01*
X11810498Y38762636D01*
X11725169Y38785500D01*
X11636831Y38785500D01*
X11551502Y38762636D01*
X11551501Y38762636D01*
X11551499Y38762635D01*
X11474999Y38718468D01*
X11474991Y38718462D01*
X11412538Y38656009D01*
X11412532Y38656001D01*
X11368365Y38579501D01*
X11368364Y38579499D01*
X11368364Y38579498D01*
X11345500Y38494169D01*
X5344500Y38494169D01*
X5344500Y39155001D01*
X11809552Y39155001D01*
X11809553Y39155000D01*
X12552447Y39155000D01*
X12552447Y39155001D01*
X12181001Y39526447D01*
X12180999Y39526447D01*
X11809552Y39155001D01*
X5344500Y39155001D01*
X5344500Y39951409D01*
X10931000Y39951409D01*
X10931000Y39808592D01*
X10958861Y39668525D01*
X10958863Y39668520D01*
X11013513Y39536585D01*
X11092853Y39417844D01*
X11092854Y39417842D01*
X11193840Y39316855D01*
X11193842Y39316854D01*
X11236078Y39288633D01*
X11540982Y39593537D01*
X11591504Y39580000D01*
X12770496Y39580000D01*
X12821015Y39593537D01*
X13125919Y39288633D01*
X13125920Y39288633D01*
X13168159Y39316855D01*
X13269145Y39417842D01*
X13269146Y39417844D01*
X13348486Y39536585D01*
X13403136Y39668520D01*
X13403138Y39668525D01*
X13430999Y39808592D01*
X13431000Y39808596D01*
X13431000Y39951405D01*
X13430999Y39951409D01*
X13403138Y40091476D01*
X13403136Y40091481D01*
X13348486Y40223416D01*
X13269146Y40342157D01*
X13269145Y40342159D01*
X13168159Y40443146D01*
X13168157Y40443147D01*
X13125920Y40471369D01*
X12821015Y40166464D01*
X12770496Y40180000D01*
X11591504Y40180000D01*
X11540984Y40166464D01*
X11236079Y40471369D01*
X11193839Y40443145D01*
X11092854Y40342159D01*
X11092853Y40342157D01*
X11013513Y40223416D01*
X10958863Y40091481D01*
X10958861Y40091476D01*
X10931000Y39951409D01*
X5344500Y39951409D01*
X5344500Y40605000D01*
X11809552Y40605000D01*
X12180999Y40233553D01*
X12181001Y40233553D01*
X12552447Y40605000D01*
X11809552Y40605000D01*
X5344500Y40605000D01*
X5344500Y54356000D01*
X14207540Y54356000D01*
X14227325Y54167744D01*
X14285818Y53987722D01*
X14285822Y53987714D01*
X14380464Y53823788D01*
X14380465Y53823786D01*
X14380467Y53823784D01*
X14480136Y53713091D01*
X14510853Y53649083D01*
X14512500Y53628780D01*
X14512500Y51902792D01*
X14512499Y51902774D01*
X14512499Y51895057D01*
X14512499Y51736943D01*
X14532810Y51661144D01*
X14553423Y51584215D01*
X14553424Y51584212D01*
X14573761Y51548990D01*
X14582360Y51534096D01*
X14632480Y51447284D01*
X14632483Y51447281D01*
X14632486Y51447277D01*
X14751459Y51328304D01*
X14751473Y51328292D01*
X17218635Y48861130D01*
X17252661Y48798818D01*
X17255540Y48772035D01*
X17255540Y48768002D01*
X17275325Y48579744D01*
X17333818Y48399722D01*
X17333822Y48399714D01*
X17428465Y48235786D01*
X17428466Y48235784D01*
X17555126Y48095114D01*
X17708267Y47983851D01*
X17708267Y47983850D01*
X17755612Y47962771D01*
X17881197Y47906856D01*
X18066354Y47867500D01*
X18255646Y47867500D01*
X18440803Y47906856D01*
X18613730Y47983849D01*
X18613730Y47983850D01*
X18613732Y47983850D01*
X18613732Y47983851D01*
X18766871Y48095112D01*
X18893533Y48235784D01*
X18988179Y48399716D01*
X19046674Y48579744D01*
X19066460Y48768000D01*
X19046674Y48956256D01*
X19041801Y48971254D01*
X18988181Y49136279D01*
X18988177Y49136287D01*
X18893534Y49300215D01*
X18893533Y49300217D01*
X18766873Y49440887D01*
X18613732Y49552150D01*
X18613732Y49552151D01*
X18488145Y49608066D01*
X18440803Y49629144D01*
X18440801Y49629145D01*
X18440800Y49629145D01*
X18255646Y49668500D01*
X18161925Y49668500D01*
X18093804Y49688502D01*
X18072830Y49705405D01*
X15750405Y52027830D01*
X15716379Y52090142D01*
X15713500Y52116925D01*
X15713500Y53628780D01*
X15733502Y53696901D01*
X15745864Y53713091D01*
X15845533Y53823784D01*
X15940179Y53987716D01*
X15998674Y54167744D01*
X16018460Y54356000D01*
X15998674Y54544256D01*
X15940179Y54724284D01*
X15845534Y54888215D01*
X15845533Y54888217D01*
X15718873Y55028887D01*
X15565732Y55140150D01*
X15565732Y55140151D01*
X15440145Y55196066D01*
X15392803Y55217144D01*
X15392801Y55217145D01*
X15392800Y55217145D01*
X15207646Y55256500D01*
X15018354Y55256500D01*
X14833199Y55217145D01*
X14660267Y55140151D01*
X14660267Y55140150D01*
X14507126Y55028887D01*
X14380466Y54888217D01*
X14380465Y54888215D01*
X14285822Y54724287D01*
X14285818Y54724279D01*
X14227325Y54544257D01*
X14207540Y54356000D01*
X5344500Y54356000D01*
X5344500Y59845079D01*
X24285000Y59845079D01*
X24285000Y55939336D01*
X24285002Y55939315D01*
X24291408Y55879720D01*
X24291408Y55879719D01*
X24341701Y55744874D01*
X24341703Y55744871D01*
X24427953Y55629654D01*
X24474928Y55594489D01*
X24543169Y55543404D01*
X24543171Y55543404D01*
X24543173Y55543402D01*
X24603530Y55520891D01*
X24678014Y55493110D01*
X24678017Y55493109D01*
X24737627Y55486700D01*
X28643372Y55486701D01*
X28702983Y55493109D01*
X28837831Y55543404D01*
X28953046Y55629654D01*
X29039296Y55744869D01*
X29048238Y55768844D01*
X29072444Y55833743D01*
X29114990Y55890579D01*
X29181510Y55915391D01*
X29250884Y55900300D01*
X29301087Y55850098D01*
X29308556Y55833743D01*
X29341701Y55744874D01*
X29341703Y55744871D01*
X29427953Y55629654D01*
X29474928Y55594489D01*
X29543169Y55543404D01*
X29543171Y55543404D01*
X29543173Y55543402D01*
X29603530Y55520891D01*
X29678014Y55493110D01*
X29678017Y55493109D01*
X29737627Y55486700D01*
X33643372Y55486701D01*
X33702983Y55493109D01*
X33837831Y55543404D01*
X33953046Y55629654D01*
X34039296Y55744869D01*
X34089591Y55879717D01*
X34096000Y55939327D01*
X34095999Y59845072D01*
X34089591Y59904683D01*
X34068300Y59961765D01*
X34039298Y60039527D01*
X34039296Y60039530D01*
X34039296Y60039531D01*
X33971071Y60130668D01*
X33953046Y60154747D01*
X33876091Y60212355D01*
X33837831Y60240996D01*
X33837829Y60240997D01*
X33837826Y60240999D01*
X33702983Y60291291D01*
X33702986Y60291291D01*
X33643373Y60297700D01*
X29737635Y60297700D01*
X29737614Y60297698D01*
X29678019Y60291292D01*
X29678018Y60291292D01*
X29543173Y60240999D01*
X29543170Y60240997D01*
X29427953Y60154747D01*
X29341703Y60039530D01*
X29341702Y60039529D01*
X29308556Y59950657D01*
X29266010Y59893821D01*
X29199490Y59869010D01*
X29130115Y59884101D01*
X29079913Y59934303D01*
X29072444Y59950657D01*
X29039297Y60039529D01*
X29039296Y60039530D01*
X29039296Y60039531D01*
X28971071Y60130668D01*
X28953046Y60154747D01*
X28876091Y60212355D01*
X28837831Y60240996D01*
X28837829Y60240997D01*
X28837826Y60240999D01*
X28702983Y60291291D01*
X28702986Y60291291D01*
X28643373Y60297700D01*
X24737635Y60297700D01*
X24737614Y60297698D01*
X24678019Y60291292D01*
X24678018Y60291292D01*
X24543173Y60240999D01*
X24543170Y60240997D01*
X24427953Y60154747D01*
X24341703Y60039530D01*
X24341701Y60039527D01*
X24291409Y59904685D01*
X24285000Y59845079D01*
X5344500Y59845079D01*
X5344500Y63166879D01*
X39377500Y63166879D01*
X39377500Y61547136D01*
X39377502Y61547115D01*
X39383908Y61487520D01*
X39383908Y61487519D01*
X39434201Y61352674D01*
X39434203Y61352671D01*
X39434204Y61352669D01*
X39477086Y61295386D01*
X39520452Y61237456D01*
X39520453Y61237456D01*
X39520454Y61237454D01*
X39586693Y61187867D01*
X39629239Y61131032D01*
X39634303Y61060216D01*
X39600278Y60997904D01*
X39586697Y60986137D01*
X39561803Y60967500D01*
X39520452Y60936545D01*
X39434203Y60821330D01*
X39434201Y60821327D01*
X39383909Y60686485D01*
X39377500Y60626879D01*
X39377500Y59007136D01*
X39377502Y59007115D01*
X39383908Y58947520D01*
X39383908Y58947519D01*
X39434201Y58812674D01*
X39434203Y58812671D01*
X39520453Y58697454D01*
X39578061Y58654329D01*
X39635669Y58611204D01*
X39635671Y58611204D01*
X39635673Y58611202D01*
X39696030Y58588691D01*
X39770514Y58560910D01*
X39770517Y58560909D01*
X39830127Y58554500D01*
X41449872Y58554501D01*
X41509483Y58560909D01*
X41644331Y58611204D01*
X41759546Y58697454D01*
X41809133Y58763694D01*
X41865968Y58806240D01*
X41936783Y58811304D01*
X41999095Y58777279D01*
X42010863Y58763698D01*
X42060454Y58697454D01*
X42175669Y58611204D01*
X42175671Y58611204D01*
X42175673Y58611202D01*
X42236030Y58588691D01*
X42310514Y58560910D01*
X42310517Y58560909D01*
X42370127Y58554500D01*
X43989872Y58554501D01*
X44049483Y58560909D01*
X44184331Y58611204D01*
X44299546Y58697454D01*
X44302449Y58701333D01*
X44359279Y58743880D01*
X44430094Y58748949D01*
X44492409Y58714928D01*
X44513899Y58686226D01*
X44514200Y58685675D01*
X44514203Y58685671D01*
X44514204Y58685669D01*
X44530652Y58663697D01*
X44600453Y58570454D01*
X44657853Y58527485D01*
X44715669Y58484204D01*
X44715671Y58484204D01*
X44715673Y58484202D01*
X44759457Y58467872D01*
X44850514Y58433910D01*
X44850517Y58433909D01*
X44910127Y58427500D01*
X46529872Y58427501D01*
X46589483Y58433909D01*
X46691970Y58472135D01*
X46762784Y58477198D01*
X46780024Y58472137D01*
X46882517Y58433909D01*
X46942127Y58427500D01*
X48561872Y58427501D01*
X48621483Y58433909D01*
X48756331Y58484204D01*
X48871546Y58570454D01*
X48957796Y58685669D01*
X48962292Y58697722D01*
X48992063Y58777545D01*
X49008091Y58820517D01*
X49014500Y58880127D01*
X49014499Y60499872D01*
X49008091Y60559483D01*
X48982954Y60626879D01*
X48957798Y60694327D01*
X48957796Y60694330D01*
X48957796Y60694331D01*
X48871546Y60809546D01*
X48805306Y60859134D01*
X48762760Y60915968D01*
X48757696Y60986783D01*
X48791721Y61049095D01*
X48805302Y61060864D01*
X48871546Y61110454D01*
X48957796Y61225669D01*
X48962292Y61237722D01*
X48991964Y61317279D01*
X49008091Y61360517D01*
X49014500Y61420127D01*
X49014499Y63039872D01*
X49008091Y63099483D01*
X48982954Y63166879D01*
X48957798Y63234327D01*
X48957796Y63234330D01*
X48957796Y63234331D01*
X48884620Y63332082D01*
X48871546Y63349547D01*
X48767999Y63427061D01*
X48756331Y63435796D01*
X48756329Y63435797D01*
X48756326Y63435799D01*
X48621483Y63486091D01*
X48621486Y63486091D01*
X48561873Y63492500D01*
X46942135Y63492500D01*
X46942114Y63492498D01*
X46882519Y63486092D01*
X46882518Y63486092D01*
X46780031Y63447867D01*
X46709215Y63442803D01*
X46691969Y63447867D01*
X46589484Y63486091D01*
X46589486Y63486091D01*
X46529873Y63492500D01*
X44910135Y63492500D01*
X44910114Y63492498D01*
X44850519Y63486092D01*
X44850518Y63486092D01*
X44715673Y63435799D01*
X44715670Y63435797D01*
X44600453Y63349546D01*
X44597545Y63345661D01*
X44540708Y63303117D01*
X44469892Y63298054D01*
X44407581Y63332082D01*
X44386097Y63360780D01*
X44385797Y63361329D01*
X44299546Y63476547D01*
X44222591Y63534155D01*
X44184331Y63562796D01*
X44184329Y63562797D01*
X44184326Y63562799D01*
X44049483Y63613091D01*
X44049486Y63613091D01*
X43989873Y63619500D01*
X42370135Y63619500D01*
X42370114Y63619498D01*
X42310519Y63613092D01*
X42310518Y63613092D01*
X42175673Y63562799D01*
X42175670Y63562797D01*
X42060455Y63476548D01*
X42060454Y63476546D01*
X42010866Y63410307D01*
X41954032Y63367761D01*
X41883216Y63362697D01*
X41820904Y63396722D01*
X41809136Y63410303D01*
X41759546Y63476546D01*
X41759544Y63476547D01*
X41759544Y63476548D01*
X41701614Y63519914D01*
X41644331Y63562796D01*
X41644329Y63562797D01*
X41644326Y63562799D01*
X41509483Y63613091D01*
X41509486Y63613091D01*
X41449873Y63619500D01*
X39830135Y63619500D01*
X39830114Y63619498D01*
X39770519Y63613092D01*
X39770518Y63613092D01*
X39635673Y63562799D01*
X39635670Y63562797D01*
X39520453Y63476547D01*
X39434203Y63361330D01*
X39434201Y63361327D01*
X39383909Y63226485D01*
X39377500Y63166879D01*
X5344500Y63166879D01*
X5344500Y64096079D01*
X52026300Y64096079D01*
X52026300Y62323936D01*
X52026302Y62323915D01*
X52032708Y62264320D01*
X52032708Y62264319D01*
X52083001Y62129474D01*
X52083003Y62129471D01*
X52169253Y62014254D01*
X52226861Y61971129D01*
X52284469Y61928004D01*
X52284471Y61928004D01*
X52284473Y61928002D01*
X52344830Y61905491D01*
X52419314Y61877710D01*
X52419317Y61877709D01*
X52478927Y61871300D01*
X54251072Y61871301D01*
X54310683Y61877709D01*
X54445531Y61928004D01*
X54560746Y62014254D01*
X54646996Y62129469D01*
X54697291Y62264317D01*
X54703700Y62323927D01*
X54703700Y62483500D01*
X54723702Y62551621D01*
X54777358Y62598114D01*
X54829700Y62609500D01*
X57032375Y62609500D01*
X57100496Y62589498D01*
X57121470Y62572595D01*
X59430270Y60263795D01*
X59464296Y60201483D01*
X59459231Y60130668D01*
X59416684Y60073832D01*
X59350164Y60049021D01*
X59341175Y60048700D01*
X58778935Y60048700D01*
X58778914Y60048698D01*
X58719319Y60042292D01*
X58719318Y60042292D01*
X58584473Y59991999D01*
X58584470Y59991997D01*
X58469253Y59905747D01*
X58383003Y59790530D01*
X58383001Y59790527D01*
X58332709Y59655685D01*
X58326300Y59596079D01*
X58326300Y59436500D01*
X58306298Y59368379D01*
X58252642Y59321886D01*
X58200300Y59310500D01*
X54829699Y59310500D01*
X54761578Y59330502D01*
X54715085Y59384158D01*
X54703699Y59436500D01*
X54703699Y59596065D01*
X54703699Y59596072D01*
X54697291Y59655683D01*
X54676000Y59712765D01*
X54646998Y59790527D01*
X54646996Y59790530D01*
X54646996Y59790531D01*
X54588247Y59869010D01*
X54560746Y59905747D01*
X54483791Y59963355D01*
X54445531Y59991996D01*
X54445529Y59991997D01*
X54445526Y59991999D01*
X54310683Y60042291D01*
X54310686Y60042291D01*
X54251073Y60048700D01*
X52478935Y60048700D01*
X52478914Y60048698D01*
X52419319Y60042292D01*
X52419318Y60042292D01*
X52284473Y59991999D01*
X52284470Y59991997D01*
X52169253Y59905747D01*
X52083003Y59790530D01*
X52083001Y59790527D01*
X52032709Y59655685D01*
X52026300Y59596079D01*
X52026300Y57823936D01*
X52026302Y57823915D01*
X52032708Y57764320D01*
X52032708Y57764319D01*
X52083001Y57629474D01*
X52083003Y57629471D01*
X52169253Y57514254D01*
X52226861Y57471129D01*
X52284469Y57428004D01*
X52284471Y57428004D01*
X52284473Y57428002D01*
X52344830Y57405491D01*
X52419314Y57377710D01*
X52419317Y57377709D01*
X52478927Y57371300D01*
X54251072Y57371301D01*
X54310683Y57377709D01*
X54445531Y57428004D01*
X54560746Y57514254D01*
X54646996Y57629469D01*
X54697291Y57764317D01*
X54703700Y57823927D01*
X54703700Y57983500D01*
X54723702Y58051621D01*
X54777358Y58098114D01*
X54829700Y58109500D01*
X58200301Y58109500D01*
X58268422Y58089498D01*
X58314915Y58035842D01*
X58326301Y57983500D01*
X58326301Y57823936D01*
X58326302Y57823915D01*
X58332708Y57764320D01*
X58332708Y57764319D01*
X58383001Y57629474D01*
X58383003Y57629471D01*
X58469253Y57514254D01*
X58526861Y57471129D01*
X58584469Y57428004D01*
X58584471Y57428004D01*
X58584473Y57428002D01*
X58644830Y57405491D01*
X58719314Y57377710D01*
X58719317Y57377709D01*
X58778927Y57371300D01*
X60551072Y57371301D01*
X60610683Y57377709D01*
X60745531Y57428004D01*
X60860746Y57514254D01*
X60946996Y57629469D01*
X60997291Y57764317D01*
X61003700Y57823927D01*
X61003699Y58386178D01*
X61023701Y58454297D01*
X61077357Y58500790D01*
X61147630Y58510894D01*
X61212211Y58481401D01*
X61218794Y58475271D01*
X65150669Y54543396D01*
X65150690Y54543373D01*
X65266879Y54427184D01*
X65266882Y54427182D01*
X65266884Y54427180D01*
X65353695Y54377061D01*
X65353698Y54377059D01*
X65403811Y54348125D01*
X65403812Y54348125D01*
X65403815Y54348123D01*
X65556542Y54307200D01*
X65556543Y54307200D01*
X65807952Y54307200D01*
X65876073Y54287198D01*
X65901584Y54265514D01*
X65929227Y54234814D01*
X65929231Y54234810D01*
X66082367Y54123551D01*
X66082367Y54123550D01*
X66129712Y54102471D01*
X66255297Y54046556D01*
X66440454Y54007200D01*
X66629746Y54007200D01*
X66814903Y54046556D01*
X66987830Y54123549D01*
X66987830Y54123550D01*
X66987832Y54123550D01*
X66987832Y54123551D01*
X67140971Y54234812D01*
X67250090Y54356000D01*
X67267633Y54375484D01*
X67267634Y54375486D01*
X67268543Y54377061D01*
X67362279Y54539416D01*
X67420774Y54719444D01*
X67440560Y54907700D01*
X67420774Y55095956D01*
X67420774Y55095957D01*
X67362281Y55275979D01*
X67362277Y55275987D01*
X67267634Y55439915D01*
X67267633Y55439917D01*
X67140973Y55580587D01*
X66987832Y55691850D01*
X66987832Y55691851D01*
X66862245Y55747766D01*
X66814903Y55768844D01*
X66814901Y55768845D01*
X66814900Y55768845D01*
X66629746Y55808200D01*
X66440454Y55808200D01*
X66255299Y55768845D01*
X66082367Y55691851D01*
X66082366Y55691850D01*
X65948361Y55594489D01*
X65881493Y55570630D01*
X65812341Y55586711D01*
X65785205Y55607330D01*
X60384656Y61007879D01*
X66555500Y61007879D01*
X66555500Y59388136D01*
X66555502Y59388115D01*
X66561908Y59328520D01*
X66561908Y59328519D01*
X66612201Y59193674D01*
X66612203Y59193671D01*
X66612204Y59193669D01*
X66655086Y59136386D01*
X66698452Y59078456D01*
X66698453Y59078456D01*
X66698454Y59078454D01*
X66764693Y59028867D01*
X66807239Y58972032D01*
X66812303Y58901216D01*
X66778278Y58838904D01*
X66764697Y58827137D01*
X66743549Y58811304D01*
X66698452Y58777545D01*
X66612203Y58662330D01*
X66612201Y58662327D01*
X66561909Y58527485D01*
X66555500Y58467879D01*
X66555500Y56848136D01*
X66555502Y56848115D01*
X66561908Y56788520D01*
X66561908Y56788519D01*
X66612201Y56653674D01*
X66612203Y56653671D01*
X66698453Y56538454D01*
X66756061Y56495329D01*
X66813669Y56452204D01*
X66813671Y56452204D01*
X66813673Y56452202D01*
X66874030Y56429691D01*
X66948514Y56401910D01*
X66948517Y56401909D01*
X67008127Y56395500D01*
X68627872Y56395501D01*
X68687483Y56401909D01*
X68822331Y56452204D01*
X68937546Y56538454D01*
X68987133Y56604694D01*
X69043968Y56647240D01*
X69114783Y56652304D01*
X69177095Y56618279D01*
X69188863Y56604698D01*
X69238454Y56538454D01*
X69353669Y56452204D01*
X69353671Y56452204D01*
X69353673Y56452202D01*
X69414030Y56429691D01*
X69488514Y56401910D01*
X69488517Y56401909D01*
X69548127Y56395500D01*
X71167872Y56395501D01*
X71227483Y56401909D01*
X71362331Y56452204D01*
X71477546Y56538454D01*
X71527133Y56604694D01*
X71583968Y56647240D01*
X71654783Y56652304D01*
X71717095Y56618279D01*
X71728863Y56604698D01*
X71778454Y56538454D01*
X71893669Y56452204D01*
X71893671Y56452204D01*
X71893673Y56452202D01*
X71954030Y56429691D01*
X72028514Y56401910D01*
X72028517Y56401909D01*
X72088127Y56395500D01*
X73707872Y56395501D01*
X73767483Y56401909D01*
X73902331Y56452204D01*
X74017546Y56538454D01*
X74103796Y56653669D01*
X74154091Y56788517D01*
X74160500Y56848127D01*
X74160499Y58467872D01*
X74154091Y58527483D01*
X74122865Y58611204D01*
X74103798Y58662327D01*
X74103796Y58662330D01*
X74103796Y58662331D01*
X74017546Y58777546D01*
X73951306Y58827134D01*
X73908760Y58883968D01*
X73903696Y58954783D01*
X73937721Y59017095D01*
X73951302Y59028864D01*
X74017546Y59078454D01*
X74103796Y59193669D01*
X74154091Y59328517D01*
X74160500Y59388127D01*
X74160499Y61007872D01*
X74154091Y61067483D01*
X74122865Y61151204D01*
X74103798Y61202327D01*
X74103796Y61202330D01*
X74103796Y61202331D01*
X74060671Y61259939D01*
X74017546Y61317547D01*
X73940591Y61375155D01*
X73902331Y61403796D01*
X73902329Y61403797D01*
X73902326Y61403799D01*
X73767483Y61454091D01*
X73767486Y61454091D01*
X73707873Y61460500D01*
X72088135Y61460500D01*
X72088114Y61460498D01*
X72028519Y61454092D01*
X72028518Y61454092D01*
X71893673Y61403799D01*
X71893670Y61403797D01*
X71778455Y61317548D01*
X71757046Y61288949D01*
X71728866Y61251307D01*
X71672032Y61208761D01*
X71601216Y61203697D01*
X71538904Y61237722D01*
X71527136Y61251303D01*
X71477546Y61317546D01*
X71477544Y61317547D01*
X71477544Y61317548D01*
X71419614Y61360914D01*
X71362331Y61403796D01*
X71362329Y61403797D01*
X71362326Y61403799D01*
X71227483Y61454091D01*
X71227486Y61454091D01*
X71167873Y61460500D01*
X69548135Y61460500D01*
X69548114Y61460498D01*
X69488519Y61454092D01*
X69488518Y61454092D01*
X69353673Y61403799D01*
X69353670Y61403797D01*
X69238455Y61317548D01*
X69217046Y61288949D01*
X69188866Y61251307D01*
X69132032Y61208761D01*
X69061216Y61203697D01*
X68998904Y61237722D01*
X68987136Y61251303D01*
X68937546Y61317546D01*
X68937544Y61317547D01*
X68937544Y61317548D01*
X68879614Y61360914D01*
X68822331Y61403796D01*
X68822329Y61403797D01*
X68822326Y61403799D01*
X68687483Y61454091D01*
X68687486Y61454091D01*
X68627873Y61460500D01*
X67008135Y61460500D01*
X67008114Y61460498D01*
X66948519Y61454092D01*
X66948518Y61454092D01*
X66813673Y61403799D01*
X66813670Y61403797D01*
X66698453Y61317547D01*
X66612203Y61202330D01*
X66612201Y61202327D01*
X66561909Y61067485D01*
X66555500Y61007879D01*
X60384656Y61007879D01*
X59736329Y61656206D01*
X59702303Y61718518D01*
X59707368Y61789333D01*
X59749915Y61846169D01*
X59816435Y61870980D01*
X59825424Y61871301D01*
X60551065Y61871301D01*
X60551072Y61871301D01*
X60610683Y61877709D01*
X60745531Y61928004D01*
X60860746Y62014254D01*
X60946996Y62129469D01*
X60997291Y62264317D01*
X61003700Y62323927D01*
X61003699Y64096072D01*
X60997291Y64155683D01*
X60976000Y64212765D01*
X60946998Y64290527D01*
X60946996Y64290530D01*
X60946996Y64290531D01*
X60903871Y64348139D01*
X60860746Y64405747D01*
X60783791Y64463355D01*
X60745531Y64491996D01*
X60745529Y64491997D01*
X60745526Y64491999D01*
X60610683Y64542291D01*
X60610686Y64542291D01*
X60551073Y64548700D01*
X58778935Y64548700D01*
X58778914Y64548698D01*
X58719319Y64542292D01*
X58719318Y64542292D01*
X58584473Y64491999D01*
X58584470Y64491997D01*
X58469253Y64405747D01*
X58383003Y64290530D01*
X58383001Y64290527D01*
X58332709Y64155685D01*
X58326300Y64096079D01*
X58326300Y63936500D01*
X58306298Y63868379D01*
X58252642Y63821886D01*
X58200300Y63810500D01*
X57420091Y63810500D01*
X57420075Y63810501D01*
X57412357Y63810501D01*
X57254243Y63810501D01*
X57246525Y63810501D01*
X57246509Y63810500D01*
X54829699Y63810500D01*
X54761578Y63830502D01*
X54715085Y63884158D01*
X54703699Y63936500D01*
X54703699Y64096065D01*
X54703699Y64096072D01*
X54697291Y64155683D01*
X54676000Y64212765D01*
X54646998Y64290527D01*
X54646996Y64290530D01*
X54646996Y64290531D01*
X54603871Y64348139D01*
X54560746Y64405747D01*
X54483791Y64463355D01*
X54445531Y64491996D01*
X54445529Y64491997D01*
X54445526Y64491999D01*
X54310683Y64542291D01*
X54310686Y64542291D01*
X54251073Y64548700D01*
X52478935Y64548700D01*
X52478914Y64548698D01*
X52419319Y64542292D01*
X52419318Y64542292D01*
X52284473Y64491999D01*
X52284470Y64491997D01*
X52169253Y64405747D01*
X52083003Y64290530D01*
X52083001Y64290527D01*
X52032709Y64155685D01*
X52026300Y64096079D01*
X5344500Y64096079D01*
X5344500Y65649500D01*
X5364502Y65717621D01*
X5418158Y65764114D01*
X5470500Y65775500D01*
X85969500Y65775500D01*
X86037621Y65755498D01*
G37*
%TD.AperFunction*%
%TD*%
M02*
