%TF.GenerationSoftware,KiCad,Pcbnew,8.0.3+1*%
%TF.CreationDate,2024-07-22T17:15:41+00:00*%
%TF.ProjectId,LION2CELL02,4c494f4e-3243-4454-9c4c-30322e6b6963,rev?*%
%TF.SameCoordinates,Original*%
%TF.FileFunction,Copper,L1,Top*%
%TF.FilePolarity,Positive*%
%FSLAX46Y46*%
G04 Gerber Fmt 4.6, Leading zero omitted, Abs format (unit mm)*
G04 Created by KiCad (PCBNEW 8.0.3+1) date 2024-07-22 17:15:41*
%MOMM*%
%LPD*%
G01*
G04 APERTURE LIST*
G04 Aperture macros list*
%AMRoundRect*
0 Rectangle with rounded corners*
0 $1 Rounding radius*
0 $2 $3 $4 $5 $6 $7 $8 $9 X,Y pos of 4 corners*
0 Add a 4 corners polygon primitive as box body*
4,1,4,$2,$3,$4,$5,$6,$7,$8,$9,$2,$3,0*
0 Add four circle primitives for the rounded corners*
1,1,$1+$1,$2,$3*
1,1,$1+$1,$4,$5*
1,1,$1+$1,$6,$7*
1,1,$1+$1,$8,$9*
0 Add four rect primitives between the rounded corners*
20,1,$1+$1,$2,$3,$4,$5,0*
20,1,$1+$1,$4,$5,$6,$7,0*
20,1,$1+$1,$6,$7,$8,$9,0*
20,1,$1+$1,$8,$9,$2,$3,0*%
G04 Aperture macros list end*
%TA.AperFunction,ComponentPad*%
%ADD10R,3.810000X3.810000*%
%TD*%
%TA.AperFunction,ComponentPad*%
%ADD11R,1.524000X1.524000*%
%TD*%
%TA.AperFunction,ComponentPad*%
%ADD12R,1.676400X1.676400*%
%TD*%
%TA.AperFunction,ComponentPad*%
%ADD13C,6.000000*%
%TD*%
%TA.AperFunction,ComponentPad*%
%ADD14R,4.000000X4.000000*%
%TD*%
%TA.AperFunction,SMDPad,CuDef*%
%ADD15RoundRect,0.250000X-0.262500X-0.450000X0.262500X-0.450000X0.262500X0.450000X-0.262500X0.450000X0*%
%TD*%
%TA.AperFunction,SMDPad,CuDef*%
%ADD16RoundRect,0.250000X0.262500X0.450000X-0.262500X0.450000X-0.262500X-0.450000X0.262500X-0.450000X0*%
%TD*%
%TA.AperFunction,ComponentPad*%
%ADD17O,2.000000X1.000000*%
%TD*%
%TA.AperFunction,ComponentPad*%
%ADD18O,2.100000X1.050000*%
%TD*%
%TA.AperFunction,ComponentPad*%
%ADD19C,0.500000*%
%TD*%
%TA.AperFunction,SMDPad,CuDef*%
%ADD20RoundRect,0.258000X1.242000X1.242000X-1.242000X1.242000X-1.242000X-1.242000X1.242000X-1.242000X0*%
%TD*%
%TA.AperFunction,HeatsinkPad*%
%ADD21C,0.500000*%
%TD*%
%TA.AperFunction,HeatsinkPad*%
%ADD22R,1.900000X2.900000*%
%TD*%
%TA.AperFunction,ViaPad*%
%ADD23C,0.800000*%
%TD*%
%TA.AperFunction,ViaPad*%
%ADD24C,0.400000*%
%TD*%
%TA.AperFunction,Conductor*%
%ADD25C,0.300000*%
%TD*%
%TA.AperFunction,Conductor*%
%ADD26C,4.500000*%
%TD*%
%TA.AperFunction,Conductor*%
%ADD27C,0.200000*%
%TD*%
%TA.AperFunction,Conductor*%
%ADD28C,0.800000*%
%TD*%
%TA.AperFunction,Conductor*%
%ADD29C,0.400000*%
%TD*%
G04 APERTURE END LIST*
D10*
%TO.P,J2,1,P1*%
%TO.N,/Power Input/Power_load*%
X31690500Y57892200D03*
X26690500Y57892200D03*
%TD*%
%TO.P,J3,1,P1*%
%TO.N,GND*%
X31690500Y62896000D03*
X26690500Y62896000D03*
%TD*%
D11*
%TO.P,J4,1,2*%
%TO.N,GND*%
X42799000Y12903200D03*
%TO.P,J4,2,2*%
X42799000Y10363200D03*
%TO.P,J4,3,4*%
%TO.N,/Power Input/System_load*%
X40259000Y12903200D03*
%TO.P,J4,4,4*%
X40259000Y10363200D03*
%TO.P,J4,5,5*%
X37719000Y12903200D03*
%TO.P,J4,6,5*%
X37719000Y10363200D03*
%TO.P,J4,7,8*%
%TO.N,GND*%
X35179000Y12903200D03*
%TO.P,J4,8,8*%
X35179000Y10363200D03*
%TD*%
%TO.P,J6,1*%
%TO.N,Net-(U1-INT)*%
X43180000Y62484000D03*
%TO.P,J6,2*%
X43180000Y59944000D03*
%TD*%
%TO.P,J7,1*%
%TO.N,Net-(U1-nQON)*%
X40640000Y59944000D03*
%TO.P,J7,2*%
X40640000Y62484000D03*
%TD*%
D10*
%TO.P,J9,1,P1*%
%TO.N,GND*%
X19955500Y8323000D03*
X24955500Y8323000D03*
%TD*%
D11*
%TO.P,J10,1*%
%TO.N,Net-(U3-BTP_INT)*%
X48260000Y62484000D03*
%TO.P,J10,2*%
X48260000Y59944000D03*
%TD*%
%TO.P,J11,1*%
%TO.N,Net-(U3-~{PRES{slash}SHDWN})*%
X50800000Y62484000D03*
%TO.P,J11,2*%
%TO.N,GND1*%
X50800000Y59944000D03*
%TD*%
%TO.P,J12,1*%
%TO.N,GND*%
X65278000Y57658000D03*
%TO.P,J12,2*%
X65278000Y60198000D03*
%TO.P,J12,3*%
%TO.N,/Fuel Gauge/SCL*%
X67818000Y57658000D03*
%TO.P,J12,4*%
X67818000Y60198000D03*
%TO.P,J12,5*%
%TO.N,+3.3V*%
X70358000Y57658000D03*
%TO.P,J12,6*%
X70358000Y60198000D03*
%TO.P,J12,7*%
%TO.N,/Fuel Gauge/SDA*%
X72898000Y57658000D03*
%TO.P,J12,8*%
X72898000Y60198000D03*
%TO.P,J12,9*%
%TO.N,GND*%
X75438000Y57658000D03*
%TO.P,J12,10*%
X75438000Y60198000D03*
%TD*%
D10*
%TO.P,J8,1,P1*%
%TO.N,VBUS*%
X19955500Y13276000D03*
X24955500Y13276000D03*
%TD*%
D12*
%TO.P,SW1,1,1*%
%TO.N,Net-(U3-~{PRES{slash}SHDWN})*%
X53365000Y63210000D03*
X59665000Y63210000D03*
%TO.P,SW1,2,2*%
%TO.N,GND1*%
X53365000Y58710000D03*
X59665000Y58710000D03*
%TD*%
%TO.P,SW2,1,1*%
%TO.N,Net-(U3-~{DISP})*%
X52984000Y13299000D03*
X59284000Y13299000D03*
%TO.P,SW2,2,2*%
%TO.N,GND1*%
X52984000Y8799000D03*
X59284000Y8799000D03*
%TD*%
D11*
%TO.P,JP1,1,A*%
%TO.N,buck_out*%
X45720000Y59690000D03*
%TO.P,JP1,2,B*%
%TO.N,+3.3V*%
X45720000Y62230000D03*
%TD*%
%TO.P,J5,1*%
%TO.N,GND*%
X46685200Y12954000D03*
%TO.P,J5,2*%
X49225200Y12954000D03*
%TO.P,J5,3*%
%TO.N,buck_out*%
X46685200Y10414000D03*
%TO.P,J5,4*%
X49225200Y10414000D03*
%TO.P,J5,5*%
%TO.N,GND*%
X46685200Y7874000D03*
%TO.P,J5,6*%
X49225200Y7874000D03*
%TD*%
D13*
%TO.P,H2,1,1*%
%TO.N,unconnected-(H2-Pad1)*%
X81280000Y60960000D03*
%TD*%
%TO.P,H3,1,1*%
%TO.N,unconnected-(H3-Pad1)*%
X10160000Y10160000D03*
%TD*%
D14*
%TO.P,B1,1,+*%
%TO.N,/Fuel Gauge/B+*%
X9470000Y45210000D03*
%TO.P,B1,2,-*%
%TO.N,/Fuel Gauge/BAT_MID*%
X81970000Y45210000D03*
%TO.P,B1,3,+*%
X9470000Y25910000D03*
%TO.P,B1,4,-*%
%TO.N,GND1*%
X81970000Y25910000D03*
%TD*%
D13*
%TO.P,H4,1,1*%
%TO.N,unconnected-(H4-Pad1)*%
X81280000Y10160000D03*
%TD*%
%TO.P,H1,1,1*%
%TO.N,unconnected-(H1-Pad1)*%
X10160000Y60960000D03*
%TD*%
D15*
%TO.P,TH2,1*%
%TO.N,GND1*%
X72645900Y45161200D03*
%TO.P,TH2,2*%
%TO.N,Net-(U3-TS2)*%
X74470900Y45161200D03*
%TD*%
D16*
%TO.P,TH1,1*%
%TO.N,GND1*%
X74445500Y25908000D03*
%TO.P,TH1,2*%
%TO.N,Net-(U3-TS1)*%
X72620500Y25908000D03*
%TD*%
D17*
%TO.P,J1,G1,SHIELD*%
%TO.N,GND*%
X8001000Y31240000D03*
%TO.P,J1,G2,SHIELD*%
X8001000Y39880000D03*
D18*
%TO.P,J1,G3,SHIELD*%
X12181000Y31240000D03*
%TO.P,J1,G4,SHIELD*%
X12181000Y39880000D03*
%TD*%
D19*
%TO.P,U3,33,PWRPD*%
%TO.N,GND1*%
X61822104Y36193504D03*
D20*
X61822104Y36193504D03*
%TD*%
D21*
%TO.P,U2,9,GND*%
%TO.N,GND*%
X51573200Y27489000D03*
X51573200Y26289000D03*
X51573200Y25089000D03*
D22*
X52273200Y26289000D03*
D21*
X52973200Y27489000D03*
X52973200Y26289000D03*
X52973200Y25089000D03*
%TD*%
D23*
%TO.N,GND*%
X37912212Y31868739D03*
X14478000Y32893000D03*
X21590000Y26797000D03*
X31497000Y30606000D03*
X31369000Y29718000D03*
X30734000Y32512000D03*
X40132000Y37465000D03*
X14605000Y38227000D03*
%TO.N,GND1*%
X59974496Y38298711D03*
X63967104Y34093504D03*
X66205104Y38860504D03*
%TO.N,/Fuel Gauge/B+*%
X49847400Y49350029D03*
%TO.N,VBUS*%
X28418000Y32354000D03*
X27808525Y28569065D03*
%TO.N,Net-(U1-SW1)*%
X30226000Y23622000D03*
X30636000Y29026000D03*
X26289000Y27498000D03*
%TO.N,Net-(U1-SW2)*%
X32258000Y23622000D03*
X32196000Y29080000D03*
X35687000Y28133000D03*
%TO.N,Net-(U3-VC2)*%
X66649600Y42494200D03*
X33707185Y40047141D03*
%TO.N,Net-(U3-VC1)*%
X16128998Y18923000D03*
X67918100Y36005504D03*
X46685200Y31216600D03*
X66243200Y31978600D03*
%TO.N,/Power Input/REGN*%
X26162000Y31369000D03*
X34012500Y36194994D03*
%TO.N,Net-(D1-A)*%
X57938099Y36325950D03*
X68148200Y13639800D03*
%TO.N,Net-(D1-K)*%
X61137800Y13335000D03*
X56136150Y37552400D03*
%TO.N,Net-(D5-K)*%
X69291200Y13462000D03*
X58166693Y37725950D03*
%TO.N,/Fuel Gauge/BAT*%
X58937231Y38934906D03*
X63958510Y38752280D03*
%TO.N,/Power Input/D+*%
X17018000Y33209000D03*
X14390000Y36266000D03*
D24*
%TO.N,Net-(U1-INT)*%
X34344999Y29028001D03*
D23*
X46163000Y38184225D03*
%TO.N,Net-(U1-nQON)*%
X45264450Y40151200D03*
X39166800Y40106600D03*
%TO.N,Net-(U3-BTP_INT)*%
X48895000Y37642800D03*
X53187600Y34061400D03*
%TO.N,Net-(U3-~{PRES{slash}SHDWN})*%
X49587916Y38363822D03*
X54152800Y35128200D03*
%TO.N,+3.3V*%
X47244000Y56261000D03*
X47269400Y37033200D03*
%TO.N,Net-(Q1-G)*%
X43751362Y39351200D03*
X43279032Y33006915D03*
%TO.N,/Fuel Gauge/VCOM*%
X49847400Y50800000D03*
X26785025Y48602975D03*
%TO.N,Net-(Q3-G)*%
X15113000Y54356000D03*
X18161000Y48768000D03*
%TO.N,Net-(U1-TS)*%
X35172324Y33012020D03*
X36631991Y38874000D03*
%TO.N,Net-(U3-PCHG)*%
X62382400Y41173400D03*
X38735000Y42697400D03*
%TO.N,Net-(U3-DSG)*%
X40335200Y42697400D03*
X61264800Y41300400D03*
%TO.N,Net-(U3-CHG)*%
X63254416Y42908366D03*
X33725971Y41046967D03*
%TO.N,Net-(U3-~{DISP})*%
X55829548Y34493504D03*
%TO.N,Net-(U3-TS1)*%
X69037200Y30124400D03*
%TO.N,Net-(U3-TS2)*%
X65070175Y32010575D03*
%TO.N,/Fuel Gauge/SCL*%
X32766000Y37592000D03*
X54813200Y39116000D03*
X68097400Y43459400D03*
%TO.N,/Fuel Gauge/SDA*%
X35941006Y33779000D03*
X70670760Y43889941D03*
X57258585Y35044366D03*
%TD*%
D25*
%TO.N,GND*%
X14478000Y32893000D02*
X14605000Y32766000D01*
D26*
%TO.N,/Fuel Gauge/BAT_MID*%
X14208000Y25910000D02*
X34785200Y46487200D01*
X34785200Y46487200D02*
X63462491Y46487200D01*
X65469091Y48493800D02*
X78686200Y48493800D01*
X78686200Y48493800D02*
X81970000Y45210000D01*
X9470000Y25910000D02*
X14208000Y25910000D01*
X63462491Y46487200D02*
X65469091Y48493800D01*
D27*
%TO.N,GND1*%
X66205104Y38860504D02*
X63538104Y36193504D01*
D28*
X81970000Y25910000D02*
X74448000Y25910000D01*
D27*
X72646000Y44840700D02*
X72646000Y41260800D01*
X59974496Y38041112D02*
X59974496Y38298711D01*
X59665000Y58710000D02*
X53365000Y58710000D01*
X63967104Y34093504D02*
X63922104Y34093504D01*
X61822104Y36193504D02*
X59974496Y38041112D01*
X63538104Y36193504D02*
X61822104Y36193504D01*
X63922104Y34093504D02*
X61822104Y36193504D01*
X70245704Y38860504D02*
X66205104Y38860504D01*
X63967104Y32119051D02*
X71832155Y24254000D01*
X72553600Y12381000D02*
X74445500Y14272900D01*
X72646000Y41260800D02*
X70245704Y38860504D01*
X62866000Y12381000D02*
X72553600Y12381000D01*
X71832155Y24254000D02*
X72792000Y24254000D01*
X52984000Y8799000D02*
X59284000Y8799000D01*
X74445500Y14272900D02*
X74445500Y25908000D01*
X59284000Y8799000D02*
X62866000Y12381000D01*
X63967104Y34093504D02*
X63967104Y32119051D01*
X72792000Y24254000D02*
X74446000Y25908000D01*
%TO.N,/Fuel Gauge/B+*%
X28522029Y49350029D02*
X49847400Y49350029D01*
X9470000Y45210000D02*
X24382000Y45210000D01*
X24382000Y45210000D02*
X28522029Y49350029D01*
%TO.N,VBUS*%
X27813000Y28573540D02*
X27808525Y28569065D01*
X28418000Y32354000D02*
X27813000Y31750000D01*
X24955500Y13276000D02*
X19956000Y13276000D01*
X27813000Y31750000D02*
X27813000Y28573540D01*
%TO.N,/Power Input/System_load*%
X37719000Y12903200D02*
X40259000Y12903200D01*
X37719000Y10363200D02*
X40259000Y10363200D01*
D28*
%TO.N,Net-(U1-SW1)*%
X26289000Y27498000D02*
X29108000Y27498000D01*
X30861000Y24257000D02*
X30861000Y28801000D01*
X29108000Y27498000D02*
X30636000Y29026000D01*
X30861000Y28801000D02*
X30636000Y29026000D01*
X30226000Y23622000D02*
X30861000Y24257000D01*
%TO.N,Net-(U1-SW2)*%
X35187000Y27633000D02*
X33643000Y27633000D01*
X33643000Y27633000D02*
X32196000Y29080000D01*
X31861000Y28745000D02*
X32196000Y29080000D01*
X32258000Y23622000D02*
X31861000Y24019000D01*
X31861000Y24019000D02*
X31861000Y28745000D01*
X35687000Y28133000D02*
X35187000Y27633000D01*
D27*
%TO.N,/Power Input/Power_load*%
X26690500Y57892200D02*
X31690500Y57892200D01*
%TO.N,Net-(U3-VC2)*%
X33874941Y40047141D02*
X37225200Y43397400D01*
X37225200Y43397400D02*
X52819300Y43397400D01*
X52819300Y43397400D02*
X54052700Y42164000D01*
X33707185Y40047141D02*
X33874941Y40047141D01*
X54052700Y42164000D02*
X66319400Y42164000D01*
X66319400Y42164000D02*
X66649600Y42494200D01*
%TO.N,Net-(U3-VC1)*%
X67918100Y36005504D02*
X67918100Y33653500D01*
X38811200Y18923000D02*
X46685200Y26797000D01*
X67918100Y33653500D02*
X66243200Y31978600D01*
X16128998Y18923000D02*
X38811200Y18923000D01*
X46685200Y26797000D02*
X46685200Y31216600D01*
%TO.N,/Power Input/REGN*%
X28889977Y36194994D02*
X26162000Y33467017D01*
X26162000Y33467017D02*
X26162000Y31369000D01*
X34012500Y36194994D02*
X28889977Y36194994D01*
%TO.N,Net-(D1-A)*%
X57938099Y36325950D02*
X57938099Y36231543D01*
X66344800Y15443200D02*
X68148200Y13639800D01*
X66344800Y27824842D02*
X66344800Y15443200D01*
X57938099Y36231543D02*
X66344800Y27824842D01*
%TO.N,Net-(D1-K)*%
X61137800Y30175201D02*
X56136150Y35176851D01*
X61137800Y13335000D02*
X61137800Y30175201D01*
X56136150Y35176851D02*
X56136150Y37552400D01*
%TO.N,Net-(D5-K)*%
X59836841Y36055802D02*
X59836841Y34898487D01*
X59836841Y34898487D02*
X69164200Y25571128D01*
X69164200Y25571128D02*
X69164200Y13589000D01*
X69164200Y13589000D02*
X69291200Y13462000D01*
X58166693Y37725950D02*
X59836841Y36055802D01*
%TO.N,/Fuel Gauge/BAT*%
X63958510Y38752280D02*
X60510877Y38752280D01*
X60172600Y39090557D02*
X59092882Y39090557D01*
X60510877Y38752280D02*
X60172600Y39090557D01*
X59092882Y39090557D02*
X58937231Y38934906D01*
%TO.N,/Power Input/D+*%
X14390000Y36266000D02*
X14862000Y36266000D01*
X17018000Y34110000D02*
X17018000Y33209000D01*
X14862000Y36266000D02*
X17018000Y34110000D01*
%TO.N,Net-(U1-INT)*%
X34353500Y29019500D02*
X41465500Y29019500D01*
X45085000Y34544000D02*
X45720000Y35179000D01*
X45720000Y37741225D02*
X46163000Y38184225D01*
X41465500Y29019500D02*
X45085000Y32639000D01*
X45085000Y32639000D02*
X45085000Y34544000D01*
X45720000Y35179000D02*
X45720000Y37741225D01*
X34344999Y29028001D02*
X34353500Y29019500D01*
%TO.N,Net-(U1-nQON)*%
X44964450Y40451200D02*
X39511400Y40451200D01*
X39511400Y40451200D02*
X39166800Y40106600D01*
X45264450Y40151200D02*
X44964450Y40451200D01*
%TO.N,Net-(U3-BTP_INT)*%
X48895000Y37642800D02*
X52476400Y34061400D01*
X52476400Y34061400D02*
X53187600Y34061400D01*
D29*
%TO.N,Net-(U3-~{PRES{slash}SHDWN})*%
X49587916Y38363822D02*
X52226349Y38363822D01*
X54152800Y36437371D02*
X54152800Y35128200D01*
X52226349Y38363822D02*
X54152800Y36437371D01*
%TO.N,+3.3V*%
X70358000Y56496000D02*
X70123000Y56261000D01*
X50419000Y33883600D02*
X50419000Y11607800D01*
X47269400Y37033200D02*
X50419000Y33883600D01*
X70123000Y56261000D02*
X47244000Y56261000D01*
X70358000Y57658000D02*
X70358000Y56496000D01*
X50419000Y11607800D02*
X49225200Y10414000D01*
X49225200Y10414000D02*
X46685200Y10414000D01*
D25*
%TO.N,Net-(Q1-G)*%
X43279032Y38878870D02*
X43751362Y39351200D01*
X43279032Y33006915D02*
X43279032Y38878870D01*
%TO.N,/Fuel Gauge/VCOM*%
X28982050Y50800000D02*
X49847400Y50800000D01*
X26785025Y48602975D02*
X28982050Y50800000D01*
D27*
%TO.N,Net-(Q3-G)*%
X15113000Y51816000D02*
X15113000Y54356000D01*
X18161000Y48768000D02*
X15113000Y51816000D01*
%TO.N,Net-(U1-TS)*%
X35172324Y33012020D02*
X35114000Y33070344D01*
X35114000Y37356009D02*
X36631991Y38874000D01*
X35114000Y33070344D02*
X35114000Y37356009D01*
%TO.N,Net-(U3-PCHG)*%
X61761600Y40552600D02*
X62382400Y41173400D01*
X39776400Y41656000D02*
X52909596Y41656000D01*
X52909596Y41656000D02*
X54012996Y40552600D01*
X54012996Y40552600D02*
X61761600Y40552600D01*
X38735000Y42697400D02*
X39776400Y41656000D01*
%TO.N,Net-(U3-DSG)*%
X53830882Y41300400D02*
X61264800Y41300400D01*
X52560882Y42570400D02*
X53830882Y41300400D01*
X40335200Y42697400D02*
X40462200Y42570400D01*
X40462200Y42570400D02*
X52560882Y42570400D01*
%TO.N,Net-(U3-CHG)*%
X33725971Y41046967D02*
X36476404Y43797400D01*
X36476404Y43797400D02*
X62365382Y43797400D01*
X62365382Y43797400D02*
X63254416Y42908366D01*
%TO.N,Net-(U3-~{DISP})*%
X55854600Y16169600D02*
X55854600Y34468452D01*
X52984000Y13299000D02*
X55854600Y16169600D01*
X55854600Y34468452D02*
X55829548Y34493504D01*
%TO.N,Net-(U3-TS1)*%
X69113400Y30124400D02*
X69037200Y30124400D01*
X72620500Y26617300D02*
X69113400Y30124400D01*
X72620500Y25908000D02*
X72620500Y26617300D01*
%TO.N,Net-(U3-TS2)*%
X74471000Y39216450D02*
X66533150Y31278600D01*
X65802150Y31278600D02*
X65070175Y32010575D01*
X66533150Y31278600D02*
X65802150Y31278600D01*
X74471000Y45161100D02*
X74471000Y39216450D01*
%TO.N,/Fuel Gauge/SCL*%
X68097400Y42698050D02*
X68097400Y43459400D01*
D25*
X52844000Y41085200D02*
X54813200Y39116000D01*
D27*
X55732106Y40034906D02*
X65434256Y40034906D01*
D25*
X32766000Y37592000D02*
X36259200Y41085200D01*
X36259200Y41085200D02*
X52844000Y41085200D01*
D27*
X54813200Y39116000D02*
X55732106Y40034906D01*
X65434256Y40034906D02*
X68097400Y42698050D01*
%TO.N,/Fuel Gauge/SDA*%
X35941006Y33779000D02*
X38425900Y33779000D01*
X41529000Y38137594D02*
X43442606Y40051200D01*
X70670760Y43889941D02*
X66415725Y39634906D01*
X43442606Y40051200D02*
X44098306Y40051200D01*
X53888250Y37806400D02*
X55280950Y37806400D01*
X58647281Y39634906D02*
X58502975Y39490600D01*
X52243450Y39451200D02*
X53888250Y37806400D01*
X57048400Y35254551D02*
X57258585Y35044366D01*
X58502975Y39490600D02*
X58328872Y39490600D01*
X44698306Y39451200D02*
X52243450Y39451200D01*
X38425900Y33779000D02*
X41529000Y36882100D01*
X44098306Y40051200D02*
X44698306Y39451200D01*
X58328872Y39490600D02*
X58010010Y39171738D01*
X57048400Y38210128D02*
X57048400Y35254551D01*
X66415725Y39634906D02*
X58647281Y39634906D01*
X41529000Y36882100D02*
X41529000Y38137594D01*
X58010010Y39171738D02*
X57048400Y38210128D01*
X55280950Y37806400D02*
X56646288Y39171738D01*
X56646288Y39171738D02*
X58010010Y39171738D01*
%TD*%
%TA.AperFunction,Conductor*%
%TO.N,GND*%
G36*
X42546564Y38201757D02*
G01*
X42603400Y38159210D01*
X42628211Y38092690D01*
X42628532Y38083701D01*
X42628532Y33678605D01*
X42608530Y33610484D01*
X42596168Y33594295D01*
X42546498Y33539132D01*
X42546497Y33539130D01*
X42451854Y33375202D01*
X42451850Y33375194D01*
X42393357Y33195172D01*
X42373572Y33006915D01*
X42393357Y32818659D01*
X42451850Y32638637D01*
X42451854Y32638629D01*
X42546497Y32474701D01*
X42546498Y32474699D01*
X42673158Y32334029D01*
X42826299Y32222766D01*
X42826299Y32222765D01*
X42848863Y32212719D01*
X42999229Y32145771D01*
X43184386Y32106415D01*
X43373677Y32106415D01*
X43373678Y32106415D01*
X43376039Y32106917D01*
X43377442Y32106810D01*
X43380251Y32107105D01*
X43380304Y32106592D01*
X43446829Y32101522D01*
X43503466Y32058711D01*
X43527966Y31992076D01*
X43512552Y31922773D01*
X43491342Y31894578D01*
X41253670Y29656905D01*
X41191358Y29622880D01*
X41164575Y29620000D01*
X34755444Y29620000D01*
X34696889Y29634433D01*
X34595228Y29687789D01*
X34595220Y29687793D01*
X34430058Y29728501D01*
X34430055Y29728501D01*
X34259943Y29728501D01*
X34259939Y29728501D01*
X34094777Y29687793D01*
X34094773Y29687791D01*
X33944147Y29608736D01*
X33944141Y29608731D01*
X33816817Y29495932D01*
X33816815Y29495930D01*
X33720180Y29355931D01*
X33720178Y29355927D01*
X33659858Y29196873D01*
X33657785Y29179798D01*
X33629718Y29114585D01*
X33570849Y29074899D01*
X33499870Y29073339D01*
X33443609Y29105891D01*
X32851760Y29697740D01*
X32847219Y29702525D01*
X32801873Y29752887D01*
X32801869Y29752890D01*
X32790659Y29761035D01*
X32775625Y29773876D01*
X32770043Y29779458D01*
X32770034Y29779466D01*
X32768493Y29780495D01*
X32713040Y29817548D01*
X32708982Y29820376D01*
X32664342Y29852808D01*
X32648730Y29864151D01*
X32648729Y29864152D01*
X32648727Y29864153D01*
X32642251Y29867036D01*
X32623507Y29877372D01*
X32622550Y29878012D01*
X32589038Y29891893D01*
X32552976Y29906831D01*
X32549998Y29908111D01*
X32475805Y29941144D01*
X32475615Y29941184D01*
X32475473Y29941214D01*
X32464721Y29944553D01*
X32464584Y29944100D01*
X32458666Y29945895D01*
X32378245Y29961892D01*
X32376631Y29962224D01*
X32290647Y29980500D01*
X32290646Y29980500D01*
X32101354Y29980500D01*
X32101353Y29980500D01*
X32015381Y29962227D01*
X32013769Y29961896D01*
X31981764Y29955529D01*
X31981762Y29955528D01*
X31933327Y29945894D01*
X31927414Y29944100D01*
X31927280Y29944542D01*
X31916546Y29941219D01*
X31916200Y29941146D01*
X31916192Y29941143D01*
X31841990Y29908107D01*
X31838963Y29906806D01*
X31769451Y29878012D01*
X31768500Y29877376D01*
X31749771Y29867047D01*
X31743277Y29864155D01*
X31743268Y29864150D01*
X31729455Y29854114D01*
X31683017Y29820376D01*
X31678977Y29817560D01*
X31646584Y29795916D01*
X31623515Y29780500D01*
X31621963Y29779463D01*
X31621958Y29779459D01*
X31616367Y29773868D01*
X31601342Y29761036D01*
X31590129Y29752889D01*
X31544789Y29702534D01*
X31540250Y29697752D01*
X31496538Y29654038D01*
X31478095Y29635595D01*
X31415783Y29601569D01*
X31344968Y29606634D01*
X31299905Y29635595D01*
X31291760Y29643740D01*
X31287219Y29648525D01*
X31241873Y29698887D01*
X31241867Y29698892D01*
X31230659Y29707035D01*
X31215623Y29719877D01*
X31210038Y29725462D01*
X31210031Y29725468D01*
X31153046Y29763544D01*
X31148989Y29766372D01*
X31088733Y29810149D01*
X31088725Y29810154D01*
X31082235Y29813044D01*
X31063505Y29823373D01*
X31062552Y29824010D01*
X31062550Y29824011D01*
X30993031Y29852808D01*
X30990005Y29854109D01*
X30915807Y29887143D01*
X30915803Y29887144D01*
X30915473Y29887214D01*
X30904721Y29890553D01*
X30904584Y29890100D01*
X30898666Y29891895D01*
X30818245Y29907892D01*
X30816631Y29908224D01*
X30730647Y29926500D01*
X30730646Y29926500D01*
X30541354Y29926500D01*
X30541352Y29926500D01*
X30455365Y29908224D01*
X30453753Y29907892D01*
X30418345Y29900849D01*
X30373334Y29891895D01*
X30373332Y29891895D01*
X30373326Y29891893D01*
X30367414Y29890100D01*
X30367280Y29890542D01*
X30356546Y29887219D01*
X30356200Y29887146D01*
X30356196Y29887145D01*
X30282008Y29854114D01*
X30278981Y29852813D01*
X30209451Y29824011D01*
X30209447Y29824009D01*
X30208493Y29823371D01*
X30189769Y29813046D01*
X30183278Y29810156D01*
X30183268Y29810150D01*
X30183267Y29810149D01*
X30123013Y29766374D01*
X30118977Y29763560D01*
X30086584Y29741916D01*
X30066510Y29728501D01*
X30061963Y29725463D01*
X30061958Y29725459D01*
X30056367Y29719868D01*
X30041342Y29707036D01*
X30030129Y29698889D01*
X29984789Y29648534D01*
X29980250Y29643752D01*
X29936538Y29600038D01*
X29936534Y29600034D01*
X28918998Y28582499D01*
X28856686Y28548473D01*
X28785870Y28553538D01*
X28729035Y28596085D01*
X28704593Y28658424D01*
X28704306Y28661151D01*
X28694199Y28757321D01*
X28694199Y28757322D01*
X28635706Y28937344D01*
X28635702Y28937352D01*
X28541059Y29101280D01*
X28541057Y29101282D01*
X28445864Y29207006D01*
X28415146Y29271013D01*
X28413500Y29291316D01*
X28413500Y31330393D01*
X28433502Y31398514D01*
X28487158Y31445007D01*
X28513300Y31453640D01*
X28697803Y31492856D01*
X28870730Y31569849D01*
X28870730Y31569850D01*
X28870732Y31569850D01*
X28870732Y31569851D01*
X29023871Y31681112D01*
X29150533Y31821784D01*
X29245179Y31985716D01*
X29258951Y32028100D01*
X29303674Y32165744D01*
X29323460Y32354000D01*
X29303674Y32542256D01*
X29276134Y32627016D01*
X29245181Y32722279D01*
X29245177Y32722287D01*
X29243153Y32725792D01*
X29198186Y32803679D01*
X29150534Y32886215D01*
X29150533Y32886217D01*
X29023873Y33026887D01*
X28870732Y33138150D01*
X28870732Y33138151D01*
X28742660Y33195172D01*
X28697803Y33215144D01*
X28697801Y33215145D01*
X28697800Y33215145D01*
X28512646Y33254500D01*
X28323354Y33254500D01*
X28138199Y33215145D01*
X27965267Y33138151D01*
X27965267Y33138150D01*
X27812126Y33026887D01*
X27685466Y32886217D01*
X27685465Y32886215D01*
X27590822Y32722287D01*
X27590818Y32722279D01*
X27532325Y32542257D01*
X27512540Y32354000D01*
X27512540Y32350823D01*
X27512020Y32349053D01*
X27511850Y32347434D01*
X27511554Y32347466D01*
X27492538Y32282702D01*
X27475559Y32261651D01*
X27450460Y32236595D01*
X27449626Y32235863D01*
X27387885Y32174122D01*
X27332769Y32119096D01*
X27332500Y32118744D01*
X27332484Y32118725D01*
X27292866Y32050103D01*
X27292814Y32050013D01*
X27253608Y31982236D01*
X27253494Y31981959D01*
X27253425Y31981795D01*
X27233150Y31906128D01*
X27233124Y31906030D01*
X27212563Y31829547D01*
X27212520Y31829219D01*
X27212500Y31829070D01*
X27212500Y31820720D01*
X27192498Y31752599D01*
X27138842Y31706106D01*
X27068568Y31696002D01*
X27003988Y31725496D01*
X26977381Y31757720D01*
X26894534Y31901215D01*
X26894532Y31901217D01*
X26794864Y32011911D01*
X26764146Y32075918D01*
X26762500Y32096221D01*
X26762500Y33166092D01*
X26782502Y33234213D01*
X26799405Y33255187D01*
X29101807Y35557589D01*
X29164119Y35591615D01*
X29190902Y35594494D01*
X33285352Y35594494D01*
X33353473Y35574492D01*
X33378984Y35552808D01*
X33406629Y35522106D01*
X33406631Y35522104D01*
X33559767Y35410845D01*
X33559767Y35410844D01*
X33604717Y35390831D01*
X33732697Y35333850D01*
X33917854Y35294494D01*
X34107146Y35294494D01*
X34292303Y35333850D01*
X34336250Y35353418D01*
X34406617Y35362852D01*
X34470914Y35332746D01*
X34508728Y35272658D01*
X34513500Y35238311D01*
X34513500Y33674466D01*
X34493498Y33606345D01*
X34481137Y33590156D01*
X34439788Y33544233D01*
X34345146Y33380307D01*
X34345142Y33380299D01*
X34286649Y33200277D01*
X34266864Y33012020D01*
X34286649Y32823764D01*
X34345142Y32643742D01*
X34345146Y32643734D01*
X34439789Y32479806D01*
X34439790Y32479804D01*
X34566450Y32339134D01*
X34719591Y32227871D01*
X34719591Y32227870D01*
X34753621Y32212719D01*
X34892521Y32150876D01*
X35077678Y32111520D01*
X35266970Y32111520D01*
X35452127Y32150876D01*
X35625054Y32227869D01*
X35625054Y32227870D01*
X35625056Y32227870D01*
X35625056Y32227871D01*
X35778195Y32339132D01*
X35814355Y32379291D01*
X35904857Y32479804D01*
X35904858Y32479806D01*
X35937366Y32536112D01*
X35999503Y32643736D01*
X36022005Y32712988D01*
X36036797Y32758515D01*
X36056280Y32818480D01*
X36096353Y32877084D01*
X36149915Y32902788D01*
X36220809Y32917856D01*
X36393736Y32994849D01*
X36393736Y32994850D01*
X36393738Y32994850D01*
X36393738Y32994851D01*
X36546877Y33106112D01*
X36574519Y33136813D01*
X36634964Y33174050D01*
X36668154Y33178500D01*
X38339109Y33178500D01*
X38339125Y33178499D01*
X38346843Y33178499D01*
X38504954Y33178499D01*
X38504957Y33178499D01*
X38657685Y33219423D01*
X38682208Y33233583D01*
X38707781Y33248347D01*
X38707791Y33248355D01*
X38707804Y33248361D01*
X38794616Y33298480D01*
X38906420Y33410284D01*
X38906420Y33410286D01*
X38916790Y33420655D01*
X38916794Y33420660D01*
X41887339Y36391206D01*
X41887349Y36391213D01*
X42009514Y36513378D01*
X42009520Y36513384D01*
X42079321Y36634284D01*
X42088577Y36650315D01*
X42129500Y36803043D01*
X42129500Y36961157D01*
X42129500Y37836669D01*
X42149502Y37904790D01*
X42166405Y37925764D01*
X42413437Y38172796D01*
X42475749Y38206822D01*
X42546564Y38201757D01*
G37*
%TD.AperFunction*%
%TA.AperFunction,Conductor*%
G36*
X38224008Y40414698D02*
G01*
X38270501Y40361042D01*
X38281197Y40295530D01*
X38281126Y40294857D01*
X38281126Y40294856D01*
X38262755Y40120060D01*
X38261340Y40106600D01*
X38281125Y39918344D01*
X38339618Y39738322D01*
X38339622Y39738314D01*
X38434265Y39574386D01*
X38434266Y39574384D01*
X38560926Y39433714D01*
X38714067Y39322451D01*
X38714067Y39322450D01*
X38726634Y39316855D01*
X38886997Y39245456D01*
X39072154Y39206100D01*
X39261446Y39206100D01*
X39446603Y39245456D01*
X39619530Y39322449D01*
X39619530Y39322450D01*
X39619532Y39322450D01*
X39619532Y39322451D01*
X39772671Y39433712D01*
X39801010Y39465185D01*
X39899333Y39574384D01*
X39899334Y39574386D01*
X39902575Y39580000D01*
X39993979Y39738316D01*
X40002206Y39763637D01*
X40042278Y39822241D01*
X40107674Y39849879D01*
X40122039Y39850700D01*
X42088680Y39850700D01*
X42156801Y39830698D01*
X42203294Y39777042D01*
X42213398Y39706768D01*
X42183904Y39642188D01*
X42177775Y39635605D01*
X41160286Y38618116D01*
X41160284Y38618114D01*
X41131602Y38589432D01*
X41048481Y38506312D01*
X41048477Y38506307D01*
X41002373Y38426450D01*
X40969423Y38369381D01*
X40960626Y38336550D01*
X40928499Y38216651D01*
X40928499Y38216649D01*
X40928499Y38048387D01*
X40928500Y38048374D01*
X40928500Y37183025D01*
X40908498Y37114904D01*
X40891595Y37093930D01*
X38214070Y34416405D01*
X38151758Y34382379D01*
X38124975Y34379500D01*
X36668154Y34379500D01*
X36600033Y34399502D01*
X36574521Y34421187D01*
X36546877Y34451888D01*
X36546876Y34451889D01*
X36546874Y34451891D01*
X36393738Y34563150D01*
X36393738Y34563151D01*
X36259191Y34623055D01*
X36220809Y34640144D01*
X36220807Y34640145D01*
X36220806Y34640145D01*
X36035652Y34679500D01*
X35846360Y34679500D01*
X35840500Y34679500D01*
X35772379Y34699502D01*
X35725886Y34753158D01*
X35714500Y34805500D01*
X35714500Y37055084D01*
X35734502Y37123205D01*
X35751405Y37144179D01*
X36543821Y37936595D01*
X36606133Y37970621D01*
X36632916Y37973500D01*
X36726637Y37973500D01*
X36911794Y38012856D01*
X37084721Y38089849D01*
X37084721Y38089850D01*
X37084723Y38089850D01*
X37084723Y38089851D01*
X37237862Y38201112D01*
X37243004Y38206822D01*
X37364524Y38341784D01*
X37364525Y38341786D01*
X37384365Y38376150D01*
X37459170Y38505716D01*
X37517665Y38685744D01*
X37537451Y38874000D01*
X37519546Y39044353D01*
X37517665Y39062257D01*
X37459172Y39242279D01*
X37459168Y39242287D01*
X37457338Y39245456D01*
X37416117Y39316854D01*
X37364525Y39406215D01*
X37364524Y39406217D01*
X37237864Y39546887D01*
X37084723Y39658150D01*
X37084723Y39658151D01*
X36959136Y39714066D01*
X36911794Y39735144D01*
X36911792Y39735145D01*
X36911791Y39735145D01*
X36726637Y39774500D01*
X36537345Y39774500D01*
X36352190Y39735145D01*
X36179258Y39658151D01*
X36179258Y39658150D01*
X36026117Y39546887D01*
X35899457Y39406217D01*
X35899456Y39406215D01*
X35804813Y39242287D01*
X35804809Y39242279D01*
X35746316Y39062257D01*
X35726531Y38873999D01*
X35726531Y38869966D01*
X35725870Y38867719D01*
X35725841Y38867433D01*
X35725788Y38867439D01*
X35706529Y38801845D01*
X35689626Y38780871D01*
X34745286Y37836531D01*
X34745284Y37836529D01*
X34689382Y37780628D01*
X34633481Y37724727D01*
X34633477Y37724722D01*
X34583360Y37637914D01*
X34554423Y37587796D01*
X34539322Y37531439D01*
X34513499Y37435066D01*
X34513499Y37435064D01*
X34513499Y37266802D01*
X34513500Y37266789D01*
X34513500Y37151678D01*
X34493498Y37083557D01*
X34439842Y37037064D01*
X34369568Y37026960D01*
X34336252Y37036571D01*
X34299088Y37053117D01*
X34292303Y37056138D01*
X34107146Y37095494D01*
X33917854Y37095494D01*
X33917852Y37095494D01*
X33737808Y37057225D01*
X33667018Y37062627D01*
X33610385Y37105444D01*
X33585892Y37172082D01*
X33591779Y37219409D01*
X33593177Y37223714D01*
X33593179Y37223716D01*
X33651674Y37403744D01*
X33665094Y37531441D01*
X33692106Y37597096D01*
X33701300Y37607356D01*
X36491741Y40397795D01*
X36554053Y40431821D01*
X36580836Y40434700D01*
X38155887Y40434700D01*
X38224008Y40414698D01*
G37*
%TD.AperFunction*%
%TA.AperFunction,Conductor*%
G36*
X86037621Y65755498D02*
G01*
X86084114Y65701842D01*
X86095500Y65649500D01*
X86095500Y5470500D01*
X86075498Y5402379D01*
X86021842Y5355886D01*
X85969500Y5344500D01*
X5470500Y5344500D01*
X5402379Y5364502D01*
X5355886Y5418158D01*
X5344500Y5470500D01*
X5344500Y10160004D01*
X6154675Y10160004D01*
X6154675Y10159997D01*
X6173962Y9767413D01*
X6173963Y9767399D01*
X6214560Y9493720D01*
X6231636Y9378600D01*
X6288521Y9151503D01*
X6327144Y8997311D01*
X6448289Y8658734D01*
X6459562Y8627228D01*
X6627619Y8271903D01*
X6627621Y8271900D01*
X6829696Y7934757D01*
X7063834Y7619058D01*
X7063841Y7619050D01*
X7063842Y7619049D01*
X7327808Y7327808D01*
X7619049Y7063842D01*
X7619057Y7063835D01*
X7934756Y6829697D01*
X7934760Y6829695D01*
X7934761Y6829694D01*
X8271903Y6627619D01*
X8627228Y6459562D01*
X8997316Y6327143D01*
X9378600Y6231636D01*
X9767409Y6173962D01*
X10102590Y6157496D01*
X10159996Y6154675D01*
X10160000Y6154675D01*
X10160004Y6154675D01*
X10215384Y6157396D01*
X10552591Y6173962D01*
X10941400Y6231636D01*
X11322684Y6327143D01*
X11692772Y6459562D01*
X12048097Y6627619D01*
X12385239Y6829694D01*
X12700951Y7063842D01*
X12992192Y7327808D01*
X13256158Y7619049D01*
X13329895Y7718471D01*
X13490303Y7934757D01*
X13490302Y7934757D01*
X13490306Y7934761D01*
X13692381Y8271903D01*
X13860438Y8627228D01*
X13992857Y8997316D01*
X14088364Y9378600D01*
X14146038Y9767409D01*
X14164229Y10137699D01*
X14165325Y10159997D01*
X14165325Y10160004D01*
X14162504Y10217410D01*
X14146038Y10552591D01*
X14088364Y10941400D01*
X13992857Y11322684D01*
X13992698Y11323127D01*
X13970311Y11385695D01*
X13860438Y11692772D01*
X13692381Y12048097D01*
X13490306Y12385239D01*
X13490305Y12385240D01*
X13490303Y12385244D01*
X13256165Y12700943D01*
X13256158Y12700951D01*
X12992192Y12992192D01*
X12700951Y13256158D01*
X12700950Y13256159D01*
X12700942Y13256166D01*
X12385243Y13490304D01*
X12048100Y13692379D01*
X12048101Y13692379D01*
X12048097Y13692381D01*
X11692772Y13860438D01*
X11647882Y13876500D01*
X11322689Y13992856D01*
X11203353Y14022748D01*
X10941400Y14088364D01*
X10912816Y14092604D01*
X10552601Y14146037D01*
X10552594Y14146038D01*
X10552591Y14146038D01*
X10356295Y14155682D01*
X10160004Y14165325D01*
X10159996Y14165325D01*
X9935662Y14154304D01*
X9767409Y14146038D01*
X9767406Y14146038D01*
X9767398Y14146037D01*
X9378606Y14088365D01*
X9378604Y14088365D01*
X9378600Y14088364D01*
X9193178Y14041918D01*
X8997310Y13992856D01*
X8627230Y13860439D01*
X8627228Y13860438D01*
X8294956Y13703284D01*
X8271899Y13692379D01*
X7934756Y13490304D01*
X7619057Y13256166D01*
X7327808Y12992192D01*
X7063834Y12700943D01*
X6829696Y12385244D01*
X6627621Y12048101D01*
X6627619Y12048097D01*
X6553998Y11892440D01*
X6459561Y11692770D01*
X6327144Y11322690D01*
X6279389Y11132042D01*
X6231636Y10941400D01*
X6231635Y10941396D01*
X6231635Y10941394D01*
X6173963Y10552602D01*
X6173962Y10552588D01*
X6154675Y10160004D01*
X5344500Y10160004D01*
X5344500Y15228879D01*
X17550000Y15228879D01*
X17550000Y11323136D01*
X17550002Y11323115D01*
X17556408Y11263520D01*
X17556408Y11263519D01*
X17606701Y11128674D01*
X17606703Y11128671D01*
X17692953Y11013454D01*
X17750561Y10970329D01*
X17808169Y10927204D01*
X17808171Y10927204D01*
X17808173Y10927202D01*
X17868530Y10904691D01*
X17943014Y10876910D01*
X17943017Y10876909D01*
X18002627Y10870500D01*
X21908372Y10870501D01*
X21967983Y10876909D01*
X22102831Y10927204D01*
X22218046Y11013454D01*
X22304296Y11128669D01*
X22320860Y11173079D01*
X22337444Y11217543D01*
X22379990Y11274379D01*
X22446510Y11299191D01*
X22515884Y11284100D01*
X22566087Y11233898D01*
X22573556Y11217543D01*
X22606701Y11128674D01*
X22606703Y11128671D01*
X22692953Y11013454D01*
X22750561Y10970329D01*
X22808169Y10927204D01*
X22808171Y10927204D01*
X22808173Y10927202D01*
X22868530Y10904691D01*
X22943014Y10876910D01*
X22943017Y10876909D01*
X23002627Y10870500D01*
X26908372Y10870501D01*
X26967983Y10876909D01*
X27102831Y10927204D01*
X27218046Y11013454D01*
X27304296Y11128669D01*
X27354591Y11263517D01*
X27361000Y11323127D01*
X27360999Y13713079D01*
X36456500Y13713079D01*
X36456500Y12093336D01*
X36456502Y12093315D01*
X36462908Y12033720D01*
X36462908Y12033719D01*
X36513201Y11898874D01*
X36513203Y11898871D01*
X36513204Y11898869D01*
X36556086Y11841586D01*
X36599452Y11783656D01*
X36599453Y11783656D01*
X36599454Y11783654D01*
X36665693Y11734067D01*
X36708239Y11677232D01*
X36713303Y11606416D01*
X36679278Y11544104D01*
X36665697Y11532337D01*
X36631061Y11506408D01*
X36599452Y11482745D01*
X36513203Y11367530D01*
X36513201Y11367527D01*
X36462909Y11232685D01*
X36456500Y11173079D01*
X36456500Y9553336D01*
X36456502Y9553315D01*
X36462908Y9493720D01*
X36462908Y9493719D01*
X36513201Y9358874D01*
X36513203Y9358871D01*
X36599453Y9243654D01*
X36646809Y9208204D01*
X36714669Y9157404D01*
X36714671Y9157404D01*
X36714673Y9157402D01*
X36775030Y9134891D01*
X36849514Y9107110D01*
X36849517Y9107109D01*
X36909127Y9100700D01*
X38528872Y9100701D01*
X38588483Y9107109D01*
X38723331Y9157404D01*
X38838546Y9243654D01*
X38888133Y9309894D01*
X38944968Y9352440D01*
X39015783Y9357504D01*
X39078095Y9323479D01*
X39089863Y9309898D01*
X39139454Y9243654D01*
X39254669Y9157404D01*
X39254671Y9157404D01*
X39254673Y9157402D01*
X39315030Y9134891D01*
X39389514Y9107110D01*
X39389517Y9107109D01*
X39449127Y9100700D01*
X41068872Y9100701D01*
X41128483Y9107109D01*
X41263331Y9157404D01*
X41378546Y9243654D01*
X41464796Y9358869D01*
X41515091Y9493717D01*
X41521500Y9553327D01*
X41521499Y11173072D01*
X41515091Y11232683D01*
X41481362Y11323115D01*
X41464798Y11367527D01*
X41464796Y11367530D01*
X41464796Y11367531D01*
X41378546Y11482746D01*
X41312306Y11532334D01*
X41269760Y11589168D01*
X41264696Y11659983D01*
X41298721Y11722295D01*
X41312302Y11734064D01*
X41378546Y11783654D01*
X41464796Y11898869D01*
X41465397Y11900479D01*
X41487708Y11960300D01*
X41515091Y12033717D01*
X41521500Y12093327D01*
X41521499Y13713072D01*
X41515091Y13772683D01*
X41476370Y13876500D01*
X41464798Y13907527D01*
X41464796Y13907530D01*
X41464796Y13907531D01*
X41400921Y13992857D01*
X41378546Y14022747D01*
X41290890Y14088365D01*
X41263331Y14108996D01*
X41263329Y14108997D01*
X41263326Y14108999D01*
X41128483Y14159291D01*
X41128486Y14159291D01*
X41068873Y14165700D01*
X39449135Y14165700D01*
X39449114Y14165698D01*
X39389519Y14159292D01*
X39389518Y14159292D01*
X39254673Y14108999D01*
X39254670Y14108997D01*
X39139455Y14022748D01*
X39139454Y14022746D01*
X39089866Y13956507D01*
X39033032Y13913961D01*
X38962216Y13908897D01*
X38899904Y13942922D01*
X38888136Y13956503D01*
X38838546Y14022746D01*
X38838544Y14022747D01*
X38838544Y14022748D01*
X38780614Y14066114D01*
X38723331Y14108996D01*
X38723329Y14108997D01*
X38723326Y14108999D01*
X38588483Y14159291D01*
X38588486Y14159291D01*
X38528873Y14165700D01*
X36909135Y14165700D01*
X36909114Y14165698D01*
X36849519Y14159292D01*
X36849518Y14159292D01*
X36714673Y14108999D01*
X36714670Y14108997D01*
X36599453Y14022747D01*
X36513203Y13907530D01*
X36513201Y13907527D01*
X36462909Y13772685D01*
X36456500Y13713079D01*
X27360999Y13713079D01*
X27360999Y15228872D01*
X27354591Y15288483D01*
X27326371Y15364146D01*
X27304298Y15423327D01*
X27304296Y15423330D01*
X27304296Y15423331D01*
X27230237Y15522261D01*
X27218046Y15538547D01*
X27141091Y15596155D01*
X27102831Y15624796D01*
X27102829Y15624797D01*
X27102826Y15624799D01*
X26967983Y15675091D01*
X26967986Y15675091D01*
X26908373Y15681500D01*
X23002635Y15681500D01*
X23002614Y15681498D01*
X22943019Y15675092D01*
X22943018Y15675092D01*
X22808173Y15624799D01*
X22808170Y15624797D01*
X22692953Y15538547D01*
X22606703Y15423330D01*
X22606702Y15423329D01*
X22573556Y15334457D01*
X22531010Y15277621D01*
X22464490Y15252810D01*
X22395115Y15267901D01*
X22344913Y15318103D01*
X22337444Y15334457D01*
X22304297Y15423329D01*
X22304296Y15423330D01*
X22304296Y15423331D01*
X22230237Y15522261D01*
X22218046Y15538547D01*
X22141091Y15596155D01*
X22102831Y15624796D01*
X22102829Y15624797D01*
X22102826Y15624799D01*
X21967983Y15675091D01*
X21967986Y15675091D01*
X21908373Y15681500D01*
X18002635Y15681500D01*
X18002614Y15681498D01*
X17943019Y15675092D01*
X17943018Y15675092D01*
X17808173Y15624799D01*
X17808170Y15624797D01*
X17692953Y15538547D01*
X17606703Y15423330D01*
X17606701Y15423327D01*
X17556409Y15288485D01*
X17550000Y15228879D01*
X5344500Y15228879D01*
X5344500Y18923000D01*
X15223538Y18923000D01*
X15243323Y18734744D01*
X15301816Y18554722D01*
X15301820Y18554714D01*
X15396463Y18390786D01*
X15396464Y18390784D01*
X15523124Y18250114D01*
X15676265Y18138851D01*
X15676265Y18138850D01*
X15723610Y18117771D01*
X15849195Y18061856D01*
X16034352Y18022500D01*
X16223644Y18022500D01*
X16408801Y18061856D01*
X16581728Y18138849D01*
X16581728Y18138850D01*
X16581730Y18138850D01*
X16581730Y18138851D01*
X16734869Y18250112D01*
X16762511Y18280813D01*
X16822956Y18318050D01*
X16856146Y18322500D01*
X38724409Y18322500D01*
X38724425Y18322499D01*
X38732143Y18322499D01*
X38890254Y18322499D01*
X38890257Y18322499D01*
X39042985Y18363423D01*
X39067508Y18377583D01*
X39093081Y18392347D01*
X39093091Y18392355D01*
X39093104Y18392361D01*
X39179916Y18442480D01*
X39291720Y18554284D01*
X39291720Y18554286D01*
X39302090Y18564655D01*
X39302093Y18564660D01*
X47165720Y26428284D01*
X47244777Y26565216D01*
X47285701Y26717943D01*
X47285701Y26876058D01*
X47285701Y26883775D01*
X47285700Y26883793D01*
X47285700Y30489380D01*
X47305702Y30557501D01*
X47318064Y30573691D01*
X47328112Y30584850D01*
X47417733Y30684384D01*
X47512379Y30848316D01*
X47570874Y31028344D01*
X47590660Y31216600D01*
X47570874Y31404856D01*
X47542281Y31492856D01*
X47512381Y31584879D01*
X47512377Y31584887D01*
X47417734Y31748815D01*
X47417733Y31748817D01*
X47291073Y31889487D01*
X47137932Y32000750D01*
X47137932Y32000751D01*
X46969104Y32075918D01*
X46965003Y32077744D01*
X46965001Y32077745D01*
X46965000Y32077745D01*
X46779846Y32117100D01*
X46590554Y32117100D01*
X46405399Y32077745D01*
X46232467Y32000751D01*
X46232467Y32000750D01*
X46079326Y31889487D01*
X45952666Y31748817D01*
X45952665Y31748815D01*
X45858022Y31584887D01*
X45858018Y31584879D01*
X45799525Y31404857D01*
X45779740Y31216600D01*
X45799525Y31028344D01*
X45858018Y30848322D01*
X45858022Y30848314D01*
X45952664Y30684388D01*
X45952665Y30684386D01*
X45952667Y30684384D01*
X46032131Y30596131D01*
X46052336Y30573691D01*
X46083053Y30509683D01*
X46084700Y30489380D01*
X46084700Y27097926D01*
X46064698Y27029805D01*
X46047795Y27008831D01*
X38599370Y19560405D01*
X38537058Y19526379D01*
X38510275Y19523500D01*
X16856146Y19523500D01*
X16788025Y19543502D01*
X16762513Y19565187D01*
X16734869Y19595888D01*
X16734868Y19595889D01*
X16734866Y19595891D01*
X16581730Y19707150D01*
X16581730Y19707151D01*
X16456143Y19763066D01*
X16408801Y19784144D01*
X16408799Y19784145D01*
X16408798Y19784145D01*
X16223644Y19823500D01*
X16034352Y19823500D01*
X15849197Y19784145D01*
X15676265Y19707151D01*
X15676265Y19707150D01*
X15523124Y19595887D01*
X15396464Y19455217D01*
X15396463Y19455215D01*
X15301820Y19291287D01*
X15301816Y19291279D01*
X15243323Y19111257D01*
X15223538Y18923000D01*
X5344500Y18923000D01*
X5344500Y26064466D01*
X6719500Y26064466D01*
X6719500Y25755535D01*
X6754089Y25448544D01*
X6782883Y25322393D01*
X6822832Y25147364D01*
X6822834Y25147358D01*
X6822833Y25147358D01*
X6924858Y24855789D01*
X6924869Y24855762D01*
X6957022Y24788996D01*
X6969500Y24734327D01*
X6969500Y23862136D01*
X6969502Y23862115D01*
X6975908Y23802520D01*
X6975908Y23802519D01*
X7026201Y23667674D01*
X7026203Y23667671D01*
X7026204Y23667669D01*
X7029978Y23662628D01*
X7112453Y23552454D01*
X7138036Y23533303D01*
X7227669Y23466204D01*
X7227671Y23466204D01*
X7227673Y23466202D01*
X7288030Y23443691D01*
X7362514Y23415910D01*
X7362517Y23415909D01*
X7422127Y23409500D01*
X8294325Y23409501D01*
X8348995Y23397023D01*
X8415774Y23364863D01*
X8707357Y23262834D01*
X8707360Y23262834D01*
X8707364Y23262832D01*
X8930290Y23211951D01*
X9008543Y23194090D01*
X9008544Y23194090D01*
X9008548Y23194089D01*
X9252565Y23166595D01*
X9315534Y23159500D01*
X9315535Y23159500D01*
X14362466Y23159500D01*
X14425434Y23166595D01*
X14669452Y23194089D01*
X14669455Y23194090D01*
X14669457Y23194090D01*
X14675425Y23195452D01*
X14675428Y23195453D01*
X14762081Y23215231D01*
X14970636Y23262832D01*
X15006571Y23275406D01*
X15186645Y23338417D01*
X15262230Y23364865D01*
X15540565Y23498904D01*
X15802143Y23663265D01*
X16043674Y23855880D01*
X25346405Y33158611D01*
X25408717Y33192637D01*
X25479532Y33187572D01*
X25536368Y33145025D01*
X25561179Y33078505D01*
X25561500Y33069516D01*
X25561500Y32096221D01*
X25541498Y32028100D01*
X25529136Y32011911D01*
X25429467Y31901217D01*
X25429465Y31901215D01*
X25334822Y31737287D01*
X25334818Y31737279D01*
X25276325Y31557257D01*
X25256540Y31369000D01*
X25276325Y31180744D01*
X25334818Y31000722D01*
X25334822Y31000714D01*
X25429465Y30836786D01*
X25429466Y30836784D01*
X25556126Y30696114D01*
X25709267Y30584851D01*
X25709267Y30584850D01*
X25734331Y30573691D01*
X25882197Y30507856D01*
X26067354Y30468500D01*
X26256646Y30468500D01*
X26441803Y30507856D01*
X26614730Y30584849D01*
X26614730Y30584850D01*
X26614732Y30584850D01*
X26614732Y30584851D01*
X26767871Y30696112D01*
X26833052Y30768502D01*
X26894533Y30836784D01*
X26894534Y30836786D01*
X26977381Y30980281D01*
X27028763Y31029274D01*
X27098476Y31042711D01*
X27164388Y31016324D01*
X27205570Y30958492D01*
X27212500Y30917281D01*
X27212500Y29301255D01*
X27192498Y29233134D01*
X27180137Y29216946D01*
X27146689Y29179798D01*
X27075989Y29101278D01*
X26981347Y28937352D01*
X26981343Y28937344D01*
X26922850Y28757322D01*
X26905905Y28596085D01*
X26903065Y28569065D01*
X26906227Y28538978D01*
X26906365Y28537671D01*
X26893593Y28467832D01*
X26845091Y28415986D01*
X26781055Y28398500D01*
X26194353Y28398500D01*
X26108320Y28380214D01*
X26106707Y28379882D01*
X26057976Y28370189D01*
X26026334Y28363894D01*
X26026333Y28363894D01*
X26026325Y28363892D01*
X26020413Y28362099D01*
X26020277Y28362547D01*
X26009537Y28359217D01*
X26009200Y28359146D01*
X26009197Y28359145D01*
X25935004Y28326112D01*
X25931975Y28324810D01*
X25862449Y28296012D01*
X25861482Y28295365D01*
X25842759Y28285041D01*
X25836272Y28282153D01*
X25836266Y28282149D01*
X25776026Y28238383D01*
X25771971Y28235556D01*
X25714962Y28197463D01*
X25709365Y28191866D01*
X25694342Y28179036D01*
X25683132Y28170892D01*
X25637780Y28120524D01*
X25633241Y28115741D01*
X25589538Y28072038D01*
X25589533Y28072032D01*
X25581385Y28059838D01*
X25570263Y28045539D01*
X25556465Y28030215D01*
X25525946Y27977354D01*
X25521594Y27970356D01*
X25490988Y27924550D01*
X25482790Y27904759D01*
X25475505Y27889986D01*
X25461820Y27866282D01*
X25445034Y27814623D01*
X25441612Y27805349D01*
X25423108Y27760675D01*
X25423106Y27760666D01*
X25417612Y27733052D01*
X25413869Y27718709D01*
X25403325Y27686257D01*
X25398351Y27638926D01*
X25396620Y27627518D01*
X25388500Y27586699D01*
X25388500Y27551798D01*
X25387810Y27538628D01*
X25383540Y27498001D01*
X25387810Y27457374D01*
X25388500Y27444204D01*
X25388500Y27409304D01*
X25396620Y27368483D01*
X25398351Y27357074D01*
X25403325Y27309745D01*
X25413867Y27277300D01*
X25417611Y27262953D01*
X25423105Y27235337D01*
X25423108Y27235326D01*
X25441610Y27190656D01*
X25445032Y27181382D01*
X25457442Y27143193D01*
X25461821Y27129716D01*
X25461823Y27129712D01*
X25461826Y27129706D01*
X25475501Y27106020D01*
X25482791Y27091239D01*
X25490985Y27071455D01*
X25521597Y27025643D01*
X25525952Y27018638D01*
X25556462Y26965790D01*
X25556465Y26965786D01*
X25570260Y26950466D01*
X25581391Y26936155D01*
X25589536Y26923965D01*
X25633248Y26880253D01*
X25637770Y26875488D01*
X25683129Y26825112D01*
X25694347Y26816962D01*
X25709374Y26804127D01*
X25714965Y26798536D01*
X25771974Y26760443D01*
X25775997Y26757640D01*
X25836270Y26713849D01*
X25839380Y26712465D01*
X25842749Y26710964D01*
X25861498Y26700625D01*
X25862454Y26699986D01*
X25894339Y26686780D01*
X25932022Y26671172D01*
X25934950Y26669914D01*
X26009197Y26636856D01*
X26009509Y26636790D01*
X26020268Y26633445D01*
X26020408Y26633904D01*
X26026331Y26632108D01*
X26026334Y26632106D01*
X26071179Y26623187D01*
X26106748Y26616111D01*
X26108247Y26615803D01*
X26194354Y26597500D01*
X26194358Y26597500D01*
X29196691Y26597500D01*
X29196692Y26597500D01*
X29370666Y26632105D01*
X29468515Y26672636D01*
X29534547Y26699987D01*
X29625045Y26760456D01*
X29634996Y26767105D01*
X29634997Y26767106D01*
X29656987Y26781799D01*
X29682036Y26798536D01*
X29745405Y26861905D01*
X29807717Y26895931D01*
X29878532Y26890866D01*
X29935368Y26848319D01*
X29960179Y26781799D01*
X29960500Y26772810D01*
X29960500Y24682192D01*
X29940498Y24614071D01*
X29923595Y24593096D01*
X29646369Y24315871D01*
X29631342Y24303036D01*
X29620127Y24294888D01*
X29574779Y24244524D01*
X29570240Y24239741D01*
X29526535Y24196036D01*
X29518387Y24183841D01*
X29507264Y24169541D01*
X29493469Y24154220D01*
X29493463Y24154212D01*
X29462940Y24101345D01*
X29458589Y24094349D01*
X29427990Y24048553D01*
X29427983Y24048540D01*
X29419791Y24028763D01*
X29412507Y24013992D01*
X29398820Y23990283D01*
X29398818Y23990280D01*
X29382035Y23938628D01*
X29378612Y23929349D01*
X29360107Y23884675D01*
X29360104Y23884663D01*
X29354609Y23857042D01*
X29350865Y23842694D01*
X29340326Y23810259D01*
X29340325Y23810256D01*
X29335350Y23762926D01*
X29333620Y23751521D01*
X29325501Y23710702D01*
X29325500Y23710690D01*
X29325500Y23675798D01*
X29324810Y23662628D01*
X29320540Y23622001D01*
X29324810Y23581374D01*
X29325500Y23568204D01*
X29325500Y23533303D01*
X29333620Y23492483D01*
X29335350Y23481076D01*
X29340325Y23433745D01*
X29340326Y23433740D01*
X29350865Y23401307D01*
X29354610Y23386955D01*
X29359005Y23364863D01*
X29360105Y23359334D01*
X29366206Y23344604D01*
X29378614Y23314648D01*
X29382037Y23305370D01*
X29398820Y23253718D01*
X29412506Y23230012D01*
X29419792Y23215238D01*
X29427988Y23195452D01*
X29458590Y23149653D01*
X29462943Y23142652D01*
X29493462Y23089790D01*
X29493465Y23089786D01*
X29507259Y23074467D01*
X29518389Y23060157D01*
X29526536Y23047964D01*
X29570257Y23004243D01*
X29574780Y22999476D01*
X29620124Y22949117D01*
X29620129Y22949112D01*
X29631342Y22940965D01*
X29646369Y22928131D01*
X29651964Y22922536D01*
X29708960Y22884453D01*
X29712997Y22881640D01*
X29773266Y22837852D01*
X29773265Y22837852D01*
X29773267Y22837851D01*
X29773270Y22837849D01*
X29779759Y22834960D01*
X29798502Y22824623D01*
X29799451Y22823989D01*
X29799455Y22823987D01*
X29869015Y22795173D01*
X29872017Y22793884D01*
X29914168Y22775117D01*
X29946194Y22760857D01*
X29946195Y22760857D01*
X29946197Y22760856D01*
X29946514Y22760789D01*
X29957271Y22757450D01*
X29957409Y22757903D01*
X29963323Y22756110D01*
X29963334Y22756105D01*
X30043757Y22740109D01*
X30045305Y22739791D01*
X30131354Y22721500D01*
X30131357Y22721500D01*
X30320645Y22721500D01*
X30320646Y22721500D01*
X30406641Y22739780D01*
X30408219Y22740104D01*
X30488666Y22756105D01*
X30488668Y22756107D01*
X30494589Y22757902D01*
X30494728Y22757442D01*
X30505488Y22760790D01*
X30505803Y22760856D01*
X30580054Y22793916D01*
X30582918Y22795147D01*
X30652547Y22823988D01*
X30653493Y22824621D01*
X30672245Y22834963D01*
X30678730Y22837849D01*
X30739021Y22881654D01*
X30743039Y22884453D01*
X30800036Y22922536D01*
X30805630Y22928132D01*
X30820658Y22940966D01*
X30831871Y22949112D01*
X30877230Y22999490D01*
X30881733Y23004235D01*
X31152905Y23275408D01*
X31215216Y23309431D01*
X31286031Y23304367D01*
X31331094Y23275406D01*
X31602240Y23004260D01*
X31606780Y22999477D01*
X31652129Y22949112D01*
X31663343Y22940965D01*
X31678376Y22928125D01*
X31683965Y22922536D01*
X31740968Y22884448D01*
X31744993Y22881643D01*
X31784752Y22852757D01*
X31805271Y22837848D01*
X31811751Y22834963D01*
X31830506Y22824620D01*
X31831061Y22824250D01*
X31831454Y22823987D01*
X31889557Y22799921D01*
X31900998Y22795181D01*
X31904021Y22793882D01*
X31978197Y22760856D01*
X31978514Y22760789D01*
X31989271Y22757450D01*
X31989409Y22757903D01*
X31995323Y22756110D01*
X31995334Y22756105D01*
X32075757Y22740109D01*
X32077305Y22739791D01*
X32163354Y22721500D01*
X32163357Y22721500D01*
X32352645Y22721500D01*
X32352646Y22721500D01*
X32438641Y22739780D01*
X32440219Y22740104D01*
X32520666Y22756105D01*
X32520668Y22756107D01*
X32526589Y22757902D01*
X32526728Y22757442D01*
X32537488Y22760790D01*
X32537803Y22760856D01*
X32612007Y22793895D01*
X32614993Y22795177D01*
X32684538Y22823983D01*
X32684539Y22823984D01*
X32684547Y22823987D01*
X32685492Y22824619D01*
X32704255Y22834967D01*
X32710730Y22837849D01*
X32770991Y22881633D01*
X32775032Y22884448D01*
X32832036Y22922536D01*
X32837630Y22928132D01*
X32852658Y22940966D01*
X32863871Y22949112D01*
X32909239Y22999500D01*
X32913723Y23004225D01*
X32957464Y23047964D01*
X32965614Y23060163D01*
X32976741Y23074467D01*
X32990533Y23089784D01*
X33021056Y23142652D01*
X33025396Y23149634D01*
X33056013Y23195453D01*
X33064211Y23215246D01*
X33071493Y23230012D01*
X33085179Y23253716D01*
X33101967Y23305388D01*
X33105375Y23314625D01*
X33123895Y23359334D01*
X33129389Y23386960D01*
X33133132Y23401302D01*
X33143674Y23433744D01*
X33148648Y23481076D01*
X33150373Y23492456D01*
X33158500Y23533308D01*
X33158500Y23568204D01*
X33159190Y23581374D01*
X33163460Y23622000D01*
X33159190Y23662628D01*
X33158500Y23675798D01*
X33158500Y23710688D01*
X33158500Y23710690D01*
X33158500Y23710692D01*
X33150378Y23751523D01*
X33148647Y23762936D01*
X33147539Y23773480D01*
X33143674Y23810256D01*
X33133130Y23842703D01*
X33129388Y23857045D01*
X33128380Y23862115D01*
X33123895Y23884666D01*
X33119344Y23895654D01*
X33105387Y23929349D01*
X33101962Y23938631D01*
X33085179Y23990283D01*
X33085179Y23990284D01*
X33071496Y24013982D01*
X33064206Y24028766D01*
X33056015Y24048540D01*
X33056013Y24048546D01*
X33025395Y24094369D01*
X33021052Y24101354D01*
X32990535Y24154214D01*
X32990533Y24154215D01*
X32990533Y24154216D01*
X32976734Y24169542D01*
X32965609Y24183845D01*
X32957464Y24196035D01*
X32913740Y24239759D01*
X32909217Y24244526D01*
X32863874Y24294886D01*
X32852660Y24303033D01*
X32837623Y24315876D01*
X32798403Y24355097D01*
X32764379Y24417409D01*
X32761500Y24444191D01*
X32761500Y26936810D01*
X32781502Y27004931D01*
X32835158Y27051424D01*
X32905432Y27061528D01*
X32970012Y27032034D01*
X32976581Y27025919D01*
X33068964Y26933536D01*
X33128038Y26894066D01*
X33128040Y26894063D01*
X33128040Y26894064D01*
X33181318Y26858464D01*
X33216453Y26834987D01*
X33298393Y26801047D01*
X33298395Y26801046D01*
X33350073Y26779640D01*
X33380334Y26767105D01*
X33554308Y26732500D01*
X33554309Y26732500D01*
X35275691Y26732500D01*
X35275692Y26732500D01*
X35449666Y26767105D01*
X35531606Y26801047D01*
X35613547Y26834987D01*
X35701959Y26894064D01*
X35761036Y26933536D01*
X36266628Y27439131D01*
X36281658Y27451966D01*
X36292871Y27460112D01*
X36338248Y27510510D01*
X36342732Y27515235D01*
X36386464Y27558965D01*
X36394610Y27571158D01*
X36405731Y27585457D01*
X36419533Y27600784D01*
X36450063Y27653666D01*
X36454385Y27660619D01*
X36485013Y27706454D01*
X36493205Y27726234D01*
X36500492Y27741012D01*
X36514179Y27764716D01*
X36530974Y27816408D01*
X36534378Y27825633D01*
X36552895Y27870334D01*
X36558389Y27897960D01*
X36562132Y27912302D01*
X36572674Y27944744D01*
X36577648Y27992076D01*
X36579373Y28003456D01*
X36587500Y28044308D01*
X36587500Y28079204D01*
X36588190Y28092374D01*
X36592460Y28133000D01*
X36588190Y28173628D01*
X36587500Y28186798D01*
X36587500Y28221688D01*
X36587500Y28221692D01*
X36579378Y28262523D01*
X36577648Y28273927D01*
X36577028Y28279823D01*
X36589796Y28349662D01*
X36638295Y28401511D01*
X36702337Y28419000D01*
X41378709Y28419000D01*
X41378725Y28418999D01*
X41386443Y28418999D01*
X41544554Y28418999D01*
X41544557Y28418999D01*
X41697285Y28459923D01*
X41749393Y28490008D01*
X41834216Y28538980D01*
X41946020Y28650784D01*
X41956387Y28661151D01*
X41956394Y28661161D01*
X45443339Y32148106D01*
X45443349Y32148113D01*
X45565514Y32270278D01*
X45565520Y32270284D01*
X45628455Y32379291D01*
X45644577Y32407215D01*
X45685501Y32559943D01*
X45685501Y32718057D01*
X45685501Y32725774D01*
X45685500Y32725792D01*
X45685500Y34243074D01*
X45705502Y34311195D01*
X45722405Y34332170D01*
X45902387Y34512152D01*
X46200520Y34810284D01*
X46279577Y34947216D01*
X46320501Y35099943D01*
X46320501Y35258058D01*
X46320501Y35265775D01*
X46320500Y35265793D01*
X46320500Y36413043D01*
X46340502Y36481164D01*
X46394158Y36527657D01*
X46464432Y36537761D01*
X46529012Y36508267D01*
X46540136Y36497353D01*
X46663526Y36360314D01*
X46816667Y36249051D01*
X46816667Y36249050D01*
X46864012Y36227971D01*
X46989597Y36172056D01*
X47143949Y36139248D01*
X47206422Y36105520D01*
X47206847Y36105096D01*
X49681595Y33630348D01*
X49715621Y33568036D01*
X49718500Y33541253D01*
X49718500Y11950149D01*
X49698498Y11882028D01*
X49681595Y11861054D01*
X49533946Y11713405D01*
X49471634Y11679379D01*
X49444851Y11676500D01*
X48415335Y11676500D01*
X48415314Y11676498D01*
X48355719Y11670092D01*
X48355718Y11670092D01*
X48220873Y11619799D01*
X48220870Y11619797D01*
X48105655Y11533548D01*
X48105654Y11533546D01*
X48056066Y11467307D01*
X47999232Y11424761D01*
X47928416Y11419697D01*
X47866104Y11453722D01*
X47854336Y11467303D01*
X47804746Y11533546D01*
X47804744Y11533547D01*
X47804744Y11533548D01*
X47746814Y11576914D01*
X47689531Y11619796D01*
X47689529Y11619797D01*
X47689526Y11619799D01*
X47554683Y11670091D01*
X47554686Y11670091D01*
X47495073Y11676500D01*
X45875335Y11676500D01*
X45875314Y11676498D01*
X45815719Y11670092D01*
X45815718Y11670092D01*
X45680873Y11619799D01*
X45680870Y11619797D01*
X45565653Y11533547D01*
X45479403Y11418330D01*
X45479401Y11418327D01*
X45429109Y11283485D01*
X45422700Y11223879D01*
X45422700Y9604136D01*
X45422702Y9604115D01*
X45429108Y9544520D01*
X45429108Y9544519D01*
X45479401Y9409674D01*
X45479403Y9409671D01*
X45565653Y9294454D01*
X45623261Y9251329D01*
X45680869Y9208204D01*
X45680871Y9208204D01*
X45680873Y9208202D01*
X45741230Y9185691D01*
X45815714Y9157910D01*
X45815717Y9157909D01*
X45875327Y9151500D01*
X47495072Y9151501D01*
X47554683Y9157909D01*
X47689531Y9208204D01*
X47804746Y9294454D01*
X47854333Y9360694D01*
X47911168Y9403240D01*
X47981983Y9408304D01*
X48044295Y9374279D01*
X48056063Y9360698D01*
X48105654Y9294454D01*
X48220869Y9208204D01*
X48220871Y9208204D01*
X48220873Y9208202D01*
X48281230Y9185691D01*
X48355714Y9157910D01*
X48355717Y9157909D01*
X48415327Y9151500D01*
X50035072Y9151501D01*
X50094683Y9157909D01*
X50229531Y9208204D01*
X50344746Y9294454D01*
X50430996Y9409669D01*
X50434664Y9419502D01*
X50462344Y9493717D01*
X50481291Y9544517D01*
X50487700Y9604127D01*
X50487699Y10633654D01*
X50507701Y10701774D01*
X50524599Y10722744D01*
X50963114Y11161257D01*
X51039775Y11275989D01*
X51092580Y11403471D01*
X51095535Y11418330D01*
X51097934Y11430389D01*
X51097934Y11430391D01*
X51119500Y11538807D01*
X51119500Y33952593D01*
X51119058Y33954813D01*
X51117770Y33961291D01*
X51117769Y33961294D01*
X51102069Y34040222D01*
X51092580Y34087928D01*
X51039775Y34215411D01*
X50963114Y34330143D01*
X48766052Y36527205D01*
X48732026Y36589517D01*
X48737091Y36660332D01*
X48779638Y36717168D01*
X48846158Y36741979D01*
X48855147Y36742300D01*
X48894075Y36742300D01*
X48962196Y36722298D01*
X48983170Y36705395D01*
X51991469Y33697096D01*
X51991490Y33697073D01*
X52107677Y33580886D01*
X52107682Y33580882D01*
X52107684Y33580880D01*
X52107685Y33580879D01*
X52107687Y33580878D01*
X52244611Y33501825D01*
X52244613Y33501825D01*
X52244616Y33501823D01*
X52345303Y33474844D01*
X52345305Y33474843D01*
X52358219Y33471383D01*
X52397342Y33460900D01*
X52397343Y33460900D01*
X52460452Y33460900D01*
X52528573Y33440898D01*
X52554084Y33419214D01*
X52573855Y33397257D01*
X52581731Y33388510D01*
X52734867Y33277251D01*
X52734867Y33277250D01*
X52782212Y33256171D01*
X52907797Y33200256D01*
X53092954Y33160900D01*
X53282246Y33160900D01*
X53467403Y33200256D01*
X53640330Y33277249D01*
X53640330Y33277250D01*
X53640332Y33277250D01*
X53640332Y33277251D01*
X53793471Y33388512D01*
X53813078Y33410287D01*
X53920133Y33529184D01*
X53920134Y33529186D01*
X53927101Y33541253D01*
X54014779Y33693116D01*
X54073274Y33873144D01*
X54093060Y34061400D01*
X54093031Y34061674D01*
X54090209Y34088532D01*
X54102982Y34158370D01*
X54151485Y34210216D01*
X54215519Y34227700D01*
X54247446Y34227700D01*
X54432603Y34267056D01*
X54605530Y34344049D01*
X54605530Y34344050D01*
X54605532Y34344050D01*
X54605532Y34344051D01*
X54739523Y34441401D01*
X54806389Y34465258D01*
X54875541Y34449178D01*
X54925021Y34398265D01*
X54938893Y34352635D01*
X54943873Y34305247D01*
X55002366Y34125226D01*
X55002370Y34125218D01*
X55097012Y33961292D01*
X55097013Y33961291D01*
X55097015Y33961288D01*
X55221737Y33822771D01*
X55252453Y33758766D01*
X55254100Y33738462D01*
X55254100Y16470526D01*
X55234098Y16402405D01*
X55217195Y16381431D01*
X53510368Y14674605D01*
X53448056Y14640579D01*
X53421273Y14637700D01*
X52097935Y14637700D01*
X52097914Y14637698D01*
X52038319Y14631292D01*
X52038318Y14631292D01*
X51903473Y14580999D01*
X51903470Y14580997D01*
X51788253Y14494747D01*
X51702003Y14379530D01*
X51702001Y14379527D01*
X51651709Y14244685D01*
X51645300Y14185079D01*
X51645300Y12412936D01*
X51645302Y12412915D01*
X51651708Y12353320D01*
X51651708Y12353319D01*
X51702001Y12218474D01*
X51702003Y12218471D01*
X51788253Y12103254D01*
X51845861Y12060129D01*
X51903469Y12017004D01*
X51903471Y12017004D01*
X51903473Y12017002D01*
X51963830Y11994491D01*
X52038314Y11966710D01*
X52038317Y11966709D01*
X52097927Y11960300D01*
X53870072Y11960301D01*
X53929683Y11966709D01*
X54064531Y12017004D01*
X54179746Y12103254D01*
X54265996Y12218469D01*
X54316291Y12353317D01*
X54322700Y12412927D01*
X54322699Y13736277D01*
X54342701Y13804397D01*
X54359599Y13825366D01*
X56212939Y15678706D01*
X56212949Y15678713D01*
X56335114Y15800878D01*
X56335120Y15800884D01*
X56414177Y15937816D01*
X56455100Y16090543D01*
X56455100Y33704476D01*
X56475102Y33772597D01*
X56528758Y33819090D01*
X56599032Y33829194D01*
X56663612Y33799700D01*
X56670195Y33793571D01*
X60500395Y29963371D01*
X60534421Y29901059D01*
X60537300Y29874276D01*
X60537300Y14698032D01*
X60517298Y14629911D01*
X60463642Y14583418D01*
X60393368Y14573314D01*
X60367269Y14579976D01*
X60229684Y14631291D01*
X60229686Y14631291D01*
X60170073Y14637700D01*
X58397935Y14637700D01*
X58397914Y14637698D01*
X58338319Y14631292D01*
X58338318Y14631292D01*
X58203473Y14580999D01*
X58203470Y14580997D01*
X58088253Y14494747D01*
X58002003Y14379530D01*
X58002001Y14379527D01*
X57951709Y14244685D01*
X57945300Y14185079D01*
X57945300Y12412936D01*
X57945302Y12412915D01*
X57951708Y12353320D01*
X57951708Y12353319D01*
X58002001Y12218474D01*
X58002003Y12218471D01*
X58088253Y12103254D01*
X58145861Y12060129D01*
X58203469Y12017004D01*
X58203471Y12017004D01*
X58203473Y12017002D01*
X58263830Y11994491D01*
X58338314Y11966710D01*
X58338317Y11966709D01*
X58397927Y11960300D01*
X60170072Y11960301D01*
X60229683Y11966709D01*
X60364531Y12017004D01*
X60479746Y12103254D01*
X60565996Y12218469D01*
X60616291Y12353317D01*
X60621208Y12399052D01*
X60648378Y12464643D01*
X60706697Y12505134D01*
X60777648Y12507667D01*
X60797728Y12500690D01*
X60857997Y12473856D01*
X61043154Y12434500D01*
X61232446Y12434500D01*
X61417603Y12473856D01*
X61590530Y12550849D01*
X61590530Y12550850D01*
X61590532Y12550850D01*
X61590532Y12550851D01*
X61743671Y12662112D01*
X61870333Y12802784D01*
X61964979Y12966716D01*
X62023474Y13146744D01*
X62043260Y13335000D01*
X62023474Y13523256D01*
X62023474Y13523257D01*
X61964981Y13703279D01*
X61964977Y13703287D01*
X61870334Y13867215D01*
X61870332Y13867217D01*
X61770664Y13977911D01*
X61739946Y14041918D01*
X61738300Y14062221D01*
X61738300Y30254254D01*
X61738300Y30254258D01*
X61727847Y30293272D01*
X61697377Y30406986D01*
X61668439Y30457106D01*
X61661861Y30468500D01*
X61618323Y30543913D01*
X61618316Y30543922D01*
X61502127Y30660111D01*
X61502104Y30660132D01*
X57914086Y34248150D01*
X57880060Y34310462D01*
X57885125Y34381277D01*
X57909544Y34421555D01*
X57991118Y34512150D01*
X58085764Y34676082D01*
X58129369Y34810282D01*
X58144259Y34856110D01*
X58147084Y34882990D01*
X58174095Y34948648D01*
X58232316Y34989279D01*
X58303261Y34991984D01*
X58361489Y34958918D01*
X65707395Y27613012D01*
X65741421Y27550700D01*
X65744300Y27523917D01*
X65744300Y15529992D01*
X65744299Y15529974D01*
X65744299Y15522257D01*
X65744299Y15364143D01*
X65780545Y15228873D01*
X65785223Y15211415D01*
X65785224Y15211412D01*
X65805561Y15176190D01*
X65814160Y15161296D01*
X65864280Y15074484D01*
X65864283Y15074481D01*
X65864286Y15074477D01*
X65983259Y14955504D01*
X65983273Y14955492D01*
X67205835Y13732930D01*
X67239861Y13670618D01*
X67242740Y13643835D01*
X67242740Y13639802D01*
X67262525Y13451544D01*
X67321018Y13271522D01*
X67321022Y13271514D01*
X67379342Y13170500D01*
X67396080Y13101504D01*
X67372859Y13034412D01*
X67317052Y12990525D01*
X67270223Y12981500D01*
X62952791Y12981500D01*
X62952775Y12981501D01*
X62945057Y12981501D01*
X62786943Y12981501D01*
X62695306Y12956947D01*
X62634213Y12940577D01*
X62584095Y12911640D01*
X62497287Y12861523D01*
X62497282Y12861519D01*
X62441381Y12805618D01*
X62385480Y12749716D01*
X62385478Y12749714D01*
X59810368Y10174605D01*
X59748056Y10140579D01*
X59721273Y10137700D01*
X58397935Y10137700D01*
X58397914Y10137698D01*
X58338319Y10131292D01*
X58338318Y10131292D01*
X58203473Y10080999D01*
X58203470Y10080997D01*
X58088253Y9994747D01*
X58002003Y9879530D01*
X58002001Y9879527D01*
X57951709Y9744685D01*
X57945300Y9685079D01*
X57945300Y9525500D01*
X57925298Y9457379D01*
X57871642Y9410886D01*
X57819300Y9399500D01*
X54448699Y9399500D01*
X54380578Y9419502D01*
X54334085Y9473158D01*
X54322699Y9525500D01*
X54322699Y9685065D01*
X54322699Y9685072D01*
X54316291Y9744683D01*
X54295000Y9801765D01*
X54265998Y9879527D01*
X54265996Y9879530D01*
X54265996Y9879531D01*
X54222871Y9937139D01*
X54179746Y9994747D01*
X54102791Y10052355D01*
X54064531Y10080996D01*
X54064529Y10080997D01*
X54064526Y10080999D01*
X53929683Y10131291D01*
X53929686Y10131291D01*
X53870073Y10137700D01*
X52097935Y10137700D01*
X52097914Y10137698D01*
X52038319Y10131292D01*
X52038318Y10131292D01*
X51903473Y10080999D01*
X51903470Y10080997D01*
X51788253Y9994747D01*
X51702003Y9879530D01*
X51702001Y9879527D01*
X51651709Y9744685D01*
X51645300Y9685079D01*
X51645300Y7912936D01*
X51645302Y7912915D01*
X51651708Y7853320D01*
X51651708Y7853319D01*
X51702001Y7718474D01*
X51702003Y7718471D01*
X51788253Y7603254D01*
X51845861Y7560129D01*
X51903469Y7517004D01*
X51903471Y7517004D01*
X51903473Y7517002D01*
X51963830Y7494491D01*
X52038314Y7466710D01*
X52038317Y7466709D01*
X52097927Y7460300D01*
X53870072Y7460301D01*
X53929683Y7466709D01*
X54064531Y7517004D01*
X54179746Y7603254D01*
X54265996Y7718469D01*
X54316291Y7853317D01*
X54322700Y7912927D01*
X54322700Y8072500D01*
X54342702Y8140621D01*
X54396358Y8187114D01*
X54448700Y8198500D01*
X57819301Y8198500D01*
X57887422Y8178498D01*
X57933915Y8124842D01*
X57945301Y8072500D01*
X57945301Y7912936D01*
X57945302Y7912915D01*
X57951708Y7853320D01*
X57951708Y7853319D01*
X58002001Y7718474D01*
X58002003Y7718471D01*
X58088253Y7603254D01*
X58145861Y7560129D01*
X58203469Y7517004D01*
X58203471Y7517004D01*
X58203473Y7517002D01*
X58263830Y7494491D01*
X58338314Y7466710D01*
X58338317Y7466709D01*
X58397927Y7460300D01*
X60170072Y7460301D01*
X60229683Y7466709D01*
X60364531Y7517004D01*
X60479746Y7603254D01*
X60565996Y7718469D01*
X60616291Y7853317D01*
X60622700Y7912927D01*
X60622699Y9236277D01*
X60642701Y9304397D01*
X60659599Y9325366D01*
X61494238Y10160004D01*
X77274675Y10160004D01*
X77274675Y10159997D01*
X77293962Y9767413D01*
X77293963Y9767399D01*
X77334560Y9493720D01*
X77351636Y9378600D01*
X77408521Y9151503D01*
X77447144Y8997311D01*
X77568289Y8658734D01*
X77579562Y8627228D01*
X77747619Y8271903D01*
X77747621Y8271900D01*
X77949696Y7934757D01*
X78183834Y7619058D01*
X78183841Y7619050D01*
X78183842Y7619049D01*
X78447808Y7327808D01*
X78739049Y7063842D01*
X78739057Y7063835D01*
X79054756Y6829697D01*
X79054760Y6829695D01*
X79054761Y6829694D01*
X79391903Y6627619D01*
X79747228Y6459562D01*
X80117316Y6327143D01*
X80498600Y6231636D01*
X80887409Y6173962D01*
X81222590Y6157496D01*
X81279996Y6154675D01*
X81280000Y6154675D01*
X81280004Y6154675D01*
X81335384Y6157396D01*
X81672591Y6173962D01*
X82061400Y6231636D01*
X82442684Y6327143D01*
X82812772Y6459562D01*
X83168097Y6627619D01*
X83505239Y6829694D01*
X83820951Y7063842D01*
X84112192Y7327808D01*
X84376158Y7619049D01*
X84449895Y7718471D01*
X84610303Y7934757D01*
X84610302Y7934757D01*
X84610306Y7934761D01*
X84812381Y8271903D01*
X84980438Y8627228D01*
X85112857Y8997316D01*
X85208364Y9378600D01*
X85266038Y9767409D01*
X85284229Y10137699D01*
X85285325Y10159997D01*
X85285325Y10160004D01*
X85282504Y10217410D01*
X85266038Y10552591D01*
X85208364Y10941400D01*
X85112857Y11322684D01*
X85112698Y11323127D01*
X85090311Y11385695D01*
X84980438Y11692772D01*
X84812381Y12048097D01*
X84610306Y12385239D01*
X84610305Y12385240D01*
X84610303Y12385244D01*
X84376165Y12700943D01*
X84376158Y12700951D01*
X84112192Y12992192D01*
X83820951Y13256158D01*
X83820950Y13256159D01*
X83820942Y13256166D01*
X83505243Y13490304D01*
X83168100Y13692379D01*
X83168101Y13692379D01*
X83168097Y13692381D01*
X82812772Y13860438D01*
X82767882Y13876500D01*
X82442689Y13992856D01*
X82323353Y14022748D01*
X82061400Y14088364D01*
X82032816Y14092604D01*
X81672601Y14146037D01*
X81672594Y14146038D01*
X81672591Y14146038D01*
X81476295Y14155682D01*
X81280004Y14165325D01*
X81279996Y14165325D01*
X81055662Y14154304D01*
X80887409Y14146038D01*
X80887406Y14146038D01*
X80887398Y14146037D01*
X80498606Y14088365D01*
X80498604Y14088365D01*
X80498600Y14088364D01*
X80313178Y14041918D01*
X80117310Y13992856D01*
X79747230Y13860439D01*
X79747228Y13860438D01*
X79414956Y13703284D01*
X79391899Y13692379D01*
X79054756Y13490304D01*
X78739057Y13256166D01*
X78447808Y12992192D01*
X78183834Y12700943D01*
X77949696Y12385244D01*
X77747621Y12048101D01*
X77747619Y12048097D01*
X77673998Y11892440D01*
X77579561Y11692770D01*
X77447144Y11322690D01*
X77399389Y11132042D01*
X77351636Y10941400D01*
X77351635Y10941396D01*
X77351635Y10941394D01*
X77293963Y10552602D01*
X77293962Y10552588D01*
X77274675Y10160004D01*
X61494238Y10160004D01*
X63077830Y11743595D01*
X63140142Y11777621D01*
X63166925Y11780500D01*
X72466809Y11780500D01*
X72466825Y11780499D01*
X72474543Y11780499D01*
X72632654Y11780499D01*
X72632657Y11780499D01*
X72785385Y11821423D01*
X72809908Y11835583D01*
X72835481Y11850347D01*
X72835491Y11850355D01*
X72835504Y11850361D01*
X72922316Y11900480D01*
X73034120Y12012284D01*
X73034120Y12012286D01*
X73044489Y12022654D01*
X73044492Y12022659D01*
X74926020Y13904184D01*
X75005077Y14041116D01*
X75046001Y14193843D01*
X75046001Y14351958D01*
X75046001Y14359675D01*
X75046000Y14359693D01*
X75046000Y24714377D01*
X75066002Y24782498D01*
X75105853Y24821618D01*
X75176656Y24865288D01*
X75194868Y24883500D01*
X75283964Y24972595D01*
X75346276Y25006621D01*
X75373059Y25009500D01*
X79343501Y25009500D01*
X79411622Y24989498D01*
X79458115Y24935842D01*
X79469501Y24883500D01*
X79469501Y23862136D01*
X79469502Y23862115D01*
X79475908Y23802520D01*
X79475908Y23802519D01*
X79526201Y23667674D01*
X79526203Y23667671D01*
X79526204Y23667669D01*
X79529978Y23662628D01*
X79612453Y23552454D01*
X79638036Y23533303D01*
X79727669Y23466204D01*
X79727671Y23466204D01*
X79727673Y23466202D01*
X79788030Y23443691D01*
X79862514Y23415910D01*
X79862517Y23415909D01*
X79922127Y23409500D01*
X84017872Y23409501D01*
X84077483Y23415909D01*
X84212331Y23466204D01*
X84327546Y23552454D01*
X84413796Y23667669D01*
X84414365Y23669193D01*
X84429842Y23710690D01*
X84464091Y23802517D01*
X84470500Y23862127D01*
X84470499Y27957872D01*
X84464091Y28017483D01*
X84441071Y28079204D01*
X84413798Y28152327D01*
X84413796Y28152330D01*
X84413796Y28152331D01*
X84350473Y28236920D01*
X84327546Y28267547D01*
X84217853Y28349662D01*
X84212331Y28353796D01*
X84212329Y28353797D01*
X84212326Y28353799D01*
X84077483Y28404091D01*
X84077486Y28404091D01*
X84017873Y28410500D01*
X79922135Y28410500D01*
X79922114Y28410498D01*
X79862519Y28404092D01*
X79862518Y28404092D01*
X79727673Y28353799D01*
X79727670Y28353797D01*
X79612453Y28267547D01*
X79526203Y28152330D01*
X79526201Y28152327D01*
X79475909Y28017485D01*
X79469500Y27957879D01*
X79469500Y26936500D01*
X79449498Y26868379D01*
X79395842Y26821886D01*
X79343500Y26810500D01*
X75369059Y26810500D01*
X75300938Y26830502D01*
X75279964Y26847405D01*
X75176662Y26950707D01*
X75176656Y26950712D01*
X75027334Y27042815D01*
X74860803Y27097998D01*
X74860791Y27098000D01*
X74758017Y27108500D01*
X74132990Y27108500D01*
X74030202Y27098000D01*
X73863665Y27042815D01*
X73714343Y26950712D01*
X73714337Y26950707D01*
X73622095Y26858464D01*
X73559783Y26824438D01*
X73488968Y26829503D01*
X73443905Y26858464D01*
X73351662Y26950707D01*
X73351656Y26950712D01*
X73202334Y27042815D01*
X73035797Y27097999D01*
X73035798Y27097999D01*
X73028302Y27098765D01*
X72962568Y27125590D01*
X72952018Y27135017D01*
X69971865Y30115170D01*
X69937839Y30177482D01*
X69935650Y30191095D01*
X69922874Y30312657D01*
X69864381Y30492679D01*
X69864377Y30492687D01*
X69854564Y30509683D01*
X69811167Y30584850D01*
X69769734Y30656615D01*
X69769733Y30656617D01*
X69643073Y30797287D01*
X69489932Y30908550D01*
X69489932Y30908551D01*
X69364345Y30964466D01*
X69317003Y30985544D01*
X69317001Y30985545D01*
X69317000Y30985545D01*
X69131846Y31024900D01*
X68942554Y31024900D01*
X68757399Y30985545D01*
X68584467Y30908551D01*
X68584467Y30908550D01*
X68431326Y30797287D01*
X68304666Y30656617D01*
X68304665Y30656615D01*
X68210022Y30492687D01*
X68210018Y30492679D01*
X68151525Y30312657D01*
X68131740Y30124400D01*
X68151525Y29936144D01*
X68210018Y29756122D01*
X68210022Y29756114D01*
X68304665Y29592186D01*
X68304666Y29592184D01*
X68431326Y29451514D01*
X68584467Y29340251D01*
X68584467Y29340250D01*
X68631812Y29319171D01*
X68757397Y29263256D01*
X68942554Y29223900D01*
X69112475Y29223900D01*
X69180596Y29203898D01*
X69201570Y29186995D01*
X71627699Y26760866D01*
X71661725Y26698554D01*
X71658209Y26632139D01*
X71618001Y26510799D01*
X71618000Y26510792D01*
X71607500Y26408018D01*
X71607500Y25632081D01*
X71587498Y25563960D01*
X71533842Y25517467D01*
X71463568Y25507363D01*
X71398988Y25536857D01*
X71392405Y25542986D01*
X66472386Y30463004D01*
X66438360Y30525316D01*
X66443425Y30596131D01*
X66485972Y30652967D01*
X66552492Y30677778D01*
X66561481Y30678099D01*
X66612204Y30678099D01*
X66612207Y30678099D01*
X66764935Y30719023D01*
X66850631Y30768500D01*
X66901866Y30798080D01*
X67013670Y30909884D01*
X67024037Y30920251D01*
X67024044Y30920261D01*
X74829339Y38725556D01*
X74829349Y38725563D01*
X74951514Y38847728D01*
X74951520Y38847734D01*
X75021172Y38968376D01*
X75030577Y38984665D01*
X75071500Y39137393D01*
X75071500Y39295507D01*
X75071500Y43967638D01*
X75091502Y44035759D01*
X75131354Y44074879D01*
X75154246Y44088999D01*
X75202056Y44118488D01*
X75326112Y44242544D01*
X75418214Y44391866D01*
X75473399Y44558403D01*
X75483900Y44661191D01*
X75483899Y45617301D01*
X75503901Y45685421D01*
X75557557Y45731914D01*
X75609899Y45743300D01*
X77494716Y45743300D01*
X77562837Y45723298D01*
X77583811Y45706395D01*
X79432595Y43857611D01*
X79466621Y43795299D01*
X79469500Y43768516D01*
X79469500Y43162136D01*
X79469502Y43162115D01*
X79475908Y43102520D01*
X79475908Y43102519D01*
X79526201Y42967674D01*
X79526203Y42967671D01*
X79612453Y42852454D01*
X79670061Y42809329D01*
X79727669Y42766204D01*
X79727671Y42766204D01*
X79727673Y42766202D01*
X79788030Y42743691D01*
X79862514Y42715910D01*
X79862517Y42715909D01*
X79922127Y42709500D01*
X80794325Y42709501D01*
X80848994Y42697023D01*
X80915759Y42664871D01*
X80915762Y42664870D01*
X80915770Y42664866D01*
X80915785Y42664861D01*
X80915787Y42664860D01*
X81207357Y42562835D01*
X81207360Y42562835D01*
X81207364Y42562833D01*
X81508543Y42494090D01*
X81508544Y42494090D01*
X81508547Y42494089D01*
X81689602Y42473690D01*
X81815533Y42459501D01*
X81815535Y42459501D01*
X82124466Y42459501D01*
X82202425Y42468285D01*
X82431452Y42494089D01*
X82732636Y42562833D01*
X83024229Y42664866D01*
X83068881Y42686370D01*
X83091004Y42697023D01*
X83145673Y42709501D01*
X84017865Y42709501D01*
X84017872Y42709501D01*
X84077483Y42715909D01*
X84195684Y42759995D01*
X84212326Y42766202D01*
X84212326Y42766203D01*
X84212331Y42766204D01*
X84327546Y42852454D01*
X84413796Y42967669D01*
X84464091Y43102517D01*
X84470500Y43162127D01*
X84470499Y44034329D01*
X84482978Y44088999D01*
X84515134Y44155771D01*
X84515134Y44155772D01*
X84545850Y44243551D01*
X84617167Y44447364D01*
X84685911Y44748548D01*
X84720499Y45055536D01*
X84720499Y45364465D01*
X84685911Y45671453D01*
X84617167Y45972636D01*
X84515134Y46264230D01*
X84482977Y46331006D01*
X84470499Y46385675D01*
X84470499Y47257865D01*
X84470499Y47257872D01*
X84464091Y47317483D01*
X84442800Y47374565D01*
X84413798Y47452327D01*
X84413796Y47452330D01*
X84413796Y47452331D01*
X84370671Y47509939D01*
X84327546Y47567547D01*
X84250591Y47625155D01*
X84212331Y47653796D01*
X84212329Y47653797D01*
X84212326Y47653799D01*
X84077483Y47704091D01*
X84077486Y47704091D01*
X84017878Y47710500D01*
X84017873Y47710500D01*
X83411484Y47710500D01*
X83343363Y47730502D01*
X83322389Y47747405D01*
X80521877Y50547918D01*
X80280340Y50740538D01*
X80018769Y50904894D01*
X80018760Y50904899D01*
X79740433Y51038934D01*
X79731020Y51042228D01*
X79664845Y51065384D01*
X79664844Y51065385D01*
X79448842Y51140967D01*
X79147656Y51209711D01*
X78840666Y51244300D01*
X78840665Y51244300D01*
X65314626Y51244300D01*
X65314625Y51244300D01*
X65007634Y51209711D01*
X64784949Y51158884D01*
X64706455Y51140968D01*
X64706451Y51140967D01*
X64706448Y51140966D01*
X64490445Y51065385D01*
X64490445Y51065384D01*
X64414861Y51038935D01*
X64414857Y51038934D01*
X64414851Y51038931D01*
X64136530Y50904899D01*
X64136521Y50904894D01*
X63874950Y50740538D01*
X63633413Y50547918D01*
X62360102Y49274605D01*
X62297790Y49240580D01*
X62271007Y49237700D01*
X50878117Y49237700D01*
X50809996Y49257702D01*
X50763503Y49311358D01*
X50752807Y49350530D01*
X50743310Y49440888D01*
X50733074Y49538285D01*
X50733074Y49538286D01*
X50674581Y49718308D01*
X50674577Y49718316D01*
X50579934Y49882244D01*
X50579933Y49882246D01*
X50482276Y49990705D01*
X50451558Y50054712D01*
X50460323Y50125166D01*
X50482274Y50159324D01*
X50579933Y50267784D01*
X50674579Y50431716D01*
X50733074Y50611744D01*
X50752860Y50800000D01*
X50733074Y50988256D01*
X50716608Y51038934D01*
X50674581Y51168279D01*
X50674577Y51168287D01*
X50579934Y51332215D01*
X50579933Y51332217D01*
X50453273Y51472887D01*
X50300132Y51584150D01*
X50300132Y51584151D01*
X50174545Y51640066D01*
X50127203Y51661144D01*
X50127201Y51661145D01*
X50127200Y51661145D01*
X49942046Y51700500D01*
X49752754Y51700500D01*
X49567599Y51661145D01*
X49394667Y51584151D01*
X49394667Y51584150D01*
X49243836Y51474564D01*
X49176968Y51450706D01*
X49169775Y51450500D01*
X28917981Y51450500D01*
X28876089Y51442167D01*
X28792304Y51425501D01*
X28792294Y51425498D01*
X28743272Y51405191D01*
X28743271Y51405190D01*
X28673922Y51376465D01*
X28567379Y51305276D01*
X28567373Y51305271D01*
X26802484Y49540380D01*
X26740172Y49506355D01*
X26713389Y49503475D01*
X26690379Y49503475D01*
X26505224Y49464120D01*
X26332292Y49387126D01*
X26332292Y49387125D01*
X26179151Y49275862D01*
X26052491Y49135192D01*
X26052490Y49135190D01*
X25957847Y48971262D01*
X25957843Y48971254D01*
X25899350Y48791232D01*
X25879565Y48602975D01*
X25899350Y48414719D01*
X25957843Y48234697D01*
X25957847Y48234689D01*
X26052490Y48070761D01*
X26052492Y48070759D01*
X26134063Y47980164D01*
X26164781Y47916157D01*
X26156016Y47845703D01*
X26129522Y47806759D01*
X24170170Y45847405D01*
X24107858Y45813380D01*
X24081075Y45810500D01*
X12096499Y45810500D01*
X12028378Y45830502D01*
X11981885Y45884158D01*
X11970499Y45936500D01*
X11970499Y47257865D01*
X11970499Y47257872D01*
X11964091Y47317483D01*
X11942800Y47374565D01*
X11913798Y47452327D01*
X11913796Y47452330D01*
X11913796Y47452331D01*
X11870671Y47509939D01*
X11827546Y47567547D01*
X11750591Y47625155D01*
X11712331Y47653796D01*
X11712329Y47653797D01*
X11712326Y47653799D01*
X11577483Y47704091D01*
X11577486Y47704091D01*
X11517873Y47710500D01*
X7422135Y47710500D01*
X7422114Y47710498D01*
X7362519Y47704092D01*
X7362518Y47704092D01*
X7227673Y47653799D01*
X7227670Y47653797D01*
X7112453Y47567547D01*
X7026203Y47452330D01*
X7026201Y47452327D01*
X6975909Y47317485D01*
X6969500Y47257879D01*
X6969500Y43162136D01*
X6969502Y43162115D01*
X6975908Y43102520D01*
X6975908Y43102519D01*
X7026201Y42967674D01*
X7026203Y42967671D01*
X7112453Y42852454D01*
X7170061Y42809329D01*
X7227669Y42766204D01*
X7227671Y42766204D01*
X7227673Y42766202D01*
X7288030Y42743691D01*
X7362514Y42715910D01*
X7362517Y42715909D01*
X7422127Y42709500D01*
X11517872Y42709501D01*
X11577483Y42715909D01*
X11695684Y42759995D01*
X11712326Y42766202D01*
X11712326Y42766203D01*
X11712331Y42766204D01*
X11827546Y42852454D01*
X11913796Y42967669D01*
X11964091Y43102517D01*
X11970500Y43162127D01*
X11970500Y44483500D01*
X11990502Y44551621D01*
X12044158Y44598114D01*
X12096500Y44609500D01*
X24295209Y44609500D01*
X24295225Y44609499D01*
X24302943Y44609499D01*
X24461054Y44609499D01*
X24461057Y44609499D01*
X24613785Y44650423D01*
X24654777Y44674091D01*
X24663881Y44679347D01*
X24663891Y44679355D01*
X24663904Y44679361D01*
X24750716Y44729480D01*
X24862520Y44841284D01*
X24862520Y44841286D01*
X24872890Y44851655D01*
X24872893Y44851660D01*
X28733859Y48712624D01*
X28796171Y48746650D01*
X28822954Y48749529D01*
X32853544Y48749529D01*
X32921665Y48729527D01*
X32968158Y48675871D01*
X32978262Y48605597D01*
X32948768Y48541017D01*
X32942639Y48534434D01*
X18012647Y33604443D01*
X17950335Y33570417D01*
X17879520Y33575482D01*
X17822684Y33618029D01*
X17814432Y33630539D01*
X17750532Y33741218D01*
X17650864Y33851911D01*
X17620146Y33915918D01*
X17618500Y33936221D01*
X17618500Y34189057D01*
X17618499Y34189060D01*
X17617442Y34193005D01*
X17617439Y34193016D01*
X17602993Y34246929D01*
X17593660Y34281761D01*
X17577577Y34341784D01*
X17577575Y34341787D01*
X17577575Y34341789D01*
X17498522Y34478713D01*
X17498514Y34478723D01*
X17382327Y34594910D01*
X17382304Y34594931D01*
X15349708Y36627527D01*
X15349696Y36627541D01*
X15230722Y36746515D01*
X15230718Y36746518D01*
X15230716Y36746520D01*
X15141175Y36798216D01*
X15124491Y36807849D01*
X15119628Y36810657D01*
X15088996Y36835463D01*
X15068119Y36858649D01*
X14995871Y36938888D01*
X14924413Y36990805D01*
X14842732Y37050150D01*
X14842732Y37050151D01*
X14697294Y37114904D01*
X14669803Y37127144D01*
X14669801Y37127145D01*
X14669800Y37127145D01*
X14484646Y37166500D01*
X14295354Y37166500D01*
X14110199Y37127145D01*
X13937267Y37050151D01*
X13937267Y37050150D01*
X13784126Y36938887D01*
X13657468Y36798218D01*
X13657465Y36798215D01*
X13562822Y36634287D01*
X13562820Y36634281D01*
X13504325Y36454257D01*
X13484540Y36266000D01*
X13504325Y36077744D01*
X13562818Y35897722D01*
X13562822Y35897714D01*
X13657465Y35733786D01*
X13657466Y35733784D01*
X13784126Y35593114D01*
X13937267Y35481851D01*
X13937267Y35481850D01*
X13956489Y35473292D01*
X14110197Y35404856D01*
X14295354Y35365500D01*
X14484646Y35365500D01*
X14669803Y35404856D01*
X14731920Y35432514D01*
X14802284Y35441949D01*
X14866581Y35411843D01*
X14872263Y35406502D01*
X16320353Y33958412D01*
X16354379Y33896100D01*
X16349314Y33825285D01*
X16324896Y33785009D01*
X16285466Y33741217D01*
X16285465Y33741215D01*
X16190822Y33577287D01*
X16190818Y33577279D01*
X16132325Y33397257D01*
X16112540Y33209000D01*
X16132325Y33020744D01*
X16190818Y32840722D01*
X16190822Y32840714D01*
X16285465Y32676786D01*
X16285466Y32676784D01*
X16412126Y32536114D01*
X16565267Y32424851D01*
X16565270Y32424849D01*
X16583076Y32416921D01*
X16637172Y32370942D01*
X16657822Y32303015D01*
X16638470Y32234706D01*
X16620923Y32212719D01*
X13105611Y28697405D01*
X13043299Y28663380D01*
X13016516Y28660500D01*
X9315534Y28660500D01*
X9008543Y28625911D01*
X8707357Y28557167D01*
X8415788Y28455142D01*
X8415760Y28455131D01*
X8348995Y28422978D01*
X8294326Y28410500D01*
X7422135Y28410500D01*
X7422114Y28410498D01*
X7362519Y28404092D01*
X7362518Y28404092D01*
X7227673Y28353799D01*
X7227670Y28353797D01*
X7112453Y28267547D01*
X7026203Y28152330D01*
X7026201Y28152327D01*
X6975909Y28017485D01*
X6969500Y27957879D01*
X6969500Y27085674D01*
X6957022Y27031005D01*
X6924869Y26964240D01*
X6924858Y26964212D01*
X6822833Y26672643D01*
X6754089Y26371457D01*
X6719500Y26064466D01*
X5344500Y26064466D01*
X5344500Y30515001D01*
X11809552Y30515001D01*
X11809553Y30515000D01*
X12552447Y30515000D01*
X12552447Y30515001D01*
X12181001Y30886447D01*
X12180999Y30886447D01*
X11809552Y30515001D01*
X5344500Y30515001D01*
X5344500Y31311409D01*
X10931000Y31311409D01*
X10931000Y31168592D01*
X10958861Y31028525D01*
X10958863Y31028520D01*
X11013513Y30896585D01*
X11092853Y30777844D01*
X11092854Y30777842D01*
X11193840Y30676855D01*
X11193842Y30676854D01*
X11236078Y30648633D01*
X11540982Y30953537D01*
X11591504Y30940000D01*
X12770496Y30940000D01*
X12821015Y30953537D01*
X13125919Y30648633D01*
X13125920Y30648633D01*
X13168159Y30676855D01*
X13269145Y30777842D01*
X13269146Y30777844D01*
X13348486Y30896585D01*
X13403136Y31028520D01*
X13403138Y31028525D01*
X13430999Y31168592D01*
X13431000Y31168596D01*
X13431000Y31311405D01*
X13430999Y31311409D01*
X13403138Y31451476D01*
X13403136Y31451481D01*
X13348486Y31583416D01*
X13269146Y31702157D01*
X13269145Y31702159D01*
X13168159Y31803146D01*
X13168157Y31803147D01*
X13125920Y31831369D01*
X12821015Y31526464D01*
X12770496Y31540000D01*
X11591504Y31540000D01*
X11540984Y31526464D01*
X11236079Y31831369D01*
X11193839Y31803145D01*
X11092854Y31702159D01*
X11092853Y31702157D01*
X11013513Y31583416D01*
X10958863Y31451481D01*
X10958861Y31451476D01*
X10931000Y31311409D01*
X5344500Y31311409D01*
X5344500Y31965000D01*
X11809552Y31965000D01*
X12180999Y31593553D01*
X12181001Y31593553D01*
X12552447Y31965000D01*
X11809552Y31965000D01*
X5344500Y31965000D01*
X5344500Y32712988D01*
X11354500Y32712988D01*
X11354500Y32627013D01*
X11376749Y32543980D01*
X11376750Y32543977D01*
X11376751Y32543976D01*
X11419735Y32469525D01*
X11419737Y32469523D01*
X11419740Y32469519D01*
X11480518Y32408741D01*
X11480522Y32408738D01*
X11480525Y32408735D01*
X11554976Y32365751D01*
X11554978Y32365751D01*
X11554979Y32365750D01*
X11623215Y32347466D01*
X11638016Y32343500D01*
X11723984Y32343500D01*
X11807024Y32365751D01*
X11881475Y32408735D01*
X11942265Y32469525D01*
X11985249Y32543976D01*
X12007500Y32627016D01*
X12007500Y32712984D01*
X12003591Y32727572D01*
X11985250Y32796021D01*
X11985249Y32796022D01*
X11985249Y32796024D01*
X11942265Y32870475D01*
X11942262Y32870478D01*
X11942259Y32870482D01*
X11881481Y32931260D01*
X11881477Y32931263D01*
X11881475Y32931265D01*
X11807024Y32974249D01*
X11807023Y32974250D01*
X11807020Y32974251D01*
X11723987Y32996500D01*
X11723984Y32996500D01*
X11638016Y32996500D01*
X11638012Y32996500D01*
X11554979Y32974251D01*
X11480526Y32931266D01*
X11480518Y32931260D01*
X11419740Y32870482D01*
X11419734Y32870474D01*
X11376749Y32796021D01*
X11354500Y32712988D01*
X5344500Y32712988D01*
X5344500Y38494169D01*
X11345500Y38494169D01*
X11345500Y38405831D01*
X11368364Y38320502D01*
X11412533Y38243998D01*
X11412535Y38243996D01*
X11412538Y38243992D01*
X11474991Y38181539D01*
X11474995Y38181536D01*
X11474998Y38181533D01*
X11551502Y38137364D01*
X11636831Y38114500D01*
X11636834Y38114500D01*
X11725166Y38114500D01*
X11725169Y38114500D01*
X11810498Y38137364D01*
X11887002Y38181533D01*
X11949467Y38243998D01*
X11993636Y38320502D01*
X12016500Y38405831D01*
X12016500Y38494169D01*
X11993636Y38579498D01*
X11949467Y38656002D01*
X11949464Y38656005D01*
X11949461Y38656009D01*
X11887008Y38718462D01*
X11887004Y38718465D01*
X11887002Y38718467D01*
X11836341Y38747716D01*
X11810500Y38762635D01*
X11810499Y38762636D01*
X11810498Y38762636D01*
X11725169Y38785500D01*
X11636831Y38785500D01*
X11551502Y38762636D01*
X11551501Y38762636D01*
X11551499Y38762635D01*
X11474999Y38718468D01*
X11474991Y38718462D01*
X11412538Y38656009D01*
X11412532Y38656001D01*
X11368365Y38579501D01*
X11368364Y38579499D01*
X11368364Y38579498D01*
X11345500Y38494169D01*
X5344500Y38494169D01*
X5344500Y39155001D01*
X11809552Y39155001D01*
X11809553Y39155000D01*
X12552447Y39155000D01*
X12552447Y39155001D01*
X12181001Y39526447D01*
X12180999Y39526447D01*
X11809552Y39155001D01*
X5344500Y39155001D01*
X5344500Y39951409D01*
X10931000Y39951409D01*
X10931000Y39808592D01*
X10958861Y39668525D01*
X10958863Y39668520D01*
X11013513Y39536585D01*
X11092853Y39417844D01*
X11092854Y39417842D01*
X11193840Y39316855D01*
X11193842Y39316854D01*
X11236078Y39288633D01*
X11540982Y39593537D01*
X11591504Y39580000D01*
X12770496Y39580000D01*
X12821015Y39593537D01*
X13125919Y39288633D01*
X13125920Y39288633D01*
X13168159Y39316855D01*
X13269145Y39417842D01*
X13269146Y39417844D01*
X13348486Y39536585D01*
X13403136Y39668520D01*
X13403138Y39668525D01*
X13430999Y39808592D01*
X13431000Y39808596D01*
X13431000Y39951405D01*
X13430999Y39951409D01*
X13403138Y40091476D01*
X13403136Y40091481D01*
X13348486Y40223416D01*
X13269146Y40342157D01*
X13269145Y40342159D01*
X13168159Y40443146D01*
X13168157Y40443147D01*
X13125920Y40471369D01*
X12821015Y40166464D01*
X12770496Y40180000D01*
X11591504Y40180000D01*
X11540984Y40166464D01*
X11236079Y40471369D01*
X11193839Y40443145D01*
X11092854Y40342159D01*
X11092853Y40342157D01*
X11013513Y40223416D01*
X10958863Y40091481D01*
X10958861Y40091476D01*
X10931000Y39951409D01*
X5344500Y39951409D01*
X5344500Y40605000D01*
X11809552Y40605000D01*
X12180999Y40233553D01*
X12181001Y40233553D01*
X12552447Y40605000D01*
X11809552Y40605000D01*
X5344500Y40605000D01*
X5344500Y54356000D01*
X14207540Y54356000D01*
X14227325Y54167744D01*
X14285818Y53987722D01*
X14285822Y53987714D01*
X14380464Y53823788D01*
X14380465Y53823786D01*
X14380467Y53823784D01*
X14480136Y53713091D01*
X14510853Y53649083D01*
X14512500Y53628780D01*
X14512500Y51902792D01*
X14512499Y51902774D01*
X14512499Y51895057D01*
X14512499Y51736943D01*
X14532810Y51661144D01*
X14553423Y51584215D01*
X14553424Y51584212D01*
X14573761Y51548990D01*
X14582360Y51534096D01*
X14632480Y51447284D01*
X14632483Y51447281D01*
X14632486Y51447277D01*
X14751459Y51328304D01*
X14751473Y51328292D01*
X17218635Y48861130D01*
X17252661Y48798818D01*
X17255540Y48772035D01*
X17255540Y48768002D01*
X17275325Y48579744D01*
X17333818Y48399722D01*
X17333822Y48399714D01*
X17428465Y48235786D01*
X17428466Y48235784D01*
X17555126Y48095114D01*
X17708267Y47983851D01*
X17708267Y47983850D01*
X17755612Y47962771D01*
X17881197Y47906856D01*
X18066354Y47867500D01*
X18255646Y47867500D01*
X18440803Y47906856D01*
X18613730Y47983849D01*
X18613730Y47983850D01*
X18613732Y47983850D01*
X18613732Y47983851D01*
X18766871Y48095112D01*
X18893533Y48235784D01*
X18988179Y48399716D01*
X19046674Y48579744D01*
X19066460Y48768000D01*
X19046674Y48956256D01*
X19041801Y48971254D01*
X18988181Y49136279D01*
X18988177Y49136287D01*
X18893534Y49300215D01*
X18893533Y49300217D01*
X18766873Y49440887D01*
X18613732Y49552150D01*
X18613732Y49552151D01*
X18488145Y49608066D01*
X18440803Y49629144D01*
X18440801Y49629145D01*
X18440800Y49629145D01*
X18255646Y49668500D01*
X18161925Y49668500D01*
X18093804Y49688502D01*
X18072830Y49705405D01*
X15750405Y52027830D01*
X15716379Y52090142D01*
X15713500Y52116925D01*
X15713500Y53628780D01*
X15733502Y53696901D01*
X15745864Y53713091D01*
X15845533Y53823784D01*
X15940179Y53987716D01*
X15998674Y54167744D01*
X16018460Y54356000D01*
X15998674Y54544256D01*
X15940179Y54724284D01*
X15845534Y54888215D01*
X15845533Y54888217D01*
X15718873Y55028887D01*
X15565732Y55140150D01*
X15565732Y55140151D01*
X15440145Y55196066D01*
X15392803Y55217144D01*
X15392801Y55217145D01*
X15392800Y55217145D01*
X15207646Y55256500D01*
X15018354Y55256500D01*
X14833199Y55217145D01*
X14660267Y55140151D01*
X14660267Y55140150D01*
X14507126Y55028887D01*
X14380466Y54888217D01*
X14380465Y54888215D01*
X14285822Y54724287D01*
X14285818Y54724279D01*
X14227325Y54544257D01*
X14207540Y54356000D01*
X5344500Y54356000D01*
X5344500Y60960004D01*
X6154675Y60960004D01*
X6154675Y60959997D01*
X6155181Y60949697D01*
X6164801Y60753873D01*
X6173962Y60567413D01*
X6173963Y60567399D01*
X6214920Y60291292D01*
X6231636Y60178600D01*
X6299982Y59905747D01*
X6327144Y59797311D01*
X6399149Y59596072D01*
X6459562Y59427228D01*
X6627619Y59071903D01*
X6627621Y59071900D01*
X6829696Y58734757D01*
X7063834Y58419058D01*
X7063841Y58419050D01*
X7063842Y58419049D01*
X7327808Y58127808D01*
X7619049Y57863842D01*
X7619057Y57863835D01*
X7934756Y57629697D01*
X7934760Y57629695D01*
X7934761Y57629694D01*
X8271903Y57427619D01*
X8627228Y57259562D01*
X8997316Y57127143D01*
X9378600Y57031636D01*
X9767409Y56973962D01*
X10102590Y56957496D01*
X10159996Y56954675D01*
X10160000Y56954675D01*
X10160004Y56954675D01*
X10215384Y56957396D01*
X10552591Y56973962D01*
X10941400Y57031636D01*
X11322684Y57127143D01*
X11692772Y57259562D01*
X12048097Y57427619D01*
X12385239Y57629694D01*
X12647132Y57823927D01*
X12700942Y57863835D01*
X12700943Y57863837D01*
X12700951Y57863842D01*
X12992192Y58127808D01*
X13256158Y58419049D01*
X13262427Y58427501D01*
X13490303Y58734757D01*
X13490302Y58734757D01*
X13490306Y58734761D01*
X13692381Y59071903D01*
X13860438Y59427228D01*
X13992857Y59797316D01*
X14004821Y59845079D01*
X24285000Y59845079D01*
X24285000Y55939336D01*
X24285002Y55939315D01*
X24291408Y55879720D01*
X24291408Y55879719D01*
X24341701Y55744874D01*
X24341703Y55744871D01*
X24341704Y55744869D01*
X24362648Y55716891D01*
X24427953Y55629654D01*
X24483444Y55588114D01*
X24543169Y55543404D01*
X24543171Y55543404D01*
X24543173Y55543402D01*
X24603530Y55520891D01*
X24678014Y55493110D01*
X24678017Y55493109D01*
X24737627Y55486700D01*
X28643372Y55486701D01*
X28702983Y55493109D01*
X28837831Y55543404D01*
X28953046Y55629654D01*
X29039296Y55744869D01*
X29072444Y55833743D01*
X29114990Y55890579D01*
X29181510Y55915391D01*
X29250884Y55900300D01*
X29301087Y55850098D01*
X29308556Y55833743D01*
X29341701Y55744874D01*
X29341703Y55744871D01*
X29341704Y55744869D01*
X29362648Y55716891D01*
X29427953Y55629654D01*
X29483444Y55588114D01*
X29543169Y55543404D01*
X29543171Y55543404D01*
X29543173Y55543402D01*
X29603530Y55520891D01*
X29678014Y55493110D01*
X29678017Y55493109D01*
X29737627Y55486700D01*
X33643372Y55486701D01*
X33702983Y55493109D01*
X33837831Y55543404D01*
X33953046Y55629654D01*
X34039296Y55744869D01*
X34089591Y55879717D01*
X34096000Y55939327D01*
X34096000Y56261000D01*
X46338540Y56261000D01*
X46358325Y56072744D01*
X46416818Y55892722D01*
X46416822Y55892714D01*
X46511465Y55728786D01*
X46511466Y55728784D01*
X46638126Y55588114D01*
X46791267Y55476851D01*
X46791267Y55476850D01*
X46838612Y55455771D01*
X46964197Y55399856D01*
X47149354Y55360500D01*
X47338646Y55360500D01*
X47523803Y55399856D01*
X47696730Y55476849D01*
X47778745Y55536436D01*
X47845613Y55560295D01*
X47852806Y55560500D01*
X70191994Y55560500D01*
X70327328Y55587420D01*
X70454811Y55640225D01*
X70569543Y55716886D01*
X70902114Y56049457D01*
X70978775Y56164189D01*
X71031580Y56291671D01*
X71031802Y56292792D01*
X71032061Y56294086D01*
X71032660Y56295233D01*
X71033377Y56297594D01*
X71033825Y56297459D01*
X71064970Y56356994D01*
X71126666Y56392125D01*
X71155639Y56395501D01*
X71167865Y56395501D01*
X71167872Y56395501D01*
X71227483Y56401909D01*
X71362331Y56452204D01*
X71477546Y56538454D01*
X71527133Y56604694D01*
X71583968Y56647240D01*
X71654783Y56652304D01*
X71717095Y56618279D01*
X71728863Y56604698D01*
X71778454Y56538454D01*
X71893669Y56452204D01*
X71893671Y56452204D01*
X71893673Y56452202D01*
X71954030Y56429691D01*
X72028514Y56401910D01*
X72028517Y56401909D01*
X72088127Y56395500D01*
X73707872Y56395501D01*
X73767483Y56401909D01*
X73902331Y56452204D01*
X74017546Y56538454D01*
X74103796Y56653669D01*
X74154091Y56788517D01*
X74160500Y56848127D01*
X74160499Y58467872D01*
X74154091Y58527483D01*
X74107406Y58652653D01*
X74103798Y58662327D01*
X74103796Y58662330D01*
X74103796Y58662331D01*
X74017546Y58777546D01*
X73951306Y58827134D01*
X73908760Y58883968D01*
X73903696Y58954783D01*
X73937721Y59017095D01*
X73951302Y59028864D01*
X74017546Y59078454D01*
X74103796Y59193669D01*
X74154091Y59328517D01*
X74160500Y59388127D01*
X74160499Y60960004D01*
X77274675Y60960004D01*
X77274675Y60959997D01*
X77275181Y60949697D01*
X77284801Y60753873D01*
X77293962Y60567413D01*
X77293963Y60567399D01*
X77334920Y60291292D01*
X77351636Y60178600D01*
X77419982Y59905747D01*
X77447144Y59797311D01*
X77519149Y59596072D01*
X77579562Y59427228D01*
X77747619Y59071903D01*
X77747621Y59071900D01*
X77949696Y58734757D01*
X78183834Y58419058D01*
X78183841Y58419050D01*
X78183842Y58419049D01*
X78447808Y58127808D01*
X78739049Y57863842D01*
X78739057Y57863835D01*
X79054756Y57629697D01*
X79054760Y57629695D01*
X79054761Y57629694D01*
X79391903Y57427619D01*
X79747228Y57259562D01*
X80117316Y57127143D01*
X80498600Y57031636D01*
X80887409Y56973962D01*
X81222590Y56957496D01*
X81279996Y56954675D01*
X81280000Y56954675D01*
X81280004Y56954675D01*
X81335384Y56957396D01*
X81672591Y56973962D01*
X82061400Y57031636D01*
X82442684Y57127143D01*
X82812772Y57259562D01*
X83168097Y57427619D01*
X83505239Y57629694D01*
X83767132Y57823927D01*
X83820942Y57863835D01*
X83820943Y57863837D01*
X83820951Y57863842D01*
X84112192Y58127808D01*
X84376158Y58419049D01*
X84382427Y58427501D01*
X84610303Y58734757D01*
X84610302Y58734757D01*
X84610306Y58734761D01*
X84812381Y59071903D01*
X84980438Y59427228D01*
X85112857Y59797316D01*
X85208364Y60178600D01*
X85266038Y60567409D01*
X85284819Y60949697D01*
X85285325Y60959997D01*
X85285325Y60960004D01*
X85280948Y61049095D01*
X85266038Y61352591D01*
X85208364Y61741400D01*
X85112857Y62122684D01*
X84980438Y62492772D01*
X84812381Y62848097D01*
X84610306Y63185239D01*
X84610305Y63185240D01*
X84610303Y63185244D01*
X84376165Y63500943D01*
X84376158Y63500951D01*
X84112192Y63792192D01*
X83820951Y64056158D01*
X83820950Y64056159D01*
X83820942Y64056166D01*
X83505243Y64290304D01*
X83168739Y64491996D01*
X83168097Y64492381D01*
X82812772Y64660438D01*
X82781266Y64671711D01*
X82442689Y64792856D01*
X82346995Y64816826D01*
X82061400Y64888364D01*
X82032816Y64892604D01*
X81672601Y64946037D01*
X81672594Y64946038D01*
X81672591Y64946038D01*
X81476295Y64955682D01*
X81280004Y64965325D01*
X81279996Y64965325D01*
X81055662Y64954304D01*
X80887409Y64946038D01*
X80887406Y64946038D01*
X80887398Y64946037D01*
X80498606Y64888365D01*
X80498604Y64888365D01*
X80498600Y64888364D01*
X80307958Y64840611D01*
X80117310Y64792856D01*
X79747230Y64660439D01*
X79747228Y64660438D01*
X79497431Y64542292D01*
X79391899Y64492379D01*
X79054756Y64290304D01*
X78739057Y64056166D01*
X78447808Y63792192D01*
X78183834Y63500943D01*
X77949696Y63185244D01*
X77747621Y62848101D01*
X77579561Y62492770D01*
X77447144Y62122690D01*
X77408189Y61967171D01*
X77351636Y61741400D01*
X77351635Y61741396D01*
X77351635Y61741394D01*
X77293963Y61352602D01*
X77293962Y61352594D01*
X77293962Y61352591D01*
X77292240Y61317547D01*
X77274675Y60960004D01*
X74160499Y60960004D01*
X74160499Y61007872D01*
X74154091Y61067483D01*
X74109434Y61187216D01*
X74103798Y61202327D01*
X74103796Y61202330D01*
X74103796Y61202331D01*
X74060671Y61259939D01*
X74017546Y61317547D01*
X73929146Y61383722D01*
X73902331Y61403796D01*
X73902329Y61403797D01*
X73902326Y61403799D01*
X73767483Y61454091D01*
X73767486Y61454091D01*
X73707873Y61460500D01*
X72088135Y61460500D01*
X72088114Y61460498D01*
X72028519Y61454092D01*
X72028518Y61454092D01*
X71893673Y61403799D01*
X71893670Y61403797D01*
X71778455Y61317548D01*
X71754792Y61285939D01*
X71728866Y61251307D01*
X71672032Y61208761D01*
X71601216Y61203697D01*
X71538904Y61237722D01*
X71527136Y61251303D01*
X71477546Y61317546D01*
X71477544Y61317547D01*
X71477544Y61317548D01*
X71389146Y61383722D01*
X71362331Y61403796D01*
X71362329Y61403797D01*
X71362326Y61403799D01*
X71227483Y61454091D01*
X71227486Y61454091D01*
X71167873Y61460500D01*
X69548135Y61460500D01*
X69548114Y61460498D01*
X69488519Y61454092D01*
X69488518Y61454092D01*
X69353673Y61403799D01*
X69353670Y61403797D01*
X69238455Y61317548D01*
X69214792Y61285939D01*
X69188866Y61251307D01*
X69132032Y61208761D01*
X69061216Y61203697D01*
X68998904Y61237722D01*
X68987136Y61251303D01*
X68937546Y61317546D01*
X68937544Y61317547D01*
X68937544Y61317548D01*
X68849146Y61383722D01*
X68822331Y61403796D01*
X68822329Y61403797D01*
X68822326Y61403799D01*
X68687483Y61454091D01*
X68687486Y61454091D01*
X68627873Y61460500D01*
X67008135Y61460500D01*
X67008114Y61460498D01*
X66948519Y61454092D01*
X66948518Y61454092D01*
X66813673Y61403799D01*
X66813670Y61403797D01*
X66698453Y61317547D01*
X66612203Y61202330D01*
X66612201Y61202327D01*
X66561909Y61067485D01*
X66555500Y61007879D01*
X66555500Y59388136D01*
X66555502Y59388115D01*
X66561908Y59328520D01*
X66561908Y59328519D01*
X66612201Y59193674D01*
X66612203Y59193671D01*
X66612204Y59193669D01*
X66655086Y59136386D01*
X66698452Y59078456D01*
X66698453Y59078456D01*
X66698454Y59078454D01*
X66764693Y59028867D01*
X66807239Y58972032D01*
X66812303Y58901216D01*
X66778278Y58838904D01*
X66764697Y58827137D01*
X66730061Y58801208D01*
X66698452Y58777545D01*
X66612203Y58662330D01*
X66612201Y58662327D01*
X66561909Y58527485D01*
X66555500Y58467879D01*
X66555500Y58467873D01*
X66555500Y57764316D01*
X66555501Y57087500D01*
X66535499Y57019379D01*
X66481843Y56972886D01*
X66429501Y56961500D01*
X47852806Y56961500D01*
X47784685Y56981502D01*
X47778745Y56985564D01*
X47696730Y57045151D01*
X47696728Y57045152D01*
X47654186Y57064093D01*
X47523803Y57122144D01*
X47523801Y57122145D01*
X47523800Y57122145D01*
X47338646Y57161500D01*
X47149354Y57161500D01*
X46964199Y57122145D01*
X46791267Y57045151D01*
X46791267Y57045150D01*
X46638126Y56933887D01*
X46511466Y56793217D01*
X46511465Y56793215D01*
X46416822Y56629287D01*
X46416818Y56629279D01*
X46358325Y56449257D01*
X46338540Y56261000D01*
X34096000Y56261000D01*
X34095999Y59845072D01*
X34089591Y59904683D01*
X34062739Y59976678D01*
X34039298Y60039527D01*
X34039296Y60039530D01*
X34039296Y60039531D01*
X33996171Y60097139D01*
X33953046Y60154747D01*
X33876091Y60212355D01*
X33837831Y60240996D01*
X33837829Y60240997D01*
X33837826Y60240999D01*
X33702983Y60291291D01*
X33702986Y60291291D01*
X33643373Y60297700D01*
X29737635Y60297700D01*
X29737614Y60297698D01*
X29678019Y60291292D01*
X29678018Y60291292D01*
X29543173Y60240999D01*
X29543170Y60240997D01*
X29427953Y60154747D01*
X29341703Y60039530D01*
X29341702Y60039529D01*
X29308556Y59950657D01*
X29266010Y59893821D01*
X29199490Y59869010D01*
X29130115Y59884101D01*
X29079913Y59934303D01*
X29072444Y59950657D01*
X29039297Y60039529D01*
X29039296Y60039530D01*
X29039296Y60039531D01*
X28996171Y60097139D01*
X28953046Y60154747D01*
X28876091Y60212355D01*
X28837831Y60240996D01*
X28837829Y60240997D01*
X28837826Y60240999D01*
X28702983Y60291291D01*
X28702986Y60291291D01*
X28643373Y60297700D01*
X24737635Y60297700D01*
X24737614Y60297698D01*
X24678019Y60291292D01*
X24678018Y60291292D01*
X24543173Y60240999D01*
X24543170Y60240997D01*
X24427953Y60154747D01*
X24341703Y60039530D01*
X24341701Y60039527D01*
X24291409Y59904685D01*
X24285000Y59845079D01*
X14004821Y59845079D01*
X14088364Y60178600D01*
X14146038Y60567409D01*
X14164819Y60949697D01*
X14165325Y60959997D01*
X14165325Y60960004D01*
X14160948Y61049095D01*
X14146038Y61352591D01*
X14088364Y61741400D01*
X13992857Y62122684D01*
X13860438Y62492772D01*
X13692381Y62848097D01*
X13490306Y63185239D01*
X13490305Y63185240D01*
X13490303Y63185244D01*
X13409734Y63293879D01*
X39377500Y63293879D01*
X39377500Y61674136D01*
X39377502Y61674115D01*
X39383908Y61614520D01*
X39383908Y61614519D01*
X39434201Y61479674D01*
X39434203Y61479671D01*
X39434204Y61479669D01*
X39477086Y61422386D01*
X39520452Y61364456D01*
X39520453Y61364456D01*
X39520454Y61364454D01*
X39586693Y61314867D01*
X39629239Y61258032D01*
X39634303Y61187216D01*
X39600278Y61124904D01*
X39586697Y61113137D01*
X39552061Y61087208D01*
X39520452Y61063545D01*
X39434203Y60948330D01*
X39434201Y60948327D01*
X39383909Y60813485D01*
X39377500Y60753879D01*
X39377500Y59134136D01*
X39377502Y59134115D01*
X39383908Y59074520D01*
X39383908Y59074519D01*
X39434201Y58939674D01*
X39434203Y58939671D01*
X39434204Y58939669D01*
X39437325Y58935500D01*
X39520453Y58824454D01*
X39578061Y58781329D01*
X39635669Y58738204D01*
X39635671Y58738204D01*
X39635673Y58738202D01*
X39696030Y58715691D01*
X39770514Y58687910D01*
X39770517Y58687909D01*
X39830127Y58681500D01*
X41449872Y58681501D01*
X41509483Y58687909D01*
X41644331Y58738204D01*
X41759546Y58824454D01*
X41809133Y58890694D01*
X41865968Y58933240D01*
X41936783Y58938304D01*
X41999095Y58904279D01*
X42010863Y58890698D01*
X42060454Y58824454D01*
X42175669Y58738204D01*
X42175671Y58738204D01*
X42175673Y58738202D01*
X42236030Y58715691D01*
X42310514Y58687910D01*
X42310517Y58687909D01*
X42370127Y58681500D01*
X43989872Y58681501D01*
X44049483Y58687909D01*
X44184331Y58738204D01*
X44292143Y58818913D01*
X44358660Y58843722D01*
X44428035Y58828631D01*
X44478237Y58778429D01*
X44485706Y58762075D01*
X44514202Y58685672D01*
X44514203Y58685671D01*
X44514204Y58685669D01*
X44530652Y58663697D01*
X44600453Y58570454D01*
X44657853Y58527485D01*
X44715669Y58484204D01*
X44715671Y58484204D01*
X44715673Y58484202D01*
X44759457Y58467872D01*
X44850514Y58433910D01*
X44850517Y58433909D01*
X44910127Y58427500D01*
X46529872Y58427501D01*
X46589483Y58433909D01*
X46724331Y58484204D01*
X46839546Y58570454D01*
X46925796Y58685669D01*
X46926632Y58687909D01*
X46944106Y58734761D01*
X46954293Y58762075D01*
X46996839Y58818910D01*
X47063358Y58843722D01*
X47132733Y58828631D01*
X47147858Y58818911D01*
X47183020Y58792589D01*
X47255669Y58738204D01*
X47255671Y58738204D01*
X47255673Y58738202D01*
X47316030Y58715691D01*
X47390514Y58687910D01*
X47390517Y58687909D01*
X47450127Y58681500D01*
X49069872Y58681501D01*
X49129483Y58687909D01*
X49264331Y58738204D01*
X49379546Y58824454D01*
X49429133Y58890694D01*
X49485968Y58933240D01*
X49556783Y58938304D01*
X49619095Y58904279D01*
X49630863Y58890698D01*
X49680454Y58824454D01*
X49795669Y58738204D01*
X49795671Y58738204D01*
X49795673Y58738202D01*
X49856030Y58715691D01*
X49930514Y58687910D01*
X49930517Y58687909D01*
X49990127Y58681500D01*
X51609872Y58681501D01*
X51669483Y58687909D01*
X51804331Y58738204D01*
X51824791Y58753521D01*
X51891310Y58778332D01*
X51960684Y58763241D01*
X52010887Y58713040D01*
X52026300Y58652653D01*
X52026300Y57823936D01*
X52026302Y57823915D01*
X52032708Y57764320D01*
X52032708Y57764319D01*
X52083001Y57629474D01*
X52083003Y57629471D01*
X52169253Y57514254D01*
X52226861Y57471129D01*
X52284469Y57428004D01*
X52284471Y57428004D01*
X52284473Y57428002D01*
X52344830Y57405491D01*
X52419314Y57377710D01*
X52419317Y57377709D01*
X52478927Y57371300D01*
X54251072Y57371301D01*
X54310683Y57377709D01*
X54445531Y57428004D01*
X54560746Y57514254D01*
X54646996Y57629469D01*
X54697291Y57764317D01*
X54703700Y57823927D01*
X54703700Y57983500D01*
X54723702Y58051621D01*
X54777358Y58098114D01*
X54829700Y58109500D01*
X58200301Y58109500D01*
X58268422Y58089498D01*
X58314915Y58035842D01*
X58326301Y57983500D01*
X58326301Y57823936D01*
X58326302Y57823915D01*
X58332708Y57764320D01*
X58332708Y57764319D01*
X58383001Y57629474D01*
X58383003Y57629471D01*
X58469253Y57514254D01*
X58526861Y57471129D01*
X58584469Y57428004D01*
X58584471Y57428004D01*
X58584473Y57428002D01*
X58644830Y57405491D01*
X58719314Y57377710D01*
X58719317Y57377709D01*
X58778927Y57371300D01*
X60551072Y57371301D01*
X60610683Y57377709D01*
X60745531Y57428004D01*
X60860746Y57514254D01*
X60946996Y57629469D01*
X60997291Y57764317D01*
X61003700Y57823927D01*
X61003699Y59596072D01*
X60997291Y59655683D01*
X60967500Y59735556D01*
X60946998Y59790527D01*
X60946996Y59790530D01*
X60946996Y59790531D01*
X60888247Y59869010D01*
X60860746Y59905747D01*
X60765993Y59976678D01*
X60745531Y59991996D01*
X60745529Y59991997D01*
X60745526Y59991999D01*
X60610683Y60042291D01*
X60610686Y60042291D01*
X60551073Y60048700D01*
X58778935Y60048700D01*
X58778914Y60048698D01*
X58719319Y60042292D01*
X58719318Y60042292D01*
X58584473Y59991999D01*
X58584470Y59991997D01*
X58469253Y59905747D01*
X58383003Y59790530D01*
X58383001Y59790527D01*
X58332709Y59655685D01*
X58326300Y59596079D01*
X58326300Y59436500D01*
X58306298Y59368379D01*
X58252642Y59321886D01*
X58200300Y59310500D01*
X54829699Y59310500D01*
X54761578Y59330502D01*
X54715085Y59384158D01*
X54703699Y59436500D01*
X54703699Y59596065D01*
X54703699Y59596072D01*
X54697291Y59655683D01*
X54667500Y59735556D01*
X54646998Y59790527D01*
X54646996Y59790530D01*
X54646996Y59790531D01*
X54588247Y59869010D01*
X54560746Y59905747D01*
X54465993Y59976678D01*
X54445531Y59991996D01*
X54445529Y59991997D01*
X54445526Y59991999D01*
X54310683Y60042291D01*
X54310686Y60042291D01*
X54251073Y60048700D01*
X52478935Y60048700D01*
X52478914Y60048698D01*
X52419319Y60042292D01*
X52419318Y60042292D01*
X52284473Y59991999D01*
X52284471Y59991998D01*
X52264007Y59976678D01*
X52197487Y59951868D01*
X52128113Y59966960D01*
X52077911Y60017162D01*
X52062499Y60077547D01*
X52062499Y60753865D01*
X52062499Y60753872D01*
X52056091Y60813483D01*
X52011434Y60933216D01*
X52005798Y60948327D01*
X52005796Y60948330D01*
X52005796Y60948331D01*
X51919546Y61063546D01*
X51853306Y61113134D01*
X51810760Y61169968D01*
X51805696Y61240783D01*
X51839721Y61303095D01*
X51853302Y61314864D01*
X51919546Y61364454D01*
X52005796Y61479669D01*
X52056091Y61614517D01*
X52062500Y61674127D01*
X52062499Y61842455D01*
X52082501Y61910573D01*
X52136156Y61957066D01*
X52206430Y61967171D01*
X52264006Y61943323D01*
X52284469Y61928004D01*
X52284470Y61928004D01*
X52284471Y61928003D01*
X52284473Y61928002D01*
X52331204Y61910573D01*
X52419314Y61877710D01*
X52419317Y61877709D01*
X52478927Y61871300D01*
X54251072Y61871301D01*
X54310683Y61877709D01*
X54445531Y61928004D01*
X54560746Y62014254D01*
X54646996Y62129469D01*
X54697291Y62264317D01*
X54703700Y62323927D01*
X54703699Y64096072D01*
X54703698Y64096079D01*
X58326300Y64096079D01*
X58326300Y62323936D01*
X58326302Y62323915D01*
X58332708Y62264320D01*
X58332708Y62264319D01*
X58383001Y62129474D01*
X58383003Y62129471D01*
X58383004Y62129469D01*
X58411645Y62091209D01*
X58469253Y62014254D01*
X58526861Y61971129D01*
X58584469Y61928004D01*
X58584471Y61928004D01*
X58584473Y61928002D01*
X58631204Y61910573D01*
X58719314Y61877710D01*
X58719317Y61877709D01*
X58778927Y61871300D01*
X60551072Y61871301D01*
X60610683Y61877709D01*
X60745531Y61928004D01*
X60860746Y62014254D01*
X60946996Y62129469D01*
X60997291Y62264317D01*
X61003700Y62323927D01*
X61003699Y64096072D01*
X60997291Y64155683D01*
X60947080Y64290306D01*
X60946998Y64290527D01*
X60946996Y64290530D01*
X60946996Y64290531D01*
X60903871Y64348139D01*
X60860746Y64405747D01*
X60783791Y64463355D01*
X60745531Y64491996D01*
X60745529Y64491997D01*
X60745526Y64491999D01*
X60610683Y64542291D01*
X60610686Y64542291D01*
X60551073Y64548700D01*
X58778935Y64548700D01*
X58778914Y64548698D01*
X58719319Y64542292D01*
X58719318Y64542292D01*
X58584473Y64491999D01*
X58584470Y64491997D01*
X58469253Y64405747D01*
X58383003Y64290530D01*
X58383001Y64290527D01*
X58332709Y64155685D01*
X58326300Y64096079D01*
X54703698Y64096079D01*
X54697291Y64155683D01*
X54647080Y64290306D01*
X54646998Y64290527D01*
X54646996Y64290530D01*
X54646996Y64290531D01*
X54603871Y64348139D01*
X54560746Y64405747D01*
X54483791Y64463355D01*
X54445531Y64491996D01*
X54445529Y64491997D01*
X54445526Y64491999D01*
X54310683Y64542291D01*
X54310686Y64542291D01*
X54251073Y64548700D01*
X52478935Y64548700D01*
X52478914Y64548698D01*
X52419319Y64542292D01*
X52419318Y64542292D01*
X52284473Y64491999D01*
X52284470Y64491997D01*
X52169253Y64405747D01*
X52083003Y64290530D01*
X52083001Y64290527D01*
X52032709Y64155685D01*
X52026300Y64096079D01*
X52026300Y63775348D01*
X52006298Y63707227D01*
X51952642Y63660734D01*
X51882368Y63650630D01*
X51824792Y63674479D01*
X51804329Y63689798D01*
X51804326Y63689799D01*
X51669483Y63740091D01*
X51669486Y63740091D01*
X51609873Y63746500D01*
X49990135Y63746500D01*
X49990114Y63746498D01*
X49930519Y63740092D01*
X49930518Y63740092D01*
X49795673Y63689799D01*
X49795670Y63689797D01*
X49680455Y63603548D01*
X49680454Y63603546D01*
X49630866Y63537307D01*
X49574032Y63494761D01*
X49503216Y63489697D01*
X49440904Y63523722D01*
X49429136Y63537303D01*
X49379546Y63603546D01*
X49379544Y63603547D01*
X49379544Y63603548D01*
X49303153Y63660734D01*
X49264331Y63689796D01*
X49264329Y63689797D01*
X49264326Y63689799D01*
X49129483Y63740091D01*
X49129486Y63740091D01*
X49069873Y63746500D01*
X47450135Y63746500D01*
X47450114Y63746498D01*
X47390519Y63740092D01*
X47390518Y63740092D01*
X47255673Y63689799D01*
X47255670Y63689797D01*
X47140453Y63603547D01*
X47054203Y63488330D01*
X47054202Y63488329D01*
X47025706Y63411926D01*
X46983159Y63355090D01*
X46916639Y63330279D01*
X46847265Y63345370D01*
X46832141Y63355090D01*
X46727590Y63433356D01*
X46724331Y63435796D01*
X46724329Y63435797D01*
X46724326Y63435799D01*
X46589483Y63486091D01*
X46589486Y63486091D01*
X46529873Y63492500D01*
X44910135Y63492500D01*
X44910114Y63492498D01*
X44850519Y63486092D01*
X44850518Y63486092D01*
X44715673Y63435799D01*
X44715670Y63435797D01*
X44607858Y63355090D01*
X44541337Y63330279D01*
X44471963Y63345371D01*
X44421761Y63395573D01*
X44414293Y63411927D01*
X44385798Y63488327D01*
X44385796Y63488330D01*
X44385796Y63488331D01*
X44342671Y63545939D01*
X44299546Y63603547D01*
X44204792Y63674479D01*
X44184331Y63689796D01*
X44184329Y63689797D01*
X44184326Y63689799D01*
X44049483Y63740091D01*
X44049486Y63740091D01*
X43989873Y63746500D01*
X42370135Y63746500D01*
X42370114Y63746498D01*
X42310519Y63740092D01*
X42310518Y63740092D01*
X42175673Y63689799D01*
X42175670Y63689797D01*
X42060455Y63603548D01*
X42060454Y63603546D01*
X42010866Y63537307D01*
X41954032Y63494761D01*
X41883216Y63489697D01*
X41820904Y63523722D01*
X41809136Y63537303D01*
X41759546Y63603546D01*
X41759544Y63603547D01*
X41759544Y63603548D01*
X41683153Y63660734D01*
X41644331Y63689796D01*
X41644329Y63689797D01*
X41644326Y63689799D01*
X41509483Y63740091D01*
X41509486Y63740091D01*
X41449873Y63746500D01*
X39830135Y63746500D01*
X39830114Y63746498D01*
X39770519Y63740092D01*
X39770518Y63740092D01*
X39635673Y63689799D01*
X39635670Y63689797D01*
X39520453Y63603547D01*
X39434203Y63488330D01*
X39434201Y63488327D01*
X39383909Y63353485D01*
X39377500Y63293879D01*
X13409734Y63293879D01*
X13256165Y63500943D01*
X13256158Y63500951D01*
X12992192Y63792192D01*
X12700951Y64056158D01*
X12700950Y64056159D01*
X12700942Y64056166D01*
X12385243Y64290304D01*
X12048739Y64491996D01*
X12048097Y64492381D01*
X11692772Y64660438D01*
X11661266Y64671711D01*
X11322689Y64792856D01*
X11226995Y64816826D01*
X10941400Y64888364D01*
X10912816Y64892604D01*
X10552601Y64946037D01*
X10552594Y64946038D01*
X10552591Y64946038D01*
X10356295Y64955682D01*
X10160004Y64965325D01*
X10159996Y64965325D01*
X9935662Y64954304D01*
X9767409Y64946038D01*
X9767406Y64946038D01*
X9767398Y64946037D01*
X9378606Y64888365D01*
X9378604Y64888365D01*
X9378600Y64888364D01*
X9187958Y64840611D01*
X8997310Y64792856D01*
X8627230Y64660439D01*
X8627228Y64660438D01*
X8377431Y64542292D01*
X8271899Y64492379D01*
X7934756Y64290304D01*
X7619057Y64056166D01*
X7327808Y63792192D01*
X7063834Y63500943D01*
X6829696Y63185244D01*
X6627621Y62848101D01*
X6459561Y62492770D01*
X6327144Y62122690D01*
X6288189Y61967171D01*
X6231636Y61741400D01*
X6231635Y61741396D01*
X6231635Y61741394D01*
X6173963Y61352602D01*
X6173962Y61352594D01*
X6173962Y61352591D01*
X6172240Y61317547D01*
X6154675Y60960004D01*
X5344500Y60960004D01*
X5344500Y65649500D01*
X5364502Y65717621D01*
X5418158Y65764114D01*
X5470500Y65775500D01*
X85969500Y65775500D01*
X86037621Y65755498D01*
G37*
%TD.AperFunction*%
%TD*%
M02*
