M48
; DRILL file {KiCad 8.0.3+1} date 2024-07-22T17:15:41+0000
; FORMAT={3:3/ absolute / metric / suppress leading zeros}
; #@! TF.CreationDate,2024-07-22T17:15:41+00:00
; #@! TF.GenerationSoftware,Kicad,Pcbnew,8.0.3+1
; #@! TF.FileFunction,Plated,1,2,PTH
FMAT,2
METRIC,TZ
; #@! TA.AperFunction,Plated,PTH,ViaDrill
T1C0.200
; #@! TA.AperFunction,Plated,PTH,ComponentDrill
T2C0.200
; #@! TA.AperFunction,Plated,PTH,ViaDrill
T3C0.400
; #@! TA.AperFunction,Plated,PTH,ComponentDrill
T4C0.600
; #@! TA.AperFunction,Plated,PTH,ComponentDrill
T5C0.889
; #@! TA.AperFunction,Plated,PTH,ComponentDrill
T6C1.000
; #@! TA.AperFunction,Plated,PTH,ComponentDrill
T7C1.300
; #@! TA.AperFunction,Plated,PTH,ComponentDrill
T8C1.600
; #@! TA.AperFunction,Plated,PTH,ComponentDrill
T9C3.000
%
G90
G05
T1
X34345Y29028
T2
X51573Y27489
X51573Y26289
X51573Y25089
X52973Y27489
X52973Y26289
X52973Y25089
X61822Y36194
T3
X14390Y36266
X14478Y32893
X14605Y38227
X15113Y54356
X16129Y18923
X17018Y33209
X18161Y48768
X21590Y26797
X26162Y31369
X26289Y27498
X26785Y48603
X27809Y28569
X28418Y32354
X30226Y23622
X30636Y29026
X30734Y32512
X31369Y29718
X31497Y30606
X32196Y29080
X32258Y23622
X32766Y37592
X33707Y40047
X33726Y41047
X34012Y36195
X35172Y33012
X35687Y28133
X35941Y33779
X36632Y38874
X37912Y31869
X38735Y42697
X39167Y40107
X40132Y37465
X40335Y42697
X43279Y33007
X43751Y39351
X45264Y40151
X46163Y38184
X46685Y31217
X47244Y56261
X47269Y37033
X48895Y37643
X49588Y38364
X49847Y50800
X49847Y49350
X53188Y34061
X54153Y35128
X54813Y39116
X55830Y34494
X56136Y37552
X57259Y35044
X57938Y36326
X58167Y37726
X58937Y38935
X59974Y38299
X61138Y13335
X61265Y41300
X62382Y41173
X63254Y42908
X63959Y38752
X63967Y34094
X65070Y32011
X66205Y38861
X66243Y31979
X66650Y42494
X67918Y36006
X68097Y43459
X68148Y13640
X69037Y30124
X69291Y13462
X70671Y43890
T5
X35179Y12903
X35179Y10363
X37719Y12903
X37719Y10363
X40259Y12903
X40259Y10363
X40640Y62484
X40640Y59944
X42799Y12903
X42799Y10363
X43180Y62484
X43180Y59944
X45720Y62230
X45720Y59690
X46685Y12954
X46685Y10414
X46685Y7874
X48260Y62484
X48260Y59944
X49225Y12954
X49225Y10414
X49225Y7874
X50800Y62484
X50800Y59944
X65278Y60198
X65278Y57658
X67818Y60198
X67818Y57658
X70358Y60198
X70358Y57658
X72898Y60198
X72898Y57658
X75438Y60198
X75438Y57658
T6
X52984Y13299
X52984Y8799
X53365Y63210
X53365Y58710
X59284Y13299
X59284Y8799
X59665Y63210
X59665Y58710
T7
X19956Y13276
X19956Y8323
X24955Y13276
X24955Y8323
X26690Y62896
X26690Y57892
X31690Y62896
X31690Y57892
T8
X9470Y45210
X9470Y25910
X81970Y45210
X81970Y25910
T9
X10160Y60960
X10160Y10160
X81280Y60960
X81280Y10160
T4
G00X7601Y39880
M15
G01X8401Y39880
M16
G05
G00X7601Y31240
M15
G01X8401Y31240
M16
G05
G00X11631Y39880
M15
G01X12731Y39880
M16
G05
G00X11631Y31240
M15
G01X12731Y31240
M16
G05
M30
