M48
; DRILL file {KiCad 8.0.3+1} date 2024-07-20T17:55:20+0000
; FORMAT={3:3/ absolute / metric / suppress leading zeros}
; #@! TF.CreationDate,2024-07-20T17:55:20+00:00
; #@! TF.GenerationSoftware,Kicad,Pcbnew,8.0.3+1
; #@! TF.FileFunction,Plated,1,2,PTH
FMAT,2
METRIC,TZ
; #@! TA.AperFunction,Plated,PTH,ComponentDrill
T1C0.200
; #@! TA.AperFunction,Plated,PTH,ComponentDrill
T2C0.500
; #@! TA.AperFunction,Plated,PTH,ComponentDrill
T3C0.600
; #@! TA.AperFunction,Plated,PTH,ComponentDrill
T4C0.889
; #@! TA.AperFunction,Plated,PTH,ComponentDrill
T5C1.300
; #@! TA.AperFunction,Plated,PTH,ComponentDrill
T6C1.600
; #@! TA.AperFunction,Plated,PTH,ComponentDrill
T7C3.000
%
G90
G05
T1
X61436Y30294
X61436Y29594
X62136Y30294
X62136Y29594
T4
X39307Y10132
X41847Y10132
X46418Y61948
X46418Y59408
X56769Y63119
X56769Y60579
X59309Y63119
X59309Y60579
X65278Y60198
X65278Y57658
X66802Y11811
X66802Y9271
X67818Y60198
X67818Y57658
X69342Y11811
X69342Y9271
X70358Y60198
X70358Y57658
X71882Y11811
X71882Y9271
X72898Y60198
X72898Y57658
X74422Y11811
X74422Y9271
X75438Y60198
X75438Y57658
T5
X19126Y62820
X19126Y57816
X19956Y13276
X19956Y8323
X24126Y62820
X24126Y57816
X24955Y13276
X24955Y8323
T6
X9470Y45210
X9470Y25910
X81970Y45210
X81970Y25910
T7
X10160Y60960
X10160Y10160
X81280Y60960
X81280Y10160
T2
G00X48743Y-4849
M15
G01X48743Y-5249
M16
G05
G00X52993Y-4849
M15
G01X52993Y-5249
M16
G05
G00X58213Y-5202
M15
G01X58213Y-5602
M16
G05
G00X62463Y-5202
M15
G01X62463Y-5602
M16
G05
T3
G00X7601Y39880
M15
G01X8401Y39880
M16
G05
G00X7601Y31240
M15
G01X8401Y31240
M16
G05
G00X11631Y39880
M15
G01X12731Y39880
M16
G05
G00X11631Y31240
M15
G01X12731Y31240
M16
G05
M30
