%TF.GenerationSoftware,KiCad,Pcbnew,8.0.3+1*%
%TF.CreationDate,2024-07-24T20:19:20+00:00*%
%TF.ProjectId,LION2CELL02,4c494f4e-3243-4454-9c4c-30322e6b6963,rev?*%
%TF.SameCoordinates,Original*%
%TF.FileFunction,Legend,Bot*%
%TF.FilePolarity,Positive*%
%FSLAX46Y46*%
G04 Gerber Fmt 4.6, Leading zero omitted, Abs format (unit mm)*
G04 Created by KiCad (PCBNEW 8.0.3+1) date 2024-07-24 20:19:20*
%MOMM*%
%LPD*%
G01*
G04 APERTURE LIST*
%ADD10C,0.150000*%
%ADD11C,0.120000*%
%ADD12C,0.200000*%
G04 APERTURE END LIST*
D10*
X21974980Y39409667D02*
X22022600Y39457286D01*
X22022600Y39457286D02*
X22070219Y39600143D01*
X22070219Y39600143D02*
X22070219Y39695381D01*
X22070219Y39695381D02*
X22022600Y39838238D01*
X22022600Y39838238D02*
X21927361Y39933476D01*
X21927361Y39933476D02*
X21832123Y39981095D01*
X21832123Y39981095D02*
X21641647Y40028714D01*
X21641647Y40028714D02*
X21498790Y40028714D01*
X21498790Y40028714D02*
X21308314Y39981095D01*
X21308314Y39981095D02*
X21213076Y39933476D01*
X21213076Y39933476D02*
X21117838Y39838238D01*
X21117838Y39838238D02*
X21070219Y39695381D01*
X21070219Y39695381D02*
X21070219Y39600143D01*
X21070219Y39600143D02*
X21117838Y39457286D01*
X21117838Y39457286D02*
X21165457Y39409667D01*
X22070219Y38457286D02*
X22070219Y39028714D01*
X22070219Y38743000D02*
X21070219Y38743000D01*
X21070219Y38743000D02*
X21213076Y38838238D01*
X21213076Y38838238D02*
X21308314Y38933476D01*
X21308314Y38933476D02*
X21355933Y39028714D01*
X33135866Y23262420D02*
X33183485Y23214800D01*
X33183485Y23214800D02*
X33326342Y23167181D01*
X33326342Y23167181D02*
X33421580Y23167181D01*
X33421580Y23167181D02*
X33564437Y23214800D01*
X33564437Y23214800D02*
X33659675Y23310039D01*
X33659675Y23310039D02*
X33707294Y23405277D01*
X33707294Y23405277D02*
X33754913Y23595753D01*
X33754913Y23595753D02*
X33754913Y23738610D01*
X33754913Y23738610D02*
X33707294Y23929086D01*
X33707294Y23929086D02*
X33659675Y24024324D01*
X33659675Y24024324D02*
X33564437Y24119562D01*
X33564437Y24119562D02*
X33421580Y24167181D01*
X33421580Y24167181D02*
X33326342Y24167181D01*
X33326342Y24167181D02*
X33183485Y24119562D01*
X33183485Y24119562D02*
X33135866Y24071943D01*
X32231104Y24167181D02*
X32707294Y24167181D01*
X32707294Y24167181D02*
X32754913Y23690991D01*
X32754913Y23690991D02*
X32707294Y23738610D01*
X32707294Y23738610D02*
X32612056Y23786229D01*
X32612056Y23786229D02*
X32373961Y23786229D01*
X32373961Y23786229D02*
X32278723Y23738610D01*
X32278723Y23738610D02*
X32231104Y23690991D01*
X32231104Y23690991D02*
X32183485Y23595753D01*
X32183485Y23595753D02*
X32183485Y23357658D01*
X32183485Y23357658D02*
X32231104Y23262420D01*
X32231104Y23262420D02*
X32278723Y23214800D01*
X32278723Y23214800D02*
X32373961Y23167181D01*
X32373961Y23167181D02*
X32612056Y23167181D01*
X32612056Y23167181D02*
X32707294Y23214800D01*
X32707294Y23214800D02*
X32754913Y23262420D01*
X36097380Y21782067D02*
X36145000Y21829686D01*
X36145000Y21829686D02*
X36192619Y21972543D01*
X36192619Y21972543D02*
X36192619Y22067781D01*
X36192619Y22067781D02*
X36145000Y22210638D01*
X36145000Y22210638D02*
X36049761Y22305876D01*
X36049761Y22305876D02*
X35954523Y22353495D01*
X35954523Y22353495D02*
X35764047Y22401114D01*
X35764047Y22401114D02*
X35621190Y22401114D01*
X35621190Y22401114D02*
X35430714Y22353495D01*
X35430714Y22353495D02*
X35335476Y22305876D01*
X35335476Y22305876D02*
X35240238Y22210638D01*
X35240238Y22210638D02*
X35192619Y22067781D01*
X35192619Y22067781D02*
X35192619Y21972543D01*
X35192619Y21972543D02*
X35240238Y21829686D01*
X35240238Y21829686D02*
X35287857Y21782067D01*
X35192619Y20924924D02*
X35192619Y21115400D01*
X35192619Y21115400D02*
X35240238Y21210638D01*
X35240238Y21210638D02*
X35287857Y21258257D01*
X35287857Y21258257D02*
X35430714Y21353495D01*
X35430714Y21353495D02*
X35621190Y21401114D01*
X35621190Y21401114D02*
X36002142Y21401114D01*
X36002142Y21401114D02*
X36097380Y21353495D01*
X36097380Y21353495D02*
X36145000Y21305876D01*
X36145000Y21305876D02*
X36192619Y21210638D01*
X36192619Y21210638D02*
X36192619Y21020162D01*
X36192619Y21020162D02*
X36145000Y20924924D01*
X36145000Y20924924D02*
X36097380Y20877305D01*
X36097380Y20877305D02*
X36002142Y20829686D01*
X36002142Y20829686D02*
X35764047Y20829686D01*
X35764047Y20829686D02*
X35668809Y20877305D01*
X35668809Y20877305D02*
X35621190Y20924924D01*
X35621190Y20924924D02*
X35573571Y21020162D01*
X35573571Y21020162D02*
X35573571Y21210638D01*
X35573571Y21210638D02*
X35621190Y21305876D01*
X35621190Y21305876D02*
X35668809Y21353495D01*
X35668809Y21353495D02*
X35764047Y21401114D01*
X45292180Y21705867D02*
X45339800Y21753486D01*
X45339800Y21753486D02*
X45387419Y21896343D01*
X45387419Y21896343D02*
X45387419Y21991581D01*
X45387419Y21991581D02*
X45339800Y22134438D01*
X45339800Y22134438D02*
X45244561Y22229676D01*
X45244561Y22229676D02*
X45149323Y22277295D01*
X45149323Y22277295D02*
X44958847Y22324914D01*
X44958847Y22324914D02*
X44815990Y22324914D01*
X44815990Y22324914D02*
X44625514Y22277295D01*
X44625514Y22277295D02*
X44530276Y22229676D01*
X44530276Y22229676D02*
X44435038Y22134438D01*
X44435038Y22134438D02*
X44387419Y21991581D01*
X44387419Y21991581D02*
X44387419Y21896343D01*
X44387419Y21896343D02*
X44435038Y21753486D01*
X44435038Y21753486D02*
X44482657Y21705867D01*
X44387419Y21372533D02*
X44387419Y20705867D01*
X44387419Y20705867D02*
X45387419Y21134438D01*
X43742780Y28487667D02*
X43790400Y28535286D01*
X43790400Y28535286D02*
X43838019Y28678143D01*
X43838019Y28678143D02*
X43838019Y28773381D01*
X43838019Y28773381D02*
X43790400Y28916238D01*
X43790400Y28916238D02*
X43695161Y29011476D01*
X43695161Y29011476D02*
X43599923Y29059095D01*
X43599923Y29059095D02*
X43409447Y29106714D01*
X43409447Y29106714D02*
X43266590Y29106714D01*
X43266590Y29106714D02*
X43076114Y29059095D01*
X43076114Y29059095D02*
X42980876Y29011476D01*
X42980876Y29011476D02*
X42885638Y28916238D01*
X42885638Y28916238D02*
X42838019Y28773381D01*
X42838019Y28773381D02*
X42838019Y28678143D01*
X42838019Y28678143D02*
X42885638Y28535286D01*
X42885638Y28535286D02*
X42933257Y28487667D01*
X43266590Y27916238D02*
X43218971Y28011476D01*
X43218971Y28011476D02*
X43171352Y28059095D01*
X43171352Y28059095D02*
X43076114Y28106714D01*
X43076114Y28106714D02*
X43028495Y28106714D01*
X43028495Y28106714D02*
X42933257Y28059095D01*
X42933257Y28059095D02*
X42885638Y28011476D01*
X42885638Y28011476D02*
X42838019Y27916238D01*
X42838019Y27916238D02*
X42838019Y27725762D01*
X42838019Y27725762D02*
X42885638Y27630524D01*
X42885638Y27630524D02*
X42933257Y27582905D01*
X42933257Y27582905D02*
X43028495Y27535286D01*
X43028495Y27535286D02*
X43076114Y27535286D01*
X43076114Y27535286D02*
X43171352Y27582905D01*
X43171352Y27582905D02*
X43218971Y27630524D01*
X43218971Y27630524D02*
X43266590Y27725762D01*
X43266590Y27725762D02*
X43266590Y27916238D01*
X43266590Y27916238D02*
X43314209Y28011476D01*
X43314209Y28011476D02*
X43361828Y28059095D01*
X43361828Y28059095D02*
X43457066Y28106714D01*
X43457066Y28106714D02*
X43647542Y28106714D01*
X43647542Y28106714D02*
X43742780Y28059095D01*
X43742780Y28059095D02*
X43790400Y28011476D01*
X43790400Y28011476D02*
X43838019Y27916238D01*
X43838019Y27916238D02*
X43838019Y27725762D01*
X43838019Y27725762D02*
X43790400Y27630524D01*
X43790400Y27630524D02*
X43742780Y27582905D01*
X43742780Y27582905D02*
X43647542Y27535286D01*
X43647542Y27535286D02*
X43457066Y27535286D01*
X43457066Y27535286D02*
X43361828Y27582905D01*
X43361828Y27582905D02*
X43314209Y27630524D01*
X43314209Y27630524D02*
X43266590Y27725762D01*
X27410580Y31307067D02*
X27458200Y31354686D01*
X27458200Y31354686D02*
X27505819Y31497543D01*
X27505819Y31497543D02*
X27505819Y31592781D01*
X27505819Y31592781D02*
X27458200Y31735638D01*
X27458200Y31735638D02*
X27362961Y31830876D01*
X27362961Y31830876D02*
X27267723Y31878495D01*
X27267723Y31878495D02*
X27077247Y31926114D01*
X27077247Y31926114D02*
X26934390Y31926114D01*
X26934390Y31926114D02*
X26743914Y31878495D01*
X26743914Y31878495D02*
X26648676Y31830876D01*
X26648676Y31830876D02*
X26553438Y31735638D01*
X26553438Y31735638D02*
X26505819Y31592781D01*
X26505819Y31592781D02*
X26505819Y31497543D01*
X26505819Y31497543D02*
X26553438Y31354686D01*
X26553438Y31354686D02*
X26601057Y31307067D01*
X27505819Y30830876D02*
X27505819Y30640400D01*
X27505819Y30640400D02*
X27458200Y30545162D01*
X27458200Y30545162D02*
X27410580Y30497543D01*
X27410580Y30497543D02*
X27267723Y30402305D01*
X27267723Y30402305D02*
X27077247Y30354686D01*
X27077247Y30354686D02*
X26696295Y30354686D01*
X26696295Y30354686D02*
X26601057Y30402305D01*
X26601057Y30402305D02*
X26553438Y30449924D01*
X26553438Y30449924D02*
X26505819Y30545162D01*
X26505819Y30545162D02*
X26505819Y30735638D01*
X26505819Y30735638D02*
X26553438Y30830876D01*
X26553438Y30830876D02*
X26601057Y30878495D01*
X26601057Y30878495D02*
X26696295Y30926114D01*
X26696295Y30926114D02*
X26934390Y30926114D01*
X26934390Y30926114D02*
X27029628Y30878495D01*
X27029628Y30878495D02*
X27077247Y30830876D01*
X27077247Y30830876D02*
X27124866Y30735638D01*
X27124866Y30735638D02*
X27124866Y30545162D01*
X27124866Y30545162D02*
X27077247Y30449924D01*
X27077247Y30449924D02*
X27029628Y30402305D01*
X27029628Y30402305D02*
X26934390Y30354686D01*
X44203857Y32177820D02*
X44251476Y32130200D01*
X44251476Y32130200D02*
X44394333Y32082581D01*
X44394333Y32082581D02*
X44489571Y32082581D01*
X44489571Y32082581D02*
X44632428Y32130200D01*
X44632428Y32130200D02*
X44727666Y32225439D01*
X44727666Y32225439D02*
X44775285Y32320677D01*
X44775285Y32320677D02*
X44822904Y32511153D01*
X44822904Y32511153D02*
X44822904Y32654010D01*
X44822904Y32654010D02*
X44775285Y32844486D01*
X44775285Y32844486D02*
X44727666Y32939724D01*
X44727666Y32939724D02*
X44632428Y33034962D01*
X44632428Y33034962D02*
X44489571Y33082581D01*
X44489571Y33082581D02*
X44394333Y33082581D01*
X44394333Y33082581D02*
X44251476Y33034962D01*
X44251476Y33034962D02*
X44203857Y32987343D01*
X43251476Y32082581D02*
X43822904Y32082581D01*
X43537190Y32082581D02*
X43537190Y33082581D01*
X43537190Y33082581D02*
X43632428Y32939724D01*
X43632428Y32939724D02*
X43727666Y32844486D01*
X43727666Y32844486D02*
X43822904Y32796867D01*
X42299095Y32082581D02*
X42870523Y32082581D01*
X42584809Y32082581D02*
X42584809Y33082581D01*
X42584809Y33082581D02*
X42680047Y32939724D01*
X42680047Y32939724D02*
X42775285Y32844486D01*
X42775285Y32844486D02*
X42870523Y32796867D01*
X67163961Y41577924D02*
X67211580Y41530304D01*
X67211580Y41530304D02*
X67354437Y41482685D01*
X67354437Y41482685D02*
X67449675Y41482685D01*
X67449675Y41482685D02*
X67592532Y41530304D01*
X67592532Y41530304D02*
X67687770Y41625543D01*
X67687770Y41625543D02*
X67735389Y41720781D01*
X67735389Y41720781D02*
X67783008Y41911257D01*
X67783008Y41911257D02*
X67783008Y42054114D01*
X67783008Y42054114D02*
X67735389Y42244590D01*
X67735389Y42244590D02*
X67687770Y42339828D01*
X67687770Y42339828D02*
X67592532Y42435066D01*
X67592532Y42435066D02*
X67449675Y42482685D01*
X67449675Y42482685D02*
X67354437Y42482685D01*
X67354437Y42482685D02*
X67211580Y42435066D01*
X67211580Y42435066D02*
X67163961Y42387447D01*
X66211580Y41482685D02*
X66783008Y41482685D01*
X66497294Y41482685D02*
X66497294Y42482685D01*
X66497294Y42482685D02*
X66592532Y42339828D01*
X66592532Y42339828D02*
X66687770Y42244590D01*
X66687770Y42244590D02*
X66783008Y42196971D01*
X65354437Y42482685D02*
X65544913Y42482685D01*
X65544913Y42482685D02*
X65640151Y42435066D01*
X65640151Y42435066D02*
X65687770Y42387447D01*
X65687770Y42387447D02*
X65783008Y42244590D01*
X65783008Y42244590D02*
X65830627Y42054114D01*
X65830627Y42054114D02*
X65830627Y41673162D01*
X65830627Y41673162D02*
X65783008Y41577924D01*
X65783008Y41577924D02*
X65735389Y41530304D01*
X65735389Y41530304D02*
X65640151Y41482685D01*
X65640151Y41482685D02*
X65449675Y41482685D01*
X65449675Y41482685D02*
X65354437Y41530304D01*
X65354437Y41530304D02*
X65306818Y41577924D01*
X65306818Y41577924D02*
X65259199Y41673162D01*
X65259199Y41673162D02*
X65259199Y41911257D01*
X65259199Y41911257D02*
X65306818Y42006495D01*
X65306818Y42006495D02*
X65354437Y42054114D01*
X65354437Y42054114D02*
X65449675Y42101733D01*
X65449675Y42101733D02*
X65640151Y42101733D01*
X65640151Y42101733D02*
X65735389Y42054114D01*
X65735389Y42054114D02*
X65783008Y42006495D01*
X65783008Y42006495D02*
X65830627Y41911257D01*
X69498380Y34170858D02*
X69546000Y34218477D01*
X69546000Y34218477D02*
X69593619Y34361334D01*
X69593619Y34361334D02*
X69593619Y34456572D01*
X69593619Y34456572D02*
X69546000Y34599429D01*
X69546000Y34599429D02*
X69450761Y34694667D01*
X69450761Y34694667D02*
X69355523Y34742286D01*
X69355523Y34742286D02*
X69165047Y34789905D01*
X69165047Y34789905D02*
X69022190Y34789905D01*
X69022190Y34789905D02*
X68831714Y34742286D01*
X68831714Y34742286D02*
X68736476Y34694667D01*
X68736476Y34694667D02*
X68641238Y34599429D01*
X68641238Y34599429D02*
X68593619Y34456572D01*
X68593619Y34456572D02*
X68593619Y34361334D01*
X68593619Y34361334D02*
X68641238Y34218477D01*
X68641238Y34218477D02*
X68688857Y34170858D01*
X69593619Y33218477D02*
X69593619Y33789905D01*
X69593619Y33504191D02*
X68593619Y33504191D01*
X68593619Y33504191D02*
X68736476Y33599429D01*
X68736476Y33599429D02*
X68831714Y33694667D01*
X68831714Y33694667D02*
X68879333Y33789905D01*
X68593619Y32885143D02*
X68593619Y32218477D01*
X68593619Y32218477D02*
X69593619Y32647048D01*
X67136180Y34323258D02*
X67183800Y34370877D01*
X67183800Y34370877D02*
X67231419Y34513734D01*
X67231419Y34513734D02*
X67231419Y34608972D01*
X67231419Y34608972D02*
X67183800Y34751829D01*
X67183800Y34751829D02*
X67088561Y34847067D01*
X67088561Y34847067D02*
X66993323Y34894686D01*
X66993323Y34894686D02*
X66802847Y34942305D01*
X66802847Y34942305D02*
X66659990Y34942305D01*
X66659990Y34942305D02*
X66469514Y34894686D01*
X66469514Y34894686D02*
X66374276Y34847067D01*
X66374276Y34847067D02*
X66279038Y34751829D01*
X66279038Y34751829D02*
X66231419Y34608972D01*
X66231419Y34608972D02*
X66231419Y34513734D01*
X66231419Y34513734D02*
X66279038Y34370877D01*
X66279038Y34370877D02*
X66326657Y34323258D01*
X67231419Y33370877D02*
X67231419Y33942305D01*
X67231419Y33656591D02*
X66231419Y33656591D01*
X66231419Y33656591D02*
X66374276Y33751829D01*
X66374276Y33751829D02*
X66469514Y33847067D01*
X66469514Y33847067D02*
X66517133Y33942305D01*
X66659990Y32799448D02*
X66612371Y32894686D01*
X66612371Y32894686D02*
X66564752Y32942305D01*
X66564752Y32942305D02*
X66469514Y32989924D01*
X66469514Y32989924D02*
X66421895Y32989924D01*
X66421895Y32989924D02*
X66326657Y32942305D01*
X66326657Y32942305D02*
X66279038Y32894686D01*
X66279038Y32894686D02*
X66231419Y32799448D01*
X66231419Y32799448D02*
X66231419Y32608972D01*
X66231419Y32608972D02*
X66279038Y32513734D01*
X66279038Y32513734D02*
X66326657Y32466115D01*
X66326657Y32466115D02*
X66421895Y32418496D01*
X66421895Y32418496D02*
X66469514Y32418496D01*
X66469514Y32418496D02*
X66564752Y32466115D01*
X66564752Y32466115D02*
X66612371Y32513734D01*
X66612371Y32513734D02*
X66659990Y32608972D01*
X66659990Y32608972D02*
X66659990Y32799448D01*
X66659990Y32799448D02*
X66707609Y32894686D01*
X66707609Y32894686D02*
X66755228Y32942305D01*
X66755228Y32942305D02*
X66850466Y32989924D01*
X66850466Y32989924D02*
X67040942Y32989924D01*
X67040942Y32989924D02*
X67136180Y32942305D01*
X67136180Y32942305D02*
X67183800Y32894686D01*
X67183800Y32894686D02*
X67231419Y32799448D01*
X67231419Y32799448D02*
X67231419Y32608972D01*
X67231419Y32608972D02*
X67183800Y32513734D01*
X67183800Y32513734D02*
X67136180Y32466115D01*
X67136180Y32466115D02*
X67040942Y32418496D01*
X67040942Y32418496D02*
X66850466Y32418496D01*
X66850466Y32418496D02*
X66755228Y32466115D01*
X66755228Y32466115D02*
X66707609Y32513734D01*
X66707609Y32513734D02*
X66659990Y32608972D01*
X32772366Y15496381D02*
X33248556Y15496381D01*
X33248556Y15496381D02*
X33248556Y16496381D01*
X31915223Y15496381D02*
X32486651Y15496381D01*
X32200937Y15496381D02*
X32200937Y16496381D01*
X32200937Y16496381D02*
X32296175Y16353524D01*
X32296175Y16353524D02*
X32391413Y16258286D01*
X32391413Y16258286D02*
X32486651Y16210667D01*
X42891857Y51631839D02*
X42844238Y51727077D01*
X42844238Y51727077D02*
X42749000Y51822315D01*
X42749000Y51822315D02*
X42606142Y51965172D01*
X42606142Y51965172D02*
X42558523Y52060410D01*
X42558523Y52060410D02*
X42558523Y52155648D01*
X42796619Y52108029D02*
X42749000Y52203267D01*
X42749000Y52203267D02*
X42653761Y52298505D01*
X42653761Y52298505D02*
X42463285Y52346124D01*
X42463285Y52346124D02*
X42129952Y52346124D01*
X42129952Y52346124D02*
X41939476Y52298505D01*
X41939476Y52298505D02*
X41844238Y52203267D01*
X41844238Y52203267D02*
X41796619Y52108029D01*
X41796619Y52108029D02*
X41796619Y51917553D01*
X41796619Y51917553D02*
X41844238Y51822315D01*
X41844238Y51822315D02*
X41939476Y51727077D01*
X41939476Y51727077D02*
X42129952Y51679458D01*
X42129952Y51679458D02*
X42463285Y51679458D01*
X42463285Y51679458D02*
X42653761Y51727077D01*
X42653761Y51727077D02*
X42749000Y51822315D01*
X42749000Y51822315D02*
X42796619Y51917553D01*
X42796619Y51917553D02*
X42796619Y52108029D01*
X42796619Y50727077D02*
X42796619Y51298505D01*
X42796619Y51012791D02*
X41796619Y51012791D01*
X41796619Y51012791D02*
X41939476Y51108029D01*
X41939476Y51108029D02*
X42034714Y51203267D01*
X42034714Y51203267D02*
X42082333Y51298505D01*
X16803666Y38279181D02*
X17136999Y38755372D01*
X17375094Y38279181D02*
X17375094Y39279181D01*
X17375094Y39279181D02*
X16994142Y39279181D01*
X16994142Y39279181D02*
X16898904Y39231562D01*
X16898904Y39231562D02*
X16851285Y39183943D01*
X16851285Y39183943D02*
X16803666Y39088705D01*
X16803666Y39088705D02*
X16803666Y38945848D01*
X16803666Y38945848D02*
X16851285Y38850610D01*
X16851285Y38850610D02*
X16898904Y38802991D01*
X16898904Y38802991D02*
X16994142Y38755372D01*
X16994142Y38755372D02*
X17375094Y38755372D01*
X15851285Y38279181D02*
X16422713Y38279181D01*
X16136999Y38279181D02*
X16136999Y39279181D01*
X16136999Y39279181D02*
X16232237Y39136324D01*
X16232237Y39136324D02*
X16327475Y39041086D01*
X16327475Y39041086D02*
X16422713Y38993467D01*
X32399266Y36781581D02*
X32732599Y37257772D01*
X32970694Y36781581D02*
X32970694Y37781581D01*
X32970694Y37781581D02*
X32589742Y37781581D01*
X32589742Y37781581D02*
X32494504Y37733962D01*
X32494504Y37733962D02*
X32446885Y37686343D01*
X32446885Y37686343D02*
X32399266Y37591105D01*
X32399266Y37591105D02*
X32399266Y37448248D01*
X32399266Y37448248D02*
X32446885Y37353010D01*
X32446885Y37353010D02*
X32494504Y37305391D01*
X32494504Y37305391D02*
X32589742Y37257772D01*
X32589742Y37257772D02*
X32970694Y37257772D01*
X32065932Y37781581D02*
X31446885Y37781581D01*
X31446885Y37781581D02*
X31780218Y37400629D01*
X31780218Y37400629D02*
X31637361Y37400629D01*
X31637361Y37400629D02*
X31542123Y37353010D01*
X31542123Y37353010D02*
X31494504Y37305391D01*
X31494504Y37305391D02*
X31446885Y37210153D01*
X31446885Y37210153D02*
X31446885Y36972058D01*
X31446885Y36972058D02*
X31494504Y36876820D01*
X31494504Y36876820D02*
X31542123Y36829200D01*
X31542123Y36829200D02*
X31637361Y36781581D01*
X31637361Y36781581D02*
X31923075Y36781581D01*
X31923075Y36781581D02*
X32018313Y36829200D01*
X32018313Y36829200D02*
X32065932Y36876820D01*
X33948666Y32920781D02*
X34281999Y33396972D01*
X34520094Y32920781D02*
X34520094Y33920781D01*
X34520094Y33920781D02*
X34139142Y33920781D01*
X34139142Y33920781D02*
X34043904Y33873162D01*
X34043904Y33873162D02*
X33996285Y33825543D01*
X33996285Y33825543D02*
X33948666Y33730305D01*
X33948666Y33730305D02*
X33948666Y33587448D01*
X33948666Y33587448D02*
X33996285Y33492210D01*
X33996285Y33492210D02*
X34043904Y33444591D01*
X34043904Y33444591D02*
X34139142Y33396972D01*
X34139142Y33396972D02*
X34520094Y33396972D01*
X33043904Y33920781D02*
X33520094Y33920781D01*
X33520094Y33920781D02*
X33567713Y33444591D01*
X33567713Y33444591D02*
X33520094Y33492210D01*
X33520094Y33492210D02*
X33424856Y33539829D01*
X33424856Y33539829D02*
X33186761Y33539829D01*
X33186761Y33539829D02*
X33091523Y33492210D01*
X33091523Y33492210D02*
X33043904Y33444591D01*
X33043904Y33444591D02*
X32996285Y33349353D01*
X32996285Y33349353D02*
X32996285Y33111258D01*
X32996285Y33111258D02*
X33043904Y33016020D01*
X33043904Y33016020D02*
X33091523Y32968400D01*
X33091523Y32968400D02*
X33186761Y32920781D01*
X33186761Y32920781D02*
X33424856Y32920781D01*
X33424856Y32920781D02*
X33520094Y32968400D01*
X33520094Y32968400D02*
X33567713Y33016020D01*
X36192619Y43016467D02*
X35716428Y43349800D01*
X36192619Y43587895D02*
X35192619Y43587895D01*
X35192619Y43587895D02*
X35192619Y43206943D01*
X35192619Y43206943D02*
X35240238Y43111705D01*
X35240238Y43111705D02*
X35287857Y43064086D01*
X35287857Y43064086D02*
X35383095Y43016467D01*
X35383095Y43016467D02*
X35525952Y43016467D01*
X35525952Y43016467D02*
X35621190Y43064086D01*
X35621190Y43064086D02*
X35668809Y43111705D01*
X35668809Y43111705D02*
X35716428Y43206943D01*
X35716428Y43206943D02*
X35716428Y43587895D01*
X35192619Y42159324D02*
X35192619Y42349800D01*
X35192619Y42349800D02*
X35240238Y42445038D01*
X35240238Y42445038D02*
X35287857Y42492657D01*
X35287857Y42492657D02*
X35430714Y42587895D01*
X35430714Y42587895D02*
X35621190Y42635514D01*
X35621190Y42635514D02*
X36002142Y42635514D01*
X36002142Y42635514D02*
X36097380Y42587895D01*
X36097380Y42587895D02*
X36145000Y42540276D01*
X36145000Y42540276D02*
X36192619Y42445038D01*
X36192619Y42445038D02*
X36192619Y42254562D01*
X36192619Y42254562D02*
X36145000Y42159324D01*
X36145000Y42159324D02*
X36097380Y42111705D01*
X36097380Y42111705D02*
X36002142Y42064086D01*
X36002142Y42064086D02*
X35764047Y42064086D01*
X35764047Y42064086D02*
X35668809Y42111705D01*
X35668809Y42111705D02*
X35621190Y42159324D01*
X35621190Y42159324D02*
X35573571Y42254562D01*
X35573571Y42254562D02*
X35573571Y42445038D01*
X35573571Y42445038D02*
X35621190Y42540276D01*
X35621190Y42540276D02*
X35668809Y42587895D01*
X35668809Y42587895D02*
X35764047Y42635514D01*
X19378819Y28436867D02*
X18902628Y28770200D01*
X19378819Y29008295D02*
X18378819Y29008295D01*
X18378819Y29008295D02*
X18378819Y28627343D01*
X18378819Y28627343D02*
X18426438Y28532105D01*
X18426438Y28532105D02*
X18474057Y28484486D01*
X18474057Y28484486D02*
X18569295Y28436867D01*
X18569295Y28436867D02*
X18712152Y28436867D01*
X18712152Y28436867D02*
X18807390Y28484486D01*
X18807390Y28484486D02*
X18855009Y28532105D01*
X18855009Y28532105D02*
X18902628Y28627343D01*
X18902628Y28627343D02*
X18902628Y29008295D01*
X18378819Y28103533D02*
X18378819Y27436867D01*
X18378819Y27436867D02*
X19378819Y27865438D01*
X41873466Y36349781D02*
X42206799Y36825972D01*
X42444894Y36349781D02*
X42444894Y37349781D01*
X42444894Y37349781D02*
X42063942Y37349781D01*
X42063942Y37349781D02*
X41968704Y37302162D01*
X41968704Y37302162D02*
X41921085Y37254543D01*
X41921085Y37254543D02*
X41873466Y37159305D01*
X41873466Y37159305D02*
X41873466Y37016448D01*
X41873466Y37016448D02*
X41921085Y36921210D01*
X41921085Y36921210D02*
X41968704Y36873591D01*
X41968704Y36873591D02*
X42063942Y36825972D01*
X42063942Y36825972D02*
X42444894Y36825972D01*
X41302037Y36921210D02*
X41397275Y36968829D01*
X41397275Y36968829D02*
X41444894Y37016448D01*
X41444894Y37016448D02*
X41492513Y37111686D01*
X41492513Y37111686D02*
X41492513Y37159305D01*
X41492513Y37159305D02*
X41444894Y37254543D01*
X41444894Y37254543D02*
X41397275Y37302162D01*
X41397275Y37302162D02*
X41302037Y37349781D01*
X41302037Y37349781D02*
X41111561Y37349781D01*
X41111561Y37349781D02*
X41016323Y37302162D01*
X41016323Y37302162D02*
X40968704Y37254543D01*
X40968704Y37254543D02*
X40921085Y37159305D01*
X40921085Y37159305D02*
X40921085Y37111686D01*
X40921085Y37111686D02*
X40968704Y37016448D01*
X40968704Y37016448D02*
X41016323Y36968829D01*
X41016323Y36968829D02*
X41111561Y36921210D01*
X41111561Y36921210D02*
X41302037Y36921210D01*
X41302037Y36921210D02*
X41397275Y36873591D01*
X41397275Y36873591D02*
X41444894Y36825972D01*
X41444894Y36825972D02*
X41492513Y36730734D01*
X41492513Y36730734D02*
X41492513Y36540258D01*
X41492513Y36540258D02*
X41444894Y36445020D01*
X41444894Y36445020D02*
X41397275Y36397400D01*
X41397275Y36397400D02*
X41302037Y36349781D01*
X41302037Y36349781D02*
X41111561Y36349781D01*
X41111561Y36349781D02*
X41016323Y36397400D01*
X41016323Y36397400D02*
X40968704Y36445020D01*
X40968704Y36445020D02*
X40921085Y36540258D01*
X40921085Y36540258D02*
X40921085Y36730734D01*
X40921085Y36730734D02*
X40968704Y36825972D01*
X40968704Y36825972D02*
X41016323Y36873591D01*
X41016323Y36873591D02*
X41111561Y36921210D01*
X41543266Y27993181D02*
X41876599Y28469372D01*
X42114694Y27993181D02*
X42114694Y28993181D01*
X42114694Y28993181D02*
X41733742Y28993181D01*
X41733742Y28993181D02*
X41638504Y28945562D01*
X41638504Y28945562D02*
X41590885Y28897943D01*
X41590885Y28897943D02*
X41543266Y28802705D01*
X41543266Y28802705D02*
X41543266Y28659848D01*
X41543266Y28659848D02*
X41590885Y28564610D01*
X41590885Y28564610D02*
X41638504Y28516991D01*
X41638504Y28516991D02*
X41733742Y28469372D01*
X41733742Y28469372D02*
X42114694Y28469372D01*
X41067075Y27993181D02*
X40876599Y27993181D01*
X40876599Y27993181D02*
X40781361Y28040800D01*
X40781361Y28040800D02*
X40733742Y28088420D01*
X40733742Y28088420D02*
X40638504Y28231277D01*
X40638504Y28231277D02*
X40590885Y28421753D01*
X40590885Y28421753D02*
X40590885Y28802705D01*
X40590885Y28802705D02*
X40638504Y28897943D01*
X40638504Y28897943D02*
X40686123Y28945562D01*
X40686123Y28945562D02*
X40781361Y28993181D01*
X40781361Y28993181D02*
X40971837Y28993181D01*
X40971837Y28993181D02*
X41067075Y28945562D01*
X41067075Y28945562D02*
X41114694Y28897943D01*
X41114694Y28897943D02*
X41162313Y28802705D01*
X41162313Y28802705D02*
X41162313Y28564610D01*
X41162313Y28564610D02*
X41114694Y28469372D01*
X41114694Y28469372D02*
X41067075Y28421753D01*
X41067075Y28421753D02*
X40971837Y28374134D01*
X40971837Y28374134D02*
X40781361Y28374134D01*
X40781361Y28374134D02*
X40686123Y28421753D01*
X40686123Y28421753D02*
X40638504Y28469372D01*
X40638504Y28469372D02*
X40590885Y28564610D01*
X43822857Y64060181D02*
X44156190Y64536372D01*
X44394285Y64060181D02*
X44394285Y65060181D01*
X44394285Y65060181D02*
X44013333Y65060181D01*
X44013333Y65060181D02*
X43918095Y65012562D01*
X43918095Y65012562D02*
X43870476Y64964943D01*
X43870476Y64964943D02*
X43822857Y64869705D01*
X43822857Y64869705D02*
X43822857Y64726848D01*
X43822857Y64726848D02*
X43870476Y64631610D01*
X43870476Y64631610D02*
X43918095Y64583991D01*
X43918095Y64583991D02*
X44013333Y64536372D01*
X44013333Y64536372D02*
X44394285Y64536372D01*
X42870476Y64060181D02*
X43441904Y64060181D01*
X43156190Y64060181D02*
X43156190Y65060181D01*
X43156190Y65060181D02*
X43251428Y64917324D01*
X43251428Y64917324D02*
X43346666Y64822086D01*
X43346666Y64822086D02*
X43441904Y64774467D01*
X41918095Y64060181D02*
X42489523Y64060181D01*
X42203809Y64060181D02*
X42203809Y65060181D01*
X42203809Y65060181D02*
X42299047Y64917324D01*
X42299047Y64917324D02*
X42394285Y64822086D01*
X42394285Y64822086D02*
X42489523Y64774467D01*
X15398819Y50045858D02*
X14922628Y50379191D01*
X15398819Y50617286D02*
X14398819Y50617286D01*
X14398819Y50617286D02*
X14398819Y50236334D01*
X14398819Y50236334D02*
X14446438Y50141096D01*
X14446438Y50141096D02*
X14494057Y50093477D01*
X14494057Y50093477D02*
X14589295Y50045858D01*
X14589295Y50045858D02*
X14732152Y50045858D01*
X14732152Y50045858D02*
X14827390Y50093477D01*
X14827390Y50093477D02*
X14875009Y50141096D01*
X14875009Y50141096D02*
X14922628Y50236334D01*
X14922628Y50236334D02*
X14922628Y50617286D01*
X15398819Y49093477D02*
X15398819Y49664905D01*
X15398819Y49379191D02*
X14398819Y49379191D01*
X14398819Y49379191D02*
X14541676Y49474429D01*
X14541676Y49474429D02*
X14636914Y49569667D01*
X14636914Y49569667D02*
X14684533Y49664905D01*
X14398819Y48760143D02*
X14398819Y48093477D01*
X14398819Y48093477D02*
X15398819Y48522048D01*
X21648657Y47678181D02*
X21981990Y48154372D01*
X22220085Y47678181D02*
X22220085Y48678181D01*
X22220085Y48678181D02*
X21839133Y48678181D01*
X21839133Y48678181D02*
X21743895Y48630562D01*
X21743895Y48630562D02*
X21696276Y48582943D01*
X21696276Y48582943D02*
X21648657Y48487705D01*
X21648657Y48487705D02*
X21648657Y48344848D01*
X21648657Y48344848D02*
X21696276Y48249610D01*
X21696276Y48249610D02*
X21743895Y48201991D01*
X21743895Y48201991D02*
X21839133Y48154372D01*
X21839133Y48154372D02*
X22220085Y48154372D01*
X20696276Y47678181D02*
X21267704Y47678181D01*
X20981990Y47678181D02*
X20981990Y48678181D01*
X20981990Y48678181D02*
X21077228Y48535324D01*
X21077228Y48535324D02*
X21172466Y48440086D01*
X21172466Y48440086D02*
X21267704Y48392467D01*
X20124847Y48249610D02*
X20220085Y48297229D01*
X20220085Y48297229D02*
X20267704Y48344848D01*
X20267704Y48344848D02*
X20315323Y48440086D01*
X20315323Y48440086D02*
X20315323Y48487705D01*
X20315323Y48487705D02*
X20267704Y48582943D01*
X20267704Y48582943D02*
X20220085Y48630562D01*
X20220085Y48630562D02*
X20124847Y48678181D01*
X20124847Y48678181D02*
X19934371Y48678181D01*
X19934371Y48678181D02*
X19839133Y48630562D01*
X19839133Y48630562D02*
X19791514Y48582943D01*
X19791514Y48582943D02*
X19743895Y48487705D01*
X19743895Y48487705D02*
X19743895Y48440086D01*
X19743895Y48440086D02*
X19791514Y48344848D01*
X19791514Y48344848D02*
X19839133Y48297229D01*
X19839133Y48297229D02*
X19934371Y48249610D01*
X19934371Y48249610D02*
X20124847Y48249610D01*
X20124847Y48249610D02*
X20220085Y48201991D01*
X20220085Y48201991D02*
X20267704Y48154372D01*
X20267704Y48154372D02*
X20315323Y48059134D01*
X20315323Y48059134D02*
X20315323Y47868658D01*
X20315323Y47868658D02*
X20267704Y47773420D01*
X20267704Y47773420D02*
X20220085Y47725800D01*
X20220085Y47725800D02*
X20124847Y47678181D01*
X20124847Y47678181D02*
X19934371Y47678181D01*
X19934371Y47678181D02*
X19839133Y47725800D01*
X19839133Y47725800D02*
X19791514Y47773420D01*
X19791514Y47773420D02*
X19743895Y47868658D01*
X19743895Y47868658D02*
X19743895Y48059134D01*
X19743895Y48059134D02*
X19791514Y48154372D01*
X19791514Y48154372D02*
X19839133Y48201991D01*
X19839133Y48201991D02*
X19934371Y48249610D01*
X28735257Y43639581D02*
X29068590Y44115772D01*
X29306685Y43639581D02*
X29306685Y44639581D01*
X29306685Y44639581D02*
X28925733Y44639581D01*
X28925733Y44639581D02*
X28830495Y44591962D01*
X28830495Y44591962D02*
X28782876Y44544343D01*
X28782876Y44544343D02*
X28735257Y44449105D01*
X28735257Y44449105D02*
X28735257Y44306248D01*
X28735257Y44306248D02*
X28782876Y44211010D01*
X28782876Y44211010D02*
X28830495Y44163391D01*
X28830495Y44163391D02*
X28925733Y44115772D01*
X28925733Y44115772D02*
X29306685Y44115772D01*
X27782876Y43639581D02*
X28354304Y43639581D01*
X28068590Y43639581D02*
X28068590Y44639581D01*
X28068590Y44639581D02*
X28163828Y44496724D01*
X28163828Y44496724D02*
X28259066Y44401486D01*
X28259066Y44401486D02*
X28354304Y44353867D01*
X27306685Y43639581D02*
X27116209Y43639581D01*
X27116209Y43639581D02*
X27020971Y43687200D01*
X27020971Y43687200D02*
X26973352Y43734820D01*
X26973352Y43734820D02*
X26878114Y43877677D01*
X26878114Y43877677D02*
X26830495Y44068153D01*
X26830495Y44068153D02*
X26830495Y44449105D01*
X26830495Y44449105D02*
X26878114Y44544343D01*
X26878114Y44544343D02*
X26925733Y44591962D01*
X26925733Y44591962D02*
X27020971Y44639581D01*
X27020971Y44639581D02*
X27211447Y44639581D01*
X27211447Y44639581D02*
X27306685Y44591962D01*
X27306685Y44591962D02*
X27354304Y44544343D01*
X27354304Y44544343D02*
X27401923Y44449105D01*
X27401923Y44449105D02*
X27401923Y44211010D01*
X27401923Y44211010D02*
X27354304Y44115772D01*
X27354304Y44115772D02*
X27306685Y44068153D01*
X27306685Y44068153D02*
X27211447Y44020534D01*
X27211447Y44020534D02*
X27020971Y44020534D01*
X27020971Y44020534D02*
X26925733Y44068153D01*
X26925733Y44068153D02*
X26878114Y44115772D01*
X26878114Y44115772D02*
X26830495Y44211010D01*
X60246419Y44991258D02*
X59770228Y45324591D01*
X60246419Y45562686D02*
X59246419Y45562686D01*
X59246419Y45562686D02*
X59246419Y45181734D01*
X59246419Y45181734D02*
X59294038Y45086496D01*
X59294038Y45086496D02*
X59341657Y45038877D01*
X59341657Y45038877D02*
X59436895Y44991258D01*
X59436895Y44991258D02*
X59579752Y44991258D01*
X59579752Y44991258D02*
X59674990Y45038877D01*
X59674990Y45038877D02*
X59722609Y45086496D01*
X59722609Y45086496D02*
X59770228Y45181734D01*
X59770228Y45181734D02*
X59770228Y45562686D01*
X59341657Y44610305D02*
X59294038Y44562686D01*
X59294038Y44562686D02*
X59246419Y44467448D01*
X59246419Y44467448D02*
X59246419Y44229353D01*
X59246419Y44229353D02*
X59294038Y44134115D01*
X59294038Y44134115D02*
X59341657Y44086496D01*
X59341657Y44086496D02*
X59436895Y44038877D01*
X59436895Y44038877D02*
X59532133Y44038877D01*
X59532133Y44038877D02*
X59674990Y44086496D01*
X59674990Y44086496D02*
X60246419Y44657924D01*
X60246419Y44657924D02*
X60246419Y44038877D01*
X59246419Y43419829D02*
X59246419Y43324591D01*
X59246419Y43324591D02*
X59294038Y43229353D01*
X59294038Y43229353D02*
X59341657Y43181734D01*
X59341657Y43181734D02*
X59436895Y43134115D01*
X59436895Y43134115D02*
X59627371Y43086496D01*
X59627371Y43086496D02*
X59865466Y43086496D01*
X59865466Y43086496D02*
X60055942Y43134115D01*
X60055942Y43134115D02*
X60151180Y43181734D01*
X60151180Y43181734D02*
X60198800Y43229353D01*
X60198800Y43229353D02*
X60246419Y43324591D01*
X60246419Y43324591D02*
X60246419Y43419829D01*
X60246419Y43419829D02*
X60198800Y43515067D01*
X60198800Y43515067D02*
X60151180Y43562686D01*
X60151180Y43562686D02*
X60055942Y43610305D01*
X60055942Y43610305D02*
X59865466Y43657924D01*
X59865466Y43657924D02*
X59627371Y43657924D01*
X59627371Y43657924D02*
X59436895Y43610305D01*
X59436895Y43610305D02*
X59341657Y43562686D01*
X59341657Y43562686D02*
X59294038Y43515067D01*
X59294038Y43515067D02*
X59246419Y43419829D01*
X34160619Y47963058D02*
X33684428Y48296391D01*
X34160619Y48534486D02*
X33160619Y48534486D01*
X33160619Y48534486D02*
X33160619Y48153534D01*
X33160619Y48153534D02*
X33208238Y48058296D01*
X33208238Y48058296D02*
X33255857Y48010677D01*
X33255857Y48010677D02*
X33351095Y47963058D01*
X33351095Y47963058D02*
X33493952Y47963058D01*
X33493952Y47963058D02*
X33589190Y48010677D01*
X33589190Y48010677D02*
X33636809Y48058296D01*
X33636809Y48058296D02*
X33684428Y48153534D01*
X33684428Y48153534D02*
X33684428Y48534486D01*
X33255857Y47582105D02*
X33208238Y47534486D01*
X33208238Y47534486D02*
X33160619Y47439248D01*
X33160619Y47439248D02*
X33160619Y47201153D01*
X33160619Y47201153D02*
X33208238Y47105915D01*
X33208238Y47105915D02*
X33255857Y47058296D01*
X33255857Y47058296D02*
X33351095Y47010677D01*
X33351095Y47010677D02*
X33446333Y47010677D01*
X33446333Y47010677D02*
X33589190Y47058296D01*
X33589190Y47058296D02*
X34160619Y47629724D01*
X34160619Y47629724D02*
X34160619Y47010677D01*
X33160619Y46677343D02*
X33160619Y46058296D01*
X33160619Y46058296D02*
X33541571Y46391629D01*
X33541571Y46391629D02*
X33541571Y46248772D01*
X33541571Y46248772D02*
X33589190Y46153534D01*
X33589190Y46153534D02*
X33636809Y46105915D01*
X33636809Y46105915D02*
X33732047Y46058296D01*
X33732047Y46058296D02*
X33970142Y46058296D01*
X33970142Y46058296D02*
X34065380Y46105915D01*
X34065380Y46105915D02*
X34113000Y46153534D01*
X34113000Y46153534D02*
X34160619Y46248772D01*
X34160619Y46248772D02*
X34160619Y46534486D01*
X34160619Y46534486D02*
X34113000Y46629724D01*
X34113000Y46629724D02*
X34065380Y46677343D01*
X53017657Y39220981D02*
X53350990Y39697172D01*
X53589085Y39220981D02*
X53589085Y40220981D01*
X53589085Y40220981D02*
X53208133Y40220981D01*
X53208133Y40220981D02*
X53112895Y40173362D01*
X53112895Y40173362D02*
X53065276Y40125743D01*
X53065276Y40125743D02*
X53017657Y40030505D01*
X53017657Y40030505D02*
X53017657Y39887648D01*
X53017657Y39887648D02*
X53065276Y39792410D01*
X53065276Y39792410D02*
X53112895Y39744791D01*
X53112895Y39744791D02*
X53208133Y39697172D01*
X53208133Y39697172D02*
X53589085Y39697172D01*
X52636704Y40125743D02*
X52589085Y40173362D01*
X52589085Y40173362D02*
X52493847Y40220981D01*
X52493847Y40220981D02*
X52255752Y40220981D01*
X52255752Y40220981D02*
X52160514Y40173362D01*
X52160514Y40173362D02*
X52112895Y40125743D01*
X52112895Y40125743D02*
X52065276Y40030505D01*
X52065276Y40030505D02*
X52065276Y39935267D01*
X52065276Y39935267D02*
X52112895Y39792410D01*
X52112895Y39792410D02*
X52684323Y39220981D01*
X52684323Y39220981D02*
X52065276Y39220981D01*
X51208133Y39887648D02*
X51208133Y39220981D01*
X51446228Y40268600D02*
X51684323Y39554315D01*
X51684323Y39554315D02*
X51065276Y39554315D01*
X38742857Y43996181D02*
X39076190Y44472372D01*
X39314285Y43996181D02*
X39314285Y44996181D01*
X39314285Y44996181D02*
X38933333Y44996181D01*
X38933333Y44996181D02*
X38838095Y44948562D01*
X38838095Y44948562D02*
X38790476Y44900943D01*
X38790476Y44900943D02*
X38742857Y44805705D01*
X38742857Y44805705D02*
X38742857Y44662848D01*
X38742857Y44662848D02*
X38790476Y44567610D01*
X38790476Y44567610D02*
X38838095Y44519991D01*
X38838095Y44519991D02*
X38933333Y44472372D01*
X38933333Y44472372D02*
X39314285Y44472372D01*
X38361904Y44900943D02*
X38314285Y44948562D01*
X38314285Y44948562D02*
X38219047Y44996181D01*
X38219047Y44996181D02*
X37980952Y44996181D01*
X37980952Y44996181D02*
X37885714Y44948562D01*
X37885714Y44948562D02*
X37838095Y44900943D01*
X37838095Y44900943D02*
X37790476Y44805705D01*
X37790476Y44805705D02*
X37790476Y44710467D01*
X37790476Y44710467D02*
X37838095Y44567610D01*
X37838095Y44567610D02*
X38409523Y43996181D01*
X38409523Y43996181D02*
X37790476Y43996181D01*
X37457142Y44996181D02*
X36790476Y44996181D01*
X36790476Y44996181D02*
X37219047Y43996181D01*
X21028819Y43111658D02*
X20552628Y43444991D01*
X21028819Y43683086D02*
X20028819Y43683086D01*
X20028819Y43683086D02*
X20028819Y43302134D01*
X20028819Y43302134D02*
X20076438Y43206896D01*
X20076438Y43206896D02*
X20124057Y43159277D01*
X20124057Y43159277D02*
X20219295Y43111658D01*
X20219295Y43111658D02*
X20362152Y43111658D01*
X20362152Y43111658D02*
X20457390Y43159277D01*
X20457390Y43159277D02*
X20505009Y43206896D01*
X20505009Y43206896D02*
X20552628Y43302134D01*
X20552628Y43302134D02*
X20552628Y43683086D01*
X20124057Y42730705D02*
X20076438Y42683086D01*
X20076438Y42683086D02*
X20028819Y42587848D01*
X20028819Y42587848D02*
X20028819Y42349753D01*
X20028819Y42349753D02*
X20076438Y42254515D01*
X20076438Y42254515D02*
X20124057Y42206896D01*
X20124057Y42206896D02*
X20219295Y42159277D01*
X20219295Y42159277D02*
X20314533Y42159277D01*
X20314533Y42159277D02*
X20457390Y42206896D01*
X20457390Y42206896D02*
X21028819Y42778324D01*
X21028819Y42778324D02*
X21028819Y42159277D01*
X20457390Y41587848D02*
X20409771Y41683086D01*
X20409771Y41683086D02*
X20362152Y41730705D01*
X20362152Y41730705D02*
X20266914Y41778324D01*
X20266914Y41778324D02*
X20219295Y41778324D01*
X20219295Y41778324D02*
X20124057Y41730705D01*
X20124057Y41730705D02*
X20076438Y41683086D01*
X20076438Y41683086D02*
X20028819Y41587848D01*
X20028819Y41587848D02*
X20028819Y41397372D01*
X20028819Y41397372D02*
X20076438Y41302134D01*
X20076438Y41302134D02*
X20124057Y41254515D01*
X20124057Y41254515D02*
X20219295Y41206896D01*
X20219295Y41206896D02*
X20266914Y41206896D01*
X20266914Y41206896D02*
X20362152Y41254515D01*
X20362152Y41254515D02*
X20409771Y41302134D01*
X20409771Y41302134D02*
X20457390Y41397372D01*
X20457390Y41397372D02*
X20457390Y41587848D01*
X20457390Y41587848D02*
X20505009Y41683086D01*
X20505009Y41683086D02*
X20552628Y41730705D01*
X20552628Y41730705D02*
X20647866Y41778324D01*
X20647866Y41778324D02*
X20838342Y41778324D01*
X20838342Y41778324D02*
X20933580Y41730705D01*
X20933580Y41730705D02*
X20981200Y41683086D01*
X20981200Y41683086D02*
X21028819Y41587848D01*
X21028819Y41587848D02*
X21028819Y41397372D01*
X21028819Y41397372D02*
X20981200Y41302134D01*
X20981200Y41302134D02*
X20933580Y41254515D01*
X20933580Y41254515D02*
X20838342Y41206896D01*
X20838342Y41206896D02*
X20647866Y41206896D01*
X20647866Y41206896D02*
X20552628Y41254515D01*
X20552628Y41254515D02*
X20505009Y41302134D01*
X20505009Y41302134D02*
X20457390Y41397372D01*
X14257257Y42929381D02*
X14590590Y43405572D01*
X14828685Y42929381D02*
X14828685Y43929381D01*
X14828685Y43929381D02*
X14447733Y43929381D01*
X14447733Y43929381D02*
X14352495Y43881762D01*
X14352495Y43881762D02*
X14304876Y43834143D01*
X14304876Y43834143D02*
X14257257Y43738905D01*
X14257257Y43738905D02*
X14257257Y43596048D01*
X14257257Y43596048D02*
X14304876Y43500810D01*
X14304876Y43500810D02*
X14352495Y43453191D01*
X14352495Y43453191D02*
X14447733Y43405572D01*
X14447733Y43405572D02*
X14828685Y43405572D01*
X13923923Y43929381D02*
X13304876Y43929381D01*
X13304876Y43929381D02*
X13638209Y43548429D01*
X13638209Y43548429D02*
X13495352Y43548429D01*
X13495352Y43548429D02*
X13400114Y43500810D01*
X13400114Y43500810D02*
X13352495Y43453191D01*
X13352495Y43453191D02*
X13304876Y43357953D01*
X13304876Y43357953D02*
X13304876Y43119858D01*
X13304876Y43119858D02*
X13352495Y43024620D01*
X13352495Y43024620D02*
X13400114Y42977000D01*
X13400114Y42977000D02*
X13495352Y42929381D01*
X13495352Y42929381D02*
X13781066Y42929381D01*
X13781066Y42929381D02*
X13876304Y42977000D01*
X13876304Y42977000D02*
X13923923Y43024620D01*
X12923923Y43834143D02*
X12876304Y43881762D01*
X12876304Y43881762D02*
X12781066Y43929381D01*
X12781066Y43929381D02*
X12542971Y43929381D01*
X12542971Y43929381D02*
X12447733Y43881762D01*
X12447733Y43881762D02*
X12400114Y43834143D01*
X12400114Y43834143D02*
X12352495Y43738905D01*
X12352495Y43738905D02*
X12352495Y43643667D01*
X12352495Y43643667D02*
X12400114Y43500810D01*
X12400114Y43500810D02*
X12971542Y42929381D01*
X12971542Y42929381D02*
X12352495Y42929381D01*
X14485857Y23803181D02*
X14819190Y24279372D01*
X15057285Y23803181D02*
X15057285Y24803181D01*
X15057285Y24803181D02*
X14676333Y24803181D01*
X14676333Y24803181D02*
X14581095Y24755562D01*
X14581095Y24755562D02*
X14533476Y24707943D01*
X14533476Y24707943D02*
X14485857Y24612705D01*
X14485857Y24612705D02*
X14485857Y24469848D01*
X14485857Y24469848D02*
X14533476Y24374610D01*
X14533476Y24374610D02*
X14581095Y24326991D01*
X14581095Y24326991D02*
X14676333Y24279372D01*
X14676333Y24279372D02*
X15057285Y24279372D01*
X14152523Y24803181D02*
X13533476Y24803181D01*
X13533476Y24803181D02*
X13866809Y24422229D01*
X13866809Y24422229D02*
X13723952Y24422229D01*
X13723952Y24422229D02*
X13628714Y24374610D01*
X13628714Y24374610D02*
X13581095Y24326991D01*
X13581095Y24326991D02*
X13533476Y24231753D01*
X13533476Y24231753D02*
X13533476Y23993658D01*
X13533476Y23993658D02*
X13581095Y23898420D01*
X13581095Y23898420D02*
X13628714Y23850800D01*
X13628714Y23850800D02*
X13723952Y23803181D01*
X13723952Y23803181D02*
X14009666Y23803181D01*
X14009666Y23803181D02*
X14104904Y23850800D01*
X14104904Y23850800D02*
X14152523Y23898420D01*
X13200142Y24803181D02*
X12581095Y24803181D01*
X12581095Y24803181D02*
X12914428Y24422229D01*
X12914428Y24422229D02*
X12771571Y24422229D01*
X12771571Y24422229D02*
X12676333Y24374610D01*
X12676333Y24374610D02*
X12628714Y24326991D01*
X12628714Y24326991D02*
X12581095Y24231753D01*
X12581095Y24231753D02*
X12581095Y23993658D01*
X12581095Y23993658D02*
X12628714Y23898420D01*
X12628714Y23898420D02*
X12676333Y23850800D01*
X12676333Y23850800D02*
X12771571Y23803181D01*
X12771571Y23803181D02*
X13057285Y23803181D01*
X13057285Y23803181D02*
X13152523Y23850800D01*
X13152523Y23850800D02*
X13200142Y23898420D01*
X37657066Y32971581D02*
X37990399Y33447772D01*
X38228494Y32971581D02*
X38228494Y33971581D01*
X38228494Y33971581D02*
X37847542Y33971581D01*
X37847542Y33971581D02*
X37752304Y33923962D01*
X37752304Y33923962D02*
X37704685Y33876343D01*
X37704685Y33876343D02*
X37657066Y33781105D01*
X37657066Y33781105D02*
X37657066Y33638248D01*
X37657066Y33638248D02*
X37704685Y33543010D01*
X37704685Y33543010D02*
X37752304Y33495391D01*
X37752304Y33495391D02*
X37847542Y33447772D01*
X37847542Y33447772D02*
X38228494Y33447772D01*
X36799923Y33638248D02*
X36799923Y32971581D01*
X37038018Y34019200D02*
X37276113Y33304915D01*
X37276113Y33304915D02*
X36657066Y33304915D01*
X23864866Y29231420D02*
X23912485Y29183800D01*
X23912485Y29183800D02*
X24055342Y29136181D01*
X24055342Y29136181D02*
X24150580Y29136181D01*
X24150580Y29136181D02*
X24293437Y29183800D01*
X24293437Y29183800D02*
X24388675Y29279039D01*
X24388675Y29279039D02*
X24436294Y29374277D01*
X24436294Y29374277D02*
X24483913Y29564753D01*
X24483913Y29564753D02*
X24483913Y29707610D01*
X24483913Y29707610D02*
X24436294Y29898086D01*
X24436294Y29898086D02*
X24388675Y29993324D01*
X24388675Y29993324D02*
X24293437Y30088562D01*
X24293437Y30088562D02*
X24150580Y30136181D01*
X24150580Y30136181D02*
X24055342Y30136181D01*
X24055342Y30136181D02*
X23912485Y30088562D01*
X23912485Y30088562D02*
X23864866Y30040943D01*
X23007723Y29802848D02*
X23007723Y29136181D01*
X23245818Y30183800D02*
X23483913Y29469515D01*
X23483913Y29469515D02*
X22864866Y29469515D01*
X28299580Y37606267D02*
X28347200Y37653886D01*
X28347200Y37653886D02*
X28394819Y37796743D01*
X28394819Y37796743D02*
X28394819Y37891981D01*
X28394819Y37891981D02*
X28347200Y38034838D01*
X28347200Y38034838D02*
X28251961Y38130076D01*
X28251961Y38130076D02*
X28156723Y38177695D01*
X28156723Y38177695D02*
X27966247Y38225314D01*
X27966247Y38225314D02*
X27823390Y38225314D01*
X27823390Y38225314D02*
X27632914Y38177695D01*
X27632914Y38177695D02*
X27537676Y38130076D01*
X27537676Y38130076D02*
X27442438Y38034838D01*
X27442438Y38034838D02*
X27394819Y37891981D01*
X27394819Y37891981D02*
X27394819Y37796743D01*
X27394819Y37796743D02*
X27442438Y37653886D01*
X27442438Y37653886D02*
X27490057Y37606267D01*
X27394819Y37272933D02*
X27394819Y36653886D01*
X27394819Y36653886D02*
X27775771Y36987219D01*
X27775771Y36987219D02*
X27775771Y36844362D01*
X27775771Y36844362D02*
X27823390Y36749124D01*
X27823390Y36749124D02*
X27871009Y36701505D01*
X27871009Y36701505D02*
X27966247Y36653886D01*
X27966247Y36653886D02*
X28204342Y36653886D01*
X28204342Y36653886D02*
X28299580Y36701505D01*
X28299580Y36701505D02*
X28347200Y36749124D01*
X28347200Y36749124D02*
X28394819Y36844362D01*
X28394819Y36844362D02*
X28394819Y37130076D01*
X28394819Y37130076D02*
X28347200Y37225314D01*
X28347200Y37225314D02*
X28299580Y37272933D01*
X30331580Y37606267D02*
X30379200Y37653886D01*
X30379200Y37653886D02*
X30426819Y37796743D01*
X30426819Y37796743D02*
X30426819Y37891981D01*
X30426819Y37891981D02*
X30379200Y38034838D01*
X30379200Y38034838D02*
X30283961Y38130076D01*
X30283961Y38130076D02*
X30188723Y38177695D01*
X30188723Y38177695D02*
X29998247Y38225314D01*
X29998247Y38225314D02*
X29855390Y38225314D01*
X29855390Y38225314D02*
X29664914Y38177695D01*
X29664914Y38177695D02*
X29569676Y38130076D01*
X29569676Y38130076D02*
X29474438Y38034838D01*
X29474438Y38034838D02*
X29426819Y37891981D01*
X29426819Y37891981D02*
X29426819Y37796743D01*
X29426819Y37796743D02*
X29474438Y37653886D01*
X29474438Y37653886D02*
X29522057Y37606267D01*
X29522057Y37225314D02*
X29474438Y37177695D01*
X29474438Y37177695D02*
X29426819Y37082457D01*
X29426819Y37082457D02*
X29426819Y36844362D01*
X29426819Y36844362D02*
X29474438Y36749124D01*
X29474438Y36749124D02*
X29522057Y36701505D01*
X29522057Y36701505D02*
X29617295Y36653886D01*
X29617295Y36653886D02*
X29712533Y36653886D01*
X29712533Y36653886D02*
X29855390Y36701505D01*
X29855390Y36701505D02*
X30426819Y37272933D01*
X30426819Y37272933D02*
X30426819Y36653886D01*
X37849980Y31707058D02*
X37897600Y31754677D01*
X37897600Y31754677D02*
X37945219Y31897534D01*
X37945219Y31897534D02*
X37945219Y31992772D01*
X37945219Y31992772D02*
X37897600Y32135629D01*
X37897600Y32135629D02*
X37802361Y32230867D01*
X37802361Y32230867D02*
X37707123Y32278486D01*
X37707123Y32278486D02*
X37516647Y32326105D01*
X37516647Y32326105D02*
X37373790Y32326105D01*
X37373790Y32326105D02*
X37183314Y32278486D01*
X37183314Y32278486D02*
X37088076Y32230867D01*
X37088076Y32230867D02*
X36992838Y32135629D01*
X36992838Y32135629D02*
X36945219Y31992772D01*
X36945219Y31992772D02*
X36945219Y31897534D01*
X36945219Y31897534D02*
X36992838Y31754677D01*
X36992838Y31754677D02*
X37040457Y31707058D01*
X37945219Y30754677D02*
X37945219Y31326105D01*
X37945219Y31040391D02*
X36945219Y31040391D01*
X36945219Y31040391D02*
X37088076Y31135629D01*
X37088076Y31135629D02*
X37183314Y31230867D01*
X37183314Y31230867D02*
X37230933Y31326105D01*
X36945219Y30135629D02*
X36945219Y30040391D01*
X36945219Y30040391D02*
X36992838Y29945153D01*
X36992838Y29945153D02*
X37040457Y29897534D01*
X37040457Y29897534D02*
X37135695Y29849915D01*
X37135695Y29849915D02*
X37326171Y29802296D01*
X37326171Y29802296D02*
X37564266Y29802296D01*
X37564266Y29802296D02*
X37754742Y29849915D01*
X37754742Y29849915D02*
X37849980Y29897534D01*
X37849980Y29897534D02*
X37897600Y29945153D01*
X37897600Y29945153D02*
X37945219Y30040391D01*
X37945219Y30040391D02*
X37945219Y30135629D01*
X37945219Y30135629D02*
X37897600Y30230867D01*
X37897600Y30230867D02*
X37849980Y30278486D01*
X37849980Y30278486D02*
X37754742Y30326105D01*
X37754742Y30326105D02*
X37564266Y30373724D01*
X37564266Y30373724D02*
X37326171Y30373724D01*
X37326171Y30373724D02*
X37135695Y30326105D01*
X37135695Y30326105D02*
X37040457Y30278486D01*
X37040457Y30278486D02*
X36992838Y30230867D01*
X36992838Y30230867D02*
X36945219Y30135629D01*
X17725819Y33186667D02*
X17249628Y33520000D01*
X17725819Y33758095D02*
X16725819Y33758095D01*
X16725819Y33758095D02*
X16725819Y33377143D01*
X16725819Y33377143D02*
X16773438Y33281905D01*
X16773438Y33281905D02*
X16821057Y33234286D01*
X16821057Y33234286D02*
X16916295Y33186667D01*
X16916295Y33186667D02*
X17059152Y33186667D01*
X17059152Y33186667D02*
X17154390Y33234286D01*
X17154390Y33234286D02*
X17202009Y33281905D01*
X17202009Y33281905D02*
X17249628Y33377143D01*
X17249628Y33377143D02*
X17249628Y33758095D01*
X16821057Y32805714D02*
X16773438Y32758095D01*
X16773438Y32758095D02*
X16725819Y32662857D01*
X16725819Y32662857D02*
X16725819Y32424762D01*
X16725819Y32424762D02*
X16773438Y32329524D01*
X16773438Y32329524D02*
X16821057Y32281905D01*
X16821057Y32281905D02*
X16916295Y32234286D01*
X16916295Y32234286D02*
X17011533Y32234286D01*
X17011533Y32234286D02*
X17154390Y32281905D01*
X17154390Y32281905D02*
X17725819Y32853333D01*
X17725819Y32853333D02*
X17725819Y32234286D01*
X78697057Y28729781D02*
X79030390Y29205972D01*
X79268485Y28729781D02*
X79268485Y29729781D01*
X79268485Y29729781D02*
X78887533Y29729781D01*
X78887533Y29729781D02*
X78792295Y29682162D01*
X78792295Y29682162D02*
X78744676Y29634543D01*
X78744676Y29634543D02*
X78697057Y29539305D01*
X78697057Y29539305D02*
X78697057Y29396448D01*
X78697057Y29396448D02*
X78744676Y29301210D01*
X78744676Y29301210D02*
X78792295Y29253591D01*
X78792295Y29253591D02*
X78887533Y29205972D01*
X78887533Y29205972D02*
X79268485Y29205972D01*
X78363723Y29729781D02*
X77744676Y29729781D01*
X77744676Y29729781D02*
X78078009Y29348829D01*
X78078009Y29348829D02*
X77935152Y29348829D01*
X77935152Y29348829D02*
X77839914Y29301210D01*
X77839914Y29301210D02*
X77792295Y29253591D01*
X77792295Y29253591D02*
X77744676Y29158353D01*
X77744676Y29158353D02*
X77744676Y28920258D01*
X77744676Y28920258D02*
X77792295Y28825020D01*
X77792295Y28825020D02*
X77839914Y28777400D01*
X77839914Y28777400D02*
X77935152Y28729781D01*
X77935152Y28729781D02*
X78220866Y28729781D01*
X78220866Y28729781D02*
X78316104Y28777400D01*
X78316104Y28777400D02*
X78363723Y28825020D01*
X76887533Y29396448D02*
X76887533Y28729781D01*
X77125628Y29777400D02*
X77363723Y29063115D01*
X77363723Y29063115D02*
X76744676Y29063115D01*
X44076857Y30323620D02*
X44124476Y30276000D01*
X44124476Y30276000D02*
X44267333Y30228381D01*
X44267333Y30228381D02*
X44362571Y30228381D01*
X44362571Y30228381D02*
X44505428Y30276000D01*
X44505428Y30276000D02*
X44600666Y30371239D01*
X44600666Y30371239D02*
X44648285Y30466477D01*
X44648285Y30466477D02*
X44695904Y30656953D01*
X44695904Y30656953D02*
X44695904Y30799810D01*
X44695904Y30799810D02*
X44648285Y30990286D01*
X44648285Y30990286D02*
X44600666Y31085524D01*
X44600666Y31085524D02*
X44505428Y31180762D01*
X44505428Y31180762D02*
X44362571Y31228381D01*
X44362571Y31228381D02*
X44267333Y31228381D01*
X44267333Y31228381D02*
X44124476Y31180762D01*
X44124476Y31180762D02*
X44076857Y31133143D01*
X43124476Y30228381D02*
X43695904Y30228381D01*
X43410190Y30228381D02*
X43410190Y31228381D01*
X43410190Y31228381D02*
X43505428Y31085524D01*
X43505428Y31085524D02*
X43600666Y30990286D01*
X43600666Y30990286D02*
X43695904Y30942667D01*
X42648285Y30228381D02*
X42457809Y30228381D01*
X42457809Y30228381D02*
X42362571Y30276000D01*
X42362571Y30276000D02*
X42314952Y30323620D01*
X42314952Y30323620D02*
X42219714Y30466477D01*
X42219714Y30466477D02*
X42172095Y30656953D01*
X42172095Y30656953D02*
X42172095Y31037905D01*
X42172095Y31037905D02*
X42219714Y31133143D01*
X42219714Y31133143D02*
X42267333Y31180762D01*
X42267333Y31180762D02*
X42362571Y31228381D01*
X42362571Y31228381D02*
X42553047Y31228381D01*
X42553047Y31228381D02*
X42648285Y31180762D01*
X42648285Y31180762D02*
X42695904Y31133143D01*
X42695904Y31133143D02*
X42743523Y31037905D01*
X42743523Y31037905D02*
X42743523Y30799810D01*
X42743523Y30799810D02*
X42695904Y30704572D01*
X42695904Y30704572D02*
X42648285Y30656953D01*
X42648285Y30656953D02*
X42553047Y30609334D01*
X42553047Y30609334D02*
X42362571Y30609334D01*
X42362571Y30609334D02*
X42267333Y30656953D01*
X42267333Y30656953D02*
X42219714Y30704572D01*
X42219714Y30704572D02*
X42172095Y30799810D01*
X24645857Y32689419D02*
X24693476Y32641799D01*
X24693476Y32641799D02*
X24836333Y32594180D01*
X24836333Y32594180D02*
X24931571Y32594180D01*
X24931571Y32594180D02*
X25074428Y32641799D01*
X25074428Y32641799D02*
X25169666Y32737038D01*
X25169666Y32737038D02*
X25217285Y32832276D01*
X25217285Y32832276D02*
X25264904Y33022752D01*
X25264904Y33022752D02*
X25264904Y33165609D01*
X25264904Y33165609D02*
X25217285Y33356085D01*
X25217285Y33356085D02*
X25169666Y33451323D01*
X25169666Y33451323D02*
X25074428Y33546561D01*
X25074428Y33546561D02*
X24931571Y33594180D01*
X24931571Y33594180D02*
X24836333Y33594180D01*
X24836333Y33594180D02*
X24693476Y33546561D01*
X24693476Y33546561D02*
X24645857Y33498942D01*
X24264904Y33498942D02*
X24217285Y33546561D01*
X24217285Y33546561D02*
X24122047Y33594180D01*
X24122047Y33594180D02*
X23883952Y33594180D01*
X23883952Y33594180D02*
X23788714Y33546561D01*
X23788714Y33546561D02*
X23741095Y33498942D01*
X23741095Y33498942D02*
X23693476Y33403704D01*
X23693476Y33403704D02*
X23693476Y33308466D01*
X23693476Y33308466D02*
X23741095Y33165609D01*
X23741095Y33165609D02*
X24312523Y32594180D01*
X24312523Y32594180D02*
X23693476Y32594180D01*
X23074428Y33594180D02*
X22979190Y33594180D01*
X22979190Y33594180D02*
X22883952Y33546561D01*
X22883952Y33546561D02*
X22836333Y33498942D01*
X22836333Y33498942D02*
X22788714Y33403704D01*
X22788714Y33403704D02*
X22741095Y33213228D01*
X22741095Y33213228D02*
X22741095Y32975133D01*
X22741095Y32975133D02*
X22788714Y32784657D01*
X22788714Y32784657D02*
X22836333Y32689419D01*
X22836333Y32689419D02*
X22883952Y32641799D01*
X22883952Y32641799D02*
X22979190Y32594180D01*
X22979190Y32594180D02*
X23074428Y32594180D01*
X23074428Y32594180D02*
X23169666Y32641799D01*
X23169666Y32641799D02*
X23217285Y32689419D01*
X23217285Y32689419D02*
X23264904Y32784657D01*
X23264904Y32784657D02*
X23312523Y32975133D01*
X23312523Y32975133D02*
X23312523Y33213228D01*
X23312523Y33213228D02*
X23264904Y33403704D01*
X23264904Y33403704D02*
X23217285Y33498942D01*
X23217285Y33498942D02*
X23169666Y33546561D01*
X23169666Y33546561D02*
X23074428Y33594180D01*
X84989819Y33154858D02*
X84513628Y33488191D01*
X84989819Y33726286D02*
X83989819Y33726286D01*
X83989819Y33726286D02*
X83989819Y33345334D01*
X83989819Y33345334D02*
X84037438Y33250096D01*
X84037438Y33250096D02*
X84085057Y33202477D01*
X84085057Y33202477D02*
X84180295Y33154858D01*
X84180295Y33154858D02*
X84323152Y33154858D01*
X84323152Y33154858D02*
X84418390Y33202477D01*
X84418390Y33202477D02*
X84466009Y33250096D01*
X84466009Y33250096D02*
X84513628Y33345334D01*
X84513628Y33345334D02*
X84513628Y33726286D01*
X83989819Y32821524D02*
X83989819Y32202477D01*
X83989819Y32202477D02*
X84370771Y32535810D01*
X84370771Y32535810D02*
X84370771Y32392953D01*
X84370771Y32392953D02*
X84418390Y32297715D01*
X84418390Y32297715D02*
X84466009Y32250096D01*
X84466009Y32250096D02*
X84561247Y32202477D01*
X84561247Y32202477D02*
X84799342Y32202477D01*
X84799342Y32202477D02*
X84894580Y32250096D01*
X84894580Y32250096D02*
X84942200Y32297715D01*
X84942200Y32297715D02*
X84989819Y32392953D01*
X84989819Y32392953D02*
X84989819Y32678667D01*
X84989819Y32678667D02*
X84942200Y32773905D01*
X84942200Y32773905D02*
X84894580Y32821524D01*
X83989819Y31297715D02*
X83989819Y31773905D01*
X83989819Y31773905D02*
X84466009Y31821524D01*
X84466009Y31821524D02*
X84418390Y31773905D01*
X84418390Y31773905D02*
X84370771Y31678667D01*
X84370771Y31678667D02*
X84370771Y31440572D01*
X84370771Y31440572D02*
X84418390Y31345334D01*
X84418390Y31345334D02*
X84466009Y31297715D01*
X84466009Y31297715D02*
X84561247Y31250096D01*
X84561247Y31250096D02*
X84799342Y31250096D01*
X84799342Y31250096D02*
X84894580Y31297715D01*
X84894580Y31297715D02*
X84942200Y31345334D01*
X84942200Y31345334D02*
X84989819Y31440572D01*
X84989819Y31440572D02*
X84989819Y31678667D01*
X84989819Y31678667D02*
X84942200Y31773905D01*
X84942200Y31773905D02*
X84894580Y31821524D01*
X78443057Y34927381D02*
X78776390Y35403572D01*
X79014485Y34927381D02*
X79014485Y35927381D01*
X79014485Y35927381D02*
X78633533Y35927381D01*
X78633533Y35927381D02*
X78538295Y35879762D01*
X78538295Y35879762D02*
X78490676Y35832143D01*
X78490676Y35832143D02*
X78443057Y35736905D01*
X78443057Y35736905D02*
X78443057Y35594048D01*
X78443057Y35594048D02*
X78490676Y35498810D01*
X78490676Y35498810D02*
X78538295Y35451191D01*
X78538295Y35451191D02*
X78633533Y35403572D01*
X78633533Y35403572D02*
X79014485Y35403572D01*
X78109723Y35927381D02*
X77490676Y35927381D01*
X77490676Y35927381D02*
X77824009Y35546429D01*
X77824009Y35546429D02*
X77681152Y35546429D01*
X77681152Y35546429D02*
X77585914Y35498810D01*
X77585914Y35498810D02*
X77538295Y35451191D01*
X77538295Y35451191D02*
X77490676Y35355953D01*
X77490676Y35355953D02*
X77490676Y35117858D01*
X77490676Y35117858D02*
X77538295Y35022620D01*
X77538295Y35022620D02*
X77585914Y34975000D01*
X77585914Y34975000D02*
X77681152Y34927381D01*
X77681152Y34927381D02*
X77966866Y34927381D01*
X77966866Y34927381D02*
X78062104Y34975000D01*
X78062104Y34975000D02*
X78109723Y35022620D01*
X76633533Y35927381D02*
X76824009Y35927381D01*
X76824009Y35927381D02*
X76919247Y35879762D01*
X76919247Y35879762D02*
X76966866Y35832143D01*
X76966866Y35832143D02*
X77062104Y35689286D01*
X77062104Y35689286D02*
X77109723Y35498810D01*
X77109723Y35498810D02*
X77109723Y35117858D01*
X77109723Y35117858D02*
X77062104Y35022620D01*
X77062104Y35022620D02*
X77014485Y34975000D01*
X77014485Y34975000D02*
X76919247Y34927381D01*
X76919247Y34927381D02*
X76728771Y34927381D01*
X76728771Y34927381D02*
X76633533Y34975000D01*
X76633533Y34975000D02*
X76585914Y35022620D01*
X76585914Y35022620D02*
X76538295Y35117858D01*
X76538295Y35117858D02*
X76538295Y35355953D01*
X76538295Y35355953D02*
X76585914Y35451191D01*
X76585914Y35451191D02*
X76633533Y35498810D01*
X76633533Y35498810D02*
X76728771Y35546429D01*
X76728771Y35546429D02*
X76919247Y35546429D01*
X76919247Y35546429D02*
X77014485Y35498810D01*
X77014485Y35498810D02*
X77062104Y35451191D01*
X77062104Y35451191D02*
X77109723Y35355953D01*
X15568819Y54109858D02*
X15092628Y54443191D01*
X15568819Y54681286D02*
X14568819Y54681286D01*
X14568819Y54681286D02*
X14568819Y54300334D01*
X14568819Y54300334D02*
X14616438Y54205096D01*
X14616438Y54205096D02*
X14664057Y54157477D01*
X14664057Y54157477D02*
X14759295Y54109858D01*
X14759295Y54109858D02*
X14902152Y54109858D01*
X14902152Y54109858D02*
X14997390Y54157477D01*
X14997390Y54157477D02*
X15045009Y54205096D01*
X15045009Y54205096D02*
X15092628Y54300334D01*
X15092628Y54300334D02*
X15092628Y54681286D01*
X14664057Y53728905D02*
X14616438Y53681286D01*
X14616438Y53681286D02*
X14568819Y53586048D01*
X14568819Y53586048D02*
X14568819Y53347953D01*
X14568819Y53347953D02*
X14616438Y53252715D01*
X14616438Y53252715D02*
X14664057Y53205096D01*
X14664057Y53205096D02*
X14759295Y53157477D01*
X14759295Y53157477D02*
X14854533Y53157477D01*
X14854533Y53157477D02*
X14997390Y53205096D01*
X14997390Y53205096D02*
X15568819Y53776524D01*
X15568819Y53776524D02*
X15568819Y53157477D01*
X14664057Y52776524D02*
X14616438Y52728905D01*
X14616438Y52728905D02*
X14568819Y52633667D01*
X14568819Y52633667D02*
X14568819Y52395572D01*
X14568819Y52395572D02*
X14616438Y52300334D01*
X14616438Y52300334D02*
X14664057Y52252715D01*
X14664057Y52252715D02*
X14759295Y52205096D01*
X14759295Y52205096D02*
X14854533Y52205096D01*
X14854533Y52205096D02*
X14997390Y52252715D01*
X14997390Y52252715D02*
X15568819Y52824143D01*
X15568819Y52824143D02*
X15568819Y52205096D01*
X66037619Y19572267D02*
X66037619Y20048457D01*
X66037619Y20048457D02*
X65037619Y20048457D01*
X65132857Y19286552D02*
X65085238Y19238933D01*
X65085238Y19238933D02*
X65037619Y19143695D01*
X65037619Y19143695D02*
X65037619Y18905600D01*
X65037619Y18905600D02*
X65085238Y18810362D01*
X65085238Y18810362D02*
X65132857Y18762743D01*
X65132857Y18762743D02*
X65228095Y18715124D01*
X65228095Y18715124D02*
X65323333Y18715124D01*
X65323333Y18715124D02*
X65466190Y18762743D01*
X65466190Y18762743D02*
X66037619Y19334171D01*
X66037619Y19334171D02*
X66037619Y18715124D01*
X29178238Y47969943D02*
X29273476Y48017562D01*
X29273476Y48017562D02*
X29368714Y48112800D01*
X29368714Y48112800D02*
X29511571Y48255658D01*
X29511571Y48255658D02*
X29606809Y48303277D01*
X29606809Y48303277D02*
X29702047Y48303277D01*
X29654428Y48065181D02*
X29749666Y48112800D01*
X29749666Y48112800D02*
X29844904Y48208039D01*
X29844904Y48208039D02*
X29892523Y48398515D01*
X29892523Y48398515D02*
X29892523Y48731848D01*
X29892523Y48731848D02*
X29844904Y48922324D01*
X29844904Y48922324D02*
X29749666Y49017562D01*
X29749666Y49017562D02*
X29654428Y49065181D01*
X29654428Y49065181D02*
X29463952Y49065181D01*
X29463952Y49065181D02*
X29368714Y49017562D01*
X29368714Y49017562D02*
X29273476Y48922324D01*
X29273476Y48922324D02*
X29225857Y48731848D01*
X29225857Y48731848D02*
X29225857Y48398515D01*
X29225857Y48398515D02*
X29273476Y48208039D01*
X29273476Y48208039D02*
X29368714Y48112800D01*
X29368714Y48112800D02*
X29463952Y48065181D01*
X29463952Y48065181D02*
X29654428Y48065181D01*
X28321095Y49065181D02*
X28797285Y49065181D01*
X28797285Y49065181D02*
X28844904Y48588991D01*
X28844904Y48588991D02*
X28797285Y48636610D01*
X28797285Y48636610D02*
X28702047Y48684229D01*
X28702047Y48684229D02*
X28463952Y48684229D01*
X28463952Y48684229D02*
X28368714Y48636610D01*
X28368714Y48636610D02*
X28321095Y48588991D01*
X28321095Y48588991D02*
X28273476Y48493753D01*
X28273476Y48493753D02*
X28273476Y48255658D01*
X28273476Y48255658D02*
X28321095Y48160420D01*
X28321095Y48160420D02*
X28368714Y48112800D01*
X28368714Y48112800D02*
X28463952Y48065181D01*
X28463952Y48065181D02*
X28702047Y48065181D01*
X28702047Y48065181D02*
X28797285Y48112800D01*
X28797285Y48112800D02*
X28844904Y48160420D01*
X17708428Y61301791D02*
X18041761Y61301791D01*
X18041761Y60777981D02*
X18041761Y61777981D01*
X18041761Y61777981D02*
X17565571Y61777981D01*
X17184618Y60777981D02*
X17184618Y61777981D01*
X16708428Y60777981D02*
X16708428Y61777981D01*
X16708428Y61777981D02*
X16470333Y61777981D01*
X16470333Y61777981D02*
X16327476Y61730362D01*
X16327476Y61730362D02*
X16232238Y61635124D01*
X16232238Y61635124D02*
X16184619Y61539886D01*
X16184619Y61539886D02*
X16137000Y61349410D01*
X16137000Y61349410D02*
X16137000Y61206553D01*
X16137000Y61206553D02*
X16184619Y61016077D01*
X16184619Y61016077D02*
X16232238Y60920839D01*
X16232238Y60920839D02*
X16327476Y60825600D01*
X16327476Y60825600D02*
X16470333Y60777981D01*
X16470333Y60777981D02*
X16708428Y60777981D01*
X15279857Y61444648D02*
X15279857Y60777981D01*
X15517952Y61825600D02*
X15756047Y61111315D01*
X15756047Y61111315D02*
X15137000Y61111315D01*
X14457228Y16851791D02*
X14790561Y16851791D01*
X14790561Y16327981D02*
X14790561Y17327981D01*
X14790561Y17327981D02*
X14314371Y17327981D01*
X13933418Y16327981D02*
X13933418Y17327981D01*
X13457228Y16327981D02*
X13457228Y17327981D01*
X13457228Y17327981D02*
X13219133Y17327981D01*
X13219133Y17327981D02*
X13076276Y17280362D01*
X13076276Y17280362D02*
X12981038Y17185124D01*
X12981038Y17185124D02*
X12933419Y17089886D01*
X12933419Y17089886D02*
X12885800Y16899410D01*
X12885800Y16899410D02*
X12885800Y16756553D01*
X12885800Y16756553D02*
X12933419Y16566077D01*
X12933419Y16566077D02*
X12981038Y16470839D01*
X12981038Y16470839D02*
X13076276Y16375600D01*
X13076276Y16375600D02*
X13219133Y16327981D01*
X13219133Y16327981D02*
X13457228Y16327981D01*
X11933419Y16327981D02*
X12504847Y16327981D01*
X12219133Y16327981D02*
X12219133Y17327981D01*
X12219133Y17327981D02*
X12314371Y17185124D01*
X12314371Y17185124D02*
X12409609Y17089886D01*
X12409609Y17089886D02*
X12504847Y17042267D01*
X55498904Y30263181D02*
X55498904Y29453658D01*
X55498904Y29453658D02*
X55451285Y29358420D01*
X55451285Y29358420D02*
X55403666Y29310800D01*
X55403666Y29310800D02*
X55308428Y29263181D01*
X55308428Y29263181D02*
X55117952Y29263181D01*
X55117952Y29263181D02*
X55022714Y29310800D01*
X55022714Y29310800D02*
X54975095Y29358420D01*
X54975095Y29358420D02*
X54927476Y29453658D01*
X54927476Y29453658D02*
X54927476Y30263181D01*
X54498904Y30167943D02*
X54451285Y30215562D01*
X54451285Y30215562D02*
X54356047Y30263181D01*
X54356047Y30263181D02*
X54117952Y30263181D01*
X54117952Y30263181D02*
X54022714Y30215562D01*
X54022714Y30215562D02*
X53975095Y30167943D01*
X53975095Y30167943D02*
X53927476Y30072705D01*
X53927476Y30072705D02*
X53927476Y29977467D01*
X53927476Y29977467D02*
X53975095Y29834610D01*
X53975095Y29834610D02*
X54546523Y29263181D01*
X54546523Y29263181D02*
X53927476Y29263181D01*
X53424057Y15032820D02*
X53471676Y14985200D01*
X53471676Y14985200D02*
X53614533Y14937581D01*
X53614533Y14937581D02*
X53709771Y14937581D01*
X53709771Y14937581D02*
X53852628Y14985200D01*
X53852628Y14985200D02*
X53947866Y15080439D01*
X53947866Y15080439D02*
X53995485Y15175677D01*
X53995485Y15175677D02*
X54043104Y15366153D01*
X54043104Y15366153D02*
X54043104Y15509010D01*
X54043104Y15509010D02*
X53995485Y15699486D01*
X53995485Y15699486D02*
X53947866Y15794724D01*
X53947866Y15794724D02*
X53852628Y15889962D01*
X53852628Y15889962D02*
X53709771Y15937581D01*
X53709771Y15937581D02*
X53614533Y15937581D01*
X53614533Y15937581D02*
X53471676Y15889962D01*
X53471676Y15889962D02*
X53424057Y15842343D01*
X53090723Y15937581D02*
X52471676Y15937581D01*
X52471676Y15937581D02*
X52805009Y15556629D01*
X52805009Y15556629D02*
X52662152Y15556629D01*
X52662152Y15556629D02*
X52566914Y15509010D01*
X52566914Y15509010D02*
X52519295Y15461391D01*
X52519295Y15461391D02*
X52471676Y15366153D01*
X52471676Y15366153D02*
X52471676Y15128058D01*
X52471676Y15128058D02*
X52519295Y15032820D01*
X52519295Y15032820D02*
X52566914Y14985200D01*
X52566914Y14985200D02*
X52662152Y14937581D01*
X52662152Y14937581D02*
X52947866Y14937581D01*
X52947866Y14937581D02*
X53043104Y14985200D01*
X53043104Y14985200D02*
X53090723Y15032820D01*
X51566914Y15937581D02*
X52043104Y15937581D01*
X52043104Y15937581D02*
X52090723Y15461391D01*
X52090723Y15461391D02*
X52043104Y15509010D01*
X52043104Y15509010D02*
X51947866Y15556629D01*
X51947866Y15556629D02*
X51709771Y15556629D01*
X51709771Y15556629D02*
X51614533Y15509010D01*
X51614533Y15509010D02*
X51566914Y15461391D01*
X51566914Y15461391D02*
X51519295Y15366153D01*
X51519295Y15366153D02*
X51519295Y15128058D01*
X51519295Y15128058D02*
X51566914Y15032820D01*
X51566914Y15032820D02*
X51614533Y14985200D01*
X51614533Y14985200D02*
X51709771Y14937581D01*
X51709771Y14937581D02*
X51947866Y14937581D01*
X51947866Y14937581D02*
X52043104Y14985200D01*
X52043104Y14985200D02*
X52090723Y15032820D01*
X20923238Y55329943D02*
X21018476Y55377562D01*
X21018476Y55377562D02*
X21113714Y55472800D01*
X21113714Y55472800D02*
X21256571Y55615658D01*
X21256571Y55615658D02*
X21351809Y55663277D01*
X21351809Y55663277D02*
X21447047Y55663277D01*
X21399428Y55425181D02*
X21494666Y55472800D01*
X21494666Y55472800D02*
X21589904Y55568039D01*
X21589904Y55568039D02*
X21637523Y55758515D01*
X21637523Y55758515D02*
X21637523Y56091848D01*
X21637523Y56091848D02*
X21589904Y56282324D01*
X21589904Y56282324D02*
X21494666Y56377562D01*
X21494666Y56377562D02*
X21399428Y56425181D01*
X21399428Y56425181D02*
X21208952Y56425181D01*
X21208952Y56425181D02*
X21113714Y56377562D01*
X21113714Y56377562D02*
X21018476Y56282324D01*
X21018476Y56282324D02*
X20970857Y56091848D01*
X20970857Y56091848D02*
X20970857Y55758515D01*
X20970857Y55758515D02*
X21018476Y55568039D01*
X21018476Y55568039D02*
X21113714Y55472800D01*
X21113714Y55472800D02*
X21208952Y55425181D01*
X21208952Y55425181D02*
X21399428Y55425181D01*
X20637523Y56425181D02*
X20018476Y56425181D01*
X20018476Y56425181D02*
X20351809Y56044229D01*
X20351809Y56044229D02*
X20208952Y56044229D01*
X20208952Y56044229D02*
X20113714Y55996610D01*
X20113714Y55996610D02*
X20066095Y55948991D01*
X20066095Y55948991D02*
X20018476Y55853753D01*
X20018476Y55853753D02*
X20018476Y55615658D01*
X20018476Y55615658D02*
X20066095Y55520420D01*
X20066095Y55520420D02*
X20113714Y55472800D01*
X20113714Y55472800D02*
X20208952Y55425181D01*
X20208952Y55425181D02*
X20494666Y55425181D01*
X20494666Y55425181D02*
X20589904Y55472800D01*
X20589904Y55472800D02*
X20637523Y55520420D01*
X55794780Y17160658D02*
X55842400Y17208277D01*
X55842400Y17208277D02*
X55890019Y17351134D01*
X55890019Y17351134D02*
X55890019Y17446372D01*
X55890019Y17446372D02*
X55842400Y17589229D01*
X55842400Y17589229D02*
X55747161Y17684467D01*
X55747161Y17684467D02*
X55651923Y17732086D01*
X55651923Y17732086D02*
X55461447Y17779705D01*
X55461447Y17779705D02*
X55318590Y17779705D01*
X55318590Y17779705D02*
X55128114Y17732086D01*
X55128114Y17732086D02*
X55032876Y17684467D01*
X55032876Y17684467D02*
X54937638Y17589229D01*
X54937638Y17589229D02*
X54890019Y17446372D01*
X54890019Y17446372D02*
X54890019Y17351134D01*
X54890019Y17351134D02*
X54937638Y17208277D01*
X54937638Y17208277D02*
X54985257Y17160658D01*
X54890019Y16827324D02*
X54890019Y16208277D01*
X54890019Y16208277D02*
X55270971Y16541610D01*
X55270971Y16541610D02*
X55270971Y16398753D01*
X55270971Y16398753D02*
X55318590Y16303515D01*
X55318590Y16303515D02*
X55366209Y16255896D01*
X55366209Y16255896D02*
X55461447Y16208277D01*
X55461447Y16208277D02*
X55699542Y16208277D01*
X55699542Y16208277D02*
X55794780Y16255896D01*
X55794780Y16255896D02*
X55842400Y16303515D01*
X55842400Y16303515D02*
X55890019Y16398753D01*
X55890019Y16398753D02*
X55890019Y16684467D01*
X55890019Y16684467D02*
X55842400Y16779705D01*
X55842400Y16779705D02*
X55794780Y16827324D01*
X54890019Y15351134D02*
X54890019Y15541610D01*
X54890019Y15541610D02*
X54937638Y15636848D01*
X54937638Y15636848D02*
X54985257Y15684467D01*
X54985257Y15684467D02*
X55128114Y15779705D01*
X55128114Y15779705D02*
X55318590Y15827324D01*
X55318590Y15827324D02*
X55699542Y15827324D01*
X55699542Y15827324D02*
X55794780Y15779705D01*
X55794780Y15779705D02*
X55842400Y15732086D01*
X55842400Y15732086D02*
X55890019Y15636848D01*
X55890019Y15636848D02*
X55890019Y15446372D01*
X55890019Y15446372D02*
X55842400Y15351134D01*
X55842400Y15351134D02*
X55794780Y15303515D01*
X55794780Y15303515D02*
X55699542Y15255896D01*
X55699542Y15255896D02*
X55461447Y15255896D01*
X55461447Y15255896D02*
X55366209Y15303515D01*
X55366209Y15303515D02*
X55318590Y15351134D01*
X55318590Y15351134D02*
X55270971Y15446372D01*
X55270971Y15446372D02*
X55270971Y15636848D01*
X55270971Y15636848D02*
X55318590Y15732086D01*
X55318590Y15732086D02*
X55366209Y15779705D01*
X55366209Y15779705D02*
X55461447Y15827324D01*
X38823819Y41417714D02*
X38823819Y40846286D01*
X39823819Y41132000D02*
X38823819Y41132000D01*
X39823819Y40512952D02*
X38823819Y40512952D01*
X39300009Y40512952D02*
X39300009Y39941524D01*
X39823819Y39941524D02*
X38823819Y39941524D01*
X38823819Y39560571D02*
X38823819Y38941524D01*
X38823819Y38941524D02*
X39204771Y39274857D01*
X39204771Y39274857D02*
X39204771Y39132000D01*
X39204771Y39132000D02*
X39252390Y39036762D01*
X39252390Y39036762D02*
X39300009Y38989143D01*
X39300009Y38989143D02*
X39395247Y38941524D01*
X39395247Y38941524D02*
X39633342Y38941524D01*
X39633342Y38941524D02*
X39728580Y38989143D01*
X39728580Y38989143D02*
X39776200Y39036762D01*
X39776200Y39036762D02*
X39823819Y39132000D01*
X39823819Y39132000D02*
X39823819Y39417714D01*
X39823819Y39417714D02*
X39776200Y39512952D01*
X39776200Y39512952D02*
X39728580Y39560571D01*
X21539580Y25026858D02*
X21587200Y25074477D01*
X21587200Y25074477D02*
X21634819Y25217334D01*
X21634819Y25217334D02*
X21634819Y25312572D01*
X21634819Y25312572D02*
X21587200Y25455429D01*
X21587200Y25455429D02*
X21491961Y25550667D01*
X21491961Y25550667D02*
X21396723Y25598286D01*
X21396723Y25598286D02*
X21206247Y25645905D01*
X21206247Y25645905D02*
X21063390Y25645905D01*
X21063390Y25645905D02*
X20872914Y25598286D01*
X20872914Y25598286D02*
X20777676Y25550667D01*
X20777676Y25550667D02*
X20682438Y25455429D01*
X20682438Y25455429D02*
X20634819Y25312572D01*
X20634819Y25312572D02*
X20634819Y25217334D01*
X20634819Y25217334D02*
X20682438Y25074477D01*
X20682438Y25074477D02*
X20730057Y25026858D01*
X20730057Y24645905D02*
X20682438Y24598286D01*
X20682438Y24598286D02*
X20634819Y24503048D01*
X20634819Y24503048D02*
X20634819Y24264953D01*
X20634819Y24264953D02*
X20682438Y24169715D01*
X20682438Y24169715D02*
X20730057Y24122096D01*
X20730057Y24122096D02*
X20825295Y24074477D01*
X20825295Y24074477D02*
X20920533Y24074477D01*
X20920533Y24074477D02*
X21063390Y24122096D01*
X21063390Y24122096D02*
X21634819Y24693524D01*
X21634819Y24693524D02*
X21634819Y24074477D01*
X20634819Y23741143D02*
X20634819Y23074477D01*
X20634819Y23074477D02*
X21634819Y23503048D01*
X59890819Y30995858D02*
X59414628Y31329191D01*
X59890819Y31567286D02*
X58890819Y31567286D01*
X58890819Y31567286D02*
X58890819Y31186334D01*
X58890819Y31186334D02*
X58938438Y31091096D01*
X58938438Y31091096D02*
X58986057Y31043477D01*
X58986057Y31043477D02*
X59081295Y30995858D01*
X59081295Y30995858D02*
X59224152Y30995858D01*
X59224152Y30995858D02*
X59319390Y31043477D01*
X59319390Y31043477D02*
X59367009Y31091096D01*
X59367009Y31091096D02*
X59414628Y31186334D01*
X59414628Y31186334D02*
X59414628Y31567286D01*
X59890819Y30043477D02*
X59890819Y30614905D01*
X59890819Y30329191D02*
X58890819Y30329191D01*
X58890819Y30329191D02*
X59033676Y30424429D01*
X59033676Y30424429D02*
X59128914Y30519667D01*
X59128914Y30519667D02*
X59176533Y30614905D01*
X58890819Y29710143D02*
X58890819Y29091096D01*
X58890819Y29091096D02*
X59271771Y29424429D01*
X59271771Y29424429D02*
X59271771Y29281572D01*
X59271771Y29281572D02*
X59319390Y29186334D01*
X59319390Y29186334D02*
X59367009Y29138715D01*
X59367009Y29138715D02*
X59462247Y29091096D01*
X59462247Y29091096D02*
X59700342Y29091096D01*
X59700342Y29091096D02*
X59795580Y29138715D01*
X59795580Y29138715D02*
X59843200Y29186334D01*
X59843200Y29186334D02*
X59890819Y29281572D01*
X59890819Y29281572D02*
X59890819Y29567286D01*
X59890819Y29567286D02*
X59843200Y29662524D01*
X59843200Y29662524D02*
X59795580Y29710143D01*
X51265057Y31371381D02*
X51598390Y31847572D01*
X51836485Y31371381D02*
X51836485Y32371381D01*
X51836485Y32371381D02*
X51455533Y32371381D01*
X51455533Y32371381D02*
X51360295Y32323762D01*
X51360295Y32323762D02*
X51312676Y32276143D01*
X51312676Y32276143D02*
X51265057Y32180905D01*
X51265057Y32180905D02*
X51265057Y32038048D01*
X51265057Y32038048D02*
X51312676Y31942810D01*
X51312676Y31942810D02*
X51360295Y31895191D01*
X51360295Y31895191D02*
X51455533Y31847572D01*
X51455533Y31847572D02*
X51836485Y31847572D01*
X50312676Y31371381D02*
X50884104Y31371381D01*
X50598390Y31371381D02*
X50598390Y32371381D01*
X50598390Y32371381D02*
X50693628Y32228524D01*
X50693628Y32228524D02*
X50788866Y32133286D01*
X50788866Y32133286D02*
X50884104Y32085667D01*
X49931723Y32276143D02*
X49884104Y32323762D01*
X49884104Y32323762D02*
X49788866Y32371381D01*
X49788866Y32371381D02*
X49550771Y32371381D01*
X49550771Y32371381D02*
X49455533Y32323762D01*
X49455533Y32323762D02*
X49407914Y32276143D01*
X49407914Y32276143D02*
X49360295Y32180905D01*
X49360295Y32180905D02*
X49360295Y32085667D01*
X49360295Y32085667D02*
X49407914Y31942810D01*
X49407914Y31942810D02*
X49979342Y31371381D01*
X49979342Y31371381D02*
X49360295Y31371381D01*
X66473294Y21033581D02*
X66473294Y22033581D01*
X66473294Y22033581D02*
X66235199Y22033581D01*
X66235199Y22033581D02*
X66092342Y21985962D01*
X66092342Y21985962D02*
X65997104Y21890724D01*
X65997104Y21890724D02*
X65949485Y21795486D01*
X65949485Y21795486D02*
X65901866Y21605010D01*
X65901866Y21605010D02*
X65901866Y21462153D01*
X65901866Y21462153D02*
X65949485Y21271677D01*
X65949485Y21271677D02*
X65997104Y21176439D01*
X65997104Y21176439D02*
X66092342Y21081200D01*
X66092342Y21081200D02*
X66235199Y21033581D01*
X66235199Y21033581D02*
X66473294Y21033581D01*
X65520913Y21938343D02*
X65473294Y21985962D01*
X65473294Y21985962D02*
X65378056Y22033581D01*
X65378056Y22033581D02*
X65139961Y22033581D01*
X65139961Y22033581D02*
X65044723Y21985962D01*
X65044723Y21985962D02*
X64997104Y21938343D01*
X64997104Y21938343D02*
X64949485Y21843105D01*
X64949485Y21843105D02*
X64949485Y21747867D01*
X64949485Y21747867D02*
X64997104Y21605010D01*
X64997104Y21605010D02*
X65568532Y21033581D01*
X65568532Y21033581D02*
X64949485Y21033581D01*
X76055457Y62308581D02*
X76388790Y62784772D01*
X76626885Y62308581D02*
X76626885Y63308581D01*
X76626885Y63308581D02*
X76245933Y63308581D01*
X76245933Y63308581D02*
X76150695Y63260962D01*
X76150695Y63260962D02*
X76103076Y63213343D01*
X76103076Y63213343D02*
X76055457Y63118105D01*
X76055457Y63118105D02*
X76055457Y62975248D01*
X76055457Y62975248D02*
X76103076Y62880010D01*
X76103076Y62880010D02*
X76150695Y62832391D01*
X76150695Y62832391D02*
X76245933Y62784772D01*
X76245933Y62784772D02*
X76626885Y62784772D01*
X75103076Y62308581D02*
X75674504Y62308581D01*
X75388790Y62308581D02*
X75388790Y63308581D01*
X75388790Y63308581D02*
X75484028Y63165724D01*
X75484028Y63165724D02*
X75579266Y63070486D01*
X75579266Y63070486D02*
X75674504Y63022867D01*
X74245933Y62975248D02*
X74245933Y62308581D01*
X74484028Y63356200D02*
X74722123Y62641915D01*
X74722123Y62641915D02*
X74103076Y62641915D01*
X81767228Y54672391D02*
X82100561Y54672391D01*
X82100561Y54148581D02*
X82100561Y55148581D01*
X82100561Y55148581D02*
X81624371Y55148581D01*
X81243418Y54148581D02*
X81243418Y55148581D01*
X80767228Y54148581D02*
X80767228Y55148581D01*
X80767228Y55148581D02*
X80529133Y55148581D01*
X80529133Y55148581D02*
X80386276Y55100962D01*
X80386276Y55100962D02*
X80291038Y55005724D01*
X80291038Y55005724D02*
X80243419Y54910486D01*
X80243419Y54910486D02*
X80195800Y54720010D01*
X80195800Y54720010D02*
X80195800Y54577153D01*
X80195800Y54577153D02*
X80243419Y54386677D01*
X80243419Y54386677D02*
X80291038Y54291439D01*
X80291038Y54291439D02*
X80386276Y54196200D01*
X80386276Y54196200D02*
X80529133Y54148581D01*
X80529133Y54148581D02*
X80767228Y54148581D01*
X79814847Y55053343D02*
X79767228Y55100962D01*
X79767228Y55100962D02*
X79671990Y55148581D01*
X79671990Y55148581D02*
X79433895Y55148581D01*
X79433895Y55148581D02*
X79338657Y55100962D01*
X79338657Y55100962D02*
X79291038Y55053343D01*
X79291038Y55053343D02*
X79243419Y54958105D01*
X79243419Y54958105D02*
X79243419Y54862867D01*
X79243419Y54862867D02*
X79291038Y54720010D01*
X79291038Y54720010D02*
X79862466Y54148581D01*
X79862466Y54148581D02*
X79243419Y54148581D01*
X47002619Y36286914D02*
X47002619Y35715486D01*
X48002619Y36001200D02*
X47002619Y36001200D01*
X48002619Y35382152D02*
X47002619Y35382152D01*
X47478809Y35382152D02*
X47478809Y34810724D01*
X48002619Y34810724D02*
X47002619Y34810724D01*
X47335952Y33905962D02*
X48002619Y33905962D01*
X46955000Y34144057D02*
X47669285Y34382152D01*
X47669285Y34382152D02*
X47669285Y33763105D01*
X57757219Y44730895D02*
X56757219Y44730895D01*
X56757219Y44730895D02*
X56757219Y44492800D01*
X56757219Y44492800D02*
X56804838Y44349943D01*
X56804838Y44349943D02*
X56900076Y44254705D01*
X56900076Y44254705D02*
X56995314Y44207086D01*
X56995314Y44207086D02*
X57185790Y44159467D01*
X57185790Y44159467D02*
X57328647Y44159467D01*
X57328647Y44159467D02*
X57519123Y44207086D01*
X57519123Y44207086D02*
X57614361Y44254705D01*
X57614361Y44254705D02*
X57709600Y44349943D01*
X57709600Y44349943D02*
X57757219Y44492800D01*
X57757219Y44492800D02*
X57757219Y44730895D01*
X56757219Y43302324D02*
X56757219Y43492800D01*
X56757219Y43492800D02*
X56804838Y43588038D01*
X56804838Y43588038D02*
X56852457Y43635657D01*
X56852457Y43635657D02*
X56995314Y43730895D01*
X56995314Y43730895D02*
X57185790Y43778514D01*
X57185790Y43778514D02*
X57566742Y43778514D01*
X57566742Y43778514D02*
X57661980Y43730895D01*
X57661980Y43730895D02*
X57709600Y43683276D01*
X57709600Y43683276D02*
X57757219Y43588038D01*
X57757219Y43588038D02*
X57757219Y43397562D01*
X57757219Y43397562D02*
X57709600Y43302324D01*
X57709600Y43302324D02*
X57661980Y43254705D01*
X57661980Y43254705D02*
X57566742Y43207086D01*
X57566742Y43207086D02*
X57328647Y43207086D01*
X57328647Y43207086D02*
X57233409Y43254705D01*
X57233409Y43254705D02*
X57185790Y43302324D01*
X57185790Y43302324D02*
X57138171Y43397562D01*
X57138171Y43397562D02*
X57138171Y43588038D01*
X57138171Y43588038D02*
X57185790Y43683276D01*
X57185790Y43683276D02*
X57233409Y43730895D01*
X57233409Y43730895D02*
X57328647Y43778514D01*
X73308380Y33078658D02*
X73356000Y33126277D01*
X73356000Y33126277D02*
X73403619Y33269134D01*
X73403619Y33269134D02*
X73403619Y33364372D01*
X73403619Y33364372D02*
X73356000Y33507229D01*
X73356000Y33507229D02*
X73260761Y33602467D01*
X73260761Y33602467D02*
X73165523Y33650086D01*
X73165523Y33650086D02*
X72975047Y33697705D01*
X72975047Y33697705D02*
X72832190Y33697705D01*
X72832190Y33697705D02*
X72641714Y33650086D01*
X72641714Y33650086D02*
X72546476Y33602467D01*
X72546476Y33602467D02*
X72451238Y33507229D01*
X72451238Y33507229D02*
X72403619Y33364372D01*
X72403619Y33364372D02*
X72403619Y33269134D01*
X72403619Y33269134D02*
X72451238Y33126277D01*
X72451238Y33126277D02*
X72498857Y33078658D01*
X72498857Y32697705D02*
X72451238Y32650086D01*
X72451238Y32650086D02*
X72403619Y32554848D01*
X72403619Y32554848D02*
X72403619Y32316753D01*
X72403619Y32316753D02*
X72451238Y32221515D01*
X72451238Y32221515D02*
X72498857Y32173896D01*
X72498857Y32173896D02*
X72594095Y32126277D01*
X72594095Y32126277D02*
X72689333Y32126277D01*
X72689333Y32126277D02*
X72832190Y32173896D01*
X72832190Y32173896D02*
X73403619Y32745324D01*
X73403619Y32745324D02*
X73403619Y32126277D01*
X73403619Y31173896D02*
X73403619Y31745324D01*
X73403619Y31459610D02*
X72403619Y31459610D01*
X72403619Y31459610D02*
X72546476Y31554848D01*
X72546476Y31554848D02*
X72641714Y31650086D01*
X72641714Y31650086D02*
X72689333Y31745324D01*
X25327780Y21623258D02*
X25375400Y21670877D01*
X25375400Y21670877D02*
X25423019Y21813734D01*
X25423019Y21813734D02*
X25423019Y21908972D01*
X25423019Y21908972D02*
X25375400Y22051829D01*
X25375400Y22051829D02*
X25280161Y22147067D01*
X25280161Y22147067D02*
X25184923Y22194686D01*
X25184923Y22194686D02*
X24994447Y22242305D01*
X24994447Y22242305D02*
X24851590Y22242305D01*
X24851590Y22242305D02*
X24661114Y22194686D01*
X24661114Y22194686D02*
X24565876Y22147067D01*
X24565876Y22147067D02*
X24470638Y22051829D01*
X24470638Y22051829D02*
X24423019Y21908972D01*
X24423019Y21908972D02*
X24423019Y21813734D01*
X24423019Y21813734D02*
X24470638Y21670877D01*
X24470638Y21670877D02*
X24518257Y21623258D01*
X24518257Y21242305D02*
X24470638Y21194686D01*
X24470638Y21194686D02*
X24423019Y21099448D01*
X24423019Y21099448D02*
X24423019Y20861353D01*
X24423019Y20861353D02*
X24470638Y20766115D01*
X24470638Y20766115D02*
X24518257Y20718496D01*
X24518257Y20718496D02*
X24613495Y20670877D01*
X24613495Y20670877D02*
X24708733Y20670877D01*
X24708733Y20670877D02*
X24851590Y20718496D01*
X24851590Y20718496D02*
X25423019Y21289924D01*
X25423019Y21289924D02*
X25423019Y20670877D01*
X24423019Y19766115D02*
X24423019Y20242305D01*
X24423019Y20242305D02*
X24899209Y20289924D01*
X24899209Y20289924D02*
X24851590Y20242305D01*
X24851590Y20242305D02*
X24803971Y20147067D01*
X24803971Y20147067D02*
X24803971Y19908972D01*
X24803971Y19908972D02*
X24851590Y19813734D01*
X24851590Y19813734D02*
X24899209Y19766115D01*
X24899209Y19766115D02*
X24994447Y19718496D01*
X24994447Y19718496D02*
X25232542Y19718496D01*
X25232542Y19718496D02*
X25327780Y19766115D01*
X25327780Y19766115D02*
X25375400Y19813734D01*
X25375400Y19813734D02*
X25423019Y19908972D01*
X25423019Y19908972D02*
X25423019Y20147067D01*
X25423019Y20147067D02*
X25375400Y20242305D01*
X25375400Y20242305D02*
X25327780Y20289924D01*
X64981057Y62664181D02*
X65314390Y63140372D01*
X65552485Y62664181D02*
X65552485Y63664181D01*
X65552485Y63664181D02*
X65171533Y63664181D01*
X65171533Y63664181D02*
X65076295Y63616562D01*
X65076295Y63616562D02*
X65028676Y63568943D01*
X65028676Y63568943D02*
X64981057Y63473705D01*
X64981057Y63473705D02*
X64981057Y63330848D01*
X64981057Y63330848D02*
X65028676Y63235610D01*
X65028676Y63235610D02*
X65076295Y63187991D01*
X65076295Y63187991D02*
X65171533Y63140372D01*
X65171533Y63140372D02*
X65552485Y63140372D01*
X64028676Y62664181D02*
X64600104Y62664181D01*
X64314390Y62664181D02*
X64314390Y63664181D01*
X64314390Y63664181D02*
X64409628Y63521324D01*
X64409628Y63521324D02*
X64504866Y63426086D01*
X64504866Y63426086D02*
X64600104Y63378467D01*
X63123914Y63664181D02*
X63600104Y63664181D01*
X63600104Y63664181D02*
X63647723Y63187991D01*
X63647723Y63187991D02*
X63600104Y63235610D01*
X63600104Y63235610D02*
X63504866Y63283229D01*
X63504866Y63283229D02*
X63266771Y63283229D01*
X63266771Y63283229D02*
X63171533Y63235610D01*
X63171533Y63235610D02*
X63123914Y63187991D01*
X63123914Y63187991D02*
X63076295Y63092753D01*
X63076295Y63092753D02*
X63076295Y62854658D01*
X63076295Y62854658D02*
X63123914Y62759420D01*
X63123914Y62759420D02*
X63171533Y62711800D01*
X63171533Y62711800D02*
X63266771Y62664181D01*
X63266771Y62664181D02*
X63504866Y62664181D01*
X63504866Y62664181D02*
X63600104Y62711800D01*
X63600104Y62711800D02*
X63647723Y62759420D01*
X47476580Y21877258D02*
X47524200Y21924877D01*
X47524200Y21924877D02*
X47571819Y22067734D01*
X47571819Y22067734D02*
X47571819Y22162972D01*
X47571819Y22162972D02*
X47524200Y22305829D01*
X47524200Y22305829D02*
X47428961Y22401067D01*
X47428961Y22401067D02*
X47333723Y22448686D01*
X47333723Y22448686D02*
X47143247Y22496305D01*
X47143247Y22496305D02*
X47000390Y22496305D01*
X47000390Y22496305D02*
X46809914Y22448686D01*
X46809914Y22448686D02*
X46714676Y22401067D01*
X46714676Y22401067D02*
X46619438Y22305829D01*
X46619438Y22305829D02*
X46571819Y22162972D01*
X46571819Y22162972D02*
X46571819Y22067734D01*
X46571819Y22067734D02*
X46619438Y21924877D01*
X46619438Y21924877D02*
X46667057Y21877258D01*
X47571819Y20924877D02*
X47571819Y21496305D01*
X47571819Y21210591D02*
X46571819Y21210591D01*
X46571819Y21210591D02*
X46714676Y21305829D01*
X46714676Y21305829D02*
X46809914Y21401067D01*
X46809914Y21401067D02*
X46857533Y21496305D01*
X46571819Y20591543D02*
X46571819Y19972496D01*
X46571819Y19972496D02*
X46952771Y20305829D01*
X46952771Y20305829D02*
X46952771Y20162972D01*
X46952771Y20162972D02*
X47000390Y20067734D01*
X47000390Y20067734D02*
X47048009Y20020115D01*
X47048009Y20020115D02*
X47143247Y19972496D01*
X47143247Y19972496D02*
X47381342Y19972496D01*
X47381342Y19972496D02*
X47476580Y20020115D01*
X47476580Y20020115D02*
X47524200Y20067734D01*
X47524200Y20067734D02*
X47571819Y20162972D01*
X47571819Y20162972D02*
X47571819Y20448686D01*
X47571819Y20448686D02*
X47524200Y20543924D01*
X47524200Y20543924D02*
X47476580Y20591543D01*
X30437057Y23440220D02*
X30484676Y23392600D01*
X30484676Y23392600D02*
X30627533Y23344981D01*
X30627533Y23344981D02*
X30722771Y23344981D01*
X30722771Y23344981D02*
X30865628Y23392600D01*
X30865628Y23392600D02*
X30960866Y23487839D01*
X30960866Y23487839D02*
X31008485Y23583077D01*
X31008485Y23583077D02*
X31056104Y23773553D01*
X31056104Y23773553D02*
X31056104Y23916410D01*
X31056104Y23916410D02*
X31008485Y24106886D01*
X31008485Y24106886D02*
X30960866Y24202124D01*
X30960866Y24202124D02*
X30865628Y24297362D01*
X30865628Y24297362D02*
X30722771Y24344981D01*
X30722771Y24344981D02*
X30627533Y24344981D01*
X30627533Y24344981D02*
X30484676Y24297362D01*
X30484676Y24297362D02*
X30437057Y24249743D01*
X30056104Y24249743D02*
X30008485Y24297362D01*
X30008485Y24297362D02*
X29913247Y24344981D01*
X29913247Y24344981D02*
X29675152Y24344981D01*
X29675152Y24344981D02*
X29579914Y24297362D01*
X29579914Y24297362D02*
X29532295Y24249743D01*
X29532295Y24249743D02*
X29484676Y24154505D01*
X29484676Y24154505D02*
X29484676Y24059267D01*
X29484676Y24059267D02*
X29532295Y23916410D01*
X29532295Y23916410D02*
X30103723Y23344981D01*
X30103723Y23344981D02*
X29484676Y23344981D01*
X28627533Y24011648D02*
X28627533Y23344981D01*
X28865628Y24392600D02*
X29103723Y23678315D01*
X29103723Y23678315D02*
X28484676Y23678315D01*
X40313780Y21775658D02*
X40361400Y21823277D01*
X40361400Y21823277D02*
X40409019Y21966134D01*
X40409019Y21966134D02*
X40409019Y22061372D01*
X40409019Y22061372D02*
X40361400Y22204229D01*
X40361400Y22204229D02*
X40266161Y22299467D01*
X40266161Y22299467D02*
X40170923Y22347086D01*
X40170923Y22347086D02*
X39980447Y22394705D01*
X39980447Y22394705D02*
X39837590Y22394705D01*
X39837590Y22394705D02*
X39647114Y22347086D01*
X39647114Y22347086D02*
X39551876Y22299467D01*
X39551876Y22299467D02*
X39456638Y22204229D01*
X39456638Y22204229D02*
X39409019Y22061372D01*
X39409019Y22061372D02*
X39409019Y21966134D01*
X39409019Y21966134D02*
X39456638Y21823277D01*
X39456638Y21823277D02*
X39504257Y21775658D01*
X39409019Y21442324D02*
X39409019Y20823277D01*
X39409019Y20823277D02*
X39789971Y21156610D01*
X39789971Y21156610D02*
X39789971Y21013753D01*
X39789971Y21013753D02*
X39837590Y20918515D01*
X39837590Y20918515D02*
X39885209Y20870896D01*
X39885209Y20870896D02*
X39980447Y20823277D01*
X39980447Y20823277D02*
X40218542Y20823277D01*
X40218542Y20823277D02*
X40313780Y20870896D01*
X40313780Y20870896D02*
X40361400Y20918515D01*
X40361400Y20918515D02*
X40409019Y21013753D01*
X40409019Y21013753D02*
X40409019Y21299467D01*
X40409019Y21299467D02*
X40361400Y21394705D01*
X40361400Y21394705D02*
X40313780Y21442324D01*
X40409019Y19870896D02*
X40409019Y20442324D01*
X40409019Y20156610D02*
X39409019Y20156610D01*
X39409019Y20156610D02*
X39551876Y20251848D01*
X39551876Y20251848D02*
X39647114Y20347086D01*
X39647114Y20347086D02*
X39694733Y20442324D01*
X71785028Y27494391D02*
X72118361Y27494391D01*
X72118361Y26970581D02*
X72118361Y27970581D01*
X72118361Y27970581D02*
X71642171Y27970581D01*
X71261218Y26970581D02*
X71261218Y27970581D01*
X70785028Y26970581D02*
X70785028Y27970581D01*
X70785028Y27970581D02*
X70546933Y27970581D01*
X70546933Y27970581D02*
X70404076Y27922962D01*
X70404076Y27922962D02*
X70308838Y27827724D01*
X70308838Y27827724D02*
X70261219Y27732486D01*
X70261219Y27732486D02*
X70213600Y27542010D01*
X70213600Y27542010D02*
X70213600Y27399153D01*
X70213600Y27399153D02*
X70261219Y27208677D01*
X70261219Y27208677D02*
X70308838Y27113439D01*
X70308838Y27113439D02*
X70404076Y27018200D01*
X70404076Y27018200D02*
X70546933Y26970581D01*
X70546933Y26970581D02*
X70785028Y26970581D01*
X69880266Y27970581D02*
X69261219Y27970581D01*
X69261219Y27970581D02*
X69594552Y27589629D01*
X69594552Y27589629D02*
X69451695Y27589629D01*
X69451695Y27589629D02*
X69356457Y27542010D01*
X69356457Y27542010D02*
X69308838Y27494391D01*
X69308838Y27494391D02*
X69261219Y27399153D01*
X69261219Y27399153D02*
X69261219Y27161058D01*
X69261219Y27161058D02*
X69308838Y27065820D01*
X69308838Y27065820D02*
X69356457Y27018200D01*
X69356457Y27018200D02*
X69451695Y26970581D01*
X69451695Y26970581D02*
X69737409Y26970581D01*
X69737409Y26970581D02*
X69832647Y27018200D01*
X69832647Y27018200D02*
X69880266Y27065820D01*
X38281780Y21801058D02*
X38329400Y21848677D01*
X38329400Y21848677D02*
X38377019Y21991534D01*
X38377019Y21991534D02*
X38377019Y22086772D01*
X38377019Y22086772D02*
X38329400Y22229629D01*
X38329400Y22229629D02*
X38234161Y22324867D01*
X38234161Y22324867D02*
X38138923Y22372486D01*
X38138923Y22372486D02*
X37948447Y22420105D01*
X37948447Y22420105D02*
X37805590Y22420105D01*
X37805590Y22420105D02*
X37615114Y22372486D01*
X37615114Y22372486D02*
X37519876Y22324867D01*
X37519876Y22324867D02*
X37424638Y22229629D01*
X37424638Y22229629D02*
X37377019Y22086772D01*
X37377019Y22086772D02*
X37377019Y21991534D01*
X37377019Y21991534D02*
X37424638Y21848677D01*
X37424638Y21848677D02*
X37472257Y21801058D01*
X37377019Y21467724D02*
X37377019Y20848677D01*
X37377019Y20848677D02*
X37757971Y21182010D01*
X37757971Y21182010D02*
X37757971Y21039153D01*
X37757971Y21039153D02*
X37805590Y20943915D01*
X37805590Y20943915D02*
X37853209Y20896296D01*
X37853209Y20896296D02*
X37948447Y20848677D01*
X37948447Y20848677D02*
X38186542Y20848677D01*
X38186542Y20848677D02*
X38281780Y20896296D01*
X38281780Y20896296D02*
X38329400Y20943915D01*
X38329400Y20943915D02*
X38377019Y21039153D01*
X38377019Y21039153D02*
X38377019Y21324867D01*
X38377019Y21324867D02*
X38329400Y21420105D01*
X38329400Y21420105D02*
X38281780Y21467724D01*
X37377019Y20229629D02*
X37377019Y20134391D01*
X37377019Y20134391D02*
X37424638Y20039153D01*
X37424638Y20039153D02*
X37472257Y19991534D01*
X37472257Y19991534D02*
X37567495Y19943915D01*
X37567495Y19943915D02*
X37757971Y19896296D01*
X37757971Y19896296D02*
X37996066Y19896296D01*
X37996066Y19896296D02*
X38186542Y19943915D01*
X38186542Y19943915D02*
X38281780Y19991534D01*
X38281780Y19991534D02*
X38329400Y20039153D01*
X38329400Y20039153D02*
X38377019Y20134391D01*
X38377019Y20134391D02*
X38377019Y20229629D01*
X38377019Y20229629D02*
X38329400Y20324867D01*
X38329400Y20324867D02*
X38281780Y20372486D01*
X38281780Y20372486D02*
X38186542Y20420105D01*
X38186542Y20420105D02*
X37996066Y20467724D01*
X37996066Y20467724D02*
X37757971Y20467724D01*
X37757971Y20467724D02*
X37567495Y20420105D01*
X37567495Y20420105D02*
X37472257Y20372486D01*
X37472257Y20372486D02*
X37424638Y20324867D01*
X37424638Y20324867D02*
X37377019Y20229629D01*
X22486857Y18665020D02*
X22534476Y18617400D01*
X22534476Y18617400D02*
X22677333Y18569781D01*
X22677333Y18569781D02*
X22772571Y18569781D01*
X22772571Y18569781D02*
X22915428Y18617400D01*
X22915428Y18617400D02*
X23010666Y18712639D01*
X23010666Y18712639D02*
X23058285Y18807877D01*
X23058285Y18807877D02*
X23105904Y18998353D01*
X23105904Y18998353D02*
X23105904Y19141210D01*
X23105904Y19141210D02*
X23058285Y19331686D01*
X23058285Y19331686D02*
X23010666Y19426924D01*
X23010666Y19426924D02*
X22915428Y19522162D01*
X22915428Y19522162D02*
X22772571Y19569781D01*
X22772571Y19569781D02*
X22677333Y19569781D01*
X22677333Y19569781D02*
X22534476Y19522162D01*
X22534476Y19522162D02*
X22486857Y19474543D01*
X22105904Y19474543D02*
X22058285Y19522162D01*
X22058285Y19522162D02*
X21963047Y19569781D01*
X21963047Y19569781D02*
X21724952Y19569781D01*
X21724952Y19569781D02*
X21629714Y19522162D01*
X21629714Y19522162D02*
X21582095Y19474543D01*
X21582095Y19474543D02*
X21534476Y19379305D01*
X21534476Y19379305D02*
X21534476Y19284067D01*
X21534476Y19284067D02*
X21582095Y19141210D01*
X21582095Y19141210D02*
X22153523Y18569781D01*
X22153523Y18569781D02*
X21534476Y18569781D01*
X21058285Y18569781D02*
X20867809Y18569781D01*
X20867809Y18569781D02*
X20772571Y18617400D01*
X20772571Y18617400D02*
X20724952Y18665020D01*
X20724952Y18665020D02*
X20629714Y18807877D01*
X20629714Y18807877D02*
X20582095Y18998353D01*
X20582095Y18998353D02*
X20582095Y19379305D01*
X20582095Y19379305D02*
X20629714Y19474543D01*
X20629714Y19474543D02*
X20677333Y19522162D01*
X20677333Y19522162D02*
X20772571Y19569781D01*
X20772571Y19569781D02*
X20963047Y19569781D01*
X20963047Y19569781D02*
X21058285Y19522162D01*
X21058285Y19522162D02*
X21105904Y19474543D01*
X21105904Y19474543D02*
X21153523Y19379305D01*
X21153523Y19379305D02*
X21153523Y19141210D01*
X21153523Y19141210D02*
X21105904Y19045972D01*
X21105904Y19045972D02*
X21058285Y18998353D01*
X21058285Y18998353D02*
X20963047Y18950734D01*
X20963047Y18950734D02*
X20772571Y18950734D01*
X20772571Y18950734D02*
X20677333Y18998353D01*
X20677333Y18998353D02*
X20629714Y19045972D01*
X20629714Y19045972D02*
X20582095Y19141210D01*
X27181980Y21699458D02*
X27229600Y21747077D01*
X27229600Y21747077D02*
X27277219Y21889934D01*
X27277219Y21889934D02*
X27277219Y21985172D01*
X27277219Y21985172D02*
X27229600Y22128029D01*
X27229600Y22128029D02*
X27134361Y22223267D01*
X27134361Y22223267D02*
X27039123Y22270886D01*
X27039123Y22270886D02*
X26848647Y22318505D01*
X26848647Y22318505D02*
X26705790Y22318505D01*
X26705790Y22318505D02*
X26515314Y22270886D01*
X26515314Y22270886D02*
X26420076Y22223267D01*
X26420076Y22223267D02*
X26324838Y22128029D01*
X26324838Y22128029D02*
X26277219Y21985172D01*
X26277219Y21985172D02*
X26277219Y21889934D01*
X26277219Y21889934D02*
X26324838Y21747077D01*
X26324838Y21747077D02*
X26372457Y21699458D01*
X26372457Y21318505D02*
X26324838Y21270886D01*
X26324838Y21270886D02*
X26277219Y21175648D01*
X26277219Y21175648D02*
X26277219Y20937553D01*
X26277219Y20937553D02*
X26324838Y20842315D01*
X26324838Y20842315D02*
X26372457Y20794696D01*
X26372457Y20794696D02*
X26467695Y20747077D01*
X26467695Y20747077D02*
X26562933Y20747077D01*
X26562933Y20747077D02*
X26705790Y20794696D01*
X26705790Y20794696D02*
X27277219Y21366124D01*
X27277219Y21366124D02*
X27277219Y20747077D01*
X26277219Y19889934D02*
X26277219Y20080410D01*
X26277219Y20080410D02*
X26324838Y20175648D01*
X26324838Y20175648D02*
X26372457Y20223267D01*
X26372457Y20223267D02*
X26515314Y20318505D01*
X26515314Y20318505D02*
X26705790Y20366124D01*
X26705790Y20366124D02*
X27086742Y20366124D01*
X27086742Y20366124D02*
X27181980Y20318505D01*
X27181980Y20318505D02*
X27229600Y20270886D01*
X27229600Y20270886D02*
X27277219Y20175648D01*
X27277219Y20175648D02*
X27277219Y19985172D01*
X27277219Y19985172D02*
X27229600Y19889934D01*
X27229600Y19889934D02*
X27181980Y19842315D01*
X27181980Y19842315D02*
X27086742Y19794696D01*
X27086742Y19794696D02*
X26848647Y19794696D01*
X26848647Y19794696D02*
X26753409Y19842315D01*
X26753409Y19842315D02*
X26705790Y19889934D01*
X26705790Y19889934D02*
X26658171Y19985172D01*
X26658171Y19985172D02*
X26658171Y20175648D01*
X26658171Y20175648D02*
X26705790Y20270886D01*
X26705790Y20270886D02*
X26753409Y20318505D01*
X26753409Y20318505D02*
X26848647Y20366124D01*
X47679780Y32138858D02*
X47727400Y32186477D01*
X47727400Y32186477D02*
X47775019Y32329334D01*
X47775019Y32329334D02*
X47775019Y32424572D01*
X47775019Y32424572D02*
X47727400Y32567429D01*
X47727400Y32567429D02*
X47632161Y32662667D01*
X47632161Y32662667D02*
X47536923Y32710286D01*
X47536923Y32710286D02*
X47346447Y32757905D01*
X47346447Y32757905D02*
X47203590Y32757905D01*
X47203590Y32757905D02*
X47013114Y32710286D01*
X47013114Y32710286D02*
X46917876Y32662667D01*
X46917876Y32662667D02*
X46822638Y32567429D01*
X46822638Y32567429D02*
X46775019Y32424572D01*
X46775019Y32424572D02*
X46775019Y32329334D01*
X46775019Y32329334D02*
X46822638Y32186477D01*
X46822638Y32186477D02*
X46870257Y32138858D01*
X47775019Y31186477D02*
X47775019Y31757905D01*
X47775019Y31472191D02*
X46775019Y31472191D01*
X46775019Y31472191D02*
X46917876Y31567429D01*
X46917876Y31567429D02*
X47013114Y31662667D01*
X47013114Y31662667D02*
X47060733Y31757905D01*
X46870257Y30805524D02*
X46822638Y30757905D01*
X46822638Y30757905D02*
X46775019Y30662667D01*
X46775019Y30662667D02*
X46775019Y30424572D01*
X46775019Y30424572D02*
X46822638Y30329334D01*
X46822638Y30329334D02*
X46870257Y30281715D01*
X46870257Y30281715D02*
X46965495Y30234096D01*
X46965495Y30234096D02*
X47060733Y30234096D01*
X47060733Y30234096D02*
X47203590Y30281715D01*
X47203590Y30281715D02*
X47775019Y30853143D01*
X47775019Y30853143D02*
X47775019Y30234096D01*
X60536057Y23872020D02*
X60583676Y23824400D01*
X60583676Y23824400D02*
X60726533Y23776781D01*
X60726533Y23776781D02*
X60821771Y23776781D01*
X60821771Y23776781D02*
X60964628Y23824400D01*
X60964628Y23824400D02*
X61059866Y23919639D01*
X61059866Y23919639D02*
X61107485Y24014877D01*
X61107485Y24014877D02*
X61155104Y24205353D01*
X61155104Y24205353D02*
X61155104Y24348210D01*
X61155104Y24348210D02*
X61107485Y24538686D01*
X61107485Y24538686D02*
X61059866Y24633924D01*
X61059866Y24633924D02*
X60964628Y24729162D01*
X60964628Y24729162D02*
X60821771Y24776781D01*
X60821771Y24776781D02*
X60726533Y24776781D01*
X60726533Y24776781D02*
X60583676Y24729162D01*
X60583676Y24729162D02*
X60536057Y24681543D01*
X60202723Y24776781D02*
X59583676Y24776781D01*
X59583676Y24776781D02*
X59917009Y24395829D01*
X59917009Y24395829D02*
X59774152Y24395829D01*
X59774152Y24395829D02*
X59678914Y24348210D01*
X59678914Y24348210D02*
X59631295Y24300591D01*
X59631295Y24300591D02*
X59583676Y24205353D01*
X59583676Y24205353D02*
X59583676Y23967258D01*
X59583676Y23967258D02*
X59631295Y23872020D01*
X59631295Y23872020D02*
X59678914Y23824400D01*
X59678914Y23824400D02*
X59774152Y23776781D01*
X59774152Y23776781D02*
X60059866Y23776781D01*
X60059866Y23776781D02*
X60155104Y23824400D01*
X60155104Y23824400D02*
X60202723Y23872020D01*
X59012247Y24348210D02*
X59107485Y24395829D01*
X59107485Y24395829D02*
X59155104Y24443448D01*
X59155104Y24443448D02*
X59202723Y24538686D01*
X59202723Y24538686D02*
X59202723Y24586305D01*
X59202723Y24586305D02*
X59155104Y24681543D01*
X59155104Y24681543D02*
X59107485Y24729162D01*
X59107485Y24729162D02*
X59012247Y24776781D01*
X59012247Y24776781D02*
X58821771Y24776781D01*
X58821771Y24776781D02*
X58726533Y24729162D01*
X58726533Y24729162D02*
X58678914Y24681543D01*
X58678914Y24681543D02*
X58631295Y24586305D01*
X58631295Y24586305D02*
X58631295Y24538686D01*
X58631295Y24538686D02*
X58678914Y24443448D01*
X58678914Y24443448D02*
X58726533Y24395829D01*
X58726533Y24395829D02*
X58821771Y24348210D01*
X58821771Y24348210D02*
X59012247Y24348210D01*
X59012247Y24348210D02*
X59107485Y24300591D01*
X59107485Y24300591D02*
X59155104Y24252972D01*
X59155104Y24252972D02*
X59202723Y24157734D01*
X59202723Y24157734D02*
X59202723Y23967258D01*
X59202723Y23967258D02*
X59155104Y23872020D01*
X59155104Y23872020D02*
X59107485Y23824400D01*
X59107485Y23824400D02*
X59012247Y23776781D01*
X59012247Y23776781D02*
X58821771Y23776781D01*
X58821771Y23776781D02*
X58726533Y23824400D01*
X58726533Y23824400D02*
X58678914Y23872020D01*
X58678914Y23872020D02*
X58631295Y23967258D01*
X58631295Y23967258D02*
X58631295Y24157734D01*
X58631295Y24157734D02*
X58678914Y24252972D01*
X58678914Y24252972D02*
X58726533Y24300591D01*
X58726533Y24300591D02*
X58821771Y24348210D01*
X62999857Y29058981D02*
X63333190Y29535172D01*
X63571285Y29058981D02*
X63571285Y30058981D01*
X63571285Y30058981D02*
X63190333Y30058981D01*
X63190333Y30058981D02*
X63095095Y30011362D01*
X63095095Y30011362D02*
X63047476Y29963743D01*
X63047476Y29963743D02*
X62999857Y29868505D01*
X62999857Y29868505D02*
X62999857Y29725648D01*
X62999857Y29725648D02*
X63047476Y29630410D01*
X63047476Y29630410D02*
X63095095Y29582791D01*
X63095095Y29582791D02*
X63190333Y29535172D01*
X63190333Y29535172D02*
X63571285Y29535172D01*
X62047476Y29058981D02*
X62618904Y29058981D01*
X62333190Y29058981D02*
X62333190Y30058981D01*
X62333190Y30058981D02*
X62428428Y29916124D01*
X62428428Y29916124D02*
X62523666Y29820886D01*
X62523666Y29820886D02*
X62618904Y29773267D01*
X61428428Y30058981D02*
X61333190Y30058981D01*
X61333190Y30058981D02*
X61237952Y30011362D01*
X61237952Y30011362D02*
X61190333Y29963743D01*
X61190333Y29963743D02*
X61142714Y29868505D01*
X61142714Y29868505D02*
X61095095Y29678029D01*
X61095095Y29678029D02*
X61095095Y29439934D01*
X61095095Y29439934D02*
X61142714Y29249458D01*
X61142714Y29249458D02*
X61190333Y29154220D01*
X61190333Y29154220D02*
X61237952Y29106600D01*
X61237952Y29106600D02*
X61333190Y29058981D01*
X61333190Y29058981D02*
X61428428Y29058981D01*
X61428428Y29058981D02*
X61523666Y29106600D01*
X61523666Y29106600D02*
X61571285Y29154220D01*
X61571285Y29154220D02*
X61618904Y29249458D01*
X61618904Y29249458D02*
X61666523Y29439934D01*
X61666523Y29439934D02*
X61666523Y29678029D01*
X61666523Y29678029D02*
X61618904Y29868505D01*
X61618904Y29868505D02*
X61571285Y29963743D01*
X61571285Y29963743D02*
X61523666Y30011362D01*
X61523666Y30011362D02*
X61428428Y30058981D01*
X24098238Y41817143D02*
X24193476Y41864762D01*
X24193476Y41864762D02*
X24288714Y41960000D01*
X24288714Y41960000D02*
X24431571Y42102858D01*
X24431571Y42102858D02*
X24526809Y42150477D01*
X24526809Y42150477D02*
X24622047Y42150477D01*
X24574428Y41912381D02*
X24669666Y41960000D01*
X24669666Y41960000D02*
X24764904Y42055239D01*
X24764904Y42055239D02*
X24812523Y42245715D01*
X24812523Y42245715D02*
X24812523Y42579048D01*
X24812523Y42579048D02*
X24764904Y42769524D01*
X24764904Y42769524D02*
X24669666Y42864762D01*
X24669666Y42864762D02*
X24574428Y42912381D01*
X24574428Y42912381D02*
X24383952Y42912381D01*
X24383952Y42912381D02*
X24288714Y42864762D01*
X24288714Y42864762D02*
X24193476Y42769524D01*
X24193476Y42769524D02*
X24145857Y42579048D01*
X24145857Y42579048D02*
X24145857Y42245715D01*
X24145857Y42245715D02*
X24193476Y42055239D01*
X24193476Y42055239D02*
X24288714Y41960000D01*
X24288714Y41960000D02*
X24383952Y41912381D01*
X24383952Y41912381D02*
X24574428Y41912381D01*
X23764904Y42817143D02*
X23717285Y42864762D01*
X23717285Y42864762D02*
X23622047Y42912381D01*
X23622047Y42912381D02*
X23383952Y42912381D01*
X23383952Y42912381D02*
X23288714Y42864762D01*
X23288714Y42864762D02*
X23241095Y42817143D01*
X23241095Y42817143D02*
X23193476Y42721905D01*
X23193476Y42721905D02*
X23193476Y42626667D01*
X23193476Y42626667D02*
X23241095Y42483810D01*
X23241095Y42483810D02*
X23812523Y41912381D01*
X23812523Y41912381D02*
X23193476Y41912381D01*
X49787980Y18753058D02*
X49835600Y18800677D01*
X49835600Y18800677D02*
X49883219Y18943534D01*
X49883219Y18943534D02*
X49883219Y19038772D01*
X49883219Y19038772D02*
X49835600Y19181629D01*
X49835600Y19181629D02*
X49740361Y19276867D01*
X49740361Y19276867D02*
X49645123Y19324486D01*
X49645123Y19324486D02*
X49454647Y19372105D01*
X49454647Y19372105D02*
X49311790Y19372105D01*
X49311790Y19372105D02*
X49121314Y19324486D01*
X49121314Y19324486D02*
X49026076Y19276867D01*
X49026076Y19276867D02*
X48930838Y19181629D01*
X48930838Y19181629D02*
X48883219Y19038772D01*
X48883219Y19038772D02*
X48883219Y18943534D01*
X48883219Y18943534D02*
X48930838Y18800677D01*
X48930838Y18800677D02*
X48978457Y18753058D01*
X48978457Y18372105D02*
X48930838Y18324486D01*
X48930838Y18324486D02*
X48883219Y18229248D01*
X48883219Y18229248D02*
X48883219Y17991153D01*
X48883219Y17991153D02*
X48930838Y17895915D01*
X48930838Y17895915D02*
X48978457Y17848296D01*
X48978457Y17848296D02*
X49073695Y17800677D01*
X49073695Y17800677D02*
X49168933Y17800677D01*
X49168933Y17800677D02*
X49311790Y17848296D01*
X49311790Y17848296D02*
X49883219Y18419724D01*
X49883219Y18419724D02*
X49883219Y17800677D01*
X48883219Y17467343D02*
X48883219Y16848296D01*
X48883219Y16848296D02*
X49264171Y17181629D01*
X49264171Y17181629D02*
X49264171Y17038772D01*
X49264171Y17038772D02*
X49311790Y16943534D01*
X49311790Y16943534D02*
X49359409Y16895915D01*
X49359409Y16895915D02*
X49454647Y16848296D01*
X49454647Y16848296D02*
X49692742Y16848296D01*
X49692742Y16848296D02*
X49787980Y16895915D01*
X49787980Y16895915D02*
X49835600Y16943534D01*
X49835600Y16943534D02*
X49883219Y17038772D01*
X49883219Y17038772D02*
X49883219Y17324486D01*
X49883219Y17324486D02*
X49835600Y17419724D01*
X49835600Y17419724D02*
X49787980Y17467343D01*
D11*
%TO.C,C1*%
X18950000Y39504252D02*
X18950000Y38981748D01*
X20420000Y39504252D02*
X20420000Y38981748D01*
%TO.C,C5*%
X32752420Y25910000D02*
X33033580Y25910000D01*
X32752420Y24890000D02*
X33033580Y24890000D01*
%TO.C,C6*%
X34825000Y24249748D02*
X34825000Y24772252D01*
X36295000Y24249748D02*
X36295000Y24772252D01*
%TO.C,C7*%
X44289800Y24206748D02*
X44289800Y24729252D01*
X45759800Y24206748D02*
X45759800Y24729252D01*
%TO.C,C8*%
X44315200Y28386852D02*
X44315200Y27864348D01*
X45785200Y28386852D02*
X45785200Y27864348D01*
%TO.C,C9*%
X25554000Y28186748D02*
X25554000Y28709252D01*
X27024000Y28186748D02*
X27024000Y28709252D01*
%TO.C,C11*%
X39997748Y33374000D02*
X40520252Y33374000D01*
X39997748Y31904000D02*
X40520252Y31904000D01*
%TO.C,C16*%
X66259852Y40992504D02*
X66782356Y40992504D01*
X66259852Y39522504D02*
X66782356Y39522504D01*
%TO.C,C17*%
X68326104Y36694252D02*
X68326104Y37216756D01*
X69796104Y36694252D02*
X69796104Y37216756D01*
%TO.C,C18*%
X66129004Y37239556D02*
X66129004Y36717052D01*
X67599004Y37239556D02*
X67599004Y36717052D01*
D12*
%TO.C,J1*%
X5401000Y40350000D02*
X5401000Y30770000D01*
X5401000Y30770000D02*
X6681000Y30770000D01*
X6681000Y40350000D02*
X5401000Y40350000D01*
X9401000Y40350000D02*
X10651000Y40350000D01*
X9401000Y30770000D02*
X10651000Y30770000D01*
D11*
%TO.C,L1*%
X28695700Y22325000D02*
X33975700Y22325000D01*
X28695700Y21380000D02*
X28695700Y22325000D01*
X28695700Y17990000D02*
X28695700Y17045000D01*
X28695700Y17045000D02*
X33975700Y17045000D01*
X33975700Y22325000D02*
X33975700Y21380000D01*
X33975700Y17045000D02*
X33975700Y17990000D01*
%TO.C,Q1*%
X35654000Y54966000D02*
X35654000Y53016000D01*
X35654000Y52116000D02*
X35654000Y50516000D01*
X35654000Y49716000D02*
X35654000Y48666000D01*
X36054000Y54966000D02*
X35654000Y54966000D01*
X36054000Y48666000D02*
X35674000Y48666000D01*
X40654000Y54966000D02*
X41054000Y54966000D01*
X40654000Y48666000D02*
X41054000Y48666000D01*
X41054000Y54966000D02*
X41054000Y53016000D01*
X41054000Y52116000D02*
X41054000Y50516000D01*
X41054000Y49716000D02*
X41054000Y48666000D01*
%TO.C,R1*%
X16409936Y37819000D02*
X16864064Y37819000D01*
X16409936Y36349000D02*
X16864064Y36349000D01*
%TO.C,R3*%
X34697936Y35914000D02*
X35152064Y35914000D01*
X34697936Y34444000D02*
X35152064Y34444000D01*
%TO.C,R5*%
X35152064Y38073000D02*
X34697936Y38073000D01*
X35152064Y36603000D02*
X34697936Y36603000D01*
%TO.C,R6*%
X34952000Y40359064D02*
X34952000Y39904936D01*
X36422000Y40359064D02*
X36422000Y39904936D01*
%TO.C,R7*%
X19839000Y28043136D02*
X19839000Y28497264D01*
X21309000Y28043136D02*
X21309000Y28497264D01*
%TO.C,R8*%
X42137064Y35914000D02*
X41682936Y35914000D01*
X42137064Y34444000D02*
X41682936Y34444000D01*
%TO.C,R9*%
X38708064Y29310000D02*
X38253936Y29310000D01*
X38708064Y27840000D02*
X38253936Y27840000D01*
%TO.C,R11*%
X42952936Y63600000D02*
X43407064Y63600000D01*
X42952936Y62130000D02*
X43407064Y62130000D01*
%TO.C,R17*%
X15854000Y48675936D02*
X15854000Y50130064D01*
X17674000Y48675936D02*
X17674000Y50130064D01*
%TO.C,R18*%
X23902936Y48741000D02*
X24357064Y48741000D01*
X23902936Y47271000D02*
X24357064Y47271000D01*
%TO.C,R19*%
X27839936Y46582000D02*
X28294064Y46582000D01*
X27839936Y45112000D02*
X28294064Y45112000D01*
%TO.C,R20*%
X58928104Y41373568D02*
X58928104Y40919440D01*
X60398104Y41373568D02*
X60398104Y40919440D01*
%TO.C,R23*%
X33047000Y51027064D02*
X33047000Y50572936D01*
X34517000Y51027064D02*
X34517000Y50572936D01*
%TO.C,R24*%
X52601864Y42060800D02*
X52147736Y42060800D01*
X52601864Y40590800D02*
X52147736Y40590800D01*
%TO.C,R27*%
X38327064Y46836000D02*
X37872936Y46836000D01*
X38327064Y45366000D02*
X37872936Y45366000D01*
%TO.C,R28*%
X19839000Y45947064D02*
X19839000Y45492936D01*
X21309000Y45947064D02*
X21309000Y45492936D01*
%TO.C,R32*%
X13841464Y45769200D02*
X13387336Y45769200D01*
X13841464Y44299200D02*
X13387336Y44299200D01*
%TO.C,R33*%
X14070064Y26643000D02*
X13615936Y26643000D01*
X14070064Y25173000D02*
X13615936Y25173000D01*
%TO.C,U1*%
X29515700Y27227500D02*
X29035700Y27227500D01*
X29275700Y27557500D01*
X29515700Y27227500D01*
G36*
X29515700Y27227500D02*
G01*
X29035700Y27227500D01*
X29275700Y27557500D01*
X29515700Y27227500D01*
G37*
%TO.C,U3*%
X59712104Y38303504D02*
X60062104Y38303504D01*
X59712104Y37953504D02*
X59712104Y38303504D01*
X59712104Y34433504D02*
X59712104Y34083504D01*
X59712104Y34083504D02*
X60062104Y34083504D01*
X63932104Y34433504D02*
X63932104Y34083504D01*
X63932104Y34083504D02*
X63582104Y34083504D01*
X64042104Y38363504D02*
X63802104Y38693504D01*
X64282104Y38693504D01*
X64042104Y38363504D01*
G36*
X64042104Y38363504D02*
G01*
X63802104Y38693504D01*
X64282104Y38693504D01*
X64042104Y38363504D01*
G37*
%TO.C,R4*%
X38708064Y35914000D02*
X38253936Y35914000D01*
X38708064Y34444000D02*
X38253936Y34444000D01*
%TO.C,C4*%
X23106748Y28675000D02*
X23629252Y28675000D01*
X23106748Y27205000D02*
X23629252Y27205000D01*
%TO.C,C3*%
X27205000Y34805252D02*
X27205000Y34282748D01*
X28675000Y34805252D02*
X28675000Y34282748D01*
%TO.C,C2*%
X29237000Y34805252D02*
X29237000Y34282748D01*
X30707000Y34805252D02*
X30707000Y34282748D01*
%TO.C,C10*%
X35002800Y29344252D02*
X35002800Y28821748D01*
X36472800Y29344252D02*
X36472800Y28821748D01*
%TO.C,R2*%
X14886000Y33247064D02*
X14886000Y32792936D01*
X16356000Y33247064D02*
X16356000Y32792936D01*
%TO.C,R34*%
X77750936Y32104000D02*
X78205064Y32104000D01*
X77750936Y30634000D02*
X78205064Y30634000D01*
%TO.C,C19*%
X39997748Y31342000D02*
X40520252Y31342000D01*
X39997748Y29872000D02*
X40520252Y29872000D01*
%TO.C,C20*%
X23741748Y32104000D02*
X24264252Y32104000D01*
X23741748Y30634000D02*
X24264252Y30634000D01*
%TO.C,R35*%
X80205000Y34689064D02*
X80205000Y30334936D01*
X83625000Y34689064D02*
X83625000Y30334936D01*
%TO.C,R36*%
X77750936Y34263000D02*
X78205064Y34263000D01*
X77750936Y32793000D02*
X78205064Y32793000D01*
%TO.C,R22*%
X16029000Y53239936D02*
X16029000Y53694064D01*
X17499000Y53239936D02*
X17499000Y53694064D01*
%TO.C,L2*%
X58894800Y22205800D02*
X59839800Y22205800D01*
X58894800Y16925800D02*
X58894800Y22205800D01*
X59839800Y16925800D02*
X58894800Y16925800D01*
X63229800Y16925800D02*
X64174800Y16925800D01*
X64174800Y22205800D02*
X63229800Y22205800D01*
X64174800Y16925800D02*
X64174800Y22205800D01*
%TO.C,Q5*%
X25933000Y54370000D02*
X25933000Y54750000D01*
X25933000Y49770000D02*
X25933000Y49370000D01*
X26983000Y54770000D02*
X25933000Y54770000D01*
X26983000Y49370000D02*
X25933000Y49370000D01*
X29383000Y54770000D02*
X27783000Y54770000D01*
X29383000Y49370000D02*
X27783000Y49370000D01*
X32233000Y54770000D02*
X30283000Y54770000D01*
X32233000Y54370000D02*
X32233000Y54770000D01*
X32233000Y49770000D02*
X32233000Y49370000D01*
X32233000Y49370000D02*
X30283000Y49370000D01*
%TO.C,U2*%
X50323200Y28849000D02*
X52273200Y28849000D01*
X50323200Y23729000D02*
X52273200Y23729000D01*
X54223200Y28849000D02*
X52273200Y28849000D01*
X54223200Y23729000D02*
X52273200Y23729000D01*
X49813200Y23494000D02*
X49333200Y23494000D01*
X49573200Y23824000D01*
X49813200Y23494000D01*
G36*
X49813200Y23494000D02*
G01*
X49333200Y23494000D01*
X49573200Y23824000D01*
X49813200Y23494000D01*
G37*
%TO.C,C35*%
X52332748Y18091000D02*
X52855252Y18091000D01*
X52332748Y16621000D02*
X52855252Y16621000D01*
%TO.C,Q3*%
X18567000Y54770000D02*
X20517000Y54770000D01*
X18567000Y54370000D02*
X18567000Y54770000D01*
X18567000Y49770000D02*
X18567000Y49370000D01*
X18567000Y49370000D02*
X20517000Y49370000D01*
X21417000Y54770000D02*
X23017000Y54770000D01*
X21417000Y49370000D02*
X23017000Y49370000D01*
X23817000Y54770000D02*
X24867000Y54770000D01*
X23817000Y49370000D02*
X24867000Y49370000D01*
X24867000Y54370000D02*
X24867000Y54770000D01*
X24867000Y49770000D02*
X24867000Y49390000D01*
%TO.C,C36*%
X56380200Y16256548D02*
X56380200Y16779052D01*
X57850200Y16256548D02*
X57850200Y16779052D01*
%TO.C,TH3*%
X36984000Y40359064D02*
X36984000Y39904936D01*
X38454000Y40359064D02*
X38454000Y39904936D01*
%TO.C,C27*%
X22125000Y24122748D02*
X22125000Y24645252D01*
X23595000Y24122748D02*
X23595000Y24645252D01*
%TO.C,R13*%
X58726400Y26773136D02*
X58726400Y27227264D01*
X60196400Y26773136D02*
X60196400Y27227264D01*
%TO.C,R12*%
X50992264Y30943400D02*
X50538136Y30943400D01*
X50992264Y29473400D02*
X50538136Y29473400D01*
%TO.C,D2*%
X53702200Y18787000D02*
X58512200Y18787000D01*
X58512200Y23037000D02*
X53702200Y23037000D01*
X58512200Y23037000D02*
X58512200Y18787000D01*
%TO.C,R14*%
X72109064Y63727000D02*
X71654936Y63727000D01*
X72109064Y62257000D02*
X71654936Y62257000D01*
%TO.C,TH4*%
X45162800Y35228264D02*
X45162800Y34774136D01*
X46632800Y35228264D02*
X46632800Y34774136D01*
%TO.C,D6*%
X56417104Y42146504D02*
X56417104Y39461504D01*
X56417104Y39461504D02*
X58337104Y39461504D01*
X58337104Y39461504D02*
X58337104Y42146504D01*
%TO.C,C21*%
X74068000Y32646252D02*
X74068000Y32123748D01*
X75538000Y32646252D02*
X75538000Y32123748D01*
%TO.C,C25*%
X24284000Y24122748D02*
X24284000Y24645252D01*
X25754000Y24122748D02*
X25754000Y24645252D01*
%TO.C,R15*%
X67590936Y63727000D02*
X68045064Y63727000D01*
X67590936Y62257000D02*
X68045064Y62257000D01*
%TO.C,C13*%
X46448800Y24206748D02*
X46448800Y24729252D01*
X47918800Y24206748D02*
X47918800Y24729252D01*
%TO.C,C24*%
X29985580Y25910000D02*
X29704420Y25910000D01*
X29985580Y24890000D02*
X29704420Y24890000D01*
%TO.C,C31*%
X39143000Y24249748D02*
X39143000Y24772252D01*
X40613000Y24249748D02*
X40613000Y24772252D01*
%TO.C,C30*%
X36984000Y24249748D02*
X36984000Y24772252D01*
X38454000Y24249748D02*
X38454000Y24772252D01*
%TO.C,C29*%
X21089252Y18007000D02*
X20566748Y18007000D01*
X21089252Y16537000D02*
X20566748Y16537000D01*
%TO.C,C26*%
X26443000Y24122748D02*
X26443000Y24645252D01*
X27913000Y24122748D02*
X27913000Y24645252D01*
%TO.C,C12*%
X46448800Y28412252D02*
X46448800Y27889748D01*
X47918800Y28412252D02*
X47918800Y27889748D01*
%TO.C,C38*%
X56643600Y25113348D02*
X56643600Y25635852D01*
X58113600Y25113348D02*
X58113600Y25635852D01*
%TO.C,R10*%
X62129936Y28598800D02*
X62584064Y28598800D01*
X62129936Y27128800D02*
X62584064Y27128800D01*
%TO.C,Q2*%
X23480000Y46645000D02*
X24130000Y46645000D01*
X23480000Y43525000D02*
X24130000Y43525000D01*
X24780000Y46645000D02*
X24130000Y46645000D01*
X24780000Y43525000D02*
X24130000Y43525000D01*
X25292500Y46595000D02*
X25052500Y46925000D01*
X25532500Y46925000D01*
X25292500Y46595000D01*
G36*
X25292500Y46595000D02*
G01*
X25052500Y46925000D01*
X25532500Y46925000D01*
X25292500Y46595000D01*
G37*
%TO.C,C23*%
X48861800Y21260348D02*
X48861800Y21782852D01*
X50331800Y21260348D02*
X50331800Y21782852D01*
%TD*%
M02*
