%TF.GenerationSoftware,KiCad,Pcbnew,8.0.3+1*%
%TF.CreationDate,2024-07-21T00:01:47+00:00*%
%TF.ProjectId,LION2CELL02,4c494f4e-3243-4454-9c4c-30322e6b6963,rev?*%
%TF.SameCoordinates,Original*%
%TF.FileFunction,Copper,L1,Top*%
%TF.FilePolarity,Positive*%
%FSLAX46Y46*%
G04 Gerber Fmt 4.6, Leading zero omitted, Abs format (unit mm)*
G04 Created by KiCad (PCBNEW 8.0.3+1) date 2024-07-21 00:01:47*
%MOMM*%
%LPD*%
G01*
G04 APERTURE LIST*
G04 Aperture macros list*
%AMRoundRect*
0 Rectangle with rounded corners*
0 $1 Rounding radius*
0 $2 $3 $4 $5 $6 $7 $8 $9 X,Y pos of 4 corners*
0 Add a 4 corners polygon primitive as box body*
4,1,4,$2,$3,$4,$5,$6,$7,$8,$9,$2,$3,0*
0 Add four circle primitives for the rounded corners*
1,1,$1+$1,$2,$3*
1,1,$1+$1,$4,$5*
1,1,$1+$1,$6,$7*
1,1,$1+$1,$8,$9*
0 Add four rect primitives between the rounded corners*
20,1,$1+$1,$2,$3,$4,$5,0*
20,1,$1+$1,$4,$5,$6,$7,0*
20,1,$1+$1,$6,$7,$8,$9,0*
20,1,$1+$1,$8,$9,$2,$3,0*%
G04 Aperture macros list end*
%TA.AperFunction,ComponentPad*%
%ADD10R,3.810000X3.810000*%
%TD*%
%TA.AperFunction,ComponentPad*%
%ADD11R,1.524000X1.524000*%
%TD*%
%TA.AperFunction,ComponentPad*%
%ADD12R,1.676400X1.676400*%
%TD*%
%TA.AperFunction,ComponentPad*%
%ADD13C,6.000000*%
%TD*%
%TA.AperFunction,ComponentPad*%
%ADD14R,4.000000X4.000000*%
%TD*%
%TA.AperFunction,SMDPad,CuDef*%
%ADD15RoundRect,0.250000X-0.262500X-0.450000X0.262500X-0.450000X0.262500X0.450000X-0.262500X0.450000X0*%
%TD*%
%TA.AperFunction,SMDPad,CuDef*%
%ADD16RoundRect,0.250000X0.262500X0.450000X-0.262500X0.450000X-0.262500X-0.450000X0.262500X-0.450000X0*%
%TD*%
%TA.AperFunction,ComponentPad*%
%ADD17O,2.000000X1.000000*%
%TD*%
%TA.AperFunction,ComponentPad*%
%ADD18O,2.100000X1.050000*%
%TD*%
%TA.AperFunction,ComponentPad*%
%ADD19C,0.500000*%
%TD*%
%TA.AperFunction,SMDPad,CuDef*%
%ADD20RoundRect,0.258000X1.242000X1.242000X-1.242000X1.242000X-1.242000X-1.242000X1.242000X-1.242000X0*%
%TD*%
%TA.AperFunction,ViaPad*%
%ADD21C,0.800000*%
%TD*%
%TA.AperFunction,Conductor*%
%ADD22C,0.200000*%
%TD*%
%TA.AperFunction,Conductor*%
%ADD23C,0.800000*%
%TD*%
%TA.AperFunction,Conductor*%
%ADD24C,0.500000*%
%TD*%
G04 APERTURE END LIST*
D10*
%TO.P,J2,1,P1*%
%TO.N,/Power Input/Power_load*%
X24126200Y57816000D03*
X19126200Y57816000D03*
%TD*%
%TO.P,J3,1,P1*%
%TO.N,GND*%
X24126200Y62819800D03*
X19126200Y62819800D03*
%TD*%
D11*
%TO.P,J4,1,2*%
%TO.N,GND*%
X74422000Y11811000D03*
%TO.P,J4,2,2*%
X74422000Y9271000D03*
%TO.P,J4,3,4*%
%TO.N,/Power Input/System_load*%
X71882000Y11811000D03*
%TO.P,J4,4,4*%
X71882000Y9271000D03*
%TO.P,J4,5,5*%
X69342000Y11811000D03*
%TO.P,J4,6,5*%
X69342000Y9271000D03*
%TO.P,J4,7,8*%
%TO.N,GND*%
X66802000Y11811000D03*
%TO.P,J4,8,8*%
X66802000Y9271000D03*
%TD*%
%TO.P,J6,1*%
%TO.N,Net-(U1-INT)*%
X33655000Y63119000D03*
%TO.P,J6,2*%
X33655000Y60579000D03*
%TD*%
%TO.P,J7,1*%
%TO.N,Net-(U1-nQON)*%
X31115000Y60579000D03*
%TO.P,J7,2*%
X31115000Y63119000D03*
%TD*%
D10*
%TO.P,J9,1,P1*%
%TO.N,GND*%
X19955500Y8323000D03*
X24955500Y8323000D03*
%TD*%
D11*
%TO.P,J10,1*%
%TO.N,Net-(U3-BTP_INT)*%
X64262000Y11430000D03*
%TO.P,J10,2*%
X64262000Y8890000D03*
%TD*%
%TO.P,J11,1*%
%TO.N,Net-(U3-~{PRES{slash}SHDWN})*%
X48133000Y63246000D03*
%TO.P,J11,2*%
%TO.N,GND1*%
X48133000Y60706000D03*
%TD*%
%TO.P,J12,1*%
%TO.N,GND*%
X65278000Y57658000D03*
%TO.P,J12,2*%
X65278000Y60198000D03*
%TO.P,J12,3*%
%TO.N,/Fuel Gauge/SCL*%
X67818000Y57658000D03*
%TO.P,J12,4*%
X67818000Y60198000D03*
%TO.P,J12,5*%
%TO.N,+3.3V*%
X70358000Y57658000D03*
%TO.P,J12,6*%
X70358000Y60198000D03*
%TO.P,J12,7*%
%TO.N,/Fuel Gauge/SDA*%
X72898000Y57658000D03*
%TO.P,J12,8*%
X72898000Y60198000D03*
%TO.P,J12,9*%
%TO.N,GND*%
X75438000Y57658000D03*
%TO.P,J12,10*%
X75438000Y60198000D03*
%TD*%
D10*
%TO.P,J8,1,P1*%
%TO.N,VBUS*%
X19955500Y13276000D03*
X24955500Y13276000D03*
%TD*%
D12*
%TO.P,SW1,1,1*%
%TO.N,Net-(U3-~{PRES{slash}SHDWN})*%
X53365000Y63210000D03*
X59665000Y63210000D03*
%TO.P,SW1,2,2*%
%TO.N,GND1*%
X53365000Y58710000D03*
X59665000Y58710000D03*
%TD*%
%TO.P,SW2,1,1*%
%TO.N,Net-(U3-~{DISP})*%
X44287000Y13310000D03*
X44287000Y7010000D03*
%TO.P,SW2,2,2*%
%TO.N,GND1*%
X39787000Y13310000D03*
X39787000Y7010000D03*
%TD*%
D13*
%TO.P,H2,1,1*%
%TO.N,GND*%
X81280000Y60960000D03*
%TD*%
%TO.P,H3,1,1*%
%TO.N,GND*%
X10160000Y10160000D03*
%TD*%
D14*
%TO.P,B1,1,+*%
%TO.N,/Fuel Gauge/B+*%
X9470000Y45210000D03*
%TO.P,B1,2,-*%
%TO.N,Net-(B1A--)*%
X81970000Y45210000D03*
%TO.P,B1,3,+*%
X9470000Y25910000D03*
%TO.P,B1,4,-*%
%TO.N,GND1*%
X81970000Y25910000D03*
%TD*%
D13*
%TO.P,H4,1,1*%
%TO.N,GND*%
X81280000Y10160000D03*
%TD*%
%TO.P,H1,1,1*%
%TO.N,GND*%
X10160000Y60960000D03*
%TD*%
D15*
%TO.P,TH2,1*%
%TO.N,GND1*%
X72645900Y45161200D03*
%TO.P,TH2,2*%
%TO.N,Net-(U3-TS2)*%
X74470900Y45161200D03*
%TD*%
D16*
%TO.P,TH1,1*%
%TO.N,GND1*%
X74445500Y25908000D03*
%TO.P,TH1,2*%
%TO.N,Net-(U3-TS1)*%
X72620500Y25908000D03*
%TD*%
D17*
%TO.P,J1,G1,SHIELD*%
%TO.N,GND*%
X8001000Y31240000D03*
%TO.P,J1,G2,SHIELD*%
X8001000Y39880000D03*
D18*
%TO.P,J1,G3,SHIELD*%
X12181000Y31240000D03*
%TO.P,J1,G4,SHIELD*%
X12181000Y39880000D03*
%TD*%
D19*
%TO.P,U3,33,PWRPD*%
%TO.N,GND1*%
X55880000Y28829000D03*
D20*
X55880000Y28829000D03*
%TD*%
D21*
%TO.N,GND*%
X31497000Y30606000D03*
%TO.N,GND1*%
X60263000Y31496000D03*
X53720990Y31115000D03*
X58024605Y26729000D03*
%TO.N,/Fuel Gauge/B+*%
X36322000Y46989992D03*
%TO.N,/Power Input/System_load*%
X48234425Y24713375D03*
%TO.N,Net-(U1-SW1)*%
X30226000Y23622000D03*
X26289000Y27498000D03*
X30637000Y29026000D03*
%TO.N,Net-(U1-SW2)*%
X32258000Y23622000D03*
X35687000Y28133000D03*
X31985000Y29045000D03*
%TO.N,/Fuel Gauge/PACK+*%
X55245000Y35906396D03*
X41320621Y32924046D03*
X47899900Y49132100D03*
X26561700Y48828200D03*
%TO.N,Net-(U3-VC2)*%
X60452000Y39751000D03*
X27021600Y39830400D03*
%TO.N,Net-(U3-VC1)*%
X63373000Y26741000D03*
X63119000Y28641000D03*
%TO.N,/Power Input/REGN*%
X26162000Y35941000D03*
X23749000Y33782000D03*
X27673800Y29871400D03*
%TO.N,Net-(D1-A)*%
X52324000Y22098000D03*
X50735000Y28329000D03*
%TO.N,Net-(D1-K)*%
X49579877Y29145000D03*
X46990000Y7620000D03*
%TO.N,Net-(D3-A)*%
X21209000Y31750000D03*
X33655000Y14224000D03*
%TO.N,Net-(D3-K)*%
X23749000Y27051000D03*
X35179000Y13589000D03*
%TO.N,Net-(D5-K)*%
X52477789Y29812624D03*
X53848000Y23114000D03*
%TO.N,/Fuel Gauge/BAT*%
X57987394Y31461431D03*
X52596000Y31815000D03*
%TO.N,/Power Input/D+*%
X14389900Y36266400D03*
X17018000Y34925000D03*
%TO.N,Net-(U3-BTP_INT)*%
X55118000Y22733000D03*
X55118000Y25273000D03*
%TO.N,Net-(U3-~{PRES{slash}SHDWN})*%
X41783000Y57658000D03*
X51435000Y29845000D03*
X52705000Y25527000D03*
%TO.N,Net-(Q1-G)*%
X32131000Y38608000D03*
X38353998Y30988000D03*
%TO.N,Net-(U1-ILIM_HIZ)*%
X34225000Y31201983D03*
%TO.N,Net-(U3-CHG)*%
X58454990Y35693610D03*
X56919496Y37211002D03*
%TO.N,Net-(U3-~{DISP})*%
X44577000Y20955000D03*
%TO.N,Net-(U3-TS1)*%
X61722000Y25527000D03*
%TO.N,Net-(U3-TS2)*%
X59436004Y24954000D03*
%TO.N,/Fuel Gauge/SDA*%
X43053000Y30226000D03*
X65000500Y44605900D03*
%TD*%
D22*
%TO.N,Net-(B1A--)*%
X29723000Y46163000D02*
X81017000Y46163000D01*
X81017000Y46163000D02*
X81970000Y45210000D01*
X9470000Y25910000D02*
X29723000Y46163000D01*
%TO.N,GND1*%
X55880000Y28829000D02*
X57596000Y28829000D01*
X51192700Y58710000D02*
X49196700Y60706000D01*
X57613395Y27095605D02*
X55880000Y28829000D01*
D23*
X81970000Y25910000D02*
X74448000Y25910000D01*
D22*
X72645900Y43878900D02*
X60263000Y31496000D01*
X48133000Y60706000D02*
X49196700Y60706000D01*
X53720990Y30988010D02*
X53720990Y31115000D01*
X55880000Y26183800D02*
X55880000Y28829000D01*
X57596000Y28829000D02*
X60263000Y31496000D01*
X72792000Y24254000D02*
X57809800Y24254000D01*
D23*
X74448000Y25910000D02*
X74447000Y25909000D01*
D22*
X55880000Y28829000D02*
X53720990Y30988010D01*
X39787000Y13310000D02*
X39787000Y20466711D01*
X74446000Y25908000D02*
X72792000Y24254000D01*
X74447000Y25909000D02*
X74446500Y25909000D01*
X57658000Y27095605D02*
X57613395Y27095605D01*
X39787000Y20466711D02*
X50435289Y31115000D01*
X53365000Y58710000D02*
X51192700Y58710000D01*
X50435289Y31115000D02*
X53720990Y31115000D01*
X59665000Y58710000D02*
X53365000Y58710000D01*
X58024605Y26729000D02*
X57658000Y27095605D01*
D23*
X74447000Y25909000D02*
X74446000Y25908000D01*
D22*
X72645900Y45161200D02*
X72645900Y43878900D01*
X74446500Y25909000D02*
X74445500Y25908000D01*
X57809800Y24254000D02*
X55880000Y26183800D01*
%TO.N,/Fuel Gauge/B+*%
X9470000Y45210000D02*
X11670000Y45210000D01*
X11670000Y45210000D02*
X13449992Y46989992D01*
X13449992Y46989992D02*
X36322000Y46989992D01*
%TO.N,VBUS*%
X24955500Y13276000D02*
X19955500Y13276000D01*
%TO.N,/Power Input/System_load*%
X51653050Y21271000D02*
X48234425Y24689625D01*
X59882000Y21271000D02*
X51653050Y21271000D01*
X48234425Y24689625D02*
X48234425Y24713375D01*
X71882000Y11811000D02*
X69342000Y11811000D01*
X69342000Y11811000D02*
X59882000Y21271000D01*
X69342000Y9271000D02*
X71882000Y9271000D01*
D23*
%TO.N,Net-(U1-SW1)*%
X30637000Y27498000D02*
X30637000Y29026000D01*
X30861000Y28802000D02*
X30861000Y24257000D01*
X30861000Y24257000D02*
X30226000Y23622000D01*
X30637000Y29026000D02*
X30861000Y28802000D01*
X26289000Y27498000D02*
X30637000Y27498000D01*
%TO.N,Net-(U1-SW2)*%
X31985000Y29045000D02*
X31861000Y28921000D01*
X31861000Y28921000D02*
X31861000Y24019000D01*
X31861000Y24019000D02*
X32258000Y23622000D01*
X31985000Y28067000D02*
X35621000Y28067000D01*
X31985000Y29045000D02*
X31985000Y28067000D01*
X35621000Y28067000D02*
X35687000Y28133000D01*
D22*
%TO.N,/Power Input/Power_load*%
X19126200Y57816000D02*
X24126200Y57816000D01*
%TO.N,/Fuel Gauge/PACK+*%
X26865600Y49132100D02*
X26561700Y48828200D01*
X44302971Y35906396D02*
X55245000Y35906396D01*
X47899900Y49132100D02*
X26865600Y49132100D01*
X41320621Y32924046D02*
X44302971Y35906396D01*
%TO.N,Net-(U3-VC2)*%
X55307000Y44896000D02*
X60452000Y39751000D01*
X32087200Y44896000D02*
X55307000Y44896000D01*
X27021600Y39830400D02*
X32087200Y44896000D01*
%TO.N,Net-(U3-VC1)*%
X63373000Y28387000D02*
X63119000Y28641000D01*
X63373000Y26741000D02*
X63373000Y28387000D01*
%TO.N,/Power Input/REGN*%
X25908000Y35941000D02*
X26162000Y35941000D01*
X23749000Y33782000D02*
X25908000Y35941000D01*
%TO.N,Net-(D1-A)*%
X50735000Y23687000D02*
X52324000Y22098000D01*
X50735000Y28329000D02*
X50735000Y23687000D01*
D24*
%TO.N,Net-(D1-K)*%
X46990000Y7620000D02*
X46990000Y25513215D01*
X49885000Y28408215D02*
X49885000Y28839877D01*
X49885000Y28839877D02*
X49579877Y29145000D01*
X46990000Y25513215D02*
X49885000Y28408215D01*
D22*
%TO.N,Net-(D3-A)*%
X33655000Y14224000D02*
X21209000Y26670000D01*
X21209000Y26670000D02*
X21209000Y31750000D01*
%TO.N,Net-(D3-K)*%
X35179000Y15621000D02*
X35179000Y13589000D01*
X23749000Y27051000D02*
X35179000Y15621000D01*
%TO.N,Net-(D5-K)*%
X53848000Y23114000D02*
X53848000Y28442413D01*
X53848000Y28442413D02*
X52477789Y29812624D01*
%TO.N,/Fuel Gauge/BAT*%
X57987394Y31461431D02*
X57633825Y31815000D01*
X57633825Y31815000D02*
X52596000Y31815000D01*
%TO.N,/Power Input/D+*%
X15676600Y36266400D02*
X17018000Y34925000D01*
X14389900Y36266400D02*
X15676600Y36266400D01*
%TO.N,Net-(U3-BTP_INT)*%
X55118000Y22733000D02*
X55118000Y25273000D01*
%TO.N,Net-(U3-~{PRES{slash}SHDWN})*%
X52705000Y25527000D02*
X51435000Y26797000D01*
X59665000Y63210000D02*
X53365000Y63210000D01*
X42545000Y57658000D02*
X41783000Y57658000D01*
X53365000Y63210000D02*
X52225100Y63210000D01*
X48133000Y63246000D02*
X48133100Y63246000D01*
X52189100Y63246000D02*
X52225100Y63210000D01*
X51435000Y26797000D02*
X51435000Y29845000D01*
X48133100Y63246000D02*
X52189100Y63246000D01*
X48133000Y63246000D02*
X42545000Y57658000D01*
%TO.N,Net-(Q1-G)*%
X32131000Y34544000D02*
X35687000Y30988000D01*
X35687000Y30988000D02*
X38353998Y30988000D01*
X32131000Y38608000D02*
X32131000Y34544000D01*
%TO.N,Net-(U3-CHG)*%
X56919496Y37211002D02*
X58436888Y35693610D01*
X58436888Y35693610D02*
X58454990Y35693610D01*
%TO.N,Net-(U3-~{DISP})*%
X44577000Y20955000D02*
X44577000Y20320000D01*
X44287000Y20030000D02*
X44287000Y13310000D01*
X44577000Y20320000D02*
X44287000Y20030000D01*
%TO.N,Net-(U3-TS1)*%
X72620500Y25908000D02*
X62103000Y25908000D01*
X62103000Y25908000D02*
X61722000Y25527000D01*
%TO.N,Net-(U3-TS2)*%
X74470900Y43179200D02*
X74470900Y45161200D01*
X59020648Y27728748D02*
X59020648Y25369356D01*
X74471000Y43179100D02*
X74470900Y43179200D01*
X59020648Y25369356D02*
X59436004Y24954000D01*
X74471000Y43179100D02*
X74471000Y45161200D01*
X74471000Y43179100D02*
X59020648Y27728748D01*
%TO.N,/Fuel Gauge/SCL*%
X67818000Y60198000D02*
X67818000Y57658000D01*
%TO.N,/Fuel Gauge/SDA*%
X56453000Y32515000D02*
X45342000Y32515000D01*
X65000500Y44605900D02*
X65000500Y41062500D01*
X65000500Y41062500D02*
X56453000Y32515000D01*
X45342000Y32515000D02*
X43053000Y30226000D01*
%TD*%
%TA.AperFunction,Conductor*%
%TO.N,/Power Input/REGN*%
G36*
X31346941Y38117976D02*
G01*
X31393545Y38080240D01*
X31394048Y38080692D01*
X31396905Y38077519D01*
X31397636Y38076927D01*
X31398463Y38075789D01*
X31398466Y38075786D01*
X31398467Y38075784D01*
X31401743Y38072146D01*
X31498136Y37965091D01*
X31528853Y37901083D01*
X31530500Y37880780D01*
X31530500Y34630792D01*
X31530499Y34630774D01*
X31530499Y34623057D01*
X31530499Y34464943D01*
X31571423Y34312215D01*
X31571424Y34312214D01*
X31598562Y34265210D01*
X31598562Y34265209D01*
X31650477Y34175288D01*
X31650485Y34175278D01*
X31769459Y34056304D01*
X31769473Y34056292D01*
X32517358Y33308407D01*
X32551384Y33246095D01*
X32546319Y33175280D01*
X32513809Y33126803D01*
X27436851Y28431991D01*
X27373257Y28400427D01*
X27351305Y28398500D01*
X26194353Y28398500D01*
X26108320Y28380214D01*
X26106707Y28379882D01*
X26057976Y28370189D01*
X26026334Y28363894D01*
X26026333Y28363894D01*
X26026325Y28363892D01*
X26020413Y28362099D01*
X26020277Y28362547D01*
X26009537Y28359217D01*
X26009200Y28359146D01*
X26009197Y28359145D01*
X25935004Y28326112D01*
X25931975Y28324810D01*
X25862449Y28296012D01*
X25861482Y28295365D01*
X25842759Y28285041D01*
X25836272Y28282153D01*
X25836266Y28282149D01*
X25776026Y28238383D01*
X25771971Y28235556D01*
X25714962Y28197463D01*
X25709365Y28191866D01*
X25694342Y28179036D01*
X25683132Y28170892D01*
X25637780Y28120524D01*
X25633241Y28115741D01*
X25589538Y28072038D01*
X25589533Y28072032D01*
X25581385Y28059838D01*
X25570263Y28045539D01*
X25556465Y28030215D01*
X25525946Y27977354D01*
X25521594Y27970356D01*
X25490988Y27924550D01*
X25482790Y27904759D01*
X25475505Y27889986D01*
X25461820Y27866282D01*
X25445034Y27814623D01*
X25441612Y27805349D01*
X25423108Y27760675D01*
X25423106Y27760666D01*
X25417612Y27733052D01*
X25413869Y27718709D01*
X25403325Y27686257D01*
X25398351Y27638926D01*
X25396620Y27627518D01*
X25388500Y27586699D01*
X25388500Y27551798D01*
X25387809Y27538628D01*
X25383540Y27498000D01*
X25387522Y27460112D01*
X25387810Y27457374D01*
X25388500Y27444204D01*
X25388500Y27409304D01*
X25396620Y27368483D01*
X25398351Y27357074D01*
X25403325Y27309745D01*
X25413867Y27277300D01*
X25417611Y27262953D01*
X25423105Y27235337D01*
X25423108Y27235326D01*
X25441610Y27190656D01*
X25445032Y27181382D01*
X25457442Y27143193D01*
X25461821Y27129716D01*
X25461823Y27129712D01*
X25461826Y27129706D01*
X25475501Y27106020D01*
X25482791Y27091239D01*
X25490985Y27071455D01*
X25521597Y27025643D01*
X25525952Y27018638D01*
X25556462Y26965790D01*
X25556465Y26965786D01*
X25570260Y26950466D01*
X25581391Y26936155D01*
X25589536Y26923965D01*
X25589539Y26923961D01*
X25600922Y26912578D01*
X25634948Y26850266D01*
X25629883Y26779451D01*
X25597373Y26730974D01*
X25333499Y26486963D01*
X25269904Y26455399D01*
X25199341Y26463227D01*
X25158858Y26490377D01*
X24691365Y26957870D01*
X24657339Y27020182D01*
X24654460Y27046965D01*
X24654460Y27050999D01*
X24634674Y27239257D01*
X24576181Y27419279D01*
X24576177Y27419287D01*
X24481534Y27583215D01*
X24481533Y27583217D01*
X24354873Y27723887D01*
X24201732Y27835150D01*
X24201732Y27835151D01*
X24062513Y27897135D01*
X24028803Y27912144D01*
X24028801Y27912145D01*
X24028800Y27912145D01*
X23843646Y27951500D01*
X23654354Y27951500D01*
X23469199Y27912145D01*
X23296267Y27835151D01*
X23296267Y27835150D01*
X23143126Y27723887D01*
X23016466Y27583217D01*
X23016465Y27583215D01*
X22921822Y27419287D01*
X22921818Y27419279D01*
X22863325Y27239257D01*
X22843540Y27051000D01*
X22863325Y26862744D01*
X22921818Y26682722D01*
X22921822Y26682714D01*
X23016465Y26518786D01*
X23016466Y26518784D01*
X23143126Y26378114D01*
X23296267Y26266851D01*
X23296267Y26266850D01*
X23343254Y26245930D01*
X23469197Y26189856D01*
X23654354Y26150500D01*
X23748075Y26150500D01*
X23816196Y26130498D01*
X23837170Y26113595D01*
X24269444Y25681321D01*
X24303470Y25619009D01*
X24298405Y25548194D01*
X24265895Y25499717D01*
X23815883Y25083579D01*
X23752288Y25052015D01*
X23681725Y25059843D01*
X23641242Y25086993D01*
X21846405Y26881830D01*
X21812379Y26944142D01*
X21809500Y26970925D01*
X21809500Y29733584D01*
X21829502Y29801705D01*
X21852072Y29828008D01*
X31212283Y38097296D01*
X31276573Y38127405D01*
X31346941Y38117976D01*
G37*
%TD.AperFunction*%
%TD*%
%TA.AperFunction,Conductor*%
%TO.N,GND*%
G36*
X86037621Y65755498D02*
G01*
X86084114Y65701842D01*
X86095500Y65649500D01*
X86095500Y5470500D01*
X86075498Y5402379D01*
X86021842Y5355886D01*
X85969500Y5344500D01*
X5470500Y5344500D01*
X5402379Y5364502D01*
X5355886Y5418158D01*
X5344500Y5470500D01*
X5344500Y7896079D01*
X38448300Y7896079D01*
X38448300Y6123936D01*
X38448302Y6123915D01*
X38454708Y6064320D01*
X38454708Y6064319D01*
X38505001Y5929474D01*
X38505003Y5929471D01*
X38591253Y5814254D01*
X38648861Y5771129D01*
X38706469Y5728004D01*
X38706471Y5728004D01*
X38706473Y5728002D01*
X38766830Y5705491D01*
X38841314Y5677710D01*
X38841317Y5677709D01*
X38900927Y5671300D01*
X40673072Y5671301D01*
X40732683Y5677709D01*
X40867531Y5728004D01*
X40982746Y5814254D01*
X41068996Y5929469D01*
X41119291Y6064317D01*
X41125700Y6123927D01*
X41125699Y7896072D01*
X41125698Y7896079D01*
X42948300Y7896079D01*
X42948300Y6123936D01*
X42948302Y6123915D01*
X42954708Y6064320D01*
X42954708Y6064319D01*
X43005001Y5929474D01*
X43005003Y5929471D01*
X43091253Y5814254D01*
X43148861Y5771129D01*
X43206469Y5728004D01*
X43206471Y5728004D01*
X43206473Y5728002D01*
X43266830Y5705491D01*
X43341314Y5677710D01*
X43341317Y5677709D01*
X43400927Y5671300D01*
X45173072Y5671301D01*
X45232683Y5677709D01*
X45367531Y5728004D01*
X45482746Y5814254D01*
X45568996Y5929469D01*
X45619291Y6064317D01*
X45625700Y6123927D01*
X45625699Y7896072D01*
X45619291Y7955683D01*
X45578443Y8065202D01*
X45568998Y8090527D01*
X45568996Y8090530D01*
X45568996Y8090531D01*
X45520840Y8154859D01*
X45482746Y8205747D01*
X45401357Y8266674D01*
X45367531Y8291996D01*
X45367529Y8291997D01*
X45367526Y8291999D01*
X45232683Y8342291D01*
X45232686Y8342291D01*
X45173073Y8348700D01*
X43400935Y8348700D01*
X43400914Y8348698D01*
X43341319Y8342292D01*
X43341318Y8342292D01*
X43206473Y8291999D01*
X43206470Y8291997D01*
X43091253Y8205747D01*
X43005003Y8090530D01*
X43005001Y8090527D01*
X42954709Y7955685D01*
X42948300Y7896079D01*
X41125698Y7896079D01*
X41119291Y7955683D01*
X41078443Y8065202D01*
X41068998Y8090527D01*
X41068996Y8090530D01*
X41068996Y8090531D01*
X41020840Y8154859D01*
X40982746Y8205747D01*
X40901357Y8266674D01*
X40867531Y8291996D01*
X40867529Y8291997D01*
X40867526Y8291999D01*
X40732683Y8342291D01*
X40732686Y8342291D01*
X40673073Y8348700D01*
X38900935Y8348700D01*
X38900914Y8348698D01*
X38841319Y8342292D01*
X38841318Y8342292D01*
X38706473Y8291999D01*
X38706470Y8291997D01*
X38591253Y8205747D01*
X38505003Y8090530D01*
X38505001Y8090527D01*
X38454709Y7955685D01*
X38448300Y7896079D01*
X5344500Y7896079D01*
X5344500Y15228879D01*
X17550000Y15228879D01*
X17550000Y11323136D01*
X17550002Y11323115D01*
X17556408Y11263520D01*
X17556408Y11263519D01*
X17606701Y11128674D01*
X17606703Y11128671D01*
X17692953Y11013454D01*
X17750561Y10970329D01*
X17808169Y10927204D01*
X17808171Y10927204D01*
X17808173Y10927202D01*
X17868530Y10904691D01*
X17943014Y10876910D01*
X17943017Y10876909D01*
X18002627Y10870500D01*
X21908372Y10870501D01*
X21967983Y10876909D01*
X22102831Y10927204D01*
X22218046Y11013454D01*
X22304296Y11128669D01*
X22337444Y11217543D01*
X22379990Y11274379D01*
X22446510Y11299191D01*
X22515884Y11284100D01*
X22566087Y11233898D01*
X22573556Y11217543D01*
X22606701Y11128674D01*
X22606703Y11128671D01*
X22692953Y11013454D01*
X22750561Y10970329D01*
X22808169Y10927204D01*
X22808171Y10927204D01*
X22808173Y10927202D01*
X22868530Y10904691D01*
X22943014Y10876910D01*
X22943017Y10876909D01*
X23002627Y10870500D01*
X26908372Y10870501D01*
X26967983Y10876909D01*
X27102831Y10927204D01*
X27218046Y11013454D01*
X27304296Y11128669D01*
X27354591Y11263517D01*
X27361000Y11323127D01*
X27360999Y15228872D01*
X27354591Y15288483D01*
X27332819Y15346858D01*
X27304298Y15423327D01*
X27304296Y15423330D01*
X27304296Y15423331D01*
X27261171Y15480939D01*
X27218046Y15538547D01*
X27141091Y15596155D01*
X27102831Y15624796D01*
X27102829Y15624797D01*
X27102826Y15624799D01*
X26967983Y15675091D01*
X26967986Y15675091D01*
X26908373Y15681500D01*
X23002635Y15681500D01*
X23002614Y15681498D01*
X22943019Y15675092D01*
X22943018Y15675092D01*
X22808173Y15624799D01*
X22808170Y15624797D01*
X22692953Y15538547D01*
X22606703Y15423330D01*
X22606702Y15423329D01*
X22573556Y15334457D01*
X22531010Y15277621D01*
X22464490Y15252810D01*
X22395115Y15267901D01*
X22344913Y15318103D01*
X22337444Y15334457D01*
X22304297Y15423329D01*
X22304296Y15423330D01*
X22304296Y15423331D01*
X22261171Y15480939D01*
X22218046Y15538547D01*
X22141091Y15596155D01*
X22102831Y15624796D01*
X22102829Y15624797D01*
X22102826Y15624799D01*
X21967983Y15675091D01*
X21967986Y15675091D01*
X21908373Y15681500D01*
X18002635Y15681500D01*
X18002614Y15681498D01*
X17943019Y15675092D01*
X17943018Y15675092D01*
X17808173Y15624799D01*
X17808170Y15624797D01*
X17692953Y15538547D01*
X17606703Y15423330D01*
X17606701Y15423327D01*
X17556409Y15288485D01*
X17550000Y15228879D01*
X5344500Y15228879D01*
X5344500Y30515001D01*
X11809552Y30515001D01*
X11809553Y30515000D01*
X12552447Y30515000D01*
X12552447Y30515001D01*
X12181001Y30886447D01*
X12180999Y30886447D01*
X11809552Y30515001D01*
X5344500Y30515001D01*
X5344500Y31965000D01*
X11809552Y31965000D01*
X12180999Y31593553D01*
X12181001Y31593553D01*
X12552447Y31965000D01*
X11809552Y31965000D01*
X5344500Y31965000D01*
X5344500Y32712988D01*
X11354500Y32712988D01*
X11354500Y32627013D01*
X11376749Y32543980D01*
X11376750Y32543977D01*
X11376751Y32543976D01*
X11419735Y32469525D01*
X11419737Y32469523D01*
X11419740Y32469519D01*
X11480518Y32408741D01*
X11480522Y32408738D01*
X11480525Y32408735D01*
X11554976Y32365751D01*
X11554978Y32365751D01*
X11554979Y32365750D01*
X11638012Y32343501D01*
X11638016Y32343500D01*
X11723984Y32343500D01*
X11807024Y32365751D01*
X11881475Y32408735D01*
X11942265Y32469525D01*
X11985249Y32543976D01*
X12007500Y32627016D01*
X12007500Y32712984D01*
X12001389Y32735790D01*
X11985250Y32796021D01*
X11985249Y32796022D01*
X11985249Y32796024D01*
X11942265Y32870475D01*
X11942262Y32870478D01*
X11942259Y32870482D01*
X11881481Y32931260D01*
X11881477Y32931263D01*
X11881475Y32931265D01*
X11807024Y32974249D01*
X11807023Y32974250D01*
X11807020Y32974251D01*
X11723987Y32996500D01*
X11723984Y32996500D01*
X11638016Y32996500D01*
X11638012Y32996500D01*
X11554979Y32974251D01*
X11480526Y32931266D01*
X11480518Y32931260D01*
X11419740Y32870482D01*
X11419734Y32870474D01*
X11376749Y32796021D01*
X11354500Y32712988D01*
X5344500Y32712988D01*
X5344500Y38494169D01*
X11345500Y38494169D01*
X11345500Y38405831D01*
X11368364Y38320502D01*
X11412533Y38243998D01*
X11412535Y38243996D01*
X11412538Y38243992D01*
X11474991Y38181539D01*
X11474995Y38181536D01*
X11474998Y38181533D01*
X11551502Y38137364D01*
X11636831Y38114500D01*
X11636834Y38114500D01*
X11725166Y38114500D01*
X11725169Y38114500D01*
X11810498Y38137364D01*
X11887002Y38181533D01*
X11949467Y38243998D01*
X11993636Y38320502D01*
X12016500Y38405831D01*
X12016500Y38494169D01*
X11993636Y38579498D01*
X11949467Y38656002D01*
X11949464Y38656005D01*
X11949461Y38656009D01*
X11887008Y38718462D01*
X11887004Y38718465D01*
X11887002Y38718467D01*
X11810498Y38762636D01*
X11725169Y38785500D01*
X11636831Y38785500D01*
X11551502Y38762636D01*
X11551501Y38762636D01*
X11551499Y38762635D01*
X11474999Y38718468D01*
X11474991Y38718462D01*
X11412538Y38656009D01*
X11412532Y38656001D01*
X11368365Y38579501D01*
X11368364Y38579499D01*
X11368364Y38579498D01*
X11345500Y38494169D01*
X5344500Y38494169D01*
X5344500Y39155001D01*
X11809552Y39155001D01*
X11809553Y39155000D01*
X12552447Y39155000D01*
X12552447Y39155001D01*
X12181001Y39526447D01*
X12180999Y39526447D01*
X11809552Y39155001D01*
X5344500Y39155001D01*
X5344500Y39951409D01*
X10931000Y39951409D01*
X10931000Y39808592D01*
X10958861Y39668525D01*
X10958863Y39668520D01*
X11013513Y39536585D01*
X11092853Y39417844D01*
X11092854Y39417842D01*
X11193840Y39316855D01*
X11193842Y39316854D01*
X11236078Y39288633D01*
X11540982Y39593537D01*
X11591504Y39580000D01*
X12770496Y39580000D01*
X12821015Y39593537D01*
X13125919Y39288633D01*
X13125920Y39288633D01*
X13168159Y39316855D01*
X13269145Y39417842D01*
X13269146Y39417844D01*
X13348486Y39536585D01*
X13403136Y39668520D01*
X13403138Y39668525D01*
X13430999Y39808592D01*
X13431000Y39808596D01*
X13431000Y39951405D01*
X13430999Y39951409D01*
X13403138Y40091476D01*
X13403136Y40091481D01*
X13348486Y40223416D01*
X13269146Y40342157D01*
X13269145Y40342159D01*
X13168159Y40443146D01*
X13168157Y40443147D01*
X13125920Y40471369D01*
X12821015Y40166464D01*
X12770496Y40180000D01*
X11591504Y40180000D01*
X11540984Y40166464D01*
X11236079Y40471369D01*
X11193839Y40443145D01*
X11092854Y40342159D01*
X11092853Y40342157D01*
X11013513Y40223416D01*
X10958863Y40091481D01*
X10958861Y40091476D01*
X10931000Y39951409D01*
X5344500Y39951409D01*
X5344500Y40605000D01*
X11809552Y40605000D01*
X12180999Y40233553D01*
X12181001Y40233553D01*
X12552447Y40605000D01*
X11809552Y40605000D01*
X5344500Y40605000D01*
X5344500Y47257879D01*
X6969500Y47257879D01*
X6969500Y43162136D01*
X6969502Y43162115D01*
X6975908Y43102520D01*
X6975908Y43102519D01*
X7026201Y42967674D01*
X7026203Y42967671D01*
X7112453Y42852454D01*
X7170061Y42809329D01*
X7227669Y42766204D01*
X7227671Y42766204D01*
X7227673Y42766202D01*
X7288030Y42743691D01*
X7362514Y42715910D01*
X7362517Y42715909D01*
X7422127Y42709500D01*
X11517872Y42709501D01*
X11577483Y42715909D01*
X11712331Y42766204D01*
X11827546Y42852454D01*
X11913796Y42967669D01*
X11964091Y43102517D01*
X11970500Y43162127D01*
X11970499Y44617350D01*
X11990501Y44685470D01*
X12033501Y44726470D01*
X12038716Y44729480D01*
X12150520Y44841284D01*
X12160885Y44851649D01*
X12160891Y44851658D01*
X13661824Y46352590D01*
X13724134Y46386613D01*
X13750917Y46389492D01*
X28796067Y46389492D01*
X28864188Y46369490D01*
X28910681Y46315834D01*
X28920785Y46245560D01*
X28891291Y46180980D01*
X28885162Y46174397D01*
X18019440Y35308677D01*
X17957128Y35274651D01*
X17886313Y35279716D01*
X17829477Y35322263D01*
X17821225Y35334773D01*
X17803254Y35365900D01*
X17750533Y35457216D01*
X17727991Y35482251D01*
X17623873Y35597887D01*
X17470732Y35709150D01*
X17470732Y35709151D01*
X17339089Y35767762D01*
X17297803Y35786144D01*
X17297801Y35786145D01*
X17297800Y35786145D01*
X17112646Y35825500D01*
X17018925Y35825500D01*
X16950804Y35845502D01*
X16929830Y35862405D01*
X16164308Y36627927D01*
X16164296Y36627941D01*
X16045322Y36746915D01*
X16045318Y36746918D01*
X16045316Y36746920D01*
X15955775Y36798616D01*
X15955773Y36798618D01*
X15908390Y36825975D01*
X15908385Y36825977D01*
X15755657Y36866901D01*
X15597543Y36866901D01*
X15589825Y36866901D01*
X15589809Y36866900D01*
X15117048Y36866900D01*
X15048927Y36886902D01*
X15023415Y36908587D01*
X14995771Y36939288D01*
X14995770Y36939289D01*
X14995768Y36939291D01*
X14842632Y37050550D01*
X14842632Y37050551D01*
X14691426Y37117872D01*
X14669703Y37127544D01*
X14669701Y37127545D01*
X14669700Y37127545D01*
X14484546Y37166900D01*
X14295254Y37166900D01*
X14110099Y37127545D01*
X13937167Y37050551D01*
X13937167Y37050550D01*
X13784026Y36939287D01*
X13657366Y36798617D01*
X13657366Y36798616D01*
X13562722Y36634687D01*
X13562718Y36634679D01*
X13504225Y36454657D01*
X13484440Y36266400D01*
X13504225Y36078144D01*
X13562718Y35898122D01*
X13562722Y35898114D01*
X13657365Y35734186D01*
X13657366Y35734184D01*
X13784026Y35593514D01*
X13937167Y35482251D01*
X13937167Y35482250D01*
X13984512Y35461171D01*
X14110097Y35405256D01*
X14295254Y35365900D01*
X14484546Y35365900D01*
X14669703Y35405256D01*
X14842630Y35482249D01*
X14842630Y35482250D01*
X14842632Y35482250D01*
X14842632Y35482251D01*
X14995771Y35593512D01*
X15023413Y35624213D01*
X15083858Y35661450D01*
X15117048Y35665900D01*
X15375675Y35665900D01*
X15443796Y35645898D01*
X15464770Y35628995D01*
X16075635Y35018130D01*
X16109661Y34955818D01*
X16112540Y34929035D01*
X16112540Y34925002D01*
X16132325Y34736744D01*
X16190818Y34556722D01*
X16190822Y34556714D01*
X16285465Y34392786D01*
X16285466Y34392784D01*
X16412126Y34252114D01*
X16565267Y34140851D01*
X16565272Y34140848D01*
X16595919Y34127202D01*
X16650015Y34081221D01*
X16670663Y34013294D01*
X16651310Y33944986D01*
X16633764Y33923001D01*
X13612455Y30901692D01*
X13550143Y30867666D01*
X13479328Y30872731D01*
X13422492Y30915278D01*
X13397681Y30981798D01*
X13402230Y31022396D01*
X13401931Y31022455D01*
X13402632Y31025981D01*
X13402788Y31027370D01*
X13403138Y31028525D01*
X13430999Y31168592D01*
X13431000Y31168596D01*
X13431000Y31311405D01*
X13430999Y31311409D01*
X13403138Y31451476D01*
X13403136Y31451481D01*
X13348486Y31583416D01*
X13269146Y31702157D01*
X13269145Y31702159D01*
X13168159Y31803146D01*
X13168157Y31803147D01*
X13125920Y31831369D01*
X12821015Y31526464D01*
X12770496Y31540000D01*
X11591504Y31540000D01*
X11540984Y31526464D01*
X11236079Y31831369D01*
X11193839Y31803145D01*
X11092854Y31702159D01*
X11092853Y31702157D01*
X11013513Y31583416D01*
X10958863Y31451481D01*
X10958861Y31451476D01*
X10931000Y31311409D01*
X10931000Y31168592D01*
X10958861Y31028525D01*
X10958863Y31028520D01*
X11013513Y30896585D01*
X11092853Y30777844D01*
X11092854Y30777842D01*
X11193840Y30676855D01*
X11193842Y30676854D01*
X11236078Y30648633D01*
X11540982Y30953537D01*
X11591504Y30940000D01*
X12770496Y30940000D01*
X12821015Y30953537D01*
X13153563Y30620989D01*
X13187589Y30558677D01*
X13182524Y30487862D01*
X13153563Y30442799D01*
X11158168Y28447405D01*
X11095856Y28413379D01*
X11069073Y28410500D01*
X7422135Y28410500D01*
X7422114Y28410498D01*
X7362519Y28404092D01*
X7362518Y28404092D01*
X7227673Y28353799D01*
X7227670Y28353797D01*
X7112453Y28267547D01*
X7026203Y28152330D01*
X7026201Y28152327D01*
X6975909Y28017485D01*
X6969500Y27957879D01*
X6969500Y23862136D01*
X6969502Y23862115D01*
X6975908Y23802520D01*
X6975908Y23802519D01*
X7026201Y23667674D01*
X7026203Y23667671D01*
X7026204Y23667669D01*
X7047826Y23638786D01*
X7112453Y23552454D01*
X7138036Y23533303D01*
X7227669Y23466204D01*
X7227671Y23466204D01*
X7227673Y23466202D01*
X7288030Y23443691D01*
X7362514Y23415910D01*
X7362517Y23415909D01*
X7422127Y23409500D01*
X11354965Y23409501D01*
X11423086Y23389499D01*
X11460963Y23351622D01*
X11534225Y23237624D01*
X11534230Y23237618D01*
X11578490Y23186539D01*
X11580311Y23184319D01*
X11661466Y23114000D01*
X11689455Y23089748D01*
X11820333Y23029978D01*
X11888454Y23009976D01*
X12030869Y22989500D01*
X12030873Y22989500D01*
X22048680Y22989500D01*
X22077087Y22990745D01*
X22092875Y22991436D01*
X22114827Y22993363D01*
X22158691Y22999158D01*
X22158694Y22999159D01*
X22158695Y22999159D01*
X22295353Y23044129D01*
X22295356Y23044130D01*
X22295358Y23044132D01*
X22295361Y23044132D01*
X22358955Y23075696D01*
X22477419Y23157354D01*
X23091481Y23725196D01*
X23101182Y23736539D01*
X23160658Y23775305D01*
X23231653Y23775762D01*
X23286030Y23743735D01*
X32712635Y14317130D01*
X32746661Y14254818D01*
X32749540Y14228035D01*
X32749540Y14224002D01*
X32769325Y14035744D01*
X32827818Y13855722D01*
X32827822Y13855714D01*
X32922465Y13691786D01*
X32922466Y13691784D01*
X33049126Y13551114D01*
X33202267Y13439851D01*
X33202267Y13439850D01*
X33249612Y13418771D01*
X33375197Y13362856D01*
X33560354Y13323500D01*
X33749646Y13323500D01*
X33934803Y13362856D01*
X34107730Y13439849D01*
X34107730Y13439850D01*
X34107732Y13439850D01*
X34113450Y13443151D01*
X34114132Y13441969D01*
X34174141Y13463392D01*
X34243296Y13447325D01*
X34292786Y13396420D01*
X34301191Y13376536D01*
X34351819Y13220719D01*
X34351822Y13220714D01*
X34446465Y13056786D01*
X34446466Y13056784D01*
X34573126Y12916114D01*
X34726267Y12804851D01*
X34726267Y12804850D01*
X34773612Y12783771D01*
X34899197Y12727856D01*
X35084354Y12688500D01*
X35273646Y12688500D01*
X35458803Y12727856D01*
X35631730Y12804849D01*
X35631730Y12804850D01*
X35631732Y12804850D01*
X35631732Y12804851D01*
X35784871Y12916112D01*
X35797868Y12930546D01*
X35911533Y13056784D01*
X35911534Y13056786D01*
X35942491Y13110405D01*
X36006179Y13220716D01*
X36064674Y13400744D01*
X36084460Y13589000D01*
X36064674Y13777256D01*
X36064674Y13777257D01*
X36006181Y13957279D01*
X36006177Y13957287D01*
X35911534Y14121215D01*
X35911532Y14121217D01*
X35811864Y14231911D01*
X35781146Y14295918D01*
X35779500Y14316221D01*
X35779500Y15531780D01*
X35779501Y15531793D01*
X35779501Y15700055D01*
X35779501Y15700057D01*
X35738577Y15852785D01*
X35709639Y15902905D01*
X35709637Y15902909D01*
X35659523Y15989712D01*
X35659516Y15989721D01*
X35543327Y16105910D01*
X35543304Y16105931D01*
X25694900Y25954335D01*
X25660874Y26016647D01*
X25665939Y26087462D01*
X25698446Y26135935D01*
X25940574Y26359836D01*
X26017205Y26449423D01*
X26033460Y26473662D01*
X26049711Y26497893D01*
X26049715Y26497900D01*
X26066174Y26529994D01*
X26115056Y26581479D01*
X26184016Y26598365D01*
X26191468Y26597804D01*
X26194349Y26597502D01*
X26194354Y26597500D01*
X26200309Y26597500D01*
X29834500Y26597500D01*
X29902621Y26577498D01*
X29949114Y26523842D01*
X29960500Y26471500D01*
X29960500Y24682192D01*
X29940498Y24614071D01*
X29923595Y24593096D01*
X29646369Y24315871D01*
X29631342Y24303036D01*
X29620127Y24294888D01*
X29574779Y24244524D01*
X29570240Y24239741D01*
X29526535Y24196036D01*
X29518387Y24183841D01*
X29507264Y24169541D01*
X29493469Y24154220D01*
X29493463Y24154212D01*
X29462940Y24101345D01*
X29458589Y24094349D01*
X29427990Y24048553D01*
X29427983Y24048540D01*
X29419791Y24028763D01*
X29412507Y24013992D01*
X29398820Y23990283D01*
X29398818Y23990280D01*
X29382035Y23938628D01*
X29378612Y23929349D01*
X29360107Y23884675D01*
X29360104Y23884663D01*
X29354609Y23857042D01*
X29350865Y23842694D01*
X29340326Y23810259D01*
X29340325Y23810256D01*
X29335350Y23762926D01*
X29333620Y23751521D01*
X29325501Y23710702D01*
X29325500Y23710690D01*
X29325500Y23675798D01*
X29324810Y23662628D01*
X29320540Y23622001D01*
X29324810Y23581374D01*
X29325500Y23568204D01*
X29325500Y23533303D01*
X29333620Y23492483D01*
X29335350Y23481076D01*
X29340325Y23433745D01*
X29340326Y23433740D01*
X29350865Y23401307D01*
X29354610Y23386955D01*
X29359077Y23364501D01*
X29360105Y23359334D01*
X29366206Y23344604D01*
X29378614Y23314648D01*
X29382037Y23305370D01*
X29398820Y23253718D01*
X29412506Y23230012D01*
X29419792Y23215238D01*
X29427988Y23195452D01*
X29458590Y23149653D01*
X29462943Y23142652D01*
X29493462Y23089790D01*
X29493465Y23089786D01*
X29507259Y23074467D01*
X29518389Y23060157D01*
X29526536Y23047964D01*
X29570257Y23004243D01*
X29574780Y22999476D01*
X29583763Y22989500D01*
X29620129Y22949112D01*
X29631342Y22940965D01*
X29646369Y22928131D01*
X29651964Y22922536D01*
X29708960Y22884453D01*
X29712997Y22881640D01*
X29773266Y22837852D01*
X29773265Y22837852D01*
X29773267Y22837851D01*
X29773270Y22837849D01*
X29779759Y22834960D01*
X29798502Y22824623D01*
X29799451Y22823989D01*
X29799455Y22823987D01*
X29869015Y22795173D01*
X29872017Y22793884D01*
X29914168Y22775117D01*
X29946194Y22760857D01*
X29946195Y22760857D01*
X29946197Y22760856D01*
X29946514Y22760789D01*
X29957271Y22757450D01*
X29957409Y22757903D01*
X29963323Y22756110D01*
X29963334Y22756105D01*
X30043757Y22740109D01*
X30045305Y22739791D01*
X30131354Y22721500D01*
X30131357Y22721500D01*
X30320645Y22721500D01*
X30320646Y22721500D01*
X30406641Y22739780D01*
X30408219Y22740104D01*
X30488666Y22756105D01*
X30488668Y22756107D01*
X30494589Y22757902D01*
X30494728Y22757442D01*
X30505488Y22760790D01*
X30505803Y22760856D01*
X30580054Y22793916D01*
X30582918Y22795147D01*
X30652547Y22823988D01*
X30653493Y22824621D01*
X30672245Y22834963D01*
X30678730Y22837849D01*
X30739021Y22881654D01*
X30743039Y22884453D01*
X30800036Y22922536D01*
X30805630Y22928132D01*
X30820658Y22940966D01*
X30831871Y22949112D01*
X30877230Y22999490D01*
X30881733Y23004235D01*
X31152905Y23275408D01*
X31215216Y23309431D01*
X31286031Y23304367D01*
X31331094Y23275406D01*
X31602240Y23004260D01*
X31606780Y22999477D01*
X31652129Y22949112D01*
X31663343Y22940965D01*
X31678376Y22928125D01*
X31683965Y22922536D01*
X31740968Y22884448D01*
X31744993Y22881643D01*
X31759248Y22871286D01*
X31805271Y22837848D01*
X31811751Y22834963D01*
X31830506Y22824620D01*
X31831061Y22824250D01*
X31831454Y22823987D01*
X31889557Y22799921D01*
X31900998Y22795181D01*
X31904021Y22793882D01*
X31978197Y22760856D01*
X31978514Y22760789D01*
X31989271Y22757450D01*
X31989409Y22757903D01*
X31995323Y22756110D01*
X31995334Y22756105D01*
X32075757Y22740109D01*
X32077305Y22739791D01*
X32163354Y22721500D01*
X32163357Y22721500D01*
X32352645Y22721500D01*
X32352646Y22721500D01*
X32438641Y22739780D01*
X32440219Y22740104D01*
X32520666Y22756105D01*
X32520668Y22756107D01*
X32526589Y22757902D01*
X32526728Y22757442D01*
X32537488Y22760790D01*
X32537803Y22760856D01*
X32612007Y22793895D01*
X32614993Y22795177D01*
X32684538Y22823983D01*
X32684539Y22823984D01*
X32684547Y22823987D01*
X32685492Y22824619D01*
X32704255Y22834967D01*
X32710730Y22837849D01*
X32770991Y22881633D01*
X32775032Y22884448D01*
X32832036Y22922536D01*
X32837630Y22928132D01*
X32852658Y22940966D01*
X32863871Y22949112D01*
X32909239Y22999500D01*
X32913723Y23004225D01*
X32957464Y23047964D01*
X32965614Y23060163D01*
X32976741Y23074467D01*
X32977848Y23075696D01*
X32990533Y23089784D01*
X33021056Y23142652D01*
X33025396Y23149634D01*
X33056013Y23195453D01*
X33064211Y23215246D01*
X33071493Y23230012D01*
X33085179Y23253716D01*
X33101967Y23305388D01*
X33105375Y23314625D01*
X33123895Y23359334D01*
X33129389Y23386960D01*
X33133132Y23401302D01*
X33143674Y23433744D01*
X33148648Y23481076D01*
X33150373Y23492456D01*
X33158500Y23533308D01*
X33158500Y23568204D01*
X33159190Y23581374D01*
X33163460Y23622000D01*
X33159190Y23662628D01*
X33158500Y23675798D01*
X33158500Y23710688D01*
X33158500Y23710690D01*
X33158500Y23710692D01*
X33150378Y23751523D01*
X33148647Y23762936D01*
X33146130Y23786888D01*
X33143674Y23810256D01*
X33133130Y23842703D01*
X33129388Y23857045D01*
X33128380Y23862115D01*
X33123895Y23884666D01*
X33121821Y23889673D01*
X33105387Y23929349D01*
X33101962Y23938631D01*
X33085179Y23990284D01*
X33071496Y24013982D01*
X33064206Y24028766D01*
X33056015Y24048540D01*
X33056013Y24048546D01*
X33025395Y24094369D01*
X33021052Y24101354D01*
X32990535Y24154214D01*
X32990533Y24154215D01*
X32990533Y24154216D01*
X32976734Y24169542D01*
X32965609Y24183845D01*
X32957464Y24196035D01*
X32913740Y24239759D01*
X32909217Y24244526D01*
X32863874Y24294886D01*
X32852660Y24303033D01*
X32837623Y24315876D01*
X32798403Y24355097D01*
X32764379Y24417409D01*
X32761500Y24444191D01*
X32761500Y27040500D01*
X32781502Y27108621D01*
X32835158Y27155114D01*
X32887500Y27166500D01*
X35709691Y27166500D01*
X35709692Y27166500D01*
X35883666Y27201105D01*
X35993272Y27246506D01*
X36047547Y27268987D01*
X36141699Y27331898D01*
X36195036Y27367536D01*
X36266633Y27439135D01*
X36281652Y27451962D01*
X36292871Y27460112D01*
X36338239Y27510500D01*
X36342723Y27515225D01*
X36386464Y27558964D01*
X36394605Y27571150D01*
X36405737Y27585464D01*
X36419533Y27600784D01*
X36450067Y27653674D01*
X36454395Y27660633D01*
X36485012Y27706453D01*
X36493208Y27726241D01*
X36500485Y27740999D01*
X36514179Y27764716D01*
X36530964Y27816380D01*
X36534388Y27825658D01*
X36541503Y27842834D01*
X36552895Y27870334D01*
X36558388Y27897956D01*
X36562132Y27912302D01*
X36572674Y27944744D01*
X36577648Y27992076D01*
X36579373Y28003456D01*
X36587500Y28044308D01*
X36587500Y28079204D01*
X36588190Y28092374D01*
X36588725Y28097468D01*
X36592460Y28133000D01*
X36588190Y28173628D01*
X36587500Y28186798D01*
X36587500Y28221688D01*
X36587500Y28221692D01*
X36579378Y28262523D01*
X36577647Y28273936D01*
X36575409Y28295233D01*
X36572674Y28321256D01*
X36562130Y28353703D01*
X36558388Y28368046D01*
X36552895Y28395666D01*
X36534381Y28440361D01*
X36530965Y28449621D01*
X36514179Y28501284D01*
X36500489Y28524995D01*
X36493207Y28539763D01*
X36485012Y28559547D01*
X36454412Y28605343D01*
X36450056Y28612347D01*
X36449804Y28612784D01*
X36419533Y28665216D01*
X36405737Y28680537D01*
X36394609Y28694845D01*
X36391499Y28699500D01*
X36386464Y28707036D01*
X36342740Y28750760D01*
X36338217Y28755526D01*
X36292868Y28805891D01*
X36292867Y28805892D01*
X36281659Y28814035D01*
X36266623Y28826877D01*
X36261038Y28832462D01*
X36261031Y28832468D01*
X36204046Y28870544D01*
X36199989Y28873372D01*
X36139733Y28917149D01*
X36139725Y28917154D01*
X36133235Y28920044D01*
X36114505Y28930373D01*
X36113552Y28931010D01*
X36113550Y28931011D01*
X36044031Y28959808D01*
X36041005Y28961109D01*
X35966807Y28994143D01*
X35966803Y28994144D01*
X35966473Y28994214D01*
X35955721Y28997553D01*
X35955584Y28997100D01*
X35949666Y28998895D01*
X35869245Y29014892D01*
X35867631Y29015224D01*
X35781647Y29033500D01*
X35781646Y29033500D01*
X35592354Y29033500D01*
X35592352Y29033500D01*
X35506365Y29015224D01*
X35504753Y29014892D01*
X35469345Y29007849D01*
X35424334Y28998895D01*
X35424332Y28998895D01*
X35424326Y28998893D01*
X35418414Y28997100D01*
X35418280Y28997542D01*
X35407546Y28994219D01*
X35407199Y28994146D01*
X35407194Y28994144D01*
X35371821Y28978394D01*
X35320571Y28967500D01*
X33012057Y28967500D01*
X32943936Y28987502D01*
X32897443Y29041158D01*
X32886748Y29080326D01*
X32886191Y29085624D01*
X32885500Y29098798D01*
X32885500Y29133692D01*
X32885499Y29133693D01*
X32877377Y29174523D01*
X32875647Y29185929D01*
X32872670Y29214256D01*
X32870674Y29233256D01*
X32860129Y29265707D01*
X32856386Y29280052D01*
X32850894Y29307666D01*
X32832384Y29352353D01*
X32828969Y29361609D01*
X32812179Y29413284D01*
X32798491Y29436992D01*
X32791210Y29451757D01*
X32783013Y29471547D01*
X32752403Y29517357D01*
X32748055Y29524349D01*
X32724968Y29564338D01*
X32717533Y29577216D01*
X32717532Y29577217D01*
X32717531Y29577219D01*
X32703735Y29592541D01*
X32692605Y29606850D01*
X32684464Y29619035D01*
X32640749Y29662750D01*
X32636226Y29667516D01*
X32631910Y29672309D01*
X32614983Y29691109D01*
X32590870Y29717890D01*
X32579658Y29726035D01*
X32564623Y29738876D01*
X32559035Y29744464D01*
X32559034Y29744465D01*
X32559032Y29744467D01*
X32559031Y29744468D01*
X32502035Y29782552D01*
X32497978Y29785379D01*
X32489256Y29791716D01*
X32437730Y29829151D01*
X32431247Y29832038D01*
X32412506Y29842372D01*
X32411544Y29843015D01*
X32411540Y29843017D01*
X32342020Y29871812D01*
X32338988Y29873115D01*
X32264809Y29906142D01*
X32264798Y29906146D01*
X32264462Y29906217D01*
X32253720Y29909546D01*
X32253585Y29909099D01*
X32247667Y29910894D01*
X32167291Y29926882D01*
X32165677Y29927214D01*
X32079647Y29945500D01*
X32079646Y29945500D01*
X31890354Y29945500D01*
X31890353Y29945500D01*
X31804320Y29927214D01*
X31802707Y29926882D01*
X31753976Y29917189D01*
X31722334Y29910894D01*
X31722333Y29910894D01*
X31722325Y29910892D01*
X31716413Y29909099D01*
X31716277Y29909547D01*
X31705537Y29906217D01*
X31705200Y29906146D01*
X31705197Y29906145D01*
X31631004Y29873112D01*
X31627975Y29871810D01*
X31558449Y29843012D01*
X31557482Y29842365D01*
X31538759Y29832041D01*
X31532272Y29829153D01*
X31532266Y29829149D01*
X31472026Y29785383D01*
X31467972Y29782557D01*
X31410966Y29744466D01*
X31410959Y29744459D01*
X31405366Y29738867D01*
X31390340Y29726034D01*
X31373785Y29714006D01*
X31372091Y29716338D01*
X31319405Y29691109D01*
X31248959Y29699934D01*
X31216321Y29722159D01*
X31215815Y29721541D01*
X31211031Y29725468D01*
X31154046Y29763544D01*
X31149989Y29766372D01*
X31089732Y29810150D01*
X31089728Y29810152D01*
X31083247Y29813038D01*
X31064506Y29823372D01*
X31063544Y29824015D01*
X31063540Y29824017D01*
X30994020Y29852812D01*
X30990988Y29854115D01*
X30916807Y29887143D01*
X30916803Y29887144D01*
X30916473Y29887214D01*
X30905721Y29890553D01*
X30905584Y29890100D01*
X30899666Y29891895D01*
X30819245Y29907892D01*
X30817631Y29908224D01*
X30731647Y29926500D01*
X30731646Y29926500D01*
X30542354Y29926500D01*
X30542352Y29926500D01*
X30456365Y29908224D01*
X30454753Y29907892D01*
X30421861Y29901349D01*
X30374334Y29891895D01*
X30374332Y29891895D01*
X30374326Y29891893D01*
X30368414Y29890100D01*
X30368280Y29890542D01*
X30357546Y29887219D01*
X30357199Y29887146D01*
X30357198Y29887145D01*
X30283005Y29854112D01*
X30279975Y29852810D01*
X30210449Y29824012D01*
X30209482Y29823365D01*
X30190759Y29813041D01*
X30184272Y29810153D01*
X30184271Y29810152D01*
X30182120Y29808589D01*
X30124013Y29766374D01*
X30119977Y29763560D01*
X30087584Y29741916D01*
X30063818Y29726034D01*
X30062963Y29725463D01*
X30062958Y29725459D01*
X30057367Y29719868D01*
X30042342Y29707036D01*
X30031129Y29698889D01*
X29985789Y29648534D01*
X29981249Y29643750D01*
X29937535Y29600036D01*
X29929387Y29587841D01*
X29918264Y29573541D01*
X29904469Y29558220D01*
X29904465Y29558215D01*
X29873946Y29505354D01*
X29869594Y29498356D01*
X29838988Y29452549D01*
X29838987Y29452548D01*
X29830789Y29432758D01*
X29823504Y29417986D01*
X29809823Y29394290D01*
X29793035Y29342626D01*
X29789613Y29333351D01*
X29771106Y29288670D01*
X29771104Y29288663D01*
X29765609Y29261042D01*
X29761865Y29246694D01*
X29751326Y29214259D01*
X29751325Y29214255D01*
X29746350Y29166924D01*
X29744622Y29155531D01*
X29740279Y29133691D01*
X29740125Y29132915D01*
X29736500Y29114691D01*
X29736500Y29079798D01*
X29735810Y29066628D01*
X29732198Y29032256D01*
X29731540Y29026000D01*
X29734628Y28996619D01*
X29735810Y28985374D01*
X29736500Y28972204D01*
X29736500Y28524500D01*
X29716498Y28456379D01*
X29662842Y28409886D01*
X29610500Y28398500D01*
X28467024Y28398500D01*
X28398903Y28418502D01*
X28352410Y28472158D01*
X28342306Y28542432D01*
X28371800Y28607012D01*
X28381478Y28617009D01*
X28585731Y28805888D01*
X32857011Y32755666D01*
X32866712Y32767009D01*
X32926188Y32805775D01*
X32997183Y32806232D01*
X33051560Y32774205D01*
X33706967Y32118798D01*
X33740993Y32056486D01*
X33735928Y31985671D01*
X33693381Y31928835D01*
X33691933Y31927767D01*
X33619126Y31874870D01*
X33492466Y31734200D01*
X33492465Y31734198D01*
X33397822Y31570270D01*
X33397818Y31570262D01*
X33339325Y31390240D01*
X33319540Y31201983D01*
X33339325Y31013727D01*
X33397818Y30833705D01*
X33397822Y30833697D01*
X33492465Y30669769D01*
X33492466Y30669767D01*
X33619126Y30529097D01*
X33772267Y30417834D01*
X33772267Y30417833D01*
X33815757Y30398470D01*
X33945197Y30340839D01*
X34130354Y30301483D01*
X34319646Y30301483D01*
X34504803Y30340839D01*
X34677730Y30417832D01*
X34677730Y30417833D01*
X34677732Y30417833D01*
X34677732Y30417834D01*
X34830871Y30529095D01*
X34857760Y30558958D01*
X34961952Y30674674D01*
X34964006Y30672824D01*
X35010561Y30708720D01*
X35081298Y30714794D01*
X35144088Y30681660D01*
X35145366Y30680399D01*
X35202069Y30623696D01*
X35202090Y30623673D01*
X35318277Y30507486D01*
X35318282Y30507482D01*
X35318284Y30507480D01*
X35318285Y30507479D01*
X35318287Y30507478D01*
X35386750Y30467952D01*
X35455216Y30428423D01*
X35567019Y30398466D01*
X35607942Y30387500D01*
X35607943Y30387500D01*
X37626850Y30387500D01*
X37694971Y30367498D01*
X37720482Y30345814D01*
X37748125Y30315114D01*
X37748129Y30315110D01*
X37901265Y30203851D01*
X37901265Y30203850D01*
X37947143Y30183424D01*
X38074195Y30126856D01*
X38259352Y30087500D01*
X38448644Y30087500D01*
X38633801Y30126856D01*
X38806728Y30203849D01*
X38806728Y30203850D01*
X38806730Y30203850D01*
X38806730Y30203851D01*
X38959869Y30315112D01*
X39006788Y30367220D01*
X39086531Y30455784D01*
X39086532Y30455786D01*
X39116376Y30507478D01*
X39181177Y30619716D01*
X39239672Y30799744D01*
X39259458Y30988000D01*
X39240610Y31167328D01*
X39239672Y31176257D01*
X39181179Y31356279D01*
X39181175Y31356287D01*
X39161572Y31390240D01*
X39126215Y31451481D01*
X39086532Y31520215D01*
X39086531Y31520217D01*
X38959871Y31660887D01*
X38806730Y31772150D01*
X38806730Y31772151D01*
X38652447Y31840842D01*
X38633801Y31849144D01*
X38633799Y31849145D01*
X38633798Y31849145D01*
X38448644Y31888500D01*
X38259352Y31888500D01*
X38074197Y31849145D01*
X37901265Y31772151D01*
X37901265Y31772150D01*
X37748129Y31660891D01*
X37738042Y31649688D01*
X37720484Y31630188D01*
X37660040Y31592950D01*
X37626850Y31588500D01*
X35987925Y31588500D01*
X35919804Y31608502D01*
X35898830Y31625405D01*
X34600189Y32924046D01*
X40415161Y32924046D01*
X40434946Y32735790D01*
X40493439Y32555768D01*
X40493443Y32555760D01*
X40588086Y32391832D01*
X40588087Y32391830D01*
X40714747Y32251160D01*
X40867888Y32139897D01*
X40867888Y32139896D01*
X40915233Y32118817D01*
X41040818Y32062902D01*
X41225975Y32023546D01*
X41415267Y32023546D01*
X41600424Y32062902D01*
X41773351Y32139895D01*
X41773351Y32139896D01*
X41773353Y32139896D01*
X41773353Y32139897D01*
X41926492Y32251158D01*
X41952598Y32280151D01*
X42053154Y32391830D01*
X42053155Y32391832D01*
X42062914Y32408735D01*
X42147800Y32555762D01*
X42148993Y32559432D01*
X42206295Y32735790D01*
X42212626Y32796024D01*
X42226081Y32924046D01*
X42226081Y32924048D01*
X42226081Y32928082D01*
X42226741Y32930332D01*
X42226771Y32930613D01*
X42226822Y32930608D01*
X42246083Y32996203D01*
X42262986Y33017177D01*
X43386658Y34140848D01*
X44514801Y35268991D01*
X44577113Y35303017D01*
X44603896Y35305896D01*
X54517852Y35305896D01*
X54585973Y35285894D01*
X54611484Y35264210D01*
X54639127Y35233510D01*
X54639131Y35233506D01*
X54792267Y35122247D01*
X54792267Y35122246D01*
X54839612Y35101167D01*
X54965197Y35045252D01*
X55150354Y35005896D01*
X55339646Y35005896D01*
X55524803Y35045252D01*
X55697730Y35122245D01*
X55697730Y35122246D01*
X55697732Y35122246D01*
X55697732Y35122247D01*
X55850871Y35233508D01*
X55882031Y35268114D01*
X55977533Y35374180D01*
X55977534Y35374182D01*
X56072179Y35538112D01*
X56130674Y35718140D01*
X56150460Y35906396D01*
X56130674Y36094652D01*
X56130674Y36094653D01*
X56072181Y36274675D01*
X56072177Y36274683D01*
X56071930Y36275110D01*
X56007378Y36386919D01*
X55977534Y36438611D01*
X55977533Y36438613D01*
X55850873Y36579283D01*
X55697732Y36690546D01*
X55697732Y36690547D01*
X55571113Y36746921D01*
X55524803Y36767540D01*
X55524801Y36767541D01*
X55524800Y36767541D01*
X55339646Y36806896D01*
X55150354Y36806896D01*
X54965199Y36767541D01*
X54792267Y36690547D01*
X54792267Y36690546D01*
X54639131Y36579287D01*
X54625661Y36564327D01*
X54611486Y36548584D01*
X54551042Y36511346D01*
X54517852Y36506896D01*
X44389762Y36506896D01*
X44389746Y36506897D01*
X44382028Y36506897D01*
X44223914Y36506897D01*
X44115179Y36477761D01*
X44071185Y36465973D01*
X44071182Y36465972D01*
X44051587Y36454657D01*
X44051585Y36454656D01*
X43934258Y36386919D01*
X43934253Y36386915D01*
X43897197Y36349858D01*
X43822451Y36275112D01*
X43822449Y36275110D01*
X42610411Y35063071D01*
X41408791Y33861451D01*
X41346479Y33827426D01*
X41319696Y33824546D01*
X41225975Y33824546D01*
X41040820Y33785191D01*
X40867888Y33708197D01*
X40867888Y33708196D01*
X40714747Y33596933D01*
X40588087Y33456263D01*
X40588086Y33456261D01*
X40493443Y33292333D01*
X40493439Y33292325D01*
X40434946Y33112303D01*
X40415161Y32924046D01*
X34600189Y32924046D01*
X33942814Y33581421D01*
X33908788Y33643733D01*
X33913853Y33714548D01*
X33946359Y33763020D01*
X43029451Y42162419D01*
X43093042Y42193981D01*
X43114690Y42195908D01*
X56318352Y42227222D01*
X56335813Y42227566D01*
X56344503Y42227887D01*
X56361907Y42228830D01*
X56361914Y42228832D01*
X56361917Y42228832D01*
X56404749Y42238150D01*
X56502499Y42259415D01*
X56502500Y42259415D01*
X56536489Y42272093D01*
X56569019Y42284226D01*
X56695297Y42353179D01*
X56758848Y42416731D01*
X56821156Y42450754D01*
X56891972Y42445690D01*
X56937035Y42416730D01*
X59509636Y39844128D01*
X59543661Y39781818D01*
X59546540Y39755035D01*
X59546540Y39751002D01*
X59566325Y39562744D01*
X59624818Y39382722D01*
X59624822Y39382714D01*
X59719465Y39218786D01*
X59719466Y39218784D01*
X59846126Y39078114D01*
X59999267Y38966851D01*
X59999267Y38966850D01*
X60046612Y38945771D01*
X60172197Y38889856D01*
X60357354Y38850500D01*
X60546646Y38850500D01*
X60731803Y38889856D01*
X60904730Y38966849D01*
X60904730Y38966850D01*
X60904732Y38966850D01*
X60904732Y38966851D01*
X61057871Y39078112D01*
X61127102Y39155000D01*
X61184533Y39218784D01*
X61184534Y39218786D01*
X61220388Y39280887D01*
X61279179Y39382716D01*
X61337674Y39562744D01*
X61357460Y39751000D01*
X61337674Y39939256D01*
X61333727Y39951405D01*
X61279181Y40119279D01*
X61279177Y40119287D01*
X61184534Y40283215D01*
X61184533Y40283217D01*
X61057873Y40423887D01*
X60904732Y40535150D01*
X60904732Y40535151D01*
X60747848Y40605000D01*
X60731803Y40612144D01*
X60731801Y40612145D01*
X60731800Y40612145D01*
X60546646Y40651500D01*
X60452926Y40651500D01*
X60384805Y40671502D01*
X60363831Y40688405D01*
X59741001Y41311235D01*
X59033457Y42018778D01*
X58999433Y42081089D01*
X59004497Y42151904D01*
X59047044Y42208740D01*
X59113564Y42233551D01*
X59122253Y42233872D01*
X64273701Y42246089D01*
X64341869Y42226248D01*
X64388489Y42172703D01*
X64400000Y42120089D01*
X64400000Y41363426D01*
X64379998Y41295305D01*
X64363095Y41274331D01*
X59341613Y36252850D01*
X59279301Y36218824D01*
X59208486Y36223889D01*
X59158883Y36257634D01*
X59060861Y36366498D01*
X59060860Y36366499D01*
X58907722Y36477760D01*
X58907722Y36477761D01*
X58782135Y36533676D01*
X58734793Y36554754D01*
X58734791Y36554755D01*
X58734790Y36554755D01*
X58549636Y36594110D01*
X58437813Y36594110D01*
X58369692Y36614112D01*
X58348718Y36631015D01*
X57861861Y37117872D01*
X57827835Y37180184D01*
X57824956Y37206967D01*
X57824956Y37211001D01*
X57805170Y37399259D01*
X57746677Y37579281D01*
X57746673Y37579289D01*
X57652030Y37743217D01*
X57652029Y37743219D01*
X57525369Y37883889D01*
X57372228Y37995152D01*
X57372228Y37995153D01*
X57246641Y38051068D01*
X57199299Y38072146D01*
X57199297Y38072147D01*
X57199296Y38072147D01*
X57014142Y38111502D01*
X56824850Y38111502D01*
X56639695Y38072147D01*
X56466763Y37995153D01*
X56466763Y37995152D01*
X56313622Y37883889D01*
X56186962Y37743219D01*
X56186961Y37743217D01*
X56092318Y37579289D01*
X56092314Y37579281D01*
X56033821Y37399259D01*
X56014036Y37211002D01*
X56033821Y37022746D01*
X56092314Y36842724D01*
X56092318Y36842716D01*
X56186961Y36678788D01*
X56186962Y36678786D01*
X56313622Y36538116D01*
X56466763Y36426853D01*
X56466763Y36426852D01*
X56514108Y36405773D01*
X56639693Y36349858D01*
X56824850Y36310502D01*
X56918571Y36310502D01*
X56986692Y36290500D01*
X57007666Y36273597D01*
X57513501Y35767762D01*
X57547527Y35705450D01*
X57549716Y35691837D01*
X57569315Y35505354D01*
X57627808Y35325332D01*
X57627812Y35325324D01*
X57722455Y35161396D01*
X57722456Y35161394D01*
X57841624Y35029046D01*
X57849119Y35020722D01*
X57880570Y34997872D01*
X57923923Y34941651D01*
X57930000Y34870915D01*
X57896869Y34808123D01*
X57895605Y34806841D01*
X56241168Y33152404D01*
X56178858Y33118380D01*
X56152075Y33115500D01*
X45428791Y33115500D01*
X45428775Y33115501D01*
X45421057Y33115501D01*
X45262943Y33115501D01*
X45171306Y33090947D01*
X45110213Y33074577D01*
X45060095Y33045640D01*
X44973287Y32995523D01*
X44973282Y32995519D01*
X44917381Y32939618D01*
X44861480Y32883716D01*
X44861478Y32883714D01*
X43984651Y32006886D01*
X43141170Y31163405D01*
X43078858Y31129380D01*
X43052075Y31126500D01*
X42958354Y31126500D01*
X42773199Y31087145D01*
X42600267Y31010151D01*
X42600267Y31010150D01*
X42447126Y30898887D01*
X42320466Y30758217D01*
X42320465Y30758215D01*
X42225822Y30594287D01*
X42225818Y30594279D01*
X42167325Y30414257D01*
X42147540Y30226000D01*
X42167325Y30037744D01*
X42225818Y29857722D01*
X42225822Y29857714D01*
X42320465Y29693786D01*
X42320466Y29693784D01*
X42447126Y29553114D01*
X42600267Y29441851D01*
X42600267Y29441850D01*
X42605276Y29439620D01*
X42773197Y29364856D01*
X42958354Y29325500D01*
X43147646Y29325500D01*
X43332803Y29364856D01*
X43505730Y29441849D01*
X43505730Y29441850D01*
X43505732Y29441850D01*
X43505732Y29441851D01*
X43658871Y29553112D01*
X43677266Y29573541D01*
X43785533Y29693784D01*
X43785534Y29693786D01*
X43797208Y29714006D01*
X43880179Y29857716D01*
X43885182Y29873112D01*
X43938674Y30037744D01*
X43944732Y30095380D01*
X43958460Y30226000D01*
X43958460Y30226002D01*
X43958460Y30230036D01*
X43959120Y30232286D01*
X43959150Y30232567D01*
X43959201Y30232562D01*
X43978462Y30298157D01*
X43995365Y30319131D01*
X45553830Y31877595D01*
X45616142Y31911621D01*
X45642925Y31914500D01*
X50149284Y31914500D01*
X50217405Y31894498D01*
X50263898Y31840842D01*
X50274002Y31770568D01*
X50244508Y31705988D01*
X50209487Y31680733D01*
X50210657Y31678707D01*
X50066576Y31595523D01*
X50066566Y31595515D01*
X42052427Y23581374D01*
X39418286Y20947233D01*
X39418284Y20947231D01*
X39377749Y20906696D01*
X39306481Y20835429D01*
X39306477Y20835424D01*
X39266826Y20766744D01*
X39227423Y20698498D01*
X39206961Y20622132D01*
X39186499Y20545768D01*
X39186499Y20545766D01*
X39186499Y20377504D01*
X39186500Y20377491D01*
X39186500Y14774700D01*
X39166498Y14706579D01*
X39112842Y14660086D01*
X39060501Y14648700D01*
X38900935Y14648700D01*
X38900914Y14648698D01*
X38841319Y14642292D01*
X38841318Y14642292D01*
X38706473Y14591999D01*
X38706470Y14591997D01*
X38591253Y14505747D01*
X38505003Y14390530D01*
X38505001Y14390527D01*
X38454709Y14255685D01*
X38448300Y14196079D01*
X38448300Y12423936D01*
X38448302Y12423915D01*
X38454708Y12364320D01*
X38454708Y12364319D01*
X38505001Y12229474D01*
X38505003Y12229471D01*
X38505004Y12229469D01*
X38533645Y12191209D01*
X38591253Y12114254D01*
X38648861Y12071129D01*
X38706469Y12028004D01*
X38706471Y12028004D01*
X38706473Y12028002D01*
X38766830Y12005491D01*
X38841314Y11977710D01*
X38841317Y11977709D01*
X38900927Y11971300D01*
X40673072Y11971301D01*
X40732683Y11977709D01*
X40867531Y12028004D01*
X40982746Y12114254D01*
X41068996Y12229469D01*
X41072874Y12239865D01*
X41095109Y12299482D01*
X41119291Y12364317D01*
X41125700Y12423927D01*
X41125699Y14196072D01*
X41125698Y14196079D01*
X42948300Y14196079D01*
X42948300Y12423936D01*
X42948302Y12423915D01*
X42954708Y12364320D01*
X42954708Y12364319D01*
X43005001Y12229474D01*
X43005003Y12229471D01*
X43005004Y12229469D01*
X43033645Y12191209D01*
X43091253Y12114254D01*
X43148861Y12071129D01*
X43206469Y12028004D01*
X43206471Y12028004D01*
X43206473Y12028002D01*
X43266830Y12005491D01*
X43341314Y11977710D01*
X43341317Y11977709D01*
X43400927Y11971300D01*
X45173072Y11971301D01*
X45232683Y11977709D01*
X45367531Y12028004D01*
X45482746Y12114254D01*
X45568996Y12229469D01*
X45572874Y12239865D01*
X45595109Y12299482D01*
X45619291Y12364317D01*
X45625700Y12423927D01*
X45625699Y14196072D01*
X45619291Y14255683D01*
X45596373Y14317130D01*
X45568998Y14390527D01*
X45568996Y14390530D01*
X45568996Y14390531D01*
X45525871Y14448139D01*
X45482746Y14505747D01*
X45405791Y14563355D01*
X45367531Y14591996D01*
X45367529Y14591997D01*
X45367526Y14591999D01*
X45232683Y14642291D01*
X45232686Y14642291D01*
X45173078Y14648700D01*
X45173073Y14648700D01*
X45013500Y14648700D01*
X44945379Y14668702D01*
X44898886Y14722358D01*
X44887500Y14774700D01*
X44887500Y19729075D01*
X44907502Y19797196D01*
X44924400Y19818166D01*
X44935337Y19829104D01*
X44935344Y19829108D01*
X45057514Y19951278D01*
X45057520Y19951284D01*
X45117111Y20054500D01*
X45136577Y20088215D01*
X45177501Y20240943D01*
X45177501Y20240954D01*
X45177821Y20243378D01*
X45178662Y20245282D01*
X45179638Y20248921D01*
X45180205Y20248769D01*
X45206538Y20308308D01*
X45209052Y20311190D01*
X45309533Y20422784D01*
X45404179Y20586716D01*
X45462674Y20766744D01*
X45482460Y20955000D01*
X45462674Y21143256D01*
X45404179Y21323284D01*
X45309534Y21487215D01*
X45309533Y21487217D01*
X45182873Y21627887D01*
X45029732Y21739150D01*
X45029732Y21739151D01*
X44904145Y21795066D01*
X44856803Y21816144D01*
X44856801Y21816145D01*
X44856800Y21816145D01*
X44671646Y21855500D01*
X44482354Y21855500D01*
X44297199Y21816145D01*
X44124267Y21739151D01*
X44124267Y21739150D01*
X43971126Y21627887D01*
X43844466Y21487217D01*
X43844465Y21487215D01*
X43749822Y21323287D01*
X43749818Y21323279D01*
X43691325Y21143257D01*
X43671540Y20955000D01*
X43691325Y20766744D01*
X43749818Y20586722D01*
X43749821Y20586715D01*
X43796048Y20506648D01*
X43812786Y20437653D01*
X43796049Y20380649D01*
X43756361Y20311906D01*
X43756360Y20311905D01*
X43727423Y20261787D01*
X43721839Y20240946D01*
X43686499Y20109057D01*
X43686499Y20109055D01*
X43686499Y19940793D01*
X43686500Y19940780D01*
X43686500Y14774700D01*
X43666498Y14706579D01*
X43612842Y14660086D01*
X43560501Y14648700D01*
X43400935Y14648700D01*
X43400914Y14648698D01*
X43341319Y14642292D01*
X43341318Y14642292D01*
X43206473Y14591999D01*
X43206470Y14591997D01*
X43091253Y14505747D01*
X43005003Y14390530D01*
X43005001Y14390527D01*
X42954709Y14255685D01*
X42948300Y14196079D01*
X41125698Y14196079D01*
X41119291Y14255683D01*
X41096373Y14317130D01*
X41068998Y14390527D01*
X41068996Y14390530D01*
X41068996Y14390531D01*
X41025871Y14448139D01*
X40982746Y14505747D01*
X40905791Y14563355D01*
X40867531Y14591996D01*
X40867529Y14591997D01*
X40867526Y14591999D01*
X40732683Y14642291D01*
X40732686Y14642291D01*
X40673078Y14648700D01*
X40673073Y14648700D01*
X40513500Y14648700D01*
X40445379Y14668702D01*
X40398886Y14722358D01*
X40387500Y14774700D01*
X40387500Y20165786D01*
X40407502Y20233907D01*
X40424405Y20254881D01*
X43245220Y23075696D01*
X46079720Y25910197D01*
X46142030Y25944221D01*
X46212845Y25939156D01*
X46269681Y25896609D01*
X46294492Y25830089D01*
X46285222Y25772883D01*
X46268344Y25732137D01*
X46268342Y25732129D01*
X46268342Y25732128D01*
X46241396Y25596662D01*
X46239500Y25587132D01*
X46239500Y8154859D01*
X46222620Y8091860D01*
X46162820Y7988284D01*
X46162818Y7988279D01*
X46104325Y7808257D01*
X46084540Y7620000D01*
X46104325Y7431744D01*
X46162818Y7251722D01*
X46162822Y7251714D01*
X46257465Y7087786D01*
X46257466Y7087784D01*
X46384126Y6947114D01*
X46537267Y6835851D01*
X46537267Y6835850D01*
X46584612Y6814771D01*
X46710197Y6758856D01*
X46895354Y6719500D01*
X47084646Y6719500D01*
X47269803Y6758856D01*
X47442730Y6835849D01*
X47442730Y6835850D01*
X47442732Y6835850D01*
X47442732Y6835851D01*
X47595871Y6947112D01*
X47722533Y7087784D01*
X47817179Y7251716D01*
X47875674Y7431744D01*
X47895460Y7620000D01*
X47875674Y7808256D01*
X47850521Y7885669D01*
X47817181Y7988279D01*
X47817179Y7988284D01*
X47757380Y8091860D01*
X47740500Y8154859D01*
X47740500Y12239879D01*
X62999500Y12239879D01*
X62999500Y10620136D01*
X62999502Y10620115D01*
X63005908Y10560520D01*
X63005908Y10560519D01*
X63056201Y10425674D01*
X63056203Y10425671D01*
X63142452Y10310456D01*
X63142453Y10310456D01*
X63142454Y10310454D01*
X63208693Y10260867D01*
X63251239Y10204032D01*
X63256303Y10133216D01*
X63222278Y10070904D01*
X63208697Y10059137D01*
X63174061Y10033208D01*
X63142452Y10009545D01*
X63056203Y9894330D01*
X63056201Y9894327D01*
X63005909Y9759485D01*
X62999500Y9699879D01*
X62999500Y8080136D01*
X62999502Y8080115D01*
X63005908Y8020520D01*
X63005908Y8020519D01*
X63056201Y7885674D01*
X63056203Y7885671D01*
X63142453Y7770454D01*
X63200061Y7727329D01*
X63257669Y7684204D01*
X63257671Y7684204D01*
X63257673Y7684202D01*
X63318030Y7661691D01*
X63392514Y7633910D01*
X63392517Y7633909D01*
X63452127Y7627500D01*
X65071872Y7627501D01*
X65131483Y7633909D01*
X65266331Y7684204D01*
X65381546Y7770454D01*
X65467796Y7885669D01*
X65471674Y7896065D01*
X65493909Y7955682D01*
X65518091Y8020517D01*
X65524500Y8080127D01*
X65524499Y9699872D01*
X65518091Y9759483D01*
X65496800Y9816565D01*
X65467798Y9894327D01*
X65467796Y9894330D01*
X65467796Y9894331D01*
X65381546Y10009546D01*
X65315306Y10059134D01*
X65272760Y10115968D01*
X65267696Y10186783D01*
X65301721Y10249095D01*
X65315302Y10260864D01*
X65381546Y10310454D01*
X65467796Y10425669D01*
X65518091Y10560517D01*
X65524500Y10620127D01*
X65524499Y12239872D01*
X65518091Y12299483D01*
X65493908Y12364320D01*
X65467798Y12434327D01*
X65467796Y12434330D01*
X65467796Y12434331D01*
X65424671Y12491939D01*
X65381546Y12549547D01*
X65286267Y12620872D01*
X65266331Y12635796D01*
X65266329Y12635797D01*
X65266326Y12635799D01*
X65131483Y12686091D01*
X65131486Y12686091D01*
X65071873Y12692500D01*
X63452135Y12692500D01*
X63452114Y12692498D01*
X63392519Y12686092D01*
X63392518Y12686092D01*
X63257673Y12635799D01*
X63257670Y12635797D01*
X63142453Y12549547D01*
X63056203Y12434330D01*
X63056201Y12434327D01*
X63005909Y12299485D01*
X62999500Y12239879D01*
X47740500Y12239879D01*
X47740500Y23753542D01*
X47760502Y23821663D01*
X47814158Y23868156D01*
X47884432Y23878260D01*
X47917747Y23868649D01*
X47954622Y23852231D01*
X48139779Y23812875D01*
X48209750Y23812875D01*
X48277871Y23792873D01*
X48298845Y23775970D01*
X51168119Y20906696D01*
X51168140Y20906673D01*
X51284329Y20790484D01*
X51284332Y20790482D01*
X51284334Y20790480D01*
X51371145Y20740361D01*
X51371148Y20740359D01*
X51421261Y20711425D01*
X51421262Y20711425D01*
X51421265Y20711423D01*
X51573993Y20670499D01*
X51573996Y20670499D01*
X51739825Y20670499D01*
X51739841Y20670500D01*
X59581075Y20670500D01*
X59649196Y20650498D01*
X59670170Y20633595D01*
X68042595Y12261170D01*
X68076621Y12198858D01*
X68079500Y12172075D01*
X68079500Y11001136D01*
X68079502Y11001115D01*
X68085908Y10941520D01*
X68085908Y10941519D01*
X68136201Y10806674D01*
X68136203Y10806671D01*
X68136204Y10806669D01*
X68179086Y10749386D01*
X68222452Y10691456D01*
X68222453Y10691456D01*
X68222454Y10691454D01*
X68288693Y10641867D01*
X68331239Y10585032D01*
X68336303Y10514216D01*
X68302278Y10451904D01*
X68288697Y10440137D01*
X68254061Y10414208D01*
X68222452Y10390545D01*
X68136203Y10275330D01*
X68136201Y10275327D01*
X68085909Y10140485D01*
X68079500Y10080879D01*
X68079500Y8461136D01*
X68079502Y8461115D01*
X68085908Y8401520D01*
X68085908Y8401519D01*
X68136201Y8266674D01*
X68136203Y8266671D01*
X68222453Y8151454D01*
X68280061Y8108329D01*
X68337669Y8065204D01*
X68337671Y8065204D01*
X68337673Y8065202D01*
X68398030Y8042691D01*
X68472514Y8014910D01*
X68472517Y8014909D01*
X68532127Y8008500D01*
X70151872Y8008501D01*
X70211483Y8014909D01*
X70346331Y8065204D01*
X70461546Y8151454D01*
X70511133Y8217694D01*
X70567968Y8260240D01*
X70638783Y8265304D01*
X70701095Y8231279D01*
X70712863Y8217698D01*
X70762454Y8151454D01*
X70877669Y8065204D01*
X70877671Y8065204D01*
X70877673Y8065202D01*
X70938030Y8042691D01*
X71012514Y8014910D01*
X71012517Y8014909D01*
X71072127Y8008500D01*
X72691872Y8008501D01*
X72751483Y8014909D01*
X72886331Y8065204D01*
X73001546Y8151454D01*
X73087796Y8266669D01*
X73138091Y8401517D01*
X73144500Y8461127D01*
X73144499Y10080872D01*
X73138091Y10140483D01*
X73106865Y10224204D01*
X73087798Y10275327D01*
X73087796Y10275330D01*
X73087796Y10275331D01*
X73001546Y10390546D01*
X72935306Y10440134D01*
X72892760Y10496968D01*
X72887696Y10567783D01*
X72921721Y10630095D01*
X72935302Y10641864D01*
X73001546Y10691454D01*
X73087796Y10806669D01*
X73138091Y10941517D01*
X73144500Y11001127D01*
X73144499Y12620872D01*
X73138091Y12680483D01*
X73091706Y12804849D01*
X73087798Y12815327D01*
X73087796Y12815330D01*
X73087796Y12815331D01*
X73044671Y12872939D01*
X73001546Y12930547D01*
X72924591Y12988155D01*
X72886331Y13016796D01*
X72886329Y13016797D01*
X72886326Y13016799D01*
X72751483Y13067091D01*
X72751486Y13067091D01*
X72691873Y13073500D01*
X71072135Y13073500D01*
X71072114Y13073498D01*
X71012519Y13067092D01*
X71012518Y13067092D01*
X70877673Y13016799D01*
X70877670Y13016797D01*
X70762455Y12930548D01*
X70738792Y12898939D01*
X70712866Y12864307D01*
X70656032Y12821761D01*
X70585216Y12816697D01*
X70522904Y12850722D01*
X70511136Y12864303D01*
X70461546Y12930546D01*
X70461544Y12930547D01*
X70461544Y12930548D01*
X70403614Y12973914D01*
X70346331Y13016796D01*
X70346329Y13016797D01*
X70346326Y13016799D01*
X70211483Y13067091D01*
X70211486Y13067091D01*
X70151878Y13073500D01*
X70151873Y13073500D01*
X68980925Y13073500D01*
X68912804Y13093502D01*
X68891830Y13110405D01*
X60369708Y21632527D01*
X60369696Y21632541D01*
X60250722Y21751515D01*
X60250718Y21751518D01*
X60250716Y21751520D01*
X60138784Y21816144D01*
X60138784Y21816145D01*
X60138779Y21816146D01*
X60132314Y21819879D01*
X60113790Y21830575D01*
X60113785Y21830577D01*
X59961057Y21871501D01*
X59802943Y21871501D01*
X59795225Y21871501D01*
X59795209Y21871500D01*
X55837045Y21871500D01*
X55768924Y21891502D01*
X55722431Y21945158D01*
X55712327Y22015432D01*
X55741821Y22080012D01*
X55743409Y22081810D01*
X55850533Y22200784D01*
X55850534Y22200786D01*
X55851024Y22201635D01*
X55945179Y22364716D01*
X56003674Y22544744D01*
X56023460Y22733000D01*
X56003674Y22921256D01*
X56001443Y22928122D01*
X55945181Y23101279D01*
X55945177Y23101287D01*
X55850534Y23265215D01*
X55850532Y23265217D01*
X55750864Y23375911D01*
X55720146Y23439918D01*
X55718500Y23460221D01*
X55718500Y24545780D01*
X55738502Y24613901D01*
X55750864Y24630091D01*
X55760693Y24641007D01*
X55850533Y24740784D01*
X55945179Y24904716D01*
X55946056Y24907413D01*
X55971072Y24984406D01*
X56011145Y25043012D01*
X56076542Y25070649D01*
X56146498Y25058542D01*
X56180000Y25034565D01*
X57324869Y23889696D01*
X57324890Y23889673D01*
X57441077Y23773486D01*
X57441082Y23773482D01*
X57441084Y23773480D01*
X57441085Y23773479D01*
X57441087Y23773478D01*
X57475618Y23753542D01*
X57578016Y23694423D01*
X57689819Y23664466D01*
X57730742Y23653500D01*
X57730743Y23653500D01*
X72705209Y23653500D01*
X72705225Y23653499D01*
X72712943Y23653499D01*
X72871054Y23653499D01*
X72871057Y23653499D01*
X73023785Y23694423D01*
X73077085Y23725196D01*
X73160716Y23773480D01*
X73272520Y23885284D01*
X73282887Y23895651D01*
X73282894Y23895661D01*
X74057831Y24670598D01*
X74120141Y24704622D01*
X74146914Y24707501D01*
X74758008Y24707501D01*
X74758009Y24707501D01*
X74860797Y24718001D01*
X75027334Y24773186D01*
X75176656Y24865288D01*
X75221797Y24910429D01*
X75283964Y24972595D01*
X75346276Y25006621D01*
X75373059Y25009500D01*
X79343501Y25009500D01*
X79411622Y24989498D01*
X79458115Y24935842D01*
X79469501Y24883500D01*
X79469501Y23862136D01*
X79469502Y23862115D01*
X79475908Y23802520D01*
X79475908Y23802519D01*
X79526201Y23667674D01*
X79526203Y23667671D01*
X79526204Y23667669D01*
X79547826Y23638786D01*
X79612453Y23552454D01*
X79638036Y23533303D01*
X79727669Y23466204D01*
X79727671Y23466204D01*
X79727673Y23466202D01*
X79788030Y23443691D01*
X79862514Y23415910D01*
X79862517Y23415909D01*
X79922127Y23409500D01*
X84017872Y23409501D01*
X84077483Y23415909D01*
X84212331Y23466204D01*
X84327546Y23552454D01*
X84413796Y23667669D01*
X84414365Y23669193D01*
X84429842Y23710690D01*
X84464091Y23802517D01*
X84470500Y23862127D01*
X84470499Y27957872D01*
X84464091Y28017483D01*
X84441071Y28079204D01*
X84413798Y28152327D01*
X84413796Y28152330D01*
X84413796Y28152331D01*
X84355217Y28230583D01*
X84327546Y28267547D01*
X84235792Y28336233D01*
X84212331Y28353796D01*
X84212329Y28353797D01*
X84212326Y28353799D01*
X84077483Y28404091D01*
X84077486Y28404091D01*
X84017873Y28410500D01*
X79922135Y28410500D01*
X79922114Y28410498D01*
X79862519Y28404092D01*
X79862518Y28404092D01*
X79727673Y28353799D01*
X79727670Y28353797D01*
X79612453Y28267547D01*
X79526203Y28152330D01*
X79526201Y28152327D01*
X79475909Y28017485D01*
X79469500Y27957879D01*
X79469500Y26936500D01*
X79449498Y26868379D01*
X79395842Y26821886D01*
X79343500Y26810500D01*
X75369059Y26810500D01*
X75300938Y26830502D01*
X75279964Y26847405D01*
X75176662Y26950707D01*
X75176656Y26950712D01*
X75027334Y27042815D01*
X74860803Y27097998D01*
X74860791Y27098000D01*
X74758017Y27108500D01*
X74132990Y27108500D01*
X74030202Y27098000D01*
X73863665Y27042815D01*
X73714343Y26950712D01*
X73714337Y26950707D01*
X73622095Y26858464D01*
X73559783Y26824438D01*
X73488968Y26829503D01*
X73443905Y26858464D01*
X73351662Y26950707D01*
X73351656Y26950712D01*
X73202334Y27042815D01*
X73035803Y27097998D01*
X73035791Y27098000D01*
X72933017Y27108500D01*
X72307990Y27108500D01*
X72205202Y27098000D01*
X72038665Y27042815D01*
X71889343Y26950712D01*
X71889337Y26950707D01*
X71765293Y26826663D01*
X71765288Y26826657D01*
X71694091Y26711227D01*
X71673186Y26677334D01*
X71645858Y26594865D01*
X71605446Y26536496D01*
X71539889Y26509240D01*
X71526255Y26508500D01*
X64393961Y26508500D01*
X64325840Y26528502D01*
X64279347Y26582158D01*
X64268651Y26647670D01*
X64269771Y26658331D01*
X64278460Y26741000D01*
X64258674Y26929256D01*
X64258674Y26929257D01*
X64200181Y27109279D01*
X64200177Y27109287D01*
X64105534Y27273215D01*
X64105532Y27273217D01*
X64005864Y27383911D01*
X63975146Y27447918D01*
X63973500Y27468221D01*
X63973500Y28336845D01*
X63979667Y28375782D01*
X63986127Y28395662D01*
X64004674Y28452744D01*
X64024460Y28641000D01*
X64004674Y28829256D01*
X64004156Y28830851D01*
X63946181Y29009279D01*
X63946177Y29009287D01*
X63942749Y29015224D01*
X63894498Y29098798D01*
X63851534Y29173215D01*
X63851533Y29173217D01*
X63724873Y29313887D01*
X63571732Y29425150D01*
X63571732Y29425151D01*
X63412115Y29496217D01*
X63398803Y29502144D01*
X63398801Y29502145D01*
X63398800Y29502145D01*
X63213646Y29541500D01*
X63024354Y29541500D01*
X62839199Y29502145D01*
X62666267Y29425151D01*
X62666267Y29425150D01*
X62513126Y29313887D01*
X62386466Y29173217D01*
X62386465Y29173215D01*
X62291822Y29009287D01*
X62291818Y29009279D01*
X62233325Y28829257D01*
X62213540Y28641000D01*
X62233325Y28452744D01*
X62291818Y28272722D01*
X62291822Y28272714D01*
X62386465Y28108786D01*
X62386466Y28108784D01*
X62513126Y27968114D01*
X62666265Y27856852D01*
X62666267Y27856851D01*
X62666270Y27856849D01*
X62697750Y27842834D01*
X62751845Y27796854D01*
X62772494Y27728926D01*
X62772500Y27727727D01*
X62772500Y27468221D01*
X62752498Y27400100D01*
X62740136Y27383911D01*
X62640467Y27273217D01*
X62640465Y27273215D01*
X62545822Y27109287D01*
X62545818Y27109279D01*
X62487325Y26929257D01*
X62467540Y26741000D01*
X62477349Y26647670D01*
X62464576Y26577832D01*
X62416074Y26525985D01*
X62352039Y26508500D01*
X62023942Y26508500D01*
X61984382Y26497900D01*
X61984381Y26497901D01*
X61871214Y26467577D01*
X61831038Y26444381D01*
X61768038Y26427500D01*
X61627354Y26427500D01*
X61442199Y26388145D01*
X61269267Y26311151D01*
X61269267Y26311150D01*
X61116126Y26199887D01*
X60989466Y26059217D01*
X60989465Y26059215D01*
X60894822Y25895287D01*
X60894818Y25895279D01*
X60836325Y25715257D01*
X60816540Y25527000D01*
X60836325Y25338744D01*
X60894818Y25158722D01*
X60894820Y25158718D01*
X60961341Y25043499D01*
X60978078Y24974504D01*
X60954857Y24907412D01*
X60899050Y24863525D01*
X60852221Y24854500D01*
X60465373Y24854500D01*
X60397252Y24874502D01*
X60350759Y24928158D01*
X60340063Y24967330D01*
X60321678Y25142257D01*
X60263185Y25322279D01*
X60263181Y25322287D01*
X60168538Y25486215D01*
X60168537Y25486217D01*
X60041877Y25626887D01*
X59888736Y25738150D01*
X59888736Y25738151D01*
X59715803Y25815146D01*
X59709528Y25817184D01*
X59710365Y25819761D01*
X59658460Y25847796D01*
X59624151Y25909953D01*
X59621148Y25937297D01*
X59621148Y27427824D01*
X59641150Y27495945D01*
X59658048Y27516914D01*
X74566835Y42425702D01*
X74629145Y42459726D01*
X74699960Y42454661D01*
X74738214Y42432025D01*
X74801368Y42377564D01*
X74808603Y42371325D01*
X74939622Y42311865D01*
X75007790Y42292024D01*
X75007794Y42292023D01*
X75150258Y42271884D01*
X79413723Y42281995D01*
X79502905Y42290139D01*
X79546653Y42298089D01*
X79632984Y42321838D01*
X79759256Y42390807D01*
X79816087Y42433361D01*
X79816090Y42433364D01*
X79917816Y42535115D01*
X79977183Y42643873D01*
X80027379Y42694081D01*
X80087779Y42709501D01*
X84017865Y42709501D01*
X84017872Y42709501D01*
X84077483Y42715909D01*
X84212331Y42766204D01*
X84327546Y42852454D01*
X84413796Y42967669D01*
X84464091Y43102517D01*
X84470500Y43162127D01*
X84470499Y47257872D01*
X84464091Y47317483D01*
X84442800Y47374565D01*
X84413798Y47452327D01*
X84413796Y47452330D01*
X84413796Y47452331D01*
X84361485Y47522209D01*
X84327546Y47567547D01*
X84241205Y47632181D01*
X84212331Y47653796D01*
X84212329Y47653797D01*
X84212326Y47653799D01*
X84077483Y47704091D01*
X84077486Y47704091D01*
X84017878Y47710500D01*
X84017873Y47710500D01*
X80085033Y47710500D01*
X80016912Y47730502D01*
X79979035Y47768380D01*
X79975332Y47774142D01*
X79905777Y47882373D01*
X79905776Y47882374D01*
X79905775Y47882376D01*
X79861509Y47933461D01*
X79859685Y47935684D01*
X79750548Y48030249D01*
X79750546Y48030251D01*
X79750545Y48030252D01*
X79619667Y48090022D01*
X79596960Y48096690D01*
X79551554Y48110022D01*
X79551547Y48110024D01*
X79523063Y48114120D01*
X79409131Y48130500D01*
X48441126Y48130500D01*
X48373005Y48150502D01*
X48326512Y48204158D01*
X48316408Y48274432D01*
X48345902Y48339012D01*
X48367065Y48358436D01*
X48439573Y48411117D01*
X48505771Y48459212D01*
X48510578Y48464550D01*
X48632433Y48599884D01*
X48632434Y48599886D01*
X48727079Y48763816D01*
X48785574Y48943844D01*
X48805360Y49132100D01*
X48785574Y49320356D01*
X48772558Y49360416D01*
X48727081Y49500379D01*
X48727077Y49500387D01*
X48726672Y49501088D01*
X48632434Y49664315D01*
X48632433Y49664317D01*
X48505773Y49804987D01*
X48352632Y49916250D01*
X48352632Y49916251D01*
X48227045Y49972166D01*
X48179703Y49993244D01*
X48179701Y49993245D01*
X48179700Y49993245D01*
X47994546Y50032600D01*
X47805254Y50032600D01*
X47620099Y49993245D01*
X47447167Y49916251D01*
X47447167Y49916250D01*
X47294031Y49804991D01*
X47280561Y49790031D01*
X47266386Y49774288D01*
X47205942Y49737050D01*
X47172752Y49732600D01*
X26952392Y49732600D01*
X26952376Y49732601D01*
X26944658Y49732601D01*
X26786543Y49732601D01*
X26786540Y49732601D01*
X26750048Y49722823D01*
X26691244Y49721283D01*
X26656348Y49728700D01*
X26656346Y49728700D01*
X26467054Y49728700D01*
X26281899Y49689345D01*
X26108967Y49612351D01*
X26108967Y49612350D01*
X25955826Y49501087D01*
X25829166Y49360417D01*
X25829165Y49360415D01*
X25734522Y49196487D01*
X25734518Y49196479D01*
X25676025Y49016457D01*
X25656240Y48828200D01*
X25676025Y48639944D01*
X25734518Y48459922D01*
X25734522Y48459914D01*
X25829165Y48295986D01*
X25829166Y48295984D01*
X25955826Y48155314D01*
X26108967Y48044051D01*
X26108967Y48044050D01*
X26139958Y48030252D01*
X26281897Y47967056D01*
X26467054Y47927700D01*
X26656346Y47927700D01*
X26841503Y47967056D01*
X27014430Y48044049D01*
X27014430Y48044050D01*
X27014432Y48044050D01*
X27014432Y48044051D01*
X27167571Y48155312D01*
X27294233Y48295984D01*
X27388879Y48459916D01*
X27388878Y48459916D01*
X27392181Y48465635D01*
X27394060Y48464550D01*
X27433490Y48510943D01*
X27501417Y48531594D01*
X27502620Y48531600D01*
X47172752Y48531600D01*
X47240873Y48511598D01*
X47266384Y48489914D01*
X47294029Y48459212D01*
X47353761Y48415814D01*
X47432735Y48358436D01*
X47476089Y48302214D01*
X47482164Y48231478D01*
X47449033Y48168686D01*
X47387213Y48133774D01*
X47358674Y48130500D01*
X42044612Y48130500D01*
X42019718Y48129552D01*
X42006134Y48129034D01*
X41987003Y48127574D01*
X41948742Y48123182D01*
X41948738Y48123181D01*
X41811100Y48081326D01*
X41811090Y48081323D01*
X41811086Y48081321D01*
X41811082Y48081320D01*
X41811079Y48081318D01*
X41777412Y48065551D01*
X41746791Y48051209D01*
X41746789Y48051209D01*
X41746783Y48051205D01*
X41626510Y47972269D01*
X41626499Y47972261D01*
X40936594Y47362764D01*
X40912112Y47339636D01*
X40900314Y47327722D01*
X40877454Y47303050D01*
X40799665Y47182013D01*
X40770166Y47117420D01*
X40770164Y47117417D01*
X40729632Y46979377D01*
X40729631Y46979368D01*
X40729631Y46889500D01*
X40709629Y46821379D01*
X40655973Y46774886D01*
X40603631Y46763500D01*
X37343592Y46763500D01*
X37275471Y46783502D01*
X37228978Y46837158D01*
X37218282Y46902670D01*
X37227460Y46989992D01*
X37207674Y47178248D01*
X37181805Y47257865D01*
X37149181Y47358271D01*
X37149177Y47358279D01*
X37148930Y47358706D01*
X37094877Y47452330D01*
X37054534Y47522208D01*
X37054533Y47522209D01*
X36927873Y47662879D01*
X36774732Y47774142D01*
X36774732Y47774143D01*
X36649145Y47830058D01*
X36601803Y47851136D01*
X36601801Y47851137D01*
X36601800Y47851137D01*
X36416646Y47890492D01*
X36227354Y47890492D01*
X36042199Y47851137D01*
X35869267Y47774143D01*
X35869267Y47774142D01*
X35716131Y47662883D01*
X35702661Y47647923D01*
X35688486Y47632180D01*
X35628042Y47594942D01*
X35594852Y47590492D01*
X13536783Y47590492D01*
X13536767Y47590493D01*
X13529049Y47590493D01*
X13370935Y47590493D01*
X13256389Y47559800D01*
X13218206Y47549569D01*
X13218201Y47549567D01*
X13170816Y47522208D01*
X13081279Y47470515D01*
X13081274Y47470511D01*
X13025373Y47414610D01*
X12969472Y47358708D01*
X12185594Y46574830D01*
X12123282Y46540804D01*
X12052467Y46545869D01*
X11995631Y46588416D01*
X11970820Y46654936D01*
X11970499Y46663925D01*
X11970499Y47257865D01*
X11970499Y47257872D01*
X11964091Y47317483D01*
X11942800Y47374565D01*
X11913798Y47452327D01*
X11913796Y47452330D01*
X11913796Y47452331D01*
X11861485Y47522209D01*
X11827546Y47567547D01*
X11741205Y47632181D01*
X11712331Y47653796D01*
X11712329Y47653797D01*
X11712326Y47653799D01*
X11577483Y47704091D01*
X11577486Y47704091D01*
X11517873Y47710500D01*
X7422135Y47710500D01*
X7422114Y47710498D01*
X7362519Y47704092D01*
X7362518Y47704092D01*
X7227673Y47653799D01*
X7227670Y47653797D01*
X7112453Y47567547D01*
X7026203Y47452330D01*
X7026201Y47452327D01*
X6975909Y47317485D01*
X6969500Y47257879D01*
X5344500Y47257879D01*
X5344500Y59768879D01*
X16720700Y59768879D01*
X16720700Y55863136D01*
X16720702Y55863115D01*
X16727108Y55803520D01*
X16727108Y55803519D01*
X16777401Y55668674D01*
X16777403Y55668671D01*
X16863653Y55553454D01*
X16921261Y55510329D01*
X16978869Y55467204D01*
X16978871Y55467204D01*
X16978873Y55467202D01*
X17039230Y55444691D01*
X17113714Y55416910D01*
X17113717Y55416909D01*
X17173327Y55410500D01*
X21079072Y55410501D01*
X21138683Y55416909D01*
X21273531Y55467204D01*
X21388746Y55553454D01*
X21474996Y55668669D01*
X21508144Y55757543D01*
X21550690Y55814379D01*
X21617210Y55839191D01*
X21686584Y55824100D01*
X21736787Y55773898D01*
X21744256Y55757543D01*
X21777401Y55668674D01*
X21777403Y55668671D01*
X21863653Y55553454D01*
X21921261Y55510329D01*
X21978869Y55467204D01*
X21978871Y55467204D01*
X21978873Y55467202D01*
X22039230Y55444691D01*
X22113714Y55416910D01*
X22113717Y55416909D01*
X22173327Y55410500D01*
X26079072Y55410501D01*
X26138683Y55416909D01*
X26273531Y55467204D01*
X26388746Y55553454D01*
X26474996Y55668669D01*
X26525291Y55803517D01*
X26531700Y55863127D01*
X26531700Y57658000D01*
X40877540Y57658000D01*
X40897325Y57469744D01*
X40955818Y57289722D01*
X40955822Y57289714D01*
X41050465Y57125786D01*
X41050466Y57125784D01*
X41177126Y56985114D01*
X41330267Y56873851D01*
X41330267Y56873850D01*
X41377612Y56852771D01*
X41503197Y56796856D01*
X41688354Y56757500D01*
X41877646Y56757500D01*
X42062803Y56796856D01*
X42235730Y56873849D01*
X42235730Y56873850D01*
X42235732Y56873850D01*
X42235732Y56873851D01*
X42388871Y56985112D01*
X42416512Y57015812D01*
X42476957Y57053049D01*
X42510147Y57057499D01*
X42624054Y57057499D01*
X42624057Y57057499D01*
X42776785Y57098423D01*
X42801308Y57112583D01*
X42826881Y57127347D01*
X42826891Y57127355D01*
X42826904Y57127361D01*
X42913716Y57177480D01*
X43025520Y57289284D01*
X43025520Y57289286D01*
X43035890Y57299655D01*
X43035894Y57299660D01*
X46655407Y60919174D01*
X46717717Y60953198D01*
X46788532Y60948133D01*
X46845368Y60905586D01*
X46870179Y60839066D01*
X46870500Y60830077D01*
X46870500Y59896136D01*
X46870502Y59896115D01*
X46876908Y59836520D01*
X46876908Y59836519D01*
X46927201Y59701674D01*
X46927203Y59701671D01*
X47013453Y59586454D01*
X47071061Y59543329D01*
X47128669Y59500204D01*
X47128671Y59500204D01*
X47128673Y59500202D01*
X47189030Y59477691D01*
X47263514Y59449910D01*
X47263517Y59449909D01*
X47323127Y59443500D01*
X48942872Y59443501D01*
X49002483Y59449909D01*
X49137331Y59500204D01*
X49252546Y59586454D01*
X49257217Y59592695D01*
X49314052Y59635243D01*
X49384867Y59640309D01*
X49447177Y59606288D01*
X49447182Y59606283D01*
X50707769Y58345696D01*
X50707790Y58345673D01*
X50823977Y58229486D01*
X50823982Y58229482D01*
X50823984Y58229480D01*
X50891992Y58190216D01*
X50960915Y58150423D01*
X51113642Y58109500D01*
X51113643Y58109500D01*
X51900301Y58109500D01*
X51968422Y58089498D01*
X52014915Y58035842D01*
X52026301Y57983500D01*
X52026301Y57823936D01*
X52026302Y57823915D01*
X52032708Y57764320D01*
X52032708Y57764319D01*
X52083001Y57629474D01*
X52083003Y57629471D01*
X52169253Y57514254D01*
X52226861Y57471129D01*
X52284469Y57428004D01*
X52284471Y57428004D01*
X52284473Y57428002D01*
X52344830Y57405491D01*
X52419314Y57377710D01*
X52419317Y57377709D01*
X52478927Y57371300D01*
X54251072Y57371301D01*
X54310683Y57377709D01*
X54445531Y57428004D01*
X54560746Y57514254D01*
X54646996Y57629469D01*
X54697291Y57764317D01*
X54703700Y57823927D01*
X54703700Y57983500D01*
X54723702Y58051621D01*
X54777358Y58098114D01*
X54829700Y58109500D01*
X58200301Y58109500D01*
X58268422Y58089498D01*
X58314915Y58035842D01*
X58326301Y57983500D01*
X58326301Y57823936D01*
X58326302Y57823915D01*
X58332708Y57764320D01*
X58332708Y57764319D01*
X58383001Y57629474D01*
X58383003Y57629471D01*
X58469253Y57514254D01*
X58526861Y57471129D01*
X58584469Y57428004D01*
X58584471Y57428004D01*
X58584473Y57428002D01*
X58644830Y57405491D01*
X58719314Y57377710D01*
X58719317Y57377709D01*
X58778927Y57371300D01*
X60551072Y57371301D01*
X60610683Y57377709D01*
X60745531Y57428004D01*
X60860746Y57514254D01*
X60946996Y57629469D01*
X60997291Y57764317D01*
X61003700Y57823927D01*
X61003699Y59596072D01*
X60997291Y59655683D01*
X60955077Y59768865D01*
X60946998Y59790527D01*
X60946996Y59790530D01*
X60946996Y59790531D01*
X60867956Y59896115D01*
X60860746Y59905747D01*
X60783791Y59963355D01*
X60745531Y59991996D01*
X60745529Y59991997D01*
X60745526Y59991999D01*
X60610683Y60042291D01*
X60610686Y60042291D01*
X60551073Y60048700D01*
X58778935Y60048700D01*
X58778914Y60048698D01*
X58719319Y60042292D01*
X58719318Y60042292D01*
X58584473Y59991999D01*
X58584470Y59991997D01*
X58469253Y59905747D01*
X58383003Y59790530D01*
X58383001Y59790527D01*
X58332709Y59655685D01*
X58326300Y59596079D01*
X58326300Y59436500D01*
X58306298Y59368379D01*
X58252642Y59321886D01*
X58200300Y59310500D01*
X54829699Y59310500D01*
X54761578Y59330502D01*
X54715085Y59384158D01*
X54703699Y59436500D01*
X54703699Y59596065D01*
X54703699Y59596072D01*
X54697291Y59655683D01*
X54655077Y59768865D01*
X54646998Y59790527D01*
X54646996Y59790530D01*
X54646996Y59790531D01*
X54567956Y59896115D01*
X54560746Y59905747D01*
X54483791Y59963355D01*
X54445531Y59991996D01*
X54445529Y59991997D01*
X54445526Y59991999D01*
X54310683Y60042291D01*
X54310686Y60042291D01*
X54251073Y60048700D01*
X52478935Y60048700D01*
X52478914Y60048698D01*
X52419319Y60042292D01*
X52419318Y60042292D01*
X52284473Y59991999D01*
X52284470Y59991997D01*
X52169253Y59905747D01*
X52083003Y59790530D01*
X52083001Y59790527D01*
X52032709Y59655685D01*
X52026300Y59596079D01*
X52026300Y59436500D01*
X52006298Y59368379D01*
X51952642Y59321886D01*
X51900300Y59310500D01*
X51493625Y59310500D01*
X51425504Y59330502D01*
X51404530Y59347405D01*
X49744056Y61007879D01*
X66555500Y61007879D01*
X66555500Y59388136D01*
X66555502Y59388115D01*
X66561908Y59328520D01*
X66561908Y59328519D01*
X66612201Y59193674D01*
X66612203Y59193671D01*
X66612204Y59193669D01*
X66655086Y59136386D01*
X66698452Y59078456D01*
X66698453Y59078456D01*
X66698454Y59078454D01*
X66764693Y59028867D01*
X66807239Y58972032D01*
X66812303Y58901216D01*
X66778278Y58838904D01*
X66764697Y58827137D01*
X66730061Y58801208D01*
X66698452Y58777545D01*
X66612203Y58662330D01*
X66612201Y58662327D01*
X66561909Y58527485D01*
X66555500Y58467879D01*
X66555500Y56848136D01*
X66555502Y56848115D01*
X66561908Y56788520D01*
X66561908Y56788519D01*
X66612201Y56653674D01*
X66612203Y56653671D01*
X66698453Y56538454D01*
X66756061Y56495329D01*
X66813669Y56452204D01*
X66813671Y56452204D01*
X66813673Y56452202D01*
X66874030Y56429691D01*
X66948514Y56401910D01*
X66948517Y56401909D01*
X67008127Y56395500D01*
X68627872Y56395501D01*
X68687483Y56401909D01*
X68822331Y56452204D01*
X68937546Y56538454D01*
X68987133Y56604694D01*
X69043968Y56647240D01*
X69114783Y56652304D01*
X69177095Y56618279D01*
X69188863Y56604698D01*
X69238454Y56538454D01*
X69353669Y56452204D01*
X69353671Y56452204D01*
X69353673Y56452202D01*
X69414030Y56429691D01*
X69488514Y56401910D01*
X69488517Y56401909D01*
X69548127Y56395500D01*
X71167872Y56395501D01*
X71227483Y56401909D01*
X71362331Y56452204D01*
X71477546Y56538454D01*
X71527133Y56604694D01*
X71583968Y56647240D01*
X71654783Y56652304D01*
X71717095Y56618279D01*
X71728863Y56604698D01*
X71778454Y56538454D01*
X71893669Y56452204D01*
X71893671Y56452204D01*
X71893673Y56452202D01*
X71954030Y56429691D01*
X72028514Y56401910D01*
X72028517Y56401909D01*
X72088127Y56395500D01*
X73707872Y56395501D01*
X73767483Y56401909D01*
X73902331Y56452204D01*
X74017546Y56538454D01*
X74103796Y56653669D01*
X74154091Y56788517D01*
X74160500Y56848127D01*
X74160499Y58467872D01*
X74154091Y58527483D01*
X74132800Y58584565D01*
X74103798Y58662327D01*
X74103796Y58662330D01*
X74103796Y58662331D01*
X74017546Y58777546D01*
X73951306Y58827134D01*
X73908760Y58883968D01*
X73903696Y58954783D01*
X73937721Y59017095D01*
X73951302Y59028864D01*
X74017546Y59078454D01*
X74103796Y59193669D01*
X74154091Y59328517D01*
X74160500Y59388127D01*
X74160499Y61007872D01*
X74154091Y61067483D01*
X74129183Y61134266D01*
X74103798Y61202327D01*
X74103796Y61202330D01*
X74103796Y61202331D01*
X74030956Y61299633D01*
X74017546Y61317547D01*
X73922267Y61388872D01*
X73902331Y61403796D01*
X73902329Y61403797D01*
X73902326Y61403799D01*
X73767483Y61454091D01*
X73767486Y61454091D01*
X73707873Y61460500D01*
X72088135Y61460500D01*
X72088114Y61460498D01*
X72028519Y61454092D01*
X72028518Y61454092D01*
X71893673Y61403799D01*
X71893670Y61403797D01*
X71778455Y61317548D01*
X71778454Y61317546D01*
X71728866Y61251307D01*
X71672032Y61208761D01*
X71601216Y61203697D01*
X71538904Y61237722D01*
X71527136Y61251303D01*
X71477546Y61317546D01*
X71477544Y61317547D01*
X71477544Y61317548D01*
X71382276Y61388865D01*
X71362331Y61403796D01*
X71362329Y61403797D01*
X71362326Y61403799D01*
X71227483Y61454091D01*
X71227486Y61454091D01*
X71167873Y61460500D01*
X69548135Y61460500D01*
X69548114Y61460498D01*
X69488519Y61454092D01*
X69488518Y61454092D01*
X69353673Y61403799D01*
X69353670Y61403797D01*
X69238455Y61317548D01*
X69238454Y61317546D01*
X69188866Y61251307D01*
X69132032Y61208761D01*
X69061216Y61203697D01*
X68998904Y61237722D01*
X68987136Y61251303D01*
X68937546Y61317546D01*
X68937544Y61317547D01*
X68937544Y61317548D01*
X68842276Y61388865D01*
X68822331Y61403796D01*
X68822329Y61403797D01*
X68822326Y61403799D01*
X68687483Y61454091D01*
X68687486Y61454091D01*
X68627873Y61460500D01*
X67008135Y61460500D01*
X67008114Y61460498D01*
X66948519Y61454092D01*
X66948518Y61454092D01*
X66813673Y61403799D01*
X66813670Y61403797D01*
X66698453Y61317547D01*
X66612203Y61202330D01*
X66612201Y61202327D01*
X66561909Y61067485D01*
X66555500Y61007879D01*
X49744056Y61007879D01*
X49684408Y61067527D01*
X49684396Y61067541D01*
X49565423Y61186514D01*
X49565419Y61186517D01*
X49565416Y61186520D01*
X49510379Y61218295D01*
X49478603Y61236641D01*
X49478603Y61236642D01*
X49478601Y61236642D01*
X49458496Y61248250D01*
X49409505Y61299633D01*
X49395499Y61357367D01*
X49395499Y61515865D01*
X49395499Y61515872D01*
X49389091Y61575483D01*
X49343191Y61698548D01*
X49338798Y61710327D01*
X49338796Y61710330D01*
X49338796Y61710331D01*
X49252546Y61825546D01*
X49186306Y61875134D01*
X49143760Y61931968D01*
X49138696Y62002783D01*
X49172721Y62065095D01*
X49186302Y62076864D01*
X49252546Y62126454D01*
X49338796Y62241669D01*
X49389091Y62376517D01*
X49395500Y62436127D01*
X49395500Y62519501D01*
X49415502Y62587621D01*
X49469158Y62634114D01*
X49521500Y62645500D01*
X51900300Y62645500D01*
X51968421Y62625498D01*
X52014914Y62571842D01*
X52026300Y62519501D01*
X52026300Y62323936D01*
X52026302Y62323915D01*
X52032708Y62264320D01*
X52032708Y62264319D01*
X52083001Y62129474D01*
X52083003Y62129471D01*
X52083004Y62129469D01*
X52095105Y62113304D01*
X52169253Y62014254D01*
X52226861Y61971129D01*
X52284469Y61928004D01*
X52284471Y61928004D01*
X52284473Y61928002D01*
X52327925Y61911796D01*
X52419314Y61877710D01*
X52419317Y61877709D01*
X52478927Y61871300D01*
X54251072Y61871301D01*
X54310683Y61877709D01*
X54445531Y61928004D01*
X54560746Y62014254D01*
X54646996Y62129469D01*
X54697291Y62264317D01*
X54703700Y62323927D01*
X54703700Y62483500D01*
X54723702Y62551621D01*
X54777358Y62598114D01*
X54829700Y62609500D01*
X58200301Y62609500D01*
X58268422Y62589498D01*
X58314915Y62535842D01*
X58326301Y62483500D01*
X58326301Y62323936D01*
X58326302Y62323915D01*
X58332708Y62264320D01*
X58332708Y62264319D01*
X58383001Y62129474D01*
X58383003Y62129471D01*
X58383004Y62129469D01*
X58395105Y62113304D01*
X58469253Y62014254D01*
X58526861Y61971129D01*
X58584469Y61928004D01*
X58584471Y61928004D01*
X58584473Y61928002D01*
X58627925Y61911796D01*
X58719314Y61877710D01*
X58719317Y61877709D01*
X58778927Y61871300D01*
X60551072Y61871301D01*
X60610683Y61877709D01*
X60745531Y61928004D01*
X60860746Y62014254D01*
X60946996Y62129469D01*
X60997291Y62264317D01*
X61003700Y62323927D01*
X61003699Y64096072D01*
X60997291Y64155683D01*
X60966385Y64238547D01*
X60946998Y64290527D01*
X60946996Y64290530D01*
X60946996Y64290531D01*
X60890839Y64365547D01*
X60860746Y64405747D01*
X60783791Y64463355D01*
X60745531Y64491996D01*
X60745529Y64491997D01*
X60745526Y64491999D01*
X60610683Y64542291D01*
X60610686Y64542291D01*
X60551073Y64548700D01*
X58778935Y64548700D01*
X58778914Y64548698D01*
X58719319Y64542292D01*
X58719318Y64542292D01*
X58584473Y64491999D01*
X58584470Y64491997D01*
X58469253Y64405747D01*
X58383003Y64290530D01*
X58383001Y64290527D01*
X58332709Y64155685D01*
X58326300Y64096079D01*
X58326300Y63936500D01*
X58306298Y63868379D01*
X58252642Y63821886D01*
X58200300Y63810500D01*
X54829699Y63810500D01*
X54761578Y63830502D01*
X54715085Y63884158D01*
X54703699Y63936500D01*
X54703699Y64096065D01*
X54703699Y64096072D01*
X54697291Y64155683D01*
X54666385Y64238547D01*
X54646998Y64290527D01*
X54646996Y64290530D01*
X54646996Y64290531D01*
X54590839Y64365547D01*
X54560746Y64405747D01*
X54483791Y64463355D01*
X54445531Y64491996D01*
X54445529Y64491997D01*
X54445526Y64491999D01*
X54310683Y64542291D01*
X54310686Y64542291D01*
X54251073Y64548700D01*
X52478935Y64548700D01*
X52478914Y64548698D01*
X52419319Y64542292D01*
X52419318Y64542292D01*
X52284473Y64491999D01*
X52284470Y64491997D01*
X52169253Y64405747D01*
X52083003Y64290530D01*
X52083001Y64290527D01*
X52032709Y64155685D01*
X52026300Y64096079D01*
X52026300Y63972500D01*
X52006298Y63904379D01*
X51952642Y63857886D01*
X51900300Y63846500D01*
X49521499Y63846500D01*
X49453378Y63866502D01*
X49406885Y63920158D01*
X49395499Y63972500D01*
X49395499Y64055865D01*
X49395499Y64055872D01*
X49389091Y64115483D01*
X49343192Y64238546D01*
X49338798Y64250327D01*
X49338796Y64250330D01*
X49338796Y64250331D01*
X49295671Y64307939D01*
X49252546Y64365547D01*
X49175591Y64423155D01*
X49137331Y64451796D01*
X49137329Y64451797D01*
X49137326Y64451799D01*
X49002483Y64502091D01*
X49002486Y64502091D01*
X48942873Y64508500D01*
X47323135Y64508500D01*
X47323114Y64508498D01*
X47263519Y64502092D01*
X47263518Y64502092D01*
X47128673Y64451799D01*
X47128670Y64451797D01*
X47013453Y64365547D01*
X46927203Y64250330D01*
X46927201Y64250327D01*
X46876909Y64115485D01*
X46870500Y64055879D01*
X46870500Y62884926D01*
X46850498Y62816805D01*
X46833595Y62795831D01*
X42453254Y58415491D01*
X42390942Y58381465D01*
X42320126Y58386530D01*
X42290098Y58402650D01*
X42272424Y58415491D01*
X42235730Y58442151D01*
X42062803Y58519144D01*
X42062801Y58519145D01*
X42062800Y58519145D01*
X41877646Y58558500D01*
X41688354Y58558500D01*
X41503199Y58519145D01*
X41330267Y58442151D01*
X41330267Y58442150D01*
X41177126Y58330887D01*
X41050466Y58190217D01*
X41050466Y58190216D01*
X40955822Y58026287D01*
X40955818Y58026279D01*
X40897325Y57846257D01*
X40877540Y57658000D01*
X26531700Y57658000D01*
X26531699Y59768872D01*
X26525291Y59828483D01*
X26496474Y59905746D01*
X26474998Y59963327D01*
X26474996Y59963330D01*
X26474996Y59963331D01*
X26415886Y60042292D01*
X26388746Y60078547D01*
X26311791Y60136155D01*
X26273531Y60164796D01*
X26273529Y60164797D01*
X26273526Y60164799D01*
X26138683Y60215091D01*
X26138686Y60215091D01*
X26079073Y60221500D01*
X22173335Y60221500D01*
X22173314Y60221498D01*
X22113719Y60215092D01*
X22113718Y60215092D01*
X21978873Y60164799D01*
X21978870Y60164797D01*
X21863653Y60078547D01*
X21777403Y59963330D01*
X21777402Y59963329D01*
X21744256Y59874457D01*
X21701710Y59817621D01*
X21635190Y59792810D01*
X21565815Y59807901D01*
X21515613Y59858103D01*
X21508144Y59874457D01*
X21474997Y59963329D01*
X21474996Y59963330D01*
X21474996Y59963331D01*
X21415886Y60042292D01*
X21388746Y60078547D01*
X21311791Y60136155D01*
X21273531Y60164796D01*
X21273529Y60164797D01*
X21273526Y60164799D01*
X21138683Y60215091D01*
X21138686Y60215091D01*
X21079073Y60221500D01*
X17173335Y60221500D01*
X17173314Y60221498D01*
X17113719Y60215092D01*
X17113718Y60215092D01*
X16978873Y60164799D01*
X16978870Y60164797D01*
X16863653Y60078547D01*
X16777403Y59963330D01*
X16777401Y59963327D01*
X16727109Y59828485D01*
X16720700Y59768879D01*
X5344500Y59768879D01*
X5344500Y63928879D01*
X29852500Y63928879D01*
X29852500Y62309136D01*
X29852502Y62309115D01*
X29858908Y62249520D01*
X29858908Y62249519D01*
X29909201Y62114674D01*
X29909203Y62114671D01*
X29909204Y62114669D01*
X29946315Y62065095D01*
X29995452Y61999456D01*
X29995453Y61999456D01*
X29995454Y61999454D01*
X30061693Y61949867D01*
X30104239Y61893032D01*
X30109303Y61822216D01*
X30075278Y61759904D01*
X30061697Y61748137D01*
X30027061Y61722208D01*
X29995452Y61698545D01*
X29909203Y61583330D01*
X29909201Y61583327D01*
X29858909Y61448485D01*
X29852500Y61388879D01*
X29852500Y59769136D01*
X29852502Y59769115D01*
X29858908Y59709520D01*
X29858908Y59709519D01*
X29909201Y59574674D01*
X29909203Y59574671D01*
X29995453Y59459454D01*
X30053061Y59416329D01*
X30110669Y59373204D01*
X30110671Y59373204D01*
X30110673Y59373202D01*
X30171030Y59350691D01*
X30245514Y59322910D01*
X30245517Y59322909D01*
X30305127Y59316500D01*
X31924872Y59316501D01*
X31984483Y59322909D01*
X32098646Y59365490D01*
X32119326Y59373202D01*
X32119326Y59373203D01*
X32119331Y59373204D01*
X32234546Y59459454D01*
X32284133Y59525694D01*
X32340968Y59568240D01*
X32411783Y59573304D01*
X32474095Y59539279D01*
X32485863Y59525698D01*
X32535454Y59459454D01*
X32650669Y59373204D01*
X32650671Y59373204D01*
X32650673Y59373202D01*
X32711030Y59350691D01*
X32785514Y59322910D01*
X32785517Y59322909D01*
X32845127Y59316500D01*
X34464872Y59316501D01*
X34524483Y59322909D01*
X34638646Y59365490D01*
X34659326Y59373202D01*
X34659326Y59373203D01*
X34659331Y59373204D01*
X34774546Y59459454D01*
X34860796Y59574669D01*
X34911091Y59709517D01*
X34917500Y59769127D01*
X34917499Y61388872D01*
X34911091Y61448483D01*
X34863724Y61575481D01*
X34860798Y61583327D01*
X34860796Y61583330D01*
X34860796Y61583331D01*
X34774546Y61698546D01*
X34708306Y61748134D01*
X34665760Y61804968D01*
X34660696Y61875783D01*
X34694721Y61938095D01*
X34708302Y61949864D01*
X34774546Y61999454D01*
X34860796Y62114669D01*
X34911091Y62249517D01*
X34917500Y62309127D01*
X34917499Y63928872D01*
X34911091Y63988483D01*
X34870963Y64096073D01*
X34860798Y64123327D01*
X34860796Y64123330D01*
X34860796Y64123331D01*
X34817671Y64180939D01*
X34774546Y64238547D01*
X34697591Y64296155D01*
X34659331Y64324796D01*
X34659329Y64324797D01*
X34659326Y64324799D01*
X34524483Y64375091D01*
X34524486Y64375091D01*
X34464873Y64381500D01*
X32845135Y64381500D01*
X32845114Y64381498D01*
X32785519Y64375092D01*
X32785518Y64375092D01*
X32650673Y64324799D01*
X32650670Y64324797D01*
X32535455Y64238548D01*
X32535454Y64238546D01*
X32485866Y64172307D01*
X32429032Y64129761D01*
X32358216Y64124697D01*
X32295904Y64158722D01*
X32284136Y64172303D01*
X32234546Y64238546D01*
X32234544Y64238547D01*
X32234544Y64238548D01*
X32165103Y64290531D01*
X32119331Y64324796D01*
X32119329Y64324797D01*
X32119326Y64324799D01*
X31984483Y64375091D01*
X31984486Y64375091D01*
X31924873Y64381500D01*
X30305135Y64381500D01*
X30305114Y64381498D01*
X30245519Y64375092D01*
X30245518Y64375092D01*
X30110673Y64324799D01*
X30110670Y64324797D01*
X29995453Y64238547D01*
X29909203Y64123330D01*
X29909201Y64123327D01*
X29858909Y63988485D01*
X29852500Y63928879D01*
X5344500Y63928879D01*
X5344500Y65649500D01*
X5364502Y65717621D01*
X5418158Y65764114D01*
X5470500Y65775500D01*
X85969500Y65775500D01*
X86037621Y65755498D01*
G37*
%TD.AperFunction*%
%TD*%
M02*
