%TF.GenerationSoftware,KiCad,Pcbnew,8.0.6+1*%
%TF.CreationDate,2024-11-08T00:53:11+00:00*%
%TF.ProjectId,LION2CELL02,4c494f4e-3243-4454-9c4c-30322e6b6963,rev?*%
%TF.SameCoordinates,Original*%
%TF.FileFunction,Paste,Bot*%
%TF.FilePolarity,Positive*%
%FSLAX46Y46*%
G04 Gerber Fmt 4.6, Leading zero omitted, Abs format (unit mm)*
G04 Created by KiCad (PCBNEW 8.0.6+1) date 2024-11-08 00:53:11*
%MOMM*%
%LPD*%
G01*
G04 APERTURE LIST*
G04 Aperture macros list*
%AMRoundRect*
0 Rectangle with rounded corners*
0 $1 Rounding radius*
0 $2 $3 $4 $5 $6 $7 $8 $9 X,Y pos of 4 corners*
0 Add a 4 corners polygon primitive as box body*
4,1,4,$2,$3,$4,$5,$6,$7,$8,$9,$2,$3,0*
0 Add four circle primitives for the rounded corners*
1,1,$1+$1,$2,$3*
1,1,$1+$1,$4,$5*
1,1,$1+$1,$6,$7*
1,1,$1+$1,$8,$9*
0 Add four rect primitives between the rounded corners*
20,1,$1+$1,$2,$3,$4,$5,0*
20,1,$1+$1,$4,$5,$6,$7,0*
20,1,$1+$1,$6,$7,$8,$9,0*
20,1,$1+$1,$8,$9,$2,$3,0*%
%AMFreePoly0*
4,1,27,0.405000,0.748540,0.473851,0.737775,0.540468,0.697134,0.586462,0.634092,0.604830,0.558249,0.592775,0.481149,0.592776,0.481149,0.558927,0.388685,0.517726,0.196112,0.503933,-0.000335,0.517820,-0.196775,0.559113,-0.389328,0.593006,-0.481776,0.593005,-0.481776,0.605097,-0.558870,0.586765,-0.634722,0.540802,-0.697786,0.474204,-0.738459,0.405000,-0.749313,0.405000,-0.750000,
0.400623,-0.750000,0.397110,-0.750551,0.394830,-0.750000,-0.645000,-0.750000,-0.645000,0.750000,0.405000,0.750000,0.405000,0.748540,0.405000,0.748540,$1*%
%AMFreePoly1*
4,1,37,-1.390000,2.050000,0.435000,2.050000,0.435000,2.805000,1.035000,2.805000,1.035000,2.050000,1.215000,2.050000,1.215000,-2.050000,1.035000,-2.050000,1.035000,-2.805000,0.435000,-2.805000,0.435000,-2.050000,-1.390000,-2.050000,-1.390000,-2.805000,-1.990000,-2.805000,-1.990000,-2.050000,-2.285000,-2.050000,-2.285000,-2.210000,-3.305000,-2.210000,-3.305000,-1.600000,-2.595000,-1.600000,
-2.595000,-0.940000,-3.305000,-0.940000,-3.305000,-0.330000,-2.595000,-0.330000,-2.595000,0.330000,-3.305000,0.330000,-3.305000,0.940000,-2.595000,0.940000,-2.595000,1.600000,-3.305000,1.600000,-3.305000,2.210000,-2.285000,2.210000,-2.285000,2.050000,-1.990000,2.050000,-1.990000,2.805000,-1.390000,2.805000,-1.390000,2.050000,-1.390000,2.050000,$1*%
G04 Aperture macros list end*
%ADD10RoundRect,0.250000X0.475000X-0.250000X0.475000X0.250000X-0.475000X0.250000X-0.475000X-0.250000X0*%
%ADD11RoundRect,0.225000X0.225000X0.250000X-0.225000X0.250000X-0.225000X-0.250000X0.225000X-0.250000X0*%
%ADD12RoundRect,0.250000X-0.475000X0.250000X-0.475000X-0.250000X0.475000X-0.250000X0.475000X0.250000X0*%
%ADD13RoundRect,0.250000X0.250000X0.475000X-0.250000X0.475000X-0.250000X-0.475000X0.250000X-0.475000X0*%
%ADD14FreePoly0,90.000000*%
%ADD15FreePoly0,270.000000*%
%ADD16R,1.150000X0.600000*%
%ADD17R,1.150000X0.300000*%
%ADD18R,1.903000X2.790000*%
%ADD19R,0.610000X1.270000*%
%ADD20FreePoly1,90.000000*%
%ADD21RoundRect,0.250000X0.262500X0.450000X-0.262500X0.450000X-0.262500X-0.450000X0.262500X-0.450000X0*%
%ADD22RoundRect,0.250000X-0.262500X-0.450000X0.262500X-0.450000X0.262500X0.450000X-0.262500X0.450000X0*%
%ADD23RoundRect,0.250000X0.450000X-0.262500X0.450000X0.262500X-0.450000X0.262500X-0.450000X-0.262500X0*%
%ADD24RoundRect,0.250000X-0.450000X0.262500X-0.450000X-0.262500X0.450000X-0.262500X0.450000X0.262500X0*%
%ADD25RoundRect,0.250000X-0.625000X0.312500X-0.625000X-0.312500X0.625000X-0.312500X0.625000X0.312500X0*%
%ADD26RoundRect,0.050000X-0.425000X-0.050000X0.425000X-0.050000X0.425000X0.050000X-0.425000X0.050000X0*%
%ADD27RoundRect,0.050000X-0.050000X-0.300000X0.050000X-0.300000X0.050000X0.300000X-0.050000X0.300000X0*%
%ADD28RoundRect,0.050000X-0.250000X-0.050000X0.250000X-0.050000X0.250000X0.050000X-0.250000X0.050000X0*%
%ADD29RoundRect,0.050000X-0.400000X-0.050000X0.400000X-0.050000X0.400000X0.050000X-0.400000X0.050000X0*%
%ADD30RoundRect,0.050000X-0.050000X-0.250000X0.050000X-0.250000X0.050000X0.250000X-0.050000X0.250000X0*%
%ADD31RoundRect,0.050000X-0.050000X0.300000X-0.050000X-0.300000X0.050000X-0.300000X0.050000X0.300000X0*%
%ADD32RoundRect,0.050000X-0.300000X-0.050000X0.300000X-0.050000X0.300000X0.050000X-0.300000X0.050000X0*%
%ADD33RoundRect,0.050000X-0.275000X-0.050000X0.275000X-0.050000X0.275000X0.050000X-0.275000X0.050000X0*%
%ADD34RoundRect,0.050000X-0.290000X-0.050000X0.290000X-0.050000X0.290000X0.050000X-0.290000X0.050000X0*%
%ADD35RoundRect,0.050000X-0.050000X-0.450000X0.050000X-0.450000X0.050000X0.450000X-0.050000X0.450000X0*%
%ADD36RoundRect,0.118800X0.181200X0.181200X-0.181200X0.181200X-0.181200X-0.181200X0.181200X-0.181200X0*%
%ADD37RoundRect,0.050000X0.300000X0.050000X-0.300000X0.050000X-0.300000X-0.050000X0.300000X-0.050000X0*%
%ADD38RoundRect,0.050000X0.050000X0.300000X-0.050000X0.300000X-0.050000X-0.300000X0.050000X-0.300000X0*%
%ADD39RoundRect,0.250000X1.425000X-0.362500X1.425000X0.362500X-1.425000X0.362500X-1.425000X-0.362500X0*%
%ADD40R,2.790000X1.903000*%
%ADD41R,1.270000X0.610000*%
%ADD42FreePoly1,0.000000*%
%ADD43RoundRect,0.250000X-0.255000X-0.440000X0.255000X-0.440000X0.255000X0.440000X-0.255000X0.440000X0*%
%ADD44RoundRect,0.150000X-0.825000X-0.150000X0.825000X-0.150000X0.825000X0.150000X-0.825000X0.150000X0*%
%ADD45FreePoly1,180.000000*%
%ADD46R,4.860000X3.360000*%
%ADD47R,1.400000X1.390000*%
%ADD48RoundRect,0.243750X0.456250X-0.243750X0.456250X0.243750X-0.456250X0.243750X-0.456250X-0.243750X0*%
%ADD49RoundRect,0.225000X-0.225000X-0.250000X0.225000X-0.250000X0.225000X0.250000X-0.225000X0.250000X0*%
%ADD50RoundRect,0.250000X-0.250000X-0.475000X0.250000X-0.475000X0.250000X0.475000X-0.250000X0.475000X0*%
%ADD51RoundRect,0.150000X0.587500X0.150000X-0.587500X0.150000X-0.587500X-0.150000X0.587500X-0.150000X0*%
G04 APERTURE END LIST*
D10*
%TO.C,C1*%
X19685000Y38293000D03*
X19685000Y40193000D03*
%TD*%
D11*
%TO.C,C5*%
X33668000Y25400000D03*
X32118000Y25400000D03*
%TD*%
D12*
%TO.C,C6*%
X35560000Y25461000D03*
X35560000Y23561000D03*
%TD*%
%TO.C,C7*%
X45024800Y25418000D03*
X45024800Y23518000D03*
%TD*%
D10*
%TO.C,C8*%
X45050200Y27175600D03*
X45050200Y29075600D03*
%TD*%
D12*
%TO.C,C9*%
X26289000Y29398000D03*
X26289000Y27498000D03*
%TD*%
D13*
%TO.C,C11*%
X41209000Y32639000D03*
X39309000Y32639000D03*
%TD*%
%TO.C,C16*%
X67471104Y40257504D03*
X65571104Y40257504D03*
%TD*%
D12*
%TO.C,C17*%
X69061104Y37905504D03*
X69061104Y36005504D03*
%TD*%
D10*
%TO.C,C18*%
X66864004Y36028304D03*
X66864004Y37928304D03*
%TD*%
D14*
%TO.C,D1*%
X62992000Y8001000D03*
D15*
X62992000Y11811000D03*
%TD*%
%TO.C,D3*%
X30759400Y12369800D03*
D14*
X30759400Y8559800D03*
%TD*%
D15*
%TO.C,D4*%
X66071750Y11811000D03*
D14*
X66071750Y8001000D03*
%TD*%
%TO.C,D7*%
X72231250Y8001000D03*
D15*
X72231250Y11811000D03*
%TD*%
D14*
%TO.C,D8*%
X75311000Y8001000D03*
D15*
X75311000Y11811000D03*
%TD*%
D16*
%TO.C,J1*%
X12756000Y32360000D03*
X12756000Y33160000D03*
D17*
X12756000Y34310000D03*
X12756000Y35310000D03*
X12756000Y35810000D03*
X12756000Y36810000D03*
D16*
X12756000Y38760000D03*
X12756000Y37960000D03*
D17*
X12756000Y37310000D03*
X12756000Y36310000D03*
X12756000Y34810000D03*
X12756000Y33810000D03*
%TD*%
D18*
%TO.C,L1*%
X33762200Y19685000D03*
X28909200Y19685000D03*
%TD*%
D19*
%TO.C,Q1*%
X36449000Y54486000D03*
X37719000Y54486000D03*
X38989000Y54486000D03*
X40259000Y54486000D03*
D20*
X38354000Y51816000D03*
%TD*%
D21*
%TO.C,R1*%
X17549500Y37084000D03*
X15724500Y37084000D03*
%TD*%
%TO.C,R3*%
X35837500Y35179000D03*
X34012500Y35179000D03*
%TD*%
D22*
%TO.C,R5*%
X34012500Y37338000D03*
X35837500Y37338000D03*
%TD*%
D23*
%TO.C,R6*%
X35687000Y39219500D03*
X35687000Y41044500D03*
%TD*%
D24*
%TO.C,R7*%
X20574000Y29182700D03*
X20574000Y27357700D03*
%TD*%
D22*
%TO.C,R8*%
X40997500Y35179000D03*
X42822500Y35179000D03*
%TD*%
%TO.C,R9*%
X37568500Y28575000D03*
X39393500Y28575000D03*
%TD*%
D21*
%TO.C,R11*%
X44092500Y62865000D03*
X42267500Y62865000D03*
%TD*%
D25*
%TO.C,R17*%
X16764000Y50865500D03*
X16764000Y47940500D03*
%TD*%
D21*
%TO.C,R18*%
X25042500Y48006000D03*
X23217500Y48006000D03*
%TD*%
%TO.C,R19*%
X28979500Y45847000D03*
X27154500Y45847000D03*
%TD*%
D23*
%TO.C,R20*%
X59663104Y40234004D03*
X59663104Y42059004D03*
%TD*%
%TO.C,R23*%
X33782000Y49887500D03*
X33782000Y51712500D03*
%TD*%
D22*
%TO.C,R24*%
X51462300Y41325800D03*
X53287300Y41325800D03*
%TD*%
%TO.C,R27*%
X37187500Y46101000D03*
X39012500Y46101000D03*
%TD*%
D23*
%TO.C,R28*%
X20574000Y44807500D03*
X20574000Y46632500D03*
%TD*%
D22*
%TO.C,R32*%
X12701900Y45034200D03*
X14526900Y45034200D03*
%TD*%
%TO.C,R33*%
X12930500Y25908000D03*
X14755500Y25908000D03*
%TD*%
D26*
%TO.C,U1*%
X29610700Y27927500D03*
D27*
X29985700Y27677500D03*
D28*
X29435700Y28327500D03*
X29435700Y28727500D03*
X29435700Y29127500D03*
X29435700Y29527500D03*
X29435700Y29927500D03*
X29435700Y30327500D03*
X29435700Y30727500D03*
D29*
X29585700Y31127500D03*
D27*
X29935700Y31377500D03*
D30*
X30335700Y31427500D03*
X30735700Y31427500D03*
X31135700Y31427500D03*
X31535700Y31427500D03*
X31935700Y31427500D03*
X32335700Y31427500D03*
D31*
X32735700Y31377500D03*
D29*
X33085700Y31127500D03*
D32*
X33185700Y30727500D03*
D33*
X33210700Y30327500D03*
D34*
X33198200Y29927500D03*
D28*
X33235700Y29527500D03*
X33235700Y29127500D03*
X33235700Y28727500D03*
X33235700Y28327500D03*
D27*
X32685700Y27677500D03*
D26*
X33060700Y27927500D03*
D35*
X32135700Y27927500D03*
X31735700Y27927500D03*
X31335700Y27927500D03*
X30935700Y27927500D03*
X30535700Y27927500D03*
%TD*%
D36*
%TO.C,U3*%
X62172104Y35843504D03*
X62172104Y36543504D03*
X61472104Y35843504D03*
X61472104Y36543504D03*
D37*
X63822104Y37593504D03*
X63822104Y37193504D03*
X63822104Y36793504D03*
X63822104Y36393504D03*
X63822104Y35993504D03*
X63822104Y35593504D03*
X63822104Y35193504D03*
X63822104Y34793504D03*
D38*
X63222104Y34193504D03*
X62822104Y34193504D03*
X62422104Y34193504D03*
X62022104Y34193504D03*
X61622104Y34193504D03*
X61222104Y34193504D03*
X60822104Y34193504D03*
X60422104Y34193504D03*
D37*
X59822104Y34793504D03*
X59822104Y35193504D03*
X59822104Y35593504D03*
X59822104Y35993504D03*
X59822104Y36393504D03*
X59822104Y36793504D03*
X59822104Y37193504D03*
X59822104Y37593504D03*
D38*
X60422104Y38193504D03*
X60822104Y38193504D03*
X61222104Y38193504D03*
X61622104Y38193504D03*
X62022104Y38193504D03*
X62422104Y38193504D03*
X62822104Y38193504D03*
X63222104Y38193504D03*
%TD*%
D22*
%TO.C,R4*%
X37568500Y35179000D03*
X39393500Y35179000D03*
%TD*%
D15*
%TO.C,D5*%
X69151500Y11811000D03*
D14*
X69151500Y8001000D03*
%TD*%
D13*
%TO.C,C4*%
X24318000Y27940000D03*
X22418000Y27940000D03*
%TD*%
D10*
%TO.C,C3*%
X27940000Y33594000D03*
X27940000Y35494000D03*
%TD*%
%TO.C,C2*%
X29972000Y33594000D03*
X29972000Y35494000D03*
%TD*%
%TO.C,C10*%
X35737800Y28133000D03*
X35737800Y30033000D03*
%TD*%
D23*
%TO.C,R2*%
X15621000Y32107500D03*
X15621000Y33932500D03*
%TD*%
D21*
%TO.C,R34*%
X78890500Y31369000D03*
X77065500Y31369000D03*
%TD*%
D13*
%TO.C,C19*%
X41209000Y30607000D03*
X39309000Y30607000D03*
%TD*%
%TO.C,C20*%
X24953000Y31369000D03*
X23053000Y31369000D03*
%TD*%
D39*
%TO.C,R35*%
X81915000Y29549500D03*
X81915000Y35474500D03*
%TD*%
D21*
%TO.C,R36*%
X78890500Y33528000D03*
X77065500Y33528000D03*
%TD*%
D24*
%TO.C,R22*%
X16764000Y54379500D03*
X16764000Y52554500D03*
%TD*%
D40*
%TO.C,L2*%
X61534800Y21992300D03*
X61534800Y17139300D03*
%TD*%
D41*
%TO.C,Q5*%
X31753000Y53975000D03*
X31753000Y52705000D03*
X31753000Y51435000D03*
X31753000Y50165000D03*
D42*
X29083000Y52070000D03*
%TD*%
D43*
%TO.C,U2*%
X51673200Y27114000D03*
X51673200Y25464000D03*
X52873200Y27114000D03*
X52873200Y25464000D03*
D44*
X49798200Y24384000D03*
X49798200Y25654000D03*
X49798200Y26924000D03*
X49798200Y28194000D03*
X54748200Y28194000D03*
X54748200Y26924000D03*
X54748200Y25654000D03*
X54748200Y24384000D03*
%TD*%
D13*
%TO.C,C35*%
X53544000Y17356000D03*
X51644000Y17356000D03*
%TD*%
D41*
%TO.C,Q3*%
X19047000Y50165000D03*
X19047000Y51435000D03*
X19047000Y52705000D03*
X19047000Y53975000D03*
D45*
X21717000Y52070000D03*
%TD*%
D12*
%TO.C,C36*%
X57115200Y17467800D03*
X57115200Y15567800D03*
%TD*%
D23*
%TO.C,TH3*%
X37719000Y39219500D03*
X37719000Y41044500D03*
%TD*%
D12*
%TO.C,C27*%
X22860000Y25334000D03*
X22860000Y23434000D03*
%TD*%
D24*
%TO.C,R13*%
X59461400Y27912700D03*
X59461400Y26087700D03*
%TD*%
D22*
%TO.C,R12*%
X49852700Y30208400D03*
X51677700Y30208400D03*
%TD*%
D46*
%TO.C,D2*%
X55822200Y20912000D03*
D47*
X51840200Y19992000D03*
X51840200Y21832000D03*
%TD*%
D22*
%TO.C,R14*%
X70969500Y62992000D03*
X72794500Y62992000D03*
%TD*%
D23*
%TO.C,TH4*%
X45897800Y34088700D03*
X45897800Y35913700D03*
%TD*%
D48*
%TO.C,D6*%
X57377104Y40209004D03*
X57377104Y42084004D03*
%TD*%
D10*
%TO.C,C21*%
X74803000Y31435000D03*
X74803000Y33335000D03*
%TD*%
D12*
%TO.C,C25*%
X25019000Y25334000D03*
X25019000Y23434000D03*
%TD*%
D21*
%TO.C,R15*%
X68730500Y62992000D03*
X66905500Y62992000D03*
%TD*%
D12*
%TO.C,C13*%
X47183800Y25418000D03*
X47183800Y23518000D03*
%TD*%
D49*
%TO.C,C24*%
X29070000Y25400000D03*
X30620000Y25400000D03*
%TD*%
D12*
%TO.C,C31*%
X39878000Y25461000D03*
X39878000Y23561000D03*
%TD*%
%TO.C,C30*%
X37719000Y25461000D03*
X37719000Y23561000D03*
%TD*%
D50*
%TO.C,C29*%
X19878000Y17272000D03*
X21778000Y17272000D03*
%TD*%
D12*
%TO.C,C26*%
X27178000Y25334000D03*
X27178000Y23434000D03*
%TD*%
D10*
%TO.C,C12*%
X47183800Y27201000D03*
X47183800Y29101000D03*
%TD*%
D12*
%TO.C,C38*%
X57378600Y26324600D03*
X57378600Y24424600D03*
%TD*%
D21*
%TO.C,R10*%
X63269500Y27863800D03*
X61444500Y27863800D03*
%TD*%
D51*
%TO.C,Q2*%
X25067500Y46035000D03*
X25067500Y44135000D03*
X23192500Y45085000D03*
%TD*%
D12*
%TO.C,C23*%
X49596800Y22471600D03*
X49596800Y20571600D03*
%TD*%
M02*
