%TF.GenerationSoftware,KiCad,Pcbnew,8.0.3+1*%
%TF.CreationDate,2024-07-20T09:56:42+00:00*%
%TF.ProjectId,LION2CELL02,4c494f4e-3243-4454-9c4c-30322e6b6963,rev?*%
%TF.SameCoordinates,Original*%
%TF.FileFunction,Copper,L1,Top*%
%TF.FilePolarity,Positive*%
%FSLAX46Y46*%
G04 Gerber Fmt 4.6, Leading zero omitted, Abs format (unit mm)*
G04 Created by KiCad (PCBNEW 8.0.3+1) date 2024-07-20 09:56:42*
%MOMM*%
%LPD*%
G01*
G04 APERTURE LIST*
G04 Aperture macros list*
%AMRoundRect*
0 Rectangle with rounded corners*
0 $1 Rounding radius*
0 $2 $3 $4 $5 $6 $7 $8 $9 X,Y pos of 4 corners*
0 Add a 4 corners polygon primitive as box body*
4,1,4,$2,$3,$4,$5,$6,$7,$8,$9,$2,$3,0*
0 Add four circle primitives for the rounded corners*
1,1,$1+$1,$2,$3*
1,1,$1+$1,$4,$5*
1,1,$1+$1,$6,$7*
1,1,$1+$1,$8,$9*
0 Add four rect primitives between the rounded corners*
20,1,$1+$1,$2,$3,$4,$5,0*
20,1,$1+$1,$4,$5,$6,$7,0*
20,1,$1+$1,$6,$7,$8,$9,0*
20,1,$1+$1,$8,$9,$2,$3,0*%
G04 Aperture macros list end*
%TA.AperFunction,SMDPad,CuDef*%
%ADD10R,1.150000X0.600000*%
%TD*%
%TA.AperFunction,SMDPad,CuDef*%
%ADD11R,1.150000X0.300000*%
%TD*%
%TA.AperFunction,ComponentPad*%
%ADD12O,2.000000X1.000000*%
%TD*%
%TA.AperFunction,ComponentPad*%
%ADD13O,2.100000X1.050000*%
%TD*%
%TA.AperFunction,ComponentPad*%
%ADD14R,3.810000X3.810000*%
%TD*%
%TA.AperFunction,ComponentPad*%
%ADD15R,1.524000X1.524000*%
%TD*%
%TA.AperFunction,SMDPad,CuDef*%
%ADD16R,0.600000X1.150000*%
%TD*%
%TA.AperFunction,SMDPad,CuDef*%
%ADD17R,0.300000X1.150000*%
%TD*%
%TA.AperFunction,ComponentPad*%
%ADD18O,1.000000X2.000000*%
%TD*%
%TA.AperFunction,ComponentPad*%
%ADD19O,1.050000X2.100000*%
%TD*%
%TA.AperFunction,SMDPad,CuDef*%
%ADD20RoundRect,0.250000X0.312500X0.625000X-0.312500X0.625000X-0.312500X-0.625000X0.312500X-0.625000X0*%
%TD*%
%TA.AperFunction,SMDPad,CuDef*%
%ADD21RoundRect,0.150000X-0.150000X-0.750000X0.150000X-0.750000X0.150000X0.750000X-0.150000X0.750000X0*%
%TD*%
%TA.AperFunction,SMDPad,CuDef*%
%ADD22RoundRect,0.187500X-0.187500X-0.712500X0.187500X-0.712500X0.187500X0.712500X-0.187500X0.712500X0*%
%TD*%
%TA.AperFunction,ComponentPad*%
%ADD23O,0.900000X1.300000*%
%TD*%
%TA.AperFunction,SMDPad,CuDef*%
%ADD24RoundRect,0.225000X-0.425000X-0.225000X0.425000X-0.225000X0.425000X0.225000X-0.425000X0.225000X0*%
%TD*%
%TA.AperFunction,SMDPad,CuDef*%
%ADD25RoundRect,0.100000X-0.205000X-0.535000X0.205000X-0.535000X0.205000X0.535000X-0.205000X0.535000X0*%
%TD*%
%TA.AperFunction,HeatsinkPad*%
%ADD26RoundRect,0.200000X-2.600000X-2.050000X2.600000X-2.050000X2.600000X2.050000X-2.600000X2.050000X0*%
%TD*%
%TA.AperFunction,SMDPad,CuDef*%
%ADD27C,1.000000*%
%TD*%
%TA.AperFunction,SMDPad,CuDef*%
%ADD28RoundRect,0.250000X-0.262500X-0.450000X0.262500X-0.450000X0.262500X0.450000X-0.262500X0.450000X0*%
%TD*%
%TA.AperFunction,ComponentPad*%
%ADD29C,6.000000*%
%TD*%
%TA.AperFunction,SMDPad,CuDef*%
%ADD30RoundRect,0.250000X-0.250000X-0.475000X0.250000X-0.475000X0.250000X0.475000X-0.250000X0.475000X0*%
%TD*%
%TA.AperFunction,ComponentPad*%
%ADD31R,4.000000X4.000000*%
%TD*%
%TA.AperFunction,SMDPad,CuDef*%
%ADD32RoundRect,0.112500X-0.187500X-0.112500X0.187500X-0.112500X0.187500X0.112500X-0.187500X0.112500X0*%
%TD*%
%TA.AperFunction,SMDPad,CuDef*%
%ADD33RoundRect,0.140000X-0.140000X-0.170000X0.140000X-0.170000X0.140000X0.170000X-0.140000X0.170000X0*%
%TD*%
%TA.AperFunction,SMDPad,CuDef*%
%ADD34RoundRect,0.225000X-0.225000X-0.250000X0.225000X-0.250000X0.225000X0.250000X-0.225000X0.250000X0*%
%TD*%
%TA.AperFunction,SMDPad,CuDef*%
%ADD35RoundRect,0.150000X-0.587500X-0.150000X0.587500X-0.150000X0.587500X0.150000X-0.587500X0.150000X0*%
%TD*%
%TA.AperFunction,SMDPad,CuDef*%
%ADD36RoundRect,0.135000X-0.135000X-0.185000X0.135000X-0.185000X0.135000X0.185000X-0.135000X0.185000X0*%
%TD*%
%TA.AperFunction,ComponentPad*%
%ADD37C,0.500000*%
%TD*%
%TA.AperFunction,SMDPad,CuDef*%
%ADD38RoundRect,0.258000X-1.242000X-1.242000X1.242000X-1.242000X1.242000X1.242000X-1.242000X1.242000X0*%
%TD*%
%TA.AperFunction,ViaPad*%
%ADD39C,0.890000*%
%TD*%
%TA.AperFunction,Conductor*%
%ADD40C,0.300000*%
%TD*%
%TA.AperFunction,Conductor*%
%ADD41C,0.400000*%
%TD*%
%TA.AperFunction,Conductor*%
%ADD42C,0.500000*%
%TD*%
%TA.AperFunction,Conductor*%
%ADD43C,0.890000*%
%TD*%
%TA.AperFunction,Conductor*%
%ADD44C,0.180000*%
%TD*%
%TA.AperFunction,Conductor*%
%ADD45C,0.600000*%
%TD*%
G04 APERTURE END LIST*
D10*
%TO.P,J1,A1/B12,GND*%
%TO.N,GND*%
X119359800Y-74295400D03*
%TO.P,J1,A4/B9,VBUS*%
%TO.N,VBUS*%
X119359800Y-75095400D03*
D11*
%TO.P,J1,A5,CC1*%
%TO.N,Net-(J1-CC1)*%
X119359800Y-76245400D03*
%TO.P,J1,A6,D+*%
%TO.N,/Power Input/D+*%
X119359800Y-77245400D03*
%TO.P,J1,A7,D-*%
%TO.N,/Power Input/D-*%
X119359800Y-77745400D03*
%TO.P,J1,A8,SBU1*%
%TO.N,unconnected-(J1-SBU1-PadA8)*%
X119359800Y-78745400D03*
D10*
%TO.P,J1,B1/A12,GND*%
%TO.N,GND*%
X119359800Y-80695400D03*
%TO.P,J1,B4/A9,VBUS*%
%TO.N,VBUS*%
X119359800Y-79895400D03*
D11*
%TO.P,J1,B5,CC2*%
%TO.N,Net-(J1-CC2)*%
X119359800Y-79245400D03*
%TO.P,J1,B6,D+*%
%TO.N,/Power Input/D+*%
X119359800Y-78245400D03*
%TO.P,J1,B7,D-*%
%TO.N,/Power Input/D-*%
X119359800Y-76745400D03*
%TO.P,J1,B8,SBU2*%
%TO.N,unconnected-(J1-SBU2-PadB8)*%
X119359800Y-75745400D03*
D12*
%TO.P,J1,G1,SHIELD*%
%TO.N,GND*%
X114604800Y-73175400D03*
%TO.P,J1,G2,SHIELD*%
X114604800Y-81815400D03*
D13*
%TO.P,J1,G3,SHIELD*%
X118784800Y-73175400D03*
%TO.P,J1,G4,SHIELD*%
X118784800Y-81815400D03*
%TD*%
D14*
%TO.P,J2,1,P1*%
%TO.N,/Power Input/Power_load*%
X145418800Y-77399400D03*
X150418800Y-77399400D03*
%TD*%
%TO.P,J3,1,P1*%
%TO.N,GND*%
X140178800Y-78099400D03*
X135178800Y-78099400D03*
%TD*%
D15*
%TO.P,J4,1,2*%
%TO.N,GND*%
X144068800Y-81559400D03*
%TO.P,J4,2,2*%
X141528800Y-81559400D03*
%TO.P,J4,3,4*%
%TO.N,/Power Input/System_load*%
X144068800Y-79019400D03*
%TO.P,J4,4,4*%
X141528800Y-79019400D03*
%TO.P,J4,5,5*%
X144068800Y-76479400D03*
%TO.P,J4,6,5*%
X141528800Y-76479400D03*
%TO.P,J4,7,8*%
%TO.N,GND*%
X144068800Y-73939400D03*
%TO.P,J4,8,8*%
X141528800Y-73939400D03*
%TD*%
D16*
%TO.P,J5,A1/B12,GND*%
%TO.N,GND*%
X142138800Y-72994400D03*
%TO.P,J5,A4/B9,VBUS*%
%TO.N,VBUS*%
X142938800Y-72994400D03*
D17*
%TO.P,J5,A5,CC1*%
%TO.N,Net-(J1-CC1)*%
X144088800Y-72994400D03*
%TO.P,J5,A6,D+*%
%TO.N,/Power Input/D+*%
X145088800Y-72994400D03*
%TO.P,J5,A7,D-*%
%TO.N,/Power Input/D-*%
X145588800Y-72994400D03*
%TO.P,J5,A8,SBU1*%
%TO.N,unconnected-(J5-SBU1-PadA8)*%
X146588800Y-72994400D03*
D16*
%TO.P,J5,B1/A12,GND*%
%TO.N,GND*%
X148538800Y-72994400D03*
%TO.P,J5,B4/A9,VBUS*%
%TO.N,VBUS*%
X147738800Y-72994400D03*
D17*
%TO.P,J5,B5,CC2*%
%TO.N,Net-(J1-CC2)*%
X147088800Y-72994400D03*
%TO.P,J5,B6,D+*%
%TO.N,/Power Input/D+*%
X146088800Y-72994400D03*
%TO.P,J5,B7,D-*%
%TO.N,/Power Input/D-*%
X144588800Y-72994400D03*
%TO.P,J5,B8,SBU2*%
%TO.N,unconnected-(J5-SBU2-PadB8)*%
X143588800Y-72994400D03*
D18*
%TO.P,J5,G1,SHIELD*%
%TO.N,GND*%
X141018800Y-77749400D03*
%TO.P,J5,G2,SHIELD*%
X149658800Y-77749400D03*
D19*
%TO.P,J5,G3,SHIELD*%
X141018800Y-73569400D03*
%TO.P,J5,G4,SHIELD*%
X149658800Y-73569400D03*
%TD*%
D15*
%TO.P,J6,1*%
%TO.N,Net-(U1-INT)*%
X140258800Y-76479400D03*
%TO.P,J6,2*%
X140258800Y-79019400D03*
%TD*%
%TO.P,J7,1*%
%TO.N,Net-(U1-nQON)*%
X133146800Y-128295400D03*
%TO.P,J7,2*%
X135686800Y-128295400D03*
%TD*%
D14*
%TO.P,J9,1,P1*%
%TO.N,GND*%
X113795800Y-130104400D03*
X118795800Y-130104400D03*
%TD*%
D15*
%TO.P,J10,1*%
%TO.N,Net-(U3-BTP_INT)*%
X161721800Y-78384400D03*
%TO.P,J10,2*%
X161721800Y-80924400D03*
%TD*%
%TO.P,J11,1*%
%TO.N,Net-(U3-~{PRES{slash}SHDWN})*%
X164261800Y-78384400D03*
%TO.P,J11,2*%
%TO.N,GND1*%
X164261800Y-80924400D03*
%TD*%
%TO.P,J12,1*%
%TO.N,GND*%
X165531800Y-74574400D03*
%TO.P,J12,2*%
X168071800Y-74574400D03*
%TO.P,J12,3*%
%TO.N,Net-(J12-Pad3)*%
X165531800Y-77114400D03*
%TO.P,J12,4*%
X168071800Y-77114400D03*
%TO.P,J12,5*%
%TO.N,+3.3V*%
X165531800Y-79654400D03*
%TO.P,J12,6*%
X168071800Y-79654400D03*
%TO.P,J12,7*%
%TO.N,Net-(J12-Pad7)*%
X165531800Y-82194400D03*
%TO.P,J12,8*%
X168071800Y-82194400D03*
%TO.P,J12,9*%
%TO.N,GND*%
X165531800Y-84734400D03*
%TO.P,J12,10*%
X168071800Y-84734400D03*
%TD*%
D20*
%TO.P,R17,1*%
%TO.N,/Fuel Gauge/B+*%
X168772300Y-112293400D03*
%TO.P,R17,2*%
%TO.N,Net-(Q2-D)*%
X165847300Y-112293400D03*
%TD*%
D14*
%TO.P,J8,1,P1*%
%TO.N,VBUS*%
X113795800Y-125151400D03*
X118795800Y-125151400D03*
%TD*%
D21*
%TO.P,SW1,1,1*%
%TO.N,Net-(U3-~{PRES{slash}SHDWN})*%
X166039800Y-127787400D03*
D22*
%TO.P,SW1,2,2*%
%TO.N,GND1*%
X164814800Y-127787400D03*
X167264800Y-127787400D03*
D23*
%TO.P,SW1,GND,SHIELD*%
X163914800Y-128687400D03*
D24*
X164189800Y-129737400D03*
X167889800Y-129737400D03*
D23*
X168164800Y-128687400D03*
%TD*%
D25*
%TO.P,Q5,1,S*%
%TO.N,/Fuel Gauge/PACK+*%
X108063000Y-129781400D03*
X109333000Y-129781400D03*
X110603000Y-129781400D03*
%TO.P,Q5,2,G*%
%TO.N,Net-(Q5-G)*%
X111873000Y-129781400D03*
D26*
%TO.P,Q5,3,D*%
%TO.N,/Fuel Gauge/VCOM*%
X109968000Y-126073000D03*
%TD*%
D27*
%TO.P,FID4,*%
%TO.N,*%
X108933000Y-145338000D03*
%TD*%
%TO.P,FID1,*%
%TO.N,*%
X108933000Y-134688000D03*
%TD*%
D21*
%TO.P,SW2,1,1*%
%TO.N,Net-(U3-~{DISP})*%
X116343000Y-125153000D03*
D22*
%TO.P,SW2,2,2*%
%TO.N,GND1*%
X115118000Y-125153000D03*
X117568000Y-125153000D03*
D23*
%TO.P,SW2,GND,SHIELD*%
X114218000Y-126053000D03*
D24*
X114493000Y-127103000D03*
X118193000Y-127103000D03*
D23*
X118468000Y-126053000D03*
%TD*%
D25*
%TO.P,Q3,1,S*%
%TO.N,/Fuel Gauge/B+*%
X101463000Y-129781400D03*
X102733000Y-129781400D03*
X104003000Y-129781400D03*
%TO.P,Q3,2,G*%
%TO.N,Net-(Q3-G)*%
X105273000Y-129781400D03*
D26*
%TO.P,Q3,3,D*%
%TO.N,/Fuel Gauge/VCOM*%
X103368000Y-126073000D03*
%TD*%
D28*
%TO.P,TH3,1*%
%TO.N,Net-(U1-TS)*%
X118450500Y-134388000D03*
%TO.P,TH3,2*%
%TO.N,GND*%
X120275500Y-134388000D03*
%TD*%
D29*
%TO.P,H2,1,1*%
%TO.N,GND*%
X103617740Y-143562220D03*
%TD*%
D30*
%TO.P,C27,1*%
%TO.N,/Power Input/PMID*%
X113983000Y-137428000D03*
%TO.P,C27,2*%
%TO.N,GND*%
X115883000Y-137428000D03*
%TD*%
D29*
%TO.P,H3,1,1*%
%TO.N,GND*%
X103617740Y-150661700D03*
%TD*%
D31*
%TO.P,B1,1,+*%
%TO.N,/Fuel Gauge/B+*%
X103268000Y-92968000D03*
%TO.P,B1,2,-*%
%TO.N,Net-(B1A--)*%
X175768000Y-92968000D03*
%TO.P,B1,3,+*%
X103268000Y-112268000D03*
%TO.P,B1,4,-*%
%TO.N,GND1*%
X175768000Y-112268000D03*
%TD*%
D27*
%TO.P,FID2,*%
%TO.N,*%
X108933000Y-138238000D03*
%TD*%
D28*
%TO.P,TH4,1*%
%TO.N,Net-(U3-PTC)*%
X120710500Y-129418000D03*
%TO.P,TH4,2*%
%TO.N,/Fuel Gauge/BAT*%
X122535500Y-129418000D03*
%TD*%
D32*
%TO.P,D6,1,K*%
%TO.N,/Fuel Gauge/BAT*%
X125428000Y-124798000D03*
%TO.P,D6,2,A*%
%TO.N,/Fuel Gauge/B+*%
X127528000Y-124798000D03*
%TD*%
D33*
%TO.P,C21,1*%
%TO.N,/Fuel Gauge/PS+*%
X129553000Y-124308000D03*
%TO.P,C21,2*%
%TO.N,/Fuel Gauge/PS-*%
X130513000Y-124308000D03*
%TD*%
D34*
%TO.P,C25,1*%
%TO.N,/Power Input/PMID*%
X118388000Y-137118000D03*
%TO.P,C25,2*%
%TO.N,GND*%
X119938000Y-137118000D03*
%TD*%
D29*
%TO.P,H4,1,1*%
%TO.N,GND*%
X103617740Y-157761180D03*
%TD*%
D33*
%TO.P,C24,1*%
%TO.N,/Power Input/PMID*%
X118113000Y-139358000D03*
%TO.P,C24,2*%
%TO.N,GND*%
X119073000Y-139358000D03*
%TD*%
D29*
%TO.P,H1,1,1*%
%TO.N,GND*%
X103617740Y-136462740D03*
%TD*%
D30*
%TO.P,C31,1*%
%TO.N,/Power Input/System_load*%
X113983000Y-146458000D03*
%TO.P,C31,2*%
%TO.N,GND*%
X115883000Y-146458000D03*
%TD*%
D27*
%TO.P,FID3,*%
%TO.N,*%
X108933000Y-141788000D03*
%TD*%
D30*
%TO.P,C30,1*%
%TO.N,/Power Input/System_load*%
X113983000Y-143448000D03*
%TO.P,C30,2*%
%TO.N,GND*%
X115883000Y-143448000D03*
%TD*%
%TO.P,C29,1*%
%TO.N,VBUS*%
X113983000Y-140438000D03*
%TO.P,C29,2*%
%TO.N,GND*%
X115883000Y-140438000D03*
%TD*%
%TO.P,C26,1*%
%TO.N,/Power Input/PMID*%
X113983000Y-134418000D03*
%TO.P,C26,2*%
%TO.N,GND*%
X115883000Y-134418000D03*
%TD*%
D35*
%TO.P,Q2,1,G*%
%TO.N,Net-(Q2-G)*%
X120925500Y-124773000D03*
%TO.P,Q2,2,S*%
%TO.N,/Fuel Gauge/VCOM*%
X120925500Y-126673000D03*
%TO.P,Q2,3,D*%
%TO.N,Net-(Q2-D)*%
X122800500Y-125723000D03*
%TD*%
D36*
%TO.P,TH2,1*%
%TO.N,GND1*%
X125253000Y-129258000D03*
%TO.P,TH2,2*%
%TO.N,Net-(U3-TS2)*%
X126273000Y-129258000D03*
%TD*%
%TO.P,TH1,1*%
%TO.N,GND1*%
X125253000Y-127268000D03*
%TO.P,TH1,2*%
%TO.N,Net-(U3-TS1)*%
X126273000Y-127268000D03*
%TD*%
D37*
%TO.P,U3,33,PWRPD*%
%TO.N,GND1*%
X155275800Y-108133400D03*
X155275800Y-108833400D03*
D38*
X155625800Y-108483400D03*
D37*
X155975800Y-108133400D03*
X155975800Y-108833400D03*
%TD*%
D39*
%TO.N,*%
X129888931Y-87633360D03*
X156070300Y-116611400D03*
X156070300Y-123723400D03*
X147815300Y-105054400D03*
X130175000Y-92227400D03*
X129844800Y-75463400D03*
X150228300Y-98894900D03*
%TO.N,/BAT+*%
X131495800Y-120167400D03*
%TO.N,GND*%
X132384800Y-131851400D03*
X160324800Y-114833400D03*
X144018000Y-116408200D03*
X170865800Y-88988900D03*
X167690800Y-96037400D03*
X114350800Y-87655400D03*
X136448800Y-84226400D03*
X101714300Y-116039900D03*
X129971800Y-117563900D03*
X110540800Y-88925400D03*
X106476800Y-108737400D03*
X102476300Y-117309900D03*
X132384800Y-121818400D03*
X134289800Y-116738400D03*
X111048800Y-131851400D03*
X175437800Y-104292400D03*
X106730800Y-87147400D03*
X113080800Y-100228400D03*
X172262800Y-120167400D03*
X172262800Y-118389400D03*
X131622800Y-113055400D03*
X113207800Y-119024400D03*
X168960800Y-122961400D03*
X114604800Y-100228400D03*
X146672300Y-99847400D03*
X108000800Y-92989400D03*
X167055800Y-124231400D03*
X166420800Y-116357400D03*
X163118800Y-118389400D03*
X151815800Y-88734900D03*
X134925412Y-87021012D03*
X113080800Y-87655400D03*
X109270800Y-87655400D03*
X139877800Y-111213900D03*
X173532800Y-108229400D03*
X106032300Y-118897400D03*
X108254800Y-89052400D03*
X147751800Y-100291900D03*
X103492300Y-115785900D03*
X111302800Y-90195400D03*
X142214600Y-118186200D03*
X112128300Y-115785900D03*
X163118800Y-121437400D03*
X166674800Y-84607400D03*
X175056800Y-106959400D03*
X167182800Y-105943400D03*
X138226800Y-119659400D03*
X115620800Y-104419400D03*
X145084800Y-85115400D03*
X143116300Y-100609400D03*
X114188240Y-94081600D03*
X107810300Y-118897400D03*
X111810800Y-87655400D03*
X176580800Y-108229400D03*
X109461300Y-118897400D03*
X138607800Y-84988400D03*
X136702800Y-114452400D03*
X142544800Y-105600220D03*
X170357800Y-83083400D03*
X171373800Y-83083400D03*
X125590300Y-117563900D03*
X136829800Y-87020400D03*
X109905800Y-90703400D03*
X163118800Y-119913400D03*
X123558300Y-117627400D03*
X113525300Y-117563900D03*
X172008800Y-107086400D03*
X157276800Y-111785400D03*
X171119800Y-104419400D03*
X148831300Y-100799900D03*
X170484800Y-107086400D03*
X172516800Y-108610400D03*
X158800800Y-105181400D03*
X170484800Y-114325400D03*
X138734800Y-82448400D03*
X135813800Y-88036400D03*
X170103800Y-108483400D03*
X168706800Y-105943400D03*
X172262800Y-116865400D03*
X178358800Y-116103400D03*
X144386300Y-89052400D03*
X149783800Y-112166400D03*
X151478291Y-100799900D03*
X111048800Y-129057400D03*
X168325800Y-118516400D03*
X174294800Y-105689400D03*
X165150800Y-86131400D03*
X128066800Y-117627400D03*
X172389800Y-104419400D03*
X132384800Y-117563900D03*
X135687412Y-86259012D03*
X121843800Y-130454400D03*
X164388800Y-123723400D03*
X138544300Y-112483900D03*
X135432800Y-131851400D03*
X153403300Y-88798400D03*
X142036800Y-109372400D03*
X169976800Y-104419400D03*
X111302800Y-106451400D03*
X143052800Y-97116900D03*
X172008800Y-121945400D03*
X147815300Y-96100900D03*
X139496800Y-83972400D03*
X130860800Y-131851400D03*
X169214800Y-83083400D03*
X173786800Y-104292400D03*
X175818800Y-96037400D03*
X143306800Y-88163400D03*
X168452800Y-104419400D03*
X107111800Y-115785900D03*
X165785800Y-88925400D03*
X119748300Y-82638900D03*
X108635800Y-115785900D03*
X117302280Y-91460320D03*
X125018800Y-112928400D03*
X135178800Y-112039400D03*
X176834800Y-116103400D03*
X107746800Y-108737401D03*
X168960800Y-121437400D03*
X141274800Y-120167400D03*
X125399800Y-130454400D03*
X136956800Y-131851400D03*
X175056800Y-108229400D03*
X163880800Y-87401400D03*
X158229300Y-83718400D03*
X129590800Y-113055400D03*
X164769800Y-118516400D03*
X121173240Y-94127320D03*
X149021800Y-111277400D03*
X137464800Y-82321400D03*
X172008800Y-123977400D03*
X138226800Y-121437400D03*
X126542800Y-130454400D03*
X136321800Y-85369400D03*
X127685800Y-130454400D03*
X133400800Y-112039400D03*
X113588800Y-116166900D03*
X145084800Y-86702900D03*
X156324300Y-85559900D03*
X140258800Y-109753400D03*
X163118800Y-115087400D03*
X162356800Y-88925400D03*
X110477300Y-115785900D03*
X175310800Y-116103400D03*
X138734800Y-118135400D03*
X136956800Y-83083400D03*
X119115840Y-94107000D03*
X159054800Y-103403400D03*
X178104800Y-108229400D03*
X118922800Y-80289400D03*
X143560800Y-86639400D03*
X165912800Y-114325400D03*
X166928800Y-104419400D03*
X165404800Y-124231400D03*
X160070800Y-105181400D03*
X137718800Y-86004400D03*
X123113800Y-130454400D03*
X158546800Y-113055400D03*
X168452800Y-120167400D03*
X141782800Y-88163400D03*
X165150800Y-104927400D03*
X126669802Y-113055398D03*
X175564800Y-105562400D03*
X152831800Y-83654900D03*
X105333800Y-115785900D03*
X103873300Y-118389400D03*
X173786800Y-116103400D03*
X128193800Y-113055406D03*
X137972800Y-110007400D03*
X109778800Y-99085400D03*
X123748800Y-114642900D03*
X137591800Y-84480400D03*
X154767280Y-109133640D03*
X178104800Y-106959400D03*
X176580800Y-106959400D03*
X112826800Y-90703400D03*
X140512800Y-82956400D03*
X172008800Y-115087400D03*
X129336800Y-131851400D03*
X143052800Y-108356400D03*
X159054800Y-99212400D03*
X163245800Y-123723400D03*
X172643800Y-83083400D03*
X108508800Y-100228400D03*
X123767407Y-83273900D03*
X109397800Y-92989400D03*
X145592800Y-106260900D03*
X176263300Y-88798400D03*
X170992800Y-115849400D03*
X145592800Y-115595400D03*
X133908800Y-131851400D03*
X171246800Y-108610400D03*
X159054800Y-96037400D03*
X124256800Y-130454400D03*
X107873800Y-91465400D03*
X116255800Y-102788720D03*
X150164800Y-86448900D03*
X111302800Y-118833900D03*
X138480800Y-83591400D03*
X115620800Y-87655400D03*
X110540800Y-87655400D03*
X111048800Y-130327400D03*
%TO.N,/CMODE*%
X139242800Y-80924400D03*
%TO.N,Net-(C10-Pad1)*%
X133392857Y-95743221D03*
X135813800Y-102058400D03*
%TO.N,Net-(C14-Pad1)*%
X168198800Y-113563400D03*
X151244300Y-106197400D03*
%TO.N,/CE*%
X132231355Y-93135089D03*
%TO.N,Net-(U1-SW1)*%
X125780800Y-86385400D03*
X132765724Y-85028932D03*
X126822200Y-86283802D03*
X127304800Y-84099400D03*
%TO.N,/P1*%
X146291300Y-119151400D03*
X151371300Y-109181900D03*
%TO.N,+3V3*%
X140284200Y-130987800D03*
X152006300Y-98323400D03*
X140004800Y-122199400D03*
X149783800Y-106832400D03*
%TO.N,/Power Input/Power_load*%
X156768800Y-74193400D03*
X155244800Y-74193400D03*
X158292800Y-74193400D03*
X148450300Y-83210400D03*
X153720800Y-74193400D03*
X150228300Y-81305400D03*
X159816800Y-74193400D03*
%TO.N,/CB_EN*%
X113691364Y-104548509D03*
X112253289Y-107070829D03*
%TO.N,Net-(R5-Pad2)*%
X133192520Y-89529920D03*
X135234319Y-83930318D03*
%TO.N,Net-(U3-VC2)*%
X154736800Y-121564400D03*
X154736800Y-116865400D03*
%TO.N,Net-(U3-VC1)*%
X157276800Y-121564400D03*
X157276800Y-118262400D03*
%TO.N,Net-(D1-A)*%
X100126800Y-97370900D03*
X108762800Y-77114400D03*
X103428800Y-100799900D03*
X102984300Y-99466400D03*
X103174800Y-83337400D03*
X101396800Y-89687400D03*
X104952800Y-83337400D03*
X101396800Y-85877400D03*
X108762800Y-78257400D03*
X108762800Y-79527400D03*
X102920800Y-89687400D03*
X101396800Y-84607400D03*
X108762800Y-75971400D03*
X106476800Y-85369400D03*
X104444800Y-89687400D03*
X108762800Y-80797400D03*
X101396800Y-83337400D03*
X101396800Y-87147400D03*
X106476800Y-84099400D03*
X101396800Y-88417400D03*
X105968800Y-89687400D03*
%TO.N,Net-(D1-K)*%
X135432800Y-75463400D03*
X122656600Y-94945200D03*
%TO.N,Net-(D3-A)*%
X121208800Y-75463400D03*
X120040400Y-88138000D03*
%TO.N,Net-(Q2-D)*%
X165404800Y-112420400D03*
%TD*%
D40*
%TO.N,*%
X118917118Y-92966558D02*
X119680322Y-92966558D01*
X133660399Y-80131401D02*
X131064000Y-77535002D01*
X129888931Y-91243469D02*
X129888931Y-88262685D01*
X139146799Y-80131401D02*
X133660399Y-80131401D01*
D41*
X156070300Y-123723400D02*
X156070300Y-116611400D01*
X150228300Y-102641400D02*
X150228300Y-98894900D01*
D40*
X128143000Y-92989400D02*
X129888931Y-91243469D01*
X119680322Y-92966558D02*
X119703164Y-92989400D01*
X118894276Y-92989400D02*
X118917118Y-92966558D01*
X131064000Y-76682600D02*
X129844800Y-75463400D01*
X130759200Y-83032600D02*
X130759200Y-91643200D01*
D41*
X147815300Y-105054400D02*
X150228300Y-102641400D01*
D40*
X133660399Y-80131401D02*
X130759200Y-83032600D01*
X112636300Y-92989400D02*
X118894276Y-92989400D01*
X140258800Y-79019400D02*
X139146799Y-80131401D01*
X129888931Y-88262685D02*
X129888931Y-87633360D01*
X119703164Y-92989400D02*
X128143000Y-92989400D01*
X131064000Y-77535002D02*
X131064000Y-76682600D01*
D42*
X140258800Y-79019400D02*
X139852798Y-79019400D01*
D40*
X130759200Y-91643200D02*
X130175000Y-92227400D01*
D43*
%TO.N,/BAT+*%
X131051300Y-120611900D02*
X131495800Y-120167400D01*
X103246800Y-96854400D02*
X100192840Y-99908360D01*
X100192840Y-117058440D02*
X103746300Y-120611900D01*
X100192840Y-99908360D02*
X100192840Y-117058440D01*
X103246800Y-92991400D02*
X103246800Y-96854400D01*
X103746300Y-120611900D02*
X131051300Y-120611900D01*
D42*
%TO.N,GND*%
X138607800Y-84988400D02*
X138607800Y-85115400D01*
D44*
X158800800Y-105181400D02*
X160070800Y-105181400D01*
D45*
X152895300Y-83718400D02*
X152831800Y-83654900D01*
D44*
X165404800Y-124231400D02*
X167055800Y-124231400D01*
X145084800Y-85115400D02*
X143560800Y-86639400D01*
X165912800Y-114325400D02*
X165150800Y-115087400D01*
X144462999Y-115963201D02*
X144018000Y-116408200D01*
X113524801Y-90639401D02*
X113460802Y-90703400D01*
D42*
X136956800Y-83083400D02*
X136956800Y-82829400D01*
D41*
X178358800Y-116103400D02*
X176834800Y-116103400D01*
X170992800Y-115849400D02*
X171246800Y-115849400D01*
D44*
X111048800Y-130327400D02*
X111048800Y-131851400D01*
X140004800Y-110007400D02*
X140258800Y-109753400D01*
D42*
X136321800Y-84353400D02*
X136448800Y-84226400D01*
D41*
X107746799Y-108737400D02*
X107746800Y-108737401D01*
D44*
X110921800Y-130200400D02*
X110921800Y-131398012D01*
X168960800Y-121437400D02*
X168960800Y-120675400D01*
D41*
X171246800Y-115849400D02*
X172262800Y-116865400D01*
X126542800Y-130454400D02*
X127685800Y-130454400D01*
D45*
X158229300Y-83718400D02*
X152895300Y-83718400D01*
D44*
X154767280Y-109275880D02*
X154767280Y-109133640D01*
X173786800Y-104292400D02*
X175437800Y-104292400D01*
X165150800Y-115087400D02*
X163118800Y-115087400D01*
X159054800Y-103403400D02*
X159054800Y-99212400D01*
D42*
X138734800Y-83337400D02*
X138480800Y-83591400D01*
D44*
X128193800Y-112039400D02*
X128193800Y-112426081D01*
X127685800Y-130454400D02*
X129082800Y-131851400D01*
X133400800Y-112039400D02*
X135178800Y-112039400D01*
X127939800Y-111785400D02*
X128193800Y-112039400D01*
X172008800Y-121945400D02*
X172008800Y-123977400D01*
X141769601Y-118631199D02*
X142214600Y-118186200D01*
X109143800Y-91465400D02*
X109460801Y-91148399D01*
D41*
X176580800Y-106959400D02*
X175056800Y-106959400D01*
D44*
X169341800Y-80924400D02*
X169341800Y-82956400D01*
X168960800Y-120675400D02*
X168452800Y-120167400D01*
D41*
X172516800Y-108864400D02*
X173532800Y-108229400D01*
D44*
X141274800Y-119126000D02*
X141769601Y-118631199D01*
X126542804Y-112928400D02*
X126669802Y-113055398D01*
D45*
X136702800Y-114325400D02*
X138544300Y-112483900D01*
D44*
X144830800Y-115595400D02*
X144462999Y-115963201D01*
D42*
X113207800Y-119024400D02*
X111493300Y-119024400D01*
D44*
X166420800Y-116611400D02*
X166420800Y-116357400D01*
D45*
X153339800Y-88734900D02*
X153403300Y-88798400D01*
D42*
X136829800Y-87020400D02*
X135813800Y-88036400D01*
D45*
X128066800Y-117627400D02*
X129908300Y-117627400D01*
D44*
X110032800Y-87147400D02*
X113524801Y-90639401D01*
X160324800Y-114833400D02*
X154767280Y-109275880D01*
X170357800Y-83083400D02*
X171373800Y-83083400D01*
X125018800Y-112928400D02*
X126542804Y-112928400D01*
D45*
X129908300Y-117627400D02*
X129971800Y-117563900D01*
X133464300Y-117563900D02*
X134289800Y-116738400D01*
D44*
X128193800Y-112426081D02*
X128193800Y-113055406D01*
X168706800Y-105943400D02*
X168706800Y-104673400D01*
X110540800Y-88925400D02*
X110540800Y-87655400D01*
X114188240Y-94081600D02*
X119090440Y-94081600D01*
D45*
X136702800Y-114452400D02*
X136702800Y-114325400D01*
D44*
X129082800Y-131851400D02*
X129336800Y-131851400D01*
D45*
X132765800Y-121437400D02*
X132384800Y-121818400D01*
X159054800Y-96037400D02*
X159054800Y-99212400D01*
D42*
X136321800Y-85369400D02*
X136321800Y-84353400D01*
D44*
X163118800Y-121437400D02*
X167436800Y-121437400D01*
X168325800Y-118516400D02*
X166420800Y-116611400D01*
D41*
X167182800Y-105943400D02*
X168706800Y-105943400D01*
D42*
X111493300Y-119024400D02*
X111302800Y-118833900D01*
D45*
X132384800Y-117563900D02*
X133464300Y-117563900D01*
D44*
X129590800Y-113055400D02*
X131622800Y-113055400D01*
X167436800Y-121437400D02*
X168960800Y-122961400D01*
X110921800Y-128930400D02*
X110921800Y-129819400D01*
X167690800Y-96037400D02*
X175818800Y-96037400D01*
D42*
X102476300Y-117309900D02*
X102476300Y-116801900D01*
D44*
X108254800Y-89052400D02*
X111937800Y-89052400D01*
D42*
X147180300Y-100291900D02*
X147751800Y-100291900D01*
X136956800Y-82829400D02*
X137464800Y-82321400D01*
D44*
X113456125Y-90703400D02*
X112826800Y-90703400D01*
X164769800Y-118516400D02*
X168325800Y-118516400D01*
D45*
X123558300Y-117627400D02*
X125526800Y-117627400D01*
D42*
X138480800Y-83591400D02*
X137591800Y-84480400D01*
D44*
X109460801Y-91148399D02*
X109905800Y-90703400D01*
D41*
X175056800Y-108229400D02*
X176580800Y-108229400D01*
D44*
X107873800Y-91465400D02*
X109143800Y-91465400D01*
D41*
X178104800Y-108229400D02*
X178104800Y-106959400D01*
D44*
X138226800Y-121437400D02*
X138226800Y-119659400D01*
D42*
X106032300Y-118897400D02*
X104381300Y-118897400D01*
X138607800Y-85115400D02*
X137718800Y-86004400D01*
X145592800Y-101879400D02*
X147180300Y-100291900D01*
X134925412Y-87021012D02*
X135687412Y-86259012D01*
D44*
X113460802Y-90703400D02*
X113456125Y-90703400D01*
X141782800Y-88163400D02*
X143306800Y-88163400D01*
X149021800Y-111404400D02*
X149783800Y-112166400D01*
X172643800Y-83083400D02*
X173913800Y-83083400D01*
X166674800Y-84607400D02*
X165150800Y-86131400D01*
D45*
X153403300Y-88480900D02*
X156324300Y-85559900D01*
X125018800Y-112928400D02*
X125018800Y-113372900D01*
D42*
X107111800Y-115785900D02*
X108635800Y-115785900D01*
D44*
X115620800Y-87655400D02*
X114350800Y-87655400D01*
D42*
X142544800Y-105600220D02*
X142544800Y-101180900D01*
D44*
X172262800Y-118389400D02*
X172262800Y-120167400D01*
X141274800Y-120167400D02*
X141274800Y-119126000D01*
D42*
X140512800Y-82956400D02*
X139496800Y-83972400D01*
D44*
X157276800Y-111785400D02*
X158546800Y-113055400D01*
D42*
X109461300Y-118897400D02*
X107810300Y-118897400D01*
D44*
X133908800Y-131851400D02*
X135432800Y-131851400D01*
X175056800Y-106959400D02*
X175056800Y-106451400D01*
D41*
X170103800Y-108483400D02*
X171246800Y-108610400D01*
D42*
X142544800Y-101180900D02*
X143116300Y-100609400D01*
D44*
X149021800Y-111277400D02*
X149021800Y-111404400D01*
D41*
X173786800Y-105943400D02*
X170484800Y-107086400D01*
D42*
X103492300Y-115785900D02*
X105333800Y-115785900D01*
D45*
X147116800Y-100291900D02*
X146672300Y-99847400D01*
X165785800Y-88925400D02*
X170802300Y-88925400D01*
D44*
X110731300Y-92989400D02*
X109397800Y-92989400D01*
D42*
X104381300Y-118897400D02*
X103873300Y-118389400D01*
D45*
X170802300Y-88925400D02*
X170865800Y-88988900D01*
D41*
X172516800Y-108610400D02*
X172516800Y-108864400D01*
X175310800Y-116103400D02*
X173786800Y-116103400D01*
D42*
X145592800Y-106260900D02*
X145592800Y-101879400D01*
D44*
X114604800Y-100228400D02*
X113080800Y-100228400D01*
X111048800Y-129057400D02*
X111048800Y-130073400D01*
D41*
X124256800Y-130454400D02*
X125399800Y-130454400D01*
X171246800Y-115087400D02*
X170484800Y-114325400D01*
D44*
X163118800Y-118389400D02*
X163118800Y-119913400D01*
D42*
X110477300Y-115785900D02*
X112128300Y-115785900D01*
D41*
X115112800Y-104419400D02*
X115620800Y-104419400D01*
D44*
X143052800Y-108356400D02*
X142036800Y-109372400D01*
D45*
X138226800Y-121437400D02*
X132765800Y-121437400D01*
D44*
X166166800Y-105943400D02*
X165150800Y-104927400D01*
X175056800Y-106451400D02*
X174294800Y-105689400D01*
X111937800Y-89052400D02*
X113524801Y-90639401D01*
D45*
X153403300Y-88798400D02*
X153403300Y-88480900D01*
D41*
X109778800Y-99085400D02*
X115112800Y-104419400D01*
D44*
X137972800Y-110007400D02*
X140004800Y-110007400D01*
D42*
X102476300Y-116801900D02*
X101714300Y-116039900D01*
D41*
X172008800Y-107086400D02*
X173786800Y-105943400D01*
D44*
X169341800Y-82956400D02*
X169214800Y-83083400D01*
D45*
X151815800Y-88734900D02*
X153339800Y-88734900D01*
D44*
X119090440Y-94081600D02*
X119115840Y-94107000D01*
X113080800Y-87655400D02*
X111810800Y-87655400D01*
X145084800Y-86702900D02*
X144386300Y-89052400D01*
D41*
X106476800Y-108737400D02*
X107746799Y-108737400D01*
X121843800Y-130454400D02*
X123113800Y-130454400D01*
D44*
X167182800Y-105943400D02*
X166166800Y-105943400D01*
X169976800Y-104419400D02*
X171119800Y-104419400D01*
D41*
X172008800Y-115087400D02*
X171246800Y-115087400D01*
D44*
X163880800Y-87401400D02*
X162356800Y-88925400D01*
D42*
X138734800Y-82448400D02*
X138734800Y-83337400D01*
D44*
X164388800Y-123723400D02*
X163245800Y-123723400D01*
X130860800Y-131851400D02*
X132384800Y-131851400D01*
D42*
X113588800Y-117500400D02*
X113525300Y-117563900D01*
D45*
X125526800Y-117627400D02*
X125590300Y-117563900D01*
X125018800Y-113372900D02*
X123748800Y-114642900D01*
D44*
X106730800Y-87147400D02*
X110032800Y-87147400D01*
X168706800Y-104673400D02*
X168452800Y-104419400D01*
X145592800Y-115595400D02*
X144830800Y-115595400D01*
D42*
X113588800Y-116166900D02*
X113588800Y-117500400D01*
D45*
X147751800Y-100291900D02*
X147116800Y-100291900D01*
D41*
%TO.N,/CMODE*%
X139242800Y-80924400D02*
X142055800Y-80924400D01*
X142798800Y-80181400D02*
X142798800Y-79019400D01*
X142055800Y-80924400D02*
X142798800Y-80181400D01*
%TO.N,Net-(C10-Pad1)*%
X135813800Y-98793489D02*
X135813800Y-102058400D01*
X133392857Y-96372546D02*
X135813800Y-98793489D01*
X133392857Y-95743221D02*
X133392857Y-96372546D01*
%TO.N,Net-(C14-Pad1)*%
X151689299Y-106642399D02*
X162865299Y-106642399D01*
X168262300Y-112039400D02*
X168262300Y-112293400D01*
X168325800Y-112356900D02*
X168262300Y-112293400D01*
X151244300Y-106197400D02*
X151689299Y-106642399D01*
X168198800Y-113563400D02*
X168198800Y-112356900D01*
X162865299Y-106642399D02*
X168262300Y-112039400D01*
X168198800Y-112356900D02*
X168262300Y-112293400D01*
%TO.N,/PG*%
X137718800Y-79019400D02*
X137718800Y-76479400D01*
%TO.N,/CE*%
X132403800Y-93116400D02*
X132232400Y-93116400D01*
X145338800Y-79019400D02*
X145338800Y-80181400D01*
X145338800Y-80181400D02*
X132403800Y-93116400D01*
D44*
%TO.N,Net-(U1-SW1)*%
X126822200Y-84582000D02*
X126822200Y-85654477D01*
X126822200Y-85654477D02*
X126822200Y-86283802D01*
X127304800Y-84099400D02*
X126822200Y-84582000D01*
D41*
%TO.N,/P1*%
X151371300Y-117436900D02*
X149656800Y-119151400D01*
X149656800Y-119151400D02*
X146291300Y-119151400D01*
X151371300Y-109181900D02*
X151371300Y-117436900D01*
D45*
%TO.N,+3V3*%
X139839201Y-130542801D02*
X140284200Y-130987800D01*
X139559801Y-122644399D02*
X139559801Y-130263401D01*
X139559801Y-130263401D02*
X139839201Y-130542801D01*
X152423301Y-98740401D02*
X152006300Y-98323400D01*
X152423301Y-103563574D02*
X152423301Y-98740401D01*
X149783800Y-106203075D02*
X152423301Y-103563574D01*
X140004800Y-122199400D02*
X139559801Y-122644399D01*
X149783800Y-106832400D02*
X149783800Y-106203075D01*
D44*
%TO.N,/Power Input/Power_load*%
X150926800Y-76479400D02*
X150926800Y-75537400D01*
D45*
X150228300Y-81305400D02*
X150228300Y-81432400D01*
D44*
X150926800Y-75537400D02*
X152270800Y-74193400D01*
X152270800Y-74193400D02*
X153720800Y-74193400D01*
X158292800Y-74193400D02*
X159816800Y-74193400D01*
X155244800Y-74193400D02*
X156768800Y-74193400D01*
D45*
X150228300Y-81432400D02*
X148450300Y-83210400D01*
D41*
%TO.N,/CB_EN*%
X113691364Y-104548509D02*
X113691364Y-105632754D01*
X113691364Y-105632754D02*
X112253289Y-107070829D01*
%TO.N,Net-(R5-Pad2)*%
X135234319Y-85517081D02*
X133192520Y-87558880D01*
X135234319Y-83930318D02*
X135234319Y-85517081D01*
X133192520Y-88900595D02*
X133192520Y-89529920D01*
X133192520Y-87558880D02*
X133192520Y-88900595D01*
%TO.N,Net-(U3-VC2)*%
X154736800Y-116865400D02*
X154736800Y-121564400D01*
%TO.N,Net-(U3-VC1)*%
X157276800Y-118262400D02*
X157276800Y-121564400D01*
D44*
%TO.N,Net-(D1-A)*%
X101396800Y-89687400D02*
X102920800Y-89687400D01*
X108762800Y-78003400D02*
X108762800Y-78257400D01*
X104444800Y-89687400D02*
X105968800Y-89687400D01*
D45*
X100126800Y-97053400D02*
X100126800Y-97370900D01*
D44*
X100126800Y-97053400D02*
X100126800Y-97561400D01*
D45*
X103428800Y-99910900D02*
X102984300Y-99466400D01*
D44*
X100595799Y-88456401D02*
X100126800Y-88925400D01*
X102158800Y-84099400D02*
X101396800Y-83337400D01*
X100126800Y-97561400D02*
X101396800Y-97561400D01*
X103174800Y-83337400D02*
X104952800Y-83337400D01*
X100126800Y-88925400D02*
X100126800Y-97053400D01*
X106476800Y-84099400D02*
X102158800Y-84099400D01*
X108762800Y-79527400D02*
X108762800Y-80797400D01*
X106476800Y-84099400D02*
X106476800Y-85369400D01*
D45*
X103428800Y-100799900D02*
X103428800Y-99910900D01*
D44*
X100976799Y-88456401D02*
X100595799Y-88456401D01*
X101396800Y-87147400D02*
X101396800Y-88417400D01*
X108762800Y-75971400D02*
X108762800Y-77114400D01*
X101396800Y-84607400D02*
X101396800Y-85877400D01*
X108762800Y-80797400D02*
X100976799Y-88456401D01*
D41*
%TO.N,Net-(D1-K)*%
X147878800Y-80181400D02*
X147878800Y-79019400D01*
X141465300Y-85813900D02*
X132334000Y-94945200D01*
X132334000Y-94945200D02*
X122656600Y-94945200D01*
X147878800Y-80181400D02*
X142246300Y-85813900D01*
X147580301Y-75018901D02*
X147878800Y-75317400D01*
X135877299Y-75018901D02*
X147580301Y-75018901D01*
X147878800Y-79019400D02*
X147878800Y-75463400D01*
X147878800Y-75317400D02*
X147878800Y-76479400D01*
X135432800Y-75463400D02*
X135877299Y-75018901D01*
X142246300Y-85813900D02*
X141465300Y-85813900D01*
%TO.N,Net-(D3-A)*%
X121208800Y-75463400D02*
X121208800Y-82702400D01*
X120040400Y-83870800D02*
X120040400Y-88138000D01*
X121208800Y-82702400D02*
X120040400Y-83870800D01*
%TO.N,Net-(Q2-D)*%
X165531800Y-112293400D02*
X165404800Y-112420400D01*
X166230300Y-112420400D02*
X166357300Y-112293400D01*
X166357300Y-112293400D02*
X165531800Y-112293400D01*
%TD*%
%TA.AperFunction,Conductor*%
%TO.N,/Power Input/REGN*%
G36*
X178046921Y-90215402D02*
G01*
X178093414Y-90269058D01*
X178104800Y-90321400D01*
X178104800Y-90377964D01*
X178084798Y-90446085D01*
X178031142Y-90492578D01*
X177960868Y-90502682D01*
X177934770Y-90496021D01*
X177875483Y-90473909D01*
X177815873Y-90467500D01*
X173720135Y-90467500D01*
X173720114Y-90467502D01*
X173660519Y-90473908D01*
X173660518Y-90473908D01*
X173525673Y-90524201D01*
X173525670Y-90524203D01*
X173410453Y-90610453D01*
X173324203Y-90725670D01*
X173324201Y-90725673D01*
X173273909Y-90860515D01*
X173267500Y-90920121D01*
X173267500Y-90920127D01*
X173267500Y-92949739D01*
X173267501Y-94895400D01*
X173247499Y-94963521D01*
X173193843Y-95010014D01*
X173141501Y-95021400D01*
X141274800Y-95021400D01*
X141274800Y-108103400D01*
X141254798Y-108171521D01*
X141201142Y-108218014D01*
X141148800Y-108229400D01*
X121462798Y-108229400D01*
X114895705Y-114796495D01*
X114833393Y-114830521D01*
X114806610Y-114833400D01*
X105721664Y-114833400D01*
X105653543Y-114813398D01*
X105607050Y-114759742D01*
X105596946Y-114689468D01*
X105620796Y-114631891D01*
X105625546Y-114625546D01*
X105711796Y-114510331D01*
X105762091Y-114375483D01*
X105768500Y-114315873D01*
X105768499Y-110260399D01*
X105788501Y-110192279D01*
X105842157Y-110145786D01*
X105894499Y-110134400D01*
X113842800Y-110134400D01*
X120663895Y-103313305D01*
X120726207Y-103279279D01*
X120752990Y-103276400D01*
X136448800Y-103276400D01*
X136448800Y-102819199D01*
X136468802Y-102751078D01*
X136481731Y-102735034D01*
X136481677Y-102734989D01*
X136603756Y-102586235D01*
X136603758Y-102586233D01*
X136691555Y-102421978D01*
X136745620Y-102243750D01*
X136745621Y-102243741D01*
X136763875Y-102058403D01*
X136763875Y-102058396D01*
X136745621Y-101873058D01*
X136745620Y-101873056D01*
X136745620Y-101873050D01*
X136691555Y-101694822D01*
X136603758Y-101530567D01*
X136557885Y-101474670D01*
X136542900Y-101456411D01*
X136515147Y-101391064D01*
X136514300Y-101376478D01*
X136514300Y-98724497D01*
X136514299Y-98724492D01*
X136510280Y-98704289D01*
X136487380Y-98589161D01*
X136487166Y-98588645D01*
X136474293Y-98557567D01*
X136458391Y-98519175D01*
X136448800Y-98470957D01*
X136448800Y-91873246D01*
X136468802Y-91805125D01*
X136485705Y-91784151D01*
X138037552Y-90232305D01*
X138099864Y-90198279D01*
X138126647Y-90195400D01*
X177978800Y-90195400D01*
X178046921Y-90215402D01*
G37*
%TD.AperFunction*%
%TD*%
%TA.AperFunction,Conductor*%
%TO.N,GND*%
G36*
X179814421Y-72699902D02*
G01*
X179860914Y-72753558D01*
X179872300Y-72805900D01*
X179872300Y-132984900D01*
X179852298Y-133053021D01*
X179798642Y-133099514D01*
X179746300Y-133110900D01*
X99247300Y-133110900D01*
X99179179Y-133090898D01*
X99132686Y-133037242D01*
X99121300Y-132984900D01*
X99121300Y-123966386D01*
X100067500Y-123966386D01*
X100067500Y-128179613D01*
X100073913Y-128250193D01*
X100124520Y-128412602D01*
X100124521Y-128412603D01*
X100124522Y-128412606D01*
X100178298Y-128501562D01*
X100212528Y-128558185D01*
X100212532Y-128558190D01*
X100332809Y-128678467D01*
X100332814Y-128678471D01*
X100332815Y-128678472D01*
X100478394Y-128766478D01*
X100637548Y-128816071D01*
X100696632Y-128855431D01*
X100725058Y-128920489D01*
X100716471Y-128984583D01*
X100672955Y-129089639D01*
X100657500Y-129207036D01*
X100657500Y-130355759D01*
X100657501Y-130355768D01*
X100672956Y-130473160D01*
X100672956Y-130473161D01*
X100733156Y-130618499D01*
X100733464Y-130619241D01*
X100829718Y-130744682D01*
X100955159Y-130840936D01*
X101101238Y-130901444D01*
X101218639Y-130916900D01*
X101707360Y-130916899D01*
X101824762Y-130901444D01*
X101970841Y-130840936D01*
X102021297Y-130802219D01*
X102087516Y-130776620D01*
X102157065Y-130790885D01*
X102174699Y-130802216D01*
X102225159Y-130840936D01*
X102371238Y-130901444D01*
X102488639Y-130916900D01*
X102977360Y-130916899D01*
X103094762Y-130901444D01*
X103240841Y-130840936D01*
X103291297Y-130802219D01*
X103357516Y-130776620D01*
X103427065Y-130790885D01*
X103444699Y-130802216D01*
X103495159Y-130840936D01*
X103641238Y-130901444D01*
X103758639Y-130916900D01*
X104247360Y-130916899D01*
X104364762Y-130901444D01*
X104510841Y-130840936D01*
X104561297Y-130802219D01*
X104627516Y-130776620D01*
X104697065Y-130790885D01*
X104714699Y-130802216D01*
X104765159Y-130840936D01*
X104911238Y-130901444D01*
X105028639Y-130916900D01*
X105517360Y-130916899D01*
X105634762Y-130901444D01*
X105780841Y-130840936D01*
X105906282Y-130744682D01*
X106002536Y-130619241D01*
X106063044Y-130473162D01*
X106078500Y-130355761D01*
X106078499Y-129207040D01*
X106078499Y-129207039D01*
X106078498Y-129207031D01*
X106076328Y-129190553D01*
X106063044Y-129089638D01*
X106019527Y-128984580D01*
X106011939Y-128913994D01*
X106043718Y-128850507D01*
X106098449Y-128816072D01*
X106257606Y-128766478D01*
X106403185Y-128678472D01*
X106523472Y-128558185D01*
X106560173Y-128497473D01*
X106612530Y-128449527D01*
X106682500Y-128437497D01*
X106747866Y-128465206D01*
X106775825Y-128497472D01*
X106812528Y-128558185D01*
X106812530Y-128558187D01*
X106812532Y-128558190D01*
X106932809Y-128678467D01*
X106932814Y-128678471D01*
X106932815Y-128678472D01*
X107078394Y-128766478D01*
X107237548Y-128816071D01*
X107296632Y-128855431D01*
X107325058Y-128920489D01*
X107316471Y-128984583D01*
X107272955Y-129089639D01*
X107257500Y-129207036D01*
X107257500Y-130355759D01*
X107257501Y-130355768D01*
X107272956Y-130473160D01*
X107272956Y-130473161D01*
X107333156Y-130618499D01*
X107333464Y-130619241D01*
X107429718Y-130744682D01*
X107555159Y-130840936D01*
X107701238Y-130901444D01*
X107818639Y-130916900D01*
X108307360Y-130916899D01*
X108424762Y-130901444D01*
X108570841Y-130840936D01*
X108621297Y-130802219D01*
X108687516Y-130776620D01*
X108757065Y-130790885D01*
X108774699Y-130802216D01*
X108825159Y-130840936D01*
X108971238Y-130901444D01*
X109088639Y-130916900D01*
X109577360Y-130916899D01*
X109694762Y-130901444D01*
X109840841Y-130840936D01*
X109891297Y-130802219D01*
X109957516Y-130776620D01*
X110027065Y-130790885D01*
X110044699Y-130802216D01*
X110095159Y-130840936D01*
X110241238Y-130901444D01*
X110358639Y-130916900D01*
X110847360Y-130916899D01*
X110964762Y-130901444D01*
X111110841Y-130840936D01*
X111161297Y-130802219D01*
X111227516Y-130776620D01*
X111297065Y-130790885D01*
X111314699Y-130802216D01*
X111365159Y-130840936D01*
X111511238Y-130901444D01*
X111628639Y-130916900D01*
X112117360Y-130916899D01*
X112234762Y-130901444D01*
X112380841Y-130840936D01*
X112506282Y-130744682D01*
X112602536Y-130619241D01*
X112663044Y-130473162D01*
X112678500Y-130355761D01*
X112678499Y-129207040D01*
X112678499Y-129207039D01*
X112678498Y-129207031D01*
X112676328Y-129190553D01*
X112663044Y-129089638D01*
X112619527Y-128984580D01*
X112612368Y-128917982D01*
X119697500Y-128917982D01*
X119697500Y-129918009D01*
X119708000Y-130020797D01*
X119763185Y-130187334D01*
X119855288Y-130336656D01*
X119855293Y-130336662D01*
X119979337Y-130460706D01*
X119979343Y-130460711D01*
X119979344Y-130460712D01*
X119999529Y-130473162D01*
X120128665Y-130552814D01*
X120295196Y-130607997D01*
X120295197Y-130607997D01*
X120295203Y-130607999D01*
X120397991Y-130618500D01*
X121023008Y-130618499D01*
X121023009Y-130618499D01*
X121125797Y-130607999D01*
X121292334Y-130552814D01*
X121441656Y-130460712D01*
X121486924Y-130415444D01*
X121533905Y-130368464D01*
X121596217Y-130334438D01*
X121667032Y-130339503D01*
X121712095Y-130368464D01*
X121804337Y-130460706D01*
X121804343Y-130460711D01*
X121804344Y-130460712D01*
X121824529Y-130473162D01*
X121953665Y-130552814D01*
X122120196Y-130607997D01*
X122120197Y-130607997D01*
X122120203Y-130607999D01*
X122222991Y-130618500D01*
X122848008Y-130618499D01*
X122848009Y-130618499D01*
X122950797Y-130607999D01*
X123117334Y-130552814D01*
X123266656Y-130460712D01*
X123390712Y-130336656D01*
X123482814Y-130187334D01*
X123537999Y-130020797D01*
X123548500Y-129918009D01*
X123548499Y-129008810D01*
X124482500Y-129008810D01*
X124482500Y-129507179D01*
X124485334Y-129543202D01*
X124530132Y-129697395D01*
X124611866Y-129835599D01*
X124611869Y-129835603D01*
X124725396Y-129949130D01*
X124725400Y-129949133D01*
X124725402Y-129949135D01*
X124863607Y-130030869D01*
X125017796Y-130075665D01*
X125053819Y-130078500D01*
X125452180Y-130078499D01*
X125488204Y-130075665D01*
X125642393Y-130030869D01*
X125698861Y-129997473D01*
X125767676Y-129980014D01*
X125827138Y-129997473D01*
X125883607Y-130030869D01*
X126037796Y-130075665D01*
X126073819Y-130078500D01*
X126472180Y-130078499D01*
X126508204Y-130075665D01*
X126662393Y-130030869D01*
X126800598Y-129949135D01*
X126914135Y-129835598D01*
X126995869Y-129697393D01*
X127040665Y-129543204D01*
X127043500Y-129507181D01*
X127043499Y-129008820D01*
X127040665Y-128972796D01*
X126995869Y-128818607D01*
X126914135Y-128680402D01*
X126914133Y-128680400D01*
X126914130Y-128680396D01*
X126800603Y-128566869D01*
X126800599Y-128566866D01*
X126800598Y-128566865D01*
X126662393Y-128485131D01*
X126585298Y-128462733D01*
X126508202Y-128440334D01*
X126472189Y-128437500D01*
X126073820Y-128437500D01*
X126037797Y-128440334D01*
X125883605Y-128485131D01*
X125827138Y-128518526D01*
X125758322Y-128535985D01*
X125698862Y-128518526D01*
X125642394Y-128485131D01*
X125488202Y-128440334D01*
X125452189Y-128437500D01*
X125053820Y-128437500D01*
X125017797Y-128440334D01*
X124863604Y-128485132D01*
X124725400Y-128566866D01*
X124725396Y-128566869D01*
X124611869Y-128680396D01*
X124611866Y-128680400D01*
X124530132Y-128818604D01*
X124530131Y-128818606D01*
X124530131Y-128818607D01*
X124523266Y-128842236D01*
X124485334Y-128972797D01*
X124482500Y-129008810D01*
X123548499Y-129008810D01*
X123548499Y-128917992D01*
X123538346Y-128818604D01*
X123537999Y-128815202D01*
X123482814Y-128648665D01*
X123390711Y-128499343D01*
X123390706Y-128499337D01*
X123266662Y-128375293D01*
X123266656Y-128375288D01*
X123117334Y-128283185D01*
X122950803Y-128228002D01*
X122950791Y-128228000D01*
X122848017Y-128217500D01*
X122222990Y-128217500D01*
X122120202Y-128228000D01*
X121953665Y-128283185D01*
X121804343Y-128375288D01*
X121804337Y-128375293D01*
X121712095Y-128467536D01*
X121649783Y-128501562D01*
X121578968Y-128496497D01*
X121533905Y-128467536D01*
X121441662Y-128375293D01*
X121441656Y-128375288D01*
X121292334Y-128283185D01*
X121125803Y-128228002D01*
X121125791Y-128228000D01*
X121023017Y-128217500D01*
X120397990Y-128217500D01*
X120295202Y-128228000D01*
X120128665Y-128283185D01*
X119979343Y-128375288D01*
X119979337Y-128375293D01*
X119855293Y-128499337D01*
X119855288Y-128499343D01*
X119763185Y-128648665D01*
X119708002Y-128815196D01*
X119708000Y-128815208D01*
X119697500Y-128917982D01*
X112612368Y-128917982D01*
X112611939Y-128913994D01*
X112643718Y-128850507D01*
X112698449Y-128816072D01*
X112857606Y-128766478D01*
X113003185Y-128678472D01*
X113123472Y-128558185D01*
X113211478Y-128412606D01*
X113262086Y-128250196D01*
X113268500Y-128179616D01*
X113268500Y-127857049D01*
X113288502Y-127788928D01*
X113342158Y-127742435D01*
X113412432Y-127732331D01*
X113477012Y-127761825D01*
X113493338Y-127778902D01*
X113495033Y-127781046D01*
X113614949Y-127900962D01*
X113614955Y-127900967D01*
X113614956Y-127900968D01*
X113759303Y-127990003D01*
X113920292Y-128043349D01*
X114019655Y-128053500D01*
X114966344Y-128053499D01*
X114966345Y-128053499D01*
X114986216Y-128051469D01*
X115065708Y-128043349D01*
X115226697Y-127990003D01*
X115371044Y-127900968D01*
X115490968Y-127781044D01*
X115580003Y-127636697D01*
X115580005Y-127636692D01*
X115583855Y-127630451D01*
X115585339Y-127631366D01*
X115626191Y-127584968D01*
X115693473Y-127565500D01*
X116992527Y-127565500D01*
X117060648Y-127585502D01*
X117100691Y-127631347D01*
X117102145Y-127630451D01*
X117105995Y-127636692D01*
X117105997Y-127636697D01*
X117193711Y-127778902D01*
X117195032Y-127781044D01*
X117195037Y-127781050D01*
X117314949Y-127900962D01*
X117314955Y-127900967D01*
X117314956Y-127900968D01*
X117459303Y-127990003D01*
X117620292Y-128043349D01*
X117719655Y-128053500D01*
X118666344Y-128053499D01*
X118666345Y-128053499D01*
X118686216Y-128051469D01*
X118765708Y-128043349D01*
X118926697Y-127990003D01*
X119071044Y-127900968D01*
X119190968Y-127781044D01*
X119280003Y-127636697D01*
X119280006Y-127636687D01*
X119283105Y-127630045D01*
X119286014Y-127631401D01*
X119318340Y-127584814D01*
X119383924Y-127557625D01*
X119397431Y-127556899D01*
X120748665Y-127556899D01*
X120748672Y-127556899D01*
X120808283Y-127550491D01*
X120943131Y-127500196D01*
X120945222Y-127498630D01*
X120947667Y-127497718D01*
X120951040Y-127495877D01*
X120951304Y-127496361D01*
X121011741Y-127473821D01*
X121020729Y-127473500D01*
X121578693Y-127473500D01*
X121578694Y-127473500D01*
X121615569Y-127470598D01*
X121773398Y-127424744D01*
X121914865Y-127341081D01*
X122031081Y-127224865D01*
X122114744Y-127083398D01*
X122133509Y-127018810D01*
X124482500Y-127018810D01*
X124482500Y-127517179D01*
X124485334Y-127553202D01*
X124494563Y-127584968D01*
X124509590Y-127636692D01*
X124530132Y-127707395D01*
X124611866Y-127845599D01*
X124611869Y-127845603D01*
X124725396Y-127959130D01*
X124725400Y-127959133D01*
X124725402Y-127959135D01*
X124863607Y-128040869D01*
X125017796Y-128085665D01*
X125053819Y-128088500D01*
X125452180Y-128088499D01*
X125488204Y-128085665D01*
X125642393Y-128040869D01*
X125698861Y-128007473D01*
X125767676Y-127990014D01*
X125827138Y-128007473D01*
X125883607Y-128040869D01*
X126037796Y-128085665D01*
X126073819Y-128088500D01*
X126472180Y-128088499D01*
X126508204Y-128085665D01*
X126662393Y-128040869D01*
X126800598Y-127959135D01*
X126914135Y-127845598D01*
X126995869Y-127707393D01*
X127040665Y-127553204D01*
X127043500Y-127517181D01*
X127043500Y-127485521D01*
X131884300Y-127485521D01*
X131884300Y-129105264D01*
X131884302Y-129105285D01*
X131890708Y-129164880D01*
X131890708Y-129164881D01*
X131941001Y-129299726D01*
X131941003Y-129299729D01*
X132027253Y-129414946D01*
X132084861Y-129458071D01*
X132142469Y-129501196D01*
X132142471Y-129501196D01*
X132142473Y-129501198D01*
X132202830Y-129523709D01*
X132277314Y-129551490D01*
X132277317Y-129551491D01*
X132336927Y-129557900D01*
X133956672Y-129557899D01*
X134016283Y-129551491D01*
X134151131Y-129501196D01*
X134266346Y-129414946D01*
X134315933Y-129348706D01*
X134372768Y-129306160D01*
X134443583Y-129301096D01*
X134505895Y-129335121D01*
X134517663Y-129348702D01*
X134567254Y-129414946D01*
X134682469Y-129501196D01*
X134682471Y-129501196D01*
X134682473Y-129501198D01*
X134742830Y-129523709D01*
X134817314Y-129551490D01*
X134817317Y-129551491D01*
X134876927Y-129557900D01*
X136496672Y-129557899D01*
X136556283Y-129551491D01*
X136691131Y-129501196D01*
X136806346Y-129414946D01*
X136892596Y-129299731D01*
X136942891Y-129164883D01*
X136949300Y-129105273D01*
X136949299Y-127485528D01*
X136942891Y-127425917D01*
X136911249Y-127341081D01*
X136892598Y-127291073D01*
X136892596Y-127291070D01*
X136892596Y-127291069D01*
X136849471Y-127233461D01*
X136806346Y-127175853D01*
X136729391Y-127118245D01*
X136691131Y-127089604D01*
X136691129Y-127089603D01*
X136691126Y-127089601D01*
X136556283Y-127039309D01*
X136556286Y-127039309D01*
X136496673Y-127032900D01*
X134876935Y-127032900D01*
X134876914Y-127032902D01*
X134817319Y-127039308D01*
X134817318Y-127039308D01*
X134682473Y-127089601D01*
X134682470Y-127089603D01*
X134567255Y-127175852D01*
X134567254Y-127175854D01*
X134517666Y-127242093D01*
X134460832Y-127284639D01*
X134390016Y-127289703D01*
X134327704Y-127255678D01*
X134315936Y-127242097D01*
X134266346Y-127175854D01*
X134266344Y-127175853D01*
X134266344Y-127175852D01*
X134208414Y-127132486D01*
X134151131Y-127089604D01*
X134151129Y-127089603D01*
X134151126Y-127089601D01*
X134016283Y-127039309D01*
X134016286Y-127039309D01*
X133956673Y-127032900D01*
X132336935Y-127032900D01*
X132336914Y-127032902D01*
X132277319Y-127039308D01*
X132277318Y-127039308D01*
X132142473Y-127089601D01*
X132142470Y-127089603D01*
X132027253Y-127175853D01*
X131941003Y-127291070D01*
X131941001Y-127291073D01*
X131890709Y-127425915D01*
X131884300Y-127485521D01*
X127043500Y-127485521D01*
X127043499Y-127018820D01*
X127040665Y-126982796D01*
X126995869Y-126828607D01*
X126914135Y-126690402D01*
X126914133Y-126690400D01*
X126914130Y-126690396D01*
X126800603Y-126576869D01*
X126800599Y-126576866D01*
X126800598Y-126576865D01*
X126662393Y-126495131D01*
X126585298Y-126472733D01*
X126508202Y-126450334D01*
X126472189Y-126447500D01*
X126073820Y-126447500D01*
X126037797Y-126450334D01*
X125883605Y-126495131D01*
X125827138Y-126528526D01*
X125758322Y-126545985D01*
X125698862Y-126528526D01*
X125642394Y-126495131D01*
X125488202Y-126450334D01*
X125452189Y-126447500D01*
X125053820Y-126447500D01*
X125017797Y-126450334D01*
X124863604Y-126495132D01*
X124725400Y-126576866D01*
X124725396Y-126576869D01*
X124611869Y-126690396D01*
X124611866Y-126690400D01*
X124530132Y-126828604D01*
X124485334Y-126982797D01*
X124482500Y-127018810D01*
X122133509Y-127018810D01*
X122160598Y-126925569D01*
X122163500Y-126888694D01*
X122163500Y-126649500D01*
X122183502Y-126581379D01*
X122237158Y-126534886D01*
X122289500Y-126523500D01*
X123453693Y-126523500D01*
X123453694Y-126523500D01*
X123490569Y-126520598D01*
X123648398Y-126474744D01*
X123789865Y-126391081D01*
X123906081Y-126274865D01*
X123989744Y-126133398D01*
X124035598Y-125975569D01*
X124038500Y-125938694D01*
X124038500Y-125507306D01*
X124035598Y-125470431D01*
X123989744Y-125312602D01*
X123906081Y-125171135D01*
X123906076Y-125171129D01*
X123789870Y-125054923D01*
X123789863Y-125054917D01*
X123648401Y-124971257D01*
X123490568Y-124925401D01*
X123456595Y-124922728D01*
X123453694Y-124922500D01*
X123453693Y-124922500D01*
X122289500Y-124922500D01*
X122221379Y-124902498D01*
X122174886Y-124848842D01*
X122163500Y-124796500D01*
X122163500Y-124623586D01*
X124627500Y-124623586D01*
X124627500Y-124972403D01*
X124630234Y-125007153D01*
X124673446Y-125155891D01*
X124752282Y-125289194D01*
X124752287Y-125289201D01*
X124861798Y-125398712D01*
X124861805Y-125398717D01*
X124995108Y-125477553D01*
X124995111Y-125477553D01*
X124995113Y-125477555D01*
X125143844Y-125520765D01*
X125178595Y-125523500D01*
X125677404Y-125523499D01*
X125712156Y-125520765D01*
X125860887Y-125477555D01*
X125860889Y-125477553D01*
X125860891Y-125477553D01*
X125927542Y-125438135D01*
X125994198Y-125398715D01*
X126103715Y-125289198D01*
X126173537Y-125171136D01*
X126182553Y-125155891D01*
X126182553Y-125155889D01*
X126182555Y-125155887D01*
X126225765Y-125007156D01*
X126228500Y-124972405D01*
X126228499Y-124623596D01*
X126228498Y-124623586D01*
X126727500Y-124623586D01*
X126727500Y-124972403D01*
X126730234Y-125007153D01*
X126773446Y-125155891D01*
X126852282Y-125289194D01*
X126852287Y-125289201D01*
X126961798Y-125398712D01*
X126961805Y-125398717D01*
X127095108Y-125477553D01*
X127095111Y-125477553D01*
X127095113Y-125477555D01*
X127243844Y-125520765D01*
X127278595Y-125523500D01*
X127777404Y-125523499D01*
X127812156Y-125520765D01*
X127960887Y-125477555D01*
X127960889Y-125477553D01*
X127960891Y-125477553D01*
X128027542Y-125438135D01*
X128094198Y-125398715D01*
X128203715Y-125289198D01*
X128273537Y-125171136D01*
X128282553Y-125155891D01*
X128282553Y-125155889D01*
X128282555Y-125155887D01*
X128325765Y-125007156D01*
X128328500Y-124972405D01*
X128328499Y-124623596D01*
X128325765Y-124588844D01*
X128282555Y-124440113D01*
X128282553Y-124440111D01*
X128282553Y-124440108D01*
X128203717Y-124306805D01*
X128203712Y-124306798D01*
X128094201Y-124197287D01*
X128094194Y-124197282D01*
X127960891Y-124118446D01*
X127812154Y-124075234D01*
X127787579Y-124073300D01*
X128772500Y-124073300D01*
X128772500Y-124542699D01*
X128775356Y-124578986D01*
X128775358Y-124578998D01*
X128820507Y-124734398D01*
X128902880Y-124873683D01*
X128902885Y-124873690D01*
X129017309Y-124988114D01*
X129017316Y-124988119D01*
X129156601Y-125070492D01*
X129156602Y-125070492D01*
X129156605Y-125070494D01*
X129312007Y-125115643D01*
X129348300Y-125118499D01*
X129348303Y-125118500D01*
X129348310Y-125118500D01*
X129757697Y-125118500D01*
X129757698Y-125118499D01*
X129793993Y-125115643D01*
X129949395Y-125070494D01*
X129949399Y-125070492D01*
X129968859Y-125058983D01*
X130037674Y-125041522D01*
X130097141Y-125058983D01*
X130116602Y-125070493D01*
X130116604Y-125070493D01*
X130116605Y-125070494D01*
X130272007Y-125115643D01*
X130308300Y-125118499D01*
X130308303Y-125118500D01*
X130308310Y-125118500D01*
X130717697Y-125118500D01*
X130717698Y-125118499D01*
X130753993Y-125115643D01*
X130909395Y-125070494D01*
X131048687Y-124988117D01*
X131163117Y-124873687D01*
X131245494Y-124734395D01*
X131290643Y-124578993D01*
X131293499Y-124542698D01*
X131293500Y-124542697D01*
X131293500Y-124073302D01*
X131293499Y-124073300D01*
X131290643Y-124037013D01*
X131290643Y-124037007D01*
X131245494Y-123881605D01*
X131163117Y-123742313D01*
X131163116Y-123742312D01*
X131163114Y-123742309D01*
X131048690Y-123627885D01*
X131048683Y-123627880D01*
X130909398Y-123545507D01*
X130883731Y-123538050D01*
X130875056Y-123535529D01*
X130753998Y-123500358D01*
X130753994Y-123500357D01*
X130753993Y-123500357D01*
X130753991Y-123500356D01*
X130753986Y-123500356D01*
X130717698Y-123497500D01*
X130717690Y-123497500D01*
X130308310Y-123497500D01*
X130308302Y-123497500D01*
X130272013Y-123500356D01*
X130272009Y-123500356D01*
X130272007Y-123500357D01*
X130116605Y-123545506D01*
X130116603Y-123545506D01*
X130116603Y-123545507D01*
X130097137Y-123557019D01*
X130028320Y-123574477D01*
X129968863Y-123557019D01*
X129963815Y-123554033D01*
X129949395Y-123545506D01*
X129793993Y-123500357D01*
X129793989Y-123500356D01*
X129793986Y-123500356D01*
X129757698Y-123497500D01*
X129757690Y-123497500D01*
X129348310Y-123497500D01*
X129348302Y-123497500D01*
X129312013Y-123500356D01*
X129312001Y-123500358D01*
X129156601Y-123545507D01*
X129017316Y-123627880D01*
X129017309Y-123627885D01*
X128902885Y-123742309D01*
X128902880Y-123742316D01*
X128820507Y-123881601D01*
X128775358Y-124037001D01*
X128775356Y-124037013D01*
X128772500Y-124073300D01*
X127787579Y-124073300D01*
X127777413Y-124072500D01*
X127278596Y-124072500D01*
X127243846Y-124075234D01*
X127095108Y-124118446D01*
X126961805Y-124197282D01*
X126961798Y-124197287D01*
X126852287Y-124306798D01*
X126852282Y-124306805D01*
X126773446Y-124440108D01*
X126730234Y-124588845D01*
X126727500Y-124623586D01*
X126228498Y-124623586D01*
X126225765Y-124588844D01*
X126182555Y-124440113D01*
X126182553Y-124440111D01*
X126182553Y-124440108D01*
X126103717Y-124306805D01*
X126103712Y-124306798D01*
X125994201Y-124197287D01*
X125994194Y-124197282D01*
X125860891Y-124118446D01*
X125712154Y-124075234D01*
X125677413Y-124072500D01*
X125178596Y-124072500D01*
X125143846Y-124075234D01*
X124995108Y-124118446D01*
X124861805Y-124197282D01*
X124861798Y-124197287D01*
X124752287Y-124306798D01*
X124752282Y-124306805D01*
X124673446Y-124440108D01*
X124630234Y-124588845D01*
X124627500Y-124623586D01*
X122163500Y-124623586D01*
X122163500Y-124557306D01*
X122160598Y-124520432D01*
X122160598Y-124520431D01*
X122158543Y-124513358D01*
X122114744Y-124362602D01*
X122031081Y-124221135D01*
X122031076Y-124221129D01*
X121914870Y-124104923D01*
X121914863Y-124104917D01*
X121773401Y-124021257D01*
X121615568Y-123975401D01*
X121581595Y-123972728D01*
X121578694Y-123972500D01*
X121578693Y-123972500D01*
X121327299Y-123972500D01*
X121259178Y-123952498D01*
X121212685Y-123898842D01*
X121201299Y-123846500D01*
X121201299Y-123198535D01*
X121201299Y-123198528D01*
X121194891Y-123138917D01*
X121158549Y-123041478D01*
X121144598Y-123004073D01*
X121144596Y-123004070D01*
X121144596Y-123004069D01*
X121101471Y-122946461D01*
X121058346Y-122888853D01*
X120981391Y-122831245D01*
X120943131Y-122802604D01*
X120943129Y-122802603D01*
X120943126Y-122802601D01*
X120808283Y-122752309D01*
X120808286Y-122752309D01*
X120748673Y-122745900D01*
X116842935Y-122745900D01*
X116842914Y-122745902D01*
X116783319Y-122752308D01*
X116783318Y-122752308D01*
X116648473Y-122802601D01*
X116648470Y-122802603D01*
X116533253Y-122888853D01*
X116447003Y-123004070D01*
X116447002Y-123004071D01*
X116413856Y-123092943D01*
X116371310Y-123149779D01*
X116304790Y-123174590D01*
X116235415Y-123159499D01*
X116185213Y-123109297D01*
X116177744Y-123092943D01*
X116144597Y-123004071D01*
X116144596Y-123004070D01*
X116144596Y-123004069D01*
X116101471Y-122946461D01*
X116058346Y-122888853D01*
X115981391Y-122831245D01*
X115943131Y-122802604D01*
X115943129Y-122802603D01*
X115943126Y-122802601D01*
X115808283Y-122752309D01*
X115808286Y-122752309D01*
X115748673Y-122745900D01*
X111842935Y-122745900D01*
X111842914Y-122745902D01*
X111783319Y-122752308D01*
X111783318Y-122752308D01*
X111648473Y-122802601D01*
X111648470Y-122802603D01*
X111533253Y-122888853D01*
X111447003Y-123004070D01*
X111447001Y-123004073D01*
X111396709Y-123138915D01*
X111390300Y-123198521D01*
X111390120Y-123201892D01*
X111389939Y-123201882D01*
X111389939Y-123201884D01*
X111389907Y-123201880D01*
X111388738Y-123201817D01*
X111370298Y-123264621D01*
X111316642Y-123311114D01*
X111264300Y-123322500D01*
X107311384Y-123322500D01*
X107293747Y-123324102D01*
X107240806Y-123328913D01*
X107078397Y-123379520D01*
X107078396Y-123379521D01*
X106932814Y-123467528D01*
X106932809Y-123467532D01*
X106812532Y-123587809D01*
X106812528Y-123587814D01*
X106775828Y-123648524D01*
X106723469Y-123696472D01*
X106653499Y-123708502D01*
X106588133Y-123680793D01*
X106560172Y-123648524D01*
X106547692Y-123627880D01*
X106523472Y-123587815D01*
X106523471Y-123587814D01*
X106523467Y-123587809D01*
X106403190Y-123467532D01*
X106403185Y-123467528D01*
X106257606Y-123379522D01*
X106257603Y-123379521D01*
X106257602Y-123379520D01*
X106095193Y-123328913D01*
X106043855Y-123324248D01*
X106024616Y-123322500D01*
X100711384Y-123322500D01*
X100693747Y-123324102D01*
X100640806Y-123328913D01*
X100478397Y-123379520D01*
X100478396Y-123379521D01*
X100332814Y-123467528D01*
X100332809Y-123467532D01*
X100212532Y-123587809D01*
X100212528Y-123587814D01*
X100124521Y-123733396D01*
X100124520Y-123733397D01*
X100073913Y-123895806D01*
X100067500Y-123966386D01*
X99121300Y-123966386D01*
X99121300Y-122565554D01*
X138759301Y-122565554D01*
X138759301Y-130342245D01*
X138773863Y-130415450D01*
X138790064Y-130496898D01*
X138850407Y-130642580D01*
X138938012Y-130773690D01*
X138938014Y-130773692D01*
X139336553Y-131172231D01*
X139368031Y-131224748D01*
X139400972Y-131333337D01*
X139406444Y-131351375D01*
X139406444Y-131351376D01*
X139494243Y-131515635D01*
X139546073Y-131578790D01*
X139612396Y-131659604D01*
X139710866Y-131740416D01*
X139756364Y-131777756D01*
X139756365Y-131777756D01*
X139756367Y-131777758D01*
X139920622Y-131865555D01*
X140098850Y-131919620D01*
X140098856Y-131919620D01*
X140098858Y-131919621D01*
X140284197Y-131937875D01*
X140284200Y-131937875D01*
X140284203Y-131937875D01*
X140469541Y-131919621D01*
X140469541Y-131919620D01*
X140469550Y-131919620D01*
X140647778Y-131865555D01*
X140812033Y-131777758D01*
X140956004Y-131659604D01*
X141074158Y-131515633D01*
X141161955Y-131351378D01*
X141216020Y-131173150D01*
X141234275Y-130987800D01*
X141219810Y-130840936D01*
X141216021Y-130802458D01*
X141216020Y-130802456D01*
X141216020Y-130802450D01*
X141161955Y-130624222D01*
X141074158Y-130459967D01*
X140956004Y-130315996D01*
X140868004Y-130243776D01*
X140812035Y-130197843D01*
X140792374Y-130187334D01*
X140647778Y-130110045D01*
X140521148Y-130071631D01*
X140468631Y-130040153D01*
X140397206Y-129968728D01*
X140363180Y-129906416D01*
X140360301Y-129879633D01*
X140360301Y-128393781D01*
X162964300Y-128393781D01*
X162964300Y-128981018D01*
X163000827Y-129164651D01*
X163000829Y-129164656D01*
X163046718Y-129275443D01*
X163054307Y-129346033D01*
X163049917Y-129363284D01*
X163049452Y-129364686D01*
X163049450Y-129364694D01*
X163039300Y-129464046D01*
X163039300Y-130010745D01*
X163049450Y-130110104D01*
X163049450Y-130110106D01*
X163049451Y-130110108D01*
X163102797Y-130271097D01*
X163144991Y-130339503D01*
X163191832Y-130415444D01*
X163191837Y-130415450D01*
X163311749Y-130535362D01*
X163311755Y-130535367D01*
X163311756Y-130535368D01*
X163456103Y-130624403D01*
X163617092Y-130677749D01*
X163716455Y-130687900D01*
X164663144Y-130687899D01*
X164663145Y-130687899D01*
X164683016Y-130685869D01*
X164762508Y-130677749D01*
X164923497Y-130624403D01*
X165067844Y-130535368D01*
X165187768Y-130415444D01*
X165276803Y-130271097D01*
X165276803Y-130271094D01*
X165280655Y-130264851D01*
X165282139Y-130265766D01*
X165322991Y-130219368D01*
X165390273Y-130199900D01*
X166689327Y-130199900D01*
X166757448Y-130219902D01*
X166797491Y-130265747D01*
X166798945Y-130264851D01*
X166802796Y-130271094D01*
X166802797Y-130271097D01*
X166844991Y-130339503D01*
X166891832Y-130415444D01*
X166891837Y-130415450D01*
X167011749Y-130535362D01*
X167011755Y-130535367D01*
X167011756Y-130535368D01*
X167156103Y-130624403D01*
X167317092Y-130677749D01*
X167416455Y-130687900D01*
X168363144Y-130687899D01*
X168363145Y-130687899D01*
X168383016Y-130685869D01*
X168462508Y-130677749D01*
X168623497Y-130624403D01*
X168767844Y-130535368D01*
X168887768Y-130415444D01*
X168976803Y-130271097D01*
X169030149Y-130110108D01*
X169040300Y-130010745D01*
X169040299Y-129464056D01*
X169030149Y-129364692D01*
X169029686Y-129363297D01*
X169029655Y-129362388D01*
X169028710Y-129357973D01*
X169029497Y-129357804D01*
X169027242Y-129292348D01*
X169032877Y-129275451D01*
X169075283Y-129173074D01*
X169078771Y-129164656D01*
X169078771Y-129164655D01*
X169078773Y-129164651D01*
X169115300Y-128981016D01*
X169115300Y-128393784D01*
X169078773Y-128210149D01*
X169007122Y-128037169D01*
X168903102Y-127881492D01*
X168770708Y-127749098D01*
X168615031Y-127645078D01*
X168442051Y-127573427D01*
X168402199Y-127565500D01*
X168258412Y-127536899D01*
X168253945Y-127536459D01*
X168188114Y-127509874D01*
X168147106Y-127451918D01*
X168140299Y-127411066D01*
X168140299Y-127019296D01*
X168134001Y-126949977D01*
X168134001Y-126949974D01*
X168084295Y-126790462D01*
X167997860Y-126647481D01*
X167997858Y-126647479D01*
X167997854Y-126647474D01*
X167879725Y-126529345D01*
X167879715Y-126529337D01*
X167789403Y-126474742D01*
X167736738Y-126442905D01*
X167577226Y-126393199D01*
X167577224Y-126393198D01*
X167577222Y-126393198D01*
X167528689Y-126388788D01*
X167507907Y-126386900D01*
X167507904Y-126386900D01*
X167021696Y-126386900D01*
X166952377Y-126393198D01*
X166952374Y-126393199D01*
X166792862Y-126442905D01*
X166693948Y-126502701D01*
X166693946Y-126502702D01*
X166625302Y-126520825D01*
X166564623Y-126503326D01*
X166450201Y-126435657D01*
X166292368Y-126389801D01*
X166258395Y-126387128D01*
X166255494Y-126386900D01*
X165824106Y-126386900D01*
X165821205Y-126387128D01*
X165787232Y-126389801D01*
X165787231Y-126389801D01*
X165629399Y-126435656D01*
X165514975Y-126503326D01*
X165446159Y-126520785D01*
X165385653Y-126502701D01*
X165339403Y-126474742D01*
X165286738Y-126442905D01*
X165127226Y-126393199D01*
X165127224Y-126393198D01*
X165127222Y-126393198D01*
X165078689Y-126388788D01*
X165057907Y-126386900D01*
X165057904Y-126386900D01*
X164571696Y-126386900D01*
X164502377Y-126393198D01*
X164342862Y-126442905D01*
X164199884Y-126529337D01*
X164199874Y-126529345D01*
X164081745Y-126647474D01*
X164081737Y-126647484D01*
X163995305Y-126790462D01*
X163945598Y-126949975D01*
X163945598Y-126949979D01*
X163939300Y-127019295D01*
X163939300Y-127411066D01*
X163919298Y-127479187D01*
X163865642Y-127525680D01*
X163825655Y-127536459D01*
X163821186Y-127536899D01*
X163637548Y-127573427D01*
X163637543Y-127573429D01*
X163464569Y-127645078D01*
X163308896Y-127749095D01*
X163308889Y-127749100D01*
X163176500Y-127881489D01*
X163176495Y-127881496D01*
X163072478Y-128037169D01*
X163000829Y-128210143D01*
X163000827Y-128210148D01*
X162964300Y-128393781D01*
X140360301Y-128393781D01*
X140360301Y-123156993D01*
X140380303Y-123088872D01*
X140426904Y-123045871D01*
X140532633Y-122989358D01*
X140676604Y-122871204D01*
X140794758Y-122727233D01*
X140882555Y-122562978D01*
X140936620Y-122384750D01*
X140939613Y-122354358D01*
X140954875Y-122199403D01*
X140954875Y-122199396D01*
X140936621Y-122014058D01*
X140936620Y-122014056D01*
X140936620Y-122014050D01*
X140882555Y-121835822D01*
X140794758Y-121671567D01*
X140676604Y-121527596D01*
X140595790Y-121461273D01*
X140532635Y-121409443D01*
X140414537Y-121346318D01*
X140368378Y-121321645D01*
X140190150Y-121267580D01*
X140190146Y-121267579D01*
X140190141Y-121267578D01*
X140004803Y-121249325D01*
X140004797Y-121249325D01*
X139819458Y-121267578D01*
X139819452Y-121267579D01*
X139819450Y-121267580D01*
X139641222Y-121321645D01*
X139476964Y-121409443D01*
X139332996Y-121527596D01*
X139214843Y-121671564D01*
X139127044Y-121835823D01*
X139088632Y-121962448D01*
X139057165Y-122014955D01*
X139049522Y-122022600D01*
X138938010Y-122134112D01*
X138938009Y-122134114D01*
X138850407Y-122265219D01*
X138790066Y-122410896D01*
X138790064Y-122410901D01*
X138759301Y-122565554D01*
X99121300Y-122565554D01*
X99121300Y-117571987D01*
X99141302Y-117503866D01*
X99194958Y-117457373D01*
X99265232Y-117447269D01*
X99329812Y-117476763D01*
X99352065Y-117501985D01*
X99354948Y-117506299D01*
X99354949Y-117506302D01*
X99458422Y-117661161D01*
X103143579Y-121346318D01*
X103298437Y-121449791D01*
X103330537Y-121463087D01*
X103470508Y-121521065D01*
X103653176Y-121557400D01*
X103653177Y-121557400D01*
X131144423Y-121557400D01*
X131144424Y-121557400D01*
X131327092Y-121521065D01*
X131499162Y-121449791D01*
X131654021Y-121346318D01*
X132127163Y-120873174D01*
X132136304Y-120864890D01*
X132167604Y-120839204D01*
X132193290Y-120807904D01*
X132201575Y-120798763D01*
X132230218Y-120770121D01*
X132252714Y-120736450D01*
X132260064Y-120726539D01*
X132285758Y-120695233D01*
X132304844Y-120659524D01*
X132311186Y-120648941D01*
X132333691Y-120615262D01*
X132349187Y-120577848D01*
X132354456Y-120566708D01*
X132373555Y-120530978D01*
X132385310Y-120492225D01*
X132389470Y-120480599D01*
X132404965Y-120443192D01*
X132412862Y-120403483D01*
X132415865Y-120391497D01*
X132427620Y-120352750D01*
X132431590Y-120312437D01*
X132433399Y-120300241D01*
X132441300Y-120260524D01*
X132441300Y-120220038D01*
X132441907Y-120207687D01*
X132445875Y-120167401D01*
X132445875Y-120167397D01*
X132441907Y-120127110D01*
X132441300Y-120114760D01*
X132441300Y-120074277D01*
X132441299Y-120074273D01*
X132433402Y-120034571D01*
X132431589Y-120022353D01*
X132427620Y-119982050D01*
X132415865Y-119943300D01*
X132412862Y-119931314D01*
X132404965Y-119891608D01*
X132389472Y-119854204D01*
X132385312Y-119842580D01*
X132373555Y-119803822D01*
X132373552Y-119803818D01*
X132373552Y-119803815D01*
X132354468Y-119768111D01*
X132349181Y-119756935D01*
X132333691Y-119719538D01*
X132311197Y-119685873D01*
X132304842Y-119675269D01*
X132285759Y-119639568D01*
X132260079Y-119608277D01*
X132252712Y-119598344D01*
X132230218Y-119564679D01*
X132201581Y-119536042D01*
X132193286Y-119526890D01*
X132183510Y-119514978D01*
X132167604Y-119495596D01*
X132167601Y-119495593D01*
X132136307Y-119469911D01*
X132127146Y-119461607D01*
X132098523Y-119432984D01*
X132098522Y-119432983D01*
X132098521Y-119432982D01*
X132064852Y-119410485D01*
X132054923Y-119403121D01*
X132023631Y-119377440D01*
X131987926Y-119358355D01*
X131977324Y-119352000D01*
X131943664Y-119329510D01*
X131943660Y-119329507D01*
X131912051Y-119316415D01*
X131906260Y-119314016D01*
X131895086Y-119308731D01*
X131859383Y-119289647D01*
X131859379Y-119289645D01*
X131859378Y-119289645D01*
X131820623Y-119277888D01*
X131808987Y-119273724D01*
X131771598Y-119258237D01*
X131771594Y-119258235D01*
X131771592Y-119258235D01*
X131731881Y-119250336D01*
X131719894Y-119247333D01*
X131702243Y-119241978D01*
X131681151Y-119235580D01*
X131640851Y-119231610D01*
X131628625Y-119229796D01*
X131588930Y-119221900D01*
X131588924Y-119221900D01*
X131548439Y-119221900D01*
X131536089Y-119221293D01*
X131523970Y-119220099D01*
X131495802Y-119217325D01*
X131495798Y-119217325D01*
X131467629Y-119220099D01*
X131455510Y-119221293D01*
X131443161Y-119221900D01*
X131402676Y-119221900D01*
X131402673Y-119221900D01*
X131402667Y-119221901D01*
X131362974Y-119229796D01*
X131350749Y-119231610D01*
X131310450Y-119235580D01*
X131271699Y-119247334D01*
X131259712Y-119250336D01*
X131220013Y-119258233D01*
X131219998Y-119258238D01*
X131182603Y-119273726D01*
X131170973Y-119277888D01*
X131132223Y-119289644D01*
X131096506Y-119308734D01*
X131085338Y-119314016D01*
X131047935Y-119329510D01*
X131014272Y-119352002D01*
X131003676Y-119358353D01*
X130967964Y-119377443D01*
X130967960Y-119377446D01*
X130936675Y-119403121D01*
X130926747Y-119410485D01*
X130893078Y-119432982D01*
X130893077Y-119432983D01*
X130864444Y-119461615D01*
X130855288Y-119469914D01*
X130823993Y-119495598D01*
X130798315Y-119526886D01*
X130790014Y-119536045D01*
X130696566Y-119629495D01*
X130634255Y-119663520D01*
X130607470Y-119666400D01*
X104190129Y-119666400D01*
X104122008Y-119646398D01*
X104101034Y-119629495D01*
X103622935Y-119151396D01*
X145341225Y-119151396D01*
X145341225Y-119151403D01*
X145359478Y-119336741D01*
X145359479Y-119336746D01*
X145359480Y-119336750D01*
X145413545Y-119514978D01*
X145460857Y-119603491D01*
X145501343Y-119679235D01*
X145534419Y-119719538D01*
X145619496Y-119823204D01*
X145717966Y-119904016D01*
X145763464Y-119941356D01*
X145763465Y-119941356D01*
X145763467Y-119941358D01*
X145927722Y-120029155D01*
X146105950Y-120083220D01*
X146105956Y-120083220D01*
X146105958Y-120083221D01*
X146291297Y-120101475D01*
X146291300Y-120101475D01*
X146291303Y-120101475D01*
X146476641Y-120083221D01*
X146476641Y-120083220D01*
X146476650Y-120083220D01*
X146654878Y-120029155D01*
X146819133Y-119941358D01*
X146893289Y-119880500D01*
X146958636Y-119852747D01*
X146973222Y-119851900D01*
X149725794Y-119851900D01*
X149861128Y-119824980D01*
X149988611Y-119772175D01*
X150103343Y-119695514D01*
X151915414Y-117883443D01*
X151992075Y-117768711D01*
X152044880Y-117641229D01*
X152044880Y-117641225D01*
X152044882Y-117641222D01*
X152054951Y-117590599D01*
X152054951Y-117590597D01*
X152066461Y-117532732D01*
X152071800Y-117505893D01*
X152071800Y-116865396D01*
X153786725Y-116865396D01*
X153786725Y-116865403D01*
X153804978Y-117050741D01*
X153804979Y-117050746D01*
X153804980Y-117050750D01*
X153843175Y-117176662D01*
X153859045Y-117228979D01*
X153946840Y-117393231D01*
X153946842Y-117393233D01*
X154007699Y-117467387D01*
X154035453Y-117532732D01*
X154036300Y-117547320D01*
X154036300Y-120882478D01*
X154016298Y-120950599D01*
X154007700Y-120962411D01*
X153946843Y-121036565D01*
X153946842Y-121036567D01*
X153859045Y-121200822D01*
X153814910Y-121346318D01*
X153804978Y-121379058D01*
X153786725Y-121564396D01*
X153786725Y-121564403D01*
X153804978Y-121749741D01*
X153804979Y-121749746D01*
X153804980Y-121749750D01*
X153859045Y-121927978D01*
X153936800Y-122073447D01*
X153946843Y-122092235D01*
X153981211Y-122134112D01*
X154064996Y-122236204D01*
X154163466Y-122317016D01*
X154208964Y-122354356D01*
X154208965Y-122354356D01*
X154208967Y-122354358D01*
X154373222Y-122442155D01*
X154551450Y-122496220D01*
X154551456Y-122496220D01*
X154551458Y-122496221D01*
X154736797Y-122514475D01*
X154736800Y-122514475D01*
X154736803Y-122514475D01*
X154922141Y-122496221D01*
X154922141Y-122496220D01*
X154922150Y-122496220D01*
X155100378Y-122442155D01*
X155184403Y-122397241D01*
X155253909Y-122382769D01*
X155320205Y-122408172D01*
X155362243Y-122465385D01*
X155369800Y-122508363D01*
X155369800Y-123041478D01*
X155349798Y-123109599D01*
X155341200Y-123121411D01*
X155280343Y-123195565D01*
X155218580Y-123311114D01*
X155192545Y-123359822D01*
X155149915Y-123500356D01*
X155138478Y-123538058D01*
X155120225Y-123723396D01*
X155120225Y-123723403D01*
X155138478Y-123908741D01*
X155138479Y-123908746D01*
X155138480Y-123908750D01*
X155192545Y-124086978D01*
X155251504Y-124197282D01*
X155280343Y-124251235D01*
X155325943Y-124306798D01*
X155398496Y-124395204D01*
X155453212Y-124440108D01*
X155542464Y-124513356D01*
X155542465Y-124513356D01*
X155542467Y-124513358D01*
X155706722Y-124601155D01*
X155884950Y-124655220D01*
X155884956Y-124655220D01*
X155884958Y-124655221D01*
X156070297Y-124673475D01*
X156070300Y-124673475D01*
X156070303Y-124673475D01*
X156255641Y-124655221D01*
X156255641Y-124655220D01*
X156255650Y-124655220D01*
X156433878Y-124601155D01*
X156598133Y-124513358D01*
X156742104Y-124395204D01*
X156860258Y-124251233D01*
X156948055Y-124086978D01*
X157002120Y-123908750D01*
X157003395Y-123895804D01*
X157020375Y-123723403D01*
X157020375Y-123723396D01*
X157002121Y-123538058D01*
X157002120Y-123538056D01*
X157002120Y-123538050D01*
X156948055Y-123359822D01*
X156860258Y-123195567D01*
X156799400Y-123121411D01*
X156771647Y-123056064D01*
X156770800Y-123041478D01*
X156770800Y-122568843D01*
X156790802Y-122500722D01*
X156844458Y-122454229D01*
X156914732Y-122444125D01*
X156933367Y-122448266D01*
X157091450Y-122496220D01*
X157091456Y-122496220D01*
X157091458Y-122496221D01*
X157276797Y-122514475D01*
X157276800Y-122514475D01*
X157276803Y-122514475D01*
X157462141Y-122496221D01*
X157462141Y-122496220D01*
X157462150Y-122496220D01*
X157640378Y-122442155D01*
X157804633Y-122354358D01*
X157948604Y-122236204D01*
X158066758Y-122092233D01*
X158154555Y-121927978D01*
X158208620Y-121749750D01*
X158216320Y-121671567D01*
X158226875Y-121564403D01*
X158226875Y-121564396D01*
X158208621Y-121379058D01*
X158208620Y-121379056D01*
X158208620Y-121379050D01*
X158154555Y-121200822D01*
X158066758Y-121036567D01*
X158005900Y-120962411D01*
X157978147Y-120897064D01*
X157977300Y-120882478D01*
X157977300Y-118944320D01*
X157997302Y-118876199D01*
X158005895Y-118864393D01*
X158066758Y-118790233D01*
X158154555Y-118625978D01*
X158208620Y-118447750D01*
X158211945Y-118413995D01*
X158226875Y-118262403D01*
X158226875Y-118262396D01*
X158208621Y-118077058D01*
X158208620Y-118077056D01*
X158208620Y-118077050D01*
X158154555Y-117898822D01*
X158066758Y-117734567D01*
X157948604Y-117590596D01*
X157845387Y-117505888D01*
X157804635Y-117472443D01*
X157757538Y-117447269D01*
X157640378Y-117384645D01*
X157462150Y-117330580D01*
X157462146Y-117330579D01*
X157462141Y-117330578D01*
X157276803Y-117312325D01*
X157276797Y-117312325D01*
X157091456Y-117330578D01*
X156972018Y-117366809D01*
X156901024Y-117367442D01*
X156840958Y-117329592D01*
X156810890Y-117265277D01*
X156820367Y-117194916D01*
X156838045Y-117166299D01*
X156850138Y-117151564D01*
X156860258Y-117139233D01*
X156948055Y-116974978D01*
X157002120Y-116796750D01*
X157020375Y-116611400D01*
X157002120Y-116426050D01*
X156948055Y-116247822D01*
X156860258Y-116083567D01*
X156742104Y-115939596D01*
X156661290Y-115873273D01*
X156598135Y-115821443D01*
X156579347Y-115811400D01*
X156433878Y-115733645D01*
X156255650Y-115679580D01*
X156255646Y-115679579D01*
X156255641Y-115679578D01*
X156070303Y-115661325D01*
X156070297Y-115661325D01*
X155884958Y-115679578D01*
X155884952Y-115679579D01*
X155884950Y-115679580D01*
X155706722Y-115733645D01*
X155542464Y-115821443D01*
X155398496Y-115939596D01*
X155345787Y-116003822D01*
X155287109Y-116043791D01*
X155216138Y-116045691D01*
X155188992Y-116035010D01*
X155100379Y-115987645D01*
X155048062Y-115971775D01*
X154922150Y-115933580D01*
X154922146Y-115933579D01*
X154922141Y-115933578D01*
X154736803Y-115915325D01*
X154736797Y-115915325D01*
X154551458Y-115933578D01*
X154551452Y-115933579D01*
X154551450Y-115933580D01*
X154373222Y-115987645D01*
X154208964Y-116075443D01*
X154064996Y-116193596D01*
X153946843Y-116337564D01*
X153899546Y-116426050D01*
X153859045Y-116501822D01*
X153816707Y-116641394D01*
X153804978Y-116680058D01*
X153786725Y-116865396D01*
X152071800Y-116865396D01*
X152071800Y-109863820D01*
X152091802Y-109795699D01*
X152100395Y-109783893D01*
X152161258Y-109709733D01*
X152249055Y-109545478D01*
X152303120Y-109367250D01*
X152321375Y-109181900D01*
X152303120Y-108996550D01*
X152249055Y-108818322D01*
X152161258Y-108654067D01*
X152043104Y-108510096D01*
X151962290Y-108443773D01*
X151899135Y-108391943D01*
X151753195Y-108313936D01*
X151734878Y-108304145D01*
X151556650Y-108250080D01*
X151556646Y-108250079D01*
X151556641Y-108250078D01*
X151371303Y-108231825D01*
X151371297Y-108231825D01*
X151185958Y-108250078D01*
X151185952Y-108250079D01*
X151185950Y-108250080D01*
X151007722Y-108304145D01*
X150843464Y-108391943D01*
X150699496Y-108510096D01*
X150581343Y-108654064D01*
X150493545Y-108818322D01*
X150439478Y-108996558D01*
X150421225Y-109181896D01*
X150421225Y-109181903D01*
X150439478Y-109367241D01*
X150439479Y-109367246D01*
X150439480Y-109367250D01*
X150477675Y-109493162D01*
X150493545Y-109545479D01*
X150581340Y-109709731D01*
X150581342Y-109709733D01*
X150642199Y-109783887D01*
X150669953Y-109849232D01*
X150670800Y-109863820D01*
X150670800Y-117094553D01*
X150650798Y-117162674D01*
X150633895Y-117183648D01*
X149403548Y-118413995D01*
X149341236Y-118448021D01*
X149314453Y-118450900D01*
X146973222Y-118450900D01*
X146905101Y-118430898D01*
X146893289Y-118422300D01*
X146819134Y-118361443D01*
X146819133Y-118361442D01*
X146654878Y-118273645D01*
X146476650Y-118219580D01*
X146476646Y-118219579D01*
X146476641Y-118219578D01*
X146291303Y-118201325D01*
X146291297Y-118201325D01*
X146105958Y-118219578D01*
X146105952Y-118219579D01*
X146105950Y-118219580D01*
X145964805Y-118262396D01*
X145927722Y-118273645D01*
X145763464Y-118361443D01*
X145619496Y-118479596D01*
X145501343Y-118623564D01*
X145413545Y-118787822D01*
X145359478Y-118966058D01*
X145341225Y-119151396D01*
X103622935Y-119151396D01*
X101175245Y-116703706D01*
X101141219Y-116641394D01*
X101138340Y-116614611D01*
X101138340Y-114894499D01*
X101158342Y-114826378D01*
X101211998Y-114779885D01*
X101264335Y-114768499D01*
X104993820Y-114768499D01*
X105061941Y-114788501D01*
X105108434Y-114842157D01*
X105114716Y-114859000D01*
X105147231Y-114969733D01*
X105225016Y-115090770D01*
X105225025Y-115090782D01*
X105269285Y-115141861D01*
X105271106Y-115144081D01*
X105355245Y-115216985D01*
X105380250Y-115238652D01*
X105511128Y-115298422D01*
X105579249Y-115318424D01*
X105721664Y-115338900D01*
X105721668Y-115338900D01*
X114806620Y-115338900D01*
X114806623Y-115338899D01*
X114860637Y-115336005D01*
X114860651Y-115336003D01*
X114860659Y-115336003D01*
X114878492Y-115334085D01*
X114887420Y-115333126D01*
X114940851Y-115324467D01*
X115075659Y-115274185D01*
X115137971Y-115240159D01*
X115253148Y-115153937D01*
X121635278Y-108771804D01*
X121697590Y-108737780D01*
X121724373Y-108734900D01*
X141148796Y-108734900D01*
X141148800Y-108734900D01*
X141256249Y-108723348D01*
X141308591Y-108711962D01*
X141411133Y-108677833D01*
X141532173Y-108600046D01*
X141583282Y-108555759D01*
X141585485Y-108553952D01*
X141623485Y-108510096D01*
X141680052Y-108444814D01*
X141739822Y-108313936D01*
X141759824Y-108245815D01*
X141780300Y-108103400D01*
X141780300Y-105054396D01*
X146865225Y-105054396D01*
X146865225Y-105054403D01*
X146883478Y-105239741D01*
X146883479Y-105239746D01*
X146883480Y-105239750D01*
X146937545Y-105417978D01*
X146995069Y-105525596D01*
X147025343Y-105582235D01*
X147077173Y-105645390D01*
X147143496Y-105726204D01*
X147241966Y-105807016D01*
X147287464Y-105844356D01*
X147287465Y-105844356D01*
X147287467Y-105844358D01*
X147451722Y-105932155D01*
X147629950Y-105986220D01*
X147629956Y-105986220D01*
X147629958Y-105986221D01*
X147815297Y-106004475D01*
X147815300Y-106004475D01*
X147815303Y-106004475D01*
X148000641Y-105986221D01*
X148000641Y-105986220D01*
X148000650Y-105986220D01*
X148178878Y-105932155D01*
X148343133Y-105844358D01*
X148487104Y-105726204D01*
X148605258Y-105582233D01*
X148693055Y-105417978D01*
X148747120Y-105239750D01*
X148756522Y-105144281D01*
X148783103Y-105078449D01*
X148792811Y-105067544D01*
X150772413Y-103087943D01*
X150772414Y-103087940D01*
X150772417Y-103087938D01*
X150842179Y-102983531D01*
X150849074Y-102973212D01*
X150849075Y-102973211D01*
X150901880Y-102845728D01*
X150928800Y-102710393D01*
X150928800Y-99576820D01*
X150948802Y-99508699D01*
X150957395Y-99496893D01*
X151018258Y-99422733D01*
X151106055Y-99258478D01*
X151160120Y-99080250D01*
X151160121Y-99080241D01*
X151160793Y-99078026D01*
X151199708Y-99018645D01*
X151264549Y-98989729D01*
X151334730Y-99000459D01*
X151361296Y-99017198D01*
X151478467Y-99113358D01*
X151556198Y-99154906D01*
X151606845Y-99204657D01*
X151622801Y-99266027D01*
X151622801Y-103179806D01*
X151602799Y-103247927D01*
X151585896Y-103268901D01*
X149162013Y-105692783D01*
X149162008Y-105692790D01*
X149074406Y-105823895D01*
X149014065Y-105969572D01*
X149014063Y-105969577D01*
X148983300Y-106124230D01*
X148983300Y-106292727D01*
X148968422Y-106352123D01*
X148906045Y-106468820D01*
X148851978Y-106647058D01*
X148833725Y-106832396D01*
X148833725Y-106832403D01*
X148851978Y-107017741D01*
X148851979Y-107017746D01*
X148851980Y-107017750D01*
X148906045Y-107195978D01*
X148970187Y-107315978D01*
X148993843Y-107360235D01*
X149027116Y-107400778D01*
X149111996Y-107504204D01*
X149210466Y-107585016D01*
X149255964Y-107622356D01*
X149255965Y-107622356D01*
X149255967Y-107622358D01*
X149420222Y-107710155D01*
X149598450Y-107764220D01*
X149598456Y-107764220D01*
X149598458Y-107764221D01*
X149783797Y-107782475D01*
X149783800Y-107782475D01*
X149783803Y-107782475D01*
X149969141Y-107764221D01*
X149969141Y-107764220D01*
X149969150Y-107764220D01*
X150147378Y-107710155D01*
X150311633Y-107622358D01*
X150455604Y-107504204D01*
X150573758Y-107360233D01*
X150661555Y-107195978D01*
X150679103Y-107138128D01*
X150718016Y-107078749D01*
X150782857Y-107049833D01*
X150853038Y-107060562D01*
X150859074Y-107063584D01*
X150880715Y-107075152D01*
X150880718Y-107075153D01*
X150880722Y-107075155D01*
X151058950Y-107129220D01*
X151058955Y-107129220D01*
X151058957Y-107129221D01*
X151129592Y-107136177D01*
X151154416Y-107138622D01*
X151220249Y-107165203D01*
X151231163Y-107174920D01*
X151242756Y-107186513D01*
X151357488Y-107263174D01*
X151484971Y-107315979D01*
X151620305Y-107342899D01*
X151620306Y-107342899D01*
X153499300Y-107342899D01*
X153567421Y-107362901D01*
X153613914Y-107416557D01*
X153625300Y-107468899D01*
X153625300Y-109775944D01*
X153635912Y-109879825D01*
X153691685Y-110048138D01*
X153784770Y-110199052D01*
X153784775Y-110199058D01*
X153910141Y-110324424D01*
X153910147Y-110324429D01*
X153910148Y-110324430D01*
X154061062Y-110417515D01*
X154229374Y-110473287D01*
X154333255Y-110483900D01*
X156918344Y-110483899D01*
X157022226Y-110473287D01*
X157190538Y-110417515D01*
X157341452Y-110324430D01*
X157466830Y-110199052D01*
X157559915Y-110048138D01*
X157615687Y-109879826D01*
X157626300Y-109775945D01*
X157626299Y-107468898D01*
X157646301Y-107400778D01*
X157699957Y-107354285D01*
X157752299Y-107342899D01*
X162522952Y-107342899D01*
X162591073Y-107362901D01*
X162612047Y-107379804D01*
X165935048Y-110702805D01*
X165969074Y-110765117D01*
X165964009Y-110835932D01*
X165921462Y-110892768D01*
X165854942Y-110917579D01*
X165845953Y-110917900D01*
X165484790Y-110917900D01*
X165382002Y-110928400D01*
X165215465Y-110983585D01*
X165066143Y-111075688D01*
X165066137Y-111075693D01*
X164942093Y-111199737D01*
X164942088Y-111199743D01*
X164849985Y-111349065D01*
X164794802Y-111515596D01*
X164794800Y-111515608D01*
X164784300Y-111618382D01*
X164784300Y-111646898D01*
X164764298Y-111715019D01*
X164738237Y-111744294D01*
X164736079Y-111746065D01*
X164732994Y-111748597D01*
X164614843Y-111892564D01*
X164557508Y-111999830D01*
X164527045Y-112056822D01*
X164474770Y-112229152D01*
X164472978Y-112235058D01*
X164454725Y-112420396D01*
X164454725Y-112420403D01*
X164472978Y-112605741D01*
X164472979Y-112605746D01*
X164472980Y-112605750D01*
X164527045Y-112783978D01*
X164604800Y-112929447D01*
X164614843Y-112948235D01*
X164666673Y-113011390D01*
X164732996Y-113092204D01*
X164799250Y-113146577D01*
X164838920Y-113204341D01*
X164849985Y-113237732D01*
X164849986Y-113237735D01*
X164942086Y-113387053D01*
X164942093Y-113387062D01*
X165066137Y-113511106D01*
X165066143Y-113511111D01*
X165066144Y-113511112D01*
X165123363Y-113546404D01*
X165215465Y-113603214D01*
X165381996Y-113658397D01*
X165381997Y-113658397D01*
X165382003Y-113658399D01*
X165484791Y-113668900D01*
X166209808Y-113668899D01*
X166209809Y-113668899D01*
X166312597Y-113658399D01*
X166479134Y-113603214D01*
X166543678Y-113563403D01*
X166628456Y-113511112D01*
X166752512Y-113387056D01*
X166844614Y-113237734D01*
X166899799Y-113071197D01*
X166910300Y-112968409D01*
X166910299Y-112764865D01*
X166930301Y-112696745D01*
X166931472Y-112694955D01*
X166978075Y-112625211D01*
X167030880Y-112497728D01*
X167031810Y-112493050D01*
X167033224Y-112485946D01*
X167033224Y-112485943D01*
X167046261Y-112420403D01*
X167057800Y-112362393D01*
X167057800Y-112224407D01*
X167039797Y-112133902D01*
X167046125Y-112063192D01*
X167089678Y-112007124D01*
X167156630Y-111983504D01*
X167225724Y-111999830D01*
X167252471Y-112020228D01*
X167461395Y-112229152D01*
X167495421Y-112291464D01*
X167498300Y-112318247D01*
X167498300Y-112881478D01*
X167478298Y-112949599D01*
X167469700Y-112961411D01*
X167408843Y-113035565D01*
X167408842Y-113035567D01*
X167321045Y-113199822D01*
X167309545Y-113237734D01*
X167266978Y-113378058D01*
X167248725Y-113563396D01*
X167248725Y-113563403D01*
X167266978Y-113748741D01*
X167266979Y-113748746D01*
X167266980Y-113748750D01*
X167321045Y-113926978D01*
X167398800Y-114072447D01*
X167408843Y-114091235D01*
X167460673Y-114154390D01*
X167526996Y-114235204D01*
X167625280Y-114315864D01*
X167670964Y-114353356D01*
X167670965Y-114353356D01*
X167670967Y-114353358D01*
X167835222Y-114441155D01*
X168013450Y-114495220D01*
X168013456Y-114495220D01*
X168013458Y-114495221D01*
X168198797Y-114513475D01*
X168198800Y-114513475D01*
X168198803Y-114513475D01*
X168384141Y-114495221D01*
X168384141Y-114495220D01*
X168384150Y-114495220D01*
X168562378Y-114441155D01*
X168726633Y-114353358D01*
X168870604Y-114235204D01*
X168988758Y-114091233D01*
X169076555Y-113926978D01*
X169130620Y-113748750D01*
X169130621Y-113748741D01*
X169131138Y-113747037D01*
X169170053Y-113687656D01*
X169230998Y-113660477D01*
X169230862Y-113659841D01*
X169233869Y-113659197D01*
X169234894Y-113658740D01*
X169237374Y-113658446D01*
X169237589Y-113658400D01*
X169237589Y-113658399D01*
X169237597Y-113658399D01*
X169404134Y-113603214D01*
X169553456Y-113511112D01*
X169677512Y-113387056D01*
X169769614Y-113237734D01*
X169824799Y-113071197D01*
X169835300Y-112968409D01*
X169835299Y-111618392D01*
X169824799Y-111515603D01*
X169769614Y-111349066D01*
X169769614Y-111349065D01*
X169677511Y-111199743D01*
X169677506Y-111199737D01*
X169553462Y-111075693D01*
X169553456Y-111075688D01*
X169404134Y-110983585D01*
X169237603Y-110928402D01*
X169237591Y-110928400D01*
X169134817Y-110917900D01*
X168409790Y-110917900D01*
X168307002Y-110928400D01*
X168306999Y-110928401D01*
X168256806Y-110945033D01*
X168185851Y-110947472D01*
X168128080Y-110914523D01*
X167433678Y-110220121D01*
X173267500Y-110220121D01*
X173267500Y-114315864D01*
X173267502Y-114315885D01*
X173273908Y-114375480D01*
X173273908Y-114375481D01*
X173324201Y-114510326D01*
X173324203Y-114510329D01*
X173410453Y-114625546D01*
X173468061Y-114668671D01*
X173525669Y-114711796D01*
X173525671Y-114711796D01*
X173525673Y-114711798D01*
X173586030Y-114734309D01*
X173660514Y-114762090D01*
X173660517Y-114762091D01*
X173720127Y-114768500D01*
X177815872Y-114768499D01*
X177875483Y-114762091D01*
X178010331Y-114711796D01*
X178125546Y-114625546D01*
X178211796Y-114510331D01*
X178262091Y-114375483D01*
X178268500Y-114315873D01*
X178268499Y-110220128D01*
X178262091Y-110160517D01*
X178240800Y-110103435D01*
X178211798Y-110025673D01*
X178211796Y-110025670D01*
X178211796Y-110025669D01*
X178168671Y-109968061D01*
X178125546Y-109910453D01*
X178043764Y-109849232D01*
X178010331Y-109824204D01*
X178010329Y-109824203D01*
X178010326Y-109824201D01*
X177875483Y-109773909D01*
X177875486Y-109773909D01*
X177815873Y-109767500D01*
X173720135Y-109767500D01*
X173720114Y-109767502D01*
X173660519Y-109773908D01*
X173660518Y-109773908D01*
X173525673Y-109824201D01*
X173525670Y-109824203D01*
X173410453Y-109910453D01*
X173324203Y-110025670D01*
X173324201Y-110025673D01*
X173273909Y-110160515D01*
X173267500Y-110220121D01*
X167433678Y-110220121D01*
X163311846Y-106098289D01*
X163311842Y-106098285D01*
X163197110Y-106021624D01*
X163111637Y-105986220D01*
X163069630Y-105968820D01*
X163069627Y-105968819D01*
X162934296Y-105941899D01*
X162934293Y-105941899D01*
X162934292Y-105941899D01*
X152248288Y-105941899D01*
X152180167Y-105921897D01*
X152133674Y-105868241D01*
X152127713Y-105852473D01*
X152122057Y-105833829D01*
X152122055Y-105833823D01*
X152122055Y-105833822D01*
X152034258Y-105669567D01*
X151916104Y-105525596D01*
X151846297Y-105468307D01*
X151806329Y-105409631D01*
X151804429Y-105338659D01*
X151837134Y-105281817D01*
X153045090Y-104073863D01*
X153091507Y-104004395D01*
X153132695Y-103942753D01*
X153193038Y-103797071D01*
X153223801Y-103642416D01*
X153223801Y-98661559D01*
X153209298Y-98588645D01*
X153193038Y-98506903D01*
X153174305Y-98461678D01*
X153132695Y-98361222D01*
X153045090Y-98230112D01*
X152953946Y-98138968D01*
X152922466Y-98086448D01*
X152884055Y-97959822D01*
X152796258Y-97795567D01*
X152678104Y-97651596D01*
X152561925Y-97556250D01*
X152534135Y-97533443D01*
X152515347Y-97523400D01*
X152369878Y-97445645D01*
X152191650Y-97391580D01*
X152191646Y-97391579D01*
X152191641Y-97391578D01*
X152006303Y-97373325D01*
X152006297Y-97373325D01*
X151820958Y-97391578D01*
X151820952Y-97391579D01*
X151820950Y-97391580D01*
X151642722Y-97445645D01*
X151478464Y-97533443D01*
X151334496Y-97651596D01*
X151216343Y-97795564D01*
X151180019Y-97863522D01*
X151128545Y-97959822D01*
X151074480Y-98138050D01*
X151074479Y-98138053D01*
X151073806Y-98140274D01*
X151034890Y-98199655D01*
X150970049Y-98228571D01*
X150899868Y-98217840D01*
X150873301Y-98201100D01*
X150772790Y-98118612D01*
X150756135Y-98104943D01*
X150737347Y-98094900D01*
X150591878Y-98017145D01*
X150413650Y-97963080D01*
X150413646Y-97963079D01*
X150413641Y-97963078D01*
X150228303Y-97944825D01*
X150228297Y-97944825D01*
X150042958Y-97963078D01*
X150042952Y-97963079D01*
X150042950Y-97963080D01*
X149864722Y-98017145D01*
X149700464Y-98104943D01*
X149556496Y-98223096D01*
X149438343Y-98367064D01*
X149354924Y-98523129D01*
X149350545Y-98531322D01*
X149306524Y-98676442D01*
X149296478Y-98709558D01*
X149278225Y-98894896D01*
X149278225Y-98894903D01*
X149296478Y-99080241D01*
X149296479Y-99080246D01*
X149296480Y-99080250D01*
X149324901Y-99173942D01*
X149350545Y-99258479D01*
X149438340Y-99422731D01*
X149438342Y-99422733D01*
X149499199Y-99496887D01*
X149526953Y-99562232D01*
X149527800Y-99576820D01*
X149527800Y-102299052D01*
X149507798Y-102367173D01*
X149490895Y-102388147D01*
X147802163Y-104076878D01*
X147739851Y-104110904D01*
X147725419Y-104113176D01*
X147629957Y-104122578D01*
X147451722Y-104176645D01*
X147287464Y-104264443D01*
X147143496Y-104382596D01*
X147025343Y-104526564D01*
X146937545Y-104690822D01*
X146883478Y-104869058D01*
X146865225Y-105054396D01*
X141780300Y-105054396D01*
X141780300Y-95652900D01*
X141800302Y-95584779D01*
X141853958Y-95538286D01*
X141906300Y-95526900D01*
X173141497Y-95526900D01*
X173141501Y-95526900D01*
X173248950Y-95515348D01*
X173301292Y-95503962D01*
X173403834Y-95469833D01*
X173452661Y-95438453D01*
X173520779Y-95418451D01*
X173564809Y-95426394D01*
X173660517Y-95462091D01*
X173720127Y-95468500D01*
X177815872Y-95468499D01*
X177875483Y-95462091D01*
X178010331Y-95411796D01*
X178125546Y-95325546D01*
X178211796Y-95210331D01*
X178262091Y-95075483D01*
X178268500Y-95015873D01*
X178268499Y-91003610D01*
X178288501Y-90935490D01*
X178326375Y-90897615D01*
X178362173Y-90874610D01*
X178413282Y-90830323D01*
X178415485Y-90828516D01*
X178443788Y-90795850D01*
X178510052Y-90719378D01*
X178569822Y-90588500D01*
X178589824Y-90520379D01*
X178610300Y-90377964D01*
X178610300Y-90321400D01*
X178598748Y-90213951D01*
X178587362Y-90161609D01*
X178553233Y-90059067D01*
X178553232Y-90059065D01*
X178553232Y-90059064D01*
X178517139Y-90002903D01*
X178475446Y-89938027D01*
X178431174Y-89886935D01*
X178429354Y-89884716D01*
X178320217Y-89790151D01*
X178320215Y-89790149D01*
X178320214Y-89790148D01*
X178189336Y-89730378D01*
X178137883Y-89715270D01*
X178121223Y-89710378D01*
X178121216Y-89710376D01*
X178092732Y-89706280D01*
X177978800Y-89689900D01*
X177978796Y-89689900D01*
X138884147Y-89689900D01*
X138816026Y-89669898D01*
X138769533Y-89616242D01*
X138759429Y-89545968D01*
X138788923Y-89481388D01*
X138795052Y-89474805D01*
X141718552Y-86551305D01*
X141780864Y-86517279D01*
X141807647Y-86514400D01*
X142315294Y-86514400D01*
X142450628Y-86487480D01*
X142578111Y-86434675D01*
X142692843Y-86358014D01*
X145840461Y-83210396D01*
X147500225Y-83210396D01*
X147500225Y-83210403D01*
X147518478Y-83395741D01*
X147518479Y-83395746D01*
X147518480Y-83395750D01*
X147572545Y-83573978D01*
X147621984Y-83666471D01*
X147660343Y-83738235D01*
X147712173Y-83801390D01*
X147778496Y-83882204D01*
X147837127Y-83930321D01*
X147922464Y-84000356D01*
X147922465Y-84000356D01*
X147922467Y-84000358D01*
X148086722Y-84088155D01*
X148264950Y-84142220D01*
X148264956Y-84142220D01*
X148264958Y-84142221D01*
X148450297Y-84160475D01*
X148450300Y-84160475D01*
X148450303Y-84160475D01*
X148635641Y-84142221D01*
X148635641Y-84142220D01*
X148635650Y-84142220D01*
X148813878Y-84088155D01*
X148978133Y-84000358D01*
X149122104Y-83882204D01*
X149240258Y-83738233D01*
X149328055Y-83573978D01*
X149366467Y-83447347D01*
X149397944Y-83394832D01*
X150616784Y-82175992D01*
X150646476Y-82153970D01*
X150756133Y-82095358D01*
X150900104Y-81977204D01*
X151018258Y-81833233D01*
X151106055Y-81668978D01*
X151160120Y-81490750D01*
X151173663Y-81353241D01*
X151178375Y-81305403D01*
X151178375Y-81305396D01*
X151160121Y-81120058D01*
X151160120Y-81120056D01*
X151160120Y-81120050D01*
X151106055Y-80941822D01*
X151018258Y-80777567D01*
X151015286Y-80773946D01*
X150980916Y-80732066D01*
X150900104Y-80633596D01*
X150766420Y-80523884D01*
X150756135Y-80515443D01*
X150737347Y-80505400D01*
X150591878Y-80427645D01*
X150413650Y-80373580D01*
X150413646Y-80373579D01*
X150413641Y-80373578D01*
X150228303Y-80355325D01*
X150228297Y-80355325D01*
X150042958Y-80373578D01*
X150042952Y-80373579D01*
X150042950Y-80373580D01*
X149870702Y-80425831D01*
X149864722Y-80427645D01*
X149700464Y-80515443D01*
X149556496Y-80633596D01*
X149438343Y-80777564D01*
X149367292Y-80910491D01*
X149350545Y-80941822D01*
X149299605Y-81109750D01*
X149296478Y-81120058D01*
X149288652Y-81199521D01*
X149262069Y-81265353D01*
X149252354Y-81276266D01*
X148265867Y-82262753D01*
X148213349Y-82294232D01*
X148086723Y-82332644D01*
X147922464Y-82420443D01*
X147778496Y-82538596D01*
X147660343Y-82682564D01*
X147592460Y-82809564D01*
X147572545Y-82846822D01*
X147524782Y-83004278D01*
X147518478Y-83025058D01*
X147500225Y-83210396D01*
X145840461Y-83210396D01*
X148422914Y-80627943D01*
X148499575Y-80513211D01*
X148552380Y-80385728D01*
X148579300Y-80250394D01*
X148579300Y-80112406D01*
X148579300Y-79930899D01*
X148599302Y-79862778D01*
X148652958Y-79816285D01*
X148705300Y-79804899D01*
X152371665Y-79804899D01*
X152371672Y-79804899D01*
X152431283Y-79798491D01*
X152566131Y-79748196D01*
X152681346Y-79661946D01*
X152767596Y-79546731D01*
X152774808Y-79527396D01*
X152783554Y-79503946D01*
X152817891Y-79411883D01*
X152824300Y-79352273D01*
X152824300Y-77574521D01*
X160459300Y-77574521D01*
X160459300Y-79194264D01*
X160459302Y-79194285D01*
X160465708Y-79253880D01*
X160465708Y-79253881D01*
X160516001Y-79388726D01*
X160516003Y-79388729D01*
X160516004Y-79388731D01*
X160554953Y-79440760D01*
X160602252Y-79503944D01*
X160602253Y-79503944D01*
X160602254Y-79503946D01*
X160668493Y-79553533D01*
X160711039Y-79610368D01*
X160716103Y-79681184D01*
X160682078Y-79743496D01*
X160668497Y-79755263D01*
X160633861Y-79781192D01*
X160602252Y-79804855D01*
X160516003Y-79920070D01*
X160516001Y-79920073D01*
X160465709Y-80054915D01*
X160459300Y-80114521D01*
X160459300Y-81734264D01*
X160459302Y-81734285D01*
X160465708Y-81793880D01*
X160465708Y-81793881D01*
X160516001Y-81928726D01*
X160516003Y-81928729D01*
X160516004Y-81928731D01*
X160520817Y-81935160D01*
X160602253Y-82043946D01*
X160659861Y-82087071D01*
X160717469Y-82130196D01*
X160717471Y-82130196D01*
X160717473Y-82130198D01*
X160777830Y-82152709D01*
X160852314Y-82180490D01*
X160852317Y-82180491D01*
X160911927Y-82186900D01*
X162531672Y-82186899D01*
X162591283Y-82180491D01*
X162726131Y-82130196D01*
X162841346Y-82043946D01*
X162890933Y-81977706D01*
X162947768Y-81935160D01*
X163018583Y-81930096D01*
X163080895Y-81964121D01*
X163092663Y-81977702D01*
X163142254Y-82043946D01*
X163257469Y-82130196D01*
X163257471Y-82130196D01*
X163257473Y-82130198D01*
X163317830Y-82152709D01*
X163392314Y-82180490D01*
X163392317Y-82180491D01*
X163451927Y-82186900D01*
X164143300Y-82186899D01*
X164211421Y-82206901D01*
X164257914Y-82260557D01*
X164269300Y-82312899D01*
X164269300Y-83004264D01*
X164269302Y-83004285D01*
X164275708Y-83063880D01*
X164275708Y-83063881D01*
X164326001Y-83198726D01*
X164326003Y-83198729D01*
X164326004Y-83198731D01*
X164350875Y-83231954D01*
X164412253Y-83313946D01*
X164434037Y-83330253D01*
X164527469Y-83400196D01*
X164527471Y-83400196D01*
X164527473Y-83400198D01*
X164572922Y-83417149D01*
X164662314Y-83450490D01*
X164662317Y-83450491D01*
X164721927Y-83456900D01*
X166341672Y-83456899D01*
X166401283Y-83450491D01*
X166536131Y-83400196D01*
X166651346Y-83313946D01*
X166700933Y-83247706D01*
X166757768Y-83205160D01*
X166828583Y-83200096D01*
X166890895Y-83234121D01*
X166902663Y-83247702D01*
X166952254Y-83313946D01*
X167067469Y-83400196D01*
X167067471Y-83400196D01*
X167067473Y-83400198D01*
X167112922Y-83417149D01*
X167202314Y-83450490D01*
X167202317Y-83450491D01*
X167261927Y-83456900D01*
X168881672Y-83456899D01*
X168941283Y-83450491D01*
X169076131Y-83400196D01*
X169191346Y-83313946D01*
X169277596Y-83198731D01*
X169327891Y-83063883D01*
X169334300Y-83004273D01*
X169334299Y-81384528D01*
X169327891Y-81324917D01*
X169300790Y-81252255D01*
X169277598Y-81190073D01*
X169277596Y-81190070D01*
X169277596Y-81190069D01*
X169191346Y-81074854D01*
X169125106Y-81025266D01*
X169082560Y-80968432D01*
X169077496Y-80897617D01*
X169111521Y-80835305D01*
X169125102Y-80823536D01*
X169191346Y-80773946D01*
X169277596Y-80658731D01*
X169282274Y-80646190D01*
X169317371Y-80552088D01*
X169327891Y-80523883D01*
X169334300Y-80464273D01*
X169334299Y-78844528D01*
X169327891Y-78784917D01*
X169306600Y-78727835D01*
X169277598Y-78650073D01*
X169277596Y-78650070D01*
X169277596Y-78650069D01*
X169191346Y-78534854D01*
X169125106Y-78485266D01*
X169082560Y-78428432D01*
X169077496Y-78357617D01*
X169111521Y-78295305D01*
X169125102Y-78283536D01*
X169191346Y-78233946D01*
X169277596Y-78118731D01*
X169327891Y-77983883D01*
X169334300Y-77924273D01*
X169334299Y-76304528D01*
X169327891Y-76244917D01*
X169306600Y-76187835D01*
X169277598Y-76110073D01*
X169277596Y-76110070D01*
X169277596Y-76110069D01*
X169230768Y-76047515D01*
X169191346Y-75994853D01*
X169114391Y-75937245D01*
X169076131Y-75908604D01*
X169076129Y-75908603D01*
X169076126Y-75908601D01*
X168941283Y-75858309D01*
X168941286Y-75858309D01*
X168881673Y-75851900D01*
X167261935Y-75851900D01*
X167261914Y-75851902D01*
X167202319Y-75858308D01*
X167202318Y-75858308D01*
X167067473Y-75908601D01*
X167067470Y-75908603D01*
X166952255Y-75994852D01*
X166941765Y-76008865D01*
X166902666Y-76061093D01*
X166845832Y-76103639D01*
X166775016Y-76108703D01*
X166712704Y-76074678D01*
X166700936Y-76061097D01*
X166651346Y-75994854D01*
X166651344Y-75994853D01*
X166651344Y-75994852D01*
X166582431Y-75943264D01*
X166536131Y-75908604D01*
X166536129Y-75908603D01*
X166536126Y-75908601D01*
X166401283Y-75858309D01*
X166401286Y-75858309D01*
X166341673Y-75851900D01*
X164721935Y-75851900D01*
X164721914Y-75851902D01*
X164662319Y-75858308D01*
X164662318Y-75858308D01*
X164527473Y-75908601D01*
X164527470Y-75908603D01*
X164412253Y-75994853D01*
X164326003Y-76110070D01*
X164326001Y-76110073D01*
X164275709Y-76244915D01*
X164269300Y-76304521D01*
X164269300Y-76995900D01*
X164249298Y-77064021D01*
X164195642Y-77110514D01*
X164143300Y-77121900D01*
X163451935Y-77121900D01*
X163451914Y-77121902D01*
X163392319Y-77128308D01*
X163392318Y-77128308D01*
X163257473Y-77178601D01*
X163257470Y-77178603D01*
X163142255Y-77264852D01*
X163142254Y-77264854D01*
X163092666Y-77331093D01*
X163035832Y-77373639D01*
X162965016Y-77378703D01*
X162902704Y-77344678D01*
X162890936Y-77331097D01*
X162841346Y-77264854D01*
X162841344Y-77264853D01*
X162841344Y-77264852D01*
X162772567Y-77213366D01*
X162726131Y-77178604D01*
X162726129Y-77178603D01*
X162726126Y-77178601D01*
X162591283Y-77128309D01*
X162591286Y-77128309D01*
X162531673Y-77121900D01*
X160911935Y-77121900D01*
X160911914Y-77121902D01*
X160852319Y-77128308D01*
X160852318Y-77128308D01*
X160717473Y-77178601D01*
X160717470Y-77178603D01*
X160602253Y-77264853D01*
X160516003Y-77380070D01*
X160516001Y-77380073D01*
X160465709Y-77514915D01*
X160459300Y-77574521D01*
X152824300Y-77574521D01*
X152824299Y-75446528D01*
X152817891Y-75386917D01*
X152796600Y-75329835D01*
X152767598Y-75252073D01*
X152767596Y-75252070D01*
X152767596Y-75252069D01*
X152724471Y-75194461D01*
X152681346Y-75136853D01*
X152604391Y-75079245D01*
X152566131Y-75050604D01*
X152566129Y-75050603D01*
X152566128Y-75050602D01*
X152518623Y-75032884D01*
X152461787Y-74990337D01*
X152436976Y-74923817D01*
X152452067Y-74854443D01*
X152473569Y-74825724D01*
X152478498Y-74820796D01*
X152540813Y-74786777D01*
X152567584Y-74783900D01*
X152922678Y-74783900D01*
X152990799Y-74803902D01*
X153020078Y-74829967D01*
X153048996Y-74865204D01*
X153192964Y-74983356D01*
X153192965Y-74983356D01*
X153192967Y-74983358D01*
X153357222Y-75071155D01*
X153535450Y-75125220D01*
X153535456Y-75125220D01*
X153535458Y-75125221D01*
X153720797Y-75143475D01*
X153720800Y-75143475D01*
X153720803Y-75143475D01*
X153906141Y-75125221D01*
X153906141Y-75125220D01*
X153906150Y-75125220D01*
X154084378Y-75071155D01*
X154248633Y-74983358D01*
X154392604Y-74865204D01*
X154392606Y-74865201D01*
X154392609Y-74865199D01*
X154393705Y-74864104D01*
X154394420Y-74863713D01*
X154397389Y-74861277D01*
X154397851Y-74861840D01*
X154456017Y-74830078D01*
X154526832Y-74835143D01*
X154567964Y-74861577D01*
X154568211Y-74861277D01*
X154570791Y-74863394D01*
X154571895Y-74864104D01*
X154572990Y-74865199D01*
X154716964Y-74983356D01*
X154716965Y-74983356D01*
X154716967Y-74983358D01*
X154881222Y-75071155D01*
X155059450Y-75125220D01*
X155059456Y-75125220D01*
X155059458Y-75125221D01*
X155244797Y-75143475D01*
X155244800Y-75143475D01*
X155244803Y-75143475D01*
X155430141Y-75125221D01*
X155430141Y-75125220D01*
X155430150Y-75125220D01*
X155608378Y-75071155D01*
X155772633Y-74983358D01*
X155916604Y-74865204D01*
X155916606Y-74865201D01*
X155916609Y-74865199D01*
X155917705Y-74864104D01*
X155918420Y-74863713D01*
X155921389Y-74861277D01*
X155921851Y-74861840D01*
X155980017Y-74830078D01*
X156050832Y-74835143D01*
X156091964Y-74861577D01*
X156092211Y-74861277D01*
X156094791Y-74863394D01*
X156095895Y-74864104D01*
X156096990Y-74865199D01*
X156240964Y-74983356D01*
X156240965Y-74983356D01*
X156240967Y-74983358D01*
X156405222Y-75071155D01*
X156583450Y-75125220D01*
X156583456Y-75125220D01*
X156583458Y-75125221D01*
X156768797Y-75143475D01*
X156768800Y-75143475D01*
X156768803Y-75143475D01*
X156954141Y-75125221D01*
X156954141Y-75125220D01*
X156954150Y-75125220D01*
X157132378Y-75071155D01*
X157296633Y-74983358D01*
X157440604Y-74865204D01*
X157440606Y-74865201D01*
X157440609Y-74865199D01*
X157441705Y-74864104D01*
X157442420Y-74863713D01*
X157445389Y-74861277D01*
X157445851Y-74861840D01*
X157504017Y-74830078D01*
X157574832Y-74835143D01*
X157615964Y-74861577D01*
X157616211Y-74861277D01*
X157618791Y-74863394D01*
X157619895Y-74864104D01*
X157620990Y-74865199D01*
X157764964Y-74983356D01*
X157764965Y-74983356D01*
X157764967Y-74983358D01*
X157929222Y-75071155D01*
X158107450Y-75125220D01*
X158107456Y-75125220D01*
X158107458Y-75125221D01*
X158292797Y-75143475D01*
X158292800Y-75143475D01*
X158292803Y-75143475D01*
X158478141Y-75125221D01*
X158478141Y-75125220D01*
X158478150Y-75125220D01*
X158656378Y-75071155D01*
X158820633Y-74983358D01*
X158964604Y-74865204D01*
X158964606Y-74865201D01*
X158964609Y-74865199D01*
X158965705Y-74864104D01*
X158966420Y-74863713D01*
X158969389Y-74861277D01*
X158969851Y-74861840D01*
X159028017Y-74830078D01*
X159098832Y-74835143D01*
X159139964Y-74861577D01*
X159140211Y-74861277D01*
X159142791Y-74863394D01*
X159143895Y-74864104D01*
X159144990Y-74865199D01*
X159288964Y-74983356D01*
X159288965Y-74983356D01*
X159288967Y-74983358D01*
X159453222Y-75071155D01*
X159631450Y-75125220D01*
X159631456Y-75125220D01*
X159631458Y-75125221D01*
X159816797Y-75143475D01*
X159816800Y-75143475D01*
X159816803Y-75143475D01*
X160002141Y-75125221D01*
X160002141Y-75125220D01*
X160002150Y-75125220D01*
X160180378Y-75071155D01*
X160344633Y-74983358D01*
X160488604Y-74865204D01*
X160606758Y-74721233D01*
X160694555Y-74556978D01*
X160748620Y-74378750D01*
X160751912Y-74345322D01*
X160766875Y-74193403D01*
X160766875Y-74193396D01*
X160748621Y-74008058D01*
X160748620Y-74008056D01*
X160748620Y-74008050D01*
X160694555Y-73829822D01*
X160606758Y-73665567D01*
X160588354Y-73643142D01*
X160550324Y-73596802D01*
X160488604Y-73521596D01*
X160407403Y-73454956D01*
X160344635Y-73403443D01*
X160313639Y-73386875D01*
X160180378Y-73315645D01*
X160002150Y-73261580D01*
X160002146Y-73261579D01*
X160002141Y-73261578D01*
X159816803Y-73243325D01*
X159816797Y-73243325D01*
X159631458Y-73261578D01*
X159631452Y-73261579D01*
X159631450Y-73261580D01*
X159453222Y-73315645D01*
X159288964Y-73403443D01*
X159144990Y-73521600D01*
X159143895Y-73522696D01*
X159143179Y-73523086D01*
X159140211Y-73525523D01*
X159139748Y-73524959D01*
X159081583Y-73556722D01*
X159010768Y-73551657D01*
X158969635Y-73525222D01*
X158969389Y-73525523D01*
X158966808Y-73523405D01*
X158965705Y-73522696D01*
X158964609Y-73521600D01*
X158820635Y-73403443D01*
X158789639Y-73386875D01*
X158656378Y-73315645D01*
X158478150Y-73261580D01*
X158478146Y-73261579D01*
X158478141Y-73261578D01*
X158292803Y-73243325D01*
X158292797Y-73243325D01*
X158107458Y-73261578D01*
X158107452Y-73261579D01*
X158107450Y-73261580D01*
X157929222Y-73315645D01*
X157764964Y-73403443D01*
X157620992Y-73521599D01*
X157619887Y-73522705D01*
X157619166Y-73523098D01*
X157616212Y-73525523D01*
X157615751Y-73524962D01*
X157557572Y-73556724D01*
X157486757Y-73551653D01*
X157445633Y-73525224D01*
X157445388Y-73525523D01*
X157442825Y-73523419D01*
X157441713Y-73522705D01*
X157440607Y-73521599D01*
X157440605Y-73521597D01*
X157440604Y-73521596D01*
X157359403Y-73454956D01*
X157296635Y-73403443D01*
X157265639Y-73386875D01*
X157132378Y-73315645D01*
X156954150Y-73261580D01*
X156954146Y-73261579D01*
X156954141Y-73261578D01*
X156768803Y-73243325D01*
X156768797Y-73243325D01*
X156583458Y-73261578D01*
X156583452Y-73261579D01*
X156583450Y-73261580D01*
X156405222Y-73315645D01*
X156240964Y-73403443D01*
X156096990Y-73521600D01*
X156095895Y-73522696D01*
X156095179Y-73523086D01*
X156092211Y-73525523D01*
X156091748Y-73524959D01*
X156033583Y-73556722D01*
X155962768Y-73551657D01*
X155921635Y-73525222D01*
X155921389Y-73525523D01*
X155918808Y-73523405D01*
X155917705Y-73522696D01*
X155916609Y-73521600D01*
X155772635Y-73403443D01*
X155741639Y-73386875D01*
X155608378Y-73315645D01*
X155430150Y-73261580D01*
X155430146Y-73261579D01*
X155430141Y-73261578D01*
X155244803Y-73243325D01*
X155244797Y-73243325D01*
X155059458Y-73261578D01*
X155059452Y-73261579D01*
X155059450Y-73261580D01*
X154881222Y-73315645D01*
X154716964Y-73403443D01*
X154572992Y-73521599D01*
X154571887Y-73522705D01*
X154571166Y-73523098D01*
X154568212Y-73525523D01*
X154567751Y-73524962D01*
X154509572Y-73556724D01*
X154438757Y-73551653D01*
X154397633Y-73525224D01*
X154397388Y-73525523D01*
X154394825Y-73523419D01*
X154393713Y-73522705D01*
X154392607Y-73521599D01*
X154392605Y-73521597D01*
X154392604Y-73521596D01*
X154311403Y-73454956D01*
X154248635Y-73403443D01*
X154217639Y-73386875D01*
X154084378Y-73315645D01*
X153906150Y-73261580D01*
X153906146Y-73261579D01*
X153906141Y-73261578D01*
X153720803Y-73243325D01*
X153720797Y-73243325D01*
X153535458Y-73261578D01*
X153535452Y-73261579D01*
X153535450Y-73261580D01*
X153357222Y-73315645D01*
X153192964Y-73403443D01*
X153048996Y-73521595D01*
X153020078Y-73556833D01*
X152961401Y-73596802D01*
X152922678Y-73602900D01*
X152193059Y-73602900D01*
X152161323Y-73611403D01*
X152074613Y-73634636D01*
X152074612Y-73634637D01*
X152042875Y-73643142D01*
X152042874Y-73643142D01*
X152042872Y-73643143D01*
X152042871Y-73643143D01*
X151908228Y-73720879D01*
X151908218Y-73720887D01*
X150672111Y-74956995D01*
X150609799Y-74991021D01*
X150583016Y-74993900D01*
X150015177Y-74993900D01*
X149947056Y-74973898D01*
X149900563Y-74920242D01*
X149890459Y-74849968D01*
X149919953Y-74785388D01*
X149966958Y-74751491D01*
X150002217Y-74736885D01*
X150120956Y-74657546D01*
X150120958Y-74657545D01*
X150221945Y-74556559D01*
X150250167Y-74514320D01*
X150250167Y-74514319D01*
X149945263Y-74209415D01*
X149958800Y-74158896D01*
X149958800Y-73569399D01*
X150012353Y-73569399D01*
X150012353Y-73569401D01*
X150383799Y-73940847D01*
X150383800Y-73940847D01*
X150383800Y-73197953D01*
X150383799Y-73197952D01*
X150012353Y-73569399D01*
X149958800Y-73569399D01*
X149958800Y-72979904D01*
X149945263Y-72929382D01*
X150157841Y-72716805D01*
X150220154Y-72682780D01*
X150246937Y-72679900D01*
X179746300Y-72679900D01*
X179814421Y-72699902D01*
G37*
%TD.AperFunction*%
%TA.AperFunction,Conductor*%
G36*
X117559857Y-72699902D02*
G01*
X117606350Y-72753558D01*
X117616454Y-72823832D01*
X117608145Y-72854119D01*
X117562662Y-72963923D01*
X117562661Y-72963924D01*
X117534800Y-73103991D01*
X117534800Y-73246808D01*
X117562661Y-73386875D01*
X117562663Y-73386880D01*
X117617313Y-73518815D01*
X117696653Y-73637556D01*
X117696654Y-73637558D01*
X117797640Y-73738545D01*
X117797642Y-73738546D01*
X117839878Y-73766767D01*
X117839880Y-73766767D01*
X118144783Y-73461863D01*
X118195304Y-73475400D01*
X119374296Y-73475400D01*
X119424816Y-73461863D01*
X119729720Y-73766767D01*
X119771959Y-73738545D01*
X119872945Y-73637558D01*
X119872946Y-73637556D01*
X119952286Y-73518815D01*
X120006936Y-73386880D01*
X120006938Y-73386875D01*
X120034799Y-73246808D01*
X120034800Y-73246804D01*
X120034800Y-73103995D01*
X120034799Y-73103991D01*
X120006938Y-72963924D01*
X120006937Y-72963923D01*
X119961455Y-72854119D01*
X119953866Y-72783529D01*
X119985645Y-72720042D01*
X120046703Y-72683814D01*
X120077864Y-72679900D01*
X140430663Y-72679900D01*
X140498784Y-72699902D01*
X140519759Y-72716805D01*
X140732336Y-72929382D01*
X140718800Y-72979904D01*
X140718800Y-73622952D01*
X140293800Y-73197952D01*
X140293800Y-74165808D01*
X140294201Y-74167823D01*
X140294104Y-74168899D01*
X140294407Y-74171970D01*
X140293824Y-74172027D01*
X140287871Y-74238537D01*
X140244315Y-74294603D01*
X140177362Y-74318221D01*
X140170621Y-74318401D01*
X135808303Y-74318401D01*
X135672970Y-74345321D01*
X135672967Y-74345322D01*
X135545489Y-74398125D01*
X135430755Y-74474787D01*
X135419661Y-74485881D01*
X135357347Y-74519904D01*
X135342919Y-74522176D01*
X135247457Y-74531578D01*
X135247450Y-74531579D01*
X135247450Y-74531580D01*
X135163728Y-74556977D01*
X135069222Y-74585645D01*
X134904964Y-74673443D01*
X134760996Y-74791596D01*
X134642843Y-74935564D01*
X134570368Y-75071155D01*
X134555045Y-75099822D01*
X134508862Y-75252069D01*
X134500978Y-75278058D01*
X134482725Y-75463396D01*
X134482725Y-75463403D01*
X134500978Y-75648741D01*
X134500979Y-75648746D01*
X134500980Y-75648750D01*
X134555045Y-75826978D01*
X134617202Y-75943264D01*
X134642843Y-75991235D01*
X134657312Y-76008865D01*
X134760996Y-76135204D01*
X134859466Y-76216016D01*
X134904964Y-76253356D01*
X134904965Y-76253356D01*
X134904967Y-76253358D01*
X135069222Y-76341155D01*
X135247450Y-76395220D01*
X135247456Y-76395220D01*
X135247458Y-76395221D01*
X135432797Y-76413475D01*
X135432800Y-76413475D01*
X135432803Y-76413475D01*
X135618141Y-76395221D01*
X135618141Y-76395220D01*
X135618150Y-76395220D01*
X135796378Y-76341155D01*
X135960633Y-76253358D01*
X136104604Y-76135204D01*
X136222758Y-75991233D01*
X136310555Y-75826978D01*
X136316061Y-75808826D01*
X136354975Y-75749445D01*
X136419816Y-75720529D01*
X136436636Y-75719401D01*
X137183952Y-75719401D01*
X137252073Y-75739403D01*
X137298566Y-75793059D01*
X137308670Y-75863333D01*
X137279176Y-75927913D01*
X137273047Y-75934496D01*
X137174690Y-76032852D01*
X137174685Y-76032858D01*
X137098025Y-76147589D01*
X137045221Y-76275068D01*
X137045220Y-76275071D01*
X137018300Y-76410404D01*
X137018300Y-79088395D01*
X137045220Y-79223728D01*
X137045221Y-79223731D01*
X137079581Y-79306683D01*
X137087170Y-79377273D01*
X137055391Y-79440760D01*
X136994333Y-79476987D01*
X136963172Y-79480901D01*
X133982035Y-79480901D01*
X133913914Y-79460899D01*
X133892940Y-79443996D01*
X131751405Y-77302461D01*
X131717379Y-77240149D01*
X131714500Y-77213366D01*
X131714500Y-76618535D01*
X131714500Y-76618531D01*
X131689501Y-76492856D01*
X131640465Y-76374473D01*
X131569276Y-76267931D01*
X131478669Y-76177324D01*
X130830046Y-75528701D01*
X130796020Y-75466389D01*
X130793748Y-75451956D01*
X130776621Y-75278058D01*
X130776620Y-75278056D01*
X130776620Y-75278050D01*
X130722555Y-75099822D01*
X130634758Y-74935567D01*
X130516604Y-74791596D01*
X130430869Y-74721235D01*
X130372635Y-74673443D01*
X130325753Y-74648384D01*
X130208378Y-74585645D01*
X130030150Y-74531580D01*
X130030146Y-74531579D01*
X130030141Y-74531578D01*
X129844803Y-74513325D01*
X129844797Y-74513325D01*
X129659458Y-74531578D01*
X129659452Y-74531579D01*
X129659450Y-74531580D01*
X129557811Y-74562412D01*
X129481222Y-74585645D01*
X129316964Y-74673443D01*
X129172996Y-74791596D01*
X129054843Y-74935564D01*
X128982368Y-75071155D01*
X128967045Y-75099822D01*
X128920862Y-75252069D01*
X128912978Y-75278058D01*
X128894725Y-75463396D01*
X128894725Y-75463403D01*
X128912978Y-75648741D01*
X128912979Y-75648746D01*
X128912980Y-75648750D01*
X128967045Y-75826978D01*
X129029202Y-75943264D01*
X129054843Y-75991235D01*
X129069312Y-76008865D01*
X129172996Y-76135204D01*
X129271466Y-76216016D01*
X129316964Y-76253356D01*
X129316965Y-76253356D01*
X129316967Y-76253358D01*
X129481222Y-76341155D01*
X129659450Y-76395220D01*
X129659456Y-76395220D01*
X129659458Y-76395221D01*
X129833356Y-76412348D01*
X129899188Y-76438930D01*
X129910101Y-76448646D01*
X130376595Y-76915140D01*
X130410621Y-76977452D01*
X130413500Y-77004235D01*
X130413500Y-77599071D01*
X130430632Y-77685196D01*
X130438499Y-77724746D01*
X130438500Y-77724750D01*
X130438501Y-77724751D01*
X130447011Y-77745297D01*
X130487535Y-77843129D01*
X130525436Y-77899853D01*
X130558723Y-77949671D01*
X130558726Y-77949675D01*
X132651357Y-80042306D01*
X132685383Y-80104618D01*
X132680318Y-80175433D01*
X132651357Y-80220496D01*
X130253926Y-82617926D01*
X130253923Y-82617930D01*
X130199013Y-82700111D01*
X130199012Y-82700110D01*
X130182736Y-82724469D01*
X130133700Y-82842853D01*
X130133699Y-82842854D01*
X130108700Y-82968532D01*
X130108700Y-86565910D01*
X130088698Y-86634031D01*
X130035042Y-86680524D01*
X129970351Y-86691303D01*
X129888936Y-86683285D01*
X129888928Y-86683285D01*
X129703589Y-86701538D01*
X129703583Y-86701539D01*
X129703581Y-86701540D01*
X129547203Y-86748977D01*
X129525353Y-86755605D01*
X129361095Y-86843403D01*
X129217127Y-86961556D01*
X129098974Y-87105524D01*
X129040127Y-87215619D01*
X129011176Y-87269782D01*
X128985463Y-87354548D01*
X128957109Y-87448018D01*
X128938856Y-87633356D01*
X128938856Y-87633363D01*
X128957109Y-87818701D01*
X128957110Y-87818706D01*
X128957111Y-87818710D01*
X129011176Y-87996938D01*
X129086574Y-88137996D01*
X129098974Y-88161195D01*
X129209830Y-88296272D01*
X129237584Y-88361619D01*
X129238431Y-88376206D01*
X129238431Y-90921833D01*
X129218429Y-90989954D01*
X129201526Y-91010928D01*
X127910459Y-92301995D01*
X127848147Y-92336021D01*
X127821364Y-92338900D01*
X119871633Y-92338900D01*
X119847052Y-92336479D01*
X119744391Y-92316058D01*
X118853049Y-92316058D01*
X118853048Y-92316058D01*
X118750388Y-92336479D01*
X118725807Y-92338900D01*
X112572231Y-92338900D01*
X112530339Y-92347233D01*
X112446554Y-92363899D01*
X112446553Y-92363900D01*
X112377205Y-92392625D01*
X112328642Y-92412741D01*
X112328171Y-92412936D01*
X112221635Y-92484121D01*
X112221628Y-92484126D01*
X112131026Y-92574728D01*
X112131021Y-92574735D01*
X112059836Y-92681271D01*
X112010800Y-92799653D01*
X112010799Y-92799654D01*
X112010799Y-92799656D01*
X111985800Y-92925331D01*
X111985800Y-93053469D01*
X112010799Y-93179144D01*
X112059835Y-93297527D01*
X112131024Y-93404069D01*
X112221631Y-93494676D01*
X112328173Y-93565865D01*
X112446556Y-93614901D01*
X112572231Y-93639900D01*
X112572236Y-93639900D01*
X118958340Y-93639900D01*
X118958345Y-93639900D01*
X119046621Y-93622340D01*
X119061006Y-93619479D01*
X119085587Y-93617058D01*
X119511853Y-93617058D01*
X119536434Y-93619479D01*
X119553786Y-93622930D01*
X119639095Y-93639900D01*
X119639100Y-93639900D01*
X128207064Y-93639900D01*
X128207069Y-93639900D01*
X128332744Y-93614901D01*
X128451127Y-93565865D01*
X128485313Y-93543023D01*
X128557669Y-93494677D01*
X129247107Y-92805237D01*
X129309418Y-92771214D01*
X129380233Y-92776278D01*
X129433597Y-92814398D01*
X129503196Y-92899204D01*
X129564783Y-92949747D01*
X129647164Y-93017356D01*
X129647165Y-93017356D01*
X129647167Y-93017358D01*
X129811422Y-93105155D01*
X129989650Y-93159220D01*
X129989656Y-93159220D01*
X129989658Y-93159221D01*
X130174997Y-93177475D01*
X130175000Y-93177475D01*
X130175003Y-93177475D01*
X130360341Y-93159221D01*
X130360341Y-93159220D01*
X130360350Y-93159220D01*
X130538578Y-93105155D01*
X130702833Y-93017358D01*
X130846804Y-92899204D01*
X130964958Y-92755233D01*
X131052755Y-92590978D01*
X131106820Y-92412750D01*
X131113480Y-92345131D01*
X131123948Y-92238845D01*
X131150530Y-92173013D01*
X131160246Y-92162099D01*
X131169324Y-92153021D01*
X131264477Y-92057869D01*
X131335666Y-91951326D01*
X131384701Y-91832943D01*
X131409700Y-91707269D01*
X131409700Y-91579131D01*
X131409700Y-89529916D01*
X132242445Y-89529916D01*
X132242445Y-89529923D01*
X132260698Y-89715261D01*
X132260699Y-89715266D01*
X132260700Y-89715270D01*
X132314765Y-89893498D01*
X132392520Y-90038967D01*
X132402563Y-90057755D01*
X132403640Y-90059067D01*
X132520716Y-90201724D01*
X132613537Y-90277900D01*
X132664684Y-90319876D01*
X132664685Y-90319876D01*
X132664687Y-90319878D01*
X132828942Y-90407675D01*
X133007170Y-90461740D01*
X133007176Y-90461740D01*
X133007178Y-90461741D01*
X133192517Y-90479995D01*
X133192520Y-90479995D01*
X133192523Y-90479995D01*
X133377861Y-90461741D01*
X133377861Y-90461740D01*
X133377870Y-90461740D01*
X133556098Y-90407675D01*
X133720353Y-90319878D01*
X133864324Y-90201724D01*
X133982478Y-90057753D01*
X134070275Y-89893498D01*
X134124340Y-89715270D01*
X134134093Y-89616242D01*
X134142595Y-89529923D01*
X134142595Y-89529916D01*
X134124341Y-89344578D01*
X134124340Y-89344576D01*
X134124340Y-89344570D01*
X134070275Y-89166342D01*
X133982478Y-89002087D01*
X133921642Y-88927958D01*
X133921620Y-88927931D01*
X133893867Y-88862584D01*
X133893020Y-88847998D01*
X133893020Y-87901227D01*
X133913022Y-87833106D01*
X133929925Y-87812132D01*
X134828824Y-86913233D01*
X135778433Y-85963624D01*
X135855094Y-85848892D01*
X135907899Y-85721409D01*
X135934819Y-85586075D01*
X135934819Y-85448087D01*
X135934819Y-84612238D01*
X135954821Y-84544117D01*
X135963414Y-84532311D01*
X136024277Y-84458151D01*
X136112074Y-84293896D01*
X136166139Y-84115668D01*
X136169695Y-84079565D01*
X136184394Y-83930321D01*
X136184394Y-83930314D01*
X136166140Y-83744976D01*
X136166139Y-83744974D01*
X136166139Y-83744968D01*
X136112074Y-83566740D01*
X136024277Y-83402485D01*
X136022400Y-83400198D01*
X135984680Y-83354236D01*
X135906123Y-83258514D01*
X135795320Y-83167580D01*
X135762154Y-83140361D01*
X135743366Y-83130318D01*
X135597897Y-83052563D01*
X135419669Y-82998498D01*
X135419665Y-82998497D01*
X135419660Y-82998496D01*
X135234322Y-82980243D01*
X135234316Y-82980243D01*
X135048977Y-82998496D01*
X135048971Y-82998497D01*
X135048969Y-82998498D01*
X134870741Y-83052563D01*
X134706483Y-83140361D01*
X134562515Y-83258514D01*
X134444362Y-83402482D01*
X134371397Y-83538989D01*
X134356564Y-83566740D01*
X134304542Y-83738235D01*
X134302497Y-83744976D01*
X134284244Y-83930314D01*
X134284244Y-83930321D01*
X134302497Y-84115659D01*
X134302498Y-84115664D01*
X134302499Y-84115668D01*
X134335341Y-84223934D01*
X134356564Y-84293897D01*
X134444359Y-84458149D01*
X134448322Y-84462978D01*
X134505218Y-84532305D01*
X134532972Y-84597650D01*
X134533819Y-84612238D01*
X134533819Y-85174733D01*
X134513817Y-85242854D01*
X134496914Y-85263828D01*
X132648409Y-87112332D01*
X132648406Y-87112336D01*
X132579396Y-87215619D01*
X132579394Y-87215621D01*
X132571746Y-87227066D01*
X132518941Y-87354548D01*
X132518940Y-87354551D01*
X132492020Y-87489884D01*
X132492020Y-88847998D01*
X132472018Y-88916119D01*
X132463420Y-88927931D01*
X132402563Y-89002085D01*
X132314765Y-89166342D01*
X132260698Y-89344578D01*
X132242445Y-89529916D01*
X131409700Y-89529916D01*
X131409700Y-85028928D01*
X131815649Y-85028928D01*
X131815649Y-85028935D01*
X131833902Y-85214273D01*
X131833903Y-85214278D01*
X131833904Y-85214282D01*
X131887969Y-85392510D01*
X131939523Y-85488960D01*
X131975767Y-85556767D01*
X132027597Y-85619922D01*
X132093920Y-85700736D01*
X132161218Y-85755966D01*
X132237888Y-85818888D01*
X132237889Y-85818888D01*
X132237891Y-85818890D01*
X132402146Y-85906687D01*
X132580374Y-85960752D01*
X132580380Y-85960752D01*
X132580382Y-85960753D01*
X132765721Y-85979007D01*
X132765724Y-85979007D01*
X132765727Y-85979007D01*
X132951065Y-85960753D01*
X132951065Y-85960752D01*
X132951074Y-85960752D01*
X133129302Y-85906687D01*
X133293557Y-85818890D01*
X133437528Y-85700736D01*
X133555682Y-85556765D01*
X133643479Y-85392510D01*
X133697544Y-85214282D01*
X133705329Y-85135235D01*
X133715799Y-85028935D01*
X133715799Y-85028928D01*
X133697545Y-84843590D01*
X133697544Y-84843588D01*
X133697544Y-84843582D01*
X133643479Y-84665354D01*
X133555682Y-84501099D01*
X133437528Y-84357128D01*
X133349324Y-84284741D01*
X133293559Y-84238975D01*
X133256984Y-84219425D01*
X133129302Y-84151177D01*
X132951074Y-84097112D01*
X132951070Y-84097111D01*
X132951065Y-84097110D01*
X132765727Y-84078857D01*
X132765721Y-84078857D01*
X132580382Y-84097110D01*
X132580376Y-84097111D01*
X132580374Y-84097112D01*
X132431673Y-84142220D01*
X132402146Y-84151177D01*
X132237888Y-84238975D01*
X132093920Y-84357128D01*
X131975767Y-84501096D01*
X131918946Y-84607400D01*
X131887969Y-84665354D01*
X131834516Y-84841567D01*
X131833902Y-84843590D01*
X131815649Y-85028928D01*
X131409700Y-85028928D01*
X131409700Y-83354236D01*
X131429702Y-83286115D01*
X131446605Y-83265141D01*
X133892940Y-80818806D01*
X133955252Y-80784780D01*
X133982035Y-80781901D01*
X138167740Y-80781901D01*
X138235861Y-80801903D01*
X138282354Y-80855559D01*
X138293134Y-80920247D01*
X138292725Y-80924401D01*
X138292725Y-80924403D01*
X138310978Y-81109741D01*
X138310979Y-81109746D01*
X138310980Y-81109750D01*
X138365045Y-81287978D01*
X138416645Y-81384514D01*
X138452843Y-81452235D01*
X138484452Y-81490750D01*
X138570996Y-81596204D01*
X138659670Y-81668977D01*
X138714964Y-81714356D01*
X138714965Y-81714356D01*
X138714967Y-81714358D01*
X138879222Y-81802155D01*
X139057450Y-81856220D01*
X139057456Y-81856220D01*
X139057458Y-81856221D01*
X139242797Y-81874475D01*
X139242800Y-81874475D01*
X139242803Y-81874475D01*
X139428141Y-81856221D01*
X139428141Y-81856220D01*
X139428150Y-81856220D01*
X139606378Y-81802155D01*
X139770633Y-81714358D01*
X139844789Y-81653500D01*
X139910136Y-81625747D01*
X139924722Y-81624900D01*
X142124794Y-81624900D01*
X142260128Y-81597980D01*
X142387611Y-81545175D01*
X142502343Y-81468514D01*
X143342914Y-80627943D01*
X143419575Y-80513211D01*
X143472380Y-80385728D01*
X143472859Y-80383315D01*
X143473457Y-80382172D01*
X143474174Y-80379811D01*
X143474621Y-80379946D01*
X143505767Y-80320408D01*
X143567462Y-80285276D01*
X143596438Y-80281899D01*
X143943454Y-80281899D01*
X144011575Y-80301901D01*
X144058068Y-80355557D01*
X144068172Y-80425831D01*
X144038678Y-80490411D01*
X144032549Y-80496994D01*
X132376520Y-92153021D01*
X132314208Y-92187047D01*
X132275077Y-92189319D01*
X132231361Y-92185014D01*
X132231352Y-92185014D01*
X132046013Y-92203267D01*
X132046007Y-92203268D01*
X132046005Y-92203269D01*
X131928727Y-92238845D01*
X131867777Y-92257334D01*
X131703519Y-92345132D01*
X131559551Y-92463285D01*
X131441398Y-92607253D01*
X131353600Y-92771511D01*
X131299533Y-92949747D01*
X131281280Y-93135085D01*
X131281280Y-93135092D01*
X131299533Y-93320430D01*
X131299534Y-93320435D01*
X131299535Y-93320439D01*
X131353600Y-93498667D01*
X131415729Y-93614901D01*
X131441398Y-93662924D01*
X131493228Y-93726079D01*
X131559551Y-93806893D01*
X131658021Y-93887705D01*
X131703519Y-93925045D01*
X131703520Y-93925045D01*
X131703522Y-93925047D01*
X131857927Y-94007579D01*
X131908574Y-94057331D01*
X131924283Y-94126567D01*
X131900067Y-94193306D01*
X131843613Y-94236358D01*
X131798529Y-94244700D01*
X123338522Y-94244700D01*
X123270401Y-94224698D01*
X123258589Y-94216100D01*
X123184434Y-94155243D01*
X123184433Y-94155242D01*
X123020178Y-94067445D01*
X122841950Y-94013380D01*
X122841946Y-94013379D01*
X122841941Y-94013378D01*
X122656603Y-93995125D01*
X122656597Y-93995125D01*
X122471258Y-94013378D01*
X122471252Y-94013379D01*
X122471250Y-94013380D01*
X122294789Y-94066909D01*
X122293022Y-94067445D01*
X122128764Y-94155243D01*
X121984796Y-94273396D01*
X121866643Y-94417364D01*
X121778845Y-94581622D01*
X121724778Y-94759858D01*
X121706525Y-94945196D01*
X121706525Y-94945203D01*
X121724778Y-95130541D01*
X121724779Y-95130546D01*
X121724780Y-95130550D01*
X121778845Y-95308778D01*
X121816724Y-95379643D01*
X121866643Y-95473035D01*
X121918473Y-95536190D01*
X121984796Y-95617004D01*
X122083266Y-95697816D01*
X122128764Y-95735156D01*
X122128765Y-95735156D01*
X122128767Y-95735158D01*
X122293022Y-95822955D01*
X122471250Y-95877020D01*
X122471256Y-95877020D01*
X122471258Y-95877021D01*
X122656597Y-95895275D01*
X122656600Y-95895275D01*
X122656603Y-95895275D01*
X122841941Y-95877021D01*
X122841941Y-95877020D01*
X122841950Y-95877020D01*
X123020178Y-95822955D01*
X123184433Y-95735158D01*
X123258589Y-95674300D01*
X123323936Y-95646547D01*
X123338522Y-95645700D01*
X132318977Y-95645700D01*
X132387098Y-95665702D01*
X132433591Y-95719358D01*
X132444370Y-95759350D01*
X132461035Y-95928562D01*
X132461036Y-95928567D01*
X132461037Y-95928571D01*
X132499232Y-96054483D01*
X132515102Y-96106800D01*
X132602897Y-96271052D01*
X132602899Y-96271054D01*
X132663756Y-96345208D01*
X132691510Y-96410553D01*
X132692357Y-96425141D01*
X132692357Y-96441543D01*
X132706337Y-96511822D01*
X132719277Y-96576874D01*
X132772082Y-96704357D01*
X132848743Y-96819089D01*
X133974479Y-97944825D01*
X135076395Y-99046740D01*
X135110420Y-99109052D01*
X135113300Y-99135835D01*
X135113300Y-101376478D01*
X135093298Y-101444599D01*
X135084700Y-101456411D01*
X135023843Y-101530565D01*
X135023842Y-101530567D01*
X134936045Y-101694822D01*
X134919315Y-101749975D01*
X134881978Y-101873058D01*
X134863725Y-102058396D01*
X134863725Y-102058403D01*
X134881978Y-102243741D01*
X134881979Y-102243746D01*
X134881980Y-102243750D01*
X134898756Y-102299052D01*
X134936045Y-102421979D01*
X135023452Y-102585504D01*
X135037924Y-102655010D01*
X135012520Y-102721306D01*
X134955307Y-102763344D01*
X134912330Y-102770900D01*
X120752974Y-102770900D01*
X120698974Y-102773794D01*
X120698940Y-102773796D01*
X120672190Y-102776672D01*
X120672179Y-102776674D01*
X120618756Y-102785331D01*
X120618753Y-102785332D01*
X120618751Y-102785332D01*
X120618749Y-102785333D01*
X120551345Y-102810474D01*
X120483937Y-102835616D01*
X120421625Y-102869642D01*
X120306457Y-102955859D01*
X120306445Y-102955869D01*
X113670321Y-109591995D01*
X113608009Y-109626021D01*
X113581226Y-109628900D01*
X105894489Y-109628900D01*
X105787053Y-109640451D01*
X105787031Y-109640455D01*
X105734718Y-109651835D01*
X105734697Y-109651841D01*
X105632164Y-109685967D01*
X105632163Y-109685967D01*
X105536421Y-109747498D01*
X105511126Y-109763754D01*
X105511123Y-109763755D01*
X105507341Y-109766187D01*
X105506637Y-109765092D01*
X105445484Y-109787882D01*
X105392502Y-109780256D01*
X105375487Y-109773910D01*
X105375486Y-109773909D01*
X105315878Y-109767500D01*
X101264340Y-109767500D01*
X101196219Y-109747498D01*
X101149726Y-109693842D01*
X101138340Y-109641500D01*
X101138340Y-107070825D01*
X111303214Y-107070825D01*
X111303214Y-107070832D01*
X111321467Y-107256170D01*
X111321468Y-107256175D01*
X111321469Y-107256179D01*
X111375534Y-107434407D01*
X111393971Y-107468899D01*
X111463332Y-107598664D01*
X111515162Y-107661819D01*
X111581485Y-107742633D01*
X111630033Y-107782475D01*
X111725453Y-107860785D01*
X111725454Y-107860785D01*
X111725456Y-107860787D01*
X111889711Y-107948584D01*
X112067939Y-108002649D01*
X112067945Y-108002649D01*
X112067947Y-108002650D01*
X112253286Y-108020904D01*
X112253289Y-108020904D01*
X112253292Y-108020904D01*
X112438630Y-108002650D01*
X112438630Y-108002649D01*
X112438639Y-108002649D01*
X112616867Y-107948584D01*
X112781122Y-107860787D01*
X112925093Y-107742633D01*
X113043247Y-107598662D01*
X113131044Y-107434407D01*
X113185109Y-107256179D01*
X113194511Y-107160710D01*
X113221092Y-107094878D01*
X113230792Y-107083981D01*
X114235478Y-106079297D01*
X114312139Y-105964565D01*
X114364944Y-105837083D01*
X114385278Y-105734856D01*
X114391864Y-105701747D01*
X114391864Y-105230429D01*
X114411866Y-105162308D01*
X114420459Y-105150502D01*
X114481322Y-105076342D01*
X114569119Y-104912087D01*
X114623184Y-104733859D01*
X114641439Y-104548509D01*
X114625098Y-104382596D01*
X114623185Y-104363167D01*
X114623184Y-104363165D01*
X114623184Y-104363159D01*
X114569119Y-104184931D01*
X114481322Y-104020676D01*
X114363168Y-103876705D01*
X114266134Y-103797071D01*
X114219199Y-103758552D01*
X114200411Y-103748509D01*
X114054942Y-103670754D01*
X113876714Y-103616689D01*
X113876710Y-103616688D01*
X113876705Y-103616687D01*
X113691367Y-103598434D01*
X113691361Y-103598434D01*
X113506022Y-103616687D01*
X113506016Y-103616688D01*
X113506014Y-103616689D01*
X113327786Y-103670754D01*
X113163528Y-103758552D01*
X113019560Y-103876705D01*
X112901407Y-104020673D01*
X112813609Y-104184931D01*
X112759542Y-104363167D01*
X112741289Y-104548505D01*
X112741289Y-104548512D01*
X112759542Y-104733850D01*
X112759543Y-104733855D01*
X112759544Y-104733859D01*
X112797739Y-104859771D01*
X112813609Y-104912088D01*
X112901404Y-105076340D01*
X112901406Y-105076342D01*
X112962263Y-105150496D01*
X112990017Y-105215841D01*
X112990864Y-105230429D01*
X112990864Y-105290405D01*
X112970862Y-105358526D01*
X112953959Y-105379501D01*
X112240151Y-106093308D01*
X112177839Y-106127333D01*
X112163407Y-106129605D01*
X112067946Y-106139007D01*
X111889711Y-106193074D01*
X111725453Y-106280872D01*
X111581485Y-106399025D01*
X111463332Y-106542993D01*
X111407712Y-106647050D01*
X111375534Y-106707251D01*
X111337570Y-106832403D01*
X111321467Y-106885487D01*
X111303214Y-107070825D01*
X101138340Y-107070825D01*
X101138340Y-100352189D01*
X101158342Y-100284068D01*
X101175245Y-100263094D01*
X101841949Y-99596390D01*
X101904261Y-99562364D01*
X101975076Y-99567429D01*
X102031912Y-99609976D01*
X102051619Y-99648909D01*
X102052479Y-99651746D01*
X102052480Y-99651750D01*
X102106545Y-99829978D01*
X102184300Y-99975447D01*
X102194343Y-99994235D01*
X102246173Y-100057390D01*
X102312496Y-100138204D01*
X102410966Y-100219016D01*
X102456464Y-100256356D01*
X102456465Y-100256356D01*
X102456467Y-100256358D01*
X102494218Y-100276536D01*
X102544864Y-100326286D01*
X102560575Y-100395522D01*
X102552520Y-100430301D01*
X102552842Y-100430399D01*
X102551387Y-100435193D01*
X102551230Y-100435874D01*
X102551047Y-100436314D01*
X102496978Y-100614558D01*
X102478725Y-100799896D01*
X102478725Y-100799903D01*
X102496978Y-100985241D01*
X102496979Y-100985246D01*
X102496980Y-100985250D01*
X102551045Y-101163478D01*
X102628800Y-101308947D01*
X102638843Y-101327735D01*
X102678846Y-101376478D01*
X102756996Y-101471704D01*
X102828721Y-101530567D01*
X102900964Y-101589856D01*
X102900965Y-101589856D01*
X102900967Y-101589858D01*
X103065222Y-101677655D01*
X103243450Y-101731720D01*
X103243456Y-101731720D01*
X103243458Y-101731721D01*
X103428797Y-101749975D01*
X103428800Y-101749975D01*
X103428803Y-101749975D01*
X103614141Y-101731721D01*
X103614141Y-101731720D01*
X103614150Y-101731720D01*
X103792378Y-101677655D01*
X103956633Y-101589858D01*
X104100604Y-101471704D01*
X104218758Y-101327733D01*
X104306555Y-101163478D01*
X104360620Y-100985250D01*
X104378875Y-100799900D01*
X104360620Y-100614550D01*
X104306555Y-100436322D01*
X104244178Y-100319623D01*
X104229300Y-100260227D01*
X104229300Y-99832059D01*
X104229299Y-99832055D01*
X104228886Y-99829977D01*
X104198537Y-99677403D01*
X104138194Y-99531721D01*
X104050589Y-99400611D01*
X103939089Y-99289111D01*
X103931946Y-99281968D01*
X103900466Y-99229448D01*
X103892946Y-99204657D01*
X103862055Y-99102822D01*
X103774258Y-98938567D01*
X103656104Y-98794596D01*
X103552475Y-98709550D01*
X103512135Y-98676443D01*
X103471069Y-98654492D01*
X103347878Y-98588645D01*
X103347877Y-98588644D01*
X103347872Y-98588642D01*
X103166808Y-98533717D01*
X103107427Y-98494802D01*
X103078511Y-98429961D01*
X103089242Y-98359780D01*
X103114283Y-98324054D01*
X103981218Y-97457121D01*
X104084691Y-97302262D01*
X104155965Y-97130192D01*
X104192300Y-96947524D01*
X104192300Y-96761276D01*
X104192300Y-95594499D01*
X104212302Y-95526378D01*
X104265958Y-95479885D01*
X104318300Y-95468499D01*
X105315865Y-95468499D01*
X105315872Y-95468499D01*
X105375483Y-95462091D01*
X105510331Y-95411796D01*
X105625546Y-95325546D01*
X105711796Y-95210331D01*
X105762091Y-95075483D01*
X105768500Y-95015873D01*
X105768499Y-90920128D01*
X105762091Y-90860517D01*
X105738419Y-90797050D01*
X105733355Y-90726239D01*
X105767380Y-90663927D01*
X105829693Y-90629902D01*
X105868826Y-90627629D01*
X105968797Y-90637475D01*
X105968800Y-90637475D01*
X105968803Y-90637475D01*
X106154141Y-90619221D01*
X106154141Y-90619220D01*
X106154150Y-90619220D01*
X106332378Y-90565155D01*
X106496633Y-90477358D01*
X106640604Y-90359204D01*
X106758758Y-90215233D01*
X106846555Y-90050978D01*
X106900620Y-89872750D01*
X106908755Y-89790151D01*
X106918875Y-89687403D01*
X106918875Y-89687396D01*
X106900621Y-89502058D01*
X106900620Y-89502056D01*
X106900620Y-89502050D01*
X106846555Y-89323822D01*
X106758758Y-89159567D01*
X106640604Y-89015596D01*
X106559790Y-88949273D01*
X106496635Y-88897443D01*
X106477847Y-88887400D01*
X106332378Y-88809645D01*
X106154150Y-88755580D01*
X106154146Y-88755579D01*
X106154141Y-88755578D01*
X105968803Y-88737325D01*
X105968797Y-88737325D01*
X105783458Y-88755578D01*
X105783452Y-88755579D01*
X105783450Y-88755580D01*
X105605222Y-88809645D01*
X105440964Y-88897443D01*
X105296990Y-89015600D01*
X105295895Y-89016696D01*
X105295179Y-89017086D01*
X105292211Y-89019523D01*
X105291748Y-89018959D01*
X105233583Y-89050722D01*
X105162768Y-89045657D01*
X105121635Y-89019222D01*
X105121389Y-89019523D01*
X105118808Y-89017405D01*
X105117705Y-89016696D01*
X105116609Y-89015600D01*
X104972635Y-88897443D01*
X104953847Y-88887400D01*
X104808378Y-88809645D01*
X104630150Y-88755580D01*
X104630146Y-88755579D01*
X104630141Y-88755578D01*
X104444803Y-88737325D01*
X104444797Y-88737325D01*
X104259458Y-88755578D01*
X104259452Y-88755579D01*
X104259450Y-88755580D01*
X104081222Y-88809645D01*
X103916964Y-88897443D01*
X103772992Y-89015599D01*
X103771887Y-89016705D01*
X103771166Y-89017098D01*
X103768212Y-89019523D01*
X103767751Y-89018962D01*
X103709572Y-89050724D01*
X103638757Y-89045653D01*
X103597633Y-89019224D01*
X103597388Y-89019523D01*
X103594825Y-89017419D01*
X103593713Y-89016705D01*
X103592607Y-89015599D01*
X103592605Y-89015597D01*
X103592604Y-89015596D01*
X103526932Y-88961700D01*
X103448635Y-88897443D01*
X103429847Y-88887400D01*
X103284378Y-88809645D01*
X103106150Y-88755580D01*
X103106146Y-88755579D01*
X103106141Y-88755578D01*
X102920803Y-88737325D01*
X102920797Y-88737325D01*
X102735458Y-88755578D01*
X102735452Y-88755579D01*
X102735450Y-88755580D01*
X102654834Y-88780034D01*
X102557217Y-88809646D01*
X102477745Y-88852125D01*
X102408239Y-88866597D01*
X102341943Y-88841193D01*
X102299906Y-88783979D01*
X102295474Y-88713121D01*
X102297772Y-88704441D01*
X102328620Y-88602750D01*
X102328620Y-88602748D01*
X102328621Y-88602746D01*
X102346875Y-88417403D01*
X102346875Y-88417396D01*
X102328621Y-88232053D01*
X102307126Y-88161195D01*
X102286004Y-88091567D01*
X102285371Y-88020577D01*
X102318217Y-87965172D01*
X105362455Y-84970591D01*
X105425044Y-84937080D01*
X105495816Y-84942727D01*
X105552300Y-84985740D01*
X105576563Y-85052462D01*
X105571389Y-85096991D01*
X105559789Y-85135233D01*
X105544978Y-85184056D01*
X105526725Y-85369396D01*
X105526725Y-85369403D01*
X105544978Y-85554741D01*
X105544979Y-85554746D01*
X105544980Y-85554750D01*
X105599045Y-85732978D01*
X105661003Y-85848892D01*
X105686843Y-85897235D01*
X105705710Y-85920224D01*
X105804996Y-86041204D01*
X105874753Y-86098452D01*
X105948964Y-86159356D01*
X105948965Y-86159356D01*
X105948967Y-86159358D01*
X106113222Y-86247155D01*
X106291450Y-86301220D01*
X106291456Y-86301220D01*
X106291458Y-86301221D01*
X106476797Y-86319475D01*
X106476800Y-86319475D01*
X106476803Y-86319475D01*
X106662141Y-86301221D01*
X106662141Y-86301220D01*
X106662150Y-86301220D01*
X106840378Y-86247155D01*
X107004633Y-86159358D01*
X107148604Y-86041204D01*
X107266758Y-85897233D01*
X107354555Y-85732978D01*
X107408620Y-85554750D01*
X107409014Y-85550751D01*
X107426875Y-85369403D01*
X107426875Y-85369396D01*
X107408621Y-85184058D01*
X107408620Y-85184056D01*
X107408620Y-85184050D01*
X107354555Y-85005822D01*
X107266758Y-84841567D01*
X107244407Y-84814333D01*
X107216654Y-84748988D01*
X107228635Y-84679009D01*
X107244408Y-84654466D01*
X107266756Y-84627235D01*
X107266758Y-84627233D01*
X107354555Y-84462978D01*
X107408620Y-84284750D01*
X107412651Y-84243822D01*
X107426875Y-84099403D01*
X107426875Y-84099396D01*
X107408621Y-83914058D01*
X107408620Y-83914056D01*
X107408620Y-83914050D01*
X107354555Y-83735822D01*
X107266758Y-83571567D01*
X107148604Y-83427596D01*
X107138346Y-83419177D01*
X107098378Y-83360503D01*
X107096476Y-83289532D01*
X107129918Y-83231956D01*
X107832942Y-82540399D01*
X118413352Y-82540399D01*
X118413353Y-82540400D01*
X119156247Y-82540400D01*
X119156247Y-82540399D01*
X118784801Y-82168953D01*
X118784799Y-82168953D01*
X118413352Y-82540399D01*
X107832942Y-82540399D01*
X108608248Y-81777739D01*
X108670838Y-81744228D01*
X108708957Y-81742172D01*
X108735957Y-81744831D01*
X108762798Y-81747475D01*
X108762800Y-81747475D01*
X108762803Y-81747475D01*
X108798177Y-81743991D01*
X117534800Y-81743991D01*
X117534800Y-81886808D01*
X117562661Y-82026875D01*
X117562663Y-82026880D01*
X117617313Y-82158815D01*
X117696653Y-82277556D01*
X117696654Y-82277558D01*
X117797640Y-82378545D01*
X117797642Y-82378546D01*
X117839878Y-82406767D01*
X118144782Y-82101863D01*
X118195304Y-82115400D01*
X119374296Y-82115400D01*
X119424815Y-82101863D01*
X119729719Y-82406767D01*
X119729720Y-82406767D01*
X119771959Y-82378545D01*
X119872945Y-82277558D01*
X119872946Y-82277556D01*
X119952286Y-82158815D01*
X120006936Y-82026880D01*
X120006938Y-82026875D01*
X120034799Y-81886808D01*
X120034800Y-81886804D01*
X120034800Y-81743995D01*
X120034799Y-81743991D01*
X120006938Y-81603924D01*
X120006936Y-81603919D01*
X119952286Y-81471984D01*
X119872946Y-81353243D01*
X119872945Y-81353241D01*
X119771959Y-81252254D01*
X119771957Y-81252253D01*
X119729720Y-81224031D01*
X119424815Y-81528936D01*
X119374296Y-81515400D01*
X118195304Y-81515400D01*
X118144784Y-81528936D01*
X117839879Y-81224031D01*
X117797639Y-81252255D01*
X117696654Y-81353241D01*
X117696653Y-81353243D01*
X117617313Y-81471984D01*
X117562663Y-81603919D01*
X117562661Y-81603924D01*
X117534800Y-81743991D01*
X108798177Y-81743991D01*
X108948141Y-81729221D01*
X108948141Y-81729220D01*
X108948150Y-81729220D01*
X109126378Y-81675155D01*
X109290633Y-81587358D01*
X109434604Y-81469204D01*
X109552758Y-81325233D01*
X109640555Y-81160978D01*
X109661965Y-81090400D01*
X118413352Y-81090400D01*
X118784799Y-81461847D01*
X118784801Y-81461847D01*
X119156247Y-81090400D01*
X118413352Y-81090400D01*
X109661965Y-81090400D01*
X109694620Y-80982750D01*
X109701737Y-80910491D01*
X109712875Y-80797403D01*
X109712875Y-80797396D01*
X109694621Y-80612058D01*
X109694620Y-80612056D01*
X109694620Y-80612050D01*
X109640555Y-80433822D01*
X109591064Y-80341231D01*
X117949300Y-80341231D01*
X117949300Y-80429569D01*
X117972164Y-80514898D01*
X117972165Y-80514900D01*
X117993635Y-80552088D01*
X118016333Y-80591402D01*
X118016335Y-80591404D01*
X118016338Y-80591408D01*
X118078791Y-80653861D01*
X118078795Y-80653864D01*
X118078798Y-80653867D01*
X118155302Y-80698036D01*
X118240631Y-80720900D01*
X118240634Y-80720900D01*
X118328966Y-80720900D01*
X118328969Y-80720900D01*
X118414298Y-80698036D01*
X118475108Y-80662927D01*
X118544102Y-80646190D01*
X118582133Y-80653989D01*
X118677317Y-80689491D01*
X118736927Y-80695900D01*
X119982672Y-80695899D01*
X120042283Y-80689491D01*
X120177131Y-80639196D01*
X120292346Y-80552946D01*
X120292347Y-80552944D01*
X120292349Y-80552943D01*
X120293205Y-80552088D01*
X120294266Y-80551508D01*
X120299561Y-80547545D01*
X120300130Y-80548306D01*
X120355517Y-80518062D01*
X120426332Y-80523127D01*
X120483168Y-80565674D01*
X120507979Y-80632194D01*
X120508300Y-80641183D01*
X120508300Y-82360053D01*
X120488298Y-82428174D01*
X120471395Y-82449148D01*
X119496290Y-83424252D01*
X119496285Y-83424258D01*
X119420367Y-83537878D01*
X119419626Y-83538985D01*
X119366821Y-83666468D01*
X119366820Y-83666471D01*
X119339900Y-83801804D01*
X119339900Y-87456078D01*
X119319898Y-87524199D01*
X119311300Y-87536011D01*
X119250443Y-87610165D01*
X119250442Y-87610167D01*
X119162645Y-87774422D01*
X119123749Y-87902647D01*
X119108578Y-87952658D01*
X119090325Y-88137996D01*
X119090325Y-88138003D01*
X119108578Y-88323341D01*
X119108579Y-88323346D01*
X119108580Y-88323350D01*
X119162645Y-88501578D01*
X119195379Y-88562818D01*
X119250443Y-88665835D01*
X119282115Y-88704427D01*
X119368596Y-88809804D01*
X119467066Y-88890616D01*
X119512564Y-88927956D01*
X119512565Y-88927956D01*
X119512567Y-88927958D01*
X119676822Y-89015755D01*
X119855050Y-89069820D01*
X119855056Y-89069820D01*
X119855058Y-89069821D01*
X120040397Y-89088075D01*
X120040400Y-89088075D01*
X120040403Y-89088075D01*
X120225741Y-89069821D01*
X120225741Y-89069820D01*
X120225750Y-89069820D01*
X120403978Y-89015755D01*
X120568233Y-88927958D01*
X120712204Y-88809804D01*
X120830358Y-88665833D01*
X120918155Y-88501578D01*
X120972220Y-88323350D01*
X120990475Y-88138000D01*
X120982184Y-88053822D01*
X120972221Y-87952658D01*
X120972220Y-87952656D01*
X120972220Y-87952650D01*
X120918155Y-87774422D01*
X120830358Y-87610167D01*
X120769500Y-87536011D01*
X120741747Y-87470664D01*
X120740900Y-87456078D01*
X120740900Y-86385396D01*
X124830725Y-86385396D01*
X124830725Y-86385403D01*
X124848978Y-86570741D01*
X124848979Y-86570746D01*
X124848980Y-86570750D01*
X124903045Y-86748978D01*
X124953516Y-86843402D01*
X124990843Y-86913235D01*
X125030500Y-86961556D01*
X125108996Y-87057204D01*
X125207466Y-87138016D01*
X125252964Y-87175356D01*
X125252965Y-87175356D01*
X125252967Y-87175358D01*
X125417222Y-87263155D01*
X125595450Y-87317220D01*
X125595456Y-87317220D01*
X125595458Y-87317221D01*
X125780797Y-87335475D01*
X125780800Y-87335475D01*
X125780803Y-87335475D01*
X125966141Y-87317221D01*
X125966141Y-87317220D01*
X125966150Y-87317220D01*
X126144378Y-87263155D01*
X126308633Y-87175358D01*
X126312889Y-87171865D01*
X126378232Y-87144107D01*
X126448211Y-87156084D01*
X126452215Y-87158132D01*
X126458622Y-87161557D01*
X126636850Y-87215622D01*
X126636856Y-87215622D01*
X126636858Y-87215623D01*
X126822197Y-87233877D01*
X126822200Y-87233877D01*
X126822203Y-87233877D01*
X127007541Y-87215623D01*
X127007541Y-87215622D01*
X127007550Y-87215622D01*
X127185778Y-87161557D01*
X127350033Y-87073760D01*
X127494004Y-86955606D01*
X127612158Y-86811635D01*
X127699955Y-86647380D01*
X127754020Y-86469152D01*
X127760315Y-86405234D01*
X127772275Y-86283805D01*
X127772275Y-86283798D01*
X127754021Y-86098460D01*
X127754020Y-86098458D01*
X127754020Y-86098452D01*
X127699955Y-85920224D01*
X127612158Y-85755969D01*
X127494004Y-85611998D01*
X127473831Y-85595442D01*
X127458765Y-85583077D01*
X127418797Y-85524399D01*
X127412700Y-85485679D01*
X127412700Y-85148161D01*
X127432702Y-85080040D01*
X127486358Y-85033547D01*
X127502106Y-85027593D01*
X127668378Y-84977155D01*
X127832633Y-84889358D01*
X127976604Y-84771204D01*
X128094758Y-84627233D01*
X128182555Y-84462978D01*
X128236620Y-84284750D01*
X128240651Y-84243822D01*
X128254875Y-84099403D01*
X128254875Y-84099396D01*
X128236621Y-83914058D01*
X128236620Y-83914056D01*
X128236620Y-83914050D01*
X128182555Y-83735822D01*
X128094758Y-83571567D01*
X127976604Y-83427596D01*
X127866695Y-83337396D01*
X127832635Y-83309443D01*
X127737354Y-83258514D01*
X127668378Y-83221645D01*
X127490150Y-83167580D01*
X127490146Y-83167579D01*
X127490141Y-83167578D01*
X127304803Y-83149325D01*
X127304797Y-83149325D01*
X127119458Y-83167578D01*
X127119452Y-83167579D01*
X127119450Y-83167580D01*
X126995566Y-83205160D01*
X126941222Y-83221645D01*
X126776964Y-83309443D01*
X126632996Y-83427596D01*
X126514843Y-83571564D01*
X126445670Y-83700977D01*
X126427045Y-83735822D01*
X126382641Y-83882204D01*
X126372978Y-83914058D01*
X126354725Y-84099396D01*
X126354725Y-84099403D01*
X126360120Y-84154181D01*
X126346891Y-84223934D01*
X126343847Y-84229530D01*
X126271942Y-84354075D01*
X126231700Y-84504260D01*
X126231700Y-85364242D01*
X126211698Y-85432363D01*
X126158042Y-85478856D01*
X126087768Y-85488960D01*
X126069125Y-85484817D01*
X125966143Y-85453578D01*
X125780803Y-85435325D01*
X125780797Y-85435325D01*
X125595458Y-85453578D01*
X125595452Y-85453579D01*
X125595450Y-85453580D01*
X125417222Y-85507645D01*
X125252964Y-85595443D01*
X125108996Y-85713596D01*
X124990843Y-85857564D01*
X124926667Y-85977629D01*
X124903045Y-86021822D01*
X124861325Y-86159356D01*
X124848978Y-86200058D01*
X124830725Y-86385396D01*
X120740900Y-86385396D01*
X120740900Y-84213147D01*
X120760902Y-84145026D01*
X120777805Y-84124052D01*
X121235389Y-83666468D01*
X121752914Y-83148943D01*
X121829575Y-83034211D01*
X121882380Y-82906728D01*
X121909300Y-82771393D01*
X121909300Y-77381243D01*
X122171300Y-77381243D01*
X122171300Y-77609557D01*
X122207016Y-77835060D01*
X122277569Y-78052199D01*
X122381221Y-78255628D01*
X122381223Y-78255631D01*
X122515422Y-78440339D01*
X122676860Y-78601777D01*
X122703288Y-78620978D01*
X122861572Y-78735979D01*
X123065001Y-78839631D01*
X123282140Y-78910184D01*
X123507643Y-78945900D01*
X123507646Y-78945900D01*
X123735954Y-78945900D01*
X123735957Y-78945900D01*
X123961460Y-78910184D01*
X124178599Y-78839631D01*
X124382028Y-78735979D01*
X124566737Y-78601779D01*
X124728179Y-78440337D01*
X124862379Y-78255628D01*
X124966031Y-78052199D01*
X125036584Y-77835060D01*
X125072300Y-77609557D01*
X125072300Y-77381243D01*
X125036584Y-77155740D01*
X124966031Y-76938601D01*
X124862379Y-76735172D01*
X124728179Y-76550463D01*
X124728177Y-76550460D01*
X124566739Y-76389022D01*
X124382031Y-76254823D01*
X124382030Y-76254822D01*
X124382028Y-76254821D01*
X124178599Y-76151169D01*
X123961460Y-76080616D01*
X123735957Y-76044900D01*
X123507643Y-76044900D01*
X123282140Y-76080616D01*
X123282137Y-76080616D01*
X123282136Y-76080617D01*
X123065001Y-76151169D01*
X123064999Y-76151170D01*
X122861568Y-76254823D01*
X122676860Y-76389022D01*
X122515422Y-76550460D01*
X122381223Y-76735168D01*
X122277570Y-76938599D01*
X122277569Y-76938601D01*
X122218011Y-77121902D01*
X122207016Y-77155740D01*
X122171300Y-77381243D01*
X121909300Y-77381243D01*
X121909300Y-76145320D01*
X121929302Y-76077199D01*
X121937895Y-76065393D01*
X121998758Y-75991233D01*
X122086555Y-75826978D01*
X122140620Y-75648750D01*
X122144651Y-75607822D01*
X122158875Y-75463403D01*
X122158875Y-75463396D01*
X122140621Y-75278058D01*
X122140620Y-75278056D01*
X122140620Y-75278050D01*
X122086555Y-75099822D01*
X121998758Y-74935567D01*
X121880604Y-74791596D01*
X121794869Y-74721235D01*
X121736635Y-74673443D01*
X121689753Y-74648384D01*
X121572378Y-74585645D01*
X121394150Y-74531580D01*
X121394146Y-74531579D01*
X121394141Y-74531578D01*
X121208803Y-74513325D01*
X121208797Y-74513325D01*
X121023458Y-74531578D01*
X121023452Y-74531579D01*
X121023450Y-74531580D01*
X120921811Y-74562412D01*
X120845222Y-74585645D01*
X120680965Y-74673443D01*
X120620181Y-74723327D01*
X120554833Y-74751080D01*
X120484855Y-74739098D01*
X120432464Y-74691185D01*
X120422195Y-74669964D01*
X120390746Y-74585645D01*
X120378598Y-74553073D01*
X120378596Y-74553070D01*
X120378596Y-74553069D01*
X120323432Y-74479379D01*
X120292346Y-74437853D01*
X120187625Y-74359460D01*
X120177131Y-74351604D01*
X120177129Y-74351603D01*
X120177126Y-74351601D01*
X120042283Y-74301309D01*
X120042286Y-74301309D01*
X119982673Y-74294900D01*
X118736935Y-74294900D01*
X118736914Y-74294902D01*
X118677319Y-74301308D01*
X118677318Y-74301308D01*
X118571201Y-74340887D01*
X118500386Y-74345951D01*
X118464172Y-74331951D01*
X118410824Y-74301151D01*
X118410823Y-74301150D01*
X118410820Y-74301149D01*
X118327787Y-74278900D01*
X118327784Y-74278900D01*
X118241816Y-74278900D01*
X118241812Y-74278900D01*
X118158779Y-74301149D01*
X118084326Y-74344134D01*
X118084318Y-74344140D01*
X118023540Y-74404918D01*
X118023534Y-74404926D01*
X117980549Y-74479379D01*
X117958300Y-74562412D01*
X117958300Y-74648387D01*
X117980549Y-74731420D01*
X117980550Y-74731423D01*
X117980551Y-74731424D01*
X118023535Y-74805875D01*
X118023537Y-74805877D01*
X118023540Y-74805881D01*
X118084318Y-74866659D01*
X118084322Y-74866662D01*
X118084325Y-74866665D01*
X118158776Y-74909649D01*
X118190913Y-74918260D01*
X118251533Y-74955210D01*
X118282555Y-75019071D01*
X118284300Y-75039966D01*
X118284300Y-75443264D01*
X118284302Y-75443288D01*
X118288456Y-75481931D01*
X118288456Y-75508865D01*
X118284300Y-75547515D01*
X118284300Y-75943264D01*
X118284302Y-75943288D01*
X118288456Y-75981931D01*
X118288456Y-76008865D01*
X118284300Y-76047515D01*
X118284300Y-76443264D01*
X118284302Y-76443288D01*
X118288456Y-76481931D01*
X118288456Y-76508865D01*
X118284300Y-76547515D01*
X118284300Y-76943264D01*
X118284302Y-76943288D01*
X118288456Y-76981931D01*
X118288456Y-77008865D01*
X118284300Y-77047515D01*
X118284300Y-77443264D01*
X118284302Y-77443288D01*
X118288456Y-77481931D01*
X118288456Y-77508865D01*
X118284300Y-77547515D01*
X118284300Y-77943264D01*
X118284302Y-77943288D01*
X118288456Y-77981931D01*
X118288456Y-78008865D01*
X118284300Y-78047515D01*
X118284300Y-78443264D01*
X118284302Y-78443288D01*
X118288456Y-78481931D01*
X118288456Y-78508865D01*
X118284300Y-78547515D01*
X118284300Y-78943264D01*
X118284302Y-78943288D01*
X118288456Y-78981931D01*
X118288456Y-79008865D01*
X118284300Y-79047515D01*
X118284300Y-79443264D01*
X118284302Y-79443288D01*
X118288456Y-79481931D01*
X118288456Y-79508865D01*
X118284300Y-79547515D01*
X118284300Y-79941515D01*
X118264298Y-80009636D01*
X118210642Y-80056129D01*
X118190914Y-80063221D01*
X118155302Y-80072764D01*
X118078799Y-80116932D01*
X118078791Y-80116938D01*
X118016338Y-80179391D01*
X118016332Y-80179399D01*
X117972165Y-80255899D01*
X117972164Y-80255901D01*
X117972164Y-80255902D01*
X117949300Y-80341231D01*
X109591064Y-80341231D01*
X109552758Y-80269567D01*
X109552756Y-80269565D01*
X109552756Y-80269564D01*
X109540407Y-80254518D01*
X109530407Y-80242333D01*
X109502654Y-80176988D01*
X109514635Y-80107009D01*
X109530408Y-80082466D01*
X109538371Y-80072764D01*
X109552758Y-80055233D01*
X109640555Y-79890978D01*
X109694620Y-79712750D01*
X109709142Y-79565305D01*
X109712875Y-79527403D01*
X109712875Y-79527396D01*
X109694621Y-79342058D01*
X109694620Y-79342056D01*
X109694620Y-79342050D01*
X109640555Y-79163822D01*
X109552758Y-78999567D01*
X109552756Y-78999565D01*
X109552756Y-78999564D01*
X109530408Y-78972334D01*
X109502654Y-78906988D01*
X109514635Y-78837009D01*
X109530408Y-78812466D01*
X109552756Y-78785235D01*
X109552757Y-78785234D01*
X109552758Y-78785233D01*
X109640555Y-78620978D01*
X109694620Y-78442750D01*
X109694621Y-78442741D01*
X109712875Y-78257403D01*
X109712875Y-78257396D01*
X109694621Y-78072058D01*
X109694620Y-78072056D01*
X109694620Y-78072050D01*
X109640555Y-77893822D01*
X109561164Y-77745294D01*
X109546693Y-77675791D01*
X109561165Y-77626504D01*
X109640555Y-77477978D01*
X109694620Y-77299750D01*
X109706552Y-77178601D01*
X109712875Y-77114403D01*
X109712875Y-77114396D01*
X109694621Y-76929058D01*
X109694620Y-76929056D01*
X109694620Y-76929050D01*
X109640555Y-76750822D01*
X109561164Y-76602294D01*
X109546693Y-76532791D01*
X109561165Y-76483504D01*
X109640555Y-76334978D01*
X109694620Y-76156750D01*
X109699217Y-76110073D01*
X109712875Y-75971403D01*
X109712875Y-75971396D01*
X109694621Y-75786058D01*
X109694620Y-75786056D01*
X109694620Y-75786050D01*
X109640555Y-75607822D01*
X109552758Y-75443567D01*
X109552509Y-75443264D01*
X109506267Y-75386918D01*
X109434604Y-75299596D01*
X109353790Y-75233273D01*
X109290635Y-75181443D01*
X109219602Y-75143475D01*
X109126378Y-75093645D01*
X108948150Y-75039580D01*
X108948146Y-75039579D01*
X108948141Y-75039578D01*
X108762803Y-75021325D01*
X108762797Y-75021325D01*
X108577458Y-75039578D01*
X108577452Y-75039579D01*
X108577450Y-75039580D01*
X108399222Y-75093645D01*
X108234964Y-75181443D01*
X108090996Y-75299596D01*
X107972843Y-75443564D01*
X107885045Y-75607822D01*
X107845131Y-75739403D01*
X107830978Y-75786058D01*
X107812725Y-75971396D01*
X107812725Y-75971403D01*
X107830978Y-76156741D01*
X107830979Y-76156746D01*
X107830980Y-76156750D01*
X107866872Y-76275071D01*
X107885045Y-76334979D01*
X107964434Y-76483504D01*
X107978906Y-76553010D01*
X107964434Y-76602296D01*
X107885045Y-76750820D01*
X107830978Y-76929058D01*
X107812725Y-77114396D01*
X107812725Y-77114403D01*
X107830978Y-77299741D01*
X107830979Y-77299746D01*
X107830980Y-77299750D01*
X107853394Y-77373639D01*
X107885045Y-77477979D01*
X107964434Y-77626504D01*
X107978906Y-77696010D01*
X107964434Y-77745296D01*
X107885045Y-77893820D01*
X107868103Y-77949671D01*
X107837002Y-78052200D01*
X107830978Y-78072058D01*
X107812725Y-78257396D01*
X107812725Y-78257403D01*
X107830978Y-78442741D01*
X107830979Y-78442746D01*
X107830980Y-78442750D01*
X107885045Y-78620978D01*
X107972842Y-78785233D01*
X107972843Y-78785234D01*
X107995193Y-78812469D01*
X108022945Y-78877817D01*
X108010962Y-78947795D01*
X107995193Y-78972331D01*
X107972843Y-78999565D01*
X107972842Y-78999567D01*
X107885045Y-79163822D01*
X107832522Y-79336969D01*
X107830978Y-79342058D01*
X107812725Y-79527396D01*
X107812725Y-79527403D01*
X107830978Y-79712741D01*
X107830979Y-79712746D01*
X107830980Y-79712750D01*
X107885045Y-79890978D01*
X107972842Y-80055233D01*
X107972843Y-80055234D01*
X107995193Y-80082469D01*
X108022945Y-80147817D01*
X108010962Y-80217795D01*
X107995193Y-80242331D01*
X107972843Y-80269565D01*
X107972842Y-80269567D01*
X107885045Y-80433822D01*
X107837245Y-80591400D01*
X107830978Y-80612058D01*
X107812725Y-80797396D01*
X107812725Y-80797400D01*
X107814773Y-80818196D01*
X107816363Y-80834344D01*
X107803132Y-80904097D01*
X107779329Y-80936516D01*
X105900218Y-82784976D01*
X105837628Y-82818488D01*
X105766856Y-82812841D01*
X105714459Y-82775085D01*
X105711429Y-82771393D01*
X105624604Y-82665596D01*
X105543790Y-82599273D01*
X105480635Y-82547443D01*
X105461847Y-82537400D01*
X105316378Y-82459645D01*
X105138150Y-82405580D01*
X105138146Y-82405579D01*
X105138141Y-82405578D01*
X104952803Y-82387325D01*
X104952797Y-82387325D01*
X104767458Y-82405578D01*
X104767452Y-82405579D01*
X104767450Y-82405580D01*
X104623826Y-82449148D01*
X104589222Y-82459645D01*
X104424964Y-82547443D01*
X104280996Y-82665595D01*
X104267068Y-82682567D01*
X104252671Y-82700111D01*
X104252078Y-82700833D01*
X104193401Y-82740802D01*
X104154678Y-82746900D01*
X103972922Y-82746900D01*
X103904801Y-82726898D01*
X103875522Y-82700833D01*
X103846604Y-82665596D01*
X103846603Y-82665595D01*
X103702635Y-82547443D01*
X103683847Y-82537400D01*
X103538378Y-82459645D01*
X103360150Y-82405580D01*
X103360146Y-82405579D01*
X103360141Y-82405578D01*
X103174803Y-82387325D01*
X103174797Y-82387325D01*
X102989458Y-82405578D01*
X102989452Y-82405579D01*
X102989450Y-82405580D01*
X102845826Y-82449148D01*
X102811222Y-82459645D01*
X102646964Y-82547443D01*
X102502996Y-82665596D01*
X102383199Y-82811568D01*
X102324521Y-82851537D01*
X102253550Y-82853437D01*
X102192818Y-82816666D01*
X102188401Y-82811568D01*
X102097522Y-82700833D01*
X102068604Y-82665596D01*
X101987790Y-82599273D01*
X101924635Y-82547443D01*
X101905847Y-82537400D01*
X101760378Y-82459645D01*
X101582150Y-82405580D01*
X101582146Y-82405579D01*
X101582141Y-82405578D01*
X101396803Y-82387325D01*
X101396797Y-82387325D01*
X101211458Y-82405578D01*
X101211452Y-82405579D01*
X101211450Y-82405580D01*
X101067826Y-82449148D01*
X101033222Y-82459645D01*
X100868964Y-82547443D01*
X100724996Y-82665596D01*
X100606843Y-82809564D01*
X100561194Y-82894967D01*
X100519045Y-82973822D01*
X100465922Y-83148947D01*
X100464978Y-83152058D01*
X100446725Y-83337396D01*
X100446725Y-83337403D01*
X100464978Y-83522741D01*
X100464979Y-83522746D01*
X100464980Y-83522750D01*
X100519045Y-83700978D01*
X100572940Y-83801807D01*
X100606843Y-83865234D01*
X100629193Y-83892469D01*
X100656945Y-83957817D01*
X100644962Y-84027795D01*
X100629193Y-84052331D01*
X100606843Y-84079565D01*
X100519045Y-84243822D01*
X100464978Y-84422058D01*
X100446725Y-84607396D01*
X100446725Y-84607403D01*
X100464978Y-84792741D01*
X100464979Y-84792746D01*
X100464980Y-84792750D01*
X100519045Y-84970978D01*
X100595172Y-85113400D01*
X100606843Y-85135234D01*
X100629193Y-85162469D01*
X100656945Y-85227817D01*
X100644962Y-85297795D01*
X100629193Y-85322331D01*
X100606843Y-85349565D01*
X100606842Y-85349567D01*
X100519045Y-85513822D01*
X100494286Y-85595443D01*
X100464978Y-85692058D01*
X100446725Y-85877396D01*
X100446725Y-85877403D01*
X100464978Y-86062741D01*
X100464979Y-86062746D01*
X100464980Y-86062750D01*
X100519045Y-86240978D01*
X100551246Y-86301221D01*
X100606843Y-86405234D01*
X100629193Y-86432469D01*
X100656945Y-86497817D01*
X100644962Y-86567795D01*
X100629193Y-86592331D01*
X100606843Y-86619565D01*
X100519045Y-86783822D01*
X100464978Y-86962058D01*
X100446725Y-87147396D01*
X100446725Y-87147403D01*
X100464978Y-87332741D01*
X100464979Y-87332746D01*
X100464980Y-87332750D01*
X100519045Y-87510978D01*
X100606842Y-87675233D01*
X100606843Y-87675235D01*
X100609760Y-87680691D01*
X100607518Y-87681888D01*
X100625405Y-87739025D01*
X100606617Y-87807491D01*
X100553797Y-87854931D01*
X100525887Y-87863217D01*
X100526034Y-87863764D01*
X100380917Y-87902647D01*
X100380918Y-87902648D01*
X100367873Y-87906143D01*
X100233227Y-87983880D01*
X100233217Y-87983888D01*
X99654287Y-88562818D01*
X99654279Y-88562828D01*
X99576542Y-88697475D01*
X99536300Y-88847660D01*
X99536300Y-96459902D01*
X99516298Y-96528023D01*
X99507697Y-96539838D01*
X99505011Y-96543110D01*
X99417405Y-96674221D01*
X99417403Y-96674226D01*
X99365446Y-96799659D01*
X99346460Y-96831346D01*
X99344722Y-96833465D01*
X99286057Y-96873450D01*
X99215086Y-96875371D01*
X99154343Y-96838618D01*
X99123113Y-96774859D01*
X99121300Y-96753559D01*
X99121300Y-73900399D01*
X118413352Y-73900399D01*
X118413353Y-73900400D01*
X119156247Y-73900400D01*
X119156247Y-73900399D01*
X118784801Y-73528953D01*
X118784799Y-73528953D01*
X118413352Y-73900399D01*
X99121300Y-73900399D01*
X99121300Y-72805900D01*
X99141302Y-72737779D01*
X99194958Y-72691286D01*
X99247300Y-72679900D01*
X117491736Y-72679900D01*
X117559857Y-72699902D01*
G37*
%TD.AperFunction*%
%TA.AperFunction,Conductor*%
G36*
X147028575Y-79824901D02*
G01*
X147075068Y-79878557D01*
X147085172Y-79948831D01*
X147055678Y-80013411D01*
X147049549Y-80019994D01*
X141993048Y-85076495D01*
X141930736Y-85110521D01*
X141903953Y-85113400D01*
X141701646Y-85113400D01*
X141633525Y-85093398D01*
X141587032Y-85039742D01*
X141576928Y-84969468D01*
X141606422Y-84904888D01*
X141612551Y-84898305D01*
X145882908Y-80627948D01*
X145882909Y-80627947D01*
X145882913Y-80627943D01*
X145893533Y-80612050D01*
X145959575Y-80513211D01*
X145994221Y-80429569D01*
X146012380Y-80385729D01*
X146013557Y-80379811D01*
X146025226Y-80321147D01*
X146025226Y-80321146D01*
X146032361Y-80285276D01*
X146039300Y-80250393D01*
X146039300Y-79930899D01*
X146059302Y-79862778D01*
X146112958Y-79816285D01*
X146165300Y-79804899D01*
X146960454Y-79804899D01*
X147028575Y-79824901D01*
G37*
%TD.AperFunction*%
%TA.AperFunction,Conductor*%
G36*
X138938421Y-75739403D02*
G01*
X138984914Y-75793059D01*
X138996300Y-75845401D01*
X138996300Y-77289264D01*
X138996302Y-77289285D01*
X139002708Y-77348880D01*
X139002708Y-77348881D01*
X139053001Y-77483726D01*
X139053003Y-77483729D01*
X139053004Y-77483731D01*
X139095886Y-77541014D01*
X139139252Y-77598944D01*
X139139253Y-77598944D01*
X139139254Y-77598946D01*
X139205493Y-77648533D01*
X139248039Y-77705368D01*
X139253103Y-77776184D01*
X139219078Y-77838496D01*
X139205497Y-77850263D01*
X139170861Y-77876192D01*
X139139252Y-77899855D01*
X139053003Y-78015070D01*
X139053001Y-78015073D01*
X139002709Y-78149915D01*
X138996300Y-78209521D01*
X138996300Y-79309762D01*
X138976298Y-79377883D01*
X138959396Y-79398856D01*
X138914258Y-79443995D01*
X138851947Y-79478021D01*
X138825162Y-79480901D01*
X138474428Y-79480901D01*
X138406307Y-79460899D01*
X138359814Y-79407243D01*
X138349710Y-79336969D01*
X138358019Y-79306683D01*
X138379890Y-79253881D01*
X138392380Y-79223728D01*
X138419300Y-79088393D01*
X138419300Y-76410407D01*
X138392380Y-76275072D01*
X138339575Y-76147589D01*
X138262914Y-76032858D01*
X138262909Y-76032852D01*
X138164553Y-75934496D01*
X138130527Y-75872184D01*
X138135592Y-75801369D01*
X138178139Y-75744533D01*
X138244659Y-75719722D01*
X138253648Y-75719401D01*
X138870300Y-75719401D01*
X138938421Y-75739403D01*
G37*
%TD.AperFunction*%
%TA.AperFunction,Conductor*%
G36*
X149138784Y-72699902D02*
G01*
X149159759Y-72716805D01*
X149372336Y-72929382D01*
X149358800Y-72979904D01*
X149358800Y-74158896D01*
X149372336Y-74209415D01*
X149067431Y-74514320D01*
X149095653Y-74556557D01*
X149095654Y-74556559D01*
X149196641Y-74657545D01*
X149196643Y-74657546D01*
X149315382Y-74736885D01*
X149350642Y-74751491D01*
X149405922Y-74796040D01*
X149428343Y-74863403D01*
X149410785Y-74932194D01*
X149358822Y-74980573D01*
X149302423Y-74993900D01*
X148572477Y-74993900D01*
X148504356Y-74973898D01*
X148467712Y-74937902D01*
X148422914Y-74870858D01*
X148377780Y-74825724D01*
X148325342Y-74773286D01*
X148273289Y-74721233D01*
X148172052Y-74619995D01*
X148138027Y-74557683D01*
X148143092Y-74486867D01*
X148185639Y-74430032D01*
X148252160Y-74405221D01*
X148261148Y-74404900D01*
X148272966Y-74404900D01*
X148272969Y-74404900D01*
X148358298Y-74382036D01*
X148434802Y-74337867D01*
X148497267Y-74275402D01*
X148541436Y-74198898D01*
X148564300Y-74113569D01*
X148564300Y-74025231D01*
X148541689Y-73940847D01*
X148933800Y-73940847D01*
X149305247Y-73569401D01*
X149305247Y-73569399D01*
X148933800Y-73197952D01*
X148933800Y-73940847D01*
X148541689Y-73940847D01*
X148541436Y-73939902D01*
X148506327Y-73879091D01*
X148489590Y-73810098D01*
X148497389Y-73772066D01*
X148532891Y-73676883D01*
X148539300Y-73617273D01*
X148539299Y-72805899D01*
X148559301Y-72737779D01*
X148612957Y-72691286D01*
X148665299Y-72679900D01*
X149070663Y-72679900D01*
X149138784Y-72699902D01*
G37*
%TD.AperFunction*%
%TA.AperFunction,Conductor*%
G36*
X142080421Y-72699902D02*
G01*
X142126914Y-72753558D01*
X142138300Y-72805900D01*
X142138300Y-73617264D01*
X142138302Y-73617285D01*
X142144708Y-73676880D01*
X142144708Y-73676881D01*
X142184287Y-73782999D01*
X142189351Y-73853814D01*
X142175351Y-73890029D01*
X142144549Y-73943379D01*
X142122300Y-74026412D01*
X142122300Y-74112387D01*
X142135002Y-74159789D01*
X142133313Y-74230765D01*
X142093520Y-74289561D01*
X142028256Y-74317510D01*
X142013296Y-74318401D01*
X141866979Y-74318401D01*
X141798858Y-74298399D01*
X141752365Y-74244743D01*
X141742261Y-74174469D01*
X141743399Y-74167823D01*
X141743799Y-74165808D01*
X141743800Y-74165804D01*
X141743800Y-73197953D01*
X141743799Y-73197952D01*
X141318800Y-73622951D01*
X141318800Y-72979904D01*
X141305263Y-72929382D01*
X141517841Y-72716805D01*
X141580154Y-72682780D01*
X141606937Y-72679900D01*
X142012300Y-72679900D01*
X142080421Y-72699902D01*
G37*
%TD.AperFunction*%
%TD*%
M02*
