%TF.GenerationSoftware,KiCad,Pcbnew,8.0.3+1*%
%TF.CreationDate,2024-07-21T16:53:17+00:00*%
%TF.ProjectId,LION2CELL02,4c494f4e-3243-4454-9c4c-30322e6b6963,rev?*%
%TF.SameCoordinates,Original*%
%TF.FileFunction,Copper,L2,Bot*%
%TF.FilePolarity,Positive*%
%FSLAX46Y46*%
G04 Gerber Fmt 4.6, Leading zero omitted, Abs format (unit mm)*
G04 Created by KiCad (PCBNEW 8.0.3+1) date 2024-07-21 16:53:17*
%MOMM*%
%LPD*%
G01*
G04 APERTURE LIST*
G04 Aperture macros list*
%AMRoundRect*
0 Rectangle with rounded corners*
0 $1 Rounding radius*
0 $2 $3 $4 $5 $6 $7 $8 $9 X,Y pos of 4 corners*
0 Add a 4 corners polygon primitive as box body*
4,1,4,$2,$3,$4,$5,$6,$7,$8,$9,$2,$3,0*
0 Add four circle primitives for the rounded corners*
1,1,$1+$1,$2,$3*
1,1,$1+$1,$4,$5*
1,1,$1+$1,$6,$7*
1,1,$1+$1,$8,$9*
0 Add four rect primitives between the rounded corners*
20,1,$1+$1,$2,$3,$4,$5,0*
20,1,$1+$1,$4,$5,$6,$7,0*
20,1,$1+$1,$6,$7,$8,$9,0*
20,1,$1+$1,$8,$9,$2,$3,0*%
%AMFreePoly0*
4,1,27,0.405000,0.748540,0.473851,0.737775,0.540468,0.697134,0.586462,0.634092,0.604830,0.558249,0.592775,0.481149,0.592776,0.481149,0.558927,0.388685,0.517726,0.196112,0.503933,-0.000335,0.517820,-0.196775,0.559113,-0.389328,0.593006,-0.481776,0.593005,-0.481776,0.605097,-0.558870,0.586765,-0.634722,0.540802,-0.697786,0.474204,-0.738459,0.405000,-0.749313,0.405000,-0.750000,
0.400623,-0.750000,0.397110,-0.750551,0.394830,-0.750000,-0.645000,-0.750000,-0.645000,0.750000,0.405000,0.750000,0.405000,0.748540,0.405000,0.748540,$1*%
%AMFreePoly1*
4,1,37,-1.390000,2.050000,0.435000,2.050000,0.435000,2.805000,1.035000,2.805000,1.035000,2.050000,1.215000,2.050000,1.215000,-2.050000,1.035000,-2.050000,1.035000,-2.805000,0.435000,-2.805000,0.435000,-2.050000,-1.390000,-2.050000,-1.390000,-2.805000,-1.990000,-2.805000,-1.990000,-2.050000,-2.285000,-2.050000,-2.285000,-2.210000,-3.305000,-2.210000,-3.305000,-1.600000,-2.595000,-1.600000,
-2.595000,-0.940000,-3.305000,-0.940000,-3.305000,-0.330000,-2.595000,-0.330000,-2.595000,0.330000,-3.305000,0.330000,-3.305000,0.940000,-2.595000,0.940000,-2.595000,1.600000,-3.305000,1.600000,-3.305000,2.210000,-2.285000,2.210000,-2.285000,2.050000,-1.990000,2.050000,-1.990000,2.805000,-1.390000,2.805000,-1.390000,2.050000,-1.390000,2.050000,$1*%
G04 Aperture macros list end*
%ADD10C,0.300000*%
%TA.AperFunction,NonConductor*%
%ADD11C,0.300000*%
%TD*%
%TA.AperFunction,ComponentPad*%
%ADD12R,3.810000X3.810000*%
%TD*%
%TA.AperFunction,ComponentPad*%
%ADD13R,1.524000X1.524000*%
%TD*%
%TA.AperFunction,ComponentPad*%
%ADD14R,1.676400X1.676400*%
%TD*%
%TA.AperFunction,ComponentPad*%
%ADD15C,6.000000*%
%TD*%
%TA.AperFunction,ComponentPad*%
%ADD16R,4.000000X4.000000*%
%TD*%
%TA.AperFunction,SMDPad,CuDef*%
%ADD17RoundRect,0.250000X-0.250000X-0.475000X0.250000X-0.475000X0.250000X0.475000X-0.250000X0.475000X0*%
%TD*%
%TA.AperFunction,SMDPad,CuDef*%
%ADD18RoundRect,0.225000X0.225000X0.250000X-0.225000X0.250000X-0.225000X-0.250000X0.225000X-0.250000X0*%
%TD*%
%TA.AperFunction,SMDPad,CuDef*%
%ADD19RoundRect,0.250000X-0.475000X0.250000X-0.475000X-0.250000X0.475000X-0.250000X0.475000X0.250000X0*%
%TD*%
%TA.AperFunction,SMDPad,CuDef*%
%ADD20RoundRect,0.250000X0.250000X0.475000X-0.250000X0.475000X-0.250000X-0.475000X0.250000X-0.475000X0*%
%TD*%
%TA.AperFunction,SMDPad,CuDef*%
%ADD21RoundRect,0.250000X0.475000X-0.250000X0.475000X0.250000X-0.475000X0.250000X-0.475000X-0.250000X0*%
%TD*%
%TA.AperFunction,SMDPad,CuDef*%
%ADD22FreePoly0,90.000000*%
%TD*%
%TA.AperFunction,SMDPad,CuDef*%
%ADD23FreePoly0,270.000000*%
%TD*%
%TA.AperFunction,SMDPad,CuDef*%
%ADD24R,1.150000X0.600000*%
%TD*%
%TA.AperFunction,SMDPad,CuDef*%
%ADD25R,1.150000X0.300000*%
%TD*%
%TA.AperFunction,ComponentPad*%
%ADD26O,2.000000X1.000000*%
%TD*%
%TA.AperFunction,ComponentPad*%
%ADD27O,2.100000X1.050000*%
%TD*%
%TA.AperFunction,SMDPad,CuDef*%
%ADD28RoundRect,0.250000X0.375000X0.850000X-0.375000X0.850000X-0.375000X-0.850000X0.375000X-0.850000X0*%
%TD*%
%TA.AperFunction,SMDPad,CuDef*%
%ADD29R,0.610000X1.270000*%
%TD*%
%TA.AperFunction,SMDPad,CuDef*%
%ADD30FreePoly1,90.000000*%
%TD*%
%TA.AperFunction,SMDPad,CuDef*%
%ADD31RoundRect,0.250000X-0.450000X0.262500X-0.450000X-0.262500X0.450000X-0.262500X0.450000X0.262500X0*%
%TD*%
%TA.AperFunction,SMDPad,CuDef*%
%ADD32RoundRect,0.250000X0.262500X0.450000X-0.262500X0.450000X-0.262500X-0.450000X0.262500X-0.450000X0*%
%TD*%
%TA.AperFunction,SMDPad,CuDef*%
%ADD33RoundRect,0.250000X-0.262500X-0.450000X0.262500X-0.450000X0.262500X0.450000X-0.262500X0.450000X0*%
%TD*%
%TA.AperFunction,SMDPad,CuDef*%
%ADD34RoundRect,0.250000X0.450000X-0.262500X0.450000X0.262500X-0.450000X0.262500X-0.450000X-0.262500X0*%
%TD*%
%TA.AperFunction,SMDPad,CuDef*%
%ADD35RoundRect,0.250000X-0.625000X0.312500X-0.625000X-0.312500X0.625000X-0.312500X0.625000X0.312500X0*%
%TD*%
%TA.AperFunction,SMDPad,CuDef*%
%ADD36RoundRect,0.050000X-0.425000X-0.050000X0.425000X-0.050000X0.425000X0.050000X-0.425000X0.050000X0*%
%TD*%
%TA.AperFunction,SMDPad,CuDef*%
%ADD37RoundRect,0.050000X-0.050000X-0.300000X0.050000X-0.300000X0.050000X0.300000X-0.050000X0.300000X0*%
%TD*%
%TA.AperFunction,SMDPad,CuDef*%
%ADD38RoundRect,0.050000X-0.250000X-0.050000X0.250000X-0.050000X0.250000X0.050000X-0.250000X0.050000X0*%
%TD*%
%TA.AperFunction,SMDPad,CuDef*%
%ADD39RoundRect,0.050000X-0.400000X-0.050000X0.400000X-0.050000X0.400000X0.050000X-0.400000X0.050000X0*%
%TD*%
%TA.AperFunction,SMDPad,CuDef*%
%ADD40RoundRect,0.050000X-0.050000X-0.250000X0.050000X-0.250000X0.050000X0.250000X-0.050000X0.250000X0*%
%TD*%
%TA.AperFunction,SMDPad,CuDef*%
%ADD41RoundRect,0.050000X-0.050000X0.300000X-0.050000X-0.300000X0.050000X-0.300000X0.050000X0.300000X0*%
%TD*%
%TA.AperFunction,SMDPad,CuDef*%
%ADD42RoundRect,0.050000X-0.300000X-0.050000X0.300000X-0.050000X0.300000X0.050000X-0.300000X0.050000X0*%
%TD*%
%TA.AperFunction,SMDPad,CuDef*%
%ADD43RoundRect,0.050000X-0.275000X-0.050000X0.275000X-0.050000X0.275000X0.050000X-0.275000X0.050000X0*%
%TD*%
%TA.AperFunction,SMDPad,CuDef*%
%ADD44RoundRect,0.050000X-0.290000X-0.050000X0.290000X-0.050000X0.290000X0.050000X-0.290000X0.050000X0*%
%TD*%
%TA.AperFunction,SMDPad,CuDef*%
%ADD45RoundRect,0.050000X-0.050000X-0.450000X0.050000X-0.450000X0.050000X0.450000X-0.050000X0.450000X0*%
%TD*%
%TA.AperFunction,SMDPad,CuDef*%
%ADD46RoundRect,0.050000X0.300000X0.050000X-0.300000X0.050000X-0.300000X-0.050000X0.300000X-0.050000X0*%
%TD*%
%TA.AperFunction,SMDPad,CuDef*%
%ADD47RoundRect,0.050000X0.050000X0.300000X-0.050000X0.300000X-0.050000X-0.300000X0.050000X-0.300000X0*%
%TD*%
%TA.AperFunction,ComponentPad*%
%ADD48C,0.500000*%
%TD*%
%TA.AperFunction,SMDPad,CuDef*%
%ADD49RoundRect,0.120400X0.579600X0.579600X-0.579600X0.579600X-0.579600X-0.579600X0.579600X-0.579600X0*%
%TD*%
%TA.AperFunction,SMDPad,CuDef*%
%ADD50RoundRect,0.250000X1.425000X-0.362500X1.425000X0.362500X-1.425000X0.362500X-1.425000X-0.362500X0*%
%TD*%
%TA.AperFunction,SMDPad,CuDef*%
%ADD51R,1.270000X0.610000*%
%TD*%
%TA.AperFunction,SMDPad,CuDef*%
%ADD52FreePoly1,0.000000*%
%TD*%
%TA.AperFunction,SMDPad,CuDef*%
%ADD53C,1.000000*%
%TD*%
%TA.AperFunction,SMDPad,CuDef*%
%ADD54FreePoly1,180.000000*%
%TD*%
%TA.AperFunction,SMDPad,CuDef*%
%ADD55RoundRect,0.243750X0.456250X-0.243750X0.456250X0.243750X-0.456250X0.243750X-0.456250X-0.243750X0*%
%TD*%
%TA.AperFunction,SMDPad,CuDef*%
%ADD56RoundRect,0.225000X-0.225000X-0.250000X0.225000X-0.250000X0.225000X0.250000X-0.225000X0.250000X0*%
%TD*%
%TA.AperFunction,SMDPad,CuDef*%
%ADD57RoundRect,0.150000X0.587500X0.150000X-0.587500X0.150000X-0.587500X-0.150000X0.587500X-0.150000X0*%
%TD*%
%TA.AperFunction,ViaPad*%
%ADD58C,0.800000*%
%TD*%
%TA.AperFunction,Conductor*%
%ADD59C,0.200000*%
%TD*%
%TA.AperFunction,Conductor*%
%ADD60C,0.300000*%
%TD*%
%TA.AperFunction,Conductor*%
%ADD61C,0.500000*%
%TD*%
%TA.AperFunction,Conductor*%
%ADD62C,0.800000*%
%TD*%
%TA.AperFunction,Conductor*%
%ADD63C,1.000000*%
%TD*%
G04 APERTURE END LIST*
D10*
D11*
X111687228Y38590072D02*
X111687228Y40090072D01*
X111687228Y40090072D02*
X111187228Y39018643D01*
X111187228Y39018643D02*
X110687228Y40090072D01*
X110687228Y40090072D02*
X110687228Y38590072D01*
X109258656Y38590072D02*
X109972942Y38590072D01*
X109972942Y38590072D02*
X109972942Y40090072D01*
X108830084Y39018643D02*
X108115799Y39018643D01*
X108972941Y38590072D02*
X108472941Y40090072D01*
X108472941Y40090072D02*
X107972941Y38590072D01*
X106972942Y39375786D02*
X106758656Y39304358D01*
X106758656Y39304358D02*
X106687227Y39232929D01*
X106687227Y39232929D02*
X106615799Y39090072D01*
X106615799Y39090072D02*
X106615799Y38875786D01*
X106615799Y38875786D02*
X106687227Y38732929D01*
X106687227Y38732929D02*
X106758656Y38661500D01*
X106758656Y38661500D02*
X106901513Y38590072D01*
X106901513Y38590072D02*
X107472942Y38590072D01*
X107472942Y38590072D02*
X107472942Y40090072D01*
X107472942Y40090072D02*
X106972942Y40090072D01*
X106972942Y40090072D02*
X106830085Y40018643D01*
X106830085Y40018643D02*
X106758656Y39947215D01*
X106758656Y39947215D02*
X106687227Y39804358D01*
X106687227Y39804358D02*
X106687227Y39661500D01*
X106687227Y39661500D02*
X106758656Y39518643D01*
X106758656Y39518643D02*
X106830085Y39447215D01*
X106830085Y39447215D02*
X106972942Y39375786D01*
X106972942Y39375786D02*
X107472942Y39375786D01*
X105972942Y38732929D02*
X105901513Y38661500D01*
X105901513Y38661500D02*
X105972942Y38590072D01*
X105972942Y38590072D02*
X106044370Y38661500D01*
X106044370Y38661500D02*
X105972942Y38732929D01*
X105972942Y38732929D02*
X105972942Y38590072D01*
X104401513Y38732929D02*
X104472941Y38661500D01*
X104472941Y38661500D02*
X104687227Y38590072D01*
X104687227Y38590072D02*
X104830084Y38590072D01*
X104830084Y38590072D02*
X105044370Y38661500D01*
X105044370Y38661500D02*
X105187227Y38804358D01*
X105187227Y38804358D02*
X105258656Y38947215D01*
X105258656Y38947215D02*
X105330084Y39232929D01*
X105330084Y39232929D02*
X105330084Y39447215D01*
X105330084Y39447215D02*
X105258656Y39732929D01*
X105258656Y39732929D02*
X105187227Y39875786D01*
X105187227Y39875786D02*
X105044370Y40018643D01*
X105044370Y40018643D02*
X104830084Y40090072D01*
X104830084Y40090072D02*
X104687227Y40090072D01*
X104687227Y40090072D02*
X104472941Y40018643D01*
X104472941Y40018643D02*
X104401513Y39947215D01*
X103901513Y40090072D02*
X102901513Y40090072D01*
X102901513Y40090072D02*
X103901513Y38590072D01*
X103901513Y38590072D02*
X102901513Y38590072D01*
D10*
D11*
X114385657Y35542072D02*
X115099943Y35542072D01*
X115099943Y35542072D02*
X115099943Y37042072D01*
X113885657Y35542072D02*
X113885657Y37042072D01*
X112885656Y37042072D02*
X112599942Y37042072D01*
X112599942Y37042072D02*
X112457085Y36970643D01*
X112457085Y36970643D02*
X112314228Y36827786D01*
X112314228Y36827786D02*
X112242799Y36542072D01*
X112242799Y36542072D02*
X112242799Y36042072D01*
X112242799Y36042072D02*
X112314228Y35756358D01*
X112314228Y35756358D02*
X112457085Y35613500D01*
X112457085Y35613500D02*
X112599942Y35542072D01*
X112599942Y35542072D02*
X112885656Y35542072D01*
X112885656Y35542072D02*
X113028514Y35613500D01*
X113028514Y35613500D02*
X113171371Y35756358D01*
X113171371Y35756358D02*
X113242799Y36042072D01*
X113242799Y36042072D02*
X113242799Y36542072D01*
X113242799Y36542072D02*
X113171371Y36827786D01*
X113171371Y36827786D02*
X113028514Y36970643D01*
X113028514Y36970643D02*
X112885656Y37042072D01*
X111599942Y35542072D02*
X111599942Y37042072D01*
X111599942Y37042072D02*
X110742799Y35542072D01*
X110742799Y35542072D02*
X110742799Y37042072D01*
X110099941Y36899215D02*
X110028513Y36970643D01*
X110028513Y36970643D02*
X109885656Y37042072D01*
X109885656Y37042072D02*
X109528513Y37042072D01*
X109528513Y37042072D02*
X109385656Y36970643D01*
X109385656Y36970643D02*
X109314227Y36899215D01*
X109314227Y36899215D02*
X109242798Y36756358D01*
X109242798Y36756358D02*
X109242798Y36613500D01*
X109242798Y36613500D02*
X109314227Y36399215D01*
X109314227Y36399215D02*
X110171370Y35542072D01*
X110171370Y35542072D02*
X109242798Y35542072D01*
X107742799Y35684929D02*
X107814227Y35613500D01*
X107814227Y35613500D02*
X108028513Y35542072D01*
X108028513Y35542072D02*
X108171370Y35542072D01*
X108171370Y35542072D02*
X108385656Y35613500D01*
X108385656Y35613500D02*
X108528513Y35756358D01*
X108528513Y35756358D02*
X108599942Y35899215D01*
X108599942Y35899215D02*
X108671370Y36184929D01*
X108671370Y36184929D02*
X108671370Y36399215D01*
X108671370Y36399215D02*
X108599942Y36684929D01*
X108599942Y36684929D02*
X108528513Y36827786D01*
X108528513Y36827786D02*
X108385656Y36970643D01*
X108385656Y36970643D02*
X108171370Y37042072D01*
X108171370Y37042072D02*
X108028513Y37042072D01*
X108028513Y37042072D02*
X107814227Y36970643D01*
X107814227Y36970643D02*
X107742799Y36899215D01*
X107099942Y36327786D02*
X106599942Y36327786D01*
X106385656Y35542072D02*
X107099942Y35542072D01*
X107099942Y35542072D02*
X107099942Y37042072D01*
X107099942Y37042072D02*
X106385656Y37042072D01*
X105028513Y35542072D02*
X105742799Y35542072D01*
X105742799Y35542072D02*
X105742799Y37042072D01*
X103814227Y35542072D02*
X104528513Y35542072D01*
X104528513Y35542072D02*
X104528513Y37042072D01*
X103028512Y37042072D02*
X102885655Y37042072D01*
X102885655Y37042072D02*
X102742798Y36970643D01*
X102742798Y36970643D02*
X102671370Y36899215D01*
X102671370Y36899215D02*
X102599941Y36756358D01*
X102599941Y36756358D02*
X102528512Y36470643D01*
X102528512Y36470643D02*
X102528512Y36113500D01*
X102528512Y36113500D02*
X102599941Y35827786D01*
X102599941Y35827786D02*
X102671370Y35684929D01*
X102671370Y35684929D02*
X102742798Y35613500D01*
X102742798Y35613500D02*
X102885655Y35542072D01*
X102885655Y35542072D02*
X103028512Y35542072D01*
X103028512Y35542072D02*
X103171370Y35613500D01*
X103171370Y35613500D02*
X103242798Y35684929D01*
X103242798Y35684929D02*
X103314227Y35827786D01*
X103314227Y35827786D02*
X103385655Y36113500D01*
X103385655Y36113500D02*
X103385655Y36470643D01*
X103385655Y36470643D02*
X103314227Y36756358D01*
X103314227Y36756358D02*
X103242798Y36899215D01*
X103242798Y36899215D02*
X103171370Y36970643D01*
X103171370Y36970643D02*
X103028512Y37042072D01*
X101957084Y36899215D02*
X101885656Y36970643D01*
X101885656Y36970643D02*
X101742799Y37042072D01*
X101742799Y37042072D02*
X101385656Y37042072D01*
X101385656Y37042072D02*
X101242799Y36970643D01*
X101242799Y36970643D02*
X101171370Y36899215D01*
X101171370Y36899215D02*
X101099941Y36756358D01*
X101099941Y36756358D02*
X101099941Y36613500D01*
X101099941Y36613500D02*
X101171370Y36399215D01*
X101171370Y36399215D02*
X102028513Y35542072D01*
X102028513Y35542072D02*
X101099941Y35542072D01*
X100528513Y35970643D02*
X99814228Y35970643D01*
X100671370Y35542072D02*
X100171370Y37042072D01*
X100171370Y37042072D02*
X99671370Y35542072D01*
D12*
%TO.P,J2,1,P1*%
%TO.N,/Power Input/Power_load*%
X31690500Y57892200D03*
X26690500Y57892200D03*
%TD*%
%TO.P,J3,1,P1*%
%TO.N,GND*%
X31690500Y62896000D03*
X26690500Y62896000D03*
%TD*%
D13*
%TO.P,J4,1,2*%
%TO.N,GND*%
X47625000Y12827000D03*
%TO.P,J4,2,2*%
X47625000Y10287000D03*
%TO.P,J4,3,4*%
%TO.N,/Power Input/System_load*%
X45085000Y12827000D03*
%TO.P,J4,4,4*%
X45085000Y10287000D03*
%TO.P,J4,5,5*%
X42545000Y12827000D03*
%TO.P,J4,6,5*%
X42545000Y10287000D03*
%TO.P,J4,7,8*%
%TO.N,GND*%
X40005000Y12827000D03*
%TO.P,J4,8,8*%
X40005000Y10287000D03*
%TD*%
%TO.P,J6,1*%
%TO.N,Net-(U1-INT)*%
X43180000Y62357000D03*
%TO.P,J6,2*%
X43180000Y59817000D03*
%TD*%
%TO.P,J7,1*%
%TO.N,Net-(U1-nQON)*%
X40640000Y59817000D03*
%TO.P,J7,2*%
X40640000Y62357000D03*
%TD*%
D12*
%TO.P,J9,1,P1*%
%TO.N,GND*%
X19955500Y8323000D03*
X24955500Y8323000D03*
%TD*%
D13*
%TO.P,J10,1*%
%TO.N,Net-(U3-BTP_INT)*%
X45720000Y62230000D03*
%TO.P,J10,2*%
X45720000Y59690000D03*
%TD*%
%TO.P,J11,1*%
%TO.N,Net-(U3-~{PRES{slash}SHDWN})*%
X47752000Y62230000D03*
%TO.P,J11,2*%
%TO.N,GND1*%
X47752000Y59690000D03*
%TD*%
%TO.P,J12,1*%
%TO.N,GND*%
X65278000Y57658000D03*
%TO.P,J12,2*%
X65278000Y60198000D03*
%TO.P,J12,3*%
%TO.N,/Fuel Gauge/SCL*%
X67818000Y57658000D03*
%TO.P,J12,4*%
X67818000Y60198000D03*
%TO.P,J12,5*%
%TO.N,+3.3V*%
X70358000Y57658000D03*
%TO.P,J12,6*%
X70358000Y60198000D03*
%TO.P,J12,7*%
%TO.N,/Fuel Gauge/SDA*%
X72898000Y57658000D03*
%TO.P,J12,8*%
X72898000Y60198000D03*
%TO.P,J12,9*%
%TO.N,GND*%
X75438000Y57658000D03*
%TO.P,J12,10*%
X75438000Y60198000D03*
%TD*%
D12*
%TO.P,J8,1,P1*%
%TO.N,VBUS*%
X19955500Y13276000D03*
X24955500Y13276000D03*
%TD*%
D14*
%TO.P,SW1,1,1*%
%TO.N,Net-(U3-~{PRES{slash}SHDWN})*%
X53365000Y63210000D03*
X59665000Y63210000D03*
%TO.P,SW1,2,2*%
%TO.N,GND1*%
X53365000Y58710000D03*
X59665000Y58710000D03*
%TD*%
%TO.P,SW2,1,1*%
%TO.N,Net-(U3-~{DISP})*%
X52984000Y13299000D03*
X59284000Y13299000D03*
%TO.P,SW2,2,2*%
%TO.N,GND1*%
X52984000Y8799000D03*
X59284000Y8799000D03*
%TD*%
D15*
%TO.P,H2,1,1*%
%TO.N,GND*%
X81280000Y60960000D03*
%TD*%
%TO.P,H3,1,1*%
%TO.N,GND*%
X10160000Y10160000D03*
%TD*%
D16*
%TO.P,B1,1,+*%
%TO.N,/Fuel Gauge/B+*%
X9470000Y45210000D03*
%TO.P,B1,2,-*%
%TO.N,/Fuel Gauge/BAT_MID*%
X81970000Y45210000D03*
%TO.P,B1,3,+*%
X9470000Y25910000D03*
%TO.P,B1,4,-*%
%TO.N,GND1*%
X81970000Y25910000D03*
%TD*%
D15*
%TO.P,H4,1,1*%
%TO.N,GND*%
X81280000Y10160000D03*
%TD*%
%TO.P,H1,1,1*%
%TO.N,GND*%
X10160000Y60960000D03*
%TD*%
D17*
%TO.P,C1,1*%
%TO.N,VBUS*%
X14417000Y29337000D03*
%TO.P,C1,2*%
%TO.N,GND*%
X16317000Y29337000D03*
%TD*%
D18*
%TO.P,C5,1*%
%TO.N,/Power Input/System_load*%
X33668000Y25400000D03*
%TO.P,C5,2*%
%TO.N,GND*%
X32118000Y25400000D03*
%TD*%
D19*
%TO.P,C6,1*%
%TO.N,/Power Input/System_load*%
X35560000Y25461000D03*
%TO.P,C6,2*%
%TO.N,GND*%
X35560000Y23561000D03*
%TD*%
D17*
%TO.P,C7,1*%
%TO.N,/Power Input/System_load*%
X42839600Y25323800D03*
%TO.P,C7,2*%
%TO.N,GND*%
X44739600Y25323800D03*
%TD*%
%TO.P,C8,1*%
%TO.N,/Power Input/System_load*%
X42865000Y23241000D03*
%TO.P,C8,2*%
%TO.N,GND*%
X44765000Y23241000D03*
%TD*%
D19*
%TO.P,C9,1*%
%TO.N,Net-(U1-BTST1)*%
X26289000Y29398000D03*
%TO.P,C9,2*%
%TO.N,Net-(U1-SW1)*%
X26289000Y27498000D03*
%TD*%
D20*
%TO.P,C11,1*%
%TO.N,/Power Input/Power_load*%
X41208999Y32639000D03*
%TO.P,C11,2*%
%TO.N,GND*%
X39309001Y32639000D03*
%TD*%
%TO.P,C16,1*%
%TO.N,GND1*%
X61529000Y32893000D03*
%TO.P,C16,2*%
%TO.N,Net-(U3-PBI)*%
X59629000Y32893000D03*
%TD*%
D19*
%TO.P,C17,1*%
%TO.N,Net-(U3-VC2)*%
X63119000Y30541000D03*
%TO.P,C17,2*%
%TO.N,Net-(U3-VC1)*%
X63119000Y28641000D03*
%TD*%
D21*
%TO.P,C18,1*%
%TO.N,Net-(U3-VC1)*%
X60921900Y28663800D03*
%TO.P,C18,2*%
%TO.N,GND1*%
X60921900Y30563800D03*
%TD*%
D22*
%TO.P,D1,1,K*%
%TO.N,Net-(D1-K)*%
X62992000Y8001000D03*
D23*
%TO.P,D1,2,A*%
%TO.N,Net-(D1-A)*%
X62992000Y11811000D03*
%TD*%
%TO.P,D3,1,K*%
%TO.N,Net-(D3-K)*%
X35179000Y12192000D03*
D22*
%TO.P,D3,2,A*%
%TO.N,Net-(D3-A)*%
X35179000Y8382000D03*
%TD*%
D23*
%TO.P,D4,1,K*%
%TO.N,Net-(D1-A)*%
X66040000Y11811000D03*
D22*
%TO.P,D4,2,A*%
%TO.N,Net-(D1-K)*%
X66040000Y8001000D03*
%TD*%
%TO.P,D7,1,K*%
%TO.N,Net-(D1-K)*%
X72263000Y8001000D03*
D23*
%TO.P,D7,2,A*%
%TO.N,Net-(D5-K)*%
X72263000Y11811000D03*
%TD*%
D22*
%TO.P,D8,1,K*%
%TO.N,Net-(D1-A)*%
X75311000Y8001000D03*
D23*
%TO.P,D8,2,A*%
%TO.N,Net-(D5-K)*%
X75311000Y11811000D03*
%TD*%
D24*
%TO.P,J1,A1/B12,GND*%
%TO.N,GND*%
X12756000Y32360000D03*
%TO.P,J1,A4/B9,VBUS*%
%TO.N,VBUS*%
X12756000Y33160000D03*
D25*
%TO.P,J1,A5,CC1*%
%TO.N,Net-(J1-CC1)*%
X12756000Y34310000D03*
%TO.P,J1,A6,D+*%
%TO.N,/Power Input/D+*%
X12756000Y35310000D03*
%TO.P,J1,A7,D-*%
%TO.N,/Power Input/D-*%
X12756000Y35810000D03*
%TO.P,J1,A8,SBU1*%
%TO.N,unconnected-(J1-SBU1-PadA8)*%
X12756000Y36810000D03*
D24*
%TO.P,J1,B1/A12,GND*%
%TO.N,GND*%
X12756000Y38760000D03*
%TO.P,J1,B4/A9,VBUS*%
%TO.N,VBUS*%
X12756000Y37960000D03*
D25*
%TO.P,J1,B5,CC2*%
%TO.N,Net-(J1-CC2)*%
X12756000Y37310000D03*
%TO.P,J1,B6,D+*%
%TO.N,/Power Input/D+*%
X12756000Y36310000D03*
%TO.P,J1,B7,D-*%
%TO.N,/Power Input/D-*%
X12756000Y34810000D03*
%TO.P,J1,B8,SBU2*%
%TO.N,unconnected-(J1-SBU2-PadB8)*%
X12756000Y33810000D03*
D26*
%TO.P,J1,G1,SHIELD*%
%TO.N,GND*%
X8001000Y31240000D03*
%TO.P,J1,G2,SHIELD*%
X8001000Y39880000D03*
D27*
%TO.P,J1,G3,SHIELD*%
X12181000Y31240000D03*
%TO.P,J1,G4,SHIELD*%
X12181000Y39880000D03*
%TD*%
D28*
%TO.P,L1,1*%
%TO.N,Net-(U1-SW2)*%
X32317000Y22352000D03*
%TO.P,L1,2*%
%TO.N,Net-(U1-SW1)*%
X30167000Y22352000D03*
%TD*%
D29*
%TO.P,Q1,1,S*%
%TO.N,/Power Input/Power_load*%
X38989000Y53851000D03*
X40259000Y53851000D03*
X37719000Y53851001D03*
%TO.P,Q1,2,G*%
%TO.N,Net-(Q1-G)*%
X41529000Y53851001D03*
D30*
%TO.P,Q1,3,D*%
%TO.N,/Fuel Gauge/PACK+*%
X39624000Y51181000D03*
%TD*%
D31*
%TO.P,R1,1*%
%TO.N,GND*%
X15748000Y38377500D03*
%TO.P,R1,2*%
%TO.N,Net-(J1-CC2)*%
X15748000Y36552500D03*
%TD*%
D32*
%TO.P,R3,1*%
%TO.N,Net-(U1-ILIM_HIZ)*%
X35837500Y35179000D03*
%TO.P,R3,2*%
%TO.N,/Power Input/REGN*%
X34012500Y35179000D03*
%TD*%
D33*
%TO.P,R5,1*%
%TO.N,/Power Input/REGN*%
X34012500Y37211000D03*
%TO.P,R5,2*%
%TO.N,Net-(U1-TS)*%
X35837500Y37211000D03*
%TD*%
D34*
%TO.P,R6,1*%
%TO.N,Net-(U1-TS)*%
X35687000Y39219500D03*
%TO.P,R6,2*%
%TO.N,GND*%
X35687000Y41044500D03*
%TD*%
D32*
%TO.P,R7,1*%
%TO.N,/Power Input/REGN*%
X24280500Y27813000D03*
%TO.P,R7,2*%
%TO.N,Net-(D3-A)*%
X22455500Y27813000D03*
%TD*%
D33*
%TO.P,R8,1*%
%TO.N,Net-(U1-BATP)*%
X40997500Y35179000D03*
%TO.P,R8,2*%
%TO.N,/Fuel Gauge/PACK+*%
X42822500Y35179000D03*
%TD*%
%TO.P,R9,1*%
%TO.N,Net-(U1-PROG)*%
X37568500Y28575000D03*
%TO.P,R9,2*%
%TO.N,GND*%
X39393500Y28575000D03*
%TD*%
D32*
%TO.P,R11,1*%
%TO.N,+3.3V*%
X44854500Y57150000D03*
%TO.P,R11,2*%
%TO.N,Net-(U1-INT)*%
X43029500Y57150000D03*
%TD*%
D35*
%TO.P,R17,1*%
%TO.N,/Fuel Gauge/B+*%
X16764000Y50865500D03*
%TO.P,R17,2*%
%TO.N,Net-(Q2-D)*%
X16764000Y47940500D03*
%TD*%
D32*
%TO.P,R18,1*%
%TO.N,Net-(Q2-G)*%
X25042500Y48006000D03*
%TO.P,R18,2*%
%TO.N,/Fuel Gauge/VCOM*%
X23217500Y48006000D03*
%TD*%
%TO.P,R19,1*%
%TO.N,Net-(U3-PCHG)*%
X28979500Y45847000D03*
%TO.P,R19,2*%
%TO.N,Net-(Q2-G)*%
X27154500Y45847000D03*
%TD*%
D34*
%TO.P,R20,1*%
%TO.N,Net-(U3-VCC)*%
X53721000Y32869500D03*
%TO.P,R20,2*%
%TO.N,/Fuel Gauge/VCOM*%
X53721000Y34694500D03*
%TD*%
%TO.P,R23,1*%
%TO.N,Net-(Q5-G)*%
X34163000Y49506500D03*
%TO.P,R23,2*%
%TO.N,/Fuel Gauge/PACK+*%
X34163000Y51331500D03*
%TD*%
D33*
%TO.P,R24,1*%
%TO.N,/Fuel Gauge/PACK+*%
X42902500Y37211000D03*
%TO.P,R24,2*%
%TO.N,Net-(U3-PACK)*%
X44727500Y37211000D03*
%TD*%
%TO.P,R27,1*%
%TO.N,Net-(Q5-G)*%
X39346500Y43180000D03*
%TO.P,R27,2*%
%TO.N,Net-(U3-DSG)*%
X41171500Y43180000D03*
%TD*%
D34*
%TO.P,R28,1*%
%TO.N,Net-(U3-CHG)*%
X20574000Y44807500D03*
%TO.P,R28,2*%
%TO.N,Net-(Q3-G)*%
X20574000Y46632500D03*
%TD*%
D33*
%TO.P,R32,1*%
%TO.N,/Fuel Gauge/B+*%
X12701900Y45034200D03*
%TO.P,R32,2*%
%TO.N,Net-(U3-VC2)*%
X14526900Y45034200D03*
%TD*%
%TO.P,R33,1*%
%TO.N,/Fuel Gauge/BAT_MID*%
X12930500Y25908000D03*
%TO.P,R33,2*%
%TO.N,Net-(U3-VC1)*%
X14755500Y25908000D03*
%TD*%
D36*
%TO.P,U1,1,STAT*%
%TO.N,Net-(D3-K)*%
X29610700Y27927500D03*
D37*
X29985700Y27677500D03*
D38*
%TO.P,U1,2,VBUS*%
%TO.N,VBUS*%
X29435700Y28327500D03*
%TO.P,U1,3,VBUS*%
X29435700Y28727500D03*
%TO.P,U1,4,BTST1*%
%TO.N,Net-(U1-BTST1)*%
X29435700Y29127500D03*
%TO.P,U1,5,REGN*%
%TO.N,/Power Input/REGN*%
X29435700Y29527500D03*
%TO.P,U1,6,D+*%
%TO.N,/Power Input/D+*%
X29435700Y29927500D03*
%TO.P,U1,7,D-*%
%TO.N,/Power Input/D-*%
X29435700Y30327500D03*
%TO.P,U1,8,VAC2*%
%TO.N,VBUS*%
X29435700Y30727500D03*
D39*
%TO.P,U1,9,VAC1*%
X29585700Y31127500D03*
D37*
X29935700Y31377500D03*
D40*
%TO.P,U1,10,ACDRV2*%
%TO.N,GND*%
X30335700Y31427500D03*
%TO.P,U1,11,ACDRV1*%
X30735700Y31427500D03*
%TO.P,U1,12,nQON*%
%TO.N,Net-(U1-nQON)*%
X31135700Y31427500D03*
%TO.P,U1,13,CE*%
%TO.N,GND*%
X31535700Y31427500D03*
%TO.P,U1,14,SCL*%
%TO.N,/Fuel Gauge/SCL*%
X31935700Y31427500D03*
%TO.P,U1,15,SDA*%
%TO.N,/Fuel Gauge/SDA*%
X32335700Y31427500D03*
D41*
%TO.P,U1,16,TS*%
%TO.N,Net-(U1-TS)*%
X32735700Y31377500D03*
D39*
X33085700Y31127500D03*
D42*
%TO.P,U1,17,ILIM_HIZ*%
%TO.N,Net-(U1-ILIM_HIZ)*%
X33185700Y30727500D03*
D43*
%TO.P,U1,18,BATP*%
%TO.N,Net-(U1-BATP)*%
X33210700Y30327500D03*
D44*
%TO.P,U1,19,BTST2*%
%TO.N,Net-(U1-BTST2)*%
X33198200Y29927500D03*
D38*
%TO.P,U1,20,PROG*%
%TO.N,Net-(U1-PROG)*%
X33235700Y29527500D03*
%TO.P,U1,21,INT*%
%TO.N,Net-(U1-INT)*%
X33235700Y29127500D03*
%TO.P,U1,22,BAT*%
%TO.N,/Power Input/Power_load*%
X33235700Y28727500D03*
%TO.P,U1,23,BAT*%
X33235700Y28327500D03*
D37*
%TO.P,U1,24,SDRV*%
%TO.N,Net-(Q1-G)*%
X32685700Y27677500D03*
D36*
X33060700Y27927500D03*
D45*
%TO.P,U1,25,SYS*%
%TO.N,/Power Input/System_load*%
X32135700Y27927500D03*
%TO.P,U1,26,SW2*%
%TO.N,Net-(U1-SW2)*%
X31735700Y27927500D03*
%TO.P,U1,27,GND*%
%TO.N,GND*%
X31335700Y27927500D03*
%TO.P,U1,28,SW1*%
%TO.N,Net-(U1-SW1)*%
X30935700Y27927500D03*
%TO.P,U1,29,PMID*%
%TO.N,Net-(U1-PMID)*%
X30535700Y27927500D03*
%TD*%
D46*
%TO.P,U3,1,PBI*%
%TO.N,Net-(U3-PBI)*%
X57880000Y30229000D03*
%TO.P,U3,2,VC4*%
%TO.N,Net-(U3-VC2)*%
X57880000Y29829000D03*
%TO.P,U3,3,VC3*%
X57880000Y29429000D03*
%TO.P,U3,4,VC2*%
X57880000Y29029000D03*
%TO.P,U3,5,VC1*%
%TO.N,Net-(U3-VC1)*%
X57880000Y28629000D03*
%TO.P,U3,6,SRN*%
%TO.N,/Fuel Gauge/SR-*%
X57880000Y28229000D03*
%TO.P,U3,7,NC*%
%TO.N,unconnected-(U3-NC-Pad7)*%
X57880000Y27829000D03*
%TO.P,U3,8,SRP*%
%TO.N,/Fuel Gauge/SR+*%
X57880000Y27429000D03*
D47*
%TO.P,U3,9,VSS*%
%TO.N,GND1*%
X57280000Y26829000D03*
%TO.P,U3,10,TS1*%
%TO.N,Net-(U3-TS1)*%
X56880000Y26829000D03*
%TO.P,U3,11,TS2*%
%TO.N,Net-(U3-TS2)*%
X56480000Y26829000D03*
%TO.P,U3,12,TS3*%
%TO.N,GND1*%
X56080000Y26829000D03*
%TO.P,U3,13,TS4*%
X55680000Y26829000D03*
%TO.P,U3,14,NC*%
%TO.N,unconnected-(U3-NC-Pad14)*%
X55280000Y26829000D03*
%TO.P,U3,15,BTP_INT*%
%TO.N,Net-(U3-BTP_INT)*%
X54880000Y26829000D03*
%TO.P,U3,16,~{PRES/SHDWN}*%
%TO.N,Net-(U3-~{PRES{slash}SHDWN})*%
X54480000Y26829000D03*
D46*
%TO.P,U3,17,~{DISP}*%
%TO.N,Net-(U3-~{DISP})*%
X53880000Y27429000D03*
%TO.P,U3,18,SMBD*%
%TO.N,/Fuel Gauge/SDA*%
X53880000Y27829000D03*
%TO.P,U3,19,SMBC*%
%TO.N,/Fuel Gauge/SCL*%
X53880000Y28229000D03*
%TO.P,U3,20,LEDCNTLA*%
%TO.N,Net-(D1-A)*%
X53880000Y28629000D03*
%TO.P,U3,21,LEDCNTLB*%
%TO.N,Net-(D1-K)*%
X53880000Y29029000D03*
%TO.P,U3,22,LEDCNTLC*%
%TO.N,Net-(D5-K)*%
X53880000Y29429000D03*
%TO.P,U3,23,PTC*%
%TO.N,Net-(U3-PTC)*%
X53880000Y29829000D03*
%TO.P,U3,24,PTCEN*%
%TO.N,/Fuel Gauge/BAT*%
X53880000Y30229000D03*
D47*
%TO.P,U3,25,FUSE*%
%TO.N,GND1*%
X54480000Y30829000D03*
%TO.P,U3,26,VCC*%
%TO.N,Net-(U3-VCC)*%
X54880000Y30829000D03*
%TO.P,U3,27,PACK*%
%TO.N,Net-(U3-PACK)*%
X55280000Y30829000D03*
%TO.P,U3,28,DSG*%
%TO.N,Net-(U3-DSG)*%
X55680000Y30829000D03*
%TO.P,U3,29,NC*%
%TO.N,unconnected-(U3-NC-Pad29)*%
X56080000Y30829000D03*
%TO.P,U3,30,PCHG*%
%TO.N,Net-(U3-PCHG)*%
X56480000Y30829000D03*
%TO.P,U3,31,CHG*%
%TO.N,Net-(U3-CHG)*%
X56880000Y30829000D03*
%TO.P,U3,32,BAT*%
%TO.N,/Fuel Gauge/BAT*%
X57280000Y30829000D03*
D48*
%TO.P,U3,33,PWRPD*%
%TO.N,GND1*%
X55880000Y28829000D03*
D49*
X55880000Y28829000D03*
%TD*%
D33*
%TO.P,R4,1*%
%TO.N,Net-(U1-ILIM_HIZ)*%
X37568500Y35179000D03*
%TO.P,R4,2*%
%TO.N,GND*%
X39393500Y35179000D03*
%TD*%
D23*
%TO.P,D5,1,K*%
%TO.N,Net-(D5-K)*%
X69215000Y11811000D03*
D22*
%TO.P,D5,2,A*%
%TO.N,Net-(D1-K)*%
X69215000Y8001000D03*
%TD*%
D21*
%TO.P,C4,1*%
%TO.N,VBUS*%
X15798800Y40629800D03*
%TO.P,C4,2*%
%TO.N,GND*%
X15798800Y42529800D03*
%TD*%
%TO.P,C3,1*%
%TO.N,VBUS*%
X27940000Y33594000D03*
%TO.P,C3,2*%
%TO.N,GND*%
X27940000Y35494000D03*
%TD*%
%TO.P,C2,1*%
%TO.N,VBUS*%
X29972000Y33594000D03*
%TO.P,C2,2*%
%TO.N,GND*%
X29972000Y35494000D03*
%TD*%
%TO.P,C10,1*%
%TO.N,Net-(U1-SW2)*%
X35687000Y28133000D03*
%TO.P,C10,2*%
%TO.N,Net-(U1-BTST2)*%
X35687000Y30033000D03*
%TD*%
D34*
%TO.P,R2,1*%
%TO.N,GND*%
X15621000Y32107500D03*
%TO.P,R2,2*%
%TO.N,Net-(J1-CC1)*%
X15621000Y33932500D03*
%TD*%
D32*
%TO.P,R34,1*%
%TO.N,GND1*%
X78890500Y31369000D03*
%TO.P,R34,2*%
%TO.N,/Fuel Gauge/SR+*%
X77065500Y31369000D03*
%TD*%
D20*
%TO.P,C19,1*%
%TO.N,/Power Input/Power_load*%
X41208999Y30607000D03*
%TO.P,C19,2*%
%TO.N,GND*%
X39309001Y30607000D03*
%TD*%
%TO.P,C20,1*%
%TO.N,/Power Input/REGN*%
X24317999Y29845000D03*
%TO.P,C20,2*%
%TO.N,GND*%
X22418001Y29845000D03*
%TD*%
D50*
%TO.P,R35,1*%
%TO.N,GND1*%
X81915000Y29549500D03*
%TO.P,R35,2*%
%TO.N,GND*%
X81915000Y35474500D03*
%TD*%
D32*
%TO.P,R36,1*%
%TO.N,GND*%
X78890500Y33528000D03*
%TO.P,R36,2*%
%TO.N,/Fuel Gauge/SR-*%
X77065500Y33528000D03*
%TD*%
D31*
%TO.P,R22,1*%
%TO.N,Net-(Q3-G)*%
X16764000Y54379500D03*
%TO.P,R22,2*%
%TO.N,/Fuel Gauge/B+*%
X16764000Y52554500D03*
%TD*%
D51*
%TO.P,Q5,1,S*%
%TO.N,/Fuel Gauge/PACK+*%
X31753000Y52705000D03*
X31753000Y51435000D03*
X31753001Y53975000D03*
%TO.P,Q5,2,G*%
%TO.N,Net-(Q5-G)*%
X31753001Y50165000D03*
D52*
%TO.P,Q5,3,D*%
%TO.N,/Fuel Gauge/VCOM*%
X29083000Y52070000D03*
%TD*%
D53*
%TO.P,FID4,*%
%TO.N,*%
X2540000Y67663000D03*
%TD*%
%TO.P,FID1,*%
%TO.N,*%
X6731000Y6731000D03*
%TD*%
D51*
%TO.P,Q3,1,S*%
%TO.N,/Fuel Gauge/B+*%
X19047000Y51435000D03*
X19047000Y52705000D03*
X19046999Y50165000D03*
%TO.P,Q3,2,G*%
%TO.N,Net-(Q3-G)*%
X19046999Y53975000D03*
D54*
%TO.P,Q3,3,D*%
%TO.N,/Fuel Gauge/VCOM*%
X21717000Y52070000D03*
%TD*%
D34*
%TO.P,TH3,1*%
%TO.N,Net-(U1-TS)*%
X37719000Y39219500D03*
%TO.P,TH3,2*%
%TO.N,GND*%
X37719000Y41044500D03*
%TD*%
D19*
%TO.P,C27,1*%
%TO.N,Net-(U1-PMID)*%
X22860000Y25334000D03*
%TO.P,C27,2*%
%TO.N,GND*%
X22860000Y23434000D03*
%TD*%
D53*
%TO.P,FID2,*%
%TO.N,*%
X84709000Y64389000D03*
%TD*%
D34*
%TO.P,TH4,1*%
%TO.N,Net-(U3-PTC)*%
X46609000Y33377500D03*
%TO.P,TH4,2*%
%TO.N,/Fuel Gauge/BAT*%
X46609000Y35202500D03*
%TD*%
D55*
%TO.P,D6,1,K*%
%TO.N,/Fuel Gauge/BAT*%
X51435000Y32844500D03*
%TO.P,D6,2,A*%
%TO.N,/Fuel Gauge/B+*%
X51435000Y34719500D03*
%TD*%
D21*
%TO.P,C21,1*%
%TO.N,/Fuel Gauge/SR+*%
X74803000Y31435000D03*
%TO.P,C21,2*%
%TO.N,/Fuel Gauge/SR-*%
X74803000Y33335000D03*
%TD*%
D19*
%TO.P,C25,1*%
%TO.N,Net-(U1-PMID)*%
X25019000Y25334000D03*
%TO.P,C25,2*%
%TO.N,GND*%
X25019000Y23434000D03*
%TD*%
D56*
%TO.P,C24,1*%
%TO.N,Net-(U1-PMID)*%
X29070000Y25400000D03*
%TO.P,C24,2*%
%TO.N,GND*%
X30620000Y25400000D03*
%TD*%
D19*
%TO.P,C31,1*%
%TO.N,/Power Input/System_load*%
X39878000Y25461000D03*
%TO.P,C31,2*%
%TO.N,GND*%
X39878000Y23561000D03*
%TD*%
D53*
%TO.P,FID3,*%
%TO.N,*%
X87503000Y3937000D03*
%TD*%
D19*
%TO.P,C30,1*%
%TO.N,/Power Input/System_load*%
X37719000Y25461000D03*
%TO.P,C30,2*%
%TO.N,GND*%
X37719000Y23561000D03*
%TD*%
%TO.P,C29,1*%
%TO.N,VBUS*%
X28575000Y13142000D03*
%TO.P,C29,2*%
%TO.N,GND*%
X28575000Y11242000D03*
%TD*%
%TO.P,C26,1*%
%TO.N,Net-(U1-PMID)*%
X27178000Y25334000D03*
%TO.P,C26,2*%
%TO.N,GND*%
X27178000Y23434000D03*
%TD*%
D57*
%TO.P,Q2,1,G*%
%TO.N,Net-(Q2-G)*%
X25067500Y46035000D03*
%TO.P,Q2,2,S*%
%TO.N,/Fuel Gauge/VCOM*%
X25067500Y44135000D03*
%TO.P,Q2,3,D*%
%TO.N,Net-(Q2-D)*%
X23192499Y45085000D03*
%TD*%
D58*
%TO.N,GND*%
X37912212Y31868739D03*
X31497000Y30606000D03*
X31369000Y29718000D03*
X30734000Y32512000D03*
X40259000Y36830000D03*
%TO.N,GND1*%
X53721000Y31115000D03*
X58025000Y26729000D03*
X60263000Y31496000D03*
%TO.N,/Fuel Gauge/B+*%
X46105439Y49492605D03*
%TO.N,VBUS*%
X28418000Y32354000D03*
X27808525Y28569065D03*
%TO.N,Net-(U1-SW1)*%
X30226000Y23622000D03*
X30636000Y29026000D03*
X26289000Y27498000D03*
%TO.N,Net-(U1-SW2)*%
X32258000Y23622000D03*
X32196000Y29080000D03*
X35687000Y28133000D03*
%TO.N,Net-(U3-VC2)*%
X61729900Y34561100D03*
X33606000Y39744000D03*
%TO.N,Net-(U3-VC1)*%
X16128998Y22225000D03*
X61975996Y28641000D03*
X50714000Y21291000D03*
X63373000Y26741000D03*
%TO.N,/Power Input/REGN*%
X24384000Y31369000D03*
X31369000Y34417000D03*
%TO.N,Net-(D1-A)*%
X51505110Y28127148D03*
X55936000Y20972000D03*
%TO.N,Net-(D1-K)*%
X53297000Y21570000D03*
X50611000Y28575000D03*
%TO.N,Net-(D5-K)*%
X56676000Y22762000D03*
X52070000Y29845000D03*
%TO.N,/Fuel Gauge/BAT*%
X52596000Y31815000D03*
X57987000Y31461000D03*
%TO.N,/Power Input/D+*%
X17018000Y33209000D03*
X14390000Y36266000D03*
%TO.N,Net-(U1-nQON)*%
X31623000Y33020000D03*
%TO.N,Net-(U3-~{PRES{slash}SHDWN})*%
X66535100Y54907700D03*
X53086000Y25527000D03*
X50800000Y29845000D03*
X54864004Y38989000D03*
X49518000Y32450000D03*
%TO.N,Net-(Q1-G)*%
X43652500Y39242999D03*
X43279032Y33006915D03*
%TO.N,/Fuel Gauge/VCOM*%
X47243998Y50800000D03*
X26785025Y48602975D03*
%TO.N,Net-(Q3-G)*%
X15113000Y54356000D03*
X18161000Y48768000D03*
%TO.N,Net-(U1-ILIM_HIZ)*%
X36702988Y32766000D03*
X36702994Y35179000D03*
%TO.N,Net-(U1-TS)*%
X35179000Y33020000D03*
X35838000Y38215500D03*
%TO.N,Net-(U3-PCHG)*%
X56388000Y42291000D03*
X35941000Y42926000D03*
%TO.N,Net-(U3-DSG)*%
X41171500Y41148000D03*
X56769000Y37846000D03*
%TO.N,Net-(U3-CHG)*%
X57658000Y40005000D03*
X33720472Y40848422D03*
%TO.N,Net-(U3-TS1)*%
X61722000Y25527000D03*
%TO.N,Net-(U3-TS2)*%
X59436000Y24954000D03*
%TO.N,/Fuel Gauge/SCL*%
X52832000Y39243000D03*
X37719000Y37465000D03*
X48768000Y30353000D03*
%TO.N,/Fuel Gauge/SDA*%
X37592000Y33655000D03*
X58710200Y34114400D03*
X48006000Y29526000D03*
%TD*%
D59*
%TO.N,GND*%
X31402000Y26116000D02*
X32118000Y25400000D01*
X31536000Y31428000D02*
X31536000Y30647000D01*
X31320000Y26798000D02*
X31336000Y26814000D01*
D60*
X39393500Y35179000D02*
X39393500Y35964500D01*
X30353000Y32258000D02*
X30607000Y32512000D01*
D59*
X31336000Y26116000D02*
X31320000Y26132000D01*
D60*
X39309001Y32639000D02*
X38538740Y31868739D01*
X30607000Y32512000D02*
X30734000Y32512000D01*
X39393500Y35964500D02*
X40259000Y36830000D01*
D59*
X31320000Y26132000D02*
X31320000Y26798000D01*
D61*
X81915000Y34036000D02*
X81915000Y35474000D01*
D59*
X31496000Y30607000D02*
X31497000Y30606000D01*
X31336000Y29685000D02*
X31369000Y29718000D01*
D61*
X78890500Y33528000D02*
X81407000Y33528000D01*
D59*
X31536000Y30647000D02*
X31496000Y30607000D01*
X30735700Y31427500D02*
X30735700Y32510300D01*
D60*
X38538740Y31868739D02*
X37912212Y31868739D01*
D59*
X30735700Y32510300D02*
X30734000Y32512000D01*
X31336000Y26116000D02*
X31402000Y26116000D01*
X31336000Y26116000D02*
X30620000Y25400000D01*
X30336000Y31428000D02*
X30336000Y32241000D01*
X30336000Y32241000D02*
X30353000Y32258000D01*
D61*
X81407000Y33528000D02*
X81915000Y34036000D01*
D59*
X31336000Y26814000D02*
X31336000Y29685000D01*
%TO.N,/Fuel Gauge/BAT_MID*%
X12930000Y25908000D02*
X9472000Y25908000D01*
%TO.N,GND1*%
X60195000Y31564000D02*
X60263000Y31496000D01*
D61*
X81915000Y30480000D02*
X81915000Y29550000D01*
X78890500Y31369000D02*
X79831000Y31369000D01*
X80772000Y31369000D02*
X81026000Y31369000D01*
D59*
X60263000Y31222000D02*
X60558000Y30927000D01*
D61*
X79831000Y31369000D02*
X80772000Y31369000D01*
D59*
X60263000Y31496000D02*
X60263000Y31222000D01*
X63357000Y61261700D02*
X60805000Y58710000D01*
D61*
X81026000Y31369000D02*
X81915000Y30480000D01*
D59*
X73788000Y61261700D02*
X63357000Y61261700D01*
X79831000Y31369000D02*
X80772000Y31369000D01*
X78890500Y31369000D02*
X79831000Y31369000D01*
X74374000Y60675000D02*
X73788000Y61261700D01*
X60195000Y31496000D02*
X60195000Y31564000D01*
X60263000Y31496000D02*
X60263000Y31627000D01*
X54480000Y30829000D02*
X54194000Y31115000D01*
X80772000Y31369000D02*
X80899000Y31242000D01*
X55680000Y26829000D02*
X55680000Y28629000D01*
X60805000Y58710000D02*
X59665000Y58710000D01*
X74374000Y54725700D02*
X74374000Y60675000D01*
D62*
X81915000Y29549500D02*
X81915000Y25965000D01*
D59*
X56080000Y26829000D02*
X56080000Y28629000D01*
X77978000Y32281000D02*
X77978000Y51122000D01*
X57280000Y26829000D02*
X57925000Y26829000D01*
X54194000Y31115000D02*
X53721000Y31115000D01*
X60263000Y31627000D02*
X61388000Y32752000D01*
X78890000Y31369000D02*
X77978000Y32281000D01*
X77978000Y51122000D02*
X74374000Y54725700D01*
X57925000Y26829000D02*
X58025000Y26729000D01*
D63*
%TO.N,/Fuel Gauge/B+*%
X18896500Y52554500D02*
X19047000Y52705000D01*
X19047000Y52705000D02*
X19047000Y50165001D01*
X19047000Y50165001D02*
X19046999Y50165000D01*
X12526100Y45210000D02*
X12701900Y45034200D01*
X12701900Y45034200D02*
X12701900Y46803400D01*
X16764000Y52554500D02*
X18896500Y52554500D01*
D59*
X51435000Y34719500D02*
X46105439Y40049061D01*
D63*
X16764000Y50865500D02*
X16764000Y52554500D01*
D59*
X46105439Y40049061D02*
X46105439Y49492605D01*
D63*
X12701900Y46803400D02*
X16764000Y50865500D01*
X9470000Y45210000D02*
X12526100Y45210000D01*
D59*
%TO.N,VBUS*%
X12244000Y37960000D02*
X11455000Y37172000D01*
D60*
X28829000Y33594000D02*
X27940000Y33594000D01*
D59*
X28474000Y28728000D02*
X28321000Y28575000D01*
X15799000Y40629700D02*
X13633000Y38464000D01*
X28568000Y28328000D02*
X29436000Y28328000D01*
X11455000Y33950000D02*
X12245000Y33160000D01*
D60*
X28829000Y32765000D02*
X28829000Y33594000D01*
D59*
X12756000Y37960000D02*
X12244000Y37960000D01*
D60*
X27000000Y33594000D02*
X20066000Y40528000D01*
D59*
X11455000Y37172000D02*
X11455000Y33950000D01*
X13633000Y38464000D02*
X13633000Y37960000D01*
D60*
X29972000Y32639000D02*
X29972000Y33594000D01*
D59*
X17983000Y40629800D02*
X15799000Y40629800D01*
X27814460Y28575000D02*
X27808525Y28569065D01*
X28968000Y31128000D02*
X29585000Y31128000D01*
D60*
X29972000Y33594000D02*
X28829000Y33594000D01*
D59*
X27296000Y13142000D02*
X28575000Y13142000D01*
X29591000Y32258000D02*
X29936000Y31913000D01*
X27162000Y13276000D02*
X27296000Y13142000D01*
X13633000Y37960000D02*
X12756000Y37960000D01*
D60*
X20244000Y40528000D02*
X20142200Y40629800D01*
D59*
X29181000Y30982000D02*
X28950000Y30982000D01*
X12245000Y33160000D02*
X12756000Y33160000D01*
X13633000Y33160000D02*
X13633000Y30121000D01*
D60*
X29591000Y32258000D02*
X29972000Y32639000D01*
D59*
X28887000Y31046000D02*
X28968000Y31128000D01*
X20066000Y40528000D02*
X20243600Y40528000D01*
X19956000Y23605000D02*
X14417000Y29144000D01*
X29436000Y28728000D02*
X28474000Y28728000D01*
X29936000Y31913000D02*
X29936000Y31378000D01*
X14417000Y29144000D02*
X14417000Y29337000D01*
X28321000Y28575000D02*
X28568000Y28328000D01*
X13633000Y30121000D02*
X14417000Y29337000D01*
X24956000Y13276000D02*
X27162000Y13276000D01*
X18085000Y40528000D02*
X20066000Y40528000D01*
D60*
X27940000Y33594000D02*
X27000000Y33594000D01*
X20142200Y40629800D02*
X15798800Y40629800D01*
D59*
X19956000Y13276000D02*
X19956000Y23605000D01*
X28950000Y30982000D02*
X28887000Y31046000D01*
X12756000Y33160000D02*
X13633000Y33160000D01*
D60*
X28418000Y32354000D02*
X28829000Y32765000D01*
D59*
X29436000Y30728000D02*
X29181000Y30982000D01*
X28321000Y28575000D02*
X27814460Y28575000D01*
%TO.N,/Power Input/System_load*%
X42839600Y23241000D02*
X42839600Y25323800D01*
X42839600Y25323800D02*
X40015200Y25323800D01*
X37719000Y25461000D02*
X35560000Y25461000D01*
X32136000Y27381000D02*
X32136000Y27928000D01*
X33668000Y25967000D02*
X32608000Y27028000D01*
X39878000Y25461000D02*
X37719000Y25461000D01*
X42545000Y10287000D02*
X42545000Y12827000D01*
X42545000Y12827000D02*
X42545000Y22946400D01*
X32489000Y27028000D02*
X32136000Y27381000D01*
X33668000Y25400000D02*
X33668000Y25967000D01*
X32608000Y27028000D02*
X32489000Y27028000D01*
D62*
X33668000Y25400000D02*
X35499000Y25400000D01*
D59*
%TO.N,Net-(U1-SW1)*%
X30936000Y27928000D02*
X30936000Y28726000D01*
D62*
X30167000Y23563000D02*
X30226000Y23622000D01*
X30167000Y22352000D02*
X30167000Y23563000D01*
D59*
X30936000Y28726000D02*
X30636000Y29026000D01*
%TO.N,Net-(U1-BTST1)*%
X27959943Y29398000D02*
X26289000Y29398000D01*
X29436000Y29128000D02*
X28229943Y29128000D01*
X28229943Y29128000D02*
X27959943Y29398000D01*
%TO.N,Net-(U1-SW2)*%
X31736000Y28630000D02*
X32186000Y29080000D01*
X32186000Y29080000D02*
X32196000Y29080000D01*
D62*
X32317000Y23563000D02*
X32258000Y23622000D01*
X32317000Y22352000D02*
X32317000Y23563000D01*
D59*
X31736000Y27928000D02*
X31736000Y28630000D01*
%TO.N,Net-(U1-BTST2)*%
X33198000Y29928000D02*
X35581000Y29928000D01*
%TO.N,/Power Input/Power_load*%
X34099500Y28511500D02*
X33916000Y28328000D01*
D60*
X40914001Y54836001D02*
X42184000Y54836001D01*
D59*
X37719000Y52914300D02*
X38989000Y52914300D01*
X33916000Y28328000D02*
X33236000Y28328000D01*
D60*
X35061544Y27178000D02*
X39564456Y27178000D01*
D59*
X40259000Y52914300D02*
X38989000Y52914300D01*
X34010000Y28728000D02*
X34163000Y28575000D01*
X31690500Y57892200D02*
X33897000Y57892200D01*
X40259000Y53851000D02*
X40259000Y52914300D01*
X37719000Y53851000D02*
X37719000Y52914300D01*
X33897000Y57892200D02*
X37002000Y54787700D01*
D60*
X41208999Y28822543D02*
X41208999Y30607000D01*
X43765000Y38294838D02*
X43765000Y34553544D01*
X41850456Y32639000D02*
X41208999Y32639000D01*
X39564456Y27178000D02*
X41208999Y28822543D01*
X34099500Y28140044D02*
X35061544Y27178000D01*
X41208999Y30607000D02*
X41208999Y32639000D01*
X44402500Y38932338D02*
X43765000Y38294838D01*
D59*
X34163000Y28575000D02*
X34099500Y28511500D01*
D60*
X44081000Y52939001D02*
X44081000Y49473339D01*
D59*
X37719000Y54787700D02*
X37719000Y53851000D01*
D60*
X42184000Y54836001D02*
X44081000Y52939001D01*
D59*
X38989000Y53851000D02*
X38989000Y52914300D01*
D60*
X44081000Y49473339D02*
X44402500Y49151839D01*
D59*
X37002000Y54787700D02*
X37719000Y54787700D01*
D60*
X43765000Y34553544D02*
X41850456Y32639000D01*
X34099500Y28511500D02*
X34099500Y28140044D01*
X44402500Y49151839D02*
X44402500Y38932338D01*
D59*
X33236000Y28728000D02*
X34010000Y28728000D01*
D60*
X40259000Y54181000D02*
X40914001Y54836001D01*
%TO.N,/Fuel Gauge/PACK+*%
X42902500Y47902500D02*
X39624000Y51181000D01*
D59*
X31197000Y54356000D02*
X31197000Y53086000D01*
X31372000Y53086000D02*
X31197000Y53086000D01*
D60*
X42822500Y35179000D02*
X42822500Y39036000D01*
X42902500Y37211000D02*
X42902500Y47902500D01*
D59*
X31197000Y51991000D02*
X31753000Y51435000D01*
X31753000Y52705000D02*
X31372000Y53086000D01*
X32134000Y54356000D02*
X31197000Y54356000D01*
X31753000Y51435000D02*
X34059500Y51435000D01*
X39301700Y51181000D02*
X42861000Y47621700D01*
X42861000Y47621700D02*
X42861000Y37252500D01*
X31197000Y53086000D02*
X31197000Y51991000D01*
X34314000Y51181000D02*
X39301700Y51181000D01*
%TO.N,Net-(U3-PBI)*%
X57880000Y30229000D02*
X59629000Y31978000D01*
X59629000Y31978000D02*
X59629000Y32893000D01*
%TO.N,Net-(U3-VC2)*%
X62169000Y29591000D02*
X63119000Y30541000D01*
X58563000Y29829000D02*
X58801000Y29591000D01*
X58801000Y29591000D02*
X58928000Y29464000D01*
X15136500Y44424600D02*
X15746000Y43815000D01*
X24438000Y39744000D02*
X33606000Y39744000D01*
X14527000Y45034200D02*
X15136500Y44424600D01*
X61729900Y34561100D02*
X63119000Y33172000D01*
X58801000Y29464000D02*
X58801000Y29591000D01*
X58801000Y29337000D02*
X58928000Y29464000D01*
X20015000Y43228200D02*
X20954000Y43228200D01*
X58766000Y29429000D02*
X58801000Y29464000D01*
X58563000Y29829000D02*
X57880000Y29829000D01*
X20954000Y43228200D02*
X24438000Y39744000D01*
X58801000Y29337000D02*
X58801000Y29464000D01*
X15136500Y44424600D02*
X14526900Y45034200D01*
X58928000Y29464000D02*
X59055000Y29591000D01*
X15746000Y43815000D02*
X19428000Y43815000D01*
X59055000Y29591000D02*
X62169000Y29591000D01*
X57880000Y29429000D02*
X58766000Y29429000D01*
X63119000Y33172000D02*
X63119000Y30541000D01*
X19428000Y43815000D02*
X20015000Y43228200D01*
X58493000Y29029000D02*
X58801000Y29337000D01*
X57880000Y29029000D02*
X58493000Y29029000D01*
%TO.N,Net-(U3-VC1)*%
X14756000Y23597998D02*
X16128998Y22225000D01*
X53510000Y24173000D02*
X50714000Y21377000D01*
X14756000Y25558000D02*
X14756000Y23597998D01*
X60945000Y28641000D02*
X61975996Y28641000D01*
X63373000Y26741000D02*
X63373000Y26188000D01*
X63373000Y26188000D02*
X61358000Y24173000D01*
X61358000Y24173000D02*
X53510000Y24173000D01*
X50714000Y21377000D02*
X50714000Y21291000D01*
X60887000Y28629000D02*
X57880000Y28629000D01*
%TO.N,/Power Input/REGN*%
X34012000Y37211000D02*
X34012000Y35179000D01*
X26554629Y31369000D02*
X24384000Y31369000D01*
D60*
X24280500Y27813000D02*
X24280500Y29807501D01*
X24384000Y31369000D02*
X24384000Y29911001D01*
D59*
X34012000Y35179000D02*
X32131000Y35179000D01*
X32131000Y35179000D02*
X31369000Y34417000D01*
X28395629Y29528000D02*
X26554629Y31369000D01*
X29436000Y29528000D02*
X28395629Y29528000D01*
%TO.N,Net-(D1-A)*%
X77001000Y9163000D02*
X75839000Y8001000D01*
X55936000Y23082000D02*
X56331000Y23477000D01*
X56331000Y23477000D02*
X65475000Y23477000D01*
X52006962Y28629000D02*
X51505110Y28127148D01*
X53880000Y28629000D02*
X52006962Y28629000D01*
X55936000Y20972000D02*
X55936000Y23082000D01*
X62992000Y11811000D02*
X66040000Y11811000D01*
X65475000Y23477000D02*
X77001000Y11951000D01*
X62992000Y13916000D02*
X55936000Y20972000D01*
X62992000Y11811000D02*
X62992000Y13916000D01*
X77001000Y11951000D02*
X77001000Y9163000D01*
%TO.N,Net-(D1-K)*%
X69215000Y8001000D02*
X66040000Y8001000D01*
X61307000Y13560000D02*
X61307000Y9239000D01*
X61307000Y9239000D02*
X62545000Y8001000D01*
X53297000Y21570000D02*
X61307000Y13560000D01*
X53880000Y29029000D02*
X51065000Y29029000D01*
X72263000Y8001000D02*
X69215000Y8001000D01*
X51065000Y29029000D02*
X50611000Y28575000D01*
X66040000Y8001000D02*
X62992000Y8001000D01*
%TO.N,Net-(D3-A)*%
X29284744Y13942000D02*
X29600000Y13626744D01*
X29600000Y13626744D02*
X29600000Y13580000D01*
X32692000Y10311000D02*
X34621000Y8382000D01*
X29238000Y13942000D02*
X29284744Y13942000D01*
X22455500Y27813000D02*
X20701000Y26058500D01*
X29600000Y13580000D02*
X32692000Y10488000D01*
X20701000Y22479000D02*
X29238000Y13942000D01*
X32692000Y10488000D02*
X32692000Y10311000D01*
X20701000Y26058500D02*
X20701000Y22479000D01*
%TO.N,Net-(D3-K)*%
X31877000Y12192000D02*
X34734000Y12192000D01*
X28353000Y26670000D02*
X22627000Y26670000D01*
X22627000Y26670000D02*
X21463000Y25506000D01*
X21463000Y22606000D02*
X31877000Y12192000D01*
X21463000Y25506000D02*
X21463000Y22606000D01*
X29611000Y27928000D02*
X28353000Y26670000D01*
%TO.N,Net-(D5-K)*%
X56676000Y22762000D02*
X58264000Y22762000D01*
X75311000Y11811000D02*
X72263000Y11811000D01*
X52070000Y29845000D02*
X52486000Y29429000D01*
X52486000Y29429000D02*
X53880000Y29429000D01*
X69215000Y11811000D02*
X72263000Y11811000D01*
X58264000Y22762000D02*
X69215000Y11811000D01*
%TO.N,/Fuel Gauge/BAT*%
X52596000Y31815000D02*
X52464000Y31815000D01*
X52464000Y31815000D02*
X51435000Y32844000D01*
X51113000Y33166000D02*
X50357636Y33166000D01*
X57280000Y30829000D02*
X57912000Y31461000D01*
X57912000Y31461000D02*
X57987000Y31461000D01*
X48321136Y35202500D02*
X46609000Y35202500D01*
X53617000Y30229000D02*
X52596000Y31250000D01*
X50357636Y33166000D02*
X48321136Y35202500D01*
X53880000Y30229000D02*
X53617000Y30229000D01*
X52596000Y31250000D02*
X52596000Y31815000D01*
%TO.N,/Power Input/D+*%
X13633000Y36310000D02*
X14033000Y35910000D01*
X29436000Y29928000D02*
X28561314Y29928000D01*
X20200314Y33209000D02*
X17018000Y33209000D01*
X14460000Y35310000D02*
X14033000Y35737000D01*
X12756000Y36310000D02*
X13633000Y36310000D01*
X14033000Y35910000D02*
X14390000Y36266000D01*
X25739314Y32750000D02*
X28561314Y29928000D01*
X12756000Y35310000D02*
X14460000Y35310000D01*
X20659314Y32750000D02*
X20200314Y33209000D01*
X25739314Y32750000D02*
X20659314Y32750000D01*
X14033000Y35737000D02*
X14033000Y35910000D01*
%TO.N,/Power Input/D-*%
X17141744Y33909000D02*
X16240744Y34810000D01*
X29436000Y30328000D02*
X28727000Y30328000D01*
X25146000Y33909000D02*
X17141744Y33909000D01*
X16240744Y34810000D02*
X12756000Y34810000D01*
X28727000Y30328000D02*
X25146000Y33909000D01*
X11879000Y34810000D02*
X12756000Y34810000D01*
X12756000Y35810000D02*
X11879000Y35810000D01*
X11879000Y35810000D02*
X11879000Y34810000D01*
D60*
%TO.N,Net-(J1-CC2)*%
X12756000Y37310000D02*
X14990000Y37310000D01*
X14990000Y37310000D02*
X15369000Y36931000D01*
X15369000Y36931000D02*
X15748000Y36552000D01*
D59*
%TO.N,Net-(J1-CC1)*%
X12756000Y34310000D02*
X15244000Y34310000D01*
%TO.N,Net-(U1-nQON)*%
X31135700Y31427500D02*
X31135700Y31923750D01*
X31623000Y32411050D02*
X31623000Y33020000D01*
X31135700Y31923750D02*
X31623000Y32411050D01*
%TO.N,Net-(U3-BTP_INT)*%
X45720000Y57277000D02*
X50292000Y52705000D01*
X50292000Y38989000D02*
X50165000Y38862000D01*
X53848000Y24638000D02*
X51943000Y24638000D01*
X54880000Y25670000D02*
X54864000Y25654000D01*
X54880000Y25670000D02*
X53848000Y24638000D01*
X51943000Y24638000D02*
X50292000Y22987000D01*
X45720000Y59690000D02*
X45720000Y57277000D01*
X50292000Y52705000D02*
X50292000Y38989000D01*
X54880000Y26829000D02*
X54880000Y25670000D01*
%TO.N,Net-(U3-~{PRES{slash}SHDWN})*%
X66535100Y54907700D02*
X54736996Y43109596D01*
X50800000Y31316900D02*
X49968582Y32148318D01*
X53178000Y25527000D02*
X53086000Y25527000D01*
X54736996Y39116008D02*
X54864004Y38989000D01*
X54736996Y43109596D02*
X54736996Y39116008D01*
X49518000Y32174636D02*
X49518000Y32450000D01*
X54480000Y26829000D02*
X53178000Y25527000D01*
X49968582Y32148318D02*
X49544318Y32148318D01*
X49544318Y32148318D02*
X49518000Y32174636D01*
X50800000Y29845000D02*
X50800000Y31316900D01*
%TO.N,+3.3V*%
X70358000Y60198000D02*
X70358000Y57658000D01*
%TO.N,Net-(Q1-G)*%
X33693200Y26670000D02*
X35433000Y26670000D01*
D60*
X40894000Y26670000D02*
X43279032Y29055032D01*
X43279032Y29055032D02*
X43279032Y33006915D01*
X41529000Y53851001D02*
X42134000Y53851001D01*
X35433000Y26670000D02*
X40894000Y26670000D01*
X43561000Y52424001D02*
X43561000Y39334499D01*
X43561000Y39334499D02*
X43652500Y39242999D01*
D59*
X32685700Y27677500D02*
X33693200Y26670000D01*
D60*
X42134000Y53851001D02*
X43561000Y52424001D01*
D59*
%TO.N,Net-(Q2-G)*%
X25067500Y46035000D02*
X26966500Y46035000D01*
X25042500Y48006000D02*
X25042500Y46060000D01*
%TO.N,Net-(Q2-D)*%
X21490000Y45820000D02*
X22225000Y45085000D01*
X18884500Y45820000D02*
X21490000Y45820000D01*
X16764000Y47940500D02*
X18884500Y45820000D01*
X22225000Y45085000D02*
X23192499Y45085000D01*
D60*
%TO.N,/Fuel Gauge/VCOM*%
X25067500Y44135000D02*
X27010456Y44135000D01*
D63*
X21717000Y52070000D02*
X29083000Y52070000D01*
D60*
X28017000Y49834950D02*
X26785025Y48602975D01*
D63*
X23217500Y48006000D02*
X23217500Y50569500D01*
D60*
X53021000Y34694500D02*
X46990000Y40725500D01*
X27010456Y44135000D02*
X28017000Y45141544D01*
X28017000Y51004000D02*
X28017000Y49834950D01*
X46990000Y50546002D02*
X47243998Y50800000D01*
X46990000Y40725500D02*
X46990000Y50546002D01*
X28017000Y47371000D02*
X26785025Y48602975D01*
X53721000Y34694500D02*
X53021000Y34694500D01*
X28017000Y45141544D02*
X28017000Y47371000D01*
D59*
%TO.N,Net-(Q3-G)*%
X18161000Y48895000D02*
X18161000Y48768000D01*
X15113000Y54356000D02*
X16740500Y54356000D01*
X18236108Y48970108D02*
X18161000Y48895000D01*
X20574000Y46632500D02*
X18236108Y48970108D01*
X19046999Y53975000D02*
X17168500Y53975000D01*
D60*
%TO.N,Net-(Q5-G)*%
X39346500Y43180000D02*
X39346500Y44323000D01*
D59*
X32134000Y50546000D02*
X33071000Y50546000D01*
D60*
X39346500Y44323000D02*
X34163000Y49506500D01*
D59*
X33071000Y50546000D02*
X34110000Y49506500D01*
%TO.N,Net-(U1-ILIM_HIZ)*%
X33186000Y30728000D02*
X34306570Y30728000D01*
X34306570Y30728000D02*
X36344570Y32766000D01*
X37568500Y35179000D02*
X36702994Y35179000D01*
X35837500Y35179000D02*
X37568500Y35179000D01*
X36344570Y32766000D02*
X36702988Y32766000D01*
%TO.N,Net-(U1-TS)*%
X37719000Y39219500D02*
X35838500Y39219500D01*
X34378200Y33020000D02*
X35179000Y33020000D01*
X35838000Y37211000D02*
X35838000Y38215500D01*
X32735700Y31377500D02*
X34378200Y33020000D01*
X35837500Y38215000D02*
X35837500Y37211000D01*
X35838000Y38215500D02*
X35838000Y39220000D01*
X35838000Y38215500D02*
X35837500Y38215000D01*
%TO.N,Net-(U1-BATP)*%
X38581000Y33527056D02*
X38581000Y33654050D01*
D60*
X39532500Y33714000D02*
X40997500Y35179000D01*
D59*
X36992944Y31939000D02*
X38581000Y33527056D01*
X34472256Y30328000D02*
X36083256Y31939000D01*
X33211000Y30328000D02*
X34472256Y30328000D01*
X36083256Y31939000D02*
X36992944Y31939000D01*
D60*
X38581000Y33654050D02*
X38640950Y33714000D01*
X38640950Y33714000D02*
X39532500Y33714000D01*
D59*
%TO.N,Net-(U1-PROG)*%
X34683000Y29528000D02*
X35000000Y29210000D01*
X35000000Y29210000D02*
X36933000Y29210000D01*
X36933500Y29210000D02*
X36933000Y29210000D01*
X37568500Y28575000D02*
X36933500Y29210000D01*
X33236000Y29528000D02*
X34683000Y29528000D01*
%TO.N,Net-(U3-PCHG)*%
X35941000Y42926000D02*
X32131000Y46736000D01*
X56480000Y30829000D02*
X56480000Y31510000D01*
X32131000Y46736000D02*
X29868500Y46736000D01*
X56480000Y31510000D02*
X57469000Y32499000D01*
X56388000Y39343950D02*
X56388000Y42291000D01*
X57469000Y38262950D02*
X56388000Y39343950D01*
X57469000Y32499000D02*
X57469000Y38262950D01*
X29868500Y46736000D02*
X28979500Y45847000D01*
%TO.N,Net-(U3-VCC)*%
X54880000Y30829000D02*
X54880000Y31710000D01*
X54300000Y32290000D02*
X53721000Y32869000D01*
X54880000Y31710000D02*
X54300000Y32290000D01*
%TO.N,Net-(U3-PACK)*%
X44727500Y37211000D02*
X47145000Y37211000D01*
X55471000Y32670000D02*
X55471000Y32587000D01*
X55472000Y32588000D02*
X55471000Y32587000D01*
X55471000Y32587000D02*
X55280000Y32396000D01*
X50574000Y33782000D02*
X54359000Y33782000D01*
X55280000Y32396000D02*
X55280000Y30829000D01*
X47145000Y37211000D02*
X50574000Y33782000D01*
X54359000Y33782000D02*
X55471000Y32670000D01*
%TO.N,Net-(U3-DSG)*%
X56769000Y32364000D02*
X56769000Y37846000D01*
D60*
X41171500Y43180000D02*
X41171500Y41148000D01*
D59*
X55680000Y30829000D02*
X55680000Y31275000D01*
X55680000Y31275000D02*
X56769000Y32364000D01*
%TO.N,Net-(U3-CHG)*%
X57977000Y32441000D02*
X57977000Y39686000D01*
X20574000Y44807500D02*
X21274000Y44807500D01*
X56880000Y31344000D02*
X57977000Y32441000D01*
X56880000Y30829000D02*
X56880000Y31344000D01*
X21274000Y44807500D02*
X25233078Y40848422D01*
X57977000Y39686000D02*
X57658000Y40005000D01*
X25233078Y40848422D02*
X33720472Y40848422D01*
%TO.N,Net-(U3-~{DISP})*%
X53109050Y27429000D02*
X49823000Y24142950D01*
X59284000Y13299000D02*
X52984000Y13299000D01*
X53880000Y27429000D02*
X53109050Y27429000D01*
X49823000Y16460000D02*
X52984000Y13299000D01*
X49823000Y24142950D02*
X49823000Y16460000D01*
%TO.N,Net-(U3-TS1)*%
X56880000Y26829000D02*
X56880000Y26217000D01*
X61595000Y25654000D02*
X61722000Y25527000D01*
X56880000Y26217000D02*
X57443000Y25654000D01*
X57443000Y25654000D02*
X61595000Y25654000D01*
%TO.N,Net-(U3-TS2)*%
X56480000Y26829000D02*
X56480000Y25842000D01*
X57368000Y24954000D02*
X59436000Y24954000D01*
X56480000Y25842000D02*
X57368000Y24954000D01*
%TO.N,Net-(U3-PTC)*%
X53880000Y29829000D02*
X53434000Y29829000D01*
X51386116Y31876884D02*
X50805702Y31876884D01*
X50805702Y31876884D02*
X50218000Y32464586D01*
X49683950Y33274000D02*
X46609000Y33274000D01*
X53434000Y29829000D02*
X51386116Y31876884D01*
X50218000Y32464586D02*
X50218000Y32739950D01*
X50218000Y32739950D02*
X49683950Y33274000D01*
%TO.N,/Fuel Gauge/SCL*%
X67818000Y57658000D02*
X54211800Y44051800D01*
X50742852Y27427148D02*
X48768000Y29402000D01*
X67818000Y60198000D02*
X67818000Y57658000D01*
X34709744Y34179000D02*
X35025000Y34494256D01*
X48768000Y29402000D02*
X48768000Y30353000D01*
D60*
X52877138Y39197862D02*
X52832000Y39243000D01*
D59*
X33994000Y34179000D02*
X34709744Y34179000D01*
X36433000Y36179000D02*
X37719000Y37465000D01*
X35025000Y34494256D02*
X35025000Y35863744D01*
X52596912Y28229000D02*
X51795060Y27427148D01*
D60*
X53893138Y39197862D02*
X52877138Y39197862D01*
D59*
X35025000Y35863744D02*
X35340256Y36179000D01*
X35340256Y36179000D02*
X36433000Y36179000D01*
X54211800Y39516523D02*
X53893138Y39197862D01*
X54211800Y44051800D02*
X54211800Y39516523D01*
X31936000Y32121000D02*
X33994000Y34179000D01*
X53880000Y28229000D02*
X52596912Y28229000D01*
X31936000Y31428000D02*
X31936000Y32121000D01*
X51795060Y27427148D02*
X50742852Y27427148D01*
%TO.N,/Fuel Gauge/SDA*%
X53880000Y27829000D02*
X52762598Y27829000D01*
X37719000Y33779000D02*
X34160000Y33779000D01*
X37716000Y33779000D02*
X37592000Y33655000D01*
X51574548Y26640950D02*
X50891050Y26640950D01*
X52762598Y27829000D02*
X51574548Y26640950D01*
X50891050Y26640950D02*
X48006000Y29526000D01*
X32336000Y31955000D02*
X32336000Y31428000D01*
X72898000Y60198000D02*
X72898000Y57658000D01*
X34160000Y33779000D02*
X32336000Y31955000D01*
X37719000Y33779000D02*
X37716000Y33779000D01*
X72898000Y48302200D02*
X58710200Y34114400D01*
X72898000Y57658000D02*
X72898000Y48302200D01*
%TO.N,/Fuel Gauge/SR+*%
X62773000Y27441000D02*
X70809000Y27441000D01*
X61439365Y27429000D02*
X61520364Y27348000D01*
X70809000Y27441000D02*
X74803000Y31435000D01*
X74803000Y31435000D02*
X77000000Y31435000D01*
X57880000Y27429000D02*
X61439365Y27429000D01*
X61520364Y27348000D02*
X62680000Y27348000D01*
X62680000Y27348000D02*
X62773000Y27441000D01*
%TO.N,/Fuel Gauge/SR-*%
X77065500Y33528000D02*
X74996000Y33528000D01*
X61686050Y27748000D02*
X61593050Y27841000D01*
X62485948Y27841000D02*
X62392948Y27748000D01*
X74803000Y33335000D02*
X69309000Y27841000D01*
X62392948Y27748000D02*
X61686050Y27748000D01*
X59154000Y27841000D02*
X58766000Y28229000D01*
X58766000Y28229000D02*
X57880000Y28229000D01*
X61593050Y27841000D02*
X59154000Y27841000D01*
X69309000Y27841000D02*
X62485948Y27841000D01*
%TO.N,Net-(U1-PMID)*%
X29070000Y25924000D02*
X30174000Y27028000D01*
X30174000Y27028000D02*
X30182000Y27028000D01*
D62*
X29070000Y25400000D02*
X27244000Y25400000D01*
D59*
X30182000Y27028000D02*
X30536000Y27381000D01*
X30536000Y27381000D02*
X30536000Y27928000D01*
D62*
X27178000Y25334000D02*
X25019000Y25334000D01*
D59*
X29070000Y25400000D02*
X29070000Y25924000D01*
D62*
X25019000Y25334000D02*
X22860000Y25334000D01*
%TD*%
%TA.AperFunction,Conductor*%
%TO.N,GND*%
G36*
X14365694Y33689498D02*
G01*
X14412187Y33635842D01*
X14422921Y33596304D01*
X14431000Y33517203D01*
X14486185Y33350666D01*
X14578288Y33201344D01*
X14578293Y33201338D01*
X14702337Y33077294D01*
X14702343Y33077289D01*
X14702344Y33077288D01*
X14724698Y33063500D01*
X14851665Y32985186D01*
X15018196Y32930003D01*
X15018197Y32930003D01*
X15018203Y32930001D01*
X15120991Y32919500D01*
X16073918Y32919501D01*
X16142039Y32899499D01*
X16188532Y32845843D01*
X16189023Y32844753D01*
X16190819Y32840719D01*
X16285465Y32676786D01*
X16285466Y32676784D01*
X16412126Y32536114D01*
X16565267Y32424851D01*
X16565267Y32424850D01*
X16591234Y32413289D01*
X16738197Y32347856D01*
X16923354Y32308500D01*
X17112646Y32308500D01*
X17297803Y32347856D01*
X17470730Y32424849D01*
X17470730Y32424850D01*
X17470732Y32424850D01*
X17470732Y32424851D01*
X17623871Y32536112D01*
X17651513Y32566813D01*
X17711958Y32604050D01*
X17745148Y32608500D01*
X19899389Y32608500D01*
X19967510Y32588498D01*
X19988484Y32571595D01*
X20174383Y32385696D01*
X20174404Y32385673D01*
X20290591Y32269486D01*
X20290598Y32269480D01*
X20358731Y32230144D01*
X20358732Y32230143D01*
X20399134Y32206817D01*
X20427529Y32190423D01*
X20580257Y32149499D01*
X20580260Y32149499D01*
X20746089Y32149499D01*
X20746105Y32149500D01*
X23592022Y32149500D01*
X23660143Y32129498D01*
X23706636Y32075842D01*
X23716740Y32005568D01*
X23687246Y31940988D01*
X23685658Y31939190D01*
X23651467Y31901217D01*
X23651465Y31901215D01*
X23556822Y31737287D01*
X23556818Y31737279D01*
X23498325Y31557257D01*
X23478540Y31369000D01*
X23498325Y31180744D01*
X23556818Y31000722D01*
X23559506Y30994686D01*
X23558105Y30994063D01*
X23572994Y30932712D01*
X23549779Y30865618D01*
X23536232Y30849602D01*
X23475287Y30788657D01*
X23383184Y30639335D01*
X23328001Y30472804D01*
X23327999Y30472792D01*
X23317499Y30370018D01*
X23317499Y29319991D01*
X23327999Y29217203D01*
X23383184Y29050666D01*
X23447415Y28946532D01*
X23466152Y28878052D01*
X23444893Y28810314D01*
X23390386Y28764822D01*
X23319937Y28756021D01*
X23255913Y28786704D01*
X23251079Y28791290D01*
X23186662Y28855707D01*
X23186656Y28855712D01*
X23037334Y28947815D01*
X22870803Y29002998D01*
X22870791Y29003000D01*
X22768017Y29013500D01*
X22142990Y29013500D01*
X22040202Y29003000D01*
X21873665Y28947815D01*
X21724343Y28855712D01*
X21724337Y28855707D01*
X21600293Y28731663D01*
X21600288Y28731657D01*
X21508185Y28582335D01*
X21453002Y28415804D01*
X21453000Y28415792D01*
X21442500Y28313018D01*
X21442500Y27701427D01*
X21422498Y27633306D01*
X21405595Y27612332D01*
X20865551Y27072287D01*
X20332286Y26539022D01*
X20332284Y26539020D01*
X20304062Y26510798D01*
X20220483Y26427220D01*
X20220478Y26427214D01*
X20182755Y26361874D01*
X20141425Y26290291D01*
X20141423Y26290286D01*
X20141423Y26290285D01*
X20100499Y26137557D01*
X20100499Y26137555D01*
X20100499Y25969293D01*
X20100500Y25969280D01*
X20100500Y24613925D01*
X20080498Y24545804D01*
X20026842Y24499311D01*
X19956568Y24489207D01*
X19891988Y24518701D01*
X19885405Y24524830D01*
X15454404Y28955831D01*
X15420378Y29018143D01*
X15417499Y29044926D01*
X15417499Y29862010D01*
X15406999Y29964798D01*
X15351814Y30131335D01*
X15288240Y30234404D01*
X15259712Y30280656D01*
X15259711Y30280657D01*
X15259706Y30280663D01*
X15135662Y30404707D01*
X15135656Y30404712D01*
X14986334Y30496815D01*
X14819803Y30551998D01*
X14819791Y30552000D01*
X14717017Y30562500D01*
X14717009Y30562500D01*
X14359500Y30562500D01*
X14291379Y30582502D01*
X14244886Y30636158D01*
X14233500Y30688500D01*
X14233500Y33239056D01*
X14232879Y33241373D01*
X14192577Y33391784D01*
X14192575Y33391787D01*
X14192575Y33391789D01*
X14118264Y33520500D01*
X14101526Y33589496D01*
X14124747Y33656587D01*
X14180554Y33700474D01*
X14227383Y33709500D01*
X14297573Y33709500D01*
X14365694Y33689498D01*
G37*
%TD.AperFunction*%
%TA.AperFunction,Conductor*%
G36*
X40126530Y33283919D02*
G01*
X40183366Y33241373D01*
X40208178Y33174853D01*
X40208499Y33165863D01*
X40208499Y32113991D01*
X40218999Y32011203D01*
X40274184Y31844666D01*
X40370109Y31689147D01*
X40388846Y31620667D01*
X40370109Y31556853D01*
X40274184Y31401335D01*
X40219001Y31234804D01*
X40218999Y31234792D01*
X40208499Y31132018D01*
X40208499Y30081991D01*
X40218999Y29979203D01*
X40274184Y29812666D01*
X40366287Y29663344D01*
X40366292Y29663338D01*
X40490338Y29539292D01*
X40490343Y29539288D01*
X40498644Y29534168D01*
X40546123Y29481383D01*
X40558499Y29426926D01*
X40558499Y29144179D01*
X40538497Y29076058D01*
X40521594Y29055084D01*
X39331915Y27865405D01*
X39269603Y27831379D01*
X39242820Y27828500D01*
X38695846Y27828500D01*
X38627725Y27848502D01*
X38581232Y27902158D01*
X38570499Y27967307D01*
X38577585Y28036669D01*
X38581500Y28074991D01*
X38581499Y29075008D01*
X38579764Y29091989D01*
X38570999Y29177798D01*
X38515814Y29344335D01*
X38434161Y29476715D01*
X38423712Y29493656D01*
X38423711Y29493657D01*
X38423706Y29493663D01*
X38299662Y29617707D01*
X38299656Y29617712D01*
X38150334Y29709815D01*
X37983803Y29764998D01*
X37983791Y29765000D01*
X37881017Y29775500D01*
X37255989Y29775500D01*
X37197360Y29769511D01*
X37151947Y29773152D01*
X37005888Y29812288D01*
X36945265Y29849240D01*
X36914244Y29913100D01*
X36912499Y29933986D01*
X36912499Y30333008D01*
X36910834Y30349303D01*
X36901999Y30435798D01*
X36846814Y30602335D01*
X36783575Y30704862D01*
X36754712Y30751656D01*
X36754711Y30751657D01*
X36754706Y30751663D01*
X36630662Y30875707D01*
X36630656Y30875712D01*
X36481334Y30967815D01*
X36314803Y31022998D01*
X36314794Y31023000D01*
X36307917Y31023702D01*
X36242184Y31050527D01*
X36201388Y31108633D01*
X36198482Y31179570D01*
X36231634Y31238144D01*
X36295087Y31301596D01*
X36357400Y31335621D01*
X36384182Y31338500D01*
X36906153Y31338500D01*
X36906169Y31338499D01*
X36913887Y31338499D01*
X37071998Y31338499D01*
X37072001Y31338499D01*
X37224729Y31379423D01*
X37249252Y31393583D01*
X37274825Y31408347D01*
X37274835Y31408355D01*
X37274848Y31408361D01*
X37361660Y31458480D01*
X37473464Y31570284D01*
X37473464Y31570286D01*
X37483834Y31580655D01*
X37483838Y31580660D01*
X38929773Y33026595D01*
X38992085Y33060621D01*
X39018868Y33063500D01*
X39596564Y33063500D01*
X39596569Y33063500D01*
X39722244Y33088499D01*
X39722250Y33088502D01*
X39722255Y33088503D01*
X39764570Y33106032D01*
X39840627Y33137535D01*
X39850716Y33144276D01*
X39947169Y33208723D01*
X39993405Y33254960D01*
X40055715Y33288983D01*
X40126530Y33283919D01*
G37*
%TD.AperFunction*%
%TA.AperFunction,Conductor*%
G36*
X30663263Y30821730D02*
G01*
X30674007Y30809331D01*
X30689685Y30788657D01*
X30692780Y30784576D01*
X30813354Y30693142D01*
X30813358Y30693139D01*
X30954135Y30637623D01*
X30954134Y30637623D01*
X30982094Y30634266D01*
X31042598Y30627000D01*
X31042601Y30627000D01*
X31228799Y30627000D01*
X31228802Y30627000D01*
X31317264Y30637623D01*
X31458042Y30693139D01*
X31459560Y30694291D01*
X31461194Y30694912D01*
X31465556Y30697364D01*
X31465923Y30696710D01*
X31525923Y30719518D01*
X31595390Y30704862D01*
X31611835Y30694294D01*
X31613358Y30693139D01*
X31754135Y30637623D01*
X31754134Y30637623D01*
X31782094Y30634266D01*
X31842598Y30627000D01*
X31842601Y30627000D01*
X32028799Y30627000D01*
X32028802Y30627000D01*
X32117264Y30637623D01*
X32117264Y30637624D01*
X32120677Y30638033D01*
X32150723Y30638033D01*
X32154135Y30637624D01*
X32154136Y30637623D01*
X32242598Y30627000D01*
X32242601Y30627000D01*
X32242776Y30626979D01*
X32308026Y30598998D01*
X32344968Y30548103D01*
X32360362Y30509066D01*
X32374667Y30472792D01*
X32376415Y30468361D01*
X32385200Y30422136D01*
X32385200Y30420603D01*
X32385200Y30420602D01*
X32385200Y30234398D01*
X32388395Y30207792D01*
X32389001Y30202746D01*
X32381115Y30141505D01*
X32368324Y30109069D01*
X32368322Y30109060D01*
X32366211Y30091477D01*
X32338230Y30026227D01*
X32279414Y29986463D01*
X32241110Y29980500D01*
X32101354Y29980500D01*
X31916199Y29941145D01*
X31743267Y29864150D01*
X31590128Y29752888D01*
X31485325Y29636492D01*
X31424879Y29599253D01*
X31353895Y29600605D01*
X31298053Y29636492D01*
X31241871Y29698888D01*
X31088732Y29810150D01*
X31088732Y29810151D01*
X30963145Y29866066D01*
X30915803Y29887144D01*
X30915801Y29887145D01*
X30915800Y29887145D01*
X30730646Y29926500D01*
X30541354Y29926500D01*
X30541352Y29926500D01*
X30388396Y29893989D01*
X30317605Y29899392D01*
X30260973Y29942209D01*
X30236480Y30008846D01*
X30236200Y30017236D01*
X30236200Y30020599D01*
X30236200Y30020602D01*
X30225577Y30109064D01*
X30225576Y30109065D01*
X30225167Y30112477D01*
X30225167Y30142523D01*
X30227789Y30164356D01*
X30236200Y30234398D01*
X30236200Y30420602D01*
X30227649Y30491807D01*
X30239386Y30561824D01*
X30276614Y30607224D01*
X30378622Y30684578D01*
X30470061Y30805158D01*
X30470062Y30805162D01*
X30473218Y30809323D01*
X30530317Y30851516D01*
X30601163Y30856141D01*
X30663263Y30821730D01*
G37*
%TD.AperFunction*%
%TA.AperFunction,Conductor*%
G36*
X32880525Y49533275D02*
G01*
X32937364Y49490732D01*
X32962178Y49424213D01*
X32962500Y49415218D01*
X32962500Y49193991D01*
X32973000Y49091203D01*
X33028185Y48924666D01*
X33120288Y48775344D01*
X33120293Y48775338D01*
X33244337Y48651294D01*
X33244343Y48651289D01*
X33244344Y48651288D01*
X33301563Y48615996D01*
X33393665Y48559186D01*
X33560196Y48504003D01*
X33560197Y48504003D01*
X33560203Y48504001D01*
X33662991Y48493500D01*
X34203863Y48493501D01*
X34271984Y48473499D01*
X34292958Y48456596D01*
X38482476Y44267078D01*
X38516502Y44204766D01*
X38511437Y44133951D01*
X38495092Y44104932D01*
X38495141Y44104902D01*
X38494387Y44103682D01*
X38492229Y44099848D01*
X38491294Y44098666D01*
X38399185Y43949335D01*
X38344002Y43782804D01*
X38344000Y43782792D01*
X38333500Y43680018D01*
X38333500Y42679991D01*
X38344000Y42577203D01*
X38399185Y42410666D01*
X38491288Y42261344D01*
X38491293Y42261338D01*
X38615337Y42137294D01*
X38615341Y42137291D01*
X38615344Y42137288D01*
X38636145Y42124458D01*
X38764665Y42045186D01*
X38931196Y41990003D01*
X38931197Y41990003D01*
X38931203Y41990001D01*
X39033991Y41979500D01*
X39659008Y41979501D01*
X39659009Y41979501D01*
X39761797Y41990001D01*
X39928334Y42045186D01*
X39960224Y42064856D01*
X40077656Y42137288D01*
X40082219Y42141851D01*
X40169905Y42229536D01*
X40232217Y42263562D01*
X40303032Y42258497D01*
X40348095Y42229536D01*
X40440339Y42137292D01*
X40440341Y42137291D01*
X40440344Y42137288D01*
X40461147Y42124457D01*
X40508624Y42071672D01*
X40521000Y42017216D01*
X40521000Y41819690D01*
X40500998Y41751569D01*
X40488636Y41735380D01*
X40438966Y41680217D01*
X40438965Y41680215D01*
X40344322Y41516287D01*
X40344318Y41516279D01*
X40285825Y41336257D01*
X40266040Y41148000D01*
X40285825Y40959744D01*
X40344318Y40779722D01*
X40344322Y40779714D01*
X40438965Y40615786D01*
X40438966Y40615784D01*
X40565626Y40475114D01*
X40718767Y40363851D01*
X40718767Y40363850D01*
X40762228Y40344500D01*
X40891697Y40286856D01*
X41076854Y40247500D01*
X41266146Y40247500D01*
X41451303Y40286856D01*
X41624230Y40363849D01*
X41624230Y40363850D01*
X41624232Y40363850D01*
X41624232Y40363851D01*
X41777371Y40475112D01*
X41781897Y40480138D01*
X41904033Y40615784D01*
X41904034Y40615786D01*
X41998679Y40779716D01*
X41998681Y40779722D01*
X42006167Y40802760D01*
X42046241Y40861366D01*
X42111637Y40889003D01*
X42181594Y40876896D01*
X42233900Y40828890D01*
X42252000Y40763824D01*
X42252000Y39383591D01*
X42242409Y39335375D01*
X42230685Y39307069D01*
X42197000Y39225747D01*
X42196999Y39225746D01*
X42188643Y39183738D01*
X42176661Y39123498D01*
X42172000Y39100068D01*
X42172000Y38306559D01*
X42151998Y38238438D01*
X42135095Y38217464D01*
X42047293Y38129663D01*
X42047288Y38129657D01*
X41955185Y37980335D01*
X41900002Y37813804D01*
X41900000Y37813792D01*
X41889500Y37711018D01*
X41889500Y36710991D01*
X41900000Y36608203D01*
X41955185Y36441666D01*
X42000006Y36369000D01*
X42034045Y36313814D01*
X42038739Y36306205D01*
X42057476Y36237726D01*
X42036217Y36169987D01*
X42020596Y36150965D01*
X41999098Y36129466D01*
X41936786Y36095439D01*
X41865970Y36100502D01*
X41820905Y36129464D01*
X41728662Y36221707D01*
X41728656Y36221712D01*
X41579334Y36313815D01*
X41412803Y36368998D01*
X41412791Y36369000D01*
X41310017Y36379500D01*
X40684990Y36379500D01*
X40582202Y36369000D01*
X40415665Y36313815D01*
X40266343Y36221712D01*
X40266337Y36221707D01*
X40142293Y36097663D01*
X40142288Y36097657D01*
X40050185Y35948335D01*
X39995002Y35781804D01*
X39995000Y35781792D01*
X39984500Y35679018D01*
X39984500Y35138138D01*
X39964498Y35070017D01*
X39947596Y35049043D01*
X39299959Y34401405D01*
X39237646Y34367380D01*
X39210863Y34364500D01*
X38675337Y34364500D01*
X38607216Y34384502D01*
X38560723Y34438158D01*
X38550619Y34508432D01*
X38555733Y34530133D01*
X38570997Y34576197D01*
X38570996Y34576197D01*
X38570999Y34576203D01*
X38581500Y34678991D01*
X38581499Y35679008D01*
X38570999Y35781797D01*
X38570159Y35784334D01*
X38515814Y35948335D01*
X38450659Y36053968D01*
X38423712Y36097656D01*
X38423711Y36097657D01*
X38423706Y36097663D01*
X38299662Y36221707D01*
X38299656Y36221712D01*
X38150335Y36313814D01*
X37997859Y36364340D01*
X37939488Y36404754D01*
X37912233Y36470311D01*
X37924747Y36540196D01*
X37973057Y36592221D01*
X37992777Y36601157D01*
X37992771Y36601171D01*
X37994949Y36602142D01*
X37998569Y36603781D01*
X37998785Y36603853D01*
X37998803Y36603856D01*
X38171730Y36680849D01*
X38171730Y36680850D01*
X38171732Y36680850D01*
X38171732Y36680851D01*
X38324871Y36792112D01*
X38451533Y36932784D01*
X38546179Y37096716D01*
X38596389Y37251244D01*
X38604674Y37276744D01*
X38610063Y37328019D01*
X38624460Y37465000D01*
X38604674Y37653256D01*
X38602963Y37658523D01*
X38546181Y37833279D01*
X38546177Y37833287D01*
X38516229Y37885158D01*
X38461279Y37980335D01*
X38451535Y37997213D01*
X38451534Y37997214D01*
X38451533Y37997216D01*
X38398303Y38056334D01*
X38367586Y38120342D01*
X38376351Y38190795D01*
X38421814Y38245326D01*
X38452302Y38260247D01*
X38488334Y38272186D01*
X38637656Y38364288D01*
X38761712Y38488344D01*
X38853814Y38637666D01*
X38908999Y38804203D01*
X38919500Y38906991D01*
X38919499Y39532008D01*
X38919031Y39536585D01*
X38908999Y39634798D01*
X38853814Y39801335D01*
X38785274Y39912456D01*
X38761712Y39950656D01*
X38761711Y39950657D01*
X38761706Y39950663D01*
X38637662Y40074707D01*
X38637656Y40074712D01*
X38488334Y40166815D01*
X38321803Y40221998D01*
X38321791Y40222000D01*
X38219017Y40232500D01*
X37218990Y40232500D01*
X37116202Y40222000D01*
X36949665Y40166815D01*
X36800343Y40074712D01*
X36800337Y40074707D01*
X36792095Y40066464D01*
X36729783Y40032438D01*
X36658968Y40037503D01*
X36613905Y40066464D01*
X36605662Y40074707D01*
X36605656Y40074712D01*
X36456334Y40166815D01*
X36289803Y40221998D01*
X36289791Y40222000D01*
X36187017Y40232500D01*
X35186990Y40232500D01*
X35084202Y40222000D01*
X34917665Y40166815D01*
X34768343Y40074712D01*
X34669978Y39976347D01*
X34607666Y39942322D01*
X34536850Y39947388D01*
X34480014Y39989935D01*
X34461050Y40026506D01*
X34460841Y40027150D01*
X34433179Y40112284D01*
X34431279Y40115575D01*
X34414961Y40143840D01*
X34398223Y40212836D01*
X34421444Y40279927D01*
X34430436Y40291143D01*
X34453005Y40316206D01*
X34547651Y40480138D01*
X34606146Y40660166D01*
X34625932Y40848422D01*
X34607862Y41020353D01*
X34606146Y41036679D01*
X34547653Y41216701D01*
X34547649Y41216709D01*
X34453006Y41380637D01*
X34453005Y41380639D01*
X34326345Y41521309D01*
X34173204Y41632572D01*
X34173204Y41632573D01*
X34047617Y41688488D01*
X34000275Y41709566D01*
X34000273Y41709567D01*
X34000272Y41709567D01*
X33815118Y41748922D01*
X33625826Y41748922D01*
X33440671Y41709567D01*
X33267739Y41632573D01*
X33267739Y41632572D01*
X33114603Y41521313D01*
X33110071Y41516279D01*
X33086958Y41490610D01*
X33026514Y41453372D01*
X32993324Y41448922D01*
X25534004Y41448922D01*
X25465883Y41468924D01*
X25444909Y41485827D01*
X24164532Y42766204D01*
X22861329Y44069406D01*
X22827305Y44131717D01*
X22832369Y44202532D01*
X22874916Y44259368D01*
X22941436Y44284179D01*
X22950425Y44284500D01*
X23703500Y44284500D01*
X23771621Y44264498D01*
X23818114Y44210842D01*
X23829500Y44158500D01*
X23829500Y43919307D01*
X23832401Y43882433D01*
X23832401Y43882432D01*
X23878257Y43724599D01*
X23961917Y43583137D01*
X23961923Y43583130D01*
X24078129Y43466924D01*
X24078136Y43466918D01*
X24219598Y43383258D01*
X24219599Y43383258D01*
X24219602Y43383256D01*
X24377431Y43337402D01*
X24414306Y43334500D01*
X24414307Y43334500D01*
X25720693Y43334500D01*
X25720694Y43334500D01*
X25757569Y43337402D01*
X25915398Y43383256D01*
X26021973Y43446284D01*
X26056923Y43466953D01*
X26121062Y43484500D01*
X27074520Y43484500D01*
X27074525Y43484500D01*
X27200200Y43509499D01*
X27318583Y43558535D01*
X27337659Y43571281D01*
X27425125Y43629723D01*
X28425274Y44629875D01*
X28487585Y44663898D01*
X28554002Y44660382D01*
X28564203Y44657001D01*
X28666991Y44646500D01*
X29292008Y44646501D01*
X29292009Y44646501D01*
X29394797Y44657001D01*
X29561334Y44712186D01*
X29710656Y44804288D01*
X29834712Y44928344D01*
X29926814Y45077666D01*
X29981999Y45244203D01*
X29992500Y45346991D01*
X29992499Y45958575D01*
X30012501Y46026695D01*
X30029404Y46047670D01*
X30080331Y46098596D01*
X30142644Y46132621D01*
X30169426Y46135500D01*
X31830075Y46135500D01*
X31898196Y46115498D01*
X31919169Y46098596D01*
X34998636Y43019128D01*
X35032661Y42956818D01*
X35035540Y42930035D01*
X35035540Y42926002D01*
X35055325Y42737744D01*
X35113818Y42557722D01*
X35113822Y42557714D01*
X35208465Y42393786D01*
X35208466Y42393784D01*
X35335126Y42253114D01*
X35488267Y42141851D01*
X35488267Y42141850D01*
X35527330Y42124458D01*
X35661197Y42064856D01*
X35846354Y42025500D01*
X36035646Y42025500D01*
X36220803Y42064856D01*
X36393730Y42141849D01*
X36393730Y42141850D01*
X36393732Y42141850D01*
X36393732Y42141851D01*
X36546871Y42253112D01*
X36558956Y42266533D01*
X36673533Y42393784D01*
X36673534Y42393786D01*
X36722880Y42479256D01*
X36768179Y42557716D01*
X36826674Y42737744D01*
X36846460Y42926000D01*
X36827908Y43102519D01*
X36826674Y43114257D01*
X36768181Y43294279D01*
X36768177Y43294287D01*
X36744980Y43334465D01*
X36716810Y43383258D01*
X36673534Y43458215D01*
X36673533Y43458217D01*
X36546873Y43598887D01*
X36393732Y43710150D01*
X36393732Y43710151D01*
X36249296Y43774458D01*
X36220803Y43787144D01*
X36220801Y43787145D01*
X36220800Y43787145D01*
X36035646Y43826500D01*
X35941926Y43826500D01*
X35873805Y43846502D01*
X35852831Y43863405D01*
X32618708Y47097527D01*
X32618696Y47097541D01*
X32499723Y47216514D01*
X32499719Y47216517D01*
X32499716Y47216520D01*
X32428091Y47257872D01*
X32412903Y47266641D01*
X32412903Y47266642D01*
X32412901Y47266642D01*
X32398010Y47275239D01*
X32362788Y47295576D01*
X32362785Y47295577D01*
X32210057Y47336501D01*
X32051943Y47336501D01*
X32044225Y47336501D01*
X32044209Y47336500D01*
X29955291Y47336500D01*
X29955275Y47336501D01*
X29947557Y47336501D01*
X29789443Y47336501D01*
X29718461Y47317481D01*
X29636713Y47295577D01*
X29586595Y47266640D01*
X29499787Y47216523D01*
X29499782Y47216519D01*
X29463488Y47180224D01*
X29387980Y47104716D01*
X29367669Y47084405D01*
X29305357Y47050379D01*
X29278574Y47047500D01*
X28793500Y47047500D01*
X28725379Y47067502D01*
X28678886Y47121158D01*
X28667500Y47173500D01*
X28667500Y47435065D01*
X28667500Y47435069D01*
X28642501Y47560744D01*
X28642499Y47560748D01*
X28642497Y47560756D01*
X28593465Y47679127D01*
X28591229Y47682473D01*
X28586179Y47690032D01*
X28522277Y47785669D01*
X27794064Y48513882D01*
X27760041Y48576192D01*
X27765105Y48647007D01*
X27794063Y48692069D01*
X27905129Y48803135D01*
X27926089Y48820026D01*
X28024032Y48882969D01*
X28118254Y48991706D01*
X28129448Y49016219D01*
X28154962Y49052968D01*
X28522277Y49420281D01*
X28539304Y49445765D01*
X28547814Y49458500D01*
X28602290Y49504029D01*
X28652580Y49514500D01*
X28886500Y49514500D01*
X28954621Y49494498D01*
X29001114Y49440842D01*
X29012500Y49388500D01*
X29012500Y49265006D01*
X29017644Y49193064D01*
X29017646Y49193056D01*
X29024927Y49168259D01*
X29058181Y49055008D01*
X29135969Y48933968D01*
X29244706Y48839746D01*
X29375584Y48779976D01*
X29518000Y48759500D01*
X29518003Y48759500D01*
X30117994Y48759500D01*
X30118000Y48759500D01*
X30189940Y48764645D01*
X30327992Y48805181D01*
X30449032Y48882969D01*
X30543254Y48991706D01*
X30603024Y49122584D01*
X30623500Y49265000D01*
X30623500Y49353262D01*
X30643502Y49421383D01*
X30697158Y49467876D01*
X30767432Y49477980D01*
X30825007Y49454131D01*
X30870221Y49420283D01*
X30875670Y49416204D01*
X30875674Y49416202D01*
X30918630Y49400181D01*
X31010515Y49365910D01*
X31010518Y49365909D01*
X31070128Y49359500D01*
X32435873Y49359501D01*
X32495484Y49365909D01*
X32623482Y49413649D01*
X32630327Y49416202D01*
X32630327Y49416203D01*
X32630332Y49416204D01*
X32745547Y49502454D01*
X32745552Y49502462D01*
X32747399Y49504307D01*
X32749704Y49505566D01*
X32752762Y49507855D01*
X32753090Y49507416D01*
X32809709Y49538336D01*
X32880525Y49533275D01*
G37*
%TD.AperFunction*%
%TA.AperFunction,Conductor*%
G36*
X17850111Y39969709D02*
G01*
X17853211Y39968425D01*
X17853213Y39968425D01*
X17853216Y39968423D01*
X18005943Y39927500D01*
X19694364Y39927500D01*
X19762485Y39907498D01*
X19783459Y39890595D01*
X24949459Y34724595D01*
X24983485Y34662283D01*
X24978420Y34591468D01*
X24935873Y34534632D01*
X24869353Y34509821D01*
X24860364Y34509500D01*
X17442669Y34509500D01*
X17374548Y34529502D01*
X17353574Y34546405D01*
X16728452Y35171527D01*
X16728440Y35171541D01*
X16609466Y35290515D01*
X16609456Y35290523D01*
X16510123Y35347872D01*
X16472768Y35369439D01*
X16423775Y35420822D01*
X16410339Y35490535D01*
X16436725Y35556446D01*
X16494558Y35597628D01*
X16495963Y35598105D01*
X16517334Y35605186D01*
X16666656Y35697288D01*
X16790712Y35821344D01*
X16882814Y35970666D01*
X16937999Y36137203D01*
X16948500Y36239991D01*
X16948499Y36865008D01*
X16941575Y36932786D01*
X16937999Y36967798D01*
X16882814Y37134335D01*
X16810704Y37251244D01*
X16790712Y37283656D01*
X16790711Y37283657D01*
X16790706Y37283663D01*
X16666662Y37407707D01*
X16666656Y37407712D01*
X16517334Y37499815D01*
X16350803Y37554998D01*
X16350791Y37555000D01*
X16248017Y37565500D01*
X16248009Y37565500D01*
X15706636Y37565500D01*
X15638515Y37585502D01*
X15617545Y37602401D01*
X15404669Y37815277D01*
X15380386Y37831502D01*
X15298127Y37886465D01*
X15179746Y37935500D01*
X15179745Y37935501D01*
X15137852Y37943834D01*
X15054069Y37960500D01*
X15054067Y37960500D01*
X14359500Y37960500D01*
X14291379Y37980502D01*
X14244886Y38034158D01*
X14233500Y38086500D01*
X14233500Y38163044D01*
X14253502Y38231165D01*
X14270411Y38252146D01*
X14324832Y38306559D01*
X15203885Y39185492D01*
X15610852Y39592403D01*
X15673166Y39626423D01*
X15699941Y39629301D01*
X16323809Y39629301D01*
X16426597Y39639801D01*
X16593134Y39694986D01*
X16594446Y39695795D01*
X16742456Y39787088D01*
X16866512Y39911144D01*
X16871633Y39919448D01*
X16924419Y39966925D01*
X16978874Y39979300D01*
X17801894Y39979300D01*
X17850111Y39969709D01*
G37*
%TD.AperFunction*%
%TA.AperFunction,Conductor*%
G36*
X86037621Y65755498D02*
G01*
X86084114Y65701842D01*
X86095500Y65649500D01*
X86095500Y5470500D01*
X86075498Y5402379D01*
X86021842Y5355886D01*
X85969500Y5344500D01*
X5470500Y5344500D01*
X5402379Y5364502D01*
X5355886Y5418158D01*
X5344500Y5470500D01*
X5344500Y6731004D01*
X5725659Y6731004D01*
X5725659Y6730997D01*
X5744974Y6534876D01*
X5744974Y6534874D01*
X5802186Y6346272D01*
X5895090Y6172462D01*
X6020117Y6020117D01*
X6172462Y5895090D01*
X6346273Y5802186D01*
X6534868Y5744976D01*
X6534872Y5744976D01*
X6534874Y5744975D01*
X6730997Y5725659D01*
X6731000Y5725659D01*
X6731003Y5725659D01*
X6927124Y5744975D01*
X6927126Y5744975D01*
X6927127Y5744976D01*
X6927132Y5744976D01*
X7115727Y5802186D01*
X7289538Y5895090D01*
X7441883Y6020117D01*
X7566910Y6172462D01*
X7659814Y6346273D01*
X7717024Y6534868D01*
X7736341Y6731000D01*
X7724571Y6850500D01*
X7717025Y6927125D01*
X7717025Y6927127D01*
X7717024Y6927130D01*
X7717024Y6927132D01*
X7659814Y7115727D01*
X7566910Y7289538D01*
X7441883Y7441883D01*
X7289538Y7566910D01*
X7237764Y7594584D01*
X7115728Y7659814D01*
X6927125Y7717026D01*
X6731003Y7736341D01*
X6730997Y7736341D01*
X6534875Y7717026D01*
X6534873Y7717026D01*
X6346271Y7659814D01*
X6172461Y7566910D01*
X6020117Y7441883D01*
X5895090Y7289539D01*
X5802186Y7115729D01*
X5744974Y6927127D01*
X5744974Y6927125D01*
X5725659Y6731004D01*
X5344500Y6731004D01*
X5344500Y30515001D01*
X11809552Y30515001D01*
X11809553Y30515000D01*
X12552447Y30515000D01*
X12552447Y30515001D01*
X12181001Y30886447D01*
X12180999Y30886447D01*
X11809552Y30515001D01*
X5344500Y30515001D01*
X5344500Y31965000D01*
X11809552Y31965000D01*
X12180999Y31593553D01*
X12181001Y31593553D01*
X12552447Y31965000D01*
X11809552Y31965000D01*
X5344500Y31965000D01*
X5344500Y39155001D01*
X11809552Y39155001D01*
X11809553Y39155000D01*
X12552447Y39155000D01*
X12552447Y39155001D01*
X12181001Y39526447D01*
X12180999Y39526447D01*
X11809552Y39155001D01*
X5344500Y39155001D01*
X5344500Y39951409D01*
X10931000Y39951409D01*
X10931000Y39808592D01*
X10958861Y39668525D01*
X10958863Y39668520D01*
X11013513Y39536585D01*
X11092853Y39417844D01*
X11092854Y39417842D01*
X11193840Y39316855D01*
X11193842Y39316854D01*
X11236078Y39288633D01*
X11540982Y39593537D01*
X11591504Y39580000D01*
X12770496Y39580000D01*
X12821015Y39593537D01*
X13125919Y39288633D01*
X13125920Y39288633D01*
X13168159Y39316855D01*
X13269145Y39417842D01*
X13269146Y39417844D01*
X13348486Y39536585D01*
X13403136Y39668520D01*
X13403138Y39668525D01*
X13430999Y39808592D01*
X13431000Y39808596D01*
X13431000Y39951405D01*
X13430999Y39951409D01*
X13403138Y40091476D01*
X13403136Y40091481D01*
X13348486Y40223416D01*
X13269146Y40342157D01*
X13269145Y40342159D01*
X13168159Y40443146D01*
X13168157Y40443147D01*
X13125920Y40471369D01*
X12821015Y40166464D01*
X12770496Y40180000D01*
X11591504Y40180000D01*
X11540984Y40166464D01*
X11236079Y40471369D01*
X11193839Y40443145D01*
X11092854Y40342159D01*
X11092853Y40342157D01*
X11013513Y40223416D01*
X10958863Y40091481D01*
X10958861Y40091476D01*
X10931000Y39951409D01*
X5344500Y39951409D01*
X5344500Y40605000D01*
X11809552Y40605000D01*
X12180999Y40233553D01*
X12181001Y40233553D01*
X12552447Y40605000D01*
X11809552Y40605000D01*
X5344500Y40605000D01*
X5344500Y47257879D01*
X6969500Y47257879D01*
X6969500Y43162136D01*
X6969502Y43162115D01*
X6975908Y43102520D01*
X6975908Y43102519D01*
X7026201Y42967674D01*
X7026203Y42967671D01*
X7026204Y42967669D01*
X7034327Y42956818D01*
X7112453Y42852454D01*
X7151511Y42823216D01*
X7227669Y42766204D01*
X7227671Y42766204D01*
X7227673Y42766202D01*
X7288030Y42743691D01*
X7362514Y42715910D01*
X7362517Y42715909D01*
X7422127Y42709500D01*
X11517872Y42709501D01*
X11577483Y42715909D01*
X11712331Y42766204D01*
X11827546Y42852454D01*
X11913796Y42967669D01*
X11964091Y43102517D01*
X11970500Y43162127D01*
X11970499Y43774459D01*
X11990501Y43842579D01*
X12044157Y43889072D01*
X12114430Y43899176D01*
X12136132Y43894062D01*
X12286596Y43844203D01*
X12286597Y43844203D01*
X12286603Y43844201D01*
X12389391Y43833700D01*
X13014408Y43833701D01*
X13014409Y43833701D01*
X13117197Y43844201D01*
X13283734Y43899386D01*
X13433056Y43991488D01*
X13447345Y44005777D01*
X13525305Y44083736D01*
X13587617Y44117762D01*
X13658432Y44112697D01*
X13703495Y44083736D01*
X13795737Y43991494D01*
X13795743Y43991489D01*
X13795744Y43991488D01*
X13826135Y43972743D01*
X13945065Y43899386D01*
X14111596Y43844203D01*
X14111597Y43844203D01*
X14111603Y43844201D01*
X14214391Y43833700D01*
X14825939Y43833701D01*
X14894060Y43813699D01*
X14915042Y43796789D01*
X15259985Y43451790D01*
X15260068Y43451696D01*
X15265479Y43446285D01*
X15265480Y43446284D01*
X15328336Y43383428D01*
X15328341Y43383420D01*
X15328343Y43383421D01*
X15377256Y43334500D01*
X15377302Y43334465D01*
X15377745Y43334214D01*
X15449658Y43292696D01*
X15449656Y43292694D01*
X15449668Y43292690D01*
X15468260Y43281954D01*
X15514199Y43255424D01*
X15514212Y43255419D01*
X15514787Y43255270D01*
X15550847Y43245608D01*
X15586609Y43236025D01*
X15586619Y43236023D01*
X15666893Y43214506D01*
X15666894Y43214506D01*
X15666938Y43214500D01*
X15739869Y43214500D01*
X15825008Y43214493D01*
X15825010Y43214494D01*
X15833236Y43214493D01*
X15833357Y43214500D01*
X19127146Y43214500D01*
X19195267Y43194498D01*
X19216224Y43177613D01*
X19420450Y42973457D01*
X19587887Y42806077D01*
X19587886Y42806077D01*
X19587902Y42806062D01*
X19646284Y42747680D01*
X19646288Y42747678D01*
X19646359Y42747623D01*
X19646363Y42747621D01*
X19646366Y42747618D01*
X19712167Y42709643D01*
X19783216Y42668623D01*
X19783218Y42668623D01*
X19783247Y42668606D01*
X19783279Y42668593D01*
X19783309Y42668585D01*
X19783311Y42668584D01*
X19860286Y42647973D01*
X19935943Y42627700D01*
X19935953Y42627700D01*
X19936033Y42627690D01*
X19936045Y42627686D01*
X20018017Y42627700D01*
X20018032Y42627700D01*
X20653062Y42627700D01*
X20721183Y42607698D01*
X20742159Y42590794D01*
X21425505Y41907409D01*
X23952589Y39380179D01*
X23952627Y39380137D01*
X23957479Y39375285D01*
X23957480Y39375284D01*
X24025695Y39307069D01*
X24056127Y39276636D01*
X24069409Y39263353D01*
X24069730Y39263114D01*
X24072492Y39261628D01*
X24143123Y39220849D01*
X24143125Y39220849D01*
X24204392Y39185473D01*
X24206248Y39184358D01*
X24206260Y39184353D01*
X24208770Y39183738D01*
X24277067Y39165439D01*
X24277070Y39165439D01*
X24277079Y39165436D01*
X24358925Y39143502D01*
X24358927Y39143502D01*
X24358934Y39143500D01*
X24437982Y39143500D01*
X24517040Y39143498D01*
X24517043Y39143500D01*
X24525803Y39143499D01*
X24525832Y39143500D01*
X32878852Y39143500D01*
X32946973Y39123498D01*
X32972484Y39101814D01*
X33000127Y39071114D01*
X33000131Y39071110D01*
X33153267Y38959851D01*
X33153267Y38959850D01*
X33180543Y38947706D01*
X33326197Y38882856D01*
X33511354Y38843500D01*
X33700646Y38843500D01*
X33885803Y38882856D01*
X34058730Y38959849D01*
X34058730Y38959850D01*
X34058732Y38959850D01*
X34058732Y38959851D01*
X34211871Y39071112D01*
X34266863Y39132188D01*
X34327309Y39169428D01*
X34398292Y39168077D01*
X34457277Y39128564D01*
X34485536Y39063433D01*
X34486500Y39047879D01*
X34486500Y38906991D01*
X34497000Y38804203D01*
X34552185Y38637666D01*
X34585882Y38583036D01*
X34604619Y38514557D01*
X34583360Y38446818D01*
X34528853Y38401326D01*
X34458404Y38392525D01*
X34439013Y38397283D01*
X34427802Y38400998D01*
X34427797Y38400999D01*
X34427795Y38401000D01*
X34427791Y38401000D01*
X34325017Y38411500D01*
X33699990Y38411500D01*
X33597202Y38401000D01*
X33430665Y38345815D01*
X33281343Y38253712D01*
X33281337Y38253707D01*
X33157293Y38129663D01*
X33157288Y38129657D01*
X33065185Y37980335D01*
X33010002Y37813804D01*
X33010000Y37813792D01*
X32999500Y37711018D01*
X32999500Y36710991D01*
X33010000Y36608203D01*
X33065185Y36441666D01*
X33157288Y36292344D01*
X33157293Y36292338D01*
X33165536Y36284095D01*
X33199562Y36221783D01*
X33194497Y36150968D01*
X33165536Y36105905D01*
X33157293Y36097663D01*
X33157288Y36097657D01*
X33065188Y35948338D01*
X33065186Y35948334D01*
X33037858Y35865865D01*
X32997446Y35807496D01*
X32931889Y35780240D01*
X32918255Y35779500D01*
X32217792Y35779500D01*
X32217776Y35779501D01*
X32210058Y35779501D01*
X32051943Y35779501D01*
X32051939Y35779501D01*
X31899216Y35738578D01*
X31899213Y35738577D01*
X31762287Y35659523D01*
X31762281Y35659518D01*
X31659210Y35556446D01*
X31457167Y35354404D01*
X31394857Y35320380D01*
X31368074Y35317500D01*
X31274354Y35317500D01*
X31089199Y35278145D01*
X30916267Y35201151D01*
X30916267Y35201150D01*
X30763126Y35089887D01*
X30636466Y34949217D01*
X30636465Y34949215D01*
X30541822Y34785287D01*
X30541819Y34785282D01*
X30508119Y34681563D01*
X30468045Y34622958D01*
X30402648Y34595321D01*
X30388286Y34594500D01*
X29446990Y34594500D01*
X29344202Y34584000D01*
X29177665Y34528815D01*
X29022147Y34432890D01*
X28953667Y34414153D01*
X28889853Y34432890D01*
X28734334Y34528815D01*
X28567803Y34583998D01*
X28567791Y34584000D01*
X28465017Y34594500D01*
X27414990Y34594500D01*
X27312202Y34584000D01*
X27145667Y34528815D01*
X27145663Y34528813D01*
X27131165Y34519871D01*
X27062685Y34501136D01*
X26994947Y34522398D01*
X26975927Y34538019D01*
X20914728Y40599218D01*
X20880702Y40661530D01*
X20880244Y40663732D01*
X20869501Y40717744D01*
X20820465Y40836127D01*
X20749277Y40942669D01*
X20749276Y40942670D01*
X20749273Y40942674D01*
X20556873Y41135074D01*
X20556869Y41135077D01*
X20450327Y41206265D01*
X20331946Y41255300D01*
X20331945Y41255301D01*
X20290052Y41263634D01*
X20206269Y41280300D01*
X20206267Y41280300D01*
X16978874Y41280300D01*
X16910753Y41300302D01*
X16871633Y41340153D01*
X16866511Y41348457D01*
X16866506Y41348463D01*
X16742462Y41472507D01*
X16742456Y41472512D01*
X16593134Y41564615D01*
X16426603Y41619798D01*
X16426591Y41619800D01*
X16323817Y41630300D01*
X15273790Y41630300D01*
X15171002Y41619800D01*
X15004465Y41564615D01*
X14855143Y41472512D01*
X14855137Y41472507D01*
X14731093Y41348463D01*
X14731088Y41348457D01*
X14638985Y41199135D01*
X14583802Y41032604D01*
X14583800Y41032592D01*
X14573300Y40929818D01*
X14573300Y40329791D01*
X14574301Y40320000D01*
X14561324Y40250200D01*
X14538042Y40218095D01*
X13269780Y38950009D01*
X13269694Y38949932D01*
X13203994Y38884231D01*
X13203989Y38884225D01*
X13152489Y38832733D01*
X13147159Y38823499D01*
X13095776Y38774506D01*
X13038040Y38760500D01*
X12133135Y38760500D01*
X12133114Y38760498D01*
X12073519Y38754092D01*
X12073518Y38754092D01*
X11978337Y38718592D01*
X11907521Y38713528D01*
X11871306Y38727529D01*
X11810501Y38762635D01*
X11810498Y38762636D01*
X11725169Y38785500D01*
X11636831Y38785500D01*
X11551502Y38762636D01*
X11551501Y38762636D01*
X11551499Y38762635D01*
X11474999Y38718468D01*
X11474991Y38718462D01*
X11412538Y38656009D01*
X11412532Y38656001D01*
X11368365Y38579501D01*
X11368364Y38579499D01*
X11368364Y38579498D01*
X11345500Y38494169D01*
X11345500Y38405831D01*
X11361582Y38345814D01*
X11368365Y38320500D01*
X11376414Y38306559D01*
X11412533Y38243998D01*
X11412535Y38243996D01*
X11412538Y38243992D01*
X11456321Y38200209D01*
X11490347Y38137897D01*
X11485282Y38067082D01*
X11456265Y38021962D01*
X11092364Y37658523D01*
X11091725Y37657962D01*
X11029934Y37596171D01*
X10974699Y37541006D01*
X10974531Y37540785D01*
X10974485Y37540726D01*
X10951930Y37501660D01*
X10934820Y37472023D01*
X10918306Y37443463D01*
X10895564Y37404130D01*
X10895426Y37403797D01*
X10875121Y37328019D01*
X10875101Y37327944D01*
X10854546Y37251426D01*
X10854500Y37251072D01*
X10854500Y37173363D01*
X10854444Y37085535D01*
X10854500Y37084686D01*
X10854500Y34036792D01*
X10854499Y34036774D01*
X10854499Y34029057D01*
X10854499Y33870943D01*
X10890174Y33737804D01*
X10895423Y33718215D01*
X10895425Y33718210D01*
X10917605Y33679794D01*
X10917607Y33679791D01*
X10917608Y33679790D01*
X10974480Y33581284D01*
X10974482Y33581282D01*
X10974485Y33581278D01*
X11093463Y33462300D01*
X11093469Y33462295D01*
X11463416Y33092348D01*
X11497442Y33030036D01*
X11492377Y32959221D01*
X11463417Y32914158D01*
X11419737Y32870478D01*
X11419734Y32870474D01*
X11376749Y32796021D01*
X11354500Y32712988D01*
X11354500Y32627013D01*
X11376749Y32543980D01*
X11376750Y32543977D01*
X11376751Y32543976D01*
X11419735Y32469525D01*
X11419737Y32469523D01*
X11419740Y32469519D01*
X11480518Y32408741D01*
X11480522Y32408738D01*
X11480525Y32408735D01*
X11554976Y32365751D01*
X11554978Y32365751D01*
X11554979Y32365750D01*
X11624536Y32347112D01*
X11638016Y32343500D01*
X11723984Y32343500D01*
X11807024Y32365751D01*
X11860373Y32396553D01*
X11929365Y32413289D01*
X11967397Y32405489D01*
X12073517Y32365909D01*
X12133127Y32359500D01*
X12906500Y32359501D01*
X12974621Y32339499D01*
X13021114Y32285843D01*
X13032500Y32233501D01*
X13032500Y31790138D01*
X13012498Y31722017D01*
X12995595Y31701043D01*
X12821015Y31526464D01*
X12770496Y31540000D01*
X11591504Y31540000D01*
X11540984Y31526464D01*
X11236079Y31831369D01*
X11193839Y31803145D01*
X11092854Y31702159D01*
X11092853Y31702157D01*
X11013513Y31583416D01*
X10958863Y31451481D01*
X10958861Y31451476D01*
X10931000Y31311409D01*
X10931000Y31168592D01*
X10958861Y31028525D01*
X10958863Y31028520D01*
X11013513Y30896585D01*
X11092853Y30777844D01*
X11092854Y30777842D01*
X11193840Y30676855D01*
X11193842Y30676854D01*
X11236078Y30648633D01*
X11540982Y30953537D01*
X11591504Y30940000D01*
X12770496Y30940000D01*
X12821017Y30953537D01*
X12995595Y30778959D01*
X13029620Y30716646D01*
X13032500Y30689863D01*
X13032500Y30207792D01*
X13032499Y30207774D01*
X13032499Y30200057D01*
X13032499Y30041943D01*
X13064611Y29922102D01*
X13073423Y29889215D01*
X13073425Y29889210D01*
X13087892Y29864154D01*
X13087894Y29864151D01*
X13152477Y29752288D01*
X13152485Y29752278D01*
X13271459Y29633304D01*
X13271473Y29633292D01*
X13379595Y29525170D01*
X13413621Y29462858D01*
X13416500Y29436075D01*
X13416500Y28811991D01*
X13427000Y28709203D01*
X13482185Y28542666D01*
X13574288Y28393344D01*
X13574293Y28393338D01*
X13698337Y28269294D01*
X13698343Y28269289D01*
X13698344Y28269288D01*
X13755563Y28233996D01*
X13847665Y28177186D01*
X14014196Y28122003D01*
X14014197Y28122003D01*
X14014203Y28122001D01*
X14116991Y28111500D01*
X14548074Y28111501D01*
X14616194Y28091499D01*
X14637169Y28074596D01*
X15457372Y27254393D01*
X15491398Y27192081D01*
X15486333Y27121266D01*
X15443786Y27064430D01*
X15377266Y27039619D01*
X15328644Y27045694D01*
X15170803Y27097998D01*
X15170791Y27098000D01*
X15068017Y27108500D01*
X14442990Y27108500D01*
X14340202Y27098000D01*
X14173665Y27042815D01*
X14024343Y26950712D01*
X14024337Y26950707D01*
X13932095Y26858464D01*
X13869783Y26824438D01*
X13798968Y26829503D01*
X13753905Y26858464D01*
X13661662Y26950707D01*
X13661656Y26950712D01*
X13512334Y27042815D01*
X13345803Y27097998D01*
X13345791Y27098000D01*
X13243017Y27108500D01*
X12617990Y27108500D01*
X12515202Y27098000D01*
X12348665Y27042815D01*
X12199343Y26950712D01*
X12199337Y26950707D01*
X12185594Y26936963D01*
X12123282Y26902937D01*
X12052467Y26908002D01*
X11995631Y26950549D01*
X11970820Y27017069D01*
X11970499Y27026058D01*
X11970499Y27957865D01*
X11970499Y27957872D01*
X11964091Y28017483D01*
X11929025Y28111501D01*
X11913798Y28152327D01*
X11913796Y28152330D01*
X11913796Y28152331D01*
X11870671Y28209939D01*
X11827546Y28267547D01*
X11729809Y28340712D01*
X11712331Y28353796D01*
X11712329Y28353797D01*
X11712326Y28353799D01*
X11577483Y28404091D01*
X11577486Y28404091D01*
X11517873Y28410500D01*
X7422135Y28410500D01*
X7422114Y28410498D01*
X7362519Y28404092D01*
X7362518Y28404092D01*
X7227673Y28353799D01*
X7227670Y28353797D01*
X7112453Y28267547D01*
X7026203Y28152330D01*
X7026201Y28152327D01*
X6975909Y28017485D01*
X6969500Y27957879D01*
X6969500Y23862136D01*
X6969502Y23862115D01*
X6975908Y23802520D01*
X6975908Y23802519D01*
X7026201Y23667674D01*
X7026203Y23667671D01*
X7112453Y23552454D01*
X7170061Y23509329D01*
X7227669Y23466204D01*
X7227671Y23466204D01*
X7227673Y23466202D01*
X7288030Y23443691D01*
X7362514Y23415910D01*
X7362517Y23415909D01*
X7422127Y23409500D01*
X11517872Y23409501D01*
X11577483Y23415909D01*
X11712331Y23466204D01*
X11827546Y23552454D01*
X11913796Y23667669D01*
X11914911Y23670657D01*
X11925369Y23698697D01*
X11964091Y23802517D01*
X11970500Y23862127D01*
X11970499Y24789944D01*
X11990501Y24858063D01*
X12044157Y24904556D01*
X12114431Y24914660D01*
X12179011Y24885167D01*
X12185594Y24879037D01*
X12199337Y24865294D01*
X12199343Y24865289D01*
X12199344Y24865288D01*
X12238230Y24841303D01*
X12348665Y24773186D01*
X12515196Y24718003D01*
X12515197Y24718003D01*
X12515203Y24718001D01*
X12617991Y24707500D01*
X13243008Y24707501D01*
X13243009Y24707501D01*
X13345797Y24718001D01*
X13512334Y24773186D01*
X13512880Y24773523D01*
X13661656Y24865288D01*
X13700924Y24904556D01*
X13753905Y24957536D01*
X13816217Y24991562D01*
X13887032Y24986497D01*
X13932095Y24957536D01*
X14024337Y24865294D01*
X14024341Y24865291D01*
X14024344Y24865288D01*
X14050187Y24849348D01*
X14095646Y24821309D01*
X14143125Y24768524D01*
X14155500Y24714068D01*
X14155500Y23684790D01*
X14155499Y23684772D01*
X14155499Y23677055D01*
X14155499Y23518941D01*
X14196423Y23366213D01*
X14209978Y23342736D01*
X14209979Y23342733D01*
X14275475Y23229289D01*
X14275485Y23229276D01*
X14394459Y23110302D01*
X14394473Y23110290D01*
X15186633Y22318130D01*
X15220659Y22255818D01*
X15223538Y22229035D01*
X15223538Y22225002D01*
X15243323Y22036744D01*
X15301816Y21856722D01*
X15301820Y21856714D01*
X15396463Y21692786D01*
X15396464Y21692784D01*
X15523124Y21552114D01*
X15676265Y21440851D01*
X15676265Y21440850D01*
X15701158Y21429767D01*
X15849195Y21363856D01*
X16034352Y21324500D01*
X16223644Y21324500D01*
X16408801Y21363856D01*
X16581728Y21440849D01*
X16581728Y21440850D01*
X16581730Y21440850D01*
X16581730Y21440851D01*
X16734869Y21552112D01*
X16750976Y21570000D01*
X16861531Y21692784D01*
X16861532Y21692786D01*
X16899331Y21758256D01*
X16956177Y21856716D01*
X17014672Y22036744D01*
X17034458Y22225000D01*
X17014672Y22413256D01*
X17014672Y22413257D01*
X16956179Y22593279D01*
X16956175Y22593287D01*
X16861532Y22757215D01*
X16861531Y22757217D01*
X16734871Y22897887D01*
X16581730Y23009150D01*
X16581730Y23009151D01*
X16456143Y23065066D01*
X16408801Y23086144D01*
X16408799Y23086145D01*
X16408798Y23086145D01*
X16223644Y23125500D01*
X16129923Y23125500D01*
X16061802Y23145502D01*
X16040828Y23162405D01*
X15393405Y23809828D01*
X15359379Y23872140D01*
X15356500Y23898923D01*
X15356500Y24714685D01*
X15376502Y24782806D01*
X15416353Y24821926D01*
X15486656Y24865288D01*
X15610712Y24989344D01*
X15702814Y25138666D01*
X15757999Y25305203D01*
X15768500Y25407991D01*
X15768499Y26408008D01*
X15767378Y26418978D01*
X15757999Y26510798D01*
X15705693Y26668645D01*
X15703252Y26739599D01*
X15739560Y26800610D01*
X15803089Y26832305D01*
X15873668Y26824623D01*
X15914392Y26797373D01*
X19318595Y23393170D01*
X19352621Y23330858D01*
X19355500Y23304075D01*
X19355500Y15807500D01*
X19335498Y15739379D01*
X19281842Y15692886D01*
X19229500Y15681500D01*
X18002635Y15681500D01*
X18002614Y15681498D01*
X17943019Y15675092D01*
X17943018Y15675092D01*
X17808173Y15624799D01*
X17808170Y15624797D01*
X17692953Y15538547D01*
X17606703Y15423330D01*
X17606701Y15423327D01*
X17556409Y15288485D01*
X17550000Y15228879D01*
X17550000Y11323136D01*
X17550002Y11323115D01*
X17556408Y11263520D01*
X17556408Y11263519D01*
X17606701Y11128674D01*
X17606703Y11128671D01*
X17606704Y11128669D01*
X17631874Y11095046D01*
X17692953Y11013454D01*
X17747086Y10972931D01*
X17808169Y10927204D01*
X17808171Y10927204D01*
X17808173Y10927202D01*
X17868530Y10904691D01*
X17943014Y10876910D01*
X17943017Y10876909D01*
X18002627Y10870500D01*
X21908372Y10870501D01*
X21967983Y10876909D01*
X22102831Y10927204D01*
X22218046Y11013454D01*
X22304296Y11128669D01*
X22304699Y11129748D01*
X22337444Y11217544D01*
X22379990Y11274380D01*
X22446510Y11299192D01*
X22515884Y11284101D01*
X22566087Y11233900D01*
X22573556Y11217544D01*
X22606701Y11128674D01*
X22606703Y11128671D01*
X22606704Y11128669D01*
X22631874Y11095046D01*
X22692953Y11013454D01*
X22747086Y10972931D01*
X22808169Y10927204D01*
X22808171Y10927204D01*
X22808173Y10927202D01*
X22868530Y10904691D01*
X22943014Y10876910D01*
X22943017Y10876909D01*
X23002627Y10870500D01*
X26908372Y10870501D01*
X26967983Y10876909D01*
X27102831Y10927204D01*
X27218046Y11013454D01*
X27304296Y11128669D01*
X27304699Y11129748D01*
X27321831Y11175684D01*
X27354591Y11263517D01*
X27361000Y11323127D01*
X27361000Y12265441D01*
X27381002Y12333562D01*
X27434658Y12380055D01*
X27504932Y12390159D01*
X27569512Y12360665D01*
X27576095Y12354536D01*
X27631337Y12299294D01*
X27631343Y12299289D01*
X27631344Y12299288D01*
X27686219Y12265441D01*
X27780665Y12207186D01*
X27947196Y12152003D01*
X27947197Y12152003D01*
X27947203Y12152001D01*
X28049991Y12141500D01*
X29100008Y12141501D01*
X29100009Y12141501D01*
X29202797Y12152001D01*
X29369334Y12207186D01*
X29387635Y12218474D01*
X29518656Y12299288D01*
X29642712Y12423344D01*
X29660041Y12451440D01*
X29712826Y12498918D01*
X29782901Y12510321D01*
X29848017Y12482029D01*
X29856377Y12474388D01*
X32064945Y10265820D01*
X32097555Y10209340D01*
X32118469Y10131292D01*
X32132423Y10079215D01*
X32132425Y10079210D01*
X32146277Y10055219D01*
X32146279Y10055216D01*
X32211477Y9942288D01*
X32211485Y9942278D01*
X32330459Y9823304D01*
X32330473Y9823292D01*
X33886595Y8267170D01*
X33920621Y8204858D01*
X33923500Y8178075D01*
X33923500Y7737000D01*
X33924929Y7717024D01*
X33928644Y7665064D01*
X33928645Y7665060D01*
X33969181Y7527008D01*
X34046969Y7405968D01*
X34155706Y7311746D01*
X34286584Y7251976D01*
X34429000Y7231500D01*
X34429003Y7231500D01*
X35928994Y7231500D01*
X35929000Y7231500D01*
X36000940Y7236645D01*
X36138992Y7277181D01*
X36260032Y7354969D01*
X36354254Y7463706D01*
X36414024Y7594584D01*
X36434500Y7737000D01*
X36434500Y8752745D01*
X36434605Y8757881D01*
X36436251Y8798233D01*
X36436252Y8798255D01*
X36435561Y8852358D01*
X36405692Y8993104D01*
X36378266Y9067793D01*
X36356918Y9117525D01*
X36275460Y9236125D01*
X36221539Y9294632D01*
X36182795Y9332399D01*
X36182792Y9332401D01*
X36182791Y9332402D01*
X36182788Y9332404D01*
X36062154Y9410800D01*
X36062147Y9410804D01*
X35989950Y9444220D01*
X35939685Y9464292D01*
X35799817Y9490259D01*
X35798223Y9490555D01*
X35798222Y9490556D01*
X35798217Y9490556D01*
X35718739Y9493798D01*
X35718728Y9493798D01*
X35718725Y9493798D01*
X35710530Y9493694D01*
X35664624Y9493108D01*
X35664623Y9493107D01*
X35523875Y9463238D01*
X35507404Y9457190D01*
X35498991Y9454432D01*
X35374331Y9418371D01*
X35357014Y9414658D01*
X35250609Y9399564D01*
X35232942Y9398315D01*
X35125476Y9398290D01*
X35107811Y9399530D01*
X35001401Y9414572D01*
X34984081Y9418278D01*
X34859417Y9454276D01*
X34851004Y9457029D01*
X34834525Y9463071D01*
X34782795Y9478954D01*
X34639655Y9493540D01*
X34560145Y9490259D01*
X34506287Y9485137D01*
X34506284Y9485136D01*
X34471254Y9474639D01*
X34400260Y9474246D01*
X34345993Y9506242D01*
X33319053Y10533182D01*
X33286442Y10589663D01*
X33251577Y10719784D01*
X33251575Y10719787D01*
X33251575Y10719789D01*
X33172522Y10856713D01*
X33172514Y10856723D01*
X33056327Y10972910D01*
X33056304Y10972931D01*
X32652830Y11376405D01*
X32618804Y11438717D01*
X32623869Y11509532D01*
X32666416Y11566368D01*
X32732936Y11591179D01*
X32741925Y11591500D01*
X33860456Y11591500D01*
X33928577Y11571498D01*
X33975070Y11517842D01*
X33978736Y11508925D01*
X33979730Y11506216D01*
X33979731Y11506214D01*
X34001081Y11456476D01*
X34082180Y11338399D01*
X34082540Y11337875D01*
X34136461Y11279368D01*
X34175205Y11241601D01*
X34175207Y11241600D01*
X34175208Y11241599D01*
X34175211Y11241597D01*
X34295845Y11163201D01*
X34295852Y11163197D01*
X34368049Y11129781D01*
X34368053Y11129780D01*
X34368054Y11129779D01*
X34418314Y11109709D01*
X34559777Y11083445D01*
X34639275Y11080202D01*
X34693376Y11080893D01*
X34834122Y11110762D01*
X34850604Y11116815D01*
X34858983Y11119563D01*
X34983677Y11155634D01*
X35000974Y11159342D01*
X35107401Y11174439D01*
X35125043Y11175687D01*
X35232523Y11175712D01*
X35250186Y11174473D01*
X35356604Y11159429D01*
X35373914Y11155725D01*
X35498596Y11119722D01*
X35506987Y11116976D01*
X35523483Y11110927D01*
X35575206Y11095046D01*
X35718345Y11080460D01*
X35797842Y11083741D01*
X35797851Y11083742D01*
X35797854Y11083742D01*
X35812427Y11085128D01*
X35851716Y11088864D01*
X35989541Y11130166D01*
X36044492Y11155631D01*
X36061702Y11163606D01*
X36061713Y11163612D01*
X36061731Y11163620D01*
X36109537Y11188966D01*
X36221065Y11279866D01*
X36274958Y11338399D01*
X36309433Y11380119D01*
X36377683Y11506781D01*
X36405073Y11581483D01*
X36420954Y11633206D01*
X36435540Y11776345D01*
X36434607Y11798954D01*
X36434500Y11804147D01*
X36434500Y12836995D01*
X36429355Y12908937D01*
X36429355Y12908940D01*
X36388819Y13046992D01*
X36311031Y13168032D01*
X36202294Y13262254D01*
X36071416Y13322024D01*
X35929000Y13342500D01*
X34429000Y13342500D01*
X34403588Y13340683D01*
X34357063Y13337356D01*
X34357055Y13337354D01*
X34219008Y13296819D01*
X34219006Y13296818D01*
X34097968Y13219032D01*
X34003746Y13110295D01*
X33943975Y12979414D01*
X33932639Y12900568D01*
X33903146Y12835988D01*
X33843420Y12797604D01*
X33807922Y12792500D01*
X32177925Y12792500D01*
X32109804Y12812502D01*
X32088830Y12829405D01*
X22100405Y22817830D01*
X22066379Y22880142D01*
X22063500Y22906925D01*
X22063500Y24225415D01*
X22083502Y24293536D01*
X22137158Y24340029D01*
X22207432Y24350133D01*
X22229132Y24345019D01*
X22232203Y24344001D01*
X22334991Y24333500D01*
X23385008Y24333501D01*
X23385009Y24333501D01*
X23487797Y24344001D01*
X23532451Y24358798D01*
X23654334Y24399186D01*
X23679553Y24414741D01*
X23745699Y24433500D01*
X24133301Y24433500D01*
X24199447Y24414741D01*
X24224666Y24399186D01*
X24282131Y24380144D01*
X24391196Y24344003D01*
X24391197Y24344003D01*
X24391203Y24344001D01*
X24493991Y24333500D01*
X25544008Y24333501D01*
X25544009Y24333501D01*
X25646797Y24344001D01*
X25691451Y24358798D01*
X25813334Y24399186D01*
X25838553Y24414741D01*
X25904699Y24433500D01*
X26292301Y24433500D01*
X26358447Y24414741D01*
X26383666Y24399186D01*
X26441131Y24380144D01*
X26550196Y24344003D01*
X26550197Y24344003D01*
X26550203Y24344001D01*
X26652991Y24333500D01*
X27703008Y24333501D01*
X27703009Y24333501D01*
X27805797Y24344001D01*
X27972334Y24399186D01*
X27983623Y24406149D01*
X28104556Y24480742D01*
X28170703Y24499500D01*
X28483702Y24499500D01*
X28529051Y24489446D01*
X28529337Y24490306D01*
X28536300Y24487999D01*
X28536303Y24487997D01*
X28697292Y24434651D01*
X28796655Y24424500D01*
X29343344Y24424501D01*
X29343345Y24424501D01*
X29449502Y24435345D01*
X29519302Y24422369D01*
X29571007Y24373716D01*
X29588200Y24304832D01*
X29565423Y24237589D01*
X29551402Y24220902D01*
X29467533Y24137033D01*
X29428435Y24078517D01*
X29369477Y23990280D01*
X29368987Y23989547D01*
X29345948Y23933925D01*
X29335046Y23907606D01*
X29301106Y23825670D01*
X29301104Y23825664D01*
X29295352Y23796749D01*
X29262443Y23733841D01*
X29260871Y23732241D01*
X29199290Y23670659D01*
X29199288Y23670657D01*
X29107185Y23521335D01*
X29052002Y23354804D01*
X29052000Y23354792D01*
X29041500Y23252018D01*
X29041500Y21451991D01*
X29052000Y21349203D01*
X29107185Y21182666D01*
X29199288Y21033344D01*
X29199293Y21033338D01*
X29323337Y20909294D01*
X29323343Y20909289D01*
X29323344Y20909288D01*
X29343085Y20897112D01*
X29472665Y20817186D01*
X29639196Y20762003D01*
X29639197Y20762003D01*
X29639203Y20762001D01*
X29741991Y20751500D01*
X30592008Y20751501D01*
X30592009Y20751501D01*
X30694797Y20762001D01*
X30861334Y20817186D01*
X31010656Y20909288D01*
X31134712Y21033344D01*
X31134759Y21033420D01*
X31134803Y21033460D01*
X31139262Y21039099D01*
X31140225Y21038338D01*
X31187544Y21080899D01*
X31257619Y21092302D01*
X31322735Y21064010D01*
X31344490Y21038903D01*
X31344738Y21039099D01*
X31349094Y21033589D01*
X31349241Y21033420D01*
X31349286Y21033347D01*
X31349293Y21033338D01*
X31473337Y20909294D01*
X31473343Y20909289D01*
X31473344Y20909288D01*
X31493085Y20897112D01*
X31622665Y20817186D01*
X31789196Y20762003D01*
X31789197Y20762003D01*
X31789203Y20762001D01*
X31891991Y20751500D01*
X32742008Y20751501D01*
X32742009Y20751501D01*
X32844797Y20762001D01*
X33011334Y20817186D01*
X33160656Y20909288D01*
X33284712Y21033344D01*
X33376814Y21182666D01*
X33431999Y21349203D01*
X33442500Y21451991D01*
X33442499Y23252008D01*
X33436188Y23313785D01*
X33431999Y23354798D01*
X33376814Y23521335D01*
X33295456Y23653237D01*
X33284712Y23670656D01*
X33284709Y23670659D01*
X33284706Y23670663D01*
X33223130Y23732239D01*
X33189104Y23794551D01*
X33188646Y23796754D01*
X33182896Y23825662D01*
X33182895Y23825664D01*
X33182895Y23825666D01*
X33128279Y23957520D01*
X33115013Y23989547D01*
X33016464Y24137035D01*
X32931492Y24222007D01*
X32913759Y24239740D01*
X32909224Y24244518D01*
X32871863Y24286012D01*
X32863871Y24294888D01*
X32863870Y24294889D01*
X32863869Y24294890D01*
X32863867Y24294891D01*
X32852657Y24303036D01*
X32837624Y24315876D01*
X32832038Y24321462D01*
X32832034Y24321465D01*
X32832034Y24321466D01*
X32832031Y24321468D01*
X32775046Y24359544D01*
X32770989Y24362372D01*
X32710733Y24406149D01*
X32710725Y24406154D01*
X32704235Y24409044D01*
X32685505Y24419373D01*
X32684552Y24420010D01*
X32684550Y24420011D01*
X32615031Y24448808D01*
X32612005Y24450109D01*
X32537807Y24483143D01*
X32537803Y24483144D01*
X32537473Y24483214D01*
X32526721Y24486553D01*
X32526584Y24486100D01*
X32520666Y24487895D01*
X32440245Y24503892D01*
X32438631Y24504224D01*
X32352647Y24522500D01*
X32352646Y24522500D01*
X32163354Y24522500D01*
X32163352Y24522500D01*
X32077365Y24504224D01*
X32075753Y24503892D01*
X32040345Y24496849D01*
X31995334Y24487895D01*
X31995332Y24487895D01*
X31995326Y24487893D01*
X31989414Y24486100D01*
X31989280Y24486542D01*
X31978546Y24483219D01*
X31978200Y24483146D01*
X31978196Y24483145D01*
X31904008Y24450114D01*
X31900981Y24448813D01*
X31831456Y24420013D01*
X31831451Y24420011D01*
X31831447Y24420009D01*
X31830493Y24419371D01*
X31811769Y24409046D01*
X31805278Y24406156D01*
X31805268Y24406150D01*
X31795683Y24399186D01*
X31745017Y24362376D01*
X31740977Y24359560D01*
X31739837Y24358798D01*
X31683966Y24321465D01*
X31683963Y24321463D01*
X31683958Y24321459D01*
X31678367Y24315868D01*
X31663342Y24303036D01*
X31652129Y24294889D01*
X31606789Y24244534D01*
X31602249Y24239750D01*
X31558535Y24196036D01*
X31550387Y24183841D01*
X31539264Y24169541D01*
X31525469Y24154220D01*
X31525463Y24154212D01*
X31494940Y24101345D01*
X31490589Y24094349D01*
X31459990Y24048553D01*
X31459983Y24048540D01*
X31451791Y24028763D01*
X31444507Y24013992D01*
X31430820Y23990283D01*
X31430818Y23990280D01*
X31414035Y23938628D01*
X31410612Y23929349D01*
X31392107Y23884675D01*
X31392104Y23884663D01*
X31386609Y23857042D01*
X31382865Y23842694D01*
X31372326Y23810259D01*
X31372325Y23810256D01*
X31367350Y23762926D01*
X31365594Y23751389D01*
X31365552Y23751179D01*
X31332579Y23688304D01*
X31270847Y23653237D01*
X31199956Y23657111D01*
X31142414Y23698697D01*
X31118358Y23751624D01*
X31118316Y23751838D01*
X31116647Y23762936D01*
X31111674Y23810252D01*
X31111674Y23810256D01*
X31101130Y23842703D01*
X31097388Y23857045D01*
X31096380Y23862115D01*
X31091895Y23884666D01*
X31091891Y23884675D01*
X31073383Y23929358D01*
X31069963Y23938628D01*
X31053179Y23990284D01*
X31039496Y24013984D01*
X31032209Y24028762D01*
X31024015Y24048542D01*
X31024013Y24048547D01*
X31004667Y24077500D01*
X30993397Y24094367D01*
X30989058Y24101345D01*
X30958533Y24154216D01*
X30944734Y24169542D01*
X30933609Y24183846D01*
X30929220Y24190414D01*
X30925464Y24196036D01*
X30881740Y24239760D01*
X30877217Y24244526D01*
X30839863Y24286012D01*
X30831871Y24294888D01*
X30831870Y24294889D01*
X30831868Y24294891D01*
X30820659Y24303035D01*
X30805625Y24315876D01*
X30800041Y24321460D01*
X30800035Y24321465D01*
X30743040Y24359548D01*
X30738982Y24362376D01*
X30714526Y24380144D01*
X30678730Y24406151D01*
X30678729Y24406152D01*
X30678727Y24406153D01*
X30672251Y24409036D01*
X30653507Y24419372D01*
X30652550Y24420012D01*
X30619987Y24433500D01*
X30582976Y24448831D01*
X30579998Y24450111D01*
X30505805Y24483144D01*
X30505615Y24483184D01*
X30505473Y24483214D01*
X30494721Y24486553D01*
X30494584Y24486100D01*
X30488666Y24487895D01*
X30408245Y24503892D01*
X30406631Y24504224D01*
X30320647Y24522500D01*
X30320646Y24522500D01*
X30131354Y24522500D01*
X30131353Y24522500D01*
X30045374Y24504226D01*
X30043760Y24503894D01*
X29989741Y24493149D01*
X29919027Y24499477D01*
X29862960Y24543032D01*
X29839341Y24609984D01*
X29855668Y24679078D01*
X29866329Y24694885D01*
X29867958Y24696947D01*
X29867968Y24696956D01*
X29957003Y24841303D01*
X30010349Y25002292D01*
X30020500Y25101655D01*
X30020499Y25698344D01*
X30010349Y25797708D01*
X29980682Y25887236D01*
X29978243Y25958186D01*
X30011191Y26015958D01*
X30519778Y26524544D01*
X30546030Y26544656D01*
X30550036Y26546960D01*
X30550037Y26546962D01*
X30550040Y26546963D01*
X30550709Y26547477D01*
X30550716Y26547480D01*
X30606687Y26603452D01*
X30606713Y26603426D01*
X30606808Y26603574D01*
X30894269Y26890223D01*
X30956628Y26924158D01*
X30983237Y26927000D01*
X31028799Y26927000D01*
X31028802Y26927000D01*
X31117264Y26937623D01*
X31258042Y26993139D01*
X31259560Y26994291D01*
X31261194Y26994912D01*
X31265556Y26997364D01*
X31265923Y26996710D01*
X31325923Y27019518D01*
X31395390Y27004862D01*
X31411835Y26994294D01*
X31413358Y26993139D01*
X31554135Y26937623D01*
X31554134Y26937623D01*
X31582094Y26934266D01*
X31642598Y26927000D01*
X31688575Y26927000D01*
X31756696Y26906998D01*
X31777670Y26890095D01*
X32004069Y26663696D01*
X32004090Y26663673D01*
X32120277Y26547486D01*
X32120282Y26547482D01*
X32120284Y26547480D01*
X32120285Y26547479D01*
X32120287Y26547478D01*
X32183820Y26510798D01*
X32257216Y26468423D01*
X32307871Y26454851D01*
X32364396Y26422197D01*
X32737668Y26048573D01*
X32771664Y25986245D01*
X32768136Y25919889D01*
X32727652Y25797713D01*
X32727650Y25797703D01*
X32717500Y25698354D01*
X32717500Y25101655D01*
X32727650Y25002296D01*
X32727650Y25002294D01*
X32727651Y25002292D01*
X32780997Y24841303D01*
X32825888Y24768524D01*
X32870032Y24696956D01*
X32870037Y24696950D01*
X32989949Y24577038D01*
X32989955Y24577033D01*
X32989956Y24577032D01*
X33134303Y24487997D01*
X33295292Y24434651D01*
X33394655Y24424500D01*
X33941344Y24424501D01*
X33941345Y24424501D01*
X33961216Y24426531D01*
X34040708Y24434651D01*
X34201697Y24487997D01*
X34201698Y24487998D01*
X34208664Y24490306D01*
X34208949Y24489446D01*
X34254298Y24499500D01*
X34825868Y24499500D01*
X34865501Y24493104D01*
X34932196Y24471003D01*
X34932197Y24471003D01*
X34932203Y24471001D01*
X35034991Y24460500D01*
X36085008Y24460501D01*
X36085009Y24460501D01*
X36187797Y24471001D01*
X36354334Y24526186D01*
X36386140Y24545804D01*
X36503656Y24618288D01*
X36522302Y24636934D01*
X36550405Y24665036D01*
X36612717Y24699062D01*
X36683532Y24693997D01*
X36728595Y24665036D01*
X36775337Y24618294D01*
X36775343Y24618289D01*
X36775344Y24618288D01*
X36782418Y24613925D01*
X36924665Y24526186D01*
X37091196Y24471003D01*
X37091197Y24471003D01*
X37091203Y24471001D01*
X37193991Y24460500D01*
X38244008Y24460501D01*
X38244009Y24460501D01*
X38346797Y24471001D01*
X38513334Y24526186D01*
X38545140Y24545804D01*
X38662656Y24618288D01*
X38681302Y24636934D01*
X38709405Y24665036D01*
X38771717Y24699062D01*
X38842532Y24693997D01*
X38887595Y24665036D01*
X38934337Y24618294D01*
X38934343Y24618289D01*
X38934344Y24618288D01*
X38941418Y24613925D01*
X39083665Y24526186D01*
X39250196Y24471003D01*
X39250197Y24471003D01*
X39250203Y24471001D01*
X39352991Y24460500D01*
X40403008Y24460501D01*
X40403009Y24460501D01*
X40505797Y24471001D01*
X40672334Y24526186D01*
X40704140Y24545804D01*
X40821656Y24618288D01*
X40889764Y24686397D01*
X40952074Y24720420D01*
X40978858Y24723300D01*
X41749570Y24723300D01*
X41817691Y24703298D01*
X41864184Y24649642D01*
X41869174Y24636934D01*
X41904786Y24529465D01*
X41976370Y24413409D01*
X41996888Y24380144D01*
X42018236Y24358796D01*
X42052261Y24296487D01*
X42047197Y24225671D01*
X42025322Y24191615D01*
X42026841Y24190414D01*
X42022288Y24184657D01*
X41930185Y24035335D01*
X41875002Y23868804D01*
X41875000Y23868792D01*
X41864500Y23766018D01*
X41864500Y22715991D01*
X41875000Y22613203D01*
X41930185Y22446668D01*
X41932695Y22441285D01*
X41944500Y22388036D01*
X41944500Y14215500D01*
X41924498Y14147379D01*
X41870842Y14100886D01*
X41818501Y14089500D01*
X41735136Y14089500D01*
X41735114Y14089498D01*
X41675519Y14083092D01*
X41675518Y14083092D01*
X41540673Y14032799D01*
X41540670Y14032797D01*
X41425453Y13946547D01*
X41339203Y13831330D01*
X41339201Y13831327D01*
X41288909Y13696485D01*
X41282500Y13636879D01*
X41282500Y12017136D01*
X41282502Y12017115D01*
X41288908Y11957520D01*
X41288908Y11957519D01*
X41339201Y11822674D01*
X41339203Y11822671D01*
X41339204Y11822669D01*
X41382086Y11765386D01*
X41425452Y11707456D01*
X41425453Y11707456D01*
X41425454Y11707454D01*
X41491693Y11657867D01*
X41534239Y11601032D01*
X41539303Y11530216D01*
X41505278Y11467904D01*
X41491697Y11456137D01*
X41463625Y11435121D01*
X41425452Y11406545D01*
X41339203Y11291330D01*
X41339201Y11291327D01*
X41288909Y11156485D01*
X41282500Y11096879D01*
X41282500Y9477136D01*
X41282502Y9477115D01*
X41288908Y9417520D01*
X41288908Y9417519D01*
X41339201Y9282674D01*
X41339203Y9282671D01*
X41425453Y9167454D01*
X41475318Y9130126D01*
X41540669Y9081204D01*
X41540671Y9081204D01*
X41540673Y9081202D01*
X41589924Y9062833D01*
X41675514Y9030910D01*
X41675517Y9030909D01*
X41735127Y9024500D01*
X43354872Y9024501D01*
X43414483Y9030909D01*
X43549331Y9081204D01*
X43664546Y9167454D01*
X43714133Y9233694D01*
X43770968Y9276240D01*
X43841783Y9281304D01*
X43904095Y9247279D01*
X43915863Y9233698D01*
X43965454Y9167454D01*
X44080669Y9081204D01*
X44080671Y9081204D01*
X44080673Y9081202D01*
X44129924Y9062833D01*
X44215514Y9030910D01*
X44215517Y9030909D01*
X44275127Y9024500D01*
X45894872Y9024501D01*
X45954483Y9030909D01*
X46089331Y9081204D01*
X46204546Y9167454D01*
X46290796Y9282669D01*
X46341091Y9417517D01*
X46347500Y9477127D01*
X46347500Y9685079D01*
X51645300Y9685079D01*
X51645300Y7912936D01*
X51645302Y7912915D01*
X51651708Y7853320D01*
X51651708Y7853319D01*
X51702001Y7718474D01*
X51702003Y7718471D01*
X51702004Y7718469D01*
X51703086Y7717024D01*
X51788253Y7603254D01*
X51836803Y7566910D01*
X51903469Y7517004D01*
X51903471Y7517004D01*
X51903473Y7517002D01*
X51963830Y7494491D01*
X52038314Y7466710D01*
X52038317Y7466709D01*
X52097927Y7460300D01*
X53870072Y7460301D01*
X53929683Y7466709D01*
X54064531Y7517004D01*
X54179746Y7603254D01*
X54265996Y7718469D01*
X54316291Y7853317D01*
X54322700Y7912927D01*
X54322699Y9685072D01*
X54316291Y9744683D01*
X54284291Y9830480D01*
X54265998Y9879527D01*
X54265996Y9879530D01*
X54265996Y9879531D01*
X54216469Y9945690D01*
X54179746Y9994747D01*
X54098965Y10055219D01*
X54064531Y10080996D01*
X54064529Y10080997D01*
X54064526Y10080999D01*
X53929683Y10131291D01*
X53929686Y10131291D01*
X53870073Y10137700D01*
X52097935Y10137700D01*
X52097914Y10137698D01*
X52038319Y10131292D01*
X52038318Y10131292D01*
X51903473Y10080999D01*
X51903470Y10080997D01*
X51788253Y9994747D01*
X51702003Y9879530D01*
X51702001Y9879527D01*
X51651709Y9744685D01*
X51645300Y9685079D01*
X46347500Y9685079D01*
X46347499Y11096872D01*
X46341091Y11156483D01*
X46309344Y11241601D01*
X46290798Y11291327D01*
X46290796Y11291330D01*
X46290796Y11291331D01*
X46204546Y11406546D01*
X46138306Y11456134D01*
X46095760Y11512968D01*
X46090696Y11583783D01*
X46124721Y11646095D01*
X46138302Y11657864D01*
X46204546Y11707454D01*
X46290796Y11822669D01*
X46341091Y11957517D01*
X46347500Y12017127D01*
X46347499Y13636872D01*
X46341091Y13696483D01*
X46300005Y13806640D01*
X46290798Y13831327D01*
X46290796Y13831330D01*
X46290796Y13831331D01*
X46231241Y13910886D01*
X46204546Y13946547D01*
X46099077Y14025500D01*
X46089331Y14032796D01*
X46089329Y14032797D01*
X46089326Y14032799D01*
X45954483Y14083091D01*
X45954486Y14083091D01*
X45894873Y14089500D01*
X44275135Y14089500D01*
X44275114Y14089498D01*
X44215519Y14083092D01*
X44215518Y14083092D01*
X44080673Y14032799D01*
X44080670Y14032797D01*
X43965455Y13946548D01*
X43952106Y13928716D01*
X43915866Y13880307D01*
X43859032Y13837761D01*
X43788216Y13832697D01*
X43725904Y13866722D01*
X43714136Y13880303D01*
X43664546Y13946546D01*
X43664544Y13946547D01*
X43664544Y13946548D01*
X43559077Y14025500D01*
X43549331Y14032796D01*
X43549329Y14032797D01*
X43549326Y14032799D01*
X43414483Y14083091D01*
X43414486Y14083091D01*
X43354878Y14089500D01*
X43354873Y14089500D01*
X43271500Y14089500D01*
X43203379Y14109502D01*
X43156886Y14163158D01*
X43145500Y14215500D01*
X43145500Y21899724D01*
X43165502Y21967845D01*
X43219158Y22014338D01*
X43258701Y22025072D01*
X43267797Y22026001D01*
X43434334Y22081186D01*
X43583656Y22173288D01*
X43707712Y22297344D01*
X43799814Y22446666D01*
X43854999Y22613203D01*
X43865500Y22715991D01*
X43865499Y23766008D01*
X43861769Y23802519D01*
X43854999Y23868798D01*
X43799814Y24035335D01*
X43737084Y24137036D01*
X43707712Y24184656D01*
X43686362Y24206006D01*
X43652338Y24268314D01*
X43657402Y24339130D01*
X43679290Y24373175D01*
X43677759Y24374386D01*
X43682307Y24380140D01*
X43682312Y24380144D01*
X43774414Y24529466D01*
X43829599Y24696003D01*
X43840100Y24798791D01*
X43840099Y25848808D01*
X43832387Y25924300D01*
X43829599Y25951598D01*
X43774414Y26118135D01*
X43682311Y26267457D01*
X43682306Y26267463D01*
X43558262Y26391507D01*
X43558256Y26391512D01*
X43408934Y26483615D01*
X43242403Y26538798D01*
X43242391Y26538800D01*
X43139617Y26549300D01*
X42539590Y26549300D01*
X42436802Y26538800D01*
X42270265Y26483615D01*
X42120943Y26391512D01*
X42120937Y26391507D01*
X41996893Y26267463D01*
X41996888Y26267457D01*
X41913839Y26132812D01*
X41904786Y26118134D01*
X41869173Y26010664D01*
X41828762Y25952296D01*
X41763205Y25925040D01*
X41749571Y25924300D01*
X41364217Y25924300D01*
X41296096Y25944302D01*
X41249603Y25997958D01*
X41239499Y26068232D01*
X41268993Y26132812D01*
X41294216Y26155066D01*
X41294836Y26155480D01*
X41308669Y26164723D01*
X43784309Y28640363D01*
X43855498Y28746906D01*
X43897461Y28848215D01*
X43899490Y28853112D01*
X43902192Y28859637D01*
X43904533Y28865288D01*
X43929532Y28990963D01*
X43929532Y32335226D01*
X43949534Y32403347D01*
X43961897Y32419538D01*
X43989326Y32450000D01*
X44011565Y32474699D01*
X44106211Y32638631D01*
X44164706Y32818659D01*
X44184492Y33006915D01*
X44164706Y33195171D01*
X44164706Y33195172D01*
X44106213Y33375194D01*
X44106209Y33375202D01*
X44096635Y33391784D01*
X44011565Y33539131D01*
X43929991Y33629728D01*
X43899275Y33693734D01*
X43908038Y33764187D01*
X43934530Y33803130D01*
X44270277Y34138875D01*
X44341465Y34245417D01*
X44390501Y34363800D01*
X44390501Y34363805D01*
X44390503Y34363807D01*
X44393723Y34379996D01*
X44393723Y34379999D01*
X44399624Y34409666D01*
X44415500Y34489475D01*
X44415500Y35884501D01*
X44435502Y35952622D01*
X44489158Y35999115D01*
X44541500Y36010501D01*
X45040009Y36010501D01*
X45142797Y36021001D01*
X45309337Y36076187D01*
X45309337Y36076188D01*
X45340548Y36095439D01*
X45434348Y36153296D01*
X45502827Y36172033D01*
X45528670Y36163923D01*
X45524140Y36200184D01*
X45554824Y36264207D01*
X45559391Y36269024D01*
X45582712Y36292344D01*
X45674814Y36441666D01*
X45702141Y36524136D01*
X45742554Y36582504D01*
X45808111Y36609760D01*
X45821745Y36610500D01*
X46844075Y36610500D01*
X46912196Y36590498D01*
X46933170Y36573595D01*
X47076170Y36430595D01*
X47110196Y36368283D01*
X47105131Y36297468D01*
X47062584Y36240632D01*
X46996064Y36215821D01*
X46987075Y36215500D01*
X46108990Y36215500D01*
X46006202Y36205000D01*
X45839663Y36149814D01*
X45714650Y36072705D01*
X45646171Y36053968D01*
X45620329Y36062079D01*
X45624859Y36025818D01*
X45594176Y35961794D01*
X45589592Y35956961D01*
X45566288Y35933657D01*
X45474185Y35784335D01*
X45419002Y35617804D01*
X45419000Y35617792D01*
X45408500Y35515018D01*
X45408500Y34889991D01*
X45419000Y34787203D01*
X45474185Y34620666D01*
X45566288Y34471344D01*
X45566293Y34471338D01*
X45658536Y34379095D01*
X45692562Y34316783D01*
X45687497Y34245968D01*
X45658536Y34200905D01*
X45566293Y34108663D01*
X45566288Y34108657D01*
X45474185Y33959335D01*
X45419002Y33792804D01*
X45419000Y33792792D01*
X45408500Y33690018D01*
X45408500Y33064991D01*
X45419000Y32962203D01*
X45474185Y32795666D01*
X45566288Y32646344D01*
X45566293Y32646338D01*
X45690337Y32522294D01*
X45690343Y32522289D01*
X45690344Y32522288D01*
X45738972Y32492294D01*
X45839665Y32430186D01*
X46006196Y32375003D01*
X46006197Y32375003D01*
X46006203Y32375001D01*
X46108991Y32364500D01*
X47109008Y32364501D01*
X47109009Y32364501D01*
X47211797Y32375001D01*
X47378334Y32430186D01*
X47408026Y32448500D01*
X47527656Y32522288D01*
X47580299Y32574931D01*
X47641964Y32636595D01*
X47704276Y32670621D01*
X47731059Y32673500D01*
X48496093Y32673500D01*
X48564214Y32653498D01*
X48610707Y32599842D01*
X48621403Y32534330D01*
X48612540Y32450001D01*
X48632325Y32261744D01*
X48690818Y32081722D01*
X48690822Y32081714D01*
X48785465Y31917786D01*
X48785466Y31917784D01*
X48912126Y31777114D01*
X49065267Y31665851D01*
X49065267Y31665850D01*
X49112612Y31644771D01*
X49238197Y31588856D01*
X49423354Y31549500D01*
X49444225Y31549500D01*
X49460671Y31548422D01*
X49465259Y31547818D01*
X49465260Y31547818D01*
X49465261Y31547818D01*
X49667657Y31547818D01*
X49735778Y31527816D01*
X49756752Y31510913D01*
X50162595Y31105070D01*
X50196621Y31042758D01*
X50199500Y31015975D01*
X50199500Y30572221D01*
X50179498Y30504100D01*
X50167136Y30487911D01*
X50067467Y30377217D01*
X50067465Y30377215D01*
X49972822Y30213287D01*
X49972818Y30213279D01*
X49914325Y30033257D01*
X49894540Y29845000D01*
X49914325Y29656744D01*
X49972818Y29476722D01*
X49972821Y29476715D01*
X50020169Y29394707D01*
X50036907Y29325712D01*
X50013687Y29258620D01*
X50004683Y29247393D01*
X49983204Y29223540D01*
X49922756Y29186303D01*
X49851773Y29187657D01*
X49800476Y29218759D01*
X49441956Y29577279D01*
X49407930Y29639591D01*
X49412995Y29710406D01*
X49437415Y29750685D01*
X49500533Y29820784D01*
X49595179Y29984716D01*
X49653674Y30164744D01*
X49673460Y30353000D01*
X49653674Y30541256D01*
X49653674Y30541257D01*
X49595181Y30721279D01*
X49595177Y30721287D01*
X49595131Y30721366D01*
X49552862Y30794580D01*
X49500534Y30885215D01*
X49500533Y30885217D01*
X49373873Y31025887D01*
X49220732Y31137150D01*
X49220732Y31137151D01*
X49095145Y31193066D01*
X49047803Y31214144D01*
X49047801Y31214145D01*
X49047800Y31214145D01*
X48862646Y31253500D01*
X48673354Y31253500D01*
X48488199Y31214145D01*
X48315267Y31137151D01*
X48315267Y31137150D01*
X48162126Y31025887D01*
X48035466Y30885217D01*
X48035465Y30885215D01*
X47940822Y30721287D01*
X47940818Y30721279D01*
X47882325Y30541258D01*
X47878894Y30508609D01*
X47851880Y30442952D01*
X47793658Y30402323D01*
X47779782Y30398535D01*
X47726202Y30387146D01*
X47726197Y30387145D01*
X47726197Y30387144D01*
X47711641Y30380663D01*
X47553267Y30310151D01*
X47553267Y30310150D01*
X47400126Y30198887D01*
X47273466Y30058217D01*
X47273465Y30058215D01*
X47178822Y29894287D01*
X47178818Y29894279D01*
X47120325Y29714257D01*
X47100540Y29526000D01*
X47120325Y29337744D01*
X47178818Y29157722D01*
X47178822Y29157714D01*
X47273465Y28993786D01*
X47273466Y28993784D01*
X47400126Y28853114D01*
X47553267Y28741851D01*
X47553267Y28741850D01*
X47600612Y28720771D01*
X47726197Y28664856D01*
X47911354Y28625500D01*
X48005075Y28625500D01*
X48073196Y28605498D01*
X48094170Y28588595D01*
X50406119Y26276646D01*
X50406140Y26276623D01*
X50522327Y26160436D01*
X50522332Y26160432D01*
X50522334Y26160430D01*
X50522335Y26160429D01*
X50522337Y26160428D01*
X50561951Y26137557D01*
X50608949Y26110423D01*
X50659265Y26081373D01*
X50659269Y26081372D01*
X50663889Y26079458D01*
X50719170Y26034911D01*
X50741592Y25967548D01*
X50724035Y25898756D01*
X50704767Y25873954D01*
X50069315Y25238501D01*
X49454286Y24623472D01*
X49454284Y24623470D01*
X49407852Y24577038D01*
X49342480Y24511667D01*
X49342479Y24511665D01*
X49312941Y24460502D01*
X49312940Y24460501D01*
X49263423Y24374737D01*
X49242028Y24294890D01*
X49227878Y24242079D01*
X49222499Y24222006D01*
X49222499Y24053743D01*
X49222500Y24053730D01*
X49222500Y16546792D01*
X49222499Y16546774D01*
X49222499Y16539057D01*
X49222499Y16380943D01*
X49263423Y16228215D01*
X49263424Y16228212D01*
X49283761Y16192990D01*
X49292360Y16178096D01*
X49342480Y16091284D01*
X49342483Y16091281D01*
X49342486Y16091277D01*
X49461459Y15972304D01*
X49461473Y15972292D01*
X51608395Y13825370D01*
X51642421Y13763058D01*
X51645300Y13736275D01*
X51645300Y12412936D01*
X51645302Y12412915D01*
X51651708Y12353320D01*
X51651708Y12353319D01*
X51702001Y12218474D01*
X51702003Y12218471D01*
X51702004Y12218469D01*
X51721925Y12191858D01*
X51788253Y12103254D01*
X51845861Y12060129D01*
X51903469Y12017004D01*
X51903471Y12017004D01*
X51903473Y12017002D01*
X51963830Y11994491D01*
X52038314Y11966710D01*
X52038317Y11966709D01*
X52097927Y11960300D01*
X53870072Y11960301D01*
X53929683Y11966709D01*
X54064531Y12017004D01*
X54179746Y12103254D01*
X54265996Y12218469D01*
X54316291Y12353317D01*
X54322700Y12412927D01*
X54322700Y12572500D01*
X54342702Y12640621D01*
X54396358Y12687114D01*
X54448700Y12698500D01*
X57819301Y12698500D01*
X57887422Y12678498D01*
X57933915Y12624842D01*
X57945301Y12572500D01*
X57945301Y12412936D01*
X57945302Y12412915D01*
X57951708Y12353320D01*
X57951708Y12353319D01*
X58002001Y12218474D01*
X58002003Y12218471D01*
X58002004Y12218469D01*
X58021925Y12191858D01*
X58088253Y12103254D01*
X58145861Y12060129D01*
X58203469Y12017004D01*
X58203471Y12017004D01*
X58203473Y12017002D01*
X58263830Y11994491D01*
X58338314Y11966710D01*
X58338317Y11966709D01*
X58397927Y11960300D01*
X60170072Y11960301D01*
X60229683Y11966709D01*
X60364531Y12017004D01*
X60479746Y12103254D01*
X60479747Y12103256D01*
X60479749Y12103257D01*
X60486118Y12109625D01*
X60487072Y12108671D01*
X60536464Y12145647D01*
X60607280Y12150714D01*
X60669593Y12116691D01*
X60703620Y12054380D01*
X60706500Y12027593D01*
X60706500Y10070408D01*
X60686498Y10002287D01*
X60632842Y9955794D01*
X60562568Y9945690D01*
X60497988Y9975184D01*
X60480135Y9994358D01*
X60479749Y9994744D01*
X60441631Y10023279D01*
X60364531Y10080996D01*
X60364529Y10080997D01*
X60364526Y10080999D01*
X60229683Y10131291D01*
X60229686Y10131291D01*
X60170073Y10137700D01*
X58397935Y10137700D01*
X58397914Y10137698D01*
X58338319Y10131292D01*
X58338318Y10131292D01*
X58203473Y10080999D01*
X58203470Y10080997D01*
X58088253Y9994747D01*
X58002003Y9879530D01*
X58002001Y9879527D01*
X57951709Y9744685D01*
X57945300Y9685079D01*
X57945300Y7912936D01*
X57945302Y7912915D01*
X57951708Y7853320D01*
X57951708Y7853319D01*
X58002001Y7718474D01*
X58002003Y7718471D01*
X58002004Y7718469D01*
X58003086Y7717024D01*
X58088253Y7603254D01*
X58136803Y7566910D01*
X58203469Y7517004D01*
X58203471Y7517004D01*
X58203473Y7517002D01*
X58263830Y7494491D01*
X58338314Y7466710D01*
X58338317Y7466709D01*
X58397927Y7460300D01*
X60170072Y7460301D01*
X60229683Y7466709D01*
X60364531Y7517004D01*
X60479746Y7603254D01*
X60565996Y7718469D01*
X60616291Y7853317D01*
X60622700Y7912927D01*
X60622699Y8769876D01*
X60642701Y8837995D01*
X60696357Y8884488D01*
X60766631Y8894592D01*
X60831211Y8865099D01*
X60837794Y8858969D01*
X60945459Y8751304D01*
X60945473Y8751292D01*
X61699595Y7997170D01*
X61733621Y7934858D01*
X61736500Y7908075D01*
X61736500Y7356006D01*
X61741644Y7284064D01*
X61741646Y7284056D01*
X61743665Y7277181D01*
X61782181Y7146008D01*
X61859969Y7024968D01*
X61968706Y6930746D01*
X62099584Y6870976D01*
X62242000Y6850500D01*
X62242003Y6850500D01*
X63741994Y6850500D01*
X63742000Y6850500D01*
X63813940Y6855645D01*
X63951992Y6896181D01*
X64073032Y6973969D01*
X64167254Y7082706D01*
X64227024Y7213584D01*
X64236168Y7277183D01*
X64238361Y7292432D01*
X64267854Y7357012D01*
X64327580Y7395396D01*
X64363078Y7400500D01*
X64664007Y7400500D01*
X64732128Y7380498D01*
X64778621Y7326842D01*
X64787871Y7290601D01*
X64788447Y7290704D01*
X64789646Y7284056D01*
X64791665Y7277181D01*
X64830181Y7146008D01*
X64907969Y7024968D01*
X65016706Y6930746D01*
X65147584Y6870976D01*
X65290000Y6850500D01*
X65290003Y6850500D01*
X66789994Y6850500D01*
X66790000Y6850500D01*
X66861940Y6855645D01*
X66999992Y6896181D01*
X67121032Y6973969D01*
X67215254Y7082706D01*
X67275024Y7213584D01*
X67284168Y7277183D01*
X67286361Y7292432D01*
X67315854Y7357012D01*
X67375580Y7395396D01*
X67411078Y7400500D01*
X67839007Y7400500D01*
X67907128Y7380498D01*
X67953621Y7326842D01*
X67962871Y7290601D01*
X67963447Y7290704D01*
X67964646Y7284056D01*
X67966665Y7277181D01*
X68005181Y7146008D01*
X68082969Y7024968D01*
X68191706Y6930746D01*
X68322584Y6870976D01*
X68465000Y6850500D01*
X68465003Y6850500D01*
X69964994Y6850500D01*
X69965000Y6850500D01*
X70036940Y6855645D01*
X70174992Y6896181D01*
X70296032Y6973969D01*
X70390254Y7082706D01*
X70450024Y7213584D01*
X70459168Y7277183D01*
X70461361Y7292432D01*
X70490854Y7357012D01*
X70550580Y7395396D01*
X70586078Y7400500D01*
X70887007Y7400500D01*
X70955128Y7380498D01*
X71001621Y7326842D01*
X71010871Y7290601D01*
X71011447Y7290704D01*
X71012646Y7284056D01*
X71014665Y7277181D01*
X71053181Y7146008D01*
X71130969Y7024968D01*
X71239706Y6930746D01*
X71370584Y6870976D01*
X71513000Y6850500D01*
X71513003Y6850500D01*
X73012994Y6850500D01*
X73013000Y6850500D01*
X73084940Y6855645D01*
X73222992Y6896181D01*
X73344032Y6973969D01*
X73438254Y7082706D01*
X73498024Y7213584D01*
X73518500Y7356000D01*
X73518500Y8371745D01*
X73518605Y8376881D01*
X73519305Y8394049D01*
X73520252Y8417255D01*
X73519561Y8471358D01*
X73489692Y8612104D01*
X73462266Y8686793D01*
X73440918Y8736525D01*
X73359460Y8855125D01*
X73305539Y8913632D01*
X73266795Y8951399D01*
X73266792Y8951401D01*
X73266791Y8951402D01*
X73266788Y8951404D01*
X73146154Y9029800D01*
X73146147Y9029804D01*
X73073950Y9063220D01*
X73023685Y9083292D01*
X72899583Y9106332D01*
X72882223Y9109555D01*
X72882222Y9109556D01*
X72882217Y9109556D01*
X72802739Y9112798D01*
X72802728Y9112798D01*
X72802725Y9112798D01*
X72794530Y9112694D01*
X72748624Y9112108D01*
X72748623Y9112107D01*
X72607875Y9082238D01*
X72591404Y9076190D01*
X72582991Y9073432D01*
X72458331Y9037371D01*
X72441014Y9033658D01*
X72334609Y9018564D01*
X72316942Y9017315D01*
X72209476Y9017290D01*
X72191811Y9018530D01*
X72085401Y9033572D01*
X72068081Y9037278D01*
X71943417Y9073276D01*
X71935004Y9076029D01*
X71918525Y9082071D01*
X71866795Y9097954D01*
X71723655Y9112540D01*
X71644145Y9109259D01*
X71590287Y9104137D01*
X71590280Y9104135D01*
X71522900Y9083943D01*
X71453751Y9063221D01*
X71452456Y9062833D01*
X71452452Y9062832D01*
X71380297Y9029395D01*
X71380254Y9029373D01*
X71332465Y9004036D01*
X71220936Y8913135D01*
X71167043Y8854603D01*
X71132566Y8812880D01*
X71064316Y8686218D01*
X71064315Y8686217D01*
X71063548Y8684123D01*
X71063102Y8683522D01*
X71062470Y8682115D01*
X71062164Y8682253D01*
X71021318Y8627052D01*
X70954936Y8601873D01*
X70945250Y8601500D01*
X70533544Y8601500D01*
X70465423Y8621502D01*
X70418930Y8675158D01*
X70415264Y8684075D01*
X70414269Y8686785D01*
X70414268Y8686787D01*
X70414266Y8686793D01*
X70392918Y8736525D01*
X70311460Y8855125D01*
X70257539Y8913632D01*
X70218795Y8951399D01*
X70218792Y8951401D01*
X70218791Y8951402D01*
X70218788Y8951404D01*
X70098154Y9029800D01*
X70098147Y9029804D01*
X70025950Y9063220D01*
X69975685Y9083292D01*
X69851583Y9106332D01*
X69834223Y9109555D01*
X69834222Y9109556D01*
X69834217Y9109556D01*
X69754739Y9112798D01*
X69754728Y9112798D01*
X69754725Y9112798D01*
X69746530Y9112694D01*
X69700624Y9112108D01*
X69700623Y9112107D01*
X69559875Y9082238D01*
X69543404Y9076190D01*
X69534991Y9073432D01*
X69410331Y9037371D01*
X69393014Y9033658D01*
X69286609Y9018564D01*
X69268942Y9017315D01*
X69161476Y9017290D01*
X69143811Y9018530D01*
X69037401Y9033572D01*
X69020081Y9037278D01*
X68895417Y9073276D01*
X68887004Y9076029D01*
X68870525Y9082071D01*
X68818795Y9097954D01*
X68675655Y9112540D01*
X68596145Y9109259D01*
X68542287Y9104137D01*
X68542280Y9104135D01*
X68474900Y9083943D01*
X68405751Y9063221D01*
X68404456Y9062833D01*
X68404452Y9062832D01*
X68332297Y9029395D01*
X68332254Y9029373D01*
X68284465Y9004036D01*
X68172936Y8913135D01*
X68119043Y8854603D01*
X68084566Y8812880D01*
X68016316Y8686218D01*
X68016315Y8686217D01*
X68015548Y8684123D01*
X68015102Y8683522D01*
X68014470Y8682115D01*
X68014164Y8682253D01*
X67973318Y8627052D01*
X67906936Y8601873D01*
X67897250Y8601500D01*
X67358544Y8601500D01*
X67290423Y8621502D01*
X67243930Y8675158D01*
X67240264Y8684075D01*
X67239269Y8686785D01*
X67239268Y8686787D01*
X67239266Y8686793D01*
X67217918Y8736525D01*
X67136460Y8855125D01*
X67082539Y8913632D01*
X67043795Y8951399D01*
X67043792Y8951401D01*
X67043791Y8951402D01*
X67043788Y8951404D01*
X66923154Y9029800D01*
X66923147Y9029804D01*
X66850950Y9063220D01*
X66800685Y9083292D01*
X66676583Y9106332D01*
X66659223Y9109555D01*
X66659222Y9109556D01*
X66659217Y9109556D01*
X66579739Y9112798D01*
X66579728Y9112798D01*
X66579725Y9112798D01*
X66571530Y9112694D01*
X66525624Y9112108D01*
X66525623Y9112107D01*
X66384875Y9082238D01*
X66368404Y9076190D01*
X66359991Y9073432D01*
X66235331Y9037371D01*
X66218014Y9033658D01*
X66111609Y9018564D01*
X66093942Y9017315D01*
X65986476Y9017290D01*
X65968811Y9018530D01*
X65862401Y9033572D01*
X65845081Y9037278D01*
X65720417Y9073276D01*
X65712004Y9076029D01*
X65695525Y9082071D01*
X65643795Y9097954D01*
X65500655Y9112540D01*
X65421145Y9109259D01*
X65367287Y9104137D01*
X65367280Y9104135D01*
X65299900Y9083943D01*
X65230751Y9063221D01*
X65229456Y9062833D01*
X65229452Y9062832D01*
X65157297Y9029395D01*
X65157254Y9029373D01*
X65109465Y9004036D01*
X64997936Y8913135D01*
X64944043Y8854603D01*
X64909566Y8812880D01*
X64841316Y8686218D01*
X64841315Y8686217D01*
X64840548Y8684123D01*
X64840102Y8683522D01*
X64839470Y8682115D01*
X64839164Y8682253D01*
X64798318Y8627052D01*
X64731936Y8601873D01*
X64722250Y8601500D01*
X64310544Y8601500D01*
X64242423Y8621502D01*
X64195930Y8675158D01*
X64192264Y8684075D01*
X64191269Y8686785D01*
X64191268Y8686787D01*
X64191266Y8686793D01*
X64169918Y8736525D01*
X64088460Y8855125D01*
X64034539Y8913632D01*
X63995795Y8951399D01*
X63995792Y8951401D01*
X63995791Y8951402D01*
X63995788Y8951404D01*
X63875154Y9029800D01*
X63875147Y9029804D01*
X63802950Y9063220D01*
X63752685Y9083292D01*
X63628583Y9106332D01*
X63611223Y9109555D01*
X63611222Y9109556D01*
X63611217Y9109556D01*
X63531739Y9112798D01*
X63531728Y9112798D01*
X63531725Y9112798D01*
X63523530Y9112694D01*
X63477624Y9112108D01*
X63477623Y9112107D01*
X63336875Y9082238D01*
X63320404Y9076190D01*
X63311991Y9073432D01*
X63187331Y9037371D01*
X63170014Y9033658D01*
X63063609Y9018564D01*
X63045942Y9017315D01*
X62938476Y9017290D01*
X62920811Y9018530D01*
X62814401Y9033572D01*
X62797081Y9037278D01*
X62672417Y9073276D01*
X62664004Y9076029D01*
X62647525Y9082071D01*
X62595795Y9097954D01*
X62452655Y9112540D01*
X62373158Y9109259D01*
X62373153Y9109259D01*
X62373139Y9109258D01*
X62352610Y9107306D01*
X62282902Y9120771D01*
X62251590Y9143645D01*
X61944405Y9450830D01*
X61910379Y9513142D01*
X61907500Y9539925D01*
X61907500Y10680897D01*
X61927502Y10749018D01*
X61981158Y10795511D01*
X62051432Y10805615D01*
X62102158Y10786547D01*
X62108848Y10782199D01*
X62144951Y10765489D01*
X62181049Y10748781D01*
X62181053Y10748780D01*
X62181054Y10748779D01*
X62231314Y10728709D01*
X62372777Y10702445D01*
X62452275Y10699202D01*
X62506376Y10699893D01*
X62647122Y10729762D01*
X62663604Y10735815D01*
X62671983Y10738563D01*
X62796677Y10774634D01*
X62813974Y10778342D01*
X62920401Y10793439D01*
X62938043Y10794687D01*
X63045523Y10794712D01*
X63063186Y10793473D01*
X63169604Y10778429D01*
X63186914Y10774725D01*
X63311596Y10738722D01*
X63319987Y10735976D01*
X63336483Y10729927D01*
X63388206Y10714046D01*
X63531345Y10699460D01*
X63610842Y10702741D01*
X63610851Y10702742D01*
X63610854Y10702742D01*
X63625427Y10704128D01*
X63664716Y10707864D01*
X63802541Y10749166D01*
X63857492Y10774631D01*
X63874702Y10782606D01*
X63874713Y10782612D01*
X63874731Y10782620D01*
X63922537Y10807966D01*
X64034065Y10898866D01*
X64087958Y10957399D01*
X64122433Y10999119D01*
X64190683Y11125781D01*
X64191452Y11127877D01*
X64191897Y11128479D01*
X64192530Y11129885D01*
X64192835Y11129748D01*
X64233682Y11184948D01*
X64300064Y11210127D01*
X64309750Y11210500D01*
X64721456Y11210500D01*
X64789577Y11190498D01*
X64836070Y11136842D01*
X64839736Y11127925D01*
X64840730Y11125216D01*
X64840731Y11125214D01*
X64862081Y11075476D01*
X64935540Y10968522D01*
X64943540Y10956875D01*
X64997461Y10898368D01*
X65036205Y10860601D01*
X65150160Y10786545D01*
X65156845Y10782201D01*
X65156852Y10782197D01*
X65229049Y10748781D01*
X65229053Y10748780D01*
X65229054Y10748779D01*
X65279314Y10728709D01*
X65420777Y10702445D01*
X65500275Y10699202D01*
X65554376Y10699893D01*
X65695122Y10729762D01*
X65711604Y10735815D01*
X65719983Y10738563D01*
X65844677Y10774634D01*
X65861974Y10778342D01*
X65968401Y10793439D01*
X65986043Y10794687D01*
X66093523Y10794712D01*
X66111186Y10793473D01*
X66217604Y10778429D01*
X66234914Y10774725D01*
X66359596Y10738722D01*
X66367987Y10735976D01*
X66384483Y10729927D01*
X66436206Y10714046D01*
X66579345Y10699460D01*
X66658842Y10702741D01*
X66658851Y10702742D01*
X66658854Y10702742D01*
X66673427Y10704128D01*
X66712716Y10707864D01*
X66850541Y10749166D01*
X66905492Y10774631D01*
X66922702Y10782606D01*
X66922713Y10782612D01*
X66922731Y10782620D01*
X66970537Y10807966D01*
X67082065Y10898866D01*
X67135958Y10957399D01*
X67170433Y10999119D01*
X67238683Y11125781D01*
X67266073Y11200483D01*
X67281954Y11252206D01*
X67296540Y11395345D01*
X67295607Y11417954D01*
X67295500Y11423147D01*
X67295500Y12455995D01*
X67293414Y12485158D01*
X67290355Y12527940D01*
X67280426Y12561755D01*
X67280426Y12632750D01*
X67318809Y12692477D01*
X67383389Y12721970D01*
X67453663Y12711867D01*
X67490417Y12686348D01*
X67922595Y12254170D01*
X67956621Y12191858D01*
X67959500Y12165075D01*
X67959500Y11440257D01*
X67959395Y11435121D01*
X67957748Y11394768D01*
X67957748Y11394750D01*
X67958439Y11340642D01*
X67988306Y11199905D01*
X67988309Y11199892D01*
X68015734Y11125207D01*
X68037081Y11075476D01*
X68110540Y10968522D01*
X68118540Y10956875D01*
X68172461Y10898368D01*
X68211205Y10860601D01*
X68325160Y10786545D01*
X68331845Y10782201D01*
X68331852Y10782197D01*
X68404049Y10748781D01*
X68404053Y10748780D01*
X68404054Y10748779D01*
X68454314Y10728709D01*
X68595777Y10702445D01*
X68675275Y10699202D01*
X68729376Y10699893D01*
X68870122Y10729762D01*
X68886604Y10735815D01*
X68894983Y10738563D01*
X69019677Y10774634D01*
X69036974Y10778342D01*
X69143401Y10793439D01*
X69161043Y10794687D01*
X69268523Y10794712D01*
X69286186Y10793473D01*
X69392604Y10778429D01*
X69409914Y10774725D01*
X69534596Y10738722D01*
X69542987Y10735976D01*
X69559483Y10729927D01*
X69611206Y10714046D01*
X69754345Y10699460D01*
X69833842Y10702741D01*
X69833851Y10702742D01*
X69833854Y10702742D01*
X69848427Y10704128D01*
X69887716Y10707864D01*
X70025541Y10749166D01*
X70080492Y10774631D01*
X70097702Y10782606D01*
X70097713Y10782612D01*
X70097731Y10782620D01*
X70145537Y10807966D01*
X70257065Y10898866D01*
X70310958Y10957399D01*
X70345433Y10999119D01*
X70413683Y11125781D01*
X70414452Y11127877D01*
X70414897Y11128479D01*
X70415530Y11129885D01*
X70415835Y11129748D01*
X70456682Y11184948D01*
X70523064Y11210127D01*
X70532750Y11210500D01*
X70944456Y11210500D01*
X71012577Y11190498D01*
X71059070Y11136842D01*
X71062736Y11127925D01*
X71063730Y11125216D01*
X71063731Y11125214D01*
X71085081Y11075476D01*
X71158540Y10968522D01*
X71166540Y10956875D01*
X71220461Y10898368D01*
X71259205Y10860601D01*
X71373160Y10786545D01*
X71379845Y10782201D01*
X71379852Y10782197D01*
X71452049Y10748781D01*
X71452053Y10748780D01*
X71452054Y10748779D01*
X71502314Y10728709D01*
X71643777Y10702445D01*
X71723275Y10699202D01*
X71777376Y10699893D01*
X71918122Y10729762D01*
X71934604Y10735815D01*
X71942983Y10738563D01*
X72067677Y10774634D01*
X72084974Y10778342D01*
X72191401Y10793439D01*
X72209043Y10794687D01*
X72316523Y10794712D01*
X72334186Y10793473D01*
X72440604Y10778429D01*
X72457914Y10774725D01*
X72582596Y10738722D01*
X72590987Y10735976D01*
X72607483Y10729927D01*
X72659206Y10714046D01*
X72802345Y10699460D01*
X72881842Y10702741D01*
X72881851Y10702742D01*
X72881854Y10702742D01*
X72896427Y10704128D01*
X72935716Y10707864D01*
X73073541Y10749166D01*
X73128492Y10774631D01*
X73145702Y10782606D01*
X73145713Y10782612D01*
X73145731Y10782620D01*
X73193537Y10807966D01*
X73305065Y10898866D01*
X73358958Y10957399D01*
X73393433Y10999119D01*
X73461683Y11125781D01*
X73462452Y11127877D01*
X73462897Y11128479D01*
X73463530Y11129885D01*
X73463835Y11129748D01*
X73504682Y11184948D01*
X73571064Y11210127D01*
X73580750Y11210500D01*
X73992456Y11210500D01*
X74060577Y11190498D01*
X74107070Y11136842D01*
X74110736Y11127925D01*
X74111730Y11125216D01*
X74111731Y11125214D01*
X74133081Y11075476D01*
X74206540Y10968522D01*
X74214540Y10956875D01*
X74268461Y10898368D01*
X74307205Y10860601D01*
X74421160Y10786545D01*
X74427845Y10782201D01*
X74427852Y10782197D01*
X74500049Y10748781D01*
X74500053Y10748780D01*
X74500054Y10748779D01*
X74550314Y10728709D01*
X74691777Y10702445D01*
X74771275Y10699202D01*
X74825376Y10699893D01*
X74966122Y10729762D01*
X74982604Y10735815D01*
X74990983Y10738563D01*
X75115677Y10774634D01*
X75132974Y10778342D01*
X75239401Y10793439D01*
X75257043Y10794687D01*
X75364523Y10794712D01*
X75382186Y10793473D01*
X75488604Y10778429D01*
X75505914Y10774725D01*
X75630596Y10738722D01*
X75638987Y10735976D01*
X75655483Y10729927D01*
X75707206Y10714046D01*
X75850345Y10699460D01*
X75929842Y10702741D01*
X75929851Y10702742D01*
X75929854Y10702742D01*
X75944427Y10704128D01*
X75983716Y10707864D01*
X76121541Y10749166D01*
X76176492Y10774631D01*
X76193702Y10782606D01*
X76193717Y10782614D01*
X76193731Y10782620D01*
X76215478Y10794151D01*
X76285031Y10808388D01*
X76351242Y10782763D01*
X76393087Y10725409D01*
X76400500Y10682829D01*
X76400500Y9463927D01*
X76380498Y9395806D01*
X76363595Y9374831D01*
X76118889Y9130126D01*
X76056577Y9096101D01*
X76006795Y9095339D01*
X75930218Y9109556D01*
X75930219Y9109556D01*
X75850739Y9112798D01*
X75850728Y9112798D01*
X75850725Y9112798D01*
X75842530Y9112694D01*
X75796624Y9112108D01*
X75796623Y9112107D01*
X75655875Y9082238D01*
X75639404Y9076190D01*
X75630991Y9073432D01*
X75506331Y9037371D01*
X75489014Y9033658D01*
X75382609Y9018564D01*
X75364942Y9017315D01*
X75257476Y9017290D01*
X75239811Y9018530D01*
X75133401Y9033572D01*
X75116081Y9037278D01*
X74991417Y9073276D01*
X74983004Y9076029D01*
X74966525Y9082071D01*
X74914795Y9097954D01*
X74771655Y9112540D01*
X74692145Y9109259D01*
X74638287Y9104137D01*
X74638280Y9104135D01*
X74570900Y9083943D01*
X74501751Y9063221D01*
X74500456Y9062833D01*
X74500452Y9062832D01*
X74428297Y9029395D01*
X74428254Y9029373D01*
X74380465Y9004036D01*
X74268936Y8913135D01*
X74215043Y8854603D01*
X74180566Y8812880D01*
X74112316Y8686218D01*
X74112315Y8686217D01*
X74084932Y8611533D01*
X74084925Y8611513D01*
X74069046Y8559797D01*
X74069046Y8559795D01*
X74054460Y8416656D01*
X74055393Y8394049D01*
X74055500Y8388855D01*
X74055500Y7356006D01*
X74060644Y7284064D01*
X74060646Y7284056D01*
X74062665Y7277181D01*
X74101181Y7146008D01*
X74178969Y7024968D01*
X74287706Y6930746D01*
X74418584Y6870976D01*
X74561000Y6850500D01*
X74561003Y6850500D01*
X76060994Y6850500D01*
X76061000Y6850500D01*
X76132940Y6855645D01*
X76270992Y6896181D01*
X76392032Y6973969D01*
X76486254Y7082706D01*
X76546024Y7213584D01*
X76566500Y7356000D01*
X76566500Y7827075D01*
X76586502Y7895196D01*
X76603400Y7916166D01*
X77359340Y8672107D01*
X77359350Y8672114D01*
X77481514Y8794278D01*
X77481520Y8794284D01*
X77541135Y8897541D01*
X77560577Y8931215D01*
X77601500Y9083943D01*
X77601500Y9242057D01*
X77601500Y11861779D01*
X77601501Y11861792D01*
X77601501Y12030057D01*
X77601500Y12030061D01*
X77560577Y12182784D01*
X77560576Y12182787D01*
X77481522Y12319713D01*
X77481514Y12319723D01*
X65962708Y23838527D01*
X65962696Y23838541D01*
X65843723Y23957514D01*
X65843719Y23957517D01*
X65843716Y23957520D01*
X65786966Y23990284D01*
X65756903Y24007641D01*
X65756903Y24007642D01*
X65756901Y24007642D01*
X65742010Y24016239D01*
X65706788Y24036576D01*
X65706785Y24036577D01*
X65703340Y24037500D01*
X65554057Y24077501D01*
X65395943Y24077501D01*
X65388225Y24077501D01*
X65388209Y24077500D01*
X62415925Y24077500D01*
X62347804Y24097502D01*
X62301311Y24151158D01*
X62291207Y24221432D01*
X62320701Y24286012D01*
X62326817Y24292583D01*
X63731342Y25697109D01*
X63731351Y25697115D01*
X63853514Y25819278D01*
X63853520Y25819284D01*
X63912280Y25921061D01*
X63932576Y25956214D01*
X63932577Y25956216D01*
X63947819Y26013103D01*
X63975889Y26064801D01*
X63978868Y26068111D01*
X63978871Y26068112D01*
X64105533Y26208784D01*
X64200179Y26372716D01*
X64236213Y26483615D01*
X64258674Y26552744D01*
X64277059Y26727670D01*
X64304072Y26793327D01*
X64362293Y26833957D01*
X64402369Y26840500D01*
X70722209Y26840500D01*
X70722225Y26840499D01*
X70729943Y26840499D01*
X70888054Y26840499D01*
X70888057Y26840499D01*
X71040785Y26881423D01*
X71119726Y26927000D01*
X71177716Y26960480D01*
X71289520Y27072284D01*
X71299887Y27082651D01*
X71299894Y27082661D01*
X74614830Y30397596D01*
X74677142Y30431622D01*
X74703925Y30434501D01*
X75328009Y30434501D01*
X75430797Y30445001D01*
X75597334Y30500186D01*
X75610990Y30508609D01*
X75746656Y30592288D01*
X75870712Y30716344D01*
X75870715Y30716351D01*
X75872916Y30719132D01*
X75874920Y30720552D01*
X75875902Y30721533D01*
X75876069Y30721366D01*
X75930855Y30760164D01*
X76001779Y30763358D01*
X76063172Y30727700D01*
X76091360Y30680620D01*
X76118185Y30599666D01*
X76210288Y30450344D01*
X76210293Y30450338D01*
X76334337Y30326294D01*
X76334343Y30326289D01*
X76334344Y30326288D01*
X76362848Y30308707D01*
X76483665Y30234186D01*
X76650196Y30179003D01*
X76650197Y30179003D01*
X76650203Y30179001D01*
X76752991Y30168500D01*
X77378008Y30168501D01*
X77378009Y30168501D01*
X77480797Y30179001D01*
X77647334Y30234186D01*
X77658367Y30240991D01*
X77796656Y30326288D01*
X77840386Y30370018D01*
X77888905Y30418536D01*
X77951217Y30452562D01*
X78022032Y30447497D01*
X78067095Y30418536D01*
X78159337Y30326294D01*
X78159343Y30326289D01*
X78159344Y30326288D01*
X78187848Y30308707D01*
X78308665Y30234186D01*
X78475196Y30179003D01*
X78475197Y30179003D01*
X78475203Y30179001D01*
X78577991Y30168500D01*
X79203008Y30168501D01*
X79203009Y30168501D01*
X79305797Y30179001D01*
X79305803Y30179003D01*
X79472334Y30234186D01*
X79597241Y30311229D01*
X79665718Y30329966D01*
X79733457Y30308707D01*
X79778949Y30254200D01*
X79787750Y30183751D01*
X79782991Y30164356D01*
X79750001Y30064799D01*
X79750000Y30064792D01*
X79739500Y29962018D01*
X79739500Y29136991D01*
X79750000Y29034203D01*
X79805185Y28867666D01*
X79897288Y28718344D01*
X79897293Y28718338D01*
X79991437Y28624194D01*
X80025463Y28561882D01*
X80020398Y28491067D01*
X79977851Y28434231D01*
X79915811Y28409821D01*
X79862518Y28404092D01*
X79727673Y28353799D01*
X79727670Y28353797D01*
X79612453Y28267547D01*
X79526203Y28152330D01*
X79526201Y28152327D01*
X79475909Y28017485D01*
X79469500Y27957879D01*
X79469500Y23862136D01*
X79469502Y23862115D01*
X79475908Y23802520D01*
X79475908Y23802519D01*
X79526201Y23667674D01*
X79526203Y23667671D01*
X79612453Y23552454D01*
X79670061Y23509329D01*
X79727669Y23466204D01*
X79727671Y23466204D01*
X79727673Y23466202D01*
X79788030Y23443691D01*
X79862514Y23415910D01*
X79862517Y23415909D01*
X79922127Y23409500D01*
X84017872Y23409501D01*
X84077483Y23415909D01*
X84212331Y23466204D01*
X84327546Y23552454D01*
X84413796Y23667669D01*
X84414911Y23670657D01*
X84425369Y23698697D01*
X84464091Y23802517D01*
X84470500Y23862127D01*
X84470499Y27957872D01*
X84464091Y28017483D01*
X84429025Y28111501D01*
X84413798Y28152327D01*
X84413796Y28152330D01*
X84413796Y28152331D01*
X84370671Y28209939D01*
X84327546Y28267547D01*
X84229809Y28340712D01*
X84212331Y28353796D01*
X84212329Y28353797D01*
X84212326Y28353799D01*
X84077483Y28404091D01*
X84077486Y28404091D01*
X84017878Y28410500D01*
X84017873Y28410500D01*
X83929059Y28410500D01*
X83860938Y28430502D01*
X83814445Y28484158D01*
X83804341Y28554432D01*
X83833835Y28619012D01*
X83839964Y28625595D01*
X83932706Y28718338D01*
X83932712Y28718344D01*
X84024814Y28867666D01*
X84079999Y29034203D01*
X84090500Y29136991D01*
X84090499Y29962008D01*
X84089512Y29971666D01*
X84079999Y30064798D01*
X84024814Y30231335D01*
X83963633Y30330524D01*
X83932712Y30380656D01*
X83932711Y30380657D01*
X83932706Y30380663D01*
X83808662Y30504707D01*
X83808656Y30504712D01*
X83659334Y30596815D01*
X83492803Y30651998D01*
X83492791Y30652000D01*
X83390017Y30662500D01*
X83390009Y30662500D01*
X82735931Y30662500D01*
X82667810Y30682502D01*
X82621317Y30736158D01*
X82619522Y30740282D01*
X82614810Y30751657D01*
X82580084Y30835495D01*
X82539512Y30896216D01*
X82497952Y30958416D01*
X82497951Y30958417D01*
X82497948Y30958421D01*
X81504420Y31951949D01*
X81504416Y31951952D01*
X81413088Y32012974D01*
X81413088Y32012975D01*
X81381499Y32034082D01*
X81381495Y32034084D01*
X81244916Y32090657D01*
X81244913Y32090658D01*
X81221682Y32095279D01*
X81099918Y32119500D01*
X81099916Y32119500D01*
X79919755Y32119500D01*
X79851634Y32139502D01*
X79812514Y32179353D01*
X79772524Y32244186D01*
X79745712Y32287656D01*
X79745711Y32287657D01*
X79745706Y32287663D01*
X79621662Y32411707D01*
X79621656Y32411712D01*
X79472334Y32503815D01*
X79305803Y32558998D01*
X79305791Y32559000D01*
X79203017Y32569500D01*
X79203009Y32569500D01*
X78704500Y32569500D01*
X78636379Y32589502D01*
X78589886Y32643158D01*
X78578500Y32695500D01*
X78578500Y47257879D01*
X79469500Y47257879D01*
X79469500Y43162136D01*
X79469502Y43162115D01*
X79475908Y43102520D01*
X79475908Y43102519D01*
X79526201Y42967674D01*
X79526203Y42967671D01*
X79526204Y42967669D01*
X79534327Y42956818D01*
X79612453Y42852454D01*
X79651511Y42823216D01*
X79727669Y42766204D01*
X79727671Y42766204D01*
X79727673Y42766202D01*
X79788030Y42743691D01*
X79862514Y42715910D01*
X79862517Y42715909D01*
X79922127Y42709500D01*
X84017872Y42709501D01*
X84077483Y42715909D01*
X84212331Y42766204D01*
X84327546Y42852454D01*
X84413796Y42967669D01*
X84464091Y43102517D01*
X84470500Y43162127D01*
X84470499Y47257872D01*
X84464091Y47317483D01*
X84427279Y47416182D01*
X84413798Y47452327D01*
X84413796Y47452330D01*
X84413796Y47452331D01*
X84367970Y47513546D01*
X84327546Y47567547D01*
X84237442Y47634998D01*
X84212331Y47653796D01*
X84212329Y47653797D01*
X84212326Y47653799D01*
X84077483Y47704091D01*
X84077486Y47704091D01*
X84017873Y47710500D01*
X79922135Y47710500D01*
X79922114Y47710498D01*
X79862519Y47704092D01*
X79862518Y47704092D01*
X79727673Y47653799D01*
X79727670Y47653797D01*
X79612453Y47567547D01*
X79526203Y47452330D01*
X79526201Y47452327D01*
X79475909Y47317485D01*
X79469500Y47257879D01*
X78578500Y47257879D01*
X78578500Y51034162D01*
X78578503Y51034219D01*
X78578502Y51042963D01*
X78578504Y51042967D01*
X78578500Y51157336D01*
X78578500Y51201057D01*
X78578500Y51201072D01*
X78578499Y51201077D01*
X78577202Y51205915D01*
X78553901Y51292861D01*
X78537762Y51353092D01*
X78537587Y51353768D01*
X78537582Y51353781D01*
X78537567Y51353807D01*
X78537567Y51353808D01*
X78500116Y51418669D01*
X78468813Y51472887D01*
X78458916Y51490030D01*
X78458543Y51490689D01*
X78458513Y51490727D01*
X78405181Y51544056D01*
X78405176Y51544060D01*
X78346716Y51602520D01*
X78346715Y51602521D01*
X78341530Y51607706D01*
X78341481Y51607750D01*
X75011408Y54937547D01*
X74977381Y54999858D01*
X74974500Y55026646D01*
X74974500Y60674642D01*
X74974547Y60753690D01*
X74974546Y60753691D01*
X74974547Y60753699D01*
X74974544Y60753708D01*
X74974500Y60754049D01*
X74974500Y60754057D01*
X74960673Y60805661D01*
X74954099Y60830196D01*
X74954080Y60830267D01*
X74933716Y60906446D01*
X74933715Y60906451D01*
X74933711Y60906458D01*
X74933578Y60906778D01*
X74933577Y60906784D01*
X74893876Y60975548D01*
X74854739Y61043429D01*
X74854736Y61043432D01*
X74854730Y61043443D01*
X74854525Y61043711D01*
X74837368Y61060868D01*
X74797900Y61100336D01*
X74797864Y61100403D01*
X74797849Y61100387D01*
X74274530Y61624332D01*
X74274003Y61624933D01*
X74268520Y61630416D01*
X74212270Y61686666D01*
X74212234Y61686733D01*
X74212219Y61686717D01*
X74157003Y61741999D01*
X74157002Y61742000D01*
X74156997Y61742005D01*
X74156717Y61742220D01*
X74088068Y61781854D01*
X74088015Y61781910D01*
X74088005Y61781891D01*
X74020110Y61821144D01*
X74020067Y61821161D01*
X74019816Y61821265D01*
X74019795Y61821274D01*
X74019735Y61821290D01*
X73943733Y61841655D01*
X73943732Y61841656D01*
X73943734Y61841666D01*
X73943659Y61841675D01*
X73867409Y61862156D01*
X73867070Y61862200D01*
X73867057Y61862200D01*
X73789191Y61862200D01*
X73701541Y61862253D01*
X73700732Y61862200D01*
X63365820Y61862200D01*
X63277978Y61862205D01*
X63277977Y61862205D01*
X63277968Y61862205D01*
X63277952Y61862203D01*
X63202023Y61841858D01*
X63202019Y61841857D01*
X63125229Y61821285D01*
X63080494Y61795459D01*
X63052524Y61779310D01*
X62988295Y61742232D01*
X62928737Y61682674D01*
X61088077Y59842231D01*
X61025763Y59808210D01*
X60954948Y59813279D01*
X60898120Y59855822D01*
X60860746Y59905746D01*
X60822599Y59934303D01*
X60745531Y59991996D01*
X60745529Y59991997D01*
X60745526Y59991999D01*
X60610683Y60042291D01*
X60610686Y60042291D01*
X60551073Y60048700D01*
X58778935Y60048700D01*
X58778914Y60048698D01*
X58719319Y60042292D01*
X58719318Y60042292D01*
X58584473Y59991999D01*
X58584470Y59991997D01*
X58469253Y59905747D01*
X58383003Y59790530D01*
X58383001Y59790527D01*
X58332709Y59655685D01*
X58326300Y59596079D01*
X58326300Y57823936D01*
X58326302Y57823915D01*
X58332708Y57764320D01*
X58332708Y57764319D01*
X58383001Y57629474D01*
X58383003Y57629471D01*
X58469253Y57514254D01*
X58503216Y57488830D01*
X58584469Y57428004D01*
X58584471Y57428004D01*
X58584473Y57428002D01*
X58644830Y57405491D01*
X58719314Y57377710D01*
X58719317Y57377709D01*
X58778927Y57371300D01*
X60551072Y57371301D01*
X60610683Y57377709D01*
X60745531Y57428004D01*
X60860746Y57514254D01*
X60946996Y57629469D01*
X60997291Y57764317D01*
X61003700Y57823927D01*
X61003699Y58058576D01*
X61023701Y58126696D01*
X61066697Y58167694D01*
X61110031Y58192712D01*
X61171819Y58228380D01*
X61173770Y58229460D01*
X61173777Y58229465D01*
X61175497Y58231262D01*
X61233262Y58289027D01*
X61505723Y58561456D01*
X63568812Y60624301D01*
X63631126Y60658322D01*
X63657902Y60661200D01*
X66429500Y60661200D01*
X66497621Y60641198D01*
X66544114Y60587542D01*
X66555500Y60535200D01*
X66555500Y59388136D01*
X66555502Y59388115D01*
X66561908Y59328520D01*
X66561908Y59328519D01*
X66612201Y59193674D01*
X66612203Y59193671D01*
X66612204Y59193669D01*
X66655086Y59136386D01*
X66698452Y59078456D01*
X66698453Y59078456D01*
X66698454Y59078454D01*
X66764693Y59028867D01*
X66807239Y58972032D01*
X66812303Y58901216D01*
X66778278Y58838904D01*
X66764697Y58827137D01*
X66743549Y58811304D01*
X66698452Y58777545D01*
X66612203Y58662330D01*
X66612201Y58662327D01*
X66561909Y58527485D01*
X66555500Y58467879D01*
X66555500Y57296927D01*
X66535498Y57228806D01*
X66518595Y57207832D01*
X60178780Y50868016D01*
X53843086Y44532322D01*
X53843084Y44532320D01*
X53805756Y44494992D01*
X53731281Y44420518D01*
X53731280Y44420516D01*
X53702115Y44369999D01*
X53697948Y44362782D01*
X53697947Y44362781D01*
X53652223Y44283587D01*
X53632731Y44210842D01*
X53611299Y44130857D01*
X53611299Y44130855D01*
X53611299Y43962593D01*
X53611300Y43962580D01*
X53611300Y40037174D01*
X53591298Y39969053D01*
X53537642Y39922560D01*
X53467368Y39912456D01*
X53411239Y39935238D01*
X53284733Y40027150D01*
X53284732Y40027151D01*
X53140244Y40091481D01*
X53111803Y40104144D01*
X53111801Y40104145D01*
X53111800Y40104145D01*
X52926646Y40143500D01*
X52737354Y40143500D01*
X52552199Y40104145D01*
X52379267Y40027151D01*
X52379267Y40027150D01*
X52226126Y39915887D01*
X52099467Y39775217D01*
X52004822Y39611287D01*
X52004818Y39611279D01*
X51946325Y39431257D01*
X51926540Y39243000D01*
X51946325Y39054744D01*
X52004818Y38874722D01*
X52004822Y38874714D01*
X52099465Y38710786D01*
X52099466Y38710784D01*
X52226126Y38570114D01*
X52379267Y38458851D01*
X52379267Y38458850D01*
X52426612Y38437771D01*
X52552197Y38381856D01*
X52737354Y38342500D01*
X52926646Y38342500D01*
X53111803Y38381856D01*
X53284730Y38458849D01*
X53373437Y38523298D01*
X53440305Y38547157D01*
X53447498Y38547362D01*
X53957202Y38547362D01*
X53957207Y38547362D01*
X53978053Y38551509D01*
X54048766Y38545183D01*
X54104834Y38501630D01*
X54111755Y38490932D01*
X54131471Y38456783D01*
X54258130Y38316114D01*
X54411271Y38204851D01*
X54411271Y38204850D01*
X54421695Y38200209D01*
X54584201Y38127856D01*
X54769358Y38088500D01*
X54958650Y38088500D01*
X55143807Y38127856D01*
X55316734Y38204849D01*
X55316734Y38204850D01*
X55316736Y38204850D01*
X55316736Y38204851D01*
X55469875Y38316112D01*
X55503033Y38352937D01*
X55596537Y38456784D01*
X55596538Y38456786D01*
X55597738Y38458864D01*
X55691183Y38620716D01*
X55702651Y38656009D01*
X55749678Y38800744D01*
X55750042Y38804209D01*
X55753668Y38838714D01*
X55780679Y38904370D01*
X55838900Y38945001D01*
X55909845Y38947706D01*
X55968073Y38914640D01*
X56026459Y38856254D01*
X56026473Y38856242D01*
X56175054Y38707661D01*
X56209080Y38645349D01*
X56204015Y38574534D01*
X56166738Y38524740D01*
X56168032Y38523303D01*
X56163125Y38518886D01*
X56036466Y38378217D01*
X56036465Y38378215D01*
X55941822Y38214287D01*
X55941818Y38214279D01*
X55883325Y38034257D01*
X55863540Y37846000D01*
X55883325Y37657744D01*
X55941818Y37477722D01*
X55941822Y37477714D01*
X56036464Y37313788D01*
X56036465Y37313786D01*
X56036467Y37313784D01*
X56092947Y37251057D01*
X56136136Y37203091D01*
X56166853Y37139083D01*
X56168500Y37118780D01*
X56168500Y33125927D01*
X56148498Y33057806D01*
X56094842Y33011313D01*
X56024568Y33001209D01*
X55959988Y33030703D01*
X55953405Y33036832D01*
X55835327Y33154910D01*
X55835304Y33154931D01*
X54916183Y34074052D01*
X54882157Y34136364D01*
X54885673Y34202779D01*
X54910999Y34279203D01*
X54921500Y34381991D01*
X54921499Y35007008D01*
X54920902Y35012848D01*
X54910999Y35109798D01*
X54855814Y35276335D01*
X54773060Y35410500D01*
X54763712Y35425656D01*
X54763711Y35425657D01*
X54763706Y35425663D01*
X54639662Y35549707D01*
X54639656Y35549712D01*
X54490334Y35641815D01*
X54323803Y35696998D01*
X54323791Y35697000D01*
X54221017Y35707500D01*
X53220990Y35707500D01*
X53118202Y35697000D01*
X53118196Y35696998D01*
X53056955Y35676706D01*
X52986001Y35674267D01*
X52928230Y35707216D01*
X50472472Y38162974D01*
X50438446Y38225286D01*
X50443511Y38296101D01*
X50486058Y38352937D01*
X50498564Y38361187D01*
X50533716Y38381481D01*
X50650341Y38498107D01*
X50650350Y38498114D01*
X50772514Y38620278D01*
X50772520Y38620284D01*
X50828557Y38717343D01*
X50851577Y38757215D01*
X50892500Y38909943D01*
X50892500Y39068057D01*
X50892500Y39068058D01*
X50892500Y52784057D01*
X50890876Y52790116D01*
X50878785Y52835243D01*
X50851577Y52936784D01*
X50832517Y52969797D01*
X50772522Y53073713D01*
X50772514Y53073723D01*
X50656327Y53189910D01*
X50656304Y53189931D01*
X46357405Y57488830D01*
X46323379Y57551142D01*
X46320500Y57577925D01*
X46320500Y58301501D01*
X46340502Y58369622D01*
X46394158Y58416115D01*
X46446500Y58427501D01*
X46529865Y58427501D01*
X46529872Y58427501D01*
X46589483Y58433909D01*
X46691970Y58472135D01*
X46762784Y58477198D01*
X46780024Y58472137D01*
X46882517Y58433909D01*
X46942127Y58427500D01*
X48561872Y58427501D01*
X48621483Y58433909D01*
X48737547Y58477198D01*
X48756326Y58484202D01*
X48756326Y58484203D01*
X48756331Y58484204D01*
X48871546Y58570454D01*
X48957796Y58685669D01*
X48962292Y58697722D01*
X48992063Y58777545D01*
X49008091Y58820517D01*
X49014500Y58880127D01*
X49014500Y59596079D01*
X52026300Y59596079D01*
X52026300Y57823936D01*
X52026302Y57823915D01*
X52032708Y57764320D01*
X52032708Y57764319D01*
X52083001Y57629474D01*
X52083003Y57629471D01*
X52169253Y57514254D01*
X52203216Y57488830D01*
X52284469Y57428004D01*
X52284471Y57428004D01*
X52284473Y57428002D01*
X52344830Y57405491D01*
X52419314Y57377710D01*
X52419317Y57377709D01*
X52478927Y57371300D01*
X54251072Y57371301D01*
X54310683Y57377709D01*
X54445531Y57428004D01*
X54560746Y57514254D01*
X54646996Y57629469D01*
X54697291Y57764317D01*
X54703700Y57823927D01*
X54703699Y59596072D01*
X54697291Y59655683D01*
X54671273Y59725440D01*
X54646998Y59790527D01*
X54646996Y59790530D01*
X54646996Y59790531D01*
X54588247Y59869010D01*
X54560746Y59905747D01*
X54483791Y59963355D01*
X54445531Y59991996D01*
X54445529Y59991997D01*
X54445526Y59991999D01*
X54310683Y60042291D01*
X54310686Y60042291D01*
X54251073Y60048700D01*
X52478935Y60048700D01*
X52478914Y60048698D01*
X52419319Y60042292D01*
X52419318Y60042292D01*
X52284473Y59991999D01*
X52284470Y59991997D01*
X52169253Y59905747D01*
X52083003Y59790530D01*
X52083001Y59790527D01*
X52032709Y59655685D01*
X52026300Y59596079D01*
X49014500Y59596079D01*
X49014499Y60499872D01*
X49008091Y60559483D01*
X48986800Y60616565D01*
X48957798Y60694327D01*
X48957796Y60694330D01*
X48957796Y60694331D01*
X48871546Y60809546D01*
X48805306Y60859134D01*
X48762760Y60915968D01*
X48757696Y60986783D01*
X48791721Y61049095D01*
X48805302Y61060864D01*
X48871546Y61110454D01*
X48957796Y61225669D01*
X49008091Y61360517D01*
X49014500Y61420127D01*
X49014499Y63039872D01*
X49008091Y63099483D01*
X48982954Y63166879D01*
X48957798Y63234327D01*
X48957796Y63234330D01*
X48957796Y63234331D01*
X48884620Y63332082D01*
X48871546Y63349547D01*
X48767999Y63427061D01*
X48756331Y63435796D01*
X48756329Y63435797D01*
X48756326Y63435799D01*
X48621483Y63486091D01*
X48621486Y63486091D01*
X48561873Y63492500D01*
X46942135Y63492500D01*
X46942114Y63492498D01*
X46882519Y63486092D01*
X46882518Y63486092D01*
X46780031Y63447867D01*
X46709215Y63442803D01*
X46691969Y63447867D01*
X46589484Y63486091D01*
X46589486Y63486091D01*
X46529873Y63492500D01*
X44910135Y63492500D01*
X44910114Y63492498D01*
X44850519Y63486092D01*
X44850518Y63486092D01*
X44715673Y63435799D01*
X44715670Y63435797D01*
X44600453Y63349546D01*
X44597545Y63345661D01*
X44540708Y63303117D01*
X44469892Y63298054D01*
X44407581Y63332082D01*
X44386097Y63360780D01*
X44385797Y63361329D01*
X44354620Y63402976D01*
X44349133Y63410307D01*
X44299546Y63476547D01*
X44222591Y63534155D01*
X44184331Y63562796D01*
X44184329Y63562797D01*
X44184326Y63562799D01*
X44049483Y63613091D01*
X44049486Y63613091D01*
X43989873Y63619500D01*
X42370135Y63619500D01*
X42370114Y63619498D01*
X42310519Y63613092D01*
X42310518Y63613092D01*
X42175673Y63562799D01*
X42175670Y63562797D01*
X42060455Y63476548D01*
X42048207Y63460186D01*
X42010866Y63410307D01*
X41954032Y63367761D01*
X41883216Y63362697D01*
X41820904Y63396722D01*
X41809136Y63410303D01*
X41759546Y63476546D01*
X41759544Y63476547D01*
X41759544Y63476548D01*
X41701614Y63519914D01*
X41644331Y63562796D01*
X41644329Y63562797D01*
X41644326Y63562799D01*
X41509483Y63613091D01*
X41509486Y63613091D01*
X41449873Y63619500D01*
X39830135Y63619500D01*
X39830114Y63619498D01*
X39770519Y63613092D01*
X39770518Y63613092D01*
X39635673Y63562799D01*
X39635670Y63562797D01*
X39520453Y63476547D01*
X39434203Y63361330D01*
X39434201Y63361327D01*
X39383909Y63226485D01*
X39377500Y63166879D01*
X39377500Y61547136D01*
X39377502Y61547115D01*
X39383908Y61487520D01*
X39383908Y61487519D01*
X39434201Y61352674D01*
X39434203Y61352671D01*
X39434204Y61352669D01*
X39477086Y61295386D01*
X39520452Y61237456D01*
X39520453Y61237456D01*
X39520454Y61237454D01*
X39586693Y61187867D01*
X39629239Y61131032D01*
X39634303Y61060216D01*
X39600278Y60997904D01*
X39586697Y60986137D01*
X39561803Y60967500D01*
X39520452Y60936545D01*
X39434203Y60821330D01*
X39434201Y60821327D01*
X39383909Y60686485D01*
X39377500Y60626879D01*
X39377500Y59007136D01*
X39377502Y59007115D01*
X39383908Y58947520D01*
X39383908Y58947519D01*
X39434201Y58812674D01*
X39434203Y58812671D01*
X39520453Y58697454D01*
X39578061Y58654329D01*
X39635669Y58611204D01*
X39635671Y58611204D01*
X39635673Y58611202D01*
X39696030Y58588691D01*
X39770514Y58560910D01*
X39770517Y58560909D01*
X39830127Y58554500D01*
X41449872Y58554501D01*
X41509483Y58560909D01*
X41644331Y58611204D01*
X41759546Y58697454D01*
X41809133Y58763694D01*
X41865968Y58806240D01*
X41936783Y58811304D01*
X41999095Y58777279D01*
X42010863Y58763698D01*
X42060454Y58697454D01*
X42175669Y58611204D01*
X42175671Y58611204D01*
X42175673Y58611202D01*
X42236030Y58588691D01*
X42310514Y58560910D01*
X42310517Y58560909D01*
X42370127Y58554500D01*
X42480709Y58554501D01*
X42548827Y58534500D01*
X42595320Y58480844D01*
X42605425Y58410570D01*
X42575932Y58345989D01*
X42520341Y58308897D01*
X42447664Y58284814D01*
X42356171Y58228380D01*
X42298344Y58192712D01*
X42298343Y58192711D01*
X42298337Y58192707D01*
X42174293Y58068663D01*
X42174288Y58068657D01*
X42082185Y57919335D01*
X42027002Y57752804D01*
X42027000Y57752792D01*
X42016500Y57650018D01*
X42016500Y56649991D01*
X42027000Y56547203D01*
X42082185Y56380666D01*
X42174288Y56231344D01*
X42174293Y56231338D01*
X42298337Y56107294D01*
X42298343Y56107289D01*
X42298344Y56107288D01*
X42355563Y56071996D01*
X42447665Y56015186D01*
X42614196Y55960003D01*
X42614197Y55960003D01*
X42614203Y55960001D01*
X42716991Y55949500D01*
X43342008Y55949501D01*
X43342009Y55949501D01*
X43444797Y55960001D01*
X43611334Y56015186D01*
X43760656Y56107288D01*
X43760662Y56107294D01*
X43852905Y56199536D01*
X43915217Y56233562D01*
X43986032Y56228497D01*
X44031095Y56199536D01*
X44123337Y56107294D01*
X44123343Y56107289D01*
X44123344Y56107288D01*
X44180563Y56071996D01*
X44272665Y56015186D01*
X44439196Y55960003D01*
X44439197Y55960003D01*
X44439203Y55960001D01*
X44541991Y55949500D01*
X45167008Y55949501D01*
X45167009Y55949501D01*
X45269797Y55960001D01*
X45436334Y56015186D01*
X45585656Y56107288D01*
X45709712Y56231344D01*
X45709717Y56231354D01*
X45713162Y56235709D01*
X45771099Y56276744D01*
X45842024Y56279941D01*
X45901101Y56246664D01*
X49654595Y52493170D01*
X49688621Y52430858D01*
X49691500Y52404075D01*
X49691500Y39276636D01*
X49674618Y39213634D01*
X49664186Y39195566D01*
X49612803Y39146574D01*
X49543089Y39133139D01*
X49477178Y39159527D01*
X49465973Y39169473D01*
X47677405Y40958041D01*
X47643379Y41020353D01*
X47640500Y41047136D01*
X47640500Y49910797D01*
X47660502Y49978918D01*
X47692439Y50012733D01*
X47696728Y50015849D01*
X47849869Y50127112D01*
X47976531Y50267784D01*
X48071177Y50431716D01*
X48129672Y50611744D01*
X48149458Y50800000D01*
X48129672Y50988256D01*
X48111900Y51042953D01*
X48071179Y51168279D01*
X48071175Y51168287D01*
X48052255Y51201057D01*
X47999249Y51292867D01*
X47976532Y51332215D01*
X47976531Y51332217D01*
X47849871Y51472887D01*
X47696730Y51584150D01*
X47696730Y51584151D01*
X47556339Y51646657D01*
X47523801Y51661144D01*
X47523799Y51661145D01*
X47523798Y51661145D01*
X47338644Y51700500D01*
X47149352Y51700500D01*
X46964197Y51661145D01*
X46791265Y51584151D01*
X46791265Y51584150D01*
X46638124Y51472887D01*
X46511464Y51332217D01*
X46511463Y51332215D01*
X46416820Y51168287D01*
X46416816Y51168279D01*
X46358323Y50988257D01*
X46338538Y50800000D01*
X46349933Y50691573D01*
X46348202Y50653824D01*
X46339500Y50610079D01*
X46339500Y50518390D01*
X46319498Y50450269D01*
X46265842Y50403776D01*
X46206688Y50394114D01*
X46206688Y50393105D01*
X46200512Y50393105D01*
X46200347Y50393078D01*
X46200090Y50393105D01*
X46200085Y50393105D01*
X46010793Y50393105D01*
X45825638Y50353750D01*
X45652706Y50276756D01*
X45652706Y50276755D01*
X45499565Y50165492D01*
X45372905Y50024822D01*
X45372904Y50024820D01*
X45278261Y49860892D01*
X45278257Y49860884D01*
X45219764Y49680863D01*
X45203407Y49525227D01*
X45176394Y49459571D01*
X45118172Y49418941D01*
X45047227Y49416238D01*
X44986083Y49452320D01*
X44973337Y49468390D01*
X44907777Y49566508D01*
X44907773Y49566512D01*
X44907770Y49566516D01*
X44768405Y49705881D01*
X44734379Y49768193D01*
X44731500Y49794976D01*
X44731500Y53003066D01*
X44731500Y53003070D01*
X44706501Y53128745D01*
X44657465Y53247128D01*
X44586276Y53353670D01*
X44495669Y53444277D01*
X42598669Y55341278D01*
X42589692Y55347276D01*
X42492127Y55412466D01*
X42425857Y55439916D01*
X42373745Y55461502D01*
X42331852Y55469835D01*
X42248069Y55486501D01*
X40849932Y55486501D01*
X40844493Y55485419D01*
X40724255Y55461502D01*
X40724254Y55461501D01*
X40605873Y55412466D01*
X40499330Y55341278D01*
X40365772Y55207720D01*
X40343089Y55189739D01*
X40340573Y55188179D01*
X40135199Y55015954D01*
X40070150Y54987509D01*
X40054238Y54986500D01*
X39906134Y54986500D01*
X39906113Y54986498D01*
X39846519Y54980092D01*
X39846518Y54980092D01*
X39711669Y54929797D01*
X39699508Y54920693D01*
X39632988Y54895883D01*
X39563614Y54910975D01*
X39548492Y54920693D01*
X39536330Y54929797D01*
X39401483Y54980091D01*
X39401486Y54980091D01*
X39341873Y54986500D01*
X38636135Y54986500D01*
X38636114Y54986498D01*
X38576519Y54980092D01*
X38576518Y54980092D01*
X38445107Y54931079D01*
X38374292Y54926015D01*
X38311980Y54960040D01*
X38282002Y55011968D01*
X38281736Y55011857D01*
X38280898Y55013879D01*
X38279368Y55016529D01*
X38278577Y55019484D01*
X38226656Y55109415D01*
X38199522Y55156413D01*
X38199514Y55156423D01*
X38087722Y55268215D01*
X38087712Y55268223D01*
X37950788Y55347276D01*
X37903211Y55360024D01*
X37798057Y55388200D01*
X37798055Y55388200D01*
X37302892Y55388200D01*
X37234771Y55408202D01*
X37213804Y55425097D01*
X36893980Y55744869D01*
X34327777Y58310659D01*
X34327777Y58310660D01*
X34327772Y58310664D01*
X34265716Y58372720D01*
X34265715Y58372721D01*
X34265714Y58372722D01*
X34265683Y58372746D01*
X34201742Y58409655D01*
X34158997Y58434334D01*
X34110005Y58485716D01*
X34095999Y58543452D01*
X34095999Y59845065D01*
X34095999Y59845072D01*
X34089591Y59904683D01*
X34068300Y59961765D01*
X34039298Y60039527D01*
X34039296Y60039530D01*
X34039296Y60039531D01*
X33996171Y60097139D01*
X33953046Y60154747D01*
X33876091Y60212355D01*
X33837831Y60240996D01*
X33837829Y60240997D01*
X33837826Y60240999D01*
X33702983Y60291291D01*
X33702986Y60291291D01*
X33643373Y60297700D01*
X29737635Y60297700D01*
X29737614Y60297698D01*
X29678019Y60291292D01*
X29678018Y60291292D01*
X29543173Y60240999D01*
X29543170Y60240997D01*
X29427953Y60154747D01*
X29341703Y60039530D01*
X29341702Y60039529D01*
X29308556Y59950657D01*
X29266010Y59893821D01*
X29199490Y59869010D01*
X29130115Y59884101D01*
X29079913Y59934303D01*
X29072444Y59950657D01*
X29039297Y60039529D01*
X29039296Y60039530D01*
X29039296Y60039531D01*
X28996171Y60097139D01*
X28953046Y60154747D01*
X28876091Y60212355D01*
X28837831Y60240996D01*
X28837829Y60240997D01*
X28837826Y60240999D01*
X28702983Y60291291D01*
X28702986Y60291291D01*
X28643373Y60297700D01*
X24737635Y60297700D01*
X24737614Y60297698D01*
X24678019Y60291292D01*
X24678018Y60291292D01*
X24543173Y60240999D01*
X24543170Y60240997D01*
X24427953Y60154747D01*
X24341703Y60039530D01*
X24341701Y60039527D01*
X24291409Y59904685D01*
X24285000Y59845079D01*
X24285000Y55939336D01*
X24285002Y55939315D01*
X24291408Y55879720D01*
X24291408Y55879719D01*
X24341701Y55744874D01*
X24341703Y55744871D01*
X24427953Y55629654D01*
X24475543Y55594029D01*
X24543169Y55543404D01*
X24543171Y55543404D01*
X24543173Y55543402D01*
X24603530Y55520891D01*
X24678014Y55493110D01*
X24678017Y55493109D01*
X24737627Y55486700D01*
X26690224Y55486701D01*
X26758344Y55466699D01*
X26804837Y55413043D01*
X26814941Y55342769D01*
X26785447Y55278189D01*
X26768379Y55263397D01*
X26768780Y55262934D01*
X26761968Y55257032D01*
X26667746Y55148295D01*
X26607976Y55017417D01*
X26607766Y55015954D01*
X26590503Y54895883D01*
X26590170Y54893568D01*
X26560676Y54828988D01*
X26500950Y54790604D01*
X26465452Y54785500D01*
X25778000Y54785500D01*
X25752588Y54783683D01*
X25706063Y54780356D01*
X25706055Y54780354D01*
X25568008Y54739819D01*
X25568002Y54739817D01*
X25467871Y54675466D01*
X25399751Y54655464D01*
X25331630Y54675466D01*
X25317239Y54686239D01*
X25295294Y54705254D01*
X25164416Y54765024D01*
X25022000Y54785500D01*
X25021997Y54785500D01*
X24336211Y54785500D01*
X24268090Y54805502D01*
X24221597Y54859158D01*
X24210532Y54902512D01*
X24209065Y54923020D01*
X24207355Y54946940D01*
X24166819Y55084992D01*
X24089031Y55206032D01*
X23980294Y55300254D01*
X23849416Y55360024D01*
X23707000Y55380500D01*
X23107000Y55380500D01*
X23081588Y55378683D01*
X23035063Y55375356D01*
X23035055Y55375354D01*
X22897008Y55334819D01*
X22897006Y55334818D01*
X22775968Y55257032D01*
X22681746Y55148295D01*
X22621976Y55017417D01*
X22617676Y54987509D01*
X22603401Y54888217D01*
X22601500Y54874998D01*
X22601500Y54751500D01*
X22581498Y54683379D01*
X22527842Y54636886D01*
X22475500Y54625500D01*
X21913500Y54625500D01*
X21845379Y54645502D01*
X21798886Y54699158D01*
X21787500Y54751500D01*
X21787500Y54874995D01*
X21786554Y54888216D01*
X21782355Y54946940D01*
X21741819Y55084992D01*
X21664031Y55206032D01*
X21555294Y55300254D01*
X21424416Y55360024D01*
X21282000Y55380500D01*
X20682000Y55380500D01*
X20656588Y55378683D01*
X20610063Y55375356D01*
X20610055Y55375354D01*
X20472008Y55334819D01*
X20472006Y55334818D01*
X20350968Y55257032D01*
X20256746Y55148295D01*
X20196976Y55017417D01*
X20192676Y54987509D01*
X20178401Y54888217D01*
X20176500Y54874998D01*
X20176500Y54786739D01*
X20156498Y54718618D01*
X20102842Y54672125D01*
X20032568Y54662021D01*
X19974991Y54685871D01*
X19924330Y54723796D01*
X19924328Y54723797D01*
X19924325Y54723799D01*
X19789482Y54774091D01*
X19789485Y54774091D01*
X19729877Y54780500D01*
X19729872Y54780500D01*
X18477337Y54780500D01*
X18467126Y54781542D01*
X18467090Y54781044D01*
X18458930Y54781646D01*
X18442111Y54780699D01*
X18435037Y54780500D01*
X18364134Y54780500D01*
X18364112Y54780498D01*
X18304516Y54774092D01*
X18286175Y54767252D01*
X18273649Y54763311D01*
X18254077Y54758259D01*
X18231930Y54747588D01*
X18221277Y54743046D01*
X18169667Y54723796D01*
X18169664Y54723795D01*
X18156202Y54713716D01*
X18135349Y54701056D01*
X18134517Y54700655D01*
X18133384Y54700109D01*
X18063329Y54688584D01*
X17998164Y54716762D01*
X17958578Y54775698D01*
X17955999Y54788184D01*
X17955441Y54788064D01*
X17953999Y54794796D01*
X17950451Y54805502D01*
X17923043Y54888217D01*
X17898814Y54961335D01*
X17842004Y55053437D01*
X17806712Y55110656D01*
X17806711Y55110657D01*
X17806706Y55110663D01*
X17682662Y55234707D01*
X17682656Y55234712D01*
X17533334Y55326815D01*
X17366803Y55381998D01*
X17366791Y55382000D01*
X17264017Y55392500D01*
X16263990Y55392500D01*
X16161202Y55382000D01*
X15994665Y55326815D01*
X15845343Y55234712D01*
X15749005Y55138374D01*
X15686693Y55104349D01*
X15615877Y55109415D01*
X15585850Y55125533D01*
X15584546Y55126480D01*
X15565730Y55140151D01*
X15547438Y55148295D01*
X15523186Y55159093D01*
X15392803Y55217144D01*
X15392801Y55217145D01*
X15392800Y55217145D01*
X15207646Y55256500D01*
X15018354Y55256500D01*
X14833199Y55217145D01*
X14660267Y55140151D01*
X14660267Y55140150D01*
X14507126Y55028887D01*
X14380466Y54888217D01*
X14380465Y54888215D01*
X14285822Y54724287D01*
X14285818Y54724279D01*
X14227325Y54544257D01*
X14207540Y54356000D01*
X14227325Y54167744D01*
X14285818Y53987722D01*
X14285822Y53987714D01*
X14380465Y53823786D01*
X14380466Y53823784D01*
X14507126Y53683114D01*
X14660267Y53571851D01*
X14660267Y53571850D01*
X14707612Y53550771D01*
X14833197Y53494856D01*
X15018354Y53455500D01*
X15207646Y53455500D01*
X15392803Y53494856D01*
X15565730Y53571849D01*
X15613073Y53606247D01*
X15679938Y53630103D01*
X15749090Y53614023D01*
X15776227Y53593404D01*
X15813536Y53556095D01*
X15847562Y53493783D01*
X15842497Y53422968D01*
X15813536Y53377905D01*
X15721293Y53285663D01*
X15721288Y53285657D01*
X15629185Y53136335D01*
X15574002Y52969804D01*
X15574000Y52969792D01*
X15563500Y52867018D01*
X15563500Y52241991D01*
X15574000Y52139203D01*
X15629185Y51972666D01*
X15659359Y51923748D01*
X15669380Y51907500D01*
X15669630Y51907096D01*
X15688367Y51838617D01*
X15667108Y51770878D01*
X15651485Y51751854D01*
X15546288Y51646657D01*
X15454185Y51497335D01*
X15399002Y51330804D01*
X15399000Y51330792D01*
X15388500Y51228018D01*
X15388500Y50957111D01*
X15368498Y50888990D01*
X15351595Y50868016D01*
X12064121Y47580542D01*
X12064118Y47580539D01*
X12044335Y47560756D01*
X12026083Y47542504D01*
X11963771Y47508480D01*
X11892955Y47513546D01*
X11836122Y47556090D01*
X11827545Y47567547D01*
X11788852Y47596512D01*
X11712331Y47653796D01*
X11712329Y47653797D01*
X11712326Y47653799D01*
X11577483Y47704091D01*
X11577486Y47704091D01*
X11517873Y47710500D01*
X7422135Y47710500D01*
X7422114Y47710498D01*
X7362519Y47704092D01*
X7362518Y47704092D01*
X7227673Y47653799D01*
X7227670Y47653797D01*
X7112453Y47567547D01*
X7026203Y47452330D01*
X7026201Y47452327D01*
X6975909Y47317485D01*
X6969500Y47257879D01*
X5344500Y47257879D01*
X5344500Y64096079D01*
X52026300Y64096079D01*
X52026300Y62323936D01*
X52026302Y62323915D01*
X52032708Y62264320D01*
X52032708Y62264319D01*
X52083001Y62129474D01*
X52083003Y62129471D01*
X52169253Y62014254D01*
X52226861Y61971129D01*
X52284469Y61928004D01*
X52284471Y61928004D01*
X52284473Y61928002D01*
X52344830Y61905491D01*
X52419314Y61877710D01*
X52419317Y61877709D01*
X52478927Y61871300D01*
X54251072Y61871301D01*
X54310683Y61877709D01*
X54445531Y61928004D01*
X54560746Y62014254D01*
X54646996Y62129469D01*
X54697291Y62264317D01*
X54703700Y62323927D01*
X54703699Y64096072D01*
X54703698Y64096079D01*
X58326300Y64096079D01*
X58326300Y62323936D01*
X58326302Y62323915D01*
X58332708Y62264320D01*
X58332708Y62264319D01*
X58383001Y62129474D01*
X58383003Y62129471D01*
X58469253Y62014254D01*
X58526861Y61971129D01*
X58584469Y61928004D01*
X58584471Y61928004D01*
X58584473Y61928002D01*
X58644830Y61905491D01*
X58719314Y61877710D01*
X58719317Y61877709D01*
X58778927Y61871300D01*
X60551072Y61871301D01*
X60610683Y61877709D01*
X60745531Y61928004D01*
X60860746Y62014254D01*
X60946996Y62129469D01*
X60997291Y62264317D01*
X61003700Y62323927D01*
X61003699Y64096072D01*
X60997291Y64155683D01*
X60976000Y64212765D01*
X60946998Y64290527D01*
X60946996Y64290530D01*
X60946996Y64290531D01*
X60903871Y64348139D01*
X60873280Y64389004D01*
X83703659Y64389004D01*
X83703659Y64388997D01*
X83722974Y64192876D01*
X83722974Y64192874D01*
X83780186Y64004272D01*
X83873090Y63830462D01*
X83998117Y63678117D01*
X84150462Y63553090D01*
X84324273Y63460186D01*
X84512868Y63402976D01*
X84512872Y63402976D01*
X84512874Y63402975D01*
X84708997Y63383659D01*
X84709000Y63383659D01*
X84709003Y63383659D01*
X84905124Y63402975D01*
X84905126Y63402975D01*
X84905127Y63402976D01*
X84905132Y63402976D01*
X85093727Y63460186D01*
X85267538Y63553090D01*
X85419883Y63678117D01*
X85544910Y63830462D01*
X85637814Y64004273D01*
X85695024Y64192868D01*
X85695025Y64192876D01*
X85714341Y64388997D01*
X85714341Y64389004D01*
X85695025Y64585125D01*
X85695025Y64585127D01*
X85695024Y64585130D01*
X85695024Y64585132D01*
X85637814Y64773727D01*
X85544910Y64947538D01*
X85419883Y65099883D01*
X85267538Y65224910D01*
X85093728Y65317814D01*
X84905125Y65375026D01*
X84709003Y65394341D01*
X84708997Y65394341D01*
X84512875Y65375026D01*
X84512873Y65375026D01*
X84324271Y65317814D01*
X84150461Y65224910D01*
X83998117Y65099883D01*
X83873090Y64947539D01*
X83780186Y64773729D01*
X83722974Y64585127D01*
X83722974Y64585125D01*
X83703659Y64389004D01*
X60873280Y64389004D01*
X60860746Y64405747D01*
X60783791Y64463355D01*
X60745531Y64491996D01*
X60745529Y64491997D01*
X60745526Y64491999D01*
X60610683Y64542291D01*
X60610686Y64542291D01*
X60551073Y64548700D01*
X58778935Y64548700D01*
X58778914Y64548698D01*
X58719319Y64542292D01*
X58719318Y64542292D01*
X58584473Y64491999D01*
X58584470Y64491997D01*
X58469253Y64405747D01*
X58383003Y64290530D01*
X58383001Y64290527D01*
X58332709Y64155685D01*
X58326300Y64096079D01*
X54703698Y64096079D01*
X54697291Y64155683D01*
X54676000Y64212765D01*
X54646998Y64290527D01*
X54646996Y64290530D01*
X54646996Y64290531D01*
X54603871Y64348139D01*
X54560746Y64405747D01*
X54483791Y64463355D01*
X54445531Y64491996D01*
X54445529Y64491997D01*
X54445526Y64491999D01*
X54310683Y64542291D01*
X54310686Y64542291D01*
X54251073Y64548700D01*
X52478935Y64548700D01*
X52478914Y64548698D01*
X52419319Y64542292D01*
X52419318Y64542292D01*
X52284473Y64491999D01*
X52284470Y64491997D01*
X52169253Y64405747D01*
X52083003Y64290530D01*
X52083001Y64290527D01*
X52032709Y64155685D01*
X52026300Y64096079D01*
X5344500Y64096079D01*
X5344500Y65649500D01*
X5364502Y65717621D01*
X5418158Y65764114D01*
X5470500Y65775500D01*
X85969500Y65775500D01*
X86037621Y65755498D01*
G37*
%TD.AperFunction*%
%TD*%
%TA.AperFunction,Conductor*%
%TO.N,/Power Input/Power_load*%
G36*
X37735672Y54861341D02*
G01*
X37736702Y54860164D01*
X38017759Y54491677D01*
X38020051Y54483020D01*
X38019021Y54479555D01*
X37730497Y53873067D01*
X37723849Y53867068D01*
X37714906Y53867528D01*
X37709392Y53873014D01*
X37418411Y54476846D01*
X37417908Y54485785D01*
X37422446Y54491648D01*
X37715699Y54687700D01*
X37715699Y54853068D01*
X37719126Y54861341D01*
X37727399Y54864768D01*
X37735672Y54861341D01*
G37*
%TD.AperFunction*%
%TD*%
%TA.AperFunction,Conductor*%
%TO.N,/Power Input/Power_load*%
G36*
X40681179Y54800155D02*
G01*
X40880341Y54600993D01*
X40883768Y54592720D01*
X40882977Y54588492D01*
X40567828Y53775357D01*
X40561643Y53768881D01*
X40553791Y53768311D01*
X40267316Y53847790D01*
X40260260Y53853304D01*
X40258758Y53859644D01*
X40289693Y54480901D01*
X40293528Y54488992D01*
X40293840Y54489266D01*
X40665390Y54800848D01*
X40673929Y54803537D01*
X40681179Y54800155D01*
G37*
%TD.AperFunction*%
%TD*%
%TA.AperFunction,Conductor*%
%TO.N,/Power Input/Power_load*%
G36*
X40265011Y53834449D02*
G01*
X40270497Y53828935D01*
X40559021Y53222447D01*
X40559481Y53213504D01*
X40557759Y53210325D01*
X40276703Y52841837D01*
X40268961Y52837338D01*
X40260304Y52839630D01*
X40255805Y52847372D01*
X40255700Y52848933D01*
X40255700Y53014299D01*
X40255700Y53014300D01*
X39962448Y53210352D01*
X39957476Y53217798D01*
X39958411Y53225156D01*
X40249393Y53828990D01*
X40256071Y53834953D01*
X40265011Y53834449D01*
G37*
%TD.AperFunction*%
%TD*%
%TA.AperFunction,Conductor*%
%TO.N,/Fuel Gauge/PACK+*%
G36*
X32393550Y51736270D02*
G01*
X32687827Y51538477D01*
X32692781Y51531018D01*
X32693000Y51528767D01*
X32693000Y51341234D01*
X32689573Y51332961D01*
X32687827Y51331524D01*
X32393553Y51133733D01*
X32384775Y51131962D01*
X32381967Y51132893D01*
X32380215Y51133733D01*
X31773998Y51424451D01*
X31768021Y51431118D01*
X31768508Y51440059D01*
X31773999Y51445550D01*
X32381969Y51737109D01*
X32390908Y51737595D01*
X32393550Y51736270D01*
G37*
%TD.AperFunction*%
%TD*%
%TA.AperFunction,Conductor*%
%TO.N,Net-(Q3-G)*%
G36*
X18418026Y54277110D02*
G01*
X18832224Y54078477D01*
X19025999Y53985550D01*
X19031977Y53978882D01*
X19031490Y53969941D01*
X19025999Y53964450D01*
X18418031Y53672893D01*
X18409090Y53672406D01*
X18406445Y53673733D01*
X18112172Y53871524D01*
X18107218Y53878983D01*
X18106999Y53881234D01*
X18106999Y54068767D01*
X18110426Y54077040D01*
X18112172Y54078477D01*
X18406447Y54276269D01*
X18415223Y54278039D01*
X18418026Y54277110D01*
G37*
%TD.AperFunction*%
%TD*%
%TA.AperFunction,Conductor*%
%TO.N,/Power Input/Power_load*%
G36*
X38995011Y53834449D02*
G01*
X39000497Y53828935D01*
X39289021Y53222447D01*
X39289481Y53213504D01*
X39287759Y53210325D01*
X39006703Y52841837D01*
X38998961Y52837338D01*
X38990304Y52839630D01*
X38985805Y52847372D01*
X38985700Y52848933D01*
X38985700Y53014299D01*
X38985700Y53014300D01*
X38692448Y53210352D01*
X38687476Y53217798D01*
X38688411Y53225156D01*
X38979393Y53828990D01*
X38986071Y53834953D01*
X38995011Y53834449D01*
G37*
%TD.AperFunction*%
%TD*%
%TA.AperFunction,Conductor*%
%TO.N,Net-(Q1-G)*%
G36*
X41841474Y54150919D02*
G01*
X42228915Y53960740D01*
X42234832Y53954018D01*
X42234263Y53945082D01*
X42232033Y53941964D01*
X42031483Y53741414D01*
X42031470Y53741400D01*
X41842292Y53552838D01*
X41834013Y53549425D01*
X41825745Y53552865D01*
X41536565Y53843397D01*
X41533158Y53851677D01*
X41536604Y53859942D01*
X41536605Y53859944D01*
X41828085Y54148728D01*
X41836374Y54152115D01*
X41841474Y54150919D01*
G37*
%TD.AperFunction*%
%TD*%
%TA.AperFunction,Conductor*%
%TO.N,/Power Input/Power_load*%
G36*
X37723093Y53834475D02*
G01*
X37728607Y53828989D01*
X38019587Y53225158D01*
X38020091Y53216218D01*
X38015549Y53210352D01*
X37722299Y53014300D01*
X37722299Y53014299D01*
X37722299Y52848933D01*
X37718872Y52840660D01*
X37710599Y52837233D01*
X37702326Y52840660D01*
X37701296Y52841837D01*
X37420239Y53210326D01*
X37417947Y53218983D01*
X37418975Y53222443D01*
X37707503Y53828938D01*
X37714150Y53834935D01*
X37723093Y53834475D01*
G37*
%TD.AperFunction*%
%TD*%
%TA.AperFunction,Conductor*%
%TO.N,/Fuel Gauge/PACK+*%
G36*
X31310572Y52022637D02*
G01*
X31869578Y51744849D01*
X31875461Y51738098D01*
X31875193Y51729924D01*
X31758421Y51445766D01*
X31752107Y51439416D01*
X31743152Y51439391D01*
X31742528Y51439669D01*
X31127016Y51735665D01*
X31121046Y51742339D01*
X31120883Y51749580D01*
X31124395Y51761253D01*
X31160774Y51882140D01*
X31163702Y51887037D01*
X31297097Y52020432D01*
X31305369Y52023858D01*
X31310572Y52022637D01*
G37*
%TD.AperFunction*%
%TD*%
M02*
